<?xml version="1.0" encoding="utf-8" standalone="no"?>
<!DOCTYPE svg PUBLIC "-//W3C//DTD SVG 1.1//EN"
  "http://www.w3.org/Graphics/SVG/1.1/DTD/svg11.dtd">
<svg xmlns:xlink="http://www.w3.org/1999/xlink" width="341.208205pt" height="338.071906pt" viewBox="0 0 341.208205 338.071906" xmlns="http://www.w3.org/2000/svg" version="1.1">
 <metadata>
  <rdf:RDF xmlns:dc="http://purl.org/dc/elements/1.1/" xmlns:cc="http://creativecommons.org/ns#" xmlns:rdf="http://www.w3.org/1999/02/22-rdf-syntax-ns#">
   <cc:Work>
    <dc:type rdf:resource="http://purl.org/dc/dcmitype/StillImage"/>
    <dc:date>2025-10-29T15:22:05.471339</dc:date>
    <dc:format>image/svg+xml</dc:format>
    <dc:creator>
     <cc:Agent>
      <dc:title>Matplotlib v3.10.5, https://matplotlib.org/</dc:title>
     </cc:Agent>
    </dc:creator>
   </cc:Work>
  </rdf:RDF>
 </metadata>
 <defs>
  <style type="text/css">*{stroke-linejoin: round; stroke-linecap: butt}</style>
 </defs>
 <g id="figure_1">
  <g id="patch_1">
   <path d="M 0 338.071906 
L 341.208205 338.071906 
L 341.208205 0 
L 0 0 
z
" style="fill: #ffffff"/>
  </g>
  <g id="axes_1">
   <g id="patch_2">
    <path d="M 13.431097 330.871906 
L 320.868205 330.871906 
L 320.868205 23.4425 
L 13.431097 23.4425 
z
" style="fill: #ffffff"/>
   </g>
   <g id="matplotlib.axis_1">
    <g id="xtick_1">
     <g id="line2d_1">
      <defs>
       <path id="m6758398940" d="M 0 0 
L 0 3.5 
" style="stroke: #000000; stroke-width: 0.8"/>
      </defs>
      <g>
       <use xlink:href="#m6758398940" x="19.341406" y="177.161901" style="stroke: #000000; stroke-width: 0.8"/>
      </g>
     </g>
     <g id="text_1">
      <!-- −1.0 -->
      <g transform="translate(7.2 191.760338) scale(0.1 -0.1)">
       <defs>
        <path id="DejaVuSans-2212" d="M 678 2272 
L 4684 2272 
L 4684 1741 
L 678 1741 
L 678 2272 
z
" transform="scale(0.015625)"/>
        <path id="DejaVuSans-31" d="M 794 531 
L 1825 531 
L 1825 4091 
L 703 3866 
L 703 4441 
L 1819 4666 
L 2450 4666 
L 2450 531 
L 3481 531 
L 3481 0 
L 794 0 
L 794 531 
z
" transform="scale(0.015625)"/>
        <path id="DejaVuSans-2e" d="M 684 794 
L 1344 794 
L 1344 0 
L 684 0 
L 684 794 
z
" transform="scale(0.015625)"/>
        <path id="DejaVuSans-30" d="M 2034 4250 
Q 1547 4250 1301 3770 
Q 1056 3291 1056 2328 
Q 1056 1369 1301 889 
Q 1547 409 2034 409 
Q 2525 409 2770 889 
Q 3016 1369 3016 2328 
Q 3016 3291 2770 3770 
Q 2525 4250 2034 4250 
z
M 2034 4750 
Q 2819 4750 3233 4129 
Q 3647 3509 3647 2328 
Q 3647 1150 3233 529 
Q 2819 -91 2034 -91 
Q 1250 -91 836 529 
Q 422 1150 422 2328 
Q 422 3509 836 4129 
Q 1250 4750 2034 4750 
z
" transform="scale(0.015625)"/>
       </defs>
       <use xlink:href="#DejaVuSans-2212"/>
       <use xlink:href="#DejaVuSans-31" transform="translate(83.789062 0)"/>
       <use xlink:href="#DejaVuSans-2e" transform="translate(147.412109 0)"/>
       <use xlink:href="#DejaVuSans-30" transform="translate(179.199219 0)"/>
      </g>
     </g>
    </g>
    <g id="xtick_2">
     <g id="line2d_2">
      <g>
       <use xlink:href="#m6758398940" x="93.245055" y="177.161901" style="stroke: #000000; stroke-width: 0.8"/>
      </g>
     </g>
     <g id="text_2">
      <!-- −0.5 -->
      <g transform="translate(81.103648 191.760338) scale(0.1 -0.1)">
       <defs>
        <path id="DejaVuSans-35" d="M 691 4666 
L 3169 4666 
L 3169 4134 
L 1269 4134 
L 1269 2991 
Q 1406 3038 1543 3061 
Q 1681 3084 1819 3084 
Q 2600 3084 3056 2656 
Q 3513 2228 3513 1497 
Q 3513 744 3044 326 
Q 2575 -91 1722 -91 
Q 1428 -91 1123 -41 
Q 819 9 494 109 
L 494 744 
Q 775 591 1075 516 
Q 1375 441 1709 441 
Q 2250 441 2565 725 
Q 2881 1009 2881 1497 
Q 2881 1984 2565 2268 
Q 2250 2553 1709 2553 
Q 1456 2553 1204 2497 
Q 953 2441 691 2322 
L 691 4666 
z
" transform="scale(0.015625)"/>
       </defs>
       <use xlink:href="#DejaVuSans-2212"/>
       <use xlink:href="#DejaVuSans-30" transform="translate(83.789062 0)"/>
       <use xlink:href="#DejaVuSans-2e" transform="translate(147.412109 0)"/>
       <use xlink:href="#DejaVuSans-35" transform="translate(179.199219 0)"/>
      </g>
     </g>
    </g>
    <g id="xtick_3">
     <g id="line2d_3">
      <g>
       <use xlink:href="#m6758398940" x="167.148703" y="177.161901" style="stroke: #000000; stroke-width: 0.8"/>
      </g>
     </g>
    </g>
    <g id="xtick_4">
     <g id="line2d_4">
      <g>
       <use xlink:href="#m6758398940" x="241.052351" y="177.161901" style="stroke: #000000; stroke-width: 0.8"/>
      </g>
     </g>
     <g id="text_3">
      <!-- 0.5 -->
      <g transform="translate(233.100789 191.760338) scale(0.1 -0.1)">
       <use xlink:href="#DejaVuSans-30"/>
       <use xlink:href="#DejaVuSans-2e" transform="translate(63.623047 0)"/>
       <use xlink:href="#DejaVuSans-35" transform="translate(95.410156 0)"/>
      </g>
     </g>
    </g>
    <g id="xtick_5">
     <g id="line2d_5">
      <g>
       <use xlink:href="#m6758398940" x="314.955999" y="177.161901" style="stroke: #000000; stroke-width: 0.8"/>
      </g>
     </g>
     <g id="text_4">
      <!-- 1.0 -->
      <g transform="translate(307.004437 191.760338) scale(0.1 -0.1)">
       <use xlink:href="#DejaVuSans-31"/>
       <use xlink:href="#DejaVuSans-2e" transform="translate(63.623047 0)"/>
       <use xlink:href="#DejaVuSans-30" transform="translate(95.410156 0)"/>
      </g>
     </g>
    </g>
    <g id="xtick_6">
     <g id="line2d_6">
      <defs>
       <path id="m10722daad8" d="M 0 0 
L 0 2 
" style="stroke: #000000; stroke-width: 0.6"/>
      </defs>
      <g>
       <use xlink:href="#m10722daad8" x="34.122136" y="177.161901" style="stroke: #000000; stroke-width: 0.6"/>
      </g>
     </g>
    </g>
    <g id="xtick_7">
     <g id="line2d_7">
      <g>
       <use xlink:href="#m10722daad8" x="48.902866" y="177.161901" style="stroke: #000000; stroke-width: 0.6"/>
      </g>
     </g>
    </g>
    <g id="xtick_8">
     <g id="line2d_8">
      <g>
       <use xlink:href="#m10722daad8" x="63.683595" y="177.161901" style="stroke: #000000; stroke-width: 0.6"/>
      </g>
     </g>
    </g>
    <g id="xtick_9">
     <g id="line2d_9">
      <g>
       <use xlink:href="#m10722daad8" x="78.464325" y="177.161901" style="stroke: #000000; stroke-width: 0.6"/>
      </g>
     </g>
    </g>
    <g id="xtick_10">
     <g id="line2d_10">
      <g>
       <use xlink:href="#m10722daad8" x="108.025784" y="177.161901" style="stroke: #000000; stroke-width: 0.6"/>
      </g>
     </g>
    </g>
    <g id="xtick_11">
     <g id="line2d_11">
      <g>
       <use xlink:href="#m10722daad8" x="122.806514" y="177.161901" style="stroke: #000000; stroke-width: 0.6"/>
      </g>
     </g>
    </g>
    <g id="xtick_12">
     <g id="line2d_12">
      <g>
       <use xlink:href="#m10722daad8" x="137.587244" y="177.161901" style="stroke: #000000; stroke-width: 0.6"/>
      </g>
     </g>
    </g>
    <g id="xtick_13">
     <g id="line2d_13">
      <g>
       <use xlink:href="#m10722daad8" x="152.367973" y="177.161901" style="stroke: #000000; stroke-width: 0.6"/>
      </g>
     </g>
    </g>
    <g id="xtick_14">
     <g id="line2d_14">
      <g>
       <use xlink:href="#m10722daad8" x="181.929432" y="177.161901" style="stroke: #000000; stroke-width: 0.6"/>
      </g>
     </g>
    </g>
    <g id="xtick_15">
     <g id="line2d_15">
      <g>
       <use xlink:href="#m10722daad8" x="196.710162" y="177.161901" style="stroke: #000000; stroke-width: 0.6"/>
      </g>
     </g>
    </g>
    <g id="xtick_16">
     <g id="line2d_16">
      <g>
       <use xlink:href="#m10722daad8" x="211.490892" y="177.161901" style="stroke: #000000; stroke-width: 0.6"/>
      </g>
     </g>
    </g>
    <g id="xtick_17">
     <g id="line2d_17">
      <g>
       <use xlink:href="#m10722daad8" x="226.271621" y="177.161901" style="stroke: #000000; stroke-width: 0.6"/>
      </g>
     </g>
    </g>
    <g id="xtick_18">
     <g id="line2d_18">
      <g>
       <use xlink:href="#m10722daad8" x="255.833081" y="177.161901" style="stroke: #000000; stroke-width: 0.6"/>
      </g>
     </g>
    </g>
    <g id="xtick_19">
     <g id="line2d_19">
      <g>
       <use xlink:href="#m10722daad8" x="270.61381" y="177.161901" style="stroke: #000000; stroke-width: 0.6"/>
      </g>
     </g>
    </g>
    <g id="xtick_20">
     <g id="line2d_20">
      <g>
       <use xlink:href="#m10722daad8" x="285.39454" y="177.161901" style="stroke: #000000; stroke-width: 0.6"/>
      </g>
     </g>
    </g>
    <g id="xtick_21">
     <g id="line2d_21">
      <g>
       <use xlink:href="#m10722daad8" x="300.17527" y="177.161901" style="stroke: #000000; stroke-width: 0.6"/>
      </g>
     </g>
    </g>
    <g id="text_5">
     <!-- $x$ -->
     <g transform="translate(328.868205 177.161901) scale(0.16 -0.16)">
      <defs>
       <path id="Cmmi10-78" d="M 500 184 
Q 613 97 819 97 
Q 1019 97 1172 289 
Q 1325 481 1381 709 
L 1672 1844 
Q 1741 2153 1741 2266 
Q 1741 2425 1652 2544 
Q 1563 2663 1403 2663 
Q 1200 2663 1022 2536 
Q 844 2409 722 2214 
Q 600 2019 550 1819 
Q 538 1778 500 1778 
L 422 1778 
Q 372 1778 372 1838 
L 372 1856 
Q 434 2094 584 2320 
Q 734 2547 951 2687 
Q 1169 2828 1416 2828 
Q 1650 2828 1839 2703 
Q 2028 2578 2106 2363 
Q 2216 2559 2386 2693 
Q 2556 2828 2759 2828 
Q 2897 2828 3040 2779 
Q 3184 2731 3275 2631 
Q 3366 2531 3366 2381 
Q 3366 2219 3261 2101 
Q 3156 1984 2994 1984 
Q 2891 1984 2822 2050 
Q 2753 2116 2753 2216 
Q 2753 2350 2845 2451 
Q 2938 2553 3066 2572 
Q 2950 2663 2747 2663 
Q 2541 2663 2389 2472 
Q 2238 2281 2175 2047 
L 1894 916 
Q 1825 659 1825 494 
Q 1825 331 1917 214 
Q 2009 97 2163 97 
Q 2463 97 2698 361 
Q 2934 625 3009 941 
Q 3022 978 3059 978 
L 3138 978 
Q 3163 978 3178 961 
Q 3194 944 3194 922 
Q 3194 916 3188 903 
Q 3097 522 2806 225 
Q 2516 -72 2150 -72 
Q 1916 -72 1727 54 
Q 1538 181 1459 397 
Q 1359 209 1182 68 
Q 1006 -72 806 -72 
Q 669 -72 523 -23 
Q 378 25 287 125 
Q 197 225 197 378 
Q 197 528 301 651 
Q 406 775 563 775 
Q 669 775 741 711 
Q 813 647 813 544 
Q 813 409 723 309 
Q 634 209 500 184 
z
" transform="scale(0.015625)"/>
      </defs>
      <use xlink:href="#Cmmi10-78" transform="translate(0 0.8125)"/>
     </g>
    </g>
   </g>
   <g id="matplotlib.axis_2">
    <g id="ytick_1">
     <g id="line2d_22">
      <defs>
       <path id="m0b4d27e1f6" d="M 0 0 
L -3.5 0 
" style="stroke: #000000; stroke-width: 0.8"/>
      </defs>
      <g>
       <use xlink:href="#m0b4d27e1f6" x="167.148703" y="324.969197" style="stroke: #000000; stroke-width: 0.8"/>
      </g>
     </g>
     <g id="text_6">
      <!-- −1.0 -->
      <g transform="translate(135.86589 328.768416) scale(0.1 -0.1)">
       <use xlink:href="#DejaVuSans-2212"/>
       <use xlink:href="#DejaVuSans-31" transform="translate(83.789062 0)"/>
       <use xlink:href="#DejaVuSans-2e" transform="translate(147.412109 0)"/>
       <use xlink:href="#DejaVuSans-30" transform="translate(179.199219 0)"/>
      </g>
     </g>
    </g>
    <g id="ytick_2">
     <g id="line2d_23">
      <g>
       <use xlink:href="#m0b4d27e1f6" x="167.148703" y="251.065549" style="stroke: #000000; stroke-width: 0.8"/>
      </g>
     </g>
     <g id="text_7">
      <!-- −0.5 -->
      <g transform="translate(135.86589 254.864768) scale(0.1 -0.1)">
       <use xlink:href="#DejaVuSans-2212"/>
       <use xlink:href="#DejaVuSans-30" transform="translate(83.789062 0)"/>
       <use xlink:href="#DejaVuSans-2e" transform="translate(147.412109 0)"/>
       <use xlink:href="#DejaVuSans-35" transform="translate(179.199219 0)"/>
      </g>
     </g>
    </g>
    <g id="ytick_3">
     <g id="line2d_24">
      <g>
       <use xlink:href="#m0b4d27e1f6" x="167.148703" y="177.161901" style="stroke: #000000; stroke-width: 0.8"/>
      </g>
     </g>
    </g>
    <g id="ytick_4">
     <g id="line2d_25">
      <g>
       <use xlink:href="#m0b4d27e1f6" x="167.148703" y="103.258252" style="stroke: #000000; stroke-width: 0.8"/>
      </g>
     </g>
     <g id="text_8">
      <!-- 0.5 -->
      <g transform="translate(144.245578 107.057471) scale(0.1 -0.1)">
       <use xlink:href="#DejaVuSans-30"/>
       <use xlink:href="#DejaVuSans-2e" transform="translate(63.623047 0)"/>
       <use xlink:href="#DejaVuSans-35" transform="translate(95.410156 0)"/>
      </g>
     </g>
    </g>
    <g id="ytick_5">
     <g id="line2d_26">
      <g>
       <use xlink:href="#m0b4d27e1f6" x="167.148703" y="29.354604" style="stroke: #000000; stroke-width: 0.8"/>
      </g>
     </g>
     <g id="text_9">
      <!-- 1.0 -->
      <g transform="translate(144.245578 33.153823) scale(0.1 -0.1)">
       <use xlink:href="#DejaVuSans-31"/>
       <use xlink:href="#DejaVuSans-2e" transform="translate(63.623047 0)"/>
       <use xlink:href="#DejaVuSans-30" transform="translate(95.410156 0)"/>
      </g>
     </g>
    </g>
    <g id="ytick_6">
     <g id="line2d_27">
      <defs>
       <path id="m904ca7bd7f" d="M 0 0 
L -2 0 
" style="stroke: #000000; stroke-width: 0.6"/>
      </defs>
      <g>
       <use xlink:href="#m904ca7bd7f" x="167.148703" y="310.188467" style="stroke: #000000; stroke-width: 0.6"/>
      </g>
     </g>
    </g>
    <g id="ytick_7">
     <g id="line2d_28">
      <g>
       <use xlink:href="#m904ca7bd7f" x="167.148703" y="295.407738" style="stroke: #000000; stroke-width: 0.6"/>
      </g>
     </g>
    </g>
    <g id="ytick_8">
     <g id="line2d_29">
      <g>
       <use xlink:href="#m904ca7bd7f" x="167.148703" y="280.627008" style="stroke: #000000; stroke-width: 0.6"/>
      </g>
     </g>
    </g>
    <g id="ytick_9">
     <g id="line2d_30">
      <g>
       <use xlink:href="#m904ca7bd7f" x="167.148703" y="265.846278" style="stroke: #000000; stroke-width: 0.6"/>
      </g>
     </g>
    </g>
    <g id="ytick_10">
     <g id="line2d_31">
      <g>
       <use xlink:href="#m904ca7bd7f" x="167.148703" y="236.284819" style="stroke: #000000; stroke-width: 0.6"/>
      </g>
     </g>
    </g>
    <g id="ytick_11">
     <g id="line2d_32">
      <g>
       <use xlink:href="#m904ca7bd7f" x="167.148703" y="221.50409" style="stroke: #000000; stroke-width: 0.6"/>
      </g>
     </g>
    </g>
    <g id="ytick_12">
     <g id="line2d_33">
      <g>
       <use xlink:href="#m904ca7bd7f" x="167.148703" y="206.72336" style="stroke: #000000; stroke-width: 0.6"/>
      </g>
     </g>
    </g>
    <g id="ytick_13">
     <g id="line2d_34">
      <g>
       <use xlink:href="#m904ca7bd7f" x="167.148703" y="191.94263" style="stroke: #000000; stroke-width: 0.6"/>
      </g>
     </g>
    </g>
    <g id="ytick_14">
     <g id="line2d_35">
      <g>
       <use xlink:href="#m904ca7bd7f" x="167.148703" y="162.381171" style="stroke: #000000; stroke-width: 0.6"/>
      </g>
     </g>
    </g>
    <g id="ytick_15">
     <g id="line2d_36">
      <g>
       <use xlink:href="#m904ca7bd7f" x="167.148703" y="147.600441" style="stroke: #000000; stroke-width: 0.6"/>
      </g>
     </g>
    </g>
    <g id="ytick_16">
     <g id="line2d_37">
      <g>
       <use xlink:href="#m904ca7bd7f" x="167.148703" y="132.819712" style="stroke: #000000; stroke-width: 0.6"/>
      </g>
     </g>
    </g>
    <g id="ytick_17">
     <g id="line2d_38">
      <g>
       <use xlink:href="#m904ca7bd7f" x="167.148703" y="118.038982" style="stroke: #000000; stroke-width: 0.6"/>
      </g>
     </g>
    </g>
    <g id="ytick_18">
     <g id="line2d_39">
      <g>
       <use xlink:href="#m904ca7bd7f" x="167.148703" y="88.477523" style="stroke: #000000; stroke-width: 0.6"/>
      </g>
     </g>
    </g>
    <g id="ytick_19">
     <g id="line2d_40">
      <g>
       <use xlink:href="#m904ca7bd7f" x="167.148703" y="73.696793" style="stroke: #000000; stroke-width: 0.6"/>
      </g>
     </g>
    </g>
    <g id="ytick_20">
     <g id="line2d_41">
      <g>
       <use xlink:href="#m904ca7bd7f" x="167.148703" y="58.916063" style="stroke: #000000; stroke-width: 0.6"/>
      </g>
     </g>
    </g>
    <g id="ytick_21">
     <g id="line2d_42">
      <g>
       <use xlink:href="#m904ca7bd7f" x="167.148703" y="44.135334" style="stroke: #000000; stroke-width: 0.6"/>
      </g>
     </g>
    </g>
    <g id="text_10">
     <!-- $y$ -->
     <g transform="translate(163.148703 12.0825) scale(0.16 -0.16)">
      <defs>
       <path id="Cmmi10-79" d="M 538 -916 
Q 672 -1147 1006 -1147 
Q 1309 -1147 1531 -934 
Q 1753 -722 1889 -420 
Q 2025 -119 2100 197 
Q 1816 -72 1484 -72 
Q 1231 -72 1053 15 
Q 875 103 776 276 
Q 678 450 678 697 
Q 678 906 734 1126 
Q 791 1347 892 1617 
Q 994 1888 1069 2088 
Q 1153 2322 1153 2472 
Q 1153 2663 1013 2663 
Q 759 2663 595 2402 
Q 431 2141 353 1819 
Q 341 1778 300 1778 
L 225 1778 
Q 172 1778 172 1838 
L 172 1856 
Q 275 2238 487 2533 
Q 700 2828 1025 2828 
Q 1253 2828 1411 2678 
Q 1569 2528 1569 2297 
Q 1569 2178 1516 2047 
Q 1488 1969 1388 1706 
Q 1288 1444 1234 1272 
Q 1181 1100 1147 934 
Q 1113 769 1113 603 
Q 1113 391 1203 244 
Q 1294 97 1491 97 
Q 1888 97 2203 581 
L 2688 2553 
Q 2709 2638 2787 2698 
Q 2866 2759 2956 2759 
Q 3034 2759 3092 2709 
Q 3150 2659 3150 2578 
Q 3150 2541 3144 2528 
L 2509 -19 
Q 2425 -347 2200 -647 
Q 1975 -947 1658 -1130 
Q 1341 -1313 997 -1313 
Q 831 -1313 668 -1248 
Q 506 -1184 406 -1056 
Q 306 -928 306 -756 
Q 306 -581 409 -453 
Q 513 -325 684 -325 
Q 788 -325 858 -389 
Q 928 -453 928 -556 
Q 928 -703 818 -812 
Q 709 -922 563 -922 
Q 556 -919 550 -917 
Q 544 -916 538 -916 
z
" transform="scale(0.015625)"/>
      </defs>
      <use xlink:href="#Cmmi10-79" transform="translate(0 0.8125)"/>
     </g>
    </g>
   </g>
   <g id="line2d_43">
    <path d="M 167.148703 29.354604 
L 183.279824 29.575489 
L 192.539423 29.904922 
L 200.096619 30.287301 
L 216.330012 31.475377 
L 223.151925 32.135889 
L 230.892853 33.012832 
L 242.941312 34.678422 
L 249.594426 35.776638 
L 260.451492 37.89391 
L 268.868153 39.870846 
L 276.972163 42.127513 
L 284.02114 44.456247 
L 287.844713 45.90283 
L 291.093701 47.259036 
L 295.044958 49.102821 
L 298.722588 51.064644 
L 302.044627 53.11168 
L 304.949384 55.201309 
L 306.916569 56.841574 
L 309.152632 59.033403 
L 311.64564 62.17319 
L 312.782501 64.069443 
L 313.682444 66.011694 
L 314.1907 67.463914 
L 314.57046 68.940099 
L 314.85322 70.715709 
L 314.955593 72.523821 
L 314.864861 74.49761 
L 314.566814 76.507424 
L 314.050577 78.590743 
L 313.320465 80.709943 
L 312.502223 82.603192 
L 310.862323 85.671687 
L 308.622939 89.069609 
L 305.645346 92.8539 
L 303.396166 95.378021 
L 300.914749 97.936997 
L 297.58669 101.097645 
L 291.539121 106.287233 
L 285.337601 111.102893 
L 278.137811 116.256258 
L 268.963475 122.345376 
L 258.292719 128.953673 
L 254.013058 131.495512 
L 239.656093 139.68336 
L 231.624271 144.085266 
L 221.01927 149.751146 
L 199.122922 161.079305 
L 174.461002 173.504631 
L 132.231331 194.745452 
L 115.830817 203.229441 
L 104.943443 209.012832 
L 91.14995 216.589957 
L 80.651809 222.612502 
L 71.953187 227.829618 
L 65.063293 232.151945 
L 56.188079 238.047896 
L 49.49145 242.826189 
L 43.214975 247.666942 
L 39.72232 250.56735 
L 34.44221 255.35091 
L 32.692474 257.078616 
L 29.886758 260.056281 
L 27.827204 262.458642 
L 24.747929 266.582898 
L 23.635814 268.318443 
L 22.242049 270.810439 
L 21.118735 273.258735 
L 20.240035 275.756004 
L 19.626055 278.383918 
L 19.343349 281.409141 
L 19.381285 282.884309 
L 19.53804 284.338223 
L 19.813488 285.770591 
L 20.207408 287.181124 
L 21.030872 289.279548 
L 21.890314 290.930868 
L 22.924048 292.548058 
L 24.151626 294.155776 
L 25.556339 295.727261 
L 27.17449 297.296573 
L 29.593066 299.312432 
L 32.323469 301.259055 
L 34.537337 302.652075 
L 37.868066 304.514118 
L 41.234161 306.175402 
L 47.685167 308.903539 
L 54.382067 311.271305 
L 61.795 313.489207 
L 65.97388 314.591223 
L 71.108981 315.822824 
L 76.453062 316.978983 
L 87.096732 318.958269 
L 92.46763 319.81575 
L 106.426227 321.67011 
L 114.977265 322.571339 
L 122.370112 323.222348 
L 135.650926 324.117975 
L 142.448941 324.448687 
L 155.385558 324.851944 
L 170.48146 324.959802 
L 178.953661 324.851108 
L 188.501279 324.581074 
L 199.501815 324.07039 
L 209.425829 323.417241 
L 219.091635 322.593189 
L 230.682185 321.336728 
L 237.666159 320.422714 
L 247.846895 318.849108 
L 254.522292 317.640081 
L 265.594793 315.261418 
L 272.797513 313.407662 
L 279.844756 311.294237 
L 285.103402 309.472853 
L 289.332038 307.816026 
L 292.441005 306.462392 
L 298.371407 303.45878 
L 302.081975 301.187258 
L 305.234246 298.898032 
L 306.896686 297.499965 
L 308.407302 296.069211 
L 310.266417 294.009032 
L 311.819948 291.886472 
L 313.064433 289.702952 
L 313.874111 287.808809 
L 314.459626 285.872402 
L 314.829446 283.817561 
L 314.955953 281.718786 
L 314.740362 278.816516 
L 314.474854 277.375812 
L 313.913876 275.287546 
L 312.50115 271.718337 
L 310.939024 268.781533 
L 310.01655 267.290527 
L 307.192896 263.35901 
L 304.084406 259.694512 
L 300.476612 255.954762 
L 299.247047 254.769522 
L 293.399244 249.571164 
L 288.754659 245.822497 
L 283.736685 242.0398 
L 281.099151 240.139894 
L 271.806283 233.818145 
L 265.586931 229.840182 
L 256.30542 224.183062 
L 244.637181 217.429243 
L 234.492098 211.79799 
L 224.442645 206.38577 
L 209.387684 198.505076 
L 192.356436 189.812184 
L 127.975246 157.397683 
L 115.747997 151.050892 
L 100.182164 142.731478 
L 85.93688 134.775802 
L 75.422454 128.603566 
L 68.736542 124.499943 
L 62.989075 120.830697 
L 55.843684 116.038007 
L 48.891754 111.052186 
L 44.804535 107.923232 
L 38.391783 102.602083 
L 34.422374 98.953772 
L 30.002836 94.396765 
L 27.529018 91.497785 
L 25.467957 88.78123 
L 23.699872 86.110372 
L 22.339337 83.702835 
L 21.156305 81.156935 
L 20.267296 78.659378 
L 19.788925 76.792027 
L 19.367833 73.639221 
L 19.354429 71.954967 
L 19.494105 70.297958 
L 19.972441 67.929111 
L 20.775528 65.62053 
L 21.608562 63.895013 
L 22.629755 62.206109 
L 24.326245 59.95932 
L 26.094639 58.0501 
L 27.832251 56.445226 
L 31.36684 53.714357 
L 35.328625 51.206316 
L 39.874814 48.796148 
L 43.337092 47.200753 
L 49.88365 44.598161 
L 52.845686 43.561342 
L 57.975204 41.931492 
L 62.569443 40.623018 
L 67.375549 39.383706 
L 74.241903 37.808723 
L 85.218867 35.686464 
L 91.805718 34.609072 
L 101.131955 33.297731 
L 113.917771 31.855251 
L 126.388361 30.79444 
L 137.848731 30.089728 
L 145.030593 29.771257 
L 154.923311 29.481273 
L 167.148703 29.354604 
L 167.148703 29.354604 
" clip-path="url(#p184222160a)" style="fill: none; stroke: #0000ff; stroke-width: 1.5; stroke-linecap: square"/>
   </g>
   <g id="patch_3">
    <path d="M 295.153577 49.157027 
Q 291.144804 47.390192 289.182178 46.52518 
" clip-path="url(#p184222160a)" style="fill: none; stroke: #0000ff; stroke-width: 2; stroke-linecap: round"/>
    <path d="M 296.316285 55.133577 
L 289.182178 46.52518 
L 300.349361 45.982932 
z
" clip-path="url(#p184222160a)" style="fill: #0000ff; stroke: #0000ff; stroke-width: 2; stroke-linecap: round"/>
   </g>
   <g id="patch_4">
    <path d="M 167.148703 330.871906 
L 167.148703 23.4425 
" style="fill: none; stroke: #000000; stroke-width: 0.8; stroke-linejoin: miter; stroke-linecap: square"/>
   </g>
   <g id="patch_5">
    <path d="M 13.431097 177.161901 
L 320.868205 177.161901 
" style="fill: none; stroke: #000000; stroke-width: 0.8; stroke-linejoin: miter; stroke-linecap: square"/>
   </g>
  </g>
 </g>
 <defs>
  <clipPath id="p184222160a">
   <rect x="13.431097" y="23.4425" width="307.437108" height="307.429406"/>
  </clipPath>
 </defs>
</svg>
