<?xml version="1.0" encoding="utf-8" standalone="no"?>
<!DOCTYPE svg PUBLIC "-//W3C//DTD SVG 1.1//EN"
  "http://www.w3.org/Graphics/SVG/1.1/DTD/svg11.dtd">
<svg xmlns:xlink="http://www.w3.org/1999/xlink" width="341.211899pt" height="338.052905pt" viewBox="0 0 341.211899 338.052905" xmlns="http://www.w3.org/2000/svg" version="1.1">
 <metadata>
  <rdf:RDF xmlns:dc="http://purl.org/dc/elements/1.1/" xmlns:cc="http://creativecommons.org/ns#" xmlns:rdf="http://www.w3.org/1999/02/22-rdf-syntax-ns#">
   <cc:Work>
    <dc:type rdf:resource="http://purl.org/dc/dcmitype/StillImage"/>
    <dc:date>2025-08-27T14:09:19.960682</dc:date>
    <dc:format>image/svg+xml</dc:format>
    <dc:creator>
     <cc:Agent>
      <dc:title>Matplotlib v3.10.3, https://matplotlib.org/</dc:title>
     </cc:Agent>
    </dc:creator>
   </cc:Work>
  </rdf:RDF>
 </metadata>
 <defs>
  <style type="text/css">*{stroke-linejoin: round; stroke-linecap: butt}</style>
 </defs>
 <g id="figure_1">
  <g id="patch_1">
   <path d="M 0 338.052905 
L 341.211899 338.052905 
L 341.211899 0 
L 0 0 
z
" style="fill: #ffffff"/>
  </g>
  <g id="axes_1">
   <g id="patch_2">
    <path d="M 13.429397 330.852905 
L 320.871899 330.852905 
L 320.871899 23.4425 
L 13.429397 23.4425 
z
" style="fill: #ffffff"/>
   </g>
   <g id="matplotlib.axis_1">
    <g id="xtick_1">
     <g id="line2d_1">
      <defs>
       <path id="m790d1e3961" d="M 0 0 
L 0 3.5 
" style="stroke: #000000; stroke-width: 0.8"/>
      </defs>
      <g>
       <use xlink:href="#m790d1e3961" x="19.341406" y="177.163375" style="stroke: #000000; stroke-width: 0.8"/>
      </g>
     </g>
     <g id="text_1">
      <!-- −1.0 -->
      <g transform="translate(7.2 191.761812) scale(0.1 -0.1)">
       <defs>
        <path id="DejaVuSans-2212" d="M 678 2272 
L 4684 2272 
L 4684 1741 
L 678 1741 
L 678 2272 
z
" transform="scale(0.015625)"/>
        <path id="DejaVuSans-31" d="M 794 531 
L 1825 531 
L 1825 4091 
L 703 3866 
L 703 4441 
L 1819 4666 
L 2450 4666 
L 2450 531 
L 3481 531 
L 3481 0 
L 794 0 
L 794 531 
z
" transform="scale(0.015625)"/>
        <path id="DejaVuSans-2e" d="M 684 794 
L 1344 794 
L 1344 0 
L 684 0 
L 684 794 
z
" transform="scale(0.015625)"/>
        <path id="DejaVuSans-30" d="M 2034 4250 
Q 1547 4250 1301 3770 
Q 1056 3291 1056 2328 
Q 1056 1369 1301 889 
Q 1547 409 2034 409 
Q 2525 409 2770 889 
Q 3016 1369 3016 2328 
Q 3016 3291 2770 3770 
Q 2525 4250 2034 4250 
z
M 2034 4750 
Q 2819 4750 3233 4129 
Q 3647 3509 3647 2328 
Q 3647 1150 3233 529 
Q 2819 -91 2034 -91 
Q 1250 -91 836 529 
Q 422 1150 422 2328 
Q 422 3509 836 4129 
Q 1250 4750 2034 4750 
z
" transform="scale(0.015625)"/>
       </defs>
       <use xlink:href="#DejaVuSans-2212"/>
       <use xlink:href="#DejaVuSans-31" transform="translate(83.789062 0)"/>
       <use xlink:href="#DejaVuSans-2e" transform="translate(147.412109 0)"/>
       <use xlink:href="#DejaVuSans-30" transform="translate(179.199219 0)"/>
      </g>
     </g>
    </g>
    <g id="xtick_2">
     <g id="line2d_2">
      <g>
       <use xlink:href="#m790d1e3961" x="93.245974" y="177.163375" style="stroke: #000000; stroke-width: 0.8"/>
      </g>
     </g>
     <g id="text_2">
      <!-- −0.5 -->
      <g transform="translate(81.104568 191.761812) scale(0.1 -0.1)">
       <defs>
        <path id="DejaVuSans-35" d="M 691 4666 
L 3169 4666 
L 3169 4134 
L 1269 4134 
L 1269 2991 
Q 1406 3038 1543 3061 
Q 1681 3084 1819 3084 
Q 2600 3084 3056 2656 
Q 3513 2228 3513 1497 
Q 3513 744 3044 326 
Q 2575 -91 1722 -91 
Q 1428 -91 1123 -41 
Q 819 9 494 109 
L 494 744 
Q 775 591 1075 516 
Q 1375 441 1709 441 
Q 2250 441 2565 725 
Q 2881 1009 2881 1497 
Q 2881 1984 2565 2268 
Q 2250 2553 1709 2553 
Q 1456 2553 1204 2497 
Q 953 2441 691 2322 
L 691 4666 
z
" transform="scale(0.015625)"/>
       </defs>
       <use xlink:href="#DejaVuSans-2212"/>
       <use xlink:href="#DejaVuSans-30" transform="translate(83.789062 0)"/>
       <use xlink:href="#DejaVuSans-2e" transform="translate(147.412109 0)"/>
       <use xlink:href="#DejaVuSans-35" transform="translate(179.199219 0)"/>
      </g>
     </g>
    </g>
    <g id="xtick_3">
     <g id="line2d_3">
      <g>
       <use xlink:href="#m790d1e3961" x="167.150542" y="177.163375" style="stroke: #000000; stroke-width: 0.8"/>
      </g>
     </g>
    </g>
    <g id="xtick_4">
     <g id="line2d_4">
      <g>
       <use xlink:href="#m790d1e3961" x="241.05511" y="177.163375" style="stroke: #000000; stroke-width: 0.8"/>
      </g>
     </g>
     <g id="text_3">
      <!-- 0.5 -->
      <g transform="translate(233.103548 191.761812) scale(0.1 -0.1)">
       <use xlink:href="#DejaVuSans-30"/>
       <use xlink:href="#DejaVuSans-2e" transform="translate(63.623047 0)"/>
       <use xlink:href="#DejaVuSans-35" transform="translate(95.410156 0)"/>
      </g>
     </g>
    </g>
    <g id="xtick_5">
     <g id="line2d_5">
      <g>
       <use xlink:href="#m790d1e3961" x="314.959678" y="177.163375" style="stroke: #000000; stroke-width: 0.8"/>
      </g>
     </g>
     <g id="text_4">
      <!-- 1.0 -->
      <g transform="translate(307.008116 191.761812) scale(0.1 -0.1)">
       <use xlink:href="#DejaVuSans-31"/>
       <use xlink:href="#DejaVuSans-2e" transform="translate(63.623047 0)"/>
       <use xlink:href="#DejaVuSans-30" transform="translate(95.410156 0)"/>
      </g>
     </g>
    </g>
    <g id="xtick_6">
     <g id="line2d_6">
      <defs>
       <path id="m7b5430b64f" d="M 0 0 
L 0 2 
" style="stroke: #000000; stroke-width: 0.6"/>
      </defs>
      <g>
       <use xlink:href="#m7b5430b64f" x="34.12232" y="177.163375" style="stroke: #000000; stroke-width: 0.6"/>
      </g>
     </g>
    </g>
    <g id="xtick_7">
     <g id="line2d_7">
      <g>
       <use xlink:href="#m7b5430b64f" x="48.903233" y="177.163375" style="stroke: #000000; stroke-width: 0.6"/>
      </g>
     </g>
    </g>
    <g id="xtick_8">
     <g id="line2d_8">
      <g>
       <use xlink:href="#m7b5430b64f" x="63.684147" y="177.163375" style="stroke: #000000; stroke-width: 0.6"/>
      </g>
     </g>
    </g>
    <g id="xtick_9">
     <g id="line2d_9">
      <g>
       <use xlink:href="#m7b5430b64f" x="78.465061" y="177.163375" style="stroke: #000000; stroke-width: 0.6"/>
      </g>
     </g>
    </g>
    <g id="xtick_10">
     <g id="line2d_10">
      <g>
       <use xlink:href="#m7b5430b64f" x="108.026888" y="177.163375" style="stroke: #000000; stroke-width: 0.6"/>
      </g>
     </g>
    </g>
    <g id="xtick_11">
     <g id="line2d_11">
      <g>
       <use xlink:href="#m7b5430b64f" x="122.807802" y="177.163375" style="stroke: #000000; stroke-width: 0.6"/>
      </g>
     </g>
    </g>
    <g id="xtick_12">
     <g id="line2d_12">
      <g>
       <use xlink:href="#m7b5430b64f" x="137.588715" y="177.163375" style="stroke: #000000; stroke-width: 0.6"/>
      </g>
     </g>
    </g>
    <g id="xtick_13">
     <g id="line2d_13">
      <g>
       <use xlink:href="#m7b5430b64f" x="152.369629" y="177.163375" style="stroke: #000000; stroke-width: 0.6"/>
      </g>
     </g>
    </g>
    <g id="xtick_14">
     <g id="line2d_14">
      <g>
       <use xlink:href="#m7b5430b64f" x="181.931456" y="177.163375" style="stroke: #000000; stroke-width: 0.6"/>
      </g>
     </g>
    </g>
    <g id="xtick_15">
     <g id="line2d_15">
      <g>
       <use xlink:href="#m7b5430b64f" x="196.71237" y="177.163375" style="stroke: #000000; stroke-width: 0.6"/>
      </g>
     </g>
    </g>
    <g id="xtick_16">
     <g id="line2d_16">
      <g>
       <use xlink:href="#m7b5430b64f" x="211.493283" y="177.163375" style="stroke: #000000; stroke-width: 0.6"/>
      </g>
     </g>
    </g>
    <g id="xtick_17">
     <g id="line2d_17">
      <g>
       <use xlink:href="#m7b5430b64f" x="226.274197" y="177.163375" style="stroke: #000000; stroke-width: 0.6"/>
      </g>
     </g>
    </g>
    <g id="xtick_18">
     <g id="line2d_18">
      <g>
       <use xlink:href="#m7b5430b64f" x="255.836024" y="177.163375" style="stroke: #000000; stroke-width: 0.6"/>
      </g>
     </g>
    </g>
    <g id="xtick_19">
     <g id="line2d_19">
      <g>
       <use xlink:href="#m7b5430b64f" x="270.616938" y="177.163375" style="stroke: #000000; stroke-width: 0.6"/>
      </g>
     </g>
    </g>
    <g id="xtick_20">
     <g id="line2d_20">
      <g>
       <use xlink:href="#m7b5430b64f" x="285.397851" y="177.163375" style="stroke: #000000; stroke-width: 0.6"/>
      </g>
     </g>
    </g>
    <g id="xtick_21">
     <g id="line2d_21">
      <g>
       <use xlink:href="#m7b5430b64f" x="300.178765" y="177.163375" style="stroke: #000000; stroke-width: 0.6"/>
      </g>
     </g>
    </g>
    <g id="text_5">
     <!-- $x$ -->
     <g transform="translate(328.871899 177.163375) scale(0.16 -0.16)">
      <defs>
       <path id="Cmmi10-78" d="M 500 184 
Q 613 97 819 97 
Q 1019 97 1172 289 
Q 1325 481 1381 709 
L 1672 1844 
Q 1741 2153 1741 2266 
Q 1741 2425 1652 2544 
Q 1563 2663 1403 2663 
Q 1200 2663 1022 2536 
Q 844 2409 722 2214 
Q 600 2019 550 1819 
Q 538 1778 500 1778 
L 422 1778 
Q 372 1778 372 1838 
L 372 1856 
Q 434 2094 584 2320 
Q 734 2547 951 2687 
Q 1169 2828 1416 2828 
Q 1650 2828 1839 2703 
Q 2028 2578 2106 2363 
Q 2216 2559 2386 2693 
Q 2556 2828 2759 2828 
Q 2897 2828 3040 2779 
Q 3184 2731 3275 2631 
Q 3366 2531 3366 2381 
Q 3366 2219 3261 2101 
Q 3156 1984 2994 1984 
Q 2891 1984 2822 2050 
Q 2753 2116 2753 2216 
Q 2753 2350 2845 2451 
Q 2938 2553 3066 2572 
Q 2950 2663 2747 2663 
Q 2541 2663 2389 2472 
Q 2238 2281 2175 2047 
L 1894 916 
Q 1825 659 1825 494 
Q 1825 331 1917 214 
Q 2009 97 2163 97 
Q 2463 97 2698 361 
Q 2934 625 3009 941 
Q 3022 978 3059 978 
L 3138 978 
Q 3163 978 3178 961 
Q 3194 944 3194 922 
Q 3194 916 3188 903 
Q 3097 522 2806 225 
Q 2516 -72 2150 -72 
Q 1916 -72 1727 54 
Q 1538 181 1459 397 
Q 1359 209 1182 68 
Q 1006 -72 806 -72 
Q 669 -72 523 -23 
Q 378 25 287 125 
Q 197 225 197 378 
Q 197 528 301 651 
Q 406 775 563 775 
Q 669 775 741 711 
Q 813 647 813 544 
Q 813 409 723 309 
Q 634 209 500 184 
z
" transform="scale(0.015625)"/>
      </defs>
      <use xlink:href="#Cmmi10-78" transform="translate(0 0.8125)"/>
     </g>
    </g>
   </g>
   <g id="matplotlib.axis_2">
    <g id="ytick_1">
     <g id="line2d_22">
      <defs>
       <path id="m2a25c05780" d="M 0 0 
L -3.5 0 
" style="stroke: #000000; stroke-width: 0.8"/>
      </defs>
      <g>
       <use xlink:href="#m2a25c05780" x="167.150542" y="324.972511" style="stroke: #000000; stroke-width: 0.8"/>
      </g>
     </g>
     <g id="text_6">
      <!-- −1.0 -->
      <g transform="translate(135.86773 328.77173) scale(0.1 -0.1)">
       <use xlink:href="#DejaVuSans-2212"/>
       <use xlink:href="#DejaVuSans-31" transform="translate(83.789062 0)"/>
       <use xlink:href="#DejaVuSans-2e" transform="translate(147.412109 0)"/>
       <use xlink:href="#DejaVuSans-30" transform="translate(179.199219 0)"/>
      </g>
     </g>
    </g>
    <g id="ytick_2">
     <g id="line2d_23">
      <g>
       <use xlink:href="#m2a25c05780" x="167.150542" y="251.067943" style="stroke: #000000; stroke-width: 0.8"/>
      </g>
     </g>
     <g id="text_7">
      <!-- −0.5 -->
      <g transform="translate(135.86773 254.867161) scale(0.1 -0.1)">
       <use xlink:href="#DejaVuSans-2212"/>
       <use xlink:href="#DejaVuSans-30" transform="translate(83.789062 0)"/>
       <use xlink:href="#DejaVuSans-2e" transform="translate(147.412109 0)"/>
       <use xlink:href="#DejaVuSans-35" transform="translate(179.199219 0)"/>
      </g>
     </g>
    </g>
    <g id="ytick_3">
     <g id="line2d_24">
      <g>
       <use xlink:href="#m2a25c05780" x="167.150542" y="177.163375" style="stroke: #000000; stroke-width: 0.8"/>
      </g>
     </g>
    </g>
    <g id="ytick_4">
     <g id="line2d_25">
      <g>
       <use xlink:href="#m2a25c05780" x="167.150542" y="103.258807" style="stroke: #000000; stroke-width: 0.8"/>
      </g>
     </g>
     <g id="text_8">
      <!-- 0.5 -->
      <g transform="translate(144.247417 107.058025) scale(0.1 -0.1)">
       <use xlink:href="#DejaVuSans-30"/>
       <use xlink:href="#DejaVuSans-2e" transform="translate(63.623047 0)"/>
       <use xlink:href="#DejaVuSans-35" transform="translate(95.410156 0)"/>
      </g>
     </g>
    </g>
    <g id="ytick_5">
     <g id="line2d_26">
      <g>
       <use xlink:href="#m2a25c05780" x="167.150542" y="29.354239" style="stroke: #000000; stroke-width: 0.8"/>
      </g>
     </g>
     <g id="text_9">
      <!-- 1.0 -->
      <g transform="translate(144.247417 33.153457) scale(0.1 -0.1)">
       <use xlink:href="#DejaVuSans-31"/>
       <use xlink:href="#DejaVuSans-2e" transform="translate(63.623047 0)"/>
       <use xlink:href="#DejaVuSans-30" transform="translate(95.410156 0)"/>
      </g>
     </g>
    </g>
    <g id="ytick_6">
     <g id="line2d_27">
      <defs>
       <path id="m4dbfb572c6" d="M 0 0 
L -2 0 
" style="stroke: #000000; stroke-width: 0.6"/>
      </defs>
      <g>
       <use xlink:href="#m4dbfb572c6" x="167.150542" y="310.191597" style="stroke: #000000; stroke-width: 0.6"/>
      </g>
     </g>
    </g>
    <g id="ytick_7">
     <g id="line2d_28">
      <g>
       <use xlink:href="#m4dbfb572c6" x="167.150542" y="295.410684" style="stroke: #000000; stroke-width: 0.6"/>
      </g>
     </g>
    </g>
    <g id="ytick_8">
     <g id="line2d_29">
      <g>
       <use xlink:href="#m4dbfb572c6" x="167.150542" y="280.62977" style="stroke: #000000; stroke-width: 0.6"/>
      </g>
     </g>
    </g>
    <g id="ytick_9">
     <g id="line2d_30">
      <g>
       <use xlink:href="#m4dbfb572c6" x="167.150542" y="265.848856" style="stroke: #000000; stroke-width: 0.6"/>
      </g>
     </g>
    </g>
    <g id="ytick_10">
     <g id="line2d_31">
      <g>
       <use xlink:href="#m4dbfb572c6" x="167.150542" y="236.287029" style="stroke: #000000; stroke-width: 0.6"/>
      </g>
     </g>
    </g>
    <g id="ytick_11">
     <g id="line2d_32">
      <g>
       <use xlink:href="#m4dbfb572c6" x="167.150542" y="221.506116" style="stroke: #000000; stroke-width: 0.6"/>
      </g>
     </g>
    </g>
    <g id="ytick_12">
     <g id="line2d_33">
      <g>
       <use xlink:href="#m4dbfb572c6" x="167.150542" y="206.725202" style="stroke: #000000; stroke-width: 0.6"/>
      </g>
     </g>
    </g>
    <g id="ytick_13">
     <g id="line2d_34">
      <g>
       <use xlink:href="#m4dbfb572c6" x="167.150542" y="191.944288" style="stroke: #000000; stroke-width: 0.6"/>
      </g>
     </g>
    </g>
    <g id="ytick_14">
     <g id="line2d_35">
      <g>
       <use xlink:href="#m4dbfb572c6" x="167.150542" y="162.382461" style="stroke: #000000; stroke-width: 0.6"/>
      </g>
     </g>
    </g>
    <g id="ytick_15">
     <g id="line2d_36">
      <g>
       <use xlink:href="#m4dbfb572c6" x="167.150542" y="147.601547" style="stroke: #000000; stroke-width: 0.6"/>
      </g>
     </g>
    </g>
    <g id="ytick_16">
     <g id="line2d_37">
      <g>
       <use xlink:href="#m4dbfb572c6" x="167.150542" y="132.820634" style="stroke: #000000; stroke-width: 0.6"/>
      </g>
     </g>
    </g>
    <g id="ytick_17">
     <g id="line2d_38">
      <g>
       <use xlink:href="#m4dbfb572c6" x="167.150542" y="118.03972" style="stroke: #000000; stroke-width: 0.6"/>
      </g>
     </g>
    </g>
    <g id="ytick_18">
     <g id="line2d_39">
      <g>
       <use xlink:href="#m4dbfb572c6" x="167.150542" y="88.477893" style="stroke: #000000; stroke-width: 0.6"/>
      </g>
     </g>
    </g>
    <g id="ytick_19">
     <g id="line2d_40">
      <g>
       <use xlink:href="#m4dbfb572c6" x="167.150542" y="73.696979" style="stroke: #000000; stroke-width: 0.6"/>
      </g>
     </g>
    </g>
    <g id="ytick_20">
     <g id="line2d_41">
      <g>
       <use xlink:href="#m4dbfb572c6" x="167.150542" y="58.916066" style="stroke: #000000; stroke-width: 0.6"/>
      </g>
     </g>
    </g>
    <g id="ytick_21">
     <g id="line2d_42">
      <g>
       <use xlink:href="#m4dbfb572c6" x="167.150542" y="44.135152" style="stroke: #000000; stroke-width: 0.6"/>
      </g>
     </g>
    </g>
    <g id="text_10">
     <!-- $y$ -->
     <g transform="translate(163.150542 12.0825) scale(0.16 -0.16)">
      <defs>
       <path id="Cmmi10-79" d="M 538 -916 
Q 672 -1147 1006 -1147 
Q 1309 -1147 1531 -934 
Q 1753 -722 1889 -420 
Q 2025 -119 2100 197 
Q 1816 -72 1484 -72 
Q 1231 -72 1053 15 
Q 875 103 776 276 
Q 678 450 678 697 
Q 678 906 734 1126 
Q 791 1347 892 1617 
Q 994 1888 1069 2088 
Q 1153 2322 1153 2472 
Q 1153 2663 1013 2663 
Q 759 2663 595 2402 
Q 431 2141 353 1819 
Q 341 1778 300 1778 
L 225 1778 
Q 172 1778 172 1838 
L 172 1856 
Q 275 2238 487 2533 
Q 700 2828 1025 2828 
Q 1253 2828 1411 2678 
Q 1569 2528 1569 2297 
Q 1569 2178 1516 2047 
Q 1488 1969 1388 1706 
Q 1288 1444 1234 1272 
Q 1181 1100 1147 934 
Q 1113 769 1113 603 
Q 1113 391 1203 244 
Q 1294 97 1491 97 
Q 1888 97 2203 581 
L 2688 2553 
Q 2709 2638 2787 2698 
Q 2866 2759 2956 2759 
Q 3034 2759 3092 2709 
Q 3150 2659 3150 2578 
Q 3150 2541 3144 2528 
L 2509 -19 
Q 2425 -347 2200 -647 
Q 1975 -947 1658 -1130 
Q 1341 -1313 997 -1313 
Q 831 -1313 668 -1248 
Q 506 -1184 406 -1056 
Q 306 -928 306 -756 
Q 306 -581 409 -453 
Q 513 -325 684 -325 
Q 788 -325 858 -389 
Q 928 -453 928 -556 
Q 928 -703 818 -812 
Q 709 -922 563 -922 
Q 556 -919 550 -917 
Q 544 -916 538 -916 
z
" transform="scale(0.015625)"/>
      </defs>
      <use xlink:href="#Cmmi10-79" transform="translate(0 0.8125)"/>
     </g>
    </g>
   </g>
   <g id="line2d_43">
    <path d="M 167.150542 29.354239 
L 172.353623 29.377142 
L 189.769819 29.790124 
L 196.492599 30.091493 
L 205.603491 30.632123 
L 219.802231 31.798354 
L 232.851157 33.256902 
L 239.369124 34.142795 
L 250.713347 35.974459 
L 256.766591 37.124875 
L 266.518638 39.284175 
L 271.671276 40.606592 
L 276.581532 42.008188 
L 280.582991 43.270057 
L 285.216829 44.891561 
L 290.172461 46.859681 
L 293.513602 48.358023 
L 296.630565 49.913499 
L 300.125101 51.889628 
L 303.052937 53.797268 
L 305.671227 55.775165 
L 307.504872 57.37543 
L 309.141716 59.017688 
L 310.273058 60.31849 
L 311.684377 62.225784 
L 312.85199 64.194604 
L 313.764677 66.212842 
L 314.232331 67.590871 
L 314.584687 68.990374 
L 314.819323 70.393965 
L 314.940952 71.817984 
L 314.934404 73.61741 
L 314.752875 75.44749 
L 314.309594 77.662752 
L 313.619959 79.919662 
L 312.554215 82.50064 
L 311.181976 85.13151 
L 308.961771 88.599713 
L 306.892802 91.347701 
L 303.966093 94.763703 
L 301.476822 97.378696 
L 297.796198 100.909922 
L 293.702164 104.501482 
L 290.495079 107.131658 
L 286.234458 110.434315 
L 278.192535 116.221437 
L 271.882738 120.458466 
L 263.745938 125.63266 
L 254.428364 131.253804 
L 244.282751 137.097214 
L 231.48785 144.161625 
L 213.1439 153.875853 
L 191.98262 164.702982 
L 116.899468 202.671631 
L 97.948284 212.817314 
L 83.616102 220.887447 
L 71.284166 228.243718 
L 62.571221 233.768308 
L 54.870941 238.964507 
L 46.815627 244.842244 
L 42.000307 248.658701 
L 36.359469 253.550224 
L 32.835957 256.936259 
L 30.595151 259.279075 
L 28.550347 261.592423 
L 26.393745 264.282892 
L 24.518386 266.929837 
L 22.74787 269.856814 
L 21.726073 271.870644 
L 20.673957 274.427209 
L 19.924933 276.933452 
L 19.482199 279.374405 
L 19.341753 281.566971 
L 19.455645 283.71462 
L 19.742456 285.458934 
L 20.512161 288.050439 
L 21.682319 290.566225 
L 22.718077 292.251891 
L 23.751163 293.662956 
L 24.886309 295.009585 
L 27.536834 297.623566 
L 30.590844 300.060828 
L 34.384478 302.563253 
L 36.683743 303.882962 
L 39.209277 305.202405 
L 42.900234 306.934238 
L 49.671064 309.651184 
L 53.716552 311.056183 
L 59.331959 312.795467 
L 65.422744 314.454329 
L 74.43458 316.559355 
L 79.881747 317.663695 
L 85.517309 318.692197 
L 97.048611 320.484042 
L 104.443131 321.440048 
L 118.429297 322.892717 
L 124.326272 323.379015 
L 132.484887 323.938253 
L 148.807426 324.686583 
L 158.828971 324.91389 
L 173.236937 324.941166 
L 187.019182 324.636763 
L 202.080691 323.922122 
L 208.691188 323.475581 
L 220.797993 322.430818 
L 229.940106 321.430182 
L 237.762719 320.412819 
L 246.377093 319.099183 
L 255.839397 317.386767 
L 266.036081 315.159449 
L 273.701068 313.158819 
L 280.37051 311.126707 
L 283.444637 310.077671 
L 287.501341 308.561492 
L 293.534756 305.958722 
L 297.942314 303.70385 
L 302.084089 301.191212 
L 303.942886 299.890826 
L 305.903374 298.360293 
L 308.388882 296.094358 
L 309.859839 294.502497 
L 311.147489 292.872954 
L 312.274739 291.165155 
L 313.20638 289.418938 
L 313.868669 287.836608 
L 314.375021 286.224868 
L 314.712576 284.65828 
L 314.959543 281.75087 
L 314.76699 278.977764 
L 314.142046 276.038907 
L 313.413291 273.847226 
L 312.65457 272.042681 
L 311.746304 270.213756 
L 310.484765 268.02697 
L 309.018497 265.807735 
L 306.992695 263.104184 
L 304.679543 260.35648 
L 300.795542 256.267719 
L 296.343562 252.107812 
L 293.785578 249.895615 
L 290.081645 246.86576 
L 283.374749 241.775694 
L 277.670658 237.746 
L 270.800644 233.163098 
L 263.228586 228.374278 
L 252.733101 222.07858 
L 240.88067 215.321942 
L 223.312677 205.786239 
L 206.577752 197.058012 
L 187.529118 187.377076 
L 126.265028 156.518244 
L 107.889505 146.891163 
L 97.755688 141.403642 
L 86.704076 135.215411 
L 75.779586 128.818893 
L 69.408998 124.920548 
L 63.715534 121.303148 
L 56.592069 116.554399 
L 48.620621 110.850107 
L 45.811494 108.710617 
L 39.289323 103.384417 
L 34.953613 99.462722 
L 32.059575 96.598209 
L 29.284482 93.587457 
L 26.840148 90.626839 
L 24.733649 87.719937 
L 23.354249 85.535513 
L 22.175901 83.383119 
L 21.322243 81.552779 
L 20.620301 79.747308 
L 20.017461 77.764287 
L 19.604886 75.813403 
L 19.381334 73.86826 
L 19.354341 71.95747 
L 19.52241 70.092318 
L 20.038852 67.693263 
L 20.632414 65.968073 
L 21.406284 64.277095 
L 22.591137 62.264268 
L 24.039942 60.303895 
L 25.623402 58.527059 
L 27.430766 56.797149 
L 30.577139 54.275875 
L 32.274943 53.096984 
L 34.522246 51.680782 
L 36.939028 50.304671 
L 39.775339 48.844725 
L 43.234021 47.245756 
L 49.470617 44.748977 
L 54.839573 42.904475 
L 60.949741 41.069466 
L 64.339424 40.152139 
L 73.509582 37.966667 
L 82.970237 36.085874 
L 93.332987 34.377721 
L 100.495617 33.379654 
L 112.784595 31.967689 
L 125.923509 30.82807 
L 139.058375 30.029308 
L 153.788277 29.505623 
L 167.150542 29.354239 
L 167.150542 29.354239 
" clip-path="url(#p827957088c)" style="fill: none; stroke: #0000ff; stroke-width: 1.5; stroke-linecap: square"/>
   </g>
   <g id="patch_3">
    <path d="M 295.157009 49.156908 
Q 291.148187 47.390051 289.185511 46.525017 
" clip-path="url(#p827957088c)" style="fill: none; stroke: #0000ff; stroke-width: 2; stroke-linecap: round"/>
    <path d="M 296.319618 55.133414 
L 289.185511 46.525017 
L 300.352694 45.982769 
z
" clip-path="url(#p827957088c)" style="fill: #0000ff; stroke: #0000ff; stroke-width: 2; stroke-linecap: round"/>
   </g>
   <g id="patch_4">
    <path d="M 167.150542 330.852905 
L 167.150542 23.4425 
" style="fill: none; stroke: #000000; stroke-width: 0.8; stroke-linejoin: miter; stroke-linecap: square"/>
   </g>
   <g id="patch_5">
    <path d="M 13.429397 177.163375 
L 320.871899 177.163375 
" style="fill: none; stroke: #000000; stroke-width: 0.8; stroke-linejoin: miter; stroke-linecap: square"/>
   </g>
  </g>
 </g>
 <defs>
  <clipPath id="p827957088c">
   <rect x="13.429397" y="23.4425" width="307.442502" height="307.410405"/>
  </clipPath>
 </defs>
</svg>
