<?xml version="1.0" encoding="utf-8" standalone="no"?>
<!DOCTYPE svg PUBLIC "-//W3C//DTD SVG 1.1//EN"
  "http://www.w3.org/Graphics/SVG/1.1/DTD/svg11.dtd">
<svg xmlns:xlink="http://www.w3.org/1999/xlink" width="453.6pt" height="236.337574pt" viewBox="0 0 453.6 236.337574" xmlns="http://www.w3.org/2000/svg" version="1.1">
 <metadata>
  <rdf:RDF xmlns:dc="http://purl.org/dc/elements/1.1/" xmlns:cc="http://creativecommons.org/ns#" xmlns:rdf="http://www.w3.org/1999/02/22-rdf-syntax-ns#">
   <cc:Work>
    <dc:type rdf:resource="http://purl.org/dc/dcmitype/StillImage"/>
    <dc:date>2025-06-18T14:13:52.303923</dc:date>
    <dc:format>image/svg+xml</dc:format>
    <dc:creator>
     <cc:Agent>
      <dc:title>Matplotlib v3.10.3, https://matplotlib.org/</dc:title>
     </cc:Agent>
    </dc:creator>
   </cc:Work>
  </rdf:RDF>
 </metadata>
 <defs>
  <style type="text/css">*{stroke-linejoin: round; stroke-linecap: butt}</style>
 </defs>
 <g id="figure_1">
  <g id="patch_1">
   <path d="M 0 236.337574 
L 453.6 236.337574 
L 453.6 0 
L 0 0 
z
" style="fill: #ffffff"/>
  </g>
  <g id="axes_1">
   <g id="patch_2">
    <path d="M 7.2 229.137574 
L 446.4 229.137574 
L 446.4 7.2 
L 7.2 7.2 
z
" style="fill: #ffffff"/>
   </g>
   <g id="PathCollection_1">
    <path d="M 411.547939 52.085924 
C 412.485574 52.085924 413.384931 51.713398 414.047939 51.05039 
C 414.710947 50.387382 415.083473 49.488025 415.083473 48.55039 
C 415.083473 47.612756 414.710947 46.713398 414.047939 46.05039 
C 413.384931 45.387382 412.485574 45.014856 411.547939 45.014856 
C 410.610304 45.014856 409.710947 45.387382 409.047939 46.05039 
C 408.384931 46.713398 408.012405 47.612756 408.012405 48.55039 
C 408.012405 49.488025 408.384931 50.387382 409.047939 51.05039 
C 409.710947 51.713398 410.610304 52.085924 411.547939 52.085924 
z
" clip-path="url(#p8b2f638520)"/>
   </g>
   <g id="matplotlib.axis_1"/>
   <g id="matplotlib.axis_2"/>
   <g id="line2d_1">
    <path d="M 437.953846 75.118916 
L 434.324326 70.414539 
L 431.581077 67.152525 
L 427.602819 62.797185 
L 424.662456 59.824361 
L 419.528095 55.05996 
L 416.331088 52.33273 
L 412.324136 49.141586 
L 407.088426 45.309611 
L 403.910745 43.151152 
L 397.243757 38.987041 
L 393.46274 36.824365 
L 386.502339 33.179085 
L 380.760681 30.469502 
L 375.920508 28.375282 
L 367.651763 25.164325 
L 362.479935 23.372713 
L 357.379564 21.757181 
L 350.94139 19.919366 
L 346.377459 18.745232 
L 340.076463 17.289971 
L 330.116504 15.358055 
L 323.666578 14.333071 
L 315.693659 13.297044 
L 307.616887 12.494888 
L 299.652603 11.935824 
L 288.923467 11.529079 
L 277.60223 11.510301 
L 269.480264 11.745407 
L 259.361816 12.318428 
L 252.714161 12.859669 
L 242.433258 13.947939 
L 232.194017 15.329296 
L 225.609367 16.372156 
L 216.478465 18.016523 
L 206.514685 20.072371 
L 196.197659 22.488532 
L 186.3387 25.072224 
L 177.20422 27.708627 
L 168.610909 30.405587 
L 157.01598 34.38642 
L 147.246138 38.056292 
L 136.941692 42.254802 
L 127.066367 46.612293 
L 120.260283 49.817396 
L 114.996639 52.415708 
L 105.436464 57.419581 
L 96.312024 62.567574 
L 87.055254 68.206297 
L 81.757743 71.644161 
L 74.10154 76.919573 
L 67.740773 81.61494 
L 61.635149 86.431817 
L 58.89886 88.702537 
L 52.910417 93.951607 
L 47.437718 99.14299 
L 43.798015 102.848932 
L 38.860094 108.278516 
L 35.019405 112.904009 
L 32.049028 116.793403 
L 30.191348 119.399126 
L 26.943931 124.368434 
L 24.585612 128.418906 
L 22.389321 132.677085 
L 20.143281 137.786919 
L 18.68775 141.788032 
L 17.485113 145.867435 
L 16.604603 149.787845 
L 15.995432 153.768891 
L 15.694089 157.5056 
L 15.659738 161.062508 
L 15.813918 163.881124 
L 16.34938 168.055036 
L 17.228649 172.07527 
L 18.370759 175.774179 
L 19.893835 179.567764 
L 21.547778 182.907461 
L 23.286424 185.887217 
L 25.156978 188.683157 
L 27.611529 191.896974 
L 30.515185 195.218589 
L 32.984688 197.737876 
L 36.146324 200.647773 
L 39.761232 203.632266 
L 44.150909 206.870744 
L 48.165965 209.536532 
L 52.086726 211.915648 
L 57.705094 215.00494 
L 62.257676 217.275561 
L 68.13784 219.949233 
L 73.866226 222.31323 
L 80.704541 224.869544 
L 80.704541 224.869544 
" clip-path="url(#p8b2f638520)" style="fill: none; stroke: #000000; stroke-width: 2; stroke-linecap: square"/>
   </g>
   <g id="patch_3">
    <path d="M 181.154354 26.539663 
Q 180.127367 26.84082 181.246094 26.51276 
" clip-path="url(#p8b2f638520)" style="fill: none; stroke: #000000; stroke-width: 2; stroke-linecap: round"/>
    <path d="M 192.248989 28.496774 
L 181.246094 26.51276 
L 189.435042 18.900852 
z
" clip-path="url(#p8b2f638520)" style="stroke: #000000; stroke-width: 2; stroke-linecap: round"/>
   </g>
   <g id="text_1">
    <!-- $P$ -->
    <g transform="translate(414.513255 35.138507) scale(0.2 -0.2)">
     <defs>
      <path id="Cmmi10-50" d="M 313 0 
Q 250 0 250 84 
Q 253 100 262 139 
Q 272 178 289 201 
Q 306 225 331 225 
Q 722 225 878 269 
Q 959 297 997 441 
L 1875 3956 
Q 1888 4019 1888 4044 
Q 1888 4113 1813 4122 
Q 1691 4147 1350 4147 
Q 1288 4147 1288 4231 
Q 1291 4247 1300 4286 
Q 1309 4325 1326 4348 
Q 1344 4372 1369 4372 
L 3578 4372 
Q 3881 4372 4165 4264 
Q 4450 4156 4631 3934 
Q 4813 3713 4813 3397 
Q 4813 2991 4527 2672 
Q 4241 2353 3814 2175 
Q 3388 1997 2988 1997 
L 1947 1997 
L 1556 416 
Q 1544 353 1544 325 
Q 1544 300 1551 283 
Q 1559 266 1573 261 
Q 1588 256 1619 250 
Q 1741 225 2081 225 
Q 2144 225 2144 141 
Q 2122 50 2109 25 
Q 2097 0 2034 0 
L 313 0 
z
M 1978 2188 
L 2875 2188 
Q 3497 2188 3822 2522 
Q 3988 2688 4092 3000 
Q 4197 3313 4197 3566 
Q 4197 3881 3956 4014 
Q 3716 4147 3359 4147 
L 2747 4147 
Q 2572 4147 2515 4117 
Q 2459 4088 2413 3928 
L 1978 2188 
z
" transform="scale(0.015625)"/>
     </defs>
     <use xlink:href="#Cmmi10-50" transform="translate(0 0.6875)"/>
    </g>
   </g>
  </g>
 </g>
 <defs>
  <clipPath id="p8b2f638520">
   <rect x="7.2" y="7.2" width="439.2" height="221.937574"/>
  </clipPath>
 </defs>
</svg>
