<?xml version="1.0" encoding="utf-8" standalone="no"?>
<!DOCTYPE svg PUBLIC "-//W3C//DTD SVG 1.1//EN"
  "http://www.w3.org/Graphics/SVG/1.1/DTD/svg11.dtd">
<svg xmlns:xlink="http://www.w3.org/1999/xlink" width="336.436372pt" height="338.080038pt" viewBox="0 0 336.436372 338.080038" xmlns="http://www.w3.org/2000/svg" version="1.1">
 <metadata>
  <rdf:RDF xmlns:dc="http://purl.org/dc/elements/1.1/" xmlns:cc="http://creativecommons.org/ns#" xmlns:rdf="http://www.w3.org/1999/02/22-rdf-syntax-ns#">
   <cc:Work>
    <dc:type rdf:resource="http://purl.org/dc/dcmitype/StillImage"/>
    <dc:date>2025-12-10T16:56:49.043488</dc:date>
    <dc:format>image/svg+xml</dc:format>
    <dc:creator>
     <cc:Agent>
      <dc:title>Matplotlib v3.10.5, https://matplotlib.org/</dc:title>
     </cc:Agent>
    </dc:creator>
   </cc:Work>
  </rdf:RDF>
 </metadata>
 <defs>
  <style type="text/css">*{stroke-linejoin: round; stroke-linecap: butt}</style>
 </defs>
 <g id="figure_1">
  <g id="patch_1">
   <path d="M 0 338.080038 
L 336.436372 338.080038 
L 336.436372 0 
L 0 0 
z
" style="fill: #ffffff"/>
  </g>
  <g id="axes_1">
   <g id="patch_2">
    <path d="M 8.658833 330.880038 
L 316.096372 330.880038 
L 316.096372 23.4425 
L 8.658833 23.4425 
z
" style="fill: #ffffff"/>
   </g>
   <g id="PathCollection_1">
    <path d="M 162.377603 177.161269 
C 162.377603 177.161269 162.377603 177.161269 162.377603 177.161269 
C 162.377603 177.161269 162.377603 177.161269 162.377603 177.161269 
C 162.377603 177.161269 162.377603 177.161269 162.377603 177.161269 
C 162.377603 177.161269 162.377603 177.161269 162.377603 177.161269 
C 162.377603 177.161269 162.377603 177.161269 162.377603 177.161269 
C 162.377603 177.161269 162.377603 177.161269 162.377603 177.161269 
C 162.377603 177.161269 162.377603 177.161269 162.377603 177.161269 
C 162.377603 177.161269 162.377603 177.161269 162.377603 177.161269 
z
" clip-path="url(#p0a9f1e8cd3)"/>
   </g>
   <g id="matplotlib.axis_1">
    <g id="xtick_1">
     <g id="line2d_1">
      <defs>
       <path id="ma52bf9bb0e" d="M 0 0 
L 0 3.5 
" style="stroke: #000000; stroke-width: 0.8"/>
      </defs>
      <g>
       <use xlink:href="#ma52bf9bb0e" x="14.571094" y="177.161269" style="stroke: #000000; stroke-width: 0.8"/>
      </g>
     </g>
     <g id="text_1">
      <!-- −4 -->
      <g transform="translate(7.2 191.759707) scale(0.1 -0.1)">
       <defs>
        <path id="DejaVuSans-2212" d="M 678 2272 
L 4684 2272 
L 4684 1741 
L 678 1741 
L 678 2272 
z
" transform="scale(0.015625)"/>
        <path id="DejaVuSans-34" d="M 2419 4116 
L 825 1625 
L 2419 1625 
L 2419 4116 
z
M 2253 4666 
L 3047 4666 
L 3047 1625 
L 3713 1625 
L 3713 1100 
L 3047 1100 
L 3047 0 
L 2419 0 
L 2419 1100 
L 313 1100 
L 313 1709 
L 2253 4666 
z
" transform="scale(0.015625)"/>
       </defs>
       <use xlink:href="#DejaVuSans-2212"/>
       <use xlink:href="#DejaVuSans-34" transform="translate(83.789062 0)"/>
      </g>
     </g>
    </g>
    <g id="xtick_2">
     <g id="line2d_2">
      <g>
       <use xlink:href="#ma52bf9bb0e" x="51.522721" y="177.161269" style="stroke: #000000; stroke-width: 0.8"/>
      </g>
     </g>
     <g id="text_2">
      <!-- −3 -->
      <g transform="translate(44.151627 191.759707) scale(0.1 -0.1)">
       <defs>
        <path id="DejaVuSans-33" d="M 2597 2516 
Q 3050 2419 3304 2112 
Q 3559 1806 3559 1356 
Q 3559 666 3084 287 
Q 2609 -91 1734 -91 
Q 1441 -91 1130 -33 
Q 819 25 488 141 
L 488 750 
Q 750 597 1062 519 
Q 1375 441 1716 441 
Q 2309 441 2620 675 
Q 2931 909 2931 1356 
Q 2931 1769 2642 2001 
Q 2353 2234 1838 2234 
L 1294 2234 
L 1294 2753 
L 1863 2753 
Q 2328 2753 2575 2939 
Q 2822 3125 2822 3475 
Q 2822 3834 2567 4026 
Q 2313 4219 1838 4219 
Q 1578 4219 1281 4162 
Q 984 4106 628 3988 
L 628 4550 
Q 988 4650 1302 4700 
Q 1616 4750 1894 4750 
Q 2613 4750 3031 4423 
Q 3450 4097 3450 3541 
Q 3450 3153 3228 2886 
Q 3006 2619 2597 2516 
z
" transform="scale(0.015625)"/>
       </defs>
       <use xlink:href="#DejaVuSans-2212"/>
       <use xlink:href="#DejaVuSans-33" transform="translate(83.789062 0)"/>
      </g>
     </g>
    </g>
    <g id="xtick_3">
     <g id="line2d_3">
      <g>
       <use xlink:href="#ma52bf9bb0e" x="88.474348" y="177.161269" style="stroke: #000000; stroke-width: 0.8"/>
      </g>
     </g>
     <g id="text_3">
      <!-- −2 -->
      <g transform="translate(81.103254 191.759707) scale(0.1 -0.1)">
       <defs>
        <path id="DejaVuSans-32" d="M 1228 531 
L 3431 531 
L 3431 0 
L 469 0 
L 469 531 
Q 828 903 1448 1529 
Q 2069 2156 2228 2338 
Q 2531 2678 2651 2914 
Q 2772 3150 2772 3378 
Q 2772 3750 2511 3984 
Q 2250 4219 1831 4219 
Q 1534 4219 1204 4116 
Q 875 4013 500 3803 
L 500 4441 
Q 881 4594 1212 4672 
Q 1544 4750 1819 4750 
Q 2544 4750 2975 4387 
Q 3406 4025 3406 3419 
Q 3406 3131 3298 2873 
Q 3191 2616 2906 2266 
Q 2828 2175 2409 1742 
Q 1991 1309 1228 531 
z
" transform="scale(0.015625)"/>
       </defs>
       <use xlink:href="#DejaVuSans-2212"/>
       <use xlink:href="#DejaVuSans-32" transform="translate(83.789062 0)"/>
      </g>
     </g>
    </g>
    <g id="xtick_4">
     <g id="line2d_4">
      <g>
       <use xlink:href="#ma52bf9bb0e" x="125.425975" y="177.161269" style="stroke: #000000; stroke-width: 0.8"/>
      </g>
     </g>
     <g id="text_4">
      <!-- −1 -->
      <g transform="translate(118.054882 191.759707) scale(0.1 -0.1)">
       <defs>
        <path id="DejaVuSans-31" d="M 794 531 
L 1825 531 
L 1825 4091 
L 703 3866 
L 703 4441 
L 1819 4666 
L 2450 4666 
L 2450 531 
L 3481 531 
L 3481 0 
L 794 0 
L 794 531 
z
" transform="scale(0.015625)"/>
       </defs>
       <use xlink:href="#DejaVuSans-2212"/>
       <use xlink:href="#DejaVuSans-31" transform="translate(83.789062 0)"/>
      </g>
     </g>
    </g>
    <g id="xtick_5">
     <g id="line2d_5">
      <g>
       <use xlink:href="#ma52bf9bb0e" x="162.377603" y="177.161269" style="stroke: #000000; stroke-width: 0.8"/>
      </g>
     </g>
    </g>
    <g id="xtick_6">
     <g id="line2d_6">
      <g>
       <use xlink:href="#ma52bf9bb0e" x="199.32923" y="177.161269" style="stroke: #000000; stroke-width: 0.8"/>
      </g>
     </g>
     <g id="text_5">
      <!-- 1 -->
      <g transform="translate(196.14798 191.759707) scale(0.1 -0.1)">
       <use xlink:href="#DejaVuSans-31"/>
      </g>
     </g>
    </g>
    <g id="xtick_7">
     <g id="line2d_7">
      <g>
       <use xlink:href="#ma52bf9bb0e" x="236.280857" y="177.161269" style="stroke: #000000; stroke-width: 0.8"/>
      </g>
     </g>
     <g id="text_6">
      <!-- 2 -->
      <g transform="translate(233.099607 191.759707) scale(0.1 -0.1)">
       <use xlink:href="#DejaVuSans-32"/>
      </g>
     </g>
    </g>
    <g id="xtick_8">
     <g id="line2d_8">
      <g>
       <use xlink:href="#ma52bf9bb0e" x="273.232484" y="177.161269" style="stroke: #000000; stroke-width: 0.8"/>
      </g>
     </g>
     <g id="text_7">
      <!-- 3 -->
      <g transform="translate(270.051234 191.759707) scale(0.1 -0.1)">
       <use xlink:href="#DejaVuSans-33"/>
      </g>
     </g>
    </g>
    <g id="xtick_9">
     <g id="line2d_9">
      <g>
       <use xlink:href="#ma52bf9bb0e" x="310.184112" y="177.161269" style="stroke: #000000; stroke-width: 0.8"/>
      </g>
     </g>
     <g id="text_8">
      <!-- 4 -->
      <g transform="translate(307.002862 191.759707) scale(0.1 -0.1)">
       <use xlink:href="#DejaVuSans-34"/>
      </g>
     </g>
    </g>
    <g id="xtick_10">
     <g id="line2d_10">
      <defs>
       <path id="m1c35ad242d" d="M 0 0 
L 0 2 
" style="stroke: #000000; stroke-width: 0.6"/>
      </defs>
      <g>
       <use xlink:href="#m1c35ad242d" x="21.961419" y="177.161269" style="stroke: #000000; stroke-width: 0.6"/>
      </g>
     </g>
    </g>
    <g id="xtick_11">
     <g id="line2d_11">
      <g>
       <use xlink:href="#m1c35ad242d" x="29.351745" y="177.161269" style="stroke: #000000; stroke-width: 0.6"/>
      </g>
     </g>
    </g>
    <g id="xtick_12">
     <g id="line2d_12">
      <g>
       <use xlink:href="#m1c35ad242d" x="36.74207" y="177.161269" style="stroke: #000000; stroke-width: 0.6"/>
      </g>
     </g>
    </g>
    <g id="xtick_13">
     <g id="line2d_13">
      <g>
       <use xlink:href="#m1c35ad242d" x="44.132396" y="177.161269" style="stroke: #000000; stroke-width: 0.6"/>
      </g>
     </g>
    </g>
    <g id="xtick_14">
     <g id="line2d_14">
      <g>
       <use xlink:href="#m1c35ad242d" x="58.913046" y="177.161269" style="stroke: #000000; stroke-width: 0.6"/>
      </g>
     </g>
    </g>
    <g id="xtick_15">
     <g id="line2d_15">
      <g>
       <use xlink:href="#m1c35ad242d" x="66.303372" y="177.161269" style="stroke: #000000; stroke-width: 0.6"/>
      </g>
     </g>
    </g>
    <g id="xtick_16">
     <g id="line2d_16">
      <g>
       <use xlink:href="#m1c35ad242d" x="73.693697" y="177.161269" style="stroke: #000000; stroke-width: 0.6"/>
      </g>
     </g>
    </g>
    <g id="xtick_17">
     <g id="line2d_17">
      <g>
       <use xlink:href="#m1c35ad242d" x="81.084023" y="177.161269" style="stroke: #000000; stroke-width: 0.6"/>
      </g>
     </g>
    </g>
    <g id="xtick_18">
     <g id="line2d_18">
      <g>
       <use xlink:href="#m1c35ad242d" x="95.864674" y="177.161269" style="stroke: #000000; stroke-width: 0.6"/>
      </g>
     </g>
    </g>
    <g id="xtick_19">
     <g id="line2d_19">
      <g>
       <use xlink:href="#m1c35ad242d" x="103.254999" y="177.161269" style="stroke: #000000; stroke-width: 0.6"/>
      </g>
     </g>
    </g>
    <g id="xtick_20">
     <g id="line2d_20">
      <g>
       <use xlink:href="#m1c35ad242d" x="110.645325" y="177.161269" style="stroke: #000000; stroke-width: 0.6"/>
      </g>
     </g>
    </g>
    <g id="xtick_21">
     <g id="line2d_21">
      <g>
       <use xlink:href="#m1c35ad242d" x="118.03565" y="177.161269" style="stroke: #000000; stroke-width: 0.6"/>
      </g>
     </g>
    </g>
    <g id="xtick_22">
     <g id="line2d_22">
      <g>
       <use xlink:href="#m1c35ad242d" x="132.816301" y="177.161269" style="stroke: #000000; stroke-width: 0.6"/>
      </g>
     </g>
    </g>
    <g id="xtick_23">
     <g id="line2d_23">
      <g>
       <use xlink:href="#m1c35ad242d" x="140.206626" y="177.161269" style="stroke: #000000; stroke-width: 0.6"/>
      </g>
     </g>
    </g>
    <g id="xtick_24">
     <g id="line2d_24">
      <g>
       <use xlink:href="#m1c35ad242d" x="147.596952" y="177.161269" style="stroke: #000000; stroke-width: 0.6"/>
      </g>
     </g>
    </g>
    <g id="xtick_25">
     <g id="line2d_25">
      <g>
       <use xlink:href="#m1c35ad242d" x="154.987277" y="177.161269" style="stroke: #000000; stroke-width: 0.6"/>
      </g>
     </g>
    </g>
    <g id="xtick_26">
     <g id="line2d_26">
      <g>
       <use xlink:href="#m1c35ad242d" x="169.767928" y="177.161269" style="stroke: #000000; stroke-width: 0.6"/>
      </g>
     </g>
    </g>
    <g id="xtick_27">
     <g id="line2d_27">
      <g>
       <use xlink:href="#m1c35ad242d" x="177.158254" y="177.161269" style="stroke: #000000; stroke-width: 0.6"/>
      </g>
     </g>
    </g>
    <g id="xtick_28">
     <g id="line2d_28">
      <g>
       <use xlink:href="#m1c35ad242d" x="184.548579" y="177.161269" style="stroke: #000000; stroke-width: 0.6"/>
      </g>
     </g>
    </g>
    <g id="xtick_29">
     <g id="line2d_29">
      <g>
       <use xlink:href="#m1c35ad242d" x="191.938904" y="177.161269" style="stroke: #000000; stroke-width: 0.6"/>
      </g>
     </g>
    </g>
    <g id="xtick_30">
     <g id="line2d_30">
      <g>
       <use xlink:href="#m1c35ad242d" x="206.719555" y="177.161269" style="stroke: #000000; stroke-width: 0.6"/>
      </g>
     </g>
    </g>
    <g id="xtick_31">
     <g id="line2d_31">
      <g>
       <use xlink:href="#m1c35ad242d" x="214.109881" y="177.161269" style="stroke: #000000; stroke-width: 0.6"/>
      </g>
     </g>
    </g>
    <g id="xtick_32">
     <g id="line2d_32">
      <g>
       <use xlink:href="#m1c35ad242d" x="221.500206" y="177.161269" style="stroke: #000000; stroke-width: 0.6"/>
      </g>
     </g>
    </g>
    <g id="xtick_33">
     <g id="line2d_33">
      <g>
       <use xlink:href="#m1c35ad242d" x="228.890532" y="177.161269" style="stroke: #000000; stroke-width: 0.6"/>
      </g>
     </g>
    </g>
    <g id="xtick_34">
     <g id="line2d_34">
      <g>
       <use xlink:href="#m1c35ad242d" x="243.671183" y="177.161269" style="stroke: #000000; stroke-width: 0.6"/>
      </g>
     </g>
    </g>
    <g id="xtick_35">
     <g id="line2d_35">
      <g>
       <use xlink:href="#m1c35ad242d" x="251.061508" y="177.161269" style="stroke: #000000; stroke-width: 0.6"/>
      </g>
     </g>
    </g>
    <g id="xtick_36">
     <g id="line2d_36">
      <g>
       <use xlink:href="#m1c35ad242d" x="258.451833" y="177.161269" style="stroke: #000000; stroke-width: 0.6"/>
      </g>
     </g>
    </g>
    <g id="xtick_37">
     <g id="line2d_37">
      <g>
       <use xlink:href="#m1c35ad242d" x="265.842159" y="177.161269" style="stroke: #000000; stroke-width: 0.6"/>
      </g>
     </g>
    </g>
    <g id="xtick_38">
     <g id="line2d_38">
      <g>
       <use xlink:href="#m1c35ad242d" x="280.62281" y="177.161269" style="stroke: #000000; stroke-width: 0.6"/>
      </g>
     </g>
    </g>
    <g id="xtick_39">
     <g id="line2d_39">
      <g>
       <use xlink:href="#m1c35ad242d" x="288.013135" y="177.161269" style="stroke: #000000; stroke-width: 0.6"/>
      </g>
     </g>
    </g>
    <g id="xtick_40">
     <g id="line2d_40">
      <g>
       <use xlink:href="#m1c35ad242d" x="295.403461" y="177.161269" style="stroke: #000000; stroke-width: 0.6"/>
      </g>
     </g>
    </g>
    <g id="xtick_41">
     <g id="line2d_41">
      <g>
       <use xlink:href="#m1c35ad242d" x="302.793786" y="177.161269" style="stroke: #000000; stroke-width: 0.6"/>
      </g>
     </g>
    </g>
    <g id="text_9">
     <!-- $x$ -->
     <g transform="translate(324.096372 177.161269) scale(0.16 -0.16)">
      <defs>
       <path id="Cmmi10-78" d="M 500 184 
Q 613 97 819 97 
Q 1019 97 1172 289 
Q 1325 481 1381 709 
L 1672 1844 
Q 1741 2153 1741 2266 
Q 1741 2425 1652 2544 
Q 1563 2663 1403 2663 
Q 1200 2663 1022 2536 
Q 844 2409 722 2214 
Q 600 2019 550 1819 
Q 538 1778 500 1778 
L 422 1778 
Q 372 1778 372 1838 
L 372 1856 
Q 434 2094 584 2320 
Q 734 2547 951 2687 
Q 1169 2828 1416 2828 
Q 1650 2828 1839 2703 
Q 2028 2578 2106 2363 
Q 2216 2559 2386 2693 
Q 2556 2828 2759 2828 
Q 2897 2828 3040 2779 
Q 3184 2731 3275 2631 
Q 3366 2531 3366 2381 
Q 3366 2219 3261 2101 
Q 3156 1984 2994 1984 
Q 2891 1984 2822 2050 
Q 2753 2116 2753 2216 
Q 2753 2350 2845 2451 
Q 2938 2553 3066 2572 
Q 2950 2663 2747 2663 
Q 2541 2663 2389 2472 
Q 2238 2281 2175 2047 
L 1894 916 
Q 1825 659 1825 494 
Q 1825 331 1917 214 
Q 2009 97 2163 97 
Q 2463 97 2698 361 
Q 2934 625 3009 941 
Q 3022 978 3059 978 
L 3138 978 
Q 3163 978 3178 961 
Q 3194 944 3194 922 
Q 3194 916 3188 903 
Q 3097 522 2806 225 
Q 2516 -72 2150 -72 
Q 1916 -72 1727 54 
Q 1538 181 1459 397 
Q 1359 209 1182 68 
Q 1006 -72 806 -72 
Q 669 -72 523 -23 
Q 378 25 287 125 
Q 197 225 197 378 
Q 197 528 301 651 
Q 406 775 563 775 
Q 669 775 741 711 
Q 813 647 813 544 
Q 813 409 723 309 
Q 634 209 500 184 
z
" transform="scale(0.015625)"/>
      </defs>
      <use xlink:href="#Cmmi10-78" transform="translate(0 0.8125)"/>
     </g>
    </g>
   </g>
   <g id="matplotlib.axis_2">
    <g id="ytick_1">
     <g id="line2d_42">
      <defs>
       <path id="meecce9096e" d="M 0 0 
L -3.5 0 
" style="stroke: #000000; stroke-width: 0.8"/>
      </defs>
      <g>
       <use xlink:href="#meecce9096e" x="162.377603" y="324.967778" style="stroke: #000000; stroke-width: 0.8"/>
      </g>
     </g>
     <g id="text_10">
      <!-- −4 -->
      <g transform="translate(140.635415 328.766997) scale(0.1 -0.1)">
       <use xlink:href="#DejaVuSans-2212"/>
       <use xlink:href="#DejaVuSans-34" transform="translate(83.789062 0)"/>
      </g>
     </g>
    </g>
    <g id="ytick_2">
     <g id="line2d_43">
      <g>
       <use xlink:href="#meecce9096e" x="162.377603" y="288.016151" style="stroke: #000000; stroke-width: 0.8"/>
      </g>
     </g>
     <g id="text_11">
      <!-- −3 -->
      <g transform="translate(140.635415 291.81537) scale(0.1 -0.1)">
       <use xlink:href="#DejaVuSans-2212"/>
       <use xlink:href="#DejaVuSans-33" transform="translate(83.789062 0)"/>
      </g>
     </g>
    </g>
    <g id="ytick_3">
     <g id="line2d_44">
      <g>
       <use xlink:href="#meecce9096e" x="162.377603" y="251.064524" style="stroke: #000000; stroke-width: 0.8"/>
      </g>
     </g>
     <g id="text_12">
      <!-- −2 -->
      <g transform="translate(140.635415 254.863742) scale(0.1 -0.1)">
       <use xlink:href="#DejaVuSans-2212"/>
       <use xlink:href="#DejaVuSans-32" transform="translate(83.789062 0)"/>
      </g>
     </g>
    </g>
    <g id="ytick_4">
     <g id="line2d_45">
      <g>
       <use xlink:href="#meecce9096e" x="162.377603" y="214.112896" style="stroke: #000000; stroke-width: 0.8"/>
      </g>
     </g>
     <g id="text_13">
      <!-- −1 -->
      <g transform="translate(140.635415 217.912115) scale(0.1 -0.1)">
       <use xlink:href="#DejaVuSans-2212"/>
       <use xlink:href="#DejaVuSans-31" transform="translate(83.789062 0)"/>
      </g>
     </g>
    </g>
    <g id="ytick_5">
     <g id="line2d_46">
      <g>
       <use xlink:href="#meecce9096e" x="162.377603" y="177.161269" style="stroke: #000000; stroke-width: 0.8"/>
      </g>
     </g>
    </g>
    <g id="ytick_6">
     <g id="line2d_47">
      <g>
       <use xlink:href="#meecce9096e" x="162.377603" y="140.209642" style="stroke: #000000; stroke-width: 0.8"/>
      </g>
     </g>
     <g id="text_14">
      <!-- 1 -->
      <g transform="translate(149.015103 144.008861) scale(0.1 -0.1)">
       <use xlink:href="#DejaVuSans-31"/>
      </g>
     </g>
    </g>
    <g id="ytick_7">
     <g id="line2d_48">
      <g>
       <use xlink:href="#meecce9096e" x="162.377603" y="103.258015" style="stroke: #000000; stroke-width: 0.8"/>
      </g>
     </g>
     <g id="text_15">
      <!-- 2 -->
      <g transform="translate(149.015103 107.057234) scale(0.1 -0.1)">
       <use xlink:href="#DejaVuSans-32"/>
      </g>
     </g>
    </g>
    <g id="ytick_8">
     <g id="line2d_49">
      <g>
       <use xlink:href="#meecce9096e" x="162.377603" y="66.306388" style="stroke: #000000; stroke-width: 0.8"/>
      </g>
     </g>
     <g id="text_16">
      <!-- 3 -->
      <g transform="translate(149.015103 70.105606) scale(0.1 -0.1)">
       <use xlink:href="#DejaVuSans-33"/>
      </g>
     </g>
    </g>
    <g id="ytick_9">
     <g id="line2d_50">
      <g>
       <use xlink:href="#meecce9096e" x="162.377603" y="29.35476" style="stroke: #000000; stroke-width: 0.8"/>
      </g>
     </g>
     <g id="text_17">
      <!-- 4 -->
      <g transform="translate(149.015103 33.153979) scale(0.1 -0.1)">
       <use xlink:href="#DejaVuSans-34"/>
      </g>
     </g>
    </g>
    <g id="ytick_10">
     <g id="line2d_51">
      <defs>
       <path id="m417b037d13" d="M 0 0 
L -2 0 
" style="stroke: #000000; stroke-width: 0.6"/>
      </defs>
      <g>
       <use xlink:href="#m417b037d13" x="162.377603" y="317.577453" style="stroke: #000000; stroke-width: 0.6"/>
      </g>
     </g>
    </g>
    <g id="ytick_11">
     <g id="line2d_52">
      <g>
       <use xlink:href="#m417b037d13" x="162.377603" y="310.187127" style="stroke: #000000; stroke-width: 0.6"/>
      </g>
     </g>
    </g>
    <g id="ytick_12">
     <g id="line2d_53">
      <g>
       <use xlink:href="#m417b037d13" x="162.377603" y="302.796802" style="stroke: #000000; stroke-width: 0.6"/>
      </g>
     </g>
    </g>
    <g id="ytick_13">
     <g id="line2d_54">
      <g>
       <use xlink:href="#m417b037d13" x="162.377603" y="295.406476" style="stroke: #000000; stroke-width: 0.6"/>
      </g>
     </g>
    </g>
    <g id="ytick_14">
     <g id="line2d_55">
      <g>
       <use xlink:href="#m417b037d13" x="162.377603" y="280.625825" style="stroke: #000000; stroke-width: 0.6"/>
      </g>
     </g>
    </g>
    <g id="ytick_15">
     <g id="line2d_56">
      <g>
       <use xlink:href="#m417b037d13" x="162.377603" y="273.2355" style="stroke: #000000; stroke-width: 0.6"/>
      </g>
     </g>
    </g>
    <g id="ytick_16">
     <g id="line2d_57">
      <g>
       <use xlink:href="#m417b037d13" x="162.377603" y="265.845175" style="stroke: #000000; stroke-width: 0.6"/>
      </g>
     </g>
    </g>
    <g id="ytick_17">
     <g id="line2d_58">
      <g>
       <use xlink:href="#m417b037d13" x="162.377603" y="258.454849" style="stroke: #000000; stroke-width: 0.6"/>
      </g>
     </g>
    </g>
    <g id="ytick_18">
     <g id="line2d_59">
      <g>
       <use xlink:href="#m417b037d13" x="162.377603" y="243.674198" style="stroke: #000000; stroke-width: 0.6"/>
      </g>
     </g>
    </g>
    <g id="ytick_19">
     <g id="line2d_60">
      <g>
       <use xlink:href="#m417b037d13" x="162.377603" y="236.283873" style="stroke: #000000; stroke-width: 0.6"/>
      </g>
     </g>
    </g>
    <g id="ytick_20">
     <g id="line2d_61">
      <g>
       <use xlink:href="#m417b037d13" x="162.377603" y="228.893547" style="stroke: #000000; stroke-width: 0.6"/>
      </g>
     </g>
    </g>
    <g id="ytick_21">
     <g id="line2d_62">
      <g>
       <use xlink:href="#m417b037d13" x="162.377603" y="221.503222" style="stroke: #000000; stroke-width: 0.6"/>
      </g>
     </g>
    </g>
    <g id="ytick_22">
     <g id="line2d_63">
      <g>
       <use xlink:href="#m417b037d13" x="162.377603" y="206.722571" style="stroke: #000000; stroke-width: 0.6"/>
      </g>
     </g>
    </g>
    <g id="ytick_23">
     <g id="line2d_64">
      <g>
       <use xlink:href="#m417b037d13" x="162.377603" y="199.332246" style="stroke: #000000; stroke-width: 0.6"/>
      </g>
     </g>
    </g>
    <g id="ytick_24">
     <g id="line2d_65">
      <g>
       <use xlink:href="#m417b037d13" x="162.377603" y="191.94192" style="stroke: #000000; stroke-width: 0.6"/>
      </g>
     </g>
    </g>
    <g id="ytick_25">
     <g id="line2d_66">
      <g>
       <use xlink:href="#m417b037d13" x="162.377603" y="184.551595" style="stroke: #000000; stroke-width: 0.6"/>
      </g>
     </g>
    </g>
    <g id="ytick_26">
     <g id="line2d_67">
      <g>
       <use xlink:href="#m417b037d13" x="162.377603" y="169.770944" style="stroke: #000000; stroke-width: 0.6"/>
      </g>
     </g>
    </g>
    <g id="ytick_27">
     <g id="line2d_68">
      <g>
       <use xlink:href="#m417b037d13" x="162.377603" y="162.380618" style="stroke: #000000; stroke-width: 0.6"/>
      </g>
     </g>
    </g>
    <g id="ytick_28">
     <g id="line2d_69">
      <g>
       <use xlink:href="#m417b037d13" x="162.377603" y="154.990293" style="stroke: #000000; stroke-width: 0.6"/>
      </g>
     </g>
    </g>
    <g id="ytick_29">
     <g id="line2d_70">
      <g>
       <use xlink:href="#m417b037d13" x="162.377603" y="147.599967" style="stroke: #000000; stroke-width: 0.6"/>
      </g>
     </g>
    </g>
    <g id="ytick_30">
     <g id="line2d_71">
      <g>
       <use xlink:href="#m417b037d13" x="162.377603" y="132.819317" style="stroke: #000000; stroke-width: 0.6"/>
      </g>
     </g>
    </g>
    <g id="ytick_31">
     <g id="line2d_72">
      <g>
       <use xlink:href="#m417b037d13" x="162.377603" y="125.428991" style="stroke: #000000; stroke-width: 0.6"/>
      </g>
     </g>
    </g>
    <g id="ytick_32">
     <g id="line2d_73">
      <g>
       <use xlink:href="#m417b037d13" x="162.377603" y="118.038666" style="stroke: #000000; stroke-width: 0.6"/>
      </g>
     </g>
    </g>
    <g id="ytick_33">
     <g id="line2d_74">
      <g>
       <use xlink:href="#m417b037d13" x="162.377603" y="110.64834" style="stroke: #000000; stroke-width: 0.6"/>
      </g>
     </g>
    </g>
    <g id="ytick_34">
     <g id="line2d_75">
      <g>
       <use xlink:href="#m417b037d13" x="162.377603" y="95.867689" style="stroke: #000000; stroke-width: 0.6"/>
      </g>
     </g>
    </g>
    <g id="ytick_35">
     <g id="line2d_76">
      <g>
       <use xlink:href="#m417b037d13" x="162.377603" y="88.477364" style="stroke: #000000; stroke-width: 0.6"/>
      </g>
     </g>
    </g>
    <g id="ytick_36">
     <g id="line2d_77">
      <g>
       <use xlink:href="#m417b037d13" x="162.377603" y="81.087038" style="stroke: #000000; stroke-width: 0.6"/>
      </g>
     </g>
    </g>
    <g id="ytick_37">
     <g id="line2d_78">
      <g>
       <use xlink:href="#m417b037d13" x="162.377603" y="73.696713" style="stroke: #000000; stroke-width: 0.6"/>
      </g>
     </g>
    </g>
    <g id="ytick_38">
     <g id="line2d_79">
      <g>
       <use xlink:href="#m417b037d13" x="162.377603" y="58.916062" style="stroke: #000000; stroke-width: 0.6"/>
      </g>
     </g>
    </g>
    <g id="ytick_39">
     <g id="line2d_80">
      <g>
       <use xlink:href="#m417b037d13" x="162.377603" y="51.525737" style="stroke: #000000; stroke-width: 0.6"/>
      </g>
     </g>
    </g>
    <g id="ytick_40">
     <g id="line2d_81">
      <g>
       <use xlink:href="#m417b037d13" x="162.377603" y="44.135411" style="stroke: #000000; stroke-width: 0.6"/>
      </g>
     </g>
    </g>
    <g id="ytick_41">
     <g id="line2d_82">
      <g>
       <use xlink:href="#m417b037d13" x="162.377603" y="36.745086" style="stroke: #000000; stroke-width: 0.6"/>
      </g>
     </g>
    </g>
    <g id="text_18">
     <!-- $y$ -->
     <g transform="translate(158.377603 12.0825) scale(0.16 -0.16)">
      <defs>
       <path id="Cmmi10-79" d="M 538 -916 
Q 672 -1147 1006 -1147 
Q 1309 -1147 1531 -934 
Q 1753 -722 1889 -420 
Q 2025 -119 2100 197 
Q 1816 -72 1484 -72 
Q 1231 -72 1053 15 
Q 875 103 776 276 
Q 678 450 678 697 
Q 678 906 734 1126 
Q 791 1347 892 1617 
Q 994 1888 1069 2088 
Q 1153 2322 1153 2472 
Q 1153 2663 1013 2663 
Q 759 2663 595 2402 
Q 431 2141 353 1819 
Q 341 1778 300 1778 
L 225 1778 
Q 172 1778 172 1838 
L 172 1856 
Q 275 2238 487 2533 
Q 700 2828 1025 2828 
Q 1253 2828 1411 2678 
Q 1569 2528 1569 2297 
Q 1569 2178 1516 2047 
Q 1488 1969 1388 1706 
Q 1288 1444 1234 1272 
Q 1181 1100 1147 934 
Q 1113 769 1113 603 
Q 1113 391 1203 244 
Q 1294 97 1491 97 
Q 1888 97 2203 581 
L 2688 2553 
Q 2709 2638 2787 2698 
Q 2866 2759 2956 2759 
Q 3034 2759 3092 2709 
Q 3150 2659 3150 2578 
Q 3150 2541 3144 2528 
L 2509 -19 
Q 2425 -347 2200 -647 
Q 1975 -947 1658 -1130 
Q 1341 -1313 997 -1313 
Q 831 -1313 668 -1248 
Q 506 -1184 406 -1056 
Q 306 -928 306 -756 
Q 306 -581 409 -453 
Q 513 -325 684 -325 
Q 788 -325 858 -389 
Q 928 -453 928 -556 
Q 928 -703 818 -812 
Q 709 -922 563 -922 
Q 556 -919 550 -917 
Q 544 -916 538 -916 
z
" transform="scale(0.015625)"/>
      </defs>
      <use xlink:href="#Cmmi10-79" transform="translate(0 0.8125)"/>
     </g>
    </g>
   </g>
   <g id="line2d_83">
    <path d="M 199.32923 177.161269 
L 199.238148 174.568409 
L 199.037539 172.527501 
L 198.399113 168.92273 
L 197.807277 166.665513 
L 196.817491 163.770344 
L 195.883277 161.579468 
L 194.944954 159.703023 
L 193.056487 156.564454 
L 191.205012 154.044106 
L 190.15013 152.786908 
L 187.708171 150.258016 
L 185.153229 148.063269 
L 182.381953 146.092817 
L 179.671977 144.506601 
L 177.071131 143.256653 
L 173.890504 142.048937 
L 170.604719 141.137148 
L 168.394756 140.702846 
L 165.76075 140.364842 
L 162.314758 140.209695 
L 159.971218 140.28808 
L 156.572973 140.668407 
L 153.881382 141.199665 
L 151.944677 141.713042 
L 149.708115 142.449501 
L 146.392251 143.846238 
L 143.848844 145.190847 
L 141.337377 146.784771 
L 139.304834 148.298316 
L 136.954767 150.345188 
L 134.588443 152.805872 
L 133.078017 154.645563 
L 131.134881 157.4302 
L 129.833107 159.660453 
L 128.290679 162.895773 
L 127.201692 165.844112 
L 126.390881 168.772074 
L 125.997142 170.689418 
L 125.570785 173.8931 
L 125.426006 177.209018 
L 125.524386 179.856293 
L 125.858906 182.801089 
L 126.366321 185.444407 
L 127.008391 187.859008 
L 127.938731 190.554809 
L 128.95612 192.922844 
L 130.060591 195.078678 
L 131.748883 197.832609 
L 133.29375 199.954958 
L 135.150607 202.143532 
L 137.684893 204.651137 
L 140.067606 206.617793 
L 143.2809 208.795724 
L 145.902816 210.237003 
L 149.511068 211.800482 
L 152.671311 212.81531 
L 154.761529 213.319507 
L 158.256667 213.882389 
L 161.666025 214.106044 
L 165.364493 213.99198 
L 168.793755 213.551594 
L 171.144489 213.057849 
L 174.694729 211.999627 
L 177.147078 211.03287 
L 179.988838 209.646145 
L 182.10629 208.405495 
L 184.630947 206.660615 
L 187.588715 204.176497 
L 189.988172 201.71894 
L 191.980717 199.276386 
L 193.892058 196.455358 
L 195.419074 193.704664 
L 196.635553 191.01102 
L 197.443106 188.816021 
L 198.277683 185.913812 
L 198.916157 182.67097 
L 199.219363 180.008624 
L 199.32923 177.161269 
L 199.32923 177.161269 
" clip-path="url(#p0a9f1e8cd3)" style="fill: none; stroke-dasharray: 3.7,1.6; stroke-dashoffset: 0; stroke: #808080"/>
   </g>
   <g id="line2d_84">
    <path d="M 236.280857 177.161269 
L 236.181075 173.322187 
L 235.737719 168.217874 
L 235.084385 163.916845 
L 234.230254 159.872904 
L 232.966546 155.277666 
L 231.429492 150.826357 
L 229.925087 147.177467 
L 228.748635 144.656237 
L 226.802705 140.952192 
L 225.067189 138.024243 
L 222.520469 134.213317 
L 219.485671 130.253279 
L 217.485691 127.919116 
L 214.901119 125.171162 
L 211.687778 122.114038 
L 207.871345 118.920301 
L 206.326397 117.74583 
L 201.332787 114.358525 
L 198.493596 112.68394 
L 195.890163 111.293225 
L 190.262237 108.720505 
L 188.02021 107.84931 
L 182.83894 106.147012 
L 180.977138 105.63681 
L 176.517387 104.623296 
L 171.64109 103.840885 
L 169.862323 103.638008 
L 165.082124 103.307518 
L 162.376017 103.258015 
L 157.58179 103.413787 
L 153.422137 103.802625 
L 149.023953 104.474468 
L 145.944128 105.108289 
L 141.451501 106.282575 
L 136.751196 107.843318 
L 134.800259 108.59611 
L 130.971366 110.263292 
L 126.815964 112.376542 
L 122.819565 114.736493 
L 118.242419 117.884152 
L 113.854841 121.418713 
L 110.51082 124.515967 
L 107.947968 127.170211 
L 105.651479 129.792103 
L 102.564346 133.755447 
L 99.800577 137.844519 
L 98.126414 140.644482 
L 95.972458 144.725984 
L 94.590217 147.723854 
L 92.872888 152.045823 
L 91.443717 156.423021 
L 90.655389 159.33951 
L 89.790042 163.278294 
L 89.053985 167.923409 
L 88.646295 172.122888 
L 88.47461 176.964392 
L 88.57163 180.951979 
L 88.792756 184.014108 
L 89.205965 187.534429 
L 89.852588 191.367368 
L 90.628562 194.874716 
L 91.818077 199.139541 
L 92.820403 202.13099 
L 94.721314 206.898747 
L 95.975971 209.603746 
L 98.475422 214.285417 
L 100.398991 217.41475 
L 103.227317 221.466289 
L 106.056078 225.010793 
L 108.502833 227.749807 
L 110.457395 229.753884 
L 114.523002 233.47848 
L 117.924434 236.200297 
L 121.861677 238.968638 
L 125.990461 241.485969 
L 130.525345 243.848035 
L 133.91405 245.363301 
L 139.037037 247.281944 
L 142.516992 248.345868 
L 146.989369 249.444693 
L 151.411528 250.246399 
L 157.278061 250.888372 
L 161.787684 251.062169 
L 165.946783 250.978286 
L 171.301046 250.523815 
L 175.232125 249.937998 
L 177.78107 249.441448 
L 183.243318 248.057764 
L 186.664464 246.959832 
L 191.09867 245.255258 
L 195.426002 243.26342 
L 199.556068 241.031863 
L 204.087513 238.169255 
L 207.375003 235.786562 
L 211.308698 232.545734 
L 215.312274 228.732691 
L 218.720966 224.985075 
L 221.450744 221.569095 
L 224.124161 217.769809 
L 225.92263 214.89349 
L 228.04555 211.064245 
L 230.187788 206.546126 
L 231.767873 202.591201 
L 232.996976 198.946473 
L 234.217469 194.502682 
L 235.165137 189.954465 
L 235.785995 185.699354 
L 236.152215 181.519894 
L 236.280857 177.161269 
L 236.280857 177.161269 
" clip-path="url(#p0a9f1e8cd3)" style="fill: none; stroke-dasharray: 3.7,1.6; stroke-dashoffset: 0; stroke: #808080"/>
   </g>
   <g id="line2d_85">
    <path d="M 273.232484 177.161269 
L 273.081516 171.377805 
L 272.717928 166.492748 
L 272.121129 161.503582 
L 271.027768 155.162488 
L 270.109042 151.031941 
L 269.243162 147.689979 
L 267.39984 141.676985 
L 265.6762 136.934355 
L 263.906572 132.656515 
L 261.648314 127.824359 
L 259.744661 124.166358 
L 256.65116 118.840594 
L 253.324709 113.77808 
L 250.618379 110.061566 
L 248.319761 107.141628 
L 244.82798 103.061741 
L 240.989932 99.001775 
L 238.975397 97.026491 
L 234.233855 92.748689 
L 230.696694 89.861175 
L 225.730954 86.193375 
L 221.498319 83.387362 
L 216.572929 80.457229 
L 212.705935 78.389493 
L 209.070286 76.619745 
L 201.859392 73.575589 
L 195.533216 71.380788 
L 189.341475 69.635671 
L 187.163646 69.112869 
L 178.549669 67.492363 
L 173.700573 66.886181 
L 168.939442 66.500766 
L 163.472893 66.311799 
L 159.276288 66.349778 
L 154.985557 66.553121 
L 148.915484 67.126838 
L 141.956833 68.203493 
L 135.436634 69.62993 
L 131.128178 70.802075 
L 126.773743 72.179509 
L 119.438784 74.96018 
L 114.504743 77.1763 
L 108.885157 80.06666 
L 102.547888 83.838121 
L 97.139028 87.535753 
L 92.608533 91.015569 
L 88.900836 94.155429 
L 85.084769 97.696669 
L 81.029916 101.852845 
L 77.704026 105.612753 
L 74.854013 109.128733 
L 72.676433 112.026755 
L 69.060151 117.322669 
L 66.508785 121.501816 
L 63.77137 126.509363 
L 61.936933 130.252031 
L 59.465338 135.956045 
L 57.914884 140.062144 
L 56.118876 145.571908 
L 54.697898 150.819552 
L 53.31952 157.283154 
L 52.359881 163.563266 
L 51.819974 169.048596 
L 51.580512 173.582219 
L 51.556854 179.912003 
L 51.864196 185.855615 
L 52.273701 190.042872 
L 53.108104 195.842313 
L 54.202185 201.386952 
L 55.792976 207.63293 
L 57.416688 212.826536 
L 59.409849 218.227635 
L 61.581819 223.302518 
L 63.735098 227.742502 
L 66.897513 233.484952 
L 69.121611 237.095607 
L 72.816763 242.488604 
L 75.930974 246.557128 
L 79.686039 250.991548 
L 83.748534 255.303923 
L 88.078447 259.4318 
L 91.60938 262.488073 
L 95.85589 265.838586 
L 100.5646 269.182775 
L 104.958952 271.986916 
L 108.207805 273.879612 
L 113.504905 276.661341 
L 117.91677 278.70948 
L 120.85887 279.947453 
L 127.330578 282.330233 
L 128.92766 282.849046 
L 134.243315 284.386577 
L 140.540397 285.844024 
L 146.120049 286.817536 
L 152.717568 287.594455 
L 158.30776 287.941417 
L 164.5732 287.994406 
L 169.459419 287.789713 
L 175.637836 287.220213 
L 178.414704 286.849993 
L 184.287144 285.829465 
L 188.928867 284.789496 
L 193.520697 283.551647 
L 199.957854 281.451871 
L 201.904931 280.729581 
L 208.631999 277.90518 
L 213.858986 275.336989 
L 218.90559 272.520545 
L 222.638779 270.206395 
L 226.625506 267.499588 
L 230.262231 264.799629 
L 234.385106 261.444863 
L 238.030944 258.188281 
L 241.934912 254.358674 
L 246.070677 249.854282 
L 249.485919 245.724714 
L 252.492677 241.721924 
L 255.063221 237.97394 
L 258.357809 232.62842 
L 260.262516 229.193456 
L 262.49265 224.761501 
L 264.883697 219.366783 
L 266.568294 215.017637 
L 268.489083 209.241771 
L 269.68378 204.985524 
L 270.670146 200.85789 
L 271.644821 195.85565 
L 272.472942 190.115846 
L 272.950521 185.062825 
L 273.210673 179.360185 
L 273.232484 177.161269 
L 273.232484 177.161269 
" clip-path="url(#p0a9f1e8cd3)" style="fill: none; stroke-dasharray: 3.7,1.6; stroke-dashoffset: 0; stroke: #808080"/>
   </g>
   <g id="line2d_86">
    <path d="M 310.184112 177.161269 
L 310.069791 171.349084 
L 309.795673 166.452547 
L 309.29885 161.008527 
L 308.459533 154.648299 
L 307.591462 149.598631 
L 306.248067 143.27833 
L 305.180042 139.026936 
L 303.589474 133.503837 
L 301.600978 127.526446 
L 300.179779 123.707324 
L 297.235794 116.663069 
L 295.510206 112.954774 
L 292.685943 107.400963 
L 289.374199 101.539654 
L 286.722732 97.254744 
L 283.034241 91.787154 
L 278.902948 86.229383 
L 274.891041 81.309872 
L 271.982503 77.997113 
L 267.283944 73.039112 
L 263.954294 69.788369 
L 260.993989 67.063256 
L 255.225754 62.156987 
L 249.701845 57.908425 
L 243.637903 53.696588 
L 239.773377 51.238046 
L 233.911195 47.817892 
L 227.091243 44.274442 
L 221.730993 41.795324 
L 215.406423 39.194939 
L 209.559229 37.08751 
L 205.739307 35.858309 
L 200.328204 34.309892 
L 192.527824 32.462519 
L 189.640789 31.890891 
L 185.240543 31.133703 
L 180.950509 30.52631 
L 176.904163 30.070334 
L 169.45791 29.52444 
L 163.542285 29.359349 
L 155.288082 29.524882 
L 150.267935 29.851663 
L 146.233162 30.239109 
L 140.978962 30.911954 
L 135.246888 31.866093 
L 127.457706 33.53897 
L 122.042251 34.964844 
L 115.085756 37.124684 
L 107.318147 39.992685 
L 100.046907 43.140195 
L 93.923879 46.161835 
L 88.465279 49.162314 
L 82.933698 52.520064 
L 77.407545 56.219741 
L 72.228215 60.029498 
L 68.127545 63.303065 
L 63.686678 67.130067 
L 58.804928 71.712394 
L 55.153793 75.427211 
L 51.295846 79.654309 
L 47.05104 84.713727 
L 44.109911 88.507351 
L 40.806237 93.094825 
L 37.155049 98.636903 
L 34.421059 103.175548 
L 31.973667 107.579824 
L 29.055025 113.350185 
L 26.818209 118.251041 
L 24.313431 124.387709 
L 21.816525 131.451888 
L 19.96908 137.581265 
L 18.524383 143.205192 
L 17.433048 148.215801 
L 16.452181 153.655197 
L 15.692759 158.98654 
L 15.059996 165.149328 
L 14.724445 170.430071 
L 14.573362 176.342372 
L 14.733122 184.080193 
L 15.044272 188.978785 
L 15.694279 195.348258 
L 16.349775 200.022536 
L 17.306507 205.465706 
L 18.283951 210.082137 
L 19.7358 215.89214 
L 21.41567 221.619088 
L 23.63998 228.138089 
L 26.033596 234.232066 
L 28.962045 240.777721 
L 31.158799 245.193539 
L 34.773466 251.753147 
L 38.333198 257.533837 
L 42.176015 263.174887 
L 46.106218 268.417662 
L 49.841778 272.986382 
L 53.04947 276.630478 
L 55.456883 279.213823 
L 58.299371 282.111189 
L 63.946042 287.424553 
L 67.465896 290.468515 
L 72.472358 294.480539 
L 76.69555 297.599427 
L 80.074319 299.933146 
L 83.516614 302.172103 
L 89.215264 305.590379 
L 96.515946 309.482871 
L 102.268317 312.193257 
L 110.048932 315.394674 
L 115.293453 317.267825 
L 120.722488 318.976697 
L 126.620693 320.577473 
L 132.883745 321.995231 
L 139.091597 323.12197 
L 146.041779 324.062273 
L 155.501168 324.807735 
L 160.98405 324.961209 
L 165.561187 324.933489 
L 170.975672 324.717487 
L 178.087241 324.130556 
L 184.20263 323.347562 
L 191.224121 322.125549 
L 194.530949 321.428127 
L 203.578746 319.109252 
L 205.066798 318.668854 
L 210.378015 316.956564 
L 213.860264 315.711981 
L 218.032677 314.089268 
L 222.154032 312.340937 
L 226.249782 310.454588 
L 232.386657 307.336138 
L 238.507117 303.854051 
L 243.374512 300.798904 
L 249.024525 296.907145 
L 254.923938 292.408568 
L 259.178873 288.85853 
L 262.946455 285.478719 
L 265.610078 282.943216 
L 270.309627 278.143655 
L 274.248139 273.762238 
L 278.651993 268.413832 
L 282.307043 263.55394 
L 285.352916 259.160272 
L 288.705011 253.895551 
L 292.113012 247.981377 
L 294.583739 243.254397 
L 296.78353 238.657697 
L 299.238735 232.980571 
L 301.600606 226.797138 
L 303.433615 221.319683 
L 304.864793 216.457129 
L 306.123559 211.568594 
L 307.286271 206.285864 
L 308.514516 199.314525 
L 309.335794 192.974363 
L 309.736617 188.65409 
L 310.110067 181.839214 
L 310.184112 177.161269 
L 310.184112 177.161269 
" clip-path="url(#p0a9f1e8cd3)" style="fill: none; stroke-dasharray: 3.7,1.6; stroke-dashoffset: 0; stroke: #808080"/>
   </g>
   <g id="line2d_87">
    <path d="M 337.436372 118.099599 
L 335.791898 113.419202 
L 333.202698 106.774087 
L 330.484712 100.509011 
L 327.796112 94.867372 
L 325.038301 89.542402 
L 321.757608 83.70763 
L 318.356768 78.135672 
L 314.58634 72.43272 
L 310.687113 66.980245 
L 306.761834 61.884374 
L 302.740484 57.020391 
L 297.772127 51.44774 
L 293.882354 47.384272 
L 290.638526 44.177419 
L 285.110715 39.059307 
L 280.862179 35.397473 
L 275.368202 30.980924 
L 268.272904 25.761949 
L 262.91054 22.149343 
L 256.204896 18.000948 
L 248.74876 13.834627 
L 241.122403 10.024124 
L 234.804988 7.191146 
L 229.599291 5.065908 
L 221.715744 2.191118 
L 214.71126 -0.030032 
L 211.271683 -1 
M 113.490908 -1 
L 111.442706 -0.437169 
L 103.139176 2.157333 
L 95.198822 5.049154 
L 90.683723 6.880453 
L 84.336493 9.694395 
L 77.51863 13.043861 
L 72.439914 15.771117 
L 64.204829 20.643936 
L 58.474047 24.38817 
L 53.010413 28.250602 
L 47.732669 32.274734 
L 42.678377 36.421565 
L 36.5702 41.853966 
L 30.28754 47.980063 
L 25.330054 53.251874 
L 20.104687 59.288515 
L 16.885953 63.285245 
L 13.346189 67.958674 
L 9.208626 73.842184 
L 4.642632 80.95707 
L 0.834961 87.497766 
L -1 90.893311 
M -1 263.422823 
L 1.226471 267.526537 
L 4.69045 273.443826 
L 8.187115 278.94959 
L 12.712696 285.494018 
L 16.971172 291.146088 
L 21.783626 297.031626 
L 25.898327 301.696309 
L 29.219693 305.241479 
L 35.517748 311.482326 
L 39.421092 315.06437 
L 44.285811 319.252428 
L 49.879183 323.720727 
L 56.197374 328.360899 
L 61.863132 332.185171 
L 64.242654 333.70232 
L 71.452442 337.997161 
L 73.426425 339.080038 
M 251.348341 339.080038 
L 254.911696 337.076904 
L 262.214215 332.622582 
L 266.138928 330.031005 
L 273.448065 324.805847 
L 278.519999 320.850214 
L 284.686595 315.63899 
L 290.026118 310.733068 
L 295.100612 305.692089 
L 300.395724 299.988656 
L 305.344059 294.191869 
L 309.021964 289.548992 
L 313.802311 283.020262 
L 318.303048 276.271432 
L 322.28793 269.704534 
L 325.452991 264.005882 
L 328.298138 258.438232 
L 331.441418 251.679691 
L 334.390177 244.594519 
L 336.415998 239.179054 
L 337.436372 236.225284 
L 337.436372 236.225284 
" clip-path="url(#p0a9f1e8cd3)" style="fill: none; stroke-dasharray: 3.7,1.6; stroke-dashoffset: 0; stroke: #808080"/>
   </g>
   <g id="line2d_88">
    <path d="M 162.377603 177.161269 
L 337.436372 104.649553 
" clip-path="url(#p0a9f1e8cd3)" style="fill: none; stroke: #808080; stroke-linecap: square"/>
   </g>
   <g id="line2d_89">
    <path d="M 162.377603 177.161269 
L 319.15008 20.388792 
" clip-path="url(#p0a9f1e8cd3)" style="fill: none; stroke: #808080; stroke-linecap: square"/>
   </g>
   <g id="line2d_90">
    <path d="M 162.377603 177.161269 
L 236.174417 -1 
" clip-path="url(#p0a9f1e8cd3)" style="fill: none; stroke: #808080; stroke-linecap: square"/>
   </g>
   <g id="line2d_91">
    <path d="M 162.377603 177.161269 
L 162.377603 -1 
" clip-path="url(#p0a9f1e8cd3)" style="fill: none; stroke: #808080; stroke-linecap: square"/>
   </g>
   <g id="line2d_92">
    <path d="M 162.377603 177.161269 
L 88.580789 -1 
" clip-path="url(#p0a9f1e8cd3)" style="fill: none; stroke: #808080; stroke-linecap: square"/>
   </g>
   <g id="line2d_93">
    <path d="M 162.377603 177.161269 
L 5.605126 20.388792 
" clip-path="url(#p0a9f1e8cd3)" style="fill: none; stroke: #808080; stroke-linecap: square"/>
   </g>
   <g id="line2d_94">
    <path d="M 162.377603 177.161269 
L -1 109.48805 
" clip-path="url(#p0a9f1e8cd3)" style="fill: none; stroke: #808080; stroke-linecap: square"/>
   </g>
   <g id="line2d_95">
    <path d="M 162.377603 177.161269 
L -1 177.161269 
" clip-path="url(#p0a9f1e8cd3)" style="fill: none; stroke: #808080; stroke-linecap: square"/>
   </g>
   <g id="line2d_96">
    <path d="M 162.377603 177.161269 
L -1 244.834488 
" clip-path="url(#p0a9f1e8cd3)" style="fill: none; stroke: #808080; stroke-linecap: square"/>
   </g>
   <g id="line2d_97">
    <path d="M 162.377603 177.161269 
L 5.605126 333.933746 
" clip-path="url(#p0a9f1e8cd3)" style="fill: none; stroke: #808080; stroke-linecap: square"/>
   </g>
   <g id="line2d_98">
    <path d="M 162.377603 177.161269 
L 95.308652 339.080038 
" clip-path="url(#p0a9f1e8cd3)" style="fill: none; stroke: #808080; stroke-linecap: square"/>
   </g>
   <g id="line2d_99">
    <path d="M 162.377603 177.161269 
L 162.377603 339.080038 
" clip-path="url(#p0a9f1e8cd3)" style="fill: none; stroke: #808080; stroke-linecap: square"/>
   </g>
   <g id="line2d_100">
    <path d="M 162.377603 177.161269 
L 229.446553 339.080038 
" clip-path="url(#p0a9f1e8cd3)" style="fill: none; stroke: #808080; stroke-linecap: square"/>
   </g>
   <g id="line2d_101">
    <path d="M 162.377603 177.161269 
L 319.15008 333.933746 
" clip-path="url(#p0a9f1e8cd3)" style="fill: none; stroke: #808080; stroke-linecap: square"/>
   </g>
   <g id="line2d_102">
    <path d="M 162.377603 177.161269 
L 337.436372 249.672986 
" clip-path="url(#p0a9f1e8cd3)" style="fill: none; stroke: #808080; stroke-linecap: square"/>
   </g>
   <g id="patch_3">
    <path d="M 162.377603 330.880038 
L 162.377603 23.4425 
" style="fill: none; stroke: #000000; stroke-width: 0.8; stroke-linejoin: miter; stroke-linecap: square"/>
   </g>
   <g id="patch_4">
    <path d="M 8.658833 177.161269 
L 316.096372 177.161269 
" style="fill: none; stroke: #000000; stroke-width: 0.8; stroke-linejoin: miter; stroke-linecap: square"/>
   </g>
  </g>
 </g>
 <defs>
  <clipPath id="p0a9f1e8cd3">
   <rect x="8.658833" y="23.4425" width="307.437538" height="307.437538"/>
  </clipPath>
 </defs>
</svg>
