<?xml version="1.0" encoding="utf-8" standalone="no"?>
<!DOCTYPE svg PUBLIC "-//W3C//DTD SVG 1.1//EN"
  "http://www.w3.org/Graphics/SVG/1.1/DTD/svg11.dtd">
<svg xmlns:xlink="http://www.w3.org/1999/xlink" width="325.687074pt" height="338.096672pt" viewBox="0 0 325.687074 338.096672" xmlns="http://www.w3.org/2000/svg" version="1.1">
 <metadata>
  <rdf:RDF xmlns:dc="http://purl.org/dc/elements/1.1/" xmlns:cc="http://creativecommons.org/ns#" xmlns:rdf="http://www.w3.org/1999/02/22-rdf-syntax-ns#">
   <cc:Work>
    <dc:type rdf:resource="http://purl.org/dc/dcmitype/StillImage"/>
    <dc:date>2025-06-18T14:15:12.865113</dc:date>
    <dc:format>image/svg+xml</dc:format>
    <dc:creator>
     <cc:Agent>
      <dc:title>Matplotlib v3.10.3, https://matplotlib.org/</dc:title>
     </cc:Agent>
    </dc:creator>
   </cc:Work>
  </rdf:RDF>
 </metadata>
 <defs>
  <style type="text/css">*{stroke-linejoin: round; stroke-linecap: butt}</style>
 </defs>
 <g id="figure_1">
  <g id="patch_1">
   <path d="M 0 338.096672 
L 325.687074 338.096672 
L 325.687074 0 
L 0 0 
z
" style="fill: #ffffff"/>
  </g>
  <g id="axes_1">
   <g id="patch_2">
    <path d="M 8.873646 319.920038 
L 305.347074 319.920038 
L 305.347074 23.4425 
L 8.873646 23.4425 
z
" style="fill: #ffffff"/>
   </g>
   <g id="patch_3">
    <path d="M 157.108378 314.218547 
L 166.058368 313.937283 
L 174.973037 313.094598 
L 183.817202 311.69382 
L 192.555959 309.740476 
L 201.154821 307.242276 
L 209.579852 304.209078 
L 217.797802 300.652854 
L 225.776238 296.587637 
L 233.483674 292.029473 
L 240.889692 286.996348 
L 247.965063 281.508128 
L 254.681864 275.586472 
L 261.013587 269.254748 
L 266.935243 262.537947 
L 272.423463 255.462577 
L 277.456588 248.056559 
L 282.014752 240.349123 
L 286.079969 232.370687 
L 289.636193 224.152737 
L 292.669391 215.727706 
L 295.167591 207.128844 
L 297.120935 198.390087 
L 298.521713 189.545922 
L 299.364398 180.631253 
L 299.645662 171.681263 
z
" clip-path="url(#p2ba23da3d7)" style="fill: #add8e6; stroke: #000000; stroke-width: 3; stroke-linejoin: miter"/>
   </g>
   <g id="matplotlib.axis_1">
    <g id="xtick_1">
     <g id="line2d_1">
      <defs>
       <path id="m06584f53a6" d="M 0 0 
L 0 3.5 
" style="stroke: #000000; stroke-width: 0.8"/>
      </defs>
      <g>
       <use xlink:href="#m06584f53a6" x="14.571094" y="314.218547" style="stroke: #000000; stroke-width: 0.8"/>
      </g>
     </g>
     <g id="text_1">
      <!-- −1 -->
      <g transform="translate(7.2 328.816985) scale(0.1 -0.1)">
       <defs>
        <path id="DejaVuSans-2212" d="M 678 2272 
L 4684 2272 
L 4684 1741 
L 678 1741 
L 678 2272 
z
" transform="scale(0.015625)"/>
        <path id="DejaVuSans-31" d="M 794 531 
L 1825 531 
L 1825 4091 
L 703 3866 
L 703 4441 
L 1819 4666 
L 2450 4666 
L 2450 531 
L 3481 531 
L 3481 0 
L 794 0 
L 794 531 
z
" transform="scale(0.015625)"/>
       </defs>
       <use xlink:href="#DejaVuSans-2212"/>
       <use xlink:href="#DejaVuSans-31" transform="translate(83.789062 0)"/>
      </g>
     </g>
    </g>
    <g id="xtick_2">
     <g id="line2d_2">
      <g>
       <use xlink:href="#m06584f53a6" x="299.645662" y="314.218547" style="stroke: #000000; stroke-width: 0.8"/>
      </g>
     </g>
     <g id="text_2">
      <!-- 1 -->
      <g transform="translate(296.464412 328.816985) scale(0.1 -0.1)">
       <use xlink:href="#DejaVuSans-31"/>
      </g>
     </g>
    </g>
    <g id="text_3">
     <!-- $x$ -->
     <g transform="translate(313.347074 314.218547) scale(0.16 -0.16)">
      <defs>
       <path id="Cmmi10-78" d="M 500 184 
Q 613 97 819 97 
Q 1019 97 1172 289 
Q 1325 481 1381 709 
L 1672 1844 
Q 1741 2153 1741 2266 
Q 1741 2425 1652 2544 
Q 1563 2663 1403 2663 
Q 1200 2663 1022 2536 
Q 844 2409 722 2214 
Q 600 2019 550 1819 
Q 538 1778 500 1778 
L 422 1778 
Q 372 1778 372 1838 
L 372 1856 
Q 434 2094 584 2320 
Q 734 2547 951 2687 
Q 1169 2828 1416 2828 
Q 1650 2828 1839 2703 
Q 2028 2578 2106 2363 
Q 2216 2559 2386 2693 
Q 2556 2828 2759 2828 
Q 2897 2828 3040 2779 
Q 3184 2731 3275 2631 
Q 3366 2531 3366 2381 
Q 3366 2219 3261 2101 
Q 3156 1984 2994 1984 
Q 2891 1984 2822 2050 
Q 2753 2116 2753 2216 
Q 2753 2350 2845 2451 
Q 2938 2553 3066 2572 
Q 2950 2663 2747 2663 
Q 2541 2663 2389 2472 
Q 2238 2281 2175 2047 
L 1894 916 
Q 1825 659 1825 494 
Q 1825 331 1917 214 
Q 2009 97 2163 97 
Q 2463 97 2698 361 
Q 2934 625 3009 941 
Q 3022 978 3059 978 
L 3138 978 
Q 3163 978 3178 961 
Q 3194 944 3194 922 
Q 3194 916 3188 903 
Q 3097 522 2806 225 
Q 2516 -72 2150 -72 
Q 1916 -72 1727 54 
Q 1538 181 1459 397 
Q 1359 209 1182 68 
Q 1006 -72 806 -72 
Q 669 -72 523 -23 
Q 378 25 287 125 
Q 197 225 197 378 
Q 197 528 301 651 
Q 406 775 563 775 
Q 669 775 741 711 
Q 813 647 813 544 
Q 813 409 723 309 
Q 634 209 500 184 
z
" transform="scale(0.015625)"/>
      </defs>
      <use xlink:href="#Cmmi10-78" transform="translate(0 0.8125)"/>
     </g>
    </g>
   </g>
   <g id="matplotlib.axis_2">
    <g id="ytick_1">
     <g id="line2d_3">
      <defs>
       <path id="mf46e515a14" d="M 0 0 
L -3.5 0 
" style="stroke: #000000; stroke-width: 0.8"/>
      </defs>
      <g>
       <use xlink:href="#mf46e515a14" x="157.108378" y="314.218547" style="stroke: #000000; stroke-width: 0.8"/>
      </g>
     </g>
    </g>
    <g id="ytick_2">
     <g id="line2d_4">
      <g>
       <use xlink:href="#mf46e515a14" x="157.108378" y="171.681263" style="stroke: #000000; stroke-width: 0.8"/>
      </g>
     </g>
     <g id="text_4">
      <!-- 1 -->
      <g transform="translate(143.745878 175.480482) scale(0.1 -0.1)">
       <use xlink:href="#DejaVuSans-31"/>
      </g>
     </g>
    </g>
    <g id="ytick_3">
     <g id="line2d_5">
      <g>
       <use xlink:href="#mf46e515a14" x="157.108378" y="29.143979" style="stroke: #000000; stroke-width: 0.8"/>
      </g>
     </g>
     <g id="text_5">
      <!-- 2 -->
      <g transform="translate(143.745878 32.943197) scale(0.1 -0.1)">
       <defs>
        <path id="DejaVuSans-32" d="M 1228 531 
L 3431 531 
L 3431 0 
L 469 0 
L 469 531 
Q 828 903 1448 1529 
Q 2069 2156 2228 2338 
Q 2531 2678 2651 2914 
Q 2772 3150 2772 3378 
Q 2772 3750 2511 3984 
Q 2250 4219 1831 4219 
Q 1534 4219 1204 4116 
Q 875 4013 500 3803 
L 500 4441 
Q 881 4594 1212 4672 
Q 1544 4750 1819 4750 
Q 2544 4750 2975 4387 
Q 3406 4025 3406 3419 
Q 3406 3131 3298 2873 
Q 3191 2616 2906 2266 
Q 2828 2175 2409 1742 
Q 1991 1309 1228 531 
z
" transform="scale(0.015625)"/>
       </defs>
       <use xlink:href="#DejaVuSans-32"/>
      </g>
     </g>
    </g>
    <g id="text_6">
     <!-- $y$ -->
     <g transform="translate(153.108378 12.0825) scale(0.16 -0.16)">
      <defs>
       <path id="Cmmi10-79" d="M 538 -916 
Q 672 -1147 1006 -1147 
Q 1309 -1147 1531 -934 
Q 1753 -722 1889 -420 
Q 2025 -119 2100 197 
Q 1816 -72 1484 -72 
Q 1231 -72 1053 15 
Q 875 103 776 276 
Q 678 450 678 697 
Q 678 906 734 1126 
Q 791 1347 892 1617 
Q 994 1888 1069 2088 
Q 1153 2322 1153 2472 
Q 1153 2663 1013 2663 
Q 759 2663 595 2402 
Q 431 2141 353 1819 
Q 341 1778 300 1778 
L 225 1778 
Q 172 1778 172 1838 
L 172 1856 
Q 275 2238 487 2533 
Q 700 2828 1025 2828 
Q 1253 2828 1411 2678 
Q 1569 2528 1569 2297 
Q 1569 2178 1516 2047 
Q 1488 1969 1388 1706 
Q 1288 1444 1234 1272 
Q 1181 1100 1147 934 
Q 1113 769 1113 603 
Q 1113 391 1203 244 
Q 1294 97 1491 97 
Q 1888 97 2203 581 
L 2688 2553 
Q 2709 2638 2787 2698 
Q 2866 2759 2956 2759 
Q 3034 2759 3092 2709 
Q 3150 2659 3150 2578 
Q 3150 2541 3144 2528 
L 2509 -19 
Q 2425 -347 2200 -647 
Q 1975 -947 1658 -1130 
Q 1341 -1313 997 -1313 
Q 831 -1313 668 -1248 
Q 506 -1184 406 -1056 
Q 306 -928 306 -756 
Q 306 -581 409 -453 
Q 513 -325 684 -325 
Q 788 -325 858 -389 
Q 928 -453 928 -556 
Q 928 -703 818 -812 
Q 709 -922 563 -922 
Q 556 -919 550 -917 
Q 544 -916 538 -916 
z
" transform="scale(0.015625)"/>
      </defs>
      <use xlink:href="#Cmmi10-79" transform="translate(0 0.8125)"/>
     </g>
    </g>
   </g>
   <g id="line2d_6">
    <path d="M 299.645662 171.681263 
L 299.460922 164.426563 
L 298.890473 157.028108 
L 298.093798 150.705355 
L 297.499678 147.040641 
L 296.398009 141.427731 
L 294.119448 132.376757 
L 292.769137 127.942998 
L 289.884511 119.841357 
L 287.634766 114.412253 
L 285.544188 109.866053 
L 283.430566 105.654129 
L 280.122366 99.678235 
L 278.338146 96.713131 
L 276.005914 93.066676 
L 273.018609 88.725276 
L 267.714503 81.774853 
L 265.093302 78.642918 
L 259.692884 72.720177 
L 254.162626 67.290888 
L 249.39122 63.049985 
L 243.565406 58.358451 
L 241.177022 56.575483 
L 234.34029 51.880974 
L 226.556081 47.206792 
L 220.455044 43.993842 
L 213.071158 40.589521 
L 209.412017 39.08712 
L 201.845824 36.346721 
L 195.74171 34.47943 
L 191.308026 33.307633 
L 184.858354 31.871334 
L 180.17456 31.02271 
L 174.249025 30.178346 
L 170.131829 29.740194 
L 160.973459 29.196392 
L 157.048913 29.143991 
L 152.51675 29.217954 
L 148.46653 29.406192 
L 139.484038 30.237776 
L 133.033112 31.191908 
L 125.78934 32.627334 
L 117.268418 34.824933 
L 113.140794 36.094652 
L 105.424482 38.844324 
L 99.327296 41.380749 
L 95.487773 43.151973 
L 87.425854 47.338096 
L 82.474965 50.245144 
L 75.479371 54.832718 
L 68.943292 59.682178 
L 64.912514 62.976157 
L 62.017076 65.499713 
L 58.475893 68.780775 
L 52.782106 74.558112 
L 49.447634 78.267979 
L 44.546548 84.235784 
L 41.081176 88.888957 
L 37.951803 93.459859 
L 33.388246 100.898452 
L 30.973933 105.29618 
L 27.974843 111.337187 
L 24.505755 119.399126 
L 23.064581 123.213357 
L 20.784532 130.055714 
L 19.863516 133.201069 
L 18.770161 137.338649 
L 17.721964 141.876819 
L 16.893062 146.058175 
L 15.534169 155.139775 
L 14.783144 163.909187 
L 14.575058 170.618174 
L 14.587349 173.83386 
L 14.775291 179.308177 
L 15.046775 183.316481 
L 15.853055 190.755098 
L 17.094069 198.380899 
L 18.254847 203.877138 
L 19.118151 207.39645 
L 20.914502 213.730111 
L 23.496429 221.327255 
L 24.703646 224.46255 
L 26.383399 228.495498 
L 28.185959 232.475073 
L 31.430198 238.926133 
L 33.494488 242.64945 
L 35.528835 246.080806 
L 38.06423 250.073662 
L 42.490002 256.413224 
L 45.613419 260.483017 
L 48.053256 263.46284 
L 53.918609 270.01106 
L 57.652061 273.785711 
L 61.067699 277.004885 
L 65.792296 281.126457 
L 68.681243 283.473567 
L 74.074416 287.535648 
L 77.783287 290.105954 
L 81.349027 292.418159 
L 87.287499 295.946794 
L 90.446518 297.669651 
L 96.118676 300.511126 
L 101.258441 302.82112 
L 107.645103 305.360962 
L 114.145724 307.589643 
L 119.012713 309.033357 
L 125.128694 310.584745 
L 128.58 311.334437 
L 135.494157 312.570237 
L 140.916648 313.2959 
L 146.523813 313.825009 
L 151.977841 314.126182 
L 156.270011 314.216082 
L 162.239877 314.126148 
L 167.807968 313.816397 
L 172.256084 313.411374 
L 179.003781 312.526812 
L 184.475487 311.56664 
L 188.776506 310.656106 
L 192.692843 309.705258 
L 200.806684 307.354899 
L 203.081402 306.601086 
L 208.96992 304.448947 
L 214.705704 302.063108 
L 221.342452 298.924578 
L 224.590785 297.232058 
L 232.211301 292.827573 
L 238.973151 288.364751 
L 243.184551 285.29363 
L 249.37002 280.330546 
L 256.084713 274.251057 
L 263.105389 266.978225 
L 265.606999 264.120035 
L 268.853968 260.167423 
L 274.721818 252.20428 
L 279.586807 244.591563 
L 282.697213 239.09285 
L 285.645722 233.285066 
L 287.813584 228.540973 
L 290.357546 222.292889 
L 291.771658 218.400408 
L 293.072089 214.468488 
L 294.419792 209.923297 
L 296.145355 203.075475 
L 297.666042 195.354463 
L 298.601274 188.90444 
L 299.010008 185.127634 
L 299.402609 180.001676 
L 299.645662 171.681263 
L 299.645662 171.681263 
" clip-path="url(#p2ba23da3d7)" style="fill: none; stroke: #000000; stroke-width: 2; stroke-linecap: square"/>
   </g>
   <g id="patch_4">
    <path d="M 157.108378 319.920038 
L 157.108378 23.4425 
" style="fill: none; stroke: #000000; stroke-width: 0.8; stroke-linejoin: miter; stroke-linecap: square"/>
   </g>
   <g id="patch_5">
    <path d="M 8.873646 314.218547 
L 305.347074 314.218547 
" style="fill: none; stroke: #000000; stroke-width: 0.8; stroke-linejoin: miter; stroke-linecap: square"/>
   </g>
  </g>
 </g>
 <defs>
  <clipPath id="p2ba23da3d7">
   <rect x="8.873646" y="23.4425" width="296.473428" height="296.477538"/>
  </clipPath>
 </defs>
</svg>
