<?xml version="1.0" encoding="utf-8" standalone="no"?>
<!DOCTYPE svg PUBLIC "-//W3C//DTD SVG 1.1//EN"
  "http://www.w3.org/Graphics/SVG/1.1/DTD/svg11.dtd">
<svg xmlns:xlink="http://www.w3.org/1999/xlink" width="453.6pt" height="236.335792pt" viewBox="0 0 453.6 236.335792" xmlns="http://www.w3.org/2000/svg" version="1.1">
 <metadata>
  <rdf:RDF xmlns:dc="http://purl.org/dc/elements/1.1/" xmlns:cc="http://creativecommons.org/ns#" xmlns:rdf="http://www.w3.org/1999/02/22-rdf-syntax-ns#">
   <cc:Work>
    <dc:type rdf:resource="http://purl.org/dc/dcmitype/StillImage"/>
    <dc:date>2025-08-27T14:11:53.065567</dc:date>
    <dc:format>image/svg+xml</dc:format>
    <dc:creator>
     <cc:Agent>
      <dc:title>Matplotlib v3.10.3, https://matplotlib.org/</dc:title>
     </cc:Agent>
    </dc:creator>
   </cc:Work>
  </rdf:RDF>
 </metadata>
 <defs>
  <style type="text/css">*{stroke-linejoin: round; stroke-linecap: butt}</style>
 </defs>
 <g id="figure_1">
  <g id="patch_1">
   <path d="M 0 236.335792 
L 453.6 236.335792 
L 453.6 0 
L 0 0 
z
" style="fill: #ffffff"/>
  </g>
  <g id="axes_1">
   <g id="patch_2">
    <path d="M 7.2 229.135792 
L 446.4 229.135792 
L 446.4 7.2 
L 7.2 7.2 
z
" style="fill: #ffffff"/>
   </g>
   <g id="PathCollection_1">
    <path d="M 391.289719 39.176192 
C 392.227353 39.176192 393.126711 38.803666 393.789719 38.140658 
C 394.452727 37.47765 394.825253 36.578292 394.825253 35.640658 
C 394.825253 34.703023 394.452727 33.803666 393.789719 33.140658 
C 393.126711 32.47765 392.227353 32.105124 391.289719 32.105124 
C 390.352084 32.105124 389.452727 32.47765 388.789719 33.140658 
C 388.126711 33.803666 387.754185 34.703023 387.754185 35.640658 
C 387.754185 36.578292 388.126711 37.47765 388.789719 38.140658 
C 389.452727 38.803666 390.352084 39.176192 391.289719 39.176192 
z
" clip-path="url(#p53ead4b17c)"/>
   </g>
   <g id="PathCollection_2">
    <path d="M 323.930161 17.906734 
C 324.867795 17.906734 325.767153 17.534208 326.430161 16.8712 
C 327.093169 16.208193 327.465695 15.308835 327.465695 14.3712 
C 327.465695 13.433566 327.093169 12.534208 326.430161 11.8712 
C 325.767153 11.208193 324.867795 10.835666 323.930161 10.835666 
C 322.992526 10.835666 322.093169 11.208193 321.430161 11.8712 
C 320.767153 12.534208 320.394627 13.433566 320.394627 14.3712 
C 320.394627 15.308835 320.767153 16.208193 321.430161 16.8712 
C 322.093169 17.534208 322.992526 17.906734 323.930161 17.906734 
z
" clip-path="url(#p53ead4b17c)"/>
   </g>
   <g id="matplotlib.axis_1"/>
   <g id="matplotlib.axis_2"/>
   <g id="line2d_1">
    <path d="M 437.953846 75.118196 
L 435.696948 72.136815 
L 433.573634 69.49804 
L 430.360962 65.771802 
L 425.819055 60.970043 
L 422.856836 58.089944 
L 417.36843 53.198415 
L 412.296401 49.11964 
L 406.234914 44.717408 
L 401.047903 41.304634 
L 396.43248 38.510854 
L 390.894574 35.430034 
L 385.282039 32.581126 
L 380.311284 30.267384 
L 374.749006 27.892445 
L 369.280712 25.761622 
L 363.016936 23.550854 
L 357.3361 21.743514 
L 351.508267 20.072005 
L 345.602765 18.555635 
L 336.92721 16.63119 
L 328.505569 15.085473 
L 322.15761 14.117357 
L 314.400447 13.151816 
L 306.52278 12.404324 
L 297.252806 11.810619 
L 286.895026 11.495031 
L 278.868731 11.491837 
L 266.839261 11.865133 
L 259.858618 12.282975 
L 249.727775 13.144419 
L 238.008449 14.508657 
L 226.939728 16.151692 
L 216.218017 18.066759 
L 203.588355 20.727968 
L 193.655208 23.129084 
L 182.493254 26.15357 
L 176.237494 28.001608 
L 165.616905 31.395658 
L 155.047631 35.102422 
L 144.68841 39.066706 
L 136.67916 42.36671 
L 128.002353 46.185136 
L 119.824225 50.029119 
L 112.039996 53.923564 
L 105.695804 57.279398 
L 97.54851 61.847921 
L 89.319849 66.786012 
L 82.109893 71.411422 
L 76.103293 75.503876 
L 69.145834 80.552243 
L 65.138856 83.629013 
L 58.833731 88.758886 
L 53.00494 93.867043 
L 48.37546 98.224779 
L 43.182315 103.500844 
L 40.211508 106.74269 
L 37.541607 109.823832 
L 33.733179 114.553013 
L 31.46672 117.597188 
L 27.787739 123.021752 
L 26.06505 125.830102 
L 24.074075 129.366149 
L 21.865135 133.791847 
L 19.939198 138.312397 
L 18.414738 142.642014 
L 17.418587 146.13634 
L 16.760821 149.00644 
L 16.008701 153.678951 
L 15.75328 156.475325 
L 15.647762 160.190286 
L 15.817065 163.882764 
L 16.280547 167.628848 
L 16.872825 170.627407 
L 17.808476 174.074633 
L 18.748007 176.794747 
L 19.82468 179.405651 
L 21.664766 183.115819 
L 23.285065 185.879026 
L 25.362158 188.964057 
L 28.077954 192.456608 
L 31.224942 195.96361 
L 34.803646 199.446267 
L 37.160153 201.514203 
L 41.591336 205.02481 
L 46.235128 208.282742 
L 48.749199 209.900193 
L 53.872608 212.932365 
L 58.204716 215.260571 
L 63.784624 217.993326 
L 70.059525 220.764147 
L 75.941106 223.114859 
L 80.706993 224.867796 
L 80.706993 224.867796 
" clip-path="url(#p53ead4b17c)" style="fill: none; stroke: #000000; stroke-width: 2; stroke-linecap: square"/>
   </g>
   <g id="patch_3">
    <path d="M 181.156117 26.539277 
Q 180.129138 26.840433 181.247872 26.51237 
" clip-path="url(#p53ead4b17c)" style="fill: none; stroke: #000000; stroke-width: 2; stroke-linecap: round"/>
    <path d="M 192.250766 28.496384 
L 181.247872 26.51237 
L 189.436819 18.900462 
z
" clip-path="url(#p53ead4b17c)" style="stroke: #000000; stroke-width: 2; stroke-linecap: round"/>
   </g>
   <g id="text_1">
    <!-- $P_0$ -->
    <g transform="translate(388.03497 61.193661) scale(0.24 -0.24)">
     <defs>
      <path id="Cmmi10-50" d="M 313 0 
Q 250 0 250 84 
Q 253 100 262 139 
Q 272 178 289 201 
Q 306 225 331 225 
Q 722 225 878 269 
Q 959 297 997 441 
L 1875 3956 
Q 1888 4019 1888 4044 
Q 1888 4113 1813 4122 
Q 1691 4147 1350 4147 
Q 1288 4147 1288 4231 
Q 1291 4247 1300 4286 
Q 1309 4325 1326 4348 
Q 1344 4372 1369 4372 
L 3578 4372 
Q 3881 4372 4165 4264 
Q 4450 4156 4631 3934 
Q 4813 3713 4813 3397 
Q 4813 2991 4527 2672 
Q 4241 2353 3814 2175 
Q 3388 1997 2988 1997 
L 1947 1997 
L 1556 416 
Q 1544 353 1544 325 
Q 1544 300 1551 283 
Q 1559 266 1573 261 
Q 1588 256 1619 250 
Q 1741 225 2081 225 
Q 2144 225 2144 141 
Q 2122 50 2109 25 
Q 2097 0 2034 0 
L 313 0 
z
M 1978 2188 
L 2875 2188 
Q 3497 2188 3822 2522 
Q 3988 2688 4092 3000 
Q 4197 3313 4197 3566 
Q 4197 3881 3956 4014 
Q 3716 4147 3359 4147 
L 2747 4147 
Q 2572 4147 2515 4117 
Q 2459 4088 2413 3928 
L 1978 2188 
z
" transform="scale(0.015625)"/>
      <path id="Cmr10-30" d="M 1600 -141 
Q 816 -141 533 504 
Q 250 1150 250 2041 
Q 250 2597 351 3087 
Q 453 3578 754 3920 
Q 1056 4263 1600 4263 
Q 2022 4263 2290 4056 
Q 2559 3850 2700 3523 
Q 2841 3197 2892 2823 
Q 2944 2450 2944 2041 
Q 2944 1491 2842 1011 
Q 2741 531 2444 195 
Q 2147 -141 1600 -141 
z
M 1600 25 
Q 1956 25 2131 390 
Q 2306 756 2347 1200 
Q 2388 1644 2388 2144 
Q 2388 2625 2347 3031 
Q 2306 3438 2132 3767 
Q 1959 4097 1600 4097 
Q 1238 4097 1063 3765 
Q 888 3434 847 3029 
Q 806 2625 806 2144 
Q 806 1788 823 1472 
Q 841 1156 916 820 
Q 991 484 1158 254 
Q 1325 25 1600 25 
z
" transform="scale(0.015625)"/>
     </defs>
     <use xlink:href="#Cmmi10-50" transform="translate(0 0.6875)"/>
     <use xlink:href="#Cmr10-30" transform="translate(64.208984 -16.31875) scale(0.7)"/>
    </g>
   </g>
   <g id="text_2">
    <!-- $P_1$ -->
    <g transform="translate(301.744909 39.924203) scale(0.24 -0.24)">
     <defs>
      <path id="Cmr10-31" d="M 594 0 
L 594 225 
Q 1394 225 1394 428 
L 1394 3788 
Q 1063 3628 556 3628 
L 556 3853 
Q 1341 3853 1741 4263 
L 1831 4263 
Q 1853 4263 1873 4245 
Q 1894 4228 1894 4206 
L 1894 428 
Q 1894 225 2694 225 
L 2694 0 
L 594 0 
z
" transform="scale(0.015625)"/>
     </defs>
     <use xlink:href="#Cmmi10-50" transform="translate(0 0.6875)"/>
     <use xlink:href="#Cmr10-31" transform="translate(64.208984 -16.31875) scale(0.7)"/>
    </g>
   </g>
  </g>
 </g>
 <defs>
  <clipPath id="p53ead4b17c">
   <rect x="7.2" y="7.2" width="439.2" height="221.935792"/>
  </clipPath>
 </defs>
</svg>
