<?xml version="1.0" encoding="utf-8" standalone="no"?>
<!DOCTYPE svg PUBLIC "-//W3C//DTD SVG 1.1//EN"
  "http://www.w3.org/Graphics/SVG/1.1/DTD/svg11.dtd">
<svg xmlns:xlink="http://www.w3.org/1999/xlink" width="324.635088pt" height="337.037858pt" viewBox="0 0 324.635088 337.037858" xmlns="http://www.w3.org/2000/svg" version="1.1">
 <metadata>
  <rdf:RDF xmlns:dc="http://purl.org/dc/elements/1.1/" xmlns:cc="http://creativecommons.org/ns#" xmlns:rdf="http://www.w3.org/1999/02/22-rdf-syntax-ns#">
   <cc:Work>
    <dc:type rdf:resource="http://purl.org/dc/dcmitype/StillImage"/>
    <dc:date>2025-06-11T09:44:29.638733</dc:date>
    <dc:format>image/svg+xml</dc:format>
    <dc:creator>
     <cc:Agent>
      <dc:title>Matplotlib v3.8.0, https://matplotlib.org/</dc:title>
     </cc:Agent>
    </dc:creator>
   </cc:Work>
  </rdf:RDF>
 </metadata>
 <defs>
  <style type="text/css">*{stroke-linejoin: round; stroke-linecap: butt}</style>
 </defs>
 <g id="figure_1">
  <g id="patch_1">
   <path d="M 0 337.037858 
L 324.635088 337.037858 
L 324.635088 0 
L 0 0 
z
" style="fill: #ffffff"/>
  </g>
  <g id="axes_1">
   <g id="patch_2">
    <path d="M 8.892697 318.836817 
L 304.295088 318.836817 
L 304.295088 23.4425 
L 8.892697 23.4425 
z
" style="fill: #ffffff"/>
   </g>
   <g id="matplotlib.axis_1">
    <g id="xtick_1">
     <g id="line2d_1">
      <defs>
       <path id="m4dce7c5ba6" d="M 0 0 
L 0 3.5 
" style="stroke: #000000; stroke-width: 0.8"/>
      </defs>
      <g>
       <use xlink:href="#m4dce7c5ba6" x="14.571094" y="313.159733" style="stroke: #000000; stroke-width: 0.8"/>
      </g>
     </g>
     <g id="text_1">
      <!-- −1 -->
      <g transform="translate(7.2 327.75817) scale(0.1 -0.1)">
       <defs>
        <path id="DejaVuSans-2212" d="M 678 2272 
L 4684 2272 
L 4684 1741 
L 678 1741 
L 678 2272 
z
" transform="scale(0.015625)"/>
        <path id="DejaVuSans-31" d="M 794 531 
L 1825 531 
L 1825 4091 
L 703 3866 
L 703 4441 
L 1819 4666 
L 2450 4666 
L 2450 531 
L 3481 531 
L 3481 0 
L 794 0 
L 794 531 
z
" transform="scale(0.015625)"/>
       </defs>
       <use xlink:href="#DejaVuSans-2212"/>
       <use xlink:href="#DejaVuSans-31" x="83.789062"/>
      </g>
     </g>
    </g>
    <g id="xtick_2">
     <g id="line2d_2">
      <g>
       <use xlink:href="#m4dce7c5ba6" x="298.614272" y="313.159733" style="stroke: #000000; stroke-width: 0.8"/>
      </g>
     </g>
     <g id="text_2">
      <!-- 1 -->
      <g transform="translate(295.433022 327.75817) scale(0.1 -0.1)">
       <use xlink:href="#DejaVuSans-31"/>
      </g>
     </g>
    </g>
    <g id="text_3">
     <!-- $x$ -->
     <g transform="translate(312.295088 313.159733) scale(0.16 -0.16)">
      <defs>
       <path id="Cmmi10-78" d="M 500 184 
Q 613 97 819 97 
Q 1019 97 1172 289 
Q 1325 481 1381 709 
L 1672 1844 
Q 1741 2153 1741 2266 
Q 1741 2425 1652 2544 
Q 1563 2663 1403 2663 
Q 1200 2663 1022 2536 
Q 844 2409 722 2214 
Q 600 2019 550 1819 
Q 538 1778 500 1778 
L 422 1778 
Q 372 1778 372 1838 
L 372 1856 
Q 434 2094 584 2320 
Q 734 2547 951 2687 
Q 1169 2828 1416 2828 
Q 1650 2828 1839 2703 
Q 2028 2578 2106 2363 
Q 2216 2559 2386 2693 
Q 2556 2828 2759 2828 
Q 2897 2828 3040 2779 
Q 3184 2731 3275 2631 
Q 3366 2531 3366 2381 
Q 3366 2219 3261 2101 
Q 3156 1984 2994 1984 
Q 2891 1984 2822 2050 
Q 2753 2116 2753 2216 
Q 2753 2350 2845 2451 
Q 2938 2553 3066 2572 
Q 2950 2663 2747 2663 
Q 2541 2663 2389 2472 
Q 2238 2281 2175 2047 
L 1894 916 
Q 1825 659 1825 494 
Q 1825 331 1917 214 
Q 2009 97 2163 97 
Q 2463 97 2698 361 
Q 2934 625 3009 941 
Q 3022 978 3059 978 
L 3138 978 
Q 3163 978 3178 961 
Q 3194 944 3194 922 
Q 3194 916 3188 903 
Q 3097 522 2806 225 
Q 2516 -72 2150 -72 
Q 1916 -72 1727 54 
Q 1538 181 1459 397 
Q 1359 209 1182 68 
Q 1006 -72 806 -72 
Q 669 -72 523 -23 
Q 378 25 287 125 
Q 197 225 197 378 
Q 197 528 301 651 
Q 406 775 563 775 
Q 669 775 741 711 
Q 813 647 813 544 
Q 813 409 723 309 
Q 634 209 500 184 
z
" transform="scale(0.015625)"/>
      </defs>
      <use xlink:href="#Cmmi10-78" transform="translate(0 0.8125)"/>
     </g>
    </g>
   </g>
   <g id="matplotlib.axis_2">
    <g id="ytick_1">
     <g id="line2d_3">
      <defs>
       <path id="mef011bb224" d="M 0 0 
L -3.5 0 
" style="stroke: #000000; stroke-width: 0.8"/>
      </defs>
      <g>
       <use xlink:href="#mef011bb224" x="156.592683" y="313.159733" style="stroke: #000000; stroke-width: 0.8"/>
      </g>
     </g>
    </g>
    <g id="ytick_2">
     <g id="line2d_4">
      <g>
       <use xlink:href="#mef011bb224" x="156.592683" y="171.138144" style="stroke: #000000; stroke-width: 0.8"/>
      </g>
     </g>
     <g id="text_4">
      <!-- 1 -->
      <g transform="translate(143.230183 174.937362) scale(0.1 -0.1)">
       <use xlink:href="#DejaVuSans-31"/>
      </g>
     </g>
    </g>
    <g id="ytick_3">
     <g id="line2d_5">
      <g>
       <use xlink:href="#mef011bb224" x="156.592683" y="29.116554" style="stroke: #000000; stroke-width: 0.8"/>
      </g>
     </g>
     <g id="text_5">
      <!-- 2 -->
      <g transform="translate(143.230183 32.915773) scale(0.1 -0.1)">
       <defs>
        <path id="DejaVuSans-32" d="M 1228 531 
L 3431 531 
L 3431 0 
L 469 0 
L 469 531 
Q 828 903 1448 1529 
Q 2069 2156 2228 2338 
Q 2531 2678 2651 2914 
Q 2772 3150 2772 3378 
Q 2772 3750 2511 3984 
Q 2250 4219 1831 4219 
Q 1534 4219 1204 4116 
Q 875 4013 500 3803 
L 500 4441 
Q 881 4594 1212 4672 
Q 1544 4750 1819 4750 
Q 2544 4750 2975 4387 
Q 3406 4025 3406 3419 
Q 3406 3131 3298 2873 
Q 3191 2616 2906 2266 
Q 2828 2175 2409 1742 
Q 1991 1309 1228 531 
z
" transform="scale(0.015625)"/>
       </defs>
       <use xlink:href="#DejaVuSans-32"/>
      </g>
     </g>
    </g>
    <g id="text_6">
     <!-- $y$ -->
     <g transform="translate(152.592683 12.0825) scale(0.16 -0.16)">
      <defs>
       <path id="Cmmi10-79" d="M 538 -916 
Q 672 -1147 1006 -1147 
Q 1309 -1147 1531 -934 
Q 1753 -722 1889 -420 
Q 2025 -119 2100 197 
Q 1816 -72 1484 -72 
Q 1231 -72 1053 15 
Q 875 103 776 276 
Q 678 450 678 697 
Q 678 906 734 1126 
Q 791 1347 892 1617 
Q 994 1888 1069 2088 
Q 1153 2322 1153 2472 
Q 1153 2663 1013 2663 
Q 759 2663 595 2402 
Q 431 2141 353 1819 
Q 341 1778 300 1778 
L 225 1778 
Q 172 1778 172 1838 
L 172 1856 
Q 275 2238 487 2533 
Q 700 2828 1025 2828 
Q 1253 2828 1411 2678 
Q 1569 2528 1569 2297 
Q 1569 2178 1516 2047 
Q 1488 1969 1388 1706 
Q 1288 1444 1234 1272 
Q 1181 1100 1147 934 
Q 1113 769 1113 603 
Q 1113 391 1203 244 
Q 1294 97 1491 97 
Q 1888 97 2203 581 
L 2688 2553 
Q 2709 2638 2787 2698 
Q 2866 2759 2956 2759 
Q 3034 2759 3092 2709 
Q 3150 2659 3150 2578 
Q 3150 2541 3144 2528 
L 2509 -19 
Q 2425 -347 2200 -647 
Q 1975 -947 1658 -1130 
Q 1341 -1313 997 -1313 
Q 831 -1313 668 -1248 
Q 506 -1184 406 -1056 
Q 306 -928 306 -756 
Q 306 -581 409 -453 
Q 513 -325 684 -325 
Q 788 -325 858 -389 
Q 928 -453 928 -556 
Q 928 -703 818 -812 
Q 709 -922 563 -922 
Q 556 -919 550 -917 
Q 544 -916 538 -916 
z
" transform="scale(0.015625)"/>
      </defs>
      <use xlink:href="#Cmmi10-79" transform="translate(0 0.8125)"/>
     </g>
    </g>
   </g>
   <g id="line2d_6">
    <path d="M 298.614272 171.138144 
L 298.436924 164.04286 
L 298.124295 159.351084 
L 297.566697 153.920151 
L 296.792159 148.46131 
L 295.898772 143.498581 
L 294.403316 136.810875 
L 292.29397 129.241932 
L 291.688123 127.327713 
L 289.654531 121.492635 
L 286.818713 114.469697 
L 283.642194 107.667256 
L 279.635718 100.21182 
L 277.434495 96.52321 
L 275.047784 92.78943 
L 270.868872 86.810897 
L 265.799978 80.342226 
L 262.32516 76.318445 
L 257.838265 71.541637 
L 253.432337 67.252566 
L 248.27683 62.675481 
L 243.905902 59.126833 
L 240.488438 56.544801 
L 233.88734 51.992569 
L 229.5043 49.261042 
L 223.774757 46.011405 
L 218.147038 43.149108 
L 208.580553 38.973877 
L 203.498111 37.085868 
L 198.550721 35.45596 
L 193.988085 34.128232 
L 190.333738 33.182814 
L 185.624381 32.115511 
L 177.225954 30.623376 
L 172.076914 29.96318 
L 168.196099 29.591358 
L 160.478852 29.169733 
L 151.730465 29.19981 
L 143.38318 29.7322 
L 139.065575 30.202228 
L 129.949115 31.638136 
L 119.983254 33.916128 
L 115.448677 35.206901 
L 108.047128 37.671065 
L 102.644993 39.761667 
L 98.889793 41.36716 
L 94.341933 43.486367 
L 88.603192 46.448284 
L 83.328486 49.472663 
L 77.010514 53.508172 
L 71.338909 57.551499 
L 68.421116 59.801237 
L 63.37909 63.987045 
L 58.23402 68.689594 
L 56.486032 70.396939 
L 52.211168 74.833257 
L 49.565298 77.78253 
L 46.618357 81.272803 
L 43.283944 85.515358 
L 40.296 89.619966 
L 35.396351 97.100444 
L 33.232823 100.764309 
L 30.984212 104.86112 
L 28.800611 109.175912 
L 27.162841 112.67407 
L 24.367154 119.306287 
L 22.899536 123.218687 
L 20.689654 129.901042 
L 19.612807 133.632872 
L 17.822628 140.922191 
L 16.755631 146.324222 
L 15.561971 154.390904 
L 15.075962 159.173633 
L 14.719014 164.657877 
L 14.573512 171.966988 
L 14.642588 175.64395 
L 15.24359 184.942703 
L 15.980328 191.095536 
L 17.567751 200.15883 
L 18.618904 204.803675 
L 19.816291 209.378835 
L 22.035502 216.574878 
L 23.258513 220.04756 
L 25.55131 225.89479 
L 27.010479 229.263734 
L 29.472884 234.468141 
L 32.318499 239.884481 
L 34.354323 243.442466 
L 37.721119 248.853542 
L 39.487263 251.490196 
L 41.967909 254.990949 
L 44.766345 258.688141 
L 47.607233 262.200229 
L 53.649249 268.978734 
L 56.62918 272.021392 
L 61.329949 276.47163 
L 65.114365 279.774459 
L 68.064293 282.191536 
L 71.285609 284.684764 
L 78.905457 290.028121 
L 86.76406 294.807441 
L 91.109558 297.162316 
L 97.78708 300.413172 
L 105.456106 303.634115 
L 110.516329 305.477644 
L 116.641631 307.424773 
L 123.282222 309.198076 
L 127.789992 310.208402 
L 137.269184 311.839011 
L 145.54081 312.729061 
L 150.232799 313.01726 
L 157.600434 313.156158 
L 164.786654 312.923159 
L 167.899539 312.708928 
L 174.924841 311.971605 
L 179.194608 311.349715 
L 185.719616 310.140854 
L 193.431008 308.298888 
L 198.471314 306.844857 
L 203.177112 305.302307 
L 212.39137 301.739209 
L 215.215505 300.496161 
L 221.237124 297.594571 
L 224.542523 295.849615 
L 229.047744 293.287216 
L 235.557945 289.183132 
L 239.722117 286.288606 
L 243.163308 283.724371 
L 248.912602 279.060173 
L 255.002636 273.537425 
L 259.500222 269.016488 
L 261.536377 266.830113 
L 265.454021 262.348565 
L 267.662166 259.646346 
L 273.735063 251.436304 
L 277.347318 245.89408 
L 280.804823 239.996521 
L 283.964551 233.959631 
L 287.189874 226.9459 
L 289.340754 221.616669 
L 291.929926 214.195809 
L 293.552117 208.717998 
L 295.059939 202.712672 
L 296.203703 197.193756 
L 297.45326 189.260774 
L 298.17049 182.35672 
L 298.533202 175.936152 
L 298.614272 171.138144 
L 298.614272 171.138144 
" clip-path="url(#p368f76a81c)" style="fill: none; stroke: #000000; stroke-width: 3; stroke-linecap: square"/>
   </g>
   <g id="patch_3">
    <path d="M 156.592683 318.836817 
L 156.592683 23.4425 
" style="fill: none; stroke: #000000; stroke-width: 0.8; stroke-linejoin: miter; stroke-linecap: square"/>
   </g>
   <g id="patch_4">
    <path d="M 8.892697 313.159733 
L 304.295088 313.159733 
" style="fill: none; stroke: #000000; stroke-width: 0.8; stroke-linejoin: miter; stroke-linecap: square"/>
   </g>
  </g>
 </g>
 <defs>
  <clipPath id="p368f76a81c">
   <rect x="8.892697" y="23.4425" width="295.402391" height="295.394317"/>
  </clipPath>
 </defs>
</svg>
