<?xml version="1.0" encoding="utf-8" standalone="no"?>
<!DOCTYPE svg PUBLIC "-//W3C//DTD SVG 1.1//EN"
  "http://www.w3.org/Graphics/SVG/1.1/DTD/svg11.dtd">
<svg xmlns:xlink="http://www.w3.org/1999/xlink" width="338.4pt" height="338.4pt" viewBox="0 0 338.4 338.4" xmlns="http://www.w3.org/2000/svg" version="1.1">
 <metadata>
  <rdf:RDF xmlns:dc="http://purl.org/dc/elements/1.1/" xmlns:cc="http://creativecommons.org/ns#" xmlns:rdf="http://www.w3.org/1999/02/22-rdf-syntax-ns#">
   <cc:Work>
    <dc:type rdf:resource="http://purl.org/dc/dcmitype/StillImage"/>
    <dc:date>2025-07-25T20:20:52.647892</dc:date>
    <dc:format>image/svg+xml</dc:format>
    <dc:creator>
     <cc:Agent>
      <dc:title>Matplotlib v3.10.3, https://matplotlib.org/</dc:title>
     </cc:Agent>
    </dc:creator>
   </cc:Work>
  </rdf:RDF>
 </metadata>
 <defs>
  <style type="text/css">*{stroke-linejoin: round; stroke-linecap: butt}</style>
 </defs>
 <g id="figure_1">
  <g id="patch_1">
   <path d="M -0 338.4 
L 338.4 338.4 
L 338.4 0 
L -0 0 
z
" style="fill: #ffffff"/>
  </g>
  <g id="axes_1">
   <g id="patch_2">
    <path d="M 7.2 331.2 
L 331.2 331.2 
L 331.2 7.2 
L 7.2 7.2 
z
" style="fill: #ffffff"/>
   </g>
   <g id="patch_3">
    <path d="M 293.815385 169.2 
L 293.753894 173.114264 
L 293.569485 177.024665 
L 293.262337 180.927344 
L 292.832755 184.818449 
L 292.281162 188.694141 
L 291.608104 192.550595 
L 290.814243 196.384004 
L 289.900363 200.190586 
L 288.867367 203.966584 
L 287.716274 207.708272 
L 286.448219 211.411956 
L 285.064454 215.073983 
L 283.566346 218.690737 
L 281.955371 222.25865 
L 280.233121 225.774201 
L 278.401294 229.233919 
L 276.461699 232.634392 
L 274.416249 235.972262 
L 272.266964 239.244236 
L 270.015964 242.447085 
L 267.665471 245.577648 
L 265.217804 248.632836 
L 262.675379 251.609632 
L 260.040706 254.505101 
L 257.316384 257.316384 
L 254.505101 260.040706 
L 251.609632 262.675379 
L 248.632836 265.217804 
L 245.577648 267.665471 
L 242.447085 270.015964 
L 239.244236 272.266964 
L 235.972262 274.416249 
L 232.634392 276.461699 
L 229.233919 278.401294 
L 225.774201 280.233121 
L 222.25865 281.955371 
L 218.690737 283.566346 
L 215.073983 285.064454 
L 211.411956 286.448219 
L 207.708272 287.716274 
L 203.966584 288.867367 
L 200.190586 289.900363 
L 196.384004 290.814243 
L 192.550595 291.608104 
L 188.694141 292.281162 
L 184.818449 292.832755 
L 180.927344 293.262337 
L 177.024665 293.569485 
L 173.114264 293.753894 
L 169.2 293.815385 
L 165.285736 293.753894 
L 161.375335 293.569485 
L 157.472656 293.262337 
L 153.581551 292.832755 
L 149.705859 292.281162 
L 145.849405 291.608104 
L 142.015996 290.814243 
L 138.209414 289.900363 
L 134.433416 288.867367 
L 130.691728 287.716274 
L 126.988044 286.448219 
L 123.326017 285.064454 
L 119.709263 283.566346 
L 116.14135 281.955371 
L 112.625799 280.233121 
L 109.166081 278.401294 
L 105.765608 276.461699 
L 102.427738 274.416249 
L 99.155764 272.266964 
L 95.952915 270.015964 
L 92.822352 267.665471 
L 89.767164 265.217804 
L 86.790368 262.675379 
L 83.894899 260.040706 
L 81.083616 257.316384 
L 78.359294 254.505101 
L 75.724621 251.609632 
L 73.182196 248.632836 
L 70.734529 245.577648 
L 68.384036 242.447085 
L 66.133036 239.244236 
L 63.983751 235.972262 
L 61.938301 232.634392 
L 59.998706 229.233919 
L 58.166879 225.774201 
L 56.444629 222.25865 
L 54.833654 218.690737 
L 53.335546 215.073983 
L 51.951781 211.411956 
L 50.683726 207.708272 
L 49.532633 203.966584 
L 48.499637 200.190586 
L 47.585757 196.384004 
L 46.791896 192.550595 
L 46.118838 188.694141 
L 45.567245 184.818449 
L 45.137663 180.927344 
L 44.830515 177.024665 
L 44.646106 173.114264 
L 44.584615 169.2 
L 44.646106 165.285736 
L 44.830515 161.375335 
L 45.137663 157.472656 
L 45.567245 153.581551 
L 46.118838 149.705859 
L 46.791896 145.849405 
L 47.585757 142.015996 
L 48.499637 138.209414 
L 49.532633 134.433416 
L 50.683726 130.691728 
L 51.951781 126.988044 
L 53.335546 123.326017 
L 54.833654 119.709263 
L 56.444629 116.14135 
L 58.166879 112.625799 
L 59.998706 109.166081 
L 61.938301 105.765608 
L 63.983751 102.427738 
L 66.133036 99.155764 
L 68.384036 95.952915 
L 70.734529 92.822352 
L 73.182196 89.767164 
L 75.724621 86.790368 
L 78.359294 83.894899 
L 81.083616 81.083616 
L 83.894899 78.359294 
L 86.790368 75.724621 
L 89.767164 73.182196 
L 92.822352 70.734529 
L 95.952915 68.384036 
L 99.155764 66.133036 
L 102.427738 63.983751 
L 105.765608 61.938301 
L 109.166081 59.998706 
L 112.625799 58.166879 
L 116.14135 56.444629 
L 119.709263 54.833654 
L 123.326017 53.335546 
L 126.988044 51.951781 
L 130.691728 50.683726 
L 134.433416 49.532633 
L 138.209414 48.499637 
L 142.015996 47.585757 
L 145.849405 46.791896 
L 149.705859 46.118838 
L 153.581551 45.567245 
L 157.472656 45.137663 
L 161.375335 44.830515 
L 165.285736 44.646106 
L 169.2 44.584615 
L 173.114264 44.646106 
L 177.024665 44.830515 
L 180.927344 45.137663 
L 184.818449 45.567245 
L 188.694141 46.118838 
L 192.550595 46.791896 
L 196.384004 47.585757 
L 200.190586 48.499637 
L 203.966584 49.532633 
L 207.708272 50.683726 
L 211.411956 51.951781 
L 215.073983 53.335546 
L 218.690737 54.833654 
L 222.25865 56.444629 
L 225.774201 58.166879 
L 229.233919 59.998706 
L 232.634392 61.938301 
L 235.972262 63.983751 
L 239.244236 66.133036 
L 242.447085 68.384036 
L 245.577648 70.734529 
L 248.632836 73.182196 
L 251.609632 75.724621 
L 254.505101 78.359294 
L 257.316384 81.083616 
L 260.040706 83.894899 
L 262.675379 86.790368 
L 265.217804 89.767164 
L 267.665471 92.822352 
L 270.015964 95.952915 
L 272.266964 99.155764 
L 274.416249 102.427738 
L 276.461699 105.765608 
L 278.401294 109.166081 
L 280.233121 112.625799 
L 281.955371 116.14135 
L 283.566346 119.709263 
L 285.064454 123.326017 
L 286.448219 126.988044 
L 287.716274 130.691728 
L 288.867367 134.433416 
L 289.900363 138.209414 
L 290.814243 142.015996 
L 291.608104 145.849405 
L 292.281162 149.705859 
L 292.832755 153.581551 
L 293.262337 157.472656 
L 293.569485 161.375335 
L 293.753894 165.285736 
L 293.815385 169.2 
L 324.969231 169.2 
L 324.892368 164.30717 
L 324.661856 159.419169 
L 324.277921 154.54082 
L 323.740944 149.676939 
L 323.051453 144.832324 
L 322.210129 140.011757 
L 321.217803 135.219995 
L 320.075454 130.461768 
L 318.784209 125.74177 
L 317.345342 121.06466 
L 315.760274 116.435055 
L 314.030568 111.857522 
L 312.157932 107.336579 
L 310.144214 102.876687 
L 307.991401 98.482249 
L 305.701617 94.157601 
L 303.277123 89.90701 
L 300.720311 85.734672 
L 298.033705 81.644705 
L 295.219955 77.641143 
L 292.281838 73.72794 
L 289.222255 69.908955 
L 286.044224 66.187959 
L 282.750882 62.568624 
L 279.345479 59.054521 
L 275.831376 55.649118 
L 272.212041 52.355776 
L 268.491045 49.177745 
L 264.67206 46.118162 
L 260.758857 43.180045 
L 256.755295 40.366295 
L 252.665328 37.679689 
L 248.49299 35.122877 
L 244.242399 32.698383 
L 239.917751 30.408599 
L 235.523313 28.255786 
L 231.063421 26.242068 
L 226.542478 24.369432 
L 221.964945 22.639726 
L 217.33534 21.054658 
L 212.65823 19.615791 
L 207.938232 18.324546 
L 203.180005 17.182197 
L 198.388243 16.189871 
L 193.567676 15.348547 
L 188.723061 14.659056 
L 183.85918 14.122079 
L 178.980831 13.738144 
L 174.09283 13.507632 
L 169.2 13.430769 
L 164.30717 13.507632 
L 159.419169 13.738144 
L 154.54082 14.122079 
L 149.676939 14.659056 
L 144.832324 15.348547 
L 140.011757 16.189871 
L 135.219995 17.182197 
L 130.461768 18.324546 
L 125.74177 19.615791 
L 121.06466 21.054658 
L 116.435055 22.639726 
L 111.857522 24.369432 
L 107.336579 26.242068 
L 102.876687 28.255786 
L 98.482249 30.408599 
L 94.157601 32.698383 
L 89.90701 35.122877 
L 85.734672 37.679689 
L 81.644705 40.366295 
L 77.641143 43.180045 
L 73.72794 46.118162 
L 69.908955 49.177745 
L 66.187959 52.355776 
L 62.568624 55.649118 
L 59.054521 59.054521 
L 55.649118 62.568624 
L 52.355776 66.187959 
L 49.177745 69.908955 
L 46.118162 73.72794 
L 43.180045 77.641143 
L 40.366295 81.644705 
L 37.679689 85.734672 
L 35.122877 89.90701 
L 32.698383 94.157601 
L 30.408599 98.482249 
L 28.255786 102.876687 
L 26.242068 107.336579 
L 24.369432 111.857522 
L 22.639726 116.435055 
L 21.054658 121.06466 
L 19.615791 125.74177 
L 18.324546 130.461768 
L 17.182197 135.219995 
L 16.189871 140.011757 
L 15.348547 144.832324 
L 14.659056 149.676939 
L 14.122079 154.54082 
L 13.738144 159.419169 
L 13.507632 164.30717 
L 13.430769 169.2 
L 13.507632 174.09283 
L 13.738144 178.980831 
L 14.122079 183.85918 
L 14.659056 188.723061 
L 15.348547 193.567676 
L 16.189871 198.388243 
L 17.182197 203.180005 
L 18.324546 207.938232 
L 19.615791 212.65823 
L 21.054658 217.33534 
L 22.639726 221.964945 
L 24.369432 226.542478 
L 26.242068 231.063421 
L 28.255786 235.523313 
L 30.408599 239.917751 
L 32.698383 244.242399 
L 35.122877 248.49299 
L 37.679689 252.665328 
L 40.366295 256.755295 
L 43.180045 260.758857 
L 46.118162 264.67206 
L 49.177745 268.491045 
L 52.355776 272.212041 
L 55.649118 275.831376 
L 59.054521 279.345479 
L 62.568624 282.750882 
L 66.187959 286.044224 
L 69.908955 289.222255 
L 73.72794 292.281838 
L 77.641143 295.219955 
L 81.644705 298.033705 
L 85.734672 300.720311 
L 89.90701 303.277123 
L 94.157601 305.701617 
L 98.482249 307.991401 
L 102.876687 310.144214 
L 107.336579 312.157932 
L 111.857522 314.030568 
L 116.435055 315.760274 
L 121.06466 317.345342 
L 125.74177 318.784209 
L 130.461768 320.075454 
L 135.219995 321.217803 
L 140.011757 322.210129 
L 144.832324 323.051453 
L 149.676939 323.740944 
L 154.54082 324.277921 
L 159.419169 324.661856 
L 164.30717 324.892368 
L 169.2 324.969231 
L 174.09283 324.892368 
L 178.980831 324.661856 
L 183.85918 324.277921 
L 188.723061 323.740944 
L 193.567676 323.051453 
L 198.388243 322.210129 
L 203.180005 321.217803 
L 207.938232 320.075454 
L 212.65823 318.784209 
L 217.33534 317.345342 
L 221.964945 315.760274 
L 226.542478 314.030568 
L 231.063421 312.157932 
L 235.523313 310.144214 
L 239.917751 307.991401 
L 244.242399 305.701617 
L 248.49299 303.277123 
L 252.665328 300.720311 
L 256.755295 298.033705 
L 260.758857 295.219955 
L 264.67206 292.281838 
L 268.491045 289.222255 
L 272.212041 286.044224 
L 275.831376 282.750882 
L 279.345479 279.345479 
L 282.750882 275.831376 
L 286.044224 272.212041 
L 289.222255 268.491045 
L 292.281838 264.67206 
L 295.219955 260.758857 
L 298.033705 256.755295 
L 300.720311 252.665328 
L 303.277123 248.49299 
L 305.701617 244.242399 
L 307.991401 239.917751 
L 310.144214 235.523313 
L 312.157932 231.063421 
L 314.030568 226.542478 
L 315.760274 221.964945 
L 317.345342 217.33534 
L 318.784209 212.65823 
L 320.075454 207.938232 
L 321.217803 203.180005 
L 322.210129 198.388243 
L 323.051453 193.567676 
L 323.740944 188.723061 
L 324.277921 183.85918 
L 324.661856 178.980831 
L 324.892368 174.09283 
L 324.969231 169.2 
z
" clip-path="url(#p96510a972c)" style="fill: #808080"/>
   </g>
   <g id="matplotlib.axis_1"/>
   <g id="matplotlib.axis_2"/>
   <g id="line2d_1">
    <path d="M 293.815385 169.2 
L 293.662019 163.019386 
L 293.212137 156.953205 
L 292.375909 150.313776 
L 291.291842 144.248525 
L 290.675259 141.401517 
L 289.613546 137.113055 
L 288.562292 133.400036 
L 287.192993 129.116989 
L 284.697 122.40858 
L 283.215964 118.907316 
L 281.143514 114.449257 
L 278.007026 108.454423 
L 274.911409 103.214455 
L 272.583456 99.623746 
L 270.035004 95.979128 
L 267.446738 92.541194 
L 263.318146 87.525227 
L 258.653798 82.441645 
L 257.080351 80.848215 
L 252.651899 76.653932 
L 249.707824 74.081735 
L 244.379445 69.816675 
L 239.059695 66.007863 
L 236.655885 64.420719 
L 231.011979 60.995225 
L 225.755968 58.157591 
L 220.421616 55.598327 
L 214.799494 53.227244 
L 207.287921 50.547969 
L 204.859365 49.795629 
L 200.643416 48.61681 
L 197.1247 47.753694 
L 189.715958 46.285031 
L 183.986486 45.464985 
L 177.932541 44.890962 
L 169.064008 44.58469 
L 166.240173 44.619771 
L 159.322807 44.976672 
L 155.144459 45.379825 
L 150.766456 45.955533 
L 144.873708 46.982057 
L 136.555832 48.936321 
L 134.242213 49.588348 
L 130.009573 50.907547 
L 123.163905 53.399862 
L 118.123946 55.532807 
L 111.678472 58.654679 
L 104.892639 62.459392 
L 101.544596 64.549437 
L 96.177123 68.22152 
L 89.980375 73.00621 
L 85.854919 76.557723 
L 83.057312 79.153171 
L 79.784638 82.402033 
L 75.957554 86.526907 
L 71.924288 91.312711 
L 68.197182 96.21079 
L 64.462916 101.678616 
L 62.747382 104.417023 
L 60.617964 108.053164 
L 57.53463 113.884186 
L 56.26365 116.527665 
L 53.937157 121.834706 
L 52.067093 126.669116 
L 50.918933 129.975221 
L 49.062289 136.095252 
L 47.580548 142.039312 
L 46.65944 146.554797 
L 45.766279 152.079526 
L 45.033481 158.63261 
L 44.666278 164.689315 
L 44.585365 169.632276 
L 44.657043 173.448057 
L 44.885901 177.860184 
L 45.372469 183.190589 
L 45.905854 187.298278 
L 46.676706 191.938436 
L 48.318823 199.477636 
L 49.772182 204.780757 
L 51.646619 210.554524 
L 52.082342 211.772858 
L 54.233473 217.280056 
L 56.097354 221.514296 
L 58.102708 225.648081 
L 61.731896 232.284077 
L 64.716275 237.112777 
L 66.497486 239.777529 
L 69.038167 243.339067 
L 71.906651 247.065257 
L 75.017725 250.800816 
L 78.664421 254.828867 
L 83.41337 259.586107 
L 87.213393 263.046632 
L 93.535042 268.214182 
L 98.298556 271.679165 
L 105.015297 276.014409 
L 106.338006 276.798159 
L 110.944523 279.360308 
L 113.838241 280.842598 
L 121.066664 284.14423 
L 125.94368 286.066954 
L 131.976756 288.126129 
L 137.209868 289.639302 
L 141.315584 290.655562 
L 147.654777 291.938737 
L 154.991229 293.002685 
L 158.929496 293.391428 
L 165.995676 293.77418 
L 173.473303 293.742093 
L 179.369386 293.399749 
L 188.240048 292.352226 
L 196.22804 290.849 
L 198.224755 290.388109 
L 206.466114 288.112702 
L 212.079633 286.205689 
L 216.013591 284.688016 
L 222.202616 281.981722 
L 227.564609 279.302527 
L 235.704937 274.585424 
L 240.982382 271.064046 
L 247.682692 265.995977 
L 253.08814 261.350822 
L 258.762471 255.846164 
L 261.557209 252.860864 
L 264.913005 248.999842 
L 268.807557 244.082098 
L 273.44349 237.480955 
L 275.135069 234.825873 
L 277.49844 230.847726 
L 280.905365 224.435003 
L 282.456457 221.180467 
L 284.873348 215.553755 
L 287.254516 209.101444 
L 289.064946 203.279155 
L 290.514713 197.690953 
L 291.611459 192.532996 
L 292.435217 187.695282 
L 293.339313 180.082323 
L 293.640783 175.794363 
L 293.815385 169.2 
L 293.815385 169.2 
" clip-path="url(#p96510a972c)" style="fill: none; stroke: #000000; stroke-width: 3; stroke-linecap: square"/>
   </g>
   <g id="line2d_2">
    <path d="M 324.969231 169.2 
L 324.858425 163.325637 
L 324.607392 158.588889 
L 324.092088 152.692596 
L 323.627356 148.797917 
L 322.986868 144.427988 
L 321.994707 138.904279 
L 320.243084 131.120607 
L 318.97222 126.394213 
L 316.562285 118.71822 
L 313.879509 111.477448 
L 312.148022 107.313682 
L 308.911478 100.317809 
L 306.940181 96.455958 
L 304.060168 91.246243 
L 301.855355 87.550689 
L 297.810122 81.316613 
L 295.176772 77.581737 
L 289.941068 70.784312 
L 284.713237 64.69763 
L 281.719695 61.481053 
L 278.495705 58.211252 
L 275.446534 55.28895 
L 272.139876 52.292194 
L 268.278068 49.001873 
L 264.852187 46.258094 
L 258.914876 41.860712 
L 252.624255 37.653632 
L 248.387415 35.060496 
L 242.151712 31.569695 
L 237.6801 29.290997 
L 233.053663 27.119871 
L 229.126037 25.419183 
L 224.272553 23.491156 
L 219.996186 21.945795 
L 213.167022 19.764548 
L 207.999882 18.340388 
L 198.855231 16.279692 
L 194.150725 15.442026 
L 189.547082 14.765388 
L 180.463421 13.838523 
L 173.205531 13.482278 
L 170.292226 13.434599 
L 164.439953 13.503516 
L 155.998673 13.991179 
L 147.744238 14.915511 
L 139.50725 16.286973 
L 130.218951 18.387099 
L 120.601256 21.20603 
L 114.827027 23.228657 
L 110.628817 24.86196 
L 103.305322 28.054881 
L 97.788841 30.764096 
L 91.442526 34.226564 
L 87.131308 36.80369 
L 81.425595 40.515474 
L 76.792812 43.800778 
L 69.264507 49.713807 
L 62.063539 56.125547 
L 56.953963 61.195924 
L 52.254292 66.303184 
L 48.743938 70.435682 
L 46.177099 73.652006 
L 43.364128 77.388309 
L 40.799034 81.011309 
L 36.431967 87.73404 
L 34.038929 91.76914 
L 30.100412 99.090386 
L 28.209549 102.975035 
L 25.166173 109.884657 
L 22.353168 117.237887 
L 19.979493 124.508911 
L 18.721442 128.947587 
L 17.000647 136.042644 
L 15.506289 143.856434 
L 15.003518 147.12064 
L 14.120496 154.557572 
L 13.784532 158.707836 
L 13.559618 162.865597 
L 13.44224 171.09036 
L 13.660219 177.651619 
L 13.985398 182.333181 
L 14.926038 190.731324 
L 15.417101 193.996639 
L 16.41876 199.563562 
L 17.319636 203.789137 
L 18.594059 208.973153 
L 20.095949 214.278103 
L 21.82989 219.658934 
L 25.06215 228.262115 
L 28.524377 236.091123 
L 30.57076 240.235111 
L 33.538092 245.749983 
L 38.027433 253.210778 
L 40.629625 257.141526 
L 43.349568 260.991732 
L 46.223425 264.807611 
L 49.952125 269.419746 
L 52.87975 272.803343 
L 56.578378 276.812376 
L 59.71972 280.006685 
L 65.592111 285.516201 
L 69.022289 288.483191 
L 75.148047 293.37038 
L 78.809061 296.060283 
L 85.69769 300.696835 
L 92.079209 304.538231 
L 97.611325 307.54419 
L 104.645944 310.963278 
L 109.87621 313.230348 
L 118.520359 316.494356 
L 124.79023 318.504473 
L 128.784628 319.634873 
L 135.891375 321.366319 
L 143.357279 322.810569 
L 149.569549 323.727339 
L 157.09145 324.497895 
L 167.025424 324.954051 
L 173.035181 324.922011 
L 177.897358 324.726233 
L 185.021928 324.163608 
L 192.563431 323.207154 
L 196.086152 322.631379 
L 201.079289 321.672175 
L 209.488176 319.668987 
L 215.701152 317.866392 
L 223.571436 315.171916 
L 229.248076 312.929892 
L 235.916374 309.958583 
L 240.717006 307.581253 
L 246.000361 304.720322 
L 251.222236 301.625096 
L 259.486688 296.1345 
L 264.258481 292.601533 
L 269.175772 288.652494 
L 271.94725 286.277136 
L 275.166461 283.371636 
L 280.607217 278.06912 
L 283.556115 274.967349 
L 287.495732 270.541862 
L 292.482058 264.413378 
L 296.737793 258.632459 
L 300.583915 252.879867 
L 303.646037 247.865853 
L 306.482724 242.803716 
L 309.837873 236.170456 
L 311.06654 233.526806 
L 313.58382 227.658239 
L 315.2094 223.470695 
L 316.883987 218.732749 
L 318.130501 214.84821 
L 319.412681 210.433528 
L 320.726368 205.308351 
L 321.717526 200.861611 
L 322.881885 194.615182 
L 324.167981 184.979043 
L 324.570223 180.342124 
L 324.819983 176.017195 
L 324.969231 169.2 
L 324.969231 169.2 
" clip-path="url(#p96510a972c)" style="fill: none; stroke: #000000; stroke-width: 3; stroke-linecap: square"/>
   </g>
   <g id="line2d_3">
    <path d="M 253.362475 38.124712 
L 169.2 169.2 
L 272.049515 98.836861 
" clip-path="url(#p96510a972c)" style="fill: none; stroke: #000000; stroke-width: 2; stroke-linecap: square"/>
   </g>
   <g id="patch_4">
    <path d="M 169.2 331.2 
L 169.2 7.2 
" style="fill: none; stroke: #000000; stroke-width: 0.8; stroke-linejoin: miter; stroke-linecap: square"/>
   </g>
   <g id="patch_5">
    <path d="M 7.2 169.2 
L 331.2 169.2 
" style="fill: none; stroke: #000000; stroke-width: 0.8; stroke-linejoin: miter; stroke-linecap: square"/>
   </g>
   <g id="text_1">
    <!-- $R_0$ -->
    <g transform="translate(270.63413 93.970996) scale(0.2 -0.2)">
     <defs>
      <path id="Cmmi10-52" d="M 313 0 
Q 250 0 250 84 
Q 253 100 262 139 
Q 272 178 289 201 
Q 306 225 331 225 
Q 722 225 878 269 
Q 959 297 997 441 
L 1875 3956 
Q 1888 4019 1888 4044 
Q 1888 4113 1813 4122 
Q 1691 4147 1350 4147 
Q 1288 4147 1288 4231 
Q 1291 4247 1300 4286 
Q 1309 4325 1326 4348 
Q 1344 4372 1369 4372 
L 3309 4372 
Q 3541 4372 3791 4319 
Q 4041 4266 4250 4152 
Q 4459 4038 4593 3848 
Q 4728 3659 4728 3406 
Q 4728 3084 4515 2831 
Q 4303 2578 3978 2408 
Q 3653 2238 3347 2169 
Q 3597 2078 3756 1879 
Q 3916 1681 3916 1422 
Q 3916 1388 3914 1370 
Q 3913 1353 3909 1331 
L 3859 763 
Q 3853 638 3847 550 
Q 3841 463 3841 409 
Q 3841 234 3892 129 
Q 3944 25 4097 25 
Q 4297 25 4448 211 
Q 4600 397 4647 616 
Q 4675 672 4709 672 
L 4769 672 
Q 4831 672 4831 588 
Q 4784 403 4682 237 
Q 4581 72 4426 -34 
Q 4272 -141 4091 -141 
Q 3716 -141 3452 26 
Q 3188 194 3188 550 
Q 3188 684 3213 788 
L 3353 1356 
Q 3378 1434 3378 1538 
Q 3378 1803 3198 1954 
Q 3019 2106 2747 2106 
L 1959 2106 
L 1538 416 
Q 1522 363 1522 325 
Q 1522 259 1600 250 
Q 1722 225 2059 225 
Q 2125 225 2125 141 
Q 2103 50 2090 25 
Q 2078 0 2016 0 
L 313 0 
z
M 1997 2272 
L 2706 2272 
Q 3403 2272 3756 2625 
Q 3919 2788 4014 3039 
Q 4109 3291 4109 3541 
Q 4109 3778 3970 3912 
Q 3831 4047 3626 4097 
Q 3422 4147 3175 4147 
L 2747 4147 
Q 2572 4147 2515 4117 
Q 2459 4088 2413 3928 
L 1997 2272 
z
" transform="scale(0.015625)"/>
      <path id="Cmr10-30" d="M 1600 -141 
Q 816 -141 533 504 
Q 250 1150 250 2041 
Q 250 2597 351 3087 
Q 453 3578 754 3920 
Q 1056 4263 1600 4263 
Q 2022 4263 2290 4056 
Q 2559 3850 2700 3523 
Q 2841 3197 2892 2823 
Q 2944 2450 2944 2041 
Q 2944 1491 2842 1011 
Q 2741 531 2444 195 
Q 2147 -141 1600 -141 
z
M 1600 25 
Q 1956 25 2131 390 
Q 2306 756 2347 1200 
Q 2388 1644 2388 2144 
Q 2388 2625 2347 3031 
Q 2306 3438 2132 3767 
Q 1959 4097 1600 4097 
Q 1238 4097 1063 3765 
Q 888 3434 847 3029 
Q 806 2625 806 2144 
Q 806 1788 823 1472 
Q 841 1156 916 820 
Q 991 484 1158 254 
Q 1325 25 1600 25 
z
" transform="scale(0.015625)"/>
     </defs>
     <use xlink:href="#Cmmi10-52" transform="translate(0 0.6875)"/>
     <use xlink:href="#Cmr10-30" transform="translate(75.878906 -16.31875) scale(0.7)"/>
    </g>
   </g>
   <g id="text_2">
    <!-- $R_1$ -->
    <g transform="translate(251.94709 33.258847) scale(0.2 -0.2)">
     <defs>
      <path id="Cmr10-31" d="M 594 0 
L 594 225 
Q 1394 225 1394 428 
L 1394 3788 
Q 1063 3628 556 3628 
L 556 3853 
Q 1341 3853 1741 4263 
L 1831 4263 
Q 1853 4263 1873 4245 
Q 1894 4228 1894 4206 
L 1894 428 
Q 1894 225 2694 225 
L 2694 0 
L 594 0 
z
" transform="scale(0.015625)"/>
     </defs>
     <use xlink:href="#Cmmi10-52" transform="translate(0 0.6875)"/>
     <use xlink:href="#Cmr10-31" transform="translate(75.878906 -16.31875) scale(0.7)"/>
    </g>
   </g>
  </g>
 </g>
 <defs>
  <clipPath id="p96510a972c">
   <rect x="7.2" y="7.2" width="324" height="324"/>
  </clipPath>
 </defs>
</svg>
