<?xml version="1.0" encoding="utf-8" standalone="no"?>
<!DOCTYPE svg PUBLIC "-//W3C//DTD SVG 1.1//EN"
  "http://www.w3.org/Graphics/SVG/1.1/DTD/svg11.dtd">
<svg xmlns:xlink="http://www.w3.org/1999/xlink" width="453.6pt" height="236.33611pt" viewBox="0 0 453.6 236.33611" xmlns="http://www.w3.org/2000/svg" version="1.1">
 <metadata>
  <rdf:RDF xmlns:dc="http://purl.org/dc/elements/1.1/" xmlns:cc="http://creativecommons.org/ns#" xmlns:rdf="http://www.w3.org/1999/02/22-rdf-syntax-ns#">
   <cc:Work>
    <dc:type rdf:resource="http://purl.org/dc/dcmitype/StillImage"/>
    <dc:date>2025-07-25T14:51:08.408118</dc:date>
    <dc:format>image/svg+xml</dc:format>
    <dc:creator>
     <cc:Agent>
      <dc:title>Matplotlib v3.10.3, https://matplotlib.org/</dc:title>
     </cc:Agent>
    </dc:creator>
   </cc:Work>
  </rdf:RDF>
 </metadata>
 <defs>
  <style type="text/css">*{stroke-linejoin: round; stroke-linecap: butt}</style>
 </defs>
 <g id="figure_1">
  <g id="patch_1">
   <path d="M 0 236.33611 
L 453.6 236.33611 
L 453.6 -0 
L 0 -0 
z
" style="fill: #ffffff"/>
  </g>
  <g id="axes_1">
   <g id="patch_2">
    <path d="M 7.2 229.13611 
L 446.4 229.13611 
L 446.4 7.2 
L 7.2 7.2 
z
" style="fill: #ffffff"/>
   </g>
   <g id="PathCollection_1">
    <path d="M 20.709033 139.147735 
C 21.435321 139.147735 22.131961 138.859178 22.645524 138.345614 
C 23.159088 137.83205 23.447645 137.135411 23.447645 136.409122 
C 23.447645 135.682834 23.159088 134.986194 22.645524 134.472631 
C 22.131961 133.959067 21.435321 133.670509 20.709033 133.670509 
C 19.982744 133.670509 19.286104 133.959067 18.772541 134.472631 
C 18.258977 134.986194 17.97042 135.682834 17.97042 136.409122 
C 17.97042 137.135411 18.258977 137.83205 18.772541 138.345614 
C 19.286104 138.859178 19.982744 139.147735 20.709033 139.147735 
z
" clip-path="url(#pc8d0f7d339)"/>
   </g>
   <g id="matplotlib.axis_1"/>
   <g id="matplotlib.axis_2"/>
   <g id="line2d_1">
    <path d="M 437.953846 75.1185 
L 435.569526 71.97443 
L 432.229877 67.903075 
L 428.851009 64.119495 
L 424.496842 59.662148 
L 420.41908 55.850786 
L 415.088174 51.316676 
L 410.606346 47.843984 
L 404.505681 43.545905 
L 399.422122 40.296005 
L 393.338216 36.755096 
L 387.459991 33.655985 
L 381.671633 30.882303 
L 377.252391 28.934747 
L 369.086712 25.689857 
L 363.305883 23.64799 
L 356.107836 21.376537 
L 349.193505 19.457238 
L 343.076625 17.959314 
L 335.342345 16.31704 
L 329.912012 15.322768 
L 322.530151 14.169964 
L 314.246482 13.135295 
L 306.743386 12.422463 
L 296.178178 11.761413 
L 288.550036 11.521851 
L 280.074085 11.479506 
L 270.538507 11.703343 
L 261.746959 12.155934 
L 255.772678 12.594742 
L 243.775332 13.78892 
L 233.511075 15.135357 
L 223.027367 16.81408 
L 211.922019 18.923129 
L 201.404072 21.232951 
L 191.04542 23.805458 
L 180.26875 26.798325 
L 172.090176 29.288507 
L 161.562573 32.77841 
L 153.21961 35.778029 
L 147.45967 37.973513 
L 138.866201 41.444959 
L 131.439344 44.641775 
L 121.341389 49.297634 
L 113.201177 53.327695 
L 104.885091 57.720897 
L 98.137924 61.5074 
L 92.488929 64.843678 
L 86.005428 68.87589 
L 81.930468 71.530675 
L 73.917066 77.052881 
L 68.012633 81.409322 
L 62.677767 85.58725 
L 56.384378 90.858958 
L 52.201788 94.602724 
L 46.734815 99.843587 
L 41.47337 105.343721 
L 38.312454 108.916644 
L 34.671542 113.346777 
L 31.193876 117.9776 
L 28.519058 121.88736 
L 25.927178 126.064311 
L 24.060527 129.391753 
L 22.068332 133.356774 
L 20.098753 137.905591 
L 18.514573 142.328287 
L 17.523594 145.729832 
L 16.641755 149.607523 
L 16.005242 153.708484 
L 15.740633 156.676904 
L 15.646154 159.652097 
L 15.74773 162.948733 
L 16.086847 166.338755 
L 16.638933 169.560784 
L 17.251791 172.150523 
L 18.310675 175.593966 
L 19.427696 178.491756 
L 21.37399 182.577043 
L 23.070062 185.53342 
L 24.740165 188.084847 
L 27.326661 191.540929 
L 30.216057 194.891783 
L 33.091338 197.837469 
L 36.04173 200.552711 
L 39.768764 203.634747 
L 43.903387 206.694604 
L 48.829588 209.950728 
L 52.914029 212.389901 
L 56.490917 214.363242 
L 61.15154 216.738503 
L 67.925218 219.854657 
L 73.309362 222.09046 
L 80.706973 224.868108 
L 80.706973 224.868108 
" clip-path="url(#pc8d0f7d339)" style="fill: none; stroke: #000000; stroke-width: 2; stroke-linecap: square"/>
   </g>
   <g id="patch_3">
    <path d="M 181.156102 26.539577 
Q 180.129123 26.840733 181.247857 26.512671 
" clip-path="url(#pc8d0f7d339)" style="fill: none; stroke: #000000; stroke-width: 2; stroke-linecap: round"/>
    <path d="M 192.250751 28.496684 
L 181.247857 26.512671 
L 189.436804 18.900763 
z
" clip-path="url(#pc8d0f7d339)" style="stroke: #000000; stroke-width: 2; stroke-linecap: round"/>
   </g>
   <g id="text_1">
    <!-- $Q$ -->
    <g transform="translate(31.639537 151.393124) scale(0.2 -0.2)">
     <defs>
      <path id="Cmmi10-51" d="M 1947 -141 
Q 1466 -141 1094 79 
Q 722 300 520 692 
Q 319 1084 319 1563 
Q 319 2259 714 2950 
Q 1109 3641 1756 4077 
Q 2403 4513 3109 4513 
Q 3475 4513 3778 4381 
Q 4081 4250 4290 4017 
Q 4500 3784 4614 3471 
Q 4728 3159 4728 2791 
Q 4728 2366 4581 1936 
Q 4434 1506 4171 1136 
Q 3909 766 3559 484 
Q 3209 203 2809 38 
Q 2850 -256 2934 -425 
Q 3019 -594 3256 -594 
Q 3506 -594 3726 -412 
Q 3947 -231 4006 13 
Q 4019 72 4078 72 
Q 4147 72 4147 -13 
Q 4100 -219 4008 -430 
Q 3916 -641 3786 -823 
Q 3656 -1006 3478 -1123 
Q 3300 -1241 3084 -1241 
Q 2547 -1241 2547 -550 
Q 2547 -509 2562 -332 
Q 2578 -156 2578 -44 
Q 2269 -141 1947 -141 
z
M 1709 300 
Q 1709 44 1991 44 
Q 2275 44 2591 184 
L 2591 244 
Q 2591 503 2509 648 
Q 2428 794 2194 794 
Q 2078 794 1964 723 
Q 1850 653 1779 539 
Q 1709 425 1709 300 
z
M 1544 288 
Q 1544 456 1637 612 
Q 1731 769 1881 864 
Q 2031 959 2203 959 
Q 2481 959 2607 771 
Q 2734 584 2778 281 
Q 3188 525 3500 978 
Q 3813 1431 3977 1973 
Q 4141 2516 4141 3003 
Q 4141 3356 4023 3656 
Q 3906 3956 3664 4140 
Q 3422 4325 3066 4325 
Q 2722 4325 2403 4156 
Q 2084 3988 1813 3706 
Q 1550 3434 1342 3032 
Q 1134 2631 1021 2193 
Q 909 1756 909 1356 
Q 909 947 1068 612 
Q 1228 278 1569 128 
Q 1544 194 1544 288 
z
" transform="scale(0.015625)"/>
     </defs>
     <use xlink:href="#Cmmi10-51" transform="translate(0 0.484375)"/>
    </g>
   </g>
  </g>
 </g>
 <defs>
  <clipPath id="pc8d0f7d339">
   <rect x="7.2" y="7.2" width="439.2" height="221.93611"/>
  </clipPath>
 </defs>
</svg>
