<?xml version="1.0" encoding="utf-8" standalone="no"?>
<!DOCTYPE svg PUBLIC "-//W3C//DTD SVG 1.1//EN"
  "http://www.w3.org/Graphics/SVG/1.1/DTD/svg11.dtd">
<svg xmlns:xlink="http://www.w3.org/1999/xlink" width="451.30218pt" height="337.397538pt" viewBox="0 0 451.30218 337.397538" xmlns="http://www.w3.org/2000/svg" version="1.1">
 <metadata>
  <rdf:RDF xmlns:dc="http://purl.org/dc/elements/1.1/" xmlns:cc="http://creativecommons.org/ns#" xmlns:rdf="http://www.w3.org/1999/02/22-rdf-syntax-ns#">
   <cc:Work>
    <dc:type rdf:resource="http://purl.org/dc/dcmitype/StillImage"/>
    <dc:date>2025-10-29T15:21:17.728644</dc:date>
    <dc:format>image/svg+xml</dc:format>
    <dc:creator>
     <cc:Agent>
      <dc:title>Matplotlib v3.10.5, https://matplotlib.org/</dc:title>
     </cc:Agent>
    </dc:creator>
   </cc:Work>
  </rdf:RDF>
 </metadata>
 <defs>
  <style type="text/css">*{stroke-linejoin: round; stroke-linecap: butt}</style>
 </defs>
 <g id="figure_1">
  <g id="patch_1">
   <path d="M 0 337.397538 
L 451.30218 337.397538 
L 451.30218 0 
L 0 0 
z
" style="fill: #ffffff"/>
  </g>
  <g id="axes_1">
   <g id="patch_2">
    <path d="M 20.801795 330.197538 
L 444.10218 330.197538 
L 444.10218 7.2 
L 20.801795 7.2 
z
" style="fill: #ffffff"/>
   </g>
   <g id="matplotlib.axis_1">
    <g id="xtick_1">
     <g id="line2d_1">
      <path d="M 28.942187 330.197538 
L 28.942187 7.2 
" clip-path="url(#p79b2861b9a)" style="fill: none; stroke-dasharray: 0.5,0.825; stroke-dashoffset: 0; stroke: #000000; stroke-width: 0.5"/>
     </g>
     <g id="line2d_2">
      <defs>
       <path id="mec2275c05d" d="M 0 0 
L 0 3.5 
" style="stroke: #000000; stroke-width: 0.8"/>
      </defs>
      <g>
       <use xlink:href="#mec2275c05d" x="28.942187" y="199.756225" style="stroke: #000000; stroke-width: 0.8"/>
      </g>
     </g>
    </g>
    <g id="xtick_2">
     <g id="line2d_3">
      <path d="M 130.697088 330.197538 
L 130.697088 7.2 
" clip-path="url(#p79b2861b9a)" style="fill: none; stroke-dasharray: 0.5,0.825; stroke-dashoffset: 0; stroke: #000000; stroke-width: 0.5"/>
     </g>
     <g id="line2d_4">
      <g>
       <use xlink:href="#mec2275c05d" x="130.697088" y="199.756225" style="stroke: #000000; stroke-width: 0.8"/>
      </g>
     </g>
     <g id="text_1">
      <!-- 0.5 -->
      <g transform="translate(122.745525 214.354662) scale(0.1 -0.1)">
       <defs>
        <path id="DejaVuSans-30" d="M 2034 4250 
Q 1547 4250 1301 3770 
Q 1056 3291 1056 2328 
Q 1056 1369 1301 889 
Q 1547 409 2034 409 
Q 2525 409 2770 889 
Q 3016 1369 3016 2328 
Q 3016 3291 2770 3770 
Q 2525 4250 2034 4250 
z
M 2034 4750 
Q 2819 4750 3233 4129 
Q 3647 3509 3647 2328 
Q 3647 1150 3233 529 
Q 2819 -91 2034 -91 
Q 1250 -91 836 529 
Q 422 1150 422 2328 
Q 422 3509 836 4129 
Q 1250 4750 2034 4750 
z
" transform="scale(0.015625)"/>
        <path id="DejaVuSans-2e" d="M 684 794 
L 1344 794 
L 1344 0 
L 684 0 
L 684 794 
z
" transform="scale(0.015625)"/>
        <path id="DejaVuSans-35" d="M 691 4666 
L 3169 4666 
L 3169 4134 
L 1269 4134 
L 1269 2991 
Q 1406 3038 1543 3061 
Q 1681 3084 1819 3084 
Q 2600 3084 3056 2656 
Q 3513 2228 3513 1497 
Q 3513 744 3044 326 
Q 2575 -91 1722 -91 
Q 1428 -91 1123 -41 
Q 819 9 494 109 
L 494 744 
Q 775 591 1075 516 
Q 1375 441 1709 441 
Q 2250 441 2565 725 
Q 2881 1009 2881 1497 
Q 2881 1984 2565 2268 
Q 2250 2553 1709 2553 
Q 1456 2553 1204 2497 
Q 953 2441 691 2322 
L 691 4666 
z
" transform="scale(0.015625)"/>
       </defs>
       <use xlink:href="#DejaVuSans-30"/>
       <use xlink:href="#DejaVuSans-2e" transform="translate(63.623047 0)"/>
       <use xlink:href="#DejaVuSans-35" transform="translate(95.410156 0)"/>
      </g>
     </g>
    </g>
    <g id="xtick_3">
     <g id="line2d_5">
      <path d="M 232.451988 330.197538 
L 232.451988 7.2 
" clip-path="url(#p79b2861b9a)" style="fill: none; stroke-dasharray: 0.5,0.825; stroke-dashoffset: 0; stroke: #000000; stroke-width: 0.5"/>
     </g>
     <g id="line2d_6">
      <g>
       <use xlink:href="#mec2275c05d" x="232.451988" y="199.756225" style="stroke: #000000; stroke-width: 0.8"/>
      </g>
     </g>
     <g id="text_2">
      <!-- 1.0 -->
      <g transform="translate(224.500425 214.354662) scale(0.1 -0.1)">
       <defs>
        <path id="DejaVuSans-31" d="M 794 531 
L 1825 531 
L 1825 4091 
L 703 3866 
L 703 4441 
L 1819 4666 
L 2450 4666 
L 2450 531 
L 3481 531 
L 3481 0 
L 794 0 
L 794 531 
z
" transform="scale(0.015625)"/>
       </defs>
       <use xlink:href="#DejaVuSans-31"/>
       <use xlink:href="#DejaVuSans-2e" transform="translate(63.623047 0)"/>
       <use xlink:href="#DejaVuSans-30" transform="translate(95.410156 0)"/>
      </g>
     </g>
    </g>
    <g id="xtick_4">
     <g id="line2d_7">
      <path d="M 334.206888 330.197538 
L 334.206888 7.2 
" clip-path="url(#p79b2861b9a)" style="fill: none; stroke-dasharray: 0.5,0.825; stroke-dashoffset: 0; stroke: #000000; stroke-width: 0.5"/>
     </g>
     <g id="line2d_8">
      <g>
       <use xlink:href="#mec2275c05d" x="334.206888" y="199.756225" style="stroke: #000000; stroke-width: 0.8"/>
      </g>
     </g>
     <g id="text_3">
      <!-- 1.5 -->
      <g transform="translate(326.255325 214.354662) scale(0.1 -0.1)">
       <use xlink:href="#DejaVuSans-31"/>
       <use xlink:href="#DejaVuSans-2e" transform="translate(63.623047 0)"/>
       <use xlink:href="#DejaVuSans-35" transform="translate(95.410156 0)"/>
      </g>
     </g>
    </g>
    <g id="xtick_5">
     <g id="line2d_9">
      <path d="M 435.961788 330.197538 
L 435.961788 7.2 
" clip-path="url(#p79b2861b9a)" style="fill: none; stroke-dasharray: 0.5,0.825; stroke-dashoffset: 0; stroke: #000000; stroke-width: 0.5"/>
     </g>
     <g id="line2d_10">
      <g>
       <use xlink:href="#mec2275c05d" x="435.961788" y="199.756225" style="stroke: #000000; stroke-width: 0.8"/>
      </g>
     </g>
     <g id="text_4">
      <!-- 2.0 -->
      <g transform="translate(428.010226 214.354662) scale(0.1 -0.1)">
       <defs>
        <path id="DejaVuSans-32" d="M 1228 531 
L 3431 531 
L 3431 0 
L 469 0 
L 469 531 
Q 828 903 1448 1529 
Q 2069 2156 2228 2338 
Q 2531 2678 2651 2914 
Q 2772 3150 2772 3378 
Q 2772 3750 2511 3984 
Q 2250 4219 1831 4219 
Q 1534 4219 1204 4116 
Q 875 4013 500 3803 
L 500 4441 
Q 881 4594 1212 4672 
Q 1544 4750 1819 4750 
Q 2544 4750 2975 4387 
Q 3406 4025 3406 3419 
Q 3406 3131 3298 2873 
Q 3191 2616 2906 2266 
Q 2828 2175 2409 1742 
Q 1991 1309 1228 531 
z
" transform="scale(0.015625)"/>
       </defs>
       <use xlink:href="#DejaVuSans-32"/>
       <use xlink:href="#DejaVuSans-2e" transform="translate(63.623047 0)"/>
       <use xlink:href="#DejaVuSans-30" transform="translate(95.410156 0)"/>
      </g>
     </g>
    </g>
    <g id="xtick_6">
     <g id="line2d_11">
      <defs>
       <path id="m5029968347" d="M 0 0 
L 0 2 
" style="stroke: #000000; stroke-width: 0.6"/>
      </defs>
      <g>
       <use xlink:href="#m5029968347" x="49.293168" y="199.756225" style="stroke: #000000; stroke-width: 0.6"/>
      </g>
     </g>
    </g>
    <g id="xtick_7">
     <g id="line2d_12">
      <g>
       <use xlink:href="#m5029968347" x="69.644148" y="199.756225" style="stroke: #000000; stroke-width: 0.6"/>
      </g>
     </g>
    </g>
    <g id="xtick_8">
     <g id="line2d_13">
      <g>
       <use xlink:href="#m5029968347" x="89.995128" y="199.756225" style="stroke: #000000; stroke-width: 0.6"/>
      </g>
     </g>
    </g>
    <g id="xtick_9">
     <g id="line2d_14">
      <g>
       <use xlink:href="#m5029968347" x="110.346108" y="199.756225" style="stroke: #000000; stroke-width: 0.6"/>
      </g>
     </g>
    </g>
    <g id="xtick_10">
     <g id="line2d_15">
      <g>
       <use xlink:href="#m5029968347" x="151.048068" y="199.756225" style="stroke: #000000; stroke-width: 0.6"/>
      </g>
     </g>
    </g>
    <g id="xtick_11">
     <g id="line2d_16">
      <g>
       <use xlink:href="#m5029968347" x="171.399048" y="199.756225" style="stroke: #000000; stroke-width: 0.6"/>
      </g>
     </g>
    </g>
    <g id="xtick_12">
     <g id="line2d_17">
      <g>
       <use xlink:href="#m5029968347" x="191.750028" y="199.756225" style="stroke: #000000; stroke-width: 0.6"/>
      </g>
     </g>
    </g>
    <g id="xtick_13">
     <g id="line2d_18">
      <g>
       <use xlink:href="#m5029968347" x="212.101008" y="199.756225" style="stroke: #000000; stroke-width: 0.6"/>
      </g>
     </g>
    </g>
    <g id="xtick_14">
     <g id="line2d_19">
      <g>
       <use xlink:href="#m5029968347" x="252.802968" y="199.756225" style="stroke: #000000; stroke-width: 0.6"/>
      </g>
     </g>
    </g>
    <g id="xtick_15">
     <g id="line2d_20">
      <g>
       <use xlink:href="#m5029968347" x="273.153948" y="199.756225" style="stroke: #000000; stroke-width: 0.6"/>
      </g>
     </g>
    </g>
    <g id="xtick_16">
     <g id="line2d_21">
      <g>
       <use xlink:href="#m5029968347" x="293.504928" y="199.756225" style="stroke: #000000; stroke-width: 0.6"/>
      </g>
     </g>
    </g>
    <g id="xtick_17">
     <g id="line2d_22">
      <g>
       <use xlink:href="#m5029968347" x="313.855908" y="199.756225" style="stroke: #000000; stroke-width: 0.6"/>
      </g>
     </g>
    </g>
    <g id="xtick_18">
     <g id="line2d_23">
      <g>
       <use xlink:href="#m5029968347" x="354.557868" y="199.756225" style="stroke: #000000; stroke-width: 0.6"/>
      </g>
     </g>
    </g>
    <g id="xtick_19">
     <g id="line2d_24">
      <g>
       <use xlink:href="#m5029968347" x="374.908848" y="199.756225" style="stroke: #000000; stroke-width: 0.6"/>
      </g>
     </g>
    </g>
    <g id="xtick_20">
     <g id="line2d_25">
      <g>
       <use xlink:href="#m5029968347" x="395.259828" y="199.756225" style="stroke: #000000; stroke-width: 0.6"/>
      </g>
     </g>
    </g>
    <g id="xtick_21">
     <g id="line2d_26">
      <g>
       <use xlink:href="#m5029968347" x="415.610808" y="199.756225" style="stroke: #000000; stroke-width: 0.6"/>
      </g>
     </g>
    </g>
   </g>
   <g id="matplotlib.axis_2">
    <g id="ytick_1">
     <g id="line2d_27">
      <path d="M 20.801795 323.986047 
L 444.10218 323.986047 
" clip-path="url(#p79b2861b9a)" style="fill: none; stroke-dasharray: 0.5,0.825; stroke-dashoffset: 0; stroke: #000000; stroke-width: 0.5"/>
     </g>
     <g id="line2d_28">
      <defs>
       <path id="m60b695ef0b" d="M 0 0 
L -3.5 0 
" style="stroke: #000000; stroke-width: 0.8"/>
      </defs>
      <g>
       <use xlink:href="#m60b695ef0b" x="28.942187" y="323.986047" style="stroke: #000000; stroke-width: 0.8"/>
      </g>
     </g>
     <g id="text_5">
      <!-- −2 -->
      <g transform="translate(7.2 327.785266) scale(0.1 -0.1)">
       <defs>
        <path id="DejaVuSans-2212" d="M 678 2272 
L 4684 2272 
L 4684 1741 
L 678 1741 
L 678 2272 
z
" transform="scale(0.015625)"/>
       </defs>
       <use xlink:href="#DejaVuSans-2212"/>
       <use xlink:href="#DejaVuSans-32" transform="translate(83.789062 0)"/>
      </g>
     </g>
    </g>
    <g id="ytick_2">
     <g id="line2d_29">
      <path d="M 20.801795 261.871136 
L 444.10218 261.871136 
" clip-path="url(#p79b2861b9a)" style="fill: none; stroke-dasharray: 0.5,0.825; stroke-dashoffset: 0; stroke: #000000; stroke-width: 0.5"/>
     </g>
     <g id="line2d_30">
      <g>
       <use xlink:href="#m60b695ef0b" x="28.942187" y="261.871136" style="stroke: #000000; stroke-width: 0.8"/>
      </g>
     </g>
     <g id="text_6">
      <!-- −1 -->
      <g transform="translate(7.2 265.670355) scale(0.1 -0.1)">
       <use xlink:href="#DejaVuSans-2212"/>
       <use xlink:href="#DejaVuSans-31" transform="translate(83.789062 0)"/>
      </g>
     </g>
    </g>
    <g id="ytick_3">
     <g id="line2d_31">
      <path d="M 20.801795 199.756225 
L 444.10218 199.756225 
" clip-path="url(#p79b2861b9a)" style="fill: none; stroke-dasharray: 0.5,0.825; stroke-dashoffset: 0; stroke: #000000; stroke-width: 0.5"/>
     </g>
     <g id="line2d_32">
      <g>
       <use xlink:href="#m60b695ef0b" x="28.942187" y="199.756225" style="stroke: #000000; stroke-width: 0.8"/>
      </g>
     </g>
    </g>
    <g id="ytick_4">
     <g id="line2d_33">
      <path d="M 20.801795 137.641314 
L 444.10218 137.641314 
" clip-path="url(#p79b2861b9a)" style="fill: none; stroke-dasharray: 0.5,0.825; stroke-dashoffset: 0; stroke: #000000; stroke-width: 0.5"/>
     </g>
     <g id="line2d_34">
      <g>
       <use xlink:href="#m60b695ef0b" x="28.942187" y="137.641314" style="stroke: #000000; stroke-width: 0.8"/>
      </g>
     </g>
     <g id="text_7">
      <!-- 1 -->
      <g transform="translate(15.579687 141.440532) scale(0.1 -0.1)">
       <use xlink:href="#DejaVuSans-31"/>
      </g>
     </g>
    </g>
    <g id="ytick_5">
     <g id="line2d_35">
      <path d="M 20.801795 75.526402 
L 444.10218 75.526402 
" clip-path="url(#p79b2861b9a)" style="fill: none; stroke-dasharray: 0.5,0.825; stroke-dashoffset: 0; stroke: #000000; stroke-width: 0.5"/>
     </g>
     <g id="line2d_36">
      <g>
       <use xlink:href="#m60b695ef0b" x="28.942187" y="75.526402" style="stroke: #000000; stroke-width: 0.8"/>
      </g>
     </g>
     <g id="text_8">
      <!-- 2 -->
      <g transform="translate(15.579687 79.325621) scale(0.1 -0.1)">
       <use xlink:href="#DejaVuSans-32"/>
      </g>
     </g>
    </g>
    <g id="ytick_6">
     <g id="line2d_37">
      <path d="M 20.801795 13.411491 
L 444.10218 13.411491 
" clip-path="url(#p79b2861b9a)" style="fill: none; stroke-dasharray: 0.5,0.825; stroke-dashoffset: 0; stroke: #000000; stroke-width: 0.5"/>
     </g>
     <g id="line2d_38">
      <g>
       <use xlink:href="#m60b695ef0b" x="28.942187" y="13.411491" style="stroke: #000000; stroke-width: 0.8"/>
      </g>
     </g>
     <g id="text_9">
      <!-- 3 -->
      <g transform="translate(15.579687 17.21071) scale(0.1 -0.1)">
       <defs>
        <path id="DejaVuSans-33" d="M 2597 2516 
Q 3050 2419 3304 2112 
Q 3559 1806 3559 1356 
Q 3559 666 3084 287 
Q 2609 -91 1734 -91 
Q 1441 -91 1130 -33 
Q 819 25 488 141 
L 488 750 
Q 750 597 1062 519 
Q 1375 441 1716 441 
Q 2309 441 2620 675 
Q 2931 909 2931 1356 
Q 2931 1769 2642 2001 
Q 2353 2234 1838 2234 
L 1294 2234 
L 1294 2753 
L 1863 2753 
Q 2328 2753 2575 2939 
Q 2822 3125 2822 3475 
Q 2822 3834 2567 4026 
Q 2313 4219 1838 4219 
Q 1578 4219 1281 4162 
Q 984 4106 628 3988 
L 628 4550 
Q 988 4650 1302 4700 
Q 1616 4750 1894 4750 
Q 2613 4750 3031 4423 
Q 3450 4097 3450 3541 
Q 3450 3153 3228 2886 
Q 3006 2619 2597 2516 
z
" transform="scale(0.015625)"/>
       </defs>
       <use xlink:href="#DejaVuSans-33"/>
      </g>
     </g>
    </g>
    <g id="ytick_7">
     <g id="line2d_39">
      <defs>
       <path id="md2509d150c" d="M 0 0 
L -2 0 
" style="stroke: #000000; stroke-width: 0.6"/>
      </defs>
      <g>
       <use xlink:href="#md2509d150c" x="28.942187" y="311.563065" style="stroke: #000000; stroke-width: 0.6"/>
      </g>
     </g>
    </g>
    <g id="ytick_8">
     <g id="line2d_40">
      <g>
       <use xlink:href="#md2509d150c" x="28.942187" y="299.140083" style="stroke: #000000; stroke-width: 0.6"/>
      </g>
     </g>
    </g>
    <g id="ytick_9">
     <g id="line2d_41">
      <g>
       <use xlink:href="#md2509d150c" x="28.942187" y="286.717101" style="stroke: #000000; stroke-width: 0.6"/>
      </g>
     </g>
    </g>
    <g id="ytick_10">
     <g id="line2d_42">
      <g>
       <use xlink:href="#md2509d150c" x="28.942187" y="274.294118" style="stroke: #000000; stroke-width: 0.6"/>
      </g>
     </g>
    </g>
    <g id="ytick_11">
     <g id="line2d_43">
      <g>
       <use xlink:href="#md2509d150c" x="28.942187" y="249.448154" style="stroke: #000000; stroke-width: 0.6"/>
      </g>
     </g>
    </g>
    <g id="ytick_12">
     <g id="line2d_44">
      <g>
       <use xlink:href="#md2509d150c" x="28.942187" y="237.025172" style="stroke: #000000; stroke-width: 0.6"/>
      </g>
     </g>
    </g>
    <g id="ytick_13">
     <g id="line2d_45">
      <g>
       <use xlink:href="#md2509d150c" x="28.942187" y="224.602189" style="stroke: #000000; stroke-width: 0.6"/>
      </g>
     </g>
    </g>
    <g id="ytick_14">
     <g id="line2d_46">
      <g>
       <use xlink:href="#md2509d150c" x="28.942187" y="212.179207" style="stroke: #000000; stroke-width: 0.6"/>
      </g>
     </g>
    </g>
    <g id="ytick_15">
     <g id="line2d_47">
      <g>
       <use xlink:href="#md2509d150c" x="28.942187" y="187.333243" style="stroke: #000000; stroke-width: 0.6"/>
      </g>
     </g>
    </g>
    <g id="ytick_16">
     <g id="line2d_48">
      <g>
       <use xlink:href="#md2509d150c" x="28.942187" y="174.91026" style="stroke: #000000; stroke-width: 0.6"/>
      </g>
     </g>
    </g>
    <g id="ytick_17">
     <g id="line2d_49">
      <g>
       <use xlink:href="#md2509d150c" x="28.942187" y="162.487278" style="stroke: #000000; stroke-width: 0.6"/>
      </g>
     </g>
    </g>
    <g id="ytick_18">
     <g id="line2d_50">
      <g>
       <use xlink:href="#md2509d150c" x="28.942187" y="150.064296" style="stroke: #000000; stroke-width: 0.6"/>
      </g>
     </g>
    </g>
    <g id="ytick_19">
     <g id="line2d_51">
      <g>
       <use xlink:href="#md2509d150c" x="28.942187" y="125.218331" style="stroke: #000000; stroke-width: 0.6"/>
      </g>
     </g>
    </g>
    <g id="ytick_20">
     <g id="line2d_52">
      <g>
       <use xlink:href="#md2509d150c" x="28.942187" y="112.795349" style="stroke: #000000; stroke-width: 0.6"/>
      </g>
     </g>
    </g>
    <g id="ytick_21">
     <g id="line2d_53">
      <g>
       <use xlink:href="#md2509d150c" x="28.942187" y="100.372367" style="stroke: #000000; stroke-width: 0.6"/>
      </g>
     </g>
    </g>
    <g id="ytick_22">
     <g id="line2d_54">
      <g>
       <use xlink:href="#md2509d150c" x="28.942187" y="87.949385" style="stroke: #000000; stroke-width: 0.6"/>
      </g>
     </g>
    </g>
    <g id="ytick_23">
     <g id="line2d_55">
      <g>
       <use xlink:href="#md2509d150c" x="28.942187" y="63.10342" style="stroke: #000000; stroke-width: 0.6"/>
      </g>
     </g>
    </g>
    <g id="ytick_24">
     <g id="line2d_56">
      <g>
       <use xlink:href="#md2509d150c" x="28.942187" y="50.680438" style="stroke: #000000; stroke-width: 0.6"/>
      </g>
     </g>
    </g>
    <g id="ytick_25">
     <g id="line2d_57">
      <g>
       <use xlink:href="#md2509d150c" x="28.942187" y="38.257456" style="stroke: #000000; stroke-width: 0.6"/>
      </g>
     </g>
    </g>
    <g id="ytick_26">
     <g id="line2d_58">
      <g>
       <use xlink:href="#md2509d150c" x="28.942187" y="25.834473" style="stroke: #000000; stroke-width: 0.6"/>
      </g>
     </g>
    </g>
   </g>
   <g id="line2d_59">
    <path d="M 28.942187 199.756225 
L 33.929947 171.651562 
L 36.778264 156.940834 
L 39.131152 146.05902 
L 40.87248 138.930734 
L 42.604197 132.73437 
L 44.014755 128.402952 
L 45.46597 124.658908 
L 46.843399 121.801097 
L 47.855912 120.143878 
L 48.936519 118.795815 
L 49.951829 117.927346 
L 50.967139 117.444523 
L 51.936926 117.341208 
L 52.815666 117.546099 
L 53.694406 118.030255 
L 54.628794 118.845032 
L 55.51334 119.893789 
L 56.631209 121.591817 
L 57.749078 123.687491 
L 59.187877 126.93343 
L 60.468006 130.29951 
L 62.048108 135.008561 
L 64.178523 142.176985 
L 66.665297 151.438429 
L 70.874048 168.186275 
L 74.695716 183.052216 
L 77.137686 191.646708 
L 79.03747 197.559692 
L 80.725255 202.106903 
L 82.277615 205.616533 
L 83.467692 207.828563 
L 84.727606 209.687152 
L 85.74454 210.808122 
L 86.676744 211.528153 
L 87.592204 211.942394 
L 88.45743 212.06287 
L 89.322656 211.917177 
L 90.187882 211.503827 
L 91.039212 210.835622 
L 91.863671 209.942143 
L 92.949805 208.398353 
L 94.035939 206.444148 
L 95.333253 203.586139 
L 96.677591 200.045751 
L 98.099185 195.695521 
L 99.869875 189.472452 
L 101.594433 182.644749 
L 103.867956 172.673367 
L 106.446139 160.360094 
L 111.978898 132.408965 
L 115.438156 115.567183 
L 118.084229 103.882405 
L 119.989696 96.405746 
L 121.778003 90.260937 
L 123.290723 85.808044 
L 124.574854 82.610638 
L 125.832879 80.028084 
L 126.881233 78.308847 
L 127.964781 76.957853 
L 128.733263 76.267155 
L 129.675101 75.727285 
L 130.616939 75.527638 
L 131.4818 75.64486 
L 132.216353 75.970069 
L 133.134545 76.666411 
L 134.118013 77.765764 
L 135.113671 79.245071 
L 136.110401 81.086756 
L 137.207126 83.517746 
L 138.594194 87.173595 
L 139.974581 91.418954 
L 141.800074 97.883728 
L 143.597229 105.083681 
L 145.842574 115.040381 
L 148.482773 127.7491 
L 158.1133 175.34091 
L 160.460087 185.341807 
L 162.528363 193.105919 
L 164.136909 198.344876 
L 165.705829 202.707096 
L 167.023442 205.760481 
L 168.286702 208.139932 
L 169.301545 209.651236 
L 170.316388 210.799212 
L 171.302029 211.562751 
L 172.191245 211.953272 
L 173.084739 212.061074 
L 173.978233 211.885439 
L 174.849982 211.44399 
L 175.661738 210.796822 
L 176.613091 209.754666 
L 177.564443 208.414653 
L 178.753634 206.336649 
L 179.953536 203.808742 
L 181.559797 199.796176 
L 183.345492 194.578473 
L 185.432385 187.629247 
L 188.092868 177.77046 
L 192.592059 159.868104 
L 196.347061 145.32076 
L 198.81726 136.707223 
L 200.808906 130.628811 
L 202.406274 126.447068 
L 203.894797 123.186 
L 205.011189 121.179688 
L 206.12077 119.583111 
L 207.302634 118.339209 
L 208.114638 117.767209 
L 209.046038 117.402012 
L 209.826165 117.339529 
L 210.606293 117.501813 
L 211.38642 117.890727 
L 212.329434 118.664835 
L 213.251017 119.743001 
L 214.292884 121.343028 
L 215.541442 123.787061 
L 216.781587 126.771174 
L 217.993754 130.207498 
L 219.334387 134.581071 
L 220.836019 140.153578 
L 222.812157 148.478036 
L 224.843797 158.061955 
L 227.212853 170.298767 
L 230.622514 189.260199 
L 237.866553 230.152304 
L 240.419596 243.213711 
L 242.500492 252.842131 
L 244.488165 260.987063 
L 246.31191 267.425678 
L 247.840172 271.986406 
L 249.317725 275.627137 
L 250.509383 277.991692 
L 251.701041 279.833546 
L 252.654367 280.926048 
L 253.491229 281.60463 
L 254.328091 282.021198 
L 255.180129 282.177483 
L 256.062519 282.057166 
L 256.868299 281.699906 
L 257.785443 281.011224 
L 258.75827 279.960517 
L 259.731096 278.59056 
L 260.979024 276.385732 
L 262.226951 273.70614 
L 263.676231 270.044102 
L 265.486645 264.72835 
L 267.657371 257.445378 
L 270.274472 247.689253 
L 274.966283 228.997218 
L 278.306546 216.086589 
L 280.670446 207.789818 
L 282.527228 202.010977 
L 284.093665 197.75839 
L 285.519797 194.451894 
L 286.94593 191.736936 
L 287.965781 190.182687 
L 289.01351 188.938497 
L 290.06124 188.063701 
L 291.095526 187.571955 
L 291.767126 187.453861 
L 292.438725 187.495848 
L 293.110325 187.698808 
L 293.960379 188.187163 
L 294.846579 188.971426 
L 295.962415 190.355985 
L 297.07825 192.177442 
L 298.156985 194.34495 
L 299.433468 197.410316 
L 300.8577 201.442713 
L 302.552896 207.028563 
L 304.394886 213.974464 
L 306.572155 223.194083 
L 309.078394 234.866574 
L 312.173898 250.271246 
L 318.295987 280.879972 
L 320.954569 292.931899 
L 322.988269 301.189056 
L 324.813854 307.712097 
L 326.280025 312.253572 
L 327.767073 316.162766 
L 328.967185 318.772008 
L 330.152461 320.847624 
L 331.115463 322.155418 
L 332.113042 323.144173 
L 332.91802 323.666643 
L 333.722998 323.940995 
L 334.527976 323.966209 
L 335.375434 323.723458 
L 336.321197 323.127673 
L 337.26696 322.192196 
L 338.195279 320.948252 
L 339.38652 318.889347 
L 340.643346 316.170758 
L 342.159106 312.180681 
L 343.435827 308.252602 
L 345.073306 302.517481 
L 347.06061 294.624096 
L 349.214124 285.111284 
L 352.207089 270.697256 
L 361.197869 226.097828 
L 363.533416 215.94236 
L 365.396508 208.697909 
L 367.147087 202.714694 
L 368.843131 197.771135 
L 370.251682 194.356148 
L 371.4852 191.908049 
L 372.718718 189.984162 
L 373.650777 188.885493 
L 374.557988 188.113119 
L 375.445854 187.642296 
L 376.333721 187.453443 
L 377.068737 187.509467 
L 377.803754 187.756279 
L 378.53877 188.191737 
L 379.520778 189.063015 
L 380.522195 190.284502 
L 381.528096 191.839065 
L 382.785472 194.223942 
L 384.125246 197.273497 
L 385.549831 201.045562 
L 387.242786 206.160368 
L 389.154115 212.632484 
L 391.518739 221.418197 
L 395.96111 239.080865 
L 399.658722 253.459508 
L 401.911131 261.429818 
L 403.82056 267.447597 
L 405.398299 271.783625 
L 406.834408 275.153889 
L 408.243624 277.870955 
L 409.41797 279.655029 
L 410.354814 280.748716 
L 411.28376 281.533732 
L 411.98047 281.921865 
L 412.96586 282.171155 
L 413.710667 282.123161 
L 414.455474 281.869378 
L 415.32271 281.31288 
L 416.148 280.521771 
L 417.179612 279.174732 
L 418.297059 277.26983 
L 419.512557 274.67932 
L 420.86866 271.167667 
L 422.306175 266.756934 
L 423.739015 261.693211 
L 425.426352 254.938909 
L 427.40834 246.027602 
L 429.63306 234.964821 
L 432.271508 220.74707 
L 435.961788 199.756225 
L 435.961788 199.756225 
" clip-path="url(#p79b2861b9a)" style="fill: none; stroke: #000000; stroke-width: 3; stroke-linecap: square"/>
   </g>
   <g id="patch_3">
    <path d="M 28.942187 330.197538 
L 28.942187 7.2 
" style="fill: none; stroke: #000000; stroke-width: 0.8; stroke-linejoin: miter; stroke-linecap: square"/>
   </g>
   <g id="patch_4">
    <path d="M 20.801795 199.756225 
L 444.10218 199.756225 
" style="fill: none; stroke: #000000; stroke-width: 0.8; stroke-linejoin: miter; stroke-linecap: square"/>
   </g>
  </g>
 </g>
 <defs>
  <clipPath id="p79b2861b9a">
   <rect x="20.801795" y="7.2" width="423.300385" height="322.997538"/>
  </clipPath>
 </defs>
</svg>
