<?xml version="1.0" encoding="utf-8" standalone="no"?>
<!DOCTYPE svg PUBLIC "-//W3C//DTD SVG 1.1//EN"
  "http://www.w3.org/Graphics/SVG/1.1/DTD/svg11.dtd">
<svg xmlns:xlink="http://www.w3.org/1999/xlink" width="453.6pt" height="236.336278pt" viewBox="0 0 453.6 236.336278" xmlns="http://www.w3.org/2000/svg" version="1.1">
 <metadata>
  <rdf:RDF xmlns:dc="http://purl.org/dc/elements/1.1/" xmlns:cc="http://creativecommons.org/ns#" xmlns:rdf="http://www.w3.org/1999/02/22-rdf-syntax-ns#">
   <cc:Work>
    <dc:type rdf:resource="http://purl.org/dc/dcmitype/StillImage"/>
    <dc:date>2025-06-25T15:25:45.480261</dc:date>
    <dc:format>image/svg+xml</dc:format>
    <dc:creator>
     <cc:Agent>
      <dc:title>Matplotlib v3.10.3, https://matplotlib.org/</dc:title>
     </cc:Agent>
    </dc:creator>
   </cc:Work>
  </rdf:RDF>
 </metadata>
 <defs>
  <style type="text/css">*{stroke-linejoin: round; stroke-linecap: butt}</style>
 </defs>
 <g id="figure_1">
  <g id="patch_1">
   <path d="M 0 236.336278 
L 453.6 236.336278 
L 453.6 0 
L 0 0 
z
" style="fill: #ffffff"/>
  </g>
  <g id="axes_1">
   <g id="patch_2">
    <path d="M 7.2 229.136278 
L 446.4 229.136278 
L 446.4 7.2 
L 7.2 7.2 
z
" style="fill: #ffffff"/>
   </g>
   <g id="PathCollection_1">
    <path d="M 411.548104 52.085756 
C 412.485739 52.085756 413.385096 51.71323 414.048104 51.050222 
C 414.711112 50.387214 415.083638 49.487857 415.083638 48.550222 
C 415.083638 47.612588 414.711112 46.71323 414.048104 46.050222 
C 413.385096 45.387214 412.485739 45.014688 411.548104 45.014688 
C 410.61047 45.014688 409.711112 45.387214 409.048104 46.050222 
C 408.385096 46.71323 408.01257 47.612588 408.01257 48.550222 
C 408.01257 49.487857 408.385096 50.387214 409.048104 51.050222 
C 409.711112 51.71323 410.61047 52.085756 411.548104 52.085756 
z
" clip-path="url(#pc6aa72966d)"/>
   </g>
   <g id="matplotlib.axis_1"/>
   <g id="matplotlib.axis_2"/>
   <g id="line2d_1">
    <path d="M 437.953846 75.118581 
L 434.625579 70.78688 
L 431.846628 67.458087 
L 428.220951 63.447144 
L 424.676452 59.837742 
L 420.590721 56.004922 
L 414.85554 51.129297 
L 408.474219 46.288913 
L 402.783105 42.413008 
L 396.077266 38.305028 
L 389.80235 34.855283 
L 382.973629 31.483585 
L 376.279676 28.524814 
L 371.477986 26.594874 
L 364.430288 24.029522 
L 358.515853 22.104387 
L 350.13176 19.703346 
L 344.481511 18.28742 
L 339.109121 17.082864 
L 331.22505 15.55162 
L 323.685039 14.335703 
L 314.430726 13.15549 
L 305.352502 12.312975 
L 298.511159 11.873969 
L 287.763388 11.508177 
L 278.490627 11.497087 
L 268.013412 11.809535 
L 257.392682 12.465434 
L 248.993659 13.218727 
L 239.939881 14.257389 
L 231.593191 15.419696 
L 221.521504 17.080206 
L 211.37562 19.035668 
L 201.078968 21.309211 
L 191.984984 23.559901 
L 185.720095 25.243776 
L 179.764498 26.946367 
L 172.819911 29.058558 
L 161.749565 32.713583 
L 151.902945 36.270799 
L 144.779954 39.030485 
L 137.986902 41.813746 
L 127.470983 46.427793 
L 117.193969 51.318802 
L 110.209066 54.875027 
L 101.029086 59.859349 
L 96.385715 62.525429 
L 87.485657 67.935131 
L 81.31214 71.942091 
L 73.655654 77.240238 
L 67.934799 81.468479 
L 61.061211 86.903529 
L 55.930603 91.255078 
L 49.550965 97.090274 
L 45.826501 100.757954 
L 41.203336 105.640148 
L 37.549597 109.814465 
L 33.953148 114.267632 
L 31.367303 117.735403 
L 27.921469 122.81192 
L 25.192315 127.336802 
L 23.298007 130.850287 
L 21.039658 135.633716 
L 19.428876 139.664871 
L 18.074199 143.755479 
L 17.427102 146.102356 
L 16.626899 149.683799 
L 16.086733 153.046521 
L 15.745272 156.597861 
L 15.654971 160.732938 
L 15.894789 164.724018 
L 16.10396 166.465082 
L 16.516596 168.951208 
L 17.24683 172.132904 
L 18.122075 175.044017 
L 19.298128 178.18273 
L 20.804875 181.476016 
L 23.134671 185.638492 
L 25.277401 188.846999 
L 28.04464 192.417468 
L 30.462566 195.158318 
L 33.772826 198.48995 
L 36.220648 200.709224 
L 40.408451 204.131038 
L 45.289867 207.650239 
L 50.319166 210.865437 
L 55.418641 213.786591 
L 60.956049 216.643196 
L 65.564901 218.810228 
L 72.917376 221.934406 
L 80.706776 224.868272 
L 80.706776 224.868272 
" clip-path="url(#pc6aa72966d)" style="fill: none; stroke: #000000; stroke-width: 2; stroke-linecap: square"/>
   </g>
   <g id="patch_3">
    <path d="M 181.15596 26.539632 
Q 180.128981 26.840788 181.247714 26.512726 
" clip-path="url(#pc6aa72966d)" style="fill: none; stroke: #000000; stroke-width: 2; stroke-linecap: round"/>
    <path d="M 192.250609 28.496739 
L 181.247714 26.512726 
L 189.436661 18.900818 
z
" clip-path="url(#pc6aa72966d)" style="stroke: #000000; stroke-width: 2; stroke-linecap: round"/>
   </g>
   <g id="text_1">
    <!-- $P$ -->
    <g transform="translate(414.513361 35.138458) scale(0.2 -0.2)">
     <defs>
      <path id="Cmmi10-50" d="M 313 0 
Q 250 0 250 84 
Q 253 100 262 139 
Q 272 178 289 201 
Q 306 225 331 225 
Q 722 225 878 269 
Q 959 297 997 441 
L 1875 3956 
Q 1888 4019 1888 4044 
Q 1888 4113 1813 4122 
Q 1691 4147 1350 4147 
Q 1288 4147 1288 4231 
Q 1291 4247 1300 4286 
Q 1309 4325 1326 4348 
Q 1344 4372 1369 4372 
L 3578 4372 
Q 3881 4372 4165 4264 
Q 4450 4156 4631 3934 
Q 4813 3713 4813 3397 
Q 4813 2991 4527 2672 
Q 4241 2353 3814 2175 
Q 3388 1997 2988 1997 
L 1947 1997 
L 1556 416 
Q 1544 353 1544 325 
Q 1544 300 1551 283 
Q 1559 266 1573 261 
Q 1588 256 1619 250 
Q 1741 225 2081 225 
Q 2144 225 2144 141 
Q 2122 50 2109 25 
Q 2097 0 2034 0 
L 313 0 
z
M 1978 2188 
L 2875 2188 
Q 3497 2188 3822 2522 
Q 3988 2688 4092 3000 
Q 4197 3313 4197 3566 
Q 4197 3881 3956 4014 
Q 3716 4147 3359 4147 
L 2747 4147 
Q 2572 4147 2515 4117 
Q 2459 4088 2413 3928 
L 1978 2188 
z
" transform="scale(0.015625)"/>
     </defs>
     <use xlink:href="#Cmmi10-50" transform="translate(0 0.6875)"/>
    </g>
   </g>
  </g>
 </g>
 <defs>
  <clipPath id="pc6aa72966d">
   <rect x="7.2" y="7.2" width="439.2" height="221.936278"/>
  </clipPath>
 </defs>
</svg>
