<?xml version="1.0" encoding="utf-8" standalone="no"?>
<!DOCTYPE svg PUBLIC "-//W3C//DTD SVG 1.1//EN"
  "http://www.w3.org/Graphics/SVG/1.1/DTD/svg11.dtd">
<svg xmlns:xlink="http://www.w3.org/1999/xlink" width="337.590947pt" height="338.4pt" viewBox="0 0 337.590947 338.4" xmlns="http://www.w3.org/2000/svg" version="1.1">
 <metadata>
  <rdf:RDF xmlns:dc="http://purl.org/dc/elements/1.1/" xmlns:cc="http://creativecommons.org/ns#" xmlns:rdf="http://www.w3.org/1999/02/22-rdf-syntax-ns#">
   <cc:Work>
    <dc:type rdf:resource="http://purl.org/dc/dcmitype/StillImage"/>
    <dc:date>2025-06-18T14:13:19.284997</dc:date>
    <dc:format>image/svg+xml</dc:format>
    <dc:creator>
     <cc:Agent>
      <dc:title>Matplotlib v3.10.3, https://matplotlib.org/</dc:title>
     </cc:Agent>
    </dc:creator>
   </cc:Work>
  </rdf:RDF>
 </metadata>
 <defs>
  <style type="text/css">*{stroke-linejoin: round; stroke-linecap: butt}</style>
 </defs>
 <g id="figure_1">
  <g id="patch_1">
   <path d="M 0 338.4 
L 337.590947 338.4 
L 337.590947 0 
L 0 0 
z
" style="fill: #ffffff"/>
  </g>
  <g id="axes_1">
   <g id="patch_2">
    <path d="M 7.2 331.2 
L 330.390947 331.2 
L 330.390947 7.2 
L 7.2 7.2 
z
" style="fill: #ffffff"/>
   </g>
   <g id="line2d_1">
    <path d="M 220.588895 304.182527 
L 219.760661 297.137995 
L 218.615765 289.673977 
L 217.344712 282.948038 
L 216.06319 277.148536 
L 214.122757 269.566134 
L 212.503058 264.001605 
L 210.435711 257.619806 
L 207.66924 250.013282 
L 205.034559 243.513429 
L 202.16327 237.064779 
L 199.600023 231.758513 
L 196.005836 224.900824 
L 193.452411 220.37655 
L 189.401776 213.695914 
L 185.063611 207.114027 
L 181.203164 201.680038 
L 177.009674 196.167547 
L 172.810507 191.005946 
L 168.339436 185.859538 
L 162.832418 179.96054 
L 158.111137 175.249121 
L 152.897775 170.380626 
L 148.127713 166.206628 
L 143.031435 162.019371 
L 137.277591 157.603962 
L 131.379496 153.395777 
L 126.235341 149.970258 
L 120.010971 146.110721 
L 114.571897 142.979266 
L 108.090988 139.525116 
L 101.461926 136.287493 
L 95.612817 133.666915 
L 89.506017 131.15692 
L 82.78655 128.65153 
L 77.053892 126.719034 
L 70.457788 124.721467 
L 63.703072 122.919352 
L 56.515719 121.265111 
L 50.656991 120.113008 
L 43.120296 118.885194 
L 35.89906 117.972857 
L 29.266589 117.359606 
L 28.143678 117.276923 
L 28.143678 117.276923 
" clip-path="url(#pa60731a738)" style="fill: none; stroke-dasharray: 11.1,4.8; stroke-dashoffset: 0; stroke: #808080; stroke-width: 3"/>
   </g>
   <g id="line2d_2">
    <path d="M 324.175737 293.789175 
L 323.281299 285.88845 
L 322.167582 277.891917 
L 320.810984 269.723067 
L 319.286125 261.824286 
L 317.394353 253.268594 
L 315.121601 244.237859 
L 312.596797 235.332862 
L 310.375952 228.229277 
L 307.3342 219.347604 
L 304.156437 210.891013 
L 300.645927 202.320072 
L 297.474669 195.144255 
L 293.389297 186.553873 
L 289.266894 178.510536 
L 285.680037 171.945819 
L 281.034431 163.959128 
L 276.480594 156.62166 
L 270.933683 148.253254 
L 266.115343 141.429198 
L 260.740597 134.248351 
L 254.792236 126.773792 
L 248.757849 119.644749 
L 242.434091 112.614215 
L 236.492452 106.380931 
L 230.73806 100.659 
L 223.598559 93.95568 
L 217.395949 88.460967 
L 210.238571 82.472086 
L 204.216428 77.705816 
L 197.524249 72.683356 
L 191.043116 68.078928 
L 183.730848 63.17373 
L 175.724565 58.135998 
L 168.648796 53.958466 
L 161.661191 50.073924 
L 153.757347 45.955996 
L 146.020387 42.196941 
L 137.257829 38.251065 
L 128.414036 34.590907 
L 120.411179 31.547754 
L 113.089766 28.980576 
L 103.872976 26.034968 
L 96.148519 23.805654 
L 88.240532 21.744113 
L 78.924393 19.595939 
L 70.790612 17.963752 
L 62.467693 16.524496 
L 53.292151 15.204594 
L 44.111792 14.160575 
L 35.507912 13.430769 
L 35.507912 13.430769 
" clip-path="url(#pa60731a738)" style="fill: none; stroke-dasharray: 11.1,4.8; stroke-dashoffset: 0; stroke: #808080; stroke-width: 3"/>
   </g>
   <g id="matplotlib.axis_1"/>
   <g id="matplotlib.axis_2"/>
   <g id="line2d_3">
    <path d="M 125.913653 149.763287 
L 13.415211 324.969231 
L 185.261546 207.402827 
" clip-path="url(#pa60731a738)" style="fill: none; stroke: #808080; stroke-width: 2; stroke-linecap: square"/>
   </g>
   <g id="patch_3">
    <path d="M 125.913653 149.763287 
L 128.702429 151.585611 
L 131.461692 153.45232 
L 134.190736 155.362937 
L 136.888862 157.316972 
L 139.55538 159.313926 
L 142.189606 161.353286 
L 144.790867 163.43453 
L 147.358496 165.557127 
L 149.891836 167.720533 
L 152.390239 169.924193 
L 154.853066 172.167544 
L 157.279685 174.450011 
L 159.669475 176.771011 
L 162.021825 179.129948 
L 164.336133 181.526219 
L 166.611806 183.959211 
L 168.848261 186.428301 
L 171.044927 188.932857 
L 173.20124 191.472237 
L 175.316648 194.045792 
L 177.390611 196.652862 
L 179.422597 199.292781 
L 181.412086 201.964872 
L 183.358568 204.668451 
L 185.261546 207.402827 
L 271.184714 148.619625 
L 268.330247 144.518061 
L 265.410523 140.462692 
L 262.42629 136.454555 
L 259.378311 132.494677 
L 256.267367 128.584072 
L 253.094254 124.72374 
L 249.859785 120.91467 
L 246.564787 117.157836 
L 243.210104 113.454202 
L 239.796595 109.804714 
L 236.325133 106.210307 
L 232.796608 102.6719 
L 229.211922 99.190401 
L 225.571993 95.7667 
L 221.877754 92.401674 
L 218.130149 89.096184 
L 214.330138 85.851075 
L 210.478695 82.66718 
L 206.576804 79.545313 
L 202.625464 76.486273 
L 198.625688 73.490843 
L 194.578499 70.559791 
L 190.484933 67.693865 
L 186.346039 64.893801 
L 182.162875 62.160315 
z
" clip-path="url(#pa60731a738)" style="fill: #808080; stroke: #000000; stroke-width: 3; stroke-linejoin: miter"/>
   </g>
   <g id="line2d_4">
    <path d="M 117.522154 324.969231 
L 117.416065 320.270514 
L 117.098977 315.592015 
L 116.574203 310.952177 
L 115.813942 306.187445 
L 114.81909 301.399994 
L 113.597898 296.655194 
L 112.255452 292.275771 
L 110.668942 287.821318 
L 108.827123 283.318028 
L 106.727075 278.804834 
L 104.631911 274.791854 
L 102.216602 270.631689 
L 99.534044 266.473059 
L 99.338378 266.186029 
L 99.338378 266.186029 
" clip-path="url(#pa60731a738)" style="fill: none; stroke: #808080; stroke-width: 2; stroke-linecap: square"/>
   </g>
   <g id="patch_4">
    <path d="M 104.777648 275.057703 
Q 102.058013 270.621866 100.507143 268.092332 
" clip-path="url(#pa60731a738)" style="fill: none; stroke: #808080; stroke-width: 2; stroke-linecap: round"/>
    <path d="M 101.471392 279.231013 
L 100.507143 268.092332 
L 109.996638 274.004141 
z
" clip-path="url(#pa60731a738)" style="fill: #808080; stroke: #808080; stroke-width: 2; stroke-linecap: round"/>
   </g>
   <g id="line2d_5">
    <path d="M 65.468682 324.969231 
L 65.381686 321.961014 
L 65.046072 318.349714 
L 64.485577 314.900387 
L 63.688516 311.472614 
L 62.676608 308.150235 
L 61.487639 305.004122 
L 60.067669 301.880012 
L 58.423521 298.819358 
L 56.568066 295.859182 
L 54.671269 293.228067 
L 52.416114 290.494698 
L 50.045767 287.985907 
L 47.591662 285.706856 
L 44.932253 283.541704 
L 42.252486 281.633616 
L 41.539821 281.167745 
L 41.539821 281.167745 
" clip-path="url(#pa60731a738)" style="fill: none; stroke: #808080; stroke-width: 2; stroke-linecap: square"/>
   </g>
   <g id="patch_5">
    <path d="M 45.772167 284.194346 
Q 43.655994 282.681045 43.358674 282.468428 
" clip-path="url(#pa60731a738)" style="fill: none; stroke: #808080; stroke-width: 2; stroke-linecap: round"/>
    <path d="M 48.584413 292.352336 
L 43.358674 282.468428 
L 54.401244 284.218181 
z
" clip-path="url(#pa60731a738)" style="fill: #808080; stroke: #808080; stroke-width: 2; stroke-linecap: round"/>
   </g>
   <g id="line2d_6">
    <path d="M 82.153745 277.942669 
L 79.61882 274.436413 
L 76.835022 270.983944 
L 73.981032 267.80049 
L 70.956815 264.757543 
L 67.773661 261.868973 
L 64.414649 259.124406 
L 60.985971 256.606183 
L 58.414588 254.886853 
L 58.414588 254.886853 
" clip-path="url(#pa60731a738)" style="fill: none; stroke: #000000; stroke-width: 2; stroke-linecap: square"/>
   </g>
   <g id="patch_6">
    <path d="M 13.415211 331.2 
L 13.415211 7.2 
" style="fill: none; stroke: #000000; stroke-width: 0.8; stroke-linejoin: miter; stroke-linecap: square"/>
   </g>
   <g id="patch_7">
    <path d="M 7.2 324.969231 
L 330.390947 324.969231 
" style="fill: none; stroke: #000000; stroke-width: 0.8; stroke-linejoin: miter; stroke-linecap: square"/>
   </g>
   <g id="text_1">
    <!-- $\theta_0$ -->
    <g style="fill: #808080" transform="translate(119.032848 309.666592) scale(0.2 -0.2)">
     <defs>
      <path id="Cmmi10-b5" d="M 1031 -72 
Q 741 -72 566 140 
Q 391 353 323 653 
Q 256 953 256 1247 
L 256 1253 
Q 256 1572 317 1915 
Q 378 2259 493 2601 
Q 609 2944 744 3213 
Q 838 3400 986 3631 
Q 1134 3863 1317 4064 
Q 1500 4266 1711 4389 
Q 1922 4513 2138 4513 
L 2144 4513 
Q 2375 4513 2529 4384 
Q 2684 4256 2770 4056 
Q 2856 3856 2890 3628 
Q 2925 3400 2925 3194 
Q 2925 2709 2794 2204 
Q 2663 1700 2431 1228 
Q 2344 1050 2189 809 
Q 2034 569 1861 378 
Q 1688 188 1472 58 
Q 1256 -72 1038 -72 
L 1031 -72 
z
M 1044 97 
Q 1256 97 1451 323 
Q 1647 550 1794 873 
Q 1941 1197 2052 1536 
Q 2163 1875 2216 2113 
L 909 2113 
Q 809 1709 753 1417 
Q 697 1125 697 844 
Q 697 97 1044 97 
z
M 959 2338 
L 2272 2338 
Q 2341 2619 2381 2808 
Q 2422 2997 2450 3206 
Q 2478 3416 2478 3597 
Q 2478 4347 2138 4347 
Q 1731 4347 1436 3692 
Q 1141 3038 959 2338 
z
" transform="scale(0.015625)"/>
      <path id="Cmr10-30" d="M 1600 -141 
Q 816 -141 533 504 
Q 250 1150 250 2041 
Q 250 2597 351 3087 
Q 453 3578 754 3920 
Q 1056 4263 1600 4263 
Q 2022 4263 2290 4056 
Q 2559 3850 2700 3523 
Q 2841 3197 2892 2823 
Q 2944 2450 2944 2041 
Q 2944 1491 2842 1011 
Q 2741 531 2444 195 
Q 2147 -141 1600 -141 
z
M 1600 25 
Q 1956 25 2131 390 
Q 2306 756 2347 1200 
Q 2388 1644 2388 2144 
Q 2388 2625 2347 3031 
Q 2306 3438 2132 3767 
Q 1959 4097 1600 4097 
Q 1238 4097 1063 3765 
Q 888 3434 847 3029 
Q 806 2625 806 2144 
Q 806 1788 823 1472 
Q 841 1156 916 820 
Q 991 484 1158 254 
Q 1325 25 1600 25 
z
" transform="scale(0.015625)"/>
     </defs>
     <use xlink:href="#Cmmi10-b5" transform="translate(0 0.484375)"/>
     <use xlink:href="#Cmr10-30" transform="translate(46.923828 -16.521875) scale(0.7)"/>
    </g>
   </g>
   <g id="text_2">
    <!-- $\theta_1$ -->
    <g style="fill: #808080" transform="translate(66.979376 309.666592) scale(0.2 -0.2)">
     <defs>
      <path id="Cmr10-31" d="M 594 0 
L 594 225 
Q 1394 225 1394 428 
L 1394 3788 
Q 1063 3628 556 3628 
L 556 3853 
Q 1341 3853 1741 4263 
L 1831 4263 
Q 1853 4263 1873 4245 
Q 1894 4228 1894 4206 
L 1894 428 
Q 1894 225 2694 225 
L 2694 0 
L 594 0 
z
" transform="scale(0.015625)"/>
     </defs>
     <use xlink:href="#Cmmi10-b5" transform="translate(0 0.484375)"/>
     <use xlink:href="#Cmr10-31" transform="translate(46.923828 -16.521875) scale(0.7)"/>
    </g>
   </g>
   <g id="text_3">
    <!-- $\Delta \theta$ -->
    <g transform="translate(73.190071 257.613121) scale(0.2 -0.2)">
     <defs>
      <path id="Cmr10-a2" d="M 347 0 
Q 294 0 294 50 
Q 297 56 298 59 
Q 300 63 300 72 
L 2503 4513 
Q 2531 4581 2619 4581 
L 2706 4581 
Q 2794 4581 2822 4513 
L 5025 72 
Q 5028 66 5029 61 
Q 5031 56 5031 50 
Q 5031 0 4978 0 
L 347 0 
z
M 769 513 
L 4141 513 
L 2456 3909 
L 769 513 
z
" transform="scale(0.015625)"/>
     </defs>
     <use xlink:href="#Cmr10-a2" transform="translate(0 0.421875)"/>
     <use xlink:href="#Cmmi10-b5" transform="translate(83.300781 0.421875)"/>
    </g>
   </g>
   <g id="text_4">
    <!-- $R_0$ -->
    <g style="fill: #808080" transform="translate(173.461546 233.742966) scale(0.2 -0.2)">
     <defs>
      <path id="Cmmi10-52" d="M 313 0 
Q 250 0 250 84 
Q 253 100 262 139 
Q 272 178 289 201 
Q 306 225 331 225 
Q 722 225 878 269 
Q 959 297 997 441 
L 1875 3956 
Q 1888 4019 1888 4044 
Q 1888 4113 1813 4122 
Q 1691 4147 1350 4147 
Q 1288 4147 1288 4231 
Q 1291 4247 1300 4286 
Q 1309 4325 1326 4348 
Q 1344 4372 1369 4372 
L 3309 4372 
Q 3541 4372 3791 4319 
Q 4041 4266 4250 4152 
Q 4459 4038 4593 3848 
Q 4728 3659 4728 3406 
Q 4728 3084 4515 2831 
Q 4303 2578 3978 2408 
Q 3653 2238 3347 2169 
Q 3597 2078 3756 1879 
Q 3916 1681 3916 1422 
Q 3916 1388 3914 1370 
Q 3913 1353 3909 1331 
L 3859 763 
Q 3853 638 3847 550 
Q 3841 463 3841 409 
Q 3841 234 3892 129 
Q 3944 25 4097 25 
Q 4297 25 4448 211 
Q 4600 397 4647 616 
Q 4675 672 4709 672 
L 4769 672 
Q 4831 672 4831 588 
Q 4784 403 4682 237 
Q 4581 72 4426 -34 
Q 4272 -141 4091 -141 
Q 3716 -141 3452 26 
Q 3188 194 3188 550 
Q 3188 684 3213 788 
L 3353 1356 
Q 3378 1434 3378 1538 
Q 3378 1803 3198 1954 
Q 3019 2106 2747 2106 
L 1959 2106 
L 1538 416 
Q 1522 363 1522 325 
Q 1522 259 1600 250 
Q 1722 225 2059 225 
Q 2125 225 2125 141 
Q 2103 50 2090 25 
Q 2078 0 2016 0 
L 313 0 
z
M 1997 2272 
L 2706 2272 
Q 3403 2272 3756 2625 
Q 3919 2788 4014 3039 
Q 4109 3291 4109 3541 
Q 4109 3778 3970 3912 
Q 3831 4047 3626 4097 
Q 3422 4147 3175 4147 
L 2747 4147 
Q 2572 4147 2515 4117 
Q 2459 4088 2413 3928 
L 1997 2272 
z
" transform="scale(0.015625)"/>
     </defs>
     <use xlink:href="#Cmmi10-52" transform="translate(0 0.6875)"/>
     <use xlink:href="#Cmr10-30" transform="translate(75.878906 -16.31875) scale(0.7)"/>
    </g>
   </g>
   <g id="text_5">
    <!-- $R_1$ -->
    <g style="fill: #808080" transform="translate(259.384714 174.959764) scale(0.2 -0.2)">
     <use xlink:href="#Cmmi10-52" transform="translate(0 0.6875)"/>
     <use xlink:href="#Cmr10-31" transform="translate(75.878906 -16.31875) scale(0.7)"/>
    </g>
   </g>
   <g id="text_6">
    <!-- $\Delta r$ -->
    <g transform="translate(120.316875 101.069857) scale(0.2 -0.2)">
     <defs>
      <path id="Cmmi10-72" d="M 494 109 
Q 494 147 500 166 
L 978 2075 
Q 1025 2253 1025 2388 
Q 1025 2663 838 2663 
Q 638 2663 541 2423 
Q 444 2184 353 1819 
Q 353 1800 334 1789 
Q 316 1778 300 1778 
L 225 1778 
Q 203 1778 187 1801 
Q 172 1825 172 1844 
Q 241 2122 305 2315 
Q 369 2509 505 2668 
Q 641 2828 844 2828 
Q 1066 2828 1233 2700 
Q 1400 2572 1441 2363 
Q 1603 2575 1811 2701 
Q 2019 2828 2266 2828 
Q 2469 2828 2623 2709 
Q 2778 2591 2778 2388 
Q 2778 2225 2676 2104 
Q 2575 1984 2406 1984 
Q 2303 1984 2233 2048 
Q 2163 2113 2163 2216 
Q 2163 2356 2266 2467 
Q 2369 2578 2503 2578 
Q 2400 2663 2253 2663 
Q 1978 2663 1775 2467 
Q 1572 2272 1409 1972 
L 953 141 
Q 931 53 854 -9 
Q 778 -72 684 -72 
Q 606 -72 550 -22 
Q 494 28 494 109 
z
" transform="scale(0.015625)"/>
     </defs>
     <use xlink:href="#Cmr10-a2" transform="translate(0 0.421875)"/>
     <use xlink:href="#Cmmi10-72" transform="translate(83.300781 0.421875)"/>
    </g>
   </g>
   <g id="text_7">
    <!-- $s_0$ -->
    <g transform="translate(139.168528 191.535176) scale(0.2 -0.2)">
     <defs>
      <path id="Cmmi10-73" d="M 556 391 
Q 728 97 1247 97 
Q 1472 97 1675 173 
Q 1878 250 2011 403 
Q 2144 556 2144 775 
Q 2144 941 2025 1047 
Q 1906 1153 1734 1191 
L 1388 1259 
Q 1150 1319 997 1481 
Q 844 1644 844 1875 
Q 844 2159 998 2378 
Q 1153 2597 1406 2712 
Q 1659 2828 1931 2828 
Q 2222 2828 2451 2689 
Q 2681 2550 2681 2278 
Q 2681 2131 2598 2018 
Q 2516 1906 2369 1906 
Q 2284 1906 2223 1961 
Q 2163 2016 2163 2100 
Q 2163 2175 2205 2245 
Q 2247 2316 2317 2358 
Q 2388 2400 2463 2400 
Q 2406 2538 2251 2600 
Q 2097 2663 1919 2663 
Q 1756 2663 1593 2597 
Q 1431 2531 1332 2404 
Q 1234 2278 1234 2106 
Q 1234 1991 1315 1903 
Q 1397 1816 1516 1778 
L 1888 1703 
Q 2066 1666 2214 1570 
Q 2363 1475 2448 1329 
Q 2534 1184 2534 997 
Q 2534 759 2401 528 
Q 2269 297 2075 159 
Q 1734 -72 1241 -72 
Q 900 -72 615 84 
Q 331 241 331 550 
Q 331 725 432 854 
Q 534 984 709 984 
Q 813 984 883 921 
Q 953 859 953 756 
Q 953 609 843 500 
Q 734 391 588 391 
L 556 391 
z
" transform="scale(0.015625)"/>
     </defs>
     <use xlink:href="#Cmmi10-73" transform="translate(0 0.8125)"/>
     <use xlink:href="#Cmr10-30" transform="translate(46.777344 -16.19375) scale(0.7)"/>
    </g>
   </g>
   <g id="text_8">
    <!-- $s_1$ -->
    <g transform="translate(232.521922 96.032037) scale(0.2 -0.2)">
     <use xlink:href="#Cmmi10-73" transform="translate(0 0.8125)"/>
     <use xlink:href="#Cmr10-31" transform="translate(46.777344 -16.19375) scale(0.7)"/>
    </g>
   </g>
   <g id="text_9">
    <!-- $\Delta A$ -->
    <g transform="translate(164.459531 155.573988) scale(0.25 -0.25)">
     <defs>
      <path id="Cmmi10-41" d="M 288 0 
Q 225 0 225 84 
Q 250 225 306 225 
Q 566 225 755 328 
Q 944 431 1081 647 
Q 1094 659 1094 659 
L 3378 4513 
Q 3428 4581 3500 4581 
L 3584 4581 
Q 3603 4581 3622 4573 
Q 3641 4566 3655 4548 
Q 3669 4531 3669 4513 
L 4056 378 
Q 4056 350 4084 294 
Q 4147 225 4563 225 
Q 4628 225 4628 141 
Q 4606 56 4592 28 
Q 4578 0 4519 0 
L 2919 0 
Q 2859 0 2859 84 
Q 2894 225 2944 225 
Q 3450 225 3481 397 
L 3384 1453 
L 1806 1453 
L 1294 594 
Q 1247 525 1247 434 
Q 1247 322 1355 273 
Q 1463 225 1594 225 
Q 1656 225 1656 141 
Q 1634 50 1621 25 
Q 1609 0 1550 0 
L 288 0 
z
M 1931 1678 
L 3359 1678 
L 3169 3750 
L 1931 1678 
z
" transform="scale(0.015625)"/>
     </defs>
     <use xlink:href="#Cmr10-a2" transform="translate(0 0.421875)"/>
     <use xlink:href="#Cmmi10-41" transform="translate(83.300781 0.421875)"/>
    </g>
   </g>
  </g>
 </g>
 <defs>
  <clipPath id="pa60731a738">
   <rect x="7.2" y="7.2" width="323.190947" height="324"/>
  </clipPath>
 </defs>
</svg>
