<?xml version="1.0" encoding="utf-8" standalone="no"?>
<!DOCTYPE svg PUBLIC "-//W3C//DTD SVG 1.1//EN"
  "http://www.w3.org/Graphics/SVG/1.1/DTD/svg11.dtd">
<svg xmlns:xlink="http://www.w3.org/1999/xlink" width="453.6pt" height="236.339797pt" viewBox="0 0 453.6 236.339797" xmlns="http://www.w3.org/2000/svg" version="1.1">
 <metadata>
  <rdf:RDF xmlns:dc="http://purl.org/dc/elements/1.1/" xmlns:cc="http://creativecommons.org/ns#" xmlns:rdf="http://www.w3.org/1999/02/22-rdf-syntax-ns#">
   <cc:Work>
    <dc:type rdf:resource="http://purl.org/dc/dcmitype/StillImage"/>
    <dc:date>2025-07-25T18:36:57.893083</dc:date>
    <dc:format>image/svg+xml</dc:format>
    <dc:creator>
     <cc:Agent>
      <dc:title>Matplotlib v3.10.3, https://matplotlib.org/</dc:title>
     </cc:Agent>
    </dc:creator>
   </cc:Work>
  </rdf:RDF>
 </metadata>
 <defs>
  <style type="text/css">*{stroke-linejoin: round; stroke-linecap: butt}</style>
 </defs>
 <g id="figure_1">
  <g id="patch_1">
   <path d="M 0 236.339797 
L 453.6 236.339797 
L 453.6 0 
L 0 0 
z
" style="fill: #ffffff"/>
  </g>
  <g id="axes_1">
   <g id="patch_2">
    <path d="M 7.2 229.139797 
L 446.4 229.139797 
L 446.4 7.2 
L 7.2 7.2 
z
" style="fill: #ffffff"/>
   </g>
   <g id="PathCollection_1">
    <path d="M 411.54758 52.085705 
C 412.485214 52.085705 413.384572 51.713179 414.04758 51.050171 
C 414.710587 50.387163 415.083114 49.487806 415.083114 48.550171 
C 415.083114 47.612536 414.710587 46.713179 414.04758 46.050171 
C 413.384572 45.387163 412.485214 45.014637 411.54758 45.014637 
C 410.609945 45.014637 409.710587 45.387163 409.04758 46.050171 
C 408.384572 46.713179 408.012046 47.612536 408.012046 48.550171 
C 408.012046 49.487806 408.384572 50.387163 409.04758 51.050171 
C 409.710587 51.713179 410.609945 52.085705 411.54758 52.085705 
z
" clip-path="url(#p50e9799611)"/>
   </g>
   <g id="matplotlib.axis_1"/>
   <g id="matplotlib.axis_2"/>
   <g id="line2d_1">
    <path d="M 437.953846 75.119058 
L 435.531224 71.926195 
L 431.595647 67.16939 
L 427.364758 62.549298 
L 423.122718 58.341905 
L 419.064959 54.654297 
L 416.983443 52.875624 
L 410.853794 48.02878 
L 406.701813 45.040592 
L 400.883715 41.202121 
L 394.08895 37.173206 
L 389.262054 34.57474 
L 382.232437 31.139876 
L 375.855501 28.348132 
L 368.492406 25.470612 
L 363.817544 23.82068 
L 355.529902 21.206482 
L 348.339284 19.236945 
L 341.19985 17.535415 
L 335.737349 16.39414 
L 329.661035 15.279581 
L 319.875932 13.808942 
L 310.302976 12.734272 
L 299.947948 11.951958 
L 291.342292 11.586356 
L 281.105578 11.47159 
L 273.801759 11.594183 
L 267.439195 11.83543 
L 257.345627 12.468036 
L 252.142992 12.911232 
L 244.880096 13.660578 
L 238.923029 14.387297 
L 226.926834 16.152751 
L 215.718284 18.162546 
L 205.352125 20.328689 
L 194.060666 23.024267 
L 186.160054 25.120052 
L 176.401744 27.949936 
L 165.850972 31.315428 
L 156.0093 34.749197 
L 145.480649 38.749349 
L 135.72174 42.772938 
L 125.738654 47.222036 
L 117.917519 50.958318 
L 110.414221 54.764433 
L 102.491756 59.036753 
L 94.25158 63.781808 
L 90.352605 66.143423 
L 84.089213 70.107921 
L 75.303228 76.062447 
L 70.689712 79.396532 
L 66.180322 82.811593 
L 60.915203 87.018199 
L 54.005573 92.956273 
L 48.038796 98.547048 
L 43.454273 103.205774 
L 39.611944 107.412087 
L 36.948481 110.524368 
L 33.364629 115.025852 
L 29.548446 120.329997 
L 26.28016 125.455779 
L 24.133245 129.241878 
L 21.740936 134.044753 
L 19.705581 138.901141 
L 18.634282 141.934395 
L 17.480073 145.86591 
L 16.540727 150.100499 
L 15.892505 154.673073 
L 15.650184 158.641297 
L 15.728613 162.783801 
L 16.145474 166.817259 
L 16.966132 171.061617 
L 18.034553 174.808546 
L 19.19078 177.944461 
L 20.856957 181.598585 
L 22.122774 183.953958 
L 24.266136 187.405951 
L 26.397749 190.371672 
L 29.205294 193.782717 
L 32.042563 196.812675 
L 34.485808 199.165839 
L 37.028626 201.413249 
L 41.70843 205.121346 
L 45.123279 207.545577 
L 50.469514 210.963901 
L 54.119232 213.078384 
L 58.501723 215.420903 
L 63.441136 217.840268 
L 69.285124 220.444772 
L 75.743727 223.046188 
L 80.699679 224.871724 
L 80.699679 224.871724 
" clip-path="url(#p50e9799611)" style="fill: none; stroke: #000000; stroke-width: 2; stroke-linecap: square"/>
   </g>
   <g id="patch_3">
    <path d="M 181.150859 26.539144 
Q 180.123859 26.840306 181.242572 26.51225 
" clip-path="url(#p50e9799611)" style="fill: none; stroke: #000000; stroke-width: 2; stroke-linecap: round"/>
    <path d="M 192.245467 28.496263 
L 181.242572 26.51225 
L 189.431519 18.900342 
z
" clip-path="url(#p50e9799611)" style="stroke: #000000; stroke-width: 2; stroke-linecap: round"/>
   </g>
   <g id="text_1">
    <!-- $P$ -->
    <g transform="translate(414.513025 35.138031) scale(0.2 -0.2)">
     <defs>
      <path id="Cmmi10-50" d="M 313 0 
Q 250 0 250 84 
Q 253 100 262 139 
Q 272 178 289 201 
Q 306 225 331 225 
Q 722 225 878 269 
Q 959 297 997 441 
L 1875 3956 
Q 1888 4019 1888 4044 
Q 1888 4113 1813 4122 
Q 1691 4147 1350 4147 
Q 1288 4147 1288 4231 
Q 1291 4247 1300 4286 
Q 1309 4325 1326 4348 
Q 1344 4372 1369 4372 
L 3578 4372 
Q 3881 4372 4165 4264 
Q 4450 4156 4631 3934 
Q 4813 3713 4813 3397 
Q 4813 2991 4527 2672 
Q 4241 2353 3814 2175 
Q 3388 1997 2988 1997 
L 1947 1997 
L 1556 416 
Q 1544 353 1544 325 
Q 1544 300 1551 283 
Q 1559 266 1573 261 
Q 1588 256 1619 250 
Q 1741 225 2081 225 
Q 2144 225 2144 141 
Q 2122 50 2109 25 
Q 2097 0 2034 0 
L 313 0 
z
M 1978 2188 
L 2875 2188 
Q 3497 2188 3822 2522 
Q 3988 2688 4092 3000 
Q 4197 3313 4197 3566 
Q 4197 3881 3956 4014 
Q 3716 4147 3359 4147 
L 2747 4147 
Q 2572 4147 2515 4117 
Q 2459 4088 2413 3928 
L 1978 2188 
z
" transform="scale(0.015625)"/>
     </defs>
     <use xlink:href="#Cmmi10-50" transform="translate(0 0.6875)"/>
    </g>
   </g>
  </g>
 </g>
 <defs>
  <clipPath id="p50e9799611">
   <rect x="7.2" y="7.2" width="439.2" height="221.939797"/>
  </clipPath>
 </defs>
</svg>
