<?xml version="1.0" encoding="utf-8" standalone="no"?>
<!DOCTYPE svg PUBLIC "-//W3C//DTD SVG 1.1//EN"
  "http://www.w3.org/Graphics/SVG/1.1/DTD/svg11.dtd">
<svg xmlns:xlink="http://www.w3.org/1999/xlink" width="338.4pt" height="338.4pt" viewBox="0 0 338.4 338.4" xmlns="http://www.w3.org/2000/svg" version="1.1">
 <metadata>
  <rdf:RDF xmlns:dc="http://purl.org/dc/elements/1.1/" xmlns:cc="http://creativecommons.org/ns#" xmlns:rdf="http://www.w3.org/1999/02/22-rdf-syntax-ns#">
   <cc:Work>
    <dc:type rdf:resource="http://purl.org/dc/dcmitype/StillImage"/>
    <dc:date>2025-11-05T14:57:04.951117</dc:date>
    <dc:format>image/svg+xml</dc:format>
    <dc:creator>
     <cc:Agent>
      <dc:title>Matplotlib v3.10.3, https://matplotlib.org/</dc:title>
     </cc:Agent>
    </dc:creator>
   </cc:Work>
  </rdf:RDF>
 </metadata>
 <defs>
  <style type="text/css">*{stroke-linejoin: round; stroke-linecap: butt}</style>
 </defs>
 <g id="figure_1">
  <g id="patch_1">
   <path d="M -0 338.4 
L 338.4 338.4 
L 338.4 0 
L -0 0 
z
" style="fill: #ffffff"/>
  </g>
  <g id="axes_1">
   <g id="patch_2">
    <path d="M 7.2 331.2 
L 331.2 331.2 
L 331.2 7.2 
L 7.2 7.2 
z
" style="fill: #ffffff"/>
   </g>
   <g id="patch_3">
    <path d="M 293.815385 169.2 
L 293.753894 173.114264 
L 293.569485 177.024665 
L 293.262337 180.927344 
L 292.832755 184.818449 
L 292.281162 188.694141 
L 291.608104 192.550595 
L 290.814243 196.384004 
L 289.900363 200.190586 
L 288.867367 203.966584 
L 287.716274 207.708272 
L 286.448219 211.411956 
L 285.064454 215.073983 
L 283.566346 218.690737 
L 281.955371 222.25865 
L 280.233121 225.774201 
L 278.401294 229.233919 
L 276.461699 232.634392 
L 274.416249 235.972262 
L 272.266964 239.244236 
L 270.015964 242.447085 
L 267.665471 245.577648 
L 265.217804 248.632836 
L 262.675379 251.609632 
L 260.040706 254.505101 
L 257.316384 257.316384 
L 254.505101 260.040706 
L 251.609632 262.675379 
L 248.632836 265.217804 
L 245.577648 267.665471 
L 242.447085 270.015964 
L 239.244236 272.266964 
L 235.972262 274.416249 
L 232.634392 276.461699 
L 229.233919 278.401294 
L 225.774201 280.233121 
L 222.25865 281.955371 
L 218.690737 283.566346 
L 215.073983 285.064454 
L 211.411956 286.448219 
L 207.708272 287.716274 
L 203.966584 288.867367 
L 200.190586 289.900363 
L 196.384004 290.814243 
L 192.550595 291.608104 
L 188.694141 292.281162 
L 184.818449 292.832755 
L 180.927344 293.262337 
L 177.024665 293.569485 
L 173.114264 293.753894 
L 169.2 293.815385 
L 165.285736 293.753894 
L 161.375335 293.569485 
L 157.472656 293.262337 
L 153.581551 292.832755 
L 149.705859 292.281162 
L 145.849405 291.608104 
L 142.015996 290.814243 
L 138.209414 289.900363 
L 134.433416 288.867367 
L 130.691728 287.716274 
L 126.988044 286.448219 
L 123.326017 285.064454 
L 119.709263 283.566346 
L 116.14135 281.955371 
L 112.625799 280.233121 
L 109.166081 278.401294 
L 105.765608 276.461699 
L 102.427738 274.416249 
L 99.155764 272.266964 
L 95.952915 270.015964 
L 92.822352 267.665471 
L 89.767164 265.217804 
L 86.790368 262.675379 
L 83.894899 260.040706 
L 81.083616 257.316384 
L 78.359294 254.505101 
L 75.724621 251.609632 
L 73.182196 248.632836 
L 70.734529 245.577648 
L 68.384036 242.447085 
L 66.133036 239.244236 
L 63.983751 235.972262 
L 61.938301 232.634392 
L 59.998706 229.233919 
L 58.166879 225.774201 
L 56.444629 222.25865 
L 54.833654 218.690737 
L 53.335546 215.073983 
L 51.951781 211.411956 
L 50.683726 207.708272 
L 49.532633 203.966584 
L 48.499637 200.190586 
L 47.585757 196.384004 
L 46.791896 192.550595 
L 46.118838 188.694141 
L 45.567245 184.818449 
L 45.137663 180.927344 
L 44.830515 177.024665 
L 44.646106 173.114264 
L 44.584615 169.2 
L 44.646106 165.285736 
L 44.830515 161.375335 
L 45.137663 157.472656 
L 45.567245 153.581551 
L 46.118838 149.705859 
L 46.791896 145.849405 
L 47.585757 142.015996 
L 48.499637 138.209414 
L 49.532633 134.433416 
L 50.683726 130.691728 
L 51.951781 126.988044 
L 53.335546 123.326017 
L 54.833654 119.709263 
L 56.444629 116.14135 
L 58.166879 112.625799 
L 59.998706 109.166081 
L 61.938301 105.765608 
L 63.983751 102.427738 
L 66.133036 99.155764 
L 68.384036 95.952915 
L 70.734529 92.822352 
L 73.182196 89.767164 
L 75.724621 86.790368 
L 78.359294 83.894899 
L 81.083616 81.083616 
L 83.894899 78.359294 
L 86.790368 75.724621 
L 89.767164 73.182196 
L 92.822352 70.734529 
L 95.952915 68.384036 
L 99.155764 66.133036 
L 102.427738 63.983751 
L 105.765608 61.938301 
L 109.166081 59.998706 
L 112.625799 58.166879 
L 116.14135 56.444629 
L 119.709263 54.833654 
L 123.326017 53.335546 
L 126.988044 51.951781 
L 130.691728 50.683726 
L 134.433416 49.532633 
L 138.209414 48.499637 
L 142.015996 47.585757 
L 145.849405 46.791896 
L 149.705859 46.118838 
L 153.581551 45.567245 
L 157.472656 45.137663 
L 161.375335 44.830515 
L 165.285736 44.646106 
L 169.2 44.584615 
L 173.114264 44.646106 
L 177.024665 44.830515 
L 180.927344 45.137663 
L 184.818449 45.567245 
L 188.694141 46.118838 
L 192.550595 46.791896 
L 196.384004 47.585757 
L 200.190586 48.499637 
L 203.966584 49.532633 
L 207.708272 50.683726 
L 211.411956 51.951781 
L 215.073983 53.335546 
L 218.690737 54.833654 
L 222.25865 56.444629 
L 225.774201 58.166879 
L 229.233919 59.998706 
L 232.634392 61.938301 
L 235.972262 63.983751 
L 239.244236 66.133036 
L 242.447085 68.384036 
L 245.577648 70.734529 
L 248.632836 73.182196 
L 251.609632 75.724621 
L 254.505101 78.359294 
L 257.316384 81.083616 
L 260.040706 83.894899 
L 262.675379 86.790368 
L 265.217804 89.767164 
L 267.665471 92.822352 
L 270.015964 95.952915 
L 272.266964 99.155764 
L 274.416249 102.427738 
L 276.461699 105.765608 
L 278.401294 109.166081 
L 280.233121 112.625799 
L 281.955371 116.14135 
L 283.566346 119.709263 
L 285.064454 123.326017 
L 286.448219 126.988044 
L 287.716274 130.691728 
L 288.867367 134.433416 
L 289.900363 138.209414 
L 290.814243 142.015996 
L 291.608104 145.849405 
L 292.281162 149.705859 
L 292.832755 153.581551 
L 293.262337 157.472656 
L 293.569485 161.375335 
L 293.753894 165.285736 
L 293.815385 169.2 
L 324.969231 169.2 
L 324.892368 164.30717 
L 324.661856 159.419169 
L 324.277921 154.54082 
L 323.740944 149.676939 
L 323.051453 144.832324 
L 322.210129 140.011757 
L 321.217803 135.219995 
L 320.075454 130.461768 
L 318.784209 125.74177 
L 317.345342 121.06466 
L 315.760274 116.435055 
L 314.030568 111.857522 
L 312.157932 107.336579 
L 310.144214 102.876687 
L 307.991401 98.482249 
L 305.701617 94.157601 
L 303.277123 89.90701 
L 300.720311 85.734672 
L 298.033705 81.644705 
L 295.219955 77.641143 
L 292.281838 73.72794 
L 289.222255 69.908955 
L 286.044224 66.187959 
L 282.750882 62.568624 
L 279.345479 59.054521 
L 275.831376 55.649118 
L 272.212041 52.355776 
L 268.491045 49.177745 
L 264.67206 46.118162 
L 260.758857 43.180045 
L 256.755295 40.366295 
L 252.665328 37.679689 
L 248.49299 35.122877 
L 244.242399 32.698383 
L 239.917751 30.408599 
L 235.523313 28.255786 
L 231.063421 26.242068 
L 226.542478 24.369432 
L 221.964945 22.639726 
L 217.33534 21.054658 
L 212.65823 19.615791 
L 207.938232 18.324546 
L 203.180005 17.182197 
L 198.388243 16.189871 
L 193.567676 15.348547 
L 188.723061 14.659056 
L 183.85918 14.122079 
L 178.980831 13.738144 
L 174.09283 13.507632 
L 169.2 13.430769 
L 164.30717 13.507632 
L 159.419169 13.738144 
L 154.54082 14.122079 
L 149.676939 14.659056 
L 144.832324 15.348547 
L 140.011757 16.189871 
L 135.219995 17.182197 
L 130.461768 18.324546 
L 125.74177 19.615791 
L 121.06466 21.054658 
L 116.435055 22.639726 
L 111.857522 24.369432 
L 107.336579 26.242068 
L 102.876687 28.255786 
L 98.482249 30.408599 
L 94.157601 32.698383 
L 89.90701 35.122877 
L 85.734672 37.679689 
L 81.644705 40.366295 
L 77.641143 43.180045 
L 73.72794 46.118162 
L 69.908955 49.177745 
L 66.187959 52.355776 
L 62.568624 55.649118 
L 59.054521 59.054521 
L 55.649118 62.568624 
L 52.355776 66.187959 
L 49.177745 69.908955 
L 46.118162 73.72794 
L 43.180045 77.641143 
L 40.366295 81.644705 
L 37.679689 85.734672 
L 35.122877 89.90701 
L 32.698383 94.157601 
L 30.408599 98.482249 
L 28.255786 102.876687 
L 26.242068 107.336579 
L 24.369432 111.857522 
L 22.639726 116.435055 
L 21.054658 121.06466 
L 19.615791 125.74177 
L 18.324546 130.461768 
L 17.182197 135.219995 
L 16.189871 140.011757 
L 15.348547 144.832324 
L 14.659056 149.676939 
L 14.122079 154.54082 
L 13.738144 159.419169 
L 13.507632 164.30717 
L 13.430769 169.2 
L 13.507632 174.09283 
L 13.738144 178.980831 
L 14.122079 183.85918 
L 14.659056 188.723061 
L 15.348547 193.567676 
L 16.189871 198.388243 
L 17.182197 203.180005 
L 18.324546 207.938232 
L 19.615791 212.65823 
L 21.054658 217.33534 
L 22.639726 221.964945 
L 24.369432 226.542478 
L 26.242068 231.063421 
L 28.255786 235.523313 
L 30.408599 239.917751 
L 32.698383 244.242399 
L 35.122877 248.49299 
L 37.679689 252.665328 
L 40.366295 256.755295 
L 43.180045 260.758857 
L 46.118162 264.67206 
L 49.177745 268.491045 
L 52.355776 272.212041 
L 55.649118 275.831376 
L 59.054521 279.345479 
L 62.568624 282.750882 
L 66.187959 286.044224 
L 69.908955 289.222255 
L 73.72794 292.281838 
L 77.641143 295.219955 
L 81.644705 298.033705 
L 85.734672 300.720311 
L 89.90701 303.277123 
L 94.157601 305.701617 
L 98.482249 307.991401 
L 102.876687 310.144214 
L 107.336579 312.157932 
L 111.857522 314.030568 
L 116.435055 315.760274 
L 121.06466 317.345342 
L 125.74177 318.784209 
L 130.461768 320.075454 
L 135.219995 321.217803 
L 140.011757 322.210129 
L 144.832324 323.051453 
L 149.676939 323.740944 
L 154.54082 324.277921 
L 159.419169 324.661856 
L 164.30717 324.892368 
L 169.2 324.969231 
L 174.09283 324.892368 
L 178.980831 324.661856 
L 183.85918 324.277921 
L 188.723061 323.740944 
L 193.567676 323.051453 
L 198.388243 322.210129 
L 203.180005 321.217803 
L 207.938232 320.075454 
L 212.65823 318.784209 
L 217.33534 317.345342 
L 221.964945 315.760274 
L 226.542478 314.030568 
L 231.063421 312.157932 
L 235.523313 310.144214 
L 239.917751 307.991401 
L 244.242399 305.701617 
L 248.49299 303.277123 
L 252.665328 300.720311 
L 256.755295 298.033705 
L 260.758857 295.219955 
L 264.67206 292.281838 
L 268.491045 289.222255 
L 272.212041 286.044224 
L 275.831376 282.750882 
L 279.345479 279.345479 
L 282.750882 275.831376 
L 286.044224 272.212041 
L 289.222255 268.491045 
L 292.281838 264.67206 
L 295.219955 260.758857 
L 298.033705 256.755295 
L 300.720311 252.665328 
L 303.277123 248.49299 
L 305.701617 244.242399 
L 307.991401 239.917751 
L 310.144214 235.523313 
L 312.157932 231.063421 
L 314.030568 226.542478 
L 315.760274 221.964945 
L 317.345342 217.33534 
L 318.784209 212.65823 
L 320.075454 207.938232 
L 321.217803 203.180005 
L 322.210129 198.388243 
L 323.051453 193.567676 
L 323.740944 188.723061 
L 324.277921 183.85918 
L 324.661856 178.980831 
L 324.892368 174.09283 
L 324.969231 169.2 
z
" clip-path="url(#peef0ea00bb)" style="fill: #808080"/>
   </g>
   <g id="matplotlib.axis_1"/>
   <g id="matplotlib.axis_2"/>
   <g id="line2d_1">
    <path d="M 293.815385 169.2 
L 293.682031 163.436487 
L 293.316771 158.063516 
L 292.792673 153.267482 
L 292.137917 148.822007 
L 291.012921 142.920611 
L 289.95609 138.427271 
L 287.976996 131.503591 
L 286.048991 125.895182 
L 284.558136 122.067266 
L 282.907888 118.214608 
L 280.144706 112.45261 
L 278.52497 109.391597 
L 274.913482 103.217776 
L 271.405426 97.904523 
L 267.508759 92.620747 
L 263.732967 88.005713 
L 259.051554 82.853649 
L 255.376854 79.185869 
L 252.645248 76.647935 
L 247.672028 72.395377 
L 245.881327 70.970838 
L 241.928805 68.009512 
L 238.304798 65.500815 
L 232.026406 61.581057 
L 228.603174 59.654315 
L 223.48878 57.031723 
L 219.277657 55.089429 
L 211.902154 52.129423 
L 204.169905 49.591891 
L 199.392827 48.297612 
L 194.333589 47.145517 
L 187.507802 45.936792 
L 181.87168 45.230558 
L 177.076858 44.83381 
L 169.316718 44.58467 
L 162.931719 44.742366 
L 159.55848 44.958159 
L 154.241528 45.485659 
L 147.788485 46.437868 
L 141.847468 47.62355 
L 133.894837 49.690421 
L 128.401415 51.452518 
L 124.684837 52.806726 
L 119.46279 54.940628 
L 115.479252 56.758569 
L 111.479856 58.758255 
L 105.298502 62.215923 
L 100.657285 65.128437 
L 97.839815 67.039743 
L 94.524613 69.437378 
L 90.4536 72.618436 
L 86.568879 75.920356 
L 80.559783 81.610583 
L 78.587477 83.652558 
L 75.592525 86.940443 
L 71.922618 91.314796 
L 67.355483 97.389915 
L 65.002017 100.84962 
L 62.619731 104.627248 
L 59.589413 109.91667 
L 57.217003 114.530059 
L 55.317027 118.606893 
L 53.053723 124.044308 
L 51.074249 129.509938 
L 48.927005 136.590173 
L 47.273465 143.452879 
L 46.110799 149.756682 
L 45.433252 154.681524 
L 44.749892 162.784033 
L 44.612254 166.575558 
L 44.58967 170.322367 
L 44.887593 177.884446 
L 45.417613 183.58453 
L 46.491039 190.914166 
L 47.75557 197.132859 
L 49.056442 202.283523 
L 50.093479 205.841926 
L 52.347635 212.495715 
L 53.495729 215.476513 
L 56.711095 222.821268 
L 58.515194 226.452666 
L 61.124394 231.237549 
L 63.049742 234.47723 
L 65.443218 238.21829 
L 69.38244 243.801936 
L 73.817733 249.39487 
L 78.258072 254.397182 
L 82.816034 259.015392 
L 88.082749 263.799079 
L 91.103603 266.307913 
L 94.774775 269.149387 
L 100.04709 272.867107 
L 108.260543 277.898559 
L 113.65306 280.750579 
L 119.415149 283.438622 
L 123.117042 284.981497 
L 128.463946 286.96913 
L 135.689461 289.225155 
L 139.255643 290.164166 
L 146.760436 291.778383 
L 156.693042 293.186169 
L 163.368765 293.678877 
L 168.748559 293.814567 
L 175.33867 293.664094 
L 182.185929 293.136918 
L 187.883917 292.406758 
L 192.542246 291.609696 
L 198.121046 290.4129 
L 202.26253 289.349337 
L 208.758737 287.369795 
L 215.190173 285.018384 
L 216.400106 284.530586 
L 221.148059 282.471326 
L 227.474395 279.350302 
L 234.511979 275.328881 
L 237.844304 273.204584 
L 241.437617 270.741719 
L 244.358683 268.599026 
L 249.43092 264.551945 
L 252.782236 261.628371 
L 258.763752 255.844841 
L 263.775139 250.345162 
L 268.666066 244.269939 
L 272.198354 239.345086 
L 275.13838 234.820528 
L 276.898735 231.889525 
L 278.961856 228.202788 
L 281.9263 222.320385 
L 285.0472 215.117538 
L 287.546792 208.226027 
L 289.488367 201.753077 
L 291.107866 195.035369 
L 291.977057 190.525765 
L 292.711495 185.750069 
L 293.515729 177.836761 
L 293.746528 173.342031 
L 293.815385 169.2 
L 293.815385 169.2 
" clip-path="url(#peef0ea00bb)" style="fill: none; stroke: #000000; stroke-width: 3; stroke-linecap: square"/>
   </g>
   <g id="line2d_2">
    <path d="M 324.969231 169.2 
L 324.80626 162.076451 
L 324.473662 156.784563 
L 324.022322 152.050606 
L 323.116751 145.248238 
L 321.845315 138.160329 
L 320.015303 130.228247 
L 318.969427 126.384443 
L 317.24813 120.766495 
L 315.916606 116.871321 
L 314.421684 112.855384 
L 312.880619 109.034121 
L 311.181807 105.12801 
L 309.376826 101.26981 
L 307.246266 97.038503 
L 304.818352 92.572878 
L 301.853314 87.547372 
L 298.290312 82.023486 
L 293.1702 74.884345 
L 289.017199 69.661605 
L 285.59357 65.679035 
L 281.761806 61.525058 
L 278.863796 58.574935 
L 274.273227 54.205782 
L 268.224893 48.958061 
L 264.606629 46.067436 
L 261.132201 43.452142 
L 256.923253 40.480599 
L 247.623969 34.612726 
L 244.719118 32.961547 
L 238.943656 29.916563 
L 235.265348 28.134685 
L 230.012075 25.791685 
L 226.378416 24.304583 
L 220.725733 22.199483 
L 216.046682 20.642127 
L 210.28669 18.947089 
L 206.494986 17.961323 
L 198.360012 16.184488 
L 194.423246 15.486497 
L 189.382503 14.743793 
L 182.678079 14.014966 
L 178.35473 13.700019 
L 170.601602 13.437075 
L 165.062226 13.485736 
L 155.267656 14.05509 
L 148.726584 14.782085 
L 143.225005 15.611742 
L 138.654307 16.455069 
L 128.917215 18.72957 
L 121.274069 20.986781 
L 112.908474 23.957729 
L 105.082049 27.238943 
L 99.078091 30.10661 
L 93.896073 32.842485 
L 87.696421 36.455057 
L 84.342739 38.573439 
L 79.146453 42.099993 
L 75.59578 44.691754 
L 70.368763 48.798838 
L 65.342721 53.106422 
L 62.751341 55.477811 
L 58.885177 59.224125 
L 54.028586 64.321028 
L 49.076052 70.03201 
L 44.376992 76.015935 
L 42.162203 79.058715 
L 37.802738 85.541092 
L 33.28155 93.106452 
L 31.517509 96.346827 
L 27.228054 105.106165 
L 25.84063 108.27263 
L 23.700425 113.576922 
L 20.70709 122.147806 
L 18.572069 129.510208 
L 17.386748 134.317487 
L 16.530573 138.279146 
L 15.358687 144.768386 
L 14.678506 149.523592 
L 13.906656 157.033223 
L 13.606311 161.806955 
L 13.466186 165.878469 
L 13.492091 173.570398 
L 13.825723 180.285459 
L 14.589737 188.166283 
L 15.424267 194.041041 
L 16.449317 199.716917 
L 18.099265 207.049983 
L 18.929752 210.223234 
L 21.452463 218.542868 
L 23.397144 224.023173 
L 25.193246 228.581041 
L 27.787892 234.519744 
L 30.718936 240.523545 
L 35.166875 248.567339 
L 38.879226 254.526134 
L 40.802629 257.393924 
L 44.883399 263.058596 
L 50.556552 270.13456 
L 53.228948 273.194079 
L 56.274185 276.493119 
L 59.413233 279.703027 
L 63.761635 283.859516 
L 67.406689 287.107485 
L 73.568582 292.158063 
L 77.559185 295.160368 
L 80.95514 297.56237 
L 86.45446 301.17435 
L 92.946979 305.029047 
L 99.623993 308.567258 
L 105.643991 311.413526 
L 114.341425 314.98954 
L 121.608673 317.520999 
L 129.667377 319.869257 
L 137.857489 321.783421 
L 142.812642 322.717949 
L 147.214764 323.40993 
L 157.316779 324.5153 
L 162.852169 324.839835 
L 166.88209 324.951984 
L 175.510909 324.841337 
L 186.275212 324.030522 
L 192.50467 323.216056 
L 196.958813 322.4759 
L 203.283919 321.194538 
L 210.083173 319.508414 
L 217.480466 317.298109 
L 221.085946 316.073762 
L 226.249067 314.146394 
L 230.262804 312.501735 
L 236.418021 309.719717 
L 239.841813 308.030067 
L 243.793682 305.947343 
L 248.966657 302.995866 
L 254.819752 299.328057 
L 258.323485 296.953895 
L 261.761422 294.485419 
L 266.637896 290.731517 
L 270.037087 287.926303 
L 274.014781 284.429835 
L 278.083026 280.593626 
L 284.928101 273.464375 
L 290.675806 266.707342 
L 294.116832 262.258253 
L 296.65856 258.745344 
L 299.179931 255.044457 
L 302.936137 249.066757 
L 306.967711 241.891891 
L 309.547452 236.776964 
L 313.023577 229.023339 
L 315.323771 223.161995 
L 317.000556 218.383827 
L 319.430851 210.367275 
L 321.082948 203.777787 
L 322.128212 198.814441 
L 323.507615 190.488802 
L 324.038649 186.201356 
L 324.696345 178.416283 
L 324.883262 174.374461 
L 324.969231 169.2 
L 324.969231 169.2 
" clip-path="url(#peef0ea00bb)" style="fill: none; stroke: #000000; stroke-width: 3; stroke-linecap: square"/>
   </g>
   <g id="line2d_3">
    <path d="M 253.362475 38.124712 
L 169.2 169.2 
L 272.049515 98.836861 
" clip-path="url(#peef0ea00bb)" style="fill: none; stroke: #000000; stroke-width: 2; stroke-linecap: square"/>
   </g>
   <g id="patch_4">
    <path d="M 169.2 331.2 
L 169.2 7.2 
" style="fill: none; stroke: #000000; stroke-width: 0.8; stroke-linejoin: miter; stroke-linecap: square"/>
   </g>
   <g id="patch_5">
    <path d="M 7.2 169.2 
L 331.2 169.2 
" style="fill: none; stroke: #000000; stroke-width: 0.8; stroke-linejoin: miter; stroke-linecap: square"/>
   </g>
   <g id="text_1">
    <!-- $R_0$ -->
    <g transform="translate(270.63413 93.970996) scale(0.2 -0.2)">
     <defs>
      <path id="Cmmi10-52" d="M 313 0 
Q 250 0 250 84 
Q 253 100 262 139 
Q 272 178 289 201 
Q 306 225 331 225 
Q 722 225 878 269 
Q 959 297 997 441 
L 1875 3956 
Q 1888 4019 1888 4044 
Q 1888 4113 1813 4122 
Q 1691 4147 1350 4147 
Q 1288 4147 1288 4231 
Q 1291 4247 1300 4286 
Q 1309 4325 1326 4348 
Q 1344 4372 1369 4372 
L 3309 4372 
Q 3541 4372 3791 4319 
Q 4041 4266 4250 4152 
Q 4459 4038 4593 3848 
Q 4728 3659 4728 3406 
Q 4728 3084 4515 2831 
Q 4303 2578 3978 2408 
Q 3653 2238 3347 2169 
Q 3597 2078 3756 1879 
Q 3916 1681 3916 1422 
Q 3916 1388 3914 1370 
Q 3913 1353 3909 1331 
L 3859 763 
Q 3853 638 3847 550 
Q 3841 463 3841 409 
Q 3841 234 3892 129 
Q 3944 25 4097 25 
Q 4297 25 4448 211 
Q 4600 397 4647 616 
Q 4675 672 4709 672 
L 4769 672 
Q 4831 672 4831 588 
Q 4784 403 4682 237 
Q 4581 72 4426 -34 
Q 4272 -141 4091 -141 
Q 3716 -141 3452 26 
Q 3188 194 3188 550 
Q 3188 684 3213 788 
L 3353 1356 
Q 3378 1434 3378 1538 
Q 3378 1803 3198 1954 
Q 3019 2106 2747 2106 
L 1959 2106 
L 1538 416 
Q 1522 363 1522 325 
Q 1522 259 1600 250 
Q 1722 225 2059 225 
Q 2125 225 2125 141 
Q 2103 50 2090 25 
Q 2078 0 2016 0 
L 313 0 
z
M 1997 2272 
L 2706 2272 
Q 3403 2272 3756 2625 
Q 3919 2788 4014 3039 
Q 4109 3291 4109 3541 
Q 4109 3778 3970 3912 
Q 3831 4047 3626 4097 
Q 3422 4147 3175 4147 
L 2747 4147 
Q 2572 4147 2515 4117 
Q 2459 4088 2413 3928 
L 1997 2272 
z
" transform="scale(0.015625)"/>
      <path id="Cmr10-30" d="M 1600 -141 
Q 816 -141 533 504 
Q 250 1150 250 2041 
Q 250 2597 351 3087 
Q 453 3578 754 3920 
Q 1056 4263 1600 4263 
Q 2022 4263 2290 4056 
Q 2559 3850 2700 3523 
Q 2841 3197 2892 2823 
Q 2944 2450 2944 2041 
Q 2944 1491 2842 1011 
Q 2741 531 2444 195 
Q 2147 -141 1600 -141 
z
M 1600 25 
Q 1956 25 2131 390 
Q 2306 756 2347 1200 
Q 2388 1644 2388 2144 
Q 2388 2625 2347 3031 
Q 2306 3438 2132 3767 
Q 1959 4097 1600 4097 
Q 1238 4097 1063 3765 
Q 888 3434 847 3029 
Q 806 2625 806 2144 
Q 806 1788 823 1472 
Q 841 1156 916 820 
Q 991 484 1158 254 
Q 1325 25 1600 25 
z
" transform="scale(0.015625)"/>
     </defs>
     <use xlink:href="#Cmmi10-52" transform="translate(0 0.6875)"/>
     <use xlink:href="#Cmr10-30" transform="translate(75.878906 -16.31875) scale(0.7)"/>
    </g>
   </g>
   <g id="text_2">
    <!-- $R_1$ -->
    <g transform="translate(251.94709 33.258847) scale(0.2 -0.2)">
     <defs>
      <path id="Cmr10-31" d="M 594 0 
L 594 225 
Q 1394 225 1394 428 
L 1394 3788 
Q 1063 3628 556 3628 
L 556 3853 
Q 1341 3853 1741 4263 
L 1831 4263 
Q 1853 4263 1873 4245 
Q 1894 4228 1894 4206 
L 1894 428 
Q 1894 225 2694 225 
L 2694 0 
L 594 0 
z
" transform="scale(0.015625)"/>
     </defs>
     <use xlink:href="#Cmmi10-52" transform="translate(0 0.6875)"/>
     <use xlink:href="#Cmr10-31" transform="translate(75.878906 -16.31875) scale(0.7)"/>
    </g>
   </g>
  </g>
 </g>
 <defs>
  <clipPath id="peef0ea00bb">
   <rect x="7.2" y="7.2" width="324" height="324"/>
  </clipPath>
 </defs>
</svg>
