<?xml version="1.0" encoding="utf-8" standalone="no"?>
<!DOCTYPE svg PUBLIC "-//W3C//DTD SVG 1.1//EN"
  "http://www.w3.org/Graphics/SVG/1.1/DTD/svg11.dtd">
<svg xmlns:xlink="http://www.w3.org/1999/xlink" width="335.98pt" height="339.0825pt" viewBox="0 0 335.98 339.0825" xmlns="http://www.w3.org/2000/svg" version="1.1">
 <metadata>
  <rdf:RDF xmlns:dc="http://purl.org/dc/elements/1.1/" xmlns:cc="http://creativecommons.org/ns#" xmlns:rdf="http://www.w3.org/1999/02/22-rdf-syntax-ns#">
   <cc:Work>
    <dc:type rdf:resource="http://purl.org/dc/dcmitype/StillImage"/>
    <dc:date>2025-07-25T14:50:37.573096</dc:date>
    <dc:format>image/svg+xml</dc:format>
    <dc:creator>
     <cc:Agent>
      <dc:title>Matplotlib v3.10.3, https://matplotlib.org/</dc:title>
     </cc:Agent>
    </dc:creator>
   </cc:Work>
  </rdf:RDF>
 </metadata>
 <defs>
  <style type="text/css">*{stroke-linejoin: round; stroke-linecap: butt}</style>
 </defs>
 <g id="figure_1">
  <g id="patch_1">
   <path d="M 0 339.0825 
L 335.98 339.0825 
L 335.98 0 
L 0 0 
z
" style="fill: #ffffff"/>
  </g>
  <g id="axes_1">
   <g id="patch_2">
    <path d="M 7.2 331.8825 
L 315.64 331.8825 
L 315.64 23.4425 
L 7.2 23.4425 
z
" style="fill: #ffffff"/>
   </g>
   <g id="matplotlib.axis_1">
    <g id="text_1">
     <!-- $x$ -->
     <g transform="translate(323.64 311.828251) scale(0.16 -0.16)">
      <defs>
       <path id="Cmmi10-78" d="M 500 184 
Q 613 97 819 97 
Q 1019 97 1172 289 
Q 1325 481 1381 709 
L 1672 1844 
Q 1741 2153 1741 2266 
Q 1741 2425 1652 2544 
Q 1563 2663 1403 2663 
Q 1200 2663 1022 2536 
Q 844 2409 722 2214 
Q 600 2019 550 1819 
Q 538 1778 500 1778 
L 422 1778 
Q 372 1778 372 1838 
L 372 1856 
Q 434 2094 584 2320 
Q 734 2547 951 2687 
Q 1169 2828 1416 2828 
Q 1650 2828 1839 2703 
Q 2028 2578 2106 2363 
Q 2216 2559 2386 2693 
Q 2556 2828 2759 2828 
Q 2897 2828 3040 2779 
Q 3184 2731 3275 2631 
Q 3366 2531 3366 2381 
Q 3366 2219 3261 2101 
Q 3156 1984 2994 1984 
Q 2891 1984 2822 2050 
Q 2753 2116 2753 2216 
Q 2753 2350 2845 2451 
Q 2938 2553 3066 2572 
Q 2950 2663 2747 2663 
Q 2541 2663 2389 2472 
Q 2238 2281 2175 2047 
L 1894 916 
Q 1825 659 1825 494 
Q 1825 331 1917 214 
Q 2009 97 2163 97 
Q 2463 97 2698 361 
Q 2934 625 3009 941 
Q 3022 978 3059 978 
L 3138 978 
Q 3163 978 3178 961 
Q 3194 944 3194 922 
Q 3194 916 3188 903 
Q 3097 522 2806 225 
Q 2516 -72 2150 -72 
Q 1916 -72 1727 54 
Q 1538 181 1459 397 
Q 1359 209 1182 68 
Q 1006 -72 806 -72 
Q 669 -72 523 -23 
Q 378 25 287 125 
Q 197 225 197 378 
Q 197 528 301 651 
Q 406 775 563 775 
Q 669 775 741 711 
Q 813 647 813 544 
Q 813 409 723 309 
Q 634 209 500 184 
z
" transform="scale(0.015625)"/>
      </defs>
      <use xlink:href="#Cmmi10-78" transform="translate(0 0.8125)"/>
     </g>
    </g>
   </g>
   <g id="matplotlib.axis_2">
    <g id="text_2">
     <!-- $y$ -->
     <g transform="translate(23.254249 12.0825) scale(0.16 -0.16)">
      <defs>
       <path id="Cmmi10-79" d="M 538 -916 
Q 672 -1147 1006 -1147 
Q 1309 -1147 1531 -934 
Q 1753 -722 1889 -420 
Q 2025 -119 2100 197 
Q 1816 -72 1484 -72 
Q 1231 -72 1053 15 
Q 875 103 776 276 
Q 678 450 678 697 
Q 678 906 734 1126 
Q 791 1347 892 1617 
Q 994 1888 1069 2088 
Q 1153 2322 1153 2472 
Q 1153 2663 1013 2663 
Q 759 2663 595 2402 
Q 431 2141 353 1819 
Q 341 1778 300 1778 
L 225 1778 
Q 172 1778 172 1838 
L 172 1856 
Q 275 2238 487 2533 
Q 700 2828 1025 2828 
Q 1253 2828 1411 2678 
Q 1569 2528 1569 2297 
Q 1569 2178 1516 2047 
Q 1488 1969 1388 1706 
Q 1288 1444 1234 1272 
Q 1181 1100 1147 934 
Q 1113 769 1113 603 
Q 1113 391 1203 244 
Q 1294 97 1491 97 
Q 1888 97 2203 581 
L 2688 2553 
Q 2709 2638 2787 2698 
Q 2866 2759 2956 2759 
Q 3034 2759 3092 2709 
Q 3150 2659 3150 2578 
Q 3150 2541 3144 2528 
L 2509 -19 
Q 2425 -347 2200 -647 
Q 1975 -947 1658 -1130 
Q 1341 -1313 997 -1313 
Q 831 -1313 668 -1248 
Q 506 -1184 406 -1056 
Q 306 -928 306 -756 
Q 306 -581 409 -453 
Q 513 -325 684 -325 
Q 788 -325 858 -389 
Q 928 -453 928 -556 
Q 928 -703 818 -812 
Q 709 -922 563 -922 
Q 556 -919 550 -917 
Q 544 -916 538 -916 
z
" transform="scale(0.015625)"/>
      </defs>
      <use xlink:href="#Cmmi10-79" transform="translate(0 0.8125)"/>
     </g>
    </g>
   </g>
   <g id="line2d_1">
    <path d="M 168.481355 170.601145 
L 274.401685 170.601145 
L 274.401685 170.601145 
" clip-path="url(#p7a74e7a9a2)" style="fill: none; stroke: #808080; stroke-width: 2; stroke-linecap: square"/>
   </g>
   <g id="patch_3">
    <path d="M 203.788132 170.601145 
Q 200.257454 170.601145 198.962845 170.601145 
" clip-path="url(#p7a74e7a9a2)" style="fill: none; stroke: #808080; stroke-width: 2; stroke-linecap: round"/>
    <path d="M 204.962845 173.601145 
L 198.962845 170.601145 
L 204.962845 167.601145 
z
" clip-path="url(#p7a74e7a9a2)" style="fill: #808080; stroke: #808080; stroke-width: 2; stroke-linecap: round"/>
   </g>
   <g id="line2d_2">
    <path d="M 168.481355 170.601145 
L 168.481355 64.680815 
L 168.481355 64.680815 
" clip-path="url(#p7a74e7a9a2)" style="fill: none; stroke: #808080; stroke-width: 2; stroke-linecap: square"/>
   </g>
   <g id="patch_4">
    <path d="M 168.481355 135.294368 
Q 168.481355 138.825046 168.481355 140.119655 
" clip-path="url(#p7a74e7a9a2)" style="fill: none; stroke: #808080; stroke-width: 2; stroke-linecap: round"/>
    <path d="M 171.481355 134.119655 
L 168.481355 140.119655 
L 165.481355 134.119655 
z
" clip-path="url(#p7a74e7a9a2)" style="fill: #808080; stroke: #808080; stroke-width: 2; stroke-linecap: round"/>
   </g>
   <g id="line2d_3">
    <path d="M 168.481355 170.601145 
L 168.481355 276.521474 
L 168.481355 276.521474 
" clip-path="url(#p7a74e7a9a2)" style="fill: none; stroke: #808080; stroke-width: 2; stroke-linecap: square"/>
   </g>
   <g id="patch_5">
    <path d="M 168.481355 205.907921 
Q 168.481355 202.377244 168.481355 201.082634 
" clip-path="url(#p7a74e7a9a2)" style="fill: none; stroke: #808080; stroke-width: 2; stroke-linecap: round"/>
    <path d="M 165.481355 207.082634 
L 168.481355 201.082634 
L 171.481355 207.082634 
z
" clip-path="url(#p7a74e7a9a2)" style="fill: #808080; stroke: #808080; stroke-width: 2; stroke-linecap: round"/>
   </g>
   <g id="line2d_4">
    <path d="M 168.481355 170.601145 
L 62.561026 170.601145 
L 62.561026 170.601145 
" clip-path="url(#p7a74e7a9a2)" style="fill: none; stroke: #808080; stroke-width: 2; stroke-linecap: square"/>
   </g>
   <g id="patch_6">
    <path d="M 133.174579 170.601145 
Q 136.705256 170.601145 137.999866 170.601145 
" clip-path="url(#p7a74e7a9a2)" style="fill: none; stroke: #808080; stroke-width: 2; stroke-linecap: round"/>
    <path d="M 131.999866 167.601145 
L 137.999866 170.601145 
L 131.999866 173.601145 
z
" clip-path="url(#p7a74e7a9a2)" style="fill: #808080; stroke: #808080; stroke-width: 2; stroke-linecap: round"/>
   </g>
   <g id="line2d_5">
    <path d="M 168.481355 170.601145 
L 62.561026 64.680815 
L 62.561026 64.680815 
" clip-path="url(#p7a74e7a9a2)" style="fill: none; stroke: #808080; stroke-width: 2; stroke-linecap: square"/>
   </g>
   <g id="patch_7">
    <path d="M 133.174579 135.294368 
Q 136.705256 138.825046 138.654795 140.774585 
" clip-path="url(#p7a74e7a9a2)" style="fill: none; stroke: #808080; stroke-width: 2; stroke-linecap: round"/>
    <path d="M 136.533475 134.410624 
L 138.654795 140.774585 
L 132.290834 138.653264 
z
" clip-path="url(#p7a74e7a9a2)" style="fill: #808080; stroke: #808080; stroke-width: 2; stroke-linecap: round"/>
   </g>
   <g id="line2d_6">
    <path d="M 168.481355 170.601145 
L 171.5616 170.466781 
L 174.402167 170.104696 
L 177.288113 169.502786 
L 180.356151 168.604208 
L 183.343095 167.473256 
L 186.037668 166.236202 
L 189.145198 164.554226 
L 191.657542 162.994452 
L 194.778933 160.807521 
L 198.159949 158.127351 
L 201.494853 155.166558 
L 204.755462 151.967175 
L 208.260567 148.192051 
L 211.568555 144.310061 
L 215.384456 139.447057 
L 218.272059 135.492953 
L 221.998159 130.041675 
L 225.462635 124.620365 
L 229.419231 118.013157 
L 233.593682 110.561465 
L 237.734229 102.682731 
L 241.827701 94.416245 
L 246.116992 85.245122 
L 250.186092 76.063147 
L 254.675497 65.388622 
L 259.326868 53.726879 
L 264.055877 41.242279 
L 269.043435 27.38881 
L 273.751464 13.665326 
L 274.401685 11.72065 
L 274.401685 11.72065 
" clip-path="url(#p7a74e7a9a2)" style="fill: none; stroke: #808080; stroke-width: 2; stroke-linecap: square"/>
   </g>
   <g id="patch_8">
    <path d="M 203.788132 152.947756 
Q 200.257454 156.125366 198.388833 157.807126 
" clip-path="url(#p7a74e7a9a2)" style="fill: none; stroke: #808080; stroke-width: 2; stroke-linecap: round"/>
    <path d="M 204.855492 156.02322 
L 198.388833 157.807126 
L 200.841703 151.563455 
z
" clip-path="url(#p7a74e7a9a2)" style="fill: #808080; stroke: #808080; stroke-width: 2; stroke-linecap: round"/>
   </g>
   <g id="line2d_7">
    <path d="M 168.481355 170.601145 
L 164.821404 181.257633 
L 162.658354 186.794399 
L 160.946331 190.504758 
L 159.854439 192.498961 
L 158.950085 193.91159 
L 157.504059 195.69929 
L 156.153038 196.836251 
L 154.968436 197.41485 
L 153.882547 197.616567 
L 153.247227 197.59707 
L 152.161501 197.346804 
L 150.989187 196.801457 
L 150.002455 196.154707 
L 148.053458 194.504965 
L 142.634908 189.446549 
L 141.177881 188.539215 
L 139.985399 188.088272 
L 138.708949 187.953688 
L 138.328051 187.990183 
L 137.040863 188.393287 
L 136.178612 188.915067 
L 134.949197 190.019894 
L 134.021809 191.135938 
L 132.539984 193.414094 
L 130.720029 196.994472 
L 128.965089 201.1599 
L 127.163014 206.008372 
L 123.801164 215.905907 
L 120.60487 225.209779 
L 119.084908 229.226105 
L 117.443771 233.081393 
L 115.79338 236.337728 
L 114.171874 238.846374 
L 112.754315 240.440779 
L 111.238587 241.518794 
L 110.018373 241.928689 
L 108.89699 241.966718 
L 108.020737 241.788426 
L 106.842938 241.292211 
L 105.244708 240.227036 
L 103.605034 238.796886 
L 98.527733 234.011089 
L 97.175582 233.100967 
L 95.884755 232.531405 
L 95.141612 232.361212 
L 94.74948 232.322466 
L 93.557038 232.437095 
L 92.133293 233.063542 
L 91.415365 233.591655 
L 89.987995 235.073917 
L 88.982312 236.462186 
L 87.789274 238.466225 
L 86.180554 241.741008 
L 84.645498 245.405152 
L 82.354194 251.629251 
L 74.558172 273.991095 
L 72.64188 278.370194 
L 71.678477 280.250822 
L 70.043494 282.889102 
L 68.484292 284.71685 
L 67.178053 285.719865 
L 66.282648 286.133803 
L 65.279177 286.343765 
L 64.249469 286.296574 
L 63.00122 285.915656 
L 62.561026 285.705301 
L 62.561026 285.705301 
" clip-path="url(#p7a74e7a9a2)" style="fill: none; stroke: #808080; stroke-width: 2; stroke-linecap: square"/>
   </g>
   <g id="patch_9">
    <path d="M 133.174579 192.365311 
Q 136.705256 190.261887 138.314935 189.302911 
" clip-path="url(#p7a74e7a9a2)" style="fill: none; stroke: #808080; stroke-width: 2; stroke-linecap: round"/>
    <path d="M 131.624914 189.796496 
L 138.314935 189.302911 
L 134.69579 194.951078 
z
" clip-path="url(#p7a74e7a9a2)" style="fill: #808080; stroke: #808080; stroke-width: 2; stroke-linecap: round"/>
   </g>
   <g id="patch_10">
    <path d="M 27.254249 331.8825 
L 27.254249 23.4425 
" style="fill: none; stroke: #000000; stroke-width: 0.8; stroke-linejoin: miter; stroke-linecap: square"/>
   </g>
   <g id="patch_11">
    <path d="M 7.2 311.828251 
L 315.64 311.828251 
" style="fill: none; stroke: #000000; stroke-width: 0.8; stroke-linejoin: miter; stroke-linecap: square"/>
   </g>
   <g id="text_3">
    <!-- $(a,b)$ -->
    <g transform="translate(173.240421 188.473855) scale(0.15 -0.15)">
     <defs>
      <path id="Cmr10-28" d="M 1984 -1588 
Q 1628 -1306 1370 -942 
Q 1113 -578 948 -165 
Q 784 247 703 697 
Q 622 1147 622 1600 
Q 622 2059 703 2509 
Q 784 2959 951 3375 
Q 1119 3791 1378 4153 
Q 1638 4516 1984 4788 
Q 1984 4800 2016 4800 
L 2075 4800 
Q 2094 4800 2109 4783 
Q 2125 4766 2125 4744 
Q 2125 4716 2113 4703 
Q 1800 4397 1592 4047 
Q 1384 3697 1257 3301 
Q 1131 2906 1075 2482 
Q 1019 2059 1019 1600 
Q 1019 -434 2106 -1491 
Q 2125 -1509 2125 -1544 
Q 2125 -1559 2108 -1579 
Q 2091 -1600 2075 -1600 
L 2016 -1600 
Q 1984 -1600 1984 -1588 
z
" transform="scale(0.015625)"/>
      <path id="Cmmi10-61" d="M 1113 -72 
Q 709 -72 476 233 
Q 244 538 244 953 
Q 244 1363 456 1803 
Q 669 2244 1030 2536 
Q 1391 2828 1806 2828 
Q 1997 2828 2147 2725 
Q 2297 2622 2381 2444 
Q 2453 2700 2663 2700 
Q 2744 2700 2798 2651 
Q 2853 2603 2853 2522 
Q 2853 2503 2851 2493 
Q 2850 2484 2847 2472 
L 2400 684 
Q 2356 494 2356 372 
Q 2356 97 2541 97 
Q 2741 97 2845 351 
Q 2950 606 3022 941 
Q 3034 978 3072 978 
L 3150 978 
Q 3175 978 3190 956 
Q 3206 934 3206 916 
Q 3094 469 2961 198 
Q 2828 -72 2528 -72 
Q 2313 -72 2147 54 
Q 1981 181 1941 391 
Q 1528 -72 1113 -72 
z
M 1119 97 
Q 1350 97 1567 270 
Q 1784 444 1941 678 
Q 1947 684 1947 697 
L 2291 2088 
L 2297 2106 
Q 2259 2334 2132 2498 
Q 2006 2663 1791 2663 
Q 1575 2663 1389 2486 
Q 1203 2309 1075 2069 
Q 950 1813 836 1366 
Q 722 919 722 672 
Q 722 450 817 273 
Q 913 97 1119 97 
z
" transform="scale(0.015625)"/>
      <path id="Cmmi10-3b" d="M 634 -1153 
Q 634 -1125 659 -1100 
Q 891 -878 1019 -587 
Q 1147 -297 1147 25 
L 1147 103 
Q 1044 0 891 0 
Q 744 0 641 103 
Q 538 206 538 353 
Q 538 503 641 603 
Q 744 703 891 703 
Q 1119 703 1216 492 
Q 1313 281 1313 25 
Q 1313 -331 1170 -651 
Q 1028 -972 769 -1228 
Q 744 -1241 728 -1241 
Q 697 -1241 665 -1212 
Q 634 -1184 634 -1153 
z
" transform="scale(0.015625)"/>
      <path id="Cmmi10-62" d="M 1106 -72 
Q 719 -72 503 231 
Q 288 534 288 941 
Q 288 1000 317 1173 
Q 347 1347 347 1388 
L 966 3872 
Q 991 3981 997 4044 
Q 997 4147 581 4147 
Q 519 4147 519 4231 
Q 522 4247 533 4287 
Q 544 4328 561 4350 
Q 578 4372 609 4372 
L 1472 4441 
Q 1550 4441 1550 4359 
L 1075 2472 
Q 1438 2828 1806 2828 
Q 2078 2828 2273 2684 
Q 2469 2541 2566 2306 
Q 2663 2072 2663 1806 
Q 2663 1497 2542 1167 
Q 2422 838 2209 555 
Q 1997 272 1712 100 
Q 1428 -72 1106 -72 
z
M 1119 97 
Q 1338 97 1528 280 
Q 1719 463 1838 691 
Q 1966 947 2077 1386 
Q 2188 1825 2188 2088 
Q 2188 2316 2092 2489 
Q 1997 2663 1791 2663 
Q 1559 2663 1348 2492 
Q 1138 2322 978 2088 
L 800 1363 
Q 697 959 691 716 
Q 691 475 795 286 
Q 900 97 1119 97 
z
" transform="scale(0.015625)"/>
      <path id="Cmr10-29" d="M 416 -1600 
Q 359 -1600 359 -1544 
Q 359 -1516 372 -1503 
Q 1466 -434 1466 1600 
Q 1466 3634 384 4691 
Q 359 4706 359 4744 
Q 359 4766 376 4783 
Q 394 4800 416 4800 
L 475 4800 
Q 494 4800 506 4788 
Q 966 4425 1272 3906 
Q 1578 3388 1720 2800 
Q 1863 2213 1863 1600 
Q 1863 1147 1786 708 
Q 1709 269 1542 -157 
Q 1375 -584 1119 -945 
Q 863 -1306 506 -1588 
Q 494 -1600 475 -1600 
L 416 -1600 
z
" transform="scale(0.015625)"/>
     </defs>
     <use xlink:href="#Cmr10-28"/>
     <use xlink:href="#Cmmi10-61" transform="translate(38.818359 0)"/>
     <use xlink:href="#Cmmi10-3b" transform="translate(91.601562 0)"/>
     <use xlink:href="#Cmmi10-62" transform="translate(136.845703 0)"/>
     <use xlink:href="#Cmr10-29" transform="translate(179.765625 0)"/>
    </g>
   </g>
   <g id="PathCollection_1">
    <path d="M 168.481355 173.763422 
C 169.320001 173.763422 170.124411 173.430225 170.717423 172.837213 
C 171.310435 172.244201 171.643633 171.439791 171.643633 170.601145 
C 171.643633 169.762499 171.310435 168.958089 170.717423 168.365077 
C 170.124411 167.772065 169.320001 167.438867 168.481355 167.438867 
C 167.642709 167.438867 166.838299 167.772065 166.245287 168.365077 
C 165.652275 168.958089 165.319078 169.762499 165.319078 170.601145 
C 165.319078 171.439791 165.652275 172.244201 166.245287 172.837213 
C 166.838299 173.430225 167.642709 173.763422 168.481355 173.763422 
z
" clip-path="url(#p7a74e7a9a2)"/>
   </g>
  </g>
 </g>
 <defs>
  <clipPath id="p7a74e7a9a2">
   <rect x="7.2" y="23.4425" width="308.44" height="308.44"/>
  </clipPath>
 </defs>
</svg>
