<?xml version="1.0" encoding="utf-8" standalone="no"?>
<!DOCTYPE svg PUBLIC "-//W3C//DTD SVG 1.1//EN"
  "http://www.w3.org/Graphics/SVG/1.1/DTD/svg11.dtd">
<svg xmlns:xlink="http://www.w3.org/1999/xlink" width="324.634978pt" height="337.037442pt" viewBox="0 0 324.634978 337.037442" xmlns="http://www.w3.org/2000/svg" version="1.1">
 <metadata>
  <rdf:RDF xmlns:dc="http://purl.org/dc/elements/1.1/" xmlns:cc="http://creativecommons.org/ns#" xmlns:rdf="http://www.w3.org/1999/02/22-rdf-syntax-ns#">
   <cc:Work>
    <dc:type rdf:resource="http://purl.org/dc/dcmitype/StillImage"/>
    <dc:date>2025-06-11T09:49:45.403003</dc:date>
    <dc:format>image/svg+xml</dc:format>
    <dc:creator>
     <cc:Agent>
      <dc:title>Matplotlib v3.8.0, https://matplotlib.org/</dc:title>
     </cc:Agent>
    </dc:creator>
   </cc:Work>
  </rdf:RDF>
 </metadata>
 <defs>
  <style type="text/css">*{stroke-linejoin: round; stroke-linecap: butt}</style>
 </defs>
 <g id="figure_1">
  <g id="patch_1">
   <path d="M 0 337.037442 
L 324.634978 337.037442 
L 324.634978 0 
L 0 0 
z
" style="fill: #ffffff"/>
  </g>
  <g id="axes_1">
   <g id="patch_2">
    <path d="M 8.89869 318.840038 
L 304.294978 318.840038 
L 304.294978 23.4425 
L 8.89869 23.4425 
z
" style="fill: #ffffff"/>
   </g>
   <g id="patch_3">
    <path d="M 156.592687 313.159317 
L 165.510296 312.879069 
L 174.392712 312.039434 
L 183.20488 310.643724 
L 191.912021 308.697447 
L 200.479773 306.208285 
L 208.874322 303.186061 
L 217.06254 299.642703 
L 225.012111 295.592194 
L 232.691662 291.050521 
L 240.070885 286.035606 
L 247.120657 280.567242 
L 253.813157 274.667009 
L 260.121972 268.358194 
L 266.022205 261.665694 
L 271.490569 254.615921 
L 276.505484 247.236699 
L 281.047157 239.557148 
L 285.097666 231.607577 
L 288.641024 223.419359 
L 291.663248 215.024809 
L 294.15241 206.457058 
L 296.098687 197.749916 
L 297.494397 188.937749 
L 298.334033 180.055333 
L 298.61428 171.137724 
z
" clip-path="url(#pe2b551ad7f)" style="fill: #add8e6; stroke: #000000; stroke-width: 3; stroke-linejoin: miter"/>
   </g>
   <g id="matplotlib.axis_1">
    <g id="xtick_1">
     <g id="line2d_1">
      <defs>
       <path id="m02883947a6" d="M 0 0 
L 0 3.5 
" style="stroke: #000000; stroke-width: 0.8"/>
      </defs>
      <g>
       <use xlink:href="#m02883947a6" x="14.571094" y="313.159317" style="stroke: #000000; stroke-width: 0.8"/>
      </g>
     </g>
     <g id="text_1">
      <!-- −1 -->
      <g transform="translate(7.2 327.757754) scale(0.1 -0.1)">
       <defs>
        <path id="DejaVuSans-2212" d="M 678 2272 
L 4684 2272 
L 4684 1741 
L 678 1741 
L 678 2272 
z
" transform="scale(0.015625)"/>
        <path id="DejaVuSans-31" d="M 794 531 
L 1825 531 
L 1825 4091 
L 703 3866 
L 703 4441 
L 1819 4666 
L 2450 4666 
L 2450 531 
L 3481 531 
L 3481 0 
L 794 0 
L 794 531 
z
" transform="scale(0.015625)"/>
       </defs>
       <use xlink:href="#DejaVuSans-2212"/>
       <use xlink:href="#DejaVuSans-31" x="83.789062"/>
      </g>
     </g>
    </g>
    <g id="xtick_2">
     <g id="line2d_2">
      <g>
       <use xlink:href="#m02883947a6" x="298.61428" y="313.159317" style="stroke: #000000; stroke-width: 0.8"/>
      </g>
     </g>
     <g id="text_2">
      <!-- 1 -->
      <g transform="translate(295.43303 327.757754) scale(0.1 -0.1)">
       <use xlink:href="#DejaVuSans-31"/>
      </g>
     </g>
    </g>
    <g id="text_3">
     <!-- $x$ -->
     <g transform="translate(312.294978 313.159317) scale(0.16 -0.16)">
      <defs>
       <path id="Cmmi10-78" d="M 500 184 
Q 613 97 819 97 
Q 1019 97 1172 289 
Q 1325 481 1381 709 
L 1672 1844 
Q 1741 2153 1741 2266 
Q 1741 2425 1652 2544 
Q 1563 2663 1403 2663 
Q 1200 2663 1022 2536 
Q 844 2409 722 2214 
Q 600 2019 550 1819 
Q 538 1778 500 1778 
L 422 1778 
Q 372 1778 372 1838 
L 372 1856 
Q 434 2094 584 2320 
Q 734 2547 951 2687 
Q 1169 2828 1416 2828 
Q 1650 2828 1839 2703 
Q 2028 2578 2106 2363 
Q 2216 2559 2386 2693 
Q 2556 2828 2759 2828 
Q 2897 2828 3040 2779 
Q 3184 2731 3275 2631 
Q 3366 2531 3366 2381 
Q 3366 2219 3261 2101 
Q 3156 1984 2994 1984 
Q 2891 1984 2822 2050 
Q 2753 2116 2753 2216 
Q 2753 2350 2845 2451 
Q 2938 2553 3066 2572 
Q 2950 2663 2747 2663 
Q 2541 2663 2389 2472 
Q 2238 2281 2175 2047 
L 1894 916 
Q 1825 659 1825 494 
Q 1825 331 1917 214 
Q 2009 97 2163 97 
Q 2463 97 2698 361 
Q 2934 625 3009 941 
Q 3022 978 3059 978 
L 3138 978 
Q 3163 978 3178 961 
Q 3194 944 3194 922 
Q 3194 916 3188 903 
Q 3097 522 2806 225 
Q 2516 -72 2150 -72 
Q 1916 -72 1727 54 
Q 1538 181 1459 397 
Q 1359 209 1182 68 
Q 1006 -72 806 -72 
Q 669 -72 523 -23 
Q 378 25 287 125 
Q 197 225 197 378 
Q 197 528 301 651 
Q 406 775 563 775 
Q 669 775 741 711 
Q 813 647 813 544 
Q 813 409 723 309 
Q 634 209 500 184 
z
" transform="scale(0.015625)"/>
      </defs>
      <use xlink:href="#Cmmi10-78" transform="translate(0 0.8125)"/>
     </g>
    </g>
   </g>
   <g id="matplotlib.axis_2">
    <g id="ytick_1">
     <g id="line2d_3">
      <defs>
       <path id="mc94b3e0740" d="M 0 0 
L -3.5 0 
" style="stroke: #000000; stroke-width: 0.8"/>
      </defs>
      <g>
       <use xlink:href="#mc94b3e0740" x="156.592687" y="313.159317" style="stroke: #000000; stroke-width: 0.8"/>
      </g>
     </g>
    </g>
    <g id="ytick_2">
     <g id="line2d_4">
      <g>
       <use xlink:href="#mc94b3e0740" x="156.592687" y="171.137724" style="stroke: #000000; stroke-width: 0.8"/>
      </g>
     </g>
     <g id="text_4">
      <!-- 1 -->
      <g transform="translate(143.230187 174.936942) scale(0.1 -0.1)">
       <use xlink:href="#DejaVuSans-31"/>
      </g>
     </g>
    </g>
    <g id="ytick_3">
     <g id="line2d_5">
      <g>
       <use xlink:href="#mc94b3e0740" x="156.592687" y="29.116131" style="stroke: #000000; stroke-width: 0.8"/>
      </g>
     </g>
     <g id="text_5">
      <!-- 2 -->
      <g transform="translate(143.230187 32.915349) scale(0.1 -0.1)">
       <defs>
        <path id="DejaVuSans-32" d="M 1228 531 
L 3431 531 
L 3431 0 
L 469 0 
L 469 531 
Q 828 903 1448 1529 
Q 2069 2156 2228 2338 
Q 2531 2678 2651 2914 
Q 2772 3150 2772 3378 
Q 2772 3750 2511 3984 
Q 2250 4219 1831 4219 
Q 1534 4219 1204 4116 
Q 875 4013 500 3803 
L 500 4441 
Q 881 4594 1212 4672 
Q 1544 4750 1819 4750 
Q 2544 4750 2975 4387 
Q 3406 4025 3406 3419 
Q 3406 3131 3298 2873 
Q 3191 2616 2906 2266 
Q 2828 2175 2409 1742 
Q 1991 1309 1228 531 
z
" transform="scale(0.015625)"/>
       </defs>
       <use xlink:href="#DejaVuSans-32"/>
      </g>
     </g>
    </g>
    <g id="text_6">
     <!-- $y$ -->
     <g transform="translate(152.592687 12.0825) scale(0.16 -0.16)">
      <defs>
       <path id="Cmmi10-79" d="M 538 -916 
Q 672 -1147 1006 -1147 
Q 1309 -1147 1531 -934 
Q 1753 -722 1889 -420 
Q 2025 -119 2100 197 
Q 1816 -72 1484 -72 
Q 1231 -72 1053 15 
Q 875 103 776 276 
Q 678 450 678 697 
Q 678 906 734 1126 
Q 791 1347 892 1617 
Q 994 1888 1069 2088 
Q 1153 2322 1153 2472 
Q 1153 2663 1013 2663 
Q 759 2663 595 2402 
Q 431 2141 353 1819 
Q 341 1778 300 1778 
L 225 1778 
Q 172 1778 172 1838 
L 172 1856 
Q 275 2238 487 2533 
Q 700 2828 1025 2828 
Q 1253 2828 1411 2678 
Q 1569 2528 1569 2297 
Q 1569 2178 1516 2047 
Q 1488 1969 1388 1706 
Q 1288 1444 1234 1272 
Q 1181 1100 1147 934 
Q 1113 769 1113 603 
Q 1113 391 1203 244 
Q 1294 97 1491 97 
Q 1888 97 2203 581 
L 2688 2553 
Q 2709 2638 2787 2698 
Q 2866 2759 2956 2759 
Q 3034 2759 3092 2709 
Q 3150 2659 3150 2578 
Q 3150 2541 3144 2528 
L 2509 -19 
Q 2425 -347 2200 -647 
Q 1975 -947 1658 -1130 
Q 1341 -1313 997 -1313 
Q 831 -1313 668 -1248 
Q 506 -1184 406 -1056 
Q 306 -928 306 -756 
Q 306 -581 409 -453 
Q 513 -325 684 -325 
Q 788 -325 858 -389 
Q 928 -453 928 -556 
Q 928 -703 818 -812 
Q 709 -922 563 -922 
Q 556 -919 550 -917 
Q 544 -916 538 -916 
z
" transform="scale(0.015625)"/>
      </defs>
      <use xlink:href="#Cmmi10-79" transform="translate(0 0.8125)"/>
     </g>
    </g>
   </g>
   <g id="line2d_6">
    <path d="M 298.61428 171.137724 
L 298.446786 164.242257 
L 298.191913 160.192769 
L 297.436482 152.885098 
L 296.928003 149.317276 
L 295.633571 142.193545 
L 294.084548 135.555129 
L 291.470958 126.663183 
L 289.428792 120.891311 
L 287.89684 117.014233 
L 285.111332 110.69692 
L 282.580426 105.58452 
L 280.798485 102.267901 
L 277.4287 96.513393 
L 274.277386 91.636501 
L 269.218442 84.618523 
L 266.417633 81.08988 
L 262.270907 76.257553 
L 259.282633 73.03111 
L 256.566506 70.264693 
L 253.351585 67.176921 
L 247.632269 62.13347 
L 242.440119 57.999086 
L 237.601527 54.485674 
L 233.670659 51.851853 
L 226.796184 47.680841 
L 222.496397 45.332979 
L 215.949442 42.114825 
L 212.676452 40.658821 
L 204.955082 37.604164 
L 199.630379 35.794124 
L 191.895952 33.573875 
L 186.003828 32.194866 
L 178.3827 30.797679 
L 172.213666 29.977822 
L 163.976621 29.308212 
L 154.958153 29.125537 
L 152.825182 29.166111 
L 145.198082 29.573972 
L 141.731371 29.895824 
L 135.910303 30.630173 
L 127.6582 32.094823 
L 122.976755 33.151847 
L 117.417351 34.626091 
L 113.03792 35.959637 
L 104.817438 38.890015 
L 100.368692 40.719185 
L 96.288536 42.554901 
L 88.277983 46.62574 
L 83.113545 49.601932 
L 75.62119 54.459749 
L 73.641454 55.858819 
L 69.952383 58.605103 
L 65.734827 61.981953 
L 61.010119 66.094372 
L 54.91767 71.979649 
L 49.187213 78.217344 
L 46.910197 80.916417 
L 42.949799 85.958929 
L 39.102465 91.349374 
L 35.663108 96.665112 
L 32.097998 102.791507 
L 27.55401 111.815276 
L 25.753136 115.900555 
L 23.245562 122.263629 
L 21.569814 127.104136 
L 19.499304 134.049486 
L 18.636551 137.399947 
L 17.668665 141.637738 
L 16.470586 147.98757 
L 15.76678 152.747595 
L 15.237137 157.399408 
L 14.854252 162.173956 
L 14.579387 169.602902 
L 14.608962 174.41716 
L 14.904851 180.868608 
L 15.212262 184.617648 
L 15.698301 188.995634 
L 16.319876 193.356441 
L 17.501828 199.840786 
L 18.868287 205.809362 
L 20.103944 210.392734 
L 21.598699 215.259783 
L 23.103135 219.621458 
L 26.447629 227.991895 
L 29.032502 233.57595 
L 31.643232 238.648957 
L 33.807345 242.509236 
L 36.198093 246.472142 
L 40.285972 252.641595 
L 44.403556 258.222348 
L 48.964212 263.799713 
L 53.664816 268.994692 
L 59.817544 275.083404 
L 66.436921 280.874093 
L 70.425485 284.033013 
L 77.791024 289.291991 
L 85.20651 293.91454 
L 91.180343 297.198654 
L 97.976853 300.498911 
L 101.955512 302.228959 
L 108.518725 304.775395 
L 113.039472 306.316311 
L 118.845976 308.051268 
L 123.665383 309.289544 
L 132.185237 311.046298 
L 137.755582 311.904539 
L 143.956693 312.596073 
L 151.150433 313.055005 
L 157.943972 313.152888 
L 167.532697 312.737332 
L 172.335558 312.284083 
L 180.026295 311.212699 
L 185.563066 310.173151 
L 189.552548 309.28178 
L 194.893245 307.897367 
L 201.544812 305.857579 
L 205.192189 304.585171 
L 209.580259 302.904373 
L 213.355987 301.322441 
L 220.422218 298.007436 
L 225.016329 295.589875 
L 228.909927 293.368447 
L 234.791427 289.691888 
L 242.81565 283.990431 
L 249.41848 278.624955 
L 252.469505 275.91257 
L 258.279725 270.283471 
L 262.012438 266.304991 
L 264.593562 263.365397 
L 269.533134 257.245727 
L 271.882035 254.07444 
L 276.125648 247.831948 
L 279.518568 242.266907 
L 282.871585 236.128283 
L 284.481098 232.900877 
L 287.808578 225.474845 
L 289.709203 220.636469 
L 291.106512 216.702663 
L 292.398845 212.692751 
L 293.856068 207.591763 
L 295.251139 201.861761 
L 295.972224 198.404506 
L 296.825592 193.606926 
L 297.854488 185.808662 
L 298.436386 178.2439 
L 298.61428 171.137724 
L 298.61428 171.137724 
" clip-path="url(#pe2b551ad7f)" style="fill: none; stroke: #000000; stroke-width: 2; stroke-linecap: square"/>
   </g>
   <g id="patch_4">
    <path d="M 156.592687 318.840038 
L 156.592687 23.4425 
" style="fill: none; stroke: #000000; stroke-width: 0.8; stroke-linejoin: miter; stroke-linecap: square"/>
   </g>
   <g id="patch_5">
    <path d="M 8.89869 313.159317 
L 304.294978 313.159317 
" style="fill: none; stroke: #000000; stroke-width: 0.8; stroke-linejoin: miter; stroke-linecap: square"/>
   </g>
  </g>
 </g>
 <defs>
  <clipPath id="pe2b551ad7f">
   <rect x="8.89869" y="23.4425" width="295.396288" height="295.397538"/>
  </clipPath>
 </defs>
</svg>
