<?xml version="1.0" encoding="utf-8" standalone="no"?>
<!DOCTYPE svg PUBLIC "-//W3C//DTD SVG 1.1//EN"
  "http://www.w3.org/Graphics/SVG/1.1/DTD/svg11.dtd">
<svg xmlns:xlink="http://www.w3.org/1999/xlink" width="325.686945pt" height="338.096672pt" viewBox="0 0 325.686945 338.096672" xmlns="http://www.w3.org/2000/svg" version="1.1">
 <metadata>
  <rdf:RDF xmlns:dc="http://purl.org/dc/elements/1.1/" xmlns:cc="http://creativecommons.org/ns#" xmlns:rdf="http://www.w3.org/1999/02/22-rdf-syntax-ns#">
   <cc:Work>
    <dc:type rdf:resource="http://purl.org/dc/dcmitype/StillImage"/>
    <dc:date>2025-12-10T16:55:27.896661</dc:date>
    <dc:format>image/svg+xml</dc:format>
    <dc:creator>
     <cc:Agent>
      <dc:title>Matplotlib v3.10.5, https://matplotlib.org/</dc:title>
     </cc:Agent>
    </dc:creator>
   </cc:Work>
  </rdf:RDF>
 </metadata>
 <defs>
  <style type="text/css">*{stroke-linejoin: round; stroke-linecap: butt}</style>
 </defs>
 <g id="figure_1">
  <g id="patch_1">
   <path d="M 0 338.096672 
L 325.686945 338.096672 
L 325.686945 0 
L 0 0 
z
" style="fill: #ffffff"/>
  </g>
  <g id="axes_1">
   <g id="patch_2">
    <path d="M 8.880533 319.920038 
L 305.346945 319.920038 
L 305.346945 23.4425 
L 8.880533 23.4425 
z
" style="fill: #ffffff"/>
   </g>
   <g id="patch_3">
    <path d="M 157.108381 314.218547 
L 166.058371 313.937283 
L 174.97304 313.094598 
L 183.817205 311.69382 
L 192.555963 309.740476 
L 201.154825 307.242276 
L 209.579856 304.209078 
L 217.797806 300.652854 
L 225.776243 296.587637 
L 233.483678 292.029472 
L 240.889696 286.996348 
L 247.965067 281.508128 
L 254.681868 275.586471 
L 261.013591 269.254748 
L 266.935248 262.537946 
L 272.423468 255.462576 
L 277.456593 248.056558 
L 282.014758 240.349122 
L 286.079974 232.370685 
L 289.636199 224.152735 
L 292.669396 215.727704 
L 295.167597 207.128842 
L 297.120941 198.390085 
L 298.521719 189.545919 
L 299.364403 180.631251 
L 299.645668 171.68126 
z
" clip-path="url(#p0a21b71282)" style="fill: #add8e6; stroke: #000000; stroke-width: 3; stroke-linejoin: miter"/>
   </g>
   <g id="matplotlib.axis_1">
    <g id="xtick_1">
     <g id="line2d_1">
      <defs>
       <path id="mbbff7de98c" d="M 0 0 
L 0 3.5 
" style="stroke: #000000; stroke-width: 0.8"/>
      </defs>
      <g>
       <use xlink:href="#mbbff7de98c" x="14.571094" y="314.218547" style="stroke: #000000; stroke-width: 0.8"/>
      </g>
     </g>
     <g id="text_1">
      <!-- −1 -->
      <g transform="translate(7.2 328.816985) scale(0.1 -0.1)">
       <defs>
        <path id="DejaVuSans-2212" d="M 678 2272 
L 4684 2272 
L 4684 1741 
L 678 1741 
L 678 2272 
z
" transform="scale(0.015625)"/>
        <path id="DejaVuSans-31" d="M 794 531 
L 1825 531 
L 1825 4091 
L 703 3866 
L 703 4441 
L 1819 4666 
L 2450 4666 
L 2450 531 
L 3481 531 
L 3481 0 
L 794 0 
L 794 531 
z
" transform="scale(0.015625)"/>
       </defs>
       <use xlink:href="#DejaVuSans-2212"/>
       <use xlink:href="#DejaVuSans-31" transform="translate(83.789062 0)"/>
      </g>
     </g>
    </g>
    <g id="xtick_2">
     <g id="line2d_2">
      <g>
       <use xlink:href="#mbbff7de98c" x="299.645668" y="314.218547" style="stroke: #000000; stroke-width: 0.8"/>
      </g>
     </g>
     <g id="text_2">
      <!-- 1 -->
      <g transform="translate(296.464418 328.816985) scale(0.1 -0.1)">
       <use xlink:href="#DejaVuSans-31"/>
      </g>
     </g>
    </g>
    <g id="text_3">
     <!-- $x$ -->
     <g transform="translate(313.346945 314.218547) scale(0.16 -0.16)">
      <defs>
       <path id="Cmmi10-78" d="M 500 184 
Q 613 97 819 97 
Q 1019 97 1172 289 
Q 1325 481 1381 709 
L 1672 1844 
Q 1741 2153 1741 2266 
Q 1741 2425 1652 2544 
Q 1563 2663 1403 2663 
Q 1200 2663 1022 2536 
Q 844 2409 722 2214 
Q 600 2019 550 1819 
Q 538 1778 500 1778 
L 422 1778 
Q 372 1778 372 1838 
L 372 1856 
Q 434 2094 584 2320 
Q 734 2547 951 2687 
Q 1169 2828 1416 2828 
Q 1650 2828 1839 2703 
Q 2028 2578 2106 2363 
Q 2216 2559 2386 2693 
Q 2556 2828 2759 2828 
Q 2897 2828 3040 2779 
Q 3184 2731 3275 2631 
Q 3366 2531 3366 2381 
Q 3366 2219 3261 2101 
Q 3156 1984 2994 1984 
Q 2891 1984 2822 2050 
Q 2753 2116 2753 2216 
Q 2753 2350 2845 2451 
Q 2938 2553 3066 2572 
Q 2950 2663 2747 2663 
Q 2541 2663 2389 2472 
Q 2238 2281 2175 2047 
L 1894 916 
Q 1825 659 1825 494 
Q 1825 331 1917 214 
Q 2009 97 2163 97 
Q 2463 97 2698 361 
Q 2934 625 3009 941 
Q 3022 978 3059 978 
L 3138 978 
Q 3163 978 3178 961 
Q 3194 944 3194 922 
Q 3194 916 3188 903 
Q 3097 522 2806 225 
Q 2516 -72 2150 -72 
Q 1916 -72 1727 54 
Q 1538 181 1459 397 
Q 1359 209 1182 68 
Q 1006 -72 806 -72 
Q 669 -72 523 -23 
Q 378 25 287 125 
Q 197 225 197 378 
Q 197 528 301 651 
Q 406 775 563 775 
Q 669 775 741 711 
Q 813 647 813 544 
Q 813 409 723 309 
Q 634 209 500 184 
z
" transform="scale(0.015625)"/>
      </defs>
      <use xlink:href="#Cmmi10-78" transform="translate(0 0.8125)"/>
     </g>
    </g>
   </g>
   <g id="matplotlib.axis_2">
    <g id="ytick_1">
     <g id="line2d_3">
      <defs>
       <path id="m1861319d25" d="M 0 0 
L -3.5 0 
" style="stroke: #000000; stroke-width: 0.8"/>
      </defs>
      <g>
       <use xlink:href="#m1861319d25" x="157.108381" y="314.218547" style="stroke: #000000; stroke-width: 0.8"/>
      </g>
     </g>
    </g>
    <g id="ytick_2">
     <g id="line2d_4">
      <g>
       <use xlink:href="#m1861319d25" x="157.108381" y="171.68126" style="stroke: #000000; stroke-width: 0.8"/>
      </g>
     </g>
     <g id="text_4">
      <!-- 1 -->
      <g transform="translate(143.745881 175.480479) scale(0.1 -0.1)">
       <use xlink:href="#DejaVuSans-31"/>
      </g>
     </g>
    </g>
    <g id="ytick_3">
     <g id="line2d_5">
      <g>
       <use xlink:href="#m1861319d25" x="157.108381" y="29.143973" style="stroke: #000000; stroke-width: 0.8"/>
      </g>
     </g>
     <g id="text_5">
      <!-- 2 -->
      <g transform="translate(143.745881 32.943192) scale(0.1 -0.1)">
       <defs>
        <path id="DejaVuSans-32" d="M 1228 531 
L 3431 531 
L 3431 0 
L 469 0 
L 469 531 
Q 828 903 1448 1529 
Q 2069 2156 2228 2338 
Q 2531 2678 2651 2914 
Q 2772 3150 2772 3378 
Q 2772 3750 2511 3984 
Q 2250 4219 1831 4219 
Q 1534 4219 1204 4116 
Q 875 4013 500 3803 
L 500 4441 
Q 881 4594 1212 4672 
Q 1544 4750 1819 4750 
Q 2544 4750 2975 4387 
Q 3406 4025 3406 3419 
Q 3406 3131 3298 2873 
Q 3191 2616 2906 2266 
Q 2828 2175 2409 1742 
Q 1991 1309 1228 531 
z
" transform="scale(0.015625)"/>
       </defs>
       <use xlink:href="#DejaVuSans-32"/>
      </g>
     </g>
    </g>
    <g id="text_6">
     <!-- $y$ -->
     <g transform="translate(153.108381 12.0825) scale(0.16 -0.16)">
      <defs>
       <path id="Cmmi10-79" d="M 538 -916 
Q 672 -1147 1006 -1147 
Q 1309 -1147 1531 -934 
Q 1753 -722 1889 -420 
Q 2025 -119 2100 197 
Q 1816 -72 1484 -72 
Q 1231 -72 1053 15 
Q 875 103 776 276 
Q 678 450 678 697 
Q 678 906 734 1126 
Q 791 1347 892 1617 
Q 994 1888 1069 2088 
Q 1153 2322 1153 2472 
Q 1153 2663 1013 2663 
Q 759 2663 595 2402 
Q 431 2141 353 1819 
Q 341 1778 300 1778 
L 225 1778 
Q 172 1778 172 1838 
L 172 1856 
Q 275 2238 487 2533 
Q 700 2828 1025 2828 
Q 1253 2828 1411 2678 
Q 1569 2528 1569 2297 
Q 1569 2178 1516 2047 
Q 1488 1969 1388 1706 
Q 1288 1444 1234 1272 
Q 1181 1100 1147 934 
Q 1113 769 1113 603 
Q 1113 391 1203 244 
Q 1294 97 1491 97 
Q 1888 97 2203 581 
L 2688 2553 
Q 2709 2638 2787 2698 
Q 2866 2759 2956 2759 
Q 3034 2759 3092 2709 
Q 3150 2659 3150 2578 
Q 3150 2541 3144 2528 
L 2509 -19 
Q 2425 -347 2200 -647 
Q 1975 -947 1658 -1130 
Q 1341 -1313 997 -1313 
Q 831 -1313 668 -1248 
Q 506 -1184 406 -1056 
Q 306 -928 306 -756 
Q 306 -581 409 -453 
Q 513 -325 684 -325 
Q 788 -325 858 -389 
Q 928 -453 928 -556 
Q 928 -703 818 -812 
Q 709 -922 563 -922 
Q 556 -919 550 -917 
Q 544 -916 538 -916 
z
" transform="scale(0.015625)"/>
      </defs>
      <use xlink:href="#Cmmi10-79" transform="translate(0 0.8125)"/>
     </g>
    </g>
   </g>
   <g id="line2d_6">
    <path d="M 299.645668 171.68126 
L 299.580604 167.375007 
L 299.186657 160.251402 
L 298.734304 155.588525 
L 297.680477 148.09389 
L 296.815397 143.417718 
L 295.542432 137.727003 
L 293.629904 130.708685 
L 291.913111 125.371834 
L 289.685926 119.335556 
L 286.849969 112.655854 
L 284.247065 107.240333 
L 281.40179 101.910016 
L 278.024724 96.208642 
L 273.402239 89.263927 
L 269.953997 84.602301 
L 263.67173 77.018011 
L 261.628053 74.766265 
L 257.562779 70.558602 
L 254.653009 67.748957 
L 248.535993 62.329214 
L 244.824798 59.330433 
L 239.020166 55.030767 
L 234.447101 51.949892 
L 229.665073 48.993019 
L 223.367763 45.480735 
L 216.628157 42.165723 
L 209.069677 38.952583 
L 206.64939 38.030347 
L 202.238717 36.477226 
L 196.898108 34.810314 
L 190.100715 33.014811 
L 185.036269 31.906759 
L 175.694188 30.360894 
L 170.922007 29.814908 
L 166.150844 29.431086 
L 162.170775 29.2339 
L 157.179792 29.143991 
L 150.456685 29.299263 
L 141.825444 29.965665 
L 138.457609 30.369453 
L 134.14021 31.006666 
L 129.141998 31.914456 
L 121.669955 33.619694 
L 114.061232 35.799616 
L 106.900284 38.279517 
L 104.91081 39.045323 
L 96.030879 42.892996 
L 91.792853 44.989666 
L 83.715365 49.491476 
L 80.504677 51.478304 
L 75.176187 55.0451 
L 71.012102 58.084126 
L 65.397592 62.566599 
L 59.926891 67.409327 
L 56.348868 70.862617 
L 52.467401 74.897256 
L 49.030176 78.751287 
L 45.832343 82.605329 
L 42.165702 87.38975 
L 38.337153 92.875971 
L 33.589819 100.54728 
L 31.640083 104.045585 
L 29.181319 108.819944 
L 25.267918 117.505892 
L 23.199781 122.841061 
L 21.532607 127.680262 
L 19.379078 134.972716 
L 19.07289 136.141402 
L 17.716326 141.903194 
L 16.140153 150.590104 
L 15.510401 155.344478 
L 15.028771 160.267992 
L 14.68316 166.030191 
L 14.58181 169.933472 
L 14.667608 176.925719 
L 14.877471 181.021842 
L 15.2051 185.11023 
L 15.642479 189.124796 
L 16.52338 195.191595 
L 17.465686 200.260905 
L 19.398871 208.46399 
L 22.307966 218.003247 
L 25.152821 225.57568 
L 28.672649 233.496639 
L 32.841516 241.499771 
L 37.670555 249.472544 
L 39.916275 252.816263 
L 43.255569 257.439149 
L 48.23447 263.677726 
L 52.387214 268.378496 
L 54.866869 270.996674 
L 61.100382 277.034677 
L 67.280747 282.351376 
L 74.280583 287.683131 
L 77.704947 290.05344 
L 82.969452 293.419904 
L 89.079453 296.936772 
L 93.176849 299.076855 
L 99.964822 302.262621 
L 104.76477 304.259632 
L 110.463673 306.370345 
L 116.530923 308.320743 
L 123.31564 310.154828 
L 130.163709 311.648624 
L 133.517098 312.2527 
L 138.262711 312.967208 
L 142.232809 313.440195 
L 149.94799 314.038582 
L 156.652969 314.21782 
L 162.020659 314.133876 
L 167.393101 313.847018 
L 175.151659 313.071919 
L 182.815563 311.881185 
L 185.656102 311.330484 
L 191.753083 309.944136 
L 198.489038 308.079645 
L 202.583481 306.769725 
L 207.151212 305.145088 
L 216.067777 301.452859 
L 224.495842 297.283045 
L 230.802842 293.689475 
L 235.942777 290.43317 
L 242.399813 285.88393 
L 250.000959 279.791607 
L 256.624398 273.727527 
L 259.158112 271.193724 
L 262.071032 268.116317 
L 266.871376 262.6151 
L 270.059643 258.623141 
L 272.85689 254.862753 
L 276.413833 249.675409 
L 281.107437 241.974306 
L 283.652115 237.282796 
L 286.465044 231.545539 
L 288.046938 228.001528 
L 290.07558 223.029114 
L 292.737853 215.516455 
L 294.721436 208.823221 
L 295.755658 204.754071 
L 297.190414 198.023285 
L 297.884249 194.020308 
L 298.693571 188.12851 
L 299.051673 184.680487 
L 299.591076 175.625838 
L 299.645668 171.68126 
L 299.645668 171.68126 
" clip-path="url(#p0a21b71282)" style="fill: none; stroke: #000000; stroke-width: 2; stroke-linecap: square"/>
   </g>
   <g id="patch_4">
    <path d="M 157.108381 319.920038 
L 157.108381 23.4425 
" style="fill: none; stroke: #000000; stroke-width: 0.8; stroke-linejoin: miter; stroke-linecap: square"/>
   </g>
   <g id="patch_5">
    <path d="M 8.880533 314.218547 
L 305.346945 314.218547 
" style="fill: none; stroke: #000000; stroke-width: 0.8; stroke-linejoin: miter; stroke-linecap: square"/>
   </g>
  </g>
 </g>
 <defs>
  <clipPath id="p0a21b71282">
   <rect x="8.880533" y="23.4425" width="296.466412" height="296.477538"/>
  </clipPath>
 </defs>
</svg>
