<?xml version="1.0" encoding="utf-8" standalone="no"?>
<!DOCTYPE svg PUBLIC "-//W3C//DTD SVG 1.1//EN"
  "http://www.w3.org/Graphics/SVG/1.1/DTD/svg11.dtd">
<svg xmlns:xlink="http://www.w3.org/1999/xlink" width="451.213911pt" height="337.397538pt" viewBox="0 0 451.213911 337.397538" xmlns="http://www.w3.org/2000/svg" version="1.1">
 <metadata>
  <rdf:RDF xmlns:dc="http://purl.org/dc/elements/1.1/" xmlns:cc="http://creativecommons.org/ns#" xmlns:rdf="http://www.w3.org/1999/02/22-rdf-syntax-ns#">
   <cc:Work>
    <dc:type rdf:resource="http://purl.org/dc/dcmitype/StillImage"/>
    <dc:date>2025-06-11T09:50:25.410431</dc:date>
    <dc:format>image/svg+xml</dc:format>
    <dc:creator>
     <cc:Agent>
      <dc:title>Matplotlib v3.8.0, https://matplotlib.org/</dc:title>
     </cc:Agent>
    </dc:creator>
   </cc:Work>
  </rdf:RDF>
 </metadata>
 <defs>
  <style type="text/css">*{stroke-linejoin: round; stroke-linecap: butt}</style>
 </defs>
 <g id="figure_1">
  <g id="patch_1">
   <path d="M 0 337.397538 
L 451.213911 337.397538 
L 451.213911 0 
L 0 0 
z
" style="fill: #ffffff"/>
  </g>
  <g id="axes_1">
   <g id="patch_2">
    <path d="M 20.803526 330.197538 
L 444.013911 330.197538 
L 444.013911 7.2 
L 20.803526 7.2 
z
" style="fill: #ffffff"/>
   </g>
   <g id="matplotlib.axis_1">
    <g id="xtick_1">
     <g id="line2d_1">
      <path d="M 28.942187 330.197538 
L 28.942187 7.2 
" clip-path="url(#pc753bc59be)" style="fill: none; stroke-dasharray: 0.5,0.825; stroke-dashoffset: 0; stroke: #000000; stroke-width: 0.5"/>
     </g>
     <g id="line2d_2">
      <defs>
       <path id="m0afa6b152a" d="M 0 0 
L 0 3.5 
" style="stroke: #000000; stroke-width: 0.8"/>
      </defs>
      <g>
       <use xlink:href="#m0afa6b152a" x="28.942187" y="199.756225" style="stroke: #000000; stroke-width: 0.8"/>
      </g>
     </g>
    </g>
    <g id="xtick_2">
     <g id="line2d_3">
      <path d="M 130.675453 330.197538 
L 130.675453 7.2 
" clip-path="url(#pc753bc59be)" style="fill: none; stroke-dasharray: 0.5,0.825; stroke-dashoffset: 0; stroke: #000000; stroke-width: 0.5"/>
     </g>
     <g id="line2d_4">
      <g>
       <use xlink:href="#m0afa6b152a" x="130.675453" y="199.756225" style="stroke: #000000; stroke-width: 0.8"/>
      </g>
     </g>
     <g id="text_1">
      <!-- 0.5 -->
      <g transform="translate(122.723891 214.354662) scale(0.1 -0.1)">
       <defs>
        <path id="DejaVuSans-30" d="M 2034 4250 
Q 1547 4250 1301 3770 
Q 1056 3291 1056 2328 
Q 1056 1369 1301 889 
Q 1547 409 2034 409 
Q 2525 409 2770 889 
Q 3016 1369 3016 2328 
Q 3016 3291 2770 3770 
Q 2525 4250 2034 4250 
z
M 2034 4750 
Q 2819 4750 3233 4129 
Q 3647 3509 3647 2328 
Q 3647 1150 3233 529 
Q 2819 -91 2034 -91 
Q 1250 -91 836 529 
Q 422 1150 422 2328 
Q 422 3509 836 4129 
Q 1250 4750 2034 4750 
z
" transform="scale(0.015625)"/>
        <path id="DejaVuSans-2e" d="M 684 794 
L 1344 794 
L 1344 0 
L 684 0 
L 684 794 
z
" transform="scale(0.015625)"/>
        <path id="DejaVuSans-35" d="M 691 4666 
L 3169 4666 
L 3169 4134 
L 1269 4134 
L 1269 2991 
Q 1406 3038 1543 3061 
Q 1681 3084 1819 3084 
Q 2600 3084 3056 2656 
Q 3513 2228 3513 1497 
Q 3513 744 3044 326 
Q 2575 -91 1722 -91 
Q 1428 -91 1123 -41 
Q 819 9 494 109 
L 494 744 
Q 775 591 1075 516 
Q 1375 441 1709 441 
Q 2250 441 2565 725 
Q 2881 1009 2881 1497 
Q 2881 1984 2565 2268 
Q 2250 2553 1709 2553 
Q 1456 2553 1204 2497 
Q 953 2441 691 2322 
L 691 4666 
z
" transform="scale(0.015625)"/>
       </defs>
       <use xlink:href="#DejaVuSans-30"/>
       <use xlink:href="#DejaVuSans-2e" x="63.623047"/>
       <use xlink:href="#DejaVuSans-35" x="95.410156"/>
      </g>
     </g>
    </g>
    <g id="xtick_3">
     <g id="line2d_5">
      <path d="M 232.408719 330.197538 
L 232.408719 7.2 
" clip-path="url(#pc753bc59be)" style="fill: none; stroke-dasharray: 0.5,0.825; stroke-dashoffset: 0; stroke: #000000; stroke-width: 0.5"/>
     </g>
     <g id="line2d_6">
      <g>
       <use xlink:href="#m0afa6b152a" x="232.408719" y="199.756225" style="stroke: #000000; stroke-width: 0.8"/>
      </g>
     </g>
     <g id="text_2">
      <!-- 1.0 -->
      <g transform="translate(224.457156 214.354662) scale(0.1 -0.1)">
       <defs>
        <path id="DejaVuSans-31" d="M 794 531 
L 1825 531 
L 1825 4091 
L 703 3866 
L 703 4441 
L 1819 4666 
L 2450 4666 
L 2450 531 
L 3481 531 
L 3481 0 
L 794 0 
L 794 531 
z
" transform="scale(0.015625)"/>
       </defs>
       <use xlink:href="#DejaVuSans-31"/>
       <use xlink:href="#DejaVuSans-2e" x="63.623047"/>
       <use xlink:href="#DejaVuSans-30" x="95.410156"/>
      </g>
     </g>
    </g>
    <g id="xtick_4">
     <g id="line2d_7">
      <path d="M 334.141984 330.197538 
L 334.141984 7.2 
" clip-path="url(#pc753bc59be)" style="fill: none; stroke-dasharray: 0.5,0.825; stroke-dashoffset: 0; stroke: #000000; stroke-width: 0.5"/>
     </g>
     <g id="line2d_8">
      <g>
       <use xlink:href="#m0afa6b152a" x="334.141984" y="199.756225" style="stroke: #000000; stroke-width: 0.8"/>
      </g>
     </g>
     <g id="text_3">
      <!-- 1.5 -->
      <g transform="translate(326.190422 214.354662) scale(0.1 -0.1)">
       <use xlink:href="#DejaVuSans-31"/>
       <use xlink:href="#DejaVuSans-2e" x="63.623047"/>
       <use xlink:href="#DejaVuSans-35" x="95.410156"/>
      </g>
     </g>
    </g>
    <g id="xtick_5">
     <g id="line2d_9">
      <path d="M 435.87525 330.197538 
L 435.87525 7.2 
" clip-path="url(#pc753bc59be)" style="fill: none; stroke-dasharray: 0.5,0.825; stroke-dashoffset: 0; stroke: #000000; stroke-width: 0.5"/>
     </g>
     <g id="line2d_10">
      <g>
       <use xlink:href="#m0afa6b152a" x="435.87525" y="199.756225" style="stroke: #000000; stroke-width: 0.8"/>
      </g>
     </g>
     <g id="text_4">
      <!-- 2.0 -->
      <g transform="translate(427.923687 214.354662) scale(0.1 -0.1)">
       <defs>
        <path id="DejaVuSans-32" d="M 1228 531 
L 3431 531 
L 3431 0 
L 469 0 
L 469 531 
Q 828 903 1448 1529 
Q 2069 2156 2228 2338 
Q 2531 2678 2651 2914 
Q 2772 3150 2772 3378 
Q 2772 3750 2511 3984 
Q 2250 4219 1831 4219 
Q 1534 4219 1204 4116 
Q 875 4013 500 3803 
L 500 4441 
Q 881 4594 1212 4672 
Q 1544 4750 1819 4750 
Q 2544 4750 2975 4387 
Q 3406 4025 3406 3419 
Q 3406 3131 3298 2873 
Q 3191 2616 2906 2266 
Q 2828 2175 2409 1742 
Q 1991 1309 1228 531 
z
" transform="scale(0.015625)"/>
       </defs>
       <use xlink:href="#DejaVuSans-32"/>
       <use xlink:href="#DejaVuSans-2e" x="63.623047"/>
       <use xlink:href="#DejaVuSans-30" x="95.410156"/>
      </g>
     </g>
    </g>
    <g id="xtick_6">
     <g id="line2d_11">
      <defs>
       <path id="mf029b58566" d="M 0 0 
L 0 2 
" style="stroke: #000000; stroke-width: 0.6"/>
      </defs>
      <g>
       <use xlink:href="#mf029b58566" x="49.288841" y="199.756225" style="stroke: #000000; stroke-width: 0.6"/>
      </g>
     </g>
    </g>
    <g id="xtick_7">
     <g id="line2d_12">
      <g>
       <use xlink:href="#mf029b58566" x="69.635494" y="199.756225" style="stroke: #000000; stroke-width: 0.6"/>
      </g>
     </g>
    </g>
    <g id="xtick_8">
     <g id="line2d_13">
      <g>
       <use xlink:href="#mf029b58566" x="89.982147" y="199.756225" style="stroke: #000000; stroke-width: 0.6"/>
      </g>
     </g>
    </g>
    <g id="xtick_9">
     <g id="line2d_14">
      <g>
       <use xlink:href="#mf029b58566" x="110.3288" y="199.756225" style="stroke: #000000; stroke-width: 0.6"/>
      </g>
     </g>
    </g>
    <g id="xtick_10">
     <g id="line2d_15">
      <g>
       <use xlink:href="#mf029b58566" x="151.022106" y="199.756225" style="stroke: #000000; stroke-width: 0.6"/>
      </g>
     </g>
    </g>
    <g id="xtick_11">
     <g id="line2d_16">
      <g>
       <use xlink:href="#mf029b58566" x="171.368759" y="199.756225" style="stroke: #000000; stroke-width: 0.6"/>
      </g>
     </g>
    </g>
    <g id="xtick_12">
     <g id="line2d_17">
      <g>
       <use xlink:href="#mf029b58566" x="191.715412" y="199.756225" style="stroke: #000000; stroke-width: 0.6"/>
      </g>
     </g>
    </g>
    <g id="xtick_13">
     <g id="line2d_18">
      <g>
       <use xlink:href="#mf029b58566" x="212.062065" y="199.756225" style="stroke: #000000; stroke-width: 0.6"/>
      </g>
     </g>
    </g>
    <g id="xtick_14">
     <g id="line2d_19">
      <g>
       <use xlink:href="#mf029b58566" x="252.755372" y="199.756225" style="stroke: #000000; stroke-width: 0.6"/>
      </g>
     </g>
    </g>
    <g id="xtick_15">
     <g id="line2d_20">
      <g>
       <use xlink:href="#mf029b58566" x="273.102025" y="199.756225" style="stroke: #000000; stroke-width: 0.6"/>
      </g>
     </g>
    </g>
    <g id="xtick_16">
     <g id="line2d_21">
      <g>
       <use xlink:href="#mf029b58566" x="293.448678" y="199.756225" style="stroke: #000000; stroke-width: 0.6"/>
      </g>
     </g>
    </g>
    <g id="xtick_17">
     <g id="line2d_22">
      <g>
       <use xlink:href="#mf029b58566" x="313.795331" y="199.756225" style="stroke: #000000; stroke-width: 0.6"/>
      </g>
     </g>
    </g>
    <g id="xtick_18">
     <g id="line2d_23">
      <g>
       <use xlink:href="#mf029b58566" x="354.488637" y="199.756225" style="stroke: #000000; stroke-width: 0.6"/>
      </g>
     </g>
    </g>
    <g id="xtick_19">
     <g id="line2d_24">
      <g>
       <use xlink:href="#mf029b58566" x="374.83529" y="199.756225" style="stroke: #000000; stroke-width: 0.6"/>
      </g>
     </g>
    </g>
    <g id="xtick_20">
     <g id="line2d_25">
      <g>
       <use xlink:href="#mf029b58566" x="395.181943" y="199.756225" style="stroke: #000000; stroke-width: 0.6"/>
      </g>
     </g>
    </g>
    <g id="xtick_21">
     <g id="line2d_26">
      <g>
       <use xlink:href="#mf029b58566" x="415.528597" y="199.756225" style="stroke: #000000; stroke-width: 0.6"/>
      </g>
     </g>
    </g>
   </g>
   <g id="matplotlib.axis_2">
    <g id="ytick_1">
     <g id="line2d_27">
      <path d="M 20.803526 323.986047 
L 444.013911 323.986047 
" clip-path="url(#pc753bc59be)" style="fill: none; stroke-dasharray: 0.5,0.825; stroke-dashoffset: 0; stroke: #000000; stroke-width: 0.5"/>
     </g>
     <g id="line2d_28">
      <defs>
       <path id="m60623b00a1" d="M 0 0 
L -3.5 0 
" style="stroke: #000000; stroke-width: 0.8"/>
      </defs>
      <g>
       <use xlink:href="#m60623b00a1" x="28.942187" y="323.986047" style="stroke: #000000; stroke-width: 0.8"/>
      </g>
     </g>
     <g id="text_5">
      <!-- −2 -->
      <g transform="translate(7.2 327.785266) scale(0.1 -0.1)">
       <defs>
        <path id="DejaVuSans-2212" d="M 678 2272 
L 4684 2272 
L 4684 1741 
L 678 1741 
L 678 2272 
z
" transform="scale(0.015625)"/>
       </defs>
       <use xlink:href="#DejaVuSans-2212"/>
       <use xlink:href="#DejaVuSans-32" x="83.789062"/>
      </g>
     </g>
    </g>
    <g id="ytick_2">
     <g id="line2d_29">
      <path d="M 20.803526 261.871136 
L 444.013911 261.871136 
" clip-path="url(#pc753bc59be)" style="fill: none; stroke-dasharray: 0.5,0.825; stroke-dashoffset: 0; stroke: #000000; stroke-width: 0.5"/>
     </g>
     <g id="line2d_30">
      <g>
       <use xlink:href="#m60623b00a1" x="28.942187" y="261.871136" style="stroke: #000000; stroke-width: 0.8"/>
      </g>
     </g>
     <g id="text_6">
      <!-- −1 -->
      <g transform="translate(7.2 265.670355) scale(0.1 -0.1)">
       <use xlink:href="#DejaVuSans-2212"/>
       <use xlink:href="#DejaVuSans-31" x="83.789062"/>
      </g>
     </g>
    </g>
    <g id="ytick_3">
     <g id="line2d_31">
      <path d="M 20.803526 199.756225 
L 444.013911 199.756225 
" clip-path="url(#pc753bc59be)" style="fill: none; stroke-dasharray: 0.5,0.825; stroke-dashoffset: 0; stroke: #000000; stroke-width: 0.5"/>
     </g>
     <g id="line2d_32">
      <g>
       <use xlink:href="#m60623b00a1" x="28.942187" y="199.756225" style="stroke: #000000; stroke-width: 0.8"/>
      </g>
     </g>
    </g>
    <g id="ytick_4">
     <g id="line2d_33">
      <path d="M 20.803526 137.641314 
L 444.013911 137.641314 
" clip-path="url(#pc753bc59be)" style="fill: none; stroke-dasharray: 0.5,0.825; stroke-dashoffset: 0; stroke: #000000; stroke-width: 0.5"/>
     </g>
     <g id="line2d_34">
      <g>
       <use xlink:href="#m60623b00a1" x="28.942187" y="137.641314" style="stroke: #000000; stroke-width: 0.8"/>
      </g>
     </g>
     <g id="text_7">
      <!-- 1 -->
      <g transform="translate(15.579687 141.440532) scale(0.1 -0.1)">
       <use xlink:href="#DejaVuSans-31"/>
      </g>
     </g>
    </g>
    <g id="ytick_5">
     <g id="line2d_35">
      <path d="M 20.803526 75.526402 
L 444.013911 75.526402 
" clip-path="url(#pc753bc59be)" style="fill: none; stroke-dasharray: 0.5,0.825; stroke-dashoffset: 0; stroke: #000000; stroke-width: 0.5"/>
     </g>
     <g id="line2d_36">
      <g>
       <use xlink:href="#m60623b00a1" x="28.942187" y="75.526402" style="stroke: #000000; stroke-width: 0.8"/>
      </g>
     </g>
     <g id="text_8">
      <!-- 2 -->
      <g transform="translate(15.579687 79.325621) scale(0.1 -0.1)">
       <use xlink:href="#DejaVuSans-32"/>
      </g>
     </g>
    </g>
    <g id="ytick_6">
     <g id="line2d_37">
      <path d="M 20.803526 13.411491 
L 444.013911 13.411491 
" clip-path="url(#pc753bc59be)" style="fill: none; stroke-dasharray: 0.5,0.825; stroke-dashoffset: 0; stroke: #000000; stroke-width: 0.5"/>
     </g>
     <g id="line2d_38">
      <g>
       <use xlink:href="#m60623b00a1" x="28.942187" y="13.411491" style="stroke: #000000; stroke-width: 0.8"/>
      </g>
     </g>
     <g id="text_9">
      <!-- 3 -->
      <g transform="translate(15.579687 17.21071) scale(0.1 -0.1)">
       <defs>
        <path id="DejaVuSans-33" d="M 2597 2516 
Q 3050 2419 3304 2112 
Q 3559 1806 3559 1356 
Q 3559 666 3084 287 
Q 2609 -91 1734 -91 
Q 1441 -91 1130 -33 
Q 819 25 488 141 
L 488 750 
Q 750 597 1062 519 
Q 1375 441 1716 441 
Q 2309 441 2620 675 
Q 2931 909 2931 1356 
Q 2931 1769 2642 2001 
Q 2353 2234 1838 2234 
L 1294 2234 
L 1294 2753 
L 1863 2753 
Q 2328 2753 2575 2939 
Q 2822 3125 2822 3475 
Q 2822 3834 2567 4026 
Q 2313 4219 1838 4219 
Q 1578 4219 1281 4162 
Q 984 4106 628 3988 
L 628 4550 
Q 988 4650 1302 4700 
Q 1616 4750 1894 4750 
Q 2613 4750 3031 4423 
Q 3450 4097 3450 3541 
Q 3450 3153 3228 2886 
Q 3006 2619 2597 2516 
z
" transform="scale(0.015625)"/>
       </defs>
       <use xlink:href="#DejaVuSans-33"/>
      </g>
     </g>
    </g>
    <g id="ytick_7">
     <g id="line2d_39">
      <defs>
       <path id="mbdbda11182" d="M 0 0 
L -2 0 
" style="stroke: #000000; stroke-width: 0.6"/>
      </defs>
      <g>
       <use xlink:href="#mbdbda11182" x="28.942187" y="311.563065" style="stroke: #000000; stroke-width: 0.6"/>
      </g>
     </g>
    </g>
    <g id="ytick_8">
     <g id="line2d_40">
      <g>
       <use xlink:href="#mbdbda11182" x="28.942187" y="299.140083" style="stroke: #000000; stroke-width: 0.6"/>
      </g>
     </g>
    </g>
    <g id="ytick_9">
     <g id="line2d_41">
      <g>
       <use xlink:href="#mbdbda11182" x="28.942187" y="286.717101" style="stroke: #000000; stroke-width: 0.6"/>
      </g>
     </g>
    </g>
    <g id="ytick_10">
     <g id="line2d_42">
      <g>
       <use xlink:href="#mbdbda11182" x="28.942187" y="274.294118" style="stroke: #000000; stroke-width: 0.6"/>
      </g>
     </g>
    </g>
    <g id="ytick_11">
     <g id="line2d_43">
      <g>
       <use xlink:href="#mbdbda11182" x="28.942187" y="249.448154" style="stroke: #000000; stroke-width: 0.6"/>
      </g>
     </g>
    </g>
    <g id="ytick_12">
     <g id="line2d_44">
      <g>
       <use xlink:href="#mbdbda11182" x="28.942187" y="237.025172" style="stroke: #000000; stroke-width: 0.6"/>
      </g>
     </g>
    </g>
    <g id="ytick_13">
     <g id="line2d_45">
      <g>
       <use xlink:href="#mbdbda11182" x="28.942187" y="224.602189" style="stroke: #000000; stroke-width: 0.6"/>
      </g>
     </g>
    </g>
    <g id="ytick_14">
     <g id="line2d_46">
      <g>
       <use xlink:href="#mbdbda11182" x="28.942187" y="212.179207" style="stroke: #000000; stroke-width: 0.6"/>
      </g>
     </g>
    </g>
    <g id="ytick_15">
     <g id="line2d_47">
      <g>
       <use xlink:href="#mbdbda11182" x="28.942187" y="187.333243" style="stroke: #000000; stroke-width: 0.6"/>
      </g>
     </g>
    </g>
    <g id="ytick_16">
     <g id="line2d_48">
      <g>
       <use xlink:href="#mbdbda11182" x="28.942187" y="174.91026" style="stroke: #000000; stroke-width: 0.6"/>
      </g>
     </g>
    </g>
    <g id="ytick_17">
     <g id="line2d_49">
      <g>
       <use xlink:href="#mbdbda11182" x="28.942187" y="162.487278" style="stroke: #000000; stroke-width: 0.6"/>
      </g>
     </g>
    </g>
    <g id="ytick_18">
     <g id="line2d_50">
      <g>
       <use xlink:href="#mbdbda11182" x="28.942187" y="150.064296" style="stroke: #000000; stroke-width: 0.6"/>
      </g>
     </g>
    </g>
    <g id="ytick_19">
     <g id="line2d_51">
      <g>
       <use xlink:href="#mbdbda11182" x="28.942187" y="125.218331" style="stroke: #000000; stroke-width: 0.6"/>
      </g>
     </g>
    </g>
    <g id="ytick_20">
     <g id="line2d_52">
      <g>
       <use xlink:href="#mbdbda11182" x="28.942187" y="112.795349" style="stroke: #000000; stroke-width: 0.6"/>
      </g>
     </g>
    </g>
    <g id="ytick_21">
     <g id="line2d_53">
      <g>
       <use xlink:href="#mbdbda11182" x="28.942187" y="100.372367" style="stroke: #000000; stroke-width: 0.6"/>
      </g>
     </g>
    </g>
    <g id="ytick_22">
     <g id="line2d_54">
      <g>
       <use xlink:href="#mbdbda11182" x="28.942187" y="87.949385" style="stroke: #000000; stroke-width: 0.6"/>
      </g>
     </g>
    </g>
    <g id="ytick_23">
     <g id="line2d_55">
      <g>
       <use xlink:href="#mbdbda11182" x="28.942187" y="63.10342" style="stroke: #000000; stroke-width: 0.6"/>
      </g>
     </g>
    </g>
    <g id="ytick_24">
     <g id="line2d_56">
      <g>
       <use xlink:href="#mbdbda11182" x="28.942187" y="50.680438" style="stroke: #000000; stroke-width: 0.6"/>
      </g>
     </g>
    </g>
    <g id="ytick_25">
     <g id="line2d_57">
      <g>
       <use xlink:href="#mbdbda11182" x="28.942187" y="38.257456" style="stroke: #000000; stroke-width: 0.6"/>
      </g>
     </g>
    </g>
    <g id="ytick_26">
     <g id="line2d_58">
      <g>
       <use xlink:href="#mbdbda11182" x="28.942187" y="25.834473" style="stroke: #000000; stroke-width: 0.6"/>
      </g>
     </g>
    </g>
   </g>
   <g id="line2d_59">
    <path d="M 28.942187 199.756225 
L 33.602669 173.42064 
L 36.239044 159.603149 
L 38.576078 148.495457 
L 40.496226 140.38821 
L 42.3062 133.723771 
L 43.809659 128.981959 
L 45.144924 125.414885 
L 46.463228 122.513586 
L 47.688519 120.385629 
L 48.670839 119.082 
L 49.653159 118.139316 
L 50.606555 117.570008 
L 51.386751 117.35649 
L 52.265661 117.385816 
L 52.924843 117.593373 
L 53.802442 118.112742 
L 54.68004 118.904271 
L 55.628133 120.057041 
L 56.717217 121.749414 
L 57.898603 124.009655 
L 59.079988 126.685243 
L 60.722965 131.039097 
L 62.150639 135.355848 
L 64.054204 141.76284 
L 66.605231 151.237232 
L 70.459827 166.559685 
L 74.742809 183.262572 
L 77.145627 191.706876 
L 78.948105 197.330461 
L 80.616915 201.864534 
L 82.1364 205.349283 
L 83.476731 207.863078 
L 84.548331 209.469683 
L 85.63569 210.716361 
L 86.707923 211.554426 
L 87.489144 211.91448 
L 88.197682 212.055517 
L 88.906219 212.018398 
L 89.614757 211.80205 
L 90.323295 211.405958 
L 91.318208 210.546553 
L 92.313121 209.334854 
L 93.551277 207.341273 
L 94.779855 204.842521 
L 96.132069 201.513361 
L 97.571895 197.33372 
L 99.067429 192.345035 
L 100.85721 185.588264 
L 102.966624 176.673983 
L 105.7011 163.925004 
L 109.0627 147.129698 
L 114.590518 119.477315 
L 117.216956 107.481265 
L 119.315684 98.874002 
L 121.154906 92.232582 
L 122.657806 87.525751 
L 124.152464 83.552266 
L 125.341282 80.929828 
L 126.5301 78.807384 
L 127.481154 77.481118 
L 128.399588 76.521051 
L 129.285402 75.898034 
L 130.055363 75.600411 
L 130.709472 75.526625 
L 131.396031 75.626335 
L 132.115041 75.924967 
L 132.83405 76.421412 
L 133.912564 77.533601 
L 134.803265 78.779902 
L 135.884522 80.682606 
L 137.191781 83.536216 
L 138.665638 87.446211 
L 140.139495 92.043401 
L 141.976638 98.64864 
L 143.857459 106.291589 
L 146.229617 116.963006 
L 148.899107 129.949026 
L 157.455421 172.473551 
L 159.78906 182.715998 
L 161.869967 190.856671 
L 163.732913 197.189538 
L 165.283233 201.685273 
L 166.612078 204.934166 
L 167.912844 207.545664 
L 168.969482 209.238837 
L 170.111873 210.627886 
L 170.990104 211.37998 
L 171.868336 211.856044 
L 172.746567 212.056077 
L 173.656342 211.973623 
L 174.538079 211.61515 
L 175.419817 210.986504 
L 176.301555 210.092974 
L 177.183293 208.941113 
L 178.438895 206.870598 
L 179.763761 204.164745 
L 181.147355 200.807219 
L 182.61904 196.693321 
L 184.476672 190.802572 
L 186.78064 182.622498 
L 189.303096 172.90123 
L 196.661619 144.0398 
L 198.752345 136.801378 
L 200.747624 130.698731 
L 202.3216 126.562327 
L 203.814559 123.271111 
L 204.991179 121.151494 
L 206.023848 119.658049 
L 206.913955 118.658154 
L 207.804061 117.933105 
L 208.61313 117.518435 
L 209.475788 117.337678 
L 210.338446 117.430672 
L 211.201105 117.800317 
L 212.060564 118.445381 
L 212.986752 119.450324 
L 213.91294 120.775651 
L 215.024366 122.785177 
L 216.098559 125.155111 
L 217.172752 127.935679 
L 218.635312 132.35872 
L 220.160733 137.714868 
L 221.983675 145.033883 
L 223.965382 153.999326 
L 226.383356 166.122697 
L 229.45034 182.856379 
L 238.905002 235.838731 
L 241.281495 247.537407 
L 243.379315 256.768026 
L 245.015331 263.122333 
L 246.613363 268.532388 
L 248.157002 272.953404 
L 249.447676 276.010686 
L 250.694443 278.391889 
L 251.683076 279.872318 
L 252.66055 280.977524 
L 253.646205 281.729579 
L 254.635951 282.119217 
L 255.295782 282.176749 
L 256.126564 282.02143 
L 256.877864 281.665163 
L 257.629164 281.107395 
L 258.693808 279.979918 
L 259.758452 278.469735 
L 261.024503 276.198361 
L 262.415223 273.144163 
L 264.016563 268.96403 
L 265.761737 263.694548 
L 267.840124 256.612269 
L 270.280743 247.465848 
L 279.824303 210.468275 
L 281.953512 203.553584 
L 283.740328 198.522394 
L 285.145421 195.143802 
L 286.567951 192.297985 
L 287.87697 190.22877 
L 288.834262 189.066669 
L 289.805943 188.201546 
L 290.777623 187.661243 
L 291.535855 187.469309 
L 292.294088 187.481101 
L 293.024627 187.686489 
L 293.755167 188.082933 
L 294.583132 188.763193 
L 295.605951 189.940814 
L 296.628769 191.487346 
L 297.712221 193.520782 
L 298.949742 196.327483 
L 300.416053 200.294225 
L 302.07831 205.580838 
L 303.795831 211.847982 
L 305.856544 220.310338 
L 308.437933 232.078536 
L 311.918875 249.2833 
L 318.039337 279.950558 
L 320.705802 292.12778 
L 322.745656 300.497379 
L 324.572948 307.116788 
L 326.291327 312.466667 
L 327.736869 316.241964 
L 329.106103 319.162904 
L 330.35563 321.245007 
L 331.422849 322.567715 
L 332.356779 323.373461 
L 333.237575 323.828644 
L 334.162846 323.985964 
L 335.088117 323.813793 
L 335.894781 323.395468 
L 336.65405 322.774881 
L 337.603136 321.693045 
L 338.552223 320.276394 
L 339.581767 318.369604 
L 340.856052 315.49341 
L 342.264785 311.679933 
L 343.623841 307.409503 
L 345.359233 301.185179 
L 347.388523 292.944601 
L 349.901475 281.581524 
L 352.591762 268.431534 
L 360.648108 228.304972 
L 363.184508 217.092359 
L 365.146726 209.353908 
L 366.974301 203.036067 
L 368.538547 198.395947 
L 369.892821 194.997757 
L 371.084912 192.507559 
L 372.277003 190.503495 
L 373.310505 189.168763 
L 374.218755 188.308958 
L 375.06438 187.773588 
L 375.910005 187.494269 
L 376.704517 187.46445 
L 377.49903 187.658424 
L 378.293543 188.073769 
L 379.088056 188.707201 
L 380.088547 189.808611 
L 381.089037 191.23912 
L 382.19366 193.186127 
L 383.657487 196.328458 
L 385.146133 200.13163 
L 386.718949 204.746108 
L 388.657676 211.154914 
L 390.948571 219.529711 
L 394.363333 232.975756 
L 399.500063 253.16295 
L 401.744661 261.137289 
L 403.495622 266.718973 
L 405.319239 271.786119 
L 406.901407 275.466272 
L 408.358462 278.199062 
L 409.409702 279.750464 
L 410.407657 280.880534 
L 411.470985 281.703931 
L 412.17987 282.028943 
L 412.888755 282.171483 
L 413.7825 282.087701 
L 414.591453 281.755966 
L 415.400405 281.179547 
L 416.440551 280.078117 
L 417.424188 278.664742 
L 418.485726 276.737671 
L 419.759571 273.884033 
L 421.037073 270.445316 
L 422.389842 266.1991 
L 423.920207 260.686515 
L 425.877219 252.630519 
L 427.916049 243.181021 
L 430.462596 230.148247 
L 433.575988 212.928941 
L 435.87525 199.756225 
L 435.87525 199.756225 
" clip-path="url(#pc753bc59be)" style="fill: none; stroke: #000000; stroke-width: 3; stroke-linecap: square"/>
   </g>
   <g id="patch_3">
    <path d="M 28.942187 330.197538 
L 28.942187 7.2 
" style="fill: none; stroke: #000000; stroke-width: 0.8; stroke-linejoin: miter; stroke-linecap: square"/>
   </g>
   <g id="patch_4">
    <path d="M 20.803526 199.756225 
L 444.013911 199.756225 
" style="fill: none; stroke: #000000; stroke-width: 0.8; stroke-linejoin: miter; stroke-linecap: square"/>
   </g>
  </g>
 </g>
 <defs>
  <clipPath id="pc753bc59be">
   <rect x="20.803526" y="7.2" width="423.210385" height="322.997538"/>
  </clipPath>
 </defs>
</svg>
