<?xml version="1.0" encoding="utf-8" standalone="no"?>
<!DOCTYPE svg PUBLIC "-//W3C//DTD SVG 1.1//EN"
  "http://www.w3.org/Graphics/SVG/1.1/DTD/svg11.dtd">
<svg xmlns:xlink="http://www.w3.org/1999/xlink" width="452.901797pt" height="224.066385pt" viewBox="0 0 452.901797 224.066385" xmlns="http://www.w3.org/2000/svg" version="1.1">
 <metadata>
  <rdf:RDF xmlns:dc="http://purl.org/dc/elements/1.1/" xmlns:cc="http://creativecommons.org/ns#" xmlns:rdf="http://www.w3.org/1999/02/22-rdf-syntax-ns#">
   <cc:Work>
    <dc:type rdf:resource="http://purl.org/dc/dcmitype/StillImage"/>
    <dc:date>2025-12-10T16:56:05.407866</dc:date>
    <dc:format>image/svg+xml</dc:format>
    <dc:creator>
     <cc:Agent>
      <dc:title>Matplotlib v3.10.5, https://matplotlib.org/</dc:title>
     </cc:Agent>
    </dc:creator>
   </cc:Work>
  </rdf:RDF>
 </metadata>
 <defs>
  <style type="text/css">*{stroke-linejoin: round; stroke-linecap: butt}</style>
 </defs>
 <g id="figure_1">
  <g id="patch_1">
   <path d="M 0 224.066385 
L 452.901797 224.066385 
L 452.901797 0 
L 0 0 
z
" style="fill: #ffffff"/>
  </g>
  <g id="axes_1">
   <g id="patch_2">
    <path d="M 13.406631 216.866385 
L 445.701797 216.866385 
L 445.701797 7.2 
L 13.406631 7.2 
z
" style="fill: #ffffff"/>
   </g>
   <g id="PathCollection_1">
    <path d="M 48.965994 121.643454 
C 49.903629 121.643454 50.802987 121.270928 51.465994 120.60792 
C 52.129002 119.944912 52.501528 119.045554 52.501528 118.10792 
C 52.501528 117.170285 52.129002 116.270928 51.465994 115.60792 
C 50.802987 114.944912 49.903629 114.572386 48.965994 114.572386 
C 48.02836 114.572386 47.129002 114.944912 46.465994 115.60792 
C 45.802987 116.270928 45.43046 117.170285 45.43046 118.10792 
C 45.43046 119.045554 45.802987 119.944912 46.465994 120.60792 
C 47.129002 121.270928 48.02836 121.643454 48.965994 121.643454 
z
" clip-path="url(#pa7e7a5d641)"/>
   </g>
   <g id="PathCollection_2">
    <path d="M 39.604108 165.218829 
C 40.541742 165.218829 41.4411 164.846303 42.104108 164.183295 
C 42.767116 163.520288 43.139642 162.62093 43.139642 161.683295 
C 43.139642 160.745661 42.767116 159.846303 42.104108 159.183295 
C 41.4411 158.520288 40.541742 158.147762 39.604108 158.147762 
C 38.666473 158.147762 37.767116 158.520288 37.104108 159.183295 
C 36.4411 159.846303 36.068574 160.745661 36.068574 161.683295 
C 36.068574 162.62093 36.4411 163.520288 37.104108 164.183295 
C 37.767116 164.846303 38.666473 165.218829 39.604108 165.218829 
z
" clip-path="url(#pa7e7a5d641)"/>
   </g>
   <g id="matplotlib.axis_1"/>
   <g id="matplotlib.axis_2"/>
   <g id="line2d_1">
    <path d="M 437.388428 71.362239 
L 434.544551 67.644727 
L 431.03804 63.459098 
L 427.129765 59.223289 
L 423.244335 55.386931 
L 419.326083 51.839466 
L 415.447857 48.603382 
L 410.882783 45.100551 
L 406.027272 41.694153 
L 402.816107 39.602966 
L 395.913801 35.494873 
L 390.538033 32.622848 
L 383.371253 29.187545 
L 375.313545 25.803013 
L 369.268068 23.561554 
L 362.923435 21.45918 
L 358.450349 20.120365 
L 350.634859 18.04619 
L 344.492212 16.637743 
L 334.822084 14.787158 
L 329.264677 13.914298 
L 321.395281 12.90221 
L 313.148899 12.109019 
L 306.637666 11.666715 
L 297.351785 11.303847 
L 288.50816 11.23872 
L 283.723606 11.313497 
L 274.554537 11.665936 
L 264.343134 12.37268 
L 258.498186 12.922373 
L 251.962422 13.65975 
L 245.047222 14.579073 
L 236.080049 15.981554 
L 227.23284 17.595806 
L 217.152984 19.712432 
L 207.520286 22.01139 
L 196.359023 25.015339 
L 188.942297 27.216239 
L 183.574758 28.912775 
L 177.067938 31.088328 
L 166.869489 34.767243 
L 156.412544 38.894218 
L 149.479831 41.838239 
L 140.01976 46.138976 
L 133.235919 49.43683 
L 123.861959 54.311365 
L 115.725414 58.868271 
L 110.995578 61.66972 
L 103.392201 66.432311 
L 96.009081 71.398182 
L 90.214827 75.56411 
L 85.067523 79.491725 
L 78.038345 85.258115 
L 73.370478 89.391798 
L 67.906189 94.608903 
L 63.255041 99.44623 
L 59.953938 103.156387 
L 56.022193 107.957021 
L 53.404602 111.445368 
L 49.773695 116.808442 
L 47.708964 120.228004 
L 46.092952 123.164624 
L 44.256804 126.884509 
L 42.490381 131.036113 
L 41.012209 135.240722 
L 39.818014 139.60502 
L 39.171633 142.790965 
L 38.637057 146.80723 
L 38.424405 151.126892 
L 38.519801 154.333974 
L 38.85236 157.627438 
L 39.329711 160.426961 
L 40.150402 163.789676 
L 41.009482 166.477679 
L 41.764941 168.462906 
L 43.289654 171.824271 
L 45.260895 175.385084 
L 47.048428 178.131863 
L 49.50208 181.402896 
L 52.451691 184.798817 
L 55.188118 187.570659 
L 57.901331 190.045347 
L 61.230217 192.787905 
L 65.366431 195.837995 
L 69.653618 198.666755 
L 73.896949 201.196971 
L 78.370865 203.6242 
L 83.275111 206.046403 
L 87.556436 207.986278 
L 93.662285 210.511339 
L 99.888612 212.834339 
L 99.888612 212.834339 
" clip-path="url(#pa7e7a5d641)" style="fill: none; stroke: #000000; stroke-width: 2; stroke-linecap: square"/>
   </g>
   <g id="patch_3">
    <path d="M 194.785349 25.468549 
Q 193.815137 25.753058 194.990638 25.408349 
" clip-path="url(#pa7e7a5d641)" style="fill: none; stroke: #000000; stroke-width: 2; stroke-linecap: round"/>
    <path d="M 205.993532 27.392362 
L 194.990638 25.408349 
L 203.179585 17.796441 
z
" clip-path="url(#pa7e7a5d641)" style="stroke: #000000; stroke-width: 2; stroke-linecap: round"/>
   </g>
   <g id="text_1">
    <!-- $Q_0$ -->
    <g transform="translate(25.50394 106.846312) scale(0.24 -0.24)">
     <defs>
      <path id="Cmmi10-51" d="M 1947 -141 
Q 1466 -141 1094 79 
Q 722 300 520 692 
Q 319 1084 319 1563 
Q 319 2259 714 2950 
Q 1109 3641 1756 4077 
Q 2403 4513 3109 4513 
Q 3475 4513 3778 4381 
Q 4081 4250 4290 4017 
Q 4500 3784 4614 3471 
Q 4728 3159 4728 2791 
Q 4728 2366 4581 1936 
Q 4434 1506 4171 1136 
Q 3909 766 3559 484 
Q 3209 203 2809 38 
Q 2850 -256 2934 -425 
Q 3019 -594 3256 -594 
Q 3506 -594 3726 -412 
Q 3947 -231 4006 13 
Q 4019 72 4078 72 
Q 4147 72 4147 -13 
Q 4100 -219 4008 -430 
Q 3916 -641 3786 -823 
Q 3656 -1006 3478 -1123 
Q 3300 -1241 3084 -1241 
Q 2547 -1241 2547 -550 
Q 2547 -509 2562 -332 
Q 2578 -156 2578 -44 
Q 2269 -141 1947 -141 
z
M 1709 300 
Q 1709 44 1991 44 
Q 2275 44 2591 184 
L 2591 244 
Q 2591 503 2509 648 
Q 2428 794 2194 794 
Q 2078 794 1964 723 
Q 1850 653 1779 539 
Q 1709 425 1709 300 
z
M 1544 288 
Q 1544 456 1637 612 
Q 1731 769 1881 864 
Q 2031 959 2203 959 
Q 2481 959 2607 771 
Q 2734 584 2778 281 
Q 3188 525 3500 978 
Q 3813 1431 3977 1973 
Q 4141 2516 4141 3003 
Q 4141 3356 4023 3656 
Q 3906 3956 3664 4140 
Q 3422 4325 3066 4325 
Q 2722 4325 2403 4156 
Q 2084 3988 1813 3706 
Q 1550 3434 1342 3032 
Q 1134 2631 1021 2193 
Q 909 1756 909 1356 
Q 909 947 1068 612 
Q 1228 278 1569 128 
Q 1544 194 1544 288 
z
" transform="scale(0.015625)"/>
      <path id="Cmr10-30" d="M 1600 -141 
Q 816 -141 533 504 
Q 250 1150 250 2041 
Q 250 2597 351 3087 
Q 453 3578 754 3920 
Q 1056 4263 1600 4263 
Q 2022 4263 2290 4056 
Q 2559 3850 2700 3523 
Q 2841 3197 2892 2823 
Q 2944 2450 2944 2041 
Q 2944 1491 2842 1011 
Q 2741 531 2444 195 
Q 2147 -141 1600 -141 
z
M 1600 25 
Q 1956 25 2131 390 
Q 2306 756 2347 1200 
Q 2388 1644 2388 2144 
Q 2388 2625 2347 3031 
Q 2306 3438 2132 3767 
Q 1959 4097 1600 4097 
Q 1238 4097 1063 3765 
Q 888 3434 847 3029 
Q 806 2625 806 2144 
Q 806 1788 823 1472 
Q 841 1156 916 820 
Q 991 484 1158 254 
Q 1325 25 1600 25 
z
" transform="scale(0.015625)"/>
     </defs>
     <use xlink:href="#Cmmi10-51" transform="translate(0 0.484375)"/>
     <use xlink:href="#Cmr10-30" transform="translate(79.003906 -16.521875) scale(0.7)"/>
    </g>
   </g>
   <g id="text_2">
    <!-- $Q_1$ -->
    <g transform="translate(7.2 159.363741) scale(0.24 -0.24)">
     <defs>
      <path id="Cmr10-31" d="M 594 0 
L 594 225 
Q 1394 225 1394 428 
L 1394 3788 
Q 1063 3628 556 3628 
L 556 3853 
Q 1341 3853 1741 4263 
L 1831 4263 
Q 1853 4263 1873 4245 
Q 1894 4228 1894 4206 
L 1894 428 
Q 1894 225 2694 225 
L 2694 0 
L 594 0 
z
" transform="scale(0.015625)"/>
     </defs>
     <use xlink:href="#Cmmi10-51" transform="translate(0 0.484375)"/>
     <use xlink:href="#Cmr10-31" transform="translate(79.003906 -16.521875) scale(0.7)"/>
    </g>
   </g>
  </g>
 </g>
 <defs>
  <clipPath id="pa7e7a5d641">
   <rect x="13.406631" y="7.2" width="432.295165" height="209.666385"/>
  </clipPath>
 </defs>
</svg>
