<?xml version="1.0" encoding="utf-8" standalone="no"?>
<!DOCTYPE svg PUBLIC "-//W3C//DTD SVG 1.1//EN"
  "http://www.w3.org/Graphics/SVG/1.1/DTD/svg11.dtd">
<svg xmlns:xlink="http://www.w3.org/1999/xlink" width="453.6pt" height="331.548705pt" viewBox="0 0 453.6 331.548705" xmlns="http://www.w3.org/2000/svg" version="1.1">
 <metadata>
  <rdf:RDF xmlns:dc="http://purl.org/dc/elements/1.1/" xmlns:cc="http://creativecommons.org/ns#" xmlns:rdf="http://www.w3.org/1999/02/22-rdf-syntax-ns#">
   <cc:Work>
    <dc:type rdf:resource="http://purl.org/dc/dcmitype/StillImage"/>
    <dc:date>2025-08-27T14:12:35.501441</dc:date>
    <dc:format>image/svg+xml</dc:format>
    <dc:creator>
     <cc:Agent>
      <dc:title>Matplotlib v3.10.3, https://matplotlib.org/</dc:title>
     </cc:Agent>
    </dc:creator>
   </cc:Work>
  </rdf:RDF>
 </metadata>
 <defs>
  <style type="text/css">*{stroke-linejoin: round; stroke-linecap: butt}</style>
 </defs>
 <g id="figure_1">
  <g id="patch_1">
   <path d="M 0 331.548705 
L 453.6 331.548705 
L 453.6 0 
L 0 0 
z
" style="fill: #ffffff"/>
  </g>
  <g id="axes_1">
   <g id="patch_2">
    <path d="M 7.2 324.348705 
L 446.4 324.348705 
L 446.4 7.2 
L 7.2 7.2 
z
" style="fill: #ffffff"/>
   </g>
   <g id="PathCollection_1">
    <path d="M 382.766836 159.451989 
C 383.493124 159.451989 384.189764 159.163432 384.703328 158.649868 
C 385.216891 158.136305 385.505449 157.439665 385.505449 156.713376 
C 385.505449 155.987088 385.216891 155.290448 384.703328 154.776885 
C 384.189764 154.263321 383.493124 153.974764 382.766836 153.974764 
C 382.040547 153.974764 381.343908 154.263321 380.830344 154.776885 
C 380.316781 155.290448 380.028223 155.987088 380.028223 156.713376 
C 380.028223 157.439665 380.316781 158.136305 380.830344 158.649868 
C 381.343908 159.163432 382.040547 159.451989 382.766836 159.451989 
z
" clip-path="url(#p9e6d3506aa)"/>
   </g>
   <g id="matplotlib.axis_1"/>
   <g id="matplotlib.axis_2"/>
   <g id="line2d_1">
    <path d="M 356.223914 202.577597 
L 357.016205 199.551 
L 358.040592 196.537978 
L 359.299122 193.503278 
L 360.817222 190.377605 
L 362.651971 187.058485 
L 365.395749 182.640718 
L 368.615808 177.916688 
L 379.643337 162.188959 
L 381.644633 158.829792 
L 383.211872 155.80089 
L 384.419686 152.979706 
L 385.346838 150.128641 
L 385.838683 147.886365 
L 386.112086 145.357794 
L 386.080305 143.113757 
L 385.839301 141.239281 
L 385.412316 139.441409 
L 384.860596 137.837439 
L 384.049637 136.05604 
L 383.078519 134.365685 
L 381.699124 132.410037 
L 379.965243 130.380714 
L 377.967972 128.403873 
L 375.423486 126.24276 
L 373.004575 124.440926 
L 369.623286 122.209524 
L 365.604977 119.868137 
L 361.041446 117.500754 
L 356.134963 115.208507 
L 350.679574 112.890413 
L 344.334616 110.426787 
L 337.358362 107.939871 
L 328.143301 104.926604 
L 318.974211 102.163917 
L 308.052399 99.107446 
L 295.807263 95.913587 
L 282.146646 92.571997 
L 266.569953 88.976082 
L 247.019825 84.696418 
L 223.848039 79.846536 
L 137.63233 62.065549 
L 121.230298 58.339675 
L 109.796904 55.552331 
L 98.571514 52.578079 
L 90.559773 50.236895 
L 83.833666 48.055268 
L 82.544073 47.606038 
L 82.544073 47.606038 
" clip-path="url(#p9e6d3506aa)" style="fill: none; stroke: #000000; stroke-width: 2; stroke-linecap: square"/>
   </g>
   <g id="patch_3">
    <path d="M 382.766836 156.713376 
Q 410.360341 101.654018 436.951993 48.593732 
" clip-path="url(#p9e6d3506aa)" style="fill: none; stroke: #ff0000; stroke-width: 2; stroke-linecap: round"/>
    <path d="M 428.001506 55.293642 
L 436.951993 48.593732 
L 436.941629 59.774067 
z
" clip-path="url(#p9e6d3506aa)" style="fill: #ff0000; stroke: #ff0000; stroke-width: 2; stroke-linecap: round"/>
   </g>
   <g id="patch_4">
    <path d="M 382.766836 156.713376 
Q 327.707477 129.119871 274.647191 102.52822 
" clip-path="url(#p9e6d3506aa)" style="fill: none; stroke: #800080; stroke-width: 2; stroke-linecap: round"/>
    <path d="M 281.347101 111.478706 
L 274.647191 102.52822 
L 285.827526 102.538583 
z
" clip-path="url(#p9e6d3506aa)" style="fill: #800080; stroke: #800080; stroke-width: 2; stroke-linecap: round"/>
   </g>
   <g id="patch_5">
    <path d="M 382.766836 156.713376 
Q 342.289129 237.481534 302.813276 316.250619 
" clip-path="url(#p9e6d3506aa)" style="fill: none; stroke: #008000; stroke-width: 2; stroke-linecap: round"/>
    <path d="M 311.763762 309.550709 
L 302.813276 316.250619 
L 302.823639 305.070284 
z
" clip-path="url(#p9e6d3506aa)" style="fill: #008000; stroke: #008000; stroke-width: 2; stroke-linecap: round"/>
   </g>
   <g id="patch_6">
    <path d="M 382.766836 156.713376 
Q 239.684202 85.006195 98.60064 14.300867 
" clip-path="url(#p9e6d3506aa)" style="fill: none; stroke: #0000ff; stroke-width: 2; stroke-linecap: round"/>
    <path d="M 105.30055 23.251353 
L 98.60064 14.300867 
L 109.780975 14.311231 
z
" clip-path="url(#p9e6d3506aa)" style="fill: #0000ff; stroke: #0000ff; stroke-width: 2; stroke-linecap: round"/>
   </g>
   <g id="patch_7">
    <path d="M 382.766836 156.713376 
Q 199.206495 165.774352 17.879503 174.725085 
" clip-path="url(#p9e6d3506aa)" style="fill: none; stroke: #ffa500; stroke-width: 2; stroke-linecap: round"/>
    <path d="M 28.113853 179.225981 
L 17.879503 174.725085 
L 27.62083 169.238142 
z
" clip-path="url(#p9e6d3506aa)" style="fill: #ffa500; stroke: #ffa500; stroke-width: 2; stroke-linecap: round"/>
   </g>
  </g>
 </g>
 <defs>
  <clipPath id="p9e6d3506aa">
   <rect x="7.2" y="7.2" width="439.2" height="317.148705"/>
  </clipPath>
 </defs>
</svg>
