<?xml version="1.0" encoding="utf-8" standalone="no"?>
<!DOCTYPE svg PUBLIC "-//W3C//DTD SVG 1.1//EN"
  "http://www.w3.org/Graphics/SVG/1.1/DTD/svg11.dtd">
<svg xmlns:xlink="http://www.w3.org/1999/xlink" width="325.688965pt" height="338.096672pt" viewBox="0 0 325.688965 338.096672" xmlns="http://www.w3.org/2000/svg" version="1.1">
 <metadata>
  <rdf:RDF xmlns:dc="http://purl.org/dc/elements/1.1/" xmlns:cc="http://creativecommons.org/ns#" xmlns:rdf="http://www.w3.org/1999/02/22-rdf-syntax-ns#">
   <cc:Work>
    <dc:type rdf:resource="http://purl.org/dc/dcmitype/StillImage"/>
    <dc:date>2025-09-03T15:04:26.215919</dc:date>
    <dc:format>image/svg+xml</dc:format>
    <dc:creator>
     <cc:Agent>
      <dc:title>Matplotlib v3.10.5, https://matplotlib.org/</dc:title>
     </cc:Agent>
    </dc:creator>
   </cc:Work>
  </rdf:RDF>
 </metadata>
 <defs>
  <style type="text/css">*{stroke-linejoin: round; stroke-linecap: butt}</style>
 </defs>
 <g id="figure_1">
  <g id="patch_1">
   <path d="M -0 338.096672 
L 325.688965 338.096672 
L 325.688965 0 
L -0 0 
z
" style="fill: #ffffff"/>
  </g>
  <g id="axes_1">
   <g id="patch_2">
    <path d="M 8.872916 319.920038 
L 305.348965 319.920038 
L 305.348965 23.4425 
L 8.872916 23.4425 
z
" style="fill: #ffffff"/>
   </g>
   <g id="patch_3">
    <path d="M 157.109298 314.218547 
L 166.059346 313.937281 
L 174.974072 313.094591 
L 183.818294 311.693804 
L 192.557108 309.740448 
L 201.156025 307.242231 
L 209.581111 304.209014 
L 217.799114 300.652766 
L 225.777602 296.587524 
L 233.485087 292.029329 
L 240.891152 286.996173 
L 247.966569 281.507917 
L 254.683413 275.586222 
L 261.015177 269.254458 
L 266.936872 262.537614 
L 272.425128 255.462197 
L 277.458284 248.056132 
L 282.016478 240.348647 
L 286.081721 232.370159 
L 289.637969 224.152156 
L 292.671186 215.727071 
L 295.169402 207.128153 
L 297.122759 198.389339 
L 298.523546 189.545117 
L 299.366236 180.630391 
L 299.647502 171.680343 
z
" clip-path="url(#p93e3226092)" style="fill: #add8e6; stroke: #000000; stroke-width: 3; stroke-linejoin: miter"/>
   </g>
   <g id="matplotlib.axis_1">
    <g id="xtick_1">
     <g id="line2d_1">
      <defs>
       <path id="meda36554fd" d="M 0 0 
L 0 3.5 
" style="stroke: #000000; stroke-width: 0.8"/>
      </defs>
      <g>
       <use xlink:href="#meda36554fd" x="14.571094" y="314.218547" style="stroke: #000000; stroke-width: 0.8"/>
      </g>
     </g>
     <g id="text_1">
      <!-- −1 -->
      <g transform="translate(7.2 328.816985) scale(0.1 -0.1)">
       <defs>
        <path id="DejaVuSans-2212" d="M 678 2272 
L 4684 2272 
L 4684 1741 
L 678 1741 
L 678 2272 
z
" transform="scale(0.015625)"/>
        <path id="DejaVuSans-31" d="M 794 531 
L 1825 531 
L 1825 4091 
L 703 3866 
L 703 4441 
L 1819 4666 
L 2450 4666 
L 2450 531 
L 3481 531 
L 3481 0 
L 794 0 
L 794 531 
z
" transform="scale(0.015625)"/>
       </defs>
       <use xlink:href="#DejaVuSans-2212"/>
       <use xlink:href="#DejaVuSans-31" transform="translate(83.789062 0)"/>
      </g>
     </g>
    </g>
    <g id="xtick_2">
     <g id="line2d_2">
      <g>
       <use xlink:href="#meda36554fd" x="299.647502" y="314.218547" style="stroke: #000000; stroke-width: 0.8"/>
      </g>
     </g>
     <g id="text_2">
      <!-- 1 -->
      <g transform="translate(296.466252 328.816985) scale(0.1 -0.1)">
       <use xlink:href="#DejaVuSans-31"/>
      </g>
     </g>
    </g>
    <g id="text_3">
     <!-- $x$ -->
     <g transform="translate(313.348965 314.218547) scale(0.16 -0.16)">
      <defs>
       <path id="Cmmi10-78" d="M 500 184 
Q 613 97 819 97 
Q 1019 97 1172 289 
Q 1325 481 1381 709 
L 1672 1844 
Q 1741 2153 1741 2266 
Q 1741 2425 1652 2544 
Q 1563 2663 1403 2663 
Q 1200 2663 1022 2536 
Q 844 2409 722 2214 
Q 600 2019 550 1819 
Q 538 1778 500 1778 
L 422 1778 
Q 372 1778 372 1838 
L 372 1856 
Q 434 2094 584 2320 
Q 734 2547 951 2687 
Q 1169 2828 1416 2828 
Q 1650 2828 1839 2703 
Q 2028 2578 2106 2363 
Q 2216 2559 2386 2693 
Q 2556 2828 2759 2828 
Q 2897 2828 3040 2779 
Q 3184 2731 3275 2631 
Q 3366 2531 3366 2381 
Q 3366 2219 3261 2101 
Q 3156 1984 2994 1984 
Q 2891 1984 2822 2050 
Q 2753 2116 2753 2216 
Q 2753 2350 2845 2451 
Q 2938 2553 3066 2572 
Q 2950 2663 2747 2663 
Q 2541 2663 2389 2472 
Q 2238 2281 2175 2047 
L 1894 916 
Q 1825 659 1825 494 
Q 1825 331 1917 214 
Q 2009 97 2163 97 
Q 2463 97 2698 361 
Q 2934 625 3009 941 
Q 3022 978 3059 978 
L 3138 978 
Q 3163 978 3178 961 
Q 3194 944 3194 922 
Q 3194 916 3188 903 
Q 3097 522 2806 225 
Q 2516 -72 2150 -72 
Q 1916 -72 1727 54 
Q 1538 181 1459 397 
Q 1359 209 1182 68 
Q 1006 -72 806 -72 
Q 669 -72 523 -23 
Q 378 25 287 125 
Q 197 225 197 378 
Q 197 528 301 651 
Q 406 775 563 775 
Q 669 775 741 711 
Q 813 647 813 544 
Q 813 409 723 309 
Q 634 209 500 184 
z
" transform="scale(0.015625)"/>
      </defs>
      <use xlink:href="#Cmmi10-78" transform="translate(0 0.8125)"/>
     </g>
    </g>
   </g>
   <g id="matplotlib.axis_2">
    <g id="ytick_1">
     <g id="line2d_3">
      <defs>
       <path id="m4c3d1bd8d9" d="M 0 0 
L -3.5 0 
" style="stroke: #000000; stroke-width: 0.8"/>
      </defs>
      <g>
       <use xlink:href="#m4c3d1bd8d9" x="157.109298" y="314.218547" style="stroke: #000000; stroke-width: 0.8"/>
      </g>
     </g>
    </g>
    <g id="ytick_2">
     <g id="line2d_4">
      <g>
       <use xlink:href="#m4c3d1bd8d9" x="157.109298" y="171.680343" style="stroke: #000000; stroke-width: 0.8"/>
      </g>
     </g>
     <g id="text_4">
      <!-- 1 -->
      <g transform="translate(143.746798 175.479562) scale(0.1 -0.1)">
       <use xlink:href="#DejaVuSans-31"/>
      </g>
     </g>
    </g>
    <g id="ytick_3">
     <g id="line2d_5">
      <g>
       <use xlink:href="#m4c3d1bd8d9" x="157.109298" y="29.142139" style="stroke: #000000; stroke-width: 0.8"/>
      </g>
     </g>
     <g id="text_5">
      <!-- 2 -->
      <g transform="translate(143.746798 32.941358) scale(0.1 -0.1)">
       <defs>
        <path id="DejaVuSans-32" d="M 1228 531 
L 3431 531 
L 3431 0 
L 469 0 
L 469 531 
Q 828 903 1448 1529 
Q 2069 2156 2228 2338 
Q 2531 2678 2651 2914 
Q 2772 3150 2772 3378 
Q 2772 3750 2511 3984 
Q 2250 4219 1831 4219 
Q 1534 4219 1204 4116 
Q 875 4013 500 3803 
L 500 4441 
Q 881 4594 1212 4672 
Q 1544 4750 1819 4750 
Q 2544 4750 2975 4387 
Q 3406 4025 3406 3419 
Q 3406 3131 3298 2873 
Q 3191 2616 2906 2266 
Q 2828 2175 2409 1742 
Q 1991 1309 1228 531 
z
" transform="scale(0.015625)"/>
       </defs>
       <use xlink:href="#DejaVuSans-32"/>
      </g>
     </g>
    </g>
    <g id="text_6">
     <!-- $y$ -->
     <g transform="translate(153.109298 12.0825) scale(0.16 -0.16)">
      <defs>
       <path id="Cmmi10-79" d="M 538 -916 
Q 672 -1147 1006 -1147 
Q 1309 -1147 1531 -934 
Q 1753 -722 1889 -420 
Q 2025 -119 2100 197 
Q 1816 -72 1484 -72 
Q 1231 -72 1053 15 
Q 875 103 776 276 
Q 678 450 678 697 
Q 678 906 734 1126 
Q 791 1347 892 1617 
Q 994 1888 1069 2088 
Q 1153 2322 1153 2472 
Q 1153 2663 1013 2663 
Q 759 2663 595 2402 
Q 431 2141 353 1819 
Q 341 1778 300 1778 
L 225 1778 
Q 172 1778 172 1838 
L 172 1856 
Q 275 2238 487 2533 
Q 700 2828 1025 2828 
Q 1253 2828 1411 2678 
Q 1569 2528 1569 2297 
Q 1569 2178 1516 2047 
Q 1488 1969 1388 1706 
Q 1288 1444 1234 1272 
Q 1181 1100 1147 934 
Q 1113 769 1113 603 
Q 1113 391 1203 244 
Q 1294 97 1491 97 
Q 1888 97 2203 581 
L 2688 2553 
Q 2709 2638 2787 2698 
Q 2866 2759 2956 2759 
Q 3034 2759 3092 2709 
Q 3150 2659 3150 2578 
Q 3150 2541 3144 2528 
L 2509 -19 
Q 2425 -347 2200 -647 
Q 1975 -947 1658 -1130 
Q 1341 -1313 997 -1313 
Q 831 -1313 668 -1248 
Q 506 -1184 406 -1056 
Q 306 -928 306 -756 
Q 306 -581 409 -453 
Q 513 -325 684 -325 
Q 788 -325 858 -389 
Q 928 -453 928 -556 
Q 928 -703 818 -812 
Q 709 -922 563 -922 
Q 556 -919 550 -917 
Q 544 -916 538 -916 
z
" transform="scale(0.015625)"/>
      </defs>
      <use xlink:href="#Cmmi10-79" transform="translate(0 0.8125)"/>
     </g>
    </g>
   </g>
   <g id="line2d_6">
    <path d="M 299.647502 171.680343 
L 299.469064 164.550351 
L 298.653644 154.877434 
L 298.170463 151.213607 
L 297.074965 144.72201 
L 296.382362 141.346314 
L 295.077208 135.875379 
L 294.096063 132.287885 
L 291.786073 124.997305 
L 289.34805 118.482109 
L 287.082848 113.165252 
L 284.457308 107.652036 
L 280.97258 101.146472 
L 277.924404 96.044043 
L 274.895468 91.408568 
L 270.845808 85.766747 
L 268.81593 83.143526 
L 266.126352 79.852125 
L 261.910789 75.068816 
L 258.629416 71.626331 
L 252.2641 65.554459 
L 247.480869 61.452766 
L 244.343052 58.953187 
L 241.093009 56.511441 
L 235.848508 52.864197 
L 232.202042 50.526642 
L 227.950654 47.992664 
L 222.312182 44.929708 
L 214.888251 41.377879 
L 208.637487 38.78194 
L 203.763515 36.993582 
L 197.533453 34.994472 
L 188.555045 32.65407 
L 182.034499 31.338354 
L 174.928309 30.260322 
L 171.166085 29.836956 
L 165.679596 29.400022 
L 156.382652 29.143991 
L 153.038441 29.200282 
L 146.794076 29.515876 
L 142.534842 29.889212 
L 138.319643 30.38601 
L 132.976184 31.19998 
L 127.21703 32.311796 
L 119.469363 34.201709 
L 112.633068 36.258762 
L 102.784639 39.900333 
L 98.53039 41.735543 
L 94.693624 43.534242 
L 90.947199 45.427754 
L 84.078876 49.27243 
L 80.416819 51.53292 
L 75.207868 55.021458 
L 69.494376 59.249186 
L 65.788368 62.237996 
L 59.778158 67.546828 
L 55.744617 71.468861 
L 49.798951 77.863346 
L 45.601036 82.893817 
L 43.418483 85.706288 
L 38.971524 91.926936 
L 36.660258 95.462443 
L 34.262825 99.390069 
L 32.102416 103.193709 
L 29.430992 108.313239 
L 25.908712 115.970865 
L 22.819777 123.894736 
L 21.5172 127.726703 
L 19.495522 134.537533 
L 18.129288 140.030755 
L 16.814889 146.488707 
L 15.998401 151.559347 
L 15.341518 156.880468 
L 14.758123 164.380846 
L 14.574379 170.712601 
L 14.600428 174.571981 
L 14.742177 178.66192 
L 15.045469 183.299641 
L 15.674388 189.380794 
L 16.653384 195.95535 
L 17.216274 199.013135 
L 19.478757 208.760982 
L 21.370313 215.178247 
L 22.473131 218.480366 
L 25.52434 226.475768 
L 26.92768 229.731062 
L 29.005187 234.182154 
L 31.069411 238.24675 
L 34.567356 244.485646 
L 36.78862 248.100721 
L 40.165469 253.174396 
L 45.456846 260.285476 
L 48.858371 264.41047 
L 53.749853 269.833106 
L 58.779422 274.871308 
L 64.116383 279.705606 
L 68.852152 283.608069 
L 74.936414 288.148179 
L 77.876224 290.167725 
L 81.405593 292.453224 
L 89.00324 296.894977 
L 94.764316 299.860852 
L 97.756702 301.273588 
L 105.302981 304.470573 
L 112.697944 307.123214 
L 116.200689 308.222005 
L 120.458239 309.425904 
L 128.769617 311.37287 
L 134.091778 312.3478 
L 140.592508 313.258362 
L 149.594148 314.020296 
L 160.112336 314.186909 
L 163.904005 314.056506 
L 168.599015 313.754711 
L 172.346962 313.401736 
L 181.042009 312.194987 
L 186.245288 311.208956 
L 193.100647 309.599749 
L 200.294386 307.519173 
L 205.265637 305.837366 
L 210.615644 303.794728 
L 217.106421 300.976456 
L 221.485211 298.852987 
L 229.287647 294.592611 
L 232.741173 292.498219 
L 236.539546 290.035636 
L 242.95844 285.465511 
L 249.560457 280.169618 
L 255.643842 274.675893 
L 260.481306 269.819875 
L 262.91884 267.186785 
L 266.447101 263.126418 
L 269.892156 258.84207 
L 273.184644 254.406721 
L 275.224709 251.466867 
L 277.528239 247.94579 
L 280.994421 242.175847 
L 283.8996 236.80606 
L 286.660118 231.125484 
L 288.98959 225.761099 
L 292.140362 217.32847 
L 293.64712 212.601767 
L 295.399832 206.218261 
L 296.693374 200.549453 
L 297.660207 195.399147 
L 298.716373 187.946135 
L 299.082243 184.361928 
L 299.407207 179.953479 
L 299.647502 171.680343 
L 299.647502 171.680343 
" clip-path="url(#p93e3226092)" style="fill: none; stroke: #000000; stroke-width: 2; stroke-linecap: square"/>
   </g>
   <g id="patch_4">
    <path d="M 157.109298 319.920038 
L 157.109298 23.4425 
" style="fill: none; stroke: #000000; stroke-width: 0.8; stroke-linejoin: miter; stroke-linecap: square"/>
   </g>
   <g id="patch_5">
    <path d="M 8.872916 314.218547 
L 305.348965 314.218547 
" style="fill: none; stroke: #000000; stroke-width: 0.8; stroke-linejoin: miter; stroke-linecap: square"/>
   </g>
  </g>
 </g>
 <defs>
  <clipPath id="p93e3226092">
   <rect x="8.872916" y="23.4425" width="296.476048" height="296.477538"/>
  </clipPath>
 </defs>
</svg>
