<?xml version="1.0" encoding="utf-8" standalone="no"?>
<!DOCTYPE svg PUBLIC "-//W3C//DTD SVG 1.1//EN"
  "http://www.w3.org/Graphics/SVG/1.1/DTD/svg11.dtd">
<svg xmlns:xlink="http://www.w3.org/1999/xlink" width="453.6pt" height="331.548705pt" viewBox="0 0 453.6 331.548705" xmlns="http://www.w3.org/2000/svg" version="1.1">
 <metadata>
  <rdf:RDF xmlns:dc="http://purl.org/dc/elements/1.1/" xmlns:cc="http://creativecommons.org/ns#" xmlns:rdf="http://www.w3.org/1999/02/22-rdf-syntax-ns#">
   <cc:Work>
    <dc:type rdf:resource="http://purl.org/dc/dcmitype/StillImage"/>
    <dc:date>2025-07-25T14:50:46.132741</dc:date>
    <dc:format>image/svg+xml</dc:format>
    <dc:creator>
     <cc:Agent>
      <dc:title>Matplotlib v3.10.3, https://matplotlib.org/</dc:title>
     </cc:Agent>
    </dc:creator>
   </cc:Work>
  </rdf:RDF>
 </metadata>
 <defs>
  <style type="text/css">*{stroke-linejoin: round; stroke-linecap: butt}</style>
 </defs>
 <g id="figure_1">
  <g id="patch_1">
   <path d="M 0 331.548705 
L 453.6 331.548705 
L 453.6 0 
L 0 0 
z
" style="fill: #ffffff"/>
  </g>
  <g id="axes_1">
   <g id="patch_2">
    <path d="M 7.2 324.348705 
L 446.4 324.348705 
L 446.4 7.2 
L 7.2 7.2 
z
" style="fill: #ffffff"/>
   </g>
   <g id="PathCollection_1">
    <path d="M 382.766836 159.451989 
C 383.493124 159.451989 384.189764 159.163432 384.703328 158.649868 
C 385.216891 158.136305 385.505449 157.439665 385.505449 156.713376 
C 385.505449 155.987088 385.216891 155.290448 384.703328 154.776885 
C 384.189764 154.263321 383.493124 153.974764 382.766836 153.974764 
C 382.040547 153.974764 381.343908 154.263321 380.830344 154.776885 
C 380.316781 155.290448 380.028223 155.987088 380.028223 156.713376 
C 380.028223 157.439665 380.316781 158.136305 380.830344 158.649868 
C 381.343908 159.163432 382.040547 159.451989 382.766836 159.451989 
z
" clip-path="url(#pef01d8c210)"/>
   </g>
   <g id="matplotlib.axis_1"/>
   <g id="matplotlib.axis_2"/>
   <g id="line2d_1">
    <path d="M 356.223914 202.577597 
L 357.13599 199.160195 
L 358.255492 195.979531 
L 359.711022 192.60959 
L 361.345408 189.380782 
L 363.515023 185.61315 
L 366.362761 181.18378 
L 369.59053 176.541892 
L 378.711774 163.63837 
L 381.154652 159.692014 
L 382.963812 156.315741 
L 384.403707 153.021715 
L 385.101314 150.987555 
L 385.669602 148.779009 
L 386.031516 146.459534 
L 386.129723 144.768221 
L 386.013673 142.411608 
L 385.695072 140.53308 
L 385.2625 138.955312 
L 384.462918 136.905413 
L 383.311658 134.741208 
L 382.235704 133.124649 
L 380.733247 131.23468 
L 378.971302 129.358633 
L 376.481165 127.102029 
L 373.777812 124.995098 
L 370.956776 123.055935 
L 367.264916 120.801289 
L 363.182965 118.578992 
L 358.602072 116.332903 
L 353.240795 113.952442 
L 347.950555 111.803782 
L 341.24977 109.301807 
L 332.898194 106.44753 
L 323.949849 103.637599 
L 313.580111 100.62636 
L 301.676229 97.417566 
L 288.284924 94.04848 
L 273.009121 90.438935 
L 255.212467 86.463722 
L 233.626027 81.870856 
L 201.98186 75.391525 
L 153.734811 65.525012 
L 134.266014 61.32087 
L 119.36732 57.89832 
L 108.227955 55.153116 
L 98.13822 52.456951 
L 90.763582 50.299466 
L 83.706549 48.011502 
L 82.544073 47.606038 
L 82.544073 47.606038 
" clip-path="url(#pef01d8c210)" style="fill: none; stroke: #000000; stroke-width: 2; stroke-linecap: square"/>
   </g>
   <g id="patch_3">
    <path d="M 382.766836 156.713376 
Q 410.360341 101.654018 436.951993 48.593732 
" clip-path="url(#pef01d8c210)" style="fill: none; stroke: #ff0000; stroke-width: 2; stroke-linecap: round"/>
    <path d="M 428.001506 55.293642 
L 436.951993 48.593732 
L 436.941629 59.774067 
z
" clip-path="url(#pef01d8c210)" style="fill: #ff0000; stroke: #ff0000; stroke-width: 2; stroke-linecap: round"/>
   </g>
   <g id="patch_4">
    <path d="M 382.766836 156.713376 
Q 327.707477 129.119871 274.647191 102.52822 
" clip-path="url(#pef01d8c210)" style="fill: none; stroke: #800080; stroke-width: 2; stroke-linecap: round"/>
    <path d="M 281.347101 111.478706 
L 274.647191 102.52822 
L 285.827526 102.538583 
z
" clip-path="url(#pef01d8c210)" style="fill: #800080; stroke: #800080; stroke-width: 2; stroke-linecap: round"/>
   </g>
   <g id="patch_5">
    <path d="M 382.766836 156.713376 
Q 342.289129 237.481534 302.813276 316.250619 
" clip-path="url(#pef01d8c210)" style="fill: none; stroke: #008000; stroke-width: 2; stroke-linecap: round"/>
    <path d="M 311.763762 309.550709 
L 302.813276 316.250619 
L 302.823639 305.070284 
z
" clip-path="url(#pef01d8c210)" style="fill: #008000; stroke: #008000; stroke-width: 2; stroke-linecap: round"/>
   </g>
   <g id="patch_6">
    <path d="M 382.766836 156.713376 
Q 239.684202 85.006195 98.60064 14.300867 
" clip-path="url(#pef01d8c210)" style="fill: none; stroke: #0000ff; stroke-width: 2; stroke-linecap: round"/>
    <path d="M 105.30055 23.251353 
L 98.60064 14.300867 
L 109.780975 14.311231 
z
" clip-path="url(#pef01d8c210)" style="fill: #0000ff; stroke: #0000ff; stroke-width: 2; stroke-linecap: round"/>
   </g>
   <g id="patch_7">
    <path d="M 382.766836 156.713376 
Q 199.206495 165.774352 17.879503 174.725085 
" clip-path="url(#pef01d8c210)" style="fill: none; stroke: #ffa500; stroke-width: 2; stroke-linecap: round"/>
    <path d="M 28.113853 179.225981 
L 17.879503 174.725085 
L 27.62083 169.238142 
z
" clip-path="url(#pef01d8c210)" style="fill: #ffa500; stroke: #ffa500; stroke-width: 2; stroke-linecap: round"/>
   </g>
  </g>
 </g>
 <defs>
  <clipPath id="pef01d8c210">
   <rect x="7.2" y="7.2" width="439.2" height="317.148705"/>
  </clipPath>
 </defs>
</svg>
