<?xml version="1.0" encoding="utf-8" standalone="no"?>
<!DOCTYPE svg PUBLIC "-//W3C//DTD SVG 1.1//EN"
  "http://www.w3.org/Graphics/SVG/1.1/DTD/svg11.dtd">
<svg xmlns:xlink="http://www.w3.org/1999/xlink" width="325.693351pt" height="338.097913pt" viewBox="0 0 325.693351 338.097913" xmlns="http://www.w3.org/2000/svg" version="1.1">
 <metadata>
  <rdf:RDF xmlns:dc="http://purl.org/dc/elements/1.1/" xmlns:cc="http://creativecommons.org/ns#" xmlns:rdf="http://www.w3.org/1999/02/22-rdf-syntax-ns#">
   <cc:Work>
    <dc:type rdf:resource="http://purl.org/dc/dcmitype/StillImage"/>
    <dc:date>2025-09-03T15:04:24.800229</dc:date>
    <dc:format>image/svg+xml</dc:format>
    <dc:creator>
     <cc:Agent>
      <dc:title>Matplotlib v3.10.5, https://matplotlib.org/</dc:title>
     </cc:Agent>
    </dc:creator>
   </cc:Work>
  </rdf:RDF>
 </metadata>
 <defs>
  <style type="text/css">*{stroke-linejoin: round; stroke-linecap: butt}</style>
 </defs>
 <g id="figure_1">
  <g id="patch_1">
   <path d="M -0 338.097913 
L 325.693351 338.097913 
L 325.693351 0 
L -0 0 
z
" style="fill: #ffffff"/>
  </g>
  <g id="axes_1">
   <g id="patch_2">
    <path d="M 8.870156 319.910729 
L 305.353351 319.910729 
L 305.353351 23.4425 
L 8.870156 23.4425 
z
" style="fill: #ffffff"/>
   </g>
   <g id="matplotlib.axis_1">
    <g id="xtick_1">
     <g id="line2d_1">
      <defs>
       <path id="m9f653faca6" d="M 0 0 
L 0 3.5 
" style="stroke: #000000; stroke-width: 0.8"/>
      </defs>
      <g>
       <use xlink:href="#m9f653faca6" x="14.571094" y="314.219788" style="stroke: #000000; stroke-width: 0.8"/>
      </g>
     </g>
     <g id="text_1">
      <!-- −1 -->
      <g transform="translate(7.2 328.818226) scale(0.1 -0.1)">
       <defs>
        <path id="DejaVuSans-2212" d="M 678 2272 
L 4684 2272 
L 4684 1741 
L 678 1741 
L 678 2272 
z
" transform="scale(0.015625)"/>
        <path id="DejaVuSans-31" d="M 794 531 
L 1825 531 
L 1825 4091 
L 703 3866 
L 703 4441 
L 1819 4666 
L 2450 4666 
L 2450 531 
L 3481 531 
L 3481 0 
L 794 0 
L 794 531 
z
" transform="scale(0.015625)"/>
       </defs>
       <use xlink:href="#DejaVuSans-2212"/>
       <use xlink:href="#DejaVuSans-31" transform="translate(83.789062 0)"/>
      </g>
     </g>
    </g>
    <g id="xtick_2">
     <g id="line2d_2">
      <g>
       <use xlink:href="#m9f653faca6" x="299.651751" y="314.219788" style="stroke: #000000; stroke-width: 0.8"/>
      </g>
     </g>
     <g id="text_2">
      <!-- 1 -->
      <g transform="translate(296.470501 328.818226) scale(0.1 -0.1)">
       <use xlink:href="#DejaVuSans-31"/>
      </g>
     </g>
    </g>
    <g id="text_3">
     <!-- $x$ -->
     <g transform="translate(313.353351 314.219788) scale(0.16 -0.16)">
      <defs>
       <path id="Cmmi10-78" d="M 500 184 
Q 613 97 819 97 
Q 1019 97 1172 289 
Q 1325 481 1381 709 
L 1672 1844 
Q 1741 2153 1741 2266 
Q 1741 2425 1652 2544 
Q 1563 2663 1403 2663 
Q 1200 2663 1022 2536 
Q 844 2409 722 2214 
Q 600 2019 550 1819 
Q 538 1778 500 1778 
L 422 1778 
Q 372 1778 372 1838 
L 372 1856 
Q 434 2094 584 2320 
Q 734 2547 951 2687 
Q 1169 2828 1416 2828 
Q 1650 2828 1839 2703 
Q 2028 2578 2106 2363 
Q 2216 2559 2386 2693 
Q 2556 2828 2759 2828 
Q 2897 2828 3040 2779 
Q 3184 2731 3275 2631 
Q 3366 2531 3366 2381 
Q 3366 2219 3261 2101 
Q 3156 1984 2994 1984 
Q 2891 1984 2822 2050 
Q 2753 2116 2753 2216 
Q 2753 2350 2845 2451 
Q 2938 2553 3066 2572 
Q 2950 2663 2747 2663 
Q 2541 2663 2389 2472 
Q 2238 2281 2175 2047 
L 1894 916 
Q 1825 659 1825 494 
Q 1825 331 1917 214 
Q 2009 97 2163 97 
Q 2463 97 2698 361 
Q 2934 625 3009 941 
Q 3022 978 3059 978 
L 3138 978 
Q 3163 978 3178 961 
Q 3194 944 3194 922 
Q 3194 916 3188 903 
Q 3097 522 2806 225 
Q 2516 -72 2150 -72 
Q 1916 -72 1727 54 
Q 1538 181 1459 397 
Q 1359 209 1182 68 
Q 1006 -72 806 -72 
Q 669 -72 523 -23 
Q 378 25 287 125 
Q 197 225 197 378 
Q 197 528 301 651 
Q 406 775 563 775 
Q 669 775 741 711 
Q 813 647 813 544 
Q 813 409 723 309 
Q 634 209 500 184 
z
" transform="scale(0.015625)"/>
      </defs>
      <use xlink:href="#Cmmi10-78" transform="translate(0 0.8125)"/>
     </g>
    </g>
   </g>
   <g id="matplotlib.axis_2">
    <g id="ytick_1">
     <g id="line2d_3">
      <defs>
       <path id="m64db6716c5" d="M 0 0 
L -3.5 0 
" style="stroke: #000000; stroke-width: 0.8"/>
      </defs>
      <g>
       <use xlink:href="#m64db6716c5" x="157.111423" y="314.219788" style="stroke: #000000; stroke-width: 0.8"/>
      </g>
     </g>
    </g>
    <g id="ytick_2">
     <g id="line2d_4">
      <g>
       <use xlink:href="#m64db6716c5" x="157.111423" y="171.67946" style="stroke: #000000; stroke-width: 0.8"/>
      </g>
     </g>
     <g id="text_4">
      <!-- 1 -->
      <g transform="translate(143.748923 175.478678) scale(0.1 -0.1)">
       <use xlink:href="#DejaVuSans-31"/>
      </g>
     </g>
    </g>
    <g id="ytick_3">
     <g id="line2d_5">
      <g>
       <use xlink:href="#m64db6716c5" x="157.111423" y="29.139131" style="stroke: #000000; stroke-width: 0.8"/>
      </g>
     </g>
     <g id="text_5">
      <!-- 2 -->
      <g transform="translate(143.748923 32.93835) scale(0.1 -0.1)">
       <defs>
        <path id="DejaVuSans-32" d="M 1228 531 
L 3431 531 
L 3431 0 
L 469 0 
L 469 531 
Q 828 903 1448 1529 
Q 2069 2156 2228 2338 
Q 2531 2678 2651 2914 
Q 2772 3150 2772 3378 
Q 2772 3750 2511 3984 
Q 2250 4219 1831 4219 
Q 1534 4219 1204 4116 
Q 875 4013 500 3803 
L 500 4441 
Q 881 4594 1212 4672 
Q 1544 4750 1819 4750 
Q 2544 4750 2975 4387 
Q 3406 4025 3406 3419 
Q 3406 3131 3298 2873 
Q 3191 2616 2906 2266 
Q 2828 2175 2409 1742 
Q 1991 1309 1228 531 
z
" transform="scale(0.015625)"/>
       </defs>
       <use xlink:href="#DejaVuSans-32"/>
      </g>
     </g>
    </g>
    <g id="text_6">
     <!-- $y$ -->
     <g transform="translate(153.111423 12.0825) scale(0.16 -0.16)">
      <defs>
       <path id="Cmmi10-79" d="M 538 -916 
Q 672 -1147 1006 -1147 
Q 1309 -1147 1531 -934 
Q 1753 -722 1889 -420 
Q 2025 -119 2100 197 
Q 1816 -72 1484 -72 
Q 1231 -72 1053 15 
Q 875 103 776 276 
Q 678 450 678 697 
Q 678 906 734 1126 
Q 791 1347 892 1617 
Q 994 1888 1069 2088 
Q 1153 2322 1153 2472 
Q 1153 2663 1013 2663 
Q 759 2663 595 2402 
Q 431 2141 353 1819 
Q 341 1778 300 1778 
L 225 1778 
Q 172 1778 172 1838 
L 172 1856 
Q 275 2238 487 2533 
Q 700 2828 1025 2828 
Q 1253 2828 1411 2678 
Q 1569 2528 1569 2297 
Q 1569 2178 1516 2047 
Q 1488 1969 1388 1706 
Q 1288 1444 1234 1272 
Q 1181 1100 1147 934 
Q 1113 769 1113 603 
Q 1113 391 1203 244 
Q 1294 97 1491 97 
Q 1888 97 2203 581 
L 2688 2553 
Q 2709 2638 2787 2698 
Q 2866 2759 2956 2759 
Q 3034 2759 3092 2709 
Q 3150 2659 3150 2578 
Q 3150 2541 3144 2528 
L 2509 -19 
Q 2425 -347 2200 -647 
Q 1975 -947 1658 -1130 
Q 1341 -1313 997 -1313 
Q 831 -1313 668 -1248 
Q 506 -1184 406 -1056 
Q 306 -928 306 -756 
Q 306 -581 409 -453 
Q 513 -325 684 -325 
Q 788 -325 858 -389 
Q 928 -453 928 -556 
Q 928 -703 818 -812 
Q 709 -922 563 -922 
Q 556 -919 550 -917 
Q 544 -916 538 -916 
z
" transform="scale(0.015625)"/>
      </defs>
      <use xlink:href="#Cmmi10-79" transform="translate(0 0.8125)"/>
     </g>
    </g>
   </g>
   <g id="line2d_6">
    <path d="M 299.651751 171.67946 
L 299.632234 169.320727 
L 299.206256 160.418754 
L 298.599859 154.394563 
L 297.486278 146.927789 
L 296.433638 141.561929 
L 294.220026 132.705416 
L 291.490814 124.140797 
L 290.251535 120.773115 
L 286.828388 112.592624 
L 284.978445 108.689222 
L 283.011074 104.843667 
L 281.078545 101.323949 
L 277.612503 95.539884 
L 275.305477 92.005681 
L 271.63496 86.814244 
L 268.946781 83.301873 
L 265.404839 78.995689 
L 262.887769 76.133084 
L 259.454331 72.464167 
L 254.704686 67.78865 
L 250.867713 64.313249 
L 247.561523 61.513563 
L 241.201901 56.585859 
L 234.657063 52.078377 
L 230.266886 49.343759 
L 224.746633 46.207456 
L 218.196549 42.891445 
L 208.629959 38.775036 
L 202.874009 36.6849 
L 197.259534 34.910039 
L 188.937813 32.737651 
L 180.722179 31.108205 
L 174.915594 30.255428 
L 169.322751 29.663162 
L 161.235979 29.198817 
L 153.170452 29.193621 
L 147.020926 29.496735 
L 142.681443 29.871417 
L 136.015238 30.708908 
L 130.616673 31.623137 
L 122.372933 33.436982 
L 117.479277 34.759635 
L 111.479973 36.640517 
L 104.57498 39.17411 
L 100.797134 40.73502 
L 96.010322 42.899023 
L 89.676014 46.099959 
L 84.673036 48.917798 
L 78.800924 52.577775 
L 72.528049 56.947606 
L 68.846756 59.754958 
L 65.557799 62.428925 
L 62.302339 65.241764 
L 57.1812 70.034509 
L 54.650589 72.585953 
L 50.031633 77.596177 
L 43.656916 85.390293 
L 39.249021 91.515879 
L 37.030725 94.878604 
L 34.582776 98.847626 
L 31.201385 104.863235 
L 28.210644 110.832647 
L 25.892126 116.008626 
L 24.123386 120.377146 
L 21.355713 128.226811 
L 19.797848 133.433836 
L 18.476314 138.542592 
L 17.195215 144.454469 
L 16.39071 148.976454 
L 15.407291 156.262439 
L 14.952706 161.256186 
L 14.683511 166.01948 
L 14.580572 173.323216 
L 14.75634 178.944147 
L 15.330456 186.37309 
L 15.83914 190.650161 
L 17.280699 199.340156 
L 19.235735 207.846299 
L 20.598283 212.690532 
L 22.191525 217.661703 
L 23.732212 221.956011 
L 27.045788 229.994775 
L 30.420013 237.001982 
L 34.024636 243.564007 
L 37.169035 248.69614 
L 40.838923 254.13218 
L 43.836461 258.204187 
L 49.393172 265.031074 
L 51.203212 267.07965 
L 54.765495 270.891638 
L 60.367813 276.361929 
L 66.997888 282.120829 
L 72.598351 286.463108 
L 78.62614 290.666037 
L 83.323521 293.634742 
L 88.125523 296.413941 
L 94.900407 299.927403 
L 102.710639 303.430361 
L 108.804685 305.784659 
L 112.409928 307.029087 
L 117.461042 308.594004 
L 121.139273 309.60607 
L 128.059848 311.227843 
L 132.338905 312.050638 
L 140.090088 313.199845 
L 145.946111 313.781821 
L 154.026027 314.186391 
L 158.830868 314.209417 
L 165.346048 313.98173 
L 173.236057 313.304816 
L 182.66331 311.910862 
L 186.635498 311.128641 
L 190.526371 310.247806 
L 194.813359 309.143307 
L 201.929565 306.990507 
L 208.829442 304.506384 
L 213.449918 302.613486 
L 218.137603 300.495416 
L 222.013561 298.586739 
L 227.553394 295.597473 
L 231.746992 293.117827 
L 235.048702 291.025703 
L 238.778304 288.505252 
L 245.332377 283.638419 
L 251.027281 278.906121 
L 253.136299 277.021609 
L 256.877207 273.485813 
L 261.972638 268.229296 
L 265.515584 264.233677 
L 270.925189 257.494212 
L 273.336106 254.199568 
L 276.937924 248.876317 
L 281.323431 241.601718 
L 285.069131 234.485273 
L 287.821216 228.536254 
L 289.351183 224.88088 
L 291.118406 220.25799 
L 293.612544 212.730516 
L 295.794439 204.61525 
L 296.963675 199.231099 
L 297.82256 194.441736 
L 298.577651 189.14518 
L 299.128026 183.887235 
L 299.391151 180.294813 
L 299.588626 175.921124 
L 299.651751 171.67946 
L 299.651751 171.67946 
" clip-path="url(#p47d2d6bc6b)" style="fill: none; stroke: #000000; stroke-width: 3; stroke-linecap: square"/>
   </g>
   <g id="patch_3">
    <path d="M 157.111423 319.910729 
L 157.111423 23.4425 
" style="fill: none; stroke: #000000; stroke-width: 0.8; stroke-linejoin: miter; stroke-linecap: square"/>
   </g>
   <g id="patch_4">
    <path d="M 8.870156 314.219788 
L 305.353351 314.219788 
" style="fill: none; stroke: #000000; stroke-width: 0.8; stroke-linejoin: miter; stroke-linecap: square"/>
   </g>
  </g>
 </g>
 <defs>
  <clipPath id="p47d2d6bc6b">
   <rect x="8.870156" y="23.4425" width="296.483195" height="296.468229"/>
  </clipPath>
 </defs>
</svg>
