<?xml version="1.0" encoding="utf-8" standalone="no"?>
<!DOCTYPE svg PUBLIC "-//W3C//DTD SVG 1.1//EN"
  "http://www.w3.org/Graphics/SVG/1.1/DTD/svg11.dtd">
<svg xmlns:xlink="http://www.w3.org/1999/xlink" width="338.4pt" height="338.4pt" viewBox="0 0 338.4 338.4" xmlns="http://www.w3.org/2000/svg" version="1.1">
 <metadata>
  <rdf:RDF xmlns:dc="http://purl.org/dc/elements/1.1/" xmlns:cc="http://creativecommons.org/ns#" xmlns:rdf="http://www.w3.org/1999/02/22-rdf-syntax-ns#">
   <cc:Work>
    <dc:type rdf:resource="http://purl.org/dc/dcmitype/StillImage"/>
    <dc:date>2025-09-11T16:29:55.695854</dc:date>
    <dc:format>image/svg+xml</dc:format>
    <dc:creator>
     <cc:Agent>
      <dc:title>Matplotlib v3.10.3, https://matplotlib.org/</dc:title>
     </cc:Agent>
    </dc:creator>
   </cc:Work>
  </rdf:RDF>
 </metadata>
 <defs>
  <style type="text/css">*{stroke-linejoin: round; stroke-linecap: butt}</style>
 </defs>
 <g id="figure_1">
  <g id="patch_1">
   <path d="M -0 338.4 
L 338.4 338.4 
L 338.4 0 
L -0 0 
z
" style="fill: #ffffff"/>
  </g>
  <g id="axes_1">
   <g id="patch_2">
    <path d="M 7.2 331.2 
L 331.2 331.2 
L 331.2 7.2 
L 7.2 7.2 
z
" style="fill: #ffffff"/>
   </g>
   <g id="PathCollection_1">
    <path d="M 91.315385 247.084615 
C 91.315385 247.084615 91.315385 247.084615 91.315385 247.084615 
C 91.315385 247.084615 91.315385 247.084615 91.315385 247.084615 
C 91.315385 247.084615 91.315385 247.084615 91.315385 247.084615 
C 91.315385 247.084615 91.315385 247.084615 91.315385 247.084615 
C 91.315385 247.084615 91.315385 247.084615 91.315385 247.084615 
C 91.315385 247.084615 91.315385 247.084615 91.315385 247.084615 
C 91.315385 247.084615 91.315385 247.084615 91.315385 247.084615 
C 91.315385 247.084615 91.315385 247.084615 91.315385 247.084615 
z
" clip-path="url(#peb69ae1444)" style="fill: #0000ff"/>
   </g>
   <g id="PathCollection_2">
    <path d="M 130.257692 67.589914 
C 130.850704 67.589914 131.419508 67.354308 131.838831 66.934985 
C 132.258154 66.515662 132.49376 65.946858 132.49376 65.353846 
C 132.49376 64.760834 132.258154 64.19203 131.838831 63.772707 
C 131.419508 63.353384 130.850704 63.117778 130.257692 63.117778 
C 129.66468 63.117778 129.095876 63.353384 128.676553 63.772707 
C 128.257231 64.19203 128.021624 64.760834 128.021624 65.353846 
C 128.021624 65.946858 128.257231 66.515662 128.676553 66.934985 
C 129.095876 67.354308 129.66468 67.589914 130.257692 67.589914 
z
" clip-path="url(#peb69ae1444)"/>
   </g>
   <g id="PathCollection_3">
    <path d="M 208.142308 171.436068 
C 208.73532 171.436068 209.304124 171.200462 209.723447 170.781139 
C 210.142769 170.361816 210.378376 169.793012 210.378376 169.2 
C 210.378376 168.606988 210.142769 168.038184 209.723447 167.618861 
C 209.304124 167.199538 208.73532 166.963932 208.142308 166.963932 
C 207.549296 166.963932 206.980492 167.199538 206.561169 167.618861 
C 206.141846 168.038184 205.90624 168.606988 205.90624 169.2 
C 205.90624 169.793012 206.141846 170.361816 206.561169 170.781139 
C 206.980492 171.200462 207.549296 171.436068 208.142308 171.436068 
z
" clip-path="url(#peb69ae1444)"/>
   </g>
   <g id="PathCollection_4">
    <path d="M 286.026923 223.359145 
C 286.619935 223.359145 287.188739 223.123539 287.608062 222.704216 
C 288.027385 222.284893 288.262991 221.716089 288.262991 221.123077 
C 288.262991 220.530065 288.027385 219.961261 287.608062 219.541938 
C 287.188739 219.122615 286.619935 218.887009 286.026923 218.887009 
C 285.433911 218.887009 284.865107 219.122615 284.445784 219.541938 
C 284.026461 219.961261 283.790855 220.530065 283.790855 221.123077 
C 283.790855 221.716089 284.026461 222.284893 284.445784 222.704216 
C 284.865107 223.123539 285.433911 223.359145 286.026923 223.359145 
z
" clip-path="url(#peb69ae1444)"/>
   </g>
   <g id="matplotlib.axis_1">
    <g id="xtick_1">
     <g id="line2d_1">
      <path d="M 13.430769 331.2 
L 13.430769 7.2 
" clip-path="url(#peb69ae1444)" style="fill: none; stroke-dasharray: 0.5,0.825; stroke-dashoffset: 0; stroke: #000000; stroke-width: 0.5"/>
     </g>
     <g id="line2d_2">
      <defs>
       <path id="ma580efcc21" d="M 0 0 
L 0 3.5 
" style="stroke: #000000; stroke-width: 0.8"/>
      </defs>
      <g>
       <use xlink:href="#ma580efcc21" x="13.430769" y="247.084615" style="stroke: #000000; stroke-width: 0.8"/>
      </g>
     </g>
    </g>
    <g id="xtick_2">
     <g id="line2d_3">
      <path d="M 91.315385 331.2 
L 91.315385 7.2 
" clip-path="url(#peb69ae1444)" style="fill: none; stroke-dasharray: 0.5,0.825; stroke-dashoffset: 0; stroke: #000000; stroke-width: 0.5"/>
     </g>
     <g id="line2d_4">
      <g>
       <use xlink:href="#ma580efcc21" x="91.315385" y="247.084615" style="stroke: #000000; stroke-width: 0.8"/>
      </g>
     </g>
    </g>
    <g id="xtick_3">
     <g id="line2d_5">
      <path d="M 169.2 331.2 
L 169.2 7.2 
" clip-path="url(#peb69ae1444)" style="fill: none; stroke-dasharray: 0.5,0.825; stroke-dashoffset: 0; stroke: #000000; stroke-width: 0.5"/>
     </g>
     <g id="line2d_6">
      <g>
       <use xlink:href="#ma580efcc21" x="169.2" y="247.084615" style="stroke: #000000; stroke-width: 0.8"/>
      </g>
     </g>
    </g>
    <g id="xtick_4">
     <g id="line2d_7">
      <path d="M 247.084615 331.2 
L 247.084615 7.2 
" clip-path="url(#peb69ae1444)" style="fill: none; stroke-dasharray: 0.5,0.825; stroke-dashoffset: 0; stroke: #000000; stroke-width: 0.5"/>
     </g>
     <g id="line2d_8">
      <g>
       <use xlink:href="#ma580efcc21" x="247.084615" y="247.084615" style="stroke: #000000; stroke-width: 0.8"/>
      </g>
     </g>
    </g>
    <g id="xtick_5">
     <g id="line2d_9">
      <path d="M 324.969231 331.2 
L 324.969231 7.2 
" clip-path="url(#peb69ae1444)" style="fill: none; stroke-dasharray: 0.5,0.825; stroke-dashoffset: 0; stroke: #000000; stroke-width: 0.5"/>
     </g>
     <g id="line2d_10">
      <g>
       <use xlink:href="#ma580efcc21" x="324.969231" y="247.084615" style="stroke: #000000; stroke-width: 0.8"/>
      </g>
     </g>
    </g>
   </g>
   <g id="matplotlib.axis_2">
    <g id="ytick_1">
     <g id="line2d_11">
      <path d="M 7.2 324.969231 
L 331.2 324.969231 
" clip-path="url(#peb69ae1444)" style="fill: none; stroke-dasharray: 0.5,0.825; stroke-dashoffset: 0; stroke: #000000; stroke-width: 0.5"/>
     </g>
     <g id="line2d_12">
      <defs>
       <path id="md32fb701ca" d="M 0 0 
L -3.5 0 
" style="stroke: #000000; stroke-width: 0.8"/>
      </defs>
      <g>
       <use xlink:href="#md32fb701ca" x="91.315385" y="324.969231" style="stroke: #000000; stroke-width: 0.8"/>
      </g>
     </g>
    </g>
    <g id="ytick_2">
     <g id="line2d_13">
      <path d="M 7.2 247.084615 
L 331.2 247.084615 
" clip-path="url(#peb69ae1444)" style="fill: none; stroke-dasharray: 0.5,0.825; stroke-dashoffset: 0; stroke: #000000; stroke-width: 0.5"/>
     </g>
     <g id="line2d_14">
      <g>
       <use xlink:href="#md32fb701ca" x="91.315385" y="247.084615" style="stroke: #000000; stroke-width: 0.8"/>
      </g>
     </g>
    </g>
    <g id="ytick_3">
     <g id="line2d_15">
      <path d="M 7.2 169.2 
L 331.2 169.2 
" clip-path="url(#peb69ae1444)" style="fill: none; stroke-dasharray: 0.5,0.825; stroke-dashoffset: 0; stroke: #000000; stroke-width: 0.5"/>
     </g>
     <g id="line2d_16">
      <g>
       <use xlink:href="#md32fb701ca" x="91.315385" y="169.2" style="stroke: #000000; stroke-width: 0.8"/>
      </g>
     </g>
    </g>
    <g id="ytick_4">
     <g id="line2d_17">
      <path d="M 7.2 91.315385 
L 331.2 91.315385 
" clip-path="url(#peb69ae1444)" style="fill: none; stroke-dasharray: 0.5,0.825; stroke-dashoffset: 0; stroke: #000000; stroke-width: 0.5"/>
     </g>
     <g id="line2d_18">
      <g>
       <use xlink:href="#md32fb701ca" x="91.315385" y="91.315385" style="stroke: #000000; stroke-width: 0.8"/>
      </g>
     </g>
    </g>
    <g id="ytick_5">
     <g id="line2d_19">
      <path d="M 7.2 13.430769 
L 331.2 13.430769 
" clip-path="url(#peb69ae1444)" style="fill: none; stroke-dasharray: 0.5,0.825; stroke-dashoffset: 0; stroke: #000000; stroke-width: 0.5"/>
     </g>
     <g id="line2d_20">
      <g>
       <use xlink:href="#md32fb701ca" x="91.315385" y="13.430769" style="stroke: #000000; stroke-width: 0.8"/>
      </g>
     </g>
    </g>
   </g>
   <g id="line2d_21">
    <path d="M 106.892308 24.075 
L 114.560616 38.137508 
L 120.824983 49.251862 
L 128.650817 62.66467 
L 136.300895 75.269549 
L 143.507349 86.685267 
L 149.887597 96.421191 
L 156.589195 106.272269 
L 163.323942 115.784789 
L 170.28615 125.210458 
L 176.973173 133.872942 
L 183.846247 142.377559 
L 190.167692 149.842626 
L 195.974386 156.398413 
L 201.395897 162.258797 
L 207.755146 168.812197 
L 213.580244 174.511376 
L 219.64882 180.139863 
L 226.04638 185.732147 
L 230.61094 189.508002 
L 237.212169 194.653157 
L 242.877392 198.771351 
L 248.933076 202.869607 
L 254.579438 206.408063 
L 260.065867 209.584884 
L 266.25244 212.858038 
L 272.335003 215.756769 
L 277.79319 218.08835 
L 283.128007 220.120805 
L 288.60714 221.954656 
L 293.715163 223.432847 
L 299.116731 224.753026 
L 304.294446 225.78406 
L 309.392308 226.575 
L 309.392308 226.575 
" clip-path="url(#peb69ae1444)" style="fill: none; stroke: #0000ff; stroke-width: 2; stroke-linecap: square"/>
   </g>
   <g id="patch_3">
    <path d="M 91.315385 331.2 
L 91.315385 7.2 
" style="fill: none; stroke: #000000; stroke-width: 0.8; stroke-linejoin: miter; stroke-linecap: square"/>
   </g>
   <g id="patch_4">
    <path d="M 7.2 247.084615 
L 331.2 247.084615 
" style="fill: none; stroke: #000000; stroke-width: 0.8; stroke-linejoin: miter; stroke-linecap: square"/>
   </g>
   <g id="line2d_22">
    <path d="M 110.786538 32.901923 
L 149.728846 97.805769 
L 149.728846 97.805769 
" clip-path="url(#peb69ae1444)" style="fill: none; stroke: #ff0000; stroke-width: 2; stroke-linecap: square"/>
   </g>
   <g id="line2d_23">
    <path d="M 188.671154 149.728846 
L 227.613462 188.671154 
L 227.613462 188.671154 
" clip-path="url(#peb69ae1444)" style="fill: none; stroke: #ff0000; stroke-width: 2; stroke-linecap: square"/>
   </g>
   <g id="line2d_24">
    <path d="M 266.555769 214.632692 
L 305.498077 227.613462 
L 305.498077 227.613462 
" clip-path="url(#peb69ae1444)" style="fill: none; stroke: #ff0000; stroke-width: 2; stroke-linecap: square"/>
   </g>
  </g>
 </g>
 <defs>
  <clipPath id="peb69ae1444">
   <rect x="7.2" y="7.2" width="324" height="324"/>
  </clipPath>
 </defs>
</svg>
