<?xml version="1.0" encoding="utf-8" standalone="no"?>
<!DOCTYPE svg PUBLIC "-//W3C//DTD SVG 1.1//EN"
  "http://www.w3.org/Graphics/SVG/1.1/DTD/svg11.dtd">
<svg xmlns:xlink="http://www.w3.org/1999/xlink" width="338.4pt" height="338.4pt" viewBox="0 0 338.4 338.4" xmlns="http://www.w3.org/2000/svg" version="1.1">
 <metadata>
  <rdf:RDF xmlns:dc="http://purl.org/dc/elements/1.1/" xmlns:cc="http://creativecommons.org/ns#" xmlns:rdf="http://www.w3.org/1999/02/22-rdf-syntax-ns#">
   <cc:Work>
    <dc:type rdf:resource="http://purl.org/dc/dcmitype/StillImage"/>
    <dc:date>2025-08-04T00:36:14.162052</dc:date>
    <dc:format>image/svg+xml</dc:format>
    <dc:creator>
     <cc:Agent>
      <dc:title>Matplotlib v3.10.5, https://matplotlib.org/</dc:title>
     </cc:Agent>
    </dc:creator>
   </cc:Work>
  </rdf:RDF>
 </metadata>
 <defs>
  <style type="text/css">*{stroke-linejoin: round; stroke-linecap: butt}</style>
 </defs>
 <g id="figure_1">
  <g id="patch_1">
   <path d="M -0 338.4 
L 338.4 338.4 
L 338.4 0 
L -0 0 
z
" style="fill: #ffffff"/>
  </g>
  <g id="axes_1">
   <g id="patch_2">
    <path d="M 7.2 331.2 
L 331.2 331.2 
L 331.2 7.2 
L 7.2 7.2 
z
" style="fill: #ffffff"/>
   </g>
   <g id="PathCollection_1">
    <path d="M 91.315385 247.084615 
C 91.315385 247.084615 91.315385 247.084615 91.315385 247.084615 
C 91.315385 247.084615 91.315385 247.084615 91.315385 247.084615 
C 91.315385 247.084615 91.315385 247.084615 91.315385 247.084615 
C 91.315385 247.084615 91.315385 247.084615 91.315385 247.084615 
C 91.315385 247.084615 91.315385 247.084615 91.315385 247.084615 
C 91.315385 247.084615 91.315385 247.084615 91.315385 247.084615 
C 91.315385 247.084615 91.315385 247.084615 91.315385 247.084615 
C 91.315385 247.084615 91.315385 247.084615 91.315385 247.084615 
z
" clip-path="url(#p5aa9d46217)" style="fill: #0000ff"/>
   </g>
   <g id="PathCollection_2">
    <path d="M 130.257692 223.359145 
C 130.850704 223.359145 131.419508 223.123539 131.838831 222.704216 
C 132.258154 222.284893 132.49376 221.716089 132.49376 221.123077 
C 132.49376 220.530065 132.258154 219.961261 131.838831 219.541938 
C 131.419508 219.122615 130.850704 218.887009 130.257692 218.887009 
C 129.66468 218.887009 129.095876 219.122615 128.676553 219.541938 
C 128.257231 219.961261 128.021624 220.530065 128.021624 221.123077 
C 128.021624 221.716089 128.257231 222.284893 128.676553 222.704216 
C 129.095876 223.123539 129.66468 223.359145 130.257692 223.359145 
z
" clip-path="url(#p5aa9d46217)"/>
   </g>
   <g id="PathCollection_3">
    <path d="M 208.142308 171.436068 
C 208.73532 171.436068 209.304124 171.200462 209.723447 170.781139 
C 210.142769 170.361816 210.378376 169.793012 210.378376 169.2 
C 210.378376 168.606988 210.142769 168.038184 209.723447 167.618861 
C 209.304124 167.199538 208.73532 166.963932 208.142308 166.963932 
C 207.549296 166.963932 206.980492 167.199538 206.561169 167.618861 
C 206.141846 168.038184 205.90624 168.606988 205.90624 169.2 
C 205.90624 169.793012 206.141846 170.361816 206.561169 170.781139 
C 206.980492 171.200462 207.549296 171.436068 208.142308 171.436068 
z
" clip-path="url(#p5aa9d46217)"/>
   </g>
   <g id="PathCollection_4">
    <path d="M 286.026923 67.589914 
C 286.619935 67.589914 287.188739 67.354308 287.608062 66.934985 
C 288.027385 66.515662 288.262991 65.946858 288.262991 65.353846 
C 288.262991 64.760834 288.027385 64.19203 287.608062 63.772707 
C 287.188739 63.353384 286.619935 63.117778 286.026923 63.117778 
C 285.433911 63.117778 284.865107 63.353384 284.445784 63.772707 
C 284.026461 64.19203 283.790855 64.760834 283.790855 65.353846 
C 283.790855 65.946858 284.026461 66.515662 284.445784 66.934985 
C 284.865107 67.354308 285.433911 67.589914 286.026923 67.589914 
z
" clip-path="url(#p5aa9d46217)"/>
   </g>
   <g id="matplotlib.axis_1">
    <g id="xtick_1">
     <g id="line2d_1">
      <path d="M 13.430769 331.2 
L 13.430769 7.2 
" clip-path="url(#p5aa9d46217)" style="fill: none; stroke-dasharray: 0.5,0.825; stroke-dashoffset: 0; stroke: #000000; stroke-width: 0.5"/>
     </g>
     <g id="line2d_2">
      <defs>
       <path id="m9ab4a9bd67" d="M 0 0 
L 0 3.5 
" style="stroke: #000000; stroke-width: 0.8"/>
      </defs>
      <g>
       <use xlink:href="#m9ab4a9bd67" x="13.430769" y="247.084615" style="stroke: #000000; stroke-width: 0.8"/>
      </g>
     </g>
    </g>
    <g id="xtick_2">
     <g id="line2d_3">
      <path d="M 91.315385 331.2 
L 91.315385 7.2 
" clip-path="url(#p5aa9d46217)" style="fill: none; stroke-dasharray: 0.5,0.825; stroke-dashoffset: 0; stroke: #000000; stroke-width: 0.5"/>
     </g>
     <g id="line2d_4">
      <g>
       <use xlink:href="#m9ab4a9bd67" x="91.315385" y="247.084615" style="stroke: #000000; stroke-width: 0.8"/>
      </g>
     </g>
    </g>
    <g id="xtick_3">
     <g id="line2d_5">
      <path d="M 169.2 331.2 
L 169.2 7.2 
" clip-path="url(#p5aa9d46217)" style="fill: none; stroke-dasharray: 0.5,0.825; stroke-dashoffset: 0; stroke: #000000; stroke-width: 0.5"/>
     </g>
     <g id="line2d_6">
      <g>
       <use xlink:href="#m9ab4a9bd67" x="169.2" y="247.084615" style="stroke: #000000; stroke-width: 0.8"/>
      </g>
     </g>
    </g>
    <g id="xtick_4">
     <g id="line2d_7">
      <path d="M 247.084615 331.2 
L 247.084615 7.2 
" clip-path="url(#p5aa9d46217)" style="fill: none; stroke-dasharray: 0.5,0.825; stroke-dashoffset: 0; stroke: #000000; stroke-width: 0.5"/>
     </g>
     <g id="line2d_8">
      <g>
       <use xlink:href="#m9ab4a9bd67" x="247.084615" y="247.084615" style="stroke: #000000; stroke-width: 0.8"/>
      </g>
     </g>
    </g>
    <g id="xtick_5">
     <g id="line2d_9">
      <path d="M 324.969231 331.2 
L 324.969231 7.2 
" clip-path="url(#p5aa9d46217)" style="fill: none; stroke-dasharray: 0.5,0.825; stroke-dashoffset: 0; stroke: #000000; stroke-width: 0.5"/>
     </g>
     <g id="line2d_10">
      <g>
       <use xlink:href="#m9ab4a9bd67" x="324.969231" y="247.084615" style="stroke: #000000; stroke-width: 0.8"/>
      </g>
     </g>
    </g>
   </g>
   <g id="matplotlib.axis_2">
    <g id="ytick_1">
     <g id="line2d_11">
      <path d="M 7.2 324.969231 
L 331.2 324.969231 
" clip-path="url(#p5aa9d46217)" style="fill: none; stroke-dasharray: 0.5,0.825; stroke-dashoffset: 0; stroke: #000000; stroke-width: 0.5"/>
     </g>
     <g id="line2d_12">
      <defs>
       <path id="mcf41dc8815" d="M 0 0 
L -3.5 0 
" style="stroke: #000000; stroke-width: 0.8"/>
      </defs>
      <g>
       <use xlink:href="#mcf41dc8815" x="91.315385" y="324.969231" style="stroke: #000000; stroke-width: 0.8"/>
      </g>
     </g>
    </g>
    <g id="ytick_2">
     <g id="line2d_13">
      <path d="M 7.2 247.084615 
L 331.2 247.084615 
" clip-path="url(#p5aa9d46217)" style="fill: none; stroke-dasharray: 0.5,0.825; stroke-dashoffset: 0; stroke: #000000; stroke-width: 0.5"/>
     </g>
     <g id="line2d_14">
      <g>
       <use xlink:href="#mcf41dc8815" x="91.315385" y="247.084615" style="stroke: #000000; stroke-width: 0.8"/>
      </g>
     </g>
    </g>
    <g id="ytick_3">
     <g id="line2d_15">
      <path d="M 7.2 169.2 
L 331.2 169.2 
" clip-path="url(#p5aa9d46217)" style="fill: none; stroke-dasharray: 0.5,0.825; stroke-dashoffset: 0; stroke: #000000; stroke-width: 0.5"/>
     </g>
     <g id="line2d_16">
      <g>
       <use xlink:href="#mcf41dc8815" x="91.315385" y="169.2" style="stroke: #000000; stroke-width: 0.8"/>
      </g>
     </g>
    </g>
    <g id="ytick_4">
     <g id="line2d_17">
      <path d="M 7.2 91.315385 
L 331.2 91.315385 
" clip-path="url(#p5aa9d46217)" style="fill: none; stroke-dasharray: 0.5,0.825; stroke-dashoffset: 0; stroke: #000000; stroke-width: 0.5"/>
     </g>
     <g id="line2d_18">
      <g>
       <use xlink:href="#mcf41dc8815" x="91.315385" y="91.315385" style="stroke: #000000; stroke-width: 0.8"/>
      </g>
     </g>
    </g>
    <g id="ytick_5">
     <g id="line2d_19">
      <path d="M 7.2 13.430769 
L 331.2 13.430769 
" clip-path="url(#p5aa9d46217)" style="fill: none; stroke-dasharray: 0.5,0.825; stroke-dashoffset: 0; stroke: #000000; stroke-width: 0.5"/>
     </g>
     <g id="line2d_20">
      <g>
       <use xlink:href="#mcf41dc8815" x="91.315385" y="13.430769" style="stroke: #000000; stroke-width: 0.8"/>
      </g>
     </g>
    </g>
   </g>
   <g id="line2d_21">
    <path d="M 106.892308 226.575 
L 111.722712 225.831086 
L 117.117565 224.76415 
L 121.893918 223.611616 
L 127.245842 222.088203 
L 131.792466 220.601405 
L 137.408714 218.520544 
L 142.327183 216.476458 
L 147.908957 213.905866 
L 152.248262 211.723222 
L 157.363357 208.943387 
L 163.616271 205.240973 
L 168.951427 201.817374 
L 174.184949 198.222271 
L 180.495357 193.575642 
L 186.609691 188.748256 
L 192.086733 184.152312 
L 197.991375 178.909932 
L 203.697101 173.560637 
L 210.199677 167.124516 
L 216.375091 160.677135 
L 223.223976 153.144854 
L 229.855509 145.469014 
L 236.194375 137.780051 
L 241.979781 130.462224 
L 247.86873 122.719191 
L 255.10348 112.800286 
L 261.16822 104.140272 
L 268.066448 93.907388 
L 275.010293 83.19547 
L 282.581791 71.044935 
L 289.867073 58.890483 
L 297.335582 45.958751 
L 304.330405 33.414223 
L 309.392308 24.075 
L 309.392308 24.075 
" clip-path="url(#p5aa9d46217)" style="fill: none; stroke: #0000ff; stroke-width: 2; stroke-linecap: square"/>
   </g>
   <g id="patch_3">
    <path d="M 91.315385 331.2 
L 91.315385 7.2 
" style="fill: none; stroke: #000000; stroke-width: 0.8; stroke-linejoin: miter; stroke-linecap: square"/>
   </g>
   <g id="patch_4">
    <path d="M 7.2 247.084615 
L 331.2 247.084615 
" style="fill: none; stroke: #000000; stroke-width: 0.8; stroke-linejoin: miter; stroke-linecap: square"/>
   </g>
   <g id="line2d_22">
    <path d="M 110.786538 227.613462 
L 149.728846 214.632692 
L 149.728846 214.632692 
" clip-path="url(#p5aa9d46217)" style="fill: none; stroke: #ff0000; stroke-width: 2; stroke-linecap: square"/>
   </g>
   <g id="line2d_23">
    <path d="M 188.671154 188.671154 
L 227.613462 149.728846 
L 227.613462 149.728846 
" clip-path="url(#p5aa9d46217)" style="fill: none; stroke: #ff0000; stroke-width: 2; stroke-linecap: square"/>
   </g>
   <g id="line2d_24">
    <path d="M 266.555769 97.805769 
L 305.498077 32.901923 
L 305.498077 32.901923 
" clip-path="url(#p5aa9d46217)" style="fill: none; stroke: #ff0000; stroke-width: 2; stroke-linecap: square"/>
   </g>
  </g>
 </g>
 <defs>
  <clipPath id="p5aa9d46217">
   <rect x="7.2" y="7.2" width="324" height="324"/>
  </clipPath>
 </defs>
</svg>
