<?xml version="1.0" encoding="utf-8" standalone="no"?>
<!DOCTYPE svg PUBLIC "-//W3C//DTD SVG 1.1//EN"
  "http://www.w3.org/Graphics/SVG/1.1/DTD/svg11.dtd">
<svg xmlns:xlink="http://www.w3.org/1999/xlink" width="453.6pt" height="236.336422pt" viewBox="0 0 453.6 236.336422" xmlns="http://www.w3.org/2000/svg" version="1.1">
 <metadata>
  <rdf:RDF xmlns:dc="http://purl.org/dc/elements/1.1/" xmlns:cc="http://creativecommons.org/ns#" xmlns:rdf="http://www.w3.org/1999/02/22-rdf-syntax-ns#">
   <cc:Work>
    <dc:type rdf:resource="http://purl.org/dc/dcmitype/StillImage"/>
    <dc:date>2025-07-25T14:49:35.215842</dc:date>
    <dc:format>image/svg+xml</dc:format>
    <dc:creator>
     <cc:Agent>
      <dc:title>Matplotlib v3.10.3, https://matplotlib.org/</dc:title>
     </cc:Agent>
    </dc:creator>
   </cc:Work>
  </rdf:RDF>
 </metadata>
 <defs>
  <style type="text/css">*{stroke-linejoin: round; stroke-linecap: butt}</style>
 </defs>
 <g id="figure_1">
  <g id="patch_1">
   <path d="M 0 236.336422 
L 453.6 236.336422 
L 453.6 0 
L 0 0 
z
" style="fill: #ffffff"/>
  </g>
  <g id="axes_1">
   <g id="patch_2">
    <path d="M 7.2 229.136422 
L 446.4 229.136422 
L 446.4 7.2 
L 7.2 7.2 
z
" style="fill: #ffffff"/>
   </g>
   <g id="PathCollection_1">
    <path d="M 411.54809 52.085802 
C 412.485724 52.085802 413.385082 51.713276 414.04809 51.050268 
C 414.711098 50.38726 415.083624 49.487903 415.083624 48.550268 
C 415.083624 47.612634 414.711098 46.713276 414.04809 46.050268 
C 413.385082 45.38726 412.485724 45.014734 411.54809 45.014734 
C 410.610455 45.014734 409.711098 45.38726 409.04809 46.050268 
C 408.385082 46.713276 408.012556 47.612634 408.012556 48.550268 
C 408.012556 49.487903 408.385082 50.38726 409.04809 51.050268 
C 409.711098 51.713276 410.610455 52.085802 411.54809 52.085802 
z
" clip-path="url(#p532b1c4f93)"/>
   </g>
   <g id="matplotlib.axis_1"/>
   <g id="matplotlib.axis_2"/>
   <g id="line2d_1">
    <path d="M 437.953846 75.118642 
L 434.95042 71.192196 
L 431.570845 67.14051 
L 427.984817 63.1977 
L 424.941266 60.097818 
L 420.462897 55.890201 
L 415.909376 51.985179 
L 412.712512 49.44033 
L 408.159331 46.06427 
L 402.027961 41.926844 
L 396.090347 38.312654 
L 389.302179 34.595383 
L 382.733139 31.37162 
L 378.18062 29.332294 
L 372.745716 27.089588 
L 367.117807 24.971786 
L 359.841414 22.518656 
L 352.515261 20.348512 
L 344.524534 18.297656 
L 339.845371 17.240066 
L 332.424293 15.767048 
L 323.439394 14.30005 
L 316.362423 13.374443 
L 309.486815 12.659136 
L 302.053268 12.080768 
L 292.109099 11.609507 
L 282.365033 11.468265 
L 274.821738 11.567952 
L 265.820674 11.91739 
L 255.45424 12.621126 
L 248.974192 13.220726 
L 238.49577 14.444532 
L 230.448722 15.59424 
L 218.226649 17.68422 
L 208.00007 19.74893 
L 197.478629 22.172966 
L 188.627325 24.448771 
L 180.234519 26.808358 
L 168.2014 30.539917 
L 158.071927 34.007829 
L 148.261325 37.661714 
L 138.825521 41.461933 
L 134.737991 43.198788 
L 122.946826 48.532611 
L 116.336808 51.74473 
L 107.680353 56.211599 
L 98.104771 61.526438 
L 93.328332 64.337771 
L 84.550922 69.812235 
L 76.165662 75.46033 
L 68.650648 80.925516 
L 61.405933 86.620638 
L 56.609049 90.663436 
L 51.076718 95.646701 
L 45.80316 100.781491 
L 42.527237 104.200306 
L 39.383081 107.680437 
L 34.637876 113.389186 
L 31.715572 117.25304 
L 28.342441 122.15803 
L 26.490242 125.117414 
L 24.617354 128.36495 
L 22.058803 133.37628 
L 20.535717 136.824074 
L 19.292563 140.040127 
L 17.739543 144.924945 
L 16.736619 149.124085 
L 16.078209 153.110916 
L 15.76526 156.288274 
L 15.651888 160.570832 
L 15.87497 164.527286 
L 16.211584 167.199986 
L 16.869714 170.616608 
L 17.505142 173.066078 
L 18.413968 175.888281 
L 19.828354 179.415529 
L 21.749718 183.271981 
L 23.693548 186.522458 
L 26.292636 190.220967 
L 29.006176 193.544088 
L 31.395943 196.142055 
L 34.631355 199.289692 
L 37.400586 201.717593 
L 40.672398 204.333421 
L 44.202602 206.904136 
L 48.516536 209.75525 
L 52.697674 212.266445 
L 57.317247 214.80024 
L 62.584299 217.429249 
L 69.740323 220.630896 
L 76.59083 223.362205 
L 80.706582 224.868414 
L 80.706582 224.868414 
" clip-path="url(#p532b1c4f93)" style="fill: none; stroke: #000000; stroke-width: 2; stroke-linecap: square"/>
   </g>
   <g id="patch_3">
    <path d="M 181.155821 26.539667 
Q 180.128841 26.840822 181.247573 26.512761 
" clip-path="url(#p532b1c4f93)" style="fill: none; stroke: #000000; stroke-width: 2; stroke-linecap: round"/>
    <path d="M 192.250468 28.496774 
L 181.247573 26.512761 
L 189.436521 18.900853 
z
" clip-path="url(#p532b1c4f93)" style="stroke: #000000; stroke-width: 2; stroke-linecap: round"/>
   </g>
   <g id="text_1">
    <!-- $P$ -->
    <g transform="translate(414.513352 35.138493) scale(0.2 -0.2)">
     <defs>
      <path id="Cmmi10-50" d="M 313 0 
Q 250 0 250 84 
Q 253 100 262 139 
Q 272 178 289 201 
Q 306 225 331 225 
Q 722 225 878 269 
Q 959 297 997 441 
L 1875 3956 
Q 1888 4019 1888 4044 
Q 1888 4113 1813 4122 
Q 1691 4147 1350 4147 
Q 1288 4147 1288 4231 
Q 1291 4247 1300 4286 
Q 1309 4325 1326 4348 
Q 1344 4372 1369 4372 
L 3578 4372 
Q 3881 4372 4165 4264 
Q 4450 4156 4631 3934 
Q 4813 3713 4813 3397 
Q 4813 2991 4527 2672 
Q 4241 2353 3814 2175 
Q 3388 1997 2988 1997 
L 1947 1997 
L 1556 416 
Q 1544 353 1544 325 
Q 1544 300 1551 283 
Q 1559 266 1573 261 
Q 1588 256 1619 250 
Q 1741 225 2081 225 
Q 2144 225 2144 141 
Q 2122 50 2109 25 
Q 2097 0 2034 0 
L 313 0 
z
M 1978 2188 
L 2875 2188 
Q 3497 2188 3822 2522 
Q 3988 2688 4092 3000 
Q 4197 3313 4197 3566 
Q 4197 3881 3956 4014 
Q 3716 4147 3359 4147 
L 2747 4147 
Q 2572 4147 2515 4117 
Q 2459 4088 2413 3928 
L 1978 2188 
z
" transform="scale(0.015625)"/>
     </defs>
     <use xlink:href="#Cmmi10-50" transform="translate(0 0.6875)"/>
    </g>
   </g>
  </g>
 </g>
 <defs>
  <clipPath id="p532b1c4f93">
   <rect x="7.2" y="7.2" width="439.2" height="221.936422"/>
  </clipPath>
 </defs>
</svg>
