<?xml version="1.0" encoding="utf-8" standalone="no"?>
<!DOCTYPE svg PUBLIC "-//W3C//DTD SVG 1.1//EN"
  "http://www.w3.org/Graphics/SVG/1.1/DTD/svg11.dtd">
<svg xmlns:xlink="http://www.w3.org/1999/xlink" width="336.436372pt" height="338.080038pt" viewBox="0 0 336.436372 338.080038" xmlns="http://www.w3.org/2000/svg" version="1.1">
 <metadata>
  <rdf:RDF xmlns:dc="http://purl.org/dc/elements/1.1/" xmlns:cc="http://creativecommons.org/ns#" xmlns:rdf="http://www.w3.org/1999/02/22-rdf-syntax-ns#">
   <cc:Work>
    <dc:type rdf:resource="http://purl.org/dc/dcmitype/StillImage"/>
    <dc:date>2025-06-25T15:26:29.731444</dc:date>
    <dc:format>image/svg+xml</dc:format>
    <dc:creator>
     <cc:Agent>
      <dc:title>Matplotlib v3.10.3, https://matplotlib.org/</dc:title>
     </cc:Agent>
    </dc:creator>
   </cc:Work>
  </rdf:RDF>
 </metadata>
 <defs>
  <style type="text/css">*{stroke-linejoin: round; stroke-linecap: butt}</style>
 </defs>
 <g id="figure_1">
  <g id="patch_1">
   <path d="M 0 338.080038 
L 336.436372 338.080038 
L 336.436372 0 
L 0 0 
z
" style="fill: #ffffff"/>
  </g>
  <g id="axes_1">
   <g id="patch_2">
    <path d="M 8.658833 330.880038 
L 316.096372 330.880038 
L 316.096372 23.4425 
L 8.658833 23.4425 
z
" style="fill: #ffffff"/>
   </g>
   <g id="PathCollection_1">
    <path d="M 162.377603 177.161269 
C 162.377603 177.161269 162.377603 177.161269 162.377603 177.161269 
C 162.377603 177.161269 162.377603 177.161269 162.377603 177.161269 
C 162.377603 177.161269 162.377603 177.161269 162.377603 177.161269 
C 162.377603 177.161269 162.377603 177.161269 162.377603 177.161269 
C 162.377603 177.161269 162.377603 177.161269 162.377603 177.161269 
C 162.377603 177.161269 162.377603 177.161269 162.377603 177.161269 
C 162.377603 177.161269 162.377603 177.161269 162.377603 177.161269 
C 162.377603 177.161269 162.377603 177.161269 162.377603 177.161269 
z
" clip-path="url(#pc5e1aa84c9)"/>
   </g>
   <g id="matplotlib.axis_1">
    <g id="xtick_1">
     <g id="line2d_1">
      <defs>
       <path id="mf36ba6c1ac" d="M 0 0 
L 0 3.5 
" style="stroke: #000000; stroke-width: 0.8"/>
      </defs>
      <g>
       <use xlink:href="#mf36ba6c1ac" x="14.571094" y="177.161269" style="stroke: #000000; stroke-width: 0.8"/>
      </g>
     </g>
     <g id="text_1">
      <!-- −4 -->
      <g transform="translate(7.2 191.759707) scale(0.1 -0.1)">
       <defs>
        <path id="DejaVuSans-2212" d="M 678 2272 
L 4684 2272 
L 4684 1741 
L 678 1741 
L 678 2272 
z
" transform="scale(0.015625)"/>
        <path id="DejaVuSans-34" d="M 2419 4116 
L 825 1625 
L 2419 1625 
L 2419 4116 
z
M 2253 4666 
L 3047 4666 
L 3047 1625 
L 3713 1625 
L 3713 1100 
L 3047 1100 
L 3047 0 
L 2419 0 
L 2419 1100 
L 313 1100 
L 313 1709 
L 2253 4666 
z
" transform="scale(0.015625)"/>
       </defs>
       <use xlink:href="#DejaVuSans-2212"/>
       <use xlink:href="#DejaVuSans-34" transform="translate(83.789062 0)"/>
      </g>
     </g>
    </g>
    <g id="xtick_2">
     <g id="line2d_2">
      <g>
       <use xlink:href="#mf36ba6c1ac" x="51.522721" y="177.161269" style="stroke: #000000; stroke-width: 0.8"/>
      </g>
     </g>
     <g id="text_2">
      <!-- −3 -->
      <g transform="translate(44.151627 191.759707) scale(0.1 -0.1)">
       <defs>
        <path id="DejaVuSans-33" d="M 2597 2516 
Q 3050 2419 3304 2112 
Q 3559 1806 3559 1356 
Q 3559 666 3084 287 
Q 2609 -91 1734 -91 
Q 1441 -91 1130 -33 
Q 819 25 488 141 
L 488 750 
Q 750 597 1062 519 
Q 1375 441 1716 441 
Q 2309 441 2620 675 
Q 2931 909 2931 1356 
Q 2931 1769 2642 2001 
Q 2353 2234 1838 2234 
L 1294 2234 
L 1294 2753 
L 1863 2753 
Q 2328 2753 2575 2939 
Q 2822 3125 2822 3475 
Q 2822 3834 2567 4026 
Q 2313 4219 1838 4219 
Q 1578 4219 1281 4162 
Q 984 4106 628 3988 
L 628 4550 
Q 988 4650 1302 4700 
Q 1616 4750 1894 4750 
Q 2613 4750 3031 4423 
Q 3450 4097 3450 3541 
Q 3450 3153 3228 2886 
Q 3006 2619 2597 2516 
z
" transform="scale(0.015625)"/>
       </defs>
       <use xlink:href="#DejaVuSans-2212"/>
       <use xlink:href="#DejaVuSans-33" transform="translate(83.789062 0)"/>
      </g>
     </g>
    </g>
    <g id="xtick_3">
     <g id="line2d_3">
      <g>
       <use xlink:href="#mf36ba6c1ac" x="88.474348" y="177.161269" style="stroke: #000000; stroke-width: 0.8"/>
      </g>
     </g>
     <g id="text_3">
      <!-- −2 -->
      <g transform="translate(81.103254 191.759707) scale(0.1 -0.1)">
       <defs>
        <path id="DejaVuSans-32" d="M 1228 531 
L 3431 531 
L 3431 0 
L 469 0 
L 469 531 
Q 828 903 1448 1529 
Q 2069 2156 2228 2338 
Q 2531 2678 2651 2914 
Q 2772 3150 2772 3378 
Q 2772 3750 2511 3984 
Q 2250 4219 1831 4219 
Q 1534 4219 1204 4116 
Q 875 4013 500 3803 
L 500 4441 
Q 881 4594 1212 4672 
Q 1544 4750 1819 4750 
Q 2544 4750 2975 4387 
Q 3406 4025 3406 3419 
Q 3406 3131 3298 2873 
Q 3191 2616 2906 2266 
Q 2828 2175 2409 1742 
Q 1991 1309 1228 531 
z
" transform="scale(0.015625)"/>
       </defs>
       <use xlink:href="#DejaVuSans-2212"/>
       <use xlink:href="#DejaVuSans-32" transform="translate(83.789062 0)"/>
      </g>
     </g>
    </g>
    <g id="xtick_4">
     <g id="line2d_4">
      <g>
       <use xlink:href="#mf36ba6c1ac" x="125.425975" y="177.161269" style="stroke: #000000; stroke-width: 0.8"/>
      </g>
     </g>
     <g id="text_4">
      <!-- −1 -->
      <g transform="translate(118.054882 191.759707) scale(0.1 -0.1)">
       <defs>
        <path id="DejaVuSans-31" d="M 794 531 
L 1825 531 
L 1825 4091 
L 703 3866 
L 703 4441 
L 1819 4666 
L 2450 4666 
L 2450 531 
L 3481 531 
L 3481 0 
L 794 0 
L 794 531 
z
" transform="scale(0.015625)"/>
       </defs>
       <use xlink:href="#DejaVuSans-2212"/>
       <use xlink:href="#DejaVuSans-31" transform="translate(83.789062 0)"/>
      </g>
     </g>
    </g>
    <g id="xtick_5">
     <g id="line2d_5">
      <g>
       <use xlink:href="#mf36ba6c1ac" x="162.377603" y="177.161269" style="stroke: #000000; stroke-width: 0.8"/>
      </g>
     </g>
    </g>
    <g id="xtick_6">
     <g id="line2d_6">
      <g>
       <use xlink:href="#mf36ba6c1ac" x="199.32923" y="177.161269" style="stroke: #000000; stroke-width: 0.8"/>
      </g>
     </g>
     <g id="text_5">
      <!-- 1 -->
      <g transform="translate(196.14798 191.759707) scale(0.1 -0.1)">
       <use xlink:href="#DejaVuSans-31"/>
      </g>
     </g>
    </g>
    <g id="xtick_7">
     <g id="line2d_7">
      <g>
       <use xlink:href="#mf36ba6c1ac" x="236.280857" y="177.161269" style="stroke: #000000; stroke-width: 0.8"/>
      </g>
     </g>
     <g id="text_6">
      <!-- 2 -->
      <g transform="translate(233.099607 191.759707) scale(0.1 -0.1)">
       <use xlink:href="#DejaVuSans-32"/>
      </g>
     </g>
    </g>
    <g id="xtick_8">
     <g id="line2d_8">
      <g>
       <use xlink:href="#mf36ba6c1ac" x="273.232484" y="177.161269" style="stroke: #000000; stroke-width: 0.8"/>
      </g>
     </g>
     <g id="text_7">
      <!-- 3 -->
      <g transform="translate(270.051234 191.759707) scale(0.1 -0.1)">
       <use xlink:href="#DejaVuSans-33"/>
      </g>
     </g>
    </g>
    <g id="xtick_9">
     <g id="line2d_9">
      <g>
       <use xlink:href="#mf36ba6c1ac" x="310.184112" y="177.161269" style="stroke: #000000; stroke-width: 0.8"/>
      </g>
     </g>
     <g id="text_8">
      <!-- 4 -->
      <g transform="translate(307.002862 191.759707) scale(0.1 -0.1)">
       <use xlink:href="#DejaVuSans-34"/>
      </g>
     </g>
    </g>
    <g id="xtick_10">
     <g id="line2d_10">
      <defs>
       <path id="m8e11487869" d="M 0 0 
L 0 2 
" style="stroke: #000000; stroke-width: 0.6"/>
      </defs>
      <g>
       <use xlink:href="#m8e11487869" x="21.961419" y="177.161269" style="stroke: #000000; stroke-width: 0.6"/>
      </g>
     </g>
    </g>
    <g id="xtick_11">
     <g id="line2d_11">
      <g>
       <use xlink:href="#m8e11487869" x="29.351745" y="177.161269" style="stroke: #000000; stroke-width: 0.6"/>
      </g>
     </g>
    </g>
    <g id="xtick_12">
     <g id="line2d_12">
      <g>
       <use xlink:href="#m8e11487869" x="36.74207" y="177.161269" style="stroke: #000000; stroke-width: 0.6"/>
      </g>
     </g>
    </g>
    <g id="xtick_13">
     <g id="line2d_13">
      <g>
       <use xlink:href="#m8e11487869" x="44.132396" y="177.161269" style="stroke: #000000; stroke-width: 0.6"/>
      </g>
     </g>
    </g>
    <g id="xtick_14">
     <g id="line2d_14">
      <g>
       <use xlink:href="#m8e11487869" x="58.913046" y="177.161269" style="stroke: #000000; stroke-width: 0.6"/>
      </g>
     </g>
    </g>
    <g id="xtick_15">
     <g id="line2d_15">
      <g>
       <use xlink:href="#m8e11487869" x="66.303372" y="177.161269" style="stroke: #000000; stroke-width: 0.6"/>
      </g>
     </g>
    </g>
    <g id="xtick_16">
     <g id="line2d_16">
      <g>
       <use xlink:href="#m8e11487869" x="73.693697" y="177.161269" style="stroke: #000000; stroke-width: 0.6"/>
      </g>
     </g>
    </g>
    <g id="xtick_17">
     <g id="line2d_17">
      <g>
       <use xlink:href="#m8e11487869" x="81.084023" y="177.161269" style="stroke: #000000; stroke-width: 0.6"/>
      </g>
     </g>
    </g>
    <g id="xtick_18">
     <g id="line2d_18">
      <g>
       <use xlink:href="#m8e11487869" x="95.864674" y="177.161269" style="stroke: #000000; stroke-width: 0.6"/>
      </g>
     </g>
    </g>
    <g id="xtick_19">
     <g id="line2d_19">
      <g>
       <use xlink:href="#m8e11487869" x="103.254999" y="177.161269" style="stroke: #000000; stroke-width: 0.6"/>
      </g>
     </g>
    </g>
    <g id="xtick_20">
     <g id="line2d_20">
      <g>
       <use xlink:href="#m8e11487869" x="110.645325" y="177.161269" style="stroke: #000000; stroke-width: 0.6"/>
      </g>
     </g>
    </g>
    <g id="xtick_21">
     <g id="line2d_21">
      <g>
       <use xlink:href="#m8e11487869" x="118.03565" y="177.161269" style="stroke: #000000; stroke-width: 0.6"/>
      </g>
     </g>
    </g>
    <g id="xtick_22">
     <g id="line2d_22">
      <g>
       <use xlink:href="#m8e11487869" x="132.816301" y="177.161269" style="stroke: #000000; stroke-width: 0.6"/>
      </g>
     </g>
    </g>
    <g id="xtick_23">
     <g id="line2d_23">
      <g>
       <use xlink:href="#m8e11487869" x="140.206626" y="177.161269" style="stroke: #000000; stroke-width: 0.6"/>
      </g>
     </g>
    </g>
    <g id="xtick_24">
     <g id="line2d_24">
      <g>
       <use xlink:href="#m8e11487869" x="147.596952" y="177.161269" style="stroke: #000000; stroke-width: 0.6"/>
      </g>
     </g>
    </g>
    <g id="xtick_25">
     <g id="line2d_25">
      <g>
       <use xlink:href="#m8e11487869" x="154.987277" y="177.161269" style="stroke: #000000; stroke-width: 0.6"/>
      </g>
     </g>
    </g>
    <g id="xtick_26">
     <g id="line2d_26">
      <g>
       <use xlink:href="#m8e11487869" x="169.767928" y="177.161269" style="stroke: #000000; stroke-width: 0.6"/>
      </g>
     </g>
    </g>
    <g id="xtick_27">
     <g id="line2d_27">
      <g>
       <use xlink:href="#m8e11487869" x="177.158254" y="177.161269" style="stroke: #000000; stroke-width: 0.6"/>
      </g>
     </g>
    </g>
    <g id="xtick_28">
     <g id="line2d_28">
      <g>
       <use xlink:href="#m8e11487869" x="184.548579" y="177.161269" style="stroke: #000000; stroke-width: 0.6"/>
      </g>
     </g>
    </g>
    <g id="xtick_29">
     <g id="line2d_29">
      <g>
       <use xlink:href="#m8e11487869" x="191.938904" y="177.161269" style="stroke: #000000; stroke-width: 0.6"/>
      </g>
     </g>
    </g>
    <g id="xtick_30">
     <g id="line2d_30">
      <g>
       <use xlink:href="#m8e11487869" x="206.719555" y="177.161269" style="stroke: #000000; stroke-width: 0.6"/>
      </g>
     </g>
    </g>
    <g id="xtick_31">
     <g id="line2d_31">
      <g>
       <use xlink:href="#m8e11487869" x="214.109881" y="177.161269" style="stroke: #000000; stroke-width: 0.6"/>
      </g>
     </g>
    </g>
    <g id="xtick_32">
     <g id="line2d_32">
      <g>
       <use xlink:href="#m8e11487869" x="221.500206" y="177.161269" style="stroke: #000000; stroke-width: 0.6"/>
      </g>
     </g>
    </g>
    <g id="xtick_33">
     <g id="line2d_33">
      <g>
       <use xlink:href="#m8e11487869" x="228.890532" y="177.161269" style="stroke: #000000; stroke-width: 0.6"/>
      </g>
     </g>
    </g>
    <g id="xtick_34">
     <g id="line2d_34">
      <g>
       <use xlink:href="#m8e11487869" x="243.671183" y="177.161269" style="stroke: #000000; stroke-width: 0.6"/>
      </g>
     </g>
    </g>
    <g id="xtick_35">
     <g id="line2d_35">
      <g>
       <use xlink:href="#m8e11487869" x="251.061508" y="177.161269" style="stroke: #000000; stroke-width: 0.6"/>
      </g>
     </g>
    </g>
    <g id="xtick_36">
     <g id="line2d_36">
      <g>
       <use xlink:href="#m8e11487869" x="258.451833" y="177.161269" style="stroke: #000000; stroke-width: 0.6"/>
      </g>
     </g>
    </g>
    <g id="xtick_37">
     <g id="line2d_37">
      <g>
       <use xlink:href="#m8e11487869" x="265.842159" y="177.161269" style="stroke: #000000; stroke-width: 0.6"/>
      </g>
     </g>
    </g>
    <g id="xtick_38">
     <g id="line2d_38">
      <g>
       <use xlink:href="#m8e11487869" x="280.62281" y="177.161269" style="stroke: #000000; stroke-width: 0.6"/>
      </g>
     </g>
    </g>
    <g id="xtick_39">
     <g id="line2d_39">
      <g>
       <use xlink:href="#m8e11487869" x="288.013135" y="177.161269" style="stroke: #000000; stroke-width: 0.6"/>
      </g>
     </g>
    </g>
    <g id="xtick_40">
     <g id="line2d_40">
      <g>
       <use xlink:href="#m8e11487869" x="295.403461" y="177.161269" style="stroke: #000000; stroke-width: 0.6"/>
      </g>
     </g>
    </g>
    <g id="xtick_41">
     <g id="line2d_41">
      <g>
       <use xlink:href="#m8e11487869" x="302.793786" y="177.161269" style="stroke: #000000; stroke-width: 0.6"/>
      </g>
     </g>
    </g>
    <g id="text_9">
     <!-- $x$ -->
     <g transform="translate(324.096372 177.161269) scale(0.16 -0.16)">
      <defs>
       <path id="Cmmi10-78" d="M 500 184 
Q 613 97 819 97 
Q 1019 97 1172 289 
Q 1325 481 1381 709 
L 1672 1844 
Q 1741 2153 1741 2266 
Q 1741 2425 1652 2544 
Q 1563 2663 1403 2663 
Q 1200 2663 1022 2536 
Q 844 2409 722 2214 
Q 600 2019 550 1819 
Q 538 1778 500 1778 
L 422 1778 
Q 372 1778 372 1838 
L 372 1856 
Q 434 2094 584 2320 
Q 734 2547 951 2687 
Q 1169 2828 1416 2828 
Q 1650 2828 1839 2703 
Q 2028 2578 2106 2363 
Q 2216 2559 2386 2693 
Q 2556 2828 2759 2828 
Q 2897 2828 3040 2779 
Q 3184 2731 3275 2631 
Q 3366 2531 3366 2381 
Q 3366 2219 3261 2101 
Q 3156 1984 2994 1984 
Q 2891 1984 2822 2050 
Q 2753 2116 2753 2216 
Q 2753 2350 2845 2451 
Q 2938 2553 3066 2572 
Q 2950 2663 2747 2663 
Q 2541 2663 2389 2472 
Q 2238 2281 2175 2047 
L 1894 916 
Q 1825 659 1825 494 
Q 1825 331 1917 214 
Q 2009 97 2163 97 
Q 2463 97 2698 361 
Q 2934 625 3009 941 
Q 3022 978 3059 978 
L 3138 978 
Q 3163 978 3178 961 
Q 3194 944 3194 922 
Q 3194 916 3188 903 
Q 3097 522 2806 225 
Q 2516 -72 2150 -72 
Q 1916 -72 1727 54 
Q 1538 181 1459 397 
Q 1359 209 1182 68 
Q 1006 -72 806 -72 
Q 669 -72 523 -23 
Q 378 25 287 125 
Q 197 225 197 378 
Q 197 528 301 651 
Q 406 775 563 775 
Q 669 775 741 711 
Q 813 647 813 544 
Q 813 409 723 309 
Q 634 209 500 184 
z
" transform="scale(0.015625)"/>
      </defs>
      <use xlink:href="#Cmmi10-78" transform="translate(0 0.8125)"/>
     </g>
    </g>
   </g>
   <g id="matplotlib.axis_2">
    <g id="ytick_1">
     <g id="line2d_42">
      <defs>
       <path id="mc76516e083" d="M 0 0 
L -3.5 0 
" style="stroke: #000000; stroke-width: 0.8"/>
      </defs>
      <g>
       <use xlink:href="#mc76516e083" x="162.377603" y="324.967778" style="stroke: #000000; stroke-width: 0.8"/>
      </g>
     </g>
     <g id="text_10">
      <!-- −4 -->
      <g transform="translate(140.635415 328.766997) scale(0.1 -0.1)">
       <use xlink:href="#DejaVuSans-2212"/>
       <use xlink:href="#DejaVuSans-34" transform="translate(83.789062 0)"/>
      </g>
     </g>
    </g>
    <g id="ytick_2">
     <g id="line2d_43">
      <g>
       <use xlink:href="#mc76516e083" x="162.377603" y="288.016151" style="stroke: #000000; stroke-width: 0.8"/>
      </g>
     </g>
     <g id="text_11">
      <!-- −3 -->
      <g transform="translate(140.635415 291.81537) scale(0.1 -0.1)">
       <use xlink:href="#DejaVuSans-2212"/>
       <use xlink:href="#DejaVuSans-33" transform="translate(83.789062 0)"/>
      </g>
     </g>
    </g>
    <g id="ytick_3">
     <g id="line2d_44">
      <g>
       <use xlink:href="#mc76516e083" x="162.377603" y="251.064524" style="stroke: #000000; stroke-width: 0.8"/>
      </g>
     </g>
     <g id="text_12">
      <!-- −2 -->
      <g transform="translate(140.635415 254.863742) scale(0.1 -0.1)">
       <use xlink:href="#DejaVuSans-2212"/>
       <use xlink:href="#DejaVuSans-32" transform="translate(83.789062 0)"/>
      </g>
     </g>
    </g>
    <g id="ytick_4">
     <g id="line2d_45">
      <g>
       <use xlink:href="#mc76516e083" x="162.377603" y="214.112896" style="stroke: #000000; stroke-width: 0.8"/>
      </g>
     </g>
     <g id="text_13">
      <!-- −1 -->
      <g transform="translate(140.635415 217.912115) scale(0.1 -0.1)">
       <use xlink:href="#DejaVuSans-2212"/>
       <use xlink:href="#DejaVuSans-31" transform="translate(83.789062 0)"/>
      </g>
     </g>
    </g>
    <g id="ytick_5">
     <g id="line2d_46">
      <g>
       <use xlink:href="#mc76516e083" x="162.377603" y="177.161269" style="stroke: #000000; stroke-width: 0.8"/>
      </g>
     </g>
    </g>
    <g id="ytick_6">
     <g id="line2d_47">
      <g>
       <use xlink:href="#mc76516e083" x="162.377603" y="140.209642" style="stroke: #000000; stroke-width: 0.8"/>
      </g>
     </g>
     <g id="text_14">
      <!-- 1 -->
      <g transform="translate(149.015103 144.008861) scale(0.1 -0.1)">
       <use xlink:href="#DejaVuSans-31"/>
      </g>
     </g>
    </g>
    <g id="ytick_7">
     <g id="line2d_48">
      <g>
       <use xlink:href="#mc76516e083" x="162.377603" y="103.258015" style="stroke: #000000; stroke-width: 0.8"/>
      </g>
     </g>
     <g id="text_15">
      <!-- 2 -->
      <g transform="translate(149.015103 107.057234) scale(0.1 -0.1)">
       <use xlink:href="#DejaVuSans-32"/>
      </g>
     </g>
    </g>
    <g id="ytick_8">
     <g id="line2d_49">
      <g>
       <use xlink:href="#mc76516e083" x="162.377603" y="66.306388" style="stroke: #000000; stroke-width: 0.8"/>
      </g>
     </g>
     <g id="text_16">
      <!-- 3 -->
      <g transform="translate(149.015103 70.105606) scale(0.1 -0.1)">
       <use xlink:href="#DejaVuSans-33"/>
      </g>
     </g>
    </g>
    <g id="ytick_9">
     <g id="line2d_50">
      <g>
       <use xlink:href="#mc76516e083" x="162.377603" y="29.35476" style="stroke: #000000; stroke-width: 0.8"/>
      </g>
     </g>
     <g id="text_17">
      <!-- 4 -->
      <g transform="translate(149.015103 33.153979) scale(0.1 -0.1)">
       <use xlink:href="#DejaVuSans-34"/>
      </g>
     </g>
    </g>
    <g id="ytick_10">
     <g id="line2d_51">
      <defs>
       <path id="m9690f3f9c5" d="M 0 0 
L -2 0 
" style="stroke: #000000; stroke-width: 0.6"/>
      </defs>
      <g>
       <use xlink:href="#m9690f3f9c5" x="162.377603" y="317.577453" style="stroke: #000000; stroke-width: 0.6"/>
      </g>
     </g>
    </g>
    <g id="ytick_11">
     <g id="line2d_52">
      <g>
       <use xlink:href="#m9690f3f9c5" x="162.377603" y="310.187127" style="stroke: #000000; stroke-width: 0.6"/>
      </g>
     </g>
    </g>
    <g id="ytick_12">
     <g id="line2d_53">
      <g>
       <use xlink:href="#m9690f3f9c5" x="162.377603" y="302.796802" style="stroke: #000000; stroke-width: 0.6"/>
      </g>
     </g>
    </g>
    <g id="ytick_13">
     <g id="line2d_54">
      <g>
       <use xlink:href="#m9690f3f9c5" x="162.377603" y="295.406476" style="stroke: #000000; stroke-width: 0.6"/>
      </g>
     </g>
    </g>
    <g id="ytick_14">
     <g id="line2d_55">
      <g>
       <use xlink:href="#m9690f3f9c5" x="162.377603" y="280.625825" style="stroke: #000000; stroke-width: 0.6"/>
      </g>
     </g>
    </g>
    <g id="ytick_15">
     <g id="line2d_56">
      <g>
       <use xlink:href="#m9690f3f9c5" x="162.377603" y="273.2355" style="stroke: #000000; stroke-width: 0.6"/>
      </g>
     </g>
    </g>
    <g id="ytick_16">
     <g id="line2d_57">
      <g>
       <use xlink:href="#m9690f3f9c5" x="162.377603" y="265.845175" style="stroke: #000000; stroke-width: 0.6"/>
      </g>
     </g>
    </g>
    <g id="ytick_17">
     <g id="line2d_58">
      <g>
       <use xlink:href="#m9690f3f9c5" x="162.377603" y="258.454849" style="stroke: #000000; stroke-width: 0.6"/>
      </g>
     </g>
    </g>
    <g id="ytick_18">
     <g id="line2d_59">
      <g>
       <use xlink:href="#m9690f3f9c5" x="162.377603" y="243.674198" style="stroke: #000000; stroke-width: 0.6"/>
      </g>
     </g>
    </g>
    <g id="ytick_19">
     <g id="line2d_60">
      <g>
       <use xlink:href="#m9690f3f9c5" x="162.377603" y="236.283873" style="stroke: #000000; stroke-width: 0.6"/>
      </g>
     </g>
    </g>
    <g id="ytick_20">
     <g id="line2d_61">
      <g>
       <use xlink:href="#m9690f3f9c5" x="162.377603" y="228.893547" style="stroke: #000000; stroke-width: 0.6"/>
      </g>
     </g>
    </g>
    <g id="ytick_21">
     <g id="line2d_62">
      <g>
       <use xlink:href="#m9690f3f9c5" x="162.377603" y="221.503222" style="stroke: #000000; stroke-width: 0.6"/>
      </g>
     </g>
    </g>
    <g id="ytick_22">
     <g id="line2d_63">
      <g>
       <use xlink:href="#m9690f3f9c5" x="162.377603" y="206.722571" style="stroke: #000000; stroke-width: 0.6"/>
      </g>
     </g>
    </g>
    <g id="ytick_23">
     <g id="line2d_64">
      <g>
       <use xlink:href="#m9690f3f9c5" x="162.377603" y="199.332246" style="stroke: #000000; stroke-width: 0.6"/>
      </g>
     </g>
    </g>
    <g id="ytick_24">
     <g id="line2d_65">
      <g>
       <use xlink:href="#m9690f3f9c5" x="162.377603" y="191.94192" style="stroke: #000000; stroke-width: 0.6"/>
      </g>
     </g>
    </g>
    <g id="ytick_25">
     <g id="line2d_66">
      <g>
       <use xlink:href="#m9690f3f9c5" x="162.377603" y="184.551595" style="stroke: #000000; stroke-width: 0.6"/>
      </g>
     </g>
    </g>
    <g id="ytick_26">
     <g id="line2d_67">
      <g>
       <use xlink:href="#m9690f3f9c5" x="162.377603" y="169.770944" style="stroke: #000000; stroke-width: 0.6"/>
      </g>
     </g>
    </g>
    <g id="ytick_27">
     <g id="line2d_68">
      <g>
       <use xlink:href="#m9690f3f9c5" x="162.377603" y="162.380618" style="stroke: #000000; stroke-width: 0.6"/>
      </g>
     </g>
    </g>
    <g id="ytick_28">
     <g id="line2d_69">
      <g>
       <use xlink:href="#m9690f3f9c5" x="162.377603" y="154.990293" style="stroke: #000000; stroke-width: 0.6"/>
      </g>
     </g>
    </g>
    <g id="ytick_29">
     <g id="line2d_70">
      <g>
       <use xlink:href="#m9690f3f9c5" x="162.377603" y="147.599967" style="stroke: #000000; stroke-width: 0.6"/>
      </g>
     </g>
    </g>
    <g id="ytick_30">
     <g id="line2d_71">
      <g>
       <use xlink:href="#m9690f3f9c5" x="162.377603" y="132.819317" style="stroke: #000000; stroke-width: 0.6"/>
      </g>
     </g>
    </g>
    <g id="ytick_31">
     <g id="line2d_72">
      <g>
       <use xlink:href="#m9690f3f9c5" x="162.377603" y="125.428991" style="stroke: #000000; stroke-width: 0.6"/>
      </g>
     </g>
    </g>
    <g id="ytick_32">
     <g id="line2d_73">
      <g>
       <use xlink:href="#m9690f3f9c5" x="162.377603" y="118.038666" style="stroke: #000000; stroke-width: 0.6"/>
      </g>
     </g>
    </g>
    <g id="ytick_33">
     <g id="line2d_74">
      <g>
       <use xlink:href="#m9690f3f9c5" x="162.377603" y="110.64834" style="stroke: #000000; stroke-width: 0.6"/>
      </g>
     </g>
    </g>
    <g id="ytick_34">
     <g id="line2d_75">
      <g>
       <use xlink:href="#m9690f3f9c5" x="162.377603" y="95.867689" style="stroke: #000000; stroke-width: 0.6"/>
      </g>
     </g>
    </g>
    <g id="ytick_35">
     <g id="line2d_76">
      <g>
       <use xlink:href="#m9690f3f9c5" x="162.377603" y="88.477364" style="stroke: #000000; stroke-width: 0.6"/>
      </g>
     </g>
    </g>
    <g id="ytick_36">
     <g id="line2d_77">
      <g>
       <use xlink:href="#m9690f3f9c5" x="162.377603" y="81.087038" style="stroke: #000000; stroke-width: 0.6"/>
      </g>
     </g>
    </g>
    <g id="ytick_37">
     <g id="line2d_78">
      <g>
       <use xlink:href="#m9690f3f9c5" x="162.377603" y="73.696713" style="stroke: #000000; stroke-width: 0.6"/>
      </g>
     </g>
    </g>
    <g id="ytick_38">
     <g id="line2d_79">
      <g>
       <use xlink:href="#m9690f3f9c5" x="162.377603" y="58.916062" style="stroke: #000000; stroke-width: 0.6"/>
      </g>
     </g>
    </g>
    <g id="ytick_39">
     <g id="line2d_80">
      <g>
       <use xlink:href="#m9690f3f9c5" x="162.377603" y="51.525737" style="stroke: #000000; stroke-width: 0.6"/>
      </g>
     </g>
    </g>
    <g id="ytick_40">
     <g id="line2d_81">
      <g>
       <use xlink:href="#m9690f3f9c5" x="162.377603" y="44.135411" style="stroke: #000000; stroke-width: 0.6"/>
      </g>
     </g>
    </g>
    <g id="ytick_41">
     <g id="line2d_82">
      <g>
       <use xlink:href="#m9690f3f9c5" x="162.377603" y="36.745086" style="stroke: #000000; stroke-width: 0.6"/>
      </g>
     </g>
    </g>
    <g id="text_18">
     <!-- $y$ -->
     <g transform="translate(158.377603 12.0825) scale(0.16 -0.16)">
      <defs>
       <path id="Cmmi10-79" d="M 538 -916 
Q 672 -1147 1006 -1147 
Q 1309 -1147 1531 -934 
Q 1753 -722 1889 -420 
Q 2025 -119 2100 197 
Q 1816 -72 1484 -72 
Q 1231 -72 1053 15 
Q 875 103 776 276 
Q 678 450 678 697 
Q 678 906 734 1126 
Q 791 1347 892 1617 
Q 994 1888 1069 2088 
Q 1153 2322 1153 2472 
Q 1153 2663 1013 2663 
Q 759 2663 595 2402 
Q 431 2141 353 1819 
Q 341 1778 300 1778 
L 225 1778 
Q 172 1778 172 1838 
L 172 1856 
Q 275 2238 487 2533 
Q 700 2828 1025 2828 
Q 1253 2828 1411 2678 
Q 1569 2528 1569 2297 
Q 1569 2178 1516 2047 
Q 1488 1969 1388 1706 
Q 1288 1444 1234 1272 
Q 1181 1100 1147 934 
Q 1113 769 1113 603 
Q 1113 391 1203 244 
Q 1294 97 1491 97 
Q 1888 97 2203 581 
L 2688 2553 
Q 2709 2638 2787 2698 
Q 2866 2759 2956 2759 
Q 3034 2759 3092 2709 
Q 3150 2659 3150 2578 
Q 3150 2541 3144 2528 
L 2509 -19 
Q 2425 -347 2200 -647 
Q 1975 -947 1658 -1130 
Q 1341 -1313 997 -1313 
Q 831 -1313 668 -1248 
Q 506 -1184 406 -1056 
Q 306 -928 306 -756 
Q 306 -581 409 -453 
Q 513 -325 684 -325 
Q 788 -325 858 -389 
Q 928 -453 928 -556 
Q 928 -703 818 -812 
Q 709 -922 563 -922 
Q 556 -919 550 -917 
Q 544 -916 538 -916 
z
" transform="scale(0.015625)"/>
      </defs>
      <use xlink:href="#Cmmi10-79" transform="translate(0 0.8125)"/>
     </g>
    </g>
   </g>
   <g id="line2d_83">
    <path d="M 199.32923 177.161269 
L 199.18472 173.896481 
L 198.937708 171.796435 
L 198.310225 168.543298 
L 197.678072 166.238832 
L 196.905633 163.999282 
L 195.519909 160.82082 
L 193.70632 157.567029 
L 191.590873 154.533685 
L 189.672912 152.253663 
L 187.972943 150.509791 
L 185.1327 148.047212 
L 182.398409 146.103419 
L 180.121479 144.748654 
L 176.792706 143.137343 
L 175.180975 142.498661 
L 172.410376 141.597717 
L 169.447286 140.892242 
L 166.991436 140.498819 
L 163.477015 140.226001 
L 160.865875 140.240578 
L 157.233844 140.569405 
L 154.301047 141.103094 
L 151.209486 141.937755 
L 148.78827 142.799186 
L 146.04714 144.014041 
L 144.278321 144.945764 
L 141.394927 146.74499 
L 139.513911 148.132415 
L 136.819787 150.473803 
L 134.422243 152.99682 
L 132.881935 154.90305 
L 131.604937 156.704833 
L 130.370035 158.696752 
L 129.186595 160.91997 
L 127.925378 163.802116 
L 126.910581 166.792417 
L 126.146127 169.90159 
L 125.644044 173.152729 
L 125.440184 176.136658 
L 125.483189 179.216745 
L 125.71479 181.772226 
L 126.139647 184.388534 
L 126.862926 187.365704 
L 127.721059 189.98105 
L 129.025062 193.068211 
L 130.671289 196.138424 
L 132.074693 198.307343 
L 133.403114 200.093817 
L 135.036206 202.018275 
L 137.324745 204.323321 
L 139.937174 206.51855 
L 142.810154 208.506727 
L 144.82281 209.676681 
L 147.87994 211.150099 
L 150.518751 212.158275 
L 153.661305 213.070167 
L 155.93933 213.547687 
L 158.16453 213.871932 
L 160.485973 214.064446 
L 163.329356 214.100637 
L 166.124575 213.92243 
L 168.90047 213.532617 
L 172.410379 212.72482 
L 174.448426 212.08573 
L 177.642797 210.81237 
L 179.864678 209.71315 
L 182.948268 207.857694 
L 185.697147 205.825212 
L 187.218699 204.517122 
L 189.699084 202.040164 
L 191.358797 200.085342 
L 193.556444 196.993128 
L 195.268045 194.002931 
L 196.541217 191.242114 
L 197.69143 188.04044 
L 198.518799 184.857808 
L 199.022915 181.909301 
L 199.264085 179.354485 
L 199.32923 177.161269 
L 199.32923 177.161269 
" clip-path="url(#pc5e1aa84c9)" style="fill: none; stroke-dasharray: 3.7,1.6; stroke-dashoffset: 0; stroke: #808080"/>
   </g>
   <g id="line2d_84">
    <path d="M 236.280857 177.161269 
L 236.15775 172.897373 
L 235.815064 168.876929 
L 235.143903 164.247845 
L 234.452151 160.822651 
L 233.461744 156.944052 
L 231.920371 152.151385 
L 230.320838 148.085371 
L 228.196792 143.552859 
L 226.196083 139.89342 
L 224.548482 137.205383 
L 222.611985 134.341763 
L 220.052221 130.951645 
L 217.031086 127.415035 
L 213.823949 124.10503 
L 210.943919 121.456656 
L 207.396597 118.552557 
L 203.955719 116.063387 
L 199.590182 113.310545 
L 196.041912 111.370652 
L 194.273272 110.495256 
L 190.842559 108.959823 
L 187.006615 107.482702 
L 181.650269 105.815244 
L 177.15059 104.7496 
L 172.668325 103.977992 
L 169.246438 103.577914 
L 164.73864 103.295739 
L 159.482816 103.314731 
L 154.750695 103.652621 
L 149.697299 104.353983 
L 145.303776 105.257337 
L 144.045371 105.567832 
L 139.480353 106.894585 
L 135.563039 108.294222 
L 131.441638 110.044527 
L 128.80758 111.322492 
L 124.516268 113.693086 
L 120.145298 116.513734 
L 116.915889 118.895296 
L 113.686911 121.565338 
L 109.83912 125.186287 
L 106.539352 128.748659 
L 103.740954 132.178667 
L 100.908641 136.133744 
L 99.170493 138.865679 
L 97.09946 142.513684 
L 94.894802 147.032169 
L 93.488259 150.404038 
L 92.031375 154.509576 
L 90.658412 159.327349 
L 89.854407 162.945885 
L 89.248257 166.494035 
L 88.753231 170.74699 
L 88.550797 173.800648 
L 88.491194 178.739116 
L 88.713505 183.101955 
L 89.056433 186.418546 
L 89.869062 191.451217 
L 90.491599 194.310422 
L 91.537125 198.216382 
L 92.902086 202.357372 
L 94.395389 206.145914 
L 96.379116 210.416206 
L 98.017873 213.486414 
L 100.720072 217.904857 
L 103.205774 221.437512 
L 105.307276 224.115171 
L 107.765276 226.952682 
L 110.412181 229.709209 
L 113.833726 232.885438 
L 117.513404 235.88856 
L 121.187806 238.521612 
L 123.805302 240.199897 
L 128.19255 242.682817 
L 130.093164 243.639883 
L 134.500304 245.605022 
L 135.851115 246.139791 
L 140.716348 247.81876 
L 145.642004 249.144675 
L 149.501688 249.934216 
L 154.126734 250.602499 
L 159.412448 251.005016 
L 164.683019 251.028556 
L 169.417312 250.728473 
L 173.077978 250.285773 
L 177.238086 249.555033 
L 181.947035 248.426466 
L 186.018303 247.181326 
L 188.48844 246.2982 
L 193.708199 244.094704 
L 197.39015 242.24439 
L 200.711966 240.344872 
L 203.883873 238.307983 
L 206.674845 236.317379 
L 209.981517 233.690539 
L 213.010813 230.994057 
L 216.151671 227.856837 
L 219.1168 224.514775 
L 221.511821 221.487731 
L 224.541047 217.128721 
L 226.312909 214.228339 
L 228.591205 209.985801 
L 230.571905 205.643336 
L 232.049741 201.808463 
L 233.536053 197.115365 
L 234.637066 192.661624 
L 235.324336 189.013065 
L 235.842459 185.199048 
L 236.202644 180.560418 
L 236.280857 177.161269 
L 236.280857 177.161269 
" clip-path="url(#pc5e1aa84c9)" style="fill: none; stroke-dasharray: 3.7,1.6; stroke-dashoffset: 0; stroke: #808080"/>
   </g>
   <g id="line2d_85">
    <path d="M 273.232484 177.161269 
L 273.123019 172.236069 
L 272.79334 167.303803 
L 272.232442 162.304652 
L 271.37864 156.972693 
L 270.213705 151.467307 
L 268.976211 146.738557 
L 267.270723 141.297107 
L 265.608063 136.759823 
L 263.109739 130.881236 
L 260.588467 125.746962 
L 258.343398 121.669189 
L 256.000921 117.802369 
L 253.696175 114.314447 
L 250.728128 110.206138 
L 246.99086 105.54143 
L 244.253022 102.426937 
L 240.803242 98.814452 
L 236.997597 95.18163 
L 233.515667 92.142562 
L 228.422082 88.127952 
L 223.063547 84.392627 
L 220.618279 82.838269 
L 216.18008 80.238113 
L 210.950024 77.514269 
L 207.48186 75.897205 
L 201.581105 73.469948 
L 196.531765 71.698963 
L 194.157536 70.959383 
L 188.754939 69.490285 
L 184.031522 68.441848 
L 179.67039 67.663487 
L 175.924199 67.137206 
L 169.62318 66.54343 
L 164.051487 66.319026 
L 160.88841 66.316391 
L 154.706477 66.572126 
L 151.759539 66.816077 
L 145.693799 67.569046 
L 141.89944 68.214265 
L 136.632906 69.337267 
L 130.167182 71.089154 
L 123.572828 73.320072 
L 118.644972 75.297332 
L 113.07331 77.874354 
L 108.167333 80.465605 
L 105.763675 81.852991 
L 100.346443 85.286681 
L 95.0501 89.09418 
L 90.876533 92.447623 
L 86.348025 96.487183 
L 82.3412 100.460689 
L 77.953179 105.318932 
L 74.726297 109.293358 
L 71.500957 113.677098 
L 69.222409 117.070382 
L 66.755492 121.079038 
L 64.083442 125.906388 
L 61.42811 131.357288 
L 59.268728 136.450525 
L 57.247047 141.9992 
L 55.821705 146.589298 
L 54.522059 151.549036 
L 53.487663 156.38181 
L 52.674759 161.221038 
L 52.054333 166.317792 
L 51.633531 172.205929 
L 51.522728 177.121023 
L 51.637916 182.213659 
L 52.02635 187.716167 
L 52.502949 191.870633 
L 53.363741 197.280484 
L 54.520652 202.767575 
L 55.784081 207.601802 
L 57.583571 213.313942 
L 58.935925 217.018817 
L 60.898421 221.779433 
L 63.593095 227.464608 
L 65.228897 230.555406 
L 67.20224 233.998363 
L 70.671622 239.441426 
L 73.210133 243.024515 
L 75.759723 246.343259 
L 79.616411 250.91349 
L 83.117983 254.664285 
L 87.000426 258.445253 
L 91.391378 262.306796 
L 96.941065 266.642353 
L 100.604886 269.209823 
L 106.317421 272.796309 
L 110.474036 275.114445 
L 116.382101 278.023644 
L 122.317239 280.524571 
L 125.537304 281.715548 
L 132.408516 283.888298 
L 136.514176 284.956853 
L 140.780571 285.892005 
L 147.691803 287.039074 
L 154.033122 287.701644 
L 161.625918 288.013602 
L 164.038667 288.003705 
L 171.286811 287.657562 
L 174.901338 287.30645 
L 178.494468 286.838302 
L 182.097419 286.248086 
L 188.424361 284.912702 
L 191.769848 284.048596 
L 198.738259 281.883318 
L 204.397529 279.74358 
L 207.768826 278.297028 
L 212.151996 276.213349 
L 218.388766 272.825026 
L 223.972209 269.329101 
L 228.936663 265.810557 
L 233.995363 261.776287 
L 237.843102 258.363259 
L 241.275073 255.032919 
L 245.099974 250.957028 
L 249.310234 245.947332 
L 252.484571 241.733238 
L 254.854861 238.290324 
L 257.321572 234.384058 
L 260.079608 229.5361 
L 263.144925 223.36464 
L 264.938724 219.232888 
L 266.991448 213.832078 
L 268.512387 209.164587 
L 269.79993 204.533669 
L 270.860026 199.972857 
L 271.75567 195.19577 
L 272.48258 190.033671 
L 272.819445 186.721829 
L 273.151881 181.387844 
L 273.232484 177.161269 
L 273.232484 177.161269 
" clip-path="url(#pc5e1aa84c9)" style="fill: none; stroke-dasharray: 3.7,1.6; stroke-dashoffset: 0; stroke: #808080"/>
   </g>
   <g id="line2d_86">
    <path d="M 310.184112 177.161269 
L 310.035488 170.534591 
L 309.735803 165.658017 
L 309.140009 159.623878 
L 308.134836 152.633878 
L 307.084696 147.051116 
L 305.946404 142.02207 
L 304.002975 134.864484 
L 302.277264 129.465893 
L 299.734425 122.573108 
L 297.340613 116.897267 
L 294.484648 110.870299 
L 291.641376 105.483929 
L 288.756591 100.511968 
L 286.051509 96.219754 
L 282.154404 90.557101 
L 279.045346 86.412156 
L 276.078392 82.72137 
L 271.772367 77.765345 
L 267.674692 73.434286 
L 263.321007 69.192787 
L 258.016596 64.467228 
L 255.832723 62.649678 
L 250.261995 58.32063 
L 245.62848 55.029965 
L 241.150396 52.094843 
L 233.902822 47.813261 
L 228.943666 45.192624 
L 222.894557 42.311493 
L 217.155238 39.879899 
L 213.206222 38.369283 
L 204.8836 35.598547 
L 195.21849 33.049368 
L 189.490976 31.862855 
L 185.762103 31.216317 
L 178.219426 30.206172 
L 173.961584 29.809393 
L 166.109163 29.401872 
L 162.967123 29.355936 
L 155.410097 29.519074 
L 148.354223 30.02151 
L 143.864935 30.518693 
L 134.838197 31.943002 
L 129.736134 33.004068 
L 124.193278 34.372189 
L 116.578355 36.629447 
L 112.437328 38.047168 
L 108.735427 39.432256 
L 103.560705 41.561355 
L 99.164948 43.553918 
L 91.732207 47.33064 
L 89.305705 48.68068 
L 82.091975 53.060576 
L 75.899396 57.293493 
L 69.710359 62.011167 
L 66.036668 65.066718 
L 61.945756 68.716776 
L 57.469044 73.041346 
L 53.585224 77.106372 
L 49.430298 81.821506 
L 45.106179 87.193624 
L 41.378562 92.27313 
L 38.534056 96.479548 
L 35.597651 101.177009 
L 32.790913 106.0694 
L 29.516829 112.394157 
L 27.228368 117.316066 
L 24.746261 123.268988 
L 22.485745 129.44301 
L 20.740403 134.904107 
L 19.07426 140.954696 
L 17.863327 146.138885 
L 16.716524 152.069155 
L 15.663603 159.22342 
L 15.063645 165.104651 
L 14.6481 172.390736 
L 14.572188 177.729943 
L 14.712467 183.624378 
L 15.042401 188.955439 
L 15.491485 193.630411 
L 16.29056 199.641041 
L 17.337609 205.624656 
L 18.795119 212.244521 
L 20.556464 218.796934 
L 21.849123 222.97077 
L 24.21238 229.669699 
L 26.58274 235.526664 
L 28.539211 239.883267 
L 31.077096 245.03572 
L 34.0648 250.527398 
L 36.46829 254.579671 
L 40.172956 260.304449 
L 42.843088 264.099545 
L 46.080373 268.384723 
L 49.405802 272.472005 
L 52.789507 276.343996 
L 56.29563 280.085412 
L 59.478819 283.26784 
L 61.912018 285.574509 
L 68.183413 291.065697 
L 72.516691 294.5145 
L 77.086208 297.876397 
L 83.486486 302.153092 
L 88.508273 305.185041 
L 95.03475 308.735219 
L 97.626359 310.029778 
L 102.729461 312.397593 
L 107.400378 314.362832 
L 111.582699 315.965598 
L 119.934909 318.742984 
L 122.791598 319.568124 
L 131.584151 321.724499 
L 138.217887 322.979897 
L 145.892689 324.045617 
L 153.620459 324.708131 
L 159.80465 324.945382 
L 167.629699 324.874436 
L 172.669244 324.609044 
L 179.399555 323.984351 
L 186.586835 322.971684 
L 192.458111 321.874527 
L 196.439792 320.9894 
L 200.967403 319.841301 
L 209.443444 317.273976 
L 214.879124 315.329118 
L 219.427688 313.513944 
L 226.703116 310.236407 
L 233.667691 306.639018 
L 238.655655 303.764677 
L 244.721819 299.905695 
L 248.645004 297.180849 
L 254.998152 292.348933 
L 260.960365 287.289391 
L 265.846139 282.712328 
L 269.946374 278.530512 
L 273.611033 274.495169 
L 276.636695 270.924929 
L 280.722305 265.712359 
L 284.558704 260.339046 
L 288.037368 254.984064 
L 291.227193 249.580515 
L 293.088651 246.164065 
L 296.107663 240.11391 
L 297.889571 236.180508 
L 300.337891 230.205805 
L 302.297493 224.797267 
L 304.466951 217.872217 
L 306.045332 211.893784 
L 307.190251 206.759598 
L 308.315838 200.587653 
L 309.276096 193.519648 
L 309.780267 188.080002 
L 310.03502 183.798365 
L 310.184112 177.161269 
L 310.184112 177.161269 
" clip-path="url(#pc5e1aa84c9)" style="fill: none; stroke-dasharray: 3.7,1.6; stroke-dashoffset: 0; stroke: #808080"/>
   </g>
   <g id="line2d_87">
    <path d="M 337.436372 118.092614 
L 335.702493 113.176496 
L 333.304278 107.021121 
L 330.867489 101.354099 
L 328.425604 96.145035 
L 324.906794 89.298702 
L 322.258812 84.567708 
L 318.659649 78.614373 
L 315.366731 73.576061 
L 311.562662 68.168669 
L 307.707595 63.079009 
L 302.32452 56.536109 
L 297.058514 50.683521 
L 292.854664 46.351081 
L 288.953893 42.572965 
L 282.753314 36.99973 
L 278.49012 33.448179 
L 273.323713 29.423226 
L 267.526852 25.242856 
L 260.37724 20.535474 
L 254.228912 16.852486 
L 246.771111 12.804022 
L 242.305052 10.586446 
L 234.709246 7.150381 
L 229.583366 5.059688 
L 220.198309 1.683821 
L 215.842256 0.307941 
L 211.300833 -1 
M 113.45842 -1 
L 104.847255 1.588413 
L 100.133699 3.203615 
L 95.465414 4.945336 
L 90.892254 6.792804 
L 83.963786 9.868585 
L 79.077525 12.247152 
L 71.245532 16.442526 
L 64.993685 20.151902 
L 58.889642 24.106342 
L 53.172674 28.131566 
L 47.179613 32.714074 
L 42.4924 36.579951 
L 38.307704 40.259008 
L 32.632985 45.624571 
L 28.781523 49.538166 
L 23.380067 55.443341 
L 20.062716 59.339192 
L 15.158707 65.527199 
L 12.053356 69.745304 
L 8.980431 74.181287 
L 5.218568 80.01907 
L 1.168272 86.899868 
L -1 90.891751 
M -1 263.432869 
L 1.3689 267.780067 
L 4.050919 272.388524 
L 8.820176 279.902135 
L 12.512725 285.217214 
L 16.478201 290.514406 
L 21.067234 296.18626 
L 25.322256 301.062039 
L 29.17197 305.191845 
L 33.417612 309.467315 
L 37.511437 313.337661 
L 42.279101 317.56041 
L 46.316076 320.915542 
L 50.532183 324.219663 
L 56.190694 328.356208 
L 62.197487 332.401449 
L 68.25263 336.145729 
L 73.428177 339.080038 
M 251.342361 339.080038 
L 254.789245 337.147697 
L 259.272147 334.473113 
L 264.218477 331.317052 
L 269.350684 327.801001 
L 276.259913 322.647998 
L 280.87368 318.915452 
L 286.549048 313.971433 
L 290.975918 309.818882 
L 295.632326 305.14075 
L 299.678657 300.789701 
L 303.483819 296.428215 
L 308.353904 290.415357 
L 311.739893 285.910867 
L 316.255873 279.420972 
L 320.137232 273.325027 
L 323.018185 268.431046 
L 326.830788 261.367675 
L 329.606881 255.710217 
L 332.789646 248.542669 
L 335.761751 240.985292 
L 337.436372 236.211226 
L 337.436372 236.211226 
" clip-path="url(#pc5e1aa84c9)" style="fill: none; stroke-dasharray: 3.7,1.6; stroke-dashoffset: 0; stroke: #808080"/>
   </g>
   <g id="line2d_88">
    <path d="M 162.377603 177.161269 
L 337.436372 104.649553 
" clip-path="url(#pc5e1aa84c9)" style="fill: none; stroke: #808080; stroke-linecap: square"/>
   </g>
   <g id="line2d_89">
    <path d="M 162.377603 177.161269 
L 319.15008 20.388792 
" clip-path="url(#pc5e1aa84c9)" style="fill: none; stroke: #808080; stroke-linecap: square"/>
   </g>
   <g id="line2d_90">
    <path d="M 162.377603 177.161269 
L 236.174417 -1 
" clip-path="url(#pc5e1aa84c9)" style="fill: none; stroke: #808080; stroke-linecap: square"/>
   </g>
   <g id="line2d_91">
    <path d="M 162.377603 177.161269 
L 162.377603 -1 
" clip-path="url(#pc5e1aa84c9)" style="fill: none; stroke: #808080; stroke-linecap: square"/>
   </g>
   <g id="line2d_92">
    <path d="M 162.377603 177.161269 
L 88.580789 -1 
" clip-path="url(#pc5e1aa84c9)" style="fill: none; stroke: #808080; stroke-linecap: square"/>
   </g>
   <g id="line2d_93">
    <path d="M 162.377603 177.161269 
L 5.605126 20.388792 
" clip-path="url(#pc5e1aa84c9)" style="fill: none; stroke: #808080; stroke-linecap: square"/>
   </g>
   <g id="line2d_94">
    <path d="M 162.377603 177.161269 
L -1 109.48805 
" clip-path="url(#pc5e1aa84c9)" style="fill: none; stroke: #808080; stroke-linecap: square"/>
   </g>
   <g id="line2d_95">
    <path d="M 162.377603 177.161269 
L -1 177.161269 
" clip-path="url(#pc5e1aa84c9)" style="fill: none; stroke: #808080; stroke-linecap: square"/>
   </g>
   <g id="line2d_96">
    <path d="M 162.377603 177.161269 
L -1 244.834488 
" clip-path="url(#pc5e1aa84c9)" style="fill: none; stroke: #808080; stroke-linecap: square"/>
   </g>
   <g id="line2d_97">
    <path d="M 162.377603 177.161269 
L 5.605126 333.933746 
" clip-path="url(#pc5e1aa84c9)" style="fill: none; stroke: #808080; stroke-linecap: square"/>
   </g>
   <g id="line2d_98">
    <path d="M 162.377603 177.161269 
L 95.308652 339.080038 
" clip-path="url(#pc5e1aa84c9)" style="fill: none; stroke: #808080; stroke-linecap: square"/>
   </g>
   <g id="line2d_99">
    <path d="M 162.377603 177.161269 
L 162.377603 339.080038 
" clip-path="url(#pc5e1aa84c9)" style="fill: none; stroke: #808080; stroke-linecap: square"/>
   </g>
   <g id="line2d_100">
    <path d="M 162.377603 177.161269 
L 229.446553 339.080038 
" clip-path="url(#pc5e1aa84c9)" style="fill: none; stroke: #808080; stroke-linecap: square"/>
   </g>
   <g id="line2d_101">
    <path d="M 162.377603 177.161269 
L 319.15008 333.933746 
" clip-path="url(#pc5e1aa84c9)" style="fill: none; stroke: #808080; stroke-linecap: square"/>
   </g>
   <g id="line2d_102">
    <path d="M 162.377603 177.161269 
L 337.436372 249.672986 
" clip-path="url(#pc5e1aa84c9)" style="fill: none; stroke: #808080; stroke-linecap: square"/>
   </g>
   <g id="patch_3">
    <path d="M 162.377603 330.880038 
L 162.377603 23.4425 
" style="fill: none; stroke: #000000; stroke-width: 0.8; stroke-linejoin: miter; stroke-linecap: square"/>
   </g>
   <g id="patch_4">
    <path d="M 8.658833 177.161269 
L 316.096372 177.161269 
" style="fill: none; stroke: #000000; stroke-width: 0.8; stroke-linejoin: miter; stroke-linecap: square"/>
   </g>
  </g>
 </g>
 <defs>
  <clipPath id="pc5e1aa84c9">
   <rect x="8.658833" y="23.4425" width="307.437538" height="307.437538"/>
  </clipPath>
 </defs>
</svg>
