<?xml version="1.0" encoding="utf-8" standalone="no"?>
<!DOCTYPE svg PUBLIC "-//W3C//DTD SVG 1.1//EN"
  "http://www.w3.org/Graphics/SVG/1.1/DTD/svg11.dtd">
<svg xmlns:xlink="http://www.w3.org/1999/xlink" width="451.30218pt" height="337.397538pt" viewBox="0 0 451.30218 337.397538" xmlns="http://www.w3.org/2000/svg" version="1.1">
 <metadata>
  <rdf:RDF xmlns:dc="http://purl.org/dc/elements/1.1/" xmlns:cc="http://creativecommons.org/ns#" xmlns:rdf="http://www.w3.org/1999/02/22-rdf-syntax-ns#">
   <cc:Work>
    <dc:type rdf:resource="http://purl.org/dc/dcmitype/StillImage"/>
    <dc:date>2025-08-27T14:09:41.974137</dc:date>
    <dc:format>image/svg+xml</dc:format>
    <dc:creator>
     <cc:Agent>
      <dc:title>Matplotlib v3.10.3, https://matplotlib.org/</dc:title>
     </cc:Agent>
    </dc:creator>
   </cc:Work>
  </rdf:RDF>
 </metadata>
 <defs>
  <style type="text/css">*{stroke-linejoin: round; stroke-linecap: butt}</style>
 </defs>
 <g id="figure_1">
  <g id="patch_1">
   <path d="M 0 337.397538 
L 451.30218 337.397538 
L 451.30218 0 
L 0 0 
z
" style="fill: #ffffff"/>
  </g>
  <g id="axes_1">
   <g id="patch_2">
    <path d="M 20.801795 330.197538 
L 444.10218 330.197538 
L 444.10218 7.2 
L 20.801795 7.2 
z
" style="fill: #ffffff"/>
   </g>
   <g id="matplotlib.axis_1">
    <g id="xtick_1">
     <g id="line2d_1">
      <path d="M 28.942187 330.197538 
L 28.942187 7.2 
" clip-path="url(#p36f1f7f951)" style="fill: none; stroke-dasharray: 0.5,0.825; stroke-dashoffset: 0; stroke: #000000; stroke-width: 0.5"/>
     </g>
     <g id="line2d_2">
      <defs>
       <path id="m80283def58" d="M 0 0 
L 0 3.5 
" style="stroke: #000000; stroke-width: 0.8"/>
      </defs>
      <g>
       <use xlink:href="#m80283def58" x="28.942187" y="199.756225" style="stroke: #000000; stroke-width: 0.8"/>
      </g>
     </g>
    </g>
    <g id="xtick_2">
     <g id="line2d_3">
      <path d="M 130.697088 330.197538 
L 130.697088 7.2 
" clip-path="url(#p36f1f7f951)" style="fill: none; stroke-dasharray: 0.5,0.825; stroke-dashoffset: 0; stroke: #000000; stroke-width: 0.5"/>
     </g>
     <g id="line2d_4">
      <g>
       <use xlink:href="#m80283def58" x="130.697088" y="199.756225" style="stroke: #000000; stroke-width: 0.8"/>
      </g>
     </g>
     <g id="text_1">
      <!-- 0.5 -->
      <g transform="translate(122.745525 214.354662) scale(0.1 -0.1)">
       <defs>
        <path id="DejaVuSans-30" d="M 2034 4250 
Q 1547 4250 1301 3770 
Q 1056 3291 1056 2328 
Q 1056 1369 1301 889 
Q 1547 409 2034 409 
Q 2525 409 2770 889 
Q 3016 1369 3016 2328 
Q 3016 3291 2770 3770 
Q 2525 4250 2034 4250 
z
M 2034 4750 
Q 2819 4750 3233 4129 
Q 3647 3509 3647 2328 
Q 3647 1150 3233 529 
Q 2819 -91 2034 -91 
Q 1250 -91 836 529 
Q 422 1150 422 2328 
Q 422 3509 836 4129 
Q 1250 4750 2034 4750 
z
" transform="scale(0.015625)"/>
        <path id="DejaVuSans-2e" d="M 684 794 
L 1344 794 
L 1344 0 
L 684 0 
L 684 794 
z
" transform="scale(0.015625)"/>
        <path id="DejaVuSans-35" d="M 691 4666 
L 3169 4666 
L 3169 4134 
L 1269 4134 
L 1269 2991 
Q 1406 3038 1543 3061 
Q 1681 3084 1819 3084 
Q 2600 3084 3056 2656 
Q 3513 2228 3513 1497 
Q 3513 744 3044 326 
Q 2575 -91 1722 -91 
Q 1428 -91 1123 -41 
Q 819 9 494 109 
L 494 744 
Q 775 591 1075 516 
Q 1375 441 1709 441 
Q 2250 441 2565 725 
Q 2881 1009 2881 1497 
Q 2881 1984 2565 2268 
Q 2250 2553 1709 2553 
Q 1456 2553 1204 2497 
Q 953 2441 691 2322 
L 691 4666 
z
" transform="scale(0.015625)"/>
       </defs>
       <use xlink:href="#DejaVuSans-30"/>
       <use xlink:href="#DejaVuSans-2e" transform="translate(63.623047 0)"/>
       <use xlink:href="#DejaVuSans-35" transform="translate(95.410156 0)"/>
      </g>
     </g>
    </g>
    <g id="xtick_3">
     <g id="line2d_5">
      <path d="M 232.451988 330.197538 
L 232.451988 7.2 
" clip-path="url(#p36f1f7f951)" style="fill: none; stroke-dasharray: 0.5,0.825; stroke-dashoffset: 0; stroke: #000000; stroke-width: 0.5"/>
     </g>
     <g id="line2d_6">
      <g>
       <use xlink:href="#m80283def58" x="232.451988" y="199.756225" style="stroke: #000000; stroke-width: 0.8"/>
      </g>
     </g>
     <g id="text_2">
      <!-- 1.0 -->
      <g transform="translate(224.500425 214.354662) scale(0.1 -0.1)">
       <defs>
        <path id="DejaVuSans-31" d="M 794 531 
L 1825 531 
L 1825 4091 
L 703 3866 
L 703 4441 
L 1819 4666 
L 2450 4666 
L 2450 531 
L 3481 531 
L 3481 0 
L 794 0 
L 794 531 
z
" transform="scale(0.015625)"/>
       </defs>
       <use xlink:href="#DejaVuSans-31"/>
       <use xlink:href="#DejaVuSans-2e" transform="translate(63.623047 0)"/>
       <use xlink:href="#DejaVuSans-30" transform="translate(95.410156 0)"/>
      </g>
     </g>
    </g>
    <g id="xtick_4">
     <g id="line2d_7">
      <path d="M 334.206888 330.197538 
L 334.206888 7.2 
" clip-path="url(#p36f1f7f951)" style="fill: none; stroke-dasharray: 0.5,0.825; stroke-dashoffset: 0; stroke: #000000; stroke-width: 0.5"/>
     </g>
     <g id="line2d_8">
      <g>
       <use xlink:href="#m80283def58" x="334.206888" y="199.756225" style="stroke: #000000; stroke-width: 0.8"/>
      </g>
     </g>
     <g id="text_3">
      <!-- 1.5 -->
      <g transform="translate(326.255325 214.354662) scale(0.1 -0.1)">
       <use xlink:href="#DejaVuSans-31"/>
       <use xlink:href="#DejaVuSans-2e" transform="translate(63.623047 0)"/>
       <use xlink:href="#DejaVuSans-35" transform="translate(95.410156 0)"/>
      </g>
     </g>
    </g>
    <g id="xtick_5">
     <g id="line2d_9">
      <path d="M 435.961788 330.197538 
L 435.961788 7.2 
" clip-path="url(#p36f1f7f951)" style="fill: none; stroke-dasharray: 0.5,0.825; stroke-dashoffset: 0; stroke: #000000; stroke-width: 0.5"/>
     </g>
     <g id="line2d_10">
      <g>
       <use xlink:href="#m80283def58" x="435.961788" y="199.756225" style="stroke: #000000; stroke-width: 0.8"/>
      </g>
     </g>
     <g id="text_4">
      <!-- 2.0 -->
      <g transform="translate(428.010226 214.354662) scale(0.1 -0.1)">
       <defs>
        <path id="DejaVuSans-32" d="M 1228 531 
L 3431 531 
L 3431 0 
L 469 0 
L 469 531 
Q 828 903 1448 1529 
Q 2069 2156 2228 2338 
Q 2531 2678 2651 2914 
Q 2772 3150 2772 3378 
Q 2772 3750 2511 3984 
Q 2250 4219 1831 4219 
Q 1534 4219 1204 4116 
Q 875 4013 500 3803 
L 500 4441 
Q 881 4594 1212 4672 
Q 1544 4750 1819 4750 
Q 2544 4750 2975 4387 
Q 3406 4025 3406 3419 
Q 3406 3131 3298 2873 
Q 3191 2616 2906 2266 
Q 2828 2175 2409 1742 
Q 1991 1309 1228 531 
z
" transform="scale(0.015625)"/>
       </defs>
       <use xlink:href="#DejaVuSans-32"/>
       <use xlink:href="#DejaVuSans-2e" transform="translate(63.623047 0)"/>
       <use xlink:href="#DejaVuSans-30" transform="translate(95.410156 0)"/>
      </g>
     </g>
    </g>
    <g id="xtick_6">
     <g id="line2d_11">
      <defs>
       <path id="m7c5d0eae11" d="M 0 0 
L 0 2 
" style="stroke: #000000; stroke-width: 0.6"/>
      </defs>
      <g>
       <use xlink:href="#m7c5d0eae11" x="49.293168" y="199.756225" style="stroke: #000000; stroke-width: 0.6"/>
      </g>
     </g>
    </g>
    <g id="xtick_7">
     <g id="line2d_12">
      <g>
       <use xlink:href="#m7c5d0eae11" x="69.644148" y="199.756225" style="stroke: #000000; stroke-width: 0.6"/>
      </g>
     </g>
    </g>
    <g id="xtick_8">
     <g id="line2d_13">
      <g>
       <use xlink:href="#m7c5d0eae11" x="89.995128" y="199.756225" style="stroke: #000000; stroke-width: 0.6"/>
      </g>
     </g>
    </g>
    <g id="xtick_9">
     <g id="line2d_14">
      <g>
       <use xlink:href="#m7c5d0eae11" x="110.346108" y="199.756225" style="stroke: #000000; stroke-width: 0.6"/>
      </g>
     </g>
    </g>
    <g id="xtick_10">
     <g id="line2d_15">
      <g>
       <use xlink:href="#m7c5d0eae11" x="151.048068" y="199.756225" style="stroke: #000000; stroke-width: 0.6"/>
      </g>
     </g>
    </g>
    <g id="xtick_11">
     <g id="line2d_16">
      <g>
       <use xlink:href="#m7c5d0eae11" x="171.399048" y="199.756225" style="stroke: #000000; stroke-width: 0.6"/>
      </g>
     </g>
    </g>
    <g id="xtick_12">
     <g id="line2d_17">
      <g>
       <use xlink:href="#m7c5d0eae11" x="191.750028" y="199.756225" style="stroke: #000000; stroke-width: 0.6"/>
      </g>
     </g>
    </g>
    <g id="xtick_13">
     <g id="line2d_18">
      <g>
       <use xlink:href="#m7c5d0eae11" x="212.101008" y="199.756225" style="stroke: #000000; stroke-width: 0.6"/>
      </g>
     </g>
    </g>
    <g id="xtick_14">
     <g id="line2d_19">
      <g>
       <use xlink:href="#m7c5d0eae11" x="252.802968" y="199.756225" style="stroke: #000000; stroke-width: 0.6"/>
      </g>
     </g>
    </g>
    <g id="xtick_15">
     <g id="line2d_20">
      <g>
       <use xlink:href="#m7c5d0eae11" x="273.153948" y="199.756225" style="stroke: #000000; stroke-width: 0.6"/>
      </g>
     </g>
    </g>
    <g id="xtick_16">
     <g id="line2d_21">
      <g>
       <use xlink:href="#m7c5d0eae11" x="293.504928" y="199.756225" style="stroke: #000000; stroke-width: 0.6"/>
      </g>
     </g>
    </g>
    <g id="xtick_17">
     <g id="line2d_22">
      <g>
       <use xlink:href="#m7c5d0eae11" x="313.855908" y="199.756225" style="stroke: #000000; stroke-width: 0.6"/>
      </g>
     </g>
    </g>
    <g id="xtick_18">
     <g id="line2d_23">
      <g>
       <use xlink:href="#m7c5d0eae11" x="354.557868" y="199.756225" style="stroke: #000000; stroke-width: 0.6"/>
      </g>
     </g>
    </g>
    <g id="xtick_19">
     <g id="line2d_24">
      <g>
       <use xlink:href="#m7c5d0eae11" x="374.908848" y="199.756225" style="stroke: #000000; stroke-width: 0.6"/>
      </g>
     </g>
    </g>
    <g id="xtick_20">
     <g id="line2d_25">
      <g>
       <use xlink:href="#m7c5d0eae11" x="395.259828" y="199.756225" style="stroke: #000000; stroke-width: 0.6"/>
      </g>
     </g>
    </g>
    <g id="xtick_21">
     <g id="line2d_26">
      <g>
       <use xlink:href="#m7c5d0eae11" x="415.610808" y="199.756225" style="stroke: #000000; stroke-width: 0.6"/>
      </g>
     </g>
    </g>
   </g>
   <g id="matplotlib.axis_2">
    <g id="ytick_1">
     <g id="line2d_27">
      <path d="M 20.801795 323.986047 
L 444.10218 323.986047 
" clip-path="url(#p36f1f7f951)" style="fill: none; stroke-dasharray: 0.5,0.825; stroke-dashoffset: 0; stroke: #000000; stroke-width: 0.5"/>
     </g>
     <g id="line2d_28">
      <defs>
       <path id="m744a175510" d="M 0 0 
L -3.5 0 
" style="stroke: #000000; stroke-width: 0.8"/>
      </defs>
      <g>
       <use xlink:href="#m744a175510" x="28.942187" y="323.986047" style="stroke: #000000; stroke-width: 0.8"/>
      </g>
     </g>
     <g id="text_5">
      <!-- −2 -->
      <g transform="translate(7.2 327.785266) scale(0.1 -0.1)">
       <defs>
        <path id="DejaVuSans-2212" d="M 678 2272 
L 4684 2272 
L 4684 1741 
L 678 1741 
L 678 2272 
z
" transform="scale(0.015625)"/>
       </defs>
       <use xlink:href="#DejaVuSans-2212"/>
       <use xlink:href="#DejaVuSans-32" transform="translate(83.789062 0)"/>
      </g>
     </g>
    </g>
    <g id="ytick_2">
     <g id="line2d_29">
      <path d="M 20.801795 261.871136 
L 444.10218 261.871136 
" clip-path="url(#p36f1f7f951)" style="fill: none; stroke-dasharray: 0.5,0.825; stroke-dashoffset: 0; stroke: #000000; stroke-width: 0.5"/>
     </g>
     <g id="line2d_30">
      <g>
       <use xlink:href="#m744a175510" x="28.942187" y="261.871136" style="stroke: #000000; stroke-width: 0.8"/>
      </g>
     </g>
     <g id="text_6">
      <!-- −1 -->
      <g transform="translate(7.2 265.670355) scale(0.1 -0.1)">
       <use xlink:href="#DejaVuSans-2212"/>
       <use xlink:href="#DejaVuSans-31" transform="translate(83.789062 0)"/>
      </g>
     </g>
    </g>
    <g id="ytick_3">
     <g id="line2d_31">
      <path d="M 20.801795 199.756225 
L 444.10218 199.756225 
" clip-path="url(#p36f1f7f951)" style="fill: none; stroke-dasharray: 0.5,0.825; stroke-dashoffset: 0; stroke: #000000; stroke-width: 0.5"/>
     </g>
     <g id="line2d_32">
      <g>
       <use xlink:href="#m744a175510" x="28.942187" y="199.756225" style="stroke: #000000; stroke-width: 0.8"/>
      </g>
     </g>
    </g>
    <g id="ytick_4">
     <g id="line2d_33">
      <path d="M 20.801795 137.641314 
L 444.10218 137.641314 
" clip-path="url(#p36f1f7f951)" style="fill: none; stroke-dasharray: 0.5,0.825; stroke-dashoffset: 0; stroke: #000000; stroke-width: 0.5"/>
     </g>
     <g id="line2d_34">
      <g>
       <use xlink:href="#m744a175510" x="28.942187" y="137.641314" style="stroke: #000000; stroke-width: 0.8"/>
      </g>
     </g>
     <g id="text_7">
      <!-- 1 -->
      <g transform="translate(15.579687 141.440532) scale(0.1 -0.1)">
       <use xlink:href="#DejaVuSans-31"/>
      </g>
     </g>
    </g>
    <g id="ytick_5">
     <g id="line2d_35">
      <path d="M 20.801795 75.526402 
L 444.10218 75.526402 
" clip-path="url(#p36f1f7f951)" style="fill: none; stroke-dasharray: 0.5,0.825; stroke-dashoffset: 0; stroke: #000000; stroke-width: 0.5"/>
     </g>
     <g id="line2d_36">
      <g>
       <use xlink:href="#m744a175510" x="28.942187" y="75.526402" style="stroke: #000000; stroke-width: 0.8"/>
      </g>
     </g>
     <g id="text_8">
      <!-- 2 -->
      <g transform="translate(15.579687 79.325621) scale(0.1 -0.1)">
       <use xlink:href="#DejaVuSans-32"/>
      </g>
     </g>
    </g>
    <g id="ytick_6">
     <g id="line2d_37">
      <path d="M 20.801795 13.411491 
L 444.10218 13.411491 
" clip-path="url(#p36f1f7f951)" style="fill: none; stroke-dasharray: 0.5,0.825; stroke-dashoffset: 0; stroke: #000000; stroke-width: 0.5"/>
     </g>
     <g id="line2d_38">
      <g>
       <use xlink:href="#m744a175510" x="28.942187" y="13.411491" style="stroke: #000000; stroke-width: 0.8"/>
      </g>
     </g>
     <g id="text_9">
      <!-- 3 -->
      <g transform="translate(15.579687 17.21071) scale(0.1 -0.1)">
       <defs>
        <path id="DejaVuSans-33" d="M 2597 2516 
Q 3050 2419 3304 2112 
Q 3559 1806 3559 1356 
Q 3559 666 3084 287 
Q 2609 -91 1734 -91 
Q 1441 -91 1130 -33 
Q 819 25 488 141 
L 488 750 
Q 750 597 1062 519 
Q 1375 441 1716 441 
Q 2309 441 2620 675 
Q 2931 909 2931 1356 
Q 2931 1769 2642 2001 
Q 2353 2234 1838 2234 
L 1294 2234 
L 1294 2753 
L 1863 2753 
Q 2328 2753 2575 2939 
Q 2822 3125 2822 3475 
Q 2822 3834 2567 4026 
Q 2313 4219 1838 4219 
Q 1578 4219 1281 4162 
Q 984 4106 628 3988 
L 628 4550 
Q 988 4650 1302 4700 
Q 1616 4750 1894 4750 
Q 2613 4750 3031 4423 
Q 3450 4097 3450 3541 
Q 3450 3153 3228 2886 
Q 3006 2619 2597 2516 
z
" transform="scale(0.015625)"/>
       </defs>
       <use xlink:href="#DejaVuSans-33"/>
      </g>
     </g>
    </g>
    <g id="ytick_7">
     <g id="line2d_39">
      <defs>
       <path id="mbfeb4956da" d="M 0 0 
L -2 0 
" style="stroke: #000000; stroke-width: 0.6"/>
      </defs>
      <g>
       <use xlink:href="#mbfeb4956da" x="28.942187" y="311.563065" style="stroke: #000000; stroke-width: 0.6"/>
      </g>
     </g>
    </g>
    <g id="ytick_8">
     <g id="line2d_40">
      <g>
       <use xlink:href="#mbfeb4956da" x="28.942187" y="299.140083" style="stroke: #000000; stroke-width: 0.6"/>
      </g>
     </g>
    </g>
    <g id="ytick_9">
     <g id="line2d_41">
      <g>
       <use xlink:href="#mbfeb4956da" x="28.942187" y="286.717101" style="stroke: #000000; stroke-width: 0.6"/>
      </g>
     </g>
    </g>
    <g id="ytick_10">
     <g id="line2d_42">
      <g>
       <use xlink:href="#mbfeb4956da" x="28.942187" y="274.294118" style="stroke: #000000; stroke-width: 0.6"/>
      </g>
     </g>
    </g>
    <g id="ytick_11">
     <g id="line2d_43">
      <g>
       <use xlink:href="#mbfeb4956da" x="28.942187" y="249.448154" style="stroke: #000000; stroke-width: 0.6"/>
      </g>
     </g>
    </g>
    <g id="ytick_12">
     <g id="line2d_44">
      <g>
       <use xlink:href="#mbfeb4956da" x="28.942187" y="237.025172" style="stroke: #000000; stroke-width: 0.6"/>
      </g>
     </g>
    </g>
    <g id="ytick_13">
     <g id="line2d_45">
      <g>
       <use xlink:href="#mbfeb4956da" x="28.942187" y="224.602189" style="stroke: #000000; stroke-width: 0.6"/>
      </g>
     </g>
    </g>
    <g id="ytick_14">
     <g id="line2d_46">
      <g>
       <use xlink:href="#mbfeb4956da" x="28.942187" y="212.179207" style="stroke: #000000; stroke-width: 0.6"/>
      </g>
     </g>
    </g>
    <g id="ytick_15">
     <g id="line2d_47">
      <g>
       <use xlink:href="#mbfeb4956da" x="28.942187" y="187.333243" style="stroke: #000000; stroke-width: 0.6"/>
      </g>
     </g>
    </g>
    <g id="ytick_16">
     <g id="line2d_48">
      <g>
       <use xlink:href="#mbfeb4956da" x="28.942187" y="174.91026" style="stroke: #000000; stroke-width: 0.6"/>
      </g>
     </g>
    </g>
    <g id="ytick_17">
     <g id="line2d_49">
      <g>
       <use xlink:href="#mbfeb4956da" x="28.942187" y="162.487278" style="stroke: #000000; stroke-width: 0.6"/>
      </g>
     </g>
    </g>
    <g id="ytick_18">
     <g id="line2d_50">
      <g>
       <use xlink:href="#mbfeb4956da" x="28.942187" y="150.064296" style="stroke: #000000; stroke-width: 0.6"/>
      </g>
     </g>
    </g>
    <g id="ytick_19">
     <g id="line2d_51">
      <g>
       <use xlink:href="#mbfeb4956da" x="28.942187" y="125.218331" style="stroke: #000000; stroke-width: 0.6"/>
      </g>
     </g>
    </g>
    <g id="ytick_20">
     <g id="line2d_52">
      <g>
       <use xlink:href="#mbfeb4956da" x="28.942187" y="112.795349" style="stroke: #000000; stroke-width: 0.6"/>
      </g>
     </g>
    </g>
    <g id="ytick_21">
     <g id="line2d_53">
      <g>
       <use xlink:href="#mbfeb4956da" x="28.942187" y="100.372367" style="stroke: #000000; stroke-width: 0.6"/>
      </g>
     </g>
    </g>
    <g id="ytick_22">
     <g id="line2d_54">
      <g>
       <use xlink:href="#mbfeb4956da" x="28.942187" y="87.949385" style="stroke: #000000; stroke-width: 0.6"/>
      </g>
     </g>
    </g>
    <g id="ytick_23">
     <g id="line2d_55">
      <g>
       <use xlink:href="#mbfeb4956da" x="28.942187" y="63.10342" style="stroke: #000000; stroke-width: 0.6"/>
      </g>
     </g>
    </g>
    <g id="ytick_24">
     <g id="line2d_56">
      <g>
       <use xlink:href="#mbfeb4956da" x="28.942187" y="50.680438" style="stroke: #000000; stroke-width: 0.6"/>
      </g>
     </g>
    </g>
    <g id="ytick_25">
     <g id="line2d_57">
      <g>
       <use xlink:href="#mbfeb4956da" x="28.942187" y="38.257456" style="stroke: #000000; stroke-width: 0.6"/>
      </g>
     </g>
    </g>
    <g id="ytick_26">
     <g id="line2d_58">
      <g>
       <use xlink:href="#mbfeb4956da" x="28.942187" y="25.834473" style="stroke: #000000; stroke-width: 0.6"/>
      </g>
     </g>
    </g>
   </g>
   <g id="line2d_59">
    <path d="M 28.942187 199.756225 
L 34.028248 171.121469 
L 36.801533 156.826973 
L 39.098265 146.201682 
L 41.014267 138.388705 
L 42.639754 132.617082 
L 44.076737 128.228033 
L 45.34765 124.93634 
L 46.65723 122.146964 
L 47.863852 120.132385 
L 48.774238 118.970413 
L 49.582669 118.198442 
L 50.45392 117.640479 
L 51.325172 117.365848 
L 51.965571 117.343434 
L 52.832875 117.552916 
L 53.740491 118.063252 
L 54.648108 118.86508 
L 55.555725 119.950674 
L 56.60353 121.544885 
L 57.841748 123.878385 
L 59.079965 126.669608 
L 60.565827 130.573977 
L 62.021034 134.923158 
L 64.032042 141.658179 
L 66.408164 150.447138 
L 69.17791 161.373793 
L 74.236213 181.336333 
L 76.694179 190.160576 
L 78.74604 196.70397 
L 80.44048 201.39081 
L 81.874646 204.771405 
L 83.145861 207.273099 
L 84.423533 209.285459 
L 85.396314 210.463224 
L 86.469545 211.393919 
L 87.274468 211.831831 
L 88.227092 212.056705 
L 88.911408 212.019739 
L 89.717607 211.761742 
L 90.417583 211.349069 
L 91.467546 210.401589 
L 92.467537 209.134971 
L 93.667595 207.15232 
L 94.975806 204.429441 
L 96.200305 201.368362 
L 97.563214 197.406267 
L 99.144394 192.124643 
L 100.775124 185.976162 
L 102.943359 176.846971 
L 105.334727 165.773233 
L 108.196953 151.607263 
L 114.679705 119.138908 
L 117.357356 106.956106 
L 119.462158 98.385686 
L 121.244684 91.997847 
L 122.791162 87.198843 
L 124.243901 83.381557 
L 125.69664 80.280724 
L 126.776522 78.46251 
L 127.856403 77.073216 
L 128.70534 76.288329 
L 129.554276 75.77756 
L 130.34571 75.550159 
L 131.022137 75.546733 
L 131.698565 75.719307 
L 132.446879 76.114711 
L 133.266982 76.793258 
L 134.29211 77.998049 
L 135.317238 79.592186 
L 136.381741 81.649301 
L 137.54024 84.337664 
L 138.93929 88.179856 
L 140.445236 92.996822 
L 142.158684 99.258304 
L 143.872133 106.249874 
L 146.336735 117.349563 
L 149.548133 133.077698 
L 156.673928 168.701662 
L 159.235934 180.266492 
L 161.372004 188.898431 
L 163.009256 194.749641 
L 164.697206 199.990552 
L 166.185657 203.885183 
L 167.410848 206.548129 
L 168.624544 208.683061 
L 169.668565 210.108591 
L 170.65792 211.103106 
L 171.647275 211.747989 
L 172.589231 212.036448 
L 173.295698 212.045068 
L 174.072425 211.850528 
L 174.88428 211.421223 
L 175.696136 210.764435 
L 176.642952 209.717084 
L 177.78916 208.055733 
L 178.786121 206.273794 
L 179.982474 203.742654 
L 181.626962 199.613702 
L 183.038493 195.527421 
L 184.985523 189.184776 
L 187.113335 181.504122 
L 190.083306 169.934113 
L 196.170076 145.974522 
L 198.493172 137.776051 
L 200.592718 131.24472 
L 202.309354 126.68141 
L 203.758338 123.457725 
L 204.955904 121.269768 
L 206.182723 119.506036 
L 207.164179 118.459951 
L 208.105096 117.772569 
L 208.934738 117.429103 
L 209.767826 117.336454 
L 210.600914 117.49992 
L 211.434001 117.921808 
L 212.168751 118.509387 
L 212.962895 119.371812 
L 214.033562 120.907157 
L 215.237671 123.140124 
L 216.440999 125.897278 
L 217.844881 129.758457 
L 219.221574 134.1906 
L 220.856011 140.232332 
L 222.83777 148.592752 
L 224.917455 158.42664 
L 227.395495 171.280773 
L 230.65011 189.417654 
L 237.705676 229.291722 
L 240.468245 243.450258 
L 242.532599 252.982319 
L 244.474179 260.933714 
L 246.072371 266.640248 
L 247.571177 271.241193 
L 248.981443 274.866716 
L 250.091947 277.222397 
L 251.263696 279.218808 
L 252.435445 280.705243 
L 253.316845 281.484863 
L 254.198245 281.973697 
L 255.062052 282.171875 
L 255.89067 282.10294 
L 256.719288 281.783591 
L 257.71127 281.077924 
L 258.658345 280.083346 
L 259.583538 278.818426 
L 260.58383 277.136844 
L 261.809425 274.653475 
L 263.281124 271.097989 
L 264.851082 266.681229 
L 266.345508 261.953388 
L 268.510066 254.364034 
L 271.282342 243.741504 
L 278.741126 214.495249 
L 280.842967 207.222595 
L 282.611286 201.767446 
L 284.148764 197.620254 
L 285.635549 194.208843 
L 287.036573 191.585426 
L 288.204093 189.86783 
L 289.138109 188.814898 
L 290.192091 187.980907 
L 291.01257 187.597589 
L 291.827581 187.451068 
L 292.651725 187.542756 
L 293.480437 187.879636 
L 294.309148 188.462347 
L 295.308191 189.490762 
L 296.307233 190.872581 
L 297.333137 192.653905 
L 298.412765 194.91632 
L 299.852268 198.530582 
L 301.477186 203.388501 
L 303.186302 209.319666 
L 305.039231 216.597887 
L 307.308933 226.523348 
L 309.839432 238.578698 
L 314.620861 262.718883 
L 318.691479 282.746924 
L 321.337107 294.556574 
L 323.395659 302.722724 
L 325.099482 308.647804 
L 326.7333 313.521947 
L 328.195714 317.152085 
L 329.608435 319.957977 
L 330.670622 321.594053 
L 331.738099 322.816628 
L 332.575523 323.47458 
L 333.412946 323.864788 
L 334.181204 323.98592 
L 334.949461 323.879968 
L 335.667227 323.576095 
L 336.489607 322.985838 
L 337.415648 322.014515 
L 338.343414 320.720287 
L 339.580436 318.505959 
L 340.744029 315.929394 
L 341.839794 313.083667 
L 343.255597 308.837107 
L 344.901508 303.153735 
L 346.702746 296.114051 
L 348.786725 287.06744 
L 351.381681 274.776473 
L 355.574816 253.651815 
L 359.905395 232.13096 
L 362.500984 220.298911 
L 364.627298 211.586262 
L 366.312502 205.460944 
L 368.051441 199.969203 
L 369.52737 196.031436 
L 370.792452 193.219334 
L 371.906537 191.191258 
L 373.032505 189.579912 
L 373.933279 188.613468 
L 374.834053 187.936489 
L 375.550044 187.605547 
L 376.346853 187.45276 
L 377.143663 187.525925 
L 377.906594 187.805913 
L 378.684645 188.300365 
L 379.526815 189.069381 
L 380.649709 190.463646 
L 381.813497 192.338174 
L 382.977285 194.629234 
L 384.382498 197.915773 
L 386.111648 202.671254 
L 388.004406 208.659067 
L 390.044165 215.854044 
L 393.010644 227.259579 
L 399.806356 254.00556 
L 402.03488 261.842536 
L 404.004998 267.98621 
L 405.733186 272.621007 
L 407.238112 275.994179 
L 408.574522 278.41905 
L 409.715167 280.03426 
L 410.6328 281.015295 
L 411.550433 281.702817 
L 412.397049 282.070414 
L 413.208157 282.178019 
L 414.019265 282.043068 
L 414.823258 281.667737 
L 415.730627 280.953742 
L 416.637996 279.931468 
L 417.794282 278.183933 
L 418.86157 276.13325 
L 420.142315 273.128787 
L 421.49022 269.345472 
L 422.943404 264.584637 
L 424.575202 258.448263 
L 426.298766 251.13814 
L 428.439051 241.027308 
L 431.046193 227.470874 
L 434.26479 209.496013 
L 435.961788 199.756225 
L 435.961788 199.756225 
" clip-path="url(#p36f1f7f951)" style="fill: none; stroke: #000000; stroke-width: 3; stroke-linecap: square"/>
   </g>
   <g id="patch_3">
    <path d="M 28.942187 330.197538 
L 28.942187 7.2 
" style="fill: none; stroke: #000000; stroke-width: 0.8; stroke-linejoin: miter; stroke-linecap: square"/>
   </g>
   <g id="patch_4">
    <path d="M 20.801795 199.756225 
L 444.10218 199.756225 
" style="fill: none; stroke: #000000; stroke-width: 0.8; stroke-linejoin: miter; stroke-linecap: square"/>
   </g>
  </g>
 </g>
 <defs>
  <clipPath id="p36f1f7f951">
   <rect x="20.801795" y="7.2" width="423.300385" height="322.997538"/>
  </clipPath>
 </defs>
</svg>
