<?xml version="1.0" encoding="utf-8" standalone="no"?>
<!DOCTYPE svg PUBLIC "-//W3C//DTD SVG 1.1//EN"
  "http://www.w3.org/Graphics/SVG/1.1/DTD/svg11.dtd">
<svg xmlns:xlink="http://www.w3.org/1999/xlink" width="453.6pt" height="236.335736pt" viewBox="0 0 453.6 236.335736" xmlns="http://www.w3.org/2000/svg" version="1.1">
 <metadata>
  <rdf:RDF xmlns:dc="http://purl.org/dc/elements/1.1/" xmlns:cc="http://creativecommons.org/ns#" xmlns:rdf="http://www.w3.org/1999/02/22-rdf-syntax-ns#">
   <cc:Work>
    <dc:type rdf:resource="http://purl.org/dc/dcmitype/StillImage"/>
    <dc:date>2025-12-10T16:54:50.331551</dc:date>
    <dc:format>image/svg+xml</dc:format>
    <dc:creator>
     <cc:Agent>
      <dc:title>Matplotlib v3.10.5, https://matplotlib.org/</dc:title>
     </cc:Agent>
    </dc:creator>
   </cc:Work>
  </rdf:RDF>
 </metadata>
 <defs>
  <style type="text/css">*{stroke-linejoin: round; stroke-linecap: butt}</style>
 </defs>
 <g id="figure_1">
  <g id="patch_1">
   <path d="M 0 236.335736 
L 453.6 236.335736 
L 453.6 -0 
L 0 -0 
z
" style="fill: #ffffff"/>
  </g>
  <g id="axes_1">
   <g id="patch_2">
    <path d="M 7.2 229.135736 
L 446.4 229.135736 
L 446.4 7.2 
L 7.2 7.2 
z
" style="fill: #ffffff"/>
   </g>
   <g id="PathCollection_1">
    <path d="M 391.289577 39.17556 
C 392.227211 39.17556 393.126569 38.803034 393.789577 38.140027 
C 394.452584 37.477019 394.825111 36.577661 394.825111 35.640027 
C 394.825111 34.702392 394.452584 33.803034 393.789577 33.140027 
C 393.126569 32.477019 392.227211 32.104493 391.289577 32.104493 
C 390.351942 32.104493 389.452584 32.477019 388.789577 33.140027 
C 388.126569 33.803034 387.754043 34.702392 387.754043 35.640027 
C 387.754043 36.577661 388.126569 37.477019 388.789577 38.140027 
C 389.452584 38.803034 390.351942 39.17556 391.289577 39.17556 
z
" clip-path="url(#p536eb2efc5)"/>
   </g>
   <g id="PathCollection_2">
    <path d="M 323.929813 17.906038 
C 324.867448 17.906038 325.766806 17.533512 326.429813 16.870504 
C 327.092821 16.207496 327.465347 15.308139 327.465347 14.370504 
C 327.465347 13.43287 327.092821 12.533512 326.429813 11.870504 
C 325.766806 11.207496 324.867448 10.83497 323.929813 10.83497 
C 322.992179 10.83497 322.092821 11.207496 321.429813 11.870504 
C 320.766806 12.533512 320.394279 13.43287 320.394279 14.370504 
C 320.394279 15.308139 320.766806 16.207496 321.429813 16.870504 
C 322.092821 17.533512 322.992179 17.906038 323.929813 17.906038 
z
" clip-path="url(#p536eb2efc5)"/>
   </g>
   <g id="matplotlib.axis_1"/>
   <g id="matplotlib.axis_2"/>
   <g id="line2d_1">
    <path d="M 437.953846 75.117685 
L 434.09326 70.129488 
L 430.395246 65.809507 
L 426.831431 61.997162 
L 424.672295 59.83277 
L 420.009899 55.484843 
L 414.826267 51.104857 
L 409.888445 47.312865 
L 405.083594 43.932774 
L 401.522888 41.604141 
L 396.408095 38.49611 
L 389.967297 34.940546 
L 385.215733 32.548446 
L 379.197955 29.773902 
L 374.536118 27.805231 
L 368.344818 25.415538 
L 360.767251 22.812788 
L 355.563066 21.215336 
L 347.316995 18.977403 
L 342.191169 17.756429 
L 332.343984 15.751398 
L 325.025748 14.533786 
L 317.208841 13.473816 
L 307.270859 12.464859 
L 302.049154 12.079443 
L 292.200963 11.611255 
L 281.950924 11.467995 
L 270.954948 11.68668 
L 260.288317 12.252332 
L 250.375432 13.079689 
L 246.305408 13.501685 
L 237.764073 14.540461 
L 227.815382 16.008507 
L 219.688619 17.411385 
L 212.698485 18.76353 
L 201.336262 21.247688 
L 190.790908 23.871239 
L 178.418188 27.343917 
L 172.571656 29.135406 
L 162.383723 32.493257 
L 152.113338 36.190447 
L 143.784673 39.427629 
L 133.932407 43.546473 
L 124.02421 48.023312 
L 115.059956 52.383288 
L 108.079526 55.997489 
L 100.295034 60.272684 
L 91.517117 65.432324 
L 87.230261 68.095113 
L 77.864827 74.278346 
L 71.210132 79.015912 
L 64.600966 84.050951 
L 58.033598 89.436317 
L 52.024442 94.764402 
L 48.011529 98.578619 
L 43.227477 103.451225 
L 39.274342 107.802947 
L 36.413387 111.178466 
L 32.817289 115.757865 
L 30.437097 119.04651 
L 27.166624 124.008739 
L 25.428206 126.920827 
L 23.293186 130.856984 
L 21.313154 135.006473 
L 19.306437 139.99854 
L 18.151003 143.493918 
L 17.287843 146.653798 
L 16.594015 149.850899 
L 16.002927 153.716904 
L 15.750992 156.490582 
L 15.646838 160.23164 
L 15.854657 164.321728 
L 16.305215 167.785071 
L 17.209257 171.99408 
L 18.132285 175.076789 
L 19.491687 178.645007 
L 20.730916 181.329357 
L 22.12752 183.946304 
L 24.15416 187.224664 
L 26.319054 190.255931 
L 28.90182 193.424469 
L 30.939352 195.66579 
L 33.278082 198.018485 
L 36.54986 200.994505 
L 39.205635 203.191175 
L 42.620247 205.780869 
L 46.130427 208.214001 
L 51.011302 211.280354 
L 55.966353 214.082732 
L 62.792474 217.527729 
L 69.093653 220.356794 
L 76.715055 223.408649 
L 80.705905 224.867741 
L 80.705905 224.867741 
" clip-path="url(#p536eb2efc5)" style="fill: none; stroke: #000000; stroke-width: 2; stroke-linecap: square"/>
   </g>
   <g id="patch_3">
    <path d="M 181.155334 26.538618 
Q 180.128352 26.839774 181.247083 26.511713 
" clip-path="url(#p536eb2efc5)" style="fill: none; stroke: #000000; stroke-width: 2; stroke-linecap: round"/>
    <path d="M 192.249978 28.495726 
L 181.247083 26.511713 
L 189.43603 18.899805 
z
" clip-path="url(#p536eb2efc5)" style="stroke: #000000; stroke-width: 2; stroke-linecap: round"/>
   </g>
   <g id="text_1">
    <!-- $P_0$ -->
    <g transform="translate(388.034857 61.193087) scale(0.24 -0.24)">
     <defs>
      <path id="Cmmi10-50" d="M 313 0 
Q 250 0 250 84 
Q 253 100 262 139 
Q 272 178 289 201 
Q 306 225 331 225 
Q 722 225 878 269 
Q 959 297 997 441 
L 1875 3956 
Q 1888 4019 1888 4044 
Q 1888 4113 1813 4122 
Q 1691 4147 1350 4147 
Q 1288 4147 1288 4231 
Q 1291 4247 1300 4286 
Q 1309 4325 1326 4348 
Q 1344 4372 1369 4372 
L 3578 4372 
Q 3881 4372 4165 4264 
Q 4450 4156 4631 3934 
Q 4813 3713 4813 3397 
Q 4813 2991 4527 2672 
Q 4241 2353 3814 2175 
Q 3388 1997 2988 1997 
L 1947 1997 
L 1556 416 
Q 1544 353 1544 325 
Q 1544 300 1551 283 
Q 1559 266 1573 261 
Q 1588 256 1619 250 
Q 1741 225 2081 225 
Q 2144 225 2144 141 
Q 2122 50 2109 25 
Q 2097 0 2034 0 
L 313 0 
z
M 1978 2188 
L 2875 2188 
Q 3497 2188 3822 2522 
Q 3988 2688 4092 3000 
Q 4197 3313 4197 3566 
Q 4197 3881 3956 4014 
Q 3716 4147 3359 4147 
L 2747 4147 
Q 2572 4147 2515 4117 
Q 2459 4088 2413 3928 
L 1978 2188 
z
" transform="scale(0.015625)"/>
      <path id="Cmr10-30" d="M 1600 -141 
Q 816 -141 533 504 
Q 250 1150 250 2041 
Q 250 2597 351 3087 
Q 453 3578 754 3920 
Q 1056 4263 1600 4263 
Q 2022 4263 2290 4056 
Q 2559 3850 2700 3523 
Q 2841 3197 2892 2823 
Q 2944 2450 2944 2041 
Q 2944 1491 2842 1011 
Q 2741 531 2444 195 
Q 2147 -141 1600 -141 
z
M 1600 25 
Q 1956 25 2131 390 
Q 2306 756 2347 1200 
Q 2388 1644 2388 2144 
Q 2388 2625 2347 3031 
Q 2306 3438 2132 3767 
Q 1959 4097 1600 4097 
Q 1238 4097 1063 3765 
Q 888 3434 847 3029 
Q 806 2625 806 2144 
Q 806 1788 823 1472 
Q 841 1156 916 820 
Q 991 484 1158 254 
Q 1325 25 1600 25 
z
" transform="scale(0.015625)"/>
     </defs>
     <use xlink:href="#Cmmi10-50" transform="translate(0 0.6875)"/>
     <use xlink:href="#Cmr10-30" transform="translate(64.208984 -16.31875) scale(0.7)"/>
    </g>
   </g>
   <g id="text_2">
    <!-- $P_1$ -->
    <g transform="translate(301.744533 39.923565) scale(0.24 -0.24)">
     <defs>
      <path id="Cmr10-31" d="M 594 0 
L 594 225 
Q 1394 225 1394 428 
L 1394 3788 
Q 1063 3628 556 3628 
L 556 3853 
Q 1341 3853 1741 4263 
L 1831 4263 
Q 1853 4263 1873 4245 
Q 1894 4228 1894 4206 
L 1894 428 
Q 1894 225 2694 225 
L 2694 0 
L 594 0 
z
" transform="scale(0.015625)"/>
     </defs>
     <use xlink:href="#Cmmi10-50" transform="translate(0 0.6875)"/>
     <use xlink:href="#Cmr10-31" transform="translate(64.208984 -16.31875) scale(0.7)"/>
    </g>
   </g>
  </g>
 </g>
 <defs>
  <clipPath id="p536eb2efc5">
   <rect x="7.2" y="7.2" width="439.2" height="221.935736"/>
  </clipPath>
 </defs>
</svg>
