<?xml version="1.0" encoding="utf-8" standalone="no"?>
<!DOCTYPE svg PUBLIC "-//W3C//DTD SVG 1.1//EN"
  "http://www.w3.org/Graphics/SVG/1.1/DTD/svg11.dtd">
<svg xmlns:xlink="http://www.w3.org/1999/xlink" width="337.590947pt" height="338.4pt" viewBox="0 0 337.590947 338.4" xmlns="http://www.w3.org/2000/svg" version="1.1">
 <metadata>
  <rdf:RDF xmlns:dc="http://purl.org/dc/elements/1.1/" xmlns:cc="http://creativecommons.org/ns#" xmlns:rdf="http://www.w3.org/1999/02/22-rdf-syntax-ns#">
   <cc:Work>
    <dc:type rdf:resource="http://purl.org/dc/dcmitype/StillImage"/>
    <dc:date>2025-11-05T14:56:49.103866</dc:date>
    <dc:format>image/svg+xml</dc:format>
    <dc:creator>
     <cc:Agent>
      <dc:title>Matplotlib v3.10.3, https://matplotlib.org/</dc:title>
     </cc:Agent>
    </dc:creator>
   </cc:Work>
  </rdf:RDF>
 </metadata>
 <defs>
  <style type="text/css">*{stroke-linejoin: round; stroke-linecap: butt}</style>
 </defs>
 <g id="figure_1">
  <g id="patch_1">
   <path d="M 0 338.4 
L 337.590947 338.4 
L 337.590947 0 
L 0 0 
z
" style="fill: #ffffff"/>
  </g>
  <g id="axes_1">
   <g id="patch_2">
    <path d="M 7.2 331.2 
L 330.390947 331.2 
L 330.390947 7.2 
L 7.2 7.2 
z
" style="fill: #ffffff"/>
   </g>
   <g id="line2d_1">
    <path d="M 220.588895 304.182527 
L 219.683332 296.570558 
L 218.646092 289.85075 
L 217.520229 283.80901 
L 215.833195 276.184173 
L 214.456452 270.789516 
L 212.685234 264.599699 
L 210.860781 258.876347 
L 209.021212 253.615782 
L 206.674355 247.484229 
L 204.131702 241.421387 
L 201.014352 234.638812 
L 198.313174 229.231226 
L 194.608553 222.392454 
L 190.926309 216.144452 
L 187.826076 211.242047 
L 184.024588 205.614874 
L 180.368964 200.552726 
L 176.18342 195.124969 
L 172.244699 190.335595 
L 167.385898 184.804864 
L 162.964619 180.096884 
L 158.349109 175.479473 
L 152.682519 170.186677 
L 147.11847 165.355757 
L 141.953749 161.167929 
L 136.72233 157.194451 
L 130.548616 152.827464 
L 124.955635 149.151837 
L 118.743855 145.361605 
L 113.102585 142.170298 
L 106.397909 138.670438 
L 99.752584 135.499232 
L 95.433731 133.590066 
L 89.059511 130.982215 
L 82.545026 128.566351 
L 75.299603 126.164441 
L 69.77488 124.528192 
L 63.475927 122.862954 
L 57.728837 121.525565 
L 51.252909 120.222238 
L 44.585372 119.101692 
L 37.042677 118.100274 
L 30.509941 117.458285 
L 28.143678 117.276923 
L 28.143678 117.276923 
" clip-path="url(#p8f83fec461)" style="fill: none; stroke-dasharray: 11.1,4.8; stroke-dashoffset: 0; stroke: #808080; stroke-width: 3"/>
   </g>
   <g id="line2d_2">
    <path d="M 324.175737 293.789175 
L 323.555903 288.131049 
L 322.254212 278.463621 
L 320.902399 270.23415 
L 319.364288 262.204094 
L 317.136121 252.182494 
L 315.44555 245.458386 
L 313.541629 238.549131 
L 311.42172 231.50041 
L 308.612563 222.974996 
L 305.416723 214.156699 
L 302.451598 206.638054 
L 299.101965 198.765512 
L 295.379028 190.653536 
L 291.414833 182.629812 
L 287.825604 175.827566 
L 284.207664 169.355133 
L 279.639171 161.662454 
L 274.674641 153.832412 
L 270.393114 147.468083 
L 265.091067 140.027176 
L 259.806635 133.043291 
L 254.139185 125.981119 
L 249.69655 120.725677 
L 243.871677 114.175214 
L 238.483789 108.431854 
L 233.241607 103.111943 
L 226.63183 96.752286 
L 221.139966 91.74246 
L 213.693138 85.317291 
L 207.105688 79.962498 
L 199.637932 74.239499 
L 193.062103 69.486757 
L 185.674003 64.448197 
L 178.484634 59.834575 
L 171.674616 55.714219 
L 164.094533 51.400149 
L 155.553697 46.866819 
L 147.671884 42.977305 
L 139.324418 39.152555 
L 131.329919 35.762692 
L 124.084449 32.91338 
L 115.674999 29.863765 
L 106.28448 26.775335 
L 98.583461 24.485172 
L 89.289336 22.004847 
L 81.710387 20.206915 
L 74.373885 18.65511 
L 65.467353 17.016515 
L 57.032868 15.709145 
L 48.417355 14.615964 
L 40.084138 13.789108 
L 35.507912 13.430769 
L 35.507912 13.430769 
" clip-path="url(#p8f83fec461)" style="fill: none; stroke-dasharray: 11.1,4.8; stroke-dashoffset: 0; stroke: #808080; stroke-width: 3"/>
   </g>
   <g id="matplotlib.axis_1"/>
   <g id="matplotlib.axis_2"/>
   <g id="line2d_3">
    <path d="M 125.913653 149.763287 
L 13.415211 324.969231 
L 185.261546 207.402827 
" clip-path="url(#p8f83fec461)" style="fill: none; stroke: #808080; stroke-width: 2; stroke-linecap: square"/>
   </g>
   <g id="patch_3">
    <path d="M 125.913653 149.763287 
L 128.702429 151.585611 
L 131.461692 153.45232 
L 134.190736 155.362937 
L 136.888862 157.316972 
L 139.55538 159.313926 
L 142.189606 161.353286 
L 144.790867 163.43453 
L 147.358496 165.557127 
L 149.891836 167.720533 
L 152.390239 169.924193 
L 154.853066 172.167544 
L 157.279685 174.450011 
L 159.669475 176.771011 
L 162.021825 179.129948 
L 164.336133 181.526219 
L 166.611806 183.959211 
L 168.848261 186.428301 
L 171.044927 188.932857 
L 173.20124 191.472237 
L 175.316648 194.045792 
L 177.390611 196.652862 
L 179.422597 199.292781 
L 181.412086 201.964872 
L 183.358568 204.668451 
L 185.261546 207.402827 
L 271.184714 148.619625 
L 268.330247 144.518061 
L 265.410523 140.462692 
L 262.42629 136.454555 
L 259.378311 132.494677 
L 256.267367 128.584072 
L 253.094254 124.72374 
L 249.859785 120.91467 
L 246.564787 117.157836 
L 243.210104 113.454202 
L 239.796595 109.804714 
L 236.325133 106.210307 
L 232.796608 102.6719 
L 229.211922 99.190401 
L 225.571993 95.7667 
L 221.877754 92.401674 
L 218.130149 89.096184 
L 214.330138 85.851075 
L 210.478695 82.66718 
L 206.576804 79.545313 
L 202.625464 76.486273 
L 198.625688 73.490843 
L 194.578499 70.559791 
L 190.484933 67.693865 
L 186.346039 64.893801 
L 182.162875 62.160315 
z
" clip-path="url(#p8f83fec461)" style="fill: #808080; stroke: #000000; stroke-width: 3; stroke-linejoin: miter"/>
   </g>
   <g id="line2d_4">
    <path d="M 82.153745 277.942669 
L 79.625978 274.445792 
L 77.030764 271.214743 
L 74.139872 267.969239 
L 71.063294 264.85948 
L 67.882786 261.963145 
L 64.530532 259.214326 
L 61.050632 256.651223 
L 58.414588 254.886853 
L 58.414588 254.886853 
" clip-path="url(#p8f83fec461)" style="fill: none; stroke: #000000; stroke-width: 2; stroke-linecap: square"/>
   </g>
   <g id="line2d_5">
    <path d="M 271.184714 148.619625 
L 266.331686 141.727432 
L 261.216782 134.867465 
L 256.187303 128.485105 
L 251.133631 122.400099 
L 245.318409 115.767875 
L 239.643 109.643227 
L 233.712612 103.57963 
L 227.638576 97.697037 
L 221.391756 91.966962 
L 215.580339 86.907135 
L 209.28374 81.700204 
L 202.86641 76.669928 
L 195.843121 71.465073 
L 189.000027 66.678169 
L 182.162875 62.160315 
L 182.162875 62.160315 
" clip-path="url(#p8f83fec461)" style="fill: none; stroke: #008000; stroke-width: 3; stroke-linecap: square"/>
   </g>
   <g id="patch_4">
    <path d="M 13.415211 331.2 
L 13.415211 7.2 
" style="fill: none; stroke: #000000; stroke-width: 0.8; stroke-linejoin: miter; stroke-linecap: square"/>
   </g>
   <g id="patch_5">
    <path d="M 7.2 324.969231 
L 330.390947 324.969231 
" style="fill: none; stroke: #000000; stroke-width: 0.8; stroke-linejoin: miter; stroke-linecap: square"/>
   </g>
   <g id="text_1">
    <!-- $\Delta \phi$ -->
    <g transform="translate(71.990071 257.572496) scale(0.2 -0.2)">
     <defs>
      <path id="Cmr10-a2" d="M 347 0 
Q 294 0 294 50 
Q 297 56 298 59 
Q 300 63 300 72 
L 2503 4513 
Q 2531 4581 2619 4581 
L 2706 4581 
Q 2794 4581 2822 4513 
L 5025 72 
Q 5028 66 5029 61 
Q 5031 56 5031 50 
Q 5031 0 4978 0 
L 347 0 
z
M 769 513 
L 4141 513 
L 2456 3909 
L 769 513 
z
" transform="scale(0.015625)"/>
      <path id="Cmmi10-c1" d="M 1241 -1247 
L 1528 -91 
Q 1203 -91 922 61 
Q 641 213 470 484 
Q 300 756 300 1075 
Q 300 1422 472 1737 
Q 644 2053 942 2311 
Q 1241 2569 1584 2708 
Q 1928 2847 2266 2847 
L 2650 4403 
Q 2663 4441 2700 4441 
L 2778 4441 
Q 2803 4441 2818 4419 
Q 2834 4397 2834 4378 
L 2450 2847 
Q 2691 2847 2916 2759 
Q 3141 2672 3314 2514 
Q 3488 2356 3584 2142 
Q 3681 1928 3681 1684 
Q 3681 1338 3509 1022 
Q 3338 706 3047 453 
Q 2756 200 2398 54 
Q 2041 -91 1716 -91 
L 1422 -1275 
Q 1409 -1313 1369 -1313 
L 1294 -1313 
Q 1269 -1313 1255 -1289 
Q 1241 -1266 1241 -1247 
z
M 1569 78 
L 2222 2681 
Q 2059 2681 1881 2615 
Q 1703 2550 1545 2450 
Q 1388 2350 1259 2222 
Q 1103 2066 984 1853 
Q 866 1641 805 1405 
Q 744 1169 744 941 
Q 744 700 847 503 
Q 950 306 1137 192 
Q 1325 78 1569 78 
z
M 1759 78 
Q 2000 78 2272 215 
Q 2544 353 2719 538 
Q 2959 775 3098 1120 
Q 3238 1466 3238 1819 
Q 3238 2056 3134 2254 
Q 3031 2453 2843 2567 
Q 2656 2681 2413 2681 
L 1759 78 
z
" transform="scale(0.015625)"/>
     </defs>
     <use xlink:href="#Cmr10-a2" transform="translate(0 0.421875)"/>
     <use xlink:href="#Cmmi10-c1" transform="translate(83.300781 0.421875)"/>
    </g>
   </g>
   <g id="text_2">
    <!-- $\rho_0$ -->
    <g style="fill: #808080" transform="translate(175.861546 233.502341) scale(0.2 -0.2)">
     <defs>
      <path id="Cmmi10-bd" d="M 178 -1203 
Q 178 -1166 184 -1153 
L 819 1403 
Q 909 1747 1129 2076 
Q 1350 2406 1662 2617 
Q 1975 2828 2322 2828 
Q 2600 2828 2808 2683 
Q 3016 2538 3120 2302 
Q 3225 2066 3225 1784 
Q 3225 1475 3098 1144 
Q 2972 813 2748 538 
Q 2525 263 2234 95 
Q 1944 -72 1625 -72 
Q 1438 -72 1272 39 
Q 1106 150 1013 331 
L 634 -1178 
Q 616 -1269 541 -1325 
Q 466 -1381 372 -1381 
Q 294 -1381 236 -1332 
Q 178 -1284 178 -1203 
z
M 1638 97 
Q 1978 97 2229 445 
Q 2481 794 2614 1264 
Q 2747 1734 2747 2059 
Q 2747 2303 2640 2483 
Q 2534 2663 2309 2663 
Q 2031 2663 1818 2452 
Q 1606 2241 1478 1956 
Q 1350 1672 1269 1363 
L 1094 647 
Q 1134 416 1276 256 
Q 1419 97 1638 97 
z
" transform="scale(0.015625)"/>
      <path id="Cmr10-30" d="M 1600 -141 
Q 816 -141 533 504 
Q 250 1150 250 2041 
Q 250 2597 351 3087 
Q 453 3578 754 3920 
Q 1056 4263 1600 4263 
Q 2022 4263 2290 4056 
Q 2559 3850 2700 3523 
Q 2841 3197 2892 2823 
Q 2944 2450 2944 2041 
Q 2944 1491 2842 1011 
Q 2741 531 2444 195 
Q 2147 -141 1600 -141 
z
M 1600 25 
Q 1956 25 2131 390 
Q 2306 756 2347 1200 
Q 2388 1644 2388 2144 
Q 2388 2625 2347 3031 
Q 2306 3438 2132 3767 
Q 1959 4097 1600 4097 
Q 1238 4097 1063 3765 
Q 888 3434 847 3029 
Q 806 2625 806 2144 
Q 806 1788 823 1472 
Q 841 1156 916 820 
Q 991 484 1158 254 
Q 1325 25 1600 25 
z
" transform="scale(0.015625)"/>
     </defs>
     <use xlink:href="#Cmmi10-bd" transform="translate(0 0.8125)"/>
     <use xlink:href="#Cmr10-30" transform="translate(51.708984 -16.19375) scale(0.7)"/>
    </g>
   </g>
   <g id="text_3">
    <!-- $\rho_1$ -->
    <g style="fill: #808080" transform="translate(261.784714 174.719139) scale(0.2 -0.2)">
     <defs>
      <path id="Cmr10-31" d="M 594 0 
L 594 225 
Q 1394 225 1394 428 
L 1394 3788 
Q 1063 3628 556 3628 
L 556 3853 
Q 1341 3853 1741 4263 
L 1831 4263 
Q 1853 4263 1873 4245 
Q 1894 4228 1894 4206 
L 1894 428 
Q 1894 225 2694 225 
L 2694 0 
L 594 0 
z
" transform="scale(0.015625)"/>
     </defs>
     <use xlink:href="#Cmmi10-bd" transform="translate(0 0.8125)"/>
     <use xlink:href="#Cmr10-31" transform="translate(51.708984 -16.19375) scale(0.7)"/>
    </g>
   </g>
   <g id="text_4">
    <!-- $\Delta \rho$ -->
    <g transform="translate(119.616875 100.829232) scale(0.2 -0.2)">
     <use xlink:href="#Cmr10-a2" transform="translate(0 0.421875)"/>
     <use xlink:href="#Cmmi10-bd" transform="translate(83.300781 0.421875)"/>
    </g>
   </g>
   <g id="text_5">
    <!-- $s_1$ -->
    <g transform="translate(232.521922 96.032037) scale(0.2 -0.2)">
     <defs>
      <path id="Cmmi10-73" d="M 556 391 
Q 728 97 1247 97 
Q 1472 97 1675 173 
Q 1878 250 2011 403 
Q 2144 556 2144 775 
Q 2144 941 2025 1047 
Q 1906 1153 1734 1191 
L 1388 1259 
Q 1150 1319 997 1481 
Q 844 1644 844 1875 
Q 844 2159 998 2378 
Q 1153 2597 1406 2712 
Q 1659 2828 1931 2828 
Q 2222 2828 2451 2689 
Q 2681 2550 2681 2278 
Q 2681 2131 2598 2018 
Q 2516 1906 2369 1906 
Q 2284 1906 2223 1961 
Q 2163 2016 2163 2100 
Q 2163 2175 2205 2245 
Q 2247 2316 2317 2358 
Q 2388 2400 2463 2400 
Q 2406 2538 2251 2600 
Q 2097 2663 1919 2663 
Q 1756 2663 1593 2597 
Q 1431 2531 1332 2404 
Q 1234 2278 1234 2106 
Q 1234 1991 1315 1903 
Q 1397 1816 1516 1778 
L 1888 1703 
Q 2066 1666 2214 1570 
Q 2363 1475 2448 1329 
Q 2534 1184 2534 997 
Q 2534 759 2401 528 
Q 2269 297 2075 159 
Q 1734 -72 1241 -72 
Q 900 -72 615 84 
Q 331 241 331 550 
Q 331 725 432 854 
Q 534 984 709 984 
Q 813 984 883 921 
Q 953 859 953 756 
Q 953 609 843 500 
Q 734 391 588 391 
L 556 391 
z
" transform="scale(0.015625)"/>
     </defs>
     <use xlink:href="#Cmmi10-73" transform="translate(0 0.8125)"/>
     <use xlink:href="#Cmr10-31" transform="translate(46.777344 -16.19375) scale(0.7)"/>
    </g>
   </g>
  </g>
 </g>
 <defs>
  <clipPath id="p8f83fec461">
   <rect x="7.2" y="7.2" width="323.190947" height="324"/>
  </clipPath>
 </defs>
</svg>
