<?xml version="1.0" encoding="utf-8" standalone="no"?>
<!DOCTYPE svg PUBLIC "-//W3C//DTD SVG 1.1//EN"
  "http://www.w3.org/Graphics/SVG/1.1/DTD/svg11.dtd">
<svg xmlns:xlink="http://www.w3.org/1999/xlink" width="331.637538pt" height="335.536817pt" viewBox="0 0 331.637538 335.536817" xmlns="http://www.w3.org/2000/svg" version="1.1">
 <metadata>
  <rdf:RDF xmlns:dc="http://purl.org/dc/elements/1.1/" xmlns:cc="http://creativecommons.org/ns#" xmlns:rdf="http://www.w3.org/1999/02/22-rdf-syntax-ns#">
   <cc:Work>
    <dc:type rdf:resource="http://purl.org/dc/dcmitype/StillImage"/>
    <dc:date>2025-10-29T15:20:54.206729</dc:date>
    <dc:format>image/svg+xml</dc:format>
    <dc:creator>
     <cc:Agent>
      <dc:title>Matplotlib v3.10.5, https://matplotlib.org/</dc:title>
     </cc:Agent>
    </dc:creator>
   </cc:Work>
  </rdf:RDF>
 </metadata>
 <defs>
  <style type="text/css">*{stroke-linejoin: round; stroke-linecap: butt}</style>
 </defs>
 <g id="figure_1">
  <g id="patch_1">
   <path d="M 0 335.536817 
L 331.637538 335.536817 
L 331.637538 0 
L 0 0 
z
" style="fill: #ffffff"/>
  </g>
  <g id="axes_1">
   <g id="patch_2">
    <path d="M 7.2 328.336817 
L 324.437538 328.336817 
L 324.437538 11.099278 
L 7.2 11.099278 
z
" style="fill: #ffffff"/>
   </g>
   <g id="patch_3">
    <path d="M 288.588556 171.845665 
L 292.183243 159.58245 
L 293.608774 148.055143 
L 292.271887 137.863917 
L 287.89403 129.499049 
L 280.534544 123.268804 
L 270.57283 119.247376 
L 258.65286 117.250884 
L 245.597873 116.845958 
L 232.306575 117.391339 
L 219.644118 118.10851 
L 208.341368 118.173445 
L 198.914533 116.818469 
L 191.614282 113.431518 
L 186.409512 107.639977 
L 183.006375 99.367821 
L 180.898741 88.857844 
L 179.442405 76.654961 
L 177.94265 63.551395 
L 175.743446 50.499422 
L 172.306857 38.501598 
L 167.272915 28.491479 
L 160.493193 21.219368 
L 152.035032 17.157351 
L 142.157362 16.435778 
L 131.262814 18.819709 
L 66.24472 186.056105 
L 71.618631 183.837056 
L 77.23231 181.649613 
L 82.947037 179.805538 
L 88.595721 178.590024 
L 93.997697 178.238409 
L 98.975734 178.917623 
L 103.373662 180.713872 
L 107.072851 183.627498 
L 110.005886 187.575303 
L 112.165967 192.399957 
L 113.610937 197.88549 
L 114.461333 203.777361 
L 114.892404 209.805225 
L 115.120629 215.7063 
L 115.385776 221.247277 
L 115.930058 226.242855 
L 116.976182 230.569379 
L 118.706328 234.172503 
L 121.244004 237.068415 
L 124.640538 239.338722 
L 128.867594 241.119706 
L 133.816563 242.587117 
L 139.305078 243.938099 
L 145.09028 245.372002 
L 150.887798 247.071932 
z
" clip-path="url(#pa956e4d0ca)" style="fill: #add8e6; stroke: #000000; stroke-linejoin: miter"/>
   </g>
   <g id="matplotlib.axis_1"/>
   <g id="matplotlib.axis_2"/>
   <g id="line2d_1">
    <path d="M 283.980619 125.622533 
L 126.324407 240.139162 
" clip-path="url(#pa956e4d0ca)" style="fill: none; stroke-dasharray: 7.4,3.2; stroke-dashoffset: 0; stroke: #808080; stroke-width: 2"/>
   </g>
   <g id="line2d_2">
    <path d="M 230.249635 117.513967 
L 115.816357 225.498026 
" clip-path="url(#pa956e4d0ca)" style="fill: none; stroke-dasharray: 7.4,3.2; stroke-dashoffset: 0; stroke: #808080; stroke-width: 2"/>
   </g>
   <g id="line2d_3">
    <path d="M 187.590983 109.41077 
L 113.886658 199.410904 
" clip-path="url(#pa956e4d0ca)" style="fill: none; stroke-dasharray: 7.4,3.2; stroke-dashoffset: 0; stroke: #808080; stroke-width: 2"/>
   </g>
   <g id="line2d_4">
    <path d="M 177.353767 59.386717 
L 102.058921 180.025766 
" clip-path="url(#pa956e4d0ca)" style="fill: none; stroke-dasharray: 7.4,3.2; stroke-dashoffset: 0; stroke: #808080; stroke-width: 2"/>
   </g>
   <g id="line2d_5">
    <path d="M 153.006829 17.429536 
L 77.837308 181.432122 
" clip-path="url(#pa956e4d0ca)" style="fill: none; stroke-dasharray: 7.4,3.2; stroke-dashoffset: 0; stroke: #808080; stroke-width: 2"/>
   </g>
   <g id="line2d_6">
    <path d="M 288.588556 171.845665 
L 13.300722 322.236095 
L 131.262814 18.819709 
" clip-path="url(#pa956e4d0ca)" style="fill: none; stroke: #808080; stroke-width: 2; stroke-linecap: square"/>
   </g>
   <g id="patch_4">
    <path d="M 13.300722 328.336817 
L 13.300722 11.099278 
" style="fill: none; stroke: #000000; stroke-width: 0.8; stroke-linejoin: miter; stroke-linecap: square"/>
   </g>
   <g id="patch_5">
    <path d="M 7.2 322.236095 
L 324.437538 322.236095 
" style="fill: none; stroke: #000000; stroke-width: 0.8; stroke-linejoin: miter; stroke-linecap: square"/>
   </g>
   <g id="text_1">
    <!-- $r=g_1(\theta)$ -->
    <g style="fill: #0000ff" transform="translate(151.496476 258.602973) scale(0.2 -0.2)">
     <defs>
      <path id="Cmmi10-72" d="M 494 109 
Q 494 147 500 166 
L 978 2075 
Q 1025 2253 1025 2388 
Q 1025 2663 838 2663 
Q 638 2663 541 2423 
Q 444 2184 353 1819 
Q 353 1800 334 1789 
Q 316 1778 300 1778 
L 225 1778 
Q 203 1778 187 1801 
Q 172 1825 172 1844 
Q 241 2122 305 2315 
Q 369 2509 505 2668 
Q 641 2828 844 2828 
Q 1066 2828 1233 2700 
Q 1400 2572 1441 2363 
Q 1603 2575 1811 2701 
Q 2019 2828 2266 2828 
Q 2469 2828 2623 2709 
Q 2778 2591 2778 2388 
Q 2778 2225 2676 2104 
Q 2575 1984 2406 1984 
Q 2303 1984 2233 2048 
Q 2163 2113 2163 2216 
Q 2163 2356 2266 2467 
Q 2369 2578 2503 2578 
Q 2400 2663 2253 2663 
Q 1978 2663 1775 2467 
Q 1572 2272 1409 1972 
L 953 141 
Q 931 53 854 -9 
Q 778 -72 684 -72 
Q 606 -72 550 -22 
Q 494 28 494 109 
z
" transform="scale(0.015625)"/>
      <path id="Cmr10-3d" d="M 481 850 
Q 428 850 393 890 
Q 359 931 359 978 
Q 359 1031 393 1068 
Q 428 1106 481 1106 
L 4500 1106 
Q 4547 1106 4581 1068 
Q 4616 1031 4616 978 
Q 4616 931 4581 890 
Q 4547 850 4500 850 
L 481 850 
z
M 481 2094 
Q 428 2094 393 2131 
Q 359 2169 359 2222 
Q 359 2269 393 2309 
Q 428 2350 481 2350 
L 4500 2350 
Q 4547 2350 4581 2309 
Q 4616 2269 4616 2222 
Q 4616 2169 4581 2131 
Q 4547 2094 4500 2094 
L 481 2094 
z
" transform="scale(0.015625)"/>
      <path id="Cmmi10-67" d="M 91 -916 
Q 91 -759 198 -642 
Q 306 -525 459 -525 
Q 563 -525 633 -589 
Q 703 -653 703 -756 
Q 703 -872 637 -964 
Q 572 -1056 469 -1094 
Q 641 -1147 1006 -1147 
Q 1300 -1147 1544 -920 
Q 1788 -694 1863 -397 
L 2047 353 
Q 1700 0 1325 0 
Q 1050 0 854 140 
Q 659 281 556 515 
Q 453 750 453 1013 
Q 453 1306 573 1628 
Q 694 1950 911 2225 
Q 1128 2500 1409 2664 
Q 1691 2828 2003 2828 
Q 2191 2828 2341 2725 
Q 2491 2622 2578 2450 
Q 2641 2700 2853 2700 
Q 2934 2700 2990 2651 
Q 3047 2603 3047 2522 
Q 3047 2503 3045 2493 
Q 3044 2484 3041 2472 
L 2309 -434 
Q 2259 -634 2125 -800 
Q 1991 -966 1809 -1077 
Q 1628 -1188 1412 -1250 
Q 1197 -1313 997 -1313 
Q 631 -1313 361 -1242 
Q 91 -1172 91 -916 
z
M 1338 166 
Q 1747 166 2144 728 
L 2497 2125 
Q 2453 2347 2322 2505 
Q 2191 2663 1991 2663 
Q 1778 2663 1589 2489 
Q 1400 2316 1275 2075 
Q 1156 1844 1045 1411 
Q 934 978 934 728 
Q 934 509 1034 337 
Q 1134 166 1338 166 
z
" transform="scale(0.015625)"/>
      <path id="Cmr10-31" d="M 594 0 
L 594 225 
Q 1394 225 1394 428 
L 1394 3788 
Q 1063 3628 556 3628 
L 556 3853 
Q 1341 3853 1741 4263 
L 1831 4263 
Q 1853 4263 1873 4245 
Q 1894 4228 1894 4206 
L 1894 428 
Q 1894 225 2694 225 
L 2694 0 
L 594 0 
z
" transform="scale(0.015625)"/>
      <path id="Cmr10-28" d="M 1984 -1588 
Q 1628 -1306 1370 -942 
Q 1113 -578 948 -165 
Q 784 247 703 697 
Q 622 1147 622 1600 
Q 622 2059 703 2509 
Q 784 2959 951 3375 
Q 1119 3791 1378 4153 
Q 1638 4516 1984 4788 
Q 1984 4800 2016 4800 
L 2075 4800 
Q 2094 4800 2109 4783 
Q 2125 4766 2125 4744 
Q 2125 4716 2113 4703 
Q 1800 4397 1592 4047 
Q 1384 3697 1257 3301 
Q 1131 2906 1075 2482 
Q 1019 2059 1019 1600 
Q 1019 -434 2106 -1491 
Q 2125 -1509 2125 -1544 
Q 2125 -1559 2108 -1579 
Q 2091 -1600 2075 -1600 
L 2016 -1600 
Q 1984 -1600 1984 -1588 
z
" transform="scale(0.015625)"/>
      <path id="Cmmi10-b5" d="M 1031 -72 
Q 741 -72 566 140 
Q 391 353 323 653 
Q 256 953 256 1247 
L 256 1253 
Q 256 1572 317 1915 
Q 378 2259 493 2601 
Q 609 2944 744 3213 
Q 838 3400 986 3631 
Q 1134 3863 1317 4064 
Q 1500 4266 1711 4389 
Q 1922 4513 2138 4513 
L 2144 4513 
Q 2375 4513 2529 4384 
Q 2684 4256 2770 4056 
Q 2856 3856 2890 3628 
Q 2925 3400 2925 3194 
Q 2925 2709 2794 2204 
Q 2663 1700 2431 1228 
Q 2344 1050 2189 809 
Q 2034 569 1861 378 
Q 1688 188 1472 58 
Q 1256 -72 1038 -72 
L 1031 -72 
z
M 1044 97 
Q 1256 97 1451 323 
Q 1647 550 1794 873 
Q 1941 1197 2052 1536 
Q 2163 1875 2216 2113 
L 909 2113 
Q 809 1709 753 1417 
Q 697 1125 697 844 
Q 697 97 1044 97 
z
M 959 2338 
L 2272 2338 
Q 2341 2619 2381 2808 
Q 2422 2997 2450 3206 
Q 2478 3416 2478 3597 
Q 2478 4347 2138 4347 
Q 1731 4347 1436 3692 
Q 1141 3038 959 2338 
z
" transform="scale(0.015625)"/>
      <path id="Cmr10-29" d="M 416 -1600 
Q 359 -1600 359 -1544 
Q 359 -1516 372 -1503 
Q 1466 -434 1466 1600 
Q 1466 3634 384 4691 
Q 359 4706 359 4744 
Q 359 4766 376 4783 
Q 394 4800 416 4800 
L 475 4800 
Q 494 4800 506 4788 
Q 966 4425 1272 3906 
Q 1578 3388 1720 2800 
Q 1863 2213 1863 1600 
Q 1863 1147 1786 708 
Q 1709 269 1542 -157 
Q 1375 -584 1119 -945 
Q 863 -1306 506 -1588 
Q 494 -1600 475 -1600 
L 416 -1600 
z
" transform="scale(0.015625)"/>
     </defs>
     <use xlink:href="#Cmmi10-72"/>
     <use xlink:href="#Cmr10-3d" transform="translate(62.675781 0)"/>
     <use xlink:href="#Cmmi10-67" transform="translate(157.919922 0)"/>
     <use xlink:href="#Cmr10-31" transform="translate(205.625 -17.00625) scale(0.7)"/>
     <use xlink:href="#Cmr10-28" transform="translate(247.002344 0)"/>
     <use xlink:href="#Cmmi10-b5" transform="translate(285.820703 0)"/>
     <use xlink:href="#Cmr10-29" transform="translate(332.744531 0)"/>
    </g>
   </g>
   <g id="text_2">
    <!-- $r=g_2(\theta)$ -->
    <g style="fill: #ff0000" transform="translate(52.359746 22.2) scale(0.2 -0.2)">
     <defs>
      <path id="Cmr10-32" d="M 319 0 
L 319 172 
Q 319 188 331 206 
L 1325 1306 
Q 1550 1550 1690 1715 
Q 1831 1881 1968 2097 
Q 2106 2313 2186 2536 
Q 2266 2759 2266 3009 
Q 2266 3272 2169 3511 
Q 2072 3750 1880 3894 
Q 1688 4038 1416 4038 
Q 1138 4038 916 3870 
Q 694 3703 603 3438 
Q 628 3444 672 3444 
Q 816 3444 917 3347 
Q 1019 3250 1019 3097 
Q 1019 2950 917 2848 
Q 816 2747 672 2747 
Q 522 2747 420 2851 
Q 319 2956 319 3097 
Q 319 3338 409 3548 
Q 500 3759 670 3923 
Q 841 4088 1055 4175 
Q 1269 4263 1509 4263 
Q 1875 4263 2190 4108 
Q 2506 3953 2690 3670 
Q 2875 3388 2875 3009 
Q 2875 2731 2753 2481 
Q 2631 2231 2440 2026 
Q 2250 1822 1953 1562 
Q 1656 1303 1563 1216 
L 838 519 
L 1453 519 
Q 1906 519 2211 526 
Q 2516 534 2534 550 
Q 2609 631 2688 1141 
L 2875 1141 
L 2694 0 
L 319 0 
z
" transform="scale(0.015625)"/>
     </defs>
     <use xlink:href="#Cmmi10-72"/>
     <use xlink:href="#Cmr10-3d" transform="translate(62.675781 0)"/>
     <use xlink:href="#Cmmi10-67" transform="translate(157.919922 0)"/>
     <use xlink:href="#Cmr10-32" transform="translate(205.625 -17.00625) scale(0.7)"/>
     <use xlink:href="#Cmr10-28" transform="translate(247.002344 0)"/>
     <use xlink:href="#Cmmi10-b5" transform="translate(285.820703 0)"/>
     <use xlink:href="#Cmr10-29" transform="translate(332.744531 0)"/>
    </g>
   </g>
   <g id="line2d_7">
    <path d="M 288.588556 171.845665 
L 290.291455 166.716589 
L 291.361918 162.973228 
L 292.418093 158.471751 
L 293.109758 154.453032 
L 293.491001 150.865026 
L 293.611272 147.623127 
L 293.505861 144.679372 
L 293.201688 141.987691 
L 292.738363 139.597161 
L 292.028159 137.101935 
L 291.200081 134.956428 
L 289.989011 132.558117 
L 288.803746 130.704121 
L 287.440713 128.953113 
L 285.708713 127.127654 
L 283.504623 125.251647 
L 281.919726 124.128876 
L 279.265068 122.56412 
L 276.516875 121.264908 
L 273.716814 120.199125 
L 270.979684 119.357833 
L 267.440659 118.506981 
L 263.49055 117.811949 
L 259.243615 117.304636 
L 255.112763 117.003371 
L 249.712963 116.83645 
L 243.999166 116.875596 
L 235.662879 117.203768 
L 214.52202 118.264517 
L 209.477094 118.222084 
L 206.237351 118.033778 
L 203.245336 117.698525 
L 200.018983 117.097787 
L 197.934173 116.532272 
L 195.822914 115.771213 
L 193.708514 114.760976 
L 191.959073 113.677605 
L 190.527815 112.572654 
L 189.238855 111.360087 
L 188.230538 110.229464 
L 186.899312 108.419366 
L 185.771505 106.511915 
L 184.571158 103.954614 
L 183.673442 101.543149 
L 182.68585 98.174079 
L 181.764789 94.03851 
L 180.880075 88.729048 
L 180.271746 84.09831 
L 177.314199 59.127322 
L 176.291131 53.180332 
L 175.049785 47.492279 
L 173.775683 42.840901 
L 172.584278 39.253378 
L 170.996413 35.298397 
L 169.764802 32.724454 
L 168.28942 30.081666 
L 166.803706 27.812672 
L 165.355976 25.912448 
L 163.953747 24.318035 
L 162.363719 22.760301 
L 160.542075 21.256015 
L 158.683004 19.98609 
L 156.654666 18.864174 
L 154.371103 17.886195 
L 152.514573 17.286334 
L 150.758588 16.862607 
L 148.281485 16.477926 
L 145.845892 16.317531 
L 143.329358 16.354322 
L 141.028686 16.550393 
L 137.515633 17.11788 
L 134.442005 17.852242 
L 131.262814 18.819709 
L 131.262814 18.819709 
" clip-path="url(#pa956e4d0ca)" style="fill: none; stroke: #ff0000; stroke-width: 3; stroke-linecap: square"/>
   </g>
   <g id="line2d_8">
    <path d="M 150.887798 247.071932 
L 146.768541 245.826004 
L 140.657111 244.262657 
L 132.065187 242.112041 
L 128.828852 241.10631 
L 125.904347 239.953143 
L 123.828107 238.891549 
L 122.233015 237.854391 
L 120.645473 236.520716 
L 119.453018 235.206891 
L 118.432309 233.736185 
L 117.6723 232.304891 
L 116.942672 230.470926 
L 116.266136 228.009525 
L 115.758289 225.077026 
L 115.424164 221.779506 
L 115.132316 216.03078 
L 114.703691 206.609508 
L 114.276162 202.120447 
L 113.727629 198.501036 
L 113.070378 195.459438 
L 112.156342 192.372024 
L 111.386267 190.363049 
L 110.168427 187.862406 
L 109.158137 186.216249 
L 107.88698 184.531593 
L 106.402731 182.967331 
L 104.849333 181.679522 
L 103.050807 180.531016 
L 101.010734 179.576291 
L 98.741785 178.858085 
L 96.714518 178.464696 
L 94.877827 178.277672 
L 92.024146 178.256249 
L 89.067516 178.523627 
L 86.912263 178.874722 
L 83.341684 179.698263 
L 79.569213 180.835897 
L 74.658734 182.61984 
L 67.060396 185.721624 
L 66.24472 186.056105 
L 66.24472 186.056105 
" clip-path="url(#pa956e4d0ca)" style="fill: none; stroke: #0000ff; stroke-width: 3; stroke-linecap: square"/>
   </g>
  </g>
 </g>
 <defs>
  <clipPath id="pa956e4d0ca">
   <rect x="7.2" y="11.099278" width="317.237538" height="317.237538"/>
  </clipPath>
 </defs>
</svg>
