<?xml version="1.0" encoding="utf-8" standalone="no"?>
<!DOCTYPE svg PUBLIC "-//W3C//DTD SVG 1.1//EN"
  "http://www.w3.org/Graphics/SVG/1.1/DTD/svg11.dtd">
<svg xmlns:xlink="http://www.w3.org/1999/xlink" width="451.30218pt" height="337.397538pt" viewBox="0 0 451.30218 337.397538" xmlns="http://www.w3.org/2000/svg" version="1.1">
 <metadata>
  <rdf:RDF xmlns:dc="http://purl.org/dc/elements/1.1/" xmlns:cc="http://creativecommons.org/ns#" xmlns:rdf="http://www.w3.org/1999/02/22-rdf-syntax-ns#">
   <cc:Work>
    <dc:type rdf:resource="http://purl.org/dc/dcmitype/StillImage"/>
    <dc:date>2025-12-10T16:55:22.114768</dc:date>
    <dc:format>image/svg+xml</dc:format>
    <dc:creator>
     <cc:Agent>
      <dc:title>Matplotlib v3.10.5, https://matplotlib.org/</dc:title>
     </cc:Agent>
    </dc:creator>
   </cc:Work>
  </rdf:RDF>
 </metadata>
 <defs>
  <style type="text/css">*{stroke-linejoin: round; stroke-linecap: butt}</style>
 </defs>
 <g id="figure_1">
  <g id="patch_1">
   <path d="M 0 337.397538 
L 451.30218 337.397538 
L 451.30218 0 
L 0 0 
z
" style="fill: #ffffff"/>
  </g>
  <g id="axes_1">
   <g id="patch_2">
    <path d="M 20.801795 330.197538 
L 444.10218 330.197538 
L 444.10218 7.2 
L 20.801795 7.2 
z
" style="fill: #ffffff"/>
   </g>
   <g id="matplotlib.axis_1">
    <g id="xtick_1">
     <g id="line2d_1">
      <path d="M 28.942187 330.197538 
L 28.942187 7.2 
" clip-path="url(#p874ac8dfe2)" style="fill: none; stroke-dasharray: 0.5,0.825; stroke-dashoffset: 0; stroke: #000000; stroke-width: 0.5"/>
     </g>
     <g id="line2d_2">
      <defs>
       <path id="m0516873eba" d="M 0 0 
L 0 3.5 
" style="stroke: #000000; stroke-width: 0.8"/>
      </defs>
      <g>
       <use xlink:href="#m0516873eba" x="28.942187" y="199.756225" style="stroke: #000000; stroke-width: 0.8"/>
      </g>
     </g>
    </g>
    <g id="xtick_2">
     <g id="line2d_3">
      <path d="M 130.697088 330.197538 
L 130.697088 7.2 
" clip-path="url(#p874ac8dfe2)" style="fill: none; stroke-dasharray: 0.5,0.825; stroke-dashoffset: 0; stroke: #000000; stroke-width: 0.5"/>
     </g>
     <g id="line2d_4">
      <g>
       <use xlink:href="#m0516873eba" x="130.697088" y="199.756225" style="stroke: #000000; stroke-width: 0.8"/>
      </g>
     </g>
     <g id="text_1">
      <!-- 0.5 -->
      <g transform="translate(122.745525 214.354662) scale(0.1 -0.1)">
       <defs>
        <path id="DejaVuSans-30" d="M 2034 4250 
Q 1547 4250 1301 3770 
Q 1056 3291 1056 2328 
Q 1056 1369 1301 889 
Q 1547 409 2034 409 
Q 2525 409 2770 889 
Q 3016 1369 3016 2328 
Q 3016 3291 2770 3770 
Q 2525 4250 2034 4250 
z
M 2034 4750 
Q 2819 4750 3233 4129 
Q 3647 3509 3647 2328 
Q 3647 1150 3233 529 
Q 2819 -91 2034 -91 
Q 1250 -91 836 529 
Q 422 1150 422 2328 
Q 422 3509 836 4129 
Q 1250 4750 2034 4750 
z
" transform="scale(0.015625)"/>
        <path id="DejaVuSans-2e" d="M 684 794 
L 1344 794 
L 1344 0 
L 684 0 
L 684 794 
z
" transform="scale(0.015625)"/>
        <path id="DejaVuSans-35" d="M 691 4666 
L 3169 4666 
L 3169 4134 
L 1269 4134 
L 1269 2991 
Q 1406 3038 1543 3061 
Q 1681 3084 1819 3084 
Q 2600 3084 3056 2656 
Q 3513 2228 3513 1497 
Q 3513 744 3044 326 
Q 2575 -91 1722 -91 
Q 1428 -91 1123 -41 
Q 819 9 494 109 
L 494 744 
Q 775 591 1075 516 
Q 1375 441 1709 441 
Q 2250 441 2565 725 
Q 2881 1009 2881 1497 
Q 2881 1984 2565 2268 
Q 2250 2553 1709 2553 
Q 1456 2553 1204 2497 
Q 953 2441 691 2322 
L 691 4666 
z
" transform="scale(0.015625)"/>
       </defs>
       <use xlink:href="#DejaVuSans-30"/>
       <use xlink:href="#DejaVuSans-2e" transform="translate(63.623047 0)"/>
       <use xlink:href="#DejaVuSans-35" transform="translate(95.410156 0)"/>
      </g>
     </g>
    </g>
    <g id="xtick_3">
     <g id="line2d_5">
      <path d="M 232.451988 330.197538 
L 232.451988 7.2 
" clip-path="url(#p874ac8dfe2)" style="fill: none; stroke-dasharray: 0.5,0.825; stroke-dashoffset: 0; stroke: #000000; stroke-width: 0.5"/>
     </g>
     <g id="line2d_6">
      <g>
       <use xlink:href="#m0516873eba" x="232.451988" y="199.756225" style="stroke: #000000; stroke-width: 0.8"/>
      </g>
     </g>
     <g id="text_2">
      <!-- 1.0 -->
      <g transform="translate(224.500425 214.354662) scale(0.1 -0.1)">
       <defs>
        <path id="DejaVuSans-31" d="M 794 531 
L 1825 531 
L 1825 4091 
L 703 3866 
L 703 4441 
L 1819 4666 
L 2450 4666 
L 2450 531 
L 3481 531 
L 3481 0 
L 794 0 
L 794 531 
z
" transform="scale(0.015625)"/>
       </defs>
       <use xlink:href="#DejaVuSans-31"/>
       <use xlink:href="#DejaVuSans-2e" transform="translate(63.623047 0)"/>
       <use xlink:href="#DejaVuSans-30" transform="translate(95.410156 0)"/>
      </g>
     </g>
    </g>
    <g id="xtick_4">
     <g id="line2d_7">
      <path d="M 334.206888 330.197538 
L 334.206888 7.2 
" clip-path="url(#p874ac8dfe2)" style="fill: none; stroke-dasharray: 0.5,0.825; stroke-dashoffset: 0; stroke: #000000; stroke-width: 0.5"/>
     </g>
     <g id="line2d_8">
      <g>
       <use xlink:href="#m0516873eba" x="334.206888" y="199.756225" style="stroke: #000000; stroke-width: 0.8"/>
      </g>
     </g>
     <g id="text_3">
      <!-- 1.5 -->
      <g transform="translate(326.255325 214.354662) scale(0.1 -0.1)">
       <use xlink:href="#DejaVuSans-31"/>
       <use xlink:href="#DejaVuSans-2e" transform="translate(63.623047 0)"/>
       <use xlink:href="#DejaVuSans-35" transform="translate(95.410156 0)"/>
      </g>
     </g>
    </g>
    <g id="xtick_5">
     <g id="line2d_9">
      <path d="M 435.961788 330.197538 
L 435.961788 7.2 
" clip-path="url(#p874ac8dfe2)" style="fill: none; stroke-dasharray: 0.5,0.825; stroke-dashoffset: 0; stroke: #000000; stroke-width: 0.5"/>
     </g>
     <g id="line2d_10">
      <g>
       <use xlink:href="#m0516873eba" x="435.961788" y="199.756225" style="stroke: #000000; stroke-width: 0.8"/>
      </g>
     </g>
     <g id="text_4">
      <!-- 2.0 -->
      <g transform="translate(428.010226 214.354662) scale(0.1 -0.1)">
       <defs>
        <path id="DejaVuSans-32" d="M 1228 531 
L 3431 531 
L 3431 0 
L 469 0 
L 469 531 
Q 828 903 1448 1529 
Q 2069 2156 2228 2338 
Q 2531 2678 2651 2914 
Q 2772 3150 2772 3378 
Q 2772 3750 2511 3984 
Q 2250 4219 1831 4219 
Q 1534 4219 1204 4116 
Q 875 4013 500 3803 
L 500 4441 
Q 881 4594 1212 4672 
Q 1544 4750 1819 4750 
Q 2544 4750 2975 4387 
Q 3406 4025 3406 3419 
Q 3406 3131 3298 2873 
Q 3191 2616 2906 2266 
Q 2828 2175 2409 1742 
Q 1991 1309 1228 531 
z
" transform="scale(0.015625)"/>
       </defs>
       <use xlink:href="#DejaVuSans-32"/>
       <use xlink:href="#DejaVuSans-2e" transform="translate(63.623047 0)"/>
       <use xlink:href="#DejaVuSans-30" transform="translate(95.410156 0)"/>
      </g>
     </g>
    </g>
    <g id="xtick_6">
     <g id="line2d_11">
      <defs>
       <path id="m8328ec753a" d="M 0 0 
L 0 2 
" style="stroke: #000000; stroke-width: 0.6"/>
      </defs>
      <g>
       <use xlink:href="#m8328ec753a" x="49.293168" y="199.756225" style="stroke: #000000; stroke-width: 0.6"/>
      </g>
     </g>
    </g>
    <g id="xtick_7">
     <g id="line2d_12">
      <g>
       <use xlink:href="#m8328ec753a" x="69.644148" y="199.756225" style="stroke: #000000; stroke-width: 0.6"/>
      </g>
     </g>
    </g>
    <g id="xtick_8">
     <g id="line2d_13">
      <g>
       <use xlink:href="#m8328ec753a" x="89.995128" y="199.756225" style="stroke: #000000; stroke-width: 0.6"/>
      </g>
     </g>
    </g>
    <g id="xtick_9">
     <g id="line2d_14">
      <g>
       <use xlink:href="#m8328ec753a" x="110.346108" y="199.756225" style="stroke: #000000; stroke-width: 0.6"/>
      </g>
     </g>
    </g>
    <g id="xtick_10">
     <g id="line2d_15">
      <g>
       <use xlink:href="#m8328ec753a" x="151.048068" y="199.756225" style="stroke: #000000; stroke-width: 0.6"/>
      </g>
     </g>
    </g>
    <g id="xtick_11">
     <g id="line2d_16">
      <g>
       <use xlink:href="#m8328ec753a" x="171.399048" y="199.756225" style="stroke: #000000; stroke-width: 0.6"/>
      </g>
     </g>
    </g>
    <g id="xtick_12">
     <g id="line2d_17">
      <g>
       <use xlink:href="#m8328ec753a" x="191.750028" y="199.756225" style="stroke: #000000; stroke-width: 0.6"/>
      </g>
     </g>
    </g>
    <g id="xtick_13">
     <g id="line2d_18">
      <g>
       <use xlink:href="#m8328ec753a" x="212.101008" y="199.756225" style="stroke: #000000; stroke-width: 0.6"/>
      </g>
     </g>
    </g>
    <g id="xtick_14">
     <g id="line2d_19">
      <g>
       <use xlink:href="#m8328ec753a" x="252.802968" y="199.756225" style="stroke: #000000; stroke-width: 0.6"/>
      </g>
     </g>
    </g>
    <g id="xtick_15">
     <g id="line2d_20">
      <g>
       <use xlink:href="#m8328ec753a" x="273.153948" y="199.756225" style="stroke: #000000; stroke-width: 0.6"/>
      </g>
     </g>
    </g>
    <g id="xtick_16">
     <g id="line2d_21">
      <g>
       <use xlink:href="#m8328ec753a" x="293.504928" y="199.756225" style="stroke: #000000; stroke-width: 0.6"/>
      </g>
     </g>
    </g>
    <g id="xtick_17">
     <g id="line2d_22">
      <g>
       <use xlink:href="#m8328ec753a" x="313.855908" y="199.756225" style="stroke: #000000; stroke-width: 0.6"/>
      </g>
     </g>
    </g>
    <g id="xtick_18">
     <g id="line2d_23">
      <g>
       <use xlink:href="#m8328ec753a" x="354.557868" y="199.756225" style="stroke: #000000; stroke-width: 0.6"/>
      </g>
     </g>
    </g>
    <g id="xtick_19">
     <g id="line2d_24">
      <g>
       <use xlink:href="#m8328ec753a" x="374.908848" y="199.756225" style="stroke: #000000; stroke-width: 0.6"/>
      </g>
     </g>
    </g>
    <g id="xtick_20">
     <g id="line2d_25">
      <g>
       <use xlink:href="#m8328ec753a" x="395.259828" y="199.756225" style="stroke: #000000; stroke-width: 0.6"/>
      </g>
     </g>
    </g>
    <g id="xtick_21">
     <g id="line2d_26">
      <g>
       <use xlink:href="#m8328ec753a" x="415.610808" y="199.756225" style="stroke: #000000; stroke-width: 0.6"/>
      </g>
     </g>
    </g>
   </g>
   <g id="matplotlib.axis_2">
    <g id="ytick_1">
     <g id="line2d_27">
      <path d="M 20.801795 323.986047 
L 444.10218 323.986047 
" clip-path="url(#p874ac8dfe2)" style="fill: none; stroke-dasharray: 0.5,0.825; stroke-dashoffset: 0; stroke: #000000; stroke-width: 0.5"/>
     </g>
     <g id="line2d_28">
      <defs>
       <path id="mfb917260b1" d="M 0 0 
L -3.5 0 
" style="stroke: #000000; stroke-width: 0.8"/>
      </defs>
      <g>
       <use xlink:href="#mfb917260b1" x="28.942187" y="323.986047" style="stroke: #000000; stroke-width: 0.8"/>
      </g>
     </g>
     <g id="text_5">
      <!-- −2 -->
      <g transform="translate(7.2 327.785266) scale(0.1 -0.1)">
       <defs>
        <path id="DejaVuSans-2212" d="M 678 2272 
L 4684 2272 
L 4684 1741 
L 678 1741 
L 678 2272 
z
" transform="scale(0.015625)"/>
       </defs>
       <use xlink:href="#DejaVuSans-2212"/>
       <use xlink:href="#DejaVuSans-32" transform="translate(83.789062 0)"/>
      </g>
     </g>
    </g>
    <g id="ytick_2">
     <g id="line2d_29">
      <path d="M 20.801795 261.871136 
L 444.10218 261.871136 
" clip-path="url(#p874ac8dfe2)" style="fill: none; stroke-dasharray: 0.5,0.825; stroke-dashoffset: 0; stroke: #000000; stroke-width: 0.5"/>
     </g>
     <g id="line2d_30">
      <g>
       <use xlink:href="#mfb917260b1" x="28.942187" y="261.871136" style="stroke: #000000; stroke-width: 0.8"/>
      </g>
     </g>
     <g id="text_6">
      <!-- −1 -->
      <g transform="translate(7.2 265.670355) scale(0.1 -0.1)">
       <use xlink:href="#DejaVuSans-2212"/>
       <use xlink:href="#DejaVuSans-31" transform="translate(83.789062 0)"/>
      </g>
     </g>
    </g>
    <g id="ytick_3">
     <g id="line2d_31">
      <path d="M 20.801795 199.756225 
L 444.10218 199.756225 
" clip-path="url(#p874ac8dfe2)" style="fill: none; stroke-dasharray: 0.5,0.825; stroke-dashoffset: 0; stroke: #000000; stroke-width: 0.5"/>
     </g>
     <g id="line2d_32">
      <g>
       <use xlink:href="#mfb917260b1" x="28.942187" y="199.756225" style="stroke: #000000; stroke-width: 0.8"/>
      </g>
     </g>
    </g>
    <g id="ytick_4">
     <g id="line2d_33">
      <path d="M 20.801795 137.641314 
L 444.10218 137.641314 
" clip-path="url(#p874ac8dfe2)" style="fill: none; stroke-dasharray: 0.5,0.825; stroke-dashoffset: 0; stroke: #000000; stroke-width: 0.5"/>
     </g>
     <g id="line2d_34">
      <g>
       <use xlink:href="#mfb917260b1" x="28.942187" y="137.641314" style="stroke: #000000; stroke-width: 0.8"/>
      </g>
     </g>
     <g id="text_7">
      <!-- 1 -->
      <g transform="translate(15.579687 141.440532) scale(0.1 -0.1)">
       <use xlink:href="#DejaVuSans-31"/>
      </g>
     </g>
    </g>
    <g id="ytick_5">
     <g id="line2d_35">
      <path d="M 20.801795 75.526402 
L 444.10218 75.526402 
" clip-path="url(#p874ac8dfe2)" style="fill: none; stroke-dasharray: 0.5,0.825; stroke-dashoffset: 0; stroke: #000000; stroke-width: 0.5"/>
     </g>
     <g id="line2d_36">
      <g>
       <use xlink:href="#mfb917260b1" x="28.942187" y="75.526402" style="stroke: #000000; stroke-width: 0.8"/>
      </g>
     </g>
     <g id="text_8">
      <!-- 2 -->
      <g transform="translate(15.579687 79.325621) scale(0.1 -0.1)">
       <use xlink:href="#DejaVuSans-32"/>
      </g>
     </g>
    </g>
    <g id="ytick_6">
     <g id="line2d_37">
      <path d="M 20.801795 13.411491 
L 444.10218 13.411491 
" clip-path="url(#p874ac8dfe2)" style="fill: none; stroke-dasharray: 0.5,0.825; stroke-dashoffset: 0; stroke: #000000; stroke-width: 0.5"/>
     </g>
     <g id="line2d_38">
      <g>
       <use xlink:href="#mfb917260b1" x="28.942187" y="13.411491" style="stroke: #000000; stroke-width: 0.8"/>
      </g>
     </g>
     <g id="text_9">
      <!-- 3 -->
      <g transform="translate(15.579687 17.21071) scale(0.1 -0.1)">
       <defs>
        <path id="DejaVuSans-33" d="M 2597 2516 
Q 3050 2419 3304 2112 
Q 3559 1806 3559 1356 
Q 3559 666 3084 287 
Q 2609 -91 1734 -91 
Q 1441 -91 1130 -33 
Q 819 25 488 141 
L 488 750 
Q 750 597 1062 519 
Q 1375 441 1716 441 
Q 2309 441 2620 675 
Q 2931 909 2931 1356 
Q 2931 1769 2642 2001 
Q 2353 2234 1838 2234 
L 1294 2234 
L 1294 2753 
L 1863 2753 
Q 2328 2753 2575 2939 
Q 2822 3125 2822 3475 
Q 2822 3834 2567 4026 
Q 2313 4219 1838 4219 
Q 1578 4219 1281 4162 
Q 984 4106 628 3988 
L 628 4550 
Q 988 4650 1302 4700 
Q 1616 4750 1894 4750 
Q 2613 4750 3031 4423 
Q 3450 4097 3450 3541 
Q 3450 3153 3228 2886 
Q 3006 2619 2597 2516 
z
" transform="scale(0.015625)"/>
       </defs>
       <use xlink:href="#DejaVuSans-33"/>
      </g>
     </g>
    </g>
    <g id="ytick_7">
     <g id="line2d_39">
      <defs>
       <path id="m11e3972a25" d="M 0 0 
L -2 0 
" style="stroke: #000000; stroke-width: 0.6"/>
      </defs>
      <g>
       <use xlink:href="#m11e3972a25" x="28.942187" y="311.563065" style="stroke: #000000; stroke-width: 0.6"/>
      </g>
     </g>
    </g>
    <g id="ytick_8">
     <g id="line2d_40">
      <g>
       <use xlink:href="#m11e3972a25" x="28.942187" y="299.140083" style="stroke: #000000; stroke-width: 0.6"/>
      </g>
     </g>
    </g>
    <g id="ytick_9">
     <g id="line2d_41">
      <g>
       <use xlink:href="#m11e3972a25" x="28.942187" y="286.717101" style="stroke: #000000; stroke-width: 0.6"/>
      </g>
     </g>
    </g>
    <g id="ytick_10">
     <g id="line2d_42">
      <g>
       <use xlink:href="#m11e3972a25" x="28.942187" y="274.294118" style="stroke: #000000; stroke-width: 0.6"/>
      </g>
     </g>
    </g>
    <g id="ytick_11">
     <g id="line2d_43">
      <g>
       <use xlink:href="#m11e3972a25" x="28.942187" y="249.448154" style="stroke: #000000; stroke-width: 0.6"/>
      </g>
     </g>
    </g>
    <g id="ytick_12">
     <g id="line2d_44">
      <g>
       <use xlink:href="#m11e3972a25" x="28.942187" y="237.025172" style="stroke: #000000; stroke-width: 0.6"/>
      </g>
     </g>
    </g>
    <g id="ytick_13">
     <g id="line2d_45">
      <g>
       <use xlink:href="#m11e3972a25" x="28.942187" y="224.602189" style="stroke: #000000; stroke-width: 0.6"/>
      </g>
     </g>
    </g>
    <g id="ytick_14">
     <g id="line2d_46">
      <g>
       <use xlink:href="#m11e3972a25" x="28.942187" y="212.179207" style="stroke: #000000; stroke-width: 0.6"/>
      </g>
     </g>
    </g>
    <g id="ytick_15">
     <g id="line2d_47">
      <g>
       <use xlink:href="#m11e3972a25" x="28.942187" y="187.333243" style="stroke: #000000; stroke-width: 0.6"/>
      </g>
     </g>
    </g>
    <g id="ytick_16">
     <g id="line2d_48">
      <g>
       <use xlink:href="#m11e3972a25" x="28.942187" y="174.91026" style="stroke: #000000; stroke-width: 0.6"/>
      </g>
     </g>
    </g>
    <g id="ytick_17">
     <g id="line2d_49">
      <g>
       <use xlink:href="#m11e3972a25" x="28.942187" y="162.487278" style="stroke: #000000; stroke-width: 0.6"/>
      </g>
     </g>
    </g>
    <g id="ytick_18">
     <g id="line2d_50">
      <g>
       <use xlink:href="#m11e3972a25" x="28.942187" y="150.064296" style="stroke: #000000; stroke-width: 0.6"/>
      </g>
     </g>
    </g>
    <g id="ytick_19">
     <g id="line2d_51">
      <g>
       <use xlink:href="#m11e3972a25" x="28.942187" y="125.218331" style="stroke: #000000; stroke-width: 0.6"/>
      </g>
     </g>
    </g>
    <g id="ytick_20">
     <g id="line2d_52">
      <g>
       <use xlink:href="#m11e3972a25" x="28.942187" y="112.795349" style="stroke: #000000; stroke-width: 0.6"/>
      </g>
     </g>
    </g>
    <g id="ytick_21">
     <g id="line2d_53">
      <g>
       <use xlink:href="#m11e3972a25" x="28.942187" y="100.372367" style="stroke: #000000; stroke-width: 0.6"/>
      </g>
     </g>
    </g>
    <g id="ytick_22">
     <g id="line2d_54">
      <g>
       <use xlink:href="#m11e3972a25" x="28.942187" y="87.949385" style="stroke: #000000; stroke-width: 0.6"/>
      </g>
     </g>
    </g>
    <g id="ytick_23">
     <g id="line2d_55">
      <g>
       <use xlink:href="#m11e3972a25" x="28.942187" y="63.10342" style="stroke: #000000; stroke-width: 0.6"/>
      </g>
     </g>
    </g>
    <g id="ytick_24">
     <g id="line2d_56">
      <g>
       <use xlink:href="#m11e3972a25" x="28.942187" y="50.680438" style="stroke: #000000; stroke-width: 0.6"/>
      </g>
     </g>
    </g>
    <g id="ytick_25">
     <g id="line2d_57">
      <g>
       <use xlink:href="#m11e3972a25" x="28.942187" y="38.257456" style="stroke: #000000; stroke-width: 0.6"/>
      </g>
     </g>
    </g>
    <g id="ytick_26">
     <g id="line2d_58">
      <g>
       <use xlink:href="#m11e3972a25" x="28.942187" y="25.834473" style="stroke: #000000; stroke-width: 0.6"/>
      </g>
     </g>
    </g>
   </g>
   <g id="line2d_59">
    <path d="M 28.942187 199.756225 
L 33.823146 172.229025 
L 36.550528 158.061215 
L 38.716088 147.880273 
L 40.829289 139.097035 
L 42.557317 132.889637 
L 44.028564 128.363866 
L 45.454727 124.685055 
L 46.81667 121.849971 
L 47.981998 119.96413 
L 49.118982 118.61128 
L 50.02098 117.882239 
L 50.922978 117.457527 
L 51.561029 117.339981 
L 52.235799 117.379255 
L 52.91057 117.585027 
L 53.922725 118.201086 
L 55.028166 119.285623 
L 56.164739 120.833715 
L 57.316879 122.831469 
L 58.469018 125.237283 
L 59.919727 128.80557 
L 61.616165 133.664875 
L 63.680268 140.426705 
L 66.063957 149.130548 
L 69.219112 161.539089 
L 74.534523 182.453306 
L 76.937652 190.980981 
L 78.912802 197.196043 
L 80.462873 201.447897 
L 81.945056 204.922484 
L 83.183279 207.339331 
L 84.421502 209.282675 
L 85.587246 210.657397 
L 86.635606 211.502683 
L 87.474294 211.905503 
L 88.312982 212.061208 
L 89.154301 211.96647 
L 90.003513 211.614378 
L 90.886092 210.974909 
L 91.868771 209.935864 
L 92.813616 208.614603 
L 93.85279 206.802055 
L 94.90321 204.595571 
L 96.17271 201.442646 
L 97.776502 196.735519 
L 99.455018 191.005949 
L 101.198002 184.275714 
L 103.267308 175.401848 
L 105.612655 164.432735 
L 108.541518 149.862898 
L 114.467766 120.151452 
L 116.998834 108.512662 
L 119.138581 99.635305 
L 120.844038 93.357173 
L 122.510527 88.015079 
L 124.050018 83.850506 
L 125.334418 80.984631 
L 126.372805 79.092643 
L 127.368563 77.647058 
L 128.279066 76.648355 
L 129.189568 75.963242 
L 130.035763 75.610543 
L 130.849803 75.53089 
L 131.663844 75.706169 
L 132.336007 76.042611 
L 133.336204 76.862194 
L 134.320308 78.036729 
L 135.304411 79.569871 
L 136.418486 81.727467 
L 137.728553 84.817621 
L 139.259578 89.147076 
L 140.587 93.484539 
L 142.339775 99.964669 
L 144.292165 108.062078 
L 146.738001 119.251032 
L 149.704959 133.868372 
L 156.947016 169.98626 
L 159.496618 181.374469 
L 161.556793 189.59416 
L 163.380727 195.974787 
L 164.84915 200.420234 
L 166.322293 204.206903 
L 167.703834 207.109932 
L 168.888011 209.07897 
L 169.919137 210.393416 
L 170.950264 211.330124 
L 171.838214 211.832107 
L 172.726164 212.051995 
L 173.602448 211.993667 
L 174.478732 211.664352 
L 175.347787 211.073847 
L 176.326492 210.100397 
L 177.251612 208.887555 
L 178.308725 207.165256 
L 179.547476 204.71104 
L 181.031734 201.190827 
L 182.504777 197.127374 
L 184.211311 191.796008 
L 186.459942 183.932143 
L 189.288655 173.093254 
L 196.918694 143.239141 
L 199.100383 135.790599 
L 200.911887 130.339435 
L 202.514234 126.189108 
L 203.87691 123.221295 
L 205.089238 121.054192 
L 206.209703 119.472877 
L 207.087703 118.529514 
L 207.998644 117.834574 
L 208.849203 117.452989 
L 209.669572 117.334115 
L 210.48994 117.463265 
L 211.290356 117.830558 
L 212.090771 118.437435 
L 212.945234 119.350069 
L 213.799698 120.535416 
L 214.970415 122.598654 
L 216.172565 125.237365 
L 217.559562 128.918802 
L 218.738444 132.564512 
L 220.427343 138.569373 
L 222.179381 145.69747 
L 224.141335 154.641769 
L 226.690555 167.518118 
L 229.506677 182.933466 
L 239.037717 236.292271 
L 241.299706 247.411683 
L 243.491808 257.043008 
L 245.139526 263.406049 
L 246.856063 269.139744 
L 248.29798 273.196907 
L 249.66276 276.364971 
L 250.902074 278.656804 
L 252.035964 280.25609 
L 253.084477 281.307574 
L 254.036584 281.905773 
L 254.750665 282.132358 
L 255.464746 282.169876 
L 256.178827 282.02009 
L 257.058119 281.581812 
L 258.034171 280.773577 
L 259.010223 279.635878 
L 260.181486 277.851562 
L 261.289408 275.762353 
L 262.39733 273.305315 
L 263.804097 269.694482 
L 265.398115 265.005685 
L 267.291809 258.731712 
L 269.889782 249.173568 
L 272.753512 237.874649 
L 278.166814 216.603725 
L 280.429657 208.591062 
L 282.38285 202.433123 
L 284.007663 197.975614 
L 285.617872 194.245707 
L 286.846408 191.906245 
L 288.015313 190.115719 
L 289.169854 188.784246 
L 290.024987 188.087687 
L 290.88012 187.643532 
L 291.808572 187.451806 
L 292.737024 187.566087 
L 293.659069 187.984462 
L 294.568301 188.694967 
L 295.478137 189.700992 
L 296.387974 190.99955 
L 297.496415 192.970789 
L 298.604855 195.359677 
L 299.968943 198.852524 
L 301.531761 203.565295 
L 303.15485 209.203417 
L 304.999912 216.435131 
L 307.305037 226.505496 
L 310.2287 240.500384 
L 320.004702 288.769537 
L 322.280703 298.425885 
L 324.13933 305.408754 
L 325.85899 311.016923 
L 327.233525 314.844174 
L 328.513939 317.845543 
L 329.794353 320.27413 
L 330.950076 321.955326 
L 331.96928 323.024886 
L 332.946594 323.680638 
L 333.598137 323.91475 
L 334.465959 323.973132 
L 335.331077 323.743003 
L 335.979916 323.382034 
L 336.818692 322.677671 
L 337.657469 321.707914 
L 338.701391 320.136289 
L 339.913236 317.817055 
L 341.226915 314.724318 
L 342.518451 311.125832 
L 343.971512 306.459236 
L 345.821389 299.658256 
L 347.657503 292.077697 
L 350.074177 281.086943 
L 353.324614 265.089448 
L 360.039418 231.493933 
L 362.500647 220.300366 
L 364.658883 211.464727 
L 366.558057 204.632338 
L 368.14272 199.70584 
L 369.54307 195.993294 
L 370.829727 193.144609 
L 372.130158 190.835875 
L 373.118245 189.475511 
L 374.210246 188.374421 
L 374.938247 187.876917 
L 375.760711 187.543102 
L 376.677638 187.455796 
L 377.428363 187.606507 
L 378.305147 188.033032 
L 379.18193 188.72537 
L 380.042593 189.65818 
L 381.179396 191.263759 
L 382.417562 193.476818 
L 383.795756 196.476978 
L 385.263457 200.246024 
L 386.985377 205.342179 
L 388.752696 211.219471 
L 391.23115 220.313921 
L 394.126583 231.713674 
L 399.332807 252.244057 
L 401.5641 260.257128 
L 403.399432 266.188147 
L 405.229097 271.349074 
L 406.826911 275.137826 
L 408.266365 277.909743 
L 409.386255 279.61281 
L 410.613565 280.997714 
L 411.454099 281.644661 
L 412.173738 281.998605 
L 413.025993 282.174875 
L 413.764648 282.111704 
L 414.503303 281.846014 
L 415.241958 281.376584 
L 416.226832 280.432861 
L 417.070806 279.33552 
L 418.255905 277.348141 
L 419.334042 275.093177 
L 420.561028 272.020633 
L 421.915009 268.025324 
L 423.469076 262.696097 
L 425.251013 255.678307 
L 426.951584 248.167222 
L 429.253999 236.918549 
L 431.636903 224.252239 
L 435.961788 199.756225 
L 435.961788 199.756225 
" clip-path="url(#p874ac8dfe2)" style="fill: none; stroke: #000000; stroke-width: 3; stroke-linecap: square"/>
   </g>
   <g id="patch_3">
    <path d="M 28.942187 330.197538 
L 28.942187 7.2 
" style="fill: none; stroke: #000000; stroke-width: 0.8; stroke-linejoin: miter; stroke-linecap: square"/>
   </g>
   <g id="patch_4">
    <path d="M 20.801795 199.756225 
L 444.10218 199.756225 
" style="fill: none; stroke: #000000; stroke-width: 0.8; stroke-linejoin: miter; stroke-linecap: square"/>
   </g>
  </g>
 </g>
 <defs>
  <clipPath id="p874ac8dfe2">
   <rect x="20.801795" y="7.2" width="423.300385" height="322.997538"/>
  </clipPath>
 </defs>
</svg>
