<?xml version="1.0" encoding="utf-8" standalone="no"?>
<!DOCTYPE svg PUBLIC "-//W3C//DTD SVG 1.1//EN"
  "http://www.w3.org/Graphics/SVG/1.1/DTD/svg11.dtd">
<svg xmlns:xlink="http://www.w3.org/1999/xlink" width="338.4pt" height="338.4pt" viewBox="0 0 338.4 338.4" xmlns="http://www.w3.org/2000/svg" version="1.1">
 <metadata>
  <rdf:RDF xmlns:dc="http://purl.org/dc/elements/1.1/" xmlns:cc="http://creativecommons.org/ns#" xmlns:rdf="http://www.w3.org/1999/02/22-rdf-syntax-ns#">
   <cc:Work>
    <dc:type rdf:resource="http://purl.org/dc/dcmitype/StillImage"/>
    <dc:date>2025-09-11T16:29:26.362927</dc:date>
    <dc:format>image/svg+xml</dc:format>
    <dc:creator>
     <cc:Agent>
      <dc:title>Matplotlib v3.10.3, https://matplotlib.org/</dc:title>
     </cc:Agent>
    </dc:creator>
   </cc:Work>
  </rdf:RDF>
 </metadata>
 <defs>
  <style type="text/css">*{stroke-linejoin: round; stroke-linecap: butt}</style>
 </defs>
 <g id="figure_1">
  <g id="patch_1">
   <path d="M -0 338.4 
L 338.4 338.4 
L 338.4 0 
L -0 0 
z
" style="fill: #ffffff"/>
  </g>
  <g id="axes_1">
   <g id="patch_2">
    <path d="M 7.2 331.2 
L 331.2 331.2 
L 331.2 7.2 
L 7.2 7.2 
z
" style="fill: #ffffff"/>
   </g>
   <g id="patch_3">
    <path d="M 293.815385 169.2 
L 293.753894 173.114264 
L 293.569485 177.024665 
L 293.262337 180.927344 
L 292.832755 184.818449 
L 292.281162 188.694141 
L 291.608104 192.550595 
L 290.814243 196.384004 
L 289.900363 200.190586 
L 288.867367 203.966584 
L 287.716274 207.708272 
L 286.448219 211.411956 
L 285.064454 215.073983 
L 283.566346 218.690737 
L 281.955371 222.25865 
L 280.233121 225.774201 
L 278.401294 229.233919 
L 276.461699 232.634392 
L 274.416249 235.972262 
L 272.266964 239.244236 
L 270.015964 242.447085 
L 267.665471 245.577648 
L 265.217804 248.632836 
L 262.675379 251.609632 
L 260.040706 254.505101 
L 257.316384 257.316384 
L 254.505101 260.040706 
L 251.609632 262.675379 
L 248.632836 265.217804 
L 245.577648 267.665471 
L 242.447085 270.015964 
L 239.244236 272.266964 
L 235.972262 274.416249 
L 232.634392 276.461699 
L 229.233919 278.401294 
L 225.774201 280.233121 
L 222.25865 281.955371 
L 218.690737 283.566346 
L 215.073983 285.064454 
L 211.411956 286.448219 
L 207.708272 287.716274 
L 203.966584 288.867367 
L 200.190586 289.900363 
L 196.384004 290.814243 
L 192.550595 291.608104 
L 188.694141 292.281162 
L 184.818449 292.832755 
L 180.927344 293.262337 
L 177.024665 293.569485 
L 173.114264 293.753894 
L 169.2 293.815385 
L 165.285736 293.753894 
L 161.375335 293.569485 
L 157.472656 293.262337 
L 153.581551 292.832755 
L 149.705859 292.281162 
L 145.849405 291.608104 
L 142.015996 290.814243 
L 138.209414 289.900363 
L 134.433416 288.867367 
L 130.691728 287.716274 
L 126.988044 286.448219 
L 123.326017 285.064454 
L 119.709263 283.566346 
L 116.14135 281.955371 
L 112.625799 280.233121 
L 109.166081 278.401294 
L 105.765608 276.461699 
L 102.427738 274.416249 
L 99.155764 272.266964 
L 95.952915 270.015964 
L 92.822352 267.665471 
L 89.767164 265.217804 
L 86.790368 262.675379 
L 83.894899 260.040706 
L 81.083616 257.316384 
L 78.359294 254.505101 
L 75.724621 251.609632 
L 73.182196 248.632836 
L 70.734529 245.577648 
L 68.384036 242.447085 
L 66.133036 239.244236 
L 63.983751 235.972262 
L 61.938301 232.634392 
L 59.998706 229.233919 
L 58.166879 225.774201 
L 56.444629 222.25865 
L 54.833654 218.690737 
L 53.335546 215.073983 
L 51.951781 211.411956 
L 50.683726 207.708272 
L 49.532633 203.966584 
L 48.499637 200.190586 
L 47.585757 196.384004 
L 46.791896 192.550595 
L 46.118838 188.694141 
L 45.567245 184.818449 
L 45.137663 180.927344 
L 44.830515 177.024665 
L 44.646106 173.114264 
L 44.584615 169.2 
L 44.646106 165.285736 
L 44.830515 161.375335 
L 45.137663 157.472656 
L 45.567245 153.581551 
L 46.118838 149.705859 
L 46.791896 145.849405 
L 47.585757 142.015996 
L 48.499637 138.209414 
L 49.532633 134.433416 
L 50.683726 130.691728 
L 51.951781 126.988044 
L 53.335546 123.326017 
L 54.833654 119.709263 
L 56.444629 116.14135 
L 58.166879 112.625799 
L 59.998706 109.166081 
L 61.938301 105.765608 
L 63.983751 102.427738 
L 66.133036 99.155764 
L 68.384036 95.952915 
L 70.734529 92.822352 
L 73.182196 89.767164 
L 75.724621 86.790368 
L 78.359294 83.894899 
L 81.083616 81.083616 
L 83.894899 78.359294 
L 86.790368 75.724621 
L 89.767164 73.182196 
L 92.822352 70.734529 
L 95.952915 68.384036 
L 99.155764 66.133036 
L 102.427738 63.983751 
L 105.765608 61.938301 
L 109.166081 59.998706 
L 112.625799 58.166879 
L 116.14135 56.444629 
L 119.709263 54.833654 
L 123.326017 53.335546 
L 126.988044 51.951781 
L 130.691728 50.683726 
L 134.433416 49.532633 
L 138.209414 48.499637 
L 142.015996 47.585757 
L 145.849405 46.791896 
L 149.705859 46.118838 
L 153.581551 45.567245 
L 157.472656 45.137663 
L 161.375335 44.830515 
L 165.285736 44.646106 
L 169.2 44.584615 
L 173.114264 44.646106 
L 177.024665 44.830515 
L 180.927344 45.137663 
L 184.818449 45.567245 
L 188.694141 46.118838 
L 192.550595 46.791896 
L 196.384004 47.585757 
L 200.190586 48.499637 
L 203.966584 49.532633 
L 207.708272 50.683726 
L 211.411956 51.951781 
L 215.073983 53.335546 
L 218.690737 54.833654 
L 222.25865 56.444629 
L 225.774201 58.166879 
L 229.233919 59.998706 
L 232.634392 61.938301 
L 235.972262 63.983751 
L 239.244236 66.133036 
L 242.447085 68.384036 
L 245.577648 70.734529 
L 248.632836 73.182196 
L 251.609632 75.724621 
L 254.505101 78.359294 
L 257.316384 81.083616 
L 260.040706 83.894899 
L 262.675379 86.790368 
L 265.217804 89.767164 
L 267.665471 92.822352 
L 270.015964 95.952915 
L 272.266964 99.155764 
L 274.416249 102.427738 
L 276.461699 105.765608 
L 278.401294 109.166081 
L 280.233121 112.625799 
L 281.955371 116.14135 
L 283.566346 119.709263 
L 285.064454 123.326017 
L 286.448219 126.988044 
L 287.716274 130.691728 
L 288.867367 134.433416 
L 289.900363 138.209414 
L 290.814243 142.015996 
L 291.608104 145.849405 
L 292.281162 149.705859 
L 292.832755 153.581551 
L 293.262337 157.472656 
L 293.569485 161.375335 
L 293.753894 165.285736 
L 293.815385 169.2 
L 324.969231 169.2 
L 324.892368 164.30717 
L 324.661856 159.419169 
L 324.277921 154.54082 
L 323.740944 149.676939 
L 323.051453 144.832324 
L 322.210129 140.011757 
L 321.217803 135.219995 
L 320.075454 130.461768 
L 318.784209 125.74177 
L 317.345342 121.06466 
L 315.760274 116.435055 
L 314.030568 111.857522 
L 312.157932 107.336579 
L 310.144214 102.876687 
L 307.991401 98.482249 
L 305.701617 94.157601 
L 303.277123 89.90701 
L 300.720311 85.734672 
L 298.033705 81.644705 
L 295.219955 77.641143 
L 292.281838 73.72794 
L 289.222255 69.908955 
L 286.044224 66.187959 
L 282.750882 62.568624 
L 279.345479 59.054521 
L 275.831376 55.649118 
L 272.212041 52.355776 
L 268.491045 49.177745 
L 264.67206 46.118162 
L 260.758857 43.180045 
L 256.755295 40.366295 
L 252.665328 37.679689 
L 248.49299 35.122877 
L 244.242399 32.698383 
L 239.917751 30.408599 
L 235.523313 28.255786 
L 231.063421 26.242068 
L 226.542478 24.369432 
L 221.964945 22.639726 
L 217.33534 21.054658 
L 212.65823 19.615791 
L 207.938232 18.324546 
L 203.180005 17.182197 
L 198.388243 16.189871 
L 193.567676 15.348547 
L 188.723061 14.659056 
L 183.85918 14.122079 
L 178.980831 13.738144 
L 174.09283 13.507632 
L 169.2 13.430769 
L 164.30717 13.507632 
L 159.419169 13.738144 
L 154.54082 14.122079 
L 149.676939 14.659056 
L 144.832324 15.348547 
L 140.011757 16.189871 
L 135.219995 17.182197 
L 130.461768 18.324546 
L 125.74177 19.615791 
L 121.06466 21.054658 
L 116.435055 22.639726 
L 111.857522 24.369432 
L 107.336579 26.242068 
L 102.876687 28.255786 
L 98.482249 30.408599 
L 94.157601 32.698383 
L 89.90701 35.122877 
L 85.734672 37.679689 
L 81.644705 40.366295 
L 77.641143 43.180045 
L 73.72794 46.118162 
L 69.908955 49.177745 
L 66.187959 52.355776 
L 62.568624 55.649118 
L 59.054521 59.054521 
L 55.649118 62.568624 
L 52.355776 66.187959 
L 49.177745 69.908955 
L 46.118162 73.72794 
L 43.180045 77.641143 
L 40.366295 81.644705 
L 37.679689 85.734672 
L 35.122877 89.90701 
L 32.698383 94.157601 
L 30.408599 98.482249 
L 28.255786 102.876687 
L 26.242068 107.336579 
L 24.369432 111.857522 
L 22.639726 116.435055 
L 21.054658 121.06466 
L 19.615791 125.74177 
L 18.324546 130.461768 
L 17.182197 135.219995 
L 16.189871 140.011757 
L 15.348547 144.832324 
L 14.659056 149.676939 
L 14.122079 154.54082 
L 13.738144 159.419169 
L 13.507632 164.30717 
L 13.430769 169.2 
L 13.507632 174.09283 
L 13.738144 178.980831 
L 14.122079 183.85918 
L 14.659056 188.723061 
L 15.348547 193.567676 
L 16.189871 198.388243 
L 17.182197 203.180005 
L 18.324546 207.938232 
L 19.615791 212.65823 
L 21.054658 217.33534 
L 22.639726 221.964945 
L 24.369432 226.542478 
L 26.242068 231.063421 
L 28.255786 235.523313 
L 30.408599 239.917751 
L 32.698383 244.242399 
L 35.122877 248.49299 
L 37.679689 252.665328 
L 40.366295 256.755295 
L 43.180045 260.758857 
L 46.118162 264.67206 
L 49.177745 268.491045 
L 52.355776 272.212041 
L 55.649118 275.831376 
L 59.054521 279.345479 
L 62.568624 282.750882 
L 66.187959 286.044224 
L 69.908955 289.222255 
L 73.72794 292.281838 
L 77.641143 295.219955 
L 81.644705 298.033705 
L 85.734672 300.720311 
L 89.90701 303.277123 
L 94.157601 305.701617 
L 98.482249 307.991401 
L 102.876687 310.144214 
L 107.336579 312.157932 
L 111.857522 314.030568 
L 116.435055 315.760274 
L 121.06466 317.345342 
L 125.74177 318.784209 
L 130.461768 320.075454 
L 135.219995 321.217803 
L 140.011757 322.210129 
L 144.832324 323.051453 
L 149.676939 323.740944 
L 154.54082 324.277921 
L 159.419169 324.661856 
L 164.30717 324.892368 
L 169.2 324.969231 
L 174.09283 324.892368 
L 178.980831 324.661856 
L 183.85918 324.277921 
L 188.723061 323.740944 
L 193.567676 323.051453 
L 198.388243 322.210129 
L 203.180005 321.217803 
L 207.938232 320.075454 
L 212.65823 318.784209 
L 217.33534 317.345342 
L 221.964945 315.760274 
L 226.542478 314.030568 
L 231.063421 312.157932 
L 235.523313 310.144214 
L 239.917751 307.991401 
L 244.242399 305.701617 
L 248.49299 303.277123 
L 252.665328 300.720311 
L 256.755295 298.033705 
L 260.758857 295.219955 
L 264.67206 292.281838 
L 268.491045 289.222255 
L 272.212041 286.044224 
L 275.831376 282.750882 
L 279.345479 279.345479 
L 282.750882 275.831376 
L 286.044224 272.212041 
L 289.222255 268.491045 
L 292.281838 264.67206 
L 295.219955 260.758857 
L 298.033705 256.755295 
L 300.720311 252.665328 
L 303.277123 248.49299 
L 305.701617 244.242399 
L 307.991401 239.917751 
L 310.144214 235.523313 
L 312.157932 231.063421 
L 314.030568 226.542478 
L 315.760274 221.964945 
L 317.345342 217.33534 
L 318.784209 212.65823 
L 320.075454 207.938232 
L 321.217803 203.180005 
L 322.210129 198.388243 
L 323.051453 193.567676 
L 323.740944 188.723061 
L 324.277921 183.85918 
L 324.661856 178.980831 
L 324.892368 174.09283 
L 324.969231 169.2 
z
" clip-path="url(#p72f9751b1b)" style="fill: #808080"/>
   </g>
   <g id="matplotlib.axis_1"/>
   <g id="matplotlib.axis_2"/>
   <g id="line2d_1">
    <path d="M 293.815385 169.2 
L 293.712393 164.134621 
L 293.409928 159.155703 
L 292.690679 152.495319 
L 292.393507 150.428909 
L 290.952132 142.640398 
L 289.088825 135.204946 
L 286.843033 128.101205 
L 285.618279 124.750271 
L 283.967565 120.646935 
L 282.258497 116.790359 
L 280.422767 112.999553 
L 278.746923 109.799111 
L 275.165877 103.623884 
L 271.495739 98.034167 
L 269.271064 94.938461 
L 264.698128 89.143135 
L 263.649397 87.908515 
L 260.467225 84.351383 
L 257.031064 80.799217 
L 252.742997 76.73616 
L 247.988038 72.6524 
L 246.637782 71.566072 
L 242.688988 68.560233 
L 236.767853 64.492888 
L 230.69725 60.816042 
L 227.624115 59.129037 
L 222.034888 56.339606 
L 218.876154 54.91407 
L 214.552638 53.130485 
L 208.531218 50.954284 
L 199.590942 48.34726 
L 192.302928 46.744911 
L 187.712586 45.967382 
L 180.979303 45.142585 
L 175.075891 44.723223 
L 169.518831 44.585023 
L 166.152563 44.621883 
L 157.351187 45.149205 
L 153.254088 45.609054 
L 148.764171 46.271684 
L 141.54268 47.692524 
L 135.883441 49.120855 
L 132.492919 50.113543 
L 128.198297 51.523093 
L 121.440866 54.099786 
L 120.316873 54.57263 
L 115.209915 56.887646 
L 111.162451 58.924722 
L 104.961935 62.417674 
L 101.089405 64.84512 
L 97.876006 67.014473 
L 94.528128 69.434747 
L 91.544678 71.739008 
L 85.575822 76.809573 
L 79.98071 82.200503 
L 76.923119 85.450544 
L 73.204288 89.740467 
L 70.076031 93.678925 
L 67.642691 96.984301 
L 63.60763 103.024133 
L 60.806323 107.719882 
L 58.002152 112.950264 
L 55.333247 118.570398 
L 54.501958 120.482927 
L 51.558434 128.097008 
L 50.664059 130.752311 
L 49.225591 135.508231 
L 48.17204 139.514533 
L 46.739654 146.124954 
L 45.660985 152.85663 
L 45.096295 157.918841 
L 44.692568 164.014099 
L 44.58507 169.536578 
L 44.730907 175.236464 
L 45.058993 180.062989 
L 45.907274 187.307947 
L 46.833859 192.769507 
L 48.331794 199.529371 
L 49.102964 202.452006 
L 51.32902 209.640402 
L 54.385861 217.642829 
L 56.651485 222.696035 
L 58.998423 227.377372 
L 60.59038 230.297828 
L 63.608646 235.377488 
L 66.374095 239.597638 
L 69.771288 244.319407 
L 73.086526 248.517049 
L 76.595386 252.586926 
L 81.643191 257.872427 
L 86.895569 262.768022 
L 90.59305 265.895095 
L 94.988147 269.307917 
L 101.228553 273.645567 
L 105.116692 276.075272 
L 112.282175 280.057364 
L 117.06324 282.384594 
L 121.774897 284.438248 
L 127.091508 286.485417 
L 132.268857 288.217162 
L 138.212788 289.901229 
L 144.099368 291.261265 
L 151.385303 292.53544 
L 156.08652 293.123487 
L 159.879975 293.466372 
L 163.930069 293.703903 
L 172.336764 293.7759 
L 178.216835 293.48874 
L 186.59992 292.594639 
L 193.073589 291.507178 
L 197.663368 290.521189 
L 205.278722 288.47833 
L 214.003891 285.482438 
L 218.437781 283.675478 
L 225.02686 280.610752 
L 227.455647 279.360218 
L 233.529382 275.927338 
L 238.038775 273.07597 
L 240.52209 271.386856 
L 245.264977 267.90721 
L 251.311607 262.937283 
L 255.885693 258.724213 
L 259.130104 255.464537 
L 263.715904 250.414148 
L 268.629783 244.317989 
L 271.639098 240.159322 
L 273.785126 236.956516 
L 276.427897 232.691512 
L 279.524932 227.143105 
L 282.907598 220.18604 
L 284.40876 216.696691 
L 286.213198 212.059137 
L 287.890821 207.166867 
L 289.268825 202.553731 
L 290.952337 195.758661 
L 292.229558 189.017212 
L 292.924075 184.077748 
L 293.430149 178.991022 
L 293.768024 172.635346 
L 293.815385 169.2 
L 293.815385 169.2 
" clip-path="url(#p72f9751b1b)" style="fill: none; stroke: #000000; stroke-width: 3; stroke-linecap: square"/>
   </g>
   <g id="line2d_2">
    <path d="M 324.969231 169.2 
L 324.801823 161.980165 
L 324.456823 156.575728 
L 324.010164 151.941192 
L 323.419752 147.283766 
L 322.689255 142.646247 
L 321.702144 137.464384 
L 320.534352 132.295162 
L 318.948871 126.312604 
L 316.094892 117.373907 
L 313.457579 110.430926 
L 311.1238 104.999625 
L 308.912247 100.319368 
L 305.824982 94.382439 
L 302.773375 89.061327 
L 299.384046 83.665403 
L 297.038768 80.198299 
L 292.297017 73.747511 
L 289.800829 70.61251 
L 286.968801 67.246271 
L 281.823695 61.589793 
L 278.785461 58.497336 
L 271.613459 51.830768 
L 264.516843 45.997919 
L 257.112833 40.610004 
L 248.222315 34.963169 
L 239.210285 30.050392 
L 233.232105 27.200201 
L 228.533845 25.173794 
L 220.563399 22.142683 
L 215.103991 20.348138 
L 207.969116 18.332479 
L 202.671923 17.069518 
L 195.754923 15.710947 
L 190.996369 14.963261 
L 182.437759 13.994282 
L 179.641067 13.781091 
L 170.747004 13.438451 
L 166.613557 13.452244 
L 158.037457 13.831242 
L 150.717634 14.531143 
L 143.595162 15.5496 
L 136.684312 16.862272 
L 132.97435 17.701632 
L 125.670642 19.636474 
L 121.984389 20.75897 
L 114.440009 23.373402 
L 110.010518 25.114406 
L 102.157936 28.596249 
L 97.672129 30.824363 
L 93.760039 32.917699 
L 85.389882 37.899134 
L 78.442109 42.601981 
L 74.142627 45.797613 
L 69.904172 49.181702 
L 64.036059 54.288736 
L 58.138406 59.978319 
L 53.182872 65.257327 
L 48.418772 70.833602 
L 42.729703 78.264213 
L 39.749872 82.558684 
L 36.698458 87.301315 
L 33.666823 92.422325 
L 31.796119 95.82271 
L 28.263513 102.860268 
L 26.520972 106.696013 
L 24.045085 112.683596 
L 22.176741 117.739195 
L 19.780397 125.179147 
L 18.21178 130.903648 
L 16.805825 136.949906 
L 15.328574 144.958762 
L 14.549267 150.566592 
L 13.823039 158.152227 
L 13.550525 163.093106 
L 13.430918 169.415515 
L 13.493927 173.635312 
L 13.78659 179.722611 
L 14.344393 186.046193 
L 15.083173 191.828672 
L 16.417098 199.5552 
L 18.01788 206.723589 
L 18.704253 209.388099 
L 21.211409 217.815122 
L 22.304103 221.023244 
L 23.866346 225.255171 
L 26.355858 231.325714 
L 28.683897 236.425576 
L 31.574014 242.159861 
L 35.927662 249.838311 
L 39.51981 255.496591 
L 44.699287 262.814239 
L 46.538986 265.212129 
L 50.495097 270.062279 
L 55.07723 275.219087 
L 58.520749 278.809108 
L 62.583478 282.764829 
L 68.568085 288.100256 
L 71.714113 290.693025 
L 75.917369 293.949365 
L 81.2815 297.786121 
L 85.10978 300.321654 
L 91.340697 304.114722 
L 99.413738 308.462094 
L 106.873637 311.956708 
L 110.458047 313.468625 
L 119.586092 316.856742 
L 127.680509 319.333891 
L 133.248099 320.763565 
L 138.487702 321.911519 
L 146.730773 323.340154 
L 155.927324 324.402736 
L 162.886599 324.841236 
L 168.694093 324.968409 
L 174.418528 324.881792 
L 180.110534 324.586658 
L 188.01528 323.828712 
L 191.443311 323.372917 
L 196.667431 322.528384 
L 206.880093 320.34319 
L 210.715394 319.335024 
L 215.451419 317.944276 
L 222.874668 315.429557 
L 226.706602 313.965479 
L 232.085427 311.71132 
L 237.077835 309.402185 
L 242.956395 306.400756 
L 247.91008 303.62015 
L 251.23404 301.617784 
L 258.63126 296.738634 
L 262.898417 293.637373 
L 266.211101 291.072473 
L 269.919219 288.026311 
L 274.934 283.586951 
L 281.121743 277.540098 
L 286.386795 271.822163 
L 289.104164 268.63362 
L 294.110777 262.26638 
L 296.283382 259.277007 
L 299.754195 254.168555 
L 304.376706 246.603562 
L 306.654669 242.482108 
L 308.807008 238.29368 
L 311.354768 232.887324 
L 314.481942 225.389062 
L 316.747278 219.138502 
L 318.118864 214.886161 
L 319.812847 208.946996 
L 320.95763 204.323711 
L 322.070346 199.111712 
L 323.103916 193.234099 
L 324.091642 185.711589 
L 324.480588 181.528507 
L 324.912119 173.417719 
L 324.969231 169.2 
L 324.969231 169.2 
" clip-path="url(#p72f9751b1b)" style="fill: none; stroke: #000000; stroke-width: 3; stroke-linecap: square"/>
   </g>
   <g id="line2d_3">
    <path d="M 253.362475 38.124712 
L 169.2 169.2 
L 272.049515 98.836861 
" clip-path="url(#p72f9751b1b)" style="fill: none; stroke: #000000; stroke-width: 2; stroke-linecap: square"/>
   </g>
   <g id="patch_4">
    <path d="M 169.2 331.2 
L 169.2 7.2 
" style="fill: none; stroke: #000000; stroke-width: 0.8; stroke-linejoin: miter; stroke-linecap: square"/>
   </g>
   <g id="patch_5">
    <path d="M 7.2 169.2 
L 331.2 169.2 
" style="fill: none; stroke: #000000; stroke-width: 0.8; stroke-linejoin: miter; stroke-linecap: square"/>
   </g>
   <g id="text_1">
    <!-- $R_0$ -->
    <g transform="translate(270.63413 93.970996) scale(0.2 -0.2)">
     <defs>
      <path id="Cmmi10-52" d="M 313 0 
Q 250 0 250 84 
Q 253 100 262 139 
Q 272 178 289 201 
Q 306 225 331 225 
Q 722 225 878 269 
Q 959 297 997 441 
L 1875 3956 
Q 1888 4019 1888 4044 
Q 1888 4113 1813 4122 
Q 1691 4147 1350 4147 
Q 1288 4147 1288 4231 
Q 1291 4247 1300 4286 
Q 1309 4325 1326 4348 
Q 1344 4372 1369 4372 
L 3309 4372 
Q 3541 4372 3791 4319 
Q 4041 4266 4250 4152 
Q 4459 4038 4593 3848 
Q 4728 3659 4728 3406 
Q 4728 3084 4515 2831 
Q 4303 2578 3978 2408 
Q 3653 2238 3347 2169 
Q 3597 2078 3756 1879 
Q 3916 1681 3916 1422 
Q 3916 1388 3914 1370 
Q 3913 1353 3909 1331 
L 3859 763 
Q 3853 638 3847 550 
Q 3841 463 3841 409 
Q 3841 234 3892 129 
Q 3944 25 4097 25 
Q 4297 25 4448 211 
Q 4600 397 4647 616 
Q 4675 672 4709 672 
L 4769 672 
Q 4831 672 4831 588 
Q 4784 403 4682 237 
Q 4581 72 4426 -34 
Q 4272 -141 4091 -141 
Q 3716 -141 3452 26 
Q 3188 194 3188 550 
Q 3188 684 3213 788 
L 3353 1356 
Q 3378 1434 3378 1538 
Q 3378 1803 3198 1954 
Q 3019 2106 2747 2106 
L 1959 2106 
L 1538 416 
Q 1522 363 1522 325 
Q 1522 259 1600 250 
Q 1722 225 2059 225 
Q 2125 225 2125 141 
Q 2103 50 2090 25 
Q 2078 0 2016 0 
L 313 0 
z
M 1997 2272 
L 2706 2272 
Q 3403 2272 3756 2625 
Q 3919 2788 4014 3039 
Q 4109 3291 4109 3541 
Q 4109 3778 3970 3912 
Q 3831 4047 3626 4097 
Q 3422 4147 3175 4147 
L 2747 4147 
Q 2572 4147 2515 4117 
Q 2459 4088 2413 3928 
L 1997 2272 
z
" transform="scale(0.015625)"/>
      <path id="Cmr10-30" d="M 1600 -141 
Q 816 -141 533 504 
Q 250 1150 250 2041 
Q 250 2597 351 3087 
Q 453 3578 754 3920 
Q 1056 4263 1600 4263 
Q 2022 4263 2290 4056 
Q 2559 3850 2700 3523 
Q 2841 3197 2892 2823 
Q 2944 2450 2944 2041 
Q 2944 1491 2842 1011 
Q 2741 531 2444 195 
Q 2147 -141 1600 -141 
z
M 1600 25 
Q 1956 25 2131 390 
Q 2306 756 2347 1200 
Q 2388 1644 2388 2144 
Q 2388 2625 2347 3031 
Q 2306 3438 2132 3767 
Q 1959 4097 1600 4097 
Q 1238 4097 1063 3765 
Q 888 3434 847 3029 
Q 806 2625 806 2144 
Q 806 1788 823 1472 
Q 841 1156 916 820 
Q 991 484 1158 254 
Q 1325 25 1600 25 
z
" transform="scale(0.015625)"/>
     </defs>
     <use xlink:href="#Cmmi10-52" transform="translate(0 0.6875)"/>
     <use xlink:href="#Cmr10-30" transform="translate(75.878906 -16.31875) scale(0.7)"/>
    </g>
   </g>
   <g id="text_2">
    <!-- $R_1$ -->
    <g transform="translate(251.94709 33.258847) scale(0.2 -0.2)">
     <defs>
      <path id="Cmr10-31" d="M 594 0 
L 594 225 
Q 1394 225 1394 428 
L 1394 3788 
Q 1063 3628 556 3628 
L 556 3853 
Q 1341 3853 1741 4263 
L 1831 4263 
Q 1853 4263 1873 4245 
Q 1894 4228 1894 4206 
L 1894 428 
Q 1894 225 2694 225 
L 2694 0 
L 594 0 
z
" transform="scale(0.015625)"/>
     </defs>
     <use xlink:href="#Cmmi10-52" transform="translate(0 0.6875)"/>
     <use xlink:href="#Cmr10-31" transform="translate(75.878906 -16.31875) scale(0.7)"/>
    </g>
   </g>
  </g>
 </g>
 <defs>
  <clipPath id="p72f9751b1b">
   <rect x="7.2" y="7.2" width="324" height="324"/>
  </clipPath>
 </defs>
</svg>
