<?xml version="1.0" encoding="utf-8" standalone="no"?>
<!DOCTYPE svg PUBLIC "-//W3C//DTD SVG 1.1//EN"
  "http://www.w3.org/Graphics/SVG/1.1/DTD/svg11.dtd">
<svg xmlns:xlink="http://www.w3.org/1999/xlink" width="336.436372pt" height="338.080038pt" viewBox="0 0 336.436372 338.080038" xmlns="http://www.w3.org/2000/svg" version="1.1">
 <metadata>
  <rdf:RDF xmlns:dc="http://purl.org/dc/elements/1.1/" xmlns:cc="http://creativecommons.org/ns#" xmlns:rdf="http://www.w3.org/1999/02/22-rdf-syntax-ns#">
   <cc:Work>
    <dc:type rdf:resource="http://purl.org/dc/dcmitype/StillImage"/>
    <dc:date>2025-09-11T16:29:42.703543</dc:date>
    <dc:format>image/svg+xml</dc:format>
    <dc:creator>
     <cc:Agent>
      <dc:title>Matplotlib v3.10.3, https://matplotlib.org/</dc:title>
     </cc:Agent>
    </dc:creator>
   </cc:Work>
  </rdf:RDF>
 </metadata>
 <defs>
  <style type="text/css">*{stroke-linejoin: round; stroke-linecap: butt}</style>
 </defs>
 <g id="figure_1">
  <g id="patch_1">
   <path d="M 0 338.080038 
L 336.436372 338.080038 
L 336.436372 0 
L 0 0 
z
" style="fill: #ffffff"/>
  </g>
  <g id="axes_1">
   <g id="patch_2">
    <path d="M 8.658833 330.880038 
L 316.096372 330.880038 
L 316.096372 23.4425 
L 8.658833 23.4425 
z
" style="fill: #ffffff"/>
   </g>
   <g id="PathCollection_1">
    <path d="M 162.377603 177.161269 
C 162.377603 177.161269 162.377603 177.161269 162.377603 177.161269 
C 162.377603 177.161269 162.377603 177.161269 162.377603 177.161269 
C 162.377603 177.161269 162.377603 177.161269 162.377603 177.161269 
C 162.377603 177.161269 162.377603 177.161269 162.377603 177.161269 
C 162.377603 177.161269 162.377603 177.161269 162.377603 177.161269 
C 162.377603 177.161269 162.377603 177.161269 162.377603 177.161269 
C 162.377603 177.161269 162.377603 177.161269 162.377603 177.161269 
C 162.377603 177.161269 162.377603 177.161269 162.377603 177.161269 
z
" clip-path="url(#p866be91953)"/>
   </g>
   <g id="matplotlib.axis_1">
    <g id="xtick_1">
     <g id="line2d_1">
      <defs>
       <path id="m6a9cb52298" d="M 0 0 
L 0 3.5 
" style="stroke: #000000; stroke-width: 0.8"/>
      </defs>
      <g>
       <use xlink:href="#m6a9cb52298" x="14.571094" y="177.161269" style="stroke: #000000; stroke-width: 0.8"/>
      </g>
     </g>
     <g id="text_1">
      <!-- −4 -->
      <g transform="translate(7.2 191.759707) scale(0.1 -0.1)">
       <defs>
        <path id="DejaVuSans-2212" d="M 678 2272 
L 4684 2272 
L 4684 1741 
L 678 1741 
L 678 2272 
z
" transform="scale(0.015625)"/>
        <path id="DejaVuSans-34" d="M 2419 4116 
L 825 1625 
L 2419 1625 
L 2419 4116 
z
M 2253 4666 
L 3047 4666 
L 3047 1625 
L 3713 1625 
L 3713 1100 
L 3047 1100 
L 3047 0 
L 2419 0 
L 2419 1100 
L 313 1100 
L 313 1709 
L 2253 4666 
z
" transform="scale(0.015625)"/>
       </defs>
       <use xlink:href="#DejaVuSans-2212"/>
       <use xlink:href="#DejaVuSans-34" transform="translate(83.789062 0)"/>
      </g>
     </g>
    </g>
    <g id="xtick_2">
     <g id="line2d_2">
      <g>
       <use xlink:href="#m6a9cb52298" x="51.522721" y="177.161269" style="stroke: #000000; stroke-width: 0.8"/>
      </g>
     </g>
     <g id="text_2">
      <!-- −3 -->
      <g transform="translate(44.151627 191.759707) scale(0.1 -0.1)">
       <defs>
        <path id="DejaVuSans-33" d="M 2597 2516 
Q 3050 2419 3304 2112 
Q 3559 1806 3559 1356 
Q 3559 666 3084 287 
Q 2609 -91 1734 -91 
Q 1441 -91 1130 -33 
Q 819 25 488 141 
L 488 750 
Q 750 597 1062 519 
Q 1375 441 1716 441 
Q 2309 441 2620 675 
Q 2931 909 2931 1356 
Q 2931 1769 2642 2001 
Q 2353 2234 1838 2234 
L 1294 2234 
L 1294 2753 
L 1863 2753 
Q 2328 2753 2575 2939 
Q 2822 3125 2822 3475 
Q 2822 3834 2567 4026 
Q 2313 4219 1838 4219 
Q 1578 4219 1281 4162 
Q 984 4106 628 3988 
L 628 4550 
Q 988 4650 1302 4700 
Q 1616 4750 1894 4750 
Q 2613 4750 3031 4423 
Q 3450 4097 3450 3541 
Q 3450 3153 3228 2886 
Q 3006 2619 2597 2516 
z
" transform="scale(0.015625)"/>
       </defs>
       <use xlink:href="#DejaVuSans-2212"/>
       <use xlink:href="#DejaVuSans-33" transform="translate(83.789062 0)"/>
      </g>
     </g>
    </g>
    <g id="xtick_3">
     <g id="line2d_3">
      <g>
       <use xlink:href="#m6a9cb52298" x="88.474348" y="177.161269" style="stroke: #000000; stroke-width: 0.8"/>
      </g>
     </g>
     <g id="text_3">
      <!-- −2 -->
      <g transform="translate(81.103254 191.759707) scale(0.1 -0.1)">
       <defs>
        <path id="DejaVuSans-32" d="M 1228 531 
L 3431 531 
L 3431 0 
L 469 0 
L 469 531 
Q 828 903 1448 1529 
Q 2069 2156 2228 2338 
Q 2531 2678 2651 2914 
Q 2772 3150 2772 3378 
Q 2772 3750 2511 3984 
Q 2250 4219 1831 4219 
Q 1534 4219 1204 4116 
Q 875 4013 500 3803 
L 500 4441 
Q 881 4594 1212 4672 
Q 1544 4750 1819 4750 
Q 2544 4750 2975 4387 
Q 3406 4025 3406 3419 
Q 3406 3131 3298 2873 
Q 3191 2616 2906 2266 
Q 2828 2175 2409 1742 
Q 1991 1309 1228 531 
z
" transform="scale(0.015625)"/>
       </defs>
       <use xlink:href="#DejaVuSans-2212"/>
       <use xlink:href="#DejaVuSans-32" transform="translate(83.789062 0)"/>
      </g>
     </g>
    </g>
    <g id="xtick_4">
     <g id="line2d_4">
      <g>
       <use xlink:href="#m6a9cb52298" x="125.425975" y="177.161269" style="stroke: #000000; stroke-width: 0.8"/>
      </g>
     </g>
     <g id="text_4">
      <!-- −1 -->
      <g transform="translate(118.054882 191.759707) scale(0.1 -0.1)">
       <defs>
        <path id="DejaVuSans-31" d="M 794 531 
L 1825 531 
L 1825 4091 
L 703 3866 
L 703 4441 
L 1819 4666 
L 2450 4666 
L 2450 531 
L 3481 531 
L 3481 0 
L 794 0 
L 794 531 
z
" transform="scale(0.015625)"/>
       </defs>
       <use xlink:href="#DejaVuSans-2212"/>
       <use xlink:href="#DejaVuSans-31" transform="translate(83.789062 0)"/>
      </g>
     </g>
    </g>
    <g id="xtick_5">
     <g id="line2d_5">
      <g>
       <use xlink:href="#m6a9cb52298" x="162.377603" y="177.161269" style="stroke: #000000; stroke-width: 0.8"/>
      </g>
     </g>
    </g>
    <g id="xtick_6">
     <g id="line2d_6">
      <g>
       <use xlink:href="#m6a9cb52298" x="199.32923" y="177.161269" style="stroke: #000000; stroke-width: 0.8"/>
      </g>
     </g>
     <g id="text_5">
      <!-- 1 -->
      <g transform="translate(196.14798 191.759707) scale(0.1 -0.1)">
       <use xlink:href="#DejaVuSans-31"/>
      </g>
     </g>
    </g>
    <g id="xtick_7">
     <g id="line2d_7">
      <g>
       <use xlink:href="#m6a9cb52298" x="236.280857" y="177.161269" style="stroke: #000000; stroke-width: 0.8"/>
      </g>
     </g>
     <g id="text_6">
      <!-- 2 -->
      <g transform="translate(233.099607 191.759707) scale(0.1 -0.1)">
       <use xlink:href="#DejaVuSans-32"/>
      </g>
     </g>
    </g>
    <g id="xtick_8">
     <g id="line2d_8">
      <g>
       <use xlink:href="#m6a9cb52298" x="273.232484" y="177.161269" style="stroke: #000000; stroke-width: 0.8"/>
      </g>
     </g>
     <g id="text_7">
      <!-- 3 -->
      <g transform="translate(270.051234 191.759707) scale(0.1 -0.1)">
       <use xlink:href="#DejaVuSans-33"/>
      </g>
     </g>
    </g>
    <g id="xtick_9">
     <g id="line2d_9">
      <g>
       <use xlink:href="#m6a9cb52298" x="310.184112" y="177.161269" style="stroke: #000000; stroke-width: 0.8"/>
      </g>
     </g>
     <g id="text_8">
      <!-- 4 -->
      <g transform="translate(307.002862 191.759707) scale(0.1 -0.1)">
       <use xlink:href="#DejaVuSans-34"/>
      </g>
     </g>
    </g>
    <g id="xtick_10">
     <g id="line2d_10">
      <defs>
       <path id="m082c2ec533" d="M 0 0 
L 0 2 
" style="stroke: #000000; stroke-width: 0.6"/>
      </defs>
      <g>
       <use xlink:href="#m082c2ec533" x="21.961419" y="177.161269" style="stroke: #000000; stroke-width: 0.6"/>
      </g>
     </g>
    </g>
    <g id="xtick_11">
     <g id="line2d_11">
      <g>
       <use xlink:href="#m082c2ec533" x="29.351745" y="177.161269" style="stroke: #000000; stroke-width: 0.6"/>
      </g>
     </g>
    </g>
    <g id="xtick_12">
     <g id="line2d_12">
      <g>
       <use xlink:href="#m082c2ec533" x="36.74207" y="177.161269" style="stroke: #000000; stroke-width: 0.6"/>
      </g>
     </g>
    </g>
    <g id="xtick_13">
     <g id="line2d_13">
      <g>
       <use xlink:href="#m082c2ec533" x="44.132396" y="177.161269" style="stroke: #000000; stroke-width: 0.6"/>
      </g>
     </g>
    </g>
    <g id="xtick_14">
     <g id="line2d_14">
      <g>
       <use xlink:href="#m082c2ec533" x="58.913046" y="177.161269" style="stroke: #000000; stroke-width: 0.6"/>
      </g>
     </g>
    </g>
    <g id="xtick_15">
     <g id="line2d_15">
      <g>
       <use xlink:href="#m082c2ec533" x="66.303372" y="177.161269" style="stroke: #000000; stroke-width: 0.6"/>
      </g>
     </g>
    </g>
    <g id="xtick_16">
     <g id="line2d_16">
      <g>
       <use xlink:href="#m082c2ec533" x="73.693697" y="177.161269" style="stroke: #000000; stroke-width: 0.6"/>
      </g>
     </g>
    </g>
    <g id="xtick_17">
     <g id="line2d_17">
      <g>
       <use xlink:href="#m082c2ec533" x="81.084023" y="177.161269" style="stroke: #000000; stroke-width: 0.6"/>
      </g>
     </g>
    </g>
    <g id="xtick_18">
     <g id="line2d_18">
      <g>
       <use xlink:href="#m082c2ec533" x="95.864674" y="177.161269" style="stroke: #000000; stroke-width: 0.6"/>
      </g>
     </g>
    </g>
    <g id="xtick_19">
     <g id="line2d_19">
      <g>
       <use xlink:href="#m082c2ec533" x="103.254999" y="177.161269" style="stroke: #000000; stroke-width: 0.6"/>
      </g>
     </g>
    </g>
    <g id="xtick_20">
     <g id="line2d_20">
      <g>
       <use xlink:href="#m082c2ec533" x="110.645325" y="177.161269" style="stroke: #000000; stroke-width: 0.6"/>
      </g>
     </g>
    </g>
    <g id="xtick_21">
     <g id="line2d_21">
      <g>
       <use xlink:href="#m082c2ec533" x="118.03565" y="177.161269" style="stroke: #000000; stroke-width: 0.6"/>
      </g>
     </g>
    </g>
    <g id="xtick_22">
     <g id="line2d_22">
      <g>
       <use xlink:href="#m082c2ec533" x="132.816301" y="177.161269" style="stroke: #000000; stroke-width: 0.6"/>
      </g>
     </g>
    </g>
    <g id="xtick_23">
     <g id="line2d_23">
      <g>
       <use xlink:href="#m082c2ec533" x="140.206626" y="177.161269" style="stroke: #000000; stroke-width: 0.6"/>
      </g>
     </g>
    </g>
    <g id="xtick_24">
     <g id="line2d_24">
      <g>
       <use xlink:href="#m082c2ec533" x="147.596952" y="177.161269" style="stroke: #000000; stroke-width: 0.6"/>
      </g>
     </g>
    </g>
    <g id="xtick_25">
     <g id="line2d_25">
      <g>
       <use xlink:href="#m082c2ec533" x="154.987277" y="177.161269" style="stroke: #000000; stroke-width: 0.6"/>
      </g>
     </g>
    </g>
    <g id="xtick_26">
     <g id="line2d_26">
      <g>
       <use xlink:href="#m082c2ec533" x="169.767928" y="177.161269" style="stroke: #000000; stroke-width: 0.6"/>
      </g>
     </g>
    </g>
    <g id="xtick_27">
     <g id="line2d_27">
      <g>
       <use xlink:href="#m082c2ec533" x="177.158254" y="177.161269" style="stroke: #000000; stroke-width: 0.6"/>
      </g>
     </g>
    </g>
    <g id="xtick_28">
     <g id="line2d_28">
      <g>
       <use xlink:href="#m082c2ec533" x="184.548579" y="177.161269" style="stroke: #000000; stroke-width: 0.6"/>
      </g>
     </g>
    </g>
    <g id="xtick_29">
     <g id="line2d_29">
      <g>
       <use xlink:href="#m082c2ec533" x="191.938904" y="177.161269" style="stroke: #000000; stroke-width: 0.6"/>
      </g>
     </g>
    </g>
    <g id="xtick_30">
     <g id="line2d_30">
      <g>
       <use xlink:href="#m082c2ec533" x="206.719555" y="177.161269" style="stroke: #000000; stroke-width: 0.6"/>
      </g>
     </g>
    </g>
    <g id="xtick_31">
     <g id="line2d_31">
      <g>
       <use xlink:href="#m082c2ec533" x="214.109881" y="177.161269" style="stroke: #000000; stroke-width: 0.6"/>
      </g>
     </g>
    </g>
    <g id="xtick_32">
     <g id="line2d_32">
      <g>
       <use xlink:href="#m082c2ec533" x="221.500206" y="177.161269" style="stroke: #000000; stroke-width: 0.6"/>
      </g>
     </g>
    </g>
    <g id="xtick_33">
     <g id="line2d_33">
      <g>
       <use xlink:href="#m082c2ec533" x="228.890532" y="177.161269" style="stroke: #000000; stroke-width: 0.6"/>
      </g>
     </g>
    </g>
    <g id="xtick_34">
     <g id="line2d_34">
      <g>
       <use xlink:href="#m082c2ec533" x="243.671183" y="177.161269" style="stroke: #000000; stroke-width: 0.6"/>
      </g>
     </g>
    </g>
    <g id="xtick_35">
     <g id="line2d_35">
      <g>
       <use xlink:href="#m082c2ec533" x="251.061508" y="177.161269" style="stroke: #000000; stroke-width: 0.6"/>
      </g>
     </g>
    </g>
    <g id="xtick_36">
     <g id="line2d_36">
      <g>
       <use xlink:href="#m082c2ec533" x="258.451833" y="177.161269" style="stroke: #000000; stroke-width: 0.6"/>
      </g>
     </g>
    </g>
    <g id="xtick_37">
     <g id="line2d_37">
      <g>
       <use xlink:href="#m082c2ec533" x="265.842159" y="177.161269" style="stroke: #000000; stroke-width: 0.6"/>
      </g>
     </g>
    </g>
    <g id="xtick_38">
     <g id="line2d_38">
      <g>
       <use xlink:href="#m082c2ec533" x="280.62281" y="177.161269" style="stroke: #000000; stroke-width: 0.6"/>
      </g>
     </g>
    </g>
    <g id="xtick_39">
     <g id="line2d_39">
      <g>
       <use xlink:href="#m082c2ec533" x="288.013135" y="177.161269" style="stroke: #000000; stroke-width: 0.6"/>
      </g>
     </g>
    </g>
    <g id="xtick_40">
     <g id="line2d_40">
      <g>
       <use xlink:href="#m082c2ec533" x="295.403461" y="177.161269" style="stroke: #000000; stroke-width: 0.6"/>
      </g>
     </g>
    </g>
    <g id="xtick_41">
     <g id="line2d_41">
      <g>
       <use xlink:href="#m082c2ec533" x="302.793786" y="177.161269" style="stroke: #000000; stroke-width: 0.6"/>
      </g>
     </g>
    </g>
    <g id="text_9">
     <!-- $x$ -->
     <g transform="translate(324.096372 177.161269) scale(0.16 -0.16)">
      <defs>
       <path id="Cmmi10-78" d="M 500 184 
Q 613 97 819 97 
Q 1019 97 1172 289 
Q 1325 481 1381 709 
L 1672 1844 
Q 1741 2153 1741 2266 
Q 1741 2425 1652 2544 
Q 1563 2663 1403 2663 
Q 1200 2663 1022 2536 
Q 844 2409 722 2214 
Q 600 2019 550 1819 
Q 538 1778 500 1778 
L 422 1778 
Q 372 1778 372 1838 
L 372 1856 
Q 434 2094 584 2320 
Q 734 2547 951 2687 
Q 1169 2828 1416 2828 
Q 1650 2828 1839 2703 
Q 2028 2578 2106 2363 
Q 2216 2559 2386 2693 
Q 2556 2828 2759 2828 
Q 2897 2828 3040 2779 
Q 3184 2731 3275 2631 
Q 3366 2531 3366 2381 
Q 3366 2219 3261 2101 
Q 3156 1984 2994 1984 
Q 2891 1984 2822 2050 
Q 2753 2116 2753 2216 
Q 2753 2350 2845 2451 
Q 2938 2553 3066 2572 
Q 2950 2663 2747 2663 
Q 2541 2663 2389 2472 
Q 2238 2281 2175 2047 
L 1894 916 
Q 1825 659 1825 494 
Q 1825 331 1917 214 
Q 2009 97 2163 97 
Q 2463 97 2698 361 
Q 2934 625 3009 941 
Q 3022 978 3059 978 
L 3138 978 
Q 3163 978 3178 961 
Q 3194 944 3194 922 
Q 3194 916 3188 903 
Q 3097 522 2806 225 
Q 2516 -72 2150 -72 
Q 1916 -72 1727 54 
Q 1538 181 1459 397 
Q 1359 209 1182 68 
Q 1006 -72 806 -72 
Q 669 -72 523 -23 
Q 378 25 287 125 
Q 197 225 197 378 
Q 197 528 301 651 
Q 406 775 563 775 
Q 669 775 741 711 
Q 813 647 813 544 
Q 813 409 723 309 
Q 634 209 500 184 
z
" transform="scale(0.015625)"/>
      </defs>
      <use xlink:href="#Cmmi10-78" transform="translate(0 0.8125)"/>
     </g>
    </g>
   </g>
   <g id="matplotlib.axis_2">
    <g id="ytick_1">
     <g id="line2d_42">
      <defs>
       <path id="me429d3b70a" d="M 0 0 
L -3.5 0 
" style="stroke: #000000; stroke-width: 0.8"/>
      </defs>
      <g>
       <use xlink:href="#me429d3b70a" x="162.377603" y="324.967778" style="stroke: #000000; stroke-width: 0.8"/>
      </g>
     </g>
     <g id="text_10">
      <!-- −4 -->
      <g transform="translate(140.635415 328.766997) scale(0.1 -0.1)">
       <use xlink:href="#DejaVuSans-2212"/>
       <use xlink:href="#DejaVuSans-34" transform="translate(83.789062 0)"/>
      </g>
     </g>
    </g>
    <g id="ytick_2">
     <g id="line2d_43">
      <g>
       <use xlink:href="#me429d3b70a" x="162.377603" y="288.016151" style="stroke: #000000; stroke-width: 0.8"/>
      </g>
     </g>
     <g id="text_11">
      <!-- −3 -->
      <g transform="translate(140.635415 291.81537) scale(0.1 -0.1)">
       <use xlink:href="#DejaVuSans-2212"/>
       <use xlink:href="#DejaVuSans-33" transform="translate(83.789062 0)"/>
      </g>
     </g>
    </g>
    <g id="ytick_3">
     <g id="line2d_44">
      <g>
       <use xlink:href="#me429d3b70a" x="162.377603" y="251.064524" style="stroke: #000000; stroke-width: 0.8"/>
      </g>
     </g>
     <g id="text_12">
      <!-- −2 -->
      <g transform="translate(140.635415 254.863742) scale(0.1 -0.1)">
       <use xlink:href="#DejaVuSans-2212"/>
       <use xlink:href="#DejaVuSans-32" transform="translate(83.789062 0)"/>
      </g>
     </g>
    </g>
    <g id="ytick_4">
     <g id="line2d_45">
      <g>
       <use xlink:href="#me429d3b70a" x="162.377603" y="214.112896" style="stroke: #000000; stroke-width: 0.8"/>
      </g>
     </g>
     <g id="text_13">
      <!-- −1 -->
      <g transform="translate(140.635415 217.912115) scale(0.1 -0.1)">
       <use xlink:href="#DejaVuSans-2212"/>
       <use xlink:href="#DejaVuSans-31" transform="translate(83.789062 0)"/>
      </g>
     </g>
    </g>
    <g id="ytick_5">
     <g id="line2d_46">
      <g>
       <use xlink:href="#me429d3b70a" x="162.377603" y="177.161269" style="stroke: #000000; stroke-width: 0.8"/>
      </g>
     </g>
    </g>
    <g id="ytick_6">
     <g id="line2d_47">
      <g>
       <use xlink:href="#me429d3b70a" x="162.377603" y="140.209642" style="stroke: #000000; stroke-width: 0.8"/>
      </g>
     </g>
     <g id="text_14">
      <!-- 1 -->
      <g transform="translate(149.015103 144.008861) scale(0.1 -0.1)">
       <use xlink:href="#DejaVuSans-31"/>
      </g>
     </g>
    </g>
    <g id="ytick_7">
     <g id="line2d_48">
      <g>
       <use xlink:href="#me429d3b70a" x="162.377603" y="103.258015" style="stroke: #000000; stroke-width: 0.8"/>
      </g>
     </g>
     <g id="text_15">
      <!-- 2 -->
      <g transform="translate(149.015103 107.057234) scale(0.1 -0.1)">
       <use xlink:href="#DejaVuSans-32"/>
      </g>
     </g>
    </g>
    <g id="ytick_8">
     <g id="line2d_49">
      <g>
       <use xlink:href="#me429d3b70a" x="162.377603" y="66.306388" style="stroke: #000000; stroke-width: 0.8"/>
      </g>
     </g>
     <g id="text_16">
      <!-- 3 -->
      <g transform="translate(149.015103 70.105606) scale(0.1 -0.1)">
       <use xlink:href="#DejaVuSans-33"/>
      </g>
     </g>
    </g>
    <g id="ytick_9">
     <g id="line2d_50">
      <g>
       <use xlink:href="#me429d3b70a" x="162.377603" y="29.35476" style="stroke: #000000; stroke-width: 0.8"/>
      </g>
     </g>
     <g id="text_17">
      <!-- 4 -->
      <g transform="translate(149.015103 33.153979) scale(0.1 -0.1)">
       <use xlink:href="#DejaVuSans-34"/>
      </g>
     </g>
    </g>
    <g id="ytick_10">
     <g id="line2d_51">
      <defs>
       <path id="m8951cf871d" d="M 0 0 
L -2 0 
" style="stroke: #000000; stroke-width: 0.6"/>
      </defs>
      <g>
       <use xlink:href="#m8951cf871d" x="162.377603" y="317.577453" style="stroke: #000000; stroke-width: 0.6"/>
      </g>
     </g>
    </g>
    <g id="ytick_11">
     <g id="line2d_52">
      <g>
       <use xlink:href="#m8951cf871d" x="162.377603" y="310.187127" style="stroke: #000000; stroke-width: 0.6"/>
      </g>
     </g>
    </g>
    <g id="ytick_12">
     <g id="line2d_53">
      <g>
       <use xlink:href="#m8951cf871d" x="162.377603" y="302.796802" style="stroke: #000000; stroke-width: 0.6"/>
      </g>
     </g>
    </g>
    <g id="ytick_13">
     <g id="line2d_54">
      <g>
       <use xlink:href="#m8951cf871d" x="162.377603" y="295.406476" style="stroke: #000000; stroke-width: 0.6"/>
      </g>
     </g>
    </g>
    <g id="ytick_14">
     <g id="line2d_55">
      <g>
       <use xlink:href="#m8951cf871d" x="162.377603" y="280.625825" style="stroke: #000000; stroke-width: 0.6"/>
      </g>
     </g>
    </g>
    <g id="ytick_15">
     <g id="line2d_56">
      <g>
       <use xlink:href="#m8951cf871d" x="162.377603" y="273.2355" style="stroke: #000000; stroke-width: 0.6"/>
      </g>
     </g>
    </g>
    <g id="ytick_16">
     <g id="line2d_57">
      <g>
       <use xlink:href="#m8951cf871d" x="162.377603" y="265.845175" style="stroke: #000000; stroke-width: 0.6"/>
      </g>
     </g>
    </g>
    <g id="ytick_17">
     <g id="line2d_58">
      <g>
       <use xlink:href="#m8951cf871d" x="162.377603" y="258.454849" style="stroke: #000000; stroke-width: 0.6"/>
      </g>
     </g>
    </g>
    <g id="ytick_18">
     <g id="line2d_59">
      <g>
       <use xlink:href="#m8951cf871d" x="162.377603" y="243.674198" style="stroke: #000000; stroke-width: 0.6"/>
      </g>
     </g>
    </g>
    <g id="ytick_19">
     <g id="line2d_60">
      <g>
       <use xlink:href="#m8951cf871d" x="162.377603" y="236.283873" style="stroke: #000000; stroke-width: 0.6"/>
      </g>
     </g>
    </g>
    <g id="ytick_20">
     <g id="line2d_61">
      <g>
       <use xlink:href="#m8951cf871d" x="162.377603" y="228.893547" style="stroke: #000000; stroke-width: 0.6"/>
      </g>
     </g>
    </g>
    <g id="ytick_21">
     <g id="line2d_62">
      <g>
       <use xlink:href="#m8951cf871d" x="162.377603" y="221.503222" style="stroke: #000000; stroke-width: 0.6"/>
      </g>
     </g>
    </g>
    <g id="ytick_22">
     <g id="line2d_63">
      <g>
       <use xlink:href="#m8951cf871d" x="162.377603" y="206.722571" style="stroke: #000000; stroke-width: 0.6"/>
      </g>
     </g>
    </g>
    <g id="ytick_23">
     <g id="line2d_64">
      <g>
       <use xlink:href="#m8951cf871d" x="162.377603" y="199.332246" style="stroke: #000000; stroke-width: 0.6"/>
      </g>
     </g>
    </g>
    <g id="ytick_24">
     <g id="line2d_65">
      <g>
       <use xlink:href="#m8951cf871d" x="162.377603" y="191.94192" style="stroke: #000000; stroke-width: 0.6"/>
      </g>
     </g>
    </g>
    <g id="ytick_25">
     <g id="line2d_66">
      <g>
       <use xlink:href="#m8951cf871d" x="162.377603" y="184.551595" style="stroke: #000000; stroke-width: 0.6"/>
      </g>
     </g>
    </g>
    <g id="ytick_26">
     <g id="line2d_67">
      <g>
       <use xlink:href="#m8951cf871d" x="162.377603" y="169.770944" style="stroke: #000000; stroke-width: 0.6"/>
      </g>
     </g>
    </g>
    <g id="ytick_27">
     <g id="line2d_68">
      <g>
       <use xlink:href="#m8951cf871d" x="162.377603" y="162.380618" style="stroke: #000000; stroke-width: 0.6"/>
      </g>
     </g>
    </g>
    <g id="ytick_28">
     <g id="line2d_69">
      <g>
       <use xlink:href="#m8951cf871d" x="162.377603" y="154.990293" style="stroke: #000000; stroke-width: 0.6"/>
      </g>
     </g>
    </g>
    <g id="ytick_29">
     <g id="line2d_70">
      <g>
       <use xlink:href="#m8951cf871d" x="162.377603" y="147.599967" style="stroke: #000000; stroke-width: 0.6"/>
      </g>
     </g>
    </g>
    <g id="ytick_30">
     <g id="line2d_71">
      <g>
       <use xlink:href="#m8951cf871d" x="162.377603" y="132.819317" style="stroke: #000000; stroke-width: 0.6"/>
      </g>
     </g>
    </g>
    <g id="ytick_31">
     <g id="line2d_72">
      <g>
       <use xlink:href="#m8951cf871d" x="162.377603" y="125.428991" style="stroke: #000000; stroke-width: 0.6"/>
      </g>
     </g>
    </g>
    <g id="ytick_32">
     <g id="line2d_73">
      <g>
       <use xlink:href="#m8951cf871d" x="162.377603" y="118.038666" style="stroke: #000000; stroke-width: 0.6"/>
      </g>
     </g>
    </g>
    <g id="ytick_33">
     <g id="line2d_74">
      <g>
       <use xlink:href="#m8951cf871d" x="162.377603" y="110.64834" style="stroke: #000000; stroke-width: 0.6"/>
      </g>
     </g>
    </g>
    <g id="ytick_34">
     <g id="line2d_75">
      <g>
       <use xlink:href="#m8951cf871d" x="162.377603" y="95.867689" style="stroke: #000000; stroke-width: 0.6"/>
      </g>
     </g>
    </g>
    <g id="ytick_35">
     <g id="line2d_76">
      <g>
       <use xlink:href="#m8951cf871d" x="162.377603" y="88.477364" style="stroke: #000000; stroke-width: 0.6"/>
      </g>
     </g>
    </g>
    <g id="ytick_36">
     <g id="line2d_77">
      <g>
       <use xlink:href="#m8951cf871d" x="162.377603" y="81.087038" style="stroke: #000000; stroke-width: 0.6"/>
      </g>
     </g>
    </g>
    <g id="ytick_37">
     <g id="line2d_78">
      <g>
       <use xlink:href="#m8951cf871d" x="162.377603" y="73.696713" style="stroke: #000000; stroke-width: 0.6"/>
      </g>
     </g>
    </g>
    <g id="ytick_38">
     <g id="line2d_79">
      <g>
       <use xlink:href="#m8951cf871d" x="162.377603" y="58.916062" style="stroke: #000000; stroke-width: 0.6"/>
      </g>
     </g>
    </g>
    <g id="ytick_39">
     <g id="line2d_80">
      <g>
       <use xlink:href="#m8951cf871d" x="162.377603" y="51.525737" style="stroke: #000000; stroke-width: 0.6"/>
      </g>
     </g>
    </g>
    <g id="ytick_40">
     <g id="line2d_81">
      <g>
       <use xlink:href="#m8951cf871d" x="162.377603" y="44.135411" style="stroke: #000000; stroke-width: 0.6"/>
      </g>
     </g>
    </g>
    <g id="ytick_41">
     <g id="line2d_82">
      <g>
       <use xlink:href="#m8951cf871d" x="162.377603" y="36.745086" style="stroke: #000000; stroke-width: 0.6"/>
      </g>
     </g>
    </g>
    <g id="text_18">
     <!-- $y$ -->
     <g transform="translate(158.377603 12.0825) scale(0.16 -0.16)">
      <defs>
       <path id="Cmmi10-79" d="M 538 -916 
Q 672 -1147 1006 -1147 
Q 1309 -1147 1531 -934 
Q 1753 -722 1889 -420 
Q 2025 -119 2100 197 
Q 1816 -72 1484 -72 
Q 1231 -72 1053 15 
Q 875 103 776 276 
Q 678 450 678 697 
Q 678 906 734 1126 
Q 791 1347 892 1617 
Q 994 1888 1069 2088 
Q 1153 2322 1153 2472 
Q 1153 2663 1013 2663 
Q 759 2663 595 2402 
Q 431 2141 353 1819 
Q 341 1778 300 1778 
L 225 1778 
Q 172 1778 172 1838 
L 172 1856 
Q 275 2238 487 2533 
Q 700 2828 1025 2828 
Q 1253 2828 1411 2678 
Q 1569 2528 1569 2297 
Q 1569 2178 1516 2047 
Q 1488 1969 1388 1706 
Q 1288 1444 1234 1272 
Q 1181 1100 1147 934 
Q 1113 769 1113 603 
Q 1113 391 1203 244 
Q 1294 97 1491 97 
Q 1888 97 2203 581 
L 2688 2553 
Q 2709 2638 2787 2698 
Q 2866 2759 2956 2759 
Q 3034 2759 3092 2709 
Q 3150 2659 3150 2578 
Q 3150 2541 3144 2528 
L 2509 -19 
Q 2425 -347 2200 -647 
Q 1975 -947 1658 -1130 
Q 1341 -1313 997 -1313 
Q 831 -1313 668 -1248 
Q 506 -1184 406 -1056 
Q 306 -928 306 -756 
Q 306 -581 409 -453 
Q 513 -325 684 -325 
Q 788 -325 858 -389 
Q 928 -453 928 -556 
Q 928 -703 818 -812 
Q 709 -922 563 -922 
Q 556 -919 550 -917 
Q 544 -916 538 -916 
z
" transform="scale(0.015625)"/>
      </defs>
      <use xlink:href="#Cmmi10-79" transform="translate(0 0.8125)"/>
     </g>
    </g>
   </g>
   <g id="line2d_83">
    <path d="M 199.32923 177.161269 
L 199.203967 174.121263 
L 198.786863 170.853456 
L 198.076993 167.62312 
L 196.989399 164.221166 
L 195.691843 161.17427 
L 194.782921 159.404071 
L 193.462025 157.181744 
L 191.84631 154.867368 
L 190.216941 152.863245 
L 187.445637 150.013223 
L 185.259864 148.147051 
L 183.250258 146.669385 
L 180.455243 144.933615 
L 178.126481 143.733802 
L 175.054489 142.452203 
L 172.118455 141.516655 
L 170.249702 141.057906 
L 166.851439 140.481472 
L 164.979266 140.301344 
L 161.016699 140.234711 
L 157.213455 140.572277 
L 154.887134 140.976802 
L 152.059605 141.679419 
L 149.973928 142.353632 
L 146.554667 143.768793 
L 143.634381 145.316106 
L 141.504726 146.669537 
L 138.331067 149.104419 
L 135.933624 151.351606 
L 134.581332 152.813988 
L 132.665602 155.192661 
L 131.550798 156.786509 
L 130.024567 159.30899 
L 128.736372 161.874335 
L 127.906151 163.851808 
L 126.757142 167.332459 
L 126.185361 169.708457 
L 125.832183 171.697291 
L 125.517318 174.564695 
L 125.427862 177.534662 
L 125.610973 180.854196 
L 126.06974 184.028721 
L 126.799003 187.14055 
L 127.654379 189.799326 
L 128.940164 192.888967 
L 130.29183 195.489552 
L 132.127232 198.382434 
L 134.429977 201.334663 
L 136.089088 203.129264 
L 138.131329 205.04569 
L 140.063475 206.614664 
L 142.251767 208.151162 
L 144.404987 209.447611 
L 146.866069 210.699532 
L 150.160067 212.034677 
L 153.897094 213.126582 
L 156.816394 213.692019 
L 160.041896 214.039003 
L 162.094123 214.111809 
L 164.416761 214.056589 
L 168.209191 213.649834 
L 170.922686 213.111294 
L 173.258078 212.474694 
L 175.50738 211.70156 
L 178.701867 210.311551 
L 181.054411 209.045428 
L 183.139116 207.728937 
L 185.715234 205.810488 
L 188.31546 203.479519 
L 189.920313 201.795023 
L 192.260297 198.897123 
L 193.472333 197.124749 
L 194.561622 195.316479 
L 196.203365 192.035427 
L 197.373837 189.022396 
L 198.240994 186.06295 
L 198.79396 183.427979 
L 199.203106 180.211693 
L 199.32923 177.161269 
L 199.32923 177.161269 
" clip-path="url(#p866be91953)" style="fill: none; stroke-dasharray: 3.7,1.6; stroke-dashoffset: 0; stroke: #808080"/>
   </g>
   <g id="line2d_84">
    <path d="M 236.280857 177.161269 
L 236.212821 173.990841 
L 235.83176 169.026299 
L 235.118892 164.107695 
L 234.132781 159.472702 
L 232.970371 155.290009 
L 231.832345 151.907957 
L 230.467832 148.431291 
L 228.570567 144.29514 
L 226.977318 141.264643 
L 225.100904 138.078299 
L 222.788434 134.591064 
L 219.824995 130.669462 
L 216.755887 127.114359 
L 214.213447 124.485503 
L 210.280844 120.885427 
L 207.141045 118.357143 
L 204.08003 116.148167 
L 201.389524 114.393754 
L 196.620491 111.669929 
L 193.188959 109.987232 
L 188.338405 107.967861 
L 184.722401 106.716958 
L 181.321944 105.727363 
L 175.837376 104.494045 
L 171.958531 103.881689 
L 166.458988 103.3708 
L 160.649252 103.278228 
L 156.514456 103.49096 
L 152.480852 103.923674 
L 148.608931 104.55194 
L 146.603235 104.961128 
L 141.738843 106.198373 
L 136.540406 107.921611 
L 133.074917 109.315535 
L 130.058561 110.699472 
L 126.912759 112.323503 
L 124.683276 113.593756 
L 119.979121 116.629791 
L 116.600352 119.142873 
L 113.452695 121.771339 
L 111.041873 123.997994 
L 107.263632 127.9257 
L 104.538378 131.157844 
L 102.71322 133.551036 
L 100.420196 136.875158 
L 97.958074 140.942277 
L 95.804368 145.072401 
L 93.8837 149.407417 
L 92.563516 152.919069 
L 90.940156 158.230284 
L 89.88938 162.768609 
L 89.336596 165.905056 
L 88.824279 169.977979 
L 88.616448 172.580545 
L 88.474377 177.095498 
L 88.616956 181.750174 
L 88.946054 185.497857 
L 89.623468 190.143059 
L 90.286517 193.426766 
L 91.392564 197.723744 
L 92.706736 201.812057 
L 93.835062 204.794784 
L 95.648208 208.924124 
L 97.076309 211.7652 
L 99.12831 215.38715 
L 101.712617 219.368502 
L 103.448919 221.760611 
L 107.015156 226.117276 
L 109.943177 229.241227 
L 112.449366 231.648535 
L 116.036248 234.730096 
L 119.368976 237.260762 
L 122.509527 239.388494 
L 126.646258 241.852552 
L 130.664776 243.914454 
L 134.330803 245.535739 
L 139.303231 247.369989 
L 143.583773 248.634922 
L 147.722704 249.59693 
L 149.426923 249.920948 
L 154.267307 250.618155 
L 159.418105 251.005243 
L 163.085369 251.061134 
L 165.973773 250.976976 
L 170.530174 250.613475 
L 176.673036 249.668728 
L 180.810295 248.728908 
L 185.289025 247.423334 
L 190.02728 245.697292 
L 190.657462 245.439674 
L 196.459551 242.736507 
L 200.348151 240.564175 
L 204.16052 238.119278 
L 207.017074 236.05956 
L 210.416369 233.321468 
L 214.013656 230.032896 
L 217.076781 226.857253 
L 220.164912 223.22989 
L 223.371173 218.892258 
L 225.570736 215.47992 
L 227.347315 212.383812 
L 229.364145 208.378159 
L 230.705651 205.320972 
L 232.41689 200.744933 
L 233.61101 196.846103 
L 234.769354 192.031552 
L 235.430512 188.339971 
L 235.800088 185.577305 
L 236.212582 180.337256 
L 236.280857 177.161269 
L 236.280857 177.161269 
" clip-path="url(#p866be91953)" style="fill: none; stroke-dasharray: 3.7,1.6; stroke-dashoffset: 0; stroke: #808080"/>
   </g>
   <g id="line2d_85">
    <path d="M 273.232484 177.161269 
L 273.13912 172.612524 
L 272.870084 168.204915 
L 272.199042 162.059739 
L 271.661164 158.562665 
L 270.744475 153.806918 
L 269.342504 148.052598 
L 268.23084 144.238681 
L 266.804746 139.962122 
L 265.023013 135.295717 
L 262.824291 130.264919 
L 261.263656 127.057843 
L 258.815813 122.49431 
L 256.147016 118.033425 
L 254.058534 114.844245 
L 251.013828 110.584815 
L 248.113523 106.889249 
L 244.072904 102.230084 
L 241.364448 99.380275 
L 237.518231 95.658565 
L 233.735378 92.326885 
L 229.041278 88.590624 
L 224.060492 85.052497 
L 219.99618 82.45697 
L 216.08558 80.185716 
L 210.464532 77.279078 
L 207.058674 75.70977 
L 202.779165 73.930854 
L 199.61042 72.746126 
L 196.179686 71.585591 
L 192.092727 70.363254 
L 187.821161 69.26581 
L 182.616379 68.169542 
L 177.022638 67.278023 
L 168.136997 66.456102 
L 160.467146 66.322851 
L 158.539422 66.372853 
L 152.89098 66.713052 
L 147.225135 67.346846 
L 145.285812 67.631933 
L 140.770367 68.43256 
L 135.298593 69.664609 
L 128.820499 71.507468 
L 124.203771 73.086472 
L 120.123548 74.675174 
L 113.742214 77.544987 
L 109.091689 79.953162 
L 103.722321 83.095533 
L 100.054252 85.484638 
L 95.47089 88.774072 
L 91.659797 91.792676 
L 86.855892 96.011555 
L 83.054202 99.723534 
L 78.834455 104.296001 
L 76.079452 107.580856 
L 72.016042 112.94606 
L 69.855235 116.100511 
L 66.544408 121.440505 
L 64.678406 124.781199 
L 62.606215 128.844864 
L 60.768381 132.840045 
L 59.014439 137.10055 
L 57.727224 140.59485 
L 56.082478 145.6946 
L 54.51356 151.584852 
L 53.366985 157.024485 
L 52.501898 162.459762 
L 51.970331 167.209429 
L 51.622593 172.456725 
L 51.527412 178.181084 
L 51.70847 183.575931 
L 52.054076 188.002132 
L 52.591468 192.517355 
L 53.253622 196.674386 
L 54.202809 201.389739 
L 55.58025 206.878778 
L 57.256766 212.352384 
L 59.054689 217.325686 
L 60.959584 221.918283 
L 62.85958 225.997403 
L 65.397537 230.861098 
L 67.828688 235.034472 
L 69.829545 238.183084 
L 73.065244 242.827908 
L 76.852379 247.689568 
L 80.403634 251.787493 
L 84.608951 256.160267 
L 88.937973 260.199968 
L 92.188063 262.964727 
L 97.094882 266.754635 
L 101.34371 269.701362 
L 104.564235 271.746782 
L 107.192498 273.303919 
L 111.258117 275.525912 
L 114.127757 276.964862 
L 118.553861 278.986043 
L 123.910536 281.128041 
L 129.959411 283.170069 
L 134.087928 284.345686 
L 140.970165 285.929492 
L 147.423883 287.002933 
L 149.378483 287.251358 
L 155.556625 287.806102 
L 161.626936 288.013609 
L 164.158921 288.001838 
L 172.113715 287.587774 
L 173.800951 287.426005 
L 182.655514 286.145723 
L 189.576835 284.627573 
L 194.864314 283.149091 
L 201.83006 280.758124 
L 207.384453 278.468664 
L 212.541059 276.016883 
L 217.78087 273.178365 
L 222.720667 270.153309 
L 226.350488 267.694549 
L 230.838666 264.350073 
L 234.874684 261.024121 
L 239.264255 257.018939 
L 242.599704 253.667604 
L 246.584289 249.258694 
L 250.14742 244.875846 
L 252.567461 241.617411 
L 255.422136 237.42336 
L 258.75192 231.940789 
L 260.561256 228.627521 
L 263.226874 223.185494 
L 265.828624 216.994559 
L 267.222433 213.166356 
L 268.377095 209.609882 
L 270.108883 203.291254 
L 271.319403 197.667096 
L 272.038607 193.386834 
L 272.517006 189.735715 
L 272.958841 184.945519 
L 273.208572 179.463667 
L 273.232484 177.161269 
L 273.232484 177.161269 
" clip-path="url(#p866be91953)" style="fill: none; stroke-dasharray: 3.7,1.6; stroke-dashoffset: 0; stroke: #808080"/>
   </g>
   <g id="line2d_86">
    <path d="M 310.184112 177.161269 
L 310.093869 171.997093 
L 309.6945 165.140623 
L 309.134172 159.575097 
L 308.487342 154.829497 
L 307.611513 149.704477 
L 306.641166 144.993143 
L 305.407032 139.887332 
L 303.633761 133.647342 
L 302.103637 128.959615 
L 300.135633 123.593656 
L 297.457218 117.159089 
L 295.221713 112.359985 
L 292.230606 106.557008 
L 289.923314 102.469533 
L 286.894287 97.522338 
L 283.278394 92.133258 
L 280.36238 88.131182 
L 276.66036 83.426455 
L 273.491243 79.690643 
L 270.208785 76.071209 
L 266.309831 72.066759 
L 261.136512 67.191083 
L 256.83992 63.479104 
L 252.77345 60.219596 
L 247.391257 56.250382 
L 241.129138 52.081456 
L 235.972981 48.979818 
L 233.053777 47.347393 
L 228.469946 44.954741 
L 223.876246 42.756355 
L 217.504388 40.019731 
L 209.117999 36.939661 
L 204.677877 35.536939 
L 199.27002 34.032958 
L 189.685607 31.899309 
L 180.886047 30.51816 
L 176.780703 30.058194 
L 170.085097 29.555854 
L 166.160392 29.403174 
L 159.10378 29.391021 
L 155.353112 29.521774 
L 148.331814 30.023647 
L 142.360603 30.716454 
L 138.854635 31.23857 
L 134.315481 32.043106 
L 125.991368 33.903439 
L 122.047559 34.963338 
L 114.897656 37.188348 
L 112.184296 38.138264 
L 106.780815 40.209594 
L 99.945107 43.187587 
L 95.800002 45.198444 
L 88.863287 48.93331 
L 83.589662 52.104384 
L 78.138547 55.709445 
L 72.391857 59.903734 
L 67.836419 63.544683 
L 62.27271 68.414892 
L 58.04968 72.459557 
L 52.941918 77.810402 
L 50.037344 81.106959 
L 46.739464 85.10376 
L 42.87704 90.17633 
L 39.701249 94.715673 
L 36.522451 99.654851 
L 33.469058 104.847016 
L 29.883462 111.647402 
L 27.132321 117.53344 
L 24.795587 123.143188 
L 22.438048 129.583071 
L 20.703975 135.026399 
L 18.725885 142.362588 
L 17.373664 148.514771 
L 16.461247 153.598983 
L 15.702275 158.909905 
L 14.997019 165.948432 
L 14.667652 171.819499 
L 14.571781 177.611974 
L 14.707139 183.501473 
L 15.051909 189.073619 
L 15.720129 195.555546 
L 16.671416 201.990109 
L 17.912175 208.410337 
L 19.410452 214.673373 
L 21.077085 220.530932 
L 22.67289 225.424687 
L 24.670261 230.859054 
L 26.858873 236.16498 
L 29.549645 241.995657 
L 31.63338 246.101187 
L 34.218625 250.795776 
L 36.291832 254.291954 
L 39.174245 258.817236 
L 43.011424 264.330526 
L 45.901057 268.155656 
L 50.032543 273.209963 
L 53.964391 277.626883 
L 58.519792 282.329321 
L 63.466234 286.994348 
L 68.400978 291.245265 
L 73.852008 295.525044 
L 76.952976 297.782151 
L 82.823908 301.732429 
L 90.343335 306.226479 
L 93.826098 308.109562 
L 101.431539 311.817652 
L 109.383776 315.141045 
L 112.543504 316.31344 
L 120.953847 319.044449 
L 125.196155 320.21477 
L 129.840581 321.34208 
L 137.132691 322.795944 
L 143.297605 323.731108 
L 148.936196 324.355334 
L 153.19426 324.682218 
L 161.014843 324.961496 
L 167.948952 324.862739 
L 171.413794 324.691304 
L 177.764251 324.164722 
L 185.06993 323.215445 
L 192.753605 321.81279 
L 196.583798 320.95522 
L 205.42193 318.561234 
L 209.472274 317.264288 
L 215.331778 315.156267 
L 221.736635 312.52474 
L 227.87964 309.661259 
L 233.702862 306.619647 
L 239.45031 303.282488 
L 244.002703 300.385078 
L 248.381598 297.369742 
L 252.960231 293.958322 
L 258.208522 289.692149 
L 262.990383 285.437917 
L 268.193736 280.358702 
L 272.541505 275.704045 
L 276.237914 271.408781 
L 280.233253 266.362221 
L 283.129597 262.400462 
L 286.103449 258.023368 
L 288.695097 253.91187 
L 291.41188 249.250931 
L 294.781849 242.856623 
L 297.254787 237.617113 
L 299.614561 232.050079 
L 301.945112 225.820024 
L 303.283532 221.796268 
L 304.902298 216.320884 
L 306.368859 210.527154 
L 307.588818 204.737836 
L 308.805132 197.304324 
L 309.451061 191.863715 
L 309.895126 186.399469 
L 310.154106 180.139359 
L 310.184112 177.161269 
L 310.184112 177.161269 
" clip-path="url(#p866be91953)" style="fill: none; stroke-dasharray: 3.7,1.6; stroke-dashoffset: 0; stroke: #808080"/>
   </g>
   <g id="line2d_87">
    <path d="M 337.436372 118.117718 
L 335.118353 111.61585 
L 333.269635 106.936757 
L 330.789414 101.180807 
L 328.005973 95.290568 
L 324.279559 88.148206 
L 320.803361 82.098933 
L 317.163841 76.281196 
L 312.775373 69.848271 
L 308.185178 63.690041 
L 302.97664 57.296848 
L 298.314694 52.034629 
L 293.098674 46.594925 
L 288.645631 42.283718 
L 284.085131 38.154627 
L 278.0478 33.091931 
L 272.605137 28.886324 
L 266.49289 24.532387 
L 263.260718 22.377013 
L 256.249636 18.027331 
L 251.396308 15.262415 
L 243.568873 11.198784 
L 237.031106 8.157059 
L 230.456278 5.403117 
L 220.797994 1.882558 
L 213.187293 -0.47303 
L 211.220227 -1 
M 113.50665 -1 
L 111.00251 -0.310331 
L 103.57836 2.009284 
L 100.065992 3.227856 
L 95.180148 5.056444 
L 89.216502 7.50567 
L 82.245769 10.68467 
L 75.19703 14.265239 
L 68.185474 18.216588 
L 60.565917 22.986208 
L 55.251885 26.630045 
L 49.518601 30.8793 
L 43.942341 35.356271 
L 40.360834 38.425993 
L 34.75195 43.567625 
L 29.222384 49.078263 
L 25.045628 53.567186 
L 20.810641 58.441581 
L 16.66956 63.562259 
L 12.309226 69.388122 
L 9.286904 73.726233 
L 6.035136 78.710255 
L 2.115897 85.227845 
L -1 90.89158 
M -1 263.415456 
L 1.256011 267.579196 
L 4.347594 272.880051 
L 7.582592 278.027881 
L 11.004411 283.093917 
L 14.425558 287.821837 
L 18.680122 293.293104 
L 22.19769 297.515583 
L 27.203313 303.111578 
L 32.203952 308.273395 
L 37.183861 313.036565 
L 41.746617 317.103165 
L 47.004514 321.468647 
L 51.772893 325.155077 
L 57.466937 329.24454 
L 61.983014 332.262834 
L 69.806488 337.055477 
L 73.396724 339.080038 
M 251.331475 339.080038 
L 252.806268 338.276835 
L 256.890491 335.915428 
L 263.988826 331.468522 
L 270.490366 326.985164 
L 275.764568 323.034382 
L 281.74029 318.186507 
L 287.085534 313.482584 
L 289.922742 310.831783 
L 294.738342 306.065123 
L 299.711741 300.752949 
L 305.310672 294.232643 
L 310.314475 287.84212 
L 314.519239 281.987274 
L 317.960049 276.809005 
L 321.719489 270.679888 
L 325.789027 263.371913 
L 329.014623 256.958965 
L 331.271296 252.064468 
L 333.598363 246.580431 
L 336.040155 240.223831 
L 337.436372 236.228402 
L 337.436372 236.228402 
" clip-path="url(#p866be91953)" style="fill: none; stroke-dasharray: 3.7,1.6; stroke-dashoffset: 0; stroke: #808080"/>
   </g>
   <g id="line2d_88">
    <path d="M 162.377603 177.161269 
L 337.436372 104.649553 
" clip-path="url(#p866be91953)" style="fill: none; stroke: #808080; stroke-linecap: square"/>
   </g>
   <g id="line2d_89">
    <path d="M 162.377603 177.161269 
L 319.15008 20.388792 
" clip-path="url(#p866be91953)" style="fill: none; stroke: #808080; stroke-linecap: square"/>
   </g>
   <g id="line2d_90">
    <path d="M 162.377603 177.161269 
L 236.174417 -1 
" clip-path="url(#p866be91953)" style="fill: none; stroke: #808080; stroke-linecap: square"/>
   </g>
   <g id="line2d_91">
    <path d="M 162.377603 177.161269 
L 162.377603 -1 
" clip-path="url(#p866be91953)" style="fill: none; stroke: #808080; stroke-linecap: square"/>
   </g>
   <g id="line2d_92">
    <path d="M 162.377603 177.161269 
L 88.580789 -1 
" clip-path="url(#p866be91953)" style="fill: none; stroke: #808080; stroke-linecap: square"/>
   </g>
   <g id="line2d_93">
    <path d="M 162.377603 177.161269 
L 5.605126 20.388792 
" clip-path="url(#p866be91953)" style="fill: none; stroke: #808080; stroke-linecap: square"/>
   </g>
   <g id="line2d_94">
    <path d="M 162.377603 177.161269 
L -1 109.48805 
" clip-path="url(#p866be91953)" style="fill: none; stroke: #808080; stroke-linecap: square"/>
   </g>
   <g id="line2d_95">
    <path d="M 162.377603 177.161269 
L -1 177.161269 
" clip-path="url(#p866be91953)" style="fill: none; stroke: #808080; stroke-linecap: square"/>
   </g>
   <g id="line2d_96">
    <path d="M 162.377603 177.161269 
L -1 244.834488 
" clip-path="url(#p866be91953)" style="fill: none; stroke: #808080; stroke-linecap: square"/>
   </g>
   <g id="line2d_97">
    <path d="M 162.377603 177.161269 
L 5.605126 333.933746 
" clip-path="url(#p866be91953)" style="fill: none; stroke: #808080; stroke-linecap: square"/>
   </g>
   <g id="line2d_98">
    <path d="M 162.377603 177.161269 
L 95.308652 339.080038 
" clip-path="url(#p866be91953)" style="fill: none; stroke: #808080; stroke-linecap: square"/>
   </g>
   <g id="line2d_99">
    <path d="M 162.377603 177.161269 
L 162.377603 339.080038 
" clip-path="url(#p866be91953)" style="fill: none; stroke: #808080; stroke-linecap: square"/>
   </g>
   <g id="line2d_100">
    <path d="M 162.377603 177.161269 
L 229.446553 339.080038 
" clip-path="url(#p866be91953)" style="fill: none; stroke: #808080; stroke-linecap: square"/>
   </g>
   <g id="line2d_101">
    <path d="M 162.377603 177.161269 
L 319.15008 333.933746 
" clip-path="url(#p866be91953)" style="fill: none; stroke: #808080; stroke-linecap: square"/>
   </g>
   <g id="line2d_102">
    <path d="M 162.377603 177.161269 
L 337.436372 249.672986 
" clip-path="url(#p866be91953)" style="fill: none; stroke: #808080; stroke-linecap: square"/>
   </g>
   <g id="patch_3">
    <path d="M 162.377603 330.880038 
L 162.377603 23.4425 
" style="fill: none; stroke: #000000; stroke-width: 0.8; stroke-linejoin: miter; stroke-linecap: square"/>
   </g>
   <g id="patch_4">
    <path d="M 8.658833 177.161269 
L 316.096372 177.161269 
" style="fill: none; stroke: #000000; stroke-width: 0.8; stroke-linejoin: miter; stroke-linecap: square"/>
   </g>
  </g>
 </g>
 <defs>
  <clipPath id="p866be91953">
   <rect x="8.658833" y="23.4425" width="307.437538" height="307.437538"/>
  </clipPath>
 </defs>
</svg>
