<?xml version="1.0" encoding="utf-8" standalone="no"?>
<!DOCTYPE svg PUBLIC "-//W3C//DTD SVG 1.1//EN"
  "http://www.w3.org/Graphics/SVG/1.1/DTD/svg11.dtd">
<svg xmlns:xlink="http://www.w3.org/1999/xlink" width="338.4pt" height="338.4pt" viewBox="0 0 338.4 338.4" xmlns="http://www.w3.org/2000/svg" version="1.1">
 <metadata>
  <rdf:RDF xmlns:dc="http://purl.org/dc/elements/1.1/" xmlns:cc="http://creativecommons.org/ns#" xmlns:rdf="http://www.w3.org/1999/02/22-rdf-syntax-ns#">
   <cc:Work>
    <dc:type rdf:resource="http://purl.org/dc/dcmitype/StillImage"/>
    <dc:date>2025-09-11T16:30:16.884817</dc:date>
    <dc:format>image/svg+xml</dc:format>
    <dc:creator>
     <cc:Agent>
      <dc:title>Matplotlib v3.10.3, https://matplotlib.org/</dc:title>
     </cc:Agent>
    </dc:creator>
   </cc:Work>
  </rdf:RDF>
 </metadata>
 <defs>
  <style type="text/css">*{stroke-linejoin: round; stroke-linecap: butt}</style>
 </defs>
 <g id="figure_1">
  <g id="patch_1">
   <path d="M -0 338.4 
L 338.4 338.4 
L 338.4 0 
L -0 0 
z
" style="fill: #ffffff"/>
  </g>
  <g id="axes_1">
   <g id="patch_2">
    <path d="M 7.2 331.2 
L 331.2 331.2 
L 331.2 7.2 
L 7.2 7.2 
z
" style="fill: #ffffff"/>
   </g>
   <g id="patch_3">
    <path d="M 193.33247 175.873631 
L 190.758 180.592396 
L 188.533602 185.779414 
L 186.588425 191.379874 
L 184.847081 197.33415 
L 183.23258 203.577802 
L 181.669238 210.041807 
L 180.085405 216.653112 
L 178.415893 223.335551 
L 176.603979 230.011139 
L 174.602869 236.601692 
L 172.37658 243.030705 
L 169.900184 249.225367 
L 167.15946 255.118598 
L 164.149994 260.650959 
L 160.875843 265.772345 
L 157.347886 270.443335 
L 153.582023 274.636162 
L 149.597354 278.335258 
L 145.414506 281.537367 
L 141.054207 284.251274 
L 136.536199 286.497165 
L 131.878555 288.3057 
L 127.09738 289.716821 
L 122.206906 290.778383 
L 117.219889 291.544619 
L 117.219889 291.544619 
L 116.110044 288.276552 
L 114.897324 285.045248 
L 113.582944 281.853943 
L 112.168221 278.705836 
L 110.654573 275.604081 
L 109.043516 272.551784 
L 107.336665 269.552005 
L 105.535728 266.607749 
L 103.642512 263.721965 
L 101.658912 260.897545 
L 99.586916 258.137318 
L 97.428599 255.444051 
L 95.186126 252.820441 
L 92.861741 250.269118 
L 90.457773 247.792636 
L 87.976633 245.393479 
L 85.420804 243.074048 
L 82.792849 240.836668 
L 80.095399 238.683582 
L 77.331158 236.616945 
L 74.502895 234.638828 
L 71.613443 232.751214 
L 68.665698 230.955994 
L 65.662613 229.254965 
L 62.607196 227.649833 
L 62.607196 227.649833 
L 65.035371 223.292158 
L 67.392774 218.898816 
L 69.668231 214.463845 
L 71.85079 209.981632 
L 73.929769 205.446995 
L 75.894812 200.855263 
L 77.735943 196.202345 
L 79.443625 191.484795 
L 81.008821 186.699867 
L 82.423057 181.84556 
L 83.678487 176.920648 
L 84.767962 171.924707 
L 85.6851 166.858123 
L 86.424351 161.722087 
L 86.981074 156.518584 
L 87.351602 151.25036 
L 87.533306 145.920886 
L 87.524663 140.534299 
L 87.325308 135.095345 
L 86.93609 129.609302 
L 86.359116 124.081895 
L 85.597784 118.519208 
L 84.656812 112.927589 
L 83.54225 107.313545 
L 82.261489 101.683647 
L 82.261489 101.683647 
L 87.420439 103.339701 
L 92.539602 105.114933 
L 97.616226 107.008389 
L 102.647579 109.01905 
L 107.630958 111.145836 
L 112.563682 113.387602 
L 117.443098 115.743144 
L 122.266583 118.211195 
L 127.031543 120.790427 
L 131.735416 123.479453 
L 136.375672 126.276828 
L 140.949815 129.181048 
L 145.455387 132.190549 
L 149.889965 135.303715 
L 154.251163 138.518872 
L 158.536637 141.834289 
L 162.744083 145.248185 
L 166.871237 148.758724 
L 170.91588 152.364017 
L 174.875838 156.062127 
L 178.74898 159.851064 
L 182.533225 163.728792 
L 186.226538 167.693224 
L 189.826931 171.74223 
z
" clip-path="url(#p807b94ef10)" style="fill: #add8e6; stroke: #000000; stroke-linejoin: miter"/>
   </g>
   <g id="matplotlib.axis_1"/>
   <g id="matplotlib.axis_2"/>
   <g id="line2d_1">
    <path d="M 137.299362 286.154172 
L 135.579966 281.041895 
L 133.780712 276.328423 
L 131.588408 271.221586 
L 129.385788 266.62139 
L 126.965691 262.041824 
L 124.105728 257.137892 
L 121.470903 253.015311 
L 118.562052 248.82824 
L 115.299409 244.515411 
L 112.128309 240.655337 
L 108.305993 236.376179 
L 104.358649 232.329295 
L 100.351279 228.559366 
L 96.077055 224.871137 
L 91.933301 221.589399 
L 87.477709 218.352686 
L 83.060047 215.416501 
L 78.408436 212.595124 
L 73.637736 209.968543 
L 72.204764 209.229633 
L 72.204764 209.229633 
" clip-path="url(#p807b94ef10)" style="fill: none; stroke-dasharray: 7.4,3.2; stroke-dashoffset: 0; stroke: #808080; stroke-width: 2"/>
   </g>
   <g id="line2d_2">
    <path d="M 154.862613 273.292897 
L 152.792707 267.945903 
L 150.486279 262.605803 
L 148.064522 257.536579 
L 145.36979 252.405434 
L 142.315231 247.109066 
L 139.20268 242.175292 
L 136.246524 237.850346 
L 133.118285 233.600154 
L 129.287369 228.788889 
L 125.752474 224.683417 
L 121.865693 220.493027 
L 118.176269 216.794418 
L 113.749719 212.67712 
L 109.145717 208.72785 
L 104.596504 205.126757 
L 100.17002 201.885064 
L 95.610489 198.795131 
L 90.855526 195.822737 
L 85.446748 192.730399 
L 80.24546 190.027736 
L 79.981619 189.89742 
L 79.981619 189.89742 
" clip-path="url(#p807b94ef10)" style="fill: none; stroke-dasharray: 7.4,3.2; stroke-dashoffset: 0; stroke: #808080; stroke-width: 2"/>
   </g>
   <g id="line2d_3">
    <path d="M 168.563355 252.213577 
L 165.935142 246.85444 
L 163.118009 241.583173 
L 160.100467 236.38309 
L 156.683129 230.957179 
L 153.259692 225.93703 
L 149.671366 221.055785 
L 145.658975 215.995812 
L 142.039846 211.747282 
L 137.979369 207.295314 
L 133.619079 202.845217 
L 129.413586 198.84433 
L 124.911759 194.848159 
L 120.018572 190.810575 
L 115.290886 187.186717 
L 109.996021 183.425398 
L 105.047666 180.173345 
L 99.729479 176.942081 
L 94.231298 173.870657 
L 88.736991 171.058616 
L 85.24844 169.40019 
L 85.24844 169.40019 
" clip-path="url(#p807b94ef10)" style="fill: none; stroke-dasharray: 7.4,3.2; stroke-dashoffset: 0; stroke: #808080; stroke-width: 2"/>
   </g>
   <g id="line2d_4">
    <path d="M 177.83027 225.565383 
L 174.28062 219.918545 
L 170.500001 214.345646 
L 166.703318 209.142435 
L 162.789095 204.137068 
L 159.067439 199.676448 
L 154.582803 194.644926 
L 149.925876 189.775271 
L 145.070357 185.043036 
L 140.447807 180.833902 
L 135.306542 176.461261 
L 130.159641 172.382562 
L 124.921405 168.514256 
L 119.342216 164.684838 
L 113.770119 161.139026 
L 107.912137 157.692238 
L 102.446696 154.720925 
L 96.425742 151.705976 
L 90.741163 149.095912 
L 87.493836 147.70394 
L 87.493836 147.70394 
" clip-path="url(#p807b94ef10)" style="fill: none; stroke-dasharray: 7.4,3.2; stroke-dashoffset: 0; stroke: #808080; stroke-width: 2"/>
   </g>
   <g id="line2d_5">
    <path d="M 184.571264 198.356473 
L 180.190982 192.640508 
L 175.704009 187.174982 
L 171.224054 182.066681 
L 166.898509 177.431058 
L 162.120861 172.617283 
L 156.950024 167.736654 
L 151.754497 163.147088 
L 146.565527 158.851815 
L 141.168993 154.66713 
L 135.661425 150.671995 
L 129.689433 146.633081 
L 124.198241 143.171468 
L 118.3852 139.754688 
L 112.817027 136.708159 
L 106.7196 133.613401 
L 100.247569 130.591499 
L 94.070539 127.948707 
L 88.200275 125.646928 
L 86.468189 125.005747 
L 86.468189 125.005747 
" clip-path="url(#p807b94ef10)" style="fill: none; stroke-dasharray: 7.4,3.2; stroke-dashoffset: 0; stroke: #808080; stroke-width: 2"/>
   </g>
   <g id="line2d_6">
    <path d="M 122.461951 323.709261 
L 122.288145 318.687689 
L 121.927211 314.110681 
L 121.353552 309.410985 
L 120.62928 305.022665 
L 119.587393 300.066271 
L 118.403101 295.47015 
L 116.816561 290.317187 
L 115.063371 285.46986 
L 113.128873 280.814115 
L 110.866932 276.024564 
L 108.632016 271.808073 
L 105.946859 267.261699 
L 103.168003 263.028815 
L 100.473846 259.296643 
L 97.127097 255.081387 
L 93.638398 251.103661 
L 90.331743 247.667055 
L 86.389811 243.936125 
L 82.480918 240.580469 
L 78.97247 237.827556 
L 74.435698 234.593433 
L 70.145733 231.841367 
L 65.658247 229.252583 
L 61.114715 226.909925 
L 56.692211 224.880102 
L 52.187436 223.051093 
L 47.440237 221.370282 
L 42.451374 219.863614 
L 37.596676 218.6424 
L 32.96172 217.69422 
L 31.650956 217.463831 
L 31.650956 217.463831 
" clip-path="url(#p807b94ef10)" style="fill: none; stroke-dasharray: 7.4,3.2; stroke-dashoffset: 0; stroke: #808080; stroke-width: 2"/>
   </g>
   <g id="line2d_7">
    <path d="M 229.358191 235.697352 
L 226.47808 229.026732 
L 223.912884 223.522697 
L 220.604978 216.927724 
L 217.253092 210.730094 
L 213.677789 204.573006 
L 209.542663 197.948583 
L 205.900394 192.494465 
L 201.338198 186.099083 
L 196.477052 179.751538 
L 192.304683 174.642111 
L 187.520801 169.127065 
L 182.770208 163.977696 
L 178.292791 159.395581 
L 172.749752 154.055271 
L 168.083004 149.821276 
L 162.307751 144.886572 
L 156.607795 140.322381 
L 150.391937 135.665881 
L 145.081216 131.93483 
L 139.685483 128.363363 
L 132.930254 124.185783 
L 127.708768 121.168694 
L 120.815445 117.453807 
L 114.768323 114.434625 
L 107.637766 111.148835 
L 100.442253 108.121078 
L 94.310503 105.760224 
L 87.617514 103.40559 
L 81.342095 101.402302 
L 74.551949 99.451335 
L 66.815964 97.495846 
L 59.66287 95.934926 
L 52.664143 94.63282 
L 45.25044 93.492173 
L 38.731421 92.689234 
L 30.327962 91.927164 
L 23.316364 91.524602 
L 17.89465 91.358029 
L 13.201865 91.315497 
L 13.201865 91.315497 
" clip-path="url(#p807b94ef10)" style="fill: none; stroke-dasharray: 7.4,3.2; stroke-dashoffset: 0; stroke: #808080; stroke-width: 2"/>
   </g>
   <g id="patch_4">
    <path d="M 13.430769 331.2 
L 13.430769 7.2 
" style="fill: none; stroke: #000000; stroke-width: 0.8; stroke-linejoin: miter; stroke-linecap: square"/>
   </g>
   <g id="patch_5">
    <path d="M 7.2 324.969231 
L 331.2 324.969231 
" style="fill: none; stroke: #000000; stroke-width: 0.8; stroke-linejoin: miter; stroke-linecap: square"/>
   </g>
   <g id="text_1">
    <!-- $r=c$ -->
    <g style="fill: #808080" transform="translate(60.588462 266.800601) scale(0.15 -0.15)">
     <defs>
      <path id="Cmmi10-72" d="M 494 109 
Q 494 147 500 166 
L 978 2075 
Q 1025 2253 1025 2388 
Q 1025 2663 838 2663 
Q 638 2663 541 2423 
Q 444 2184 353 1819 
Q 353 1800 334 1789 
Q 316 1778 300 1778 
L 225 1778 
Q 203 1778 187 1801 
Q 172 1825 172 1844 
Q 241 2122 305 2315 
Q 369 2509 505 2668 
Q 641 2828 844 2828 
Q 1066 2828 1233 2700 
Q 1400 2572 1441 2363 
Q 1603 2575 1811 2701 
Q 2019 2828 2266 2828 
Q 2469 2828 2623 2709 
Q 2778 2591 2778 2388 
Q 2778 2225 2676 2104 
Q 2575 1984 2406 1984 
Q 2303 1984 2233 2048 
Q 2163 2113 2163 2216 
Q 2163 2356 2266 2467 
Q 2369 2578 2503 2578 
Q 2400 2663 2253 2663 
Q 1978 2663 1775 2467 
Q 1572 2272 1409 1972 
L 953 141 
Q 931 53 854 -9 
Q 778 -72 684 -72 
Q 606 -72 550 -22 
Q 494 28 494 109 
z
" transform="scale(0.015625)"/>
      <path id="Cmr10-3d" d="M 481 850 
Q 428 850 393 890 
Q 359 931 359 978 
Q 359 1031 393 1068 
Q 428 1106 481 1106 
L 4500 1106 
Q 4547 1106 4581 1068 
Q 4616 1031 4616 978 
Q 4616 931 4581 890 
Q 4547 850 4500 850 
L 481 850 
z
M 481 2094 
Q 428 2094 393 2131 
Q 359 2169 359 2222 
Q 359 2269 393 2309 
Q 428 2350 481 2350 
L 4500 2350 
Q 4547 2350 4581 2309 
Q 4616 2269 4616 2222 
Q 4616 2169 4581 2131 
Q 4547 2094 4500 2094 
L 481 2094 
z
" transform="scale(0.015625)"/>
      <path id="Cmmi10-63" d="M 750 763 
Q 750 484 892 290 
Q 1034 97 1300 97 
Q 1681 97 2032 272 
Q 2384 447 2606 756 
Q 2625 775 2656 775 
Q 2688 775 2720 739 
Q 2753 703 2753 672 
Q 2753 647 2741 634 
Q 2506 306 2109 117 
Q 1713 -72 1288 -72 
Q 981 -72 747 73 
Q 513 219 384 462 
Q 256 706 256 1013 
Q 256 1444 497 1869 
Q 738 2294 1138 2561 
Q 1538 2828 1978 2828 
Q 2266 2828 2495 2689 
Q 2725 2550 2725 2278 
Q 2725 2103 2623 1979 
Q 2522 1856 2350 1856 
Q 2247 1856 2176 1920 
Q 2106 1984 2106 2088 
Q 2106 2238 2215 2344 
Q 2325 2450 2472 2450 
L 2484 2450 
Q 2409 2559 2267 2611 
Q 2125 2663 1972 2663 
Q 1597 2663 1315 2342 
Q 1034 2022 892 1576 
Q 750 1131 750 763 
z
" transform="scale(0.015625)"/>
     </defs>
     <use xlink:href="#Cmmi10-72" transform="translate(0 0.8125)"/>
     <use xlink:href="#Cmr10-3d" transform="translate(62.675781 0.8125)"/>
     <use xlink:href="#Cmmi10-63" transform="translate(157.919922 0.8125)"/>
    </g>
   </g>
   <g id="text_2">
    <!-- $r=d$ -->
    <g style="fill: #808080" transform="translate(145.661538 126.608293) scale(0.15 -0.15)">
     <defs>
      <path id="Cmmi10-64" d="M 1113 -72 
Q 709 -72 476 233 
Q 244 538 244 953 
Q 244 1363 456 1803 
Q 669 2244 1030 2536 
Q 1391 2828 1806 2828 
Q 1994 2828 2145 2723 
Q 2297 2619 2381 2444 
L 2741 3872 
Q 2766 3981 2772 4044 
Q 2772 4147 2356 4147 
Q 2291 4147 2291 4231 
Q 2294 4247 2305 4287 
Q 2316 4328 2333 4350 
Q 2350 4372 2381 4372 
L 3244 4441 
Q 3322 4441 3322 4359 
L 2400 678 
Q 2356 572 2356 372 
Q 2356 97 2541 97 
Q 2741 97 2845 351 
Q 2950 606 3022 941 
Q 3034 978 3072 978 
L 3150 978 
Q 3175 978 3190 956 
Q 3206 934 3206 916 
Q 3094 469 2961 198 
Q 2828 -72 2528 -72 
Q 2313 -72 2147 54 
Q 1981 181 1941 391 
Q 1528 -72 1113 -72 
z
M 1119 97 
Q 1350 97 1567 270 
Q 1784 444 1941 678 
Q 1947 684 1947 703 
L 2297 2113 
Q 2259 2338 2131 2500 
Q 2003 2663 1791 2663 
Q 1575 2663 1389 2486 
Q 1203 2309 1075 2069 
Q 950 1813 836 1366 
Q 722 919 722 672 
Q 722 450 817 273 
Q 913 97 1119 97 
z
" transform="scale(0.015625)"/>
     </defs>
     <use xlink:href="#Cmmi10-72" transform="translate(0 0.609375)"/>
     <use xlink:href="#Cmr10-3d" transform="translate(62.675781 0.609375)"/>
     <use xlink:href="#Cmmi10-64" transform="translate(157.919922 0.609375)"/>
    </g>
   </g>
   <g id="text_3">
    <!-- $\theta=h_1(r)$ -->
    <g style="fill: #0000ff" transform="translate(162.153846 283.238462) scale(0.2 -0.2)">
     <defs>
      <path id="Cmmi10-b5" d="M 1031 -72 
Q 741 -72 566 140 
Q 391 353 323 653 
Q 256 953 256 1247 
L 256 1253 
Q 256 1572 317 1915 
Q 378 2259 493 2601 
Q 609 2944 744 3213 
Q 838 3400 986 3631 
Q 1134 3863 1317 4064 
Q 1500 4266 1711 4389 
Q 1922 4513 2138 4513 
L 2144 4513 
Q 2375 4513 2529 4384 
Q 2684 4256 2770 4056 
Q 2856 3856 2890 3628 
Q 2925 3400 2925 3194 
Q 2925 2709 2794 2204 
Q 2663 1700 2431 1228 
Q 2344 1050 2189 809 
Q 2034 569 1861 378 
Q 1688 188 1472 58 
Q 1256 -72 1038 -72 
L 1031 -72 
z
M 1044 97 
Q 1256 97 1451 323 
Q 1647 550 1794 873 
Q 1941 1197 2052 1536 
Q 2163 1875 2216 2113 
L 909 2113 
Q 809 1709 753 1417 
Q 697 1125 697 844 
Q 697 97 1044 97 
z
M 959 2338 
L 2272 2338 
Q 2341 2619 2381 2808 
Q 2422 2997 2450 3206 
Q 2478 3416 2478 3597 
Q 2478 4347 2138 4347 
Q 1731 4347 1436 3692 
Q 1141 3038 959 2338 
z
" transform="scale(0.015625)"/>
      <path id="Cmmi10-68" d="M 341 116 
Q 341 153 347 172 
L 1275 3872 
Q 1300 3981 1306 4044 
Q 1306 4147 891 4147 
Q 825 4147 825 4231 
Q 828 4247 839 4287 
Q 850 4328 867 4350 
Q 884 4372 916 4372 
L 1778 4441 
L 1797 4441 
Q 1797 4434 1819 4423 
Q 1841 4413 1844 4409 
Q 1856 4378 1856 4359 
L 1356 2363 
Q 1750 2828 2291 2828 
Q 2516 2828 2680 2750 
Q 2844 2672 2936 2514 
Q 3028 2356 3028 2138 
Q 3028 1875 2911 1503 
Q 2794 1131 2619 672 
Q 2528 463 2528 288 
Q 2528 97 2675 97 
Q 2925 97 3092 364 
Q 3259 631 3328 941 
Q 3341 978 3378 978 
L 3456 978 
Q 3481 978 3497 961 
Q 3513 944 3513 922 
Q 3513 916 3506 903 
Q 3450 672 3339 448 
Q 3228 225 3059 76 
Q 2891 -72 2663 -72 
Q 2438 -72 2278 83 
Q 2119 238 2119 459 
Q 2119 578 2169 709 
Q 2350 1191 2470 1569 
Q 2591 1947 2591 2234 
Q 2591 2419 2519 2541 
Q 2447 2663 2278 2663 
Q 1934 2663 1678 2452 
Q 1422 2241 1234 1894 
L 800 147 
Q 775 50 703 -11 
Q 631 -72 538 -72 
Q 456 -72 398 -17 
Q 341 38 341 116 
z
" transform="scale(0.015625)"/>
      <path id="Cmr10-31" d="M 594 0 
L 594 225 
Q 1394 225 1394 428 
L 1394 3788 
Q 1063 3628 556 3628 
L 556 3853 
Q 1341 3853 1741 4263 
L 1831 4263 
Q 1853 4263 1873 4245 
Q 1894 4228 1894 4206 
L 1894 428 
Q 1894 225 2694 225 
L 2694 0 
L 594 0 
z
" transform="scale(0.015625)"/>
      <path id="Cmr10-28" d="M 1984 -1588 
Q 1628 -1306 1370 -942 
Q 1113 -578 948 -165 
Q 784 247 703 697 
Q 622 1147 622 1600 
Q 622 2059 703 2509 
Q 784 2959 951 3375 
Q 1119 3791 1378 4153 
Q 1638 4516 1984 4788 
Q 1984 4800 2016 4800 
L 2075 4800 
Q 2094 4800 2109 4783 
Q 2125 4766 2125 4744 
Q 2125 4716 2113 4703 
Q 1800 4397 1592 4047 
Q 1384 3697 1257 3301 
Q 1131 2906 1075 2482 
Q 1019 2059 1019 1600 
Q 1019 -434 2106 -1491 
Q 2125 -1509 2125 -1544 
Q 2125 -1559 2108 -1579 
Q 2091 -1600 2075 -1600 
L 2016 -1600 
Q 1984 -1600 1984 -1588 
z
" transform="scale(0.015625)"/>
      <path id="Cmr10-29" d="M 416 -1600 
Q 359 -1600 359 -1544 
Q 359 -1516 372 -1503 
Q 1466 -434 1466 1600 
Q 1466 3634 384 4691 
Q 359 4706 359 4744 
Q 359 4766 376 4783 
Q 394 4800 416 4800 
L 475 4800 
Q 494 4800 506 4788 
Q 966 4425 1272 3906 
Q 1578 3388 1720 2800 
Q 1863 2213 1863 1600 
Q 1863 1147 1786 708 
Q 1709 269 1542 -157 
Q 1375 -584 1119 -945 
Q 863 -1306 506 -1588 
Q 494 -1600 475 -1600 
L 416 -1600 
z
" transform="scale(0.015625)"/>
     </defs>
     <use xlink:href="#Cmmi10-b5"/>
     <use xlink:href="#Cmr10-3d" transform="translate(64.482422 0)"/>
     <use xlink:href="#Cmmi10-68" transform="translate(159.726562 0)"/>
     <use xlink:href="#Cmr10-31" transform="translate(217.34375 -17.00625) scale(0.7)"/>
     <use xlink:href="#Cmr10-28" transform="translate(258.721094 0)"/>
     <use xlink:href="#Cmmi10-72" transform="translate(297.539453 0)"/>
     <use xlink:href="#Cmr10-29" transform="translate(342.656641 0)"/>
    </g>
   </g>
   <g id="text_4">
    <!-- $\theta=h_2(r)$ -->
    <g style="fill: #ff0000" transform="translate(53.115385 88.526923) scale(0.2 -0.2)">
     <defs>
      <path id="Cmr10-32" d="M 319 0 
L 319 172 
Q 319 188 331 206 
L 1325 1306 
Q 1550 1550 1690 1715 
Q 1831 1881 1968 2097 
Q 2106 2313 2186 2536 
Q 2266 2759 2266 3009 
Q 2266 3272 2169 3511 
Q 2072 3750 1880 3894 
Q 1688 4038 1416 4038 
Q 1138 4038 916 3870 
Q 694 3703 603 3438 
Q 628 3444 672 3444 
Q 816 3444 917 3347 
Q 1019 3250 1019 3097 
Q 1019 2950 917 2848 
Q 816 2747 672 2747 
Q 522 2747 420 2851 
Q 319 2956 319 3097 
Q 319 3338 409 3548 
Q 500 3759 670 3923 
Q 841 4088 1055 4175 
Q 1269 4263 1509 4263 
Q 1875 4263 2190 4108 
Q 2506 3953 2690 3670 
Q 2875 3388 2875 3009 
Q 2875 2731 2753 2481 
Q 2631 2231 2440 2026 
Q 2250 1822 1953 1562 
Q 1656 1303 1563 1216 
L 838 519 
L 1453 519 
Q 1906 519 2211 526 
Q 2516 534 2534 550 
Q 2609 631 2688 1141 
L 2875 1141 
L 2694 0 
L 319 0 
z
" transform="scale(0.015625)"/>
     </defs>
     <use xlink:href="#Cmmi10-b5"/>
     <use xlink:href="#Cmr10-3d" transform="translate(64.482422 0)"/>
     <use xlink:href="#Cmmi10-68" transform="translate(159.726562 0)"/>
     <use xlink:href="#Cmr10-32" transform="translate(217.34375 -17.00625) scale(0.7)"/>
     <use xlink:href="#Cmr10-28" transform="translate(258.721094 0)"/>
     <use xlink:href="#Cmmi10-72" transform="translate(297.539453 0)"/>
     <use xlink:href="#Cmr10-29" transform="translate(342.656641 0)"/>
    </g>
   </g>
   <g id="line2d_8">
    <path d="M 62.607196 227.649833 
L 66.770661 220.076135 
L 70.24151 213.310446 
L 73.211859 207.04634 
L 75.616789 201.526064 
L 78.088418 195.264194 
L 80.03436 189.738796 
L 81.900744 183.709609 
L 83.396913 178.089328 
L 84.568338 172.906974 
L 85.619232 167.25983 
L 86.424945 161.717351 
L 87.002753 156.271611 
L 87.375126 150.78527 
L 87.545175 145.020488 
L 87.49162 139.141137 
L 87.189611 132.866327 
L 86.668531 126.827807 
L 85.964195 121.035537 
L 84.999709 114.849819 
L 83.770209 108.396847 
L 82.261489 101.683647 
L 82.261489 101.683647 
" clip-path="url(#p807b94ef10)" style="fill: none; stroke: #ff0000; stroke-width: 3; stroke-linecap: square"/>
   </g>
   <g id="line2d_9">
    <path d="M 117.219889 291.544619 
L 121.531257 290.899164 
L 126.026737 289.979418 
L 129.615485 289.024698 
L 132.976305 287.921095 
L 135.811554 286.810063 
L 139.338823 285.166622 
L 142.225079 283.579136 
L 145.016554 281.809861 
L 147.979868 279.649697 
L 150.818682 277.274077 
L 153.21568 275.00583 
L 155.982089 272.050585 
L 158.505969 268.996459 
L 160.873276 265.776042 
L 163.144592 262.31418 
L 165.397155 258.464452 
L 167.636907 254.155864 
L 169.717375 249.647675 
L 171.582634 245.117862 
L 173.291951 240.494674 
L 175.165659 234.829893 
L 176.950921 228.784799 
L 179.032439 220.919103 
L 182.162671 207.977679 
L 184.674845 197.970172 
L 186.482134 191.71764 
L 187.884979 187.527478 
L 189.563592 183.230742 
L 191.130697 179.832449 
L 192.486074 177.295276 
L 193.33247 175.873631 
L 193.33247 175.873631 
" clip-path="url(#p807b94ef10)" style="fill: none; stroke: #0000ff; stroke-width: 3; stroke-linecap: square"/>
   </g>
  </g>
 </g>
 <defs>
  <clipPath id="p807b94ef10">
   <rect x="7.2" y="7.2" width="324" height="324"/>
  </clipPath>
 </defs>
</svg>
