<?xml version="1.0" encoding="utf-8" standalone="no"?>
<!DOCTYPE svg PUBLIC "-//W3C//DTD SVG 1.1//EN"
  "http://www.w3.org/Graphics/SVG/1.1/DTD/svg11.dtd">
<svg xmlns:xlink="http://www.w3.org/1999/xlink" width="453.6pt" height="220.528028pt" viewBox="0 0 453.6 220.528028" xmlns="http://www.w3.org/2000/svg" version="1.1">
 <metadata>
  <rdf:RDF xmlns:dc="http://purl.org/dc/elements/1.1/" xmlns:cc="http://creativecommons.org/ns#" xmlns:rdf="http://www.w3.org/1999/02/22-rdf-syntax-ns#">
   <cc:Work>
    <dc:type rdf:resource="http://purl.org/dc/dcmitype/StillImage"/>
    <dc:date>2025-06-18T14:12:08.340269</dc:date>
    <dc:format>image/svg+xml</dc:format>
    <dc:creator>
     <cc:Agent>
      <dc:title>Matplotlib v3.10.3, https://matplotlib.org/</dc:title>
     </cc:Agent>
    </dc:creator>
   </cc:Work>
  </rdf:RDF>
 </metadata>
 <defs>
  <style type="text/css">*{stroke-linejoin: round; stroke-linecap: butt}</style>
 </defs>
 <g id="figure_1">
  <g id="patch_1">
   <path d="M 0 220.528028 
L 453.6 220.528028 
L 453.6 0 
L 0 0 
z
" style="fill: #ffffff"/>
  </g>
  <g id="axes_1">
   <g id="patch_2">
    <path d="M 7.2 213.328028 
L 446.4 213.328028 
L 446.4 7.2 
L 7.2 7.2 
z
" style="fill: #ffffff"/>
   </g>
   <g id="PathCollection_1">
    <path d="M 206.319486 65.498789 
C 207.045775 65.498789 207.742414 65.210232 208.255978 64.696668 
C 208.769541 64.183104 209.058099 63.486465 209.058099 62.760176 
C 209.058099 62.033888 208.769541 61.337248 208.255978 60.823685 
C 207.742414 60.310121 207.045775 60.021563 206.319486 60.021563 
C 205.593197 60.021563 204.896558 60.310121 204.382994 60.823685 
C 203.869431 61.337248 203.580873 62.033888 203.580873 62.760176 
C 203.580873 63.486465 203.869431 64.183104 204.382994 64.696668 
C 204.896558 65.210232 205.593197 65.498789 206.319486 65.498789 
z
" clip-path="url(#pa86524a4af)"/>
   </g>
   <g id="matplotlib.axis_1"/>
   <g id="matplotlib.axis_2"/>
   <g id="line2d_1">
    <path d="M 368.947971 209.364027 
L 382.368607 201.954808 
L 392.266895 196.251304 
L 400.621325 191.170927 
L 407.414975 186.768693 
L 412.738618 183.074557 
L 417.173552 179.76765 
L 421.314206 176.417696 
L 424.702917 173.410511 
L 427.784635 170.374565 
L 430.40379 167.456335 
L 432.572734 164.668734 
L 434.168527 162.264646 
L 435.485478 159.886694 
L 436.505568 157.577985 
L 437.192846 155.519564 
L 437.668732 153.434867 
L 437.914612 151.384239 
L 437.943938 149.576135 
L 437.745864 147.434178 
L 437.318667 145.399706 
L 436.549287 143.100795 
L 435.523875 140.904013 
L 434.23522 138.746482 
L 432.860901 136.840758 
L 430.808895 134.439555 
L 428.424573 132.066371 
L 425.784164 129.777037 
L 422.691681 127.40508 
L 418.894038 124.813881 
L 414.703582 122.251052 
L 410.333594 119.823622 
L 404.773567 117.007705 
L 398.256594 114.002052 
L 391.595625 111.181745 
L 384.025387 108.216473 
L 375.5014 105.11845 
L 365.707111 101.807491 
L 354.411623 98.249822 
L 343.211045 94.94148 
L 329.090089 91.017696 
L 314.776706 87.264782 
L 297.654562 83.008871 
L 279.162702 78.635592 
L 258.377695 73.930386 
L 231.906831 68.169486 
L 192.776363 59.932723 
L 132.552981 47.301622 
L 108.08432 41.935744 
L 88.618594 37.431583 
L 74.443975 33.940472 
L 62.265632 30.725967 
L 52.833502 28.037338 
L 43.893351 25.252866 
L 36.754341 22.783092 
L 31.306846 20.673495 
L 26.825871 18.711631 
L 23.061861 16.810046 
L 20.627673 15.377678 
L 18.338853 13.776805 
L 16.849748 12.493719 
L 15.646154 11.164001 
L 15.646154 11.164001 
" clip-path="url(#pa86524a4af)" style="fill: none; stroke: #000000; stroke-width: 2; stroke-linecap: square"/>
   </g>
   <g id="patch_3">
    <path d="M 206.319486 62.760176 
Q 155.25467 52.066284 106.378446 41.830722 
" clip-path="url(#pa86524a4af)" style="fill: none; stroke: #ff0000; stroke-width: 2; stroke-linecap: round"/>
    <path d="M 115.141267 48.774278 
L 106.378446 41.830722 
L 117.190983 38.986598 
z
" clip-path="url(#pa86524a4af)" style="fill: #ff0000; stroke: #ff0000; stroke-width: 2; stroke-linecap: round"/>
   </g>
   <g id="patch_4">
    <path d="M 206.319486 62.760176 
Q 195.625593 113.824992 185.390031 162.701216 
" clip-path="url(#pa86524a4af)" style="fill: none; stroke: #800080; stroke-width: 2; stroke-linecap: round"/>
    <path d="M 192.333587 153.938395 
L 185.390031 162.701216 
L 182.545908 151.888679 
z
" clip-path="url(#pa86524a4af)" style="fill: #800080; stroke: #800080; stroke-width: 2; stroke-linecap: round"/>
   </g>
   <g id="patch_5">
    <path d="M 206.319486 62.760176 
Q 269.346735 75.959218 330.185392 88.699929 
" clip-path="url(#pa86524a4af)" style="fill: none; stroke: #ffa500; stroke-width: 2; stroke-linecap: round"/>
    <path d="M 321.422571 81.756373 
L 330.185392 88.699929 
L 319.372854 91.544052 
z
" clip-path="url(#pa86524a4af)" style="fill: #ffa500; stroke: #ffa500; stroke-width: 2; stroke-linecap: round"/>
   </g>
   <g id="patch_6">
    <path d="M 206.319486 62.760176 
Q 202.518709 80.909412 199.176262 96.870057 
" clip-path="url(#pa86524a4af)" style="fill: none; stroke: #0000ff; stroke-width: 2; stroke-linecap: round"/>
    <path d="M 206.119818 88.107236 
L 199.176262 96.870057 
L 196.332139 86.05752 
z
" clip-path="url(#pa86524a4af)" style="fill: #0000ff; stroke: #0000ff; stroke-width: 2; stroke-linecap: round"/>
   </g>
   <g id="patch_7">
    <path d="M 206.319486 62.760176 
Q 265.545958 94.108454 322.796124 124.410683 
" clip-path="url(#pa86524a4af)" style="fill: none; stroke: #008000; stroke-width: 2; stroke-linecap: round"/>
    <path d="M 316.296854 115.313459 
L 322.796124 124.410683 
L 311.618782 124.151765 
z
" clip-path="url(#pa86524a4af)" style="fill: #008000; stroke: #008000; stroke-width: 2; stroke-linecap: round"/>
   </g>
  </g>
 </g>
 <defs>
  <clipPath id="pa86524a4af">
   <rect x="7.2" y="7.2" width="439.2" height="206.128028"/>
  </clipPath>
 </defs>
</svg>
