<?xml version="1.0" encoding="utf-8" standalone="no"?>
<!DOCTYPE svg PUBLIC "-//W3C//DTD SVG 1.1//EN"
  "http://www.w3.org/Graphics/SVG/1.1/DTD/svg11.dtd">
<svg xmlns:xlink="http://www.w3.org/1999/xlink" width="325.687149pt" height="338.096697pt" viewBox="0 0 325.687149 338.096697" xmlns="http://www.w3.org/2000/svg" version="1.1">
 <metadata>
  <rdf:RDF xmlns:dc="http://purl.org/dc/elements/1.1/" xmlns:cc="http://creativecommons.org/ns#" xmlns:rdf="http://www.w3.org/1999/02/22-rdf-syntax-ns#">
   <cc:Work>
    <dc:type rdf:resource="http://purl.org/dc/dcmitype/StillImage"/>
    <dc:date>2025-12-10T16:55:26.168540</dc:date>
    <dc:format>image/svg+xml</dc:format>
    <dc:creator>
     <cc:Agent>
      <dc:title>Matplotlib v3.10.5, https://matplotlib.org/</dc:title>
     </cc:Agent>
    </dc:creator>
   </cc:Work>
  </rdf:RDF>
 </metadata>
 <defs>
  <style type="text/css">*{stroke-linejoin: round; stroke-linecap: butt}</style>
 </defs>
 <g id="figure_1">
  <g id="patch_1">
   <path d="M 0 338.096697 
L 325.687149 338.096697 
L 325.687149 -0 
L 0 -0 
z
" style="fill: #ffffff"/>
  </g>
  <g id="axes_1">
   <g id="patch_2">
    <path d="M 8.870678 319.919851 
L 305.347149 319.919851 
L 305.347149 23.4425 
L 8.870678 23.4425 
z
" style="fill: #ffffff"/>
   </g>
   <g id="matplotlib.axis_1">
    <g id="xtick_1">
     <g id="line2d_1">
      <defs>
       <path id="m77a7699ab4" d="M 0 0 
L 0 3.5 
" style="stroke: #000000; stroke-width: 0.8"/>
      </defs>
      <g>
       <use xlink:href="#m77a7699ab4" x="14.571094" y="314.218572" style="stroke: #000000; stroke-width: 0.8"/>
      </g>
     </g>
     <g id="text_1">
      <!-- −1 -->
      <g transform="translate(7.2 328.81701) scale(0.1 -0.1)">
       <defs>
        <path id="DejaVuSans-2212" d="M 678 2272 
L 4684 2272 
L 4684 1741 
L 678 1741 
L 678 2272 
z
" transform="scale(0.015625)"/>
        <path id="DejaVuSans-31" d="M 794 531 
L 1825 531 
L 1825 4091 
L 703 3866 
L 703 4441 
L 1819 4666 
L 2450 4666 
L 2450 531 
L 3481 531 
L 3481 0 
L 794 0 
L 794 531 
z
" transform="scale(0.015625)"/>
       </defs>
       <use xlink:href="#DejaVuSans-2212"/>
       <use xlink:href="#DejaVuSans-31" transform="translate(83.789062 0)"/>
      </g>
     </g>
    </g>
    <g id="xtick_2">
     <g id="line2d_2">
      <g>
       <use xlink:href="#m77a7699ab4" x="299.645679" y="314.218572" style="stroke: #000000; stroke-width: 0.8"/>
      </g>
     </g>
     <g id="text_2">
      <!-- 1 -->
      <g transform="translate(296.464429 328.81701) scale(0.1 -0.1)">
       <use xlink:href="#DejaVuSans-31"/>
      </g>
     </g>
    </g>
    <g id="text_3">
     <!-- $x$ -->
     <g transform="translate(313.347149 314.218572) scale(0.16 -0.16)">
      <defs>
       <path id="Cmmi10-78" d="M 500 184 
Q 613 97 819 97 
Q 1019 97 1172 289 
Q 1325 481 1381 709 
L 1672 1844 
Q 1741 2153 1741 2266 
Q 1741 2425 1652 2544 
Q 1563 2663 1403 2663 
Q 1200 2663 1022 2536 
Q 844 2409 722 2214 
Q 600 2019 550 1819 
Q 538 1778 500 1778 
L 422 1778 
Q 372 1778 372 1838 
L 372 1856 
Q 434 2094 584 2320 
Q 734 2547 951 2687 
Q 1169 2828 1416 2828 
Q 1650 2828 1839 2703 
Q 2028 2578 2106 2363 
Q 2216 2559 2386 2693 
Q 2556 2828 2759 2828 
Q 2897 2828 3040 2779 
Q 3184 2731 3275 2631 
Q 3366 2531 3366 2381 
Q 3366 2219 3261 2101 
Q 3156 1984 2994 1984 
Q 2891 1984 2822 2050 
Q 2753 2116 2753 2216 
Q 2753 2350 2845 2451 
Q 2938 2553 3066 2572 
Q 2950 2663 2747 2663 
Q 2541 2663 2389 2472 
Q 2238 2281 2175 2047 
L 1894 916 
Q 1825 659 1825 494 
Q 1825 331 1917 214 
Q 2009 97 2163 97 
Q 2463 97 2698 361 
Q 2934 625 3009 941 
Q 3022 978 3059 978 
L 3138 978 
Q 3163 978 3178 961 
Q 3194 944 3194 922 
Q 3194 916 3188 903 
Q 3097 522 2806 225 
Q 2516 -72 2150 -72 
Q 1916 -72 1727 54 
Q 1538 181 1459 397 
Q 1359 209 1182 68 
Q 1006 -72 806 -72 
Q 669 -72 523 -23 
Q 378 25 287 125 
Q 197 225 197 378 
Q 197 528 301 651 
Q 406 775 563 775 
Q 669 775 741 711 
Q 813 647 813 544 
Q 813 409 723 309 
Q 634 209 500 184 
z
" transform="scale(0.015625)"/>
      </defs>
      <use xlink:href="#Cmmi10-78" transform="translate(0 0.8125)"/>
     </g>
    </g>
   </g>
   <g id="matplotlib.axis_2">
    <g id="ytick_1">
     <g id="line2d_3">
      <defs>
       <path id="m25c7941d4e" d="M 0 0 
L -3.5 0 
" style="stroke: #000000; stroke-width: 0.8"/>
      </defs>
      <g>
       <use xlink:href="#m25c7941d4e" x="157.108386" y="314.218572" style="stroke: #000000; stroke-width: 0.8"/>
      </g>
     </g>
    </g>
    <g id="ytick_2">
     <g id="line2d_4">
      <g>
       <use xlink:href="#m25c7941d4e" x="157.108386" y="171.68128" style="stroke: #000000; stroke-width: 0.8"/>
      </g>
     </g>
     <g id="text_4">
      <!-- 1 -->
      <g transform="translate(143.745886 175.480499) scale(0.1 -0.1)">
       <use xlink:href="#DejaVuSans-31"/>
      </g>
     </g>
    </g>
    <g id="ytick_3">
     <g id="line2d_5">
      <g>
       <use xlink:href="#m25c7941d4e" x="157.108386" y="29.143987" style="stroke: #000000; stroke-width: 0.8"/>
      </g>
     </g>
     <g id="text_5">
      <!-- 2 -->
      <g transform="translate(143.745886 32.943206) scale(0.1 -0.1)">
       <defs>
        <path id="DejaVuSans-32" d="M 1228 531 
L 3431 531 
L 3431 0 
L 469 0 
L 469 531 
Q 828 903 1448 1529 
Q 2069 2156 2228 2338 
Q 2531 2678 2651 2914 
Q 2772 3150 2772 3378 
Q 2772 3750 2511 3984 
Q 2250 4219 1831 4219 
Q 1534 4219 1204 4116 
Q 875 4013 500 3803 
L 500 4441 
Q 881 4594 1212 4672 
Q 1544 4750 1819 4750 
Q 2544 4750 2975 4387 
Q 3406 4025 3406 3419 
Q 3406 3131 3298 2873 
Q 3191 2616 2906 2266 
Q 2828 2175 2409 1742 
Q 1991 1309 1228 531 
z
" transform="scale(0.015625)"/>
       </defs>
       <use xlink:href="#DejaVuSans-32"/>
      </g>
     </g>
    </g>
    <g id="text_6">
     <!-- $y$ -->
     <g transform="translate(153.108386 12.0825) scale(0.16 -0.16)">
      <defs>
       <path id="Cmmi10-79" d="M 538 -916 
Q 672 -1147 1006 -1147 
Q 1309 -1147 1531 -934 
Q 1753 -722 1889 -420 
Q 2025 -119 2100 197 
Q 1816 -72 1484 -72 
Q 1231 -72 1053 15 
Q 875 103 776 276 
Q 678 450 678 697 
Q 678 906 734 1126 
Q 791 1347 892 1617 
Q 994 1888 1069 2088 
Q 1153 2322 1153 2472 
Q 1153 2663 1013 2663 
Q 759 2663 595 2402 
Q 431 2141 353 1819 
Q 341 1778 300 1778 
L 225 1778 
Q 172 1778 172 1838 
L 172 1856 
Q 275 2238 487 2533 
Q 700 2828 1025 2828 
Q 1253 2828 1411 2678 
Q 1569 2528 1569 2297 
Q 1569 2178 1516 2047 
Q 1488 1969 1388 1706 
Q 1288 1444 1234 1272 
Q 1181 1100 1147 934 
Q 1113 769 1113 603 
Q 1113 391 1203 244 
Q 1294 97 1491 97 
Q 1888 97 2203 581 
L 2688 2553 
Q 2709 2638 2787 2698 
Q 2866 2759 2956 2759 
Q 3034 2759 3092 2709 
Q 3150 2659 3150 2578 
Q 3150 2541 3144 2528 
L 2509 -19 
Q 2425 -347 2200 -647 
Q 1975 -947 1658 -1130 
Q 1341 -1313 997 -1313 
Q 831 -1313 668 -1248 
Q 506 -1184 406 -1056 
Q 306 -928 306 -756 
Q 306 -581 409 -453 
Q 513 -325 684 -325 
Q 788 -325 858 -389 
Q 928 -453 928 -556 
Q 928 -703 818 -812 
Q 709 -922 563 -922 
Q 556 -919 550 -917 
Q 544 -916 538 -916 
z
" transform="scale(0.015625)"/>
      </defs>
      <use xlink:href="#Cmmi10-79" transform="translate(0 0.8125)"/>
     </g>
    </g>
   </g>
   <g id="line2d_6">
    <path d="M 299.645679 171.68128 
L 299.490972 165.04208 
L 298.975953 157.880075 
L 298.658957 154.93865 
L 297.661721 147.98234 
L 296.455076 141.691617 
L 294.988955 135.545029 
L 292.873624 128.268379 
L 290.25746 120.806886 
L 288.155002 115.612892 
L 286.1361 111.111246 
L 283.332465 105.466767 
L 279.914378 99.324053 
L 277.931027 96.058736 
L 272.805543 88.428366 
L 268.619697 82.900046 
L 265.23804 78.811167 
L 262.802771 76.048771 
L 259.242048 72.254951 
L 254.929603 68.009252 
L 251.000594 64.437944 
L 248.217156 62.063436 
L 244.231541 58.869774 
L 237.388361 53.901802 
L 233.693738 51.466623 
L 225.934028 46.861767 
L 222.015583 44.779997 
L 213.032429 40.572999 
L 209.7305 39.213197 
L 205.093157 37.463764 
L 199.23275 35.510733 
L 190.557662 33.124339 
L 187.934509 32.51724 
L 181.439336 31.235972 
L 176.042227 30.407116 
L 169.357314 29.671268 
L 160.858846 29.193337 
L 157.115418 29.143988 
L 151.608976 29.250117 
L 146.584633 29.533011 
L 139.0899 30.287454 
L 132.240453 31.330057 
L 126.002925 32.579411 
L 116.86339 34.943501 
L 110.924788 36.833384 
L 107.464412 38.068572 
L 101.021638 40.642521 
L 94.479978 43.640028 
L 88.087241 46.969768 
L 84.070632 49.278804 
L 79.847722 51.899522 
L 74.455218 55.554911 
L 68.306042 60.186781 
L 62.19374 65.341778 
L 59.06595 68.218434 
L 54.111809 73.149128 
L 49.977144 77.661193 
L 46.805613 81.402944 
L 43.805514 85.198109 
L 39.410303 91.28202 
L 34.202441 99.493966 
L 31.328609 104.62662 
L 29.199694 108.782581 
L 26.250306 115.174266 
L 23.081404 123.166871 
L 21.622848 127.403195 
L 19.759994 133.572241 
L 18.766294 137.354245 
L 17.846983 141.298038 
L 16.988287 145.542469 
L 16.003207 151.526676 
L 14.995311 160.692487 
L 14.591552 169.266392 
L 14.572148 172.229562 
L 14.898023 181.32971 
L 15.231671 185.388114 
L 15.951734 191.472167 
L 17.261408 199.243979 
L 18.075268 203.092612 
L 19.641287 209.359872 
L 20.868891 213.582112 
L 23.579524 221.550335 
L 24.696356 224.444277 
L 27.35224 230.674689 
L 29.80085 235.787994 
L 31.764523 239.547294 
L 35.769811 246.473191 
L 37.434986 249.109679 
L 40.942319 254.278644 
L 45.327661 260.123064 
L 47.787759 263.146465 
L 52.721724 268.739533 
L 57.445457 273.584078 
L 61.679042 277.559134 
L 65.356349 280.761266 
L 71.267196 285.471305 
L 75.186373 288.324597 
L 82.542791 293.159063 
L 88.342575 296.533765 
L 93.983222 299.478359 
L 97.453073 301.13445 
L 105.992353 304.737775 
L 112.352818 307.009839 
L 118.243443 308.817693 
L 122.620929 309.983467 
L 131.440057 311.888329 
L 142.111676 313.427456 
L 151.186431 314.0955 
L 156.86412 314.218363 
L 163.943451 314.054598 
L 173.759601 313.242633 
L 182.802338 311.883636 
L 189.728218 310.435834 
L 195.464674 308.96083 
L 198.893022 307.956457 
L 206.850485 305.257488 
L 216.0682 301.452695 
L 223.212412 297.963256 
L 230.839001 293.667657 
L 234.575242 291.32979 
L 239.665919 287.875658 
L 242.6701 285.6816 
L 248.8938 280.733183 
L 254.30203 275.941893 
L 260.212724 270.100664 
L 265.325625 264.449318 
L 268.62952 260.450174 
L 272.754626 255.004907 
L 276.669237 249.283359 
L 278.747138 245.983997 
L 280.856665 242.414888 
L 284.338129 235.94225 
L 287.534057 229.179317 
L 290.402443 222.174587 
L 292.768456 215.421709 
L 294.652897 209.076297 
L 295.787731 204.61939 
L 296.655495 200.724081 
L 297.539197 196.095767 
L 298.256292 191.534449 
L 299.06279 184.558664 
L 299.451515 179.118586 
L 299.645679 171.68128 
L 299.645679 171.68128 
" clip-path="url(#pff0d4543dd)" style="fill: none; stroke: #000000; stroke-width: 3; stroke-linecap: square"/>
   </g>
   <g id="patch_3">
    <path d="M 157.108386 319.919851 
L 157.108386 23.4425 
" style="fill: none; stroke: #000000; stroke-width: 0.8; stroke-linejoin: miter; stroke-linecap: square"/>
   </g>
   <g id="patch_4">
    <path d="M 8.870678 314.218572 
L 305.347149 314.218572 
" style="fill: none; stroke: #000000; stroke-width: 0.8; stroke-linejoin: miter; stroke-linecap: square"/>
   </g>
  </g>
 </g>
 <defs>
  <clipPath id="pff0d4543dd">
   <rect x="8.870678" y="23.4425" width="296.476472" height="296.477351"/>
  </clipPath>
 </defs>
</svg>
