<?xml version="1.0" encoding="utf-8" standalone="no"?>
<!DOCTYPE svg PUBLIC "-//W3C//DTD SVG 1.1//EN"
  "http://www.w3.org/Graphics/SVG/1.1/DTD/svg11.dtd">
<svg xmlns:xlink="http://www.w3.org/1999/xlink" width="453.6pt" height="236.320226pt" viewBox="0 0 453.6 236.320226" xmlns="http://www.w3.org/2000/svg" version="1.1">
 <metadata>
  <rdf:RDF xmlns:dc="http://purl.org/dc/elements/1.1/" xmlns:cc="http://creativecommons.org/ns#" xmlns:rdf="http://www.w3.org/1999/02/22-rdf-syntax-ns#">
   <cc:Work>
    <dc:type rdf:resource="http://purl.org/dc/dcmitype/StillImage"/>
    <dc:date>2025-07-25T18:38:38.089770</dc:date>
    <dc:format>image/svg+xml</dc:format>
    <dc:creator>
     <cc:Agent>
      <dc:title>Matplotlib v3.10.3, https://matplotlib.org/</dc:title>
     </cc:Agent>
    </dc:creator>
   </cc:Work>
  </rdf:RDF>
 </metadata>
 <defs>
  <style type="text/css">*{stroke-linejoin: round; stroke-linecap: butt}</style>
 </defs>
 <g id="figure_1">
  <g id="patch_1">
   <path d="M 0 236.320226 
L 453.6 236.320226 
L 453.6 0 
L 0 0 
z
" style="fill: #ffffff"/>
  </g>
  <g id="axes_1">
   <g id="patch_2">
    <path d="M 7.2 229.120226 
L 446.4 229.120226 
L 446.4 7.2 
L 7.2 7.2 
z
" style="fill: #ffffff"/>
   </g>
   <g id="PathCollection_1">
    <path d="M 20.707881 139.131912 
C 21.43417 139.131912 22.130809 138.843355 22.644373 138.329791 
C 23.157936 137.816228 23.446494 137.119588 23.446494 136.393299 
C 23.446494 135.667011 23.157936 134.970371 22.644373 134.456808 
C 22.130809 133.943244 21.43417 133.654687 20.707881 133.654687 
C 19.981593 133.654687 19.284953 133.943244 18.77139 134.456808 
C 18.257826 134.970371 17.969268 135.667011 17.969268 136.393299 
C 17.969268 137.119588 18.257826 137.816228 18.77139 138.329791 
C 19.284953 138.843355 19.981593 139.131912 20.707881 139.131912 
z
" clip-path="url(#p61cd63a2d7)"/>
   </g>
   <g id="matplotlib.axis_1"/>
   <g id="matplotlib.axis_2"/>
   <g id="line2d_1">
    <path d="M 437.953846 75.102508 
L 435.655477 72.068114 
L 432.134178 67.775544 
L 427.606783 62.784924 
L 424.77758 59.920783 
L 419.263401 54.811214 
L 415.673791 51.776229 
L 410.38791 47.665896 
L 406.146933 44.641219 
L 400.882371 41.184916 
L 395.209376 37.790205 
L 390.148113 35.020129 
L 383.575141 31.749581 
L 377.116131 28.860868 
L 371.158479 26.455724 
L 366.995781 24.911885 
L 361.218618 22.94326 
L 354.029686 20.757446 
L 349.170868 19.435274 
L 339.352745 17.118439 
L 329.95885 15.314698 
L 320.815773 13.917718 
L 312.761812 12.961546 
L 306.300366 12.370681 
L 296.152087 11.744111 
L 285.91712 11.467697 
L 275.156303 11.543508 
L 264.689296 11.962429 
L 260.918142 12.194328 
L 248.952691 13.206648 
L 242.578896 13.914353 
L 231.328591 15.44345 
L 222.113944 16.958485 
L 211.978592 18.895252 
L 201.170465 21.27141 
L 192.073187 23.520645 
L 180.844448 26.613869 
L 172.642755 29.097884 
L 162.00994 32.607104 
L 150.608091 36.744238 
L 144.403708 39.164312 
L 136.550124 42.405468 
L 129.629851 45.432844 
L 120.508816 49.681652 
L 111.765775 54.048928 
L 102.374052 59.089334 
L 96.250918 62.58782 
L 86.580789 68.492151 
L 79.231615 73.327338 
L 73.91174 77.039989 
L 66.592699 82.480818 
L 62.326174 85.854655 
L 58.416495 89.095503 
L 53.139678 93.727849 
L 47.787983 98.782849 
L 44.542488 102.057496 
L 39.318131 107.737791 
L 35.62306 112.134918 
L 31.741854 117.199863 
L 28.927445 121.249458 
L 25.946949 126.012888 
L 23.422079 130.590651 
L 21.398271 134.800176 
L 19.528412 139.376095 
L 17.855143 144.492752 
L 16.991869 147.902307 
L 16.226098 152.02123 
L 15.74734 156.534164 
L 15.646154 160.121167 
L 15.821776 163.937036 
L 16.275498 167.589865 
L 16.864625 170.581627 
L 17.801911 174.041976 
L 18.769395 176.838761 
L 20.144211 180.094434 
L 21.675704 183.122567 
L 23.6235 186.398836 
L 25.153936 188.65967 
L 27.32334 191.52254 
L 30.056917 194.704042 
L 32.876405 197.613856 
L 35.361292 199.935769 
L 39.594486 203.483297 
L 43.012277 206.048073 
L 47.047839 208.80129 
L 52.008807 211.852415 
L 56.341121 214.268323 
L 61.099392 216.69795 
L 67.485812 219.648165 
L 72.758857 221.855497 
L 77.428272 223.660725 
L 80.705987 224.852529 
L 80.705987 224.852529 
" clip-path="url(#p61cd63a2d7)" style="fill: none; stroke: #000000; stroke-width: 2; stroke-linecap: square"/>
   </g>
   <g id="patch_3">
    <path d="M 181.155393 26.523451 
Q 180.128411 26.824608 181.247142 26.496547 
" clip-path="url(#p61cd63a2d7)" style="fill: none; stroke: #000000; stroke-width: 2; stroke-linecap: round"/>
    <path d="M 192.250037 28.48056 
L 181.247142 26.496547 
L 189.43609 18.884639 
z
" clip-path="url(#p61cd63a2d7)" style="stroke: #000000; stroke-width: 2; stroke-linecap: round"/>
   </g>
   <g id="patch_4">
    <path d="M 20.707881 136.393299 
Q 52.258808 117.462743 81.892323 99.682635 
" clip-path="url(#p61cd63a2d7)" style="fill: none; stroke: #ff0000; stroke-width: 2; stroke-linecap: round"/>
    <path d="M 70.744915 100.540127 
L 81.892323 99.682635 
L 75.889872 109.115057 
z
" clip-path="url(#p61cd63a2d7)" style="fill: #ff0000; stroke: #ff0000; stroke-width: 2; stroke-linecap: round"/>
   </g>
   <g id="text_1">
    <!-- $Q$ -->
    <g transform="translate(31.638437 151.377328) scale(0.2 -0.2)">
     <defs>
      <path id="Cmmi10-51" d="M 1947 -141 
Q 1466 -141 1094 79 
Q 722 300 520 692 
Q 319 1084 319 1563 
Q 319 2259 714 2950 
Q 1109 3641 1756 4077 
Q 2403 4513 3109 4513 
Q 3475 4513 3778 4381 
Q 4081 4250 4290 4017 
Q 4500 3784 4614 3471 
Q 4728 3159 4728 2791 
Q 4728 2366 4581 1936 
Q 4434 1506 4171 1136 
Q 3909 766 3559 484 
Q 3209 203 2809 38 
Q 2850 -256 2934 -425 
Q 3019 -594 3256 -594 
Q 3506 -594 3726 -412 
Q 3947 -231 4006 13 
Q 4019 72 4078 72 
Q 4147 72 4147 -13 
Q 4100 -219 4008 -430 
Q 3916 -641 3786 -823 
Q 3656 -1006 3478 -1123 
Q 3300 -1241 3084 -1241 
Q 2547 -1241 2547 -550 
Q 2547 -509 2562 -332 
Q 2578 -156 2578 -44 
Q 2269 -141 1947 -141 
z
M 1709 300 
Q 1709 44 1991 44 
Q 2275 44 2591 184 
L 2591 244 
Q 2591 503 2509 648 
Q 2428 794 2194 794 
Q 2078 794 1964 723 
Q 1850 653 1779 539 
Q 1709 425 1709 300 
z
M 1544 288 
Q 1544 456 1637 612 
Q 1731 769 1881 864 
Q 2031 959 2203 959 
Q 2481 959 2607 771 
Q 2734 584 2778 281 
Q 3188 525 3500 978 
Q 3813 1431 3977 1973 
Q 4141 2516 4141 3003 
Q 4141 3356 4023 3656 
Q 3906 3956 3664 4140 
Q 3422 4325 3066 4325 
Q 2722 4325 2403 4156 
Q 2084 3988 1813 3706 
Q 1550 3434 1342 3032 
Q 1134 2631 1021 2193 
Q 909 1756 909 1356 
Q 909 947 1068 612 
Q 1228 278 1569 128 
Q 1544 194 1544 288 
z
" transform="scale(0.015625)"/>
     </defs>
     <use xlink:href="#Cmmi10-51" transform="translate(0 0.484375)"/>
    </g>
   </g>
  </g>
 </g>
 <defs>
  <clipPath id="p61cd63a2d7">
   <rect x="7.2" y="7.2" width="439.2" height="221.920226"/>
  </clipPath>
 </defs>
</svg>
