<?xml version="1.0" encoding="utf-8" standalone="no"?>
<!DOCTYPE svg PUBLIC "-//W3C//DTD SVG 1.1//EN"
  "http://www.w3.org/Graphics/SVG/1.1/DTD/svg11.dtd">
<svg xmlns:xlink="http://www.w3.org/1999/xlink" width="325.69859pt" height="338.097208pt" viewBox="0 0 325.69859 338.097208" xmlns="http://www.w3.org/2000/svg" version="1.1">
 <metadata>
  <rdf:RDF xmlns:dc="http://purl.org/dc/elements/1.1/" xmlns:cc="http://creativecommons.org/ns#" xmlns:rdf="http://www.w3.org/1999/02/22-rdf-syntax-ns#">
   <cc:Work>
    <dc:type rdf:resource="http://purl.org/dc/dcmitype/StillImage"/>
    <dc:date>2025-06-18T14:11:54.996961</dc:date>
    <dc:format>image/svg+xml</dc:format>
    <dc:creator>
     <cc:Agent>
      <dc:title>Matplotlib v3.10.3, https://matplotlib.org/</dc:title>
     </cc:Agent>
    </dc:creator>
   </cc:Work>
  </rdf:RDF>
 </metadata>
 <defs>
  <style type="text/css">*{stroke-linejoin: round; stroke-linecap: butt}</style>
 </defs>
 <g id="figure_1">
  <g id="patch_1">
   <path d="M 0 338.097208 
L 325.69859 338.097208 
L 325.69859 0 
L 0 0 
z
" style="fill: #ffffff"/>
  </g>
  <g id="axes_1">
   <g id="patch_2">
    <path d="M 8.893842 319.916022 
L 305.35859 319.916022 
L 305.35859 23.4425 
L 8.893842 23.4425 
z
" style="fill: #ffffff"/>
   </g>
   <g id="matplotlib.axis_1">
    <g id="xtick_1">
     <g id="line2d_1">
      <defs>
       <path id="m6f9a65c682" d="M 0 0 
L 0 3.5 
" style="stroke: #000000; stroke-width: 0.8"/>
      </defs>
      <g>
       <use xlink:href="#m6f9a65c682" x="14.571094" y="314.219083" style="stroke: #000000; stroke-width: 0.8"/>
      </g>
     </g>
     <g id="text_1">
      <!-- −1 -->
      <g transform="translate(7.2 328.81752) scale(0.1 -0.1)">
       <defs>
        <path id="DejaVuSans-2212" d="M 678 2272 
L 4684 2272 
L 4684 1741 
L 678 1741 
L 678 2272 
z
" transform="scale(0.015625)"/>
        <path id="DejaVuSans-31" d="M 794 531 
L 1825 531 
L 1825 4091 
L 703 3866 
L 703 4441 
L 1819 4666 
L 2450 4666 
L 2450 531 
L 3481 531 
L 3481 0 
L 794 0 
L 794 531 
z
" transform="scale(0.015625)"/>
       </defs>
       <use xlink:href="#DejaVuSans-2212"/>
       <use xlink:href="#DejaVuSans-31" transform="translate(83.789062 0)"/>
      </g>
     </g>
    </g>
    <g id="xtick_2">
     <g id="line2d_2">
      <g>
       <use xlink:href="#m6f9a65c682" x="299.657345" y="314.219083" style="stroke: #000000; stroke-width: 0.8"/>
      </g>
     </g>
     <g id="text_2">
      <!-- 1 -->
      <g transform="translate(296.476095 328.81752) scale(0.1 -0.1)">
       <use xlink:href="#DejaVuSans-31"/>
      </g>
     </g>
    </g>
    <g id="text_3">
     <!-- $x$ -->
     <g transform="translate(313.35859 314.219083) scale(0.16 -0.16)">
      <defs>
       <path id="Cmmi10-78" d="M 500 184 
Q 613 97 819 97 
Q 1019 97 1172 289 
Q 1325 481 1381 709 
L 1672 1844 
Q 1741 2153 1741 2266 
Q 1741 2425 1652 2544 
Q 1563 2663 1403 2663 
Q 1200 2663 1022 2536 
Q 844 2409 722 2214 
Q 600 2019 550 1819 
Q 538 1778 500 1778 
L 422 1778 
Q 372 1778 372 1838 
L 372 1856 
Q 434 2094 584 2320 
Q 734 2547 951 2687 
Q 1169 2828 1416 2828 
Q 1650 2828 1839 2703 
Q 2028 2578 2106 2363 
Q 2216 2559 2386 2693 
Q 2556 2828 2759 2828 
Q 2897 2828 3040 2779 
Q 3184 2731 3275 2631 
Q 3366 2531 3366 2381 
Q 3366 2219 3261 2101 
Q 3156 1984 2994 1984 
Q 2891 1984 2822 2050 
Q 2753 2116 2753 2216 
Q 2753 2350 2845 2451 
Q 2938 2553 3066 2572 
Q 2950 2663 2747 2663 
Q 2541 2663 2389 2472 
Q 2238 2281 2175 2047 
L 1894 916 
Q 1825 659 1825 494 
Q 1825 331 1917 214 
Q 2009 97 2163 97 
Q 2463 97 2698 361 
Q 2934 625 3009 941 
Q 3022 978 3059 978 
L 3138 978 
Q 3163 978 3178 961 
Q 3194 944 3194 922 
Q 3194 916 3188 903 
Q 3097 522 2806 225 
Q 2516 -72 2150 -72 
Q 1916 -72 1727 54 
Q 1538 181 1459 397 
Q 1359 209 1182 68 
Q 1006 -72 806 -72 
Q 669 -72 523 -23 
Q 378 25 287 125 
Q 197 225 197 378 
Q 197 528 301 651 
Q 406 775 563 775 
Q 669 775 741 711 
Q 813 647 813 544 
Q 813 409 723 309 
Q 634 209 500 184 
z
" transform="scale(0.015625)"/>
      </defs>
      <use xlink:href="#Cmmi10-78" transform="translate(0 0.8125)"/>
     </g>
    </g>
   </g>
   <g id="matplotlib.axis_2">
    <g id="ytick_1">
     <g id="line2d_3">
      <defs>
       <path id="m107dcbea2f" d="M 0 0 
L -3.5 0 
" style="stroke: #000000; stroke-width: 0.8"/>
      </defs>
      <g>
       <use xlink:href="#m107dcbea2f" x="157.114219" y="314.219083" style="stroke: #000000; stroke-width: 0.8"/>
      </g>
     </g>
    </g>
    <g id="ytick_2">
     <g id="line2d_4">
      <g>
       <use xlink:href="#m107dcbea2f" x="157.114219" y="171.675957" style="stroke: #000000; stroke-width: 0.8"/>
      </g>
     </g>
     <g id="text_4">
      <!-- 1 -->
      <g transform="translate(143.751719 175.475176) scale(0.1 -0.1)">
       <use xlink:href="#DejaVuSans-31"/>
      </g>
     </g>
    </g>
    <g id="ytick_3">
     <g id="line2d_5">
      <g>
       <use xlink:href="#m107dcbea2f" x="157.114219" y="29.132831" style="stroke: #000000; stroke-width: 0.8"/>
      </g>
     </g>
     <g id="text_5">
      <!-- 2 -->
      <g transform="translate(143.751719 32.93205) scale(0.1 -0.1)">
       <defs>
        <path id="DejaVuSans-32" d="M 1228 531 
L 3431 531 
L 3431 0 
L 469 0 
L 469 531 
Q 828 903 1448 1529 
Q 2069 2156 2228 2338 
Q 2531 2678 2651 2914 
Q 2772 3150 2772 3378 
Q 2772 3750 2511 3984 
Q 2250 4219 1831 4219 
Q 1534 4219 1204 4116 
Q 875 4013 500 3803 
L 500 4441 
Q 881 4594 1212 4672 
Q 1544 4750 1819 4750 
Q 2544 4750 2975 4387 
Q 3406 4025 3406 3419 
Q 3406 3131 3298 2873 
Q 3191 2616 2906 2266 
Q 2828 2175 2409 1742 
Q 1991 1309 1228 531 
z
" transform="scale(0.015625)"/>
       </defs>
       <use xlink:href="#DejaVuSans-32"/>
      </g>
     </g>
    </g>
    <g id="text_6">
     <!-- $y$ -->
     <g transform="translate(153.114219 12.0825) scale(0.16 -0.16)">
      <defs>
       <path id="Cmmi10-79" d="M 538 -916 
Q 672 -1147 1006 -1147 
Q 1309 -1147 1531 -934 
Q 1753 -722 1889 -420 
Q 2025 -119 2100 197 
Q 1816 -72 1484 -72 
Q 1231 -72 1053 15 
Q 875 103 776 276 
Q 678 450 678 697 
Q 678 906 734 1126 
Q 791 1347 892 1617 
Q 994 1888 1069 2088 
Q 1153 2322 1153 2472 
Q 1153 2663 1013 2663 
Q 759 2663 595 2402 
Q 431 2141 353 1819 
Q 341 1778 300 1778 
L 225 1778 
Q 172 1778 172 1838 
L 172 1856 
Q 275 2238 487 2533 
Q 700 2828 1025 2828 
Q 1253 2828 1411 2678 
Q 1569 2528 1569 2297 
Q 1569 2178 1516 2047 
Q 1488 1969 1388 1706 
Q 1288 1444 1234 1272 
Q 1181 1100 1147 934 
Q 1113 769 1113 603 
Q 1113 391 1203 244 
Q 1294 97 1491 97 
Q 1888 97 2203 581 
L 2688 2553 
Q 2709 2638 2787 2698 
Q 2866 2759 2956 2759 
Q 3034 2759 3092 2709 
Q 3150 2659 3150 2578 
Q 3150 2541 3144 2528 
L 2509 -19 
Q 2425 -347 2200 -647 
Q 1975 -947 1658 -1130 
Q 1341 -1313 997 -1313 
Q 831 -1313 668 -1248 
Q 506 -1184 406 -1056 
Q 306 -928 306 -756 
Q 306 -581 409 -453 
Q 513 -325 684 -325 
Q 788 -325 858 -389 
Q 928 -453 928 -556 
Q 928 -703 818 -812 
Q 709 -922 563 -922 
Q 556 -919 550 -917 
Q 544 -916 538 -916 
z
" transform="scale(0.015625)"/>
      </defs>
      <use xlink:href="#Cmmi10-79" transform="translate(0 0.8125)"/>
     </g>
    </g>
   </g>
   <g id="line2d_6">
    <path d="M 299.657345 171.675957 
L 299.394026 163.015734 
L 299.079222 158.850951 
L 298.282667 151.92723 
L 297.59429 147.512089 
L 296.717137 142.873733 
L 295.646247 138.098883 
L 293.920086 131.642252 
L 292.630694 127.473832 
L 291.343457 123.70665 
L 288.590017 116.606389 
L 286.437943 111.726668 
L 283.472173 105.704673 
L 280.166247 99.726382 
L 275.920791 92.913394 
L 272.066741 87.387996 
L 270.009895 84.652344 
L 266.526772 80.311654 
L 263.764002 77.101296 
L 260.017668 73.03812 
L 253.615874 66.766599 
L 247.662606 61.587209 
L 242.327444 57.407636 
L 237.5319 53.983394 
L 233.380465 51.251697 
L 226.186275 46.985966 
L 221.715528 44.61214 
L 214.45226 41.173498 
L 207.028352 38.157711 
L 200.580161 35.921566 
L 197.352517 34.930127 
L 193.149703 33.76299 
L 188.617184 32.657592 
L 180.910582 31.133167 
L 174.516297 30.199067 
L 165.872578 29.402158 
L 161.504553 29.200459 
L 155.336764 29.143914 
L 149.45864 29.338559 
L 144.675577 29.676581 
L 139.306409 30.249564 
L 135.225535 30.823452 
L 127.723509 32.195748 
L 120.952458 33.796047 
L 112.994208 36.132727 
L 107.216415 38.151608 
L 102.314775 40.087342 
L 96.397745 42.710642 
L 92.271516 44.735158 
L 87.115872 47.503601 
L 81.004227 51.152881 
L 74.926334 55.212683 
L 69.300334 59.393882 
L 65.510003 62.464189 
L 60.816456 66.579414 
L 56.070403 71.133977 
L 50.687316 76.850555 
L 46.157679 82.19306 
L 41.978309 87.638675 
L 39.523361 91.109632 
L 35.147914 97.900873 
L 32.150284 103.100762 
L 29.033644 109.114717 
L 26.16421 115.36754 
L 23.425404 122.220488 
L 22.263407 125.482874 
L 19.821355 133.345655 
L 18.087091 140.211687 
L 16.819086 146.460519 
L 16.195518 150.217573 
L 15.206473 158.232216 
L 14.878496 162.31958 
L 14.595087 169.060708 
L 14.700939 177.758745 
L 14.963338 182.24334 
L 15.712236 189.676561 
L 16.294784 193.776393 
L 17.559569 200.711146 
L 18.343606 204.252934 
L 20.298514 211.676023 
L 21.481865 215.52122 
L 23.132487 220.332284 
L 24.941985 225.052386 
L 28.811831 233.781027 
L 33.179548 242.094277 
L 36.918015 248.301117 
L 40.532011 253.695048 
L 46.219119 261.234984 
L 51.151406 267.019677 
L 56.039856 272.187228 
L 59.344266 275.404347 
L 62.700892 278.468589 
L 65.693656 281.041506 
L 71.544075 285.677242 
L 77.057981 289.614676 
L 82.988139 293.42926 
L 89.983203 297.42161 
L 98.94276 301.809058 
L 105.631026 304.597074 
L 110.266828 306.300861 
L 118.335513 308.842843 
L 124.112631 310.346206 
L 130.857026 311.779856 
L 137.860037 312.912706 
L 141.609531 313.373336 
L 147.455168 313.891446 
L 155.852102 314.213495 
L 158.243624 314.214608 
L 166.294478 313.923156 
L 170.189204 313.618155 
L 176.806152 312.852338 
L 184.264289 311.609571 
L 187.363028 310.972591 
L 193.349746 309.5365 
L 198.317472 308.134136 
L 206.70192 305.315781 
L 215.839008 301.560298 
L 220.237577 299.480434 
L 225.149249 296.934799 
L 230.017989 294.165071 
L 233.409679 292.081711 
L 237.117644 289.650508 
L 241.589577 286.490837 
L 246.178685 282.968651 
L 249.368246 280.33937 
L 253.259131 276.912351 
L 256.116144 274.22917 
L 262.399445 267.767392 
L 267.596522 261.743729 
L 270.269178 258.362161 
L 275.025208 251.773032 
L 276.105532 250.159141 
L 279.771187 244.296966 
L 283.503044 237.588079 
L 286.106649 232.334806 
L 288.642934 226.619019 
L 290.677832 221.468567 
L 291.998776 217.770417 
L 294.186116 210.789101 
L 295.540862 205.684888 
L 297.000374 199.069505 
L 298.346069 190.966039 
L 298.935491 186.003189 
L 299.262123 182.283324 
L 299.56134 176.906685 
L 299.657345 171.675957 
L 299.657345 171.675957 
" clip-path="url(#p567ccd6710)" style="fill: none; stroke: #000000; stroke-width: 3; stroke-linecap: square"/>
   </g>
   <g id="patch_3">
    <path d="M 157.114219 319.916022 
L 157.114219 23.4425 
" style="fill: none; stroke: #000000; stroke-width: 0.8; stroke-linejoin: miter; stroke-linecap: square"/>
   </g>
   <g id="patch_4">
    <path d="M 8.893842 314.219083 
L 305.35859 314.219083 
" style="fill: none; stroke: #000000; stroke-width: 0.8; stroke-linejoin: miter; stroke-linecap: square"/>
   </g>
  </g>
 </g>
 <defs>
  <clipPath id="p567ccd6710">
   <rect x="8.893842" y="23.4425" width="296.464749" height="296.473522"/>
  </clipPath>
 </defs>
</svg>
