<?xml version="1.0" encoding="utf-8" standalone="no"?>
<!DOCTYPE svg PUBLIC "-//W3C//DTD SVG 1.1//EN"
  "http://www.w3.org/Graphics/SVG/1.1/DTD/svg11.dtd">
<svg xmlns:xlink="http://www.w3.org/1999/xlink" width="336.436372pt" height="338.080038pt" viewBox="0 0 336.436372 338.080038" xmlns="http://www.w3.org/2000/svg" version="1.1">
 <metadata>
  <rdf:RDF xmlns:dc="http://purl.org/dc/elements/1.1/" xmlns:cc="http://creativecommons.org/ns#" xmlns:rdf="http://www.w3.org/1999/02/22-rdf-syntax-ns#">
   <cc:Work>
    <dc:type rdf:resource="http://purl.org/dc/dcmitype/StillImage"/>
    <dc:date>2025-08-04T00:38:18.931202</dc:date>
    <dc:format>image/svg+xml</dc:format>
    <dc:creator>
     <cc:Agent>
      <dc:title>Matplotlib v3.10.5, https://matplotlib.org/</dc:title>
     </cc:Agent>
    </dc:creator>
   </cc:Work>
  </rdf:RDF>
 </metadata>
 <defs>
  <style type="text/css">*{stroke-linejoin: round; stroke-linecap: butt}</style>
 </defs>
 <g id="figure_1">
  <g id="patch_1">
   <path d="M 0 338.080038 
L 336.436372 338.080038 
L 336.436372 0 
L 0 0 
z
" style="fill: #ffffff"/>
  </g>
  <g id="axes_1">
   <g id="patch_2">
    <path d="M 8.658833 330.880038 
L 316.096372 330.880038 
L 316.096372 23.4425 
L 8.658833 23.4425 
z
" style="fill: #ffffff"/>
   </g>
   <g id="PathCollection_1">
    <path d="M 162.377603 177.161269 
C 162.377603 177.161269 162.377603 177.161269 162.377603 177.161269 
C 162.377603 177.161269 162.377603 177.161269 162.377603 177.161269 
C 162.377603 177.161269 162.377603 177.161269 162.377603 177.161269 
C 162.377603 177.161269 162.377603 177.161269 162.377603 177.161269 
C 162.377603 177.161269 162.377603 177.161269 162.377603 177.161269 
C 162.377603 177.161269 162.377603 177.161269 162.377603 177.161269 
C 162.377603 177.161269 162.377603 177.161269 162.377603 177.161269 
C 162.377603 177.161269 162.377603 177.161269 162.377603 177.161269 
z
" clip-path="url(#p0af4424243)"/>
   </g>
   <g id="matplotlib.axis_1">
    <g id="xtick_1">
     <g id="line2d_1">
      <defs>
       <path id="mf563cad3d8" d="M 0 0 
L 0 3.5 
" style="stroke: #000000; stroke-width: 0.8"/>
      </defs>
      <g>
       <use xlink:href="#mf563cad3d8" x="14.571094" y="177.161269" style="stroke: #000000; stroke-width: 0.8"/>
      </g>
     </g>
     <g id="text_1">
      <!-- −4 -->
      <g transform="translate(7.2 191.759707) scale(0.1 -0.1)">
       <defs>
        <path id="DejaVuSans-2212" d="M 678 2272 
L 4684 2272 
L 4684 1741 
L 678 1741 
L 678 2272 
z
" transform="scale(0.015625)"/>
        <path id="DejaVuSans-34" d="M 2419 4116 
L 825 1625 
L 2419 1625 
L 2419 4116 
z
M 2253 4666 
L 3047 4666 
L 3047 1625 
L 3713 1625 
L 3713 1100 
L 3047 1100 
L 3047 0 
L 2419 0 
L 2419 1100 
L 313 1100 
L 313 1709 
L 2253 4666 
z
" transform="scale(0.015625)"/>
       </defs>
       <use xlink:href="#DejaVuSans-2212"/>
       <use xlink:href="#DejaVuSans-34" transform="translate(83.789062 0)"/>
      </g>
     </g>
    </g>
    <g id="xtick_2">
     <g id="line2d_2">
      <g>
       <use xlink:href="#mf563cad3d8" x="51.522721" y="177.161269" style="stroke: #000000; stroke-width: 0.8"/>
      </g>
     </g>
     <g id="text_2">
      <!-- −3 -->
      <g transform="translate(44.151627 191.759707) scale(0.1 -0.1)">
       <defs>
        <path id="DejaVuSans-33" d="M 2597 2516 
Q 3050 2419 3304 2112 
Q 3559 1806 3559 1356 
Q 3559 666 3084 287 
Q 2609 -91 1734 -91 
Q 1441 -91 1130 -33 
Q 819 25 488 141 
L 488 750 
Q 750 597 1062 519 
Q 1375 441 1716 441 
Q 2309 441 2620 675 
Q 2931 909 2931 1356 
Q 2931 1769 2642 2001 
Q 2353 2234 1838 2234 
L 1294 2234 
L 1294 2753 
L 1863 2753 
Q 2328 2753 2575 2939 
Q 2822 3125 2822 3475 
Q 2822 3834 2567 4026 
Q 2313 4219 1838 4219 
Q 1578 4219 1281 4162 
Q 984 4106 628 3988 
L 628 4550 
Q 988 4650 1302 4700 
Q 1616 4750 1894 4750 
Q 2613 4750 3031 4423 
Q 3450 4097 3450 3541 
Q 3450 3153 3228 2886 
Q 3006 2619 2597 2516 
z
" transform="scale(0.015625)"/>
       </defs>
       <use xlink:href="#DejaVuSans-2212"/>
       <use xlink:href="#DejaVuSans-33" transform="translate(83.789062 0)"/>
      </g>
     </g>
    </g>
    <g id="xtick_3">
     <g id="line2d_3">
      <g>
       <use xlink:href="#mf563cad3d8" x="88.474348" y="177.161269" style="stroke: #000000; stroke-width: 0.8"/>
      </g>
     </g>
     <g id="text_3">
      <!-- −2 -->
      <g transform="translate(81.103254 191.759707) scale(0.1 -0.1)">
       <defs>
        <path id="DejaVuSans-32" d="M 1228 531 
L 3431 531 
L 3431 0 
L 469 0 
L 469 531 
Q 828 903 1448 1529 
Q 2069 2156 2228 2338 
Q 2531 2678 2651 2914 
Q 2772 3150 2772 3378 
Q 2772 3750 2511 3984 
Q 2250 4219 1831 4219 
Q 1534 4219 1204 4116 
Q 875 4013 500 3803 
L 500 4441 
Q 881 4594 1212 4672 
Q 1544 4750 1819 4750 
Q 2544 4750 2975 4387 
Q 3406 4025 3406 3419 
Q 3406 3131 3298 2873 
Q 3191 2616 2906 2266 
Q 2828 2175 2409 1742 
Q 1991 1309 1228 531 
z
" transform="scale(0.015625)"/>
       </defs>
       <use xlink:href="#DejaVuSans-2212"/>
       <use xlink:href="#DejaVuSans-32" transform="translate(83.789062 0)"/>
      </g>
     </g>
    </g>
    <g id="xtick_4">
     <g id="line2d_4">
      <g>
       <use xlink:href="#mf563cad3d8" x="125.425975" y="177.161269" style="stroke: #000000; stroke-width: 0.8"/>
      </g>
     </g>
     <g id="text_4">
      <!-- −1 -->
      <g transform="translate(118.054882 191.759707) scale(0.1 -0.1)">
       <defs>
        <path id="DejaVuSans-31" d="M 794 531 
L 1825 531 
L 1825 4091 
L 703 3866 
L 703 4441 
L 1819 4666 
L 2450 4666 
L 2450 531 
L 3481 531 
L 3481 0 
L 794 0 
L 794 531 
z
" transform="scale(0.015625)"/>
       </defs>
       <use xlink:href="#DejaVuSans-2212"/>
       <use xlink:href="#DejaVuSans-31" transform="translate(83.789062 0)"/>
      </g>
     </g>
    </g>
    <g id="xtick_5">
     <g id="line2d_5">
      <g>
       <use xlink:href="#mf563cad3d8" x="162.377603" y="177.161269" style="stroke: #000000; stroke-width: 0.8"/>
      </g>
     </g>
    </g>
    <g id="xtick_6">
     <g id="line2d_6">
      <g>
       <use xlink:href="#mf563cad3d8" x="199.32923" y="177.161269" style="stroke: #000000; stroke-width: 0.8"/>
      </g>
     </g>
     <g id="text_5">
      <!-- 1 -->
      <g transform="translate(196.14798 191.759707) scale(0.1 -0.1)">
       <use xlink:href="#DejaVuSans-31"/>
      </g>
     </g>
    </g>
    <g id="xtick_7">
     <g id="line2d_7">
      <g>
       <use xlink:href="#mf563cad3d8" x="236.280857" y="177.161269" style="stroke: #000000; stroke-width: 0.8"/>
      </g>
     </g>
     <g id="text_6">
      <!-- 2 -->
      <g transform="translate(233.099607 191.759707) scale(0.1 -0.1)">
       <use xlink:href="#DejaVuSans-32"/>
      </g>
     </g>
    </g>
    <g id="xtick_8">
     <g id="line2d_8">
      <g>
       <use xlink:href="#mf563cad3d8" x="273.232484" y="177.161269" style="stroke: #000000; stroke-width: 0.8"/>
      </g>
     </g>
     <g id="text_7">
      <!-- 3 -->
      <g transform="translate(270.051234 191.759707) scale(0.1 -0.1)">
       <use xlink:href="#DejaVuSans-33"/>
      </g>
     </g>
    </g>
    <g id="xtick_9">
     <g id="line2d_9">
      <g>
       <use xlink:href="#mf563cad3d8" x="310.184112" y="177.161269" style="stroke: #000000; stroke-width: 0.8"/>
      </g>
     </g>
     <g id="text_8">
      <!-- 4 -->
      <g transform="translate(307.002862 191.759707) scale(0.1 -0.1)">
       <use xlink:href="#DejaVuSans-34"/>
      </g>
     </g>
    </g>
    <g id="xtick_10">
     <g id="line2d_10">
      <defs>
       <path id="m85aea08b13" d="M 0 0 
L 0 2 
" style="stroke: #000000; stroke-width: 0.6"/>
      </defs>
      <g>
       <use xlink:href="#m85aea08b13" x="21.961419" y="177.161269" style="stroke: #000000; stroke-width: 0.6"/>
      </g>
     </g>
    </g>
    <g id="xtick_11">
     <g id="line2d_11">
      <g>
       <use xlink:href="#m85aea08b13" x="29.351745" y="177.161269" style="stroke: #000000; stroke-width: 0.6"/>
      </g>
     </g>
    </g>
    <g id="xtick_12">
     <g id="line2d_12">
      <g>
       <use xlink:href="#m85aea08b13" x="36.74207" y="177.161269" style="stroke: #000000; stroke-width: 0.6"/>
      </g>
     </g>
    </g>
    <g id="xtick_13">
     <g id="line2d_13">
      <g>
       <use xlink:href="#m85aea08b13" x="44.132396" y="177.161269" style="stroke: #000000; stroke-width: 0.6"/>
      </g>
     </g>
    </g>
    <g id="xtick_14">
     <g id="line2d_14">
      <g>
       <use xlink:href="#m85aea08b13" x="58.913046" y="177.161269" style="stroke: #000000; stroke-width: 0.6"/>
      </g>
     </g>
    </g>
    <g id="xtick_15">
     <g id="line2d_15">
      <g>
       <use xlink:href="#m85aea08b13" x="66.303372" y="177.161269" style="stroke: #000000; stroke-width: 0.6"/>
      </g>
     </g>
    </g>
    <g id="xtick_16">
     <g id="line2d_16">
      <g>
       <use xlink:href="#m85aea08b13" x="73.693697" y="177.161269" style="stroke: #000000; stroke-width: 0.6"/>
      </g>
     </g>
    </g>
    <g id="xtick_17">
     <g id="line2d_17">
      <g>
       <use xlink:href="#m85aea08b13" x="81.084023" y="177.161269" style="stroke: #000000; stroke-width: 0.6"/>
      </g>
     </g>
    </g>
    <g id="xtick_18">
     <g id="line2d_18">
      <g>
       <use xlink:href="#m85aea08b13" x="95.864674" y="177.161269" style="stroke: #000000; stroke-width: 0.6"/>
      </g>
     </g>
    </g>
    <g id="xtick_19">
     <g id="line2d_19">
      <g>
       <use xlink:href="#m85aea08b13" x="103.254999" y="177.161269" style="stroke: #000000; stroke-width: 0.6"/>
      </g>
     </g>
    </g>
    <g id="xtick_20">
     <g id="line2d_20">
      <g>
       <use xlink:href="#m85aea08b13" x="110.645325" y="177.161269" style="stroke: #000000; stroke-width: 0.6"/>
      </g>
     </g>
    </g>
    <g id="xtick_21">
     <g id="line2d_21">
      <g>
       <use xlink:href="#m85aea08b13" x="118.03565" y="177.161269" style="stroke: #000000; stroke-width: 0.6"/>
      </g>
     </g>
    </g>
    <g id="xtick_22">
     <g id="line2d_22">
      <g>
       <use xlink:href="#m85aea08b13" x="132.816301" y="177.161269" style="stroke: #000000; stroke-width: 0.6"/>
      </g>
     </g>
    </g>
    <g id="xtick_23">
     <g id="line2d_23">
      <g>
       <use xlink:href="#m85aea08b13" x="140.206626" y="177.161269" style="stroke: #000000; stroke-width: 0.6"/>
      </g>
     </g>
    </g>
    <g id="xtick_24">
     <g id="line2d_24">
      <g>
       <use xlink:href="#m85aea08b13" x="147.596952" y="177.161269" style="stroke: #000000; stroke-width: 0.6"/>
      </g>
     </g>
    </g>
    <g id="xtick_25">
     <g id="line2d_25">
      <g>
       <use xlink:href="#m85aea08b13" x="154.987277" y="177.161269" style="stroke: #000000; stroke-width: 0.6"/>
      </g>
     </g>
    </g>
    <g id="xtick_26">
     <g id="line2d_26">
      <g>
       <use xlink:href="#m85aea08b13" x="169.767928" y="177.161269" style="stroke: #000000; stroke-width: 0.6"/>
      </g>
     </g>
    </g>
    <g id="xtick_27">
     <g id="line2d_27">
      <g>
       <use xlink:href="#m85aea08b13" x="177.158254" y="177.161269" style="stroke: #000000; stroke-width: 0.6"/>
      </g>
     </g>
    </g>
    <g id="xtick_28">
     <g id="line2d_28">
      <g>
       <use xlink:href="#m85aea08b13" x="184.548579" y="177.161269" style="stroke: #000000; stroke-width: 0.6"/>
      </g>
     </g>
    </g>
    <g id="xtick_29">
     <g id="line2d_29">
      <g>
       <use xlink:href="#m85aea08b13" x="191.938904" y="177.161269" style="stroke: #000000; stroke-width: 0.6"/>
      </g>
     </g>
    </g>
    <g id="xtick_30">
     <g id="line2d_30">
      <g>
       <use xlink:href="#m85aea08b13" x="206.719555" y="177.161269" style="stroke: #000000; stroke-width: 0.6"/>
      </g>
     </g>
    </g>
    <g id="xtick_31">
     <g id="line2d_31">
      <g>
       <use xlink:href="#m85aea08b13" x="214.109881" y="177.161269" style="stroke: #000000; stroke-width: 0.6"/>
      </g>
     </g>
    </g>
    <g id="xtick_32">
     <g id="line2d_32">
      <g>
       <use xlink:href="#m85aea08b13" x="221.500206" y="177.161269" style="stroke: #000000; stroke-width: 0.6"/>
      </g>
     </g>
    </g>
    <g id="xtick_33">
     <g id="line2d_33">
      <g>
       <use xlink:href="#m85aea08b13" x="228.890532" y="177.161269" style="stroke: #000000; stroke-width: 0.6"/>
      </g>
     </g>
    </g>
    <g id="xtick_34">
     <g id="line2d_34">
      <g>
       <use xlink:href="#m85aea08b13" x="243.671183" y="177.161269" style="stroke: #000000; stroke-width: 0.6"/>
      </g>
     </g>
    </g>
    <g id="xtick_35">
     <g id="line2d_35">
      <g>
       <use xlink:href="#m85aea08b13" x="251.061508" y="177.161269" style="stroke: #000000; stroke-width: 0.6"/>
      </g>
     </g>
    </g>
    <g id="xtick_36">
     <g id="line2d_36">
      <g>
       <use xlink:href="#m85aea08b13" x="258.451833" y="177.161269" style="stroke: #000000; stroke-width: 0.6"/>
      </g>
     </g>
    </g>
    <g id="xtick_37">
     <g id="line2d_37">
      <g>
       <use xlink:href="#m85aea08b13" x="265.842159" y="177.161269" style="stroke: #000000; stroke-width: 0.6"/>
      </g>
     </g>
    </g>
    <g id="xtick_38">
     <g id="line2d_38">
      <g>
       <use xlink:href="#m85aea08b13" x="280.62281" y="177.161269" style="stroke: #000000; stroke-width: 0.6"/>
      </g>
     </g>
    </g>
    <g id="xtick_39">
     <g id="line2d_39">
      <g>
       <use xlink:href="#m85aea08b13" x="288.013135" y="177.161269" style="stroke: #000000; stroke-width: 0.6"/>
      </g>
     </g>
    </g>
    <g id="xtick_40">
     <g id="line2d_40">
      <g>
       <use xlink:href="#m85aea08b13" x="295.403461" y="177.161269" style="stroke: #000000; stroke-width: 0.6"/>
      </g>
     </g>
    </g>
    <g id="xtick_41">
     <g id="line2d_41">
      <g>
       <use xlink:href="#m85aea08b13" x="302.793786" y="177.161269" style="stroke: #000000; stroke-width: 0.6"/>
      </g>
     </g>
    </g>
    <g id="text_9">
     <!-- $x$ -->
     <g transform="translate(324.096372 177.161269) scale(0.16 -0.16)">
      <defs>
       <path id="Cmmi10-78" d="M 500 184 
Q 613 97 819 97 
Q 1019 97 1172 289 
Q 1325 481 1381 709 
L 1672 1844 
Q 1741 2153 1741 2266 
Q 1741 2425 1652 2544 
Q 1563 2663 1403 2663 
Q 1200 2663 1022 2536 
Q 844 2409 722 2214 
Q 600 2019 550 1819 
Q 538 1778 500 1778 
L 422 1778 
Q 372 1778 372 1838 
L 372 1856 
Q 434 2094 584 2320 
Q 734 2547 951 2687 
Q 1169 2828 1416 2828 
Q 1650 2828 1839 2703 
Q 2028 2578 2106 2363 
Q 2216 2559 2386 2693 
Q 2556 2828 2759 2828 
Q 2897 2828 3040 2779 
Q 3184 2731 3275 2631 
Q 3366 2531 3366 2381 
Q 3366 2219 3261 2101 
Q 3156 1984 2994 1984 
Q 2891 1984 2822 2050 
Q 2753 2116 2753 2216 
Q 2753 2350 2845 2451 
Q 2938 2553 3066 2572 
Q 2950 2663 2747 2663 
Q 2541 2663 2389 2472 
Q 2238 2281 2175 2047 
L 1894 916 
Q 1825 659 1825 494 
Q 1825 331 1917 214 
Q 2009 97 2163 97 
Q 2463 97 2698 361 
Q 2934 625 3009 941 
Q 3022 978 3059 978 
L 3138 978 
Q 3163 978 3178 961 
Q 3194 944 3194 922 
Q 3194 916 3188 903 
Q 3097 522 2806 225 
Q 2516 -72 2150 -72 
Q 1916 -72 1727 54 
Q 1538 181 1459 397 
Q 1359 209 1182 68 
Q 1006 -72 806 -72 
Q 669 -72 523 -23 
Q 378 25 287 125 
Q 197 225 197 378 
Q 197 528 301 651 
Q 406 775 563 775 
Q 669 775 741 711 
Q 813 647 813 544 
Q 813 409 723 309 
Q 634 209 500 184 
z
" transform="scale(0.015625)"/>
      </defs>
      <use xlink:href="#Cmmi10-78" transform="translate(0 0.8125)"/>
     </g>
    </g>
   </g>
   <g id="matplotlib.axis_2">
    <g id="ytick_1">
     <g id="line2d_42">
      <defs>
       <path id="me71f901635" d="M 0 0 
L -3.5 0 
" style="stroke: #000000; stroke-width: 0.8"/>
      </defs>
      <g>
       <use xlink:href="#me71f901635" x="162.377603" y="324.967778" style="stroke: #000000; stroke-width: 0.8"/>
      </g>
     </g>
     <g id="text_10">
      <!-- −4 -->
      <g transform="translate(140.635415 328.766997) scale(0.1 -0.1)">
       <use xlink:href="#DejaVuSans-2212"/>
       <use xlink:href="#DejaVuSans-34" transform="translate(83.789062 0)"/>
      </g>
     </g>
    </g>
    <g id="ytick_2">
     <g id="line2d_43">
      <g>
       <use xlink:href="#me71f901635" x="162.377603" y="288.016151" style="stroke: #000000; stroke-width: 0.8"/>
      </g>
     </g>
     <g id="text_11">
      <!-- −3 -->
      <g transform="translate(140.635415 291.81537) scale(0.1 -0.1)">
       <use xlink:href="#DejaVuSans-2212"/>
       <use xlink:href="#DejaVuSans-33" transform="translate(83.789062 0)"/>
      </g>
     </g>
    </g>
    <g id="ytick_3">
     <g id="line2d_44">
      <g>
       <use xlink:href="#me71f901635" x="162.377603" y="251.064524" style="stroke: #000000; stroke-width: 0.8"/>
      </g>
     </g>
     <g id="text_12">
      <!-- −2 -->
      <g transform="translate(140.635415 254.863742) scale(0.1 -0.1)">
       <use xlink:href="#DejaVuSans-2212"/>
       <use xlink:href="#DejaVuSans-32" transform="translate(83.789062 0)"/>
      </g>
     </g>
    </g>
    <g id="ytick_4">
     <g id="line2d_45">
      <g>
       <use xlink:href="#me71f901635" x="162.377603" y="214.112896" style="stroke: #000000; stroke-width: 0.8"/>
      </g>
     </g>
     <g id="text_13">
      <!-- −1 -->
      <g transform="translate(140.635415 217.912115) scale(0.1 -0.1)">
       <use xlink:href="#DejaVuSans-2212"/>
       <use xlink:href="#DejaVuSans-31" transform="translate(83.789062 0)"/>
      </g>
     </g>
    </g>
    <g id="ytick_5">
     <g id="line2d_46">
      <g>
       <use xlink:href="#me71f901635" x="162.377603" y="177.161269" style="stroke: #000000; stroke-width: 0.8"/>
      </g>
     </g>
    </g>
    <g id="ytick_6">
     <g id="line2d_47">
      <g>
       <use xlink:href="#me71f901635" x="162.377603" y="140.209642" style="stroke: #000000; stroke-width: 0.8"/>
      </g>
     </g>
     <g id="text_14">
      <!-- 1 -->
      <g transform="translate(149.015103 144.008861) scale(0.1 -0.1)">
       <use xlink:href="#DejaVuSans-31"/>
      </g>
     </g>
    </g>
    <g id="ytick_7">
     <g id="line2d_48">
      <g>
       <use xlink:href="#me71f901635" x="162.377603" y="103.258015" style="stroke: #000000; stroke-width: 0.8"/>
      </g>
     </g>
     <g id="text_15">
      <!-- 2 -->
      <g transform="translate(149.015103 107.057234) scale(0.1 -0.1)">
       <use xlink:href="#DejaVuSans-32"/>
      </g>
     </g>
    </g>
    <g id="ytick_8">
     <g id="line2d_49">
      <g>
       <use xlink:href="#me71f901635" x="162.377603" y="66.306388" style="stroke: #000000; stroke-width: 0.8"/>
      </g>
     </g>
     <g id="text_16">
      <!-- 3 -->
      <g transform="translate(149.015103 70.105606) scale(0.1 -0.1)">
       <use xlink:href="#DejaVuSans-33"/>
      </g>
     </g>
    </g>
    <g id="ytick_9">
     <g id="line2d_50">
      <g>
       <use xlink:href="#me71f901635" x="162.377603" y="29.35476" style="stroke: #000000; stroke-width: 0.8"/>
      </g>
     </g>
     <g id="text_17">
      <!-- 4 -->
      <g transform="translate(149.015103 33.153979) scale(0.1 -0.1)">
       <use xlink:href="#DejaVuSans-34"/>
      </g>
     </g>
    </g>
    <g id="ytick_10">
     <g id="line2d_51">
      <defs>
       <path id="m9555df31a2" d="M 0 0 
L -2 0 
" style="stroke: #000000; stroke-width: 0.6"/>
      </defs>
      <g>
       <use xlink:href="#m9555df31a2" x="162.377603" y="317.577453" style="stroke: #000000; stroke-width: 0.6"/>
      </g>
     </g>
    </g>
    <g id="ytick_11">
     <g id="line2d_52">
      <g>
       <use xlink:href="#m9555df31a2" x="162.377603" y="310.187127" style="stroke: #000000; stroke-width: 0.6"/>
      </g>
     </g>
    </g>
    <g id="ytick_12">
     <g id="line2d_53">
      <g>
       <use xlink:href="#m9555df31a2" x="162.377603" y="302.796802" style="stroke: #000000; stroke-width: 0.6"/>
      </g>
     </g>
    </g>
    <g id="ytick_13">
     <g id="line2d_54">
      <g>
       <use xlink:href="#m9555df31a2" x="162.377603" y="295.406476" style="stroke: #000000; stroke-width: 0.6"/>
      </g>
     </g>
    </g>
    <g id="ytick_14">
     <g id="line2d_55">
      <g>
       <use xlink:href="#m9555df31a2" x="162.377603" y="280.625825" style="stroke: #000000; stroke-width: 0.6"/>
      </g>
     </g>
    </g>
    <g id="ytick_15">
     <g id="line2d_56">
      <g>
       <use xlink:href="#m9555df31a2" x="162.377603" y="273.2355" style="stroke: #000000; stroke-width: 0.6"/>
      </g>
     </g>
    </g>
    <g id="ytick_16">
     <g id="line2d_57">
      <g>
       <use xlink:href="#m9555df31a2" x="162.377603" y="265.845175" style="stroke: #000000; stroke-width: 0.6"/>
      </g>
     </g>
    </g>
    <g id="ytick_17">
     <g id="line2d_58">
      <g>
       <use xlink:href="#m9555df31a2" x="162.377603" y="258.454849" style="stroke: #000000; stroke-width: 0.6"/>
      </g>
     </g>
    </g>
    <g id="ytick_18">
     <g id="line2d_59">
      <g>
       <use xlink:href="#m9555df31a2" x="162.377603" y="243.674198" style="stroke: #000000; stroke-width: 0.6"/>
      </g>
     </g>
    </g>
    <g id="ytick_19">
     <g id="line2d_60">
      <g>
       <use xlink:href="#m9555df31a2" x="162.377603" y="236.283873" style="stroke: #000000; stroke-width: 0.6"/>
      </g>
     </g>
    </g>
    <g id="ytick_20">
     <g id="line2d_61">
      <g>
       <use xlink:href="#m9555df31a2" x="162.377603" y="228.893547" style="stroke: #000000; stroke-width: 0.6"/>
      </g>
     </g>
    </g>
    <g id="ytick_21">
     <g id="line2d_62">
      <g>
       <use xlink:href="#m9555df31a2" x="162.377603" y="221.503222" style="stroke: #000000; stroke-width: 0.6"/>
      </g>
     </g>
    </g>
    <g id="ytick_22">
     <g id="line2d_63">
      <g>
       <use xlink:href="#m9555df31a2" x="162.377603" y="206.722571" style="stroke: #000000; stroke-width: 0.6"/>
      </g>
     </g>
    </g>
    <g id="ytick_23">
     <g id="line2d_64">
      <g>
       <use xlink:href="#m9555df31a2" x="162.377603" y="199.332246" style="stroke: #000000; stroke-width: 0.6"/>
      </g>
     </g>
    </g>
    <g id="ytick_24">
     <g id="line2d_65">
      <g>
       <use xlink:href="#m9555df31a2" x="162.377603" y="191.94192" style="stroke: #000000; stroke-width: 0.6"/>
      </g>
     </g>
    </g>
    <g id="ytick_25">
     <g id="line2d_66">
      <g>
       <use xlink:href="#m9555df31a2" x="162.377603" y="184.551595" style="stroke: #000000; stroke-width: 0.6"/>
      </g>
     </g>
    </g>
    <g id="ytick_26">
     <g id="line2d_67">
      <g>
       <use xlink:href="#m9555df31a2" x="162.377603" y="169.770944" style="stroke: #000000; stroke-width: 0.6"/>
      </g>
     </g>
    </g>
    <g id="ytick_27">
     <g id="line2d_68">
      <g>
       <use xlink:href="#m9555df31a2" x="162.377603" y="162.380618" style="stroke: #000000; stroke-width: 0.6"/>
      </g>
     </g>
    </g>
    <g id="ytick_28">
     <g id="line2d_69">
      <g>
       <use xlink:href="#m9555df31a2" x="162.377603" y="154.990293" style="stroke: #000000; stroke-width: 0.6"/>
      </g>
     </g>
    </g>
    <g id="ytick_29">
     <g id="line2d_70">
      <g>
       <use xlink:href="#m9555df31a2" x="162.377603" y="147.599967" style="stroke: #000000; stroke-width: 0.6"/>
      </g>
     </g>
    </g>
    <g id="ytick_30">
     <g id="line2d_71">
      <g>
       <use xlink:href="#m9555df31a2" x="162.377603" y="132.819317" style="stroke: #000000; stroke-width: 0.6"/>
      </g>
     </g>
    </g>
    <g id="ytick_31">
     <g id="line2d_72">
      <g>
       <use xlink:href="#m9555df31a2" x="162.377603" y="125.428991" style="stroke: #000000; stroke-width: 0.6"/>
      </g>
     </g>
    </g>
    <g id="ytick_32">
     <g id="line2d_73">
      <g>
       <use xlink:href="#m9555df31a2" x="162.377603" y="118.038666" style="stroke: #000000; stroke-width: 0.6"/>
      </g>
     </g>
    </g>
    <g id="ytick_33">
     <g id="line2d_74">
      <g>
       <use xlink:href="#m9555df31a2" x="162.377603" y="110.64834" style="stroke: #000000; stroke-width: 0.6"/>
      </g>
     </g>
    </g>
    <g id="ytick_34">
     <g id="line2d_75">
      <g>
       <use xlink:href="#m9555df31a2" x="162.377603" y="95.867689" style="stroke: #000000; stroke-width: 0.6"/>
      </g>
     </g>
    </g>
    <g id="ytick_35">
     <g id="line2d_76">
      <g>
       <use xlink:href="#m9555df31a2" x="162.377603" y="88.477364" style="stroke: #000000; stroke-width: 0.6"/>
      </g>
     </g>
    </g>
    <g id="ytick_36">
     <g id="line2d_77">
      <g>
       <use xlink:href="#m9555df31a2" x="162.377603" y="81.087038" style="stroke: #000000; stroke-width: 0.6"/>
      </g>
     </g>
    </g>
    <g id="ytick_37">
     <g id="line2d_78">
      <g>
       <use xlink:href="#m9555df31a2" x="162.377603" y="73.696713" style="stroke: #000000; stroke-width: 0.6"/>
      </g>
     </g>
    </g>
    <g id="ytick_38">
     <g id="line2d_79">
      <g>
       <use xlink:href="#m9555df31a2" x="162.377603" y="58.916062" style="stroke: #000000; stroke-width: 0.6"/>
      </g>
     </g>
    </g>
    <g id="ytick_39">
     <g id="line2d_80">
      <g>
       <use xlink:href="#m9555df31a2" x="162.377603" y="51.525737" style="stroke: #000000; stroke-width: 0.6"/>
      </g>
     </g>
    </g>
    <g id="ytick_40">
     <g id="line2d_81">
      <g>
       <use xlink:href="#m9555df31a2" x="162.377603" y="44.135411" style="stroke: #000000; stroke-width: 0.6"/>
      </g>
     </g>
    </g>
    <g id="ytick_41">
     <g id="line2d_82">
      <g>
       <use xlink:href="#m9555df31a2" x="162.377603" y="36.745086" style="stroke: #000000; stroke-width: 0.6"/>
      </g>
     </g>
    </g>
    <g id="text_18">
     <!-- $y$ -->
     <g transform="translate(158.377603 12.0825) scale(0.16 -0.16)">
      <defs>
       <path id="Cmmi10-79" d="M 538 -916 
Q 672 -1147 1006 -1147 
Q 1309 -1147 1531 -934 
Q 1753 -722 1889 -420 
Q 2025 -119 2100 197 
Q 1816 -72 1484 -72 
Q 1231 -72 1053 15 
Q 875 103 776 276 
Q 678 450 678 697 
Q 678 906 734 1126 
Q 791 1347 892 1617 
Q 994 1888 1069 2088 
Q 1153 2322 1153 2472 
Q 1153 2663 1013 2663 
Q 759 2663 595 2402 
Q 431 2141 353 1819 
Q 341 1778 300 1778 
L 225 1778 
Q 172 1778 172 1838 
L 172 1856 
Q 275 2238 487 2533 
Q 700 2828 1025 2828 
Q 1253 2828 1411 2678 
Q 1569 2528 1569 2297 
Q 1569 2178 1516 2047 
Q 1488 1969 1388 1706 
Q 1288 1444 1234 1272 
Q 1181 1100 1147 934 
Q 1113 769 1113 603 
Q 1113 391 1203 244 
Q 1294 97 1491 97 
Q 1888 97 2203 581 
L 2688 2553 
Q 2709 2638 2787 2698 
Q 2866 2759 2956 2759 
Q 3034 2759 3092 2709 
Q 3150 2659 3150 2578 
Q 3150 2541 3144 2528 
L 2509 -19 
Q 2425 -347 2200 -647 
Q 1975 -947 1658 -1130 
Q 1341 -1313 997 -1313 
Q 831 -1313 668 -1248 
Q 506 -1184 406 -1056 
Q 306 -928 306 -756 
Q 306 -581 409 -453 
Q 513 -325 684 -325 
Q 788 -325 858 -389 
Q 928 -453 928 -556 
Q 928 -703 818 -812 
Q 709 -922 563 -922 
Q 556 -919 550 -917 
Q 544 -916 538 -916 
z
" transform="scale(0.015625)"/>
      </defs>
      <use xlink:href="#Cmmi10-79" transform="translate(0 0.8125)"/>
     </g>
    </g>
   </g>
   <g id="line2d_83">
    <path d="M 199.32923 177.161269 
L 199.256213 174.839453 
L 198.840683 171.172404 
L 198.17153 167.98426 
L 197.495292 165.664719 
L 196.347727 162.619833 
L 194.947327 159.70745 
L 193.337815 156.989804 
L 191.842818 154.862753 
L 190.040681 152.662762 
L 187.963286 150.50052 
L 186.035591 148.776021 
L 184.39262 147.483639 
L 181.541239 145.567318 
L 178.494185 143.909524 
L 176.069592 142.839961 
L 172.781047 141.704379 
L 169.883162 140.97993 
L 167.106799 140.513521 
L 164.826194 140.290859 
L 161.452781 140.221217 
L 158.981916 140.365997 
L 155.420194 140.870537 
L 151.606482 141.814336 
L 149.129874 142.666046 
L 146.694907 143.7027 
L 143.778416 145.231769 
L 142.698865 145.885559 
L 139.854246 147.867564 
L 137.683 149.673102 
L 135.504907 151.798285 
L 133.171314 154.524674 
L 131.161749 157.387721 
L 129.489107 160.315807 
L 128.070491 163.433749 
L 127.268122 165.639674 
L 126.473116 168.426822 
L 125.819964 171.779649 
L 125.559165 174.026722 
L 125.430004 176.615631 
L 125.534854 179.995814 
L 125.942158 183.316032 
L 126.590775 186.365929 
L 127.308637 188.8056 
L 128.27533 191.390034 
L 129.514359 194.055942 
L 130.677011 196.147981 
L 132.112633 198.361608 
L 134.312921 201.198665 
L 135.832992 202.867425 
L 137.575782 204.552736 
L 140.184821 206.706204 
L 142.13919 208.07776 
L 145.208189 209.881813 
L 147.957766 211.183189 
L 150.573476 212.176771 
L 152.355474 212.727822 
L 155.297302 213.428225 
L 158.136029 213.86865 
L 161.730435 214.107229 
L 163.865851 214.082914 
L 166.324083 213.901547 
L 169.346559 213.449785 
L 171.350886 213.006812 
L 174.282058 212.142789 
L 177.254982 210.985615 
L 179.688703 209.807074 
L 182.980714 207.835926 
L 184.798272 206.533643 
L 187.513873 204.246148 
L 189.638973 202.106017 
L 192.107269 199.105965 
L 193.61017 196.908407 
L 194.470276 195.477465 
L 195.791508 192.938901 
L 197.036588 189.974445 
L 198.123231 186.524645 
L 198.586128 184.534563 
L 199.004932 182.046089 
L 199.281339 179.041963 
L 199.32923 177.161269 
L 199.32923 177.161269 
" clip-path="url(#p0af4424243)" style="fill: none; stroke-dasharray: 3.7,1.6; stroke-dashoffset: 0; stroke: #808080"/>
   </g>
   <g id="line2d_84">
    <path d="M 236.280857 177.161269 
L 236.206665 173.850594 
L 235.942643 170.098982 
L 235.4948 166.411086 
L 234.766519 162.27719 
L 233.599531 157.434944 
L 232.485012 153.78089 
L 231.540312 151.118792 
L 230.200169 147.805 
L 228.065025 143.296043 
L 226.176096 139.859215 
L 223.821091 136.095605 
L 221.489139 132.804565 
L 218.575848 129.167017 
L 215.719089 126.010738 
L 211.622116 122.05529 
L 208.709991 119.585226 
L 206.278552 117.710469 
L 202.961448 115.398477 
L 199.422695 113.213227 
L 194.977013 110.836542 
L 194.236628 110.477737 
L 189.966309 108.600681 
L 187.151496 107.534082 
L 181.580593 105.796459 
L 178.877918 105.123567 
L 176.370653 104.594848 
L 170.947581 103.756593 
L 166.372735 103.36608 
L 162.957002 103.260286 
L 157.494839 103.419493 
L 155.561385 103.573022 
L 150.822594 104.166935 
L 146.596249 104.962655 
L 141.93793 106.140774 
L 138.382419 107.261897 
L 135.01716 108.509269 
L 130.672394 110.404466 
L 126.857313 112.353862 
L 123.032162 114.602279 
L 119.227311 117.163408 
L 115.345696 120.15521 
L 112.02871 123.062471 
L 108.857793 126.197351 
L 106.320036 129.002778 
L 103.225166 132.859122 
L 100.623269 136.564553 
L 98.648242 139.741227 
L 96.516567 143.634937 
L 95.208044 146.34015 
L 93.170679 151.236518 
L 91.872272 155.009761 
L 90.73226 159.032954 
L 90.066519 161.903544 
L 89.235885 166.5792 
L 88.835867 169.860302 
L 88.536379 174.13393 
L 88.474517 177.319401 
L 88.621987 181.830329 
L 89.010992 186.051233 
L 89.731037 190.732103 
L 90.492253 194.313167 
L 91.624999 198.509808 
L 93.383767 203.6479 
L 95.255193 208.084935 
L 97.693637 212.905858 
L 100.201082 217.108376 
L 101.901304 219.63842 
L 104.249401 222.799008 
L 106.640316 225.690084 
L 109.818986 229.115892 
L 113.070216 232.210998 
L 116.188351 234.852204 
L 119.276062 237.194162 
L 122.952424 239.670039 
L 127.314004 242.2169 
L 131.947305 244.508786 
L 136.421275 246.356356 
L 140.305681 247.691556 
L 145.379767 249.083203 
L 150.510943 250.105586 
L 153.709079 250.554373 
L 158.494932 250.962461 
L 163.703995 251.05262 
L 168.402638 250.818516 
L 173.651167 250.1996 
L 176.909995 249.621607 
L 181.502118 248.54715 
L 186.508193 247.014012 
L 190.265671 245.600634 
L 195.069285 243.440564 
L 197.351173 242.265343 
L 200.968985 240.188217 
L 204.430094 237.933623 
L 208.608495 234.818841 
L 211.877199 232.038232 
L 213.996391 230.049753 
L 217.2887 226.622996 
L 219.993306 223.44433 
L 222.990697 219.442989 
L 225.264711 215.980112 
L 227.422456 212.244855 
L 229.493149 208.09983 
L 231.154972 204.205021 
L 232.711848 199.850143 
L 233.726139 196.424638 
L 234.7341 192.202158 
L 235.543018 187.578228 
L 236.04953 183.004048 
L 236.267449 178.568982 
L 236.280857 177.161269 
L 236.280857 177.161269 
" clip-path="url(#p0af4424243)" style="fill: none; stroke-dasharray: 3.7,1.6; stroke-dashoffset: 0; stroke: #808080"/>
   </g>
   <g id="line2d_85">
    <path d="M 273.232484 177.161269 
L 273.06092 170.996199 
L 272.610434 165.434054 
L 271.981179 160.552208 
L 271.316043 156.637601 
L 270.191443 151.374053 
L 268.566742 145.338771 
L 266.952489 140.379509 
L 265.188576 135.70396 
L 263.079929 130.816407 
L 260.515096 125.607053 
L 258.526223 121.986568 
L 256.066814 117.906425 
L 253.54644 114.097429 
L 250.953187 110.504156 
L 248.238291 107.04175 
L 244.327621 102.508746 
L 240.458202 98.470578 
L 235.810737 94.116826 
L 232.220989 91.07581 
L 228.032444 87.840238 
L 223.419781 84.626642 
L 220.354366 82.675822 
L 215.135871 79.665783 
L 211.654472 77.860741 
L 205.549589 75.058456 
L 199.6979 72.777362 
L 195.165892 71.266355 
L 191.092952 70.090108 
L 185.29263 68.700648 
L 182.547447 68.156764 
L 176.862391 67.256785 
L 169.094581 66.510074 
L 162.456916 66.306416 
L 157.880273 66.397652 
L 151.960172 66.796955 
L 148.172387 67.2203 
L 141.34214 68.320495 
L 136.276823 69.42291 
L 130.756942 70.911852 
L 125.038752 72.783997 
L 121.468741 74.130838 
L 115.69627 76.614474 
L 110.45814 79.216519 
L 106.585022 81.369867 
L 100.878667 84.929574 
L 96.176251 88.244534 
L 91.555102 91.879512 
L 88.903444 94.15312 
L 84.173618 98.5932 
L 81.3485 101.510166 
L 77.820364 105.4753 
L 74.078117 110.138843 
L 70.419812 115.253519 
L 67.710467 119.481653 
L 65.151639 123.907943 
L 62.672912 128.707379 
L 60.651278 133.109485 
L 59.013279 137.103543 
L 56.906788 143.033393 
L 55.487071 147.78068 
L 54.208204 152.908725 
L 53.370501 157.005461 
L 52.605024 161.708572 
L 51.938764 167.566072 
L 51.707563 170.762271 
L 51.523537 176.735839 
L 51.581767 180.778953 
L 51.799513 184.990123 
L 52.151266 188.949381 
L 53.067383 195.602543 
L 53.74557 199.249419 
L 54.771041 203.800199 
L 56.023154 208.426843 
L 57.622505 213.426601 
L 59.533698 218.536819 
L 61.430044 222.969514 
L 63.685812 227.646269 
L 66.387639 232.611532 
L 68.821935 236.626736 
L 71.141679 240.128015 
L 74.378137 244.577134 
L 77.862934 248.897421 
L 81.417585 252.8863 
L 85.350661 256.883632 
L 90.175087 261.277864 
L 95.083631 265.253983 
L 99.39229 268.384376 
L 101.789869 269.994083 
L 107.461266 273.45769 
L 112.62126 276.222418 
L 117.972947 278.734057 
L 120.26957 279.707446 
L 125.877956 281.834955 
L 132.372825 283.878269 
L 135.757309 284.772443 
L 139.707988 285.67345 
L 144.081203 286.495832 
L 148.903792 287.19427 
L 153.250529 287.63978 
L 157.006438 287.885952 
L 163.423737 288.011215 
L 168.111845 287.867743 
L 172.952759 287.510582 
L 179.660798 286.660566 
L 186.462342 285.368155 
L 192.127926 283.949485 
L 198.578533 281.93864 
L 204.490084 279.705619 
L 210.324364 277.110821 
L 215.005889 274.726982 
L 218.032926 273.032484 
L 222.866292 270.058649 
L 228.497086 266.138899 
L 230.981676 264.237592 
L 236.036879 260.005194 
L 239.295165 256.989168 
L 242.677053 253.586416 
L 246.743272 249.072594 
L 250.294886 244.684273 
L 253.119831 240.837425 
L 255.800149 236.835657 
L 258.640223 232.136834 
L 261.405692 226.983376 
L 263.382088 222.843855 
L 265.485343 217.874887 
L 267.345737 212.805281 
L 268.888789 207.888652 
L 270.329491 202.364335 
L 271.536632 196.477351 
L 272.273957 191.70761 
L 272.782916 187.134818 
L 273.086062 182.857048 
L 273.232484 177.161269 
L 273.232484 177.161269 
" clip-path="url(#p0af4424243)" style="fill: none; stroke-dasharray: 3.7,1.6; stroke-dashoffset: 0; stroke: #808080"/>
   </g>
   <g id="line2d_86">
    <path d="M 310.184112 177.161269 
L 310.033652 170.493796 
L 309.601585 164.051609 
L 309.190982 160.055839 
L 308.211323 153.092822 
L 307.056549 146.91616 
L 305.951255 142.041894 
L 304.374818 136.130125 
L 302.459247 130.003058 
L 300.449734 124.40854 
L 298.53055 119.636154 
L 295.778901 113.51492 
L 293.352389 108.660397 
L 290.397687 103.285549 
L 286.322241 96.634933 
L 282.583042 91.153035 
L 279.545346 87.058639 
L 275.264807 81.750351 
L 271.763197 77.755254 
L 267.061448 72.815418 
L 262.401003 68.339932 
L 257.711145 64.208714 
L 254.338206 61.446052 
L 249.997453 58.125452 
L 244.041394 53.963099 
L 237.793396 50.04234 
L 231.983103 46.770172 
L 229.498928 45.474172 
L 225.043175 43.296449 
L 217.825952 40.149428 
L 212.665657 38.172508 
L 204.589108 35.510456 
L 200.496911 34.354818 
L 196.373165 33.317375 
L 190.08919 31.97576 
L 183.882643 30.927561 
L 179.480385 30.347582 
L 173.111321 29.745017 
L 169.751305 29.538803 
L 163.206736 29.357086 
L 158.508077 29.40542 
L 153.942483 29.595647 
L 144.341956 30.45926 
L 136.312853 31.671088 
L 133.372041 32.228728 
L 125.782839 33.956565 
L 118.879758 35.900158 
L 111.847873 38.260187 
L 104.178062 41.295241 
L 98.320198 43.956866 
L 94.511965 45.856207 
L 87.16743 49.920576 
L 81.420259 53.497723 
L 76.061649 57.176602 
L 69.552432 62.138437 
L 64.486191 66.418163 
L 59.28784 71.240237 
L 55.060103 75.526047 
L 50.843627 80.171907 
L 47.522448 84.128708 
L 43.090958 89.883205 
L 39.811936 94.551212 
L 36.144034 100.272712 
L 33.111609 105.487934 
L 30.507702 110.399803 
L 28.577081 114.358527 
L 26.19776 119.699853 
L 23.803752 125.740924 
L 21.789957 131.533668 
L 20.295272 136.425839 
L 19.057589 141.020743 
L 17.503664 147.864409 
L 16.722223 152.036092 
L 15.765812 158.406351 
L 15.111874 164.529201 
L 14.719514 170.539114 
L 14.571837 176.692529 
L 14.694216 183.192961 
L 14.985182 188.217416 
L 15.506591 193.764586 
L 16.148374 198.696745 
L 17.299021 205.427314 
L 18.542169 211.192608 
L 19.990787 216.819291 
L 22.018644 223.487576 
L 23.567132 227.939386 
L 26.207312 234.64532 
L 29.02749 240.91479 
L 31.412663 245.680965 
L 33.423354 249.39399 
L 36.622642 254.830143 
L 39.830994 259.799594 
L 43.794049 265.392243 
L 47.392339 270.032973 
L 51.811341 275.252379 
L 54.797302 278.518277 
L 58.344997 282.156417 
L 62.682636 286.283575 
L 65.70242 288.967679 
L 71.406856 293.656279 
L 74.039789 295.665256 
L 79.782746 299.737179 
L 83.990047 302.46951 
L 88.721064 305.307585 
L 91.98612 307.129739 
L 99.735496 311.037072 
L 103.05901 312.542467 
L 111.188321 315.820641 
L 115.803812 317.438303 
L 123.260727 319.6977 
L 129.418042 321.246076 
L 137.145848 322.798224 
L 145.096557 323.954081 
L 152.895319 324.663304 
L 160.242173 324.952352 
L 165.173175 324.941338 
L 171.849145 324.663994 
L 177.079646 324.234768 
L 181.735313 323.694689 
L 189.181751 322.517046 
L 194.9908 321.324869 
L 200.197846 320.047214 
L 204.681975 318.784375 
L 212.658212 316.152724 
L 220.021588 313.263933 
L 222.447925 312.210595 
L 227.056237 310.065138 
L 234.326107 306.274308 
L 240.116528 302.872937 
L 244.53791 300.028873 
L 249.888156 296.277461 
L 253.412964 293.605792 
L 258.808607 289.178346 
L 262.845822 285.572066 
L 267.665537 280.897545 
L 271.68931 276.648528 
L 276.514502 271.073634 
L 280.913081 265.456821 
L 284.15667 260.926553 
L 287.281519 256.191489 
L 290.719027 250.477317 
L 294.202485 244.011584 
L 297.059598 238.050711 
L 299.584173 232.125995 
L 301.767369 226.326877 
L 303.613388 220.741277 
L 305.466844 214.204935 
L 307.047298 207.450596 
L 308.12425 201.75149 
L 308.888534 196.688455 
L 309.484392 191.526385 
L 309.904098 186.255072 
L 310.144305 180.591382 
L 310.184112 177.161269 
L 310.184112 177.161269 
" clip-path="url(#p0af4424243)" style="fill: none; stroke-dasharray: 3.7,1.6; stroke-dashoffset: 0; stroke: #808080"/>
   </g>
   <g id="line2d_87">
    <path d="M 337.436372 118.104492 
L 336.082302 114.214892 
L 333.895786 108.480256 
L 330.562129 100.679022 
L 327.466331 94.207784 
L 324.834142 89.164441 
L 320.998097 82.424224 
L 317.556706 76.886573 
L 313.062763 70.25219 
L 308.580708 64.200122 
L 304.835389 59.512011 
L 300.404368 54.343595 
L 295.144512 48.675797 
L 290.916453 44.446037 
L 286.260109 40.089414 
L 280.152105 34.807009 
L 273.962958 29.905447 
L 269.023893 26.290007 
L 266.26151 24.374808 
L 261.657383 21.343767 
L 253.500667 16.437419 
L 249.802357 14.396159 
L 241.244907 10.081896 
L 235.653018 7.555012 
L 227.782776 4.367369 
L 224.988073 3.335213 
L 218.843685 1.243247 
L 211.285062 -1 
M 113.502708 -1 
L 111.130722 -0.347396 
L 106.089279 1.18629 
L 100.444829 3.092603 
L 96.050783 4.719042 
L 89.02232 7.58954 
L 84.449266 9.641888 
L 80.196994 11.686448 
L 72.758175 15.594171 
L 66.4422 19.262671 
L 59.907923 23.422746 
L 55.386413 26.534399 
L 48.541248 31.63858 
L 42.765302 36.347682 
L 38.838065 39.780224 
L 34.120626 44.173613 
L 30.31301 47.954024 
L 26.139137 52.362834 
L 21.071235 58.131528 
L 16.643845 63.59525 
L 12.902864 68.566281 
L 8.334455 75.150105 
L 3.785202 82.377202 
L 0.628714 87.870364 
L -1 90.894293 
M -1 263.431712 
L 1.204063 267.486564 
L 4.582995 273.26762 
L 8.805019 279.879479 
L 12.22095 284.81139 
L 17.102778 291.313774 
L 20.101445 295.030111 
L 24.10145 299.698098 
L 27.554045 303.486948 
L 31.327095 307.396953 
L 36.530416 312.431571 
L 40.290774 315.834897 
L 47.460354 321.831912 
L 53.113117 326.147312 
L 59.915789 330.905035 
L 66.748062 335.245297 
L 73.401807 339.080038 
M 251.351627 339.080038 
L 254.526782 337.299015 
L 259.485681 334.341389 
L 266.646744 329.685087 
L 269.82323 327.464316 
L 274.115855 324.301107 
L 281.324711 318.537202 
L 286.85167 313.696157 
L 291.365486 309.440122 
L 295.711822 305.057926 
L 299.619669 300.855182 
L 303.367557 296.565631 
L 307.466652 291.549802 
L 312.334034 285.090123 
L 316.970857 278.336832 
L 320.165814 273.278121 
L 322.863475 268.70281 
L 326.639512 261.740191 
L 329.26449 256.435071 
L 332.059486 250.261387 
L 334.610813 244.028976 
L 336.250415 239.641779 
L 337.436372 236.232805 
L 337.436372 236.232805 
" clip-path="url(#p0af4424243)" style="fill: none; stroke-dasharray: 3.7,1.6; stroke-dashoffset: 0; stroke: #808080"/>
   </g>
   <g id="line2d_88">
    <path d="M 162.377603 177.161269 
L 337.436372 104.649553 
" clip-path="url(#p0af4424243)" style="fill: none; stroke: #808080; stroke-linecap: square"/>
   </g>
   <g id="line2d_89">
    <path d="M 162.377603 177.161269 
L 319.15008 20.388792 
" clip-path="url(#p0af4424243)" style="fill: none; stroke: #808080; stroke-linecap: square"/>
   </g>
   <g id="line2d_90">
    <path d="M 162.377603 177.161269 
L 236.174417 -1 
" clip-path="url(#p0af4424243)" style="fill: none; stroke: #808080; stroke-linecap: square"/>
   </g>
   <g id="line2d_91">
    <path d="M 162.377603 177.161269 
L 162.377603 -1 
" clip-path="url(#p0af4424243)" style="fill: none; stroke: #808080; stroke-linecap: square"/>
   </g>
   <g id="line2d_92">
    <path d="M 162.377603 177.161269 
L 88.580789 -1 
" clip-path="url(#p0af4424243)" style="fill: none; stroke: #808080; stroke-linecap: square"/>
   </g>
   <g id="line2d_93">
    <path d="M 162.377603 177.161269 
L 5.605126 20.388792 
" clip-path="url(#p0af4424243)" style="fill: none; stroke: #808080; stroke-linecap: square"/>
   </g>
   <g id="line2d_94">
    <path d="M 162.377603 177.161269 
L -1 109.48805 
" clip-path="url(#p0af4424243)" style="fill: none; stroke: #808080; stroke-linecap: square"/>
   </g>
   <g id="line2d_95">
    <path d="M 162.377603 177.161269 
L -1 177.161269 
" clip-path="url(#p0af4424243)" style="fill: none; stroke: #808080; stroke-linecap: square"/>
   </g>
   <g id="line2d_96">
    <path d="M 162.377603 177.161269 
L -1 244.834488 
" clip-path="url(#p0af4424243)" style="fill: none; stroke: #808080; stroke-linecap: square"/>
   </g>
   <g id="line2d_97">
    <path d="M 162.377603 177.161269 
L 5.605126 333.933746 
" clip-path="url(#p0af4424243)" style="fill: none; stroke: #808080; stroke-linecap: square"/>
   </g>
   <g id="line2d_98">
    <path d="M 162.377603 177.161269 
L 95.308652 339.080038 
" clip-path="url(#p0af4424243)" style="fill: none; stroke: #808080; stroke-linecap: square"/>
   </g>
   <g id="line2d_99">
    <path d="M 162.377603 177.161269 
L 162.377603 339.080038 
" clip-path="url(#p0af4424243)" style="fill: none; stroke: #808080; stroke-linecap: square"/>
   </g>
   <g id="line2d_100">
    <path d="M 162.377603 177.161269 
L 229.446553 339.080038 
" clip-path="url(#p0af4424243)" style="fill: none; stroke: #808080; stroke-linecap: square"/>
   </g>
   <g id="line2d_101">
    <path d="M 162.377603 177.161269 
L 319.15008 333.933746 
" clip-path="url(#p0af4424243)" style="fill: none; stroke: #808080; stroke-linecap: square"/>
   </g>
   <g id="line2d_102">
    <path d="M 162.377603 177.161269 
L 337.436372 249.672986 
" clip-path="url(#p0af4424243)" style="fill: none; stroke: #808080; stroke-linecap: square"/>
   </g>
   <g id="patch_3">
    <path d="M 162.377603 330.880038 
L 162.377603 23.4425 
" style="fill: none; stroke: #000000; stroke-width: 0.8; stroke-linejoin: miter; stroke-linecap: square"/>
   </g>
   <g id="patch_4">
    <path d="M 8.658833 177.161269 
L 316.096372 177.161269 
" style="fill: none; stroke: #000000; stroke-width: 0.8; stroke-linejoin: miter; stroke-linecap: square"/>
   </g>
  </g>
 </g>
 <defs>
  <clipPath id="p0af4424243">
   <rect x="8.658833" y="23.4425" width="307.437538" height="307.437538"/>
  </clipPath>
 </defs>
</svg>
