<?xml version="1.0" encoding="utf-8" standalone="no"?>
<!DOCTYPE svg PUBLIC "-//W3C//DTD SVG 1.1//EN"
  "http://www.w3.org/Graphics/SVG/1.1/DTD/svg11.dtd">
<svg xmlns:xlink="http://www.w3.org/1999/xlink" width="453.6pt" height="236.336057pt" viewBox="0 0 453.6 236.336057" xmlns="http://www.w3.org/2000/svg" version="1.1">
 <metadata>
  <rdf:RDF xmlns:dc="http://purl.org/dc/elements/1.1/" xmlns:cc="http://creativecommons.org/ns#" xmlns:rdf="http://www.w3.org/1999/02/22-rdf-syntax-ns#">
   <cc:Work>
    <dc:type rdf:resource="http://purl.org/dc/dcmitype/StillImage"/>
    <dc:date>2025-07-25T18:37:05.357684</dc:date>
    <dc:format>image/svg+xml</dc:format>
    <dc:creator>
     <cc:Agent>
      <dc:title>Matplotlib v3.10.3, https://matplotlib.org/</dc:title>
     </cc:Agent>
    </dc:creator>
   </cc:Work>
  </rdf:RDF>
 </metadata>
 <defs>
  <style type="text/css">*{stroke-linejoin: round; stroke-linecap: butt}</style>
 </defs>
 <g id="figure_1">
  <g id="patch_1">
   <path d="M 0 236.336057 
L 453.6 236.336057 
L 453.6 0 
L 0 0 
z
" style="fill: #ffffff"/>
  </g>
  <g id="axes_1">
   <g id="patch_2">
    <path d="M 7.2 229.136057 
L 446.4 229.136057 
L 446.4 7.2 
L 7.2 7.2 
z
" style="fill: #ffffff"/>
   </g>
   <g id="PathCollection_1">
    <path d="M 411.548092 52.085456 
C 412.485726 52.085456 413.385084 51.71293 414.048092 51.049922 
C 414.7111 50.386915 415.083626 49.487557 415.083626 48.549922 
C 415.083626 47.612288 414.7111 46.71293 414.048092 46.049922 
C 413.385084 45.386915 412.485726 45.014388 411.548092 45.014388 
C 410.610457 45.014388 409.7111 45.386915 409.048092 46.049922 
C 408.385084 46.71293 408.012558 47.612288 408.012558 48.549922 
C 408.012558 49.487557 408.385084 50.386915 409.048092 51.049922 
C 409.7111 51.71293 410.610457 52.085456 411.548092 52.085456 
z
" clip-path="url(#p23d373b0c5)"/>
   </g>
   <g id="matplotlib.axis_1"/>
   <g id="matplotlib.axis_2"/>
   <g id="line2d_1">
    <path d="M 437.953846 75.118294 
L 434.624724 70.78553 
L 431.813396 67.419408 
L 426.959362 62.129292 
L 422.729735 57.970471 
L 418.139191 53.853596 
L 413.034069 49.689149 
L 408.281505 46.150955 
L 403.395728 42.811812 
L 397.98761 39.428216 
L 391.811964 35.921219 
L 389.105415 34.493355 
L 382.113872 31.084852 
L 376.13287 28.463207 
L 369.34623 25.786087 
L 361.77437 23.140011 
L 357.815982 21.889302 
L 352.527679 20.351604 
L 345.056706 18.424141 
L 336.72659 16.590824 
L 326.937296 14.831 
L 318.145337 13.588841 
L 313.757805 13.082243 
L 305.126009 12.295482 
L 297.242432 11.810159 
L 287.614953 11.505498 
L 277.507341 11.511628 
L 271.325442 11.673956 
L 260.875957 12.213077 
L 250.512276 13.067093 
L 242.119033 13.985813 
L 230.702975 15.55481 
L 218.698857 17.595481 
L 208.706258 19.596784 
L 197.029436 22.282898 
L 187.838068 24.661926 
L 177.481174 27.625331 
L 168.927444 30.302608 
L 158.294258 33.928094 
L 151.605662 36.382444 
L 143.180395 39.67199 
L 132.251267 44.282764 
L 124.791167 47.66522 
L 117.579374 51.127831 
L 107.158905 56.490252 
L 99.034493 60.991731 
L 89.880581 66.438281 
L 83.343554 70.598558 
L 75.251528 76.10316 
L 68.405767 81.110434 
L 62.746118 85.531628 
L 55.893237 91.287371 
L 50.164811 96.505204 
L 46.650054 99.927774 
L 42.888382 103.813344 
L 38.229121 109.013369 
L 33.978653 114.234124 
L 31.773181 117.173458 
L 29.020627 121.125967 
L 26.179799 125.635912 
L 24.375815 128.805969 
L 21.741945 134.058234 
L 19.784534 138.712874 
L 18.519061 142.312824 
L 17.303202 146.595193 
L 16.539621 150.148882 
L 16.015877 153.614669 
L 15.766444 156.271062 
L 15.650104 160.447194 
L 15.882676 164.605043 
L 16.432749 168.507184 
L 16.984405 171.100813 
L 17.974603 174.597843 
L 19.198099 177.939737 
L 20.668348 181.201908 
L 21.982509 183.689386 
L 23.78168 186.658103 
L 25.965965 189.787442 
L 27.906674 192.251551 
L 30.731385 195.445395 
L 33.058602 197.806057 
L 36.830726 201.235018 
L 39.968914 203.791129 
L 44.449463 207.074977 
L 47.986788 209.419987 
L 51.111101 211.339563 
L 57.414119 214.850585 
L 61.710958 217.010249 
L 67.771679 219.788063 
L 72.812076 221.892105 
L 78.408739 224.038769 
L 80.706607 224.868056 
L 80.706607 224.868056 
" clip-path="url(#p23d373b0c5)" style="fill: none; stroke: #000000; stroke-width: 2; stroke-linecap: square"/>
   </g>
   <g id="patch_3">
    <path d="M 181.155839 26.539322 
Q 180.128859 26.840478 181.247592 26.512416 
" clip-path="url(#p23d373b0c5)" style="fill: none; stroke: #000000; stroke-width: 2; stroke-linecap: round"/>
    <path d="M 192.250487 28.496429 
L 181.247592 26.512416 
L 189.436539 18.900508 
z
" clip-path="url(#p23d373b0c5)" style="stroke: #000000; stroke-width: 2; stroke-linecap: round"/>
   </g>
   <g id="patch_4">
    <path d="M 411.548092 48.549922 
Q 376.053361 39.084661 342.719196 30.19555 
" clip-path="url(#p23d373b0c5)" style="fill: none; stroke: #ff0000; stroke-width: 2; stroke-linecap: round"/>
    <path d="M 351.093232 37.603351 
L 342.719196 30.19555 
L 353.669859 27.941002 
z
" clip-path="url(#p23d373b0c5)" style="fill: #ff0000; stroke: #ff0000; stroke-width: 2; stroke-linecap: round"/>
   </g>
   <g id="text_1">
    <!-- $P$ -->
    <g transform="translate(414.513353 35.138149) scale(0.2 -0.2)">
     <defs>
      <path id="Cmmi10-50" d="M 313 0 
Q 250 0 250 84 
Q 253 100 262 139 
Q 272 178 289 201 
Q 306 225 331 225 
Q 722 225 878 269 
Q 959 297 997 441 
L 1875 3956 
Q 1888 4019 1888 4044 
Q 1888 4113 1813 4122 
Q 1691 4147 1350 4147 
Q 1288 4147 1288 4231 
Q 1291 4247 1300 4286 
Q 1309 4325 1326 4348 
Q 1344 4372 1369 4372 
L 3578 4372 
Q 3881 4372 4165 4264 
Q 4450 4156 4631 3934 
Q 4813 3713 4813 3397 
Q 4813 2991 4527 2672 
Q 4241 2353 3814 2175 
Q 3388 1997 2988 1997 
L 1947 1997 
L 1556 416 
Q 1544 353 1544 325 
Q 1544 300 1551 283 
Q 1559 266 1573 261 
Q 1588 256 1619 250 
Q 1741 225 2081 225 
Q 2144 225 2144 141 
Q 2122 50 2109 25 
Q 2097 0 2034 0 
L 313 0 
z
M 1978 2188 
L 2875 2188 
Q 3497 2188 3822 2522 
Q 3988 2688 4092 3000 
Q 4197 3313 4197 3566 
Q 4197 3881 3956 4014 
Q 3716 4147 3359 4147 
L 2747 4147 
Q 2572 4147 2515 4117 
Q 2459 4088 2413 3928 
L 1978 2188 
z
" transform="scale(0.015625)"/>
     </defs>
     <use xlink:href="#Cmmi10-50" transform="translate(0 0.6875)"/>
    </g>
   </g>
  </g>
 </g>
 <defs>
  <clipPath id="p23d373b0c5">
   <rect x="7.2" y="7.2" width="439.2" height="221.936057"/>
  </clipPath>
 </defs>
</svg>
