<?xml version="1.0" encoding="utf-8" standalone="no"?>
<!DOCTYPE svg PUBLIC "-//W3C//DTD SVG 1.1//EN"
  "http://www.w3.org/Graphics/SVG/1.1/DTD/svg11.dtd">
<svg xmlns:xlink="http://www.w3.org/1999/xlink" width="453.6pt" height="208.167551pt" viewBox="0 0 453.6 208.167551" xmlns="http://www.w3.org/2000/svg" version="1.1">
 <metadata>
  <rdf:RDF xmlns:dc="http://purl.org/dc/elements/1.1/" xmlns:cc="http://creativecommons.org/ns#" xmlns:rdf="http://www.w3.org/1999/02/22-rdf-syntax-ns#">
   <cc:Work>
    <dc:type rdf:resource="http://purl.org/dc/dcmitype/StillImage"/>
    <dc:date>2025-09-11T16:28:07.923175</dc:date>
    <dc:format>image/svg+xml</dc:format>
    <dc:creator>
     <cc:Agent>
      <dc:title>Matplotlib v3.10.3, https://matplotlib.org/</dc:title>
     </cc:Agent>
    </dc:creator>
   </cc:Work>
  </rdf:RDF>
 </metadata>
 <defs>
  <style type="text/css">*{stroke-linejoin: round; stroke-linecap: butt}</style>
 </defs>
 <g id="figure_1">
  <g id="patch_1">
   <path d="M 0 208.167551 
L 453.6 208.167551 
L 453.6 -0 
L 0 -0 
z
" style="fill: #ffffff"/>
  </g>
  <g id="axes_1">
   <g id="patch_2">
    <path d="M 7.2 196.241056 
L 446.4 196.241056 
L 446.4 7.2 
L 7.2 7.2 
z
" style="fill: #ffffff"/>
   </g>
   <g id="PathCollection_1">
    <path d="M 412.500414 64.168838 
C 413.438048 64.168838 414.337406 63.796312 415.000414 63.133304 
C 415.663422 62.470297 416.035948 61.570939 416.035948 60.633304 
C 416.035948 59.69567 415.663422 58.796312 415.000414 58.133304 
C 414.337406 57.470297 413.438048 57.09777 412.500414 57.09777 
C 411.562779 57.09777 410.663422 57.470297 410.000414 58.133304 
C 409.337406 58.796312 408.96488 59.69567 408.96488 60.633304 
C 408.96488 61.570939 409.337406 62.470297 410.000414 63.133304 
C 410.663422 63.796312 411.562779 64.168838 412.500414 64.168838 
z
" clip-path="url(#p60e15ea0db)"/>
   </g>
   <g id="PathCollection_2">
    <path d="M 132.996758 181.330292 
C 133.934393 181.330292 134.833751 180.957766 135.496758 180.294758 
C 136.159766 179.63175 136.532292 178.732393 136.532292 177.794758 
C 136.532292 176.857123 136.159766 175.957766 135.496758 175.294758 
C 134.833751 174.63175 133.934393 174.259224 132.996758 174.259224 
C 132.059124 174.259224 131.159766 174.63175 130.496758 175.294758 
C 129.833751 175.957766 129.461224 176.857123 129.461224 177.794758 
C 129.461224 178.732393 129.833751 179.63175 130.496758 180.294758 
C 131.159766 180.957766 132.059124 181.330292 132.996758 181.330292 
z
" clip-path="url(#p60e15ea0db)"/>
   </g>
   <g id="matplotlib.axis_1"/>
   <g id="matplotlib.axis_2"/>
   <g id="line2d_1">
    <path d="M 412.500414 60.633304 
L 409.425272 56.663723 
L 405.737474 52.415872 
L 401.996742 48.564773 
L 399.428765 46.143394 
L 394.532166 41.947803 
L 390.246296 38.662647 
L 385.238385 35.210717 
L 380.791984 32.448608 
L 375.600126 29.538487 
L 370.241971 26.850211 
L 364.645361 24.346174 
L 359.005525 22.10479 
L 353.365376 20.119815 
L 347.566047 18.323318 
L 340.161607 16.359197 
L 334.047443 14.993928 
L 328.338362 13.913638 
L 321.745724 12.885352 
L 313.302267 11.88991 
L 305.733234 11.285598 
L 298.210511 10.939398 
L 290.325381 10.835405 
L 285.161666 10.905263 
L 276.729959 11.24567 
L 270.576298 11.666267 
L 261.753552 12.515503 
L 253.041519 13.632144 
L 244.671434 14.960263 
L 235.133186 16.775009 
L 227.492496 18.459122 
L 218.650988 20.66437 
L 208.232061 23.620263 
L 201.930467 25.599192 
L 192.547447 28.820584 
L 184.502267 31.853947 
L 176.681926 35.054418 
L 168.685006 38.599018 
L 161.114798 42.225661 
L 154.954758 45.386684 
L 149.427184 48.396682 
L 141.784546 52.855233 
L 135.534629 56.786975 
L 131.285053 59.625479 
L 124.594818 64.403372 
L 119.006917 68.730459 
L 113.995483 72.923735 
L 109.067369 77.398321 
L 104.970582 81.445986 
L 101.188353 85.516809 
L 97.677557 89.665356 
L 95.465711 92.514794 
L 92.406451 96.858305 
L 89.97323 100.774272 
L 88.41136 103.59876 
L 86.990391 106.47286 
L 85.111882 110.975792 
L 83.974161 114.401284 
L 83.118649 117.72333 
L 82.556562 120.762011 
L 82.204326 123.90747 
L 82.097174 127.34852 
L 82.248977 130.321655 
L 82.527557 132.614269 
L 83.205001 135.985666 
L 84.335707 139.683559 
L 85.153574 141.746832 
L 86.759717 145.049104 
L 88.304686 147.659685 
L 90.426054 150.689549 
L 92.419632 153.14043 
L 94.427153 155.330251 
L 96.880017 157.719656 
L 99.50438 160.006151 
L 103.183968 162.850463 
L 106.757651 165.297816 
L 110.494384 167.594418 
L 114.233373 169.673062 
L 119.264945 172.185894 
L 124.443372 174.490519 
L 128.624344 176.176209 
L 132.996758 177.794758 
L 132.996758 177.794758 
" clip-path="url(#p60e15ea0db)" style="fill: none; stroke: #000000; stroke-width: 2; stroke-linecap: square"/>
   </g>
   <g id="patch_3">
    <path d="M 132.996758 177.794758 
Q 108.256309 166.897196 85.562207 156.901001 
" clip-path="url(#p60e15ea0db)" style="fill: none; stroke: #0000ff; stroke-width: 2; stroke-linecap: round"/>
    <path d="M 92.698237 165.507805 
L 85.562207 156.901001 
L 96.729268 156.35626 
z
" clip-path="url(#p60e15ea0db)" style="fill: #0000ff; stroke: #0000ff; stroke-width: 2; stroke-linecap: round"/>
   </g>
   <g id="patch_4">
    <path d="M 110.582315 167.645658 
Q 82.106125 158.439613 55.757579 149.921413 
" clip-path="url(#p60e15ea0db)" style="fill: none; stroke: #0000ff; stroke-width: 2; stroke-linecap: round"/>
    <path d="M 63.734627 157.755104 
L 55.757579 149.921413 
L 66.81076 148.23999 
z
" clip-path="url(#p60e15ea0db)" style="fill: #0000ff; stroke: #0000ff; stroke-width: 2; stroke-linecap: round"/>
   </g>
   <g id="patch_5">
    <path d="M 94.609381 155.517654 
Q 63.471035 148.332943 34.511511 141.650963 
" clip-path="url(#p60e15ea0db)" style="fill: none; stroke: #0000ff; stroke-width: 2; stroke-linecap: round"/>
    <path d="M 43.131355 148.771235 
L 34.511511 141.650963 
L 45.379635 139.02725 
z
" clip-path="url(#p60e15ea0db)" style="fill: #0000ff; stroke: #0000ff; stroke-width: 2; stroke-linecap: round"/>
   </g>
   <g id="patch_6">
    <path d="M 85.152498 141.744329 
Q 52.438005 136.855172 21.935019 132.296524 
" clip-path="url(#p60e15ea0db)" style="fill: none; stroke: #0000ff; stroke-width: 2; stroke-linecap: round"/>
    <path d="M 31.086142 138.719682 
L 21.935019 132.296524 
L 32.564219 128.82952 
z
" clip-path="url(#p60e15ea0db)" style="fill: #0000ff; stroke: #0000ff; stroke-width: 2; stroke-linecap: round"/>
   </g>
   <g id="patch_7">
    <path d="M 82.094479 126.71956 
Q 48.870316 124.334532 17.876483 122.109609 
" clip-path="url(#p60e15ea0db)" style="fill: none; stroke: #0000ff; stroke-width: 2; stroke-linecap: round"/>
    <path d="M 27.492807 127.812793 
L 17.876483 122.109609 
L 28.208824 117.83846 
z
" clip-path="url(#p60e15ea0db)" style="fill: #0000ff; stroke: #0000ff; stroke-width: 2; stroke-linecap: round"/>
   </g>
   <g id="patch_8">
    <path d="M 85.145013 110.886308 
Q 52.429273 111.140155 21.949533 111.376652 
" clip-path="url(#p60e15ea0db)" style="fill: none; stroke: #0000ff; stroke-width: 2; stroke-linecap: round"/>
    <path d="M 31.988027 116.298912 
L 21.949533 111.376652 
L 31.910438 106.299213 
z
" clip-path="url(#p60e15ea0db)" style="fill: #0000ff; stroke: #0000ff; stroke-width: 2; stroke-linecap: round"/>
   </g>
   <g id="patch_9">
    <path d="M 93.862811 94.723573 
Q 62.600037 97.671209 33.563458 100.408947 
" clip-path="url(#p60e15ea0db)" style="fill: none; stroke: #0000ff; stroke-width: 2; stroke-linecap: round"/>
    <path d="M 43.98865 104.448174 
L 33.563458 100.408947 
L 43.049955 94.492329 
z
" clip-path="url(#p60e15ea0db)" style="fill: #0000ff; stroke: #0000ff; stroke-width: 2; stroke-linecap: round"/>
   </g>
   <g id="patch_10">
    <path d="M 107.680175 78.731907 
Q 78.720295 84.34482 51.955632 89.532264 
" clip-path="url(#p60e15ea0db)" style="fill: none; stroke: #0000ff; stroke-width: 2; stroke-linecap: round"/>
    <path d="M 62.724318 92.538158 
L 51.955632 89.532264 
L 60.821558 82.720851 
z
" clip-path="url(#p60e15ea0db)" style="fill: #0000ff; stroke: #0000ff; stroke-width: 2; stroke-linecap: round"/>
   </g>
   <g id="patch_11">
    <path d="M 125.928882 63.417911 
Q 100.010453 71.583158 76.22476 79.076514 
" clip-path="url(#p60e15ea0db)" style="fill: none; stroke: #0000ff; stroke-width: 2; stroke-linecap: round"/>
    <path d="M 87.265038 80.840677 
L 76.22476 79.076514 
L 84.260257 71.30279 
z
" clip-path="url(#p60e15ea0db)" style="fill: #0000ff; stroke: #0000ff; stroke-width: 2; stroke-linecap: round"/>
   </g>
   <g id="patch_12">
    <path d="M 147.866346 49.278213 
Q 125.604162 59.800076 105.363617 69.366443 
" clip-path="url(#p60e15ea0db)" style="fill: none; stroke: #0000ff; stroke-width: 2; stroke-linecap: round"/>
    <path d="M 116.541219 69.613861 
L 105.363617 69.366443 
L 112.268113 60.572812 
z
" clip-path="url(#p60e15ea0db)" style="fill: #0000ff; stroke: #0000ff; stroke-width: 2; stroke-linecap: round"/>
   </g>
   <g id="patch_13">
    <path d="M 172.701152 36.783411 
Q 154.578101 49.387741 138.290794 60.715337 
" clip-path="url(#p60e15ea0db)" style="fill: none; stroke: #0000ff; stroke-width: 2; stroke-linecap: round"/>
    <path d="M 149.355348 59.110456 
L 138.290794 60.715337 
L 143.645622 50.900765 
z
" clip-path="url(#p60e15ea0db)" style="fill: #0000ff; stroke: #0000ff; stroke-width: 2; stroke-linecap: round"/>
   </g>
   <g id="patch_14">
    <path d="M 199.617158 26.362519 
Q 185.980109 40.703664 173.88392 53.424392 
" clip-path="url(#p60e15ea0db)" style="fill: none; stroke: #0000ff; stroke-width: 2; stroke-linecap: round"/>
    <path d="M 184.398218 49.623137 
L 173.88392 53.424392 
L 177.151495 42.732201 
z
" clip-path="url(#p60e15ea0db)" style="fill: #0000ff; stroke: #0000ff; stroke-width: 2; stroke-linecap: round"/>
   </g>
   <g id="patch_15">
    <path d="M 227.795575 18.388415 
Q 218.854929 34.058577 211.022399 47.786556 
" clip-path="url(#p60e15ea0db)" style="fill: none; stroke: #0000ff; stroke-width: 2; stroke-linecap: round"/>
    <path d="M 220.320904 41.578673 
L 211.022399 47.786556 
L 211.635196 36.623022 
z
" clip-path="url(#p60e15ea0db)" style="fill: #0000ff; stroke: #0000ff; stroke-width: 2; stroke-linecap: round"/>
   </g>
   <g id="patch_16">
    <path d="M 256.434551 13.164786 
Q 252.267066 29.705553 248.645892 44.078015 
" clip-path="url(#p60e15ea0db)" style="fill: none; stroke: #0000ff; stroke-width: 2; stroke-linecap: round"/>
    <path d="M 255.937539 35.602646 
L 248.645892 44.078015 
L 246.240584 33.159476 
z
" clip-path="url(#p60e15ea0db)" style="fill: #0000ff; stroke: #0000ff; stroke-width: 2; stroke-linecap: round"/>
   </g>
   <g id="patch_17">
    <path d="M 284.766003 10.915014 
Q 285.320428 27.830743 285.801603 42.511604 
" clip-path="url(#p60e15ea0db)" style="fill: none; stroke: #0000ff; stroke-width: 2; stroke-linecap: round"/>
    <path d="M 290.471339 32.353181 
L 285.801603 42.511604 
L 280.476706 32.680762 
z
" clip-path="url(#p60e15ea0db)" style="fill: #0000ff; stroke: #0000ff; stroke-width: 2; stroke-linecap: round"/>
   </g>
   <g id="patch_18">
    <path d="M 312.069605 11.773403 
Q 317.17463 28.546067 321.628563 43.179555 
" clip-path="url(#p60e15ea0db)" style="fill: none; stroke: #0000ff; stroke-width: 2; stroke-linecap: round"/>
    <path d="M 323.500135 32.156977 
L 321.628563 43.179555 
L 313.933444 35.06875 
z
" clip-path="url(#p60e15ea0db)" style="fill: #0000ff; stroke: #0000ff; stroke-width: 2; stroke-linecap: round"/>
   </g>
   <g id="patch_19">
    <path d="M 337.683957 15.779073 
Q 347.05804 31.884126 355.307273 46.056639 
" clip-path="url(#p60e15ea0db)" style="fill: none; stroke: #0000ff; stroke-width: 2; stroke-linecap: round"/>
    <path d="M 354.598075 34.898815 
L 355.307273 46.056639 
L 345.955495 39.929302 
z
" clip-path="url(#p60e15ea0db)" style="fill: #0000ff; stroke: #0000ff; stroke-width: 2; stroke-linecap: round"/>
   </g>
   <g id="patch_20">
    <path d="M 361.015146 22.872771 
Q 374.277762 37.79554 386.054944 51.046937 
" clip-path="url(#p60e15ea0db)" style="fill: none; stroke: #0000ff; stroke-width: 2; stroke-linecap: round"/>
    <path d="M 383.149188 40.250799 
L 386.054944 51.046937 
L 375.67458 46.893859 
z
" clip-path="url(#p60e15ea0db)" style="fill: #0000ff; stroke: #0000ff; stroke-width: 2; stroke-linecap: round"/>
   </g>
   <g id="patch_21">
    <path d="M 381.542981 32.896748 
Q 398.226902 46.148855 413.159893 58.010191 
" clip-path="url(#p60e15ea0db)" style="fill: none; stroke: #0000ff; stroke-width: 2; stroke-linecap: round"/>
    <path d="M 408.439354 47.875275 
L 413.159893 58.010191 
L 402.219637 55.705673 
z
" clip-path="url(#p60e15ea0db)" style="fill: #0000ff; stroke: #0000ff; stroke-width: 2; stroke-linecap: round"/>
   </g>
   <g id="patch_22">
    <path d="M 398.825248 45.597786 
Q 418.389547 56.733053 436.010501 66.762241 
" clip-path="url(#p60e15ea0db)" style="fill: none; stroke: #0000ff; stroke-width: 2; stroke-linecap: round"/>
    <path d="M 429.792868 57.470253 
L 436.010501 66.762241 
L 424.846331 66.161155 
z
" clip-path="url(#p60e15ea0db)" style="fill: #0000ff; stroke: #0000ff; stroke-width: 2; stroke-linecap: round"/>
   </g>
   <g id="text_1">
    <!-- $Q$ -->
    <g transform="translate(405.588414 80.212397) scale(0.1728 -0.1728)">
     <defs>
      <path id="Cmmi10-51" d="M 1947 -141 
Q 1466 -141 1094 79 
Q 722 300 520 692 
Q 319 1084 319 1563 
Q 319 2259 714 2950 
Q 1109 3641 1756 4077 
Q 2403 4513 3109 4513 
Q 3475 4513 3778 4381 
Q 4081 4250 4290 4017 
Q 4500 3784 4614 3471 
Q 4728 3159 4728 2791 
Q 4728 2366 4581 1936 
Q 4434 1506 4171 1136 
Q 3909 766 3559 484 
Q 3209 203 2809 38 
Q 2850 -256 2934 -425 
Q 3019 -594 3256 -594 
Q 3506 -594 3726 -412 
Q 3947 -231 4006 13 
Q 4019 72 4078 72 
Q 4147 72 4147 -13 
Q 4100 -219 4008 -430 
Q 3916 -641 3786 -823 
Q 3656 -1006 3478 -1123 
Q 3300 -1241 3084 -1241 
Q 2547 -1241 2547 -550 
Q 2547 -509 2562 -332 
Q 2578 -156 2578 -44 
Q 2269 -141 1947 -141 
z
M 1709 300 
Q 1709 44 1991 44 
Q 2275 44 2591 184 
L 2591 244 
Q 2591 503 2509 648 
Q 2428 794 2194 794 
Q 2078 794 1964 723 
Q 1850 653 1779 539 
Q 1709 425 1709 300 
z
M 1544 288 
Q 1544 456 1637 612 
Q 1731 769 1881 864 
Q 2031 959 2203 959 
Q 2481 959 2607 771 
Q 2734 584 2778 281 
Q 3188 525 3500 978 
Q 3813 1431 3977 1973 
Q 4141 2516 4141 3003 
Q 4141 3356 4023 3656 
Q 3906 3956 3664 4140 
Q 3422 4325 3066 4325 
Q 2722 4325 2403 4156 
Q 2084 3988 1813 3706 
Q 1550 3434 1342 3032 
Q 1134 2631 1021 2193 
Q 909 1756 909 1356 
Q 909 947 1068 612 
Q 1228 278 1569 128 
Q 1544 194 1544 288 
z
" transform="scale(0.015625)"/>
     </defs>
     <use xlink:href="#Cmmi10-51" transform="translate(0 0.484375)"/>
    </g>
   </g>
   <g id="text_2">
    <!-- $P$ -->
    <g transform="translate(127.380758 197.373851) scale(0.1728 -0.1728)">
     <defs>
      <path id="Cmmi10-50" d="M 313 0 
Q 250 0 250 84 
Q 253 100 262 139 
Q 272 178 289 201 
Q 306 225 331 225 
Q 722 225 878 269 
Q 959 297 997 441 
L 1875 3956 
Q 1888 4019 1888 4044 
Q 1888 4113 1813 4122 
Q 1691 4147 1350 4147 
Q 1288 4147 1288 4231 
Q 1291 4247 1300 4286 
Q 1309 4325 1326 4348 
Q 1344 4372 1369 4372 
L 3578 4372 
Q 3881 4372 4165 4264 
Q 4450 4156 4631 3934 
Q 4813 3713 4813 3397 
Q 4813 2991 4527 2672 
Q 4241 2353 3814 2175 
Q 3388 1997 2988 1997 
L 1947 1997 
L 1556 416 
Q 1544 353 1544 325 
Q 1544 300 1551 283 
Q 1559 266 1573 261 
Q 1588 256 1619 250 
Q 1741 225 2081 225 
Q 2144 225 2144 141 
Q 2122 50 2109 25 
Q 2097 0 2034 0 
L 313 0 
z
M 1978 2188 
L 2875 2188 
Q 3497 2188 3822 2522 
Q 3988 2688 4092 3000 
Q 4197 3313 4197 3566 
Q 4197 3881 3956 4014 
Q 3716 4147 3359 4147 
L 2747 4147 
Q 2572 4147 2515 4117 
Q 2459 4088 2413 3928 
L 1978 2188 
z
" transform="scale(0.015625)"/>
     </defs>
     <use xlink:href="#Cmmi10-50" transform="translate(0 0.6875)"/>
    </g>
   </g>
  </g>
 </g>
 <defs>
  <clipPath id="p60e15ea0db">
   <rect x="7.2" y="7.2" width="439.2" height="189.041056"/>
  </clipPath>
 </defs>
</svg>
