<?xml version="1.0" encoding="utf-8" standalone="no"?>
<!DOCTYPE svg PUBLIC "-//W3C//DTD SVG 1.1//EN"
  "http://www.w3.org/Graphics/SVG/1.1/DTD/svg11.dtd">
<svg xmlns:xlink="http://www.w3.org/1999/xlink" width="453.6pt" height="208.168754pt" viewBox="0 0 453.6 208.168754" xmlns="http://www.w3.org/2000/svg" version="1.1">
 <metadata>
  <rdf:RDF xmlns:dc="http://purl.org/dc/elements/1.1/" xmlns:cc="http://creativecommons.org/ns#" xmlns:rdf="http://www.w3.org/1999/02/22-rdf-syntax-ns#">
   <cc:Work>
    <dc:type rdf:resource="http://purl.org/dc/dcmitype/StillImage"/>
    <dc:date>2025-08-27T14:08:51.171369</dc:date>
    <dc:format>image/svg+xml</dc:format>
    <dc:creator>
     <cc:Agent>
      <dc:title>Matplotlib v3.10.3, https://matplotlib.org/</dc:title>
     </cc:Agent>
    </dc:creator>
   </cc:Work>
  </rdf:RDF>
 </metadata>
 <defs>
  <style type="text/css">*{stroke-linejoin: round; stroke-linecap: butt}</style>
 </defs>
 <g id="figure_1">
  <g id="patch_1">
   <path d="M 0 208.168754 
L 453.6 208.168754 
L 453.6 0 
L 0 0 
z
" style="fill: #ffffff"/>
  </g>
  <g id="axes_1">
   <g id="patch_2">
    <path d="M 7.2 196.242282 
L 446.4 196.242282 
L 446.4 7.2 
L 7.2 7.2 
z
" style="fill: #ffffff"/>
   </g>
   <g id="PathCollection_1">
    <path d="M 412.500414 64.170041 
C 413.438048 64.170041 414.337406 63.797515 415.000414 63.134508 
C 415.663422 62.4715 416.035948 61.572142 416.035948 60.634508 
C 416.035948 59.696873 415.663422 58.797515 415.000414 58.134508 
C 414.337406 57.4715 413.438048 57.098974 412.500414 57.098974 
C 411.562779 57.098974 410.663422 57.4715 410.000414 58.134508 
C 409.337406 58.797515 408.96488 59.696873 408.96488 60.634508 
C 408.96488 61.572142 409.337406 62.4715 410.000414 63.134508 
C 410.663422 63.797515 411.562779 64.170041 412.500414 64.170041 
z
" clip-path="url(#pb286eb779b)"/>
   </g>
   <g id="PathCollection_2">
    <path d="M 132.996758 181.331495 
C 133.934393 181.331495 134.833751 180.958969 135.496758 180.295961 
C 136.159766 179.632953 136.532292 178.733596 136.532292 177.795961 
C 136.532292 176.858327 136.159766 175.958969 135.496758 175.295961 
C 134.833751 174.632953 133.934393 174.260427 132.996758 174.260427 
C 132.059124 174.260427 131.159766 174.632953 130.496758 175.295961 
C 129.833751 175.958969 129.461224 176.858327 129.461224 177.795961 
C 129.461224 178.733596 129.833751 179.632953 130.496758 180.295961 
C 131.159766 180.958969 132.059124 181.331495 132.996758 181.331495 
z
" clip-path="url(#pb286eb779b)"/>
   </g>
   <g id="matplotlib.axis_1"/>
   <g id="matplotlib.axis_2"/>
   <g id="line2d_1">
    <path d="M 412.500414 60.634508 
L 409.063299 56.225182 
L 404.94974 51.571035 
L 400.764574 47.383373 
L 396.997166 43.996863 
L 394.640743 42.036639 
L 390.866494 39.119159 
L 386.15255 35.813674 
L 383.413941 34.046351 
L 378.191771 30.952425 
L 372.872075 28.133355 
L 368.039795 25.830945 
L 360.666967 22.738539 
L 356.680866 21.258124 
L 352.190903 19.737851 
L 347.22691 18.226706 
L 339.919841 16.302143 
L 332.023363 14.591264 
L 325.336171 13.418271 
L 317.894924 12.389144 
L 309.268928 11.536292 
L 303.564746 11.161572 
L 295.243255 10.871031 
L 287.909631 10.855947 
L 281.21101 11.031501 
L 272.295392 11.535596 
L 267.667877 11.915689 
L 257.436991 13.035814 
L 249.154848 14.219172 
L 241.825506 15.469455 
L 231.926777 17.457997 
L 224.644097 19.140645 
L 219.319427 20.489188 
L 210.832849 22.847024 
L 201.258685 25.820007 
L 191.892992 29.059026 
L 184.725135 31.767642 
L 175.05178 35.755306 
L 167.395592 39.198741 
L 158.213791 43.691083 
L 151.06217 47.48968 
L 144.714124 51.104421 
L 137.740338 55.369058 
L 131.960808 59.165719 
L 125.60711 63.655234 
L 121.491818 66.765851 
L 115.469382 71.657522 
L 111.391999 75.24063 
L 107.458185 78.949877 
L 103.594738 82.886653 
L 100.029623 86.842882 
L 96.52785 91.121569 
L 93.501744 95.241744 
L 91.85324 97.707616 
L 89.150728 102.226087 
L 87.5933 105.212 
L 85.69781 109.457314 
L 84.311029 113.304243 
L 83.264449 117.083174 
L 82.577884 120.6222 
L 82.155827 124.657873 
L 82.0996 127.517206 
L 82.28143 130.664614 
L 82.758279 133.957729 
L 83.203391 135.980424 
L 84.235247 139.404676 
L 85.226958 141.917524 
L 86.121524 143.828548 
L 87.865754 146.961217 
L 89.189756 148.989159 
L 91.033269 151.471588 
L 92.71787 153.482706 
L 95.199932 156.114589 
L 98.144068 158.852935 
L 101.029031 161.231495 
L 104.608884 163.860492 
L 108.661819 166.499405 
L 112.915414 168.964116 
L 118.074976 171.619183 
L 122.408303 173.616697 
L 128.550568 176.148889 
L 132.996758 177.795961 
L 132.996758 177.795961 
" clip-path="url(#pb286eb779b)" style="fill: none; stroke: #000000; stroke-width: 2; stroke-linecap: square"/>
   </g>
   <g id="patch_3">
    <path d="M 132.996758 177.795961 
Q 108.256309 166.8984 85.562207 156.902204 
" clip-path="url(#pb286eb779b)" style="fill: none; stroke: #0000ff; stroke-width: 2; stroke-linecap: round"/>
    <path d="M 92.698237 165.509008 
L 85.562207 156.902204 
L 96.729268 156.357463 
z
" clip-path="url(#pb286eb779b)" style="fill: #0000ff; stroke: #0000ff; stroke-width: 2; stroke-linecap: round"/>
   </g>
   <g id="patch_4">
    <path d="M 110.582315 167.646862 
Q 82.106125 158.440817 55.757579 149.922616 
" clip-path="url(#pb286eb779b)" style="fill: none; stroke: #0000ff; stroke-width: 2; stroke-linecap: round"/>
    <path d="M 63.734627 157.756307 
L 55.757579 149.922616 
L 66.81076 148.241193 
z
" clip-path="url(#pb286eb779b)" style="fill: #0000ff; stroke: #0000ff; stroke-width: 2; stroke-linecap: round"/>
   </g>
   <g id="patch_5">
    <path d="M 94.609381 155.518857 
Q 63.471035 148.334146 34.511511 141.652166 
" clip-path="url(#pb286eb779b)" style="fill: none; stroke: #0000ff; stroke-width: 2; stroke-linecap: round"/>
    <path d="M 43.131355 148.772438 
L 34.511511 141.652166 
L 45.379635 139.028454 
z
" clip-path="url(#pb286eb779b)" style="fill: #0000ff; stroke: #0000ff; stroke-width: 2; stroke-linecap: round"/>
   </g>
   <g id="patch_6">
    <path d="M 85.152498 141.745532 
Q 52.438005 136.856375 21.935019 132.297727 
" clip-path="url(#pb286eb779b)" style="fill: none; stroke: #0000ff; stroke-width: 2; stroke-linecap: round"/>
    <path d="M 31.086142 138.720885 
L 21.935019 132.297727 
L 32.564219 128.830724 
z
" clip-path="url(#pb286eb779b)" style="fill: #0000ff; stroke: #0000ff; stroke-width: 2; stroke-linecap: round"/>
   </g>
   <g id="patch_7">
    <path d="M 82.094479 126.720763 
Q 48.870316 124.335735 17.876483 122.110813 
" clip-path="url(#pb286eb779b)" style="fill: none; stroke: #0000ff; stroke-width: 2; stroke-linecap: round"/>
    <path d="M 27.492807 127.813996 
L 17.876483 122.110813 
L 28.208824 117.839663 
z
" clip-path="url(#pb286eb779b)" style="fill: #0000ff; stroke: #0000ff; stroke-width: 2; stroke-linecap: round"/>
   </g>
   <g id="patch_8">
    <path d="M 85.145013 110.887511 
Q 52.429273 111.141358 21.949533 111.377855 
" clip-path="url(#pb286eb779b)" style="fill: none; stroke: #0000ff; stroke-width: 2; stroke-linecap: round"/>
    <path d="M 31.988027 116.300116 
L 21.949533 111.377855 
L 31.910438 106.300417 
z
" clip-path="url(#pb286eb779b)" style="fill: #0000ff; stroke: #0000ff; stroke-width: 2; stroke-linecap: round"/>
   </g>
   <g id="patch_9">
    <path d="M 93.862811 94.724776 
Q 62.600037 97.672412 33.563458 100.41015 
" clip-path="url(#pb286eb779b)" style="fill: none; stroke: #0000ff; stroke-width: 2; stroke-linecap: round"/>
    <path d="M 43.98865 104.449377 
L 33.563458 100.41015 
L 43.049955 94.493532 
z
" clip-path="url(#pb286eb779b)" style="fill: #0000ff; stroke: #0000ff; stroke-width: 2; stroke-linecap: round"/>
   </g>
   <g id="patch_10">
    <path d="M 107.680175 78.73311 
Q 78.720295 84.346024 51.955632 89.533467 
" clip-path="url(#pb286eb779b)" style="fill: none; stroke: #0000ff; stroke-width: 2; stroke-linecap: round"/>
    <path d="M 62.724318 92.539361 
L 51.955632 89.533467 
L 60.821558 82.722054 
z
" clip-path="url(#pb286eb779b)" style="fill: #0000ff; stroke: #0000ff; stroke-width: 2; stroke-linecap: round"/>
   </g>
   <g id="patch_11">
    <path d="M 125.928882 63.419115 
Q 100.010453 71.584361 76.22476 79.077718 
" clip-path="url(#pb286eb779b)" style="fill: none; stroke: #0000ff; stroke-width: 2; stroke-linecap: round"/>
    <path d="M 87.265038 80.84188 
L 76.22476 79.077718 
L 84.260257 71.303993 
z
" clip-path="url(#pb286eb779b)" style="fill: #0000ff; stroke: #0000ff; stroke-width: 2; stroke-linecap: round"/>
   </g>
   <g id="patch_12">
    <path d="M 147.866346 49.279416 
Q 125.604162 59.801279 105.363617 69.367646 
" clip-path="url(#pb286eb779b)" style="fill: none; stroke: #0000ff; stroke-width: 2; stroke-linecap: round"/>
    <path d="M 116.541219 69.615065 
L 105.363617 69.367646 
L 112.268113 60.574016 
z
" clip-path="url(#pb286eb779b)" style="fill: #0000ff; stroke: #0000ff; stroke-width: 2; stroke-linecap: round"/>
   </g>
   <g id="patch_13">
    <path d="M 172.701152 36.784614 
Q 154.578101 49.388944 138.290794 60.71654 
" clip-path="url(#pb286eb779b)" style="fill: none; stroke: #0000ff; stroke-width: 2; stroke-linecap: round"/>
    <path d="M 149.355348 59.111659 
L 138.290794 60.71654 
L 143.645622 50.901968 
z
" clip-path="url(#pb286eb779b)" style="fill: #0000ff; stroke: #0000ff; stroke-width: 2; stroke-linecap: round"/>
   </g>
   <g id="patch_14">
    <path d="M 199.617158 26.363722 
Q 185.980109 40.704867 173.88392 53.425595 
" clip-path="url(#pb286eb779b)" style="fill: none; stroke: #0000ff; stroke-width: 2; stroke-linecap: round"/>
    <path d="M 184.398218 49.62434 
L 173.88392 53.425595 
L 177.151495 42.733404 
z
" clip-path="url(#pb286eb779b)" style="fill: #0000ff; stroke: #0000ff; stroke-width: 2; stroke-linecap: round"/>
   </g>
   <g id="patch_15">
    <path d="M 227.795575 18.389618 
Q 218.854929 34.05978 211.022399 47.787759 
" clip-path="url(#pb286eb779b)" style="fill: none; stroke: #0000ff; stroke-width: 2; stroke-linecap: round"/>
    <path d="M 220.320904 41.579876 
L 211.022399 47.787759 
L 211.635196 36.624226 
z
" clip-path="url(#pb286eb779b)" style="fill: #0000ff; stroke: #0000ff; stroke-width: 2; stroke-linecap: round"/>
   </g>
   <g id="patch_16">
    <path d="M 256.434551 13.165989 
Q 252.267066 29.706756 248.645892 44.079218 
" clip-path="url(#pb286eb779b)" style="fill: none; stroke: #0000ff; stroke-width: 2; stroke-linecap: round"/>
    <path d="M 255.937539 35.603849 
L 248.645892 44.079218 
L 246.240584 33.160679 
z
" clip-path="url(#pb286eb779b)" style="fill: #0000ff; stroke: #0000ff; stroke-width: 2; stroke-linecap: round"/>
   </g>
   <g id="patch_17">
    <path d="M 284.766003 10.916217 
Q 285.320428 27.831946 285.801603 42.512808 
" clip-path="url(#pb286eb779b)" style="fill: none; stroke: #0000ff; stroke-width: 2; stroke-linecap: round"/>
    <path d="M 290.471339 32.354384 
L 285.801603 42.512808 
L 280.476706 32.681965 
z
" clip-path="url(#pb286eb779b)" style="fill: #0000ff; stroke: #0000ff; stroke-width: 2; stroke-linecap: round"/>
   </g>
   <g id="patch_18">
    <path d="M 312.069605 11.774606 
Q 317.17463 28.547271 321.628563 43.180758 
" clip-path="url(#pb286eb779b)" style="fill: none; stroke: #0000ff; stroke-width: 2; stroke-linecap: round"/>
    <path d="M 323.500135 32.15818 
L 321.628563 43.180758 
L 313.933444 35.069953 
z
" clip-path="url(#pb286eb779b)" style="fill: #0000ff; stroke: #0000ff; stroke-width: 2; stroke-linecap: round"/>
   </g>
   <g id="patch_19">
    <path d="M 337.683957 15.780277 
Q 347.05804 31.885329 355.307273 46.057842 
" clip-path="url(#pb286eb779b)" style="fill: none; stroke: #0000ff; stroke-width: 2; stroke-linecap: round"/>
    <path d="M 354.598075 34.900018 
L 355.307273 46.057842 
L 345.955495 39.930506 
z
" clip-path="url(#pb286eb779b)" style="fill: #0000ff; stroke: #0000ff; stroke-width: 2; stroke-linecap: round"/>
   </g>
   <g id="patch_20">
    <path d="M 361.015146 22.873974 
Q 374.277762 37.796743 386.054944 51.04814 
" clip-path="url(#pb286eb779b)" style="fill: none; stroke: #0000ff; stroke-width: 2; stroke-linecap: round"/>
    <path d="M 383.149188 40.252003 
L 386.054944 51.04814 
L 375.67458 46.895062 
z
" clip-path="url(#pb286eb779b)" style="fill: #0000ff; stroke: #0000ff; stroke-width: 2; stroke-linecap: round"/>
   </g>
   <g id="patch_21">
    <path d="M 381.542981 32.897951 
Q 398.226902 46.150058 413.159893 58.011394 
" clip-path="url(#pb286eb779b)" style="fill: none; stroke: #0000ff; stroke-width: 2; stroke-linecap: round"/>
    <path d="M 408.439354 47.876479 
L 413.159893 58.011394 
L 402.219637 55.706876 
z
" clip-path="url(#pb286eb779b)" style="fill: #0000ff; stroke: #0000ff; stroke-width: 2; stroke-linecap: round"/>
   </g>
   <g id="patch_22">
    <path d="M 398.825248 45.598989 
Q 418.389547 56.734256 436.010501 66.763444 
" clip-path="url(#pb286eb779b)" style="fill: none; stroke: #0000ff; stroke-width: 2; stroke-linecap: round"/>
    <path d="M 429.792868 57.471457 
L 436.010501 66.763444 
L 424.846331 66.162359 
z
" clip-path="url(#pb286eb779b)" style="fill: #0000ff; stroke: #0000ff; stroke-width: 2; stroke-linecap: round"/>
   </g>
   <g id="text_1">
    <!-- $Q$ -->
    <g transform="translate(405.588414 80.2136) scale(0.1728 -0.1728)">
     <defs>
      <path id="Cmmi10-51" d="M 1947 -141 
Q 1466 -141 1094 79 
Q 722 300 520 692 
Q 319 1084 319 1563 
Q 319 2259 714 2950 
Q 1109 3641 1756 4077 
Q 2403 4513 3109 4513 
Q 3475 4513 3778 4381 
Q 4081 4250 4290 4017 
Q 4500 3784 4614 3471 
Q 4728 3159 4728 2791 
Q 4728 2366 4581 1936 
Q 4434 1506 4171 1136 
Q 3909 766 3559 484 
Q 3209 203 2809 38 
Q 2850 -256 2934 -425 
Q 3019 -594 3256 -594 
Q 3506 -594 3726 -412 
Q 3947 -231 4006 13 
Q 4019 72 4078 72 
Q 4147 72 4147 -13 
Q 4100 -219 4008 -430 
Q 3916 -641 3786 -823 
Q 3656 -1006 3478 -1123 
Q 3300 -1241 3084 -1241 
Q 2547 -1241 2547 -550 
Q 2547 -509 2562 -332 
Q 2578 -156 2578 -44 
Q 2269 -141 1947 -141 
z
M 1709 300 
Q 1709 44 1991 44 
Q 2275 44 2591 184 
L 2591 244 
Q 2591 503 2509 648 
Q 2428 794 2194 794 
Q 2078 794 1964 723 
Q 1850 653 1779 539 
Q 1709 425 1709 300 
z
M 1544 288 
Q 1544 456 1637 612 
Q 1731 769 1881 864 
Q 2031 959 2203 959 
Q 2481 959 2607 771 
Q 2734 584 2778 281 
Q 3188 525 3500 978 
Q 3813 1431 3977 1973 
Q 4141 2516 4141 3003 
Q 4141 3356 4023 3656 
Q 3906 3956 3664 4140 
Q 3422 4325 3066 4325 
Q 2722 4325 2403 4156 
Q 2084 3988 1813 3706 
Q 1550 3434 1342 3032 
Q 1134 2631 1021 2193 
Q 909 1756 909 1356 
Q 909 947 1068 612 
Q 1228 278 1569 128 
Q 1544 194 1544 288 
z
" transform="scale(0.015625)"/>
     </defs>
     <use xlink:href="#Cmmi10-51" transform="translate(0 0.484375)"/>
    </g>
   </g>
   <g id="text_2">
    <!-- $P$ -->
    <g transform="translate(127.380758 197.375054) scale(0.1728 -0.1728)">
     <defs>
      <path id="Cmmi10-50" d="M 313 0 
Q 250 0 250 84 
Q 253 100 262 139 
Q 272 178 289 201 
Q 306 225 331 225 
Q 722 225 878 269 
Q 959 297 997 441 
L 1875 3956 
Q 1888 4019 1888 4044 
Q 1888 4113 1813 4122 
Q 1691 4147 1350 4147 
Q 1288 4147 1288 4231 
Q 1291 4247 1300 4286 
Q 1309 4325 1326 4348 
Q 1344 4372 1369 4372 
L 3578 4372 
Q 3881 4372 4165 4264 
Q 4450 4156 4631 3934 
Q 4813 3713 4813 3397 
Q 4813 2991 4527 2672 
Q 4241 2353 3814 2175 
Q 3388 1997 2988 1997 
L 1947 1997 
L 1556 416 
Q 1544 353 1544 325 
Q 1544 300 1551 283 
Q 1559 266 1573 261 
Q 1588 256 1619 250 
Q 1741 225 2081 225 
Q 2144 225 2144 141 
Q 2122 50 2109 25 
Q 2097 0 2034 0 
L 313 0 
z
M 1978 2188 
L 2875 2188 
Q 3497 2188 3822 2522 
Q 3988 2688 4092 3000 
Q 4197 3313 4197 3566 
Q 4197 3881 3956 4014 
Q 3716 4147 3359 4147 
L 2747 4147 
Q 2572 4147 2515 4117 
Q 2459 4088 2413 3928 
L 1978 2188 
z
" transform="scale(0.015625)"/>
     </defs>
     <use xlink:href="#Cmmi10-50" transform="translate(0 0.6875)"/>
    </g>
   </g>
  </g>
 </g>
 <defs>
  <clipPath id="pb286eb779b">
   <rect x="7.2" y="7.2" width="439.2" height="189.042282"/>
  </clipPath>
 </defs>
</svg>
