<?xml version="1.0" encoding="utf-8" standalone="no"?>
<!DOCTYPE svg PUBLIC "-//W3C//DTD SVG 1.1//EN"
  "http://www.w3.org/Graphics/SVG/1.1/DTD/svg11.dtd">
<svg xmlns:xlink="http://www.w3.org/1999/xlink" width="452.367692pt" height="250.248114pt" viewBox="0 0 452.367692 250.248114" xmlns="http://www.w3.org/2000/svg" version="1.1">
 <metadata>
  <rdf:RDF xmlns:dc="http://purl.org/dc/elements/1.1/" xmlns:cc="http://creativecommons.org/ns#" xmlns:rdf="http://www.w3.org/1999/02/22-rdf-syntax-ns#">
   <cc:Work>
    <dc:type rdf:resource="http://purl.org/dc/dcmitype/StillImage"/>
    <dc:date>2025-06-18T14:12:21.519069</dc:date>
    <dc:format>image/svg+xml</dc:format>
    <dc:creator>
     <cc:Agent>
      <dc:title>Matplotlib v3.10.3, https://matplotlib.org/</dc:title>
     </cc:Agent>
    </dc:creator>
   </cc:Work>
  </rdf:RDF>
 </metadata>
 <defs>
  <style type="text/css">*{stroke-linejoin: round; stroke-linecap: butt}</style>
 </defs>
 <g id="figure_1">
  <g id="patch_1">
   <path d="M 0 250.248114 
L 452.367692 250.248114 
L 452.367692 0 
L 0 0 
z
" style="fill: #ffffff"/>
  </g>
  <g id="axes_1">
   <g id="patch_2">
    <path d="M 7.2 237.804695 
L 445.167692 237.804695 
L 445.167692 7.2 
L 7.2 7.2 
z
" style="fill: #ffffff"/>
   </g>
   <g id="PathCollection_1">
    <path d="M 77.717059 218.838024 
C 78.654694 218.838024 79.554051 218.465498 80.217059 217.80249 
C 80.880067 217.139483 81.252593 216.240125 81.252593 215.30249 
C 81.252593 214.364856 80.880067 213.465498 80.217059 212.80249 
C 79.554051 212.139483 78.654694 211.766957 77.717059 211.766957 
C 76.779424 211.766957 75.880067 212.139483 75.217059 212.80249 
C 74.554051 213.465498 74.181525 214.364856 74.181525 215.30249 
C 74.181525 216.240125 74.554051 217.139483 75.217059 217.80249 
C 75.880067 218.465498 76.779424 218.838024 77.717059 218.838024 
z
" clip-path="url(#p0b63f7fd11)"/>
   </g>
   <g id="PathCollection_2">
    <path d="M 418.677738 75.915211 
C 419.615372 75.915211 420.51473 75.542685 421.177738 74.879677 
C 421.840746 74.216669 422.213272 73.317312 422.213272 72.379677 
C 422.213272 71.442043 421.840746 70.542685 421.177738 69.879677 
C 420.51473 69.216669 419.615372 68.844143 418.677738 68.844143 
C 417.740103 68.844143 416.840746 69.216669 416.177738 69.879677 
C 415.51473 70.542685 415.142204 71.442043 415.142204 72.379677 
C 415.142204 73.317312 415.51473 74.216669 416.177738 74.879677 
C 416.840746 75.542685 417.740103 75.915211 418.677738 75.915211 
z
" clip-path="url(#p0b63f7fd11)"/>
   </g>
   <g id="matplotlib.axis_1"/>
   <g id="matplotlib.axis_2"/>
   <g id="line2d_1">
    <path d="M 418.677738 72.379677 
L 414.942428 67.556817 
L 411.283973 63.295837 
L 408.146191 59.943428 
L 404.437778 56.287018 
L 400.369962 52.604472 
L 395.695977 48.737958 
L 390.784984 45.03855 
L 385.46039 41.392639 
L 379.939446 37.963534 
L 375.897143 35.655358 
L 368.675136 31.911972 
L 361.827192 28.766116 
L 356.338459 26.499279 
L 349.547754 23.979933 
L 345.309078 22.555747 
L 338.817018 20.579947 
L 331.152748 18.545866 
L 322.954749 16.70108 
L 318.479998 15.829364 
L 308.45555 14.201145 
L 302.236362 13.404642 
L 293.469602 12.543514 
L 286.82843 12.085641 
L 276.421066 11.688767 
L 268.512117 11.637875 
L 258.431144 11.873538 
L 249.576586 12.348721 
L 238.747007 13.259752 
L 226.928884 14.6566 
L 219.269217 15.781729 
L 208.338229 17.682459 
L 199.813964 19.403762 
L 192.330883 21.087124 
L 180.904323 23.9696 
L 174.114873 25.862495 
L 165.854167 28.349413 
L 157.386549 31.112055 
L 148.062119 34.411103 
L 138.003603 38.283178 
L 131.932496 40.784333 
L 122.184119 45.072438 
L 112.968278 49.45357 
L 106.12129 52.929927 
L 97.035527 57.859692 
L 91.19122 61.238351 
L 84.114819 65.569237 
L 76.224068 70.743862 
L 69.172905 75.719612 
L 64.315572 79.368828 
L 59.275646 83.374227 
L 52.798623 88.90398 
L 47.569179 93.745567 
L 42.526247 98.810744 
L 39.101357 102.524682 
L 36.121893 105.977374 
L 32.302641 110.780515 
L 29.596037 114.512568 
L 26.008622 120.038969 
L 23.418988 124.619703 
L 21.521199 128.457392 
L 19.537446 133.166673 
L 18.164831 137.144504 
L 17.140102 140.860417 
L 16.219079 145.512054 
L 15.753881 149.601152 
L 15.627308 153.881385 
L 15.780425 157.038703 
L 16.02831 159.333645 
L 16.622389 162.767051 
L 17.494192 166.194643 
L 18.636339 169.561905 
L 19.874433 172.49454 
L 21.423711 175.558314 
L 23.412472 178.873214 
L 24.572054 180.582513 
L 27.088015 183.886146 
L 29.530288 186.69529 
L 32.670247 189.886902 
L 35.650009 192.582926 
L 39.125902 195.41057 
L 42.357369 197.793023 
L 46.953187 200.852329 
L 50.33014 202.896189 
L 55.515596 205.756946 
L 60.672458 208.321811 
L 66.994996 211.150243 
L 71.84317 213.118482 
L 77.717059 215.30249 
L 77.717059 215.30249 
" clip-path="url(#p0b63f7fd11)" style="fill: none; stroke: #000000; stroke-width: 2; stroke-linecap: square"/>
   </g>
   <g id="text_1">
    <!-- $P$ -->
    <g transform="translate(80.250808 238.888739) scale(0.2 -0.2)">
     <defs>
      <path id="Cmmi10-50" d="M 313 0 
Q 250 0 250 84 
Q 253 100 262 139 
Q 272 178 289 201 
Q 306 225 331 225 
Q 722 225 878 269 
Q 959 297 997 441 
L 1875 3956 
Q 1888 4019 1888 4044 
Q 1888 4113 1813 4122 
Q 1691 4147 1350 4147 
Q 1288 4147 1288 4231 
Q 1291 4247 1300 4286 
Q 1309 4325 1326 4348 
Q 1344 4372 1369 4372 
L 3578 4372 
Q 3881 4372 4165 4264 
Q 4450 4156 4631 3934 
Q 4813 3713 4813 3397 
Q 4813 2991 4527 2672 
Q 4241 2353 3814 2175 
Q 3388 1997 2988 1997 
L 1947 1997 
L 1556 416 
Q 1544 353 1544 325 
Q 1544 300 1551 283 
Q 1559 266 1573 261 
Q 1588 256 1619 250 
Q 1741 225 2081 225 
Q 2144 225 2144 141 
Q 2122 50 2109 25 
Q 2097 0 2034 0 
L 313 0 
z
M 1978 2188 
L 2875 2188 
Q 3497 2188 3822 2522 
Q 3988 2688 4092 3000 
Q 4197 3313 4197 3566 
Q 4197 3881 3956 4014 
Q 3716 4147 3359 4147 
L 2747 4147 
Q 2572 4147 2515 4117 
Q 2459 4088 2413 3928 
L 1978 2188 
z
" transform="scale(0.015625)"/>
     </defs>
     <use xlink:href="#Cmmi10-50" transform="translate(0 0.6875)"/>
    </g>
   </g>
   <g id="text_2">
    <!-- $Q$ -->
    <g transform="translate(428.745237 95.965926) scale(0.2 -0.2)">
     <defs>
      <path id="Cmmi10-51" d="M 1947 -141 
Q 1466 -141 1094 79 
Q 722 300 520 692 
Q 319 1084 319 1563 
Q 319 2259 714 2950 
Q 1109 3641 1756 4077 
Q 2403 4513 3109 4513 
Q 3475 4513 3778 4381 
Q 4081 4250 4290 4017 
Q 4500 3784 4614 3471 
Q 4728 3159 4728 2791 
Q 4728 2366 4581 1936 
Q 4434 1506 4171 1136 
Q 3909 766 3559 484 
Q 3209 203 2809 38 
Q 2850 -256 2934 -425 
Q 3019 -594 3256 -594 
Q 3506 -594 3726 -412 
Q 3947 -231 4006 13 
Q 4019 72 4078 72 
Q 4147 72 4147 -13 
Q 4100 -219 4008 -430 
Q 3916 -641 3786 -823 
Q 3656 -1006 3478 -1123 
Q 3300 -1241 3084 -1241 
Q 2547 -1241 2547 -550 
Q 2547 -509 2562 -332 
Q 2578 -156 2578 -44 
Q 2269 -141 1947 -141 
z
M 1709 300 
Q 1709 44 1991 44 
Q 2275 44 2591 184 
L 2591 244 
Q 2591 503 2509 648 
Q 2428 794 2194 794 
Q 2078 794 1964 723 
Q 1850 653 1779 539 
Q 1709 425 1709 300 
z
M 1544 288 
Q 1544 456 1637 612 
Q 1731 769 1881 864 
Q 2031 959 2203 959 
Q 2481 959 2607 771 
Q 2734 584 2778 281 
Q 3188 525 3500 978 
Q 3813 1431 3977 1973 
Q 4141 2516 4141 3003 
Q 4141 3356 4023 3656 
Q 3906 3956 3664 4140 
Q 3422 4325 3066 4325 
Q 2722 4325 2403 4156 
Q 2084 3988 1813 3706 
Q 1550 3434 1342 3032 
Q 1134 2631 1021 2193 
Q 909 1756 909 1356 
Q 909 947 1068 612 
Q 1228 278 1569 128 
Q 1544 194 1544 288 
z
" transform="scale(0.015625)"/>
     </defs>
     <use xlink:href="#Cmmi10-51" transform="translate(0 0.484375)"/>
    </g>
   </g>
  </g>
 </g>
 <defs>
  <clipPath id="p0b63f7fd11">
   <rect x="7.2" y="7.2" width="437.967692" height="230.604695"/>
  </clipPath>
 </defs>
</svg>
