<?xml version="1.0" encoding="utf-8" standalone="no"?>
<!DOCTYPE svg PUBLIC "-//W3C//DTD SVG 1.1//EN"
  "http://www.w3.org/Graphics/SVG/1.1/DTD/svg11.dtd">
<svg xmlns:xlink="http://www.w3.org/1999/xlink" width="452.367692pt" height="250.251637pt" viewBox="0 0 452.367692 250.251637" xmlns="http://www.w3.org/2000/svg" version="1.1">
 <metadata>
  <rdf:RDF xmlns:dc="http://purl.org/dc/elements/1.1/" xmlns:cc="http://creativecommons.org/ns#" xmlns:rdf="http://www.w3.org/1999/02/22-rdf-syntax-ns#">
   <cc:Work>
    <dc:type rdf:resource="http://purl.org/dc/dcmitype/StillImage"/>
    <dc:date>2025-08-04T00:37:57.789005</dc:date>
    <dc:format>image/svg+xml</dc:format>
    <dc:creator>
     <cc:Agent>
      <dc:title>Matplotlib v3.10.5, https://matplotlib.org/</dc:title>
     </cc:Agent>
    </dc:creator>
   </cc:Work>
  </rdf:RDF>
 </metadata>
 <defs>
  <style type="text/css">*{stroke-linejoin: round; stroke-linecap: butt}</style>
 </defs>
 <g id="figure_1">
  <g id="patch_1">
   <path d="M 0 250.251637 
L 452.367692 250.251637 
L 452.367692 0 
L 0 0 
z
" style="fill: #ffffff"/>
  </g>
  <g id="axes_1">
   <g id="patch_2">
    <path d="M 7.2 237.808287 
L 445.167692 237.808287 
L 445.167692 7.2 
L 7.2 7.2 
z
" style="fill: #ffffff"/>
   </g>
   <g id="PathCollection_1">
    <path d="M 77.716477 218.841518 
C 78.654112 218.841518 79.55347 218.468992 80.216477 217.805984 
C 80.879485 217.142976 81.252011 216.243619 81.252011 215.305984 
C 81.252011 214.368349 80.879485 213.468992 80.216477 212.805984 
C 79.55347 212.142976 78.654112 211.77045 77.716477 211.77045 
C 76.778843 211.77045 75.879485 212.142976 75.216477 212.805984 
C 74.55347 213.468992 74.180943 214.368349 74.180943 215.305984 
C 74.180943 216.243619 74.55347 217.142976 75.216477 217.805984 
C 75.879485 218.468992 76.778843 218.841518 77.716477 218.841518 
z
" clip-path="url(#pecc1df85f0)"/>
   </g>
   <g id="PathCollection_2">
    <path d="M 418.677709 75.918473 
C 419.615343 75.918473 420.514701 75.545947 421.177709 74.882939 
C 421.840716 74.219931 422.213242 73.320574 422.213242 72.382939 
C 422.213242 71.445305 421.840716 70.545947 421.177709 69.882939 
C 420.514701 69.219931 419.615343 68.847405 418.677709 68.847405 
C 417.740074 68.847405 416.840716 69.219931 416.177709 69.882939 
C 415.514701 70.545947 415.142175 71.445305 415.142175 72.382939 
C 415.142175 73.320574 415.514701 74.219931 416.177709 74.882939 
C 416.840716 75.545947 417.740074 75.918473 418.677709 75.918473 
z
" clip-path="url(#pecc1df85f0)"/>
   </g>
   <g id="matplotlib.axis_1"/>
   <g id="matplotlib.axis_2"/>
   <g id="line2d_1">
    <path d="M 418.677709 72.382939 
L 414.699268 67.263772 
L 411.180496 63.184401 
L 407.661924 59.451425 
L 403.735116 55.631035 
L 399.761564 52.083544 
L 395.101167 48.274404 
L 391.025803 45.215319 
L 385.99607 41.746924 
L 380.402548 38.241763 
L 376.984539 36.263678 
L 370.39736 32.766227 
L 367.127339 31.171537 
L 362.015974 28.851217 
L 354.625983 25.838443 
L 349.724267 24.044877 
L 341.87358 21.483363 
L 336.79653 20.016535 
L 327.942996 17.787491 
L 319.440274 16.011871 
L 313.738717 15.007919 
L 306.442109 13.929102 
L 299.951143 13.154429 
L 291.236678 12.37446 
L 285.299174 12.006333 
L 276.367307 11.690872 
L 269.877804 11.634775 
L 259.48997 11.836474 
L 250.188256 12.311148 
L 244.95819 12.696582 
L 237.587988 13.381466 
L 227.964588 14.520773 
L 219.086505 15.813771 
L 210.369129 17.306317 
L 202.828858 18.774172 
L 192.212892 21.118044 
L 181.949451 23.693278 
L 176.076683 25.304701 
L 167.743754 27.765629 
L 159.003547 30.570604 
L 148.678475 34.187572 
L 140.453788 37.31223 
L 131.093996 41.142798 
L 122.540969 44.912331 
L 113.274495 49.305593 
L 103.470571 54.332488 
L 97.431642 57.639718 
L 89.499082 62.252095 
L 80.850059 67.666329 
L 72.943265 73.017451 
L 67.394956 77.035761 
L 61.985837 81.193641 
L 56.22718 85.921536 
L 50.255075 91.214802 
L 46.133536 95.146733 
L 40.779036 100.676988 
L 37.598403 104.240482 
L 34.987598 107.357746 
L 31.111717 112.3865 
L 28.536501 116.068784 
L 25.856438 120.29425 
L 24.048257 123.449638 
L 21.552058 128.392561 
L 19.993053 132.001596 
L 18.441289 136.274725 
L 17.595621 139.095414 
L 16.754658 142.567763 
L 16.105521 146.287097 
L 15.746032 149.703739 
L 15.622456 153.495155 
L 15.746535 156.6162 
L 16.030372 159.35754 
L 16.443022 161.888669 
L 17.15301 164.987908 
L 18.14452 168.220425 
L 19.294821 171.194838 
L 20.75828 174.311443 
L 22.300008 177.092848 
L 23.94181 179.675146 
L 25.944649 182.449213 
L 28.703188 185.784802 
L 30.702114 187.939091 
L 34.255857 191.360703 
L 36.596539 193.387632 
L 39.444499 195.659138 
L 44.150711 199.032661 
L 49.182628 202.222944 
L 53.140297 204.488692 
L 56.845137 206.446687 
L 62.025553 208.958211 
L 67.725235 211.460858 
L 72.079135 213.213996 
L 77.716477 215.305984 
L 77.716477 215.305984 
" clip-path="url(#pecc1df85f0)" style="fill: none; stroke: #000000; stroke-width: 2; stroke-linecap: square"/>
   </g>
   <g id="text_1">
    <!-- $P$ -->
    <g transform="translate(80.250241 238.892262) scale(0.2 -0.2)">
     <defs>
      <path id="Cmmi10-50" d="M 313 0 
Q 250 0 250 84 
Q 253 100 262 139 
Q 272 178 289 201 
Q 306 225 331 225 
Q 722 225 878 269 
Q 959 297 997 441 
L 1875 3956 
Q 1888 4019 1888 4044 
Q 1888 4113 1813 4122 
Q 1691 4147 1350 4147 
Q 1288 4147 1288 4231 
Q 1291 4247 1300 4286 
Q 1309 4325 1326 4348 
Q 1344 4372 1369 4372 
L 3578 4372 
Q 3881 4372 4165 4264 
Q 4450 4156 4631 3934 
Q 4813 3713 4813 3397 
Q 4813 2991 4527 2672 
Q 4241 2353 3814 2175 
Q 3388 1997 2988 1997 
L 1947 1997 
L 1556 416 
Q 1544 353 1544 325 
Q 1544 300 1551 283 
Q 1559 266 1573 261 
Q 1588 256 1619 250 
Q 1741 225 2081 225 
Q 2144 225 2144 141 
Q 2122 50 2109 25 
Q 2097 0 2034 0 
L 313 0 
z
M 1978 2188 
L 2875 2188 
Q 3497 2188 3822 2522 
Q 3988 2688 4092 3000 
Q 4197 3313 4197 3566 
Q 4197 3881 3956 4014 
Q 3716 4147 3359 4147 
L 2747 4147 
Q 2572 4147 2515 4117 
Q 2459 4088 2413 3928 
L 1978 2188 
z
" transform="scale(0.015625)"/>
     </defs>
     <use xlink:href="#Cmmi10-50" transform="translate(0 0.6875)"/>
    </g>
   </g>
   <g id="text_2">
    <!-- $Q$ -->
    <g transform="translate(428.745237 95.969217) scale(0.2 -0.2)">
     <defs>
      <path id="Cmmi10-51" d="M 1947 -141 
Q 1466 -141 1094 79 
Q 722 300 520 692 
Q 319 1084 319 1563 
Q 319 2259 714 2950 
Q 1109 3641 1756 4077 
Q 2403 4513 3109 4513 
Q 3475 4513 3778 4381 
Q 4081 4250 4290 4017 
Q 4500 3784 4614 3471 
Q 4728 3159 4728 2791 
Q 4728 2366 4581 1936 
Q 4434 1506 4171 1136 
Q 3909 766 3559 484 
Q 3209 203 2809 38 
Q 2850 -256 2934 -425 
Q 3019 -594 3256 -594 
Q 3506 -594 3726 -412 
Q 3947 -231 4006 13 
Q 4019 72 4078 72 
Q 4147 72 4147 -13 
Q 4100 -219 4008 -430 
Q 3916 -641 3786 -823 
Q 3656 -1006 3478 -1123 
Q 3300 -1241 3084 -1241 
Q 2547 -1241 2547 -550 
Q 2547 -509 2562 -332 
Q 2578 -156 2578 -44 
Q 2269 -141 1947 -141 
z
M 1709 300 
Q 1709 44 1991 44 
Q 2275 44 2591 184 
L 2591 244 
Q 2591 503 2509 648 
Q 2428 794 2194 794 
Q 2078 794 1964 723 
Q 1850 653 1779 539 
Q 1709 425 1709 300 
z
M 1544 288 
Q 1544 456 1637 612 
Q 1731 769 1881 864 
Q 2031 959 2203 959 
Q 2481 959 2607 771 
Q 2734 584 2778 281 
Q 3188 525 3500 978 
Q 3813 1431 3977 1973 
Q 4141 2516 4141 3003 
Q 4141 3356 4023 3656 
Q 3906 3956 3664 4140 
Q 3422 4325 3066 4325 
Q 2722 4325 2403 4156 
Q 2084 3988 1813 3706 
Q 1550 3434 1342 3032 
Q 1134 2631 1021 2193 
Q 909 1756 909 1356 
Q 909 947 1068 612 
Q 1228 278 1569 128 
Q 1544 194 1544 288 
z
" transform="scale(0.015625)"/>
     </defs>
     <use xlink:href="#Cmmi10-51" transform="translate(0 0.484375)"/>
    </g>
   </g>
  </g>
 </g>
 <defs>
  <clipPath id="pecc1df85f0">
   <rect x="7.2" y="7.2" width="437.967692" height="230.608287"/>
  </clipPath>
 </defs>
</svg>
