<?xml version="1.0" encoding="utf-8" standalone="no"?>
<!DOCTYPE svg PUBLIC "-//W3C//DTD SVG 1.1//EN"
  "http://www.w3.org/Graphics/SVG/1.1/DTD/svg11.dtd">
<svg xmlns:xlink="http://www.w3.org/1999/xlink" width="453.6pt" height="208.168738pt" viewBox="0 0 453.6 208.168738" xmlns="http://www.w3.org/2000/svg" version="1.1">
 <metadata>
  <rdf:RDF xmlns:dc="http://purl.org/dc/elements/1.1/" xmlns:cc="http://creativecommons.org/ns#" xmlns:rdf="http://www.w3.org/1999/02/22-rdf-syntax-ns#">
   <cc:Work>
    <dc:type rdf:resource="http://purl.org/dc/dcmitype/StillImage"/>
    <dc:date>2025-07-25T14:49:37.772295</dc:date>
    <dc:format>image/svg+xml</dc:format>
    <dc:creator>
     <cc:Agent>
      <dc:title>Matplotlib v3.10.3, https://matplotlib.org/</dc:title>
     </cc:Agent>
    </dc:creator>
   </cc:Work>
  </rdf:RDF>
 </metadata>
 <defs>
  <style type="text/css">*{stroke-linejoin: round; stroke-linecap: butt}</style>
 </defs>
 <g id="figure_1">
  <g id="patch_1">
   <path d="M 0 208.168738 
L 453.6 208.168738 
L 453.6 0 
L 0 0 
z
" style="fill: #ffffff"/>
  </g>
  <g id="axes_1">
   <g id="patch_2">
    <path d="M 7.2 196.242267 
L 446.4 196.242267 
L 446.4 7.2 
L 7.2 7.2 
z
" style="fill: #ffffff"/>
   </g>
   <g id="PathCollection_1">
    <path d="M 412.500414 64.170026 
C 413.438048 64.170026 414.337406 63.7975 415.000414 63.134492 
C 415.663422 62.471484 416.035948 61.572127 416.035948 60.634492 
C 416.035948 59.696858 415.663422 58.7975 415.000414 58.134492 
C 414.337406 57.471484 413.438048 57.098958 412.500414 57.098958 
C 411.562779 57.098958 410.663422 57.471484 410.000414 58.134492 
C 409.337406 58.7975 408.96488 59.696858 408.96488 60.634492 
C 408.96488 61.572127 409.337406 62.471484 410.000414 63.134492 
C 410.663422 63.7975 411.562779 64.170026 412.500414 64.170026 
z
" clip-path="url(#pd39aeb021e)"/>
   </g>
   <g id="PathCollection_2">
    <path d="M 132.996758 181.33148 
C 133.934393 181.33148 134.833751 180.958954 135.496758 180.295946 
C 136.159766 179.632938 136.532292 178.73358 136.532292 177.795946 
C 136.532292 176.858311 136.159766 175.958954 135.496758 175.295946 
C 134.833751 174.632938 133.934393 174.260412 132.996758 174.260412 
C 132.059124 174.260412 131.159766 174.632938 130.496758 175.295946 
C 129.833751 175.958954 129.461224 176.858311 129.461224 177.795946 
C 129.461224 178.73358 129.833751 179.632938 130.496758 180.295946 
C 131.159766 180.958954 132.059124 181.33148 132.996758 181.33148 
z
" clip-path="url(#pd39aeb021e)"/>
   </g>
   <g id="matplotlib.axis_1"/>
   <g id="matplotlib.axis_2"/>
   <g id="line2d_1">
    <path d="M 412.500414 60.634492 
L 409.666698 56.961211 
L 406.663443 53.43763 
L 402.8286 49.387238 
L 398.977724 45.736014 
L 394.133571 41.62924 
L 390.355975 38.743883 
L 385.582417 35.436947 
L 380.636006 32.357618 
L 374.984109 29.215049 
L 371.224746 27.322189 
L 365.038572 24.51385 
L 359.301866 22.217154 
L 352.039408 19.689142 
L 345.285904 17.681691 
L 338.299792 15.920978 
L 330.294178 14.2645 
L 322.979638 13.061765 
L 317.604361 12.354586 
L 309.818549 11.580179 
L 303.177842 11.141403 
L 295.22306 10.870669 
L 286.919994 10.870647 
L 277.714828 11.192891 
L 269.94201 11.718904 
L 264.907843 12.180181 
L 256.406738 13.169637 
L 246.617954 14.630447 
L 237.297426 16.3364 
L 230.215469 17.836625 
L 221.409616 19.947848 
L 213.069312 22.200604 
L 203.958802 24.947459 
L 196.85334 27.30202 
L 187.174079 30.819248 
L 178.930041 34.109356 
L 173.141706 36.589835 
L 164.627547 40.509894 
L 158.454436 43.567977 
L 151.147783 47.442529 
L 145.327546 50.744471 
L 139.897263 54.01499 
L 133.25193 58.295234 
L 127.571504 62.228851 
L 121.370013 66.86059 
L 117.176271 70.226112 
L 112.356403 74.370847 
L 107.959416 78.461764 
L 104.011644 82.445762 
L 99.702627 87.224222 
L 96.389332 91.300553 
L 93.750641 94.884546 
L 91.27874 98.612829 
L 88.996498 102.506821 
L 87.783908 104.826769 
L 86.09571 108.491564 
L 84.588059 112.459684 
L 83.727166 115.269047 
L 82.970632 118.422578 
L 82.584957 120.576076 
L 82.290104 122.912379 
L 82.094509 127.022279 
L 82.255101 130.389945 
L 82.675641 133.509837 
L 83.265578 136.225979 
L 84.207625 139.326414 
L 85.062662 141.534923 
L 86.106605 143.798718 
L 87.633363 146.578322 
L 89.831709 149.89283 
L 91.768849 152.375829 
L 94.047504 154.935338 
L 96.733095 157.585222 
L 99.946597 160.369608 
L 103.016465 162.729944 
L 106.121458 164.88284 
L 110.001659 167.30623 
L 114.428725 169.777545 
L 119.697471 172.389745 
L 124.235304 174.403962 
L 129.512707 176.517583 
L 132.996758 177.795946 
L 132.996758 177.795946 
" clip-path="url(#pd39aeb021e)" style="fill: none; stroke: #000000; stroke-width: 2; stroke-linecap: square"/>
   </g>
   <g id="patch_3">
    <path d="M 132.996758 177.795946 
Q 108.256309 166.898384 85.562207 156.902189 
" clip-path="url(#pd39aeb021e)" style="fill: none; stroke: #0000ff; stroke-width: 2; stroke-linecap: round"/>
    <path d="M 92.698237 165.508993 
L 85.562207 156.902189 
L 96.729268 156.357447 
z
" clip-path="url(#pd39aeb021e)" style="fill: #0000ff; stroke: #0000ff; stroke-width: 2; stroke-linecap: round"/>
   </g>
   <g id="patch_4">
    <path d="M 110.582315 167.646846 
Q 82.106125 158.440801 55.757579 149.922601 
" clip-path="url(#pd39aeb021e)" style="fill: none; stroke: #0000ff; stroke-width: 2; stroke-linecap: round"/>
    <path d="M 63.734627 157.756292 
L 55.757579 149.922601 
L 66.81076 148.241177 
z
" clip-path="url(#pd39aeb021e)" style="fill: #0000ff; stroke: #0000ff; stroke-width: 2; stroke-linecap: round"/>
   </g>
   <g id="patch_5">
    <path d="M 94.609381 155.518842 
Q 63.471035 148.334131 34.511511 141.652151 
" clip-path="url(#pd39aeb021e)" style="fill: none; stroke: #0000ff; stroke-width: 2; stroke-linecap: round"/>
    <path d="M 43.131355 148.772423 
L 34.511511 141.652151 
L 45.379635 139.028438 
z
" clip-path="url(#pd39aeb021e)" style="fill: #0000ff; stroke: #0000ff; stroke-width: 2; stroke-linecap: round"/>
   </g>
   <g id="patch_6">
    <path d="M 85.152498 141.745517 
Q 52.438005 136.85636 21.935019 132.297711 
" clip-path="url(#pd39aeb021e)" style="fill: none; stroke: #0000ff; stroke-width: 2; stroke-linecap: round"/>
    <path d="M 31.086142 138.720869 
L 21.935019 132.297711 
L 32.564219 128.830708 
z
" clip-path="url(#pd39aeb021e)" style="fill: #0000ff; stroke: #0000ff; stroke-width: 2; stroke-linecap: round"/>
   </g>
   <g id="patch_7">
    <path d="M 82.094479 126.720748 
Q 48.870316 124.335719 17.876483 122.110797 
" clip-path="url(#pd39aeb021e)" style="fill: none; stroke: #0000ff; stroke-width: 2; stroke-linecap: round"/>
    <path d="M 27.492807 127.813981 
L 17.876483 122.110797 
L 28.208824 117.839648 
z
" clip-path="url(#pd39aeb021e)" style="fill: #0000ff; stroke: #0000ff; stroke-width: 2; stroke-linecap: round"/>
   </g>
   <g id="patch_8">
    <path d="M 85.145013 110.887496 
Q 52.429273 111.141343 21.949533 111.37784 
" clip-path="url(#pd39aeb021e)" style="fill: none; stroke: #0000ff; stroke-width: 2; stroke-linecap: round"/>
    <path d="M 31.988027 116.3001 
L 21.949533 111.37784 
L 31.910438 106.300401 
z
" clip-path="url(#pd39aeb021e)" style="fill: #0000ff; stroke: #0000ff; stroke-width: 2; stroke-linecap: round"/>
   </g>
   <g id="patch_9">
    <path d="M 93.862811 94.724761 
Q 62.600037 97.672397 33.563458 100.410134 
" clip-path="url(#pd39aeb021e)" style="fill: none; stroke: #0000ff; stroke-width: 2; stroke-linecap: round"/>
    <path d="M 43.98865 104.449362 
L 33.563458 100.410134 
L 43.049955 94.493517 
z
" clip-path="url(#pd39aeb021e)" style="fill: #0000ff; stroke: #0000ff; stroke-width: 2; stroke-linecap: round"/>
   </g>
   <g id="patch_10">
    <path d="M 107.680175 78.733095 
Q 78.720295 84.346008 51.955632 89.533452 
" clip-path="url(#pd39aeb021e)" style="fill: none; stroke: #0000ff; stroke-width: 2; stroke-linecap: round"/>
    <path d="M 62.724318 92.539345 
L 51.955632 89.533452 
L 60.821558 82.722039 
z
" clip-path="url(#pd39aeb021e)" style="fill: #0000ff; stroke: #0000ff; stroke-width: 2; stroke-linecap: round"/>
   </g>
   <g id="patch_11">
    <path d="M 125.928882 63.419099 
Q 100.010453 71.584345 76.22476 79.077702 
" clip-path="url(#pd39aeb021e)" style="fill: none; stroke: #0000ff; stroke-width: 2; stroke-linecap: round"/>
    <path d="M 87.265038 80.841865 
L 76.22476 79.077702 
L 84.260257 71.303978 
z
" clip-path="url(#pd39aeb021e)" style="fill: #0000ff; stroke: #0000ff; stroke-width: 2; stroke-linecap: round"/>
   </g>
   <g id="patch_12">
    <path d="M 147.866346 49.279401 
Q 125.604162 59.801264 105.363617 69.367631 
" clip-path="url(#pd39aeb021e)" style="fill: none; stroke: #0000ff; stroke-width: 2; stroke-linecap: round"/>
    <path d="M 116.541219 69.615049 
L 105.363617 69.367631 
L 112.268113 60.574 
z
" clip-path="url(#pd39aeb021e)" style="fill: #0000ff; stroke: #0000ff; stroke-width: 2; stroke-linecap: round"/>
   </g>
   <g id="patch_13">
    <path d="M 172.701152 36.784599 
Q 154.578101 49.388928 138.290794 60.716524 
" clip-path="url(#pd39aeb021e)" style="fill: none; stroke: #0000ff; stroke-width: 2; stroke-linecap: round"/>
    <path d="M 149.355348 59.111644 
L 138.290794 60.716524 
L 143.645622 50.901953 
z
" clip-path="url(#pd39aeb021e)" style="fill: #0000ff; stroke: #0000ff; stroke-width: 2; stroke-linecap: round"/>
   </g>
   <g id="patch_14">
    <path d="M 199.617158 26.363706 
Q 185.980109 40.704851 173.88392 53.42558 
" clip-path="url(#pd39aeb021e)" style="fill: none; stroke: #0000ff; stroke-width: 2; stroke-linecap: round"/>
    <path d="M 184.398218 49.624325 
L 173.88392 53.42558 
L 177.151495 42.733389 
z
" clip-path="url(#pd39aeb021e)" style="fill: #0000ff; stroke: #0000ff; stroke-width: 2; stroke-linecap: round"/>
   </g>
   <g id="patch_15">
    <path d="M 227.795575 18.389602 
Q 218.854929 34.059765 211.022399 47.787744 
" clip-path="url(#pd39aeb021e)" style="fill: none; stroke: #0000ff; stroke-width: 2; stroke-linecap: round"/>
    <path d="M 220.320904 41.579861 
L 211.022399 47.787744 
L 211.635196 36.62421 
z
" clip-path="url(#pd39aeb021e)" style="fill: #0000ff; stroke: #0000ff; stroke-width: 2; stroke-linecap: round"/>
   </g>
   <g id="patch_16">
    <path d="M 256.434551 13.165974 
Q 252.267066 29.706741 248.645892 44.079203 
" clip-path="url(#pd39aeb021e)" style="fill: none; stroke: #0000ff; stroke-width: 2; stroke-linecap: round"/>
    <path d="M 255.937539 35.603834 
L 248.645892 44.079203 
L 246.240584 33.160664 
z
" clip-path="url(#pd39aeb021e)" style="fill: #0000ff; stroke: #0000ff; stroke-width: 2; stroke-linecap: round"/>
   </g>
   <g id="patch_17">
    <path d="M 284.766003 10.916202 
Q 285.320428 27.831931 285.801603 42.512792 
" clip-path="url(#pd39aeb021e)" style="fill: none; stroke: #0000ff; stroke-width: 2; stroke-linecap: round"/>
    <path d="M 290.471339 32.354369 
L 285.801603 42.512792 
L 280.476706 32.68195 
z
" clip-path="url(#pd39aeb021e)" style="fill: #0000ff; stroke: #0000ff; stroke-width: 2; stroke-linecap: round"/>
   </g>
   <g id="patch_18">
    <path d="M 312.069605 11.774591 
Q 317.17463 28.547255 321.628563 43.180742 
" clip-path="url(#pd39aeb021e)" style="fill: none; stroke: #0000ff; stroke-width: 2; stroke-linecap: round"/>
    <path d="M 323.500135 32.158165 
L 321.628563 43.180742 
L 313.933444 35.069938 
z
" clip-path="url(#pd39aeb021e)" style="fill: #0000ff; stroke: #0000ff; stroke-width: 2; stroke-linecap: round"/>
   </g>
   <g id="patch_19">
    <path d="M 337.683957 15.780261 
Q 347.05804 31.885314 355.307273 46.057827 
" clip-path="url(#pd39aeb021e)" style="fill: none; stroke: #0000ff; stroke-width: 2; stroke-linecap: round"/>
    <path d="M 354.598075 34.900003 
L 355.307273 46.057827 
L 345.955495 39.93049 
z
" clip-path="url(#pd39aeb021e)" style="fill: #0000ff; stroke: #0000ff; stroke-width: 2; stroke-linecap: round"/>
   </g>
   <g id="patch_20">
    <path d="M 361.015146 22.873958 
Q 374.277762 37.796728 386.054944 51.048125 
" clip-path="url(#pd39aeb021e)" style="fill: none; stroke: #0000ff; stroke-width: 2; stroke-linecap: round"/>
    <path d="M 383.149188 40.251987 
L 386.054944 51.048125 
L 375.67458 46.895047 
z
" clip-path="url(#pd39aeb021e)" style="fill: #0000ff; stroke: #0000ff; stroke-width: 2; stroke-linecap: round"/>
   </g>
   <g id="patch_21">
    <path d="M 381.542981 32.897936 
Q 398.226902 46.150043 413.159893 58.011379 
" clip-path="url(#pd39aeb021e)" style="fill: none; stroke: #0000ff; stroke-width: 2; stroke-linecap: round"/>
    <path d="M 408.439354 47.876463 
L 413.159893 58.011379 
L 402.219637 55.706861 
z
" clip-path="url(#pd39aeb021e)" style="fill: #0000ff; stroke: #0000ff; stroke-width: 2; stroke-linecap: round"/>
   </g>
   <g id="patch_22">
    <path d="M 398.825248 45.598973 
Q 418.389547 56.734241 436.010501 66.763429 
" clip-path="url(#pd39aeb021e)" style="fill: none; stroke: #0000ff; stroke-width: 2; stroke-linecap: round"/>
    <path d="M 429.792868 57.471441 
L 436.010501 66.763429 
L 424.846331 66.162343 
z
" clip-path="url(#pd39aeb021e)" style="fill: #0000ff; stroke: #0000ff; stroke-width: 2; stroke-linecap: round"/>
   </g>
   <g id="text_1">
    <!-- $Q$ -->
    <g transform="translate(405.588414 80.213585) scale(0.1728 -0.1728)">
     <defs>
      <path id="Cmmi10-51" d="M 1947 -141 
Q 1466 -141 1094 79 
Q 722 300 520 692 
Q 319 1084 319 1563 
Q 319 2259 714 2950 
Q 1109 3641 1756 4077 
Q 2403 4513 3109 4513 
Q 3475 4513 3778 4381 
Q 4081 4250 4290 4017 
Q 4500 3784 4614 3471 
Q 4728 3159 4728 2791 
Q 4728 2366 4581 1936 
Q 4434 1506 4171 1136 
Q 3909 766 3559 484 
Q 3209 203 2809 38 
Q 2850 -256 2934 -425 
Q 3019 -594 3256 -594 
Q 3506 -594 3726 -412 
Q 3947 -231 4006 13 
Q 4019 72 4078 72 
Q 4147 72 4147 -13 
Q 4100 -219 4008 -430 
Q 3916 -641 3786 -823 
Q 3656 -1006 3478 -1123 
Q 3300 -1241 3084 -1241 
Q 2547 -1241 2547 -550 
Q 2547 -509 2562 -332 
Q 2578 -156 2578 -44 
Q 2269 -141 1947 -141 
z
M 1709 300 
Q 1709 44 1991 44 
Q 2275 44 2591 184 
L 2591 244 
Q 2591 503 2509 648 
Q 2428 794 2194 794 
Q 2078 794 1964 723 
Q 1850 653 1779 539 
Q 1709 425 1709 300 
z
M 1544 288 
Q 1544 456 1637 612 
Q 1731 769 1881 864 
Q 2031 959 2203 959 
Q 2481 959 2607 771 
Q 2734 584 2778 281 
Q 3188 525 3500 978 
Q 3813 1431 3977 1973 
Q 4141 2516 4141 3003 
Q 4141 3356 4023 3656 
Q 3906 3956 3664 4140 
Q 3422 4325 3066 4325 
Q 2722 4325 2403 4156 
Q 2084 3988 1813 3706 
Q 1550 3434 1342 3032 
Q 1134 2631 1021 2193 
Q 909 1756 909 1356 
Q 909 947 1068 612 
Q 1228 278 1569 128 
Q 1544 194 1544 288 
z
" transform="scale(0.015625)"/>
     </defs>
     <use xlink:href="#Cmmi10-51" transform="translate(0 0.484375)"/>
    </g>
   </g>
   <g id="text_2">
    <!-- $P$ -->
    <g transform="translate(127.380758 197.375038) scale(0.1728 -0.1728)">
     <defs>
      <path id="Cmmi10-50" d="M 313 0 
Q 250 0 250 84 
Q 253 100 262 139 
Q 272 178 289 201 
Q 306 225 331 225 
Q 722 225 878 269 
Q 959 297 997 441 
L 1875 3956 
Q 1888 4019 1888 4044 
Q 1888 4113 1813 4122 
Q 1691 4147 1350 4147 
Q 1288 4147 1288 4231 
Q 1291 4247 1300 4286 
Q 1309 4325 1326 4348 
Q 1344 4372 1369 4372 
L 3578 4372 
Q 3881 4372 4165 4264 
Q 4450 4156 4631 3934 
Q 4813 3713 4813 3397 
Q 4813 2991 4527 2672 
Q 4241 2353 3814 2175 
Q 3388 1997 2988 1997 
L 1947 1997 
L 1556 416 
Q 1544 353 1544 325 
Q 1544 300 1551 283 
Q 1559 266 1573 261 
Q 1588 256 1619 250 
Q 1741 225 2081 225 
Q 2144 225 2144 141 
Q 2122 50 2109 25 
Q 2097 0 2034 0 
L 313 0 
z
M 1978 2188 
L 2875 2188 
Q 3497 2188 3822 2522 
Q 3988 2688 4092 3000 
Q 4197 3313 4197 3566 
Q 4197 3881 3956 4014 
Q 3716 4147 3359 4147 
L 2747 4147 
Q 2572 4147 2515 4117 
Q 2459 4088 2413 3928 
L 1978 2188 
z
" transform="scale(0.015625)"/>
     </defs>
     <use xlink:href="#Cmmi10-50" transform="translate(0 0.6875)"/>
    </g>
   </g>
  </g>
 </g>
 <defs>
  <clipPath id="pd39aeb021e">
   <rect x="7.2" y="7.2" width="439.2" height="189.042267"/>
  </clipPath>
 </defs>
</svg>
