<?xml version="1.0" encoding="utf-8" standalone="no"?>
<!DOCTYPE svg PUBLIC "-//W3C//DTD SVG 1.1//EN"
  "http://www.w3.org/Graphics/SVG/1.1/DTD/svg11.dtd">
<svg xmlns:xlink="http://www.w3.org/1999/xlink" width="452.367692pt" height="250.249934pt" viewBox="0 0 452.367692 250.249934" xmlns="http://www.w3.org/2000/svg" version="1.1">
 <metadata>
  <rdf:RDF xmlns:dc="http://purl.org/dc/elements/1.1/" xmlns:cc="http://creativecommons.org/ns#" xmlns:rdf="http://www.w3.org/1999/02/22-rdf-syntax-ns#">
   <cc:Work>
    <dc:type rdf:resource="http://purl.org/dc/dcmitype/StillImage"/>
    <dc:date>2026-06-03T19:20:44.734040</dc:date>
    <dc:format>image/svg+xml</dc:format>
    <dc:creator>
     <cc:Agent>
      <dc:title>Matplotlib v3.10.3, https://matplotlib.org/</dc:title>
     </cc:Agent>
    </dc:creator>
   </cc:Work>
  </rdf:RDF>
 </metadata>
 <defs>
  <style type="text/css">*{stroke-linejoin: round; stroke-linecap: butt}</style>
 </defs>
 <g id="figure_1">
  <g id="patch_1">
   <path d="M 0 250.249934 
L 452.367692 250.249934 
L 452.367692 0 
L 0 0 
z
" style="fill: #ffffff"/>
  </g>
  <g id="axes_1">
   <g id="patch_2">
    <path d="M 7.2 237.80655 
L 445.167692 237.80655 
L 445.167692 7.2 
L 7.2 7.2 
z
" style="fill: #ffffff"/>
   </g>
   <g id="PathCollection_1">
    <path d="M 77.711153 218.839547 
C 78.648787 218.839547 79.548145 218.467021 80.211153 217.804013 
C 80.87416 217.141005 81.246686 216.241648 81.246686 215.304013 
C 81.246686 214.366378 80.87416 213.467021 80.211153 212.804013 
C 79.548145 212.141005 78.648787 211.768479 77.711153 211.768479 
C 76.773518 211.768479 75.87416 212.141005 75.211153 212.804013 
C 74.548145 213.467021 74.175619 214.366378 74.175619 215.304013 
C 74.175619 216.241648 74.548145 217.141005 75.211153 217.804013 
C 75.87416 218.467021 76.773518 218.839547 77.711153 218.839547 
z
" clip-path="url(#p8db16af8c9)"/>
   </g>
   <g id="PathCollection_2">
    <path d="M 418.677441 75.914382 
C 419.615075 75.914382 420.514433 75.541856 421.177441 74.878848 
C 421.840448 74.215841 422.212974 73.316483 422.212974 72.378848 
C 422.212974 71.441214 421.840448 70.541856 421.177441 69.878848 
C 420.514433 69.215841 419.615075 68.843315 418.677441 68.843315 
C 417.739806 68.843315 416.840448 69.215841 416.177441 69.878848 
C 415.514433 70.541856 415.141907 71.441214 415.141907 72.378848 
C 415.141907 73.316483 415.514433 74.215841 416.177441 74.878848 
C 416.840448 75.541856 417.739806 75.914382 418.677441 75.914382 
z
" clip-path="url(#p8db16af8c9)"/>
   </g>
   <g id="matplotlib.axis_1"/>
   <g id="matplotlib.axis_2"/>
   <g id="line2d_1">
    <path d="M 418.677441 72.378848 
L 416.420336 69.401718 
L 412.755705 64.960296 
L 409.048038 60.880488 
L 405.473608 57.277093 
L 400.694782 52.886419 
L 396.085599 49.046017 
L 391.737939 45.728978 
L 385.820712 41.627592 
L 381.20672 38.720493 
L 374.052653 34.653769 
L 367.246266 31.223771 
L 360.019944 27.994784 
L 353.813383 25.52592 
L 346.694843 23.008176 
L 339.372985 20.738581 
L 331.969283 18.746634 
L 327.705656 17.728683 
L 322.043112 16.514583 
L 312.561096 14.813784 
L 302.511493 13.435013 
L 295.764193 12.738555 
L 287.50975 12.12345 
L 280.409092 11.793926 
L 272.414812 11.634741 
L 262.47933 11.73731 
L 252.351578 12.171331 
L 242.988961 12.858223 
L 233.657102 13.808283 
L 224.651124 14.970993 
L 214.462951 16.572529 
L 206.374404 18.058017 
L 196.865305 20.045268 
L 190.070764 21.62463 
L 178.021646 24.753976 
L 171.735118 26.55523 
L 161.472929 29.748527 
L 152.345131 32.858623 
L 145.040141 35.536366 
L 134.695313 39.627003 
L 127.190001 42.824024 
L 117.37266 47.314797 
L 112.260791 49.799916 
L 105.357953 53.325812 
L 97.297711 57.70786 
L 89.383702 62.314228 
L 81.210466 67.424412 
L 72.450026 73.357465 
L 66.167155 77.949417 
L 60.080645 82.712569 
L 54.981969 86.981125 
L 49.866085 91.56622 
L 45.628769 95.636756 
L 40.474933 100.997707 
L 35.893642 106.243403 
L 31.902672 111.303676 
L 28.064852 116.76724 
L 25.733031 120.48715 
L 23.434171 124.578047 
L 21.31938 128.883018 
L 19.850205 132.342019 
L 18.102795 137.323834 
L 17.028794 141.300151 
L 16.239651 145.335583 
L 15.751662 149.537901 
L 15.622456 152.340154 
L 15.756263 156.824549 
L 16.087471 159.809548 
L 16.507443 162.24548 
L 17.215076 165.238522 
L 17.962893 167.703468 
L 19.27552 171.161441 
L 20.709951 174.226581 
L 22.123371 176.802044 
L 24.375787 180.313401 
L 26.214579 182.803126 
L 28.240367 185.261902 
L 30.6282 187.866575 
L 33.247115 190.438787 
L 36.397131 193.223658 
L 40.748088 196.639225 
L 44.930645 199.554395 
L 48.229346 201.648426 
L 53.373002 204.617042 
L 58.180875 207.118769 
L 62.358407 209.111933 
L 69.546291 212.209901 
L 76.120292 214.732629 
L 77.711153 215.304013 
L 77.711153 215.304013 
" clip-path="url(#p8db16af8c9)" style="fill: none; stroke: #000000; stroke-width: 2; stroke-linecap: square"/>
   </g>
   <g id="text_1">
    <!-- $P$ -->
    <g transform="translate(80.245051 238.890559) scale(0.2 -0.2)">
     <defs>
      <path id="Cmmi10-50" d="M 313 0 
Q 250 0 250 84 
Q 253 100 262 139 
Q 272 178 289 201 
Q 306 225 331 225 
Q 722 225 878 269 
Q 959 297 997 441 
L 1875 3956 
Q 1888 4019 1888 4044 
Q 1888 4113 1813 4122 
Q 1691 4147 1350 4147 
Q 1288 4147 1288 4231 
Q 1291 4247 1300 4286 
Q 1309 4325 1326 4348 
Q 1344 4372 1369 4372 
L 3578 4372 
Q 3881 4372 4165 4264 
Q 4450 4156 4631 3934 
Q 4813 3713 4813 3397 
Q 4813 2991 4527 2672 
Q 4241 2353 3814 2175 
Q 3388 1997 2988 1997 
L 1947 1997 
L 1556 416 
Q 1544 353 1544 325 
Q 1544 300 1551 283 
Q 1559 266 1573 261 
Q 1588 256 1619 250 
Q 1741 225 2081 225 
Q 2144 225 2144 141 
Q 2122 50 2109 25 
Q 2097 0 2034 0 
L 313 0 
z
M 1978 2188 
L 2875 2188 
Q 3497 2188 3822 2522 
Q 3988 2688 4092 3000 
Q 4197 3313 4197 3566 
Q 4197 3881 3956 4014 
Q 3716 4147 3359 4147 
L 2747 4147 
Q 2572 4147 2515 4117 
Q 2459 4088 2413 3928 
L 1978 2188 
z
" transform="scale(0.015625)"/>
     </defs>
     <use xlink:href="#Cmmi10-50" transform="translate(0 0.6875)"/>
    </g>
   </g>
   <g id="text_2">
    <!-- $Q$ -->
    <g transform="translate(428.745237 95.965395) scale(0.2 -0.2)">
     <defs>
      <path id="Cmmi10-51" d="M 1947 -141 
Q 1466 -141 1094 79 
Q 722 300 520 692 
Q 319 1084 319 1563 
Q 319 2259 714 2950 
Q 1109 3641 1756 4077 
Q 2403 4513 3109 4513 
Q 3475 4513 3778 4381 
Q 4081 4250 4290 4017 
Q 4500 3784 4614 3471 
Q 4728 3159 4728 2791 
Q 4728 2366 4581 1936 
Q 4434 1506 4171 1136 
Q 3909 766 3559 484 
Q 3209 203 2809 38 
Q 2850 -256 2934 -425 
Q 3019 -594 3256 -594 
Q 3506 -594 3726 -412 
Q 3947 -231 4006 13 
Q 4019 72 4078 72 
Q 4147 72 4147 -13 
Q 4100 -219 4008 -430 
Q 3916 -641 3786 -823 
Q 3656 -1006 3478 -1123 
Q 3300 -1241 3084 -1241 
Q 2547 -1241 2547 -550 
Q 2547 -509 2562 -332 
Q 2578 -156 2578 -44 
Q 2269 -141 1947 -141 
z
M 1709 300 
Q 1709 44 1991 44 
Q 2275 44 2591 184 
L 2591 244 
Q 2591 503 2509 648 
Q 2428 794 2194 794 
Q 2078 794 1964 723 
Q 1850 653 1779 539 
Q 1709 425 1709 300 
z
M 1544 288 
Q 1544 456 1637 612 
Q 1731 769 1881 864 
Q 2031 959 2203 959 
Q 2481 959 2607 771 
Q 2734 584 2778 281 
Q 3188 525 3500 978 
Q 3813 1431 3977 1973 
Q 4141 2516 4141 3003 
Q 4141 3356 4023 3656 
Q 3906 3956 3664 4140 
Q 3422 4325 3066 4325 
Q 2722 4325 2403 4156 
Q 2084 3988 1813 3706 
Q 1550 3434 1342 3032 
Q 1134 2631 1021 2193 
Q 909 1756 909 1356 
Q 909 947 1068 612 
Q 1228 278 1569 128 
Q 1544 194 1544 288 
z
" transform="scale(0.015625)"/>
     </defs>
     <use xlink:href="#Cmmi10-51" transform="translate(0 0.484375)"/>
    </g>
   </g>
  </g>
 </g>
 <defs>
  <clipPath id="p8db16af8c9">
   <rect x="7.2" y="7.2" width="437.967692" height="230.60655"/>
  </clipPath>
 </defs>
</svg>
