<?xml version="1.0" encoding="utf-8" standalone="no"?>
<!DOCTYPE svg PUBLIC "-//W3C//DTD SVG 1.1//EN"
  "http://www.w3.org/Graphics/SVG/1.1/DTD/svg11.dtd">
<svg xmlns:xlink="http://www.w3.org/1999/xlink" width="392.655418pt" height="338.4pt" viewBox="0 0 392.655418 338.4" xmlns="http://www.w3.org/2000/svg" version="1.1">
 <metadata>
  <rdf:RDF xmlns:dc="http://purl.org/dc/elements/1.1/" xmlns:cc="http://creativecommons.org/ns#" xmlns:rdf="http://www.w3.org/1999/02/22-rdf-syntax-ns#">
   <cc:Work>
    <dc:type rdf:resource="http://purl.org/dc/dcmitype/StillImage"/>
    <dc:date>2025-07-25T14:48:44.432786</dc:date>
    <dc:format>image/svg+xml</dc:format>
    <dc:creator>
     <cc:Agent>
      <dc:title>Matplotlib v3.10.3, https://matplotlib.org/</dc:title>
     </cc:Agent>
    </dc:creator>
   </cc:Work>
  </rdf:RDF>
 </metadata>
 <defs>
  <style type="text/css">*{stroke-linejoin: round; stroke-linecap: butt}</style>
 </defs>
 <g id="figure_1">
  <g id="patch_1">
   <path d="M 0 338.4 
L 392.655418 338.4 
L 392.655418 0 
L 0 0 
z
" style="fill: #ffffff"/>
  </g>
  <g id="axes_1">
   <g id="patch_2">
    <path d="M 7.2 331.2 
L 385.455418 331.2 
L 385.455418 7.2 
L 7.2 7.2 
z
" style="fill: #ffffff"/>
   </g>
   <g id="PathCollection_1">
    <path d="M 378.181275 246.76944 
C 379.11891 246.76944 380.018267 246.396914 380.681275 245.733906 
C 381.344283 245.070898 381.716809 244.171541 381.716809 243.233906 
C 381.716809 242.296272 381.344283 241.396914 380.681275 240.733906 
C 380.018267 240.070898 379.11891 239.698372 378.181275 239.698372 
C 377.243641 239.698372 376.344283 240.070898 375.681275 240.733906 
C 375.018267 241.396914 374.645741 242.296272 374.645741 243.233906 
C 374.645741 244.171541 375.018267 245.070898 375.681275 245.733906 
C 376.344283 246.396914 377.243641 246.76944 378.181275 246.76944 
z
" clip-path="url(#p6d559b2c89)"/>
   </g>
   <g id="PathCollection_2">
    <path d="M 72.635444 323.812622 
C 73.573078 323.812622 74.472436 323.440096 75.135444 322.777089 
C 75.798452 322.114081 76.170978 321.214723 76.170978 320.277089 
C 76.170978 319.339454 75.798452 318.440096 75.135444 317.777089 
C 74.472436 317.114081 73.573078 316.741555 72.635444 316.741555 
C 71.697809 316.741555 70.798452 317.114081 70.135444 317.777089 
C 69.472436 318.440096 69.09991 319.339454 69.09991 320.277089 
C 69.09991 321.214723 69.472436 322.114081 70.135444 322.777089 
C 70.798452 323.440096 71.697809 323.812622 72.635444 323.812622 
z
" clip-path="url(#p6d559b2c89)"/>
   </g>
   <g id="matplotlib.axis_1"/>
   <g id="matplotlib.axis_2"/>
   <g id="line2d_1">
    <path d="M 378.181275 243.233906 
L 348.278342 206.278848 
L 328.936608 182.449134 
L 308.805232 158.040539 
L 293.25723 139.652066 
L 281.240004 125.815902 
L 274.584995 118.322597 
L 263.876179 106.554598 
L 256.032607 98.1875 
L 246.066533 87.900311 
L 237.079545 78.988075 
L 228.5239 70.856785 
L 221.546152 64.501831 
L 211.947149 56.199969 
L 203.176555 49.097249 
L 194.703522 42.710613 
L 190.782618 39.923587 
L 184.197909 35.496784 
L 180.619254 33.230008 
L 174.367981 29.517142 
L 167.947523 26.046823 
L 162.957557 23.602823 
L 161.00614 22.709744 
L 156.703709 20.869575 
L 150.254667 18.456661 
L 144.26139 16.605651 
L 138.802741 15.267036 
L 136.402774 14.788066 
L 132.066232 14.099294 
L 126.106946 13.540196 
L 121.61536 13.430769 
L 115.592812 13.730422 
L 110.643568 14.382089 
L 105.106527 15.573198 
L 101.720135 16.555949 
L 96.074577 18.650632 
L 91.471421 20.807109 
L 86.355633 23.711738 
L 82.773587 26.085585 
L 78.806964 29.063603 
L 75.860377 31.527765 
L 71.819213 35.279949 
L 67.740536 39.535675 
L 65.014767 42.662087 
L 62.906776 45.245224 
L 60.417848 48.491425 
L 55.945749 54.899433 
L 53.150636 59.313482 
L 49.948472 64.797686 
L 47.356385 69.602876 
L 45.434129 73.397141 
L 43.276232 77.910934 
L 40.391529 84.407203 
L 37.73903 90.904332 
L 34.803205 98.770399 
L 32.655302 105.046295 
L 29.785696 114.250681 
L 28.102447 120.168245 
L 25.747297 129.241045 
L 23.500286 138.985256 
L 21.420114 149.288289 
L 19.767955 158.714475 
L 18.177701 169.359645 
L 16.81321 180.535731 
L 16.287686 185.690565 
L 15.592703 193.808742 
L 15.008425 202.902835 
L 14.594831 213.407696 
L 14.477894 224.984836 
L 14.641223 233.757189 
L 15.024411 242.269547 
L 15.558171 249.725182 
L 16.391408 258.005198 
L 17.556131 266.574951 
L 18.816885 273.80586 
L 20.372187 281.00276 
L 21.865631 286.725407 
L 23.158345 290.996769 
L 25.362956 297.183594 
L 27.591065 302.357239 
L 29.095138 305.36379 
L 31.522049 309.539134 
L 33.563165 312.503788 
L 36.192116 315.703035 
L 38.565287 318.075791 
L 40.442904 319.649419 
L 42.556392 321.133124 
L 45.294478 322.647544 
L 47.320208 323.499729 
L 50.204189 324.35733 
L 53.649377 324.886827 
L 55.655845 324.969231 
L 58.751388 324.798023 
L 61.541481 324.356478 
L 64.256843 323.685213 
L 68.375313 322.24851 
L 70.305545 321.413564 
L 72.635444 320.277089 
L 72.635444 320.277089 
" clip-path="url(#p6d559b2c89)" style="fill: none; stroke: #000000; stroke-linecap: square"/>
   </g>
   <g id="patch_3">
    <path d="M 100.082548 17.103528 
Q 99.980158 17.139462 101.987676 16.434927 
" clip-path="url(#p6d559b2c89)" style="fill: none; stroke: #000000; stroke-width: 2; stroke-linecap: round"/>
    <path d="M 113.079203 17.841349 
L 101.987676 16.434927 
L 109.76773 8.405558 
z
" clip-path="url(#p6d559b2c89)" style="stroke: #000000; stroke-width: 2; stroke-linecap: round"/>
   </g>
   <g id="text_1">
    <g clip-path="url(#p6d559b2c89)">
     <!-- $P$ -->
     <g transform="translate(361.130388 272.447061) scale(0.25 -0.25)">
      <defs>
       <path id="Cmmi10-50" d="M 313 0 
Q 250 0 250 84 
Q 253 100 262 139 
Q 272 178 289 201 
Q 306 225 331 225 
Q 722 225 878 269 
Q 959 297 997 441 
L 1875 3956 
Q 1888 4019 1888 4044 
Q 1888 4113 1813 4122 
Q 1691 4147 1350 4147 
Q 1288 4147 1288 4231 
Q 1291 4247 1300 4286 
Q 1309 4325 1326 4348 
Q 1344 4372 1369 4372 
L 3578 4372 
Q 3881 4372 4165 4264 
Q 4450 4156 4631 3934 
Q 4813 3713 4813 3397 
Q 4813 2991 4527 2672 
Q 4241 2353 3814 2175 
Q 3388 1997 2988 1997 
L 1947 1997 
L 1556 416 
Q 1544 353 1544 325 
Q 1544 300 1551 283 
Q 1559 266 1573 261 
Q 1588 256 1619 250 
Q 1741 225 2081 225 
Q 2144 225 2144 141 
Q 2122 50 2109 25 
Q 2097 0 2034 0 
L 313 0 
z
M 1978 2188 
L 2875 2188 
Q 3497 2188 3822 2522 
Q 3988 2688 4092 3000 
Q 4197 3313 4197 3566 
Q 4197 3881 3956 4014 
Q 3716 4147 3359 4147 
L 2747 4147 
Q 2572 4147 2515 4117 
Q 2459 4088 2413 3928 
L 1978 2188 
z
" transform="scale(0.015625)"/>
      </defs>
      <use xlink:href="#Cmmi10-50" transform="translate(0 0.6875)"/>
     </g>
    </g>
   </g>
   <g id="text_2">
    <g clip-path="url(#p6d559b2c89)">
     <!-- $Q$ -->
     <g transform="translate(84.950161 322.712582) scale(0.25 -0.25)">
      <defs>
       <path id="Cmmi10-51" d="M 1947 -141 
Q 1466 -141 1094 79 
Q 722 300 520 692 
Q 319 1084 319 1563 
Q 319 2259 714 2950 
Q 1109 3641 1756 4077 
Q 2403 4513 3109 4513 
Q 3475 4513 3778 4381 
Q 4081 4250 4290 4017 
Q 4500 3784 4614 3471 
Q 4728 3159 4728 2791 
Q 4728 2366 4581 1936 
Q 4434 1506 4171 1136 
Q 3909 766 3559 484 
Q 3209 203 2809 38 
Q 2850 -256 2934 -425 
Q 3019 -594 3256 -594 
Q 3506 -594 3726 -412 
Q 3947 -231 4006 13 
Q 4019 72 4078 72 
Q 4147 72 4147 -13 
Q 4100 -219 4008 -430 
Q 3916 -641 3786 -823 
Q 3656 -1006 3478 -1123 
Q 3300 -1241 3084 -1241 
Q 2547 -1241 2547 -550 
Q 2547 -509 2562 -332 
Q 2578 -156 2578 -44 
Q 2269 -141 1947 -141 
z
M 1709 300 
Q 1709 44 1991 44 
Q 2275 44 2591 184 
L 2591 244 
Q 2591 503 2509 648 
Q 2428 794 2194 794 
Q 2078 794 1964 723 
Q 1850 653 1779 539 
Q 1709 425 1709 300 
z
M 1544 288 
Q 1544 456 1637 612 
Q 1731 769 1881 864 
Q 2031 959 2203 959 
Q 2481 959 2607 771 
Q 2734 584 2778 281 
Q 3188 525 3500 978 
Q 3813 1431 3977 1973 
Q 4141 2516 4141 3003 
Q 4141 3356 4023 3656 
Q 3906 3956 3664 4140 
Q 3422 4325 3066 4325 
Q 2722 4325 2403 4156 
Q 2084 3988 1813 3706 
Q 1550 3434 1342 3032 
Q 1134 2631 1021 2193 
Q 909 1756 909 1356 
Q 909 947 1068 612 
Q 1228 278 1569 128 
Q 1544 194 1544 288 
z
" transform="scale(0.015625)"/>
      </defs>
      <use xlink:href="#Cmmi10-51" transform="translate(0 0.484375)"/>
     </g>
    </g>
   </g>
  </g>
 </g>
 <defs>
  <clipPath id="p6d559b2c89">
   <rect x="7.2" y="7.2" width="378.255418" height="324"/>
  </clipPath>
 </defs>
</svg>
