<?xml version="1.0" encoding="utf-8" standalone="no"?>
<!DOCTYPE svg PUBLIC "-//W3C//DTD SVG 1.1//EN"
  "http://www.w3.org/Graphics/SVG/1.1/DTD/svg11.dtd">
<svg xmlns:xlink="http://www.w3.org/1999/xlink" width="392.66367pt" height="338.4pt" viewBox="0 0 392.66367 338.4" xmlns="http://www.w3.org/2000/svg" version="1.1">
 <metadata>
  <rdf:RDF xmlns:dc="http://purl.org/dc/elements/1.1/" xmlns:cc="http://creativecommons.org/ns#" xmlns:rdf="http://www.w3.org/1999/02/22-rdf-syntax-ns#">
   <cc:Work>
    <dc:type rdf:resource="http://purl.org/dc/dcmitype/StillImage"/>
    <dc:date>2025-10-29T15:21:47.017833</dc:date>
    <dc:format>image/svg+xml</dc:format>
    <dc:creator>
     <cc:Agent>
      <dc:title>Matplotlib v3.10.5, https://matplotlib.org/</dc:title>
     </cc:Agent>
    </dc:creator>
   </cc:Work>
  </rdf:RDF>
 </metadata>
 <defs>
  <style type="text/css">*{stroke-linejoin: round; stroke-linecap: butt}</style>
 </defs>
 <g id="figure_1">
  <g id="patch_1">
   <path d="M 0 338.4 
L 392.66367 338.4 
L 392.66367 0 
L 0 0 
z
" style="fill: #ffffff"/>
  </g>
  <g id="axes_1">
   <g id="patch_2">
    <path d="M 7.2 331.2 
L 385.46367 331.2 
L 385.46367 7.2 
L 7.2 7.2 
z
" style="fill: #ffffff"/>
   </g>
   <g id="PathCollection_1">
    <path d="M 378.189369 246.774508 
C 379.127004 246.774508 380.026361 246.401981 380.689369 245.738974 
C 381.352377 245.075966 381.724903 244.176608 381.724903 243.238974 
C 381.724903 242.301339 381.352377 241.401981 380.689369 240.738974 
C 380.026361 240.075966 379.127004 239.70344 378.189369 239.70344 
C 377.251734 239.70344 376.352377 240.075966 375.689369 240.738974 
C 375.026361 241.401981 374.653835 242.301339 374.653835 243.238974 
C 374.653835 244.176608 375.026361 245.075966 375.689369 245.738974 
C 376.352377 246.401981 377.251734 246.774508 378.189369 246.774508 
z
" clip-path="url(#p87c6d09623)"/>
   </g>
   <g id="PathCollection_2">
    <path d="M 72.638376 323.818992 
C 73.57601 323.818992 74.475368 323.446465 75.138376 322.783458 
C 75.801384 322.12045 76.17391 321.221092 76.17391 320.283458 
C 76.17391 319.345823 75.801384 318.446465 75.138376 317.783458 
C 74.475368 317.12045 73.57601 316.747924 72.638376 316.747924 
C 71.700741 316.747924 70.801384 317.12045 70.138376 317.783458 
C 69.475368 318.446465 69.102842 319.345823 69.102842 320.283458 
C 69.102842 321.221092 69.475368 322.12045 70.138376 322.783458 
C 70.801384 323.446465 71.700741 323.818992 72.638376 323.818992 
z
" clip-path="url(#p87c6d09623)"/>
   </g>
   <g id="matplotlib.axis_1"/>
   <g id="matplotlib.axis_2"/>
   <g id="line2d_1">
    <path d="M 378.189369 243.238974 
L 346.410709 203.964173 
L 322.439668 174.509148 
L 306.72256 155.54545 
L 294.012062 140.528567 
L 284.46517 129.48822 
L 273.36426 116.95835 
L 262.539926 105.109466 
L 251.915824 93.885642 
L 239.618197 81.465212 
L 229.067049 71.359125 
L 219.291678 62.502099 
L 211.591148 55.899913 
L 201.97362 48.159035 
L 196.734695 44.195088 
L 188.045008 38.042037 
L 182.349528 34.311959 
L 177.048852 31.068857 
L 169.940516 27.08464 
L 163.576762 23.892922 
L 156.481735 20.779092 
L 151.529452 18.899559 
L 145.577163 16.97861 
L 140.347386 15.611434 
L 136.5078 14.808051 
L 129.802995 13.833731 
L 124.791851 13.480724 
L 119.879134 13.4648 
L 115.332608 13.756905 
L 111.831794 14.192754 
L 106.726806 15.174378 
L 101.115879 16.754786 
L 97.942851 17.894864 
L 94.827268 19.196675 
L 91.151689 20.975608 
L 86.816964 23.430151 
L 81.420776 27.062547 
L 77.583901 30.063532 
L 73.69485 33.487414 
L 69.653119 37.483628 
L 66.35271 41.103022 
L 63.634821 44.341416 
L 59.757488 49.39542 
L 56.953538 53.393331 
L 53.198236 59.241719 
L 49.450478 65.701092 
L 47.203206 69.904752 
L 43.953815 76.470731 
L 40.540374 84.066096 
L 37.581702 91.315482 
L 35.072627 98.024969 
L 32.358808 105.960989 
L 29.793528 114.234494 
L 27.452015 122.585346 
L 25.276958 131.194636 
L 23.059392 141.064769 
L 21.282217 150.041206 
L 19.673778 159.311341 
L 18.168114 169.448839 
L 17.062518 178.312252 
L 15.925009 189.716953 
L 15.128438 200.780819 
L 14.719386 209.447177 
L 14.4944 219.028049 
L 14.499721 227.190756 
L 14.793328 237.734805 
L 15.443573 248.312947 
L 16.194087 256.254677 
L 16.990441 262.705309 
L 18.241077 270.692713 
L 19.448845 276.911588 
L 21.005484 283.545687 
L 23.080303 290.753365 
L 25.072753 296.436867 
L 26.741654 300.496055 
L 28.569221 304.354102 
L 30.810689 308.396347 
L 31.326802 309.233519 
L 34.226119 313.375651 
L 35.34073 314.740556 
L 37.275326 316.846289 
L 38.887201 318.367981 
L 40.328394 319.565081 
L 42.261519 320.948138 
L 43.884183 321.927135 
L 45.993323 322.971436 
L 48.914173 324.028744 
L 50.256124 324.375034 
L 52.490977 324.771519 
L 56.296214 324.969231 
L 58.613779 324.819683 
L 62.101845 324.243931 
L 62.37414 324.182227 
L 66.219172 323.068556 
L 68.013268 322.40151 
L 72.638376 320.283458 
L 72.638376 320.283458 
" clip-path="url(#p87c6d09623)" style="fill: none; stroke: #000000; stroke-linecap: square"/>
   </g>
   <g id="patch_3">
    <path d="M 100.085944 17.104776 
Q 99.983553 17.14071 101.991068 16.436176 
" clip-path="url(#p87c6d09623)" style="fill: none; stroke: #000000; stroke-width: 2; stroke-linecap: round"/>
    <path d="M 113.082596 17.842597 
L 101.991068 16.436176 
L 109.771122 8.406807 
z
" clip-path="url(#p87c6d09623)" style="stroke: #000000; stroke-width: 2; stroke-linecap: round"/>
   </g>
   <g id="text_1">
    <g clip-path="url(#p87c6d09623)">
     <!-- $P$ -->
     <g transform="translate(361.138331 272.452506) scale(0.25 -0.25)">
      <defs>
       <path id="Cmmi10-50" d="M 313 0 
Q 250 0 250 84 
Q 253 100 262 139 
Q 272 178 289 201 
Q 306 225 331 225 
Q 722 225 878 269 
Q 959 297 997 441 
L 1875 3956 
Q 1888 4019 1888 4044 
Q 1888 4113 1813 4122 
Q 1691 4147 1350 4147 
Q 1288 4147 1288 4231 
Q 1291 4247 1300 4286 
Q 1309 4325 1326 4348 
Q 1344 4372 1369 4372 
L 3578 4372 
Q 3881 4372 4165 4264 
Q 4450 4156 4631 3934 
Q 4813 3713 4813 3397 
Q 4813 2991 4527 2672 
Q 4241 2353 3814 2175 
Q 3388 1997 2988 1997 
L 1947 1997 
L 1556 416 
Q 1544 353 1544 325 
Q 1544 300 1551 283 
Q 1559 266 1573 261 
Q 1588 256 1619 250 
Q 1741 225 2081 225 
Q 2144 225 2144 141 
Q 2122 50 2109 25 
Q 2097 0 2034 0 
L 313 0 
z
M 1978 2188 
L 2875 2188 
Q 3497 2188 3822 2522 
Q 3988 2688 4092 3000 
Q 4197 3313 4197 3566 
Q 4197 3881 3956 4014 
Q 3716 4147 3359 4147 
L 2747 4147 
Q 2572 4147 2515 4117 
Q 2459 4088 2413 3928 
L 1978 2188 
z
" transform="scale(0.015625)"/>
      </defs>
      <use xlink:href="#Cmmi10-50" transform="translate(0 0.6875)"/>
     </g>
    </g>
   </g>
   <g id="text_2">
    <g clip-path="url(#p87c6d09623)">
     <!-- $Q$ -->
     <g transform="translate(84.953471 322.718876) scale(0.25 -0.25)">
      <defs>
       <path id="Cmmi10-51" d="M 1947 -141 
Q 1466 -141 1094 79 
Q 722 300 520 692 
Q 319 1084 319 1563 
Q 319 2259 714 2950 
Q 1109 3641 1756 4077 
Q 2403 4513 3109 4513 
Q 3475 4513 3778 4381 
Q 4081 4250 4290 4017 
Q 4500 3784 4614 3471 
Q 4728 3159 4728 2791 
Q 4728 2366 4581 1936 
Q 4434 1506 4171 1136 
Q 3909 766 3559 484 
Q 3209 203 2809 38 
Q 2850 -256 2934 -425 
Q 3019 -594 3256 -594 
Q 3506 -594 3726 -412 
Q 3947 -231 4006 13 
Q 4019 72 4078 72 
Q 4147 72 4147 -13 
Q 4100 -219 4008 -430 
Q 3916 -641 3786 -823 
Q 3656 -1006 3478 -1123 
Q 3300 -1241 3084 -1241 
Q 2547 -1241 2547 -550 
Q 2547 -509 2562 -332 
Q 2578 -156 2578 -44 
Q 2269 -141 1947 -141 
z
M 1709 300 
Q 1709 44 1991 44 
Q 2275 44 2591 184 
L 2591 244 
Q 2591 503 2509 648 
Q 2428 794 2194 794 
Q 2078 794 1964 723 
Q 1850 653 1779 539 
Q 1709 425 1709 300 
z
M 1544 288 
Q 1544 456 1637 612 
Q 1731 769 1881 864 
Q 2031 959 2203 959 
Q 2481 959 2607 771 
Q 2734 584 2778 281 
Q 3188 525 3500 978 
Q 3813 1431 3977 1973 
Q 4141 2516 4141 3003 
Q 4141 3356 4023 3656 
Q 3906 3956 3664 4140 
Q 3422 4325 3066 4325 
Q 2722 4325 2403 4156 
Q 2084 3988 1813 3706 
Q 1550 3434 1342 3032 
Q 1134 2631 1021 2193 
Q 909 1756 909 1356 
Q 909 947 1068 612 
Q 1228 278 1569 128 
Q 1544 194 1544 288 
z
" transform="scale(0.015625)"/>
      </defs>
      <use xlink:href="#Cmmi10-51" transform="translate(0 0.484375)"/>
     </g>
    </g>
   </g>
  </g>
 </g>
 <defs>
  <clipPath id="p87c6d09623">
   <rect x="7.2" y="7.2" width="378.26367" height="324"/>
  </clipPath>
 </defs>
</svg>
