<?xml version="1.0" encoding="utf-8" standalone="no"?>
<!DOCTYPE svg PUBLIC "-//W3C//DTD SVG 1.1//EN"
  "http://www.w3.org/Graphics/SVG/1.1/DTD/svg11.dtd">
<svg xmlns:xlink="http://www.w3.org/1999/xlink" width="392.680604pt" height="338.4pt" viewBox="0 0 392.680604 338.4" xmlns="http://www.w3.org/2000/svg" version="1.1">
 <metadata>
  <rdf:RDF xmlns:dc="http://purl.org/dc/elements/1.1/" xmlns:cc="http://creativecommons.org/ns#" xmlns:rdf="http://www.w3.org/1999/02/22-rdf-syntax-ns#">
   <cc:Work>
    <dc:type rdf:resource="http://purl.org/dc/dcmitype/StillImage"/>
    <dc:date>2025-08-27T14:09:39.850523</dc:date>
    <dc:format>image/svg+xml</dc:format>
    <dc:creator>
     <cc:Agent>
      <dc:title>Matplotlib v3.10.3, https://matplotlib.org/</dc:title>
     </cc:Agent>
    </dc:creator>
   </cc:Work>
  </rdf:RDF>
 </metadata>
 <defs>
  <style type="text/css">*{stroke-linejoin: round; stroke-linecap: butt}</style>
 </defs>
 <g id="figure_1">
  <g id="patch_1">
   <path d="M 0 338.4 
L 392.680604 338.4 
L 392.680604 0 
L 0 0 
z
" style="fill: #ffffff"/>
  </g>
  <g id="axes_1">
   <g id="patch_2">
    <path d="M 7.2 331.2 
L 385.480604 331.2 
L 385.480604 7.2 
L 7.2 7.2 
z
" style="fill: #ffffff"/>
   </g>
   <g id="PathCollection_1">
    <path d="M 378.205977 246.764732 
C 379.143611 246.764732 380.042969 246.392206 380.705977 245.729198 
C 381.368984 245.06619 381.741511 244.166832 381.741511 243.229198 
C 381.741511 242.291563 381.368984 241.392206 380.705977 240.729198 
C 380.042969 240.06619 379.143611 239.693664 378.205977 239.693664 
C 377.268342 239.693664 376.368984 240.06619 375.705977 240.729198 
C 375.042969 241.392206 374.670443 242.291563 374.670443 243.229198 
C 374.670443 244.166832 375.042969 245.06619 375.705977 245.729198 
C 376.368984 246.392206 377.268342 246.764732 378.205977 246.764732 
z
" clip-path="url(#p02cb2788b3)"/>
   </g>
   <g id="PathCollection_2">
    <path d="M 137.729806 100.651664 
C 138.667441 100.651664 139.566799 100.279138 140.229806 99.61613 
C 140.892814 98.953123 141.26534 98.053765 141.26534 97.11613 
C 141.26534 96.178496 140.892814 95.279138 140.229806 94.61613 
C 139.566799 93.953123 138.667441 93.580596 137.729806 93.580596 
C 136.792172 93.580596 135.892814 93.953123 135.229806 94.61613 
C 134.566799 95.279138 134.194272 96.178496 134.194272 97.11613 
C 134.194272 98.053765 134.566799 98.953123 135.229806 99.61613 
C 135.892814 100.279138 136.792172 100.651664 137.729806 100.651664 
z
" clip-path="url(#p02cb2788b3)"/>
   </g>
   <g id="matplotlib.axis_1"/>
   <g id="matplotlib.axis_2"/>
   <g id="line2d_1">
    <path d="M 378.205977 243.229198 
L 346.74901 204.352161 
L 323.436778 175.693839 
L 309.270692 158.563732 
L 296.02879 142.859171 
L 284.593303 129.605789 
L 271.71506 115.099587 
L 260.463985 102.854918 
L 255.432757 97.525399 
L 247.530654 89.354827 
L 238.490849 80.332836 
L 232.17002 74.247926 
L 222.805938 65.600654 
L 212.848983 56.928705 
L 204.867415 50.401097 
L 196.369914 43.901068 
L 189.711854 39.15542 
L 181.925365 34.020088 
L 176.059664 30.465168 
L 170.158025 27.176751 
L 162.841475 23.52507 
L 159.934289 22.211254 
L 154.588544 20.008875 
L 151.394649 18.829743 
L 147.121466 17.418602 
L 143.011948 16.247904 
L 136.896129 14.860183 
L 133.09147 14.220903 
L 127.892739 13.639609 
L 123.818717 13.430769 
L 118.879871 13.483222 
L 114.377168 13.837648 
L 109.682462 14.535601 
L 107.036701 15.083602 
L 101.794278 16.515903 
L 97.206845 18.167429 
L 92.785402 20.133581 
L 89.619238 21.780318 
L 86.985526 23.309589 
L 83.313159 25.695522 
L 79.323324 28.641133 
L 75.684705 31.669098 
L 71.409699 35.673387 
L 67.220379 40.102977 
L 63.855607 44.053451 
L 60.782094 47.992463 
L 57.162754 53.069244 
L 53.408765 58.883002 
L 50.624542 63.591489 
L 47.993177 68.382644 
L 44.821291 74.64386 
L 41.801844 81.155484 
L 39.36496 86.8529 
L 35.828199 95.932095 
L 32.460228 105.637267 
L 30.276898 112.598324 
L 27.677801 121.729599 
L 25.88981 128.661623 
L 23.420018 139.358471 
L 21.877304 146.897197 
L 19.86977 158.097629 
L 18.84236 164.680228 
L 17.342041 175.907247 
L 16.471381 183.828473 
L 15.586513 193.911977 
L 15.090499 201.433949 
L 14.590041 213.673775 
L 14.474627 223.627467 
L 14.605467 232.477372 
L 14.836192 238.662731 
L 15.441598 248.275952 
L 16.101841 255.390707 
L 17.142923 263.783723 
L 18.10935 269.928354 
L 19.281478 276.104996 
L 20.711063 282.375908 
L 21.777564 286.402301 
L 23.754951 292.784996 
L 25.30978 297.039581 
L 26.754688 300.516788 
L 29.112113 305.389218 
L 30.909022 308.550061 
L 33.253062 312.077334 
L 35.330929 314.721211 
L 38.124223 317.66513 
L 38.943353 318.409932 
L 42.030974 320.788711 
L 44.14615 322.063469 
L 47.25208 323.473277 
L 49.381996 324.15244 
L 52.788156 324.801705 
L 55.564291 324.969231 
L 58.929817 324.778611 
L 61.301305 324.405964 
L 63.066426 324.009322 
L 66.260316 323.04898 
L 68.708888 322.1138 
L 72.641171 320.277164 
L 72.641171 320.277164 
" clip-path="url(#p02cb2788b3)" style="fill: none; stroke: #000000; stroke-linecap: square"/>
   </g>
   <g id="line2d_2">
    <path d="M 72.641171 320.277164 
L 75.761429 317.444081 
L 80.518713 312.873021 
L 85.748024 307.434145 
L 89.800037 302.856651 
L 93.601649 298.207975 
L 97.251819 293.348234 
L 100.785386 288.18119 
L 104.020687 282.940997 
L 106.136318 279.180446 
L 108.703573 274.16336 
L 111.056554 268.999379 
L 112.879891 264.502095 
L 114.50597 260.001758 
L 115.870547 255.748617 
L 117.47674 249.959494 
L 118.901512 243.757085 
L 119.861189 238.674542 
L 120.853468 232.100127 
L 121.571381 225.797972 
L 122.173899 218.272931 
L 122.576691 210.002807 
L 122.79071 200.721723 
L 122.852409 185.766946 
L 122.944531 169.988573 
L 123.233847 160.058939 
L 123.669941 152.443679 
L 124.270808 145.601596 
L 125.164529 138.388076 
L 126.143752 132.392954 
L 127.330455 126.557892 
L 128.497905 121.755108 
L 130.070727 116.238016 
L 131.622518 111.534118 
L 133.586256 106.319512 
L 135.959322 100.807656 
L 137.729806 97.11613 
L 137.729806 97.11613 
" clip-path="url(#p02cb2788b3)" style="fill: none; stroke: #000000; stroke-linecap: square"/>
   </g>
   <g id="patch_3">
    <path d="M 100.08998 17.084777 
Q 99.987584 17.120713 101.995095 16.416181 
" clip-path="url(#p02cb2788b3)" style="fill: none; stroke: #000000; stroke-width: 2; stroke-linecap: round"/>
    <path d="M 113.086622 17.822603 
L 101.995095 16.416181 
L 109.775149 8.386812 
z
" clip-path="url(#p02cb2788b3)" style="stroke: #000000; stroke-width: 2; stroke-linecap: round"/>
   </g>
   <g id="patch_4">
    <path d="M 122.852404 186.380544 
Q 122.852411 185.934222 122.852382 187.723968 
" clip-path="url(#p02cb2788b3)" style="fill: none; stroke: #000000; stroke-width: 2; stroke-linecap: round"/>
    <path d="M 117.852215 197.723884 
L 122.852382 187.723968 
L 127.852215 197.724051 
z
" clip-path="url(#p02cb2788b3)" style="stroke: #000000; stroke-width: 2; stroke-linecap: round"/>
   </g>
   <g id="text_1">
    <g clip-path="url(#p02cb2788b3)">
     <!-- $P$ -->
     <g transform="translate(361.154535 272.443739) scale(0.25 -0.25)">
      <defs>
       <path id="Cmmi10-50" d="M 313 0 
Q 250 0 250 84 
Q 253 100 262 139 
Q 272 178 289 201 
Q 306 225 331 225 
Q 722 225 878 269 
Q 959 297 997 441 
L 1875 3956 
Q 1888 4019 1888 4044 
Q 1888 4113 1813 4122 
Q 1691 4147 1350 4147 
Q 1288 4147 1288 4231 
Q 1291 4247 1300 4286 
Q 1309 4325 1326 4348 
Q 1344 4372 1369 4372 
L 3578 4372 
Q 3881 4372 4165 4264 
Q 4450 4156 4631 3934 
Q 4813 3713 4813 3397 
Q 4813 2991 4527 2672 
Q 4241 2353 3814 2175 
Q 3388 1997 2988 1997 
L 1947 1997 
L 1556 416 
Q 1544 353 1544 325 
Q 1544 300 1551 283 
Q 1559 266 1573 261 
Q 1588 256 1619 250 
Q 1741 225 2081 225 
Q 2144 225 2144 141 
Q 2122 50 2109 25 
Q 2097 0 2034 0 
L 313 0 
z
M 1978 2188 
L 2875 2188 
Q 3497 2188 3822 2522 
Q 3988 2688 4092 3000 
Q 4197 3313 4197 3566 
Q 4197 3881 3956 4014 
Q 3716 4147 3359 4147 
L 2747 4147 
Q 2572 4147 2515 4117 
Q 2459 4088 2413 3928 
L 1978 2188 
z
" transform="scale(0.015625)"/>
      </defs>
      <use xlink:href="#Cmmi10-50" transform="translate(0 0.6875)"/>
     </g>
    </g>
   </g>
   <g id="text_2">
    <g clip-path="url(#p02cb2788b3)">
     <!-- $R$ -->
     <g transform="translate(150.54591 81.698464) scale(0.25 -0.25)">
      <defs>
       <path id="Cmmi10-52" d="M 313 0 
Q 250 0 250 84 
Q 253 100 262 139 
Q 272 178 289 201 
Q 306 225 331 225 
Q 722 225 878 269 
Q 959 297 997 441 
L 1875 3956 
Q 1888 4019 1888 4044 
Q 1888 4113 1813 4122 
Q 1691 4147 1350 4147 
Q 1288 4147 1288 4231 
Q 1291 4247 1300 4286 
Q 1309 4325 1326 4348 
Q 1344 4372 1369 4372 
L 3309 4372 
Q 3541 4372 3791 4319 
Q 4041 4266 4250 4152 
Q 4459 4038 4593 3848 
Q 4728 3659 4728 3406 
Q 4728 3084 4515 2831 
Q 4303 2578 3978 2408 
Q 3653 2238 3347 2169 
Q 3597 2078 3756 1879 
Q 3916 1681 3916 1422 
Q 3916 1388 3914 1370 
Q 3913 1353 3909 1331 
L 3859 763 
Q 3853 638 3847 550 
Q 3841 463 3841 409 
Q 3841 234 3892 129 
Q 3944 25 4097 25 
Q 4297 25 4448 211 
Q 4600 397 4647 616 
Q 4675 672 4709 672 
L 4769 672 
Q 4831 672 4831 588 
Q 4784 403 4682 237 
Q 4581 72 4426 -34 
Q 4272 -141 4091 -141 
Q 3716 -141 3452 26 
Q 3188 194 3188 550 
Q 3188 684 3213 788 
L 3353 1356 
Q 3378 1434 3378 1538 
Q 3378 1803 3198 1954 
Q 3019 2106 2747 2106 
L 1959 2106 
L 1538 416 
Q 1522 363 1522 325 
Q 1522 259 1600 250 
Q 1722 225 2059 225 
Q 2125 225 2125 141 
Q 2103 50 2090 25 
Q 2078 0 2016 0 
L 313 0 
z
M 1997 2272 
L 2706 2272 
Q 3403 2272 3756 2625 
Q 3919 2788 4014 3039 
Q 4109 3291 4109 3541 
Q 4109 3778 3970 3912 
Q 3831 4047 3626 4097 
Q 3422 4147 3175 4147 
L 2747 4147 
Q 2572 4147 2515 4117 
Q 2459 4088 2413 3928 
L 1997 2272 
z
" transform="scale(0.015625)"/>
      </defs>
      <use xlink:href="#Cmmi10-52" transform="translate(0 0.6875)"/>
     </g>
    </g>
   </g>
  </g>
 </g>
 <defs>
  <clipPath id="p02cb2788b3">
   <rect x="7.2" y="7.2" width="378.280604" height="324"/>
  </clipPath>
 </defs>
</svg>
