<?xml version="1.0" encoding="utf-8" standalone="no"?>
<!DOCTYPE svg PUBLIC "-//W3C//DTD SVG 1.1//EN"
  "http://www.w3.org/Graphics/SVG/1.1/DTD/svg11.dtd">
<svg xmlns:xlink="http://www.w3.org/1999/xlink" width="392.685077pt" height="338.4pt" viewBox="0 0 392.685077 338.4" xmlns="http://www.w3.org/2000/svg" version="1.1">
 <metadata>
  <rdf:RDF xmlns:dc="http://purl.org/dc/elements/1.1/" xmlns:cc="http://creativecommons.org/ns#" xmlns:rdf="http://www.w3.org/1999/02/22-rdf-syntax-ns#">
   <cc:Work>
    <dc:type rdf:resource="http://purl.org/dc/dcmitype/StillImage"/>
    <dc:date>2025-10-29T15:21:32.523107</dc:date>
    <dc:format>image/svg+xml</dc:format>
    <dc:creator>
     <cc:Agent>
      <dc:title>Matplotlib v3.10.5, https://matplotlib.org/</dc:title>
     </cc:Agent>
    </dc:creator>
   </cc:Work>
  </rdf:RDF>
 </metadata>
 <defs>
  <style type="text/css">*{stroke-linejoin: round; stroke-linecap: butt}</style>
 </defs>
 <g id="figure_1">
  <g id="patch_1">
   <path d="M 0 338.4 
L 392.685077 338.4 
L 392.685077 0 
L 0 0 
z
" style="fill: #ffffff"/>
  </g>
  <g id="axes_1">
   <g id="patch_2">
    <path d="M 7.2 331.2 
L 385.485077 331.2 
L 385.485077 7.2 
L 7.2 7.2 
z
" style="fill: #ffffff"/>
   </g>
   <g id="PathCollection_1">
    <path d="M 378.210364 246.775923 
C 379.147998 246.775923 380.047356 246.403397 380.710364 245.74039 
C 381.373371 245.077382 381.745897 244.178024 381.745897 243.24039 
C 381.745897 242.302755 381.373371 241.403397 380.710364 240.74039 
C 380.047356 240.077382 379.147998 239.704856 378.210364 239.704856 
C 377.272729 239.704856 376.373371 240.077382 375.710364 240.74039 
C 375.047356 241.403397 374.67483 242.302755 374.67483 243.24039 
C 374.67483 244.178024 375.047356 245.077382 375.710364 245.74039 
C 376.373371 246.403397 377.272729 246.775923 378.210364 246.775923 
z
" clip-path="url(#p4d6a910437)"/>
   </g>
   <g id="PathCollection_2">
    <path d="M 72.641247 323.824977 
C 73.578881 323.824977 74.478239 323.452451 75.141247 322.789443 
C 75.804255 322.126436 76.176781 321.227078 76.176781 320.289443 
C 76.176781 319.351809 75.804255 318.452451 75.141247 317.789443 
C 74.478239 317.126436 73.578881 316.753909 72.641247 316.753909 
C 71.703612 316.753909 70.804255 317.126436 70.141247 317.789443 
C 69.478239 318.452451 69.105713 319.351809 69.105713 320.289443 
C 69.105713 321.227078 69.478239 322.126436 70.141247 322.789443 
C 70.804255 323.452451 71.703612 323.824977 72.641247 323.824977 
z
" clip-path="url(#p4d6a910437)"/>
   </g>
   <g id="matplotlib.axis_1"/>
   <g id="matplotlib.axis_2"/>
   <g id="line2d_1">
    <path d="M 378.210364 243.24039 
L 346.23828 203.726445 
L 322.843728 174.97705 
L 306.240674 154.946544 
L 297.348757 144.414667 
L 284.635802 129.660517 
L 277.070188 121.078774 
L 266.642514 109.531943 
L 259.597225 101.93633 
L 247.450696 89.279897 
L 238.036117 79.895274 
L 231.617323 73.731692 
L 222.385866 65.230287 
L 213.228806 57.255848 
L 204.067574 49.775921 
L 194.71381 42.698324 
L 187.772419 37.840595 
L 178.687941 32.030876 
L 175.623649 30.219441 
L 170.474657 27.352952 
L 163.961613 24.059941 
L 159.827759 22.172141 
L 152.866895 19.367875 
L 146.573835 17.259545 
L 141.484166 15.868503 
L 135.197206 14.560734 
L 130.301742 13.873924 
L 127.655507 13.62928 
L 123.444834 13.430769 
L 118.19626 13.5258 
L 113.22524 13.985229 
L 109.275413 14.620586 
L 104.194012 15.809933 
L 99.223892 17.402105 
L 95.3751 18.944292 
L 91.099976 20.99288 
L 89.203152 22.02036 
L 84.380794 24.978873 
L 81.730336 26.827067 
L 77.474279 30.146056 
L 73.951995 33.2403 
L 69.970332 37.145052 
L 65.885965 41.63447 
L 62.452046 45.819978 
L 59.183453 50.182424 
L 56.97142 53.359896 
L 52.435828 60.496411 
L 50.538971 63.750161 
L 47.115698 70.067577 
L 44.123756 76.106046 
L 41.609065 81.599217 
L 38.934077 87.913226 
L 35.332374 97.298666 
L 32.415797 105.780998 
L 29.413946 115.526942 
L 26.741802 125.291506 
L 24.489862 134.550191 
L 22.924091 141.705575 
L 21.427817 149.256711 
L 19.685025 159.236467 
L 18.272193 168.681904 
L 16.927156 179.511454 
L 15.774587 191.510965 
L 15.083473 201.556086 
L 14.636176 211.965173 
L 14.474713 221.823103 
L 14.521983 228.76965 
L 14.859735 239.181677 
L 15.283838 246.218022 
L 16.099422 255.386133 
L 16.840998 261.60425 
L 18.100482 269.892564 
L 19.28961 276.159043 
L 20.648794 282.139831 
L 21.929197 286.951799 
L 23.80543 292.946298 
L 25.51067 297.561926 
L 27.301259 301.741856 
L 28.906534 305.012232 
L 31.267 309.142837 
L 33.17356 311.980469 
L 33.752643 312.764522 
L 36.433503 315.974188 
L 39.111909 318.569579 
L 41.75546 320.614893 
L 42.862584 321.334764 
L 46.128446 323.035605 
L 48.237205 323.827395 
L 50.884634 324.514703 
L 52.523683 324.781755 
L 54.196929 324.937564 
L 56.952809 324.953039 
L 60.320962 324.595169 
L 62.556379 324.146375 
L 66.321702 323.039902 
L 70.507047 321.335792 
L 72.641247 320.289443 
L 72.641247 320.289443 
" clip-path="url(#p4d6a910437)" style="fill: none; stroke: #000000; stroke-linecap: square"/>
   </g>
   <g id="patch_3">
    <path d="M 99.885648 17.164651 
Q 99.988045 17.128715 97.980536 17.833246 
" clip-path="url(#p4d6a910437)" style="fill: none; stroke: #000000; stroke-width: 2; stroke-linecap: round"/>
    <path d="M 86.889009 16.426824 
L 97.980536 17.833246 
L 90.200482 25.862615 
z
" clip-path="url(#p4d6a910437)" style="stroke: #000000; stroke-width: 2; stroke-linecap: round"/>
   </g>
   <g id="text_1">
    <g clip-path="url(#p4d6a910437)">
     <!-- $P$ -->
     <g transform="translate(361.158796 272.455245) scale(0.25 -0.25)">
      <defs>
       <path id="Cmmi10-50" d="M 313 0 
Q 250 0 250 84 
Q 253 100 262 139 
Q 272 178 289 201 
Q 306 225 331 225 
Q 722 225 878 269 
Q 959 297 997 441 
L 1875 3956 
Q 1888 4019 1888 4044 
Q 1888 4113 1813 4122 
Q 1691 4147 1350 4147 
Q 1288 4147 1288 4231 
Q 1291 4247 1300 4286 
Q 1309 4325 1326 4348 
Q 1344 4372 1369 4372 
L 3578 4372 
Q 3881 4372 4165 4264 
Q 4450 4156 4631 3934 
Q 4813 3713 4813 3397 
Q 4813 2991 4527 2672 
Q 4241 2353 3814 2175 
Q 3388 1997 2988 1997 
L 1947 1997 
L 1556 416 
Q 1544 353 1544 325 
Q 1544 300 1551 283 
Q 1559 266 1573 261 
Q 1588 256 1619 250 
Q 1741 225 2081 225 
Q 2144 225 2144 141 
Q 2122 50 2109 25 
Q 2097 0 2034 0 
L 313 0 
z
M 1978 2188 
L 2875 2188 
Q 3497 2188 3822 2522 
Q 3988 2688 4092 3000 
Q 4197 3313 4197 3566 
Q 4197 3881 3956 4014 
Q 3716 4147 3359 4147 
L 2747 4147 
Q 2572 4147 2515 4117 
Q 2459 4088 2413 3928 
L 1978 2188 
z
" transform="scale(0.015625)"/>
      </defs>
      <use xlink:href="#Cmmi10-50" transform="translate(0 0.6875)"/>
     </g>
    </g>
   </g>
   <g id="text_2">
    <g clip-path="url(#p4d6a910437)">
     <!-- $Q$ -->
     <g transform="translate(84.957665 322.724597) scale(0.25 -0.25)">
      <defs>
       <path id="Cmmi10-51" d="M 1947 -141 
Q 1466 -141 1094 79 
Q 722 300 520 692 
Q 319 1084 319 1563 
Q 319 2259 714 2950 
Q 1109 3641 1756 4077 
Q 2403 4513 3109 4513 
Q 3475 4513 3778 4381 
Q 4081 4250 4290 4017 
Q 4500 3784 4614 3471 
Q 4728 3159 4728 2791 
Q 4728 2366 4581 1936 
Q 4434 1506 4171 1136 
Q 3909 766 3559 484 
Q 3209 203 2809 38 
Q 2850 -256 2934 -425 
Q 3019 -594 3256 -594 
Q 3506 -594 3726 -412 
Q 3947 -231 4006 13 
Q 4019 72 4078 72 
Q 4147 72 4147 -13 
Q 4100 -219 4008 -430 
Q 3916 -641 3786 -823 
Q 3656 -1006 3478 -1123 
Q 3300 -1241 3084 -1241 
Q 2547 -1241 2547 -550 
Q 2547 -509 2562 -332 
Q 2578 -156 2578 -44 
Q 2269 -141 1947 -141 
z
M 1709 300 
Q 1709 44 1991 44 
Q 2275 44 2591 184 
L 2591 244 
Q 2591 503 2509 648 
Q 2428 794 2194 794 
Q 2078 794 1964 723 
Q 1850 653 1779 539 
Q 1709 425 1709 300 
z
M 1544 288 
Q 1544 456 1637 612 
Q 1731 769 1881 864 
Q 2031 959 2203 959 
Q 2481 959 2607 771 
Q 2734 584 2778 281 
Q 3188 525 3500 978 
Q 3813 1431 3977 1973 
Q 4141 2516 4141 3003 
Q 4141 3356 4023 3656 
Q 3906 3956 3664 4140 
Q 3422 4325 3066 4325 
Q 2722 4325 2403 4156 
Q 2084 3988 1813 3706 
Q 1550 3434 1342 3032 
Q 1134 2631 1021 2193 
Q 909 1756 909 1356 
Q 909 947 1068 612 
Q 1228 278 1569 128 
Q 1544 194 1544 288 
z
" transform="scale(0.015625)"/>
      </defs>
      <use xlink:href="#Cmmi10-51" transform="translate(0 0.484375)"/>
     </g>
    </g>
   </g>
  </g>
 </g>
 <defs>
  <clipPath id="p4d6a910437">
   <rect x="7.2" y="7.2" width="378.285077" height="324"/>
  </clipPath>
 </defs>
</svg>
