<?xml version="1.0" encoding="utf-8" standalone="no"?>
<!DOCTYPE svg PUBLIC "-//W3C//DTD SVG 1.1//EN"
  "http://www.w3.org/Graphics/SVG/1.1/DTD/svg11.dtd">
<svg xmlns:xlink="http://www.w3.org/1999/xlink" width="392.672402pt" height="338.4pt" viewBox="0 0 392.672402 338.4" xmlns="http://www.w3.org/2000/svg" version="1.1">
 <metadata>
  <rdf:RDF xmlns:dc="http://purl.org/dc/elements/1.1/" xmlns:cc="http://creativecommons.org/ns#" xmlns:rdf="http://www.w3.org/1999/02/22-rdf-syntax-ns#">
   <cc:Work>
    <dc:type rdf:resource="http://purl.org/dc/dcmitype/StillImage"/>
    <dc:date>2025-09-03T15:04:59.654991</dc:date>
    <dc:format>image/svg+xml</dc:format>
    <dc:creator>
     <cc:Agent>
      <dc:title>Matplotlib v3.10.5, https://matplotlib.org/</dc:title>
     </cc:Agent>
    </dc:creator>
   </cc:Work>
  </rdf:RDF>
 </metadata>
 <defs>
  <style type="text/css">*{stroke-linejoin: round; stroke-linecap: butt}</style>
 </defs>
 <g id="figure_1">
  <g id="patch_1">
   <path d="M 0 338.4 
L 392.672402 338.4 
L 392.672402 0 
L 0 0 
z
" style="fill: #ffffff"/>
  </g>
  <g id="axes_1">
   <g id="patch_2">
    <path d="M 7.2 331.2 
L 385.472402 331.2 
L 385.472402 7.2 
L 7.2 7.2 
z
" style="fill: #ffffff"/>
   </g>
   <g id="PathCollection_1">
    <path d="M 378.197932 246.775385 
C 379.135567 246.775385 380.034925 246.402859 380.697932 245.739851 
C 381.36094 245.076844 381.733466 244.177486 381.733466 243.239851 
C 381.733466 242.302217 381.36094 241.402859 380.697932 240.739851 
C 380.034925 240.076844 379.135567 239.704317 378.197932 239.704317 
C 377.260298 239.704317 376.36094 240.076844 375.697932 240.739851 
C 375.034925 241.402859 374.662399 242.302217 374.662399 243.239851 
C 374.662399 244.177486 375.034925 245.076844 375.697932 245.739851 
C 376.36094 246.402859 377.260298 246.775385 378.197932 246.775385 
z
" clip-path="url(#pd8b0a154da)"/>
   </g>
   <g id="PathCollection_2">
    <path d="M 137.727067 100.665541 
C 138.664701 100.665541 139.564059 100.293015 140.227067 99.630007 
C 140.890074 98.966999 141.262601 98.067641 141.262601 97.130007 
C 141.262601 96.192372 140.890074 95.293015 140.227067 94.630007 
C 139.564059 93.966999 138.664701 93.594473 137.727067 93.594473 
C 136.789432 93.594473 135.890074 93.966999 135.227067 94.630007 
C 134.564059 95.293015 134.191533 96.192372 134.191533 97.130007 
C 134.191533 98.067641 134.564059 98.966999 135.227067 99.630007 
C 135.890074 100.293015 136.789432 100.665541 137.727067 100.665541 
z
" clip-path="url(#pd8b0a154da)"/>
   </g>
   <g id="matplotlib.axis_1"/>
   <g id="matplotlib.axis_2"/>
   <g id="line2d_1">
    <path d="M 378.197932 243.239851 
L 342.902457 199.619236 
L 321.116464 172.889455 
L 303.634401 151.85781 
L 289.495467 135.268199 
L 278.481431 122.681004 
L 267.806752 110.817206 
L 258.71466 101.010649 
L 247.597663 89.442337 
L 240.240021 82.06916 
L 233.130945 75.179514 
L 222.898967 65.703016 
L 215.396866 59.112228 
L 211.270696 55.625358 
L 204.303842 49.973513 
L 198.089158 45.195137 
L 190.584356 39.777038 
L 186.620562 37.079329 
L 180.313484 33.033155 
L 173.282429 28.898075 
L 167.334915 25.727676 
L 163.796224 23.990947 
L 156.806027 20.905106 
L 150.753144 18.622254 
L 145.415014 16.926351 
L 142.50566 16.133076 
L 135.685141 14.65378 
L 130.092396 13.859404 
L 125.985895 13.530055 
L 121.264499 13.430769 
L 114.897287 13.796747 
L 110.148963 14.466053 
L 105.004626 15.598223 
L 100.324689 17.018323 
L 95.075043 19.082929 
L 90.155889 21.50133 
L 87.091898 23.259459 
L 85.360012 24.342911 
L 82.297973 26.423565 
L 79.952456 28.165533 
L 76.647214 30.849334 
L 72.253677 34.856911 
L 68.670812 38.523904 
L 65.358984 42.25699 
L 61.228746 47.413099 
L 57.288675 52.897646 
L 55.439525 55.67865 
L 52.013918 61.210684 
L 48.181168 68.041791 
L 44.739426 74.825954 
L 41.666571 81.473731 
L 38.947819 87.884132 
L 35.698749 96.297201 
L 33.587657 102.271895 
L 31.43031 108.86061 
L 28.527977 118.642092 
L 26.412825 126.583647 
L 24.069463 136.411401 
L 22.272484 144.902629 
L 20.70709 153.209872 
L 19.033127 163.414238 
L 17.705764 172.969463 
L 16.786383 180.807935 
L 16.012933 188.707439 
L 15.176561 199.970755 
L 14.698221 210.050998 
L 14.479287 220.915583 
L 14.502602 227.410064 
L 14.721045 235.979322 
L 15.242135 245.621881 
L 15.939996 253.83634 
L 16.707449 260.573104 
L 17.473969 266.035307 
L 18.568289 272.494621 
L 20.001744 279.418415 
L 21.4905 285.375067 
L 23.037128 290.619165 
L 24.96414 296.153443 
L 26.678176 300.352904 
L 28.543178 304.304291 
L 29.091227 305.359798 
L 31.379083 309.318073 
L 33.423528 312.320048 
L 34.960045 314.289233 
L 37.518108 317.090384 
L 39.389815 318.804365 
L 40.738741 319.881435 
L 42.798768 321.292161 
L 45.359281 322.685757 
L 46.411259 323.151847 
L 48.773148 323.989897 
L 51.430823 324.61329 
L 54.184325 324.933365 
L 57.579809 324.913229 
L 58.681877 324.815277 
L 61.154858 324.443051 
L 63.033271 324.026273 
L 67.065386 322.768397 
L 70.636225 321.271783 
L 72.639867 320.286118 
L 72.639867 320.286118 
" clip-path="url(#pd8b0a154da)" style="fill: none; stroke: #000000; stroke-linecap: square"/>
   </g>
   <g id="line2d_2">
    <path d="M 72.639867 320.286118 
L 77.985747 315.354837 
L 82.537894 310.836673 
L 86.416605 306.710132 
L 90.739414 301.749901 
L 94.359645 297.240703 
L 98.380006 291.760154 
L 101.231916 287.496517 
L 104.353767 282.374638 
L 107.09962 277.368389 
L 109.474035 272.545614 
L 111.895517 266.997107 
L 114.05394 261.311492 
L 115.865719 255.767507 
L 117.291983 250.681357 
L 118.754071 244.461779 
L 119.704764 239.568204 
L 120.718663 233.099217 
L 121.55844 225.917004 
L 122.16514 218.383506 
L 122.513405 211.638628 
L 122.773702 201.785327 
L 122.84986 188.242396 
L 122.942632 169.970362 
L 123.223626 160.252091 
L 123.731301 151.595683 
L 124.379801 144.573294 
L 125.214364 138.041893 
L 126.177383 132.209309 
L 127.312056 126.641953 
L 128.501365 121.745569 
L 130.094837 116.165153 
L 131.839198 110.928993 
L 133.831511 105.72152 
L 135.46605 101.902675 
L 137.727067 97.130007 
L 137.727067 97.130007 
" clip-path="url(#pd8b0a154da)" style="fill: none; stroke: #000000; stroke-linecap: square"/>
   </g>
   <g id="patch_3">
    <path d="M 100.088071 17.100419 
Q 99.985677 17.136354 101.99319 16.431821 
" clip-path="url(#pd8b0a154da)" style="fill: none; stroke: #000000; stroke-width: 2; stroke-linecap: round"/>
    <path d="M 113.084718 17.838243 
L 101.99319 16.431821 
L 109.773244 8.402452 
z
" clip-path="url(#pd8b0a154da)" style="stroke: #000000; stroke-width: 2; stroke-linecap: round"/>
   </g>
   <g id="patch_4">
    <path d="M 122.849993 186.392451 
Q 122.85 185.946139 122.84997 187.735895 
" clip-path="url(#pd8b0a154da)" style="fill: none; stroke: #000000; stroke-width: 2; stroke-linecap: round"/>
    <path d="M 117.849803 197.735812 
L 122.84997 187.735895 
L 127.849803 197.735978 
z
" clip-path="url(#pd8b0a154da)" style="stroke: #000000; stroke-width: 2; stroke-linecap: round"/>
   </g>
   <g id="text_1">
    <g clip-path="url(#pd8b0a154da)">
     <!-- $P$ -->
     <g transform="translate(361.146688 272.4539) scale(0.25 -0.25)">
      <defs>
       <path id="Cmmi10-50" d="M 313 0 
Q 250 0 250 84 
Q 253 100 262 139 
Q 272 178 289 201 
Q 306 225 331 225 
Q 722 225 878 269 
Q 959 297 997 441 
L 1875 3956 
Q 1888 4019 1888 4044 
Q 1888 4113 1813 4122 
Q 1691 4147 1350 4147 
Q 1288 4147 1288 4231 
Q 1291 4247 1300 4286 
Q 1309 4325 1326 4348 
Q 1344 4372 1369 4372 
L 3578 4372 
Q 3881 4372 4165 4264 
Q 4450 4156 4631 3934 
Q 4813 3713 4813 3397 
Q 4813 2991 4527 2672 
Q 4241 2353 3814 2175 
Q 3388 1997 2988 1997 
L 1947 1997 
L 1556 416 
Q 1544 353 1544 325 
Q 1544 300 1551 283 
Q 1559 266 1573 261 
Q 1588 256 1619 250 
Q 1741 225 2081 225 
Q 2144 225 2144 141 
Q 2122 50 2109 25 
Q 2097 0 2034 0 
L 313 0 
z
M 1978 2188 
L 2875 2188 
Q 3497 2188 3822 2522 
Q 3988 2688 4092 3000 
Q 4197 3313 4197 3566 
Q 4197 3881 3956 4014 
Q 3716 4147 3359 4147 
L 2747 4147 
Q 2572 4147 2515 4117 
Q 2459 4088 2413 3928 
L 1978 2188 
z
" transform="scale(0.015625)"/>
      </defs>
      <use xlink:href="#Cmmi10-50" transform="translate(0 0.6875)"/>
     </g>
    </g>
   </g>
   <g id="text_2">
    <g clip-path="url(#pd8b0a154da)">
     <!-- $R$ -->
     <g transform="translate(150.542678 81.712833) scale(0.25 -0.25)">
      <defs>
       <path id="Cmmi10-52" d="M 313 0 
Q 250 0 250 84 
Q 253 100 262 139 
Q 272 178 289 201 
Q 306 225 331 225 
Q 722 225 878 269 
Q 959 297 997 441 
L 1875 3956 
Q 1888 4019 1888 4044 
Q 1888 4113 1813 4122 
Q 1691 4147 1350 4147 
Q 1288 4147 1288 4231 
Q 1291 4247 1300 4286 
Q 1309 4325 1326 4348 
Q 1344 4372 1369 4372 
L 3309 4372 
Q 3541 4372 3791 4319 
Q 4041 4266 4250 4152 
Q 4459 4038 4593 3848 
Q 4728 3659 4728 3406 
Q 4728 3084 4515 2831 
Q 4303 2578 3978 2408 
Q 3653 2238 3347 2169 
Q 3597 2078 3756 1879 
Q 3916 1681 3916 1422 
Q 3916 1388 3914 1370 
Q 3913 1353 3909 1331 
L 3859 763 
Q 3853 638 3847 550 
Q 3841 463 3841 409 
Q 3841 234 3892 129 
Q 3944 25 4097 25 
Q 4297 25 4448 211 
Q 4600 397 4647 616 
Q 4675 672 4709 672 
L 4769 672 
Q 4831 672 4831 588 
Q 4784 403 4682 237 
Q 4581 72 4426 -34 
Q 4272 -141 4091 -141 
Q 3716 -141 3452 26 
Q 3188 194 3188 550 
Q 3188 684 3213 788 
L 3353 1356 
Q 3378 1434 3378 1538 
Q 3378 1803 3198 1954 
Q 3019 2106 2747 2106 
L 1959 2106 
L 1538 416 
Q 1522 363 1522 325 
Q 1522 259 1600 250 
Q 1722 225 2059 225 
Q 2125 225 2125 141 
Q 2103 50 2090 25 
Q 2078 0 2016 0 
L 313 0 
z
M 1997 2272 
L 2706 2272 
Q 3403 2272 3756 2625 
Q 3919 2788 4014 3039 
Q 4109 3291 4109 3541 
Q 4109 3778 3970 3912 
Q 3831 4047 3626 4097 
Q 3422 4147 3175 4147 
L 2747 4147 
Q 2572 4147 2515 4117 
Q 2459 4088 2413 3928 
L 1997 2272 
z
" transform="scale(0.015625)"/>
      </defs>
      <use xlink:href="#Cmmi10-52" transform="translate(0 0.6875)"/>
     </g>
    </g>
   </g>
  </g>
 </g>
 <defs>
  <clipPath id="pd8b0a154da">
   <rect x="7.2" y="7.2" width="378.272402" height="324"/>
  </clipPath>
 </defs>
</svg>
