<?xml version="1.0" encoding="utf-8" standalone="no"?>
<!DOCTYPE svg PUBLIC "-//W3C//DTD SVG 1.1//EN"
  "http://www.w3.org/Graphics/SVG/1.1/DTD/svg11.dtd">
<svg xmlns:xlink="http://www.w3.org/1999/xlink" width="392.65857pt" height="338.4pt" viewBox="0 0 392.65857 338.4" xmlns="http://www.w3.org/2000/svg" version="1.1">
 <metadata>
  <rdf:RDF xmlns:dc="http://purl.org/dc/elements/1.1/" xmlns:cc="http://creativecommons.org/ns#" xmlns:rdf="http://www.w3.org/1999/02/22-rdf-syntax-ns#">
   <cc:Work>
    <dc:type rdf:resource="http://purl.org/dc/dcmitype/StillImage"/>
    <dc:date>2025-07-25T14:51:10.892620</dc:date>
    <dc:format>image/svg+xml</dc:format>
    <dc:creator>
     <cc:Agent>
      <dc:title>Matplotlib v3.10.3, https://matplotlib.org/</dc:title>
     </cc:Agent>
    </dc:creator>
   </cc:Work>
  </rdf:RDF>
 </metadata>
 <defs>
  <style type="text/css">*{stroke-linejoin: round; stroke-linecap: butt}</style>
 </defs>
 <g id="figure_1">
  <g id="patch_1">
   <path d="M 0 338.4 
L 392.65857 338.4 
L 392.65857 0 
L 0 0 
z
" style="fill: #ffffff"/>
  </g>
  <g id="axes_1">
   <g id="patch_2">
    <path d="M 7.2 331.2 
L 385.45857 331.2 
L 385.45857 7.2 
L 7.2 7.2 
z
" style="fill: #ffffff"/>
   </g>
   <g id="PathCollection_1">
    <path d="M 378.184366 246.773212 
C 379.122001 246.773212 380.021359 246.400686 380.684366 245.737678 
C 381.347374 245.074671 381.7199 244.175313 381.7199 243.237678 
C 381.7199 242.300044 381.347374 241.400686 380.684366 240.737678 
C 380.021359 240.074671 379.122001 239.702144 378.184366 239.702144 
C 377.246732 239.702144 376.347374 240.074671 375.684366 240.737678 
C 375.021359 241.400686 374.648833 242.300044 374.648833 243.237678 
C 374.648833 244.175313 375.021359 245.074671 375.684366 245.737678 
C 376.347374 246.400686 377.246732 246.773212 378.184366 246.773212 
z
" clip-path="url(#pb4b181fdcf)"/>
   </g>
   <g id="PathCollection_2">
    <path d="M 137.720352 100.66753 
C 138.657986 100.66753 139.557344 100.295004 140.220352 99.631996 
C 140.883359 98.968989 141.255886 98.069631 141.255886 97.131996 
C 141.255886 96.194362 140.883359 95.295004 140.220352 94.631996 
C 139.557344 93.968989 138.657986 93.596463 137.720352 93.596463 
C 136.782717 93.596463 135.883359 93.968989 135.220352 94.631996 
C 134.557344 95.295004 134.184818 96.194362 134.184818 97.131996 
C 134.184818 98.069631 134.557344 98.968989 135.220352 99.631996 
C 135.883359 100.295004 136.782717 100.66753 137.720352 100.66753 
z
" clip-path="url(#pb4b181fdcf)"/>
   </g>
   <g id="matplotlib.axis_1"/>
   <g id="matplotlib.axis_2"/>
   <g id="line2d_1">
    <path d="M 378.184366 243.237678 
L 347.647051 205.497946 
L 322.345368 174.399127 
L 307.202761 156.12368 
L 293.083289 139.449362 
L 280.169154 124.601691 
L 270.975366 114.314448 
L 263.033845 105.645621 
L 251.561563 93.5229 
L 243.960254 85.779624 
L 232.83541 74.909929 
L 225.845565 68.387556 
L 218.765363 62.043302 
L 210.560466 55.04591 
L 203.259649 49.162947 
L 196.776113 44.228445 
L 190.220953 39.534198 
L 184.110954 35.441344 
L 177.732456 31.476532 
L 170.13847 27.191653 
L 164.605728 24.385799 
L 160.584114 22.522308 
L 155.183804 20.263906 
L 150.712214 18.614774 
L 145.06014 16.8308 
L 138.528461 15.209917 
L 132.049832 14.098224 
L 127.217199 13.610389 
L 121.836524 13.430769 
L 117.737696 13.564384 
L 114.121722 13.885957 
L 109.976548 14.500281 
L 104.689434 15.684688 
L 101.955227 16.482384 
L 97.441868 18.090316 
L 93.56417 19.775965 
L 89.462194 21.883149 
L 84.542308 24.878226 
L 81.01337 27.361487 
L 77.566972 30.074608 
L 75.27672 32.043453 
L 72.165659 34.941617 
L 68.947505 38.225883 
L 64.769507 42.955881 
L 62.297535 46.020548 
L 57.771081 52.191396 
L 54.401058 57.298321 
L 51.339324 62.357415 
L 48.086996 68.213837 
L 45.456815 73.351442 
L 42.244124 80.17181 
L 39.378657 86.825193 
L 36.165405 95.025222 
L 33.949935 101.206182 
L 31.684867 108.045393 
L 30.335408 112.405687 
L 27.320457 123.068307 
L 25.035705 132.19555 
L 22.500571 143.753195 
L 20.779324 152.78518 
L 19.054223 163.252708 
L 17.965522 170.938073 
L 16.867054 180.034453 
L 15.769054 191.548155 
L 15.099723 201.224833 
L 14.662373 211.031498 
L 14.474203 221.292148 
L 14.542599 230.010734 
L 14.820728 238.409091 
L 15.371112 247.422829 
L 16.132233 255.71317 
L 17.282098 264.775752 
L 18.188199 270.408289 
L 19.496077 277.145959 
L 20.615568 282.011872 
L 22.441936 288.705628 
L 24.187782 294.04536 
L 26.045928 298.877982 
L 28.372695 303.969977 
L 30.325235 307.582267 
L 32.42316 310.910278 
L 34.514044 313.74176 
L 36.795847 316.355584 
L 39.429833 318.837135 
L 41.505345 320.436772 
L 44.115053 322.053709 
L 46.016916 322.981419 
L 47.847408 323.691648 
L 50.510177 324.430211 
L 52.797994 324.807807 
L 54.555319 324.948423 
L 57.013072 324.941928 
L 58.883396 324.787728 
L 60.66066 324.528536 
L 63.497038 323.900618 
L 66.272609 323.047117 
L 68.419469 322.235011 
L 72.635007 320.28175 
L 72.635007 320.28175 
" clip-path="url(#pb4b181fdcf)" style="fill: none; stroke: #000000; stroke-linecap: square"/>
   </g>
   <g id="line2d_2">
    <path d="M 72.635007 320.28175 
L 77.696194 315.622672 
L 82.311848 311.059471 
L 86.820428 306.254144 
L 90.94213 301.49633 
L 94.562759 296.965803 
L 98.267196 291.910265 
L 101.457836 287.130742 
L 104.798709 281.585316 
L 107.284884 276.995796 
L 109.689962 272.063673 
L 111.869561 267.043227 
L 113.730952 262.198059 
L 115.214713 257.837746 
L 116.900477 252.13175 
L 118.390163 246.103184 
L 119.46906 240.829283 
L 120.427998 235.088935 
L 121.325683 228.102552 
L 121.940989 221.467444 
L 122.385649 214.368382 
L 122.679607 206.261361 
L 122.829267 195.228644 
L 123.0592 164.63303 
L 123.432728 155.969064 
L 123.945076 148.911884 
L 124.638201 142.288794 
L 125.395514 136.796933 
L 126.56637 130.144018 
L 127.880854 124.178625 
L 129.409447 118.432525 
L 131.113692 112.998609 
L 133.065009 107.62867 
L 135.429201 101.971997 
L 137.720352 97.131996 
L 137.720352 97.131996 
" clip-path="url(#pb4b181fdcf)" style="fill: none; stroke: #000000; stroke-linecap: square"/>
   </g>
   <g id="patch_3">
    <path d="M 100.082428 17.104689 
Q 99.980037 17.140623 101.987554 16.436089 
" clip-path="url(#pb4b181fdcf)" style="fill: none; stroke: #000000; stroke-width: 2; stroke-linecap: round"/>
    <path d="M 113.079081 17.842511 
L 101.987554 16.436089 
L 109.767607 8.40672 
z
" clip-path="url(#pb4b181fdcf)" style="stroke: #000000; stroke-width: 2; stroke-linecap: round"/>
   </g>
   <g id="patch_4">
    <path d="M 122.843701 186.391898 
Q 122.843709 185.945598 122.843679 187.735367 
" clip-path="url(#pb4b181fdcf)" style="fill: none; stroke: #000000; stroke-width: 2; stroke-linecap: round"/>
    <path d="M 117.843512 197.735284 
L 122.843679 187.735367 
L 127.843512 197.73545 
z
" clip-path="url(#pb4b181fdcf)" style="stroke: #000000; stroke-width: 2; stroke-linecap: round"/>
   </g>
   <g id="text_1">
    <g clip-path="url(#pb4b181fdcf)">
     <!-- $P$ -->
     <g transform="translate(361.133376 272.451091) scale(0.25 -0.25)">
      <defs>
       <path id="Cmmi10-50" d="M 313 0 
Q 250 0 250 84 
Q 253 100 262 139 
Q 272 178 289 201 
Q 306 225 331 225 
Q 722 225 878 269 
Q 959 297 997 441 
L 1875 3956 
Q 1888 4019 1888 4044 
Q 1888 4113 1813 4122 
Q 1691 4147 1350 4147 
Q 1288 4147 1288 4231 
Q 1291 4247 1300 4286 
Q 1309 4325 1326 4348 
Q 1344 4372 1369 4372 
L 3578 4372 
Q 3881 4372 4165 4264 
Q 4450 4156 4631 3934 
Q 4813 3713 4813 3397 
Q 4813 2991 4527 2672 
Q 4241 2353 3814 2175 
Q 3388 1997 2988 1997 
L 1947 1997 
L 1556 416 
Q 1544 353 1544 325 
Q 1544 300 1551 283 
Q 1559 266 1573 261 
Q 1588 256 1619 250 
Q 1741 225 2081 225 
Q 2144 225 2144 141 
Q 2122 50 2109 25 
Q 2097 0 2034 0 
L 313 0 
z
M 1978 2188 
L 2875 2188 
Q 3497 2188 3822 2522 
Q 3988 2688 4092 3000 
Q 4197 3313 4197 3566 
Q 4197 3881 3956 4014 
Q 3716 4147 3359 4147 
L 2747 4147 
Q 2572 4147 2515 4117 
Q 2459 4088 2413 3928 
L 1978 2188 
z
" transform="scale(0.015625)"/>
      </defs>
      <use xlink:href="#Cmmi10-50" transform="translate(0 0.6875)"/>
     </g>
    </g>
   </g>
   <g id="text_2">
    <g clip-path="url(#pb4b181fdcf)">
     <!-- $R$ -->
     <g transform="translate(150.535327 81.715459) scale(0.25 -0.25)">
      <defs>
       <path id="Cmmi10-52" d="M 313 0 
Q 250 0 250 84 
Q 253 100 262 139 
Q 272 178 289 201 
Q 306 225 331 225 
Q 722 225 878 269 
Q 959 297 997 441 
L 1875 3956 
Q 1888 4019 1888 4044 
Q 1888 4113 1813 4122 
Q 1691 4147 1350 4147 
Q 1288 4147 1288 4231 
Q 1291 4247 1300 4286 
Q 1309 4325 1326 4348 
Q 1344 4372 1369 4372 
L 3309 4372 
Q 3541 4372 3791 4319 
Q 4041 4266 4250 4152 
Q 4459 4038 4593 3848 
Q 4728 3659 4728 3406 
Q 4728 3084 4515 2831 
Q 4303 2578 3978 2408 
Q 3653 2238 3347 2169 
Q 3597 2078 3756 1879 
Q 3916 1681 3916 1422 
Q 3916 1388 3914 1370 
Q 3913 1353 3909 1331 
L 3859 763 
Q 3853 638 3847 550 
Q 3841 463 3841 409 
Q 3841 234 3892 129 
Q 3944 25 4097 25 
Q 4297 25 4448 211 
Q 4600 397 4647 616 
Q 4675 672 4709 672 
L 4769 672 
Q 4831 672 4831 588 
Q 4784 403 4682 237 
Q 4581 72 4426 -34 
Q 4272 -141 4091 -141 
Q 3716 -141 3452 26 
Q 3188 194 3188 550 
Q 3188 684 3213 788 
L 3353 1356 
Q 3378 1434 3378 1538 
Q 3378 1803 3198 1954 
Q 3019 2106 2747 2106 
L 1959 2106 
L 1538 416 
Q 1522 363 1522 325 
Q 1522 259 1600 250 
Q 1722 225 2059 225 
Q 2125 225 2125 141 
Q 2103 50 2090 25 
Q 2078 0 2016 0 
L 313 0 
z
M 1997 2272 
L 2706 2272 
Q 3403 2272 3756 2625 
Q 3919 2788 4014 3039 
Q 4109 3291 4109 3541 
Q 4109 3778 3970 3912 
Q 3831 4047 3626 4097 
Q 3422 4147 3175 4147 
L 2747 4147 
Q 2572 4147 2515 4117 
Q 2459 4088 2413 3928 
L 1997 2272 
z
" transform="scale(0.015625)"/>
      </defs>
      <use xlink:href="#Cmmi10-52" transform="translate(0 0.6875)"/>
     </g>
    </g>
   </g>
  </g>
 </g>
 <defs>
  <clipPath id="pb4b181fdcf">
   <rect x="7.2" y="7.2" width="378.25857" height="324"/>
  </clipPath>
 </defs>
</svg>
