<?xml version="1.0" encoding="utf-8" standalone="no"?>
<!DOCTYPE svg PUBLIC "-//W3C//DTD SVG 1.1//EN"
  "http://www.w3.org/Graphics/SVG/1.1/DTD/svg11.dtd">
<svg xmlns:xlink="http://www.w3.org/1999/xlink" width="392.669889pt" height="338.4pt" viewBox="0 0 392.669889 338.4" xmlns="http://www.w3.org/2000/svg" version="1.1">
 <metadata>
  <rdf:RDF xmlns:dc="http://purl.org/dc/elements/1.1/" xmlns:cc="http://creativecommons.org/ns#" xmlns:rdf="http://www.w3.org/1999/02/22-rdf-syntax-ns#">
   <cc:Work>
    <dc:type rdf:resource="http://purl.org/dc/dcmitype/StillImage"/>
    <dc:date>2025-06-24T17:09:48.992742</dc:date>
    <dc:format>image/svg+xml</dc:format>
    <dc:creator>
     <cc:Agent>
      <dc:title>Matplotlib v3.10.3, https://matplotlib.org/</dc:title>
     </cc:Agent>
    </dc:creator>
   </cc:Work>
  </rdf:RDF>
 </metadata>
 <defs>
  <style type="text/css">*{stroke-linejoin: round; stroke-linecap: butt}</style>
 </defs>
 <g id="figure_1">
  <g id="patch_1">
   <path d="M 0 338.4 
L 392.669889 338.4 
L 392.669889 0 
L 0 0 
z
" style="fill: #ffffff"/>
  </g>
  <g id="axes_1">
   <g id="patch_2">
    <path d="M 7.2 331.2 
L 385.469889 331.2 
L 385.469889 7.2 
L 7.2 7.2 
z
" style="fill: #ffffff"/>
   </g>
   <g id="PathCollection_1">
    <path d="M 378.195468 246.768337 
C 379.133102 246.768337 380.03246 246.395811 380.695468 245.732803 
C 381.358476 245.069795 381.731002 244.170438 381.731002 243.232803 
C 381.731002 242.295168 381.358476 241.395811 380.695468 240.732803 
C 380.03246 240.069795 379.133102 239.697269 378.195468 239.697269 
C 377.257833 239.697269 376.358476 240.069795 375.695468 240.732803 
C 375.03246 241.395811 374.659934 242.295168 374.659934 243.232803 
C 374.659934 244.170438 375.03246 245.069795 375.695468 245.732803 
C 376.358476 246.395811 377.257833 246.768337 378.195468 246.768337 
z
" clip-path="url(#pd91b38375f)"/>
   </g>
   <g id="PathCollection_2">
    <path d="M 72.638945 323.814215 
C 73.576579 323.814215 74.475937 323.441689 75.138945 322.778681 
C 75.801953 322.115673 76.174479 321.216316 76.174479 320.278681 
C 76.174479 319.341047 75.801953 318.441689 75.138945 317.778681 
C 74.475937 317.115673 73.576579 316.743147 72.638945 316.743147 
C 71.70131 316.743147 70.801953 317.115673 70.138945 317.778681 
C 69.475937 318.441689 69.103411 319.341047 69.103411 320.278681 
C 69.103411 321.216316 69.475937 322.115673 70.138945 322.778681 
C 70.801953 323.441689 71.70131 323.814215 72.638945 323.814215 
z
" clip-path="url(#pd91b38375f)"/>
   </g>
   <g id="matplotlib.axis_1"/>
   <g id="matplotlib.axis_2"/>
   <g id="line2d_1">
    <path d="M 378.195468 243.232803 
L 344.265736 201.29926 
L 323.792107 176.143442 
L 306.365202 155.105411 
L 293.191961 139.558139 
L 279.919051 124.30091 
L 269.499616 112.670266 
L 259.497857 101.839371 
L 252.271769 94.241785 
L 243.647338 85.44963 
L 236.53917 78.448166 
L 225.948046 68.465498 
L 216.164393 59.76717 
L 210.694356 55.141658 
L 204.862022 50.410259 
L 195.118577 42.998252 
L 188.376289 38.254874 
L 184.102309 35.42177 
L 176.321049 30.629922 
L 169.811632 27.00509 
L 164.139381 24.149057 
L 157.811551 21.31461 
L 150.77604 18.624722 
L 145.383351 16.911677 
L 140.428773 15.619623 
L 135.306451 14.582118 
L 131.18619 13.978205 
L 127.06525 13.589358 
L 123.335278 13.430769 
L 120.426758 13.439543 
L 114.758644 13.80536 
L 113.439035 13.959151 
L 109.545183 14.570437 
L 105.605781 15.437077 
L 100.799977 16.850205 
L 99.805485 17.193509 
L 95.868882 18.731052 
L 92.431866 20.315629 
L 86.894659 23.372981 
L 82.934192 25.96688 
L 78.11557 29.616431 
L 75.432915 31.898545 
L 70.742591 36.351168 
L 66.201076 41.268104 
L 61.899303 46.529058 
L 59.57671 49.634981 
L 55.410532 55.715972 
L 51.898555 61.398522 
L 48.317512 67.778588 
L 44.900147 74.486444 
L 42.103639 80.483363 
L 38.843715 88.132268 
L 36.534882 94.038374 
L 33.252016 103.254632 
L 30.626202 111.448233 
L 28.013296 120.495555 
L 25.312613 131.036359 
L 23.389431 139.502989 
L 22.012508 146.206288 
L 20.527199 154.22175 
L 18.690073 165.720986 
L 17.672629 173.219267 
L 16.506023 183.482336 
L 15.505088 195.00875 
L 14.921742 204.64191 
L 14.604413 213.095084 
L 14.474421 221.955133 
L 14.539408 229.717023 
L 14.924427 240.448726 
L 15.4414 248.285428 
L 16.33123 257.472736 
L 17.35199 265.225339 
L 18.229373 270.623107 
L 19.342393 276.403489 
L 20.86731 283.002211 
L 22.18364 287.822789 
L 23.263982 291.317607 
L 25.142183 296.612893 
L 26.830818 300.693059 
L 28.636678 304.481557 
L 30.922308 308.575494 
L 32.810211 311.461222 
L 33.71506 312.705151 
L 36.521108 316.0585 
L 38.289178 317.821989 
L 40.842149 319.95197 
L 41.612098 320.505947 
L 44.581502 322.295233 
L 47.560347 323.5874 
L 50.587807 324.443095 
L 52.567025 324.77649 
L 55.403055 324.969231 
L 58.759304 324.79923 
L 62.037089 324.253637 
L 62.749744 324.088663 
L 66.524556 322.956848 
L 70.271003 321.432565 
L 72.638945 320.278681 
L 72.638945 320.278681 
" clip-path="url(#pd91b38375f)" style="fill: none; stroke: #000000; stroke-linecap: square"/>
   </g>
   <g id="patch_3">
    <path d="M 99.882223 17.166382 
Q 99.984616 17.130447 97.977103 17.83498 
" clip-path="url(#pd91b38375f)" style="fill: none; stroke: #000000; stroke-width: 2; stroke-linecap: round"/>
    <path d="M 86.885575 16.428558 
L 97.977103 17.83498 
L 90.197049 25.864349 
z
" clip-path="url(#pd91b38375f)" style="stroke: #000000; stroke-width: 2; stroke-linecap: round"/>
   </g>
   <g id="text_1">
    <g clip-path="url(#pd91b38375f)">
     <!-- $P$ -->
     <g transform="translate(361.144268 272.446739) scale(0.25 -0.25)">
      <defs>
       <path id="Cmmi10-50" d="M 313 0 
Q 250 0 250 84 
Q 253 100 262 139 
Q 272 178 289 201 
Q 306 225 331 225 
Q 722 225 878 269 
Q 959 297 997 441 
L 1875 3956 
Q 1888 4019 1888 4044 
Q 1888 4113 1813 4122 
Q 1691 4147 1350 4147 
Q 1288 4147 1288 4231 
Q 1291 4247 1300 4286 
Q 1309 4325 1326 4348 
Q 1344 4372 1369 4372 
L 3578 4372 
Q 3881 4372 4165 4264 
Q 4450 4156 4631 3934 
Q 4813 3713 4813 3397 
Q 4813 2991 4527 2672 
Q 4241 2353 3814 2175 
Q 3388 1997 2988 1997 
L 1947 1997 
L 1556 416 
Q 1544 353 1544 325 
Q 1544 300 1551 283 
Q 1559 266 1573 261 
Q 1588 256 1619 250 
Q 1741 225 2081 225 
Q 2144 225 2144 141 
Q 2122 50 2109 25 
Q 2097 0 2034 0 
L 313 0 
z
M 1978 2188 
L 2875 2188 
Q 3497 2188 3822 2522 
Q 3988 2688 4092 3000 
Q 4197 3313 4197 3566 
Q 4197 3881 3956 4014 
Q 3716 4147 3359 4147 
L 2747 4147 
Q 2572 4147 2515 4117 
Q 2459 4088 2413 3928 
L 1978 2188 
z
" transform="scale(0.015625)"/>
      </defs>
      <use xlink:href="#Cmmi10-50" transform="translate(0 0.6875)"/>
     </g>
    </g>
   </g>
   <g id="text_2">
    <g clip-path="url(#pd91b38375f)">
     <!-- $Q$ -->
     <g transform="translate(84.954443 322.714019) scale(0.25 -0.25)">
      <defs>
       <path id="Cmmi10-51" d="M 1947 -141 
Q 1466 -141 1094 79 
Q 722 300 520 692 
Q 319 1084 319 1563 
Q 319 2259 714 2950 
Q 1109 3641 1756 4077 
Q 2403 4513 3109 4513 
Q 3475 4513 3778 4381 
Q 4081 4250 4290 4017 
Q 4500 3784 4614 3471 
Q 4728 3159 4728 2791 
Q 4728 2366 4581 1936 
Q 4434 1506 4171 1136 
Q 3909 766 3559 484 
Q 3209 203 2809 38 
Q 2850 -256 2934 -425 
Q 3019 -594 3256 -594 
Q 3506 -594 3726 -412 
Q 3947 -231 4006 13 
Q 4019 72 4078 72 
Q 4147 72 4147 -13 
Q 4100 -219 4008 -430 
Q 3916 -641 3786 -823 
Q 3656 -1006 3478 -1123 
Q 3300 -1241 3084 -1241 
Q 2547 -1241 2547 -550 
Q 2547 -509 2562 -332 
Q 2578 -156 2578 -44 
Q 2269 -141 1947 -141 
z
M 1709 300 
Q 1709 44 1991 44 
Q 2275 44 2591 184 
L 2591 244 
Q 2591 503 2509 648 
Q 2428 794 2194 794 
Q 2078 794 1964 723 
Q 1850 653 1779 539 
Q 1709 425 1709 300 
z
M 1544 288 
Q 1544 456 1637 612 
Q 1731 769 1881 864 
Q 2031 959 2203 959 
Q 2481 959 2607 771 
Q 2734 584 2778 281 
Q 3188 525 3500 978 
Q 3813 1431 3977 1973 
Q 4141 2516 4141 3003 
Q 4141 3356 4023 3656 
Q 3906 3956 3664 4140 
Q 3422 4325 3066 4325 
Q 2722 4325 2403 4156 
Q 2084 3988 1813 3706 
Q 1550 3434 1342 3032 
Q 1134 2631 1021 2193 
Q 909 1756 909 1356 
Q 909 947 1068 612 
Q 1228 278 1569 128 
Q 1544 194 1544 288 
z
" transform="scale(0.015625)"/>
      </defs>
      <use xlink:href="#Cmmi10-51" transform="translate(0 0.484375)"/>
     </g>
    </g>
   </g>
  </g>
 </g>
 <defs>
  <clipPath id="pd91b38375f">
   <rect x="7.2" y="7.2" width="378.269889" height="324"/>
  </clipPath>
 </defs>
</svg>
