<?xml version="1.0" encoding="utf-8" standalone="no"?>
<!DOCTYPE svg PUBLIC "-//W3C//DTD SVG 1.1//EN"
  "http://www.w3.org/Graphics/SVG/1.1/DTD/svg11.dtd">
<svg xmlns:xlink="http://www.w3.org/1999/xlink" width="392.694631pt" height="338.4pt" viewBox="0 0 392.694631 338.4" xmlns="http://www.w3.org/2000/svg" version="1.1">
 <metadata>
  <rdf:RDF xmlns:dc="http://purl.org/dc/elements/1.1/" xmlns:cc="http://creativecommons.org/ns#" xmlns:rdf="http://www.w3.org/1999/02/22-rdf-syntax-ns#">
   <cc:Work>
    <dc:type rdf:resource="http://purl.org/dc/dcmitype/StillImage"/>
    <dc:date>2025-07-25T20:23:56.798572</dc:date>
    <dc:format>image/svg+xml</dc:format>
    <dc:creator>
     <cc:Agent>
      <dc:title>Matplotlib v3.10.3, https://matplotlib.org/</dc:title>
     </cc:Agent>
    </dc:creator>
   </cc:Work>
  </rdf:RDF>
 </metadata>
 <defs>
  <style type="text/css">*{stroke-linejoin: round; stroke-linecap: butt}</style>
 </defs>
 <g id="figure_1">
  <g id="patch_1">
   <path d="M 0 338.4 
L 392.694631 338.4 
L 392.694631 0 
L 0 0 
z
" style="fill: #ffffff"/>
  </g>
  <g id="axes_1">
   <g id="patch_2">
    <path d="M 7.2 331.2 
L 385.494631 331.2 
L 385.494631 7.2 
L 7.2 7.2 
z
" style="fill: #ffffff"/>
   </g>
   <g id="PathCollection_1">
    <path d="M 378.219735 246.768987 
C 379.157369 246.768987 380.056727 246.396461 380.719735 245.733453 
C 381.382742 245.070445 381.755269 244.171088 381.755269 243.233453 
C 381.755269 242.295818 381.382742 241.396461 380.719735 240.733453 
C 380.056727 240.070445 379.157369 239.697919 378.219735 239.697919 
C 377.2821 239.697919 376.382742 240.070445 375.719735 240.733453 
C 375.056727 241.396461 374.684201 242.295818 374.684201 243.233453 
C 374.684201 244.171088 375.056727 245.070445 375.719735 245.733453 
C 376.382742 246.396461 377.2821 246.768987 378.219735 246.768987 
z
" clip-path="url(#p992898e6a3)"/>
   </g>
   <g id="PathCollection_2">
    <path d="M 137.735146 100.650804 
C 138.672781 100.650804 139.572138 100.278278 140.235146 99.615271 
C 140.898154 98.952263 141.27068 98.052905 141.27068 97.115271 
C 141.27068 96.177636 140.898154 95.278278 140.235146 94.615271 
C 139.572138 93.952263 138.672781 93.579737 137.735146 93.579737 
C 136.797512 93.579737 135.898154 93.952263 135.235146 94.615271 
C 134.572138 95.278278 134.199612 96.177636 134.199612 97.115271 
C 134.199612 98.052905 134.572138 98.952263 135.235146 99.615271 
C 135.898154 100.278278 136.797512 100.650804 137.735146 100.650804 
z
" clip-path="url(#p992898e6a3)"/>
   </g>
   <g id="matplotlib.axis_1"/>
   <g id="matplotlib.axis_2"/>
   <g id="line2d_1">
    <path d="M 378.219735 243.233453 
L 348.170568 206.09751 
L 322.665451 174.741537 
L 309.62949 158.981508 
L 295.384524 142.092258 
L 284.314111 129.274609 
L 271.615386 114.977925 
L 261.223283 103.656416 
L 252.977793 94.949434 
L 241.98335 83.7651 
L 236.567385 78.450926 
L 228.550584 70.842154 
L 220.935749 63.919895 
L 211.742401 55.991481 
L 204.315871 49.956203 
L 198.107801 45.182763 
L 190.325896 39.571898 
L 182.648514 34.469963 
L 177.559271 31.340261 
L 171.84948 28.081929 
L 165.508532 24.793449 
L 159.799902 22.146314 
L 154.665447 20.032699 
L 151.0608 18.706927 
L 147.353703 17.48488 
L 143.568931 16.390426 
L 138.74082 15.227992 
L 133.150676 14.224977 
L 127.498271 13.605578 
L 124.594121 13.449358 
L 120.239724 13.430769 
L 115.356611 13.731539 
L 113.254145 13.970248 
L 109.396412 14.586446 
L 104.300649 15.76983 
L 99.984947 17.119294 
L 94.827361 19.176561 
L 90.488018 21.306439 
L 89.575887 21.802826 
L 84.571861 24.842521 
L 81.971522 26.642951 
L 76.784044 30.71813 
L 72.380406 34.719864 
L 67.90659 39.341629 
L 66.294394 41.154421 
L 61.710851 46.768332 
L 57.716795 52.261018 
L 54.425261 57.251981 
L 53.149724 59.307973 
L 49.387214 65.803397 
L 46.751449 70.769981 
L 43.954305 76.45832 
L 41.519751 81.796892 
L 38.135713 89.896412 
L 35.05031 98.077968 
L 32.730592 104.819025 
L 30.355549 112.342063 
L 27.587117 122.072821 
L 25.57385 129.957398 
L 24.134714 136.114945 
L 21.706234 147.79112 
L 20.04946 157.0232 
L 18.30137 168.475252 
L 17.259759 176.61117 
L 16.108222 187.645771 
L 15.399629 196.522308 
L 14.847234 206.285666 
L 14.580099 214.126532 
L 14.474897 222.780829 
L 14.619737 232.945902 
L 14.980313 241.445172 
L 15.588545 250.043 
L 16.405976 258.101987 
L 17.574006 266.669322 
L 18.724965 273.312649 
L 19.67977 277.970752 
L 21.608949 285.797831 
L 23.202995 291.126721 
L 24.571444 295.094221 
L 26.67304 300.334074 
L 28.419313 304.052878 
L 29.975762 306.966138 
L 31.455777 309.433447 
L 34.061725 313.160824 
L 36.366082 315.893549 
L 38.475443 317.995852 
L 40.760004 319.893474 
L 42.966343 321.391592 
L 44.372886 322.190299 
L 47.586561 323.601031 
L 48.854129 324.011072 
L 52.612794 324.787421 
L 53.729899 324.900151 
L 56.345821 324.969231 
L 58.703474 324.811575 
L 62.413879 324.175166 
L 64.44621 323.639657 
L 68.291801 322.292987 
L 72.644233 320.284117 
L 72.644233 320.284117 
" clip-path="url(#p992898e6a3)" style="fill: none; stroke: #000000; stroke-linecap: square"/>
   </g>
   <g id="line2d_2">
    <path d="M 72.644233 320.284117 
L 76.929618 316.361071 
L 81.145888 312.255298 
L 85.89326 307.286335 
L 90.302341 302.274286 
L 94.218272 297.427677 
L 97.607798 292.861643 
L 100.895471 288.023697 
L 103.588691 283.68643 
L 106.276632 278.933457 
L 108.601431 274.388327 
L 111.069807 268.983877 
L 113.303792 263.39614 
L 115.254559 257.750459 
L 116.740432 252.760277 
L 118.10966 247.383726 
L 119.206525 242.269031 
L 120.310043 235.950572 
L 121.173922 229.557917 
L 121.847511 222.794873 
L 122.362079 215.096562 
L 122.660884 207.477905 
L 122.831195 197.139082 
L 123.159231 162.031692 
L 123.548106 154.296903 
L 124.072626 147.649355 
L 124.685488 142.002275 
L 125.666531 135.169925 
L 126.876469 128.675923 
L 128.027487 123.6227 
L 129.529183 118.055038 
L 130.976878 113.432806 
L 132.864281 108.169331 
L 134.635345 103.803456 
L 137.050506 98.506108 
L 137.735146 97.115271 
L 137.735146 97.115271 
" clip-path="url(#p992898e6a3)" style="fill: none; stroke: #000000; stroke-linecap: square"/>
   </g>
   <g id="patch_3">
    <path d="M 100.094002 17.081116 
Q 99.991603 17.117053 101.99911 16.412522 
" clip-path="url(#p992898e6a3)" style="fill: none; stroke: #000000; stroke-width: 2; stroke-linecap: round"/>
    <path d="M 113.090638 17.818944 
L 101.99911 16.412522 
L 109.779164 8.383153 
z
" clip-path="url(#p992898e6a3)" style="stroke: #000000; stroke-width: 2; stroke-linecap: round"/>
   </g>
   <g id="patch_4">
    <path d="M 122.857223 186.382809 
Q 122.857231 185.936471 122.857201 187.726202 
" clip-path="url(#p992898e6a3)" style="fill: none; stroke: #000000; stroke-width: 2; stroke-linecap: round"/>
    <path d="M 117.857034 197.726118 
L 122.857201 187.726202 
L 127.857034 197.726285 
z
" clip-path="url(#p992898e6a3)" style="stroke: #000000; stroke-width: 2; stroke-linecap: round"/>
   </g>
   <g id="text_1">
    <g clip-path="url(#p992898e6a3)">
     <!-- $P$ -->
     <g transform="translate(361.167981 272.448775) scale(0.25 -0.25)">
      <defs>
       <path id="Cmmi10-50" d="M 313 0 
Q 250 0 250 84 
Q 253 100 262 139 
Q 272 178 289 201 
Q 306 225 331 225 
Q 722 225 878 269 
Q 959 297 997 441 
L 1875 3956 
Q 1888 4019 1888 4044 
Q 1888 4113 1813 4122 
Q 1691 4147 1350 4147 
Q 1288 4147 1288 4231 
Q 1291 4247 1300 4286 
Q 1309 4325 1326 4348 
Q 1344 4372 1369 4372 
L 3578 4372 
Q 3881 4372 4165 4264 
Q 4450 4156 4631 3934 
Q 4813 3713 4813 3397 
Q 4813 2991 4527 2672 
Q 4241 2353 3814 2175 
Q 3388 1997 2988 1997 
L 1947 1997 
L 1556 416 
Q 1544 353 1544 325 
Q 1544 300 1551 283 
Q 1559 266 1573 261 
Q 1588 256 1619 250 
Q 1741 225 2081 225 
Q 2144 225 2144 141 
Q 2122 50 2109 25 
Q 2097 0 2034 0 
L 313 0 
z
M 1978 2188 
L 2875 2188 
Q 3497 2188 3822 2522 
Q 3988 2688 4092 3000 
Q 4197 3313 4197 3566 
Q 4197 3881 3956 4014 
Q 3716 4147 3359 4147 
L 2747 4147 
Q 2572 4147 2515 4117 
Q 2459 4088 2413 3928 
L 1978 2188 
z
" transform="scale(0.015625)"/>
      </defs>
      <use xlink:href="#Cmmi10-50" transform="translate(0 0.6875)"/>
     </g>
    </g>
   </g>
   <g id="text_2">
    <g clip-path="url(#p992898e6a3)">
     <!-- $R$ -->
     <g transform="translate(150.552031 81.696823) scale(0.25 -0.25)">
      <defs>
       <path id="Cmmi10-52" d="M 313 0 
Q 250 0 250 84 
Q 253 100 262 139 
Q 272 178 289 201 
Q 306 225 331 225 
Q 722 225 878 269 
Q 959 297 997 441 
L 1875 3956 
Q 1888 4019 1888 4044 
Q 1888 4113 1813 4122 
Q 1691 4147 1350 4147 
Q 1288 4147 1288 4231 
Q 1291 4247 1300 4286 
Q 1309 4325 1326 4348 
Q 1344 4372 1369 4372 
L 3309 4372 
Q 3541 4372 3791 4319 
Q 4041 4266 4250 4152 
Q 4459 4038 4593 3848 
Q 4728 3659 4728 3406 
Q 4728 3084 4515 2831 
Q 4303 2578 3978 2408 
Q 3653 2238 3347 2169 
Q 3597 2078 3756 1879 
Q 3916 1681 3916 1422 
Q 3916 1388 3914 1370 
Q 3913 1353 3909 1331 
L 3859 763 
Q 3853 638 3847 550 
Q 3841 463 3841 409 
Q 3841 234 3892 129 
Q 3944 25 4097 25 
Q 4297 25 4448 211 
Q 4600 397 4647 616 
Q 4675 672 4709 672 
L 4769 672 
Q 4831 672 4831 588 
Q 4784 403 4682 237 
Q 4581 72 4426 -34 
Q 4272 -141 4091 -141 
Q 3716 -141 3452 26 
Q 3188 194 3188 550 
Q 3188 684 3213 788 
L 3353 1356 
Q 3378 1434 3378 1538 
Q 3378 1803 3198 1954 
Q 3019 2106 2747 2106 
L 1959 2106 
L 1538 416 
Q 1522 363 1522 325 
Q 1522 259 1600 250 
Q 1722 225 2059 225 
Q 2125 225 2125 141 
Q 2103 50 2090 25 
Q 2078 0 2016 0 
L 313 0 
z
M 1997 2272 
L 2706 2272 
Q 3403 2272 3756 2625 
Q 3919 2788 4014 3039 
Q 4109 3291 4109 3541 
Q 4109 3778 3970 3912 
Q 3831 4047 3626 4097 
Q 3422 4147 3175 4147 
L 2747 4147 
Q 2572 4147 2515 4117 
Q 2459 4088 2413 3928 
L 1997 2272 
z
" transform="scale(0.015625)"/>
      </defs>
      <use xlink:href="#Cmmi10-52" transform="translate(0 0.6875)"/>
     </g>
    </g>
   </g>
  </g>
 </g>
 <defs>
  <clipPath id="p992898e6a3">
   <rect x="7.2" y="7.2" width="378.294631" height="324"/>
  </clipPath>
 </defs>
</svg>
