<?xml version="1.0" encoding="utf-8" standalone="no"?>
<!DOCTYPE svg PUBLIC "-//W3C//DTD SVG 1.1//EN"
  "http://www.w3.org/Graphics/SVG/1.1/DTD/svg11.dtd">
<svg xmlns:xlink="http://www.w3.org/1999/xlink" width="392.670333pt" height="338.4pt" viewBox="0 0 392.670333 338.4" xmlns="http://www.w3.org/2000/svg" version="1.1">
 <metadata>
  <rdf:RDF xmlns:dc="http://purl.org/dc/elements/1.1/" xmlns:cc="http://creativecommons.org/ns#" xmlns:rdf="http://www.w3.org/1999/02/22-rdf-syntax-ns#">
   <cc:Work>
    <dc:type rdf:resource="http://purl.org/dc/dcmitype/StillImage"/>
    <dc:date>2025-08-27T14:10:42.266027</dc:date>
    <dc:format>image/svg+xml</dc:format>
    <dc:creator>
     <cc:Agent>
      <dc:title>Matplotlib v3.10.3, https://matplotlib.org/</dc:title>
     </cc:Agent>
    </dc:creator>
   </cc:Work>
  </rdf:RDF>
 </metadata>
 <defs>
  <style type="text/css">*{stroke-linejoin: round; stroke-linecap: butt}</style>
 </defs>
 <g id="figure_1">
  <g id="patch_1">
   <path d="M 0 338.4 
L 392.670333 338.4 
L 392.670333 0 
L 0 0 
z
" style="fill: #ffffff"/>
  </g>
  <g id="axes_1">
   <g id="patch_2">
    <path d="M 7.2 331.2 
L 385.470333 331.2 
L 385.470333 7.2 
L 7.2 7.2 
z
" style="fill: #ffffff"/>
   </g>
   <g id="PathCollection_1">
    <path d="M 378.195903 246.773267 
C 379.133538 246.773267 380.032895 246.400741 380.695903 245.737733 
C 381.358911 245.074726 381.731437 244.175368 381.731437 243.237733 
C 381.731437 242.300099 381.358911 241.400741 380.695903 240.737733 
C 380.032895 240.074726 379.133538 239.702199 378.195903 239.702199 
C 377.258269 239.702199 376.358911 240.074726 375.695903 240.737733 
C 375.032895 241.400741 374.660369 242.300099 374.660369 243.237733 
C 374.660369 244.175368 375.032895 245.074726 375.695903 245.737733 
C 376.358911 246.400741 377.258269 246.773267 378.195903 246.773267 
z
" clip-path="url(#p3d1328c9ee)"/>
   </g>
   <g id="PathCollection_2">
    <path d="M 72.637634 323.819586 
C 73.575269 323.819586 74.474626 323.44706 75.137634 322.784052 
C 75.800642 322.121044 76.173168 321.221686 76.173168 320.284052 
C 76.173168 319.346417 75.800642 318.44706 75.137634 317.784052 
C 74.474626 317.121044 73.575269 316.748518 72.637634 316.748518 
C 71.699999 316.748518 70.800642 317.121044 70.137634 317.784052 
C 69.474626 318.44706 69.1021 319.346417 69.1021 320.284052 
C 69.1021 321.221686 69.474626 322.121044 70.137634 322.784052 
C 70.800642 323.44706 71.699999 323.819586 72.637634 323.819586 
z
" clip-path="url(#p3d1328c9ee)"/>
   </g>
   <g id="matplotlib.axis_1"/>
   <g id="matplotlib.axis_2"/>
   <g id="line2d_1">
    <path d="M 378.195903 243.237733 
L 343.482008 200.335428 
L 320.091351 171.643928 
L 303.595273 151.811613 
L 290.169121 136.04854 
L 278.469144 122.667314 
L 268.202502 111.250655 
L 258.060619 100.316733 
L 249.406868 91.291025 
L 241.012888 82.832245 
L 233.096015 75.146054 
L 226.198103 68.698952 
L 218.76196 62.029054 
L 208.371851 53.236453 
L 201.278923 47.615147 
L 193.20041 41.619763 
L 187.561223 37.708146 
L 183.695738 35.163707 
L 175.276401 30.028153 
L 170.547158 27.400533 
L 164.451003 24.302438 
L 160.871333 22.641641 
L 153.058458 19.446227 
L 151.138445 18.754873 
L 144.551093 16.679291 
L 141.939206 15.987959 
L 136.565771 14.812056 
L 132.691055 14.178073 
L 126.863064 13.579663 
L 123.102445 13.430769 
L 119.622444 13.466588 
L 114.449366 13.842526 
L 112.599895 14.074303 
L 109.439429 14.593804 
L 104.479353 15.735787 
L 102.33239 16.35912 
L 96.661827 18.401147 
L 94.280115 19.43786 
L 89.315791 21.960098 
L 84.287912 25.043304 
L 80.067931 28.072702 
L 76.126576 31.293201 
L 72.287958 34.819178 
L 68.590901 38.605331 
L 65.456083 42.137733 
L 61.508322 47.040395 
L 59.035678 50.388674 
L 56.553476 53.981237 
L 52.837812 59.827149 
L 48.770434 66.937852 
L 45.271751 73.7263 
L 42.113051 80.463032 
L 39.840972 85.711684 
L 37.249433 92.163674 
L 34.250661 100.339538 
L 31.828126 107.596283 
L 29.287466 115.958549 
L 27.041387 124.130736 
L 24.652453 133.837036 
L 23.187162 140.447288 
L 21.162892 150.672454 
L 19.729413 158.952055 
L 18.489251 167.115237 
L 17.256957 176.613497 
L 16.278481 185.787359 
L 15.541085 194.499529 
L 14.881572 205.459868 
L 14.555537 215.073888 
L 14.474429 224.324235 
L 14.608796 232.686326 
L 15.011632 242.057238 
L 15.579935 249.986016 
L 16.282953 257.068876 
L 17.222111 264.358882 
L 18.269399 270.863461 
L 19.493968 277.132114 
L 21.171279 284.189138 
L 22.489541 288.860976 
L 23.980983 293.455354 
L 25.158896 296.665506 
L 27.611135 302.405214 
L 28.788421 304.784435 
L 31.138761 308.935391 
L 33.468172 312.381554 
L 35.91086 315.396943 
L 37.945557 317.505497 
L 40.901596 320.002613 
L 41.446921 320.396799 
L 44.694638 322.359242 
L 46.035775 322.991202 
L 49.196687 324.109703 
L 50.466964 324.422855 
L 52.839853 324.814826 
L 55.09616 324.969231 
L 58.565688 324.825329 
L 61.822586 324.305241 
L 64.011437 323.76285 
L 67.656053 322.541797 
L 68.415847 322.239868 
L 72.637634 320.284052 
L 72.637634 320.284052 
" clip-path="url(#p3d1328c9ee)" style="fill: none; stroke: #000000; stroke-linecap: square"/>
   </g>
   <g id="patch_3">
    <path d="M 100.085855 17.09815 
Q 99.983462 17.134085 101.990975 16.429552 
" clip-path="url(#p3d1328c9ee)" style="fill: none; stroke: #000000; stroke-width: 2; stroke-linecap: round"/>
    <path d="M 113.082502 17.835974 
L 101.990975 16.429552 
L 109.771029 8.400183 
z
" clip-path="url(#p3d1328c9ee)" style="stroke: #000000; stroke-width: 2; stroke-linecap: round"/>
   </g>
   <g id="text_1">
    <g clip-path="url(#p3d1328c9ee)">
     <!-- $P$ -->
     <g transform="translate(361.144653 272.451797) scale(0.25 -0.25)">
      <defs>
       <path id="Cmmi10-50" d="M 313 0 
Q 250 0 250 84 
Q 253 100 262 139 
Q 272 178 289 201 
Q 306 225 331 225 
Q 722 225 878 269 
Q 959 297 997 441 
L 1875 3956 
Q 1888 4019 1888 4044 
Q 1888 4113 1813 4122 
Q 1691 4147 1350 4147 
Q 1288 4147 1288 4231 
Q 1291 4247 1300 4286 
Q 1309 4325 1326 4348 
Q 1344 4372 1369 4372 
L 3578 4372 
Q 3881 4372 4165 4264 
Q 4450 4156 4631 3934 
Q 4813 3713 4813 3397 
Q 4813 2991 4527 2672 
Q 4241 2353 3814 2175 
Q 3388 1997 2988 1997 
L 1947 1997 
L 1556 416 
Q 1544 353 1544 325 
Q 1544 300 1551 283 
Q 1559 266 1573 261 
Q 1588 256 1619 250 
Q 1741 225 2081 225 
Q 2144 225 2144 141 
Q 2122 50 2109 25 
Q 2097 0 2034 0 
L 313 0 
z
M 1978 2188 
L 2875 2188 
Q 3497 2188 3822 2522 
Q 3988 2688 4092 3000 
Q 4197 3313 4197 3566 
Q 4197 3881 3956 4014 
Q 3716 4147 3359 4147 
L 2747 4147 
Q 2572 4147 2515 4117 
Q 2459 4088 2413 3928 
L 1978 2188 
z
" transform="scale(0.015625)"/>
      </defs>
      <use xlink:href="#Cmmi10-50" transform="translate(0 0.6875)"/>
     </g>
    </g>
   </g>
   <g id="text_2">
    <g clip-path="url(#p3d1328c9ee)">
     <!-- $Q$ -->
     <g transform="translate(84.95326 322.719364) scale(0.25 -0.25)">
      <defs>
       <path id="Cmmi10-51" d="M 1947 -141 
Q 1466 -141 1094 79 
Q 722 300 520 692 
Q 319 1084 319 1563 
Q 319 2259 714 2950 
Q 1109 3641 1756 4077 
Q 2403 4513 3109 4513 
Q 3475 4513 3778 4381 
Q 4081 4250 4290 4017 
Q 4500 3784 4614 3471 
Q 4728 3159 4728 2791 
Q 4728 2366 4581 1936 
Q 4434 1506 4171 1136 
Q 3909 766 3559 484 
Q 3209 203 2809 38 
Q 2850 -256 2934 -425 
Q 3019 -594 3256 -594 
Q 3506 -594 3726 -412 
Q 3947 -231 4006 13 
Q 4019 72 4078 72 
Q 4147 72 4147 -13 
Q 4100 -219 4008 -430 
Q 3916 -641 3786 -823 
Q 3656 -1006 3478 -1123 
Q 3300 -1241 3084 -1241 
Q 2547 -1241 2547 -550 
Q 2547 -509 2562 -332 
Q 2578 -156 2578 -44 
Q 2269 -141 1947 -141 
z
M 1709 300 
Q 1709 44 1991 44 
Q 2275 44 2591 184 
L 2591 244 
Q 2591 503 2509 648 
Q 2428 794 2194 794 
Q 2078 794 1964 723 
Q 1850 653 1779 539 
Q 1709 425 1709 300 
z
M 1544 288 
Q 1544 456 1637 612 
Q 1731 769 1881 864 
Q 2031 959 2203 959 
Q 2481 959 2607 771 
Q 2734 584 2778 281 
Q 3188 525 3500 978 
Q 3813 1431 3977 1973 
Q 4141 2516 4141 3003 
Q 4141 3356 4023 3656 
Q 3906 3956 3664 4140 
Q 3422 4325 3066 4325 
Q 2722 4325 2403 4156 
Q 2084 3988 1813 3706 
Q 1550 3434 1342 3032 
Q 1134 2631 1021 2193 
Q 909 1756 909 1356 
Q 909 947 1068 612 
Q 1228 278 1569 128 
Q 1544 194 1544 288 
z
" transform="scale(0.015625)"/>
      </defs>
      <use xlink:href="#Cmmi10-51" transform="translate(0 0.484375)"/>
     </g>
    </g>
   </g>
  </g>
 </g>
 <defs>
  <clipPath id="p3d1328c9ee">
   <rect x="7.2" y="7.2" width="378.270333" height="324"/>
  </clipPath>
 </defs>
</svg>
