<?xml version="1.0" encoding="utf-8" standalone="no"?>
<!DOCTYPE svg PUBLIC "-//W3C//DTD SVG 1.1//EN"
  "http://www.w3.org/Graphics/SVG/1.1/DTD/svg11.dtd">
<svg xmlns:xlink="http://www.w3.org/1999/xlink" width="392.662877pt" height="338.4pt" viewBox="0 0 392.662877 338.4" xmlns="http://www.w3.org/2000/svg" version="1.1">
 <metadata>
  <rdf:RDF xmlns:dc="http://purl.org/dc/elements/1.1/" xmlns:cc="http://creativecommons.org/ns#" xmlns:rdf="http://www.w3.org/1999/02/22-rdf-syntax-ns#">
   <cc:Work>
    <dc:type rdf:resource="http://purl.org/dc/dcmitype/StillImage"/>
    <dc:date>2025-07-25T20:20:40.999274</dc:date>
    <dc:format>image/svg+xml</dc:format>
    <dc:creator>
     <cc:Agent>
      <dc:title>Matplotlib v3.10.3, https://matplotlib.org/</dc:title>
     </cc:Agent>
    </dc:creator>
   </cc:Work>
  </rdf:RDF>
 </metadata>
 <defs>
  <style type="text/css">*{stroke-linejoin: round; stroke-linecap: butt}</style>
 </defs>
 <g id="figure_1">
  <g id="patch_1">
   <path d="M 0 338.4 
L 392.662877 338.4 
L 392.662877 0 
L 0 0 
z
" style="fill: #ffffff"/>
  </g>
  <g id="axes_1">
   <g id="patch_2">
    <path d="M 7.2 331.2 
L 385.462877 331.2 
L 385.462877 7.2 
L 7.2 7.2 
z
" style="fill: #ffffff"/>
   </g>
   <g id="PathCollection_1">
    <path d="M 137.724186 100.667391 
C 138.661821 100.667391 139.561178 100.294865 140.224186 99.631857 
C 140.887194 98.96885 141.25972 98.069492 141.25972 97.131857 
C 141.25972 96.194223 140.887194 95.294865 140.224186 94.631857 
C 139.561178 93.96885 138.661821 93.596323 137.724186 93.596323 
C 136.786551 93.596323 135.887194 93.96885 135.224186 94.631857 
C 134.561178 95.294865 134.188652 96.194223 134.188652 97.131857 
C 134.188652 98.069492 134.561178 98.96885 135.224186 99.631857 
C 135.887194 100.294865 136.786551 100.667391 137.724186 100.667391 
z
" clip-path="url(#p9d6335a44b)"/>
   </g>
   <g id="matplotlib.axis_1"/>
   <g id="matplotlib.axis_2"/>
   <g id="line2d_1">
    <path d="M 378.18859 243.237776 
L 346.164385 203.659391 
L 322.127629 174.129002 
L 308.354846 157.49641 
L 295.677312 142.476364 
L 281.818698 126.468959 
L 269.91674 113.142151 
L 262.474406 105.038653 
L 252.818905 94.822447 
L 243.885767 85.700795 
L 236.242301 78.173072 
L 229.22861 71.509386 
L 221.240943 64.226673 
L 215.540185 59.242278 
L 206.742993 51.92458 
L 200.559687 47.070677 
L 197.192692 44.53382 
L 190.108102 39.453138 
L 183.507418 35.049701 
L 179.675481 32.647298 
L 171.525997 27.935505 
L 164.722667 24.440108 
L 160.967827 22.691539 
L 153.667716 19.680149 
L 151.040723 18.727302 
L 145.519488 16.961486 
L 141.954049 15.998172 
L 135.87585 14.692237 
L 132.549389 14.164825 
L 129.090355 13.763095 
L 123.974319 13.454585 
L 119.144173 13.491283 
L 116.330764 13.666382 
L 110.695495 14.374771 
L 107.676569 14.959416 
L 102.508653 16.311299 
L 97.912928 17.90624 
L 93.541556 19.788166 
L 89.111142 22.081438 
L 84.694205 24.779993 
L 82.726034 26.122493 
L 79.961966 28.160883 
L 75.194784 32.119514 
L 73.047694 34.09633 
L 68.975472 38.199772 
L 65.27367 42.359952 
L 61.005447 47.710728 
L 56.632521 53.870666 
L 53.006494 59.556692 
L 49.831556 65.014008 
L 47.06245 70.177205 
L 43.200447 78.082598 
L 40.861104 83.319684 
L 37.47542 91.589288 
L 34.010754 101.040599 
L 31.698645 108.013438 
L 28.653481 118.195732 
L 25.809481 129.001113 
L 24.12203 136.178406 
L 22.372993 144.402776 
L 20.168765 156.319188 
L 18.370099 167.983879 
L 17.038438 178.528429 
L 15.937195 189.580696 
L 15.040773 202.349277 
L 14.600699 213.282159 
L 14.474286 223.015174 
L 14.558157 230.572165 
L 14.934047 240.615345 
L 15.547293 249.570405 
L 16.033077 254.741811 
L 17.121198 263.636466 
L 18.236936 270.66479 
L 19.964313 279.250123 
L 21.555704 285.609465 
L 23.183438 291.070768 
L 24.810582 295.742708 
L 25.935292 298.602457 
L 27.795602 302.786197 
L 29.780811 306.622399 
L 31.309272 309.203353 
L 33.452142 312.355037 
L 35.482855 314.904287 
L 37.236067 316.804713 
L 39.956539 319.268431 
L 42.393952 321.032273 
L 43.935978 321.954047 
L 46.881988 323.33737 
L 48.605026 323.93529 
L 50.114791 324.340891 
L 51.733368 324.65996 
L 54.272597 324.934234 
L 56.890123 324.948044 
L 58.909555 324.785355 
L 61.761816 324.316257 
L 63.401768 323.92702 
L 65.723781 323.235307 
L 67.865417 322.458526 
L 70.343815 321.402413 
L 72.638736 320.281973 
L 72.638736 320.281973 
" clip-path="url(#p9d6335a44b)" style="fill: none; stroke: #ffffff; stroke-linecap: square"/>
   </g>
   <g id="line2d_2">
    <path d="M 72.638736 320.281973 
L 77.109528 316.183774 
L 81.739827 311.647218 
L 86.503943 306.608477 
L 90.235458 302.344694 
L 94.234593 297.396904 
L 97.422283 293.11132 
L 100.262942 288.978927 
L 103.005401 284.646101 
L 105.450199 280.432609 
L 108.422322 274.739688 
L 110.496836 270.283551 
L 112.475031 265.54162 
L 114.496464 260.024278 
L 116.251489 254.455652 
L 117.528508 249.744623 
L 118.860445 243.94115 
L 119.903119 238.409912 
L 120.82028 232.324705 
L 121.582214 225.646101 
L 122.081192 219.603664 
L 122.525336 211.272032 
L 122.757852 202.635686 
L 122.846954 189.378914 
L 122.959741 168.885747 
L 123.223891 160.188145 
L 123.683916 152.197058 
L 124.36633 144.673873 
L 125.113195 138.724496 
L 125.970441 133.343067 
L 127.109215 127.550515 
L 128.512817 121.693096 
L 129.860987 116.921539 
L 131.410517 112.141773 
L 133.439476 106.687805 
L 135.413551 102.015445 
L 137.724186 97.131857 
L 137.724186 97.131857 
" clip-path="url(#p9d6335a44b)" style="fill: none; stroke: #000000; stroke-linecap: square"/>
   </g>
   <g id="patch_3">
    <path d="M 122.847512 186.391903 
Q 122.847519 185.945603 122.847489 187.735371 
" clip-path="url(#p9d6335a44b)" style="fill: none; stroke: #000000; stroke-width: 2; stroke-linecap: round"/>
    <path d="M 117.847323 197.735288 
L 122.847489 187.735371 
L 127.847323 197.735454 
z
" clip-path="url(#p9d6335a44b)" style="stroke: #000000; stroke-width: 2; stroke-linecap: round"/>
   </g>
   <g id="text_1">
    <g clip-path="url(#p9d6335a44b)">
     <!-- $Q$ -->
     <g transform="translate(89.41675 318.254406) scale(0.25 -0.25)">
      <defs>
       <path id="Cmmi10-51" d="M 1947 -141 
Q 1466 -141 1094 79 
Q 722 300 520 692 
Q 319 1084 319 1563 
Q 319 2259 714 2950 
Q 1109 3641 1756 4077 
Q 2403 4513 3109 4513 
Q 3475 4513 3778 4381 
Q 4081 4250 4290 4017 
Q 4500 3784 4614 3471 
Q 4728 3159 4728 2791 
Q 4728 2366 4581 1936 
Q 4434 1506 4171 1136 
Q 3909 766 3559 484 
Q 3209 203 2809 38 
Q 2850 -256 2934 -425 
Q 3019 -594 3256 -594 
Q 3506 -594 3726 -412 
Q 3947 -231 4006 13 
Q 4019 72 4078 72 
Q 4147 72 4147 -13 
Q 4100 -219 4008 -430 
Q 3916 -641 3786 -823 
Q 3656 -1006 3478 -1123 
Q 3300 -1241 3084 -1241 
Q 2547 -1241 2547 -550 
Q 2547 -509 2562 -332 
Q 2578 -156 2578 -44 
Q 2269 -141 1947 -141 
z
M 1709 300 
Q 1709 44 1991 44 
Q 2275 44 2591 184 
L 2591 244 
Q 2591 503 2509 648 
Q 2428 794 2194 794 
Q 2078 794 1964 723 
Q 1850 653 1779 539 
Q 1709 425 1709 300 
z
M 1544 288 
Q 1544 456 1637 612 
Q 1731 769 1881 864 
Q 2031 959 2203 959 
Q 2481 959 2607 771 
Q 2734 584 2778 281 
Q 3188 525 3500 978 
Q 3813 1431 3977 1973 
Q 4141 2516 4141 3003 
Q 4141 3356 4023 3656 
Q 3906 3956 3664 4140 
Q 3422 4325 3066 4325 
Q 2722 4325 2403 4156 
Q 2084 3988 1813 3706 
Q 1550 3434 1342 3032 
Q 1134 2631 1021 2193 
Q 909 1756 909 1356 
Q 909 947 1068 612 
Q 1228 278 1569 128 
Q 1544 194 1544 288 
z
" transform="scale(0.015625)"/>
      </defs>
      <use xlink:href="#Cmmi10-51" transform="translate(0 0.484375)"/>
     </g>
    </g>
   </g>
   <g id="text_2">
    <g clip-path="url(#p9d6335a44b)">
     <!-- $R$ -->
     <g transform="translate(105.909174 117.419302) scale(0.25 -0.25)">
      <defs>
       <path id="Cmmi10-52" d="M 313 0 
Q 250 0 250 84 
Q 253 100 262 139 
Q 272 178 289 201 
Q 306 225 331 225 
Q 722 225 878 269 
Q 959 297 997 441 
L 1875 3956 
Q 1888 4019 1888 4044 
Q 1888 4113 1813 4122 
Q 1691 4147 1350 4147 
Q 1288 4147 1288 4231 
Q 1291 4247 1300 4286 
Q 1309 4325 1326 4348 
Q 1344 4372 1369 4372 
L 3309 4372 
Q 3541 4372 3791 4319 
Q 4041 4266 4250 4152 
Q 4459 4038 4593 3848 
Q 4728 3659 4728 3406 
Q 4728 3084 4515 2831 
Q 4303 2578 3978 2408 
Q 3653 2238 3347 2169 
Q 3597 2078 3756 1879 
Q 3916 1681 3916 1422 
Q 3916 1388 3914 1370 
Q 3913 1353 3909 1331 
L 3859 763 
Q 3853 638 3847 550 
Q 3841 463 3841 409 
Q 3841 234 3892 129 
Q 3944 25 4097 25 
Q 4297 25 4448 211 
Q 4600 397 4647 616 
Q 4675 672 4709 672 
L 4769 672 
Q 4831 672 4831 588 
Q 4784 403 4682 237 
Q 4581 72 4426 -34 
Q 4272 -141 4091 -141 
Q 3716 -141 3452 26 
Q 3188 194 3188 550 
Q 3188 684 3213 788 
L 3353 1356 
Q 3378 1434 3378 1538 
Q 3378 1803 3198 1954 
Q 3019 2106 2747 2106 
L 1959 2106 
L 1538 416 
Q 1522 363 1522 325 
Q 1522 259 1600 250 
Q 1722 225 2059 225 
Q 2125 225 2125 141 
Q 2103 50 2090 25 
Q 2078 0 2016 0 
L 313 0 
z
M 1997 2272 
L 2706 2272 
Q 3403 2272 3756 2625 
Q 3919 2788 4014 3039 
Q 4109 3291 4109 3541 
Q 4109 3778 3970 3912 
Q 3831 4047 3626 4097 
Q 3422 4147 3175 4147 
L 2747 4147 
Q 2572 4147 2515 4117 
Q 2459 4088 2413 3928 
L 1997 2272 
z
" transform="scale(0.015625)"/>
      </defs>
      <use xlink:href="#Cmmi10-52" transform="translate(0 0.6875)"/>
     </g>
    </g>
   </g>
   <g id="PathCollection_2">
    <path d="M 72.638736 323.817507 
C 73.57637 323.817507 74.475728 323.444981 75.138736 322.781973 
C 75.801743 322.118965 76.17427 321.219607 76.17427 320.281973 
C 76.17427 319.344338 75.801743 318.444981 75.138736 317.781973 
C 74.475728 317.118965 73.57637 316.746439 72.638736 316.746439 
C 71.701101 316.746439 70.801743 317.118965 70.138736 317.781973 
C 69.475728 318.444981 69.103202 319.344338 69.103202 320.281973 
C 69.103202 321.219607 69.475728 322.118965 70.138736 322.781973 
C 70.801743 323.444981 71.701101 323.817507 72.638736 323.817507 
z
" clip-path="url(#p9d6335a44b)"/>
   </g>
  </g>
 </g>
 <defs>
  <clipPath id="p9d6335a44b">
   <rect x="7.2" y="7.2" width="378.262877" height="324"/>
  </clipPath>
 </defs>
</svg>
