<?xml version="1.0" encoding="utf-8" standalone="no"?>
<!DOCTYPE svg PUBLIC "-//W3C//DTD SVG 1.1//EN"
  "http://www.w3.org/Graphics/SVG/1.1/DTD/svg11.dtd">
<svg xmlns:xlink="http://www.w3.org/1999/xlink" width="453.6pt" height="267.393743pt" viewBox="0 0 453.6 267.393743" xmlns="http://www.w3.org/2000/svg" version="1.1">
 <metadata>
  <rdf:RDF xmlns:dc="http://purl.org/dc/elements/1.1/" xmlns:cc="http://creativecommons.org/ns#" xmlns:rdf="http://www.w3.org/1999/02/22-rdf-syntax-ns#">
   <cc:Work>
    <dc:type rdf:resource="http://purl.org/dc/dcmitype/StillImage"/>
    <dc:date>2025-12-10T16:53:58.717283</dc:date>
    <dc:format>image/svg+xml</dc:format>
    <dc:creator>
     <cc:Agent>
      <dc:title>Matplotlib v3.10.5, https://matplotlib.org/</dc:title>
     </cc:Agent>
    </dc:creator>
   </cc:Work>
  </rdf:RDF>
 </metadata>
 <defs>
  <style type="text/css">*{stroke-linejoin: round; stroke-linecap: butt}</style>
 </defs>
 <g id="figure_1">
  <g id="patch_1">
   <path d="M 0 267.393743 
L 453.6 267.393743 
L 453.6 0 
L 0 0 
z
" style="fill: #ffffff"/>
  </g>
  <g id="axes_1">
   <g id="patch_2">
    <path d="M 7.2 260.193743 
L 446.4 260.193743 
L 446.4 7.2 
L 7.2 7.2 
z
" style="fill: #ffffff"/>
   </g>
   <g id="PathCollection_1">
    <path d="M 149.963986 105.129896 
C 150.802632 105.129896 151.607042 104.796698 152.200054 104.203686 
C 152.793066 103.610674 153.126264 102.806264 153.126264 101.967618 
C 153.126264 101.128972 152.793066 100.324562 152.200054 99.73155 
C 151.607042 99.138538 150.802632 98.80534 149.963986 98.80534 
C 149.125341 98.80534 148.320931 99.138538 147.727918 99.73155 
C 147.134906 100.324562 146.801709 101.128972 146.801709 101.967618 
C 146.801709 102.806264 147.134906 103.610674 147.727918 104.203686 
C 148.320931 104.796698 149.125341 105.129896 149.963986 105.129896 
z
" clip-path="url(#pb4df95a622)"/>
   </g>
   <g id="PathCollection_2">
    <path d="M 437.953846 258.490757 
C 438.792492 258.490757 439.596902 258.157559 440.189914 257.564547 
C 440.782926 256.971535 441.116124 256.167125 441.116124 255.328479 
C 441.116124 254.489833 440.782926 253.685423 440.189914 253.092411 
C 439.596902 252.499399 438.792492 252.166201 437.953846 252.166201 
C 437.1152 252.166201 436.31079 252.499399 435.717778 253.092411 
C 435.124766 253.685423 434.791568 254.489833 434.791568 255.328479 
C 434.791568 256.167125 435.124766 256.971535 435.717778 257.564547 
C 436.31079 258.157559 437.1152 258.490757 437.953846 258.490757 
z
" clip-path="url(#pb4df95a622)"/>
   </g>
   <g id="PathCollection_3">
    <path d="M 285.914337 15.227542 
C 286.752983 15.227542 287.557393 14.894344 288.150405 14.301332 
C 288.743417 13.70832 289.076615 12.90391 289.076615 12.065264 
C 289.076615 11.226618 288.743417 10.422208 288.150405 9.829196 
C 287.557393 9.236184 286.752983 8.902987 285.914337 8.902987 
C 285.075691 8.902987 284.271281 9.236184 283.678269 9.829196 
C 283.085257 10.422208 282.752059 11.226618 282.752059 12.065264 
C 282.752059 12.90391 283.085257 13.70832 283.678269 14.301332 
C 284.271281 14.894344 285.075691 15.227542 285.914337 15.227542 
z
" clip-path="url(#pb4df95a622)"/>
   </g>
   <g id="matplotlib.axis_1"/>
   <g id="matplotlib.axis_2"/>
   <g id="line2d_1">
    <path d="M 437.953846 255.328479 
L 424.831658 245.469124 
L 417.412291 239.996048 
L 399.756315 227.272069 
L 387.187673 218.47711 
L 370.057939 206.851436 
L 360.384969 200.474585 
L 342.116218 188.81116 
L 331.283376 182.135527 
L 327.188908 179.659963 
L 310.803153 170.0199 
L 301.8604 164.942616 
L 288.287439 157.49175 
L 275.519014 150.77114 
L 258.626045 142.324908 
L 246.072695 136.389163 
L 232.33341 130.23924 
L 222.364988 126.012265 
L 211.258407 121.544226 
L 201.123571 117.69727 
L 187.962514 113.043427 
L 184.630923 111.928748 
L 174.733151 108.773832 
L 162.498438 105.210484 
L 154.787166 103.164931 
L 147.533324 101.388831 
L 136.821138 99.041404 
L 129.048689 97.55476 
L 121.421445 96.283391 
L 115.060024 95.37269 
L 105.458592 94.272513 
L 97.480103 93.627616 
L 91.991024 93.336866 
L 85.103792 93.161914 
L 77.211463 93.243774 
L 69.874332 93.619714 
L 61.935618 94.395686 
L 55.325577 95.379234 
L 49.220708 96.607713 
L 45.611172 97.50256 
L 40.402292 99.055611 
L 36.285686 100.545001 
L 31.951667 102.429206 
L 28.661461 104.139788 
L 25.25027 106.263786 
L 23.043108 107.905305 
L 21.347041 109.373181 
L 19.665958 111.090371 
L 17.876902 113.407861 
L 17.312899 114.32699 
L 16.281439 116.55116 
L 15.737628 118.676501 
L 15.648741 119.460218 
L 15.737957 121.659199 
L 16.070242 123.048363 
L 16.598738 124.353815 
L 17.567629 125.950235 
L 18.401158 126.97027 
L 19.179689 127.759636 
L 20.659174 128.983613 
L 22.43368 130.139666 
L 24.76176 131.321493 
L 26.900731 132.173349 
L 30.266223 133.188946 
L 33.831418 133.941895 
L 37.642696 134.467151 
L 41.548014 134.766123 
L 45.068754 134.862885 
L 48.871366 134.809495 
L 53.75255 134.532078 
L 60.113623 133.86603 
L 64.425937 133.242421 
L 71.15044 132.024837 
L 78.932529 130.282964 
L 85.836973 128.470451 
L 94.695405 125.814279 
L 101.413699 123.57298 
L 110.561619 120.232339 
L 116.663843 117.830922 
L 128.214818 112.933172 
L 135.963715 109.405093 
L 145.060145 105.030471 
L 155.747056 99.586937 
L 163.742044 95.310644 
L 171.189045 91.177365 
L 181.446775 85.256538 
L 192.922963 78.333146 
L 206.606005 69.684896 
L 215.77327 63.661572 
L 231.333828 53.034981 
L 243.617051 44.302776 
L 256.322475 34.964127 
L 269.012232 25.336928 
L 278.712118 17.782001 
L 285.914337 12.065264 
L 285.914337 12.065264 
" clip-path="url(#pb4df95a622)" style="fill: none; stroke: #1e88e5; stroke-width: 2; stroke-linecap: square"/>
   </g>
   <g id="patch_3">
    <path d="M 222.564541 126.094896 
Q 221.974121 125.851012 223.450395 126.460814 
" clip-path="url(#pb4df95a622)" style="fill: none; stroke: #1e88e5; stroke-width: 2; stroke-linecap: round"/>
    <path d="M 230.78403 134.899878 
L 223.450395 126.460814 
L 234.601827 125.657344 
z
" clip-path="url(#pb4df95a622)" style="fill: #1e88e5; stroke: #1e88e5; stroke-width: 2; stroke-linecap: round"/>
   </g>
   <g id="patch_4">
    <path d="M 53.631753 95.686994 
Q 53.379199 95.735252 55.322977 95.363841 
" clip-path="url(#pb4df95a622)" style="fill: none; stroke: #1e88e5; stroke-width: 2; stroke-linecap: round"/>
    <path d="M 66.083684 98.398176 
L 55.322977 95.363841 
L 64.206869 88.575876 
z
" clip-path="url(#pb4df95a622)" style="fill: #1e88e5; stroke: #1e88e5; stroke-width: 2; stroke-linecap: round"/>
   </g>
   <g id="patch_5">
    <path d="M 210.908179 66.880575 
Q 211.483395 66.502255 210.190396 67.352662 
" clip-path="url(#pb4df95a622)" style="fill: none; stroke: #1e88e5; stroke-width: 2; stroke-linecap: round"/>
    <path d="M 199.087965 68.670244 
L 210.190396 67.352662 
L 204.583003 77.025156 
z
" clip-path="url(#pb4df95a622)" style="fill: #1e88e5; stroke: #1e88e5; stroke-width: 2; stroke-linecap: round"/>
   </g>
   <g id="text_1">
    <g clip-path="url(#pb4df95a622)">
     <!-- $C_1$ -->
     <g style="fill: #1e88e5" transform="translate(220.555845 166.244868) scale(0.2 -0.2)">
      <defs>
       <path id="Cmmi10-43" d="M 934 1381 
Q 934 997 1082 705 
Q 1231 413 1514 248 
Q 1797 84 2181 84 
Q 2584 84 2957 290 
Q 3331 497 3595 842 
Q 3859 1188 3956 1575 
Q 3969 1613 4006 1613 
L 4084 1613 
Q 4109 1613 4125 1595 
Q 4141 1578 4141 1556 
Q 4141 1550 4134 1538 
Q 4025 1094 3711 705 
Q 3397 316 2959 87 
Q 2522 -141 2059 -141 
Q 1559 -141 1162 84 
Q 766 309 545 709 
Q 325 1109 325 1613 
Q 325 2150 565 2676 
Q 806 3203 1212 3614 
Q 1619 4025 2139 4269 
Q 2659 4513 3194 4513 
Q 3406 4513 3600 4448 
Q 3794 4384 3959 4253 
Q 4125 4122 4231 3950 
L 4738 4500 
Q 4738 4513 4769 4513 
L 4806 4513 
Q 4831 4513 4847 4491 
Q 4863 4469 4863 4447 
L 4428 2719 
Q 4428 2675 4378 2675 
L 4263 2675 
Q 4213 2675 4213 2747 
Q 4238 2888 4238 3084 
Q 4238 3397 4131 3673 
Q 4025 3950 3801 4119 
Q 3578 4288 3256 4288 
Q 2734 4288 2300 4025 
Q 1866 3763 1564 3336 
Q 1263 2909 1098 2389 
Q 934 1869 934 1381 
z
" transform="scale(0.015625)"/>
       <path id="Cmr10-31" d="M 594 0 
L 594 225 
Q 1394 225 1394 428 
L 1394 3788 
Q 1063 3628 556 3628 
L 556 3853 
Q 1341 3853 1741 4263 
L 1831 4263 
Q 1853 4263 1873 4245 
Q 1894 4228 1894 4206 
L 1894 428 
Q 1894 225 2694 225 
L 2694 0 
L 594 0 
z
" transform="scale(0.015625)"/>
      </defs>
      <use xlink:href="#Cmmi10-43" transform="translate(0 0.484375)"/>
      <use xlink:href="#Cmr10-31" transform="translate(71.386719 -16.521875) scale(0.7)"/>
     </g>
    </g>
   </g>
   <g id="text_2">
    <g clip-path="url(#pb4df95a622)">
     <!-- $C_2$ -->
     <g style="fill: #1e88e5" transform="translate(71.894991 115.565031) scale(0.2 -0.2)">
      <defs>
       <path id="Cmr10-32" d="M 319 0 
L 319 172 
Q 319 188 331 206 
L 1325 1306 
Q 1550 1550 1690 1715 
Q 1831 1881 1968 2097 
Q 2106 2313 2186 2536 
Q 2266 2759 2266 3009 
Q 2266 3272 2169 3511 
Q 2072 3750 1880 3894 
Q 1688 4038 1416 4038 
Q 1138 4038 916 3870 
Q 694 3703 603 3438 
Q 628 3444 672 3444 
Q 816 3444 917 3347 
Q 1019 3250 1019 3097 
Q 1019 2950 917 2848 
Q 816 2747 672 2747 
Q 522 2747 420 2851 
Q 319 2956 319 3097 
Q 319 3338 409 3548 
Q 500 3759 670 3923 
Q 841 4088 1055 4175 
Q 1269 4263 1509 4263 
Q 1875 4263 2190 4108 
Q 2506 3953 2690 3670 
Q 2875 3388 2875 3009 
Q 2875 2731 2753 2481 
Q 2631 2231 2440 2026 
Q 2250 1822 1953 1562 
Q 1656 1303 1563 1216 
L 838 519 
L 1453 519 
Q 1906 519 2211 526 
Q 2516 534 2534 550 
Q 2609 631 2688 1141 
L 2875 1141 
L 2694 0 
L 319 0 
z
" transform="scale(0.015625)"/>
      </defs>
      <use xlink:href="#Cmmi10-43" transform="translate(0 0.484375)"/>
      <use xlink:href="#Cmr10-32" transform="translate(71.386719 -16.521875) scale(0.7)"/>
     </g>
    </g>
   </g>
   <g id="text_3">
    <g clip-path="url(#pb4df95a622)">
     <!-- $C_3$ -->
     <g style="fill: #1e88e5" transform="translate(193.526599 47.991916) scale(0.2 -0.2)">
      <defs>
       <path id="Cmr10-33" d="M 609 494 
Q 759 275 1012 169 
Q 1266 63 1556 63 
Q 1928 63 2084 380 
Q 2241 697 2241 1100 
Q 2241 1281 2208 1462 
Q 2175 1644 2097 1800 
Q 2019 1956 1883 2050 
Q 1747 2144 1550 2144 
L 1125 2144 
Q 1069 2144 1069 2203 
L 1069 2259 
Q 1069 2309 1125 2309 
L 1478 2338 
Q 1703 2338 1851 2506 
Q 2000 2675 2069 2917 
Q 2138 3159 2138 3378 
Q 2138 3684 1994 3881 
Q 1850 4078 1556 4078 
Q 1313 4078 1091 3986 
Q 869 3894 738 3706 
Q 750 3709 759 3711 
Q 769 3713 781 3713 
Q 925 3713 1022 3613 
Q 1119 3513 1119 3372 
Q 1119 3234 1022 3134 
Q 925 3034 781 3034 
Q 641 3034 541 3134 
Q 441 3234 441 3372 
Q 441 3647 606 3850 
Q 772 4053 1033 4158 
Q 1294 4263 1556 4263 
Q 1750 4263 1965 4205 
Q 2181 4147 2356 4039 
Q 2531 3931 2642 3762 
Q 2753 3594 2753 3378 
Q 2753 3109 2633 2881 
Q 2513 2653 2303 2487 
Q 2094 2322 1844 2241 
Q 2122 2188 2372 2031 
Q 2622 1875 2773 1631 
Q 2925 1388 2925 1106 
Q 2925 753 2731 467 
Q 2538 181 2222 20 
Q 1906 -141 1556 -141 
Q 1256 -141 954 -26 
Q 653 88 461 316 
Q 269 544 269 863 
Q 269 1022 375 1128 
Q 481 1234 641 1234 
Q 744 1234 830 1186 
Q 916 1138 964 1050 
Q 1013 963 1013 863 
Q 1013 706 903 600 
Q 794 494 641 494 
L 609 494 
z
" transform="scale(0.015625)"/>
      </defs>
      <use xlink:href="#Cmmi10-43" transform="translate(0 0.484375)"/>
      <use xlink:href="#Cmr10-33" transform="translate(71.386719 -16.521875) scale(0.7)"/>
     </g>
    </g>
   </g>
  </g>
 </g>
 <defs>
  <clipPath id="pb4df95a622">
   <rect x="7.2" y="7.2" width="439.2" height="252.993743"/>
  </clipPath>
 </defs>
</svg>
