<?xml version="1.0" encoding="utf-8" standalone="no"?>
<!DOCTYPE svg PUBLIC "-//W3C//DTD SVG 1.1//EN"
  "http://www.w3.org/Graphics/SVG/1.1/DTD/svg11.dtd">
<svg xmlns:xlink="http://www.w3.org/1999/xlink" width="453.6pt" height="267.382727pt" viewBox="0 0 453.6 267.382727" xmlns="http://www.w3.org/2000/svg" version="1.1">
 <metadata>
  <rdf:RDF xmlns:dc="http://purl.org/dc/elements/1.1/" xmlns:cc="http://creativecommons.org/ns#" xmlns:rdf="http://www.w3.org/1999/02/22-rdf-syntax-ns#">
   <cc:Work>
    <dc:type rdf:resource="http://purl.org/dc/dcmitype/StillImage"/>
    <dc:date>2025-11-05T14:56:25.112301</dc:date>
    <dc:format>image/svg+xml</dc:format>
    <dc:creator>
     <cc:Agent>
      <dc:title>Matplotlib v3.10.3, https://matplotlib.org/</dc:title>
     </cc:Agent>
    </dc:creator>
   </cc:Work>
  </rdf:RDF>
 </metadata>
 <defs>
  <style type="text/css">*{stroke-linejoin: round; stroke-linecap: butt}</style>
 </defs>
 <g id="figure_1">
  <g id="patch_1">
   <path d="M 0 267.382727 
L 453.6 267.382727 
L 453.6 0 
L 0 0 
z
" style="fill: #ffffff"/>
  </g>
  <g id="axes_1">
   <g id="patch_2">
    <path d="M 7.2 260.182727 
L 446.4 260.182727 
L 446.4 7.2 
L 7.2 7.2 
z
" style="fill: #ffffff"/>
   </g>
   <g id="PathCollection_1">
    <path d="M 149.976527 105.125769 
C 150.815173 105.125769 151.619583 104.792572 152.212595 104.199559 
C 152.805607 103.606547 153.138805 102.802137 153.138805 101.963491 
C 153.138805 101.124846 152.805607 100.320436 152.212595 99.727423 
C 151.619583 99.134411 150.815173 98.801214 149.976527 98.801214 
C 149.137881 98.801214 148.333471 99.134411 147.740459 99.727423 
C 147.147447 100.320436 146.814249 101.124846 146.814249 101.963491 
C 146.814249 102.802137 147.147447 103.606547 147.740459 104.199559 
C 148.333471 104.792572 149.137881 105.125769 149.976527 105.125769 
z
" clip-path="url(#pf728edf86c)"/>
   </g>
   <g id="PathCollection_2">
    <path d="M 437.953846 258.479952 
C 438.792492 258.479952 439.596902 258.146754 440.189914 257.553742 
C 440.782926 256.96073 441.116124 256.15632 441.116124 255.317674 
C 441.116124 254.479028 440.782926 253.674618 440.189914 253.081606 
C 439.596902 252.488594 438.792492 252.155397 437.953846 252.155397 
C 437.1152 252.155397 436.31079 252.488594 435.717778 253.081606 
C 435.124766 253.674618 434.791568 254.479028 434.791568 255.317674 
C 434.791568 256.15632 435.124766 256.96073 435.717778 257.553742 
C 436.31079 258.146754 437.1152 258.479952 437.953846 258.479952 
z
" clip-path="url(#pf728edf86c)"/>
   </g>
   <g id="PathCollection_3">
    <path d="M 285.920958 15.22733 
C 286.759603 15.22733 287.564013 14.894133 288.157026 14.30112 
C 288.750038 13.708108 289.083235 12.903698 289.083235 12.065052 
C 289.083235 11.226407 288.750038 10.421997 288.157026 9.828984 
C 287.564013 9.235972 286.759603 8.902775 285.920958 8.902775 
C 285.082312 8.902775 284.277902 9.235972 283.68489 9.828984 
C 283.091877 10.421997 282.75868 11.226407 282.75868 12.065052 
C 282.75868 12.903698 283.091877 13.708108 283.68489 14.30112 
C 284.277902 14.894133 285.082312 15.22733 285.920958 15.22733 
z
" clip-path="url(#pf728edf86c)"/>
   </g>
   <g id="matplotlib.axis_1"/>
   <g id="matplotlib.axis_2"/>
   <g id="line2d_1">
    <path d="M 437.953846 255.317674 
L 421.705916 243.143541 
L 408.868308 233.774703 
L 394.811022 223.774442 
L 380.894621 214.146524 
L 365.881522 204.070658 
L 351.624163 194.808076 
L 337.953165 186.213753 
L 325.100367 178.396985 
L 313.122102 171.347613 
L 297.985724 162.773779 
L 287.337147 156.971785 
L 275.978217 150.997988 
L 258.499464 142.253917 
L 244.657036 135.729073 
L 234.521571 131.184587 
L 222.680357 126.133826 
L 214.003868 122.615624 
L 201.784113 117.932514 
L 191.757722 114.33643 
L 181.373101 110.856071 
L 175.150518 108.894095 
L 166.180269 106.234873 
L 156.922938 103.708113 
L 145.033592 100.804133 
L 135.528761 98.774651 
L 124.75994 96.810218 
L 117.668805 95.723394 
L 112.41109 95.029805 
L 104.611287 94.186905 
L 96.038671 93.534166 
L 91.016172 93.294641 
L 82.584089 93.15023 
L 74.742184 93.333283 
L 70.39576 93.580064 
L 64.324173 94.116572 
L 60.540152 94.574466 
L 54.050289 95.607939 
L 49.048264 96.647448 
L 44.333398 97.854016 
L 39.118475 99.494779 
L 35.976533 100.670666 
L 31.8095 102.501941 
L 27.991868 104.530985 
L 25.583566 106.044463 
L 22.331952 108.505854 
L 19.960204 110.780589 
L 19.029286 111.857118 
L 18.378907 112.704097 
L 17.237059 114.49 
L 16.199081 116.839119 
L 15.756226 118.670251 
L 15.646154 119.840179 
L 15.735839 121.518951 
L 16.210925 123.399058 
L 17.228471 125.425601 
L 17.959913 126.430521 
L 19.211943 127.767505 
L 19.928304 128.395854 
L 22.152846 129.957828 
L 23.367983 130.637211 
L 26.392198 131.9754 
L 29.030293 132.844794 
L 32.078303 133.598195 
L 34.35295 134.020926 
L 37.810264 134.477265 
L 40.847367 134.721687 
L 45.915504 134.858913 
L 49.353764 134.787152 
L 53.748322 134.528183 
L 58.384198 134.074866 
L 65.689346 133.032859 
L 74.026775 131.418464 
L 82.38723 129.40453 
L 90.462985 127.126883 
L 97.532458 124.890459 
L 102.408248 123.225602 
L 112.941821 119.312233 
L 121.472446 115.847495 
L 132.593798 110.964022 
L 141.477103 106.784733 
L 149.668373 102.724636 
L 158.271173 98.257775 
L 169.820189 91.950587 
L 177.849575 87.365329 
L 190.820334 79.628057 
L 204.214995 71.229822 
L 214.272986 64.663558 
L 226.509265 56.386969 
L 239.139464 47.524629 
L 250.093262 39.585502 
L 260.580193 31.771647 
L 275.889272 20.00282 
L 285.920958 12.065052 
L 285.920958 12.065052 
" clip-path="url(#pf728edf86c)" style="fill: none; stroke: #1e88e5; stroke-width: 2; stroke-linecap: square"/>
   </g>
   <g id="patch_3">
    <path d="M 222.573921 126.089719 
Q 221.983526 125.845846 223.459825 126.455658 
" clip-path="url(#pf728edf86c)" style="fill: none; stroke: #1e88e5; stroke-width: 2; stroke-linecap: round"/>
    <path d="M 230.793461 134.894721 
L 223.459825 126.455658 
L 234.611257 125.652188 
z
" clip-path="url(#pf728edf86c)" style="fill: #1e88e5; stroke: #1e88e5; stroke-width: 2; stroke-linecap: round"/>
   </g>
   <g id="patch_4">
    <path d="M 53.648489 95.683141 
Q 53.395945 95.731396 55.339735 95.359983 
" clip-path="url(#pf728edf86c)" style="fill: none; stroke: #1e88e5; stroke-width: 2; stroke-linecap: round"/>
    <path d="M 66.100442 98.394318 
L 55.339735 95.359983 
L 64.223627 88.572019 
z
" clip-path="url(#pf728edf86c)" style="fill: #1e88e5; stroke: #1e88e5; stroke-width: 2; stroke-linecap: round"/>
   </g>
   <g id="patch_5">
    <path d="M 210.918066 66.877977 
Q 211.493257 66.499673 210.200233 67.350096 
" clip-path="url(#pf728edf86c)" style="fill: none; stroke: #1e88e5; stroke-width: 2; stroke-linecap: round"/>
    <path d="M 199.097802 68.667678 
L 210.200233 67.350096 
L 204.592839 77.02259 
z
" clip-path="url(#pf728edf86c)" style="fill: #1e88e5; stroke: #1e88e5; stroke-width: 2; stroke-linecap: round"/>
   </g>
   <g id="text_1">
    <g clip-path="url(#pf728edf86c)">
     <!-- $C_1$ -->
     <g style="fill: #1e88e5" transform="translate(220.564819 166.238182) scale(0.2 -0.2)">
      <defs>
       <path id="Cmmi10-43" d="M 934 1381 
Q 934 997 1082 705 
Q 1231 413 1514 248 
Q 1797 84 2181 84 
Q 2584 84 2957 290 
Q 3331 497 3595 842 
Q 3859 1188 3956 1575 
Q 3969 1613 4006 1613 
L 4084 1613 
Q 4109 1613 4125 1595 
Q 4141 1578 4141 1556 
Q 4141 1550 4134 1538 
Q 4025 1094 3711 705 
Q 3397 316 2959 87 
Q 2522 -141 2059 -141 
Q 1559 -141 1162 84 
Q 766 309 545 709 
Q 325 1109 325 1613 
Q 325 2150 565 2676 
Q 806 3203 1212 3614 
Q 1619 4025 2139 4269 
Q 2659 4513 3194 4513 
Q 3406 4513 3600 4448 
Q 3794 4384 3959 4253 
Q 4125 4122 4231 3950 
L 4738 4500 
Q 4738 4513 4769 4513 
L 4806 4513 
Q 4831 4513 4847 4491 
Q 4863 4469 4863 4447 
L 4428 2719 
Q 4428 2675 4378 2675 
L 4263 2675 
Q 4213 2675 4213 2747 
Q 4238 2888 4238 3084 
Q 4238 3397 4131 3673 
Q 4025 3950 3801 4119 
Q 3578 4288 3256 4288 
Q 2734 4288 2300 4025 
Q 1866 3763 1564 3336 
Q 1263 2909 1098 2389 
Q 934 1869 934 1381 
z
" transform="scale(0.015625)"/>
       <path id="Cmr10-31" d="M 594 0 
L 594 225 
Q 1394 225 1394 428 
L 1394 3788 
Q 1063 3628 556 3628 
L 556 3853 
Q 1341 3853 1741 4263 
L 1831 4263 
Q 1853 4263 1873 4245 
Q 1894 4228 1894 4206 
L 1894 428 
Q 1894 225 2694 225 
L 2694 0 
L 594 0 
z
" transform="scale(0.015625)"/>
      </defs>
      <use xlink:href="#Cmmi10-43" transform="translate(0 0.484375)"/>
      <use xlink:href="#Cmr10-31" transform="translate(71.386719 -16.521875) scale(0.7)"/>
     </g>
    </g>
   </g>
   <g id="text_2">
    <g clip-path="url(#pf728edf86c)">
     <!-- $C_2$ -->
     <g style="fill: #1e88e5" transform="translate(71.910439 115.560553) scale(0.2 -0.2)">
      <defs>
       <path id="Cmr10-32" d="M 319 0 
L 319 172 
Q 319 188 331 206 
L 1325 1306 
Q 1550 1550 1690 1715 
Q 1831 1881 1968 2097 
Q 2106 2313 2186 2536 
Q 2266 2759 2266 3009 
Q 2266 3272 2169 3511 
Q 2072 3750 1880 3894 
Q 1688 4038 1416 4038 
Q 1138 4038 916 3870 
Q 694 3703 603 3438 
Q 628 3444 672 3444 
Q 816 3444 917 3347 
Q 1019 3250 1019 3097 
Q 1019 2950 917 2848 
Q 816 2747 672 2747 
Q 522 2747 420 2851 
Q 319 2956 319 3097 
Q 319 3338 409 3548 
Q 500 3759 670 3923 
Q 841 4088 1055 4175 
Q 1269 4263 1509 4263 
Q 1875 4263 2190 4108 
Q 2506 3953 2690 3670 
Q 2875 3388 2875 3009 
Q 2875 2731 2753 2481 
Q 2631 2231 2440 2026 
Q 2250 1822 1953 1562 
Q 1656 1303 1563 1216 
L 838 519 
L 1453 519 
Q 1906 519 2211 526 
Q 2516 534 2534 550 
Q 2609 631 2688 1141 
L 2875 1141 
L 2694 0 
L 319 0 
z
" transform="scale(0.015625)"/>
      </defs>
      <use xlink:href="#Cmmi10-43" transform="translate(0 0.484375)"/>
      <use xlink:href="#Cmr10-32" transform="translate(71.386719 -16.521875) scale(0.7)"/>
     </g>
    </g>
   </g>
   <g id="text_3">
    <g clip-path="url(#pf728edf86c)">
     <!-- $C_3$ -->
     <g style="fill: #1e88e5" transform="translate(193.53675 47.99038) scale(0.2 -0.2)">
      <defs>
       <path id="Cmr10-33" d="M 609 494 
Q 759 275 1012 169 
Q 1266 63 1556 63 
Q 1928 63 2084 380 
Q 2241 697 2241 1100 
Q 2241 1281 2208 1462 
Q 2175 1644 2097 1800 
Q 2019 1956 1883 2050 
Q 1747 2144 1550 2144 
L 1125 2144 
Q 1069 2144 1069 2203 
L 1069 2259 
Q 1069 2309 1125 2309 
L 1478 2338 
Q 1703 2338 1851 2506 
Q 2000 2675 2069 2917 
Q 2138 3159 2138 3378 
Q 2138 3684 1994 3881 
Q 1850 4078 1556 4078 
Q 1313 4078 1091 3986 
Q 869 3894 738 3706 
Q 750 3709 759 3711 
Q 769 3713 781 3713 
Q 925 3713 1022 3613 
Q 1119 3513 1119 3372 
Q 1119 3234 1022 3134 
Q 925 3034 781 3034 
Q 641 3034 541 3134 
Q 441 3234 441 3372 
Q 441 3647 606 3850 
Q 772 4053 1033 4158 
Q 1294 4263 1556 4263 
Q 1750 4263 1965 4205 
Q 2181 4147 2356 4039 
Q 2531 3931 2642 3762 
Q 2753 3594 2753 3378 
Q 2753 3109 2633 2881 
Q 2513 2653 2303 2487 
Q 2094 2322 1844 2241 
Q 2122 2188 2372 2031 
Q 2622 1875 2773 1631 
Q 2925 1388 2925 1106 
Q 2925 753 2731 467 
Q 2538 181 2222 20 
Q 1906 -141 1556 -141 
Q 1256 -141 954 -26 
Q 653 88 461 316 
Q 269 544 269 863 
Q 269 1022 375 1128 
Q 481 1234 641 1234 
Q 744 1234 830 1186 
Q 916 1138 964 1050 
Q 1013 963 1013 863 
Q 1013 706 903 600 
Q 794 494 641 494 
L 609 494 
z
" transform="scale(0.015625)"/>
      </defs>
      <use xlink:href="#Cmmi10-43" transform="translate(0 0.484375)"/>
      <use xlink:href="#Cmr10-33" transform="translate(71.386719 -16.521875) scale(0.7)"/>
     </g>
    </g>
   </g>
  </g>
 </g>
 <defs>
  <clipPath id="pf728edf86c">
   <rect x="7.2" y="7.2" width="439.2" height="252.982727"/>
  </clipPath>
 </defs>
</svg>
