<?xml version="1.0" encoding="utf-8" standalone="no"?>
<!DOCTYPE svg PUBLIC "-//W3C//DTD SVG 1.1//EN"
  "http://www.w3.org/Graphics/SVG/1.1/DTD/svg11.dtd">
<svg xmlns:xlink="http://www.w3.org/1999/xlink" width="341.206684pt" height="338.080038pt" viewBox="0 0 341.206684 338.080038" xmlns="http://www.w3.org/2000/svg" version="1.1">
 <metadata>
  <rdf:RDF xmlns:dc="http://purl.org/dc/elements/1.1/" xmlns:cc="http://creativecommons.org/ns#" xmlns:rdf="http://www.w3.org/1999/02/22-rdf-syntax-ns#">
   <cc:Work>
    <dc:type rdf:resource="http://purl.org/dc/dcmitype/StillImage"/>
    <dc:date>2025-12-10T16:56:32.743543</dc:date>
    <dc:format>image/svg+xml</dc:format>
    <dc:creator>
     <cc:Agent>
      <dc:title>Matplotlib v3.10.5, https://matplotlib.org/</dc:title>
     </cc:Agent>
    </dc:creator>
   </cc:Work>
  </rdf:RDF>
 </metadata>
 <defs>
  <style type="text/css">*{stroke-linejoin: round; stroke-linecap: butt}</style>
 </defs>
 <g id="figure_1">
  <g id="patch_1">
   <path d="M 0 338.080038 
L 341.206684 338.080038 
L 341.206684 0 
L 0 0 
z
" style="fill: #ffffff"/>
  </g>
  <g id="axes_1">
   <g id="patch_2">
    <path d="M 13.429146 330.880038 
L 320.866684 330.880038 
L 320.866684 23.4425 
L 13.429146 23.4425 
z
" style="fill: #ffffff"/>
   </g>
   <g id="patch_3">
    <path d="M 314.954424 177.161269 
C 314.954424 157.751496 311.131122 138.530459 303.703323 120.598167 
C 296.275525 102.665875 285.387682 86.371067 271.6629 72.646285 
C 257.938118 58.921502 241.643309 48.033659 223.711017 40.605861 
C 205.778725 33.178062 186.557688 29.35476 167.147915 29.35476 
C 147.738142 29.35476 128.517105 33.178062 110.584813 40.605861 
C 92.652521 48.033659 76.357712 58.921502 62.63293 72.646285 
C 48.908148 86.371067 38.020305 102.665875 30.592507 120.598167 
C 23.164708 138.530459 19.341406 157.751496 19.341406 177.161269 
C 19.341406 196.571042 23.164708 215.792079 30.592507 233.724371 
C 38.020305 251.656663 48.908148 267.951472 62.63293 281.676254 
C 76.357712 295.401036 92.652521 306.288879 110.584813 313.716678 
C 128.517105 321.144476 147.738142 324.967778 167.147915 324.967778 
C 186.557688 324.967778 205.778725 321.144476 223.711017 313.716678 
C 241.643309 306.288879 257.938118 295.401036 271.6629 281.676254 
C 285.387682 267.951472 296.275525 251.656663 303.703323 233.724371 
C 311.131122 215.792079 314.954424 196.571042 314.954424 177.161269 
M 167.147915 177.161269 
z
" clip-path="url(#ped8540b2fe)" style="fill: #ffff00"/>
   </g>
   <g id="patch_4">
    <path d="M 104.330149 127.892433 
C 104.330149 126.4367 104.043401 124.995122 103.486316 123.6502 
C 102.929231 122.305278 102.112643 121.083168 101.083285 120.053809 
C 100.053926 119.02445 98.831815 118.207862 97.486893 117.650777 
C 96.141971 117.093692 94.700394 116.806945 93.244661 116.806945 
C 91.788928 116.806945 90.34735 117.093692 89.002428 117.650777 
C 87.657506 118.207862 86.435395 119.02445 85.406037 120.053809 
C 84.376678 121.083168 83.56009 122.305278 83.003005 123.6502 
C 82.44592 124.995122 82.159173 126.4367 82.159173 127.892433 
C 82.159173 129.348166 82.44592 130.789744 83.003005 132.134666 
C 83.56009 133.479587 84.376678 134.701698 85.406037 135.731057 
C 86.435395 136.760415 87.657506 137.577004 89.002428 138.134089 
C 90.34735 138.691173 91.788928 138.977921 93.244661 138.977921 
C 94.700394 138.977921 96.141971 138.691173 97.486893 138.134089 
C 98.831815 137.577004 100.053926 136.760415 101.083285 135.731057 
C 102.112643 134.701698 102.929231 133.479587 103.486316 132.134666 
C 104.043401 130.789744 104.330149 129.348166 104.330149 127.892433 
M 93.244661 127.892433 
z
" clip-path="url(#ped8540b2fe)" style="fill: #ffa500"/>
   </g>
   <g id="PathCollection_1">
    <path d="M 93.244661 130.128501 
C 93.837673 130.128501 94.406477 129.892895 94.8258 129.473572 
C 95.245122 129.054249 95.480729 128.485445 95.480729 127.892433 
C 95.480729 127.299421 95.245122 126.730617 94.8258 126.311294 
C 94.406477 125.891971 93.837673 125.656365 93.244661 125.656365 
C 92.651649 125.656365 92.082845 125.891971 91.663522 126.311294 
C 91.244199 126.730617 91.008593 127.299421 91.008593 127.892433 
C 91.008593 128.485445 91.244199 129.054249 91.663522 129.473572 
C 92.082845 129.892895 92.651649 130.128501 93.244661 130.128501 
z
" clip-path="url(#ped8540b2fe)" style="fill: #0000ff"/>
   </g>
   <g id="patch_5">
    <path d="M 282.748388 72.646285 
C 282.748388 71.190552 282.46164 69.748974 281.904555 68.404052 
C 281.347471 67.05913 280.530882 65.837019 279.501524 64.807661 
C 278.472165 63.778302 277.250054 62.961714 275.905133 62.404629 
C 274.560211 61.847544 273.118633 61.560796 271.6629 61.560796 
C 270.207167 61.560796 268.765589 61.847544 267.420667 62.404629 
C 266.075745 62.961714 264.853635 63.778302 263.824276 64.807661 
C 262.794917 65.837019 261.978329 67.05913 261.421244 68.404052 
C 260.864159 69.748974 260.577412 71.190552 260.577412 72.646285 
C 260.577412 74.102017 260.864159 75.543595 261.421244 76.888517 
C 261.978329 78.233439 262.794917 79.45555 263.824276 80.484908 
C 264.853635 81.514267 266.075745 82.330855 267.420667 82.88794 
C 268.765589 83.445025 270.207167 83.731773 271.6629 83.731773 
C 273.118633 83.731773 274.560211 83.445025 275.905133 82.88794 
C 277.250054 82.330855 278.472165 81.514267 279.501524 80.484908 
C 280.530882 79.45555 281.347471 78.233439 281.904555 76.888517 
C 282.46164 75.543595 282.748388 74.102017 282.748388 72.646285 
M 271.6629 72.646285 
z
" clip-path="url(#ped8540b2fe)" style="fill: #ffa500"/>
   </g>
   <g id="PathCollection_2">
    <path d="M 271.6629 74.882352 
C 272.255912 74.882352 272.824716 74.646746 273.244039 74.227423 
C 273.663362 73.8081 273.898968 73.239297 273.898968 72.646285 
C 273.898968 72.053272 273.663362 71.484469 273.244039 71.065146 
C 272.824716 70.645823 272.255912 70.410217 271.6629 70.410217 
C 271.069888 70.410217 270.501084 70.645823 270.081761 71.065146 
C 269.662438 71.484469 269.426832 72.053272 269.426832 72.646285 
C 269.426832 73.239297 269.662438 73.8081 270.081761 74.227423 
C 270.501084 74.646746 271.069888 74.882352 271.6629 74.882352 
z
" clip-path="url(#ped8540b2fe)" style="fill: #0000ff"/>
   </g>
   <g id="matplotlib.axis_1">
    <g id="xtick_1">
     <g id="line2d_1">
      <defs>
       <path id="m4381d178ac" d="M 0 0 
L 0 3.5 
" style="stroke: #000000; stroke-width: 0.8"/>
      </defs>
      <g>
       <use xlink:href="#m4381d178ac" x="19.341406" y="177.161269" style="stroke: #000000; stroke-width: 0.8"/>
      </g>
     </g>
     <g id="text_1">
      <!-- −1.0 -->
      <g transform="translate(7.2 191.759707) scale(0.1 -0.1)">
       <defs>
        <path id="DejaVuSans-2212" d="M 678 2272 
L 4684 2272 
L 4684 1741 
L 678 1741 
L 678 2272 
z
" transform="scale(0.015625)"/>
        <path id="DejaVuSans-31" d="M 794 531 
L 1825 531 
L 1825 4091 
L 703 3866 
L 703 4441 
L 1819 4666 
L 2450 4666 
L 2450 531 
L 3481 531 
L 3481 0 
L 794 0 
L 794 531 
z
" transform="scale(0.015625)"/>
        <path id="DejaVuSans-2e" d="M 684 794 
L 1344 794 
L 1344 0 
L 684 0 
L 684 794 
z
" transform="scale(0.015625)"/>
        <path id="DejaVuSans-30" d="M 2034 4250 
Q 1547 4250 1301 3770 
Q 1056 3291 1056 2328 
Q 1056 1369 1301 889 
Q 1547 409 2034 409 
Q 2525 409 2770 889 
Q 3016 1369 3016 2328 
Q 3016 3291 2770 3770 
Q 2525 4250 2034 4250 
z
M 2034 4750 
Q 2819 4750 3233 4129 
Q 3647 3509 3647 2328 
Q 3647 1150 3233 529 
Q 2819 -91 2034 -91 
Q 1250 -91 836 529 
Q 422 1150 422 2328 
Q 422 3509 836 4129 
Q 1250 4750 2034 4750 
z
" transform="scale(0.015625)"/>
       </defs>
       <use xlink:href="#DejaVuSans-2212"/>
       <use xlink:href="#DejaVuSans-31" transform="translate(83.789062 0)"/>
       <use xlink:href="#DejaVuSans-2e" transform="translate(147.412109 0)"/>
       <use xlink:href="#DejaVuSans-30" transform="translate(179.199219 0)"/>
      </g>
     </g>
    </g>
    <g id="xtick_2">
     <g id="line2d_2">
      <g>
       <use xlink:href="#m4381d178ac" x="93.244661" y="177.161269" style="stroke: #000000; stroke-width: 0.8"/>
      </g>
     </g>
     <g id="text_2">
      <!-- −0.5 -->
      <g transform="translate(81.103254 191.759707) scale(0.1 -0.1)">
       <defs>
        <path id="DejaVuSans-35" d="M 691 4666 
L 3169 4666 
L 3169 4134 
L 1269 4134 
L 1269 2991 
Q 1406 3038 1543 3061 
Q 1681 3084 1819 3084 
Q 2600 3084 3056 2656 
Q 3513 2228 3513 1497 
Q 3513 744 3044 326 
Q 2575 -91 1722 -91 
Q 1428 -91 1123 -41 
Q 819 9 494 109 
L 494 744 
Q 775 591 1075 516 
Q 1375 441 1709 441 
Q 2250 441 2565 725 
Q 2881 1009 2881 1497 
Q 2881 1984 2565 2268 
Q 2250 2553 1709 2553 
Q 1456 2553 1204 2497 
Q 953 2441 691 2322 
L 691 4666 
z
" transform="scale(0.015625)"/>
       </defs>
       <use xlink:href="#DejaVuSans-2212"/>
       <use xlink:href="#DejaVuSans-30" transform="translate(83.789062 0)"/>
       <use xlink:href="#DejaVuSans-2e" transform="translate(147.412109 0)"/>
       <use xlink:href="#DejaVuSans-35" transform="translate(179.199219 0)"/>
      </g>
     </g>
    </g>
    <g id="xtick_3">
     <g id="line2d_3">
      <g>
       <use xlink:href="#m4381d178ac" x="167.147915" y="177.161269" style="stroke: #000000; stroke-width: 0.8"/>
      </g>
     </g>
    </g>
    <g id="xtick_4">
     <g id="line2d_4">
      <g>
       <use xlink:href="#m4381d178ac" x="241.05117" y="177.161269" style="stroke: #000000; stroke-width: 0.8"/>
      </g>
     </g>
     <g id="text_3">
      <!-- 0.5 -->
      <g transform="translate(233.099607 191.759707) scale(0.1 -0.1)">
       <use xlink:href="#DejaVuSans-30"/>
       <use xlink:href="#DejaVuSans-2e" transform="translate(63.623047 0)"/>
       <use xlink:href="#DejaVuSans-35" transform="translate(95.410156 0)"/>
      </g>
     </g>
    </g>
    <g id="xtick_5">
     <g id="line2d_5">
      <g>
       <use xlink:href="#m4381d178ac" x="314.954424" y="177.161269" style="stroke: #000000; stroke-width: 0.8"/>
      </g>
     </g>
     <g id="text_4">
      <!-- 1.0 -->
      <g transform="translate(307.002862 191.759707) scale(0.1 -0.1)">
       <use xlink:href="#DejaVuSans-31"/>
       <use xlink:href="#DejaVuSans-2e" transform="translate(63.623047 0)"/>
       <use xlink:href="#DejaVuSans-30" transform="translate(95.410156 0)"/>
      </g>
     </g>
    </g>
    <g id="xtick_6">
     <g id="line2d_6">
      <defs>
       <path id="m41b3b43958" d="M 0 0 
L 0 2 
" style="stroke: #000000; stroke-width: 0.6"/>
      </defs>
      <g>
       <use xlink:href="#m41b3b43958" x="34.122057" y="177.161269" style="stroke: #000000; stroke-width: 0.6"/>
      </g>
     </g>
    </g>
    <g id="xtick_7">
     <g id="line2d_7">
      <g>
       <use xlink:href="#m41b3b43958" x="48.902708" y="177.161269" style="stroke: #000000; stroke-width: 0.6"/>
      </g>
     </g>
    </g>
    <g id="xtick_8">
     <g id="line2d_8">
      <g>
       <use xlink:href="#m41b3b43958" x="63.683359" y="177.161269" style="stroke: #000000; stroke-width: 0.6"/>
      </g>
     </g>
    </g>
    <g id="xtick_9">
     <g id="line2d_9">
      <g>
       <use xlink:href="#m41b3b43958" x="78.46401" y="177.161269" style="stroke: #000000; stroke-width: 0.6"/>
      </g>
     </g>
    </g>
    <g id="xtick_10">
     <g id="line2d_10">
      <g>
       <use xlink:href="#m41b3b43958" x="108.025312" y="177.161269" style="stroke: #000000; stroke-width: 0.6"/>
      </g>
     </g>
    </g>
    <g id="xtick_11">
     <g id="line2d_11">
      <g>
       <use xlink:href="#m41b3b43958" x="122.805962" y="177.161269" style="stroke: #000000; stroke-width: 0.6"/>
      </g>
     </g>
    </g>
    <g id="xtick_12">
     <g id="line2d_12">
      <g>
       <use xlink:href="#m41b3b43958" x="137.586613" y="177.161269" style="stroke: #000000; stroke-width: 0.6"/>
      </g>
     </g>
    </g>
    <g id="xtick_13">
     <g id="line2d_13">
      <g>
       <use xlink:href="#m41b3b43958" x="152.367264" y="177.161269" style="stroke: #000000; stroke-width: 0.6"/>
      </g>
     </g>
    </g>
    <g id="xtick_14">
     <g id="line2d_14">
      <g>
       <use xlink:href="#m41b3b43958" x="181.928566" y="177.161269" style="stroke: #000000; stroke-width: 0.6"/>
      </g>
     </g>
    </g>
    <g id="xtick_15">
     <g id="line2d_15">
      <g>
       <use xlink:href="#m41b3b43958" x="196.709217" y="177.161269" style="stroke: #000000; stroke-width: 0.6"/>
      </g>
     </g>
    </g>
    <g id="xtick_16">
     <g id="line2d_16">
      <g>
       <use xlink:href="#m41b3b43958" x="211.489868" y="177.161269" style="stroke: #000000; stroke-width: 0.6"/>
      </g>
     </g>
    </g>
    <g id="xtick_17">
     <g id="line2d_17">
      <g>
       <use xlink:href="#m41b3b43958" x="226.270519" y="177.161269" style="stroke: #000000; stroke-width: 0.6"/>
      </g>
     </g>
    </g>
    <g id="xtick_18">
     <g id="line2d_18">
      <g>
       <use xlink:href="#m41b3b43958" x="255.83182" y="177.161269" style="stroke: #000000; stroke-width: 0.6"/>
      </g>
     </g>
    </g>
    <g id="xtick_19">
     <g id="line2d_19">
      <g>
       <use xlink:href="#m41b3b43958" x="270.612471" y="177.161269" style="stroke: #000000; stroke-width: 0.6"/>
      </g>
     </g>
    </g>
    <g id="xtick_20">
     <g id="line2d_20">
      <g>
       <use xlink:href="#m41b3b43958" x="285.393122" y="177.161269" style="stroke: #000000; stroke-width: 0.6"/>
      </g>
     </g>
    </g>
    <g id="xtick_21">
     <g id="line2d_21">
      <g>
       <use xlink:href="#m41b3b43958" x="300.173773" y="177.161269" style="stroke: #000000; stroke-width: 0.6"/>
      </g>
     </g>
    </g>
    <g id="text_5">
     <!-- $x$ -->
     <g transform="translate(328.866684 177.161269) scale(0.16 -0.16)">
      <defs>
       <path id="Cmmi10-78" d="M 500 184 
Q 613 97 819 97 
Q 1019 97 1172 289 
Q 1325 481 1381 709 
L 1672 1844 
Q 1741 2153 1741 2266 
Q 1741 2425 1652 2544 
Q 1563 2663 1403 2663 
Q 1200 2663 1022 2536 
Q 844 2409 722 2214 
Q 600 2019 550 1819 
Q 538 1778 500 1778 
L 422 1778 
Q 372 1778 372 1838 
L 372 1856 
Q 434 2094 584 2320 
Q 734 2547 951 2687 
Q 1169 2828 1416 2828 
Q 1650 2828 1839 2703 
Q 2028 2578 2106 2363 
Q 2216 2559 2386 2693 
Q 2556 2828 2759 2828 
Q 2897 2828 3040 2779 
Q 3184 2731 3275 2631 
Q 3366 2531 3366 2381 
Q 3366 2219 3261 2101 
Q 3156 1984 2994 1984 
Q 2891 1984 2822 2050 
Q 2753 2116 2753 2216 
Q 2753 2350 2845 2451 
Q 2938 2553 3066 2572 
Q 2950 2663 2747 2663 
Q 2541 2663 2389 2472 
Q 2238 2281 2175 2047 
L 1894 916 
Q 1825 659 1825 494 
Q 1825 331 1917 214 
Q 2009 97 2163 97 
Q 2463 97 2698 361 
Q 2934 625 3009 941 
Q 3022 978 3059 978 
L 3138 978 
Q 3163 978 3178 961 
Q 3194 944 3194 922 
Q 3194 916 3188 903 
Q 3097 522 2806 225 
Q 2516 -72 2150 -72 
Q 1916 -72 1727 54 
Q 1538 181 1459 397 
Q 1359 209 1182 68 
Q 1006 -72 806 -72 
Q 669 -72 523 -23 
Q 378 25 287 125 
Q 197 225 197 378 
Q 197 528 301 651 
Q 406 775 563 775 
Q 669 775 741 711 
Q 813 647 813 544 
Q 813 409 723 309 
Q 634 209 500 184 
z
" transform="scale(0.015625)"/>
      </defs>
      <use xlink:href="#Cmmi10-78" transform="translate(0 0.8125)"/>
     </g>
    </g>
   </g>
   <g id="matplotlib.axis_2">
    <g id="ytick_1">
     <g id="line2d_22">
      <defs>
       <path id="medf8bb6d90" d="M 0 0 
L -3.5 0 
" style="stroke: #000000; stroke-width: 0.8"/>
      </defs>
      <g>
       <use xlink:href="#medf8bb6d90" x="167.147915" y="324.967778" style="stroke: #000000; stroke-width: 0.8"/>
      </g>
     </g>
     <g id="text_6">
      <!-- −1.0 -->
      <g transform="translate(135.865103 328.766997) scale(0.1 -0.1)">
       <use xlink:href="#DejaVuSans-2212"/>
       <use xlink:href="#DejaVuSans-31" transform="translate(83.789062 0)"/>
       <use xlink:href="#DejaVuSans-2e" transform="translate(147.412109 0)"/>
       <use xlink:href="#DejaVuSans-30" transform="translate(179.199219 0)"/>
      </g>
     </g>
    </g>
    <g id="ytick_2">
     <g id="line2d_23">
      <g>
       <use xlink:href="#medf8bb6d90" x="167.147915" y="251.064524" style="stroke: #000000; stroke-width: 0.8"/>
      </g>
     </g>
     <g id="text_7">
      <!-- −0.5 -->
      <g transform="translate(135.865103 254.863742) scale(0.1 -0.1)">
       <use xlink:href="#DejaVuSans-2212"/>
       <use xlink:href="#DejaVuSans-30" transform="translate(83.789062 0)"/>
       <use xlink:href="#DejaVuSans-2e" transform="translate(147.412109 0)"/>
       <use xlink:href="#DejaVuSans-35" transform="translate(179.199219 0)"/>
      </g>
     </g>
    </g>
    <g id="ytick_3">
     <g id="line2d_24">
      <g>
       <use xlink:href="#medf8bb6d90" x="167.147915" y="177.161269" style="stroke: #000000; stroke-width: 0.8"/>
      </g>
     </g>
    </g>
    <g id="ytick_4">
     <g id="line2d_25">
      <g>
       <use xlink:href="#medf8bb6d90" x="167.147915" y="103.258015" style="stroke: #000000; stroke-width: 0.8"/>
      </g>
     </g>
     <g id="text_8">
      <!-- 0.5 -->
      <g transform="translate(144.24479 107.057234) scale(0.1 -0.1)">
       <use xlink:href="#DejaVuSans-30"/>
       <use xlink:href="#DejaVuSans-2e" transform="translate(63.623047 0)"/>
       <use xlink:href="#DejaVuSans-35" transform="translate(95.410156 0)"/>
      </g>
     </g>
    </g>
    <g id="ytick_5">
     <g id="line2d_26">
      <g>
       <use xlink:href="#medf8bb6d90" x="167.147915" y="29.35476" style="stroke: #000000; stroke-width: 0.8"/>
      </g>
     </g>
     <g id="text_9">
      <!-- 1.0 -->
      <g transform="translate(144.24479 33.153979) scale(0.1 -0.1)">
       <use xlink:href="#DejaVuSans-31"/>
       <use xlink:href="#DejaVuSans-2e" transform="translate(63.623047 0)"/>
       <use xlink:href="#DejaVuSans-30" transform="translate(95.410156 0)"/>
      </g>
     </g>
    </g>
    <g id="ytick_6">
     <g id="line2d_27">
      <defs>
       <path id="m8b09986668" d="M 0 0 
L -2 0 
" style="stroke: #000000; stroke-width: 0.6"/>
      </defs>
      <g>
       <use xlink:href="#m8b09986668" x="167.147915" y="310.187127" style="stroke: #000000; stroke-width: 0.6"/>
      </g>
     </g>
    </g>
    <g id="ytick_7">
     <g id="line2d_28">
      <g>
       <use xlink:href="#m8b09986668" x="167.147915" y="295.406476" style="stroke: #000000; stroke-width: 0.6"/>
      </g>
     </g>
    </g>
    <g id="ytick_8">
     <g id="line2d_29">
      <g>
       <use xlink:href="#m8b09986668" x="167.147915" y="280.625825" style="stroke: #000000; stroke-width: 0.6"/>
      </g>
     </g>
    </g>
    <g id="ytick_9">
     <g id="line2d_30">
      <g>
       <use xlink:href="#m8b09986668" x="167.147915" y="265.845175" style="stroke: #000000; stroke-width: 0.6"/>
      </g>
     </g>
    </g>
    <g id="ytick_10">
     <g id="line2d_31">
      <g>
       <use xlink:href="#m8b09986668" x="167.147915" y="236.283873" style="stroke: #000000; stroke-width: 0.6"/>
      </g>
     </g>
    </g>
    <g id="ytick_11">
     <g id="line2d_32">
      <g>
       <use xlink:href="#m8b09986668" x="167.147915" y="221.503222" style="stroke: #000000; stroke-width: 0.6"/>
      </g>
     </g>
    </g>
    <g id="ytick_12">
     <g id="line2d_33">
      <g>
       <use xlink:href="#m8b09986668" x="167.147915" y="206.722571" style="stroke: #000000; stroke-width: 0.6"/>
      </g>
     </g>
    </g>
    <g id="ytick_13">
     <g id="line2d_34">
      <g>
       <use xlink:href="#m8b09986668" x="167.147915" y="191.94192" style="stroke: #000000; stroke-width: 0.6"/>
      </g>
     </g>
    </g>
    <g id="ytick_14">
     <g id="line2d_35">
      <g>
       <use xlink:href="#m8b09986668" x="167.147915" y="162.380618" style="stroke: #000000; stroke-width: 0.6"/>
      </g>
     </g>
    </g>
    <g id="ytick_15">
     <g id="line2d_36">
      <g>
       <use xlink:href="#m8b09986668" x="167.147915" y="147.599967" style="stroke: #000000; stroke-width: 0.6"/>
      </g>
     </g>
    </g>
    <g id="ytick_16">
     <g id="line2d_37">
      <g>
       <use xlink:href="#m8b09986668" x="167.147915" y="132.819317" style="stroke: #000000; stroke-width: 0.6"/>
      </g>
     </g>
    </g>
    <g id="ytick_17">
     <g id="line2d_38">
      <g>
       <use xlink:href="#m8b09986668" x="167.147915" y="118.038666" style="stroke: #000000; stroke-width: 0.6"/>
      </g>
     </g>
    </g>
    <g id="ytick_18">
     <g id="line2d_39">
      <g>
       <use xlink:href="#m8b09986668" x="167.147915" y="88.477364" style="stroke: #000000; stroke-width: 0.6"/>
      </g>
     </g>
    </g>
    <g id="ytick_19">
     <g id="line2d_40">
      <g>
       <use xlink:href="#m8b09986668" x="167.147915" y="73.696713" style="stroke: #000000; stroke-width: 0.6"/>
      </g>
     </g>
    </g>
    <g id="ytick_20">
     <g id="line2d_41">
      <g>
       <use xlink:href="#m8b09986668" x="167.147915" y="58.916062" style="stroke: #000000; stroke-width: 0.6"/>
      </g>
     </g>
    </g>
    <g id="ytick_21">
     <g id="line2d_42">
      <g>
       <use xlink:href="#m8b09986668" x="167.147915" y="44.135411" style="stroke: #000000; stroke-width: 0.6"/>
      </g>
     </g>
    </g>
    <g id="text_10">
     <!-- $y$ -->
     <g transform="translate(163.147915 12.0825) scale(0.16 -0.16)">
      <defs>
       <path id="Cmmi10-79" d="M 538 -916 
Q 672 -1147 1006 -1147 
Q 1309 -1147 1531 -934 
Q 1753 -722 1889 -420 
Q 2025 -119 2100 197 
Q 1816 -72 1484 -72 
Q 1231 -72 1053 15 
Q 875 103 776 276 
Q 678 450 678 697 
Q 678 906 734 1126 
Q 791 1347 892 1617 
Q 994 1888 1069 2088 
Q 1153 2322 1153 2472 
Q 1153 2663 1013 2663 
Q 759 2663 595 2402 
Q 431 2141 353 1819 
Q 341 1778 300 1778 
L 225 1778 
Q 172 1778 172 1838 
L 172 1856 
Q 275 2238 487 2533 
Q 700 2828 1025 2828 
Q 1253 2828 1411 2678 
Q 1569 2528 1569 2297 
Q 1569 2178 1516 2047 
Q 1488 1969 1388 1706 
Q 1288 1444 1234 1272 
Q 1181 1100 1147 934 
Q 1113 769 1113 603 
Q 1113 391 1203 244 
Q 1294 97 1491 97 
Q 1888 97 2203 581 
L 2688 2553 
Q 2709 2638 2787 2698 
Q 2866 2759 2956 2759 
Q 3034 2759 3092 2709 
Q 3150 2659 3150 2578 
Q 3150 2541 3144 2528 
L 2509 -19 
Q 2425 -347 2200 -647 
Q 1975 -947 1658 -1130 
Q 1341 -1313 997 -1313 
Q 831 -1313 668 -1248 
Q 506 -1184 406 -1056 
Q 306 -928 306 -756 
Q 306 -581 409 -453 
Q 513 -325 684 -325 
Q 788 -325 858 -389 
Q 928 -453 928 -556 
Q 928 -703 818 -812 
Q 709 -922 563 -922 
Q 556 -919 550 -917 
Q 544 -916 538 -916 
z
" transform="scale(0.015625)"/>
      </defs>
      <use xlink:href="#Cmmi10-79" transform="translate(0 0.8125)"/>
     </g>
    </g>
   </g>
   <g id="line2d_43">
    <path d="M 314.954424 177.161269 
L 314.873721 172.277582 
L 314.657014 167.789509 
L 314.059407 160.920038 
L 313.001905 153.215966 
L 311.960029 147.560328 
L 310.825535 142.469691 
L 309.341057 136.814342 
L 308.24001 133.118281 
L 306.801263 128.749425 
L 303.321118 119.684119 
L 299.646276 111.655939 
L 297.24353 107.005051 
L 292.934349 99.543378 
L 290.080144 95.097689 
L 287.678712 91.609582 
L 282.899375 85.246289 
L 278.475502 79.935077 
L 274.085495 75.126383 
L 267.704174 68.832128 
L 264.398973 65.855403 
L 258.248957 60.768124 
L 250.625176 55.184587 
L 242.010892 49.715992 
L 239.383029 48.208362 
L 234.538862 45.611946 
L 229.219216 43.01986 
L 222.253738 40.011306 
L 215.732143 37.567799 
L 211.522974 36.173262 
L 204.565612 34.169381 
L 198.40098 32.696706 
L 189.19942 31.008968 
L 182.246567 30.127957 
L 175.400828 29.585345 
L 167.407627 29.354989 
L 160.408536 29.508485 
L 155.63474 29.803844 
L 151.800874 30.153676 
L 147.682559 30.64211 
L 140.06664 31.856869 
L 135.322355 32.821747 
L 127.658134 34.727701 
L 119.82691 37.134534 
L 112.004867 40.026269 
L 109.010163 41.26879 
L 100.515655 45.226035 
L 92.116994 49.814793 
L 87.534001 52.628588 
L 78.602792 58.812103 
L 73.233109 63.026379 
L 66.140585 69.252589 
L 62.642609 72.636607 
L 59.706631 75.656912 
L 56.177246 79.527901 
L 50.387626 86.531258 
L 47.812115 89.950427 
L 44.007039 95.411109 
L 39.880447 101.996412 
L 37.68189 105.849893 
L 35.621589 109.725451 
L 33.67727 113.660474 
L 32.012678 117.284465 
L 28.879601 124.924907 
L 27.162794 129.717303 
L 24.655199 137.885451 
L 24.022842 140.256291 
L 22.387325 147.309373 
L 21.548509 151.713735 
L 20.510043 158.611378 
L 19.960095 163.651658 
L 19.556937 169.182091 
L 19.341685 177.448468 
L 19.550176 185.01439 
L 20.078797 191.907068 
L 20.556265 196.072961 
L 21.39789 201.731456 
L 22.180421 205.991631 
L 23.492992 211.946714 
L 24.753013 216.790249 
L 27.178894 224.652713 
L 30.345445 233.124187 
L 33.898689 241.125383 
L 37.05219 247.317284 
L 38.616008 250.142862 
L 42.659454 256.84431 
L 46.456445 262.486137 
L 48.484211 265.284418 
L 53.630992 271.822097 
L 58.568176 277.446883 
L 64.168683 283.189765 
L 66.628217 285.524337 
L 73.272106 291.328237 
L 76.542003 293.940261 
L 83.089955 298.738501 
L 85.170653 300.151076 
L 89.090237 302.675264 
L 93.893209 305.537716 
L 97.818182 307.699203 
L 105.592192 311.540051 
L 109.869497 313.418184 
L 114.840683 315.402788 
L 122.695768 318.12499 
L 131.526716 320.61124 
L 136.598138 321.776189 
L 146.901671 323.574567 
L 151.853921 324.17439 
L 159.693093 324.779661 
L 166.810698 324.967393 
L 174.214726 324.798745 
L 179.570191 324.444843 
L 186.463665 323.700226 
L 192.418999 322.791405 
L 200.875073 321.068333 
L 208.497218 319.066164 
L 215.565583 316.812597 
L 223.07179 313.979705 
L 228.665794 311.55738 
L 234.21825 308.874345 
L 241.271194 305.038177 
L 250.066108 299.518686 
L 255.374664 295.747967 
L 261.423174 290.998608 
L 265.096693 287.85364 
L 270.029005 283.284996 
L 274.868397 278.369282 
L 278.484131 274.37758 
L 283.052942 268.882525 
L 287.372993 263.14205 
L 290.643925 258.373951 
L 294.813096 251.648622 
L 297.801083 246.273596 
L 300.261938 241.406277 
L 302.453327 236.652526 
L 305.589661 228.936236 
L 307.939599 222.155334 
L 309.757488 216.010643 
L 311.386191 209.442594 
L 312.305594 205.018265 
L 313.334153 198.986667 
L 313.832922 195.334678 
L 314.665357 186.400769 
L 314.871536 182.110612 
L 314.954424 177.161269 
L 314.954424 177.161269 
" clip-path="url(#ped8540b2fe)" style="fill: none; stroke-dasharray: 3.7,1.6; stroke-dashoffset: 0; stroke: #0000ff"/>
   </g>
   <g id="patch_6">
    <path d="M 167.147915 330.880038 
L 167.147915 23.4425 
" style="fill: none; stroke: #000000; stroke-width: 0.8; stroke-linejoin: miter; stroke-linecap: square"/>
   </g>
   <g id="patch_7">
    <path d="M 13.429146 177.161269 
L 320.866684 177.161269 
" style="fill: none; stroke: #000000; stroke-width: 0.8; stroke-linejoin: miter; stroke-linecap: square"/>
   </g>
   <g id="text_11">
    <!-- $P$ -->
    <g transform="translate(103.150312 132.031495) scale(0.15 -0.15)">
     <defs>
      <path id="Cmmi10-50" d="M 313 0 
Q 250 0 250 84 
Q 253 100 262 139 
Q 272 178 289 201 
Q 306 225 331 225 
Q 722 225 878 269 
Q 959 297 997 441 
L 1875 3956 
Q 1888 4019 1888 4044 
Q 1888 4113 1813 4122 
Q 1691 4147 1350 4147 
Q 1288 4147 1288 4231 
Q 1291 4247 1300 4286 
Q 1309 4325 1326 4348 
Q 1344 4372 1369 4372 
L 3578 4372 
Q 3881 4372 4165 4264 
Q 4450 4156 4631 3934 
Q 4813 3713 4813 3397 
Q 4813 2991 4527 2672 
Q 4241 2353 3814 2175 
Q 3388 1997 2988 1997 
L 1947 1997 
L 1556 416 
Q 1544 353 1544 325 
Q 1544 300 1551 283 
Q 1559 266 1573 261 
Q 1588 256 1619 250 
Q 1741 225 2081 225 
Q 2144 225 2144 141 
Q 2122 50 2109 25 
Q 2097 0 2034 0 
L 313 0 
z
M 1978 2188 
L 2875 2188 
Q 3497 2188 3822 2522 
Q 3988 2688 4092 3000 
Q 4197 3313 4197 3566 
Q 4197 3881 3956 4014 
Q 3716 4147 3359 4147 
L 2747 4147 
Q 2572 4147 2515 4117 
Q 2459 4088 2413 3928 
L 1978 2188 
z
" transform="scale(0.015625)"/>
     </defs>
     <use xlink:href="#Cmmi10-50" transform="translate(0 0.6875)"/>
    </g>
   </g>
   <g id="text_12">
    <!-- $Q$ -->
    <g transform="translate(279.393122 63.055125) scale(0.15 -0.15)">
     <defs>
      <path id="Cmmi10-51" d="M 1947 -141 
Q 1466 -141 1094 79 
Q 722 300 520 692 
Q 319 1084 319 1563 
Q 319 2259 714 2950 
Q 1109 3641 1756 4077 
Q 2403 4513 3109 4513 
Q 3475 4513 3778 4381 
Q 4081 4250 4290 4017 
Q 4500 3784 4614 3471 
Q 4728 3159 4728 2791 
Q 4728 2366 4581 1936 
Q 4434 1506 4171 1136 
Q 3909 766 3559 484 
Q 3209 203 2809 38 
Q 2850 -256 2934 -425 
Q 3019 -594 3256 -594 
Q 3506 -594 3726 -412 
Q 3947 -231 4006 13 
Q 4019 72 4078 72 
Q 4147 72 4147 -13 
Q 4100 -219 4008 -430 
Q 3916 -641 3786 -823 
Q 3656 -1006 3478 -1123 
Q 3300 -1241 3084 -1241 
Q 2547 -1241 2547 -550 
Q 2547 -509 2562 -332 
Q 2578 -156 2578 -44 
Q 2269 -141 1947 -141 
z
M 1709 300 
Q 1709 44 1991 44 
Q 2275 44 2591 184 
L 2591 244 
Q 2591 503 2509 648 
Q 2428 794 2194 794 
Q 2078 794 1964 723 
Q 1850 653 1779 539 
Q 1709 425 1709 300 
z
M 1544 288 
Q 1544 456 1637 612 
Q 1731 769 1881 864 
Q 2031 959 2203 959 
Q 2481 959 2607 771 
Q 2734 584 2778 281 
Q 3188 525 3500 978 
Q 3813 1431 3977 1973 
Q 4141 2516 4141 3003 
Q 4141 3356 4023 3656 
Q 3906 3956 3664 4140 
Q 3422 4325 3066 4325 
Q 2722 4325 2403 4156 
Q 2084 3988 1813 3706 
Q 1550 3434 1342 3032 
Q 1134 2631 1021 2193 
Q 909 1756 909 1356 
Q 909 947 1068 612 
Q 1228 278 1569 128 
Q 1544 194 1544 288 
z
" transform="scale(0.015625)"/>
     </defs>
     <use xlink:href="#Cmmi10-51" transform="translate(0 0.484375)"/>
    </g>
   </g>
  </g>
 </g>
 <defs>
  <clipPath id="ped8540b2fe">
   <rect x="13.429146" y="23.4425" width="307.437538" height="307.437538"/>
  </clipPath>
 </defs>
</svg>
