<?xml version="1.0" encoding="utf-8" standalone="no"?>
<!DOCTYPE svg PUBLIC "-//W3C//DTD SVG 1.1//EN"
  "http://www.w3.org/Graphics/SVG/1.1/DTD/svg11.dtd">
<svg xmlns:xlink="http://www.w3.org/1999/xlink" width="336.436372pt" height="338.080038pt" viewBox="0 0 336.436372 338.080038" xmlns="http://www.w3.org/2000/svg" version="1.1">
 <metadata>
  <rdf:RDF xmlns:dc="http://purl.org/dc/elements/1.1/" xmlns:cc="http://creativecommons.org/ns#" xmlns:rdf="http://www.w3.org/1999/02/22-rdf-syntax-ns#">
   <cc:Work>
    <dc:type rdf:resource="http://purl.org/dc/dcmitype/StillImage"/>
    <dc:date>2025-07-25T20:22:28.758157</dc:date>
    <dc:format>image/svg+xml</dc:format>
    <dc:creator>
     <cc:Agent>
      <dc:title>Matplotlib v3.10.3, https://matplotlib.org/</dc:title>
     </cc:Agent>
    </dc:creator>
   </cc:Work>
  </rdf:RDF>
 </metadata>
 <defs>
  <style type="text/css">*{stroke-linejoin: round; stroke-linecap: butt}</style>
 </defs>
 <g id="figure_1">
  <g id="patch_1">
   <path d="M 0 338.080038 
L 336.436372 338.080038 
L 336.436372 0 
L 0 0 
z
" style="fill: #ffffff"/>
  </g>
  <g id="axes_1">
   <g id="patch_2">
    <path d="M 8.658833 330.880038 
L 316.096372 330.880038 
L 316.096372 23.4425 
L 8.658833 23.4425 
z
" style="fill: #ffffff"/>
   </g>
   <g id="PathCollection_1">
    <path d="M 162.377603 177.161269 
C 162.377603 177.161269 162.377603 177.161269 162.377603 177.161269 
C 162.377603 177.161269 162.377603 177.161269 162.377603 177.161269 
C 162.377603 177.161269 162.377603 177.161269 162.377603 177.161269 
C 162.377603 177.161269 162.377603 177.161269 162.377603 177.161269 
C 162.377603 177.161269 162.377603 177.161269 162.377603 177.161269 
C 162.377603 177.161269 162.377603 177.161269 162.377603 177.161269 
C 162.377603 177.161269 162.377603 177.161269 162.377603 177.161269 
C 162.377603 177.161269 162.377603 177.161269 162.377603 177.161269 
z
" clip-path="url(#pa369670041)"/>
   </g>
   <g id="matplotlib.axis_1">
    <g id="xtick_1">
     <g id="line2d_1">
      <defs>
       <path id="m4bd1580851" d="M 0 0 
L 0 3.5 
" style="stroke: #000000; stroke-width: 0.8"/>
      </defs>
      <g>
       <use xlink:href="#m4bd1580851" x="14.571094" y="177.161269" style="stroke: #000000; stroke-width: 0.8"/>
      </g>
     </g>
     <g id="text_1">
      <!-- −4 -->
      <g transform="translate(7.2 191.759707) scale(0.1 -0.1)">
       <defs>
        <path id="DejaVuSans-2212" d="M 678 2272 
L 4684 2272 
L 4684 1741 
L 678 1741 
L 678 2272 
z
" transform="scale(0.015625)"/>
        <path id="DejaVuSans-34" d="M 2419 4116 
L 825 1625 
L 2419 1625 
L 2419 4116 
z
M 2253 4666 
L 3047 4666 
L 3047 1625 
L 3713 1625 
L 3713 1100 
L 3047 1100 
L 3047 0 
L 2419 0 
L 2419 1100 
L 313 1100 
L 313 1709 
L 2253 4666 
z
" transform="scale(0.015625)"/>
       </defs>
       <use xlink:href="#DejaVuSans-2212"/>
       <use xlink:href="#DejaVuSans-34" transform="translate(83.789062 0)"/>
      </g>
     </g>
    </g>
    <g id="xtick_2">
     <g id="line2d_2">
      <g>
       <use xlink:href="#m4bd1580851" x="51.522721" y="177.161269" style="stroke: #000000; stroke-width: 0.8"/>
      </g>
     </g>
     <g id="text_2">
      <!-- −3 -->
      <g transform="translate(44.151627 191.759707) scale(0.1 -0.1)">
       <defs>
        <path id="DejaVuSans-33" d="M 2597 2516 
Q 3050 2419 3304 2112 
Q 3559 1806 3559 1356 
Q 3559 666 3084 287 
Q 2609 -91 1734 -91 
Q 1441 -91 1130 -33 
Q 819 25 488 141 
L 488 750 
Q 750 597 1062 519 
Q 1375 441 1716 441 
Q 2309 441 2620 675 
Q 2931 909 2931 1356 
Q 2931 1769 2642 2001 
Q 2353 2234 1838 2234 
L 1294 2234 
L 1294 2753 
L 1863 2753 
Q 2328 2753 2575 2939 
Q 2822 3125 2822 3475 
Q 2822 3834 2567 4026 
Q 2313 4219 1838 4219 
Q 1578 4219 1281 4162 
Q 984 4106 628 3988 
L 628 4550 
Q 988 4650 1302 4700 
Q 1616 4750 1894 4750 
Q 2613 4750 3031 4423 
Q 3450 4097 3450 3541 
Q 3450 3153 3228 2886 
Q 3006 2619 2597 2516 
z
" transform="scale(0.015625)"/>
       </defs>
       <use xlink:href="#DejaVuSans-2212"/>
       <use xlink:href="#DejaVuSans-33" transform="translate(83.789062 0)"/>
      </g>
     </g>
    </g>
    <g id="xtick_3">
     <g id="line2d_3">
      <g>
       <use xlink:href="#m4bd1580851" x="88.474348" y="177.161269" style="stroke: #000000; stroke-width: 0.8"/>
      </g>
     </g>
     <g id="text_3">
      <!-- −2 -->
      <g transform="translate(81.103254 191.759707) scale(0.1 -0.1)">
       <defs>
        <path id="DejaVuSans-32" d="M 1228 531 
L 3431 531 
L 3431 0 
L 469 0 
L 469 531 
Q 828 903 1448 1529 
Q 2069 2156 2228 2338 
Q 2531 2678 2651 2914 
Q 2772 3150 2772 3378 
Q 2772 3750 2511 3984 
Q 2250 4219 1831 4219 
Q 1534 4219 1204 4116 
Q 875 4013 500 3803 
L 500 4441 
Q 881 4594 1212 4672 
Q 1544 4750 1819 4750 
Q 2544 4750 2975 4387 
Q 3406 4025 3406 3419 
Q 3406 3131 3298 2873 
Q 3191 2616 2906 2266 
Q 2828 2175 2409 1742 
Q 1991 1309 1228 531 
z
" transform="scale(0.015625)"/>
       </defs>
       <use xlink:href="#DejaVuSans-2212"/>
       <use xlink:href="#DejaVuSans-32" transform="translate(83.789062 0)"/>
      </g>
     </g>
    </g>
    <g id="xtick_4">
     <g id="line2d_4">
      <g>
       <use xlink:href="#m4bd1580851" x="125.425975" y="177.161269" style="stroke: #000000; stroke-width: 0.8"/>
      </g>
     </g>
     <g id="text_4">
      <!-- −1 -->
      <g transform="translate(118.054882 191.759707) scale(0.1 -0.1)">
       <defs>
        <path id="DejaVuSans-31" d="M 794 531 
L 1825 531 
L 1825 4091 
L 703 3866 
L 703 4441 
L 1819 4666 
L 2450 4666 
L 2450 531 
L 3481 531 
L 3481 0 
L 794 0 
L 794 531 
z
" transform="scale(0.015625)"/>
       </defs>
       <use xlink:href="#DejaVuSans-2212"/>
       <use xlink:href="#DejaVuSans-31" transform="translate(83.789062 0)"/>
      </g>
     </g>
    </g>
    <g id="xtick_5">
     <g id="line2d_5">
      <g>
       <use xlink:href="#m4bd1580851" x="162.377603" y="177.161269" style="stroke: #000000; stroke-width: 0.8"/>
      </g>
     </g>
    </g>
    <g id="xtick_6">
     <g id="line2d_6">
      <g>
       <use xlink:href="#m4bd1580851" x="199.32923" y="177.161269" style="stroke: #000000; stroke-width: 0.8"/>
      </g>
     </g>
     <g id="text_5">
      <!-- 1 -->
      <g transform="translate(196.14798 191.759707) scale(0.1 -0.1)">
       <use xlink:href="#DejaVuSans-31"/>
      </g>
     </g>
    </g>
    <g id="xtick_7">
     <g id="line2d_7">
      <g>
       <use xlink:href="#m4bd1580851" x="236.280857" y="177.161269" style="stroke: #000000; stroke-width: 0.8"/>
      </g>
     </g>
     <g id="text_6">
      <!-- 2 -->
      <g transform="translate(233.099607 191.759707) scale(0.1 -0.1)">
       <use xlink:href="#DejaVuSans-32"/>
      </g>
     </g>
    </g>
    <g id="xtick_8">
     <g id="line2d_8">
      <g>
       <use xlink:href="#m4bd1580851" x="273.232484" y="177.161269" style="stroke: #000000; stroke-width: 0.8"/>
      </g>
     </g>
     <g id="text_7">
      <!-- 3 -->
      <g transform="translate(270.051234 191.759707) scale(0.1 -0.1)">
       <use xlink:href="#DejaVuSans-33"/>
      </g>
     </g>
    </g>
    <g id="xtick_9">
     <g id="line2d_9">
      <g>
       <use xlink:href="#m4bd1580851" x="310.184112" y="177.161269" style="stroke: #000000; stroke-width: 0.8"/>
      </g>
     </g>
     <g id="text_8">
      <!-- 4 -->
      <g transform="translate(307.002862 191.759707) scale(0.1 -0.1)">
       <use xlink:href="#DejaVuSans-34"/>
      </g>
     </g>
    </g>
    <g id="xtick_10">
     <g id="line2d_10">
      <defs>
       <path id="m93a00e8777" d="M 0 0 
L 0 2 
" style="stroke: #000000; stroke-width: 0.6"/>
      </defs>
      <g>
       <use xlink:href="#m93a00e8777" x="21.961419" y="177.161269" style="stroke: #000000; stroke-width: 0.6"/>
      </g>
     </g>
    </g>
    <g id="xtick_11">
     <g id="line2d_11">
      <g>
       <use xlink:href="#m93a00e8777" x="29.351745" y="177.161269" style="stroke: #000000; stroke-width: 0.6"/>
      </g>
     </g>
    </g>
    <g id="xtick_12">
     <g id="line2d_12">
      <g>
       <use xlink:href="#m93a00e8777" x="36.74207" y="177.161269" style="stroke: #000000; stroke-width: 0.6"/>
      </g>
     </g>
    </g>
    <g id="xtick_13">
     <g id="line2d_13">
      <g>
       <use xlink:href="#m93a00e8777" x="44.132396" y="177.161269" style="stroke: #000000; stroke-width: 0.6"/>
      </g>
     </g>
    </g>
    <g id="xtick_14">
     <g id="line2d_14">
      <g>
       <use xlink:href="#m93a00e8777" x="58.913046" y="177.161269" style="stroke: #000000; stroke-width: 0.6"/>
      </g>
     </g>
    </g>
    <g id="xtick_15">
     <g id="line2d_15">
      <g>
       <use xlink:href="#m93a00e8777" x="66.303372" y="177.161269" style="stroke: #000000; stroke-width: 0.6"/>
      </g>
     </g>
    </g>
    <g id="xtick_16">
     <g id="line2d_16">
      <g>
       <use xlink:href="#m93a00e8777" x="73.693697" y="177.161269" style="stroke: #000000; stroke-width: 0.6"/>
      </g>
     </g>
    </g>
    <g id="xtick_17">
     <g id="line2d_17">
      <g>
       <use xlink:href="#m93a00e8777" x="81.084023" y="177.161269" style="stroke: #000000; stroke-width: 0.6"/>
      </g>
     </g>
    </g>
    <g id="xtick_18">
     <g id="line2d_18">
      <g>
       <use xlink:href="#m93a00e8777" x="95.864674" y="177.161269" style="stroke: #000000; stroke-width: 0.6"/>
      </g>
     </g>
    </g>
    <g id="xtick_19">
     <g id="line2d_19">
      <g>
       <use xlink:href="#m93a00e8777" x="103.254999" y="177.161269" style="stroke: #000000; stroke-width: 0.6"/>
      </g>
     </g>
    </g>
    <g id="xtick_20">
     <g id="line2d_20">
      <g>
       <use xlink:href="#m93a00e8777" x="110.645325" y="177.161269" style="stroke: #000000; stroke-width: 0.6"/>
      </g>
     </g>
    </g>
    <g id="xtick_21">
     <g id="line2d_21">
      <g>
       <use xlink:href="#m93a00e8777" x="118.03565" y="177.161269" style="stroke: #000000; stroke-width: 0.6"/>
      </g>
     </g>
    </g>
    <g id="xtick_22">
     <g id="line2d_22">
      <g>
       <use xlink:href="#m93a00e8777" x="132.816301" y="177.161269" style="stroke: #000000; stroke-width: 0.6"/>
      </g>
     </g>
    </g>
    <g id="xtick_23">
     <g id="line2d_23">
      <g>
       <use xlink:href="#m93a00e8777" x="140.206626" y="177.161269" style="stroke: #000000; stroke-width: 0.6"/>
      </g>
     </g>
    </g>
    <g id="xtick_24">
     <g id="line2d_24">
      <g>
       <use xlink:href="#m93a00e8777" x="147.596952" y="177.161269" style="stroke: #000000; stroke-width: 0.6"/>
      </g>
     </g>
    </g>
    <g id="xtick_25">
     <g id="line2d_25">
      <g>
       <use xlink:href="#m93a00e8777" x="154.987277" y="177.161269" style="stroke: #000000; stroke-width: 0.6"/>
      </g>
     </g>
    </g>
    <g id="xtick_26">
     <g id="line2d_26">
      <g>
       <use xlink:href="#m93a00e8777" x="169.767928" y="177.161269" style="stroke: #000000; stroke-width: 0.6"/>
      </g>
     </g>
    </g>
    <g id="xtick_27">
     <g id="line2d_27">
      <g>
       <use xlink:href="#m93a00e8777" x="177.158254" y="177.161269" style="stroke: #000000; stroke-width: 0.6"/>
      </g>
     </g>
    </g>
    <g id="xtick_28">
     <g id="line2d_28">
      <g>
       <use xlink:href="#m93a00e8777" x="184.548579" y="177.161269" style="stroke: #000000; stroke-width: 0.6"/>
      </g>
     </g>
    </g>
    <g id="xtick_29">
     <g id="line2d_29">
      <g>
       <use xlink:href="#m93a00e8777" x="191.938904" y="177.161269" style="stroke: #000000; stroke-width: 0.6"/>
      </g>
     </g>
    </g>
    <g id="xtick_30">
     <g id="line2d_30">
      <g>
       <use xlink:href="#m93a00e8777" x="206.719555" y="177.161269" style="stroke: #000000; stroke-width: 0.6"/>
      </g>
     </g>
    </g>
    <g id="xtick_31">
     <g id="line2d_31">
      <g>
       <use xlink:href="#m93a00e8777" x="214.109881" y="177.161269" style="stroke: #000000; stroke-width: 0.6"/>
      </g>
     </g>
    </g>
    <g id="xtick_32">
     <g id="line2d_32">
      <g>
       <use xlink:href="#m93a00e8777" x="221.500206" y="177.161269" style="stroke: #000000; stroke-width: 0.6"/>
      </g>
     </g>
    </g>
    <g id="xtick_33">
     <g id="line2d_33">
      <g>
       <use xlink:href="#m93a00e8777" x="228.890532" y="177.161269" style="stroke: #000000; stroke-width: 0.6"/>
      </g>
     </g>
    </g>
    <g id="xtick_34">
     <g id="line2d_34">
      <g>
       <use xlink:href="#m93a00e8777" x="243.671183" y="177.161269" style="stroke: #000000; stroke-width: 0.6"/>
      </g>
     </g>
    </g>
    <g id="xtick_35">
     <g id="line2d_35">
      <g>
       <use xlink:href="#m93a00e8777" x="251.061508" y="177.161269" style="stroke: #000000; stroke-width: 0.6"/>
      </g>
     </g>
    </g>
    <g id="xtick_36">
     <g id="line2d_36">
      <g>
       <use xlink:href="#m93a00e8777" x="258.451833" y="177.161269" style="stroke: #000000; stroke-width: 0.6"/>
      </g>
     </g>
    </g>
    <g id="xtick_37">
     <g id="line2d_37">
      <g>
       <use xlink:href="#m93a00e8777" x="265.842159" y="177.161269" style="stroke: #000000; stroke-width: 0.6"/>
      </g>
     </g>
    </g>
    <g id="xtick_38">
     <g id="line2d_38">
      <g>
       <use xlink:href="#m93a00e8777" x="280.62281" y="177.161269" style="stroke: #000000; stroke-width: 0.6"/>
      </g>
     </g>
    </g>
    <g id="xtick_39">
     <g id="line2d_39">
      <g>
       <use xlink:href="#m93a00e8777" x="288.013135" y="177.161269" style="stroke: #000000; stroke-width: 0.6"/>
      </g>
     </g>
    </g>
    <g id="xtick_40">
     <g id="line2d_40">
      <g>
       <use xlink:href="#m93a00e8777" x="295.403461" y="177.161269" style="stroke: #000000; stroke-width: 0.6"/>
      </g>
     </g>
    </g>
    <g id="xtick_41">
     <g id="line2d_41">
      <g>
       <use xlink:href="#m93a00e8777" x="302.793786" y="177.161269" style="stroke: #000000; stroke-width: 0.6"/>
      </g>
     </g>
    </g>
    <g id="text_9">
     <!-- $x$ -->
     <g transform="translate(324.096372 177.161269) scale(0.16 -0.16)">
      <defs>
       <path id="Cmmi10-78" d="M 500 184 
Q 613 97 819 97 
Q 1019 97 1172 289 
Q 1325 481 1381 709 
L 1672 1844 
Q 1741 2153 1741 2266 
Q 1741 2425 1652 2544 
Q 1563 2663 1403 2663 
Q 1200 2663 1022 2536 
Q 844 2409 722 2214 
Q 600 2019 550 1819 
Q 538 1778 500 1778 
L 422 1778 
Q 372 1778 372 1838 
L 372 1856 
Q 434 2094 584 2320 
Q 734 2547 951 2687 
Q 1169 2828 1416 2828 
Q 1650 2828 1839 2703 
Q 2028 2578 2106 2363 
Q 2216 2559 2386 2693 
Q 2556 2828 2759 2828 
Q 2897 2828 3040 2779 
Q 3184 2731 3275 2631 
Q 3366 2531 3366 2381 
Q 3366 2219 3261 2101 
Q 3156 1984 2994 1984 
Q 2891 1984 2822 2050 
Q 2753 2116 2753 2216 
Q 2753 2350 2845 2451 
Q 2938 2553 3066 2572 
Q 2950 2663 2747 2663 
Q 2541 2663 2389 2472 
Q 2238 2281 2175 2047 
L 1894 916 
Q 1825 659 1825 494 
Q 1825 331 1917 214 
Q 2009 97 2163 97 
Q 2463 97 2698 361 
Q 2934 625 3009 941 
Q 3022 978 3059 978 
L 3138 978 
Q 3163 978 3178 961 
Q 3194 944 3194 922 
Q 3194 916 3188 903 
Q 3097 522 2806 225 
Q 2516 -72 2150 -72 
Q 1916 -72 1727 54 
Q 1538 181 1459 397 
Q 1359 209 1182 68 
Q 1006 -72 806 -72 
Q 669 -72 523 -23 
Q 378 25 287 125 
Q 197 225 197 378 
Q 197 528 301 651 
Q 406 775 563 775 
Q 669 775 741 711 
Q 813 647 813 544 
Q 813 409 723 309 
Q 634 209 500 184 
z
" transform="scale(0.015625)"/>
      </defs>
      <use xlink:href="#Cmmi10-78" transform="translate(0 0.8125)"/>
     </g>
    </g>
   </g>
   <g id="matplotlib.axis_2">
    <g id="ytick_1">
     <g id="line2d_42">
      <defs>
       <path id="me829a1e09c" d="M 0 0 
L -3.5 0 
" style="stroke: #000000; stroke-width: 0.8"/>
      </defs>
      <g>
       <use xlink:href="#me829a1e09c" x="162.377603" y="324.967778" style="stroke: #000000; stroke-width: 0.8"/>
      </g>
     </g>
     <g id="text_10">
      <!-- −4 -->
      <g transform="translate(140.635415 328.766997) scale(0.1 -0.1)">
       <use xlink:href="#DejaVuSans-2212"/>
       <use xlink:href="#DejaVuSans-34" transform="translate(83.789062 0)"/>
      </g>
     </g>
    </g>
    <g id="ytick_2">
     <g id="line2d_43">
      <g>
       <use xlink:href="#me829a1e09c" x="162.377603" y="288.016151" style="stroke: #000000; stroke-width: 0.8"/>
      </g>
     </g>
     <g id="text_11">
      <!-- −3 -->
      <g transform="translate(140.635415 291.81537) scale(0.1 -0.1)">
       <use xlink:href="#DejaVuSans-2212"/>
       <use xlink:href="#DejaVuSans-33" transform="translate(83.789062 0)"/>
      </g>
     </g>
    </g>
    <g id="ytick_3">
     <g id="line2d_44">
      <g>
       <use xlink:href="#me829a1e09c" x="162.377603" y="251.064524" style="stroke: #000000; stroke-width: 0.8"/>
      </g>
     </g>
     <g id="text_12">
      <!-- −2 -->
      <g transform="translate(140.635415 254.863742) scale(0.1 -0.1)">
       <use xlink:href="#DejaVuSans-2212"/>
       <use xlink:href="#DejaVuSans-32" transform="translate(83.789062 0)"/>
      </g>
     </g>
    </g>
    <g id="ytick_4">
     <g id="line2d_45">
      <g>
       <use xlink:href="#me829a1e09c" x="162.377603" y="214.112896" style="stroke: #000000; stroke-width: 0.8"/>
      </g>
     </g>
     <g id="text_13">
      <!-- −1 -->
      <g transform="translate(140.635415 217.912115) scale(0.1 -0.1)">
       <use xlink:href="#DejaVuSans-2212"/>
       <use xlink:href="#DejaVuSans-31" transform="translate(83.789062 0)"/>
      </g>
     </g>
    </g>
    <g id="ytick_5">
     <g id="line2d_46">
      <g>
       <use xlink:href="#me829a1e09c" x="162.377603" y="177.161269" style="stroke: #000000; stroke-width: 0.8"/>
      </g>
     </g>
    </g>
    <g id="ytick_6">
     <g id="line2d_47">
      <g>
       <use xlink:href="#me829a1e09c" x="162.377603" y="140.209642" style="stroke: #000000; stroke-width: 0.8"/>
      </g>
     </g>
     <g id="text_14">
      <!-- 1 -->
      <g transform="translate(149.015103 144.008861) scale(0.1 -0.1)">
       <use xlink:href="#DejaVuSans-31"/>
      </g>
     </g>
    </g>
    <g id="ytick_7">
     <g id="line2d_48">
      <g>
       <use xlink:href="#me829a1e09c" x="162.377603" y="103.258015" style="stroke: #000000; stroke-width: 0.8"/>
      </g>
     </g>
     <g id="text_15">
      <!-- 2 -->
      <g transform="translate(149.015103 107.057234) scale(0.1 -0.1)">
       <use xlink:href="#DejaVuSans-32"/>
      </g>
     </g>
    </g>
    <g id="ytick_8">
     <g id="line2d_49">
      <g>
       <use xlink:href="#me829a1e09c" x="162.377603" y="66.306388" style="stroke: #000000; stroke-width: 0.8"/>
      </g>
     </g>
     <g id="text_16">
      <!-- 3 -->
      <g transform="translate(149.015103 70.105606) scale(0.1 -0.1)">
       <use xlink:href="#DejaVuSans-33"/>
      </g>
     </g>
    </g>
    <g id="ytick_9">
     <g id="line2d_50">
      <g>
       <use xlink:href="#me829a1e09c" x="162.377603" y="29.35476" style="stroke: #000000; stroke-width: 0.8"/>
      </g>
     </g>
     <g id="text_17">
      <!-- 4 -->
      <g transform="translate(149.015103 33.153979) scale(0.1 -0.1)">
       <use xlink:href="#DejaVuSans-34"/>
      </g>
     </g>
    </g>
    <g id="ytick_10">
     <g id="line2d_51">
      <defs>
       <path id="m32818819a9" d="M 0 0 
L -2 0 
" style="stroke: #000000; stroke-width: 0.6"/>
      </defs>
      <g>
       <use xlink:href="#m32818819a9" x="162.377603" y="317.577453" style="stroke: #000000; stroke-width: 0.6"/>
      </g>
     </g>
    </g>
    <g id="ytick_11">
     <g id="line2d_52">
      <g>
       <use xlink:href="#m32818819a9" x="162.377603" y="310.187127" style="stroke: #000000; stroke-width: 0.6"/>
      </g>
     </g>
    </g>
    <g id="ytick_12">
     <g id="line2d_53">
      <g>
       <use xlink:href="#m32818819a9" x="162.377603" y="302.796802" style="stroke: #000000; stroke-width: 0.6"/>
      </g>
     </g>
    </g>
    <g id="ytick_13">
     <g id="line2d_54">
      <g>
       <use xlink:href="#m32818819a9" x="162.377603" y="295.406476" style="stroke: #000000; stroke-width: 0.6"/>
      </g>
     </g>
    </g>
    <g id="ytick_14">
     <g id="line2d_55">
      <g>
       <use xlink:href="#m32818819a9" x="162.377603" y="280.625825" style="stroke: #000000; stroke-width: 0.6"/>
      </g>
     </g>
    </g>
    <g id="ytick_15">
     <g id="line2d_56">
      <g>
       <use xlink:href="#m32818819a9" x="162.377603" y="273.2355" style="stroke: #000000; stroke-width: 0.6"/>
      </g>
     </g>
    </g>
    <g id="ytick_16">
     <g id="line2d_57">
      <g>
       <use xlink:href="#m32818819a9" x="162.377603" y="265.845175" style="stroke: #000000; stroke-width: 0.6"/>
      </g>
     </g>
    </g>
    <g id="ytick_17">
     <g id="line2d_58">
      <g>
       <use xlink:href="#m32818819a9" x="162.377603" y="258.454849" style="stroke: #000000; stroke-width: 0.6"/>
      </g>
     </g>
    </g>
    <g id="ytick_18">
     <g id="line2d_59">
      <g>
       <use xlink:href="#m32818819a9" x="162.377603" y="243.674198" style="stroke: #000000; stroke-width: 0.6"/>
      </g>
     </g>
    </g>
    <g id="ytick_19">
     <g id="line2d_60">
      <g>
       <use xlink:href="#m32818819a9" x="162.377603" y="236.283873" style="stroke: #000000; stroke-width: 0.6"/>
      </g>
     </g>
    </g>
    <g id="ytick_20">
     <g id="line2d_61">
      <g>
       <use xlink:href="#m32818819a9" x="162.377603" y="228.893547" style="stroke: #000000; stroke-width: 0.6"/>
      </g>
     </g>
    </g>
    <g id="ytick_21">
     <g id="line2d_62">
      <g>
       <use xlink:href="#m32818819a9" x="162.377603" y="221.503222" style="stroke: #000000; stroke-width: 0.6"/>
      </g>
     </g>
    </g>
    <g id="ytick_22">
     <g id="line2d_63">
      <g>
       <use xlink:href="#m32818819a9" x="162.377603" y="206.722571" style="stroke: #000000; stroke-width: 0.6"/>
      </g>
     </g>
    </g>
    <g id="ytick_23">
     <g id="line2d_64">
      <g>
       <use xlink:href="#m32818819a9" x="162.377603" y="199.332246" style="stroke: #000000; stroke-width: 0.6"/>
      </g>
     </g>
    </g>
    <g id="ytick_24">
     <g id="line2d_65">
      <g>
       <use xlink:href="#m32818819a9" x="162.377603" y="191.94192" style="stroke: #000000; stroke-width: 0.6"/>
      </g>
     </g>
    </g>
    <g id="ytick_25">
     <g id="line2d_66">
      <g>
       <use xlink:href="#m32818819a9" x="162.377603" y="184.551595" style="stroke: #000000; stroke-width: 0.6"/>
      </g>
     </g>
    </g>
    <g id="ytick_26">
     <g id="line2d_67">
      <g>
       <use xlink:href="#m32818819a9" x="162.377603" y="169.770944" style="stroke: #000000; stroke-width: 0.6"/>
      </g>
     </g>
    </g>
    <g id="ytick_27">
     <g id="line2d_68">
      <g>
       <use xlink:href="#m32818819a9" x="162.377603" y="162.380618" style="stroke: #000000; stroke-width: 0.6"/>
      </g>
     </g>
    </g>
    <g id="ytick_28">
     <g id="line2d_69">
      <g>
       <use xlink:href="#m32818819a9" x="162.377603" y="154.990293" style="stroke: #000000; stroke-width: 0.6"/>
      </g>
     </g>
    </g>
    <g id="ytick_29">
     <g id="line2d_70">
      <g>
       <use xlink:href="#m32818819a9" x="162.377603" y="147.599967" style="stroke: #000000; stroke-width: 0.6"/>
      </g>
     </g>
    </g>
    <g id="ytick_30">
     <g id="line2d_71">
      <g>
       <use xlink:href="#m32818819a9" x="162.377603" y="132.819317" style="stroke: #000000; stroke-width: 0.6"/>
      </g>
     </g>
    </g>
    <g id="ytick_31">
     <g id="line2d_72">
      <g>
       <use xlink:href="#m32818819a9" x="162.377603" y="125.428991" style="stroke: #000000; stroke-width: 0.6"/>
      </g>
     </g>
    </g>
    <g id="ytick_32">
     <g id="line2d_73">
      <g>
       <use xlink:href="#m32818819a9" x="162.377603" y="118.038666" style="stroke: #000000; stroke-width: 0.6"/>
      </g>
     </g>
    </g>
    <g id="ytick_33">
     <g id="line2d_74">
      <g>
       <use xlink:href="#m32818819a9" x="162.377603" y="110.64834" style="stroke: #000000; stroke-width: 0.6"/>
      </g>
     </g>
    </g>
    <g id="ytick_34">
     <g id="line2d_75">
      <g>
       <use xlink:href="#m32818819a9" x="162.377603" y="95.867689" style="stroke: #000000; stroke-width: 0.6"/>
      </g>
     </g>
    </g>
    <g id="ytick_35">
     <g id="line2d_76">
      <g>
       <use xlink:href="#m32818819a9" x="162.377603" y="88.477364" style="stroke: #000000; stroke-width: 0.6"/>
      </g>
     </g>
    </g>
    <g id="ytick_36">
     <g id="line2d_77">
      <g>
       <use xlink:href="#m32818819a9" x="162.377603" y="81.087038" style="stroke: #000000; stroke-width: 0.6"/>
      </g>
     </g>
    </g>
    <g id="ytick_37">
     <g id="line2d_78">
      <g>
       <use xlink:href="#m32818819a9" x="162.377603" y="73.696713" style="stroke: #000000; stroke-width: 0.6"/>
      </g>
     </g>
    </g>
    <g id="ytick_38">
     <g id="line2d_79">
      <g>
       <use xlink:href="#m32818819a9" x="162.377603" y="58.916062" style="stroke: #000000; stroke-width: 0.6"/>
      </g>
     </g>
    </g>
    <g id="ytick_39">
     <g id="line2d_80">
      <g>
       <use xlink:href="#m32818819a9" x="162.377603" y="51.525737" style="stroke: #000000; stroke-width: 0.6"/>
      </g>
     </g>
    </g>
    <g id="ytick_40">
     <g id="line2d_81">
      <g>
       <use xlink:href="#m32818819a9" x="162.377603" y="44.135411" style="stroke: #000000; stroke-width: 0.6"/>
      </g>
     </g>
    </g>
    <g id="ytick_41">
     <g id="line2d_82">
      <g>
       <use xlink:href="#m32818819a9" x="162.377603" y="36.745086" style="stroke: #000000; stroke-width: 0.6"/>
      </g>
     </g>
    </g>
    <g id="text_18">
     <!-- $y$ -->
     <g transform="translate(158.377603 12.0825) scale(0.16 -0.16)">
      <defs>
       <path id="Cmmi10-79" d="M 538 -916 
Q 672 -1147 1006 -1147 
Q 1309 -1147 1531 -934 
Q 1753 -722 1889 -420 
Q 2025 -119 2100 197 
Q 1816 -72 1484 -72 
Q 1231 -72 1053 15 
Q 875 103 776 276 
Q 678 450 678 697 
Q 678 906 734 1126 
Q 791 1347 892 1617 
Q 994 1888 1069 2088 
Q 1153 2322 1153 2472 
Q 1153 2663 1013 2663 
Q 759 2663 595 2402 
Q 431 2141 353 1819 
Q 341 1778 300 1778 
L 225 1778 
Q 172 1778 172 1838 
L 172 1856 
Q 275 2238 487 2533 
Q 700 2828 1025 2828 
Q 1253 2828 1411 2678 
Q 1569 2528 1569 2297 
Q 1569 2178 1516 2047 
Q 1488 1969 1388 1706 
Q 1288 1444 1234 1272 
Q 1181 1100 1147 934 
Q 1113 769 1113 603 
Q 1113 391 1203 244 
Q 1294 97 1491 97 
Q 1888 97 2203 581 
L 2688 2553 
Q 2709 2638 2787 2698 
Q 2866 2759 2956 2759 
Q 3034 2759 3092 2709 
Q 3150 2659 3150 2578 
Q 3150 2541 3144 2528 
L 2509 -19 
Q 2425 -347 2200 -647 
Q 1975 -947 1658 -1130 
Q 1341 -1313 997 -1313 
Q 831 -1313 668 -1248 
Q 506 -1184 406 -1056 
Q 306 -928 306 -756 
Q 306 -581 409 -453 
Q 513 -325 684 -325 
Q 788 -325 858 -389 
Q 928 -453 928 -556 
Q 928 -703 818 -812 
Q 709 -922 563 -922 
Q 556 -919 550 -917 
Q 544 -916 538 -916 
z
" transform="scale(0.015625)"/>
      </defs>
      <use xlink:href="#Cmmi10-79" transform="translate(0 0.8125)"/>
     </g>
    </g>
   </g>
   <g id="line2d_83">
    <path d="M 199.32923 177.161269 
L 199.176602 173.806209 
L 198.880773 171.421819 
L 198.220003 168.175441 
L 197.2072 164.819394 
L 196.196708 162.271982 
L 194.705306 159.263158 
L 193.175326 156.742578 
L 191.564943 154.500247 
L 189.878085 152.480381 
L 187.655683 150.208692 
L 185.397439 148.256081 
L 183.122764 146.582501 
L 180.529387 144.975318 
L 178.391369 143.859887 
L 175.989338 142.808054 
L 174.098833 142.117931 
L 171.491851 141.351309 
L 168.088592 140.653635 
L 164.811315 140.289874 
L 161.947123 140.21215 
L 158.910594 140.372649 
L 156.853385 140.624907 
L 152.81923 141.467288 
L 149.684315 142.458197 
L 147.498432 143.337712 
L 145.271233 144.407722 
L 142.593951 145.951818 
L 140.410498 147.448157 
L 138.702522 148.790275 
L 135.939142 151.345953 
L 134.459665 152.953595 
L 132.637258 155.231046 
L 130.808835 157.956174 
L 129.311653 160.666853 
L 127.729577 164.318486 
L 126.755774 167.337418 
L 126.095454 170.15924 
L 125.680371 172.832768 
L 125.46754 175.409127 
L 125.462851 178.811692 
L 125.762689 182.1383 
L 126.246895 184.906896 
L 127.012285 187.871876 
L 128.1669 191.12732 
L 129.575055 194.17349 
L 131.471398 197.415386 
L 133.354311 200.032021 
L 135.309454 202.315555 
L 137.582734 204.559029 
L 139.302802 206.022599 
L 141.657222 207.756834 
L 144.139874 209.2986 
L 146.85717 210.695415 
L 150.19376 212.046463 
L 153.886636 213.124114 
L 156.107109 213.576976 
L 159.512928 214.001687 
L 161.681777 214.106344 
L 165.066459 214.014937 
L 167.553289 213.748631 
L 170.932614 213.108933 
L 173.613662 212.363169 
L 176.464271 211.322483 
L 179.943228 209.67083 
L 182.936286 207.86572 
L 185.325543 206.123569 
L 187.177 204.55493 
L 189.165402 202.613903 
L 190.49967 201.131502 
L 192.024574 199.217558 
L 193.818813 196.574488 
L 194.974083 194.565068 
L 196.143218 192.171464 
L 197.475044 188.719486 
L 198.169171 186.347476 
L 198.604104 184.445731 
L 199.154115 180.754438 
L 199.318589 178.048003 
L 199.32923 177.161269 
L 199.32923 177.161269 
" clip-path="url(#pa369670041)" style="fill: none; stroke-dasharray: 3.7,1.6; stroke-dashoffset: 0; stroke: #808080"/>
   </g>
   <g id="line2d_84">
    <path d="M 236.280857 177.161269 
L 236.223068 174.23924 
L 235.987056 170.578003 
L 235.588326 167.067657 
L 234.702406 161.96871 
L 233.670921 157.694533 
L 232.325407 153.307638 
L 230.976309 149.667479 
L 229.356552 145.928092 
L 227.805111 142.796576 
L 225.254732 138.326263 
L 223.096719 135.031945 
L 221.076093 132.259395 
L 218.403156 128.965539 
L 214.955407 125.226064 
L 211.869512 122.277374 
L 208.755084 119.621542 
L 205.111981 116.866461 
L 202.347277 114.999254 
L 198.060135 112.44305 
L 194.389785 110.551126 
L 191.693297 109.321155 
L 187.942391 107.82057 
L 183.265548 106.271321 
L 178.897031 105.127947 
L 173.87505 104.157847 
L 171.189631 103.785257 
L 165.872938 103.340719 
L 164.741824 103.295841 
L 158.725987 103.348284 
L 154.286282 103.702291 
L 150.290732 104.253118 
L 148.383459 104.595058 
L 142.372819 106.017052 
L 139.401571 106.920306 
L 134.658367 108.65335 
L 129.808651 110.82158 
L 125.215847 113.280952 
L 122.039998 115.237375 
L 118.498609 117.694262 
L 114.746723 120.654718 
L 111.834503 123.243869 
L 109.61836 125.410392 
L 106.14915 129.20241 
L 103.207991 132.882064 
L 100.714183 136.426594 
L 97.940699 140.973199 
L 96.008905 144.651471 
L 94.562001 147.788915 
L 93.047907 151.566654 
L 91.359118 156.71461 
L 90.47539 160.080203 
L 89.49808 164.902959 
L 88.960516 168.698264 
L 88.659339 171.935501 
L 88.478993 176.332698 
L 88.573076 180.98002 
L 88.903201 185.111318 
L 89.363524 188.590853 
L 89.993766 192.070032 
L 91.194369 197.026774 
L 92.162254 200.215462 
L 93.82296 204.764747 
L 95.390679 208.377341 
L 97.43148 212.427289 
L 99.850232 216.556941 
L 101.711058 219.366261 
L 104.554218 223.184602 
L 107.154575 226.274488 
L 110.448819 229.745415 
L 112.347267 231.554803 
L 114.718774 233.644249 
L 118.427136 236.575472 
L 121.197736 238.528276 
L 124.847115 240.825651 
L 127.554631 242.34602 
L 132.013685 244.53874 
L 136.314416 246.316177 
L 140.653305 247.799403 
L 143.390141 248.583726 
L 149.037803 249.850613 
L 153.959788 250.583551 
L 159.474108 251.007466 
L 163.529202 251.055551 
L 166.231706 250.963958 
L 171.925163 250.445204 
L 175.810935 249.833386 
L 177.265789 249.549341 
L 182.212684 248.352986 
L 185.972937 247.196626 
L 190.859819 245.355509 
L 195.805788 243.072174 
L 199.184056 241.246962 
L 203.831491 238.343506 
L 207.157965 235.952511 
L 209.477316 234.111318 
L 213.747106 230.291912 
L 216.982642 226.960673 
L 219.603789 223.925086 
L 222.444181 220.215853 
L 225.329791 215.874484 
L 227.605637 211.903096 
L 229.694532 207.659172 
L 231.593358 203.062432 
L 233.187023 198.320595 
L 234.440959 193.54918 
L 235.422781 188.390377 
L 235.79915 185.585481 
L 236.198361 180.652217 
L 236.280857 177.161269 
L 236.280857 177.161269 
" clip-path="url(#pa369670041)" style="fill: none; stroke-dasharray: 3.7,1.6; stroke-dashoffset: 0; stroke: #808080"/>
   </g>
   <g id="line2d_85">
    <path d="M 273.232484 177.161269 
L 273.135746 172.531102 
L 272.689699 166.204712 
L 272.092788 161.30621 
L 271.27251 156.407863 
L 270.288296 151.782401 
L 268.894941 146.45522 
L 267.340225 141.50103 
L 265.947397 137.637827 
L 263.882604 132.601875 
L 261.422439 127.372463 
L 258.793404 122.454798 
L 256.044657 117.871408 
L 253.528869 114.072035 
L 250.893362 110.424734 
L 247.837953 106.554377 
L 244.838014 103.072908 
L 241.295184 99.31 
L 237.534068 95.673169 
L 233.007474 91.719909 
L 229.20635 88.715108 
L 223.637268 84.770479 
L 220.359079 82.678714 
L 215.177741 79.688452 
L 210.49466 77.293589 
L 205.657881 75.104313 
L 201.734993 73.52826 
L 195.808566 71.467488 
L 193.401577 70.736095 
L 186.739632 69.016476 
L 183.227655 68.284825 
L 175.525559 67.088857 
L 168.850882 66.49555 
L 166.297287 66.375707 
L 159.115286 66.354401 
L 153.707716 66.645941 
L 147.203797 67.349793 
L 140.701677 68.446233 
L 137.643254 69.101023 
L 129.438214 71.313258 
L 125.444602 72.639701 
L 120.995389 74.320046 
L 117.294867 75.887621 
L 111.918835 78.456064 
L 107.30954 80.951533 
L 103.099825 83.486567 
L 97.444823 87.31396 
L 92.588648 91.031678 
L 89.13959 93.944695 
L 84.38582 98.38255 
L 81.373034 101.483897 
L 78.915821 104.202817 
L 75.532256 108.265039 
L 72.875699 111.753211 
L 70.064888 115.784014 
L 66.856463 120.907232 
L 64.123869 125.828934 
L 61.886662 130.35982 
L 59.731387 135.297691 
L 57.748534 140.533919 
L 56.244553 145.1522 
L 54.867236 150.136726 
L 54.054515 153.604667 
L 53.016368 159.024976 
L 52.154876 165.339456 
L 51.740944 170.208965 
L 51.533116 175.643222 
L 51.569137 180.36887 
L 51.945354 186.832007 
L 52.357923 190.743424 
L 52.971979 195.027839 
L 53.897434 199.983581 
L 55.086579 205.043897 
L 56.616763 210.379482 
L 58.202513 215.060551 
L 59.872041 219.368077 
L 62.128223 224.477933 
L 64.173149 228.587819 
L 66.623345 233.017575 
L 69.661768 237.927862 
L 72.808556 242.477352 
L 75.554471 246.085493 
L 79.237718 250.486329 
L 83.390112 254.941608 
L 86.963438 258.410937 
L 91.40863 262.321176 
L 95.170227 265.320066 
L 100.072223 268.850115 
L 104.344594 271.612181 
L 108.082491 273.809319 
L 111.477442 275.639584 
L 116.959425 278.284926 
L 121.915803 280.368089 
L 124.474286 281.33489 
L 131.352263 283.586046 
L 134.316799 284.405831 
L 140.565434 285.849052 
L 146.097273 286.814156 
L 151.661463 287.49698 
L 157.481885 287.907993 
L 163.930043 288.00528 
L 168.208782 287.862679 
L 172.556074 287.547879 
L 178.135818 286.890406 
L 185.972543 285.476012 
L 188.233696 284.958613 
L 192.490148 283.84791 
L 195.71209 282.885518 
L 200.110701 281.396666 
L 205.492636 279.288145 
L 210.750071 276.905488 
L 215.911602 274.232973 
L 219.697377 272.046717 
L 225.302381 268.426142 
L 228.774012 265.932445 
L 231.334579 263.95839 
L 235.97861 260.056966 
L 239.204722 257.076215 
L 242.276037 254.00556 
L 246.032393 249.898336 
L 249.319102 245.936123 
L 252.686118 241.451057 
L 255.347923 237.537791 
L 257.551654 234.000558 
L 260.360959 229.007838 
L 263.009221 223.659464 
L 265.078193 218.891277 
L 266.717311 214.60496 
L 268.112506 210.461944 
L 269.418655 205.988649 
L 270.731415 200.576141 
L 271.791795 194.975286 
L 272.516405 189.740975 
L 272.935165 185.27485 
L 273.203691 179.687714 
L 273.232484 177.161269 
L 273.232484 177.161269 
" clip-path="url(#pa369670041)" style="fill: none; stroke-dasharray: 3.7,1.6; stroke-dashoffset: 0; stroke: #808080"/>
   </g>
   <g id="line2d_86">
    <path d="M 310.184112 177.161269 
L 310.080668 171.632385 
L 309.766551 166.058926 
L 309.226908 160.367052 
L 308.318872 153.753793 
L 307.243349 147.82393 
L 305.929454 141.952889 
L 304.368654 136.108797 
L 302.969339 131.546275 
L 301.307371 126.710467 
L 299.658858 122.383345 
L 297.724397 117.764221 
L 295.076556 112.063252 
L 291.881476 105.918649 
L 288.113199 99.461051 
L 283.953824 93.101847 
L 280.213795 87.934614 
L 277.706226 84.716298 
L 273.820902 80.067731 
L 268.995366 74.792248 
L 265.337251 71.113757 
L 260.491434 66.61517 
L 255.148349 62.094538 
L 250.849496 58.75735 
L 245.386657 54.865477 
L 241.580377 52.3667 
L 235.011974 48.432826 
L 228.645104 45.04245 
L 221.165992 41.548994 
L 214.685917 38.92016 
L 207.604643 36.444252 
L 203.951748 35.322084 
L 199.49693 34.091637 
L 190.264123 32.009259 
L 186.463228 31.330385 
L 181.304221 30.571545 
L 174.349957 29.84044 
L 170.391925 29.572195 
L 160.948204 29.361672 
L 156.712007 29.463385 
L 151.335067 29.767828 
L 146.504724 30.209523 
L 142.02051 30.763343 
L 135.089231 31.89562 
L 129.306292 33.102071 
L 121.287294 35.181163 
L 116.642326 36.608615 
L 111.937081 38.227768 
L 106.208558 40.443302 
L 101.370545 42.532509 
L 94.615304 45.802848 
L 89.510074 48.564662 
L 83.353592 52.253424 
L 77.524015 56.137996 
L 71.477586 60.611061 
L 65.836254 65.239279 
L 61.444322 69.183322 
L 58.20816 72.301881 
L 54.365966 76.264043 
L 49.028672 82.299348 
L 45.863092 86.2155 
L 41.467168 92.146972 
L 37.635567 97.875781 
L 34.205426 103.54974 
L 30.981692 109.471693 
L 28.08385 115.420261 
L 26.065445 120.014443 
L 24.048981 125.08482 
L 22.118693 130.532928 
L 20.400525 136.060495 
L 18.462667 143.46772 
L 17.226054 149.272348 
L 16.332969 154.407608 
L 15.448515 161.080003 
L 14.911429 167.13672 
L 14.676441 171.581768 
L 14.571235 176.956629 
L 14.71244 183.623755 
L 15.119122 189.877559 
L 15.690271 195.315904 
L 16.684755 202.068259 
L 17.829662 208.02641 
L 19.372151 214.527094 
L 21.111302 220.642257 
L 22.684025 225.456906 
L 24.407426 230.180082 
L 26.919063 236.303033 
L 29.669847 242.241339 
L 32.767553 248.210541 
L 36.343192 254.37585 
L 40.17054 260.300898 
L 42.272203 263.309148 
L 46.639542 269.093122 
L 50.524072 273.781928 
L 53.403093 277.017768 
L 57.878429 281.692063 
L 63.349007 286.888664 
L 67.807205 290.75354 
L 72.183209 294.258389 
L 77.464975 298.143126 
L 83.937873 302.436857 
L 90.200287 306.146536 
L 96.491007 309.470455 
L 100.33792 311.317305 
L 106.16518 313.861407 
L 109.217995 315.077259 
L 114.498155 316.99804 
L 122.405051 319.460107 
L 126.624851 320.57851 
L 131.28858 321.661223 
L 138.745753 323.066375 
L 146.856996 324.150639 
L 149.820842 324.433438 
L 159.293885 324.935606 
L 164.688626 324.94971 
L 174.186588 324.495284 
L 177.530596 324.188991 
L 186.245336 323.027973 
L 189.250648 322.504324 
L 194.722935 321.385205 
L 201.764423 319.623343 
L 209.673226 317.196579 
L 214.68983 315.400898 
L 219.803983 313.35589 
L 223.955301 311.529983 
L 228.455653 309.374942 
L 232.915545 307.05031 
L 239.99268 302.94944 
L 244.335595 300.163918 
L 250.122523 296.104924 
L 254.573282 292.689278 
L 258.91517 289.086522 
L 263.04067 285.391168 
L 268.078112 280.477127 
L 272.488882 275.762842 
L 275.312823 272.515347 
L 279.256565 267.638185 
L 282.733141 262.959337 
L 285.658537 258.700066 
L 289.157936 253.144893 
L 291.877516 248.411088 
L 294.290026 243.838677 
L 297.062923 238.043357 
L 299.167464 233.154999 
L 301.280079 227.687166 
L 303.232279 221.957744 
L 304.548951 217.584923 
L 305.816992 212.825055 
L 306.996723 207.691159 
L 308.206513 201.258842 
L 308.872797 196.806167 
L 309.531743 191.03293 
L 309.991144 184.711539 
L 310.163576 179.625061 
L 310.184112 177.161269 
L 310.184112 177.161269 
" clip-path="url(#pa369670041)" style="fill: none; stroke-dasharray: 3.7,1.6; stroke-dashoffset: 0; stroke: #808080"/>
   </g>
   <g id="line2d_87">
    <path d="M 337.436372 118.090636 
L 335.25354 111.973241 
L 333.45837 107.397813 
L 330.564812 100.684923 
L 328.66697 96.641612 
L 324.940603 89.36127 
L 321.590288 83.422859 
L 318.685533 78.655434 
L 314.734051 72.647722 
L 311.068269 67.495165 
L 306.806339 61.940139 
L 302.279428 56.483815 
L 298.035029 51.731482 
L 292.557453 46.055299 
L 286.771654 40.553477 
L 281.223442 35.700196 
L 274.998174 30.695656 
L 267.981765 25.55873 
L 261.98233 21.551285 
L 257.89853 19.011589 
L 253.750014 16.579043 
L 246.157174 12.490227 
L 239.792583 9.404035 
L 232.149294 6.08386 
L 228.847475 4.774133 
L 222.342923 2.40507 
L 217.710521 0.883542 
L 211.279297 -1 
M 113.476541 -1 
L 108.732686 0.362537 
L 101.365615 2.767731 
L 95.323669 5.000476 
L 87.946824 8.058851 
L 80.175555 11.697097 
L 72.490474 15.742953 
L 64.328473 20.566451 
L 58.378009 24.453531 
L 52.943541 28.299739 
L 47.18353 32.710951 
L 40.167263 38.596476 
L 33.930313 44.357419 
L 28.333559 50.00875 
L 23.740041 55.033487 
L 19.339439 60.218324 
L 15.083328 65.626676 
L 9.934155 72.774661 
L 6.203909 78.442748 
L 2.274293 84.952272 
L -1 90.886724 
M -1 263.435938 
L 0.83774 266.829779 
L 4.238445 272.699617 
L 7.253665 277.521286 
L 11.387305 283.638961 
L 15.859778 289.713906 
L 19.845296 294.720235 
L 23.328758 298.820579 
L 26.945899 302.834744 
L 32.596094 308.661569 
L 36.490831 312.394732 
L 42.798543 318.003086 
L 45.588507 320.325078 
L 49.421408 323.368201 
L 55.001592 327.514058 
L 59.345024 330.523118 
L 65.303798 334.362558 
L 72.114139 338.369445 
L 73.42426 339.080038 
M 251.332132 339.080038 
L 258.160581 335.152376 
L 264.631793 331.043202 
L 270.31934 327.108428 
L 275.909226 322.921824 
L 281.271118 318.582275 
L 286.20687 314.281222 
L 291.803029 309.012048 
L 295.887384 304.874648 
L 300.31012 300.08478 
L 304.711919 294.959874 
L 308.106326 290.733748 
L 313.063367 284.069497 
L 315.965089 279.857193 
L 320.314581 273.033474 
L 323.348757 267.846749 
L 326.32744 262.343542 
L 329.695811 255.520609 
L 332.227297 249.870623 
L 334.763016 243.635611 
L 337.436372 236.230259 
L 337.436372 236.230259 
" clip-path="url(#pa369670041)" style="fill: none; stroke-dasharray: 3.7,1.6; stroke-dashoffset: 0; stroke: #808080"/>
   </g>
   <g id="line2d_88">
    <path d="M 162.377603 177.161269 
L 337.436372 104.649553 
" clip-path="url(#pa369670041)" style="fill: none; stroke: #808080; stroke-linecap: square"/>
   </g>
   <g id="line2d_89">
    <path d="M 162.377603 177.161269 
L 319.15008 20.388792 
" clip-path="url(#pa369670041)" style="fill: none; stroke: #808080; stroke-linecap: square"/>
   </g>
   <g id="line2d_90">
    <path d="M 162.377603 177.161269 
L 236.174417 -1 
" clip-path="url(#pa369670041)" style="fill: none; stroke: #808080; stroke-linecap: square"/>
   </g>
   <g id="line2d_91">
    <path d="M 162.377603 177.161269 
L 162.377603 -1 
" clip-path="url(#pa369670041)" style="fill: none; stroke: #808080; stroke-linecap: square"/>
   </g>
   <g id="line2d_92">
    <path d="M 162.377603 177.161269 
L 88.580789 -1 
" clip-path="url(#pa369670041)" style="fill: none; stroke: #808080; stroke-linecap: square"/>
   </g>
   <g id="line2d_93">
    <path d="M 162.377603 177.161269 
L 5.605126 20.388792 
" clip-path="url(#pa369670041)" style="fill: none; stroke: #808080; stroke-linecap: square"/>
   </g>
   <g id="line2d_94">
    <path d="M 162.377603 177.161269 
L -1 109.48805 
" clip-path="url(#pa369670041)" style="fill: none; stroke: #808080; stroke-linecap: square"/>
   </g>
   <g id="line2d_95">
    <path d="M 162.377603 177.161269 
L -1 177.161269 
" clip-path="url(#pa369670041)" style="fill: none; stroke: #808080; stroke-linecap: square"/>
   </g>
   <g id="line2d_96">
    <path d="M 162.377603 177.161269 
L -1 244.834488 
" clip-path="url(#pa369670041)" style="fill: none; stroke: #808080; stroke-linecap: square"/>
   </g>
   <g id="line2d_97">
    <path d="M 162.377603 177.161269 
L 5.605126 333.933746 
" clip-path="url(#pa369670041)" style="fill: none; stroke: #808080; stroke-linecap: square"/>
   </g>
   <g id="line2d_98">
    <path d="M 162.377603 177.161269 
L 95.308652 339.080038 
" clip-path="url(#pa369670041)" style="fill: none; stroke: #808080; stroke-linecap: square"/>
   </g>
   <g id="line2d_99">
    <path d="M 162.377603 177.161269 
L 162.377603 339.080038 
" clip-path="url(#pa369670041)" style="fill: none; stroke: #808080; stroke-linecap: square"/>
   </g>
   <g id="line2d_100">
    <path d="M 162.377603 177.161269 
L 229.446553 339.080038 
" clip-path="url(#pa369670041)" style="fill: none; stroke: #808080; stroke-linecap: square"/>
   </g>
   <g id="line2d_101">
    <path d="M 162.377603 177.161269 
L 319.15008 333.933746 
" clip-path="url(#pa369670041)" style="fill: none; stroke: #808080; stroke-linecap: square"/>
   </g>
   <g id="line2d_102">
    <path d="M 162.377603 177.161269 
L 337.436372 249.672986 
" clip-path="url(#pa369670041)" style="fill: none; stroke: #808080; stroke-linecap: square"/>
   </g>
   <g id="patch_3">
    <path d="M 162.377603 330.880038 
L 162.377603 23.4425 
" style="fill: none; stroke: #000000; stroke-width: 0.8; stroke-linejoin: miter; stroke-linecap: square"/>
   </g>
   <g id="patch_4">
    <path d="M 8.658833 177.161269 
L 316.096372 177.161269 
" style="fill: none; stroke: #000000; stroke-width: 0.8; stroke-linejoin: miter; stroke-linecap: square"/>
   </g>
  </g>
 </g>
 <defs>
  <clipPath id="pa369670041">
   <rect x="8.658833" y="23.4425" width="307.437538" height="307.437538"/>
  </clipPath>
 </defs>
</svg>
