<?xml version="1.0" encoding="utf-8" standalone="no"?>
<!DOCTYPE svg PUBLIC "-//W3C//DTD SVG 1.1//EN"
  "http://www.w3.org/Graphics/SVG/1.1/DTD/svg11.dtd">
<svg xmlns:xlink="http://www.w3.org/1999/xlink" width="453.6pt" height="236.335673pt" viewBox="0 0 453.6 236.335673" xmlns="http://www.w3.org/2000/svg" version="1.1">
 <metadata>
  <rdf:RDF xmlns:dc="http://purl.org/dc/elements/1.1/" xmlns:cc="http://creativecommons.org/ns#" xmlns:rdf="http://www.w3.org/1999/02/22-rdf-syntax-ns#">
   <cc:Work>
    <dc:type rdf:resource="http://purl.org/dc/dcmitype/StillImage"/>
    <dc:date>2025-08-04T00:36:30.794098</dc:date>
    <dc:format>image/svg+xml</dc:format>
    <dc:creator>
     <cc:Agent>
      <dc:title>Matplotlib v3.10.5, https://matplotlib.org/</dc:title>
     </cc:Agent>
    </dc:creator>
   </cc:Work>
  </rdf:RDF>
 </metadata>
 <defs>
  <style type="text/css">*{stroke-linejoin: round; stroke-linecap: butt}</style>
 </defs>
 <g id="figure_1">
  <g id="patch_1">
   <path d="M 0 236.335673 
L 453.6 236.335673 
L 453.6 0 
L 0 0 
z
" style="fill: #ffffff"/>
  </g>
  <g id="axes_1">
   <g id="patch_2">
    <path d="M 7.2 229.135673 
L 446.4 229.135673 
L 446.4 7.2 
L 7.2 7.2 
z
" style="fill: #ffffff"/>
   </g>
   <g id="PathCollection_1">
    <path d="M 391.289222 39.174059 
C 392.226856 39.174059 393.126214 38.801533 393.789222 38.138525 
C 394.452229 37.475517 394.824756 36.576159 394.824756 35.638525 
C 394.824756 34.70089 394.452229 33.801533 393.789222 33.138525 
C 393.126214 32.475517 392.226856 32.102991 391.289222 32.102991 
C 390.351587 32.102991 389.452229 32.475517 388.789222 33.138525 
C 388.126214 33.801533 387.753688 34.70089 387.753688 35.638525 
C 387.753688 36.576159 388.126214 37.475517 388.789222 38.138525 
C 389.452229 38.801533 390.351587 39.174059 391.289222 39.174059 
z
" clip-path="url(#pff2c056a84)"/>
   </g>
   <g id="PathCollection_2">
    <path d="M 323.928946 17.904375 
C 324.86658 17.904375 325.765938 17.531848 326.428946 16.868841 
C 327.091954 16.205833 327.46448 15.306475 327.46448 14.368841 
C 327.46448 13.431206 327.091954 12.531848 326.428946 11.868841 
C 325.765938 11.205833 324.86658 10.833307 323.928946 10.833307 
C 322.991311 10.833307 322.091954 11.205833 321.428946 11.868841 
C 320.765938 12.531848 320.393412 13.431206 320.393412 14.368841 
C 320.393412 15.306475 320.765938 16.205833 321.428946 16.868841 
C 322.091954 17.531848 322.991311 17.904375 323.928946 17.904375 
z
" clip-path="url(#pff2c056a84)"/>
   </g>
   <g id="matplotlib.axis_1"/>
   <g id="matplotlib.axis_2"/>
   <g id="line2d_1">
    <path d="M 437.953846 75.116484 
L 434.095948 70.131577 
L 430.228913 65.623168 
L 426.961257 62.129416 
L 422.870249 58.100839 
L 419.396556 54.941893 
L 416.892381 52.796914 
L 412.653534 49.392572 
L 407.462685 45.569346 
L 403.50947 42.88447 
L 397.070732 38.882599 
L 393.089848 36.615839 
L 386.842154 33.345069 
L 380.387435 30.299514 
L 374.830415 27.923716 
L 368.565544 25.495146 
L 361.732057 23.124105 
L 355.101732 21.079398 
L 348.659275 19.31675 
L 340.063304 17.284555 
L 331.663681 15.627181 
L 323.84618 14.356707 
L 314.64816 13.176841 
L 309.215695 12.631892 
L 300.067314 11.95678 
L 292.375201 11.615027 
L 281.45442 11.467994 
L 274.745721 11.567062 
L 265.988556 11.905779 
L 257.372228 12.464152 
L 248.867026 13.22873 
L 237.634816 14.555896 
L 228.186315 15.946923 
L 224.007632 16.641195 
L 216.168933 18.073476 
L 204.203972 20.585239 
L 196.464919 22.419385 
L 187.49748 24.751646 
L 177.059289 27.749448 
L 173.106623 28.965232 
L 161.774599 32.701427 
L 150.448654 36.817731 
L 143.795235 39.421012 
L 133.357101 43.794579 
L 124.232615 47.923011 
L 115.031612 52.394953 
L 104.722711 57.805484 
L 96.264163 62.592369 
L 88.787774 67.113279 
L 80.73709 72.32233 
L 74.249818 76.810268 
L 68.916811 80.719965 
L 62.668923 85.589272 
L 56.753384 90.533104 
L 51.619376 95.13559 
L 46.429099 100.143956 
L 42.647288 104.065589 
L 39.865019 107.126848 
L 35.878557 111.829228 
L 33.057714 115.433165 
L 30.011137 119.655612 
L 26.9463 124.3598 
L 25.048816 127.581746 
L 22.607454 132.221928 
L 20.838351 136.091461 
L 19.093419 140.588453 
L 18.057921 143.794847 
L 16.948655 148.097097 
L 16.123988 152.732124 
L 15.754477 156.387507 
L 15.646154 160.453083 
L 15.817165 163.936412 
L 16.099839 166.464741 
L 16.758797 170.141589 
L 17.759504 173.930659 
L 18.82736 177.013627 
L 20.566113 181.001182 
L 21.85624 183.470239 
L 23.207906 185.762084 
L 25.105742 188.611292 
L 27.630297 191.919857 
L 30.306628 194.993817 
L 32.819044 197.575828 
L 35.667111 200.225865 
L 39.221172 203.205706 
L 42.827153 205.932269 
L 48.00726 209.434852 
L 53.152658 212.527778 
L 56.99259 214.630653 
L 62.622061 217.448093 
L 68.579693 220.138269 
L 74.220381 222.451041 
L 80.703187 224.867679 
L 80.703187 224.867679 
" clip-path="url(#pff2c056a84)" style="fill: none; stroke: #000000; stroke-width: 2; stroke-linecap: square"/>
   </g>
   <g id="patch_3">
    <path d="M 181.153381 26.537047 
Q 180.126391 26.838206 181.245114 26.510147 
" clip-path="url(#pff2c056a84)" style="fill: none; stroke: #000000; stroke-width: 2; stroke-linecap: round"/>
    <path d="M 192.248008 28.49416 
L 181.245114 26.510147 
L 189.434061 18.898239 
z
" clip-path="url(#pff2c056a84)" style="stroke: #000000; stroke-width: 2; stroke-linecap: round"/>
   </g>
   <g id="text_1">
    <!-- $P_0$ -->
    <g transform="translate(388.034574 61.191729) scale(0.24 -0.24)">
     <defs>
      <path id="Cmmi10-50" d="M 313 0 
Q 250 0 250 84 
Q 253 100 262 139 
Q 272 178 289 201 
Q 306 225 331 225 
Q 722 225 878 269 
Q 959 297 997 441 
L 1875 3956 
Q 1888 4019 1888 4044 
Q 1888 4113 1813 4122 
Q 1691 4147 1350 4147 
Q 1288 4147 1288 4231 
Q 1291 4247 1300 4286 
Q 1309 4325 1326 4348 
Q 1344 4372 1369 4372 
L 3578 4372 
Q 3881 4372 4165 4264 
Q 4450 4156 4631 3934 
Q 4813 3713 4813 3397 
Q 4813 2991 4527 2672 
Q 4241 2353 3814 2175 
Q 3388 1997 2988 1997 
L 1947 1997 
L 1556 416 
Q 1544 353 1544 325 
Q 1544 300 1551 283 
Q 1559 266 1573 261 
Q 1588 256 1619 250 
Q 1741 225 2081 225 
Q 2144 225 2144 141 
Q 2122 50 2109 25 
Q 2097 0 2034 0 
L 313 0 
z
M 1978 2188 
L 2875 2188 
Q 3497 2188 3822 2522 
Q 3988 2688 4092 3000 
Q 4197 3313 4197 3566 
Q 4197 3881 3956 4014 
Q 3716 4147 3359 4147 
L 2747 4147 
Q 2572 4147 2515 4117 
Q 2459 4088 2413 3928 
L 1978 2188 
z
" transform="scale(0.015625)"/>
      <path id="Cmr10-30" d="M 1600 -141 
Q 816 -141 533 504 
Q 250 1150 250 2041 
Q 250 2597 351 3087 
Q 453 3578 754 3920 
Q 1056 4263 1600 4263 
Q 2022 4263 2290 4056 
Q 2559 3850 2700 3523 
Q 2841 3197 2892 2823 
Q 2944 2450 2944 2041 
Q 2944 1491 2842 1011 
Q 2741 531 2444 195 
Q 2147 -141 1600 -141 
z
M 1600 25 
Q 1956 25 2131 390 
Q 2306 756 2347 1200 
Q 2388 1644 2388 2144 
Q 2388 2625 2347 3031 
Q 2306 3438 2132 3767 
Q 1959 4097 1600 4097 
Q 1238 4097 1063 3765 
Q 888 3434 847 3029 
Q 806 2625 806 2144 
Q 806 1788 823 1472 
Q 841 1156 916 820 
Q 991 484 1158 254 
Q 1325 25 1600 25 
z
" transform="scale(0.015625)"/>
     </defs>
     <use xlink:href="#Cmmi10-50" transform="translate(0 0.6875)"/>
     <use xlink:href="#Cmr10-30" transform="translate(64.208984 -16.31875) scale(0.7)"/>
    </g>
   </g>
   <g id="text_2">
    <!-- $P_1$ -->
    <g transform="translate(301.743594 39.922045) scale(0.24 -0.24)">
     <defs>
      <path id="Cmr10-31" d="M 594 0 
L 594 225 
Q 1394 225 1394 428 
L 1394 3788 
Q 1063 3628 556 3628 
L 556 3853 
Q 1341 3853 1741 4263 
L 1831 4263 
Q 1853 4263 1873 4245 
Q 1894 4228 1894 4206 
L 1894 428 
Q 1894 225 2694 225 
L 2694 0 
L 594 0 
z
" transform="scale(0.015625)"/>
     </defs>
     <use xlink:href="#Cmmi10-50" transform="translate(0 0.6875)"/>
     <use xlink:href="#Cmr10-31" transform="translate(64.208984 -16.31875) scale(0.7)"/>
    </g>
   </g>
  </g>
 </g>
 <defs>
  <clipPath id="pff2c056a84">
   <rect x="7.2" y="7.2" width="439.2" height="221.935673"/>
  </clipPath>
 </defs>
</svg>
