<?xml version="1.0" encoding="utf-8" standalone="no"?>
<!DOCTYPE svg PUBLIC "-//W3C//DTD SVG 1.1//EN"
  "http://www.w3.org/Graphics/SVG/1.1/DTD/svg11.dtd">
<svg xmlns:xlink="http://www.w3.org/1999/xlink" width="331.637538pt" height="335.536817pt" viewBox="0 0 331.637538 335.536817" xmlns="http://www.w3.org/2000/svg" version="1.1">
 <metadata>
  <rdf:RDF xmlns:dc="http://purl.org/dc/elements/1.1/" xmlns:cc="http://creativecommons.org/ns#" xmlns:rdf="http://www.w3.org/1999/02/22-rdf-syntax-ns#">
   <cc:Work>
    <dc:type rdf:resource="http://purl.org/dc/dcmitype/StillImage"/>
    <dc:date>2025-11-26T17:28:06.537227</dc:date>
    <dc:format>image/svg+xml</dc:format>
    <dc:creator>
     <cc:Agent>
      <dc:title>Matplotlib v3.10.5, https://matplotlib.org/</dc:title>
     </cc:Agent>
    </dc:creator>
   </cc:Work>
  </rdf:RDF>
 </metadata>
 <defs>
  <style type="text/css">*{stroke-linejoin: round; stroke-linecap: butt}</style>
 </defs>
 <g id="figure_1">
  <g id="patch_1">
   <path d="M 0 335.536817 
L 331.637538 335.536817 
L 331.637538 0 
L 0 0 
z
" style="fill: #ffffff"/>
  </g>
  <g id="axes_1">
   <g id="patch_2">
    <path d="M 7.2 328.336817 
L 324.437538 328.336817 
L 324.437538 11.099278 
L 7.2 11.099278 
z
" style="fill: #ffffff"/>
   </g>
   <g id="patch_3">
    <path d="M 288.588556 171.845665 
L 292.183243 159.58245 
L 293.608774 148.055143 
L 292.271887 137.863917 
L 287.89403 129.499049 
L 280.534544 123.268804 
L 270.57283 119.247376 
L 258.65286 117.250884 
L 245.597873 116.845958 
L 232.306575 117.391339 
L 219.644118 118.10851 
L 208.341368 118.173445 
L 198.914533 116.818469 
L 191.614282 113.431518 
L 186.409512 107.639977 
L 183.006375 99.367821 
L 180.898741 88.857844 
L 179.442405 76.654961 
L 177.94265 63.551395 
L 175.743446 50.499422 
L 172.306857 38.501598 
L 167.272915 28.491479 
L 160.493193 21.219368 
L 152.035032 17.157351 
L 142.157362 16.435778 
L 131.262814 18.819709 
L 66.24472 186.056105 
L 71.618631 183.837056 
L 77.23231 181.649613 
L 82.947037 179.805538 
L 88.595721 178.590024 
L 93.997697 178.238409 
L 98.975734 178.917623 
L 103.373662 180.713872 
L 107.072851 183.627498 
L 110.005886 187.575303 
L 112.165967 192.399957 
L 113.610937 197.88549 
L 114.461333 203.777361 
L 114.892404 209.805225 
L 115.120629 215.7063 
L 115.385776 221.247277 
L 115.930058 226.242855 
L 116.976182 230.569379 
L 118.706328 234.172503 
L 121.244004 237.068415 
L 124.640538 239.338722 
L 128.867594 241.119706 
L 133.816563 242.587117 
L 139.305078 243.938099 
L 145.09028 245.372002 
L 150.887798 247.071932 
z
" clip-path="url(#pfd83c8763b)" style="fill: #add8e6; stroke: #000000; stroke-linejoin: miter"/>
   </g>
   <g id="matplotlib.axis_1"/>
   <g id="matplotlib.axis_2"/>
   <g id="line2d_1">
    <path d="M 283.980619 125.622533 
L 126.324407 240.139162 
" clip-path="url(#pfd83c8763b)" style="fill: none; stroke-dasharray: 7.4,3.2; stroke-dashoffset: 0; stroke: #808080; stroke-width: 2"/>
   </g>
   <g id="line2d_2">
    <path d="M 230.249635 117.513967 
L 115.816357 225.498026 
" clip-path="url(#pfd83c8763b)" style="fill: none; stroke-dasharray: 7.4,3.2; stroke-dashoffset: 0; stroke: #808080; stroke-width: 2"/>
   </g>
   <g id="line2d_3">
    <path d="M 187.590983 109.41077 
L 113.886658 199.410904 
" clip-path="url(#pfd83c8763b)" style="fill: none; stroke-dasharray: 7.4,3.2; stroke-dashoffset: 0; stroke: #808080; stroke-width: 2"/>
   </g>
   <g id="line2d_4">
    <path d="M 177.353767 59.386717 
L 102.058921 180.025766 
" clip-path="url(#pfd83c8763b)" style="fill: none; stroke-dasharray: 7.4,3.2; stroke-dashoffset: 0; stroke: #808080; stroke-width: 2"/>
   </g>
   <g id="line2d_5">
    <path d="M 153.006829 17.429536 
L 77.837308 181.432122 
" clip-path="url(#pfd83c8763b)" style="fill: none; stroke-dasharray: 7.4,3.2; stroke-dashoffset: 0; stroke: #808080; stroke-width: 2"/>
   </g>
   <g id="line2d_6">
    <path d="M 288.588556 171.845665 
L 13.300722 322.236095 
L 131.262814 18.819709 
" clip-path="url(#pfd83c8763b)" style="fill: none; stroke: #808080; stroke-width: 2; stroke-linecap: square"/>
   </g>
   <g id="patch_4">
    <path d="M 13.300722 328.336817 
L 13.300722 11.099278 
" style="fill: none; stroke: #000000; stroke-width: 0.8; stroke-linejoin: miter; stroke-linecap: square"/>
   </g>
   <g id="patch_5">
    <path d="M 7.2 322.236095 
L 324.437538 322.236095 
" style="fill: none; stroke: #000000; stroke-width: 0.8; stroke-linejoin: miter; stroke-linecap: square"/>
   </g>
   <g id="text_1">
    <!-- $r=g_1(\theta)$ -->
    <g style="fill: #0000ff" transform="translate(151.496476 258.602973) scale(0.2 -0.2)">
     <defs>
      <path id="Cmmi10-72" d="M 494 109 
Q 494 147 500 166 
L 978 2075 
Q 1025 2253 1025 2388 
Q 1025 2663 838 2663 
Q 638 2663 541 2423 
Q 444 2184 353 1819 
Q 353 1800 334 1789 
Q 316 1778 300 1778 
L 225 1778 
Q 203 1778 187 1801 
Q 172 1825 172 1844 
Q 241 2122 305 2315 
Q 369 2509 505 2668 
Q 641 2828 844 2828 
Q 1066 2828 1233 2700 
Q 1400 2572 1441 2363 
Q 1603 2575 1811 2701 
Q 2019 2828 2266 2828 
Q 2469 2828 2623 2709 
Q 2778 2591 2778 2388 
Q 2778 2225 2676 2104 
Q 2575 1984 2406 1984 
Q 2303 1984 2233 2048 
Q 2163 2113 2163 2216 
Q 2163 2356 2266 2467 
Q 2369 2578 2503 2578 
Q 2400 2663 2253 2663 
Q 1978 2663 1775 2467 
Q 1572 2272 1409 1972 
L 953 141 
Q 931 53 854 -9 
Q 778 -72 684 -72 
Q 606 -72 550 -22 
Q 494 28 494 109 
z
" transform="scale(0.015625)"/>
      <path id="Cmr10-3d" d="M 481 850 
Q 428 850 393 890 
Q 359 931 359 978 
Q 359 1031 393 1068 
Q 428 1106 481 1106 
L 4500 1106 
Q 4547 1106 4581 1068 
Q 4616 1031 4616 978 
Q 4616 931 4581 890 
Q 4547 850 4500 850 
L 481 850 
z
M 481 2094 
Q 428 2094 393 2131 
Q 359 2169 359 2222 
Q 359 2269 393 2309 
Q 428 2350 481 2350 
L 4500 2350 
Q 4547 2350 4581 2309 
Q 4616 2269 4616 2222 
Q 4616 2169 4581 2131 
Q 4547 2094 4500 2094 
L 481 2094 
z
" transform="scale(0.015625)"/>
      <path id="Cmmi10-67" d="M 91 -916 
Q 91 -759 198 -642 
Q 306 -525 459 -525 
Q 563 -525 633 -589 
Q 703 -653 703 -756 
Q 703 -872 637 -964 
Q 572 -1056 469 -1094 
Q 641 -1147 1006 -1147 
Q 1300 -1147 1544 -920 
Q 1788 -694 1863 -397 
L 2047 353 
Q 1700 0 1325 0 
Q 1050 0 854 140 
Q 659 281 556 515 
Q 453 750 453 1013 
Q 453 1306 573 1628 
Q 694 1950 911 2225 
Q 1128 2500 1409 2664 
Q 1691 2828 2003 2828 
Q 2191 2828 2341 2725 
Q 2491 2622 2578 2450 
Q 2641 2700 2853 2700 
Q 2934 2700 2990 2651 
Q 3047 2603 3047 2522 
Q 3047 2503 3045 2493 
Q 3044 2484 3041 2472 
L 2309 -434 
Q 2259 -634 2125 -800 
Q 1991 -966 1809 -1077 
Q 1628 -1188 1412 -1250 
Q 1197 -1313 997 -1313 
Q 631 -1313 361 -1242 
Q 91 -1172 91 -916 
z
M 1338 166 
Q 1747 166 2144 728 
L 2497 2125 
Q 2453 2347 2322 2505 
Q 2191 2663 1991 2663 
Q 1778 2663 1589 2489 
Q 1400 2316 1275 2075 
Q 1156 1844 1045 1411 
Q 934 978 934 728 
Q 934 509 1034 337 
Q 1134 166 1338 166 
z
" transform="scale(0.015625)"/>
      <path id="Cmr10-31" d="M 594 0 
L 594 225 
Q 1394 225 1394 428 
L 1394 3788 
Q 1063 3628 556 3628 
L 556 3853 
Q 1341 3853 1741 4263 
L 1831 4263 
Q 1853 4263 1873 4245 
Q 1894 4228 1894 4206 
L 1894 428 
Q 1894 225 2694 225 
L 2694 0 
L 594 0 
z
" transform="scale(0.015625)"/>
      <path id="Cmr10-28" d="M 1984 -1588 
Q 1628 -1306 1370 -942 
Q 1113 -578 948 -165 
Q 784 247 703 697 
Q 622 1147 622 1600 
Q 622 2059 703 2509 
Q 784 2959 951 3375 
Q 1119 3791 1378 4153 
Q 1638 4516 1984 4788 
Q 1984 4800 2016 4800 
L 2075 4800 
Q 2094 4800 2109 4783 
Q 2125 4766 2125 4744 
Q 2125 4716 2113 4703 
Q 1800 4397 1592 4047 
Q 1384 3697 1257 3301 
Q 1131 2906 1075 2482 
Q 1019 2059 1019 1600 
Q 1019 -434 2106 -1491 
Q 2125 -1509 2125 -1544 
Q 2125 -1559 2108 -1579 
Q 2091 -1600 2075 -1600 
L 2016 -1600 
Q 1984 -1600 1984 -1588 
z
" transform="scale(0.015625)"/>
      <path id="Cmmi10-b5" d="M 1031 -72 
Q 741 -72 566 140 
Q 391 353 323 653 
Q 256 953 256 1247 
L 256 1253 
Q 256 1572 317 1915 
Q 378 2259 493 2601 
Q 609 2944 744 3213 
Q 838 3400 986 3631 
Q 1134 3863 1317 4064 
Q 1500 4266 1711 4389 
Q 1922 4513 2138 4513 
L 2144 4513 
Q 2375 4513 2529 4384 
Q 2684 4256 2770 4056 
Q 2856 3856 2890 3628 
Q 2925 3400 2925 3194 
Q 2925 2709 2794 2204 
Q 2663 1700 2431 1228 
Q 2344 1050 2189 809 
Q 2034 569 1861 378 
Q 1688 188 1472 58 
Q 1256 -72 1038 -72 
L 1031 -72 
z
M 1044 97 
Q 1256 97 1451 323 
Q 1647 550 1794 873 
Q 1941 1197 2052 1536 
Q 2163 1875 2216 2113 
L 909 2113 
Q 809 1709 753 1417 
Q 697 1125 697 844 
Q 697 97 1044 97 
z
M 959 2338 
L 2272 2338 
Q 2341 2619 2381 2808 
Q 2422 2997 2450 3206 
Q 2478 3416 2478 3597 
Q 2478 4347 2138 4347 
Q 1731 4347 1436 3692 
Q 1141 3038 959 2338 
z
" transform="scale(0.015625)"/>
      <path id="Cmr10-29" d="M 416 -1600 
Q 359 -1600 359 -1544 
Q 359 -1516 372 -1503 
Q 1466 -434 1466 1600 
Q 1466 3634 384 4691 
Q 359 4706 359 4744 
Q 359 4766 376 4783 
Q 394 4800 416 4800 
L 475 4800 
Q 494 4800 506 4788 
Q 966 4425 1272 3906 
Q 1578 3388 1720 2800 
Q 1863 2213 1863 1600 
Q 1863 1147 1786 708 
Q 1709 269 1542 -157 
Q 1375 -584 1119 -945 
Q 863 -1306 506 -1588 
Q 494 -1600 475 -1600 
L 416 -1600 
z
" transform="scale(0.015625)"/>
     </defs>
     <use xlink:href="#Cmmi10-72"/>
     <use xlink:href="#Cmr10-3d" transform="translate(62.675781 0)"/>
     <use xlink:href="#Cmmi10-67" transform="translate(157.919922 0)"/>
     <use xlink:href="#Cmr10-31" transform="translate(205.625 -17.00625) scale(0.7)"/>
     <use xlink:href="#Cmr10-28" transform="translate(247.002344 0)"/>
     <use xlink:href="#Cmmi10-b5" transform="translate(285.820703 0)"/>
     <use xlink:href="#Cmr10-29" transform="translate(332.744531 0)"/>
    </g>
   </g>
   <g id="text_2">
    <!-- $r=g_2(\theta)$ -->
    <g style="fill: #ff0000" transform="translate(52.359746 22.2) scale(0.2 -0.2)">
     <defs>
      <path id="Cmr10-32" d="M 319 0 
L 319 172 
Q 319 188 331 206 
L 1325 1306 
Q 1550 1550 1690 1715 
Q 1831 1881 1968 2097 
Q 2106 2313 2186 2536 
Q 2266 2759 2266 3009 
Q 2266 3272 2169 3511 
Q 2072 3750 1880 3894 
Q 1688 4038 1416 4038 
Q 1138 4038 916 3870 
Q 694 3703 603 3438 
Q 628 3444 672 3444 
Q 816 3444 917 3347 
Q 1019 3250 1019 3097 
Q 1019 2950 917 2848 
Q 816 2747 672 2747 
Q 522 2747 420 2851 
Q 319 2956 319 3097 
Q 319 3338 409 3548 
Q 500 3759 670 3923 
Q 841 4088 1055 4175 
Q 1269 4263 1509 4263 
Q 1875 4263 2190 4108 
Q 2506 3953 2690 3670 
Q 2875 3388 2875 3009 
Q 2875 2731 2753 2481 
Q 2631 2231 2440 2026 
Q 2250 1822 1953 1562 
Q 1656 1303 1563 1216 
L 838 519 
L 1453 519 
Q 1906 519 2211 526 
Q 2516 534 2534 550 
Q 2609 631 2688 1141 
L 2875 1141 
L 2694 0 
L 319 0 
z
" transform="scale(0.015625)"/>
     </defs>
     <use xlink:href="#Cmmi10-72"/>
     <use xlink:href="#Cmr10-3d" transform="translate(62.675781 0)"/>
     <use xlink:href="#Cmmi10-67" transform="translate(157.919922 0)"/>
     <use xlink:href="#Cmr10-32" transform="translate(205.625 -17.00625) scale(0.7)"/>
     <use xlink:href="#Cmr10-28" transform="translate(247.002344 0)"/>
     <use xlink:href="#Cmmi10-b5" transform="translate(285.820703 0)"/>
     <use xlink:href="#Cmr10-29" transform="translate(332.744531 0)"/>
    </g>
   </g>
   <g id="line2d_7">
    <path d="M 288.588556 171.845665 
L 290.35251 166.516888 
L 291.485664 162.499326 
L 292.526755 157.926641 
L 293.195547 153.810115 
L 293.54583 149.99052 
L 293.604159 146.821595 
L 293.405778 143.564886 
L 293.071355 141.20482 
L 292.519133 138.727952 
L 291.69768 136.176335 
L 290.735966 133.958384 
L 289.49677 131.741917 
L 288.205482 129.894018 
L 286.558363 127.97657 
L 284.681229 126.200823 
L 282.883543 124.792163 
L 280.733614 123.386224 
L 278.514933 122.180835 
L 275.999964 121.050401 
L 273.628082 120.16897 
L 270.208426 119.1514 
L 266.869612 118.391241 
L 263.04204 117.747558 
L 258.977587 117.27996 
L 254.135633 116.95573 
L 248.040043 116.827793 
L 240.978565 116.964668 
L 232.274083 117.393243 
L 216.770275 118.214621 
L 211.038877 118.262824 
L 207.065586 118.097062 
L 204.007111 117.801418 
L 201.219771 117.355724 
L 198.066875 116.573282 
L 196.334186 115.97566 
L 194.515055 115.180299 
L 192.728557 114.186152 
L 190.6915 112.710764 
L 189.227598 111.348424 
L 188.221513 110.218501 
L 186.627206 107.994965 
L 185.603418 106.190765 
L 184.43729 103.626289 
L 183.439844 100.824152 
L 182.604792 97.854516 
L 181.770835 94.06973 
L 181.075683 90.040448 
L 180.190625 83.418824 
L 177.237801 58.633312 
L 176.15729 52.496991 
L 174.927227 46.999809 
L 173.838619 43.048713 
L 172.632741 39.387664 
L 171.516681 36.506291 
L 170.316442 33.831198 
L 168.675695 30.732654 
L 166.958774 28.033372 
L 165.2924 25.835213 
L 163.372517 23.71979 
L 161.82948 22.290072 
L 159.432803 20.468516 
L 157.794419 19.462962 
L 155.48389 18.32764 
L 153.716748 17.655946 
L 151.030703 16.919673 
L 148.012293 16.450042 
L 145.970808 16.320885 
L 143.008093 16.372742 
L 140.457904 16.621363 
L 138.463803 16.934729 
L 134.70791 17.780589 
L 131.262814 18.819709 
L 131.262814 18.819709 
" clip-path="url(#pfd83c8763b)" style="fill: none; stroke: #ff0000; stroke-width: 3; stroke-linecap: square"/>
   </g>
   <g id="line2d_8">
    <path d="M 150.887798 247.071932 
L 146.712236 245.810354 
L 140.397076 244.200022 
L 131.70971 242.010852 
L 128.288352 240.915081 
L 125.585747 239.806408 
L 123.707438 238.821023 
L 121.914859 237.6157 
L 120.401538 236.278548 
L 119.124745 234.776908 
L 118.19792 233.332981 
L 117.533389 231.998352 
L 116.842966 230.167623 
L 116.336469 228.319826 
L 115.822376 225.539957 
L 115.447295 222.078713 
L 115.172655 217.102661 
L 114.648296 205.869665 
L 114.288838 202.224201 
L 113.660618 198.142662 
L 113.00357 195.197744 
L 112.045441 192.0558 
L 111.098462 189.708452 
L 109.862886 187.330288 
L 108.551139 185.365413 
L 107.238777 183.80217 
L 105.546108 182.218816 
L 103.692851 180.904161 
L 101.667441 179.848272 
L 99.784464 179.148129 
L 97.75006 178.639161 
L 95.321924 178.309435 
L 92.571253 178.237403 
L 89.8886 178.422943 
L 87.170489 178.826394 
L 84.216504 179.471331 
L 80.421989 180.558109 
L 76.234019 182.01783 
L 70.733748 184.200639 
L 66.24472 186.056105 
L 66.24472 186.056105 
" clip-path="url(#pfd83c8763b)" style="fill: none; stroke: #0000ff; stroke-width: 3; stroke-linecap: square"/>
   </g>
  </g>
 </g>
 <defs>
  <clipPath id="pfd83c8763b">
   <rect x="7.2" y="11.099278" width="317.237538" height="317.237538"/>
  </clipPath>
 </defs>
</svg>
