<?xml version="1.0" encoding="utf-8" standalone="no"?>
<!DOCTYPE svg PUBLIC "-//W3C//DTD SVG 1.1//EN"
  "http://www.w3.org/Graphics/SVG/1.1/DTD/svg11.dtd">
<svg xmlns:xlink="http://www.w3.org/1999/xlink" width="338.4pt" height="338.4pt" viewBox="0 0 338.4 338.4" xmlns="http://www.w3.org/2000/svg" version="1.1">
 <metadata>
  <rdf:RDF xmlns:dc="http://purl.org/dc/elements/1.1/" xmlns:cc="http://creativecommons.org/ns#" xmlns:rdf="http://www.w3.org/1999/02/22-rdf-syntax-ns#">
   <cc:Work>
    <dc:type rdf:resource="http://purl.org/dc/dcmitype/StillImage"/>
    <dc:date>2025-08-04T00:38:36.127387</dc:date>
    <dc:format>image/svg+xml</dc:format>
    <dc:creator>
     <cc:Agent>
      <dc:title>Matplotlib v3.10.5, https://matplotlib.org/</dc:title>
     </cc:Agent>
    </dc:creator>
   </cc:Work>
  </rdf:RDF>
 </metadata>
 <defs>
  <style type="text/css">*{stroke-linejoin: round; stroke-linecap: butt}</style>
 </defs>
 <g id="figure_1">
  <g id="patch_1">
   <path d="M -0 338.4 
L 338.4 338.4 
L 338.4 0 
L -0 0 
z
" style="fill: #ffffff"/>
  </g>
  <g id="axes_1">
   <g id="patch_2">
    <path d="M 7.2 331.2 
L 331.2 331.2 
L 331.2 7.2 
L 7.2 7.2 
z
" style="fill: #ffffff"/>
   </g>
   <g id="patch_3">
    <path d="M 293.815385 169.2 
L 293.753894 173.114264 
L 293.569485 177.024665 
L 293.262337 180.927344 
L 292.832755 184.818449 
L 292.281162 188.694141 
L 291.608104 192.550595 
L 290.814243 196.384004 
L 289.900363 200.190586 
L 288.867367 203.966584 
L 287.716274 207.708272 
L 286.448219 211.411956 
L 285.064454 215.073983 
L 283.566346 218.690737 
L 281.955371 222.25865 
L 280.233121 225.774201 
L 278.401294 229.233919 
L 276.461699 232.634392 
L 274.416249 235.972262 
L 272.266964 239.244236 
L 270.015964 242.447085 
L 267.665471 245.577648 
L 265.217804 248.632836 
L 262.675379 251.609632 
L 260.040706 254.505101 
L 257.316384 257.316384 
L 254.505101 260.040706 
L 251.609632 262.675379 
L 248.632836 265.217804 
L 245.577648 267.665471 
L 242.447085 270.015964 
L 239.244236 272.266964 
L 235.972262 274.416249 
L 232.634392 276.461699 
L 229.233919 278.401294 
L 225.774201 280.233121 
L 222.25865 281.955371 
L 218.690737 283.566346 
L 215.073983 285.064454 
L 211.411956 286.448219 
L 207.708272 287.716274 
L 203.966584 288.867367 
L 200.190586 289.900363 
L 196.384004 290.814243 
L 192.550595 291.608104 
L 188.694141 292.281162 
L 184.818449 292.832755 
L 180.927344 293.262337 
L 177.024665 293.569485 
L 173.114264 293.753894 
L 169.2 293.815385 
L 165.285736 293.753894 
L 161.375335 293.569485 
L 157.472656 293.262337 
L 153.581551 292.832755 
L 149.705859 292.281162 
L 145.849405 291.608104 
L 142.015996 290.814243 
L 138.209414 289.900363 
L 134.433416 288.867367 
L 130.691728 287.716274 
L 126.988044 286.448219 
L 123.326017 285.064454 
L 119.709263 283.566346 
L 116.14135 281.955371 
L 112.625799 280.233121 
L 109.166081 278.401294 
L 105.765608 276.461699 
L 102.427738 274.416249 
L 99.155764 272.266964 
L 95.952915 270.015964 
L 92.822352 267.665471 
L 89.767164 265.217804 
L 86.790368 262.675379 
L 83.894899 260.040706 
L 81.083616 257.316384 
L 78.359294 254.505101 
L 75.724621 251.609632 
L 73.182196 248.632836 
L 70.734529 245.577648 
L 68.384036 242.447085 
L 66.133036 239.244236 
L 63.983751 235.972262 
L 61.938301 232.634392 
L 59.998706 229.233919 
L 58.166879 225.774201 
L 56.444629 222.25865 
L 54.833654 218.690737 
L 53.335546 215.073983 
L 51.951781 211.411956 
L 50.683726 207.708272 
L 49.532633 203.966584 
L 48.499637 200.190586 
L 47.585757 196.384004 
L 46.791896 192.550595 
L 46.118838 188.694141 
L 45.567245 184.818449 
L 45.137663 180.927344 
L 44.830515 177.024665 
L 44.646106 173.114264 
L 44.584615 169.2 
L 44.646106 165.285736 
L 44.830515 161.375335 
L 45.137663 157.472656 
L 45.567245 153.581551 
L 46.118838 149.705859 
L 46.791896 145.849405 
L 47.585757 142.015996 
L 48.499637 138.209414 
L 49.532633 134.433416 
L 50.683726 130.691728 
L 51.951781 126.988044 
L 53.335546 123.326017 
L 54.833654 119.709263 
L 56.444629 116.14135 
L 58.166879 112.625799 
L 59.998706 109.166081 
L 61.938301 105.765608 
L 63.983751 102.427738 
L 66.133036 99.155764 
L 68.384036 95.952915 
L 70.734529 92.822352 
L 73.182196 89.767164 
L 75.724621 86.790368 
L 78.359294 83.894899 
L 81.083616 81.083616 
L 83.894899 78.359294 
L 86.790368 75.724621 
L 89.767164 73.182196 
L 92.822352 70.734529 
L 95.952915 68.384036 
L 99.155764 66.133036 
L 102.427738 63.983751 
L 105.765608 61.938301 
L 109.166081 59.998706 
L 112.625799 58.166879 
L 116.14135 56.444629 
L 119.709263 54.833654 
L 123.326017 53.335546 
L 126.988044 51.951781 
L 130.691728 50.683726 
L 134.433416 49.532633 
L 138.209414 48.499637 
L 142.015996 47.585757 
L 145.849405 46.791896 
L 149.705859 46.118838 
L 153.581551 45.567245 
L 157.472656 45.137663 
L 161.375335 44.830515 
L 165.285736 44.646106 
L 169.2 44.584615 
L 173.114264 44.646106 
L 177.024665 44.830515 
L 180.927344 45.137663 
L 184.818449 45.567245 
L 188.694141 46.118838 
L 192.550595 46.791896 
L 196.384004 47.585757 
L 200.190586 48.499637 
L 203.966584 49.532633 
L 207.708272 50.683726 
L 211.411956 51.951781 
L 215.073983 53.335546 
L 218.690737 54.833654 
L 222.25865 56.444629 
L 225.774201 58.166879 
L 229.233919 59.998706 
L 232.634392 61.938301 
L 235.972262 63.983751 
L 239.244236 66.133036 
L 242.447085 68.384036 
L 245.577648 70.734529 
L 248.632836 73.182196 
L 251.609632 75.724621 
L 254.505101 78.359294 
L 257.316384 81.083616 
L 260.040706 83.894899 
L 262.675379 86.790368 
L 265.217804 89.767164 
L 267.665471 92.822352 
L 270.015964 95.952915 
L 272.266964 99.155764 
L 274.416249 102.427738 
L 276.461699 105.765608 
L 278.401294 109.166081 
L 280.233121 112.625799 
L 281.955371 116.14135 
L 283.566346 119.709263 
L 285.064454 123.326017 
L 286.448219 126.988044 
L 287.716274 130.691728 
L 288.867367 134.433416 
L 289.900363 138.209414 
L 290.814243 142.015996 
L 291.608104 145.849405 
L 292.281162 149.705859 
L 292.832755 153.581551 
L 293.262337 157.472656 
L 293.569485 161.375335 
L 293.753894 165.285736 
L 293.815385 169.2 
L 324.969231 169.2 
L 324.892368 164.30717 
L 324.661856 159.419169 
L 324.277921 154.54082 
L 323.740944 149.676939 
L 323.051453 144.832324 
L 322.210129 140.011757 
L 321.217803 135.219995 
L 320.075454 130.461768 
L 318.784209 125.74177 
L 317.345342 121.06466 
L 315.760274 116.435055 
L 314.030568 111.857522 
L 312.157932 107.336579 
L 310.144214 102.876687 
L 307.991401 98.482249 
L 305.701617 94.157601 
L 303.277123 89.90701 
L 300.720311 85.734672 
L 298.033705 81.644705 
L 295.219955 77.641143 
L 292.281838 73.72794 
L 289.222255 69.908955 
L 286.044224 66.187959 
L 282.750882 62.568624 
L 279.345479 59.054521 
L 275.831376 55.649118 
L 272.212041 52.355776 
L 268.491045 49.177745 
L 264.67206 46.118162 
L 260.758857 43.180045 
L 256.755295 40.366295 
L 252.665328 37.679689 
L 248.49299 35.122877 
L 244.242399 32.698383 
L 239.917751 30.408599 
L 235.523313 28.255786 
L 231.063421 26.242068 
L 226.542478 24.369432 
L 221.964945 22.639726 
L 217.33534 21.054658 
L 212.65823 19.615791 
L 207.938232 18.324546 
L 203.180005 17.182197 
L 198.388243 16.189871 
L 193.567676 15.348547 
L 188.723061 14.659056 
L 183.85918 14.122079 
L 178.980831 13.738144 
L 174.09283 13.507632 
L 169.2 13.430769 
L 164.30717 13.507632 
L 159.419169 13.738144 
L 154.54082 14.122079 
L 149.676939 14.659056 
L 144.832324 15.348547 
L 140.011757 16.189871 
L 135.219995 17.182197 
L 130.461768 18.324546 
L 125.74177 19.615791 
L 121.06466 21.054658 
L 116.435055 22.639726 
L 111.857522 24.369432 
L 107.336579 26.242068 
L 102.876687 28.255786 
L 98.482249 30.408599 
L 94.157601 32.698383 
L 89.90701 35.122877 
L 85.734672 37.679689 
L 81.644705 40.366295 
L 77.641143 43.180045 
L 73.72794 46.118162 
L 69.908955 49.177745 
L 66.187959 52.355776 
L 62.568624 55.649118 
L 59.054521 59.054521 
L 55.649118 62.568624 
L 52.355776 66.187959 
L 49.177745 69.908955 
L 46.118162 73.72794 
L 43.180045 77.641143 
L 40.366295 81.644705 
L 37.679689 85.734672 
L 35.122877 89.90701 
L 32.698383 94.157601 
L 30.408599 98.482249 
L 28.255786 102.876687 
L 26.242068 107.336579 
L 24.369432 111.857522 
L 22.639726 116.435055 
L 21.054658 121.06466 
L 19.615791 125.74177 
L 18.324546 130.461768 
L 17.182197 135.219995 
L 16.189871 140.011757 
L 15.348547 144.832324 
L 14.659056 149.676939 
L 14.122079 154.54082 
L 13.738144 159.419169 
L 13.507632 164.30717 
L 13.430769 169.2 
L 13.507632 174.09283 
L 13.738144 178.980831 
L 14.122079 183.85918 
L 14.659056 188.723061 
L 15.348547 193.567676 
L 16.189871 198.388243 
L 17.182197 203.180005 
L 18.324546 207.938232 
L 19.615791 212.65823 
L 21.054658 217.33534 
L 22.639726 221.964945 
L 24.369432 226.542478 
L 26.242068 231.063421 
L 28.255786 235.523313 
L 30.408599 239.917751 
L 32.698383 244.242399 
L 35.122877 248.49299 
L 37.679689 252.665328 
L 40.366295 256.755295 
L 43.180045 260.758857 
L 46.118162 264.67206 
L 49.177745 268.491045 
L 52.355776 272.212041 
L 55.649118 275.831376 
L 59.054521 279.345479 
L 62.568624 282.750882 
L 66.187959 286.044224 
L 69.908955 289.222255 
L 73.72794 292.281838 
L 77.641143 295.219955 
L 81.644705 298.033705 
L 85.734672 300.720311 
L 89.90701 303.277123 
L 94.157601 305.701617 
L 98.482249 307.991401 
L 102.876687 310.144214 
L 107.336579 312.157932 
L 111.857522 314.030568 
L 116.435055 315.760274 
L 121.06466 317.345342 
L 125.74177 318.784209 
L 130.461768 320.075454 
L 135.219995 321.217803 
L 140.011757 322.210129 
L 144.832324 323.051453 
L 149.676939 323.740944 
L 154.54082 324.277921 
L 159.419169 324.661856 
L 164.30717 324.892368 
L 169.2 324.969231 
L 174.09283 324.892368 
L 178.980831 324.661856 
L 183.85918 324.277921 
L 188.723061 323.740944 
L 193.567676 323.051453 
L 198.388243 322.210129 
L 203.180005 321.217803 
L 207.938232 320.075454 
L 212.65823 318.784209 
L 217.33534 317.345342 
L 221.964945 315.760274 
L 226.542478 314.030568 
L 231.063421 312.157932 
L 235.523313 310.144214 
L 239.917751 307.991401 
L 244.242399 305.701617 
L 248.49299 303.277123 
L 252.665328 300.720311 
L 256.755295 298.033705 
L 260.758857 295.219955 
L 264.67206 292.281838 
L 268.491045 289.222255 
L 272.212041 286.044224 
L 275.831376 282.750882 
L 279.345479 279.345479 
L 282.750882 275.831376 
L 286.044224 272.212041 
L 289.222255 268.491045 
L 292.281838 264.67206 
L 295.219955 260.758857 
L 298.033705 256.755295 
L 300.720311 252.665328 
L 303.277123 248.49299 
L 305.701617 244.242399 
L 307.991401 239.917751 
L 310.144214 235.523313 
L 312.157932 231.063421 
L 314.030568 226.542478 
L 315.760274 221.964945 
L 317.345342 217.33534 
L 318.784209 212.65823 
L 320.075454 207.938232 
L 321.217803 203.180005 
L 322.210129 198.388243 
L 323.051453 193.567676 
L 323.740944 188.723061 
L 324.277921 183.85918 
L 324.661856 178.980831 
L 324.892368 174.09283 
L 324.969231 169.2 
z
" clip-path="url(#pb87979c951)" style="fill: #808080"/>
   </g>
   <g id="matplotlib.axis_1"/>
   <g id="matplotlib.axis_2"/>
   <g id="line2d_1">
    <path d="M 293.815385 169.2 
L 293.798277 167.135199 
L 293.578715 161.523456 
L 293.04062 155.325748 
L 291.99304 147.966457 
L 290.785404 141.887299 
L 290.175415 139.301121 
L 287.920526 131.32612 
L 285.581766 124.654757 
L 282.866947 118.123398 
L 279.953033 112.079429 
L 278.766415 109.83507 
L 276.277603 105.455345 
L 272.673808 99.758188 
L 268.593193 94.033603 
L 265.36746 89.948415 
L 260.1301 83.990194 
L 255.365575 79.175071 
L 250.247009 74.540736 
L 245.56223 70.722572 
L 241.136507 67.444739 
L 237.381717 64.891575 
L 234.321595 62.954191 
L 230.242762 60.559422 
L 226.039314 58.30236 
L 222.368027 56.496163 
L 218.60459 54.796414 
L 211.748468 52.073479 
L 203.748167 49.469393 
L 201.023585 48.716584 
L 195.948979 47.489334 
L 192.295324 46.743477 
L 186.266084 45.758747 
L 180.044007 45.057334 
L 172.758108 44.635423 
L 168.409887 44.58712 
L 162.224324 44.78001 
L 155.258783 45.3669 
L 148.330575 46.344552 
L 142.133981 47.559445 
L 136.465265 48.960941 
L 129.232632 51.167786 
L 127.039895 51.933126 
L 120.945928 54.306403 
L 115.353604 56.818686 
L 109.335319 59.905837 
L 104.919927 62.442957 
L 99.03113 66.217848 
L 95.095207 69.012806 
L 90.377159 72.680811 
L 84.980697 77.351738 
L 83.229334 78.988921 
L 79.626579 82.565155 
L 74.720156 87.943904 
L 71.210037 92.21324 
L 67.657504 96.963474 
L 66.039844 99.293088 
L 61.778189 106.037126 
L 58.223271 112.51526 
L 55.416546 118.38347 
L 53.873916 121.988895 
L 51.873181 127.207006 
L 50.438188 131.455782 
L 48.297656 139.007 
L 47.00219 144.772775 
L 46.237241 148.972447 
L 45.65901 152.87156 
L 44.89989 160.341283 
L 44.612046 166.585484 
L 44.662908 173.616647 
L 45.111313 180.645172 
L 45.224325 181.810555 
L 46.232493 189.398669 
L 47.482538 195.91804 
L 48.653958 200.785532 
L 50.595872 207.436827 
L 51.492803 210.114665 
L 54.204631 217.211032 
L 55.661419 220.561314 
L 58.886052 227.164014 
L 60.4381 230.026336 
L 63.314266 234.905445 
L 66.77685 240.182339 
L 68.745391 242.941885 
L 73.546921 249.071663 
L 76.744067 252.751747 
L 80.213243 256.437327 
L 84.352672 260.468423 
L 88.115371 263.827042 
L 93.451859 268.150559 
L 100.32679 273.053142 
L 107.872154 277.679903 
L 111.541787 279.67409 
L 117.921581 282.776044 
L 123.123604 284.984108 
L 127.562409 286.653417 
L 131.343002 287.92591 
L 136.357364 289.409631 
L 145.002005 291.443409 
L 150.224489 292.362186 
L 156.474942 293.163975 
L 163.999405 293.706819 
L 170.248391 293.810974 
L 179.549368 293.384881 
L 182.531821 293.100188 
L 191.013222 291.891391 
L 195.906551 290.919983 
L 199.600154 290.050423 
L 205.813038 288.315404 
L 212.727961 285.966051 
L 217.001937 284.282444 
L 221.294585 282.404012 
L 227.81894 279.167331 
L 234.687176 275.220865 
L 238.077959 273.049992 
L 242.130527 270.2452 
L 248.644551 265.208111 
L 251.558855 262.720121 
L 257.05131 257.580662 
L 260.208379 254.326194 
L 264.524379 249.463671 
L 267.5579 245.716127 
L 269.662951 242.93052 
L 272.424414 239.011993 
L 275.71334 233.883092 
L 278.692288 228.701537 
L 280.240189 225.760326 
L 282.370793 221.36671 
L 284.089993 217.462652 
L 285.72082 213.38023 
L 287.010821 209.815324 
L 288.505063 205.19022 
L 290.275171 198.692321 
L 290.899757 195.998566 
L 291.941596 190.728928 
L 292.544562 186.951422 
L 293.104758 182.489283 
L 293.653722 175.545488 
L 293.815385 169.2 
L 293.815385 169.2 
" clip-path="url(#pb87979c951)" style="fill: none; stroke: #000000; stroke-width: 3; stroke-linecap: square"/>
   </g>
   <g id="line2d_2">
    <path d="M 324.969231 169.2 
L 324.92264 165.39044 
L 324.718702 160.368995 
L 324.238486 154.129466 
L 323.619583 148.739165 
L 322.616233 142.227558 
L 321.176648 135.036396 
L 320.341671 131.513813 
L 317.943568 122.946307 
L 315.886919 116.788158 
L 314.230884 112.366067 
L 311.691629 106.269968 
L 308.576864 99.643239 
L 306.545942 95.714317 
L 304.164836 91.427599 
L 300.648968 85.622359 
L 296.249531 79.075254 
L 293.671204 75.546529 
L 288.979644 69.616416 
L 285.159053 65.192542 
L 279.934675 59.646885 
L 276.99981 56.757774 
L 272.635297 52.730294 
L 268.508031 49.191799 
L 264.853685 46.259259 
L 259.99629 42.629517 
L 251.960234 37.234865 
L 248.028546 34.849289 
L 244.304397 32.732484 
L 239.332704 30.112053 
L 231.591857 26.471904 
L 224.28119 23.494421 
L 221.205164 22.368409 
L 212.434862 19.551078 
L 205.782997 17.787525 
L 201.485639 16.813351 
L 194.222619 15.45371 
L 184.678841 14.201746 
L 180.026729 13.80748 
L 174.640095 13.525793 
L 164.647731 13.497302 
L 156.207425 13.973565 
L 150.650957 14.539125 
L 145.029529 15.317442 
L 134.420277 17.363166 
L 130.036346 18.434416 
L 119.755614 21.486406 
L 114.345489 23.408931 
L 107.274341 26.269016 
L 99.8708 29.709802 
L 96.487627 31.443098 
L 91.994086 33.91031 
L 85.618898 37.753233 
L 81.990419 40.132025 
L 73.782565 46.075809 
L 68.988181 49.945463 
L 62.277741 55.922978 
L 59.170828 58.938336 
L 56.148919 62.038877 
L 51.586186 67.067517 
L 46.910282 72.7154 
L 43.260511 77.530493 
L 40.557796 81.36358 
L 38.059627 85.138976 
L 33.867433 92.069269 
L 31.937217 95.559104 
L 29.86075 99.56792 
L 26.06588 107.745327 
L 23.866858 113.143501 
L 21.64687 119.278792 
L 19.493567 126.164699 
L 18.112513 131.29717 
L 16.173783 140.096217 
L 15.215593 145.68712 
L 14.195472 153.784115 
L 13.822839 158.155046 
L 13.494867 164.73179 
L 13.435424 167.995775 
L 13.466973 172.558222 
L 13.726178 178.788747 
L 14.310696 185.733507 
L 15.179503 192.475305 
L 16.268711 198.79855 
L 17.188045 203.206157 
L 19.239087 211.339979 
L 22.178305 220.665274 
L 24.21486 226.150527 
L 26.590405 231.862242 
L 29.81085 238.732137 
L 33.521984 245.721429 
L 36.373977 250.571377 
L 39.000905 254.711689 
L 43.638178 261.386128 
L 46.145062 264.70673 
L 48.739738 267.959194 
L 52.77249 272.682792 
L 57.435936 277.702752 
L 61.624767 281.857101 
L 64.345008 284.393246 
L 69.216733 288.64622 
L 74.949568 293.219794 
L 80.989413 297.585924 
L 86.597903 301.264177 
L 92.57164 304.817652 
L 96.076368 306.739041 
L 102.488945 309.961104 
L 109.492332 313.071636 
L 116.825721 315.900335 
L 121.36821 317.443628 
L 125.751215 318.786952 
L 131.770305 320.405394 
L 140.438924 322.290998 
L 143.813539 322.886632 
L 152.897338 324.113771 
L 160.997231 324.753103 
L 166.559461 324.946848 
L 172.376999 324.936829 
L 179.568776 324.623749 
L 183.025244 324.35449 
L 190.432727 323.515341 
L 196.649923 322.53152 
L 204.15234 320.997191 
L 207.979908 320.064747 
L 214.714144 318.171527 
L 221.162984 316.046524 
L 229.653233 312.759952 
L 236.320207 309.766465 
L 240.659553 307.61093 
L 245.859074 304.800294 
L 249.817832 302.484727 
L 255.038619 299.183786 
L 258.448836 296.866357 
L 261.852763 294.417885 
L 267.279537 290.214287 
L 274.333288 284.13931 
L 279.677947 279.012005 
L 285.777154 272.514183 
L 290.700631 266.676407 
L 294.735704 261.421691 
L 298.833991 255.565975 
L 299.455196 254.626208 
L 304.378103 246.601123 
L 306.10256 243.508426 
L 309.031444 237.838331 
L 311.684022 232.147254 
L 315.135046 223.670318 
L 316.593261 219.591268 
L 318.120776 214.879926 
L 319.344938 210.679523 
L 320.45065 206.446396 
L 322.011274 199.412045 
L 323.21314 192.523938 
L 324.10312 185.603556 
L 324.673789 178.78927 
L 324.944738 171.962237 
L 324.969231 169.2 
L 324.969231 169.2 
" clip-path="url(#pb87979c951)" style="fill: none; stroke: #000000; stroke-width: 3; stroke-linecap: square"/>
   </g>
   <g id="line2d_3">
    <path d="M 253.362475 38.124712 
L 169.2 169.2 
L 272.049515 98.836861 
" clip-path="url(#pb87979c951)" style="fill: none; stroke: #000000; stroke-width: 2; stroke-linecap: square"/>
   </g>
   <g id="patch_4">
    <path d="M 169.2 331.2 
L 169.2 7.2 
" style="fill: none; stroke: #000000; stroke-width: 0.8; stroke-linejoin: miter; stroke-linecap: square"/>
   </g>
   <g id="patch_5">
    <path d="M 7.2 169.2 
L 331.2 169.2 
" style="fill: none; stroke: #000000; stroke-width: 0.8; stroke-linejoin: miter; stroke-linecap: square"/>
   </g>
   <g id="text_1">
    <!-- $R_0$ -->
    <g transform="translate(270.63413 93.970996) scale(0.2 -0.2)">
     <defs>
      <path id="Cmmi10-52" d="M 313 0 
Q 250 0 250 84 
Q 253 100 262 139 
Q 272 178 289 201 
Q 306 225 331 225 
Q 722 225 878 269 
Q 959 297 997 441 
L 1875 3956 
Q 1888 4019 1888 4044 
Q 1888 4113 1813 4122 
Q 1691 4147 1350 4147 
Q 1288 4147 1288 4231 
Q 1291 4247 1300 4286 
Q 1309 4325 1326 4348 
Q 1344 4372 1369 4372 
L 3309 4372 
Q 3541 4372 3791 4319 
Q 4041 4266 4250 4152 
Q 4459 4038 4593 3848 
Q 4728 3659 4728 3406 
Q 4728 3084 4515 2831 
Q 4303 2578 3978 2408 
Q 3653 2238 3347 2169 
Q 3597 2078 3756 1879 
Q 3916 1681 3916 1422 
Q 3916 1388 3914 1370 
Q 3913 1353 3909 1331 
L 3859 763 
Q 3853 638 3847 550 
Q 3841 463 3841 409 
Q 3841 234 3892 129 
Q 3944 25 4097 25 
Q 4297 25 4448 211 
Q 4600 397 4647 616 
Q 4675 672 4709 672 
L 4769 672 
Q 4831 672 4831 588 
Q 4784 403 4682 237 
Q 4581 72 4426 -34 
Q 4272 -141 4091 -141 
Q 3716 -141 3452 26 
Q 3188 194 3188 550 
Q 3188 684 3213 788 
L 3353 1356 
Q 3378 1434 3378 1538 
Q 3378 1803 3198 1954 
Q 3019 2106 2747 2106 
L 1959 2106 
L 1538 416 
Q 1522 363 1522 325 
Q 1522 259 1600 250 
Q 1722 225 2059 225 
Q 2125 225 2125 141 
Q 2103 50 2090 25 
Q 2078 0 2016 0 
L 313 0 
z
M 1997 2272 
L 2706 2272 
Q 3403 2272 3756 2625 
Q 3919 2788 4014 3039 
Q 4109 3291 4109 3541 
Q 4109 3778 3970 3912 
Q 3831 4047 3626 4097 
Q 3422 4147 3175 4147 
L 2747 4147 
Q 2572 4147 2515 4117 
Q 2459 4088 2413 3928 
L 1997 2272 
z
" transform="scale(0.015625)"/>
      <path id="Cmr10-30" d="M 1600 -141 
Q 816 -141 533 504 
Q 250 1150 250 2041 
Q 250 2597 351 3087 
Q 453 3578 754 3920 
Q 1056 4263 1600 4263 
Q 2022 4263 2290 4056 
Q 2559 3850 2700 3523 
Q 2841 3197 2892 2823 
Q 2944 2450 2944 2041 
Q 2944 1491 2842 1011 
Q 2741 531 2444 195 
Q 2147 -141 1600 -141 
z
M 1600 25 
Q 1956 25 2131 390 
Q 2306 756 2347 1200 
Q 2388 1644 2388 2144 
Q 2388 2625 2347 3031 
Q 2306 3438 2132 3767 
Q 1959 4097 1600 4097 
Q 1238 4097 1063 3765 
Q 888 3434 847 3029 
Q 806 2625 806 2144 
Q 806 1788 823 1472 
Q 841 1156 916 820 
Q 991 484 1158 254 
Q 1325 25 1600 25 
z
" transform="scale(0.015625)"/>
     </defs>
     <use xlink:href="#Cmmi10-52" transform="translate(0 0.6875)"/>
     <use xlink:href="#Cmr10-30" transform="translate(75.878906 -16.31875) scale(0.7)"/>
    </g>
   </g>
   <g id="text_2">
    <!-- $R_1$ -->
    <g transform="translate(251.94709 33.258847) scale(0.2 -0.2)">
     <defs>
      <path id="Cmr10-31" d="M 594 0 
L 594 225 
Q 1394 225 1394 428 
L 1394 3788 
Q 1063 3628 556 3628 
L 556 3853 
Q 1341 3853 1741 4263 
L 1831 4263 
Q 1853 4263 1873 4245 
Q 1894 4228 1894 4206 
L 1894 428 
Q 1894 225 2694 225 
L 2694 0 
L 594 0 
z
" transform="scale(0.015625)"/>
     </defs>
     <use xlink:href="#Cmmi10-52" transform="translate(0 0.6875)"/>
     <use xlink:href="#Cmr10-31" transform="translate(75.878906 -16.31875) scale(0.7)"/>
    </g>
   </g>
  </g>
 </g>
 <defs>
  <clipPath id="pb87979c951">
   <rect x="7.2" y="7.2" width="324" height="324"/>
  </clipPath>
 </defs>
</svg>
