<?xml version="1.0" encoding="utf-8" standalone="no"?>
<!DOCTYPE svg PUBLIC "-//W3C//DTD SVG 1.1//EN"
  "http://www.w3.org/Graphics/SVG/1.1/DTD/svg11.dtd">
<svg xmlns:xlink="http://www.w3.org/1999/xlink" width="453.6pt" height="236.324741pt" viewBox="0 0 453.6 236.324741" xmlns="http://www.w3.org/2000/svg" version="1.1">
 <metadata>
  <rdf:RDF xmlns:dc="http://purl.org/dc/elements/1.1/" xmlns:cc="http://creativecommons.org/ns#" xmlns:rdf="http://www.w3.org/1999/02/22-rdf-syntax-ns#">
   <cc:Work>
    <dc:type rdf:resource="http://purl.org/dc/dcmitype/StillImage"/>
    <dc:date>2025-06-25T15:28:05.133565</dc:date>
    <dc:format>image/svg+xml</dc:format>
    <dc:creator>
     <cc:Agent>
      <dc:title>Matplotlib v3.10.3, https://matplotlib.org/</dc:title>
     </cc:Agent>
    </dc:creator>
   </cc:Work>
  </rdf:RDF>
 </metadata>
 <defs>
  <style type="text/css">*{stroke-linejoin: round; stroke-linecap: butt}</style>
 </defs>
 <g id="figure_1">
  <g id="patch_1">
   <path d="M 0 236.324741 
L 453.6 236.324741 
L 453.6 0 
L 0 0 
z
" style="fill: #ffffff"/>
  </g>
  <g id="axes_1">
   <g id="patch_2">
    <path d="M 7.2 229.124741 
L 446.4 229.124741 
L 446.4 7.2 
L 7.2 7.2 
z
" style="fill: #ffffff"/>
   </g>
   <g id="PathCollection_1">
    <path d="M 20.707203 139.136197 
C 21.433492 139.136197 22.130131 138.847639 22.643695 138.334076 
C 23.157258 137.820512 23.445816 137.123872 23.445816 136.397584 
C 23.445816 135.671295 23.157258 134.974656 22.643695 134.461092 
C 22.130131 133.947529 21.433492 133.658971 20.707203 133.658971 
C 19.980914 133.658971 19.284275 133.947529 18.770711 134.461092 
C 18.257148 134.974656 17.96859 135.671295 17.96859 136.397584 
C 17.96859 137.123872 18.257148 137.820512 18.770711 138.334076 
C 19.284275 138.847639 19.980914 139.136197 20.707203 139.136197 
z
" clip-path="url(#p4601e5fc69)"/>
   </g>
   <g id="matplotlib.axis_1"/>
   <g id="matplotlib.axis_2"/>
   <g id="line2d_1">
    <path d="M 437.953846 75.106692 
L 434.586498 70.726474 
L 432.107249 67.74839 
L 428.684909 63.929455 
L 424.995989 60.139778 
L 421.287315 56.623777 
L 416.753184 52.67096 
L 411.786292 48.718834 
L 406.808533 45.102446 
L 403.441621 42.830244 
L 399.175269 40.133362 
L 392.949849 36.529104 
L 386.898455 33.363384 
L 383.600606 31.765741 
L 375.900269 28.354698 
L 369.678976 25.898703 
L 361.816456 23.142091 
L 354.823337 20.989171 
L 346.254832 18.702962 
L 339.782376 17.214451 
L 331.365512 15.564484 
L 324.101157 14.384658 
L 317.565782 13.505932 
L 308.229873 12.535222 
L 299.235223 11.900589 
L 291.348659 11.575121 
L 285.494574 11.467783 
L 277.482608 11.500217 
L 269.587656 11.728924 
L 264.231272 11.992399 
L 253.278235 12.796714 
L 244.142029 13.734141 
L 234.337896 15.003754 
L 227.605203 16.031368 
L 216.380568 18.023415 
L 209.226914 19.473786 
L 197.777327 22.08763 
L 189.330417 24.247711 
L 183.599507 25.826224 
L 173.611019 28.798605 
L 165.887341 31.293066 
L 155.497411 34.92569 
L 145.756757 38.630081 
L 136.653566 42.365376 
L 126.117624 47.03712 
L 117.444853 51.182077 
L 108.648479 55.684107 
L 100.10484 60.369267 
L 94.725278 63.491246 
L 86.59717 68.485537 
L 79.351788 73.249411 
L 72.16448 78.305804 
L 68.146734 81.294384 
L 62.784329 85.488251 
L 57.984841 89.466477 
L 51.737707 95.018143 
L 46.492688 100.072621 
L 41.794664 104.97926 
L 37.604608 109.735632 
L 35.087459 112.807295 
L 32.346204 116.378892 
L 28.784376 121.468978 
L 25.841589 126.195615 
L 22.890646 131.64299 
L 20.928029 135.877402 
L 19.415825 139.684533 
L 18.134582 143.535774 
L 17.006785 147.836867 
L 16.468431 150.52651 
L 15.908539 154.566742 
L 15.666655 158.256664 
L 15.702246 162.165288 
L 16.072586 166.23548 
L 16.716073 169.923147 
L 17.514537 173.091806 
L 18.827507 176.996814 
L 20.114327 180.035838 
L 21.806383 183.365381 
L 23.695959 186.516719 
L 25.113377 188.607938 
L 27.253291 191.440532 
L 29.329459 193.901498 
L 31.23998 195.970171 
L 34.627899 199.276199 
L 37.871433 202.099248 
L 41.528083 204.968089 
L 44.491424 207.093733 
L 48.57837 209.783376 
L 53.793173 212.877853 
L 60.007495 216.164001 
L 66.455116 219.198446 
L 72.113832 221.600182 
L 78.361925 224.010916 
L 80.705406 224.856958 
L 80.705406 224.856958 
" clip-path="url(#p4601e5fc69)" style="fill: none; stroke: #000000; stroke-width: 2; stroke-linecap: square"/>
   </g>
   <g id="patch_3">
    <path d="M 181.154976 26.527557 
Q 180.127992 26.828714 181.246722 26.500653 
" clip-path="url(#p4601e5fc69)" style="fill: none; stroke: #000000; stroke-width: 2; stroke-linecap: round"/>
    <path d="M 192.249616 28.484667 
L 181.246722 26.500653 
L 189.435669 18.888746 
z
" clip-path="url(#p4601e5fc69)" style="stroke: #000000; stroke-width: 2; stroke-linecap: round"/>
   </g>
   <g id="patch_4">
    <path d="M 20.707203 136.397584 
Q 52.258181 117.466997 81.891747 99.686857 
" clip-path="url(#p4601e5fc69)" style="fill: none; stroke: #ff0000; stroke-width: 2; stroke-linecap: round"/>
    <path d="M 70.744339 100.54435 
L 81.891747 99.686857 
L 75.889297 109.11928 
z
" clip-path="url(#p4601e5fc69)" style="fill: #ff0000; stroke: #ff0000; stroke-width: 2; stroke-linecap: round"/>
   </g>
   <g id="text_1">
    <!-- $Q$ -->
    <g transform="translate(31.63779 151.381627) scale(0.2 -0.2)">
     <defs>
      <path id="Cmmi10-51" d="M 1947 -141 
Q 1466 -141 1094 79 
Q 722 300 520 692 
Q 319 1084 319 1563 
Q 319 2259 714 2950 
Q 1109 3641 1756 4077 
Q 2403 4513 3109 4513 
Q 3475 4513 3778 4381 
Q 4081 4250 4290 4017 
Q 4500 3784 4614 3471 
Q 4728 3159 4728 2791 
Q 4728 2366 4581 1936 
Q 4434 1506 4171 1136 
Q 3909 766 3559 484 
Q 3209 203 2809 38 
Q 2850 -256 2934 -425 
Q 3019 -594 3256 -594 
Q 3506 -594 3726 -412 
Q 3947 -231 4006 13 
Q 4019 72 4078 72 
Q 4147 72 4147 -13 
Q 4100 -219 4008 -430 
Q 3916 -641 3786 -823 
Q 3656 -1006 3478 -1123 
Q 3300 -1241 3084 -1241 
Q 2547 -1241 2547 -550 
Q 2547 -509 2562 -332 
Q 2578 -156 2578 -44 
Q 2269 -141 1947 -141 
z
M 1709 300 
Q 1709 44 1991 44 
Q 2275 44 2591 184 
L 2591 244 
Q 2591 503 2509 648 
Q 2428 794 2194 794 
Q 2078 794 1964 723 
Q 1850 653 1779 539 
Q 1709 425 1709 300 
z
M 1544 288 
Q 1544 456 1637 612 
Q 1731 769 1881 864 
Q 2031 959 2203 959 
Q 2481 959 2607 771 
Q 2734 584 2778 281 
Q 3188 525 3500 978 
Q 3813 1431 3977 1973 
Q 4141 2516 4141 3003 
Q 4141 3356 4023 3656 
Q 3906 3956 3664 4140 
Q 3422 4325 3066 4325 
Q 2722 4325 2403 4156 
Q 2084 3988 1813 3706 
Q 1550 3434 1342 3032 
Q 1134 2631 1021 2193 
Q 909 1756 909 1356 
Q 909 947 1068 612 
Q 1228 278 1569 128 
Q 1544 194 1544 288 
z
" transform="scale(0.015625)"/>
     </defs>
     <use xlink:href="#Cmmi10-51" transform="translate(0 0.484375)"/>
    </g>
   </g>
  </g>
 </g>
 <defs>
  <clipPath id="p4601e5fc69">
   <rect x="7.2" y="7.2" width="439.2" height="221.924741"/>
  </clipPath>
 </defs>
</svg>
