<?xml version="1.0" encoding="utf-8" standalone="no"?>
<!DOCTYPE svg PUBLIC "-//W3C//DTD SVG 1.1//EN"
  "http://www.w3.org/Graphics/SVG/1.1/DTD/svg11.dtd">
<svg xmlns:xlink="http://www.w3.org/1999/xlink" width="325.700152pt" height="338.097512pt" viewBox="0 0 325.700152 338.097512" xmlns="http://www.w3.org/2000/svg" version="1.1">
 <metadata>
  <rdf:RDF xmlns:dc="http://purl.org/dc/elements/1.1/" xmlns:cc="http://creativecommons.org/ns#" xmlns:rdf="http://www.w3.org/1999/02/22-rdf-syntax-ns#">
   <cc:Work>
    <dc:type rdf:resource="http://purl.org/dc/dcmitype/StillImage"/>
    <dc:date>2025-11-05T14:58:11.354039</dc:date>
    <dc:format>image/svg+xml</dc:format>
    <dc:creator>
     <cc:Agent>
      <dc:title>Matplotlib v3.10.3, https://matplotlib.org/</dc:title>
     </cc:Agent>
    </dc:creator>
   </cc:Work>
  </rdf:RDF>
 </metadata>
 <defs>
  <style type="text/css">*{stroke-linejoin: round; stroke-linecap: butt}</style>
 </defs>
 <g id="figure_1">
  <g id="patch_1">
   <path d="M 0 338.097512 
L 325.700152 338.097512 
L 325.700152 0 
L 0 0 
z
" style="fill: #ffffff"/>
  </g>
  <g id="axes_1">
   <g id="patch_2">
    <path d="M 8.895962 319.913744 
L 305.360152 319.913744 
L 305.360152 23.4425 
L 8.895962 23.4425 
z
" style="fill: #ffffff"/>
   </g>
   <g id="matplotlib.axis_1">
    <g id="xtick_1">
     <g id="line2d_1">
      <defs>
       <path id="mc913c384cb" d="M 0 0 
L 0 3.5 
" style="stroke: #000000; stroke-width: 0.8"/>
      </defs>
      <g>
       <use xlink:href="#mc913c384cb" x="14.571094" y="314.219387" style="stroke: #000000; stroke-width: 0.8"/>
      </g>
     </g>
     <g id="text_1">
      <!-- −1 -->
      <g transform="translate(7.2 328.817824) scale(0.1 -0.1)">
       <defs>
        <path id="DejaVuSans-2212" d="M 678 2272 
L 4684 2272 
L 4684 1741 
L 678 1741 
L 678 2272 
z
" transform="scale(0.015625)"/>
        <path id="DejaVuSans-31" d="M 794 531 
L 1825 531 
L 1825 4091 
L 703 3866 
L 703 4441 
L 1819 4666 
L 2450 4666 
L 2450 531 
L 3481 531 
L 3481 0 
L 794 0 
L 794 531 
z
" transform="scale(0.015625)"/>
       </defs>
       <use xlink:href="#DejaVuSans-2212"/>
       <use xlink:href="#DejaVuSans-31" transform="translate(83.789062 0)"/>
      </g>
     </g>
    </g>
    <g id="xtick_2">
     <g id="line2d_2">
      <g>
       <use xlink:href="#mc913c384cb" x="299.658918" y="314.219387" style="stroke: #000000; stroke-width: 0.8"/>
      </g>
     </g>
     <g id="text_2">
      <!-- 1 -->
      <g transform="translate(296.477668 328.817824) scale(0.1 -0.1)">
       <use xlink:href="#DejaVuSans-31"/>
      </g>
     </g>
    </g>
    <g id="text_3">
     <!-- $x$ -->
     <g transform="translate(313.360152 314.219387) scale(0.16 -0.16)">
      <defs>
       <path id="Cmmi10-78" d="M 500 184 
Q 613 97 819 97 
Q 1019 97 1172 289 
Q 1325 481 1381 709 
L 1672 1844 
Q 1741 2153 1741 2266 
Q 1741 2425 1652 2544 
Q 1563 2663 1403 2663 
Q 1200 2663 1022 2536 
Q 844 2409 722 2214 
Q 600 2019 550 1819 
Q 538 1778 500 1778 
L 422 1778 
Q 372 1778 372 1838 
L 372 1856 
Q 434 2094 584 2320 
Q 734 2547 951 2687 
Q 1169 2828 1416 2828 
Q 1650 2828 1839 2703 
Q 2028 2578 2106 2363 
Q 2216 2559 2386 2693 
Q 2556 2828 2759 2828 
Q 2897 2828 3040 2779 
Q 3184 2731 3275 2631 
Q 3366 2531 3366 2381 
Q 3366 2219 3261 2101 
Q 3156 1984 2994 1984 
Q 2891 1984 2822 2050 
Q 2753 2116 2753 2216 
Q 2753 2350 2845 2451 
Q 2938 2553 3066 2572 
Q 2950 2663 2747 2663 
Q 2541 2663 2389 2472 
Q 2238 2281 2175 2047 
L 1894 916 
Q 1825 659 1825 494 
Q 1825 331 1917 214 
Q 2009 97 2163 97 
Q 2463 97 2698 361 
Q 2934 625 3009 941 
Q 3022 978 3059 978 
L 3138 978 
Q 3163 978 3178 961 
Q 3194 944 3194 922 
Q 3194 916 3188 903 
Q 3097 522 2806 225 
Q 2516 -72 2150 -72 
Q 1916 -72 1727 54 
Q 1538 181 1459 397 
Q 1359 209 1182 68 
Q 1006 -72 806 -72 
Q 669 -72 523 -23 
Q 378 25 287 125 
Q 197 225 197 378 
Q 197 528 301 651 
Q 406 775 563 775 
Q 669 775 741 711 
Q 813 647 813 544 
Q 813 409 723 309 
Q 634 209 500 184 
z
" transform="scale(0.015625)"/>
      </defs>
      <use xlink:href="#Cmmi10-78" transform="translate(0 0.8125)"/>
     </g>
    </g>
   </g>
   <g id="matplotlib.axis_2">
    <g id="ytick_1">
     <g id="line2d_3">
      <defs>
       <path id="m4009817d90" d="M 0 0 
L -3.5 0 
" style="stroke: #000000; stroke-width: 0.8"/>
      </defs>
      <g>
       <use xlink:href="#m4009817d90" x="157.115006" y="314.219387" style="stroke: #000000; stroke-width: 0.8"/>
      </g>
     </g>
    </g>
    <g id="ytick_2">
     <g id="line2d_4">
      <g>
       <use xlink:href="#m4009817d90" x="157.115006" y="171.675475" style="stroke: #000000; stroke-width: 0.8"/>
      </g>
     </g>
     <g id="text_4">
      <!-- 1 -->
      <g transform="translate(143.752506 175.474693) scale(0.1 -0.1)">
       <use xlink:href="#DejaVuSans-31"/>
      </g>
     </g>
    </g>
    <g id="ytick_3">
     <g id="line2d_5">
      <g>
       <use xlink:href="#m4009817d90" x="157.115006" y="29.131563" style="stroke: #000000; stroke-width: 0.8"/>
      </g>
     </g>
     <g id="text_5">
      <!-- 2 -->
      <g transform="translate(143.752506 32.930781) scale(0.1 -0.1)">
       <defs>
        <path id="DejaVuSans-32" d="M 1228 531 
L 3431 531 
L 3431 0 
L 469 0 
L 469 531 
Q 828 903 1448 1529 
Q 2069 2156 2228 2338 
Q 2531 2678 2651 2914 
Q 2772 3150 2772 3378 
Q 2772 3750 2511 3984 
Q 2250 4219 1831 4219 
Q 1534 4219 1204 4116 
Q 875 4013 500 3803 
L 500 4441 
Q 881 4594 1212 4672 
Q 1544 4750 1819 4750 
Q 2544 4750 2975 4387 
Q 3406 4025 3406 3419 
Q 3406 3131 3298 2873 
Q 3191 2616 2906 2266 
Q 2828 2175 2409 1742 
Q 1991 1309 1228 531 
z
" transform="scale(0.015625)"/>
       </defs>
       <use xlink:href="#DejaVuSans-32"/>
      </g>
     </g>
    </g>
    <g id="text_6">
     <!-- $y$ -->
     <g transform="translate(153.115006 12.0825) scale(0.16 -0.16)">
      <defs>
       <path id="Cmmi10-79" d="M 538 -916 
Q 672 -1147 1006 -1147 
Q 1309 -1147 1531 -934 
Q 1753 -722 1889 -420 
Q 2025 -119 2100 197 
Q 1816 -72 1484 -72 
Q 1231 -72 1053 15 
Q 875 103 776 276 
Q 678 450 678 697 
Q 678 906 734 1126 
Q 791 1347 892 1617 
Q 994 1888 1069 2088 
Q 1153 2322 1153 2472 
Q 1153 2663 1013 2663 
Q 759 2663 595 2402 
Q 431 2141 353 1819 
Q 341 1778 300 1778 
L 225 1778 
Q 172 1778 172 1838 
L 172 1856 
Q 275 2238 487 2533 
Q 700 2828 1025 2828 
Q 1253 2828 1411 2678 
Q 1569 2528 1569 2297 
Q 1569 2178 1516 2047 
Q 1488 1969 1388 1706 
Q 1288 1444 1234 1272 
Q 1181 1100 1147 934 
Q 1113 769 1113 603 
Q 1113 391 1203 244 
Q 1294 97 1491 97 
Q 1888 97 2203 581 
L 2688 2553 
Q 2709 2638 2787 2698 
Q 2866 2759 2956 2759 
Q 3034 2759 3092 2709 
Q 3150 2659 3150 2578 
Q 3150 2541 3144 2528 
L 2509 -19 
Q 2425 -347 2200 -647 
Q 1975 -947 1658 -1130 
Q 1341 -1313 997 -1313 
Q 831 -1313 668 -1248 
Q 506 -1184 406 -1056 
Q 306 -928 306 -756 
Q 306 -581 409 -453 
Q 513 -325 684 -325 
Q 788 -325 858 -389 
Q 928 -453 928 -556 
Q 928 -703 818 -812 
Q 709 -922 563 -922 
Q 556 -919 550 -917 
Q 544 -916 538 -916 
z
" transform="scale(0.015625)"/>
      </defs>
      <use xlink:href="#Cmmi10-79" transform="translate(0 0.8125)"/>
     </g>
    </g>
   </g>
   <g id="line2d_6">
    <path d="M 299.658918 171.675475 
L 299.483736 164.610675 
L 299.176956 159.963552 
L 298.613312 154.441896 
L 297.986085 149.901502 
L 297.210262 145.367945 
L 295.988836 139.537861 
L 294.649332 134.217819 
L 292.736855 127.795173 
L 290.087848 120.323843 
L 286.829506 112.574584 
L 283.856089 106.441552 
L 280.738874 100.711356 
L 278.688425 97.253231 
L 275.256174 91.916894 
L 270.325406 85.060394 
L 263.686067 77.010931 
L 258.925708 71.909009 
L 253.766719 66.903278 
L 250.594396 64.063345 
L 244.540129 59.089443 
L 239.260009 55.180989 
L 233.472846 51.30834 
L 227.907113 47.953026 
L 224.212344 45.910957 
L 217.455782 42.533082 
L 213.728071 40.856028 
L 206.477324 37.951399 
L 202.340474 36.496246 
L 196.357088 34.639619 
L 191.540802 33.351105 
L 184.840836 31.853999 
L 175.128195 30.274301 
L 166.605315 29.447837 
L 160.494525 29.17163 
L 155.241899 29.14387 
L 147.906765 29.429297 
L 138.277988 30.38169 
L 134.559868 30.927357 
L 129.410322 31.849807 
L 125.130229 32.766365 
L 118.036183 34.592972 
L 110.152707 37.089779 
L 105.270845 38.893888 
L 100.45906 40.874593 
L 92.184668 44.778595 
L 85.442866 48.460738 
L 80.628563 51.390018 
L 72.367134 57.060619 
L 68.107059 60.336568 
L 62.302362 65.236151 
L 58.383379 68.860919 
L 52.968118 74.350284 
L 47.061378 81.083168 
L 42.514457 86.908258 
L 38.906735 92.016379 
L 36.809687 95.220277 
L 33.519419 100.662112 
L 31.098394 105.052803 
L 28.202595 110.844913 
L 26.159237 115.378464 
L 24.337338 119.821278 
L 21.586391 127.50805 
L 19.722892 133.699509 
L 18.622783 137.931275 
L 17.39836 143.426126 
L 16.402096 148.90172 
L 15.844639 152.663625 
L 15.231311 157.972042 
L 14.754448 164.447853 
L 14.622713 167.839662 
L 14.597197 174.403291 
L 14.748532 178.785598 
L 14.993451 182.640444 
L 15.820526 190.507282 
L 17.032765 198.052221 
L 17.817195 201.922568 
L 19.790394 209.894813 
L 20.447097 212.180406 
L 21.954288 216.956236 
L 23.438041 221.165231 
L 25.310238 225.95503 
L 28.386439 232.894123 
L 31.624507 239.283918 
L 35.251873 245.622373 
L 38.740391 251.087171 
L 42.838165 256.878588 
L 45.791368 260.702518 
L 49.834504 265.535268 
L 53.934126 270.024206 
L 60.177586 276.183386 
L 63.517088 279.184528 
L 67.499726 282.526133 
L 71.892788 285.938069 
L 79.629655 291.319895 
L 86.867254 295.70781 
L 93.511921 299.242769 
L 97.687668 301.240741 
L 102.602154 303.383925 
L 111.242301 306.636438 
L 119.438334 309.149964 
L 123.412882 310.177943 
L 130.896411 311.787402 
L 135.096292 312.508507 
L 143.059684 313.524742 
L 149.480991 314.014818 
L 155.701068 314.212374 
L 160.82341 314.17114 
L 167.04892 313.872817 
L 173.930196 313.22411 
L 176.970597 312.829725 
L 182.281138 311.980259 
L 189.471996 310.498355 
L 196.003925 308.811972 
L 201.808626 307.031476 
L 207.37075 305.066355 
L 211.453109 303.456116 
L 217.311635 300.885121 
L 223.951005 297.579073 
L 229.140965 294.683718 
L 233.838471 291.809886 
L 237.862107 289.143226 
L 241.483415 286.569941 
L 246.304566 282.868951 
L 251.386525 278.594357 
L 257.227523 273.145917 
L 259.72033 270.624523 
L 263.07733 267.020913 
L 268.469869 260.663458 
L 271.566 256.644509 
L 276.037359 250.264537 
L 278.823261 245.877008 
L 282.677777 239.149598 
L 283.971301 236.685067 
L 287.057478 230.273433 
L 288.668288 226.561726 
L 290.173102 222.805796 
L 292.420419 216.522012 
L 295.141729 207.275901 
L 295.963312 203.923183 
L 297.411876 196.885693 
L 297.968558 193.56254 
L 298.670497 188.432848 
L 299.198394 183.124383 
L 299.50699 178.25495 
L 299.658918 171.675475 
L 299.658918 171.675475 
" clip-path="url(#p1a4636f95b)" style="fill: none; stroke: #000000; stroke-width: 3; stroke-linecap: square"/>
   </g>
   <g id="patch_3">
    <path d="M 157.115006 319.913744 
L 157.115006 23.4425 
" style="fill: none; stroke: #000000; stroke-width: 0.8; stroke-linejoin: miter; stroke-linecap: square"/>
   </g>
   <g id="patch_4">
    <path d="M 8.895962 314.219387 
L 305.360152 314.219387 
" style="fill: none; stroke: #000000; stroke-width: 0.8; stroke-linejoin: miter; stroke-linecap: square"/>
   </g>
  </g>
 </g>
 <defs>
  <clipPath id="p1a4636f95b">
   <rect x="8.895962" y="23.4425" width="296.46419" height="296.471244"/>
  </clipPath>
 </defs>
</svg>
