<?xml version="1.0" encoding="utf-8" standalone="no"?>
<!DOCTYPE svg PUBLIC "-//W3C//DTD SVG 1.1//EN"
  "http://www.w3.org/Graphics/SVG/1.1/DTD/svg11.dtd">
<svg xmlns:xlink="http://www.w3.org/1999/xlink" width="453.6pt" height="331.548705pt" viewBox="0 0 453.6 331.548705" xmlns="http://www.w3.org/2000/svg" version="1.1">
 <metadata>
  <rdf:RDF xmlns:dc="http://purl.org/dc/elements/1.1/" xmlns:cc="http://creativecommons.org/ns#" xmlns:rdf="http://www.w3.org/1999/02/22-rdf-syntax-ns#">
   <cc:Work>
    <dc:type rdf:resource="http://purl.org/dc/dcmitype/StillImage"/>
    <dc:date>2025-06-18T14:15:21.640699</dc:date>
    <dc:format>image/svg+xml</dc:format>
    <dc:creator>
     <cc:Agent>
      <dc:title>Matplotlib v3.10.3, https://matplotlib.org/</dc:title>
     </cc:Agent>
    </dc:creator>
   </cc:Work>
  </rdf:RDF>
 </metadata>
 <defs>
  <style type="text/css">*{stroke-linejoin: round; stroke-linecap: butt}</style>
 </defs>
 <g id="figure_1">
  <g id="patch_1">
   <path d="M 0 331.548705 
L 453.6 331.548705 
L 453.6 0 
L 0 0 
z
" style="fill: #ffffff"/>
  </g>
  <g id="axes_1">
   <g id="patch_2">
    <path d="M 7.2 324.348705 
L 446.4 324.348705 
L 446.4 7.2 
L 7.2 7.2 
z
" style="fill: #ffffff"/>
   </g>
   <g id="PathCollection_1">
    <path d="M 382.766836 159.451989 
C 383.493124 159.451989 384.189764 159.163432 384.703328 158.649868 
C 385.216891 158.136305 385.505449 157.439665 385.505449 156.713376 
C 385.505449 155.987088 385.216891 155.290448 384.703328 154.776885 
C 384.189764 154.263321 383.493124 153.974764 382.766836 153.974764 
C 382.040547 153.974764 381.343908 154.263321 380.830344 154.776885 
C 380.316781 155.290448 380.028223 155.987088 380.028223 156.713376 
C 380.028223 157.439665 380.316781 158.136305 380.830344 158.649868 
C 381.343908 159.163432 382.040547 159.451989 382.766836 159.451989 
z
" clip-path="url(#p23fc167c71)"/>
   </g>
   <g id="matplotlib.axis_1"/>
   <g id="matplotlib.axis_2"/>
   <g id="line2d_1">
    <path d="M 356.223914 202.577597 
L 357.059169 199.409338 
L 358.145066 196.263993 
L 359.280933 193.543682 
L 360.752907 190.501701 
L 363.097209 186.305277 
L 365.860791 181.935034 
L 369.553652 176.593603 
L 378.873811 163.390125 
L 381.149226 159.701393 
L 382.98305 156.276395 
L 384.062433 153.882527 
L 385.064148 151.109082 
L 385.664965 148.801076 
L 385.991878 146.821388 
L 386.13149 144.586974 
L 386.012437 142.400873 
L 385.730602 140.694116 
L 385.169461 138.675507 
L 384.248237 136.451649 
L 383.09772 134.39601 
L 381.658399 132.357786 
L 380.0846 130.509414 
L 378.150237 128.572264 
L 375.806653 126.548344 
L 373.339719 124.678822 
L 370.427445 122.71517 
L 366.636394 120.442778 
L 361.800065 117.876657 
L 356.662986 115.444746 
L 350.591047 112.854465 
L 344.407901 110.454044 
L 336.60901 107.684285 
L 328.071428 104.904118 
L 317.733222 101.804941 
L 307.153266 98.865313 
L 295.574489 95.854864 
L 280.536846 92.190868 
L 264.876001 88.596175 
L 243.828622 84.016654 
L 217.131959 78.469985 
L 143.217952 63.283051 
L 126.225226 59.502542 
L 112.856897 56.318173 
L 101.73583 53.446786 
L 93.259042 51.051648 
L 85.99166 48.782445 
L 82.544073 47.606038 
L 82.544073 47.606038 
" clip-path="url(#p23fc167c71)" style="fill: none; stroke: #000000; stroke-width: 2; stroke-linecap: square"/>
   </g>
   <g id="patch_3">
    <path d="M 382.766836 156.713376 
Q 410.360341 101.654018 436.951993 48.593732 
" clip-path="url(#p23fc167c71)" style="fill: none; stroke: #ff0000; stroke-width: 2; stroke-linecap: round"/>
    <path d="M 428.001506 55.293642 
L 436.951993 48.593732 
L 436.941629 59.774067 
z
" clip-path="url(#p23fc167c71)" style="fill: #ff0000; stroke: #ff0000; stroke-width: 2; stroke-linecap: round"/>
   </g>
   <g id="patch_4">
    <path d="M 382.766836 156.713376 
Q 327.707477 129.119871 274.647191 102.52822 
" clip-path="url(#p23fc167c71)" style="fill: none; stroke: #800080; stroke-width: 2; stroke-linecap: round"/>
    <path d="M 281.347101 111.478706 
L 274.647191 102.52822 
L 285.827526 102.538583 
z
" clip-path="url(#p23fc167c71)" style="fill: #800080; stroke: #800080; stroke-width: 2; stroke-linecap: round"/>
   </g>
   <g id="patch_5">
    <path d="M 382.766836 156.713376 
Q 342.289129 237.481534 302.813276 316.250619 
" clip-path="url(#p23fc167c71)" style="fill: none; stroke: #008000; stroke-width: 2; stroke-linecap: round"/>
    <path d="M 311.763762 309.550709 
L 302.813276 316.250619 
L 302.823639 305.070284 
z
" clip-path="url(#p23fc167c71)" style="fill: #008000; stroke: #008000; stroke-width: 2; stroke-linecap: round"/>
   </g>
   <g id="patch_6">
    <path d="M 382.766836 156.713376 
Q 239.684202 85.006195 98.60064 14.300867 
" clip-path="url(#p23fc167c71)" style="fill: none; stroke: #0000ff; stroke-width: 2; stroke-linecap: round"/>
    <path d="M 105.30055 23.251353 
L 98.60064 14.300867 
L 109.780975 14.311231 
z
" clip-path="url(#p23fc167c71)" style="fill: #0000ff; stroke: #0000ff; stroke-width: 2; stroke-linecap: round"/>
   </g>
   <g id="patch_7">
    <path d="M 382.766836 156.713376 
Q 199.206495 165.774352 17.879503 174.725085 
" clip-path="url(#p23fc167c71)" style="fill: none; stroke: #ffa500; stroke-width: 2; stroke-linecap: round"/>
    <path d="M 28.113853 179.225981 
L 17.879503 174.725085 
L 27.62083 169.238142 
z
" clip-path="url(#p23fc167c71)" style="fill: #ffa500; stroke: #ffa500; stroke-width: 2; stroke-linecap: round"/>
   </g>
  </g>
 </g>
 <defs>
  <clipPath id="p23fc167c71">
   <rect x="7.2" y="7.2" width="439.2" height="317.148705"/>
  </clipPath>
 </defs>
</svg>
