<?xml version="1.0" encoding="utf-8" standalone="no"?>
<!DOCTYPE svg PUBLIC "-//W3C//DTD SVG 1.1//EN"
  "http://www.w3.org/Graphics/SVG/1.1/DTD/svg11.dtd">
<svg xmlns:xlink="http://www.w3.org/1999/xlink" width="338.4pt" height="338.4pt" viewBox="0 0 338.4 338.4" xmlns="http://www.w3.org/2000/svg" version="1.1">
 <metadata>
  <rdf:RDF xmlns:dc="http://purl.org/dc/elements/1.1/" xmlns:cc="http://creativecommons.org/ns#" xmlns:rdf="http://www.w3.org/1999/02/22-rdf-syntax-ns#">
   <cc:Work>
    <dc:type rdf:resource="http://purl.org/dc/dcmitype/StillImage"/>
    <dc:date>2025-11-05T14:57:36.578004</dc:date>
    <dc:format>image/svg+xml</dc:format>
    <dc:creator>
     <cc:Agent>
      <dc:title>Matplotlib v3.10.3, https://matplotlib.org/</dc:title>
     </cc:Agent>
    </dc:creator>
   </cc:Work>
  </rdf:RDF>
 </metadata>
 <defs>
  <style type="text/css">*{stroke-linejoin: round; stroke-linecap: butt}</style>
 </defs>
 <g id="figure_1">
  <g id="patch_1">
   <path d="M -0 338.4 
L 338.4 338.4 
L 338.4 0 
L -0 0 
z
" style="fill: #ffffff"/>
  </g>
  <g id="axes_1">
   <g id="patch_2">
    <path d="M 7.2 331.2 
L 331.2 331.2 
L 331.2 7.2 
L 7.2 7.2 
z
" style="fill: #ffffff"/>
   </g>
   <g id="patch_3">
    <path d="M 193.33247 175.873631 
L 190.758 180.592396 
L 188.533602 185.779414 
L 186.588425 191.379874 
L 184.847081 197.33415 
L 183.23258 203.577802 
L 181.669238 210.041807 
L 180.085405 216.653112 
L 178.415893 223.335551 
L 176.603979 230.011139 
L 174.602869 236.601692 
L 172.37658 243.030705 
L 169.900184 249.225367 
L 167.15946 255.118598 
L 164.149994 260.650959 
L 160.875843 265.772345 
L 157.347886 270.443335 
L 153.582023 274.636162 
L 149.597354 278.335258 
L 145.414506 281.537367 
L 141.054207 284.251274 
L 136.536199 286.497165 
L 131.878555 288.3057 
L 127.09738 289.716821 
L 122.206906 290.778383 
L 117.219889 291.544619 
L 117.219889 291.544619 
L 116.110044 288.276552 
L 114.897324 285.045248 
L 113.582944 281.853943 
L 112.168221 278.705836 
L 110.654573 275.604081 
L 109.043516 272.551784 
L 107.336665 269.552005 
L 105.535728 266.607749 
L 103.642512 263.721965 
L 101.658912 260.897545 
L 99.586916 258.137318 
L 97.428599 255.444051 
L 95.186126 252.820441 
L 92.861741 250.269118 
L 90.457773 247.792636 
L 87.976633 245.393479 
L 85.420804 243.074048 
L 82.792849 240.836668 
L 80.095399 238.683582 
L 77.331158 236.616945 
L 74.502895 234.638828 
L 71.613443 232.751214 
L 68.665698 230.955994 
L 65.662613 229.254965 
L 62.607196 227.649833 
L 62.607196 227.649833 
L 65.035371 223.292158 
L 67.392774 218.898816 
L 69.668231 214.463845 
L 71.85079 209.981632 
L 73.929769 205.446995 
L 75.894812 200.855263 
L 77.735943 196.202345 
L 79.443625 191.484795 
L 81.008821 186.699867 
L 82.423057 181.84556 
L 83.678487 176.920648 
L 84.767962 171.924707 
L 85.6851 166.858123 
L 86.424351 161.722087 
L 86.981074 156.518584 
L 87.351602 151.25036 
L 87.533306 145.920886 
L 87.524663 140.534299 
L 87.325308 135.095345 
L 86.93609 129.609302 
L 86.359116 124.081895 
L 85.597784 118.519208 
L 84.656812 112.927589 
L 83.54225 107.313545 
L 82.261489 101.683647 
L 82.261489 101.683647 
L 87.420439 103.339701 
L 92.539602 105.114933 
L 97.616226 107.008389 
L 102.647579 109.01905 
L 107.630958 111.145836 
L 112.563682 113.387602 
L 117.443098 115.743144 
L 122.266583 118.211195 
L 127.031543 120.790427 
L 131.735416 123.479453 
L 136.375672 126.276828 
L 140.949815 129.181048 
L 145.455387 132.190549 
L 149.889965 135.303715 
L 154.251163 138.518872 
L 158.536637 141.834289 
L 162.744083 145.248185 
L 166.871237 148.758724 
L 170.91588 152.364017 
L 174.875838 156.062127 
L 178.74898 159.851064 
L 182.533225 163.728792 
L 186.226538 167.693224 
L 189.826931 171.74223 
z
" clip-path="url(#pbb652d4ed9)" style="fill: #add8e6; stroke: #000000; stroke-linejoin: miter"/>
   </g>
   <g id="matplotlib.axis_1"/>
   <g id="matplotlib.axis_2"/>
   <g id="line2d_1">
    <path d="M 137.299362 286.154172 
L 135.570821 281.016475 
L 133.629477 275.955889 
L 131.5235 271.07912 
L 129.099543 266.055975 
L 126.660073 261.493552 
L 123.763196 256.582152 
L 120.8993 252.164341 
L 117.7965 247.782242 
L 114.426291 243.422057 
L 110.799078 239.123734 
L 107.199936 235.206318 
L 103.193566 231.199954 
L 99.375924 227.688876 
L 95.031673 224.017116 
L 90.89207 220.806935 
L 86.715211 217.82714 
L 81.929226 214.705917 
L 77.413265 212.02554 
L 72.564471 209.413001 
L 72.204764 209.229633 
L 72.204764 209.229633 
" clip-path="url(#pbb652d4ed9)" style="fill: none; stroke-dasharray: 7.4,3.2; stroke-dashoffset: 0; stroke: #808080; stroke-width: 2"/>
   </g>
   <g id="line2d_2">
    <path d="M 154.862613 273.292897 
L 152.773436 267.898828 
L 150.442944 262.510654 
L 147.980694 257.36947 
L 145.379899 252.423818 
L 142.475253 247.374572 
L 139.255922 242.256228 
L 136.009751 237.517513 
L 132.520672 232.822582 
L 128.988448 228.42995 
L 125.305864 224.185438 
L 121.417455 220.029793 
L 117.1823 215.84073 
L 113.14474 212.139563 
L 108.781542 208.428937 
L 104.152783 204.790506 
L 99.411248 201.353831 
L 94.599979 198.142699 
L 89.549721 195.048813 
L 84.75198 192.354395 
L 79.981619 189.89742 
L 79.981619 189.89742 
" clip-path="url(#pbb652d4ed9)" style="fill: none; stroke-dasharray: 7.4,3.2; stroke-dashoffset: 0; stroke: #808080; stroke-width: 2"/>
   </g>
   <g id="line2d_3">
    <path d="M 168.563355 252.213577 
L 165.920137 246.825152 
L 162.978113 241.332538 
L 159.777864 235.85115 
L 156.63629 230.885846 
L 152.91336 225.449829 
L 149.049532 220.24552 
L 145.199715 215.440927 
L 141.056972 210.640508 
L 136.776046 206.034597 
L 132.500236 201.754108 
L 127.640796 197.236798 
L 122.924326 193.17141 
L 118.101926 189.309902 
L 112.937908 185.477891 
L 107.84919 181.984385 
L 102.794151 178.771794 
L 97.280457 175.541207 
L 91.735723 172.562411 
L 86.373313 169.924432 
L 85.24844 169.40019 
L 85.24844 169.40019 
" clip-path="url(#pbb652d4ed9)" style="fill: none; stroke-dasharray: 7.4,3.2; stroke-dashoffset: 0; stroke: #808080; stroke-width: 2"/>
   </g>
   <g id="line2d_4">
    <path d="M 177.83027 225.565383 
L 174.382899 220.075318 
L 170.496132 214.340154 
L 166.519801 208.899987 
L 162.760519 204.101754 
L 158.52747 199.051525 
L 154.069289 194.090937 
L 149.840805 189.689435 
L 145.403237 185.35695 
L 140.546951 180.921332 
L 135.503632 176.623226 
L 130.283822 172.477641 
L 124.784145 168.416535 
L 119.356661 164.694384 
L 113.606558 161.038964 
L 107.99157 157.737129 
L 101.958527 154.466571 
L 95.801466 151.408321 
L 89.744044 148.660964 
L 87.493836 147.70394 
L 87.493836 147.70394 
" clip-path="url(#pbb652d4ed9)" style="fill: none; stroke-dasharray: 7.4,3.2; stroke-dashoffset: 0; stroke: #808080; stroke-width: 2"/>
   </g>
   <g id="line2d_5">
    <path d="M 184.571264 198.356473 
L 180.385766 192.886345 
L 175.806441 187.295701 
L 171.12723 181.95984 
L 166.378717 176.892276 
L 161.341266 171.860301 
L 156.077111 166.944294 
L 150.843638 162.372912 
L 145.716872 158.175207 
L 140.19433 153.940405 
L 134.490068 149.856394 
L 129.011623 146.193042 
L 123.20707 142.57125 
L 116.994233 138.973348 
L 110.625127 135.567234 
L 104.236657 132.422743 
L 98.147405 129.667026 
L 91.518245 126.923262 
L 86.468189 125.005747 
L 86.468189 125.005747 
" clip-path="url(#pbb652d4ed9)" style="fill: none; stroke-dasharray: 7.4,3.2; stroke-dashoffset: 0; stroke: #808080; stroke-width: 2"/>
   </g>
   <g id="line2d_6">
    <path d="M 122.461951 323.709261 
L 122.318608 319.239944 
L 121.91158 313.95561 
L 121.334583 309.279962 
L 120.612631 304.933399 
L 119.495715 299.678652 
L 118.392216 295.431444 
L 116.769874 290.178205 
L 115.151927 285.698478 
L 113.168418 280.903513 
L 110.909186 276.108773 
L 108.739018 272.000146 
L 106.098897 267.506163 
L 103.226437 263.113559 
L 100.406209 259.207091 
L 97.142646 255.100012 
L 93.611082 251.074011 
L 90.400371 247.735388 
L 86.709584 244.225182 
L 82.540822 240.629521 
L 78.828819 237.719696 
L 75.219666 235.127601 
L 71.078746 232.41602 
L 66.59468 229.769521 
L 62.53559 227.613683 
L 57.769857 225.35281 
L 53.907267 223.721815 
L 48.835968 221.838935 
L 44.606099 220.482462 
L 39.777164 219.161606 
L 34.761207 218.037484 
L 31.650956 217.463831 
L 31.650956 217.463831 
" clip-path="url(#pbb652d4ed9)" style="fill: none; stroke-dasharray: 7.4,3.2; stroke-dashoffset: 0; stroke: #808080; stroke-width: 2"/>
   </g>
   <g id="line2d_7">
    <path d="M 229.358191 235.697352 
L 226.192562 228.395221 
L 222.816558 221.278771 
L 219.618826 215.057424 
L 216.718546 209.78156 
L 212.897314 203.28432 
L 209.729701 198.237825 
L 205.720145 192.232966 
L 201.470168 186.277831 
L 197.743686 181.362585 
L 193.321839 175.860805 
L 188.011986 169.677509 
L 182.942472 164.159087 
L 177.257554 158.371198 
L 171.753949 153.132417 
L 166.929237 148.809246 
L 161.959664 144.599369 
L 155.745217 139.656744 
L 149.893254 135.306082 
L 143.12182 130.612983 
L 136.954154 126.635942 
L 131.082561 123.097549 
L 125.441632 119.913905 
L 119.346096 116.700022 
L 113.708025 113.927548 
L 106.970322 110.856009 
L 101.114688 108.392108 
L 94.521012 105.838009 
L 87.829162 103.476569 
L 81.828121 101.550516 
L 74.904159 99.547089 
L 67.237794 97.595257 
L 59.476276 95.89734 
L 52.92549 94.677488 
L 45.105354 93.472275 
L 37.648211 92.573802 
L 31.748436 92.034513 
L 24.961109 91.600057 
L 16.986295 91.342439 
L 13.201865 91.315497 
L 13.201865 91.315497 
" clip-path="url(#pbb652d4ed9)" style="fill: none; stroke-dasharray: 7.4,3.2; stroke-dashoffset: 0; stroke: #808080; stroke-width: 2"/>
   </g>
   <g id="patch_4">
    <path d="M 13.430769 331.2 
L 13.430769 7.2 
" style="fill: none; stroke: #000000; stroke-width: 0.8; stroke-linejoin: miter; stroke-linecap: square"/>
   </g>
   <g id="patch_5">
    <path d="M 7.2 324.969231 
L 331.2 324.969231 
" style="fill: none; stroke: #000000; stroke-width: 0.8; stroke-linejoin: miter; stroke-linecap: square"/>
   </g>
   <g id="text_1">
    <!-- $r=c$ -->
    <g style="fill: #808080" transform="translate(60.588462 266.800601) scale(0.15 -0.15)">
     <defs>
      <path id="Cmmi10-72" d="M 494 109 
Q 494 147 500 166 
L 978 2075 
Q 1025 2253 1025 2388 
Q 1025 2663 838 2663 
Q 638 2663 541 2423 
Q 444 2184 353 1819 
Q 353 1800 334 1789 
Q 316 1778 300 1778 
L 225 1778 
Q 203 1778 187 1801 
Q 172 1825 172 1844 
Q 241 2122 305 2315 
Q 369 2509 505 2668 
Q 641 2828 844 2828 
Q 1066 2828 1233 2700 
Q 1400 2572 1441 2363 
Q 1603 2575 1811 2701 
Q 2019 2828 2266 2828 
Q 2469 2828 2623 2709 
Q 2778 2591 2778 2388 
Q 2778 2225 2676 2104 
Q 2575 1984 2406 1984 
Q 2303 1984 2233 2048 
Q 2163 2113 2163 2216 
Q 2163 2356 2266 2467 
Q 2369 2578 2503 2578 
Q 2400 2663 2253 2663 
Q 1978 2663 1775 2467 
Q 1572 2272 1409 1972 
L 953 141 
Q 931 53 854 -9 
Q 778 -72 684 -72 
Q 606 -72 550 -22 
Q 494 28 494 109 
z
" transform="scale(0.015625)"/>
      <path id="Cmr10-3d" d="M 481 850 
Q 428 850 393 890 
Q 359 931 359 978 
Q 359 1031 393 1068 
Q 428 1106 481 1106 
L 4500 1106 
Q 4547 1106 4581 1068 
Q 4616 1031 4616 978 
Q 4616 931 4581 890 
Q 4547 850 4500 850 
L 481 850 
z
M 481 2094 
Q 428 2094 393 2131 
Q 359 2169 359 2222 
Q 359 2269 393 2309 
Q 428 2350 481 2350 
L 4500 2350 
Q 4547 2350 4581 2309 
Q 4616 2269 4616 2222 
Q 4616 2169 4581 2131 
Q 4547 2094 4500 2094 
L 481 2094 
z
" transform="scale(0.015625)"/>
      <path id="Cmmi10-63" d="M 750 763 
Q 750 484 892 290 
Q 1034 97 1300 97 
Q 1681 97 2032 272 
Q 2384 447 2606 756 
Q 2625 775 2656 775 
Q 2688 775 2720 739 
Q 2753 703 2753 672 
Q 2753 647 2741 634 
Q 2506 306 2109 117 
Q 1713 -72 1288 -72 
Q 981 -72 747 73 
Q 513 219 384 462 
Q 256 706 256 1013 
Q 256 1444 497 1869 
Q 738 2294 1138 2561 
Q 1538 2828 1978 2828 
Q 2266 2828 2495 2689 
Q 2725 2550 2725 2278 
Q 2725 2103 2623 1979 
Q 2522 1856 2350 1856 
Q 2247 1856 2176 1920 
Q 2106 1984 2106 2088 
Q 2106 2238 2215 2344 
Q 2325 2450 2472 2450 
L 2484 2450 
Q 2409 2559 2267 2611 
Q 2125 2663 1972 2663 
Q 1597 2663 1315 2342 
Q 1034 2022 892 1576 
Q 750 1131 750 763 
z
" transform="scale(0.015625)"/>
     </defs>
     <use xlink:href="#Cmmi10-72" transform="translate(0 0.8125)"/>
     <use xlink:href="#Cmr10-3d" transform="translate(62.675781 0.8125)"/>
     <use xlink:href="#Cmmi10-63" transform="translate(157.919922 0.8125)"/>
    </g>
   </g>
   <g id="text_2">
    <!-- $r=d$ -->
    <g style="fill: #808080" transform="translate(145.661538 126.608293) scale(0.15 -0.15)">
     <defs>
      <path id="Cmmi10-64" d="M 1113 -72 
Q 709 -72 476 233 
Q 244 538 244 953 
Q 244 1363 456 1803 
Q 669 2244 1030 2536 
Q 1391 2828 1806 2828 
Q 1994 2828 2145 2723 
Q 2297 2619 2381 2444 
L 2741 3872 
Q 2766 3981 2772 4044 
Q 2772 4147 2356 4147 
Q 2291 4147 2291 4231 
Q 2294 4247 2305 4287 
Q 2316 4328 2333 4350 
Q 2350 4372 2381 4372 
L 3244 4441 
Q 3322 4441 3322 4359 
L 2400 678 
Q 2356 572 2356 372 
Q 2356 97 2541 97 
Q 2741 97 2845 351 
Q 2950 606 3022 941 
Q 3034 978 3072 978 
L 3150 978 
Q 3175 978 3190 956 
Q 3206 934 3206 916 
Q 3094 469 2961 198 
Q 2828 -72 2528 -72 
Q 2313 -72 2147 54 
Q 1981 181 1941 391 
Q 1528 -72 1113 -72 
z
M 1119 97 
Q 1350 97 1567 270 
Q 1784 444 1941 678 
Q 1947 684 1947 703 
L 2297 2113 
Q 2259 2338 2131 2500 
Q 2003 2663 1791 2663 
Q 1575 2663 1389 2486 
Q 1203 2309 1075 2069 
Q 950 1813 836 1366 
Q 722 919 722 672 
Q 722 450 817 273 
Q 913 97 1119 97 
z
" transform="scale(0.015625)"/>
     </defs>
     <use xlink:href="#Cmmi10-72" transform="translate(0 0.609375)"/>
     <use xlink:href="#Cmr10-3d" transform="translate(62.675781 0.609375)"/>
     <use xlink:href="#Cmmi10-64" transform="translate(157.919922 0.609375)"/>
    </g>
   </g>
   <g id="text_3">
    <!-- $\theta=h_1(r)$ -->
    <g style="fill: #0000ff" transform="translate(162.153846 283.238462) scale(0.2 -0.2)">
     <defs>
      <path id="Cmmi10-b5" d="M 1031 -72 
Q 741 -72 566 140 
Q 391 353 323 653 
Q 256 953 256 1247 
L 256 1253 
Q 256 1572 317 1915 
Q 378 2259 493 2601 
Q 609 2944 744 3213 
Q 838 3400 986 3631 
Q 1134 3863 1317 4064 
Q 1500 4266 1711 4389 
Q 1922 4513 2138 4513 
L 2144 4513 
Q 2375 4513 2529 4384 
Q 2684 4256 2770 4056 
Q 2856 3856 2890 3628 
Q 2925 3400 2925 3194 
Q 2925 2709 2794 2204 
Q 2663 1700 2431 1228 
Q 2344 1050 2189 809 
Q 2034 569 1861 378 
Q 1688 188 1472 58 
Q 1256 -72 1038 -72 
L 1031 -72 
z
M 1044 97 
Q 1256 97 1451 323 
Q 1647 550 1794 873 
Q 1941 1197 2052 1536 
Q 2163 1875 2216 2113 
L 909 2113 
Q 809 1709 753 1417 
Q 697 1125 697 844 
Q 697 97 1044 97 
z
M 959 2338 
L 2272 2338 
Q 2341 2619 2381 2808 
Q 2422 2997 2450 3206 
Q 2478 3416 2478 3597 
Q 2478 4347 2138 4347 
Q 1731 4347 1436 3692 
Q 1141 3038 959 2338 
z
" transform="scale(0.015625)"/>
      <path id="Cmmi10-68" d="M 341 116 
Q 341 153 347 172 
L 1275 3872 
Q 1300 3981 1306 4044 
Q 1306 4147 891 4147 
Q 825 4147 825 4231 
Q 828 4247 839 4287 
Q 850 4328 867 4350 
Q 884 4372 916 4372 
L 1778 4441 
L 1797 4441 
Q 1797 4434 1819 4423 
Q 1841 4413 1844 4409 
Q 1856 4378 1856 4359 
L 1356 2363 
Q 1750 2828 2291 2828 
Q 2516 2828 2680 2750 
Q 2844 2672 2936 2514 
Q 3028 2356 3028 2138 
Q 3028 1875 2911 1503 
Q 2794 1131 2619 672 
Q 2528 463 2528 288 
Q 2528 97 2675 97 
Q 2925 97 3092 364 
Q 3259 631 3328 941 
Q 3341 978 3378 978 
L 3456 978 
Q 3481 978 3497 961 
Q 3513 944 3513 922 
Q 3513 916 3506 903 
Q 3450 672 3339 448 
Q 3228 225 3059 76 
Q 2891 -72 2663 -72 
Q 2438 -72 2278 83 
Q 2119 238 2119 459 
Q 2119 578 2169 709 
Q 2350 1191 2470 1569 
Q 2591 1947 2591 2234 
Q 2591 2419 2519 2541 
Q 2447 2663 2278 2663 
Q 1934 2663 1678 2452 
Q 1422 2241 1234 1894 
L 800 147 
Q 775 50 703 -11 
Q 631 -72 538 -72 
Q 456 -72 398 -17 
Q 341 38 341 116 
z
" transform="scale(0.015625)"/>
      <path id="Cmr10-31" d="M 594 0 
L 594 225 
Q 1394 225 1394 428 
L 1394 3788 
Q 1063 3628 556 3628 
L 556 3853 
Q 1341 3853 1741 4263 
L 1831 4263 
Q 1853 4263 1873 4245 
Q 1894 4228 1894 4206 
L 1894 428 
Q 1894 225 2694 225 
L 2694 0 
L 594 0 
z
" transform="scale(0.015625)"/>
      <path id="Cmr10-28" d="M 1984 -1588 
Q 1628 -1306 1370 -942 
Q 1113 -578 948 -165 
Q 784 247 703 697 
Q 622 1147 622 1600 
Q 622 2059 703 2509 
Q 784 2959 951 3375 
Q 1119 3791 1378 4153 
Q 1638 4516 1984 4788 
Q 1984 4800 2016 4800 
L 2075 4800 
Q 2094 4800 2109 4783 
Q 2125 4766 2125 4744 
Q 2125 4716 2113 4703 
Q 1800 4397 1592 4047 
Q 1384 3697 1257 3301 
Q 1131 2906 1075 2482 
Q 1019 2059 1019 1600 
Q 1019 -434 2106 -1491 
Q 2125 -1509 2125 -1544 
Q 2125 -1559 2108 -1579 
Q 2091 -1600 2075 -1600 
L 2016 -1600 
Q 1984 -1600 1984 -1588 
z
" transform="scale(0.015625)"/>
      <path id="Cmr10-29" d="M 416 -1600 
Q 359 -1600 359 -1544 
Q 359 -1516 372 -1503 
Q 1466 -434 1466 1600 
Q 1466 3634 384 4691 
Q 359 4706 359 4744 
Q 359 4766 376 4783 
Q 394 4800 416 4800 
L 475 4800 
Q 494 4800 506 4788 
Q 966 4425 1272 3906 
Q 1578 3388 1720 2800 
Q 1863 2213 1863 1600 
Q 1863 1147 1786 708 
Q 1709 269 1542 -157 
Q 1375 -584 1119 -945 
Q 863 -1306 506 -1588 
Q 494 -1600 475 -1600 
L 416 -1600 
z
" transform="scale(0.015625)"/>
     </defs>
     <use xlink:href="#Cmmi10-b5"/>
     <use xlink:href="#Cmr10-3d" transform="translate(64.482422 0)"/>
     <use xlink:href="#Cmmi10-68" transform="translate(159.726562 0)"/>
     <use xlink:href="#Cmr10-31" transform="translate(217.34375 -17.00625) scale(0.7)"/>
     <use xlink:href="#Cmr10-28" transform="translate(258.721094 0)"/>
     <use xlink:href="#Cmmi10-72" transform="translate(297.539453 0)"/>
     <use xlink:href="#Cmr10-29" transform="translate(342.656641 0)"/>
    </g>
   </g>
   <g id="text_4">
    <!-- $\theta=h_2(r)$ -->
    <g style="fill: #ff0000" transform="translate(53.115385 88.526923) scale(0.2 -0.2)">
     <defs>
      <path id="Cmr10-32" d="M 319 0 
L 319 172 
Q 319 188 331 206 
L 1325 1306 
Q 1550 1550 1690 1715 
Q 1831 1881 1968 2097 
Q 2106 2313 2186 2536 
Q 2266 2759 2266 3009 
Q 2266 3272 2169 3511 
Q 2072 3750 1880 3894 
Q 1688 4038 1416 4038 
Q 1138 4038 916 3870 
Q 694 3703 603 3438 
Q 628 3444 672 3444 
Q 816 3444 917 3347 
Q 1019 3250 1019 3097 
Q 1019 2950 917 2848 
Q 816 2747 672 2747 
Q 522 2747 420 2851 
Q 319 2956 319 3097 
Q 319 3338 409 3548 
Q 500 3759 670 3923 
Q 841 4088 1055 4175 
Q 1269 4263 1509 4263 
Q 1875 4263 2190 4108 
Q 2506 3953 2690 3670 
Q 2875 3388 2875 3009 
Q 2875 2731 2753 2481 
Q 2631 2231 2440 2026 
Q 2250 1822 1953 1562 
Q 1656 1303 1563 1216 
L 838 519 
L 1453 519 
Q 1906 519 2211 526 
Q 2516 534 2534 550 
Q 2609 631 2688 1141 
L 2875 1141 
L 2694 0 
L 319 0 
z
" transform="scale(0.015625)"/>
     </defs>
     <use xlink:href="#Cmmi10-b5"/>
     <use xlink:href="#Cmr10-3d" transform="translate(64.482422 0)"/>
     <use xlink:href="#Cmmi10-68" transform="translate(159.726562 0)"/>
     <use xlink:href="#Cmr10-32" transform="translate(217.34375 -17.00625) scale(0.7)"/>
     <use xlink:href="#Cmr10-28" transform="translate(258.721094 0)"/>
     <use xlink:href="#Cmmi10-72" transform="translate(297.539453 0)"/>
     <use xlink:href="#Cmr10-29" transform="translate(342.656641 0)"/>
    </g>
   </g>
   <g id="line2d_8">
    <path d="M 62.607196 227.649833 
L 66.619948 220.359312 
L 69.850029 214.099792 
L 72.93429 207.654832 
L 75.625567 201.505 
L 78.040019 195.394023 
L 80.153102 189.379597 
L 81.747999 184.237928 
L 83.344185 178.303602 
L 84.521291 173.133501 
L 85.539916 167.734325 
L 86.379012 162.079807 
L 87.001359 156.287633 
L 87.376119 150.764964 
L 87.545455 144.992741 
L 87.478826 138.708817 
L 87.171934 132.608688 
L 86.596521 126.151996 
L 85.775397 119.708157 
L 84.781225 113.612116 
L 83.447816 106.873013 
L 82.261489 101.683647 
L 82.261489 101.683647 
" clip-path="url(#pbb652d4ed9)" style="fill: none; stroke: #ff0000; stroke-width: 3; stroke-linecap: square"/>
   </g>
   <g id="line2d_9">
    <path d="M 117.219889 291.544619 
L 122.003932 290.815274 
L 126.304662 289.912981 
L 129.938586 288.927887 
L 133.520434 287.721312 
L 136.701312 286.424142 
L 139.620898 285.021581 
L 142.776563 283.248647 
L 145.851819 281.231805 
L 149.026551 278.81065 
L 151.681965 276.486379 
L 154.62727 273.545849 
L 157.149343 270.683481 
L 159.694671 267.425487 
L 162.032821 264.057578 
L 164.255993 260.470571 
L 166.604239 256.207075 
L 168.925769 251.425881 
L 171.064164 246.427705 
L 173.014792 241.277756 
L 174.967732 235.460135 
L 176.908171 228.937258 
L 179.080204 220.729151 
L 181.955942 208.840998 
L 184.375525 199.094056 
L 186.022546 193.216922 
L 187.660217 188.160454 
L 188.973192 184.658712 
L 190.455315 181.230987 
L 191.868355 178.409455 
L 193.33247 175.873631 
L 193.33247 175.873631 
" clip-path="url(#pbb652d4ed9)" style="fill: none; stroke: #0000ff; stroke-width: 3; stroke-linecap: square"/>
   </g>
  </g>
 </g>
 <defs>
  <clipPath id="pbb652d4ed9">
   <rect x="7.2" y="7.2" width="324" height="324"/>
  </clipPath>
 </defs>
</svg>
