<?xml version="1.0" encoding="utf-8" standalone="no"?>
<!DOCTYPE svg PUBLIC "-//W3C//DTD SVG 1.1//EN"
  "http://www.w3.org/Graphics/SVG/1.1/DTD/svg11.dtd">
<svg xmlns:xlink="http://www.w3.org/1999/xlink" width="336.436372pt" height="338.080038pt" viewBox="0 0 336.436372 338.080038" xmlns="http://www.w3.org/2000/svg" version="1.1">
 <metadata>
  <rdf:RDF xmlns:dc="http://purl.org/dc/elements/1.1/" xmlns:cc="http://creativecommons.org/ns#" xmlns:rdf="http://www.w3.org/1999/02/22-rdf-syntax-ns#">
   <cc:Work>
    <dc:type rdf:resource="http://purl.org/dc/dcmitype/StillImage"/>
    <dc:date>2025-10-29T15:21:54.260652</dc:date>
    <dc:format>image/svg+xml</dc:format>
    <dc:creator>
     <cc:Agent>
      <dc:title>Matplotlib v3.10.5, https://matplotlib.org/</dc:title>
     </cc:Agent>
    </dc:creator>
   </cc:Work>
  </rdf:RDF>
 </metadata>
 <defs>
  <style type="text/css">*{stroke-linejoin: round; stroke-linecap: butt}</style>
 </defs>
 <g id="figure_1">
  <g id="patch_1">
   <path d="M 0 338.080038 
L 336.436372 338.080038 
L 336.436372 0 
L 0 0 
z
" style="fill: #ffffff"/>
  </g>
  <g id="axes_1">
   <g id="patch_2">
    <path d="M 8.658833 330.880038 
L 316.096372 330.880038 
L 316.096372 23.4425 
L 8.658833 23.4425 
z
" style="fill: #ffffff"/>
   </g>
   <g id="PathCollection_1">
    <path d="M 162.377603 177.161269 
C 162.377603 177.161269 162.377603 177.161269 162.377603 177.161269 
C 162.377603 177.161269 162.377603 177.161269 162.377603 177.161269 
C 162.377603 177.161269 162.377603 177.161269 162.377603 177.161269 
C 162.377603 177.161269 162.377603 177.161269 162.377603 177.161269 
C 162.377603 177.161269 162.377603 177.161269 162.377603 177.161269 
C 162.377603 177.161269 162.377603 177.161269 162.377603 177.161269 
C 162.377603 177.161269 162.377603 177.161269 162.377603 177.161269 
C 162.377603 177.161269 162.377603 177.161269 162.377603 177.161269 
z
" clip-path="url(#p8c90737fcc)"/>
   </g>
   <g id="matplotlib.axis_1">
    <g id="xtick_1">
     <g id="line2d_1">
      <defs>
       <path id="ma1f9a03d9a" d="M 0 0 
L 0 3.5 
" style="stroke: #000000; stroke-width: 0.8"/>
      </defs>
      <g>
       <use xlink:href="#ma1f9a03d9a" x="14.571094" y="177.161269" style="stroke: #000000; stroke-width: 0.8"/>
      </g>
     </g>
     <g id="text_1">
      <!-- −4 -->
      <g transform="translate(7.2 191.759707) scale(0.1 -0.1)">
       <defs>
        <path id="DejaVuSans-2212" d="M 678 2272 
L 4684 2272 
L 4684 1741 
L 678 1741 
L 678 2272 
z
" transform="scale(0.015625)"/>
        <path id="DejaVuSans-34" d="M 2419 4116 
L 825 1625 
L 2419 1625 
L 2419 4116 
z
M 2253 4666 
L 3047 4666 
L 3047 1625 
L 3713 1625 
L 3713 1100 
L 3047 1100 
L 3047 0 
L 2419 0 
L 2419 1100 
L 313 1100 
L 313 1709 
L 2253 4666 
z
" transform="scale(0.015625)"/>
       </defs>
       <use xlink:href="#DejaVuSans-2212"/>
       <use xlink:href="#DejaVuSans-34" transform="translate(83.789062 0)"/>
      </g>
     </g>
    </g>
    <g id="xtick_2">
     <g id="line2d_2">
      <g>
       <use xlink:href="#ma1f9a03d9a" x="51.522721" y="177.161269" style="stroke: #000000; stroke-width: 0.8"/>
      </g>
     </g>
     <g id="text_2">
      <!-- −3 -->
      <g transform="translate(44.151627 191.759707) scale(0.1 -0.1)">
       <defs>
        <path id="DejaVuSans-33" d="M 2597 2516 
Q 3050 2419 3304 2112 
Q 3559 1806 3559 1356 
Q 3559 666 3084 287 
Q 2609 -91 1734 -91 
Q 1441 -91 1130 -33 
Q 819 25 488 141 
L 488 750 
Q 750 597 1062 519 
Q 1375 441 1716 441 
Q 2309 441 2620 675 
Q 2931 909 2931 1356 
Q 2931 1769 2642 2001 
Q 2353 2234 1838 2234 
L 1294 2234 
L 1294 2753 
L 1863 2753 
Q 2328 2753 2575 2939 
Q 2822 3125 2822 3475 
Q 2822 3834 2567 4026 
Q 2313 4219 1838 4219 
Q 1578 4219 1281 4162 
Q 984 4106 628 3988 
L 628 4550 
Q 988 4650 1302 4700 
Q 1616 4750 1894 4750 
Q 2613 4750 3031 4423 
Q 3450 4097 3450 3541 
Q 3450 3153 3228 2886 
Q 3006 2619 2597 2516 
z
" transform="scale(0.015625)"/>
       </defs>
       <use xlink:href="#DejaVuSans-2212"/>
       <use xlink:href="#DejaVuSans-33" transform="translate(83.789062 0)"/>
      </g>
     </g>
    </g>
    <g id="xtick_3">
     <g id="line2d_3">
      <g>
       <use xlink:href="#ma1f9a03d9a" x="88.474348" y="177.161269" style="stroke: #000000; stroke-width: 0.8"/>
      </g>
     </g>
     <g id="text_3">
      <!-- −2 -->
      <g transform="translate(81.103254 191.759707) scale(0.1 -0.1)">
       <defs>
        <path id="DejaVuSans-32" d="M 1228 531 
L 3431 531 
L 3431 0 
L 469 0 
L 469 531 
Q 828 903 1448 1529 
Q 2069 2156 2228 2338 
Q 2531 2678 2651 2914 
Q 2772 3150 2772 3378 
Q 2772 3750 2511 3984 
Q 2250 4219 1831 4219 
Q 1534 4219 1204 4116 
Q 875 4013 500 3803 
L 500 4441 
Q 881 4594 1212 4672 
Q 1544 4750 1819 4750 
Q 2544 4750 2975 4387 
Q 3406 4025 3406 3419 
Q 3406 3131 3298 2873 
Q 3191 2616 2906 2266 
Q 2828 2175 2409 1742 
Q 1991 1309 1228 531 
z
" transform="scale(0.015625)"/>
       </defs>
       <use xlink:href="#DejaVuSans-2212"/>
       <use xlink:href="#DejaVuSans-32" transform="translate(83.789062 0)"/>
      </g>
     </g>
    </g>
    <g id="xtick_4">
     <g id="line2d_4">
      <g>
       <use xlink:href="#ma1f9a03d9a" x="125.425975" y="177.161269" style="stroke: #000000; stroke-width: 0.8"/>
      </g>
     </g>
     <g id="text_4">
      <!-- −1 -->
      <g transform="translate(118.054882 191.759707) scale(0.1 -0.1)">
       <defs>
        <path id="DejaVuSans-31" d="M 794 531 
L 1825 531 
L 1825 4091 
L 703 3866 
L 703 4441 
L 1819 4666 
L 2450 4666 
L 2450 531 
L 3481 531 
L 3481 0 
L 794 0 
L 794 531 
z
" transform="scale(0.015625)"/>
       </defs>
       <use xlink:href="#DejaVuSans-2212"/>
       <use xlink:href="#DejaVuSans-31" transform="translate(83.789062 0)"/>
      </g>
     </g>
    </g>
    <g id="xtick_5">
     <g id="line2d_5">
      <g>
       <use xlink:href="#ma1f9a03d9a" x="162.377603" y="177.161269" style="stroke: #000000; stroke-width: 0.8"/>
      </g>
     </g>
    </g>
    <g id="xtick_6">
     <g id="line2d_6">
      <g>
       <use xlink:href="#ma1f9a03d9a" x="199.32923" y="177.161269" style="stroke: #000000; stroke-width: 0.8"/>
      </g>
     </g>
     <g id="text_5">
      <!-- 1 -->
      <g transform="translate(196.14798 191.759707) scale(0.1 -0.1)">
       <use xlink:href="#DejaVuSans-31"/>
      </g>
     </g>
    </g>
    <g id="xtick_7">
     <g id="line2d_7">
      <g>
       <use xlink:href="#ma1f9a03d9a" x="236.280857" y="177.161269" style="stroke: #000000; stroke-width: 0.8"/>
      </g>
     </g>
     <g id="text_6">
      <!-- 2 -->
      <g transform="translate(233.099607 191.759707) scale(0.1 -0.1)">
       <use xlink:href="#DejaVuSans-32"/>
      </g>
     </g>
    </g>
    <g id="xtick_8">
     <g id="line2d_8">
      <g>
       <use xlink:href="#ma1f9a03d9a" x="273.232484" y="177.161269" style="stroke: #000000; stroke-width: 0.8"/>
      </g>
     </g>
     <g id="text_7">
      <!-- 3 -->
      <g transform="translate(270.051234 191.759707) scale(0.1 -0.1)">
       <use xlink:href="#DejaVuSans-33"/>
      </g>
     </g>
    </g>
    <g id="xtick_9">
     <g id="line2d_9">
      <g>
       <use xlink:href="#ma1f9a03d9a" x="310.184112" y="177.161269" style="stroke: #000000; stroke-width: 0.8"/>
      </g>
     </g>
     <g id="text_8">
      <!-- 4 -->
      <g transform="translate(307.002862 191.759707) scale(0.1 -0.1)">
       <use xlink:href="#DejaVuSans-34"/>
      </g>
     </g>
    </g>
    <g id="xtick_10">
     <g id="line2d_10">
      <defs>
       <path id="m0346e5126b" d="M 0 0 
L 0 2 
" style="stroke: #000000; stroke-width: 0.6"/>
      </defs>
      <g>
       <use xlink:href="#m0346e5126b" x="21.961419" y="177.161269" style="stroke: #000000; stroke-width: 0.6"/>
      </g>
     </g>
    </g>
    <g id="xtick_11">
     <g id="line2d_11">
      <g>
       <use xlink:href="#m0346e5126b" x="29.351745" y="177.161269" style="stroke: #000000; stroke-width: 0.6"/>
      </g>
     </g>
    </g>
    <g id="xtick_12">
     <g id="line2d_12">
      <g>
       <use xlink:href="#m0346e5126b" x="36.74207" y="177.161269" style="stroke: #000000; stroke-width: 0.6"/>
      </g>
     </g>
    </g>
    <g id="xtick_13">
     <g id="line2d_13">
      <g>
       <use xlink:href="#m0346e5126b" x="44.132396" y="177.161269" style="stroke: #000000; stroke-width: 0.6"/>
      </g>
     </g>
    </g>
    <g id="xtick_14">
     <g id="line2d_14">
      <g>
       <use xlink:href="#m0346e5126b" x="58.913046" y="177.161269" style="stroke: #000000; stroke-width: 0.6"/>
      </g>
     </g>
    </g>
    <g id="xtick_15">
     <g id="line2d_15">
      <g>
       <use xlink:href="#m0346e5126b" x="66.303372" y="177.161269" style="stroke: #000000; stroke-width: 0.6"/>
      </g>
     </g>
    </g>
    <g id="xtick_16">
     <g id="line2d_16">
      <g>
       <use xlink:href="#m0346e5126b" x="73.693697" y="177.161269" style="stroke: #000000; stroke-width: 0.6"/>
      </g>
     </g>
    </g>
    <g id="xtick_17">
     <g id="line2d_17">
      <g>
       <use xlink:href="#m0346e5126b" x="81.084023" y="177.161269" style="stroke: #000000; stroke-width: 0.6"/>
      </g>
     </g>
    </g>
    <g id="xtick_18">
     <g id="line2d_18">
      <g>
       <use xlink:href="#m0346e5126b" x="95.864674" y="177.161269" style="stroke: #000000; stroke-width: 0.6"/>
      </g>
     </g>
    </g>
    <g id="xtick_19">
     <g id="line2d_19">
      <g>
       <use xlink:href="#m0346e5126b" x="103.254999" y="177.161269" style="stroke: #000000; stroke-width: 0.6"/>
      </g>
     </g>
    </g>
    <g id="xtick_20">
     <g id="line2d_20">
      <g>
       <use xlink:href="#m0346e5126b" x="110.645325" y="177.161269" style="stroke: #000000; stroke-width: 0.6"/>
      </g>
     </g>
    </g>
    <g id="xtick_21">
     <g id="line2d_21">
      <g>
       <use xlink:href="#m0346e5126b" x="118.03565" y="177.161269" style="stroke: #000000; stroke-width: 0.6"/>
      </g>
     </g>
    </g>
    <g id="xtick_22">
     <g id="line2d_22">
      <g>
       <use xlink:href="#m0346e5126b" x="132.816301" y="177.161269" style="stroke: #000000; stroke-width: 0.6"/>
      </g>
     </g>
    </g>
    <g id="xtick_23">
     <g id="line2d_23">
      <g>
       <use xlink:href="#m0346e5126b" x="140.206626" y="177.161269" style="stroke: #000000; stroke-width: 0.6"/>
      </g>
     </g>
    </g>
    <g id="xtick_24">
     <g id="line2d_24">
      <g>
       <use xlink:href="#m0346e5126b" x="147.596952" y="177.161269" style="stroke: #000000; stroke-width: 0.6"/>
      </g>
     </g>
    </g>
    <g id="xtick_25">
     <g id="line2d_25">
      <g>
       <use xlink:href="#m0346e5126b" x="154.987277" y="177.161269" style="stroke: #000000; stroke-width: 0.6"/>
      </g>
     </g>
    </g>
    <g id="xtick_26">
     <g id="line2d_26">
      <g>
       <use xlink:href="#m0346e5126b" x="169.767928" y="177.161269" style="stroke: #000000; stroke-width: 0.6"/>
      </g>
     </g>
    </g>
    <g id="xtick_27">
     <g id="line2d_27">
      <g>
       <use xlink:href="#m0346e5126b" x="177.158254" y="177.161269" style="stroke: #000000; stroke-width: 0.6"/>
      </g>
     </g>
    </g>
    <g id="xtick_28">
     <g id="line2d_28">
      <g>
       <use xlink:href="#m0346e5126b" x="184.548579" y="177.161269" style="stroke: #000000; stroke-width: 0.6"/>
      </g>
     </g>
    </g>
    <g id="xtick_29">
     <g id="line2d_29">
      <g>
       <use xlink:href="#m0346e5126b" x="191.938904" y="177.161269" style="stroke: #000000; stroke-width: 0.6"/>
      </g>
     </g>
    </g>
    <g id="xtick_30">
     <g id="line2d_30">
      <g>
       <use xlink:href="#m0346e5126b" x="206.719555" y="177.161269" style="stroke: #000000; stroke-width: 0.6"/>
      </g>
     </g>
    </g>
    <g id="xtick_31">
     <g id="line2d_31">
      <g>
       <use xlink:href="#m0346e5126b" x="214.109881" y="177.161269" style="stroke: #000000; stroke-width: 0.6"/>
      </g>
     </g>
    </g>
    <g id="xtick_32">
     <g id="line2d_32">
      <g>
       <use xlink:href="#m0346e5126b" x="221.500206" y="177.161269" style="stroke: #000000; stroke-width: 0.6"/>
      </g>
     </g>
    </g>
    <g id="xtick_33">
     <g id="line2d_33">
      <g>
       <use xlink:href="#m0346e5126b" x="228.890532" y="177.161269" style="stroke: #000000; stroke-width: 0.6"/>
      </g>
     </g>
    </g>
    <g id="xtick_34">
     <g id="line2d_34">
      <g>
       <use xlink:href="#m0346e5126b" x="243.671183" y="177.161269" style="stroke: #000000; stroke-width: 0.6"/>
      </g>
     </g>
    </g>
    <g id="xtick_35">
     <g id="line2d_35">
      <g>
       <use xlink:href="#m0346e5126b" x="251.061508" y="177.161269" style="stroke: #000000; stroke-width: 0.6"/>
      </g>
     </g>
    </g>
    <g id="xtick_36">
     <g id="line2d_36">
      <g>
       <use xlink:href="#m0346e5126b" x="258.451833" y="177.161269" style="stroke: #000000; stroke-width: 0.6"/>
      </g>
     </g>
    </g>
    <g id="xtick_37">
     <g id="line2d_37">
      <g>
       <use xlink:href="#m0346e5126b" x="265.842159" y="177.161269" style="stroke: #000000; stroke-width: 0.6"/>
      </g>
     </g>
    </g>
    <g id="xtick_38">
     <g id="line2d_38">
      <g>
       <use xlink:href="#m0346e5126b" x="280.62281" y="177.161269" style="stroke: #000000; stroke-width: 0.6"/>
      </g>
     </g>
    </g>
    <g id="xtick_39">
     <g id="line2d_39">
      <g>
       <use xlink:href="#m0346e5126b" x="288.013135" y="177.161269" style="stroke: #000000; stroke-width: 0.6"/>
      </g>
     </g>
    </g>
    <g id="xtick_40">
     <g id="line2d_40">
      <g>
       <use xlink:href="#m0346e5126b" x="295.403461" y="177.161269" style="stroke: #000000; stroke-width: 0.6"/>
      </g>
     </g>
    </g>
    <g id="xtick_41">
     <g id="line2d_41">
      <g>
       <use xlink:href="#m0346e5126b" x="302.793786" y="177.161269" style="stroke: #000000; stroke-width: 0.6"/>
      </g>
     </g>
    </g>
    <g id="text_9">
     <!-- $x$ -->
     <g transform="translate(324.096372 177.161269) scale(0.16 -0.16)">
      <defs>
       <path id="Cmmi10-78" d="M 500 184 
Q 613 97 819 97 
Q 1019 97 1172 289 
Q 1325 481 1381 709 
L 1672 1844 
Q 1741 2153 1741 2266 
Q 1741 2425 1652 2544 
Q 1563 2663 1403 2663 
Q 1200 2663 1022 2536 
Q 844 2409 722 2214 
Q 600 2019 550 1819 
Q 538 1778 500 1778 
L 422 1778 
Q 372 1778 372 1838 
L 372 1856 
Q 434 2094 584 2320 
Q 734 2547 951 2687 
Q 1169 2828 1416 2828 
Q 1650 2828 1839 2703 
Q 2028 2578 2106 2363 
Q 2216 2559 2386 2693 
Q 2556 2828 2759 2828 
Q 2897 2828 3040 2779 
Q 3184 2731 3275 2631 
Q 3366 2531 3366 2381 
Q 3366 2219 3261 2101 
Q 3156 1984 2994 1984 
Q 2891 1984 2822 2050 
Q 2753 2116 2753 2216 
Q 2753 2350 2845 2451 
Q 2938 2553 3066 2572 
Q 2950 2663 2747 2663 
Q 2541 2663 2389 2472 
Q 2238 2281 2175 2047 
L 1894 916 
Q 1825 659 1825 494 
Q 1825 331 1917 214 
Q 2009 97 2163 97 
Q 2463 97 2698 361 
Q 2934 625 3009 941 
Q 3022 978 3059 978 
L 3138 978 
Q 3163 978 3178 961 
Q 3194 944 3194 922 
Q 3194 916 3188 903 
Q 3097 522 2806 225 
Q 2516 -72 2150 -72 
Q 1916 -72 1727 54 
Q 1538 181 1459 397 
Q 1359 209 1182 68 
Q 1006 -72 806 -72 
Q 669 -72 523 -23 
Q 378 25 287 125 
Q 197 225 197 378 
Q 197 528 301 651 
Q 406 775 563 775 
Q 669 775 741 711 
Q 813 647 813 544 
Q 813 409 723 309 
Q 634 209 500 184 
z
" transform="scale(0.015625)"/>
      </defs>
      <use xlink:href="#Cmmi10-78" transform="translate(0 0.8125)"/>
     </g>
    </g>
   </g>
   <g id="matplotlib.axis_2">
    <g id="ytick_1">
     <g id="line2d_42">
      <defs>
       <path id="meda12e2c39" d="M 0 0 
L -3.5 0 
" style="stroke: #000000; stroke-width: 0.8"/>
      </defs>
      <g>
       <use xlink:href="#meda12e2c39" x="162.377603" y="324.967778" style="stroke: #000000; stroke-width: 0.8"/>
      </g>
     </g>
     <g id="text_10">
      <!-- −4 -->
      <g transform="translate(140.635415 328.766997) scale(0.1 -0.1)">
       <use xlink:href="#DejaVuSans-2212"/>
       <use xlink:href="#DejaVuSans-34" transform="translate(83.789062 0)"/>
      </g>
     </g>
    </g>
    <g id="ytick_2">
     <g id="line2d_43">
      <g>
       <use xlink:href="#meda12e2c39" x="162.377603" y="288.016151" style="stroke: #000000; stroke-width: 0.8"/>
      </g>
     </g>
     <g id="text_11">
      <!-- −3 -->
      <g transform="translate(140.635415 291.81537) scale(0.1 -0.1)">
       <use xlink:href="#DejaVuSans-2212"/>
       <use xlink:href="#DejaVuSans-33" transform="translate(83.789062 0)"/>
      </g>
     </g>
    </g>
    <g id="ytick_3">
     <g id="line2d_44">
      <g>
       <use xlink:href="#meda12e2c39" x="162.377603" y="251.064524" style="stroke: #000000; stroke-width: 0.8"/>
      </g>
     </g>
     <g id="text_12">
      <!-- −2 -->
      <g transform="translate(140.635415 254.863742) scale(0.1 -0.1)">
       <use xlink:href="#DejaVuSans-2212"/>
       <use xlink:href="#DejaVuSans-32" transform="translate(83.789062 0)"/>
      </g>
     </g>
    </g>
    <g id="ytick_4">
     <g id="line2d_45">
      <g>
       <use xlink:href="#meda12e2c39" x="162.377603" y="214.112896" style="stroke: #000000; stroke-width: 0.8"/>
      </g>
     </g>
     <g id="text_13">
      <!-- −1 -->
      <g transform="translate(140.635415 217.912115) scale(0.1 -0.1)">
       <use xlink:href="#DejaVuSans-2212"/>
       <use xlink:href="#DejaVuSans-31" transform="translate(83.789062 0)"/>
      </g>
     </g>
    </g>
    <g id="ytick_5">
     <g id="line2d_46">
      <g>
       <use xlink:href="#meda12e2c39" x="162.377603" y="177.161269" style="stroke: #000000; stroke-width: 0.8"/>
      </g>
     </g>
    </g>
    <g id="ytick_6">
     <g id="line2d_47">
      <g>
       <use xlink:href="#meda12e2c39" x="162.377603" y="140.209642" style="stroke: #000000; stroke-width: 0.8"/>
      </g>
     </g>
     <g id="text_14">
      <!-- 1 -->
      <g transform="translate(149.015103 144.008861) scale(0.1 -0.1)">
       <use xlink:href="#DejaVuSans-31"/>
      </g>
     </g>
    </g>
    <g id="ytick_7">
     <g id="line2d_48">
      <g>
       <use xlink:href="#meda12e2c39" x="162.377603" y="103.258015" style="stroke: #000000; stroke-width: 0.8"/>
      </g>
     </g>
     <g id="text_15">
      <!-- 2 -->
      <g transform="translate(149.015103 107.057234) scale(0.1 -0.1)">
       <use xlink:href="#DejaVuSans-32"/>
      </g>
     </g>
    </g>
    <g id="ytick_8">
     <g id="line2d_49">
      <g>
       <use xlink:href="#meda12e2c39" x="162.377603" y="66.306388" style="stroke: #000000; stroke-width: 0.8"/>
      </g>
     </g>
     <g id="text_16">
      <!-- 3 -->
      <g transform="translate(149.015103 70.105606) scale(0.1 -0.1)">
       <use xlink:href="#DejaVuSans-33"/>
      </g>
     </g>
    </g>
    <g id="ytick_9">
     <g id="line2d_50">
      <g>
       <use xlink:href="#meda12e2c39" x="162.377603" y="29.35476" style="stroke: #000000; stroke-width: 0.8"/>
      </g>
     </g>
     <g id="text_17">
      <!-- 4 -->
      <g transform="translate(149.015103 33.153979) scale(0.1 -0.1)">
       <use xlink:href="#DejaVuSans-34"/>
      </g>
     </g>
    </g>
    <g id="ytick_10">
     <g id="line2d_51">
      <defs>
       <path id="m6df795482b" d="M 0 0 
L -2 0 
" style="stroke: #000000; stroke-width: 0.6"/>
      </defs>
      <g>
       <use xlink:href="#m6df795482b" x="162.377603" y="317.577453" style="stroke: #000000; stroke-width: 0.6"/>
      </g>
     </g>
    </g>
    <g id="ytick_11">
     <g id="line2d_52">
      <g>
       <use xlink:href="#m6df795482b" x="162.377603" y="310.187127" style="stroke: #000000; stroke-width: 0.6"/>
      </g>
     </g>
    </g>
    <g id="ytick_12">
     <g id="line2d_53">
      <g>
       <use xlink:href="#m6df795482b" x="162.377603" y="302.796802" style="stroke: #000000; stroke-width: 0.6"/>
      </g>
     </g>
    </g>
    <g id="ytick_13">
     <g id="line2d_54">
      <g>
       <use xlink:href="#m6df795482b" x="162.377603" y="295.406476" style="stroke: #000000; stroke-width: 0.6"/>
      </g>
     </g>
    </g>
    <g id="ytick_14">
     <g id="line2d_55">
      <g>
       <use xlink:href="#m6df795482b" x="162.377603" y="280.625825" style="stroke: #000000; stroke-width: 0.6"/>
      </g>
     </g>
    </g>
    <g id="ytick_15">
     <g id="line2d_56">
      <g>
       <use xlink:href="#m6df795482b" x="162.377603" y="273.2355" style="stroke: #000000; stroke-width: 0.6"/>
      </g>
     </g>
    </g>
    <g id="ytick_16">
     <g id="line2d_57">
      <g>
       <use xlink:href="#m6df795482b" x="162.377603" y="265.845175" style="stroke: #000000; stroke-width: 0.6"/>
      </g>
     </g>
    </g>
    <g id="ytick_17">
     <g id="line2d_58">
      <g>
       <use xlink:href="#m6df795482b" x="162.377603" y="258.454849" style="stroke: #000000; stroke-width: 0.6"/>
      </g>
     </g>
    </g>
    <g id="ytick_18">
     <g id="line2d_59">
      <g>
       <use xlink:href="#m6df795482b" x="162.377603" y="243.674198" style="stroke: #000000; stroke-width: 0.6"/>
      </g>
     </g>
    </g>
    <g id="ytick_19">
     <g id="line2d_60">
      <g>
       <use xlink:href="#m6df795482b" x="162.377603" y="236.283873" style="stroke: #000000; stroke-width: 0.6"/>
      </g>
     </g>
    </g>
    <g id="ytick_20">
     <g id="line2d_61">
      <g>
       <use xlink:href="#m6df795482b" x="162.377603" y="228.893547" style="stroke: #000000; stroke-width: 0.6"/>
      </g>
     </g>
    </g>
    <g id="ytick_21">
     <g id="line2d_62">
      <g>
       <use xlink:href="#m6df795482b" x="162.377603" y="221.503222" style="stroke: #000000; stroke-width: 0.6"/>
      </g>
     </g>
    </g>
    <g id="ytick_22">
     <g id="line2d_63">
      <g>
       <use xlink:href="#m6df795482b" x="162.377603" y="206.722571" style="stroke: #000000; stroke-width: 0.6"/>
      </g>
     </g>
    </g>
    <g id="ytick_23">
     <g id="line2d_64">
      <g>
       <use xlink:href="#m6df795482b" x="162.377603" y="199.332246" style="stroke: #000000; stroke-width: 0.6"/>
      </g>
     </g>
    </g>
    <g id="ytick_24">
     <g id="line2d_65">
      <g>
       <use xlink:href="#m6df795482b" x="162.377603" y="191.94192" style="stroke: #000000; stroke-width: 0.6"/>
      </g>
     </g>
    </g>
    <g id="ytick_25">
     <g id="line2d_66">
      <g>
       <use xlink:href="#m6df795482b" x="162.377603" y="184.551595" style="stroke: #000000; stroke-width: 0.6"/>
      </g>
     </g>
    </g>
    <g id="ytick_26">
     <g id="line2d_67">
      <g>
       <use xlink:href="#m6df795482b" x="162.377603" y="169.770944" style="stroke: #000000; stroke-width: 0.6"/>
      </g>
     </g>
    </g>
    <g id="ytick_27">
     <g id="line2d_68">
      <g>
       <use xlink:href="#m6df795482b" x="162.377603" y="162.380618" style="stroke: #000000; stroke-width: 0.6"/>
      </g>
     </g>
    </g>
    <g id="ytick_28">
     <g id="line2d_69">
      <g>
       <use xlink:href="#m6df795482b" x="162.377603" y="154.990293" style="stroke: #000000; stroke-width: 0.6"/>
      </g>
     </g>
    </g>
    <g id="ytick_29">
     <g id="line2d_70">
      <g>
       <use xlink:href="#m6df795482b" x="162.377603" y="147.599967" style="stroke: #000000; stroke-width: 0.6"/>
      </g>
     </g>
    </g>
    <g id="ytick_30">
     <g id="line2d_71">
      <g>
       <use xlink:href="#m6df795482b" x="162.377603" y="132.819317" style="stroke: #000000; stroke-width: 0.6"/>
      </g>
     </g>
    </g>
    <g id="ytick_31">
     <g id="line2d_72">
      <g>
       <use xlink:href="#m6df795482b" x="162.377603" y="125.428991" style="stroke: #000000; stroke-width: 0.6"/>
      </g>
     </g>
    </g>
    <g id="ytick_32">
     <g id="line2d_73">
      <g>
       <use xlink:href="#m6df795482b" x="162.377603" y="118.038666" style="stroke: #000000; stroke-width: 0.6"/>
      </g>
     </g>
    </g>
    <g id="ytick_33">
     <g id="line2d_74">
      <g>
       <use xlink:href="#m6df795482b" x="162.377603" y="110.64834" style="stroke: #000000; stroke-width: 0.6"/>
      </g>
     </g>
    </g>
    <g id="ytick_34">
     <g id="line2d_75">
      <g>
       <use xlink:href="#m6df795482b" x="162.377603" y="95.867689" style="stroke: #000000; stroke-width: 0.6"/>
      </g>
     </g>
    </g>
    <g id="ytick_35">
     <g id="line2d_76">
      <g>
       <use xlink:href="#m6df795482b" x="162.377603" y="88.477364" style="stroke: #000000; stroke-width: 0.6"/>
      </g>
     </g>
    </g>
    <g id="ytick_36">
     <g id="line2d_77">
      <g>
       <use xlink:href="#m6df795482b" x="162.377603" y="81.087038" style="stroke: #000000; stroke-width: 0.6"/>
      </g>
     </g>
    </g>
    <g id="ytick_37">
     <g id="line2d_78">
      <g>
       <use xlink:href="#m6df795482b" x="162.377603" y="73.696713" style="stroke: #000000; stroke-width: 0.6"/>
      </g>
     </g>
    </g>
    <g id="ytick_38">
     <g id="line2d_79">
      <g>
       <use xlink:href="#m6df795482b" x="162.377603" y="58.916062" style="stroke: #000000; stroke-width: 0.6"/>
      </g>
     </g>
    </g>
    <g id="ytick_39">
     <g id="line2d_80">
      <g>
       <use xlink:href="#m6df795482b" x="162.377603" y="51.525737" style="stroke: #000000; stroke-width: 0.6"/>
      </g>
     </g>
    </g>
    <g id="ytick_40">
     <g id="line2d_81">
      <g>
       <use xlink:href="#m6df795482b" x="162.377603" y="44.135411" style="stroke: #000000; stroke-width: 0.6"/>
      </g>
     </g>
    </g>
    <g id="ytick_41">
     <g id="line2d_82">
      <g>
       <use xlink:href="#m6df795482b" x="162.377603" y="36.745086" style="stroke: #000000; stroke-width: 0.6"/>
      </g>
     </g>
    </g>
    <g id="text_18">
     <!-- $y$ -->
     <g transform="translate(158.377603 12.0825) scale(0.16 -0.16)">
      <defs>
       <path id="Cmmi10-79" d="M 538 -916 
Q 672 -1147 1006 -1147 
Q 1309 -1147 1531 -934 
Q 1753 -722 1889 -420 
Q 2025 -119 2100 197 
Q 1816 -72 1484 -72 
Q 1231 -72 1053 15 
Q 875 103 776 276 
Q 678 450 678 697 
Q 678 906 734 1126 
Q 791 1347 892 1617 
Q 994 1888 1069 2088 
Q 1153 2322 1153 2472 
Q 1153 2663 1013 2663 
Q 759 2663 595 2402 
Q 431 2141 353 1819 
Q 341 1778 300 1778 
L 225 1778 
Q 172 1778 172 1838 
L 172 1856 
Q 275 2238 487 2533 
Q 700 2828 1025 2828 
Q 1253 2828 1411 2678 
Q 1569 2528 1569 2297 
Q 1569 2178 1516 2047 
Q 1488 1969 1388 1706 
Q 1288 1444 1234 1272 
Q 1181 1100 1147 934 
Q 1113 769 1113 603 
Q 1113 391 1203 244 
Q 1294 97 1491 97 
Q 1888 97 2203 581 
L 2688 2553 
Q 2709 2638 2787 2698 
Q 2866 2759 2956 2759 
Q 3034 2759 3092 2709 
Q 3150 2659 3150 2578 
Q 3150 2541 3144 2528 
L 2509 -19 
Q 2425 -347 2200 -647 
Q 1975 -947 1658 -1130 
Q 1341 -1313 997 -1313 
Q 831 -1313 668 -1248 
Q 506 -1184 406 -1056 
Q 306 -928 306 -756 
Q 306 -581 409 -453 
Q 513 -325 684 -325 
Q 788 -325 858 -389 
Q 928 -453 928 -556 
Q 928 -703 818 -812 
Q 709 -922 563 -922 
Q 556 -919 550 -917 
Q 544 -916 538 -916 
z
" transform="scale(0.015625)"/>
      </defs>
      <use xlink:href="#Cmmi10-79" transform="translate(0 0.8125)"/>
     </g>
    </g>
   </g>
   <g id="line2d_83">
    <path d="M 199.32923 177.161269 
L 199.239982 174.594614 
L 198.940402 171.814827 
L 198.304118 168.517876 
L 197.627846 166.077809 
L 196.623928 163.282799 
L 195.42784 160.635394 
L 193.871438 157.833541 
L 192.481433 155.732733 
L 190.550915 153.251288 
L 188.874599 151.406038 
L 187.808528 150.35286 
L 185.333411 148.205205 
L 182.938994 146.458632 
L 180.108317 144.741452 
L 177.962451 143.657012 
L 174.936015 142.409161 
L 172.228792 141.546991 
L 170.350036 141.07993 
L 168.080493 140.652369 
L 164.392101 140.264595 
L 161.601894 140.217785 
L 158.797724 140.38346 
L 156.130337 140.741571 
L 153.58857 141.270105 
L 151.386873 141.882003 
L 148.245415 143.018861 
L 146.165889 143.955801 
L 143.28381 145.525058 
L 140.380903 147.470059 
L 138.69422 148.797205 
L 136.807091 150.485968 
L 134.708696 152.669345 
L 132.790344 155.024945 
L 131.302178 157.167752 
L 130.046052 159.270109 
L 128.824264 161.682373 
L 127.611991 164.640286 
L 126.556037 168.092742 
L 125.936422 171.040558 
L 125.578571 173.806573 
L 125.425977 177.171401 
L 125.514022 179.710618 
L 125.892424 183.014006 
L 126.478124 185.916277 
L 127.269777 188.687905 
L 128.215137 191.244902 
L 129.733547 194.475668 
L 131.135149 196.892763 
L 132.666627 199.131264 
L 134.801925 201.758114 
L 136.364397 203.405047 
L 138.815962 205.626544 
L 139.966413 206.540877 
L 142.954611 208.596443 
L 145.043968 209.795115 
L 146.938205 210.732801 
L 150.460173 212.138371 
L 152.766143 212.840992 
L 155.738558 213.51159 
L 159.472085 213.998488 
L 161.714231 214.106941 
L 165.294488 213.99759 
L 168.848444 213.541909 
L 171.491198 212.971395 
L 173.112838 212.519118 
L 176.4876 211.312854 
L 178.629583 210.347048 
L 180.65162 209.277979 
L 182.803702 207.95408 
L 185.871717 205.682303 
L 188.218339 203.574885 
L 190.453729 201.185296 
L 191.965066 199.29732 
L 193.423942 197.19992 
L 194.891764 194.718378 
L 196.341709 191.716757 
L 197.044194 189.953852 
L 197.883803 187.395159 
L 198.618276 184.37489 
L 199.104045 181.234497 
L 199.308581 178.396414 
L 199.32923 177.161269 
L 199.32923 177.161269 
" clip-path="url(#p8c90737fcc)" style="fill: none; stroke-dasharray: 3.7,1.6; stroke-dashoffset: 0; stroke: #808080"/>
   </g>
   <g id="line2d_84">
    <path d="M 236.280857 177.161269 
L 236.125889 172.377833 
L 235.837592 169.079126 
L 235.364707 165.560685 
L 234.74313 162.163887 
L 233.78551 158.119162 
L 232.223674 153.011376 
L 230.875241 149.416637 
L 229.453598 146.137055 
L 227.269893 141.796291 
L 225.343359 138.470126 
L 223.230635 135.225611 
L 220.878777 132.002619 
L 218.521851 129.103862 
L 214.886612 125.156511 
L 211.400531 121.858073 
L 207.67799 118.769781 
L 203.403483 115.69121 
L 198.402911 112.633227 
L 194.869174 110.783647 
L 192.262613 109.570019 
L 186.98252 107.47419 
L 182.251498 105.980378 
L 181.24309 105.706498 
L 175.521784 104.436298 
L 171.790837 103.859959 
L 167.558585 103.439845 
L 163.382793 103.264851 
L 158.923994 103.338755 
L 155.635296 103.566213 
L 150.304269 104.250875 
L 145.975961 105.101036 
L 141.597726 106.239568 
L 136.099293 108.08782 
L 132.323658 109.644965 
L 129.158891 111.144542 
L 125.10163 113.347533 
L 120.854881 116.025726 
L 116.759946 119.017307 
L 113.742045 121.5171 
L 110.274276 124.750065 
L 107.356153 127.822328 
L 104.969216 130.621306 
L 102.948001 133.231627 
L 100.324196 137.023186 
L 98.001985 140.864288 
L 95.79666 145.088398 
L 93.796776 149.622909 
L 92.722893 152.464863 
L 91.43693 156.446249 
L 90.30017 160.835379 
L 89.424846 165.346605 
L 88.89271 169.308782 
L 88.528071 174.343877 
L 88.498807 179.062459 
L 88.658335 182.372849 
L 89.155425 187.171454 
L 89.828898 191.245886 
L 90.952567 196.139028 
L 92.12056 200.088088 
L 93.389628 203.663162 
L 94.767836 207.004366 
L 96.33651 210.331513 
L 98.351578 214.071419 
L 99.834899 216.532594 
L 102.02109 219.808454 
L 104.267776 222.822402 
L 106.865376 225.947371 
L 109.836815 229.133922 
L 112.124084 231.348675 
L 115.752209 234.500293 
L 119.947341 237.670474 
L 123.718297 240.146578 
L 127.110089 242.106581 
L 129.791441 243.492507 
L 131.633737 244.366222 
L 136.227772 246.283461 
L 138.960633 247.256466 
L 144.392795 248.842771 
L 146.901347 249.425898 
L 151.703791 250.289655 
L 157.131396 250.878081 
L 161.628771 251.06073 
L 165.605345 250.994004 
L 170.857685 250.576385 
L 173.561653 250.21336 
L 177.648449 249.469583 
L 182.78631 248.190669 
L 186.506356 247.014646 
L 190.680279 245.430219 
L 194.819783 243.563046 
L 197.149654 242.373197 
L 202.086447 239.490225 
L 204.73168 237.723825 
L 209.126721 234.399464 
L 212.667774 231.31466 
L 215.583633 228.452685 
L 217.939894 225.890344 
L 221.09743 222.035235 
L 223.697287 218.411571 
L 225.34771 215.845331 
L 227.383294 212.317366 
L 229.63686 207.78615 
L 231.090763 204.36775 
L 232.594367 200.21115 
L 233.73263 196.40058 
L 234.589629 192.881139 
L 235.345192 188.883977 
L 235.808606 185.50266 
L 236.106314 182.237503 
L 236.280857 177.161269 
L 236.280857 177.161269 
" clip-path="url(#p8c90737fcc)" style="fill: none; stroke-dasharray: 3.7,1.6; stroke-dashoffset: 0; stroke: #808080"/>
   </g>
   <g id="line2d_85">
    <path d="M 273.232484 177.161269 
L 273.166595 173.339764 
L 272.902752 168.617487 
L 272.348863 163.192497 
L 271.615935 158.298833 
L 270.715088 153.670973 
L 269.429622 148.37464 
L 268.276299 144.385197 
L 266.742779 139.788623 
L 264.711184 134.539174 
L 263.314498 131.329533 
L 261.360753 127.249941 
L 258.74812 122.375065 
L 256.271833 118.231835 
L 254.539675 115.558046 
L 251.098653 110.697896 
L 247.912473 106.64467 
L 243.841581 101.978658 
L 240.350931 98.364285 
L 237.216931 95.381812 
L 233.196507 91.876525 
L 230.249801 89.513283 
L 224.852279 85.587694 
L 222.632742 84.112234 
L 216.714486 80.536697 
L 213.343181 78.716794 
L 207.397226 75.85955 
L 202.370107 73.771693 
L 200.798856 73.177559 
L 196.45311 71.673523 
L 190.203588 69.855541 
L 185.668428 68.780726 
L 181.603453 67.986311 
L 177.726731 67.374161 
L 174.353115 66.955136 
L 169.718477 66.549713 
L 166.018299 66.366188 
L 158.694185 66.3676 
L 150.538401 66.940409 
L 147.116624 67.361873 
L 141.226412 68.342926 
L 135.044403 69.72896 
L 131.597218 70.665388 
L 127.333511 71.991329 
L 123.57627 73.318786 
L 118.287526 75.451536 
L 114.938455 76.969792 
L 110.843703 79.013106 
L 106.286774 81.544201 
L 101.890049 84.263149 
L 98.171359 86.793337 
L 92.46206 91.134403 
L 88.436947 94.568387 
L 85.232612 97.553134 
L 80.838404 102.060245 
L 76.832926 106.656567 
L 73.517644 110.883727 
L 70.527366 115.094057 
L 67.52671 119.784331 
L 65.367213 123.516241 
L 63.124285 127.789377 
L 60.845778 132.663029 
L 58.919425 137.34657 
L 56.966897 142.848182 
L 55.75883 146.8093 
L 54.276817 152.604703 
L 53.462765 156.51271 
L 52.590491 161.812165 
L 51.940794 167.542745 
L 51.568245 173.984615 
L 51.5253 177.917472 
L 51.636367 182.179586 
L 52.076143 188.224399 
L 52.718732 193.401248 
L 53.477685 197.888368 
L 54.473542 202.568326 
L 55.912483 208.047887 
L 56.81772 211.012649 
L 58.206867 215.072516 
L 60.45343 220.753331 
L 62.08558 224.38748 
L 64.919048 229.987729 
L 67.846855 235.064141 
L 70.746803 239.551984 
L 73.27976 243.118674 
L 76.638013 247.428811 
L 80.567051 251.966606 
L 84.365241 255.91961 
L 87.635016 259.029153 
L 90.159274 261.264288 
L 94.574139 264.862438 
L 98.834976 267.997052 
L 104.100642 271.461856 
L 109.922324 274.820107 
L 115.851927 277.780186 
L 122.456849 280.578571 
L 128.677397 282.769512 
L 134.688758 284.502467 
L 139.320954 285.591873 
L 146.907098 286.931339 
L 152.318688 287.558837 
L 156.584954 287.864702 
L 163.410443 288.011339 
L 168.541243 287.844666 
L 173.160351 287.490491 
L 176.895974 287.061322 
L 182.767459 286.124834 
L 184.143334 285.858361 
L 189.495646 284.648089 
L 194.824238 283.161366 
L 201.255205 280.975222 
L 204.607495 279.657323 
L 211.042139 276.763316 
L 216.694342 273.797166 
L 219.162632 272.367704 
L 224.758986 268.798422 
L 228.326171 266.265652 
L 232.406605 263.0958 
L 236.800233 259.320121 
L 241.722331 254.577152 
L 244.765589 251.33016 
L 248.953037 246.396369 
L 252.841927 241.231627 
L 255.388701 237.474952 
L 258.303034 232.723094 
L 260.642683 228.47188 
L 263.139314 223.376875 
L 264.835118 219.484577 
L 266.413869 215.439985 
L 267.63444 211.94349 
L 269.06611 207.267201 
L 270.500982 201.618164 
L 271.465637 196.87435 
L 272.175042 192.436319 
L 272.684541 188.169633 
L 273.07774 183.016556 
L 273.232484 177.161269 
L 273.232484 177.161269 
" clip-path="url(#p8c90737fcc)" style="fill: none; stroke-dasharray: 3.7,1.6; stroke-dashoffset: 0; stroke: #808080"/>
   </g>
   <g id="line2d_86">
    <path d="M 310.184112 177.161269 
L 310.067287 171.285799 
L 309.616475 164.21992 
L 308.926065 157.917768 
L 307.930383 151.448391 
L 307.133949 147.288802 
L 305.658406 140.865602 
L 304.396121 136.203921 
L 302.170926 129.155116 
L 300.267189 123.933214 
L 297.454605 117.153208 
L 295.407573 112.742397 
L 292.686235 107.401508 
L 289.048121 100.994716 
L 285.406491 95.242671 
L 281.649126 89.862542 
L 277.959216 85.0328 
L 273.813955 80.059758 
L 268.86254 74.654088 
L 264.923564 70.713677 
L 259.68935 65.908458 
L 255.846072 62.660574 
L 251.183879 59.00794 
L 245.570633 54.990553 
L 239.99715 51.375857 
L 232.507641 47.051539 
L 226.379721 43.930293 
L 222.986591 42.352833 
L 217.224477 39.907547 
L 210.548748 37.424714 
L 203.497359 35.189688 
L 194.572342 32.903643 
L 183.914129 30.932195 
L 177.416039 30.121786 
L 167.903751 29.458102 
L 161.513074 29.357289 
L 153.291062 29.634326 
L 143.986733 30.503368 
L 138.680616 31.266729 
L 131.428986 32.631178 
L 125.496981 34.029918 
L 118.731026 35.946042 
L 115.473368 36.99438 
L 109.787482 39.02712 
L 104.955349 40.964908 
L 101.086972 42.661371 
L 96.860792 44.668584 
L 91.069102 47.69366 
L 85.206583 51.100182 
L 80.516722 54.093969 
L 74.365815 58.414946 
L 68.988216 62.596063 
L 64.072345 66.785364 
L 58.508261 72.004605 
L 54.349483 76.281691 
L 51.046923 79.938619 
L 47.657987 83.961624 
L 42.896991 90.148928 
L 39.654277 94.785609 
L 35.434884 101.449247 
L 32.806471 106.041048 
L 30.150924 111.109248 
L 28.08354 115.420936 
L 25.775834 120.710221 
L 23.471109 126.646419 
L 21.434621 132.643408 
L 20.164512 136.884713 
L 18.825718 141.953023 
L 17.55288 147.622078 
L 16.407197 153.936183 
L 15.504929 160.572668 
L 15.09972 164.671696 
L 14.675506 171.606564 
L 14.573831 178.060805 
L 14.755923 184.550696 
L 15.160596 190.349029 
L 15.548421 194.130516 
L 16.361005 200.094155 
L 17.383691 205.858478 
L 18.492661 210.982676 
L 19.786364 216.077881 
L 21.33911 221.375608 
L 23.174472 226.852844 
L 25.078504 231.894453 
L 27.570903 237.774122 
L 30.253826 243.418885 
L 32.625306 247.950432 
L 35.650944 253.234379 
L 39.677575 259.571628 
L 42.512021 263.642518 
L 46.069872 268.371333 
L 50.1667 273.366661 
L 53.496379 277.119477 
L 57.596644 281.409602 
L 62.037396 285.69056 
L 66.506847 289.658213 
L 71.779794 293.946547 
L 75.890812 297.022853 
L 80.949759 300.515517 
L 86.840381 304.208081 
L 92.128564 307.206787 
L 94.603346 308.513522 
L 101.097978 311.666182 
L 108.851934 314.935603 
L 115.419489 317.310117 
L 120.664446 318.959635 
L 128.912748 321.129556 
L 136.419623 322.670538 
L 145.07441 323.951472 
L 154.594239 324.762703 
L 158.905665 324.926995 
L 163.84211 324.960523 
L 169.352921 324.803096 
L 179.002828 324.029802 
L 187.519204 322.813815 
L 197.590514 320.712009 
L 201.01053 319.82963 
L 207.588029 317.883625 
L 214.071247 315.633401 
L 220.626183 313.00628 
L 228.280381 309.462395 
L 233.534904 306.712041 
L 238.488575 303.865192 
L 243.18232 300.924599 
L 248.491113 297.291313 
L 253.43662 293.587295 
L 258.397151 289.53124 
L 264.157148 284.341902 
L 268.272253 280.27813 
L 272.2001 276.084386 
L 275.960121 271.743379 
L 279.496386 267.32753 
L 283.385554 262.036706 
L 287.032278 256.584037 
L 290.313963 251.181887 
L 293.269028 245.821294 
L 296.745456 238.740843 
L 299.305099 232.817578 
L 301.600624 226.797088 
L 303.599531 220.786161 
L 305.449854 214.270497 
L 306.978946 207.775246 
L 308.107021 201.853388 
L 308.820233 197.194244 
L 309.592002 190.378106 
L 309.923525 185.934234 
L 310.151095 180.285226 
L 310.184112 177.161269 
L 310.184112 177.161269 
" clip-path="url(#p8c90737fcc)" style="fill: none; stroke-dasharray: 3.7,1.6; stroke-dashoffset: 0; stroke: #808080"/>
   </g>
   <g id="line2d_87">
    <path d="M 337.436372 118.103143 
L 336.225738 114.612131 
L 333.634159 107.830463 
L 330.483047 100.505359 
L 327.130291 93.542368 
L 323.421836 86.605631 
L 319.741394 80.351115 
L 316.04904 74.591009 
L 312.41157 69.340226 
L 308.752428 64.422725 
L 304.75347 59.412888 
L 300.574587 54.535161 
L 295.541508 49.087294 
L 291.427432 44.94285 
L 285.435029 39.348212 
L 281.411238 35.858182 
L 277.288514 32.485593 
L 272.028452 28.459353 
L 267.820111 25.446252 
L 260.426846 20.566523 
L 253.754856 16.581798 
L 247.955497 13.417589 
L 241.364902 10.13859 
L 235.350274 7.424537 
L 229.686062 5.099826 
L 225.047295 3.356556 
L 220.389364 1.74689 
L 212.820658 -0.577491 
L 211.279983 -1 
M 113.532351 -1 
L 109.784854 0.046697 
L 105.555542 1.357907 
L 100.735157 2.989579 
L 92.596877 6.087545 
L 84.136968 9.78752 
L 78.249986 12.667765 
L 70.942023 16.615003 
L 65.065051 20.10766 
L 58.82475 24.150238 
L 52.134618 28.89781 
L 45.755891 33.861077 
L 40.729092 38.102977 
L 35.385541 42.965199 
L 30.782759 47.475626 
L 26.298479 52.189109 
L 23.029638 55.844685 
L 18.323843 61.471671 
L 13.740028 67.423216 
L 8.684372 74.623668 
L 5.513577 79.54341 
L 1.271508 86.715733 
L -1 90.891679 
M -1 263.432728 
L 2.370621 269.53732 
L 5.456689 274.687653 
L 9.893112 281.487915 
L 13.727823 286.882789 
L 18.094843 292.565144 
L 22.856373 298.278549 
L 26.386663 302.229384 
L 31.495088 307.565779 
L 36.088851 312.019417 
L 41.449297 316.846322 
L 46.277452 320.88435 
L 51.007237 324.579757 
L 56.965057 328.897106 
L 62.509741 332.602509 
L 67.862901 335.914348 
L 73.417494 339.080038 
M 251.333201 339.080038 
L 255.53891 336.712326 
L 259.477914 334.346187 
L 266.427917 329.834453 
L 272.586633 325.449969 
L 278.057269 321.223005 
L 283.337356 316.81909 
L 290.016698 310.742069 
L 294.355412 306.457157 
L 298.554555 302.026823 
L 302.649979 297.407805 
L 306.221148 293.112135 
L 309.500877 288.921329 
L 313.327848 283.695735 
L 318.265866 276.329904 
L 321.421488 271.185795 
L 324.440349 265.88125 
L 328.014472 259.014774 
L 330.020956 254.822554 
L 332.887816 248.30785 
L 335.661819 241.256113 
L 337.436372 236.226589 
L 337.436372 236.226589 
" clip-path="url(#p8c90737fcc)" style="fill: none; stroke-dasharray: 3.7,1.6; stroke-dashoffset: 0; stroke: #808080"/>
   </g>
   <g id="line2d_88">
    <path d="M 162.377603 177.161269 
L 337.436372 104.649553 
" clip-path="url(#p8c90737fcc)" style="fill: none; stroke: #808080; stroke-linecap: square"/>
   </g>
   <g id="line2d_89">
    <path d="M 162.377603 177.161269 
L 319.15008 20.388792 
" clip-path="url(#p8c90737fcc)" style="fill: none; stroke: #808080; stroke-linecap: square"/>
   </g>
   <g id="line2d_90">
    <path d="M 162.377603 177.161269 
L 236.174417 -1 
" clip-path="url(#p8c90737fcc)" style="fill: none; stroke: #808080; stroke-linecap: square"/>
   </g>
   <g id="line2d_91">
    <path d="M 162.377603 177.161269 
L 162.377603 -1 
" clip-path="url(#p8c90737fcc)" style="fill: none; stroke: #808080; stroke-linecap: square"/>
   </g>
   <g id="line2d_92">
    <path d="M 162.377603 177.161269 
L 88.580789 -1 
" clip-path="url(#p8c90737fcc)" style="fill: none; stroke: #808080; stroke-linecap: square"/>
   </g>
   <g id="line2d_93">
    <path d="M 162.377603 177.161269 
L 5.605126 20.388792 
" clip-path="url(#p8c90737fcc)" style="fill: none; stroke: #808080; stroke-linecap: square"/>
   </g>
   <g id="line2d_94">
    <path d="M 162.377603 177.161269 
L -1 109.48805 
" clip-path="url(#p8c90737fcc)" style="fill: none; stroke: #808080; stroke-linecap: square"/>
   </g>
   <g id="line2d_95">
    <path d="M 162.377603 177.161269 
L -1 177.161269 
" clip-path="url(#p8c90737fcc)" style="fill: none; stroke: #808080; stroke-linecap: square"/>
   </g>
   <g id="line2d_96">
    <path d="M 162.377603 177.161269 
L -1 244.834488 
" clip-path="url(#p8c90737fcc)" style="fill: none; stroke: #808080; stroke-linecap: square"/>
   </g>
   <g id="line2d_97">
    <path d="M 162.377603 177.161269 
L 5.605126 333.933746 
" clip-path="url(#p8c90737fcc)" style="fill: none; stroke: #808080; stroke-linecap: square"/>
   </g>
   <g id="line2d_98">
    <path d="M 162.377603 177.161269 
L 95.308652 339.080038 
" clip-path="url(#p8c90737fcc)" style="fill: none; stroke: #808080; stroke-linecap: square"/>
   </g>
   <g id="line2d_99">
    <path d="M 162.377603 177.161269 
L 162.377603 339.080038 
" clip-path="url(#p8c90737fcc)" style="fill: none; stroke: #808080; stroke-linecap: square"/>
   </g>
   <g id="line2d_100">
    <path d="M 162.377603 177.161269 
L 229.446553 339.080038 
" clip-path="url(#p8c90737fcc)" style="fill: none; stroke: #808080; stroke-linecap: square"/>
   </g>
   <g id="line2d_101">
    <path d="M 162.377603 177.161269 
L 319.15008 333.933746 
" clip-path="url(#p8c90737fcc)" style="fill: none; stroke: #808080; stroke-linecap: square"/>
   </g>
   <g id="line2d_102">
    <path d="M 162.377603 177.161269 
L 337.436372 249.672986 
" clip-path="url(#p8c90737fcc)" style="fill: none; stroke: #808080; stroke-linecap: square"/>
   </g>
   <g id="patch_3">
    <path d="M 162.377603 330.880038 
L 162.377603 23.4425 
" style="fill: none; stroke: #000000; stroke-width: 0.8; stroke-linejoin: miter; stroke-linecap: square"/>
   </g>
   <g id="patch_4">
    <path d="M 8.658833 177.161269 
L 316.096372 177.161269 
" style="fill: none; stroke: #000000; stroke-width: 0.8; stroke-linejoin: miter; stroke-linecap: square"/>
   </g>
  </g>
 </g>
 <defs>
  <clipPath id="p8c90737fcc">
   <rect x="8.658833" y="23.4425" width="307.437538" height="307.437538"/>
  </clipPath>
 </defs>
</svg>
