<?xml version="1.0" encoding="utf-8" standalone="no"?>
<!DOCTYPE svg PUBLIC "-//W3C//DTD SVG 1.1//EN"
  "http://www.w3.org/Graphics/SVG/1.1/DTD/svg11.dtd">
<svg xmlns:xlink="http://www.w3.org/1999/xlink" width="453.6pt" height="236.328277pt" viewBox="0 0 453.6 236.328277" xmlns="http://www.w3.org/2000/svg" version="1.1">
 <metadata>
  <rdf:RDF xmlns:dc="http://purl.org/dc/elements/1.1/" xmlns:cc="http://creativecommons.org/ns#" xmlns:rdf="http://www.w3.org/1999/02/22-rdf-syntax-ns#">
   <cc:Work>
    <dc:type rdf:resource="http://purl.org/dc/dcmitype/StillImage"/>
    <dc:date>2025-06-25T15:26:24.943963</dc:date>
    <dc:format>image/svg+xml</dc:format>
    <dc:creator>
     <cc:Agent>
      <dc:title>Matplotlib v3.10.3, https://matplotlib.org/</dc:title>
     </cc:Agent>
    </dc:creator>
   </cc:Work>
  </rdf:RDF>
 </metadata>
 <defs>
  <style type="text/css">*{stroke-linejoin: round; stroke-linecap: butt}</style>
 </defs>
 <g id="figure_1">
  <g id="patch_1">
   <path d="M 0 236.328277 
L 453.6 236.328277 
L 453.6 0 
L 0 0 
z
" style="fill: #ffffff"/>
  </g>
  <g id="axes_1">
   <g id="patch_2">
    <path d="M 7.2 229.128277 
L 446.4 229.128277 
L 446.4 7.2 
L 7.2 7.2 
z
" style="fill: #ffffff"/>
   </g>
   <g id="PathCollection_1">
    <path d="M 411.548116 52.077987 
C 412.48575 52.077987 413.385108 51.705461 414.048116 51.042453 
C 414.711124 50.379446 415.08365 49.480088 415.08365 48.542453 
C 415.08365 47.604819 414.711124 46.705461 414.048116 46.042453 
C 413.385108 45.379446 412.48575 45.006919 411.548116 45.006919 
C 410.610481 45.006919 409.711124 45.379446 409.048116 46.042453 
C 408.385108 46.705461 408.012582 47.604819 408.012582 48.542453 
C 408.012582 49.480088 408.385108 50.379446 409.048116 51.042453 
C 409.711124 51.705461 410.610481 52.077987 411.548116 52.077987 
z
" clip-path="url(#p4838fa102d)"/>
   </g>
   <g id="matplotlib.axis_1"/>
   <g id="matplotlib.axis_2"/>
   <g id="line2d_1">
    <path d="M 437.953846 75.110801 
L 435.001342 71.248207 
L 431.960348 67.581924 
L 428.699604 63.94931 
L 426.300215 61.44818 
L 423.081787 58.294949 
L 419.28782 54.840902 
L 414.71375 51.007666 
L 409.707821 47.173658 
L 405.66562 44.320333 
L 400.170755 40.749452 
L 395.267208 37.831542 
L 388.96454 34.413277 
L 381.918005 30.987386 
L 376.801146 28.736026 
L 370.987793 26.398625 
L 363.96966 23.864583 
L 357.002421 21.635529 
L 351.613331 20.093167 
L 343.82226 18.124551 
L 336.479631 16.533853 
L 327.704329 14.946756 
L 320.547109 13.890182 
L 309.248378 12.629694 
L 299.34808 11.911134 
L 291.159929 11.574262 
L 284.982521 11.46809 
L 275.28049 11.549025 
L 265.961738 11.902247 
L 258.490316 12.374415 
L 252.757176 12.848169 
L 240.778271 14.143702 
L 231.439119 15.43524 
L 223.203145 16.775717 
L 213.56011 18.583016 
L 207.901581 19.762473 
L 197.985982 22.041354 
L 189.373167 24.240891 
L 178.796553 27.224809 
L 167.8142 30.659212 
L 158.007676 34.0231 
L 146.877023 38.193673 
L 139.549823 41.152289 
L 131.736047 44.502736 
L 122.762343 48.612361 
L 116.020815 51.894827 
L 107.204343 56.458581 
L 102.419812 59.072673 
L 93.037818 64.504798 
L 86.468304 68.572679 
L 81.312677 71.934059 
L 74.439183 76.672271 
L 68.282656 81.196504 
L 63.081725 85.254397 
L 59.057847 88.562479 
L 52.604659 94.22508 
L 47.76103 98.818592 
L 42.179725 104.567327 
L 39.427345 107.622506 
L 35.386954 112.43826 
L 31.242958 117.901229 
L 28.795788 121.458249 
L 26.600024 124.928416 
L 24.031163 129.438968 
L 22.073128 133.33879 
L 20.623854 136.604837 
L 19.239267 140.182113 
L 17.996782 144.011767 
L 16.875489 148.44876 
L 16.152041 152.553208 
L 15.77018 156.214977 
L 15.650546 160.443805 
L 15.886174 164.628775 
L 16.433248 168.500223 
L 17.141659 171.722077 
L 18.220522 175.325844 
L 19.334286 178.261486 
L 20.736371 181.330713 
L 21.901453 183.536635 
L 23.976902 186.948274 
L 26.377212 190.323325 
L 29.279712 193.846932 
L 31.832658 196.581236 
L 34.195053 198.878093 
L 37.067527 201.428505 
L 40.00042 203.807732 
L 42.771152 205.881859 
L 46.40875 208.390164 
L 50.49898 210.965881 
L 55.489752 213.817293 
L 60.13914 216.232218 
L 64.812001 218.460142 
L 70.406687 220.901794 
L 76.40553 223.284014 
L 80.706934 224.860426 
L 80.706934 224.860426 
" clip-path="url(#p4838fa102d)" style="fill: none; stroke: #000000; stroke-width: 2; stroke-linecap: square"/>
   </g>
   <g id="patch_3">
    <path d="M 181.156074 26.531873 
Q 180.129095 26.833029 181.247829 26.504967 
" clip-path="url(#p4838fa102d)" style="fill: none; stroke: #000000; stroke-width: 2; stroke-linecap: round"/>
    <path d="M 192.250723 28.48898 
L 181.247829 26.504967 
L 189.436776 18.893059 
z
" clip-path="url(#p4838fa102d)" style="stroke: #000000; stroke-width: 2; stroke-linecap: round"/>
   </g>
   <g id="patch_4">
    <path d="M 411.548116 48.542453 
Q 376.053417 39.0772 342.719285 30.188099 
" clip-path="url(#p4838fa102d)" style="fill: none; stroke: #ff0000; stroke-width: 2; stroke-linecap: round"/>
    <path d="M 351.093322 37.5959 
L 342.719285 30.188099 
L 353.669948 27.93355 
z
" clip-path="url(#p4838fa102d)" style="fill: #ff0000; stroke: #ff0000; stroke-width: 2; stroke-linecap: round"/>
   </g>
   <g id="text_1">
    <!-- $P$ -->
    <g transform="translate(414.513369 35.130697) scale(0.2 -0.2)">
     <defs>
      <path id="Cmmi10-50" d="M 313 0 
Q 250 0 250 84 
Q 253 100 262 139 
Q 272 178 289 201 
Q 306 225 331 225 
Q 722 225 878 269 
Q 959 297 997 441 
L 1875 3956 
Q 1888 4019 1888 4044 
Q 1888 4113 1813 4122 
Q 1691 4147 1350 4147 
Q 1288 4147 1288 4231 
Q 1291 4247 1300 4286 
Q 1309 4325 1326 4348 
Q 1344 4372 1369 4372 
L 3578 4372 
Q 3881 4372 4165 4264 
Q 4450 4156 4631 3934 
Q 4813 3713 4813 3397 
Q 4813 2991 4527 2672 
Q 4241 2353 3814 2175 
Q 3388 1997 2988 1997 
L 1947 1997 
L 1556 416 
Q 1544 353 1544 325 
Q 1544 300 1551 283 
Q 1559 266 1573 261 
Q 1588 256 1619 250 
Q 1741 225 2081 225 
Q 2144 225 2144 141 
Q 2122 50 2109 25 
Q 2097 0 2034 0 
L 313 0 
z
M 1978 2188 
L 2875 2188 
Q 3497 2188 3822 2522 
Q 3988 2688 4092 3000 
Q 4197 3313 4197 3566 
Q 4197 3881 3956 4014 
Q 3716 4147 3359 4147 
L 2747 4147 
Q 2572 4147 2515 4117 
Q 2459 4088 2413 3928 
L 1978 2188 
z
" transform="scale(0.015625)"/>
     </defs>
     <use xlink:href="#Cmmi10-50" transform="translate(0 0.6875)"/>
    </g>
   </g>
  </g>
 </g>
 <defs>
  <clipPath id="p4838fa102d">
   <rect x="7.2" y="7.2" width="439.2" height="221.928277"/>
  </clipPath>
 </defs>
</svg>
