<?xml version="1.0" encoding="utf-8" standalone="no"?>
<!DOCTYPE svg PUBLIC "-//W3C//DTD SVG 1.1//EN"
  "http://www.w3.org/Graphics/SVG/1.1/DTD/svg11.dtd">
<svg xmlns:xlink="http://www.w3.org/1999/xlink" width="336.436372pt" height="338.080038pt" viewBox="0 0 336.436372 338.080038" xmlns="http://www.w3.org/2000/svg" version="1.1">
 <metadata>
  <rdf:RDF xmlns:dc="http://purl.org/dc/elements/1.1/" xmlns:cc="http://creativecommons.org/ns#" xmlns:rdf="http://www.w3.org/1999/02/22-rdf-syntax-ns#">
   <cc:Work>
    <dc:type rdf:resource="http://purl.org/dc/dcmitype/StillImage"/>
    <dc:date>2025-08-27T14:10:40.081646</dc:date>
    <dc:format>image/svg+xml</dc:format>
    <dc:creator>
     <cc:Agent>
      <dc:title>Matplotlib v3.10.3, https://matplotlib.org/</dc:title>
     </cc:Agent>
    </dc:creator>
   </cc:Work>
  </rdf:RDF>
 </metadata>
 <defs>
  <style type="text/css">*{stroke-linejoin: round; stroke-linecap: butt}</style>
 </defs>
 <g id="figure_1">
  <g id="patch_1">
   <path d="M 0 338.080038 
L 336.436372 338.080038 
L 336.436372 0 
L 0 0 
z
" style="fill: #ffffff"/>
  </g>
  <g id="axes_1">
   <g id="patch_2">
    <path d="M 8.658833 330.880038 
L 316.096372 330.880038 
L 316.096372 23.4425 
L 8.658833 23.4425 
z
" style="fill: #ffffff"/>
   </g>
   <g id="PathCollection_1">
    <path d="M 162.377603 177.161269 
C 162.377603 177.161269 162.377603 177.161269 162.377603 177.161269 
C 162.377603 177.161269 162.377603 177.161269 162.377603 177.161269 
C 162.377603 177.161269 162.377603 177.161269 162.377603 177.161269 
C 162.377603 177.161269 162.377603 177.161269 162.377603 177.161269 
C 162.377603 177.161269 162.377603 177.161269 162.377603 177.161269 
C 162.377603 177.161269 162.377603 177.161269 162.377603 177.161269 
C 162.377603 177.161269 162.377603 177.161269 162.377603 177.161269 
C 162.377603 177.161269 162.377603 177.161269 162.377603 177.161269 
z
" clip-path="url(#p36d3314457)"/>
   </g>
   <g id="matplotlib.axis_1">
    <g id="xtick_1">
     <g id="line2d_1">
      <defs>
       <path id="m0f532c1150" d="M 0 0 
L 0 3.5 
" style="stroke: #000000; stroke-width: 0.8"/>
      </defs>
      <g>
       <use xlink:href="#m0f532c1150" x="14.571094" y="177.161269" style="stroke: #000000; stroke-width: 0.8"/>
      </g>
     </g>
     <g id="text_1">
      <!-- −4 -->
      <g transform="translate(7.2 191.759707) scale(0.1 -0.1)">
       <defs>
        <path id="DejaVuSans-2212" d="M 678 2272 
L 4684 2272 
L 4684 1741 
L 678 1741 
L 678 2272 
z
" transform="scale(0.015625)"/>
        <path id="DejaVuSans-34" d="M 2419 4116 
L 825 1625 
L 2419 1625 
L 2419 4116 
z
M 2253 4666 
L 3047 4666 
L 3047 1625 
L 3713 1625 
L 3713 1100 
L 3047 1100 
L 3047 0 
L 2419 0 
L 2419 1100 
L 313 1100 
L 313 1709 
L 2253 4666 
z
" transform="scale(0.015625)"/>
       </defs>
       <use xlink:href="#DejaVuSans-2212"/>
       <use xlink:href="#DejaVuSans-34" transform="translate(83.789062 0)"/>
      </g>
     </g>
    </g>
    <g id="xtick_2">
     <g id="line2d_2">
      <g>
       <use xlink:href="#m0f532c1150" x="51.522721" y="177.161269" style="stroke: #000000; stroke-width: 0.8"/>
      </g>
     </g>
     <g id="text_2">
      <!-- −3 -->
      <g transform="translate(44.151627 191.759707) scale(0.1 -0.1)">
       <defs>
        <path id="DejaVuSans-33" d="M 2597 2516 
Q 3050 2419 3304 2112 
Q 3559 1806 3559 1356 
Q 3559 666 3084 287 
Q 2609 -91 1734 -91 
Q 1441 -91 1130 -33 
Q 819 25 488 141 
L 488 750 
Q 750 597 1062 519 
Q 1375 441 1716 441 
Q 2309 441 2620 675 
Q 2931 909 2931 1356 
Q 2931 1769 2642 2001 
Q 2353 2234 1838 2234 
L 1294 2234 
L 1294 2753 
L 1863 2753 
Q 2328 2753 2575 2939 
Q 2822 3125 2822 3475 
Q 2822 3834 2567 4026 
Q 2313 4219 1838 4219 
Q 1578 4219 1281 4162 
Q 984 4106 628 3988 
L 628 4550 
Q 988 4650 1302 4700 
Q 1616 4750 1894 4750 
Q 2613 4750 3031 4423 
Q 3450 4097 3450 3541 
Q 3450 3153 3228 2886 
Q 3006 2619 2597 2516 
z
" transform="scale(0.015625)"/>
       </defs>
       <use xlink:href="#DejaVuSans-2212"/>
       <use xlink:href="#DejaVuSans-33" transform="translate(83.789062 0)"/>
      </g>
     </g>
    </g>
    <g id="xtick_3">
     <g id="line2d_3">
      <g>
       <use xlink:href="#m0f532c1150" x="88.474348" y="177.161269" style="stroke: #000000; stroke-width: 0.8"/>
      </g>
     </g>
     <g id="text_3">
      <!-- −2 -->
      <g transform="translate(81.103254 191.759707) scale(0.1 -0.1)">
       <defs>
        <path id="DejaVuSans-32" d="M 1228 531 
L 3431 531 
L 3431 0 
L 469 0 
L 469 531 
Q 828 903 1448 1529 
Q 2069 2156 2228 2338 
Q 2531 2678 2651 2914 
Q 2772 3150 2772 3378 
Q 2772 3750 2511 3984 
Q 2250 4219 1831 4219 
Q 1534 4219 1204 4116 
Q 875 4013 500 3803 
L 500 4441 
Q 881 4594 1212 4672 
Q 1544 4750 1819 4750 
Q 2544 4750 2975 4387 
Q 3406 4025 3406 3419 
Q 3406 3131 3298 2873 
Q 3191 2616 2906 2266 
Q 2828 2175 2409 1742 
Q 1991 1309 1228 531 
z
" transform="scale(0.015625)"/>
       </defs>
       <use xlink:href="#DejaVuSans-2212"/>
       <use xlink:href="#DejaVuSans-32" transform="translate(83.789062 0)"/>
      </g>
     </g>
    </g>
    <g id="xtick_4">
     <g id="line2d_4">
      <g>
       <use xlink:href="#m0f532c1150" x="125.425975" y="177.161269" style="stroke: #000000; stroke-width: 0.8"/>
      </g>
     </g>
     <g id="text_4">
      <!-- −1 -->
      <g transform="translate(118.054882 191.759707) scale(0.1 -0.1)">
       <defs>
        <path id="DejaVuSans-31" d="M 794 531 
L 1825 531 
L 1825 4091 
L 703 3866 
L 703 4441 
L 1819 4666 
L 2450 4666 
L 2450 531 
L 3481 531 
L 3481 0 
L 794 0 
L 794 531 
z
" transform="scale(0.015625)"/>
       </defs>
       <use xlink:href="#DejaVuSans-2212"/>
       <use xlink:href="#DejaVuSans-31" transform="translate(83.789062 0)"/>
      </g>
     </g>
    </g>
    <g id="xtick_5">
     <g id="line2d_5">
      <g>
       <use xlink:href="#m0f532c1150" x="162.377603" y="177.161269" style="stroke: #000000; stroke-width: 0.8"/>
      </g>
     </g>
    </g>
    <g id="xtick_6">
     <g id="line2d_6">
      <g>
       <use xlink:href="#m0f532c1150" x="199.32923" y="177.161269" style="stroke: #000000; stroke-width: 0.8"/>
      </g>
     </g>
     <g id="text_5">
      <!-- 1 -->
      <g transform="translate(196.14798 191.759707) scale(0.1 -0.1)">
       <use xlink:href="#DejaVuSans-31"/>
      </g>
     </g>
    </g>
    <g id="xtick_7">
     <g id="line2d_7">
      <g>
       <use xlink:href="#m0f532c1150" x="236.280857" y="177.161269" style="stroke: #000000; stroke-width: 0.8"/>
      </g>
     </g>
     <g id="text_6">
      <!-- 2 -->
      <g transform="translate(233.099607 191.759707) scale(0.1 -0.1)">
       <use xlink:href="#DejaVuSans-32"/>
      </g>
     </g>
    </g>
    <g id="xtick_8">
     <g id="line2d_8">
      <g>
       <use xlink:href="#m0f532c1150" x="273.232484" y="177.161269" style="stroke: #000000; stroke-width: 0.8"/>
      </g>
     </g>
     <g id="text_7">
      <!-- 3 -->
      <g transform="translate(270.051234 191.759707) scale(0.1 -0.1)">
       <use xlink:href="#DejaVuSans-33"/>
      </g>
     </g>
    </g>
    <g id="xtick_9">
     <g id="line2d_9">
      <g>
       <use xlink:href="#m0f532c1150" x="310.184112" y="177.161269" style="stroke: #000000; stroke-width: 0.8"/>
      </g>
     </g>
     <g id="text_8">
      <!-- 4 -->
      <g transform="translate(307.002862 191.759707) scale(0.1 -0.1)">
       <use xlink:href="#DejaVuSans-34"/>
      </g>
     </g>
    </g>
    <g id="xtick_10">
     <g id="line2d_10">
      <defs>
       <path id="m9df3295ea3" d="M 0 0 
L 0 2 
" style="stroke: #000000; stroke-width: 0.6"/>
      </defs>
      <g>
       <use xlink:href="#m9df3295ea3" x="21.961419" y="177.161269" style="stroke: #000000; stroke-width: 0.6"/>
      </g>
     </g>
    </g>
    <g id="xtick_11">
     <g id="line2d_11">
      <g>
       <use xlink:href="#m9df3295ea3" x="29.351745" y="177.161269" style="stroke: #000000; stroke-width: 0.6"/>
      </g>
     </g>
    </g>
    <g id="xtick_12">
     <g id="line2d_12">
      <g>
       <use xlink:href="#m9df3295ea3" x="36.74207" y="177.161269" style="stroke: #000000; stroke-width: 0.6"/>
      </g>
     </g>
    </g>
    <g id="xtick_13">
     <g id="line2d_13">
      <g>
       <use xlink:href="#m9df3295ea3" x="44.132396" y="177.161269" style="stroke: #000000; stroke-width: 0.6"/>
      </g>
     </g>
    </g>
    <g id="xtick_14">
     <g id="line2d_14">
      <g>
       <use xlink:href="#m9df3295ea3" x="58.913046" y="177.161269" style="stroke: #000000; stroke-width: 0.6"/>
      </g>
     </g>
    </g>
    <g id="xtick_15">
     <g id="line2d_15">
      <g>
       <use xlink:href="#m9df3295ea3" x="66.303372" y="177.161269" style="stroke: #000000; stroke-width: 0.6"/>
      </g>
     </g>
    </g>
    <g id="xtick_16">
     <g id="line2d_16">
      <g>
       <use xlink:href="#m9df3295ea3" x="73.693697" y="177.161269" style="stroke: #000000; stroke-width: 0.6"/>
      </g>
     </g>
    </g>
    <g id="xtick_17">
     <g id="line2d_17">
      <g>
       <use xlink:href="#m9df3295ea3" x="81.084023" y="177.161269" style="stroke: #000000; stroke-width: 0.6"/>
      </g>
     </g>
    </g>
    <g id="xtick_18">
     <g id="line2d_18">
      <g>
       <use xlink:href="#m9df3295ea3" x="95.864674" y="177.161269" style="stroke: #000000; stroke-width: 0.6"/>
      </g>
     </g>
    </g>
    <g id="xtick_19">
     <g id="line2d_19">
      <g>
       <use xlink:href="#m9df3295ea3" x="103.254999" y="177.161269" style="stroke: #000000; stroke-width: 0.6"/>
      </g>
     </g>
    </g>
    <g id="xtick_20">
     <g id="line2d_20">
      <g>
       <use xlink:href="#m9df3295ea3" x="110.645325" y="177.161269" style="stroke: #000000; stroke-width: 0.6"/>
      </g>
     </g>
    </g>
    <g id="xtick_21">
     <g id="line2d_21">
      <g>
       <use xlink:href="#m9df3295ea3" x="118.03565" y="177.161269" style="stroke: #000000; stroke-width: 0.6"/>
      </g>
     </g>
    </g>
    <g id="xtick_22">
     <g id="line2d_22">
      <g>
       <use xlink:href="#m9df3295ea3" x="132.816301" y="177.161269" style="stroke: #000000; stroke-width: 0.6"/>
      </g>
     </g>
    </g>
    <g id="xtick_23">
     <g id="line2d_23">
      <g>
       <use xlink:href="#m9df3295ea3" x="140.206626" y="177.161269" style="stroke: #000000; stroke-width: 0.6"/>
      </g>
     </g>
    </g>
    <g id="xtick_24">
     <g id="line2d_24">
      <g>
       <use xlink:href="#m9df3295ea3" x="147.596952" y="177.161269" style="stroke: #000000; stroke-width: 0.6"/>
      </g>
     </g>
    </g>
    <g id="xtick_25">
     <g id="line2d_25">
      <g>
       <use xlink:href="#m9df3295ea3" x="154.987277" y="177.161269" style="stroke: #000000; stroke-width: 0.6"/>
      </g>
     </g>
    </g>
    <g id="xtick_26">
     <g id="line2d_26">
      <g>
       <use xlink:href="#m9df3295ea3" x="169.767928" y="177.161269" style="stroke: #000000; stroke-width: 0.6"/>
      </g>
     </g>
    </g>
    <g id="xtick_27">
     <g id="line2d_27">
      <g>
       <use xlink:href="#m9df3295ea3" x="177.158254" y="177.161269" style="stroke: #000000; stroke-width: 0.6"/>
      </g>
     </g>
    </g>
    <g id="xtick_28">
     <g id="line2d_28">
      <g>
       <use xlink:href="#m9df3295ea3" x="184.548579" y="177.161269" style="stroke: #000000; stroke-width: 0.6"/>
      </g>
     </g>
    </g>
    <g id="xtick_29">
     <g id="line2d_29">
      <g>
       <use xlink:href="#m9df3295ea3" x="191.938904" y="177.161269" style="stroke: #000000; stroke-width: 0.6"/>
      </g>
     </g>
    </g>
    <g id="xtick_30">
     <g id="line2d_30">
      <g>
       <use xlink:href="#m9df3295ea3" x="206.719555" y="177.161269" style="stroke: #000000; stroke-width: 0.6"/>
      </g>
     </g>
    </g>
    <g id="xtick_31">
     <g id="line2d_31">
      <g>
       <use xlink:href="#m9df3295ea3" x="214.109881" y="177.161269" style="stroke: #000000; stroke-width: 0.6"/>
      </g>
     </g>
    </g>
    <g id="xtick_32">
     <g id="line2d_32">
      <g>
       <use xlink:href="#m9df3295ea3" x="221.500206" y="177.161269" style="stroke: #000000; stroke-width: 0.6"/>
      </g>
     </g>
    </g>
    <g id="xtick_33">
     <g id="line2d_33">
      <g>
       <use xlink:href="#m9df3295ea3" x="228.890532" y="177.161269" style="stroke: #000000; stroke-width: 0.6"/>
      </g>
     </g>
    </g>
    <g id="xtick_34">
     <g id="line2d_34">
      <g>
       <use xlink:href="#m9df3295ea3" x="243.671183" y="177.161269" style="stroke: #000000; stroke-width: 0.6"/>
      </g>
     </g>
    </g>
    <g id="xtick_35">
     <g id="line2d_35">
      <g>
       <use xlink:href="#m9df3295ea3" x="251.061508" y="177.161269" style="stroke: #000000; stroke-width: 0.6"/>
      </g>
     </g>
    </g>
    <g id="xtick_36">
     <g id="line2d_36">
      <g>
       <use xlink:href="#m9df3295ea3" x="258.451833" y="177.161269" style="stroke: #000000; stroke-width: 0.6"/>
      </g>
     </g>
    </g>
    <g id="xtick_37">
     <g id="line2d_37">
      <g>
       <use xlink:href="#m9df3295ea3" x="265.842159" y="177.161269" style="stroke: #000000; stroke-width: 0.6"/>
      </g>
     </g>
    </g>
    <g id="xtick_38">
     <g id="line2d_38">
      <g>
       <use xlink:href="#m9df3295ea3" x="280.62281" y="177.161269" style="stroke: #000000; stroke-width: 0.6"/>
      </g>
     </g>
    </g>
    <g id="xtick_39">
     <g id="line2d_39">
      <g>
       <use xlink:href="#m9df3295ea3" x="288.013135" y="177.161269" style="stroke: #000000; stroke-width: 0.6"/>
      </g>
     </g>
    </g>
    <g id="xtick_40">
     <g id="line2d_40">
      <g>
       <use xlink:href="#m9df3295ea3" x="295.403461" y="177.161269" style="stroke: #000000; stroke-width: 0.6"/>
      </g>
     </g>
    </g>
    <g id="xtick_41">
     <g id="line2d_41">
      <g>
       <use xlink:href="#m9df3295ea3" x="302.793786" y="177.161269" style="stroke: #000000; stroke-width: 0.6"/>
      </g>
     </g>
    </g>
    <g id="text_9">
     <!-- $x$ -->
     <g transform="translate(324.096372 177.161269) scale(0.16 -0.16)">
      <defs>
       <path id="Cmmi10-78" d="M 500 184 
Q 613 97 819 97 
Q 1019 97 1172 289 
Q 1325 481 1381 709 
L 1672 1844 
Q 1741 2153 1741 2266 
Q 1741 2425 1652 2544 
Q 1563 2663 1403 2663 
Q 1200 2663 1022 2536 
Q 844 2409 722 2214 
Q 600 2019 550 1819 
Q 538 1778 500 1778 
L 422 1778 
Q 372 1778 372 1838 
L 372 1856 
Q 434 2094 584 2320 
Q 734 2547 951 2687 
Q 1169 2828 1416 2828 
Q 1650 2828 1839 2703 
Q 2028 2578 2106 2363 
Q 2216 2559 2386 2693 
Q 2556 2828 2759 2828 
Q 2897 2828 3040 2779 
Q 3184 2731 3275 2631 
Q 3366 2531 3366 2381 
Q 3366 2219 3261 2101 
Q 3156 1984 2994 1984 
Q 2891 1984 2822 2050 
Q 2753 2116 2753 2216 
Q 2753 2350 2845 2451 
Q 2938 2553 3066 2572 
Q 2950 2663 2747 2663 
Q 2541 2663 2389 2472 
Q 2238 2281 2175 2047 
L 1894 916 
Q 1825 659 1825 494 
Q 1825 331 1917 214 
Q 2009 97 2163 97 
Q 2463 97 2698 361 
Q 2934 625 3009 941 
Q 3022 978 3059 978 
L 3138 978 
Q 3163 978 3178 961 
Q 3194 944 3194 922 
Q 3194 916 3188 903 
Q 3097 522 2806 225 
Q 2516 -72 2150 -72 
Q 1916 -72 1727 54 
Q 1538 181 1459 397 
Q 1359 209 1182 68 
Q 1006 -72 806 -72 
Q 669 -72 523 -23 
Q 378 25 287 125 
Q 197 225 197 378 
Q 197 528 301 651 
Q 406 775 563 775 
Q 669 775 741 711 
Q 813 647 813 544 
Q 813 409 723 309 
Q 634 209 500 184 
z
" transform="scale(0.015625)"/>
      </defs>
      <use xlink:href="#Cmmi10-78" transform="translate(0 0.8125)"/>
     </g>
    </g>
   </g>
   <g id="matplotlib.axis_2">
    <g id="ytick_1">
     <g id="line2d_42">
      <defs>
       <path id="m48a1e79864" d="M 0 0 
L -3.5 0 
" style="stroke: #000000; stroke-width: 0.8"/>
      </defs>
      <g>
       <use xlink:href="#m48a1e79864" x="162.377603" y="324.967778" style="stroke: #000000; stroke-width: 0.8"/>
      </g>
     </g>
     <g id="text_10">
      <!-- −4 -->
      <g transform="translate(140.635415 328.766997) scale(0.1 -0.1)">
       <use xlink:href="#DejaVuSans-2212"/>
       <use xlink:href="#DejaVuSans-34" transform="translate(83.789062 0)"/>
      </g>
     </g>
    </g>
    <g id="ytick_2">
     <g id="line2d_43">
      <g>
       <use xlink:href="#m48a1e79864" x="162.377603" y="288.016151" style="stroke: #000000; stroke-width: 0.8"/>
      </g>
     </g>
     <g id="text_11">
      <!-- −3 -->
      <g transform="translate(140.635415 291.81537) scale(0.1 -0.1)">
       <use xlink:href="#DejaVuSans-2212"/>
       <use xlink:href="#DejaVuSans-33" transform="translate(83.789062 0)"/>
      </g>
     </g>
    </g>
    <g id="ytick_3">
     <g id="line2d_44">
      <g>
       <use xlink:href="#m48a1e79864" x="162.377603" y="251.064524" style="stroke: #000000; stroke-width: 0.8"/>
      </g>
     </g>
     <g id="text_12">
      <!-- −2 -->
      <g transform="translate(140.635415 254.863742) scale(0.1 -0.1)">
       <use xlink:href="#DejaVuSans-2212"/>
       <use xlink:href="#DejaVuSans-32" transform="translate(83.789062 0)"/>
      </g>
     </g>
    </g>
    <g id="ytick_4">
     <g id="line2d_45">
      <g>
       <use xlink:href="#m48a1e79864" x="162.377603" y="214.112896" style="stroke: #000000; stroke-width: 0.8"/>
      </g>
     </g>
     <g id="text_13">
      <!-- −1 -->
      <g transform="translate(140.635415 217.912115) scale(0.1 -0.1)">
       <use xlink:href="#DejaVuSans-2212"/>
       <use xlink:href="#DejaVuSans-31" transform="translate(83.789062 0)"/>
      </g>
     </g>
    </g>
    <g id="ytick_5">
     <g id="line2d_46">
      <g>
       <use xlink:href="#m48a1e79864" x="162.377603" y="177.161269" style="stroke: #000000; stroke-width: 0.8"/>
      </g>
     </g>
    </g>
    <g id="ytick_6">
     <g id="line2d_47">
      <g>
       <use xlink:href="#m48a1e79864" x="162.377603" y="140.209642" style="stroke: #000000; stroke-width: 0.8"/>
      </g>
     </g>
     <g id="text_14">
      <!-- 1 -->
      <g transform="translate(149.015103 144.008861) scale(0.1 -0.1)">
       <use xlink:href="#DejaVuSans-31"/>
      </g>
     </g>
    </g>
    <g id="ytick_7">
     <g id="line2d_48">
      <g>
       <use xlink:href="#m48a1e79864" x="162.377603" y="103.258015" style="stroke: #000000; stroke-width: 0.8"/>
      </g>
     </g>
     <g id="text_15">
      <!-- 2 -->
      <g transform="translate(149.015103 107.057234) scale(0.1 -0.1)">
       <use xlink:href="#DejaVuSans-32"/>
      </g>
     </g>
    </g>
    <g id="ytick_8">
     <g id="line2d_49">
      <g>
       <use xlink:href="#m48a1e79864" x="162.377603" y="66.306388" style="stroke: #000000; stroke-width: 0.8"/>
      </g>
     </g>
     <g id="text_16">
      <!-- 3 -->
      <g transform="translate(149.015103 70.105606) scale(0.1 -0.1)">
       <use xlink:href="#DejaVuSans-33"/>
      </g>
     </g>
    </g>
    <g id="ytick_9">
     <g id="line2d_50">
      <g>
       <use xlink:href="#m48a1e79864" x="162.377603" y="29.35476" style="stroke: #000000; stroke-width: 0.8"/>
      </g>
     </g>
     <g id="text_17">
      <!-- 4 -->
      <g transform="translate(149.015103 33.153979) scale(0.1 -0.1)">
       <use xlink:href="#DejaVuSans-34"/>
      </g>
     </g>
    </g>
    <g id="ytick_10">
     <g id="line2d_51">
      <defs>
       <path id="mb41f61ec64" d="M 0 0 
L -2 0 
" style="stroke: #000000; stroke-width: 0.6"/>
      </defs>
      <g>
       <use xlink:href="#mb41f61ec64" x="162.377603" y="317.577453" style="stroke: #000000; stroke-width: 0.6"/>
      </g>
     </g>
    </g>
    <g id="ytick_11">
     <g id="line2d_52">
      <g>
       <use xlink:href="#mb41f61ec64" x="162.377603" y="310.187127" style="stroke: #000000; stroke-width: 0.6"/>
      </g>
     </g>
    </g>
    <g id="ytick_12">
     <g id="line2d_53">
      <g>
       <use xlink:href="#mb41f61ec64" x="162.377603" y="302.796802" style="stroke: #000000; stroke-width: 0.6"/>
      </g>
     </g>
    </g>
    <g id="ytick_13">
     <g id="line2d_54">
      <g>
       <use xlink:href="#mb41f61ec64" x="162.377603" y="295.406476" style="stroke: #000000; stroke-width: 0.6"/>
      </g>
     </g>
    </g>
    <g id="ytick_14">
     <g id="line2d_55">
      <g>
       <use xlink:href="#mb41f61ec64" x="162.377603" y="280.625825" style="stroke: #000000; stroke-width: 0.6"/>
      </g>
     </g>
    </g>
    <g id="ytick_15">
     <g id="line2d_56">
      <g>
       <use xlink:href="#mb41f61ec64" x="162.377603" y="273.2355" style="stroke: #000000; stroke-width: 0.6"/>
      </g>
     </g>
    </g>
    <g id="ytick_16">
     <g id="line2d_57">
      <g>
       <use xlink:href="#mb41f61ec64" x="162.377603" y="265.845175" style="stroke: #000000; stroke-width: 0.6"/>
      </g>
     </g>
    </g>
    <g id="ytick_17">
     <g id="line2d_58">
      <g>
       <use xlink:href="#mb41f61ec64" x="162.377603" y="258.454849" style="stroke: #000000; stroke-width: 0.6"/>
      </g>
     </g>
    </g>
    <g id="ytick_18">
     <g id="line2d_59">
      <g>
       <use xlink:href="#mb41f61ec64" x="162.377603" y="243.674198" style="stroke: #000000; stroke-width: 0.6"/>
      </g>
     </g>
    </g>
    <g id="ytick_19">
     <g id="line2d_60">
      <g>
       <use xlink:href="#mb41f61ec64" x="162.377603" y="236.283873" style="stroke: #000000; stroke-width: 0.6"/>
      </g>
     </g>
    </g>
    <g id="ytick_20">
     <g id="line2d_61">
      <g>
       <use xlink:href="#mb41f61ec64" x="162.377603" y="228.893547" style="stroke: #000000; stroke-width: 0.6"/>
      </g>
     </g>
    </g>
    <g id="ytick_21">
     <g id="line2d_62">
      <g>
       <use xlink:href="#mb41f61ec64" x="162.377603" y="221.503222" style="stroke: #000000; stroke-width: 0.6"/>
      </g>
     </g>
    </g>
    <g id="ytick_22">
     <g id="line2d_63">
      <g>
       <use xlink:href="#mb41f61ec64" x="162.377603" y="206.722571" style="stroke: #000000; stroke-width: 0.6"/>
      </g>
     </g>
    </g>
    <g id="ytick_23">
     <g id="line2d_64">
      <g>
       <use xlink:href="#mb41f61ec64" x="162.377603" y="199.332246" style="stroke: #000000; stroke-width: 0.6"/>
      </g>
     </g>
    </g>
    <g id="ytick_24">
     <g id="line2d_65">
      <g>
       <use xlink:href="#mb41f61ec64" x="162.377603" y="191.94192" style="stroke: #000000; stroke-width: 0.6"/>
      </g>
     </g>
    </g>
    <g id="ytick_25">
     <g id="line2d_66">
      <g>
       <use xlink:href="#mb41f61ec64" x="162.377603" y="184.551595" style="stroke: #000000; stroke-width: 0.6"/>
      </g>
     </g>
    </g>
    <g id="ytick_26">
     <g id="line2d_67">
      <g>
       <use xlink:href="#mb41f61ec64" x="162.377603" y="169.770944" style="stroke: #000000; stroke-width: 0.6"/>
      </g>
     </g>
    </g>
    <g id="ytick_27">
     <g id="line2d_68">
      <g>
       <use xlink:href="#mb41f61ec64" x="162.377603" y="162.380618" style="stroke: #000000; stroke-width: 0.6"/>
      </g>
     </g>
    </g>
    <g id="ytick_28">
     <g id="line2d_69">
      <g>
       <use xlink:href="#mb41f61ec64" x="162.377603" y="154.990293" style="stroke: #000000; stroke-width: 0.6"/>
      </g>
     </g>
    </g>
    <g id="ytick_29">
     <g id="line2d_70">
      <g>
       <use xlink:href="#mb41f61ec64" x="162.377603" y="147.599967" style="stroke: #000000; stroke-width: 0.6"/>
      </g>
     </g>
    </g>
    <g id="ytick_30">
     <g id="line2d_71">
      <g>
       <use xlink:href="#mb41f61ec64" x="162.377603" y="132.819317" style="stroke: #000000; stroke-width: 0.6"/>
      </g>
     </g>
    </g>
    <g id="ytick_31">
     <g id="line2d_72">
      <g>
       <use xlink:href="#mb41f61ec64" x="162.377603" y="125.428991" style="stroke: #000000; stroke-width: 0.6"/>
      </g>
     </g>
    </g>
    <g id="ytick_32">
     <g id="line2d_73">
      <g>
       <use xlink:href="#mb41f61ec64" x="162.377603" y="118.038666" style="stroke: #000000; stroke-width: 0.6"/>
      </g>
     </g>
    </g>
    <g id="ytick_33">
     <g id="line2d_74">
      <g>
       <use xlink:href="#mb41f61ec64" x="162.377603" y="110.64834" style="stroke: #000000; stroke-width: 0.6"/>
      </g>
     </g>
    </g>
    <g id="ytick_34">
     <g id="line2d_75">
      <g>
       <use xlink:href="#mb41f61ec64" x="162.377603" y="95.867689" style="stroke: #000000; stroke-width: 0.6"/>
      </g>
     </g>
    </g>
    <g id="ytick_35">
     <g id="line2d_76">
      <g>
       <use xlink:href="#mb41f61ec64" x="162.377603" y="88.477364" style="stroke: #000000; stroke-width: 0.6"/>
      </g>
     </g>
    </g>
    <g id="ytick_36">
     <g id="line2d_77">
      <g>
       <use xlink:href="#mb41f61ec64" x="162.377603" y="81.087038" style="stroke: #000000; stroke-width: 0.6"/>
      </g>
     </g>
    </g>
    <g id="ytick_37">
     <g id="line2d_78">
      <g>
       <use xlink:href="#mb41f61ec64" x="162.377603" y="73.696713" style="stroke: #000000; stroke-width: 0.6"/>
      </g>
     </g>
    </g>
    <g id="ytick_38">
     <g id="line2d_79">
      <g>
       <use xlink:href="#mb41f61ec64" x="162.377603" y="58.916062" style="stroke: #000000; stroke-width: 0.6"/>
      </g>
     </g>
    </g>
    <g id="ytick_39">
     <g id="line2d_80">
      <g>
       <use xlink:href="#mb41f61ec64" x="162.377603" y="51.525737" style="stroke: #000000; stroke-width: 0.6"/>
      </g>
     </g>
    </g>
    <g id="ytick_40">
     <g id="line2d_81">
      <g>
       <use xlink:href="#mb41f61ec64" x="162.377603" y="44.135411" style="stroke: #000000; stroke-width: 0.6"/>
      </g>
     </g>
    </g>
    <g id="ytick_41">
     <g id="line2d_82">
      <g>
       <use xlink:href="#mb41f61ec64" x="162.377603" y="36.745086" style="stroke: #000000; stroke-width: 0.6"/>
      </g>
     </g>
    </g>
    <g id="text_18">
     <!-- $y$ -->
     <g transform="translate(158.377603 12.0825) scale(0.16 -0.16)">
      <defs>
       <path id="Cmmi10-79" d="M 538 -916 
Q 672 -1147 1006 -1147 
Q 1309 -1147 1531 -934 
Q 1753 -722 1889 -420 
Q 2025 -119 2100 197 
Q 1816 -72 1484 -72 
Q 1231 -72 1053 15 
Q 875 103 776 276 
Q 678 450 678 697 
Q 678 906 734 1126 
Q 791 1347 892 1617 
Q 994 1888 1069 2088 
Q 1153 2322 1153 2472 
Q 1153 2663 1013 2663 
Q 759 2663 595 2402 
Q 431 2141 353 1819 
Q 341 1778 300 1778 
L 225 1778 
Q 172 1778 172 1838 
L 172 1856 
Q 275 2238 487 2533 
Q 700 2828 1025 2828 
Q 1253 2828 1411 2678 
Q 1569 2528 1569 2297 
Q 1569 2178 1516 2047 
Q 1488 1969 1388 1706 
Q 1288 1444 1234 1272 
Q 1181 1100 1147 934 
Q 1113 769 1113 603 
Q 1113 391 1203 244 
Q 1294 97 1491 97 
Q 1888 97 2203 581 
L 2688 2553 
Q 2709 2638 2787 2698 
Q 2866 2759 2956 2759 
Q 3034 2759 3092 2709 
Q 3150 2659 3150 2578 
Q 3150 2541 3144 2528 
L 2509 -19 
Q 2425 -347 2200 -647 
Q 1975 -947 1658 -1130 
Q 1341 -1313 997 -1313 
Q 831 -1313 668 -1248 
Q 506 -1184 406 -1056 
Q 306 -928 306 -756 
Q 306 -581 409 -453 
Q 513 -325 684 -325 
Q 788 -325 858 -389 
Q 928 -453 928 -556 
Q 928 -703 818 -812 
Q 709 -922 563 -922 
Q 556 -919 550 -917 
Q 544 -916 538 -916 
z
" transform="scale(0.015625)"/>
      </defs>
      <use xlink:href="#Cmmi10-79" transform="translate(0 0.8125)"/>
     </g>
    </g>
   </g>
   <g id="line2d_83">
    <path d="M 199.32923 177.161269 
L 199.221861 174.346425 
L 199.007657 172.296926 
L 198.550586 169.615538 
L 197.727022 166.398308 
L 196.547002 163.094469 
L 195.338813 160.458534 
L 193.933764 157.935468 
L 192.629372 155.942099 
L 191.14412 153.968378 
L 189.104676 151.644877 
L 187.944315 150.482326 
L 185.380644 148.242714 
L 182.656337 146.271211 
L 180.703786 145.074298 
L 178.04425 143.695183 
L 175.955731 142.794757 
L 172.813526 141.713924 
L 169.161878 140.837773 
L 167.144681 140.518429 
L 164.608507 140.277047 
L 161.220811 140.227753 
L 158.802266 140.383019 
L 155.065913 140.940254 
L 153.162847 141.377041 
L 150.812617 142.066058 
L 148.657612 142.851145 
L 146.801557 143.652919 
L 144.573086 144.781925 
L 141.589872 146.611425 
L 138.886085 148.638097 
L 136.245376 151.036004 
L 134.733707 152.641119 
L 132.626634 155.245461 
L 131.555887 156.778811 
L 129.717221 159.877686 
L 128.484616 162.440936 
L 127.304652 165.528949 
L 126.571549 168.031687 
L 126.02769 170.519988 
L 125.598849 173.591111 
L 125.436079 176.297228 
L 125.463604 178.828439 
L 125.725369 181.855577 
L 126.014764 183.731405 
L 126.849957 187.320458 
L 127.503 189.375394 
L 128.619295 192.187892 
L 130.012928 194.992437 
L 131.681522 197.732449 
L 133.716819 200.484696 
L 135.612147 202.637398 
L 137.534116 204.514952 
L 140.053226 206.606897 
L 141.94379 207.948962 
L 144.289934 209.383296 
L 147.512245 210.9909 
L 150.360986 212.104418 
L 152.892397 212.874763 
L 156.045949 213.566391 
L 158.613457 213.920676 
L 161.60232 214.104762 
L 165.118725 214.011086 
L 167.815651 213.710556 
L 170.239569 213.26684 
L 173.427401 212.422079 
L 176.233966 211.416546 
L 177.684458 210.79344 
L 180.930317 209.117795 
L 183.292944 207.62389 
L 185.562577 205.934168 
L 187.593184 204.172327 
L 188.92188 202.867769 
L 191.367659 200.074135 
L 192.897379 197.99312 
L 194.840643 194.812721 
L 196.364962 191.662379 
L 197.407649 188.922162 
L 198.421482 185.301386 
L 198.934815 182.545779 
L 199.230599 179.859312 
L 199.32923 177.161269 
L 199.32923 177.161269 
" clip-path="url(#p36d3314457)" style="fill: none; stroke-dasharray: 3.7,1.6; stroke-dashoffset: 0; stroke: #808080"/>
   </g>
   <g id="line2d_84">
    <path d="M 236.280857 177.161269 
L 236.216889 174.087047 
L 235.812995 168.858607 
L 235.364478 165.559245 
L 234.63478 161.650261 
L 233.670423 157.692712 
L 232.76651 154.64255 
L 231.391144 150.726024 
L 229.740356 146.764716 
L 228.076709 143.318716 
L 225.695168 139.048582 
L 224.100982 136.517506 
L 221.889083 133.342612 
L 219.594752 130.386395 
L 217.13652 127.531117 
L 214.097361 124.37152 
L 211.593675 122.029888 
L 208.889024 119.729756 
L 205.373593 117.052736 
L 202.426719 115.050406 
L 200.397555 113.787976 
L 197.653957 112.220759 
L 194.166217 110.444142 
L 191.855126 109.391316 
L 187.665996 107.719292 
L 183.004451 106.19491 
L 177.785335 104.882 
L 173.842002 104.152649 
L 168.845689 103.541606 
L 163.997491 103.27577 
L 162.600307 103.25835 
L 157.836837 103.397644 
L 152.991486 103.856482 
L 151.031499 104.134172 
L 144.728958 105.396261 
L 144.218865 105.523631 
L 138.528754 107.211834 
L 137.734957 107.487522 
L 133.261507 109.235251 
L 128.873344 111.289001 
L 126.543067 112.52709 
L 122.076289 115.21375 
L 118.066125 118.015822 
L 115.400537 120.110009 
L 112.051939 123.040861 
L 109.863578 125.161575 
L 106.942846 128.287157 
L 104.866316 130.748524 
L 102.051588 134.470955 
L 99.552819 138.241639 
L 97.662592 141.472918 
L 95.461984 145.792639 
L 93.859797 149.46648 
L 92.113278 154.256779 
L 91.095144 157.654805 
L 90.104278 161.725677 
L 89.29756 166.161343 
L 88.797793 170.254556 
L 88.508464 174.915969 
L 88.524134 179.873489 
L 88.803857 184.132277 
L 89.354948 188.535928 
L 90.176135 192.929563 
L 91.071885 196.582536 
L 92.283095 200.580301 
L 94.084956 205.406719 
L 95.887975 209.423018 
L 98.074187 213.58601 
L 99.594821 216.148617 
L 102.532192 220.522748 
L 105.564033 224.42552 
L 107.892885 227.092287 
L 110.613923 229.907951 
L 114.104469 233.120144 
L 116.202679 234.863673 
L 119.23876 237.167363 
L 122.310563 239.260571 
L 126.747802 241.908534 
L 131.149839 244.142743 
L 133.761834 245.299576 
L 136.127369 246.245394 
L 141.437874 248.035939 
L 146.632233 249.367739 
L 146.854449 249.415838 
L 151.984072 250.330016 
L 157.316271 250.891005 
L 161.862574 251.062729 
L 165.890272 250.980997 
L 170.128463 250.656951 
L 173.480846 250.225686 
L 177.08706 249.58587 
L 179.646575 249.018583 
L 184.967864 247.527249 
L 188.881834 246.148346 
L 190.598079 245.464239 
L 195.914945 243.0167 
L 199.759712 240.912888 
L 203.58393 238.510512 
L 207.557793 235.645809 
L 211.320229 232.535545 
L 214.171433 229.878346 
L 217.288198 226.623553 
L 220.012033 223.421008 
L 222.737035 219.804322 
L 225.10984 216.229893 
L 226.627167 213.680914 
L 228.418486 210.331931 
L 230.611695 205.547881 
L 231.913452 202.190387 
L 233.125378 198.525804 
L 234.206616 194.547581 
L 235.18285 189.853274 
L 235.743474 186.057336 
L 236.164037 181.314965 
L 236.280857 177.161269 
L 236.280857 177.161269 
" clip-path="url(#p36d3314457)" style="fill: none; stroke-dasharray: 3.7,1.6; stroke-dashoffset: 0; stroke: #808080"/>
   </g>
   <g id="line2d_85">
    <path d="M 273.232484 177.161269 
L 273.130054 172.396882 
L 272.700958 166.318665 
L 271.918925 160.146466 
L 271.056104 155.302905 
L 270.078229 150.905226 
L 268.534009 145.229746 
L 267.155563 140.962046 
L 264.898128 134.990821 
L 262.813458 130.241723 
L 260.953525 126.450399 
L 258.678972 122.25361 
L 256.24203 118.184375 
L 253.299739 113.742266 
L 250.804967 110.307653 
L 246.923206 105.461578 
L 244.645403 102.85909 
L 241.294011 99.308811 
L 237.761665 95.883672 
L 234.50814 92.982945 
L 230.956197 90.064879 
L 228.141582 87.920562 
L 223.08078 84.403902 
L 220.53758 82.788488 
L 215.545933 79.888799 
L 210.545129 77.317921 
L 206.38823 75.417132 
L 201.906077 73.593395 
L 196.306411 71.626248 
L 193.250178 70.692077 
L 187.079493 69.093599 
L 178.637555 67.505359 
L 172.403451 66.760693 
L 166.928479 66.39984 
L 163.953684 66.317592 
L 158.512439 66.373791 
L 151.925001 66.80028 
L 149.185472 67.094142 
L 144.74817 67.717184 
L 137.641607 69.1014 
L 133.567355 70.115604 
L 128.852576 71.497286 
L 123.858682 73.213698 
L 117.647026 75.731587 
L 112.356832 78.23338 
L 108.441037 80.312668 
L 103.711793 83.102098 
L 100.065447 85.477028 
L 97.257263 87.449809 
L 92.631519 90.996958 
L 88.909189 94.148036 
L 84.366014 98.402163 
L 80.474282 102.457515 
L 76.684394 106.837171 
L 74.154369 110.038502 
L 70.838105 114.636672 
L 67.96754 119.061831 
L 65.339819 123.56581 
L 63.103604 127.830975 
L 60.594164 133.241611 
L 59.277121 136.429273 
L 57.023485 142.674828 
L 55.622096 147.293786 
L 54.193645 152.973752 
L 53.078744 158.652778 
L 52.550855 162.098392 
L 52.005843 166.823018 
L 51.671647 171.417048 
L 51.522808 177.022493 
L 51.599268 181.28018 
L 51.878471 186.035202 
L 52.526924 192.048621 
L 53.462338 197.807574 
L 54.470849 202.556884 
L 56.091339 208.657855 
L 57.668109 213.558065 
L 59.207463 217.716504 
L 60.72564 221.384378 
L 62.781163 225.83728 
L 64.654067 229.495916 
L 67.277184 234.123671 
L 70.308372 238.903164 
L 73.875541 243.915969 
L 76.404848 247.14334 
L 80.171416 251.531611 
L 82.860758 254.400354 
L 87.237153 258.664138 
L 90.51234 261.566179 
L 95.423652 265.512689 
L 98.920883 268.057086 
L 103.058585 270.809862 
L 105.480358 272.300684 
L 111.819255 275.815505 
L 117.948262 278.723263 
L 122.509147 280.598743 
L 128.774257 282.800372 
L 132.567441 283.932797 
L 137.844451 285.267371 
L 140.859429 285.907639 
L 146.64736 286.894419 
L 150.683396 287.397608 
L 158.15349 287.935642 
L 163.901986 288.005669 
L 167.4936 287.898035 
L 174.708485 287.328207 
L 181.292502 286.39053 
L 185.868738 285.498573 
L 191.05178 284.243464 
L 196.647311 282.586085 
L 200.463125 281.268415 
L 206.465218 278.87207 
L 212.073636 276.252687 
L 213.970748 275.278302 
L 220.12662 271.786085 
L 224.51474 268.964216 
L 229.091667 265.693966 
L 233.493259 262.198721 
L 237.286808 258.876725 
L 241.708955 254.590858 
L 244.918815 251.159601 
L 248.005735 247.564591 
L 251.558337 243.006553 
L 254.875854 238.258554 
L 257.522514 234.049323 
L 259.867884 229.929156 
L 262.40834 224.938423 
L 264.604952 220.037531 
L 266.123256 216.220764 
L 268.128885 210.409895 
L 269.243919 206.629815 
L 270.068745 203.456187 
L 271.155735 198.518297 
L 271.875104 194.455831 
L 272.572189 189.242573 
L 272.87794 186.020182 
L 273.147241 181.507763 
L 273.232484 177.161269 
L 273.232484 177.161269 
" clip-path="url(#p36d3314457)" style="fill: none; stroke-dasharray: 3.7,1.6; stroke-dashoffset: 0; stroke: #808080"/>
   </g>
   <g id="line2d_86">
    <path d="M 310.184112 177.161269 
L 310.035657 170.538356 
L 309.681531 164.982735 
L 309.048454 158.873969 
L 308.238901 153.260522 
L 307.455947 148.894006 
L 305.813603 141.483857 
L 303.971386 134.758857 
L 302.404367 129.840352 
L 300.300196 124.018797 
L 297.400972 117.032627 
L 294.484539 110.870083 
L 292.103845 106.32437 
L 288.268863 99.713514 
L 285.577906 95.500695 
L 281.864046 90.156937 
L 278.80797 86.107803 
L 274.812202 81.217406 
L 270.719298 76.618536 
L 267.332819 73.088378 
L 261.740141 67.736181 
L 257.045784 63.650479 
L 252.721127 60.179169 
L 247.196712 56.113829 
L 241.099411 52.062744 
L 234.748902 48.284743 
L 228.881974 45.161524 
L 222.816351 42.276423 
L 218.445852 40.401935 
L 213.781242 38.58122 
L 209.558965 37.087421 
L 201.713787 34.685206 
L 200.036378 34.232683 
L 193.32572 32.631071 
L 185.742863 31.213235 
L 180.795669 30.506781 
L 173.939919 29.807691 
L 167.363227 29.438869 
L 160.697794 29.364306 
L 152.861313 29.661424 
L 147.186536 30.137477 
L 142.922668 30.640726 
L 137.799007 31.412661 
L 128.497321 33.290179 
L 125.641191 33.992837 
L 120.766908 35.332802 
L 113.204926 37.773996 
L 106.89348 40.163911 
L 99.040961 43.612649 
L 92.632062 46.845025 
L 89.364165 48.647449 
L 82.883857 52.551845 
L 76.852824 56.611378 
L 72.141438 60.096336 
L 68.035653 63.379194 
L 63.471813 67.323166 
L 59.91653 70.631965 
L 56.112356 74.426361 
L 51.792892 79.090959 
L 46.795135 85.033872 
L 42.741728 90.362528 
L 39.408167 95.153452 
L 36.501433 99.68899 
L 33.207896 105.314551 
L 30.96829 109.497715 
L 28.353687 114.836682 
L 26.447999 119.110371 
L 24.281468 124.471407 
L 22.320819 129.929274 
L 20.37147 136.160996 
L 18.630181 142.760067 
L 17.303953 148.869921 
L 16.34037 154.360154 
L 15.605044 159.709049 
L 15.14392 164.161008 
L 14.723411 170.452783 
L 14.57453 176.153473 
L 14.624487 181.133775 
L 14.895843 186.95385 
L 15.492655 193.640839 
L 16.170604 198.847151 
L 17.41232 206.002748 
L 18.725118 211.956781 
L 20.159804 217.421196 
L 22.353906 224.491265 
L 24.231132 229.719017 
L 26.008303 234.171602 
L 28.327283 239.429044 
L 31.224001 245.319151 
L 33.700227 249.886073 
L 36.950359 255.358268 
L 40.589069 260.912789 
L 44.222591 265.965309 
L 47.005054 269.551415 
L 51.097611 274.441933 
L 54.975898 278.707505 
L 58.769134 282.574974 
L 63.974461 287.449917 
L 69.162342 291.868197 
L 74.467048 295.982557 
L 79.778931 299.734608 
L 83.055323 301.879913 
L 89.945432 306.003594 
L 93.472501 307.923844 
L 100.848284 311.552143 
L 104.687763 313.244503 
L 109.529457 315.196908 
L 114.640251 317.046613 
L 120.023132 318.769401 
L 128.417202 321.013468 
L 133.441909 322.107776 
L 142.165132 323.579233 
L 149.565113 324.411411 
L 160.39705 324.954508 
L 168.278598 324.849936 
L 175.817295 324.35549 
L 179.757274 323.942437 
L 186.765812 322.941855 
L 190.035181 322.357076 
L 197.374508 320.764823 
L 200.731103 319.905002 
L 205.92017 318.408602 
L 212.14612 316.336909 
L 215.316942 315.161959 
L 222.797005 312.054782 
L 225.962729 310.59176 
L 230.530761 308.317325 
L 236.634498 304.960634 
L 243.235706 300.889727 
L 248.423341 297.339866 
L 253.252544 293.73103 
L 257.657578 290.159014 
L 261.953911 286.391864 
L 265.777758 282.779317 
L 268.927267 279.601169 
L 273.941752 274.115921 
L 278.223495 268.957202 
L 281.535827 264.61458 
L 284.737537 260.075747 
L 287.745086 255.454041 
L 290.416607 251.004194 
L 292.964722 246.398314 
L 296.051261 240.233585 
L 298.877798 233.857484 
L 301.023479 228.387093 
L 302.7558 223.429246 
L 304.568736 217.515274 
L 306.178401 211.338666 
L 307.617639 204.585634 
L 308.547588 199.095246 
L 309.318341 193.13573 
L 309.850063 187.092906 
L 310.145434 180.542411 
L 310.184112 177.161269 
L 310.184112 177.161269 
" clip-path="url(#p36d3314457)" style="fill: none; stroke-dasharray: 3.7,1.6; stroke-dashoffset: 0; stroke: #808080"/>
   </g>
   <g id="line2d_87">
    <path d="M 337.436372 118.086388 
L 335.017925 111.351788 
L 332.421361 104.906933 
L 330.521605 100.589974 
L 326.939286 93.167095 
L 324.237608 88.071946 
L 320.771347 82.045599 
L 317.731293 77.157271 
L 313.765164 71.249159 
L 308.973625 64.710501 
L 305.654425 60.510847 
L 301.033163 55.053922 
L 297.870291 51.553545 
L 292.748699 46.245471 
L 287.182144 40.928397 
L 282.221841 36.545028 
L 276.567631 31.915938 
L 270.526256 27.36328 
L 264.977761 23.509792 
L 261.087681 20.98224 
L 253.293983 16.320414 
L 246.715559 12.775509 
L 239.142829 9.105716 
L 232.278113 6.136454 
L 228.423318 4.611183 
L 223.49425 2.804382 
L 218.595472 1.163769 
L 211.22992 -1 
M 113.543871 -1 
L 109.643963 0.088595 
L 101.378271 2.763304 
L 97.591397 4.134345 
L 92.720943 6.036991 
L 85.224889 9.283255 
L 78.571218 12.503871 
L 71.592527 16.246264 
L 65.518775 19.827432 
L 60.76513 22.854839 
L 54.588548 27.104318 
L 49.789799 30.670467 
L 44.531786 34.86604 
L 38.654104 39.945874 
L 34.296344 44.004369 
L 29.124644 49.17995 
L 23.532154 55.269882 
L 18.461955 61.299908 
L 13.655483 67.537823 
L 10.809203 71.508114 
L 6.726089 77.621452 
L 3.117956 83.502667 
L 0.135775 88.769199 
L -1 90.895819 
M -1 263.428965 
L 0.511122 266.238827 
L 4.179973 272.602763 
L 8.222846 279.003696 
L 11.826714 284.259349 
L 15.592716 289.365395 
L 20.0735 294.996371 
L 24.582969 300.239324 
L 30.527405 306.587288 
L 35.29159 311.268369 
L 40.889737 316.359931 
L 45.094594 319.920734 
L 49.403762 323.354567 
L 55.172509 327.635974 
L 62.776085 332.773308 
L 69.32765 336.777293 
L 73.413138 339.080038 
M 251.350713 339.080038 
L 256.137227 336.361463 
L 262.169234 332.651459 
L 268.251111 328.575829 
L 273.973971 324.408746 
L 280.533803 319.198874 
L 284.937561 315.416922 
L 290.672365 310.112474 
L 294.662777 306.142669 
L 298.530409 302.053151 
L 303.047537 296.942479 
L 307.664813 291.298009 
L 312.140544 285.358452 
L 316.565375 278.953704 
L 320.872549 272.108207 
L 325.052584 264.753616 
L 327.357817 260.33036 
L 329.93188 255.014548 
L 333.195345 247.566295 
L 336.037792 240.230338 
L 337.436372 236.235142 
L 337.436372 236.235142 
" clip-path="url(#p36d3314457)" style="fill: none; stroke-dasharray: 3.7,1.6; stroke-dashoffset: 0; stroke: #808080"/>
   </g>
   <g id="line2d_88">
    <path d="M 162.377603 177.161269 
L 337.436372 104.649553 
" clip-path="url(#p36d3314457)" style="fill: none; stroke: #808080; stroke-linecap: square"/>
   </g>
   <g id="line2d_89">
    <path d="M 162.377603 177.161269 
L 319.15008 20.388792 
" clip-path="url(#p36d3314457)" style="fill: none; stroke: #808080; stroke-linecap: square"/>
   </g>
   <g id="line2d_90">
    <path d="M 162.377603 177.161269 
L 236.174417 -1 
" clip-path="url(#p36d3314457)" style="fill: none; stroke: #808080; stroke-linecap: square"/>
   </g>
   <g id="line2d_91">
    <path d="M 162.377603 177.161269 
L 162.377603 -1 
" clip-path="url(#p36d3314457)" style="fill: none; stroke: #808080; stroke-linecap: square"/>
   </g>
   <g id="line2d_92">
    <path d="M 162.377603 177.161269 
L 88.580789 -1 
" clip-path="url(#p36d3314457)" style="fill: none; stroke: #808080; stroke-linecap: square"/>
   </g>
   <g id="line2d_93">
    <path d="M 162.377603 177.161269 
L 5.605126 20.388792 
" clip-path="url(#p36d3314457)" style="fill: none; stroke: #808080; stroke-linecap: square"/>
   </g>
   <g id="line2d_94">
    <path d="M 162.377603 177.161269 
L -1 109.48805 
" clip-path="url(#p36d3314457)" style="fill: none; stroke: #808080; stroke-linecap: square"/>
   </g>
   <g id="line2d_95">
    <path d="M 162.377603 177.161269 
L -1 177.161269 
" clip-path="url(#p36d3314457)" style="fill: none; stroke: #808080; stroke-linecap: square"/>
   </g>
   <g id="line2d_96">
    <path d="M 162.377603 177.161269 
L -1 244.834488 
" clip-path="url(#p36d3314457)" style="fill: none; stroke: #808080; stroke-linecap: square"/>
   </g>
   <g id="line2d_97">
    <path d="M 162.377603 177.161269 
L 5.605126 333.933746 
" clip-path="url(#p36d3314457)" style="fill: none; stroke: #808080; stroke-linecap: square"/>
   </g>
   <g id="line2d_98">
    <path d="M 162.377603 177.161269 
L 95.308652 339.080038 
" clip-path="url(#p36d3314457)" style="fill: none; stroke: #808080; stroke-linecap: square"/>
   </g>
   <g id="line2d_99">
    <path d="M 162.377603 177.161269 
L 162.377603 339.080038 
" clip-path="url(#p36d3314457)" style="fill: none; stroke: #808080; stroke-linecap: square"/>
   </g>
   <g id="line2d_100">
    <path d="M 162.377603 177.161269 
L 229.446553 339.080038 
" clip-path="url(#p36d3314457)" style="fill: none; stroke: #808080; stroke-linecap: square"/>
   </g>
   <g id="line2d_101">
    <path d="M 162.377603 177.161269 
L 319.15008 333.933746 
" clip-path="url(#p36d3314457)" style="fill: none; stroke: #808080; stroke-linecap: square"/>
   </g>
   <g id="line2d_102">
    <path d="M 162.377603 177.161269 
L 337.436372 249.672986 
" clip-path="url(#p36d3314457)" style="fill: none; stroke: #808080; stroke-linecap: square"/>
   </g>
   <g id="patch_3">
    <path d="M 162.377603 330.880038 
L 162.377603 23.4425 
" style="fill: none; stroke: #000000; stroke-width: 0.8; stroke-linejoin: miter; stroke-linecap: square"/>
   </g>
   <g id="patch_4">
    <path d="M 8.658833 177.161269 
L 316.096372 177.161269 
" style="fill: none; stroke: #000000; stroke-width: 0.8; stroke-linejoin: miter; stroke-linecap: square"/>
   </g>
  </g>
 </g>
 <defs>
  <clipPath id="p36d3314457">
   <rect x="8.658833" y="23.4425" width="307.437538" height="307.437538"/>
  </clipPath>
 </defs>
</svg>
