<?xml version="1.0" encoding="utf-8" standalone="no"?>
<!DOCTYPE svg PUBLIC "-//W3C//DTD SVG 1.1//EN"
  "http://www.w3.org/Graphics/SVG/1.1/DTD/svg11.dtd">
<svg xmlns:xlink="http://www.w3.org/1999/xlink" width="336.436372pt" height="338.080038pt" viewBox="0 0 336.436372 338.080038" xmlns="http://www.w3.org/2000/svg" version="1.1">
 <metadata>
  <rdf:RDF xmlns:dc="http://purl.org/dc/elements/1.1/" xmlns:cc="http://creativecommons.org/ns#" xmlns:rdf="http://www.w3.org/1999/02/22-rdf-syntax-ns#">
   <cc:Work>
    <dc:type rdf:resource="http://purl.org/dc/dcmitype/StillImage"/>
    <dc:date>2025-09-03T15:05:03.124778</dc:date>
    <dc:format>image/svg+xml</dc:format>
    <dc:creator>
     <cc:Agent>
      <dc:title>Matplotlib v3.10.5, https://matplotlib.org/</dc:title>
     </cc:Agent>
    </dc:creator>
   </cc:Work>
  </rdf:RDF>
 </metadata>
 <defs>
  <style type="text/css">*{stroke-linejoin: round; stroke-linecap: butt}</style>
 </defs>
 <g id="figure_1">
  <g id="patch_1">
   <path d="M 0 338.080038 
L 336.436372 338.080038 
L 336.436372 0 
L 0 0 
z
" style="fill: #ffffff"/>
  </g>
  <g id="axes_1">
   <g id="patch_2">
    <path d="M 8.658833 330.880038 
L 316.096372 330.880038 
L 316.096372 23.4425 
L 8.658833 23.4425 
z
" style="fill: #ffffff"/>
   </g>
   <g id="PathCollection_1">
    <path d="M 162.377603 177.161269 
C 162.377603 177.161269 162.377603 177.161269 162.377603 177.161269 
C 162.377603 177.161269 162.377603 177.161269 162.377603 177.161269 
C 162.377603 177.161269 162.377603 177.161269 162.377603 177.161269 
C 162.377603 177.161269 162.377603 177.161269 162.377603 177.161269 
C 162.377603 177.161269 162.377603 177.161269 162.377603 177.161269 
C 162.377603 177.161269 162.377603 177.161269 162.377603 177.161269 
C 162.377603 177.161269 162.377603 177.161269 162.377603 177.161269 
C 162.377603 177.161269 162.377603 177.161269 162.377603 177.161269 
z
" clip-path="url(#p4208337010)"/>
   </g>
   <g id="matplotlib.axis_1">
    <g id="xtick_1">
     <g id="line2d_1">
      <defs>
       <path id="m6b020beb5c" d="M 0 0 
L 0 3.5 
" style="stroke: #000000; stroke-width: 0.8"/>
      </defs>
      <g>
       <use xlink:href="#m6b020beb5c" x="14.571094" y="177.161269" style="stroke: #000000; stroke-width: 0.8"/>
      </g>
     </g>
     <g id="text_1">
      <!-- −4 -->
      <g transform="translate(7.2 191.759707) scale(0.1 -0.1)">
       <defs>
        <path id="DejaVuSans-2212" d="M 678 2272 
L 4684 2272 
L 4684 1741 
L 678 1741 
L 678 2272 
z
" transform="scale(0.015625)"/>
        <path id="DejaVuSans-34" d="M 2419 4116 
L 825 1625 
L 2419 1625 
L 2419 4116 
z
M 2253 4666 
L 3047 4666 
L 3047 1625 
L 3713 1625 
L 3713 1100 
L 3047 1100 
L 3047 0 
L 2419 0 
L 2419 1100 
L 313 1100 
L 313 1709 
L 2253 4666 
z
" transform="scale(0.015625)"/>
       </defs>
       <use xlink:href="#DejaVuSans-2212"/>
       <use xlink:href="#DejaVuSans-34" transform="translate(83.789062 0)"/>
      </g>
     </g>
    </g>
    <g id="xtick_2">
     <g id="line2d_2">
      <g>
       <use xlink:href="#m6b020beb5c" x="51.522721" y="177.161269" style="stroke: #000000; stroke-width: 0.8"/>
      </g>
     </g>
     <g id="text_2">
      <!-- −3 -->
      <g transform="translate(44.151627 191.759707) scale(0.1 -0.1)">
       <defs>
        <path id="DejaVuSans-33" d="M 2597 2516 
Q 3050 2419 3304 2112 
Q 3559 1806 3559 1356 
Q 3559 666 3084 287 
Q 2609 -91 1734 -91 
Q 1441 -91 1130 -33 
Q 819 25 488 141 
L 488 750 
Q 750 597 1062 519 
Q 1375 441 1716 441 
Q 2309 441 2620 675 
Q 2931 909 2931 1356 
Q 2931 1769 2642 2001 
Q 2353 2234 1838 2234 
L 1294 2234 
L 1294 2753 
L 1863 2753 
Q 2328 2753 2575 2939 
Q 2822 3125 2822 3475 
Q 2822 3834 2567 4026 
Q 2313 4219 1838 4219 
Q 1578 4219 1281 4162 
Q 984 4106 628 3988 
L 628 4550 
Q 988 4650 1302 4700 
Q 1616 4750 1894 4750 
Q 2613 4750 3031 4423 
Q 3450 4097 3450 3541 
Q 3450 3153 3228 2886 
Q 3006 2619 2597 2516 
z
" transform="scale(0.015625)"/>
       </defs>
       <use xlink:href="#DejaVuSans-2212"/>
       <use xlink:href="#DejaVuSans-33" transform="translate(83.789062 0)"/>
      </g>
     </g>
    </g>
    <g id="xtick_3">
     <g id="line2d_3">
      <g>
       <use xlink:href="#m6b020beb5c" x="88.474348" y="177.161269" style="stroke: #000000; stroke-width: 0.8"/>
      </g>
     </g>
     <g id="text_3">
      <!-- −2 -->
      <g transform="translate(81.103254 191.759707) scale(0.1 -0.1)">
       <defs>
        <path id="DejaVuSans-32" d="M 1228 531 
L 3431 531 
L 3431 0 
L 469 0 
L 469 531 
Q 828 903 1448 1529 
Q 2069 2156 2228 2338 
Q 2531 2678 2651 2914 
Q 2772 3150 2772 3378 
Q 2772 3750 2511 3984 
Q 2250 4219 1831 4219 
Q 1534 4219 1204 4116 
Q 875 4013 500 3803 
L 500 4441 
Q 881 4594 1212 4672 
Q 1544 4750 1819 4750 
Q 2544 4750 2975 4387 
Q 3406 4025 3406 3419 
Q 3406 3131 3298 2873 
Q 3191 2616 2906 2266 
Q 2828 2175 2409 1742 
Q 1991 1309 1228 531 
z
" transform="scale(0.015625)"/>
       </defs>
       <use xlink:href="#DejaVuSans-2212"/>
       <use xlink:href="#DejaVuSans-32" transform="translate(83.789062 0)"/>
      </g>
     </g>
    </g>
    <g id="xtick_4">
     <g id="line2d_4">
      <g>
       <use xlink:href="#m6b020beb5c" x="125.425975" y="177.161269" style="stroke: #000000; stroke-width: 0.8"/>
      </g>
     </g>
     <g id="text_4">
      <!-- −1 -->
      <g transform="translate(118.054882 191.759707) scale(0.1 -0.1)">
       <defs>
        <path id="DejaVuSans-31" d="M 794 531 
L 1825 531 
L 1825 4091 
L 703 3866 
L 703 4441 
L 1819 4666 
L 2450 4666 
L 2450 531 
L 3481 531 
L 3481 0 
L 794 0 
L 794 531 
z
" transform="scale(0.015625)"/>
       </defs>
       <use xlink:href="#DejaVuSans-2212"/>
       <use xlink:href="#DejaVuSans-31" transform="translate(83.789062 0)"/>
      </g>
     </g>
    </g>
    <g id="xtick_5">
     <g id="line2d_5">
      <g>
       <use xlink:href="#m6b020beb5c" x="162.377603" y="177.161269" style="stroke: #000000; stroke-width: 0.8"/>
      </g>
     </g>
    </g>
    <g id="xtick_6">
     <g id="line2d_6">
      <g>
       <use xlink:href="#m6b020beb5c" x="199.32923" y="177.161269" style="stroke: #000000; stroke-width: 0.8"/>
      </g>
     </g>
     <g id="text_5">
      <!-- 1 -->
      <g transform="translate(196.14798 191.759707) scale(0.1 -0.1)">
       <use xlink:href="#DejaVuSans-31"/>
      </g>
     </g>
    </g>
    <g id="xtick_7">
     <g id="line2d_7">
      <g>
       <use xlink:href="#m6b020beb5c" x="236.280857" y="177.161269" style="stroke: #000000; stroke-width: 0.8"/>
      </g>
     </g>
     <g id="text_6">
      <!-- 2 -->
      <g transform="translate(233.099607 191.759707) scale(0.1 -0.1)">
       <use xlink:href="#DejaVuSans-32"/>
      </g>
     </g>
    </g>
    <g id="xtick_8">
     <g id="line2d_8">
      <g>
       <use xlink:href="#m6b020beb5c" x="273.232484" y="177.161269" style="stroke: #000000; stroke-width: 0.8"/>
      </g>
     </g>
     <g id="text_7">
      <!-- 3 -->
      <g transform="translate(270.051234 191.759707) scale(0.1 -0.1)">
       <use xlink:href="#DejaVuSans-33"/>
      </g>
     </g>
    </g>
    <g id="xtick_9">
     <g id="line2d_9">
      <g>
       <use xlink:href="#m6b020beb5c" x="310.184112" y="177.161269" style="stroke: #000000; stroke-width: 0.8"/>
      </g>
     </g>
     <g id="text_8">
      <!-- 4 -->
      <g transform="translate(307.002862 191.759707) scale(0.1 -0.1)">
       <use xlink:href="#DejaVuSans-34"/>
      </g>
     </g>
    </g>
    <g id="xtick_10">
     <g id="line2d_10">
      <defs>
       <path id="mb22ef1c3fc" d="M 0 0 
L 0 2 
" style="stroke: #000000; stroke-width: 0.6"/>
      </defs>
      <g>
       <use xlink:href="#mb22ef1c3fc" x="21.961419" y="177.161269" style="stroke: #000000; stroke-width: 0.6"/>
      </g>
     </g>
    </g>
    <g id="xtick_11">
     <g id="line2d_11">
      <g>
       <use xlink:href="#mb22ef1c3fc" x="29.351745" y="177.161269" style="stroke: #000000; stroke-width: 0.6"/>
      </g>
     </g>
    </g>
    <g id="xtick_12">
     <g id="line2d_12">
      <g>
       <use xlink:href="#mb22ef1c3fc" x="36.74207" y="177.161269" style="stroke: #000000; stroke-width: 0.6"/>
      </g>
     </g>
    </g>
    <g id="xtick_13">
     <g id="line2d_13">
      <g>
       <use xlink:href="#mb22ef1c3fc" x="44.132396" y="177.161269" style="stroke: #000000; stroke-width: 0.6"/>
      </g>
     </g>
    </g>
    <g id="xtick_14">
     <g id="line2d_14">
      <g>
       <use xlink:href="#mb22ef1c3fc" x="58.913046" y="177.161269" style="stroke: #000000; stroke-width: 0.6"/>
      </g>
     </g>
    </g>
    <g id="xtick_15">
     <g id="line2d_15">
      <g>
       <use xlink:href="#mb22ef1c3fc" x="66.303372" y="177.161269" style="stroke: #000000; stroke-width: 0.6"/>
      </g>
     </g>
    </g>
    <g id="xtick_16">
     <g id="line2d_16">
      <g>
       <use xlink:href="#mb22ef1c3fc" x="73.693697" y="177.161269" style="stroke: #000000; stroke-width: 0.6"/>
      </g>
     </g>
    </g>
    <g id="xtick_17">
     <g id="line2d_17">
      <g>
       <use xlink:href="#mb22ef1c3fc" x="81.084023" y="177.161269" style="stroke: #000000; stroke-width: 0.6"/>
      </g>
     </g>
    </g>
    <g id="xtick_18">
     <g id="line2d_18">
      <g>
       <use xlink:href="#mb22ef1c3fc" x="95.864674" y="177.161269" style="stroke: #000000; stroke-width: 0.6"/>
      </g>
     </g>
    </g>
    <g id="xtick_19">
     <g id="line2d_19">
      <g>
       <use xlink:href="#mb22ef1c3fc" x="103.254999" y="177.161269" style="stroke: #000000; stroke-width: 0.6"/>
      </g>
     </g>
    </g>
    <g id="xtick_20">
     <g id="line2d_20">
      <g>
       <use xlink:href="#mb22ef1c3fc" x="110.645325" y="177.161269" style="stroke: #000000; stroke-width: 0.6"/>
      </g>
     </g>
    </g>
    <g id="xtick_21">
     <g id="line2d_21">
      <g>
       <use xlink:href="#mb22ef1c3fc" x="118.03565" y="177.161269" style="stroke: #000000; stroke-width: 0.6"/>
      </g>
     </g>
    </g>
    <g id="xtick_22">
     <g id="line2d_22">
      <g>
       <use xlink:href="#mb22ef1c3fc" x="132.816301" y="177.161269" style="stroke: #000000; stroke-width: 0.6"/>
      </g>
     </g>
    </g>
    <g id="xtick_23">
     <g id="line2d_23">
      <g>
       <use xlink:href="#mb22ef1c3fc" x="140.206626" y="177.161269" style="stroke: #000000; stroke-width: 0.6"/>
      </g>
     </g>
    </g>
    <g id="xtick_24">
     <g id="line2d_24">
      <g>
       <use xlink:href="#mb22ef1c3fc" x="147.596952" y="177.161269" style="stroke: #000000; stroke-width: 0.6"/>
      </g>
     </g>
    </g>
    <g id="xtick_25">
     <g id="line2d_25">
      <g>
       <use xlink:href="#mb22ef1c3fc" x="154.987277" y="177.161269" style="stroke: #000000; stroke-width: 0.6"/>
      </g>
     </g>
    </g>
    <g id="xtick_26">
     <g id="line2d_26">
      <g>
       <use xlink:href="#mb22ef1c3fc" x="169.767928" y="177.161269" style="stroke: #000000; stroke-width: 0.6"/>
      </g>
     </g>
    </g>
    <g id="xtick_27">
     <g id="line2d_27">
      <g>
       <use xlink:href="#mb22ef1c3fc" x="177.158254" y="177.161269" style="stroke: #000000; stroke-width: 0.6"/>
      </g>
     </g>
    </g>
    <g id="xtick_28">
     <g id="line2d_28">
      <g>
       <use xlink:href="#mb22ef1c3fc" x="184.548579" y="177.161269" style="stroke: #000000; stroke-width: 0.6"/>
      </g>
     </g>
    </g>
    <g id="xtick_29">
     <g id="line2d_29">
      <g>
       <use xlink:href="#mb22ef1c3fc" x="191.938904" y="177.161269" style="stroke: #000000; stroke-width: 0.6"/>
      </g>
     </g>
    </g>
    <g id="xtick_30">
     <g id="line2d_30">
      <g>
       <use xlink:href="#mb22ef1c3fc" x="206.719555" y="177.161269" style="stroke: #000000; stroke-width: 0.6"/>
      </g>
     </g>
    </g>
    <g id="xtick_31">
     <g id="line2d_31">
      <g>
       <use xlink:href="#mb22ef1c3fc" x="214.109881" y="177.161269" style="stroke: #000000; stroke-width: 0.6"/>
      </g>
     </g>
    </g>
    <g id="xtick_32">
     <g id="line2d_32">
      <g>
       <use xlink:href="#mb22ef1c3fc" x="221.500206" y="177.161269" style="stroke: #000000; stroke-width: 0.6"/>
      </g>
     </g>
    </g>
    <g id="xtick_33">
     <g id="line2d_33">
      <g>
       <use xlink:href="#mb22ef1c3fc" x="228.890532" y="177.161269" style="stroke: #000000; stroke-width: 0.6"/>
      </g>
     </g>
    </g>
    <g id="xtick_34">
     <g id="line2d_34">
      <g>
       <use xlink:href="#mb22ef1c3fc" x="243.671183" y="177.161269" style="stroke: #000000; stroke-width: 0.6"/>
      </g>
     </g>
    </g>
    <g id="xtick_35">
     <g id="line2d_35">
      <g>
       <use xlink:href="#mb22ef1c3fc" x="251.061508" y="177.161269" style="stroke: #000000; stroke-width: 0.6"/>
      </g>
     </g>
    </g>
    <g id="xtick_36">
     <g id="line2d_36">
      <g>
       <use xlink:href="#mb22ef1c3fc" x="258.451833" y="177.161269" style="stroke: #000000; stroke-width: 0.6"/>
      </g>
     </g>
    </g>
    <g id="xtick_37">
     <g id="line2d_37">
      <g>
       <use xlink:href="#mb22ef1c3fc" x="265.842159" y="177.161269" style="stroke: #000000; stroke-width: 0.6"/>
      </g>
     </g>
    </g>
    <g id="xtick_38">
     <g id="line2d_38">
      <g>
       <use xlink:href="#mb22ef1c3fc" x="280.62281" y="177.161269" style="stroke: #000000; stroke-width: 0.6"/>
      </g>
     </g>
    </g>
    <g id="xtick_39">
     <g id="line2d_39">
      <g>
       <use xlink:href="#mb22ef1c3fc" x="288.013135" y="177.161269" style="stroke: #000000; stroke-width: 0.6"/>
      </g>
     </g>
    </g>
    <g id="xtick_40">
     <g id="line2d_40">
      <g>
       <use xlink:href="#mb22ef1c3fc" x="295.403461" y="177.161269" style="stroke: #000000; stroke-width: 0.6"/>
      </g>
     </g>
    </g>
    <g id="xtick_41">
     <g id="line2d_41">
      <g>
       <use xlink:href="#mb22ef1c3fc" x="302.793786" y="177.161269" style="stroke: #000000; stroke-width: 0.6"/>
      </g>
     </g>
    </g>
    <g id="text_9">
     <!-- $x$ -->
     <g transform="translate(324.096372 177.161269) scale(0.16 -0.16)">
      <defs>
       <path id="Cmmi10-78" d="M 500 184 
Q 613 97 819 97 
Q 1019 97 1172 289 
Q 1325 481 1381 709 
L 1672 1844 
Q 1741 2153 1741 2266 
Q 1741 2425 1652 2544 
Q 1563 2663 1403 2663 
Q 1200 2663 1022 2536 
Q 844 2409 722 2214 
Q 600 2019 550 1819 
Q 538 1778 500 1778 
L 422 1778 
Q 372 1778 372 1838 
L 372 1856 
Q 434 2094 584 2320 
Q 734 2547 951 2687 
Q 1169 2828 1416 2828 
Q 1650 2828 1839 2703 
Q 2028 2578 2106 2363 
Q 2216 2559 2386 2693 
Q 2556 2828 2759 2828 
Q 2897 2828 3040 2779 
Q 3184 2731 3275 2631 
Q 3366 2531 3366 2381 
Q 3366 2219 3261 2101 
Q 3156 1984 2994 1984 
Q 2891 1984 2822 2050 
Q 2753 2116 2753 2216 
Q 2753 2350 2845 2451 
Q 2938 2553 3066 2572 
Q 2950 2663 2747 2663 
Q 2541 2663 2389 2472 
Q 2238 2281 2175 2047 
L 1894 916 
Q 1825 659 1825 494 
Q 1825 331 1917 214 
Q 2009 97 2163 97 
Q 2463 97 2698 361 
Q 2934 625 3009 941 
Q 3022 978 3059 978 
L 3138 978 
Q 3163 978 3178 961 
Q 3194 944 3194 922 
Q 3194 916 3188 903 
Q 3097 522 2806 225 
Q 2516 -72 2150 -72 
Q 1916 -72 1727 54 
Q 1538 181 1459 397 
Q 1359 209 1182 68 
Q 1006 -72 806 -72 
Q 669 -72 523 -23 
Q 378 25 287 125 
Q 197 225 197 378 
Q 197 528 301 651 
Q 406 775 563 775 
Q 669 775 741 711 
Q 813 647 813 544 
Q 813 409 723 309 
Q 634 209 500 184 
z
" transform="scale(0.015625)"/>
      </defs>
      <use xlink:href="#Cmmi10-78" transform="translate(0 0.8125)"/>
     </g>
    </g>
   </g>
   <g id="matplotlib.axis_2">
    <g id="ytick_1">
     <g id="line2d_42">
      <defs>
       <path id="m4eb39d0742" d="M 0 0 
L -3.5 0 
" style="stroke: #000000; stroke-width: 0.8"/>
      </defs>
      <g>
       <use xlink:href="#m4eb39d0742" x="162.377603" y="324.967778" style="stroke: #000000; stroke-width: 0.8"/>
      </g>
     </g>
     <g id="text_10">
      <!-- −4 -->
      <g transform="translate(140.635415 328.766997) scale(0.1 -0.1)">
       <use xlink:href="#DejaVuSans-2212"/>
       <use xlink:href="#DejaVuSans-34" transform="translate(83.789062 0)"/>
      </g>
     </g>
    </g>
    <g id="ytick_2">
     <g id="line2d_43">
      <g>
       <use xlink:href="#m4eb39d0742" x="162.377603" y="288.016151" style="stroke: #000000; stroke-width: 0.8"/>
      </g>
     </g>
     <g id="text_11">
      <!-- −3 -->
      <g transform="translate(140.635415 291.81537) scale(0.1 -0.1)">
       <use xlink:href="#DejaVuSans-2212"/>
       <use xlink:href="#DejaVuSans-33" transform="translate(83.789062 0)"/>
      </g>
     </g>
    </g>
    <g id="ytick_3">
     <g id="line2d_44">
      <g>
       <use xlink:href="#m4eb39d0742" x="162.377603" y="251.064524" style="stroke: #000000; stroke-width: 0.8"/>
      </g>
     </g>
     <g id="text_12">
      <!-- −2 -->
      <g transform="translate(140.635415 254.863742) scale(0.1 -0.1)">
       <use xlink:href="#DejaVuSans-2212"/>
       <use xlink:href="#DejaVuSans-32" transform="translate(83.789062 0)"/>
      </g>
     </g>
    </g>
    <g id="ytick_4">
     <g id="line2d_45">
      <g>
       <use xlink:href="#m4eb39d0742" x="162.377603" y="214.112896" style="stroke: #000000; stroke-width: 0.8"/>
      </g>
     </g>
     <g id="text_13">
      <!-- −1 -->
      <g transform="translate(140.635415 217.912115) scale(0.1 -0.1)">
       <use xlink:href="#DejaVuSans-2212"/>
       <use xlink:href="#DejaVuSans-31" transform="translate(83.789062 0)"/>
      </g>
     </g>
    </g>
    <g id="ytick_5">
     <g id="line2d_46">
      <g>
       <use xlink:href="#m4eb39d0742" x="162.377603" y="177.161269" style="stroke: #000000; stroke-width: 0.8"/>
      </g>
     </g>
    </g>
    <g id="ytick_6">
     <g id="line2d_47">
      <g>
       <use xlink:href="#m4eb39d0742" x="162.377603" y="140.209642" style="stroke: #000000; stroke-width: 0.8"/>
      </g>
     </g>
     <g id="text_14">
      <!-- 1 -->
      <g transform="translate(149.015103 144.008861) scale(0.1 -0.1)">
       <use xlink:href="#DejaVuSans-31"/>
      </g>
     </g>
    </g>
    <g id="ytick_7">
     <g id="line2d_48">
      <g>
       <use xlink:href="#m4eb39d0742" x="162.377603" y="103.258015" style="stroke: #000000; stroke-width: 0.8"/>
      </g>
     </g>
     <g id="text_15">
      <!-- 2 -->
      <g transform="translate(149.015103 107.057234) scale(0.1 -0.1)">
       <use xlink:href="#DejaVuSans-32"/>
      </g>
     </g>
    </g>
    <g id="ytick_8">
     <g id="line2d_49">
      <g>
       <use xlink:href="#m4eb39d0742" x="162.377603" y="66.306388" style="stroke: #000000; stroke-width: 0.8"/>
      </g>
     </g>
     <g id="text_16">
      <!-- 3 -->
      <g transform="translate(149.015103 70.105606) scale(0.1 -0.1)">
       <use xlink:href="#DejaVuSans-33"/>
      </g>
     </g>
    </g>
    <g id="ytick_9">
     <g id="line2d_50">
      <g>
       <use xlink:href="#m4eb39d0742" x="162.377603" y="29.35476" style="stroke: #000000; stroke-width: 0.8"/>
      </g>
     </g>
     <g id="text_17">
      <!-- 4 -->
      <g transform="translate(149.015103 33.153979) scale(0.1 -0.1)">
       <use xlink:href="#DejaVuSans-34"/>
      </g>
     </g>
    </g>
    <g id="ytick_10">
     <g id="line2d_51">
      <defs>
       <path id="m585cb2f19d" d="M 0 0 
L -2 0 
" style="stroke: #000000; stroke-width: 0.6"/>
      </defs>
      <g>
       <use xlink:href="#m585cb2f19d" x="162.377603" y="317.577453" style="stroke: #000000; stroke-width: 0.6"/>
      </g>
     </g>
    </g>
    <g id="ytick_11">
     <g id="line2d_52">
      <g>
       <use xlink:href="#m585cb2f19d" x="162.377603" y="310.187127" style="stroke: #000000; stroke-width: 0.6"/>
      </g>
     </g>
    </g>
    <g id="ytick_12">
     <g id="line2d_53">
      <g>
       <use xlink:href="#m585cb2f19d" x="162.377603" y="302.796802" style="stroke: #000000; stroke-width: 0.6"/>
      </g>
     </g>
    </g>
    <g id="ytick_13">
     <g id="line2d_54">
      <g>
       <use xlink:href="#m585cb2f19d" x="162.377603" y="295.406476" style="stroke: #000000; stroke-width: 0.6"/>
      </g>
     </g>
    </g>
    <g id="ytick_14">
     <g id="line2d_55">
      <g>
       <use xlink:href="#m585cb2f19d" x="162.377603" y="280.625825" style="stroke: #000000; stroke-width: 0.6"/>
      </g>
     </g>
    </g>
    <g id="ytick_15">
     <g id="line2d_56">
      <g>
       <use xlink:href="#m585cb2f19d" x="162.377603" y="273.2355" style="stroke: #000000; stroke-width: 0.6"/>
      </g>
     </g>
    </g>
    <g id="ytick_16">
     <g id="line2d_57">
      <g>
       <use xlink:href="#m585cb2f19d" x="162.377603" y="265.845175" style="stroke: #000000; stroke-width: 0.6"/>
      </g>
     </g>
    </g>
    <g id="ytick_17">
     <g id="line2d_58">
      <g>
       <use xlink:href="#m585cb2f19d" x="162.377603" y="258.454849" style="stroke: #000000; stroke-width: 0.6"/>
      </g>
     </g>
    </g>
    <g id="ytick_18">
     <g id="line2d_59">
      <g>
       <use xlink:href="#m585cb2f19d" x="162.377603" y="243.674198" style="stroke: #000000; stroke-width: 0.6"/>
      </g>
     </g>
    </g>
    <g id="ytick_19">
     <g id="line2d_60">
      <g>
       <use xlink:href="#m585cb2f19d" x="162.377603" y="236.283873" style="stroke: #000000; stroke-width: 0.6"/>
      </g>
     </g>
    </g>
    <g id="ytick_20">
     <g id="line2d_61">
      <g>
       <use xlink:href="#m585cb2f19d" x="162.377603" y="228.893547" style="stroke: #000000; stroke-width: 0.6"/>
      </g>
     </g>
    </g>
    <g id="ytick_21">
     <g id="line2d_62">
      <g>
       <use xlink:href="#m585cb2f19d" x="162.377603" y="221.503222" style="stroke: #000000; stroke-width: 0.6"/>
      </g>
     </g>
    </g>
    <g id="ytick_22">
     <g id="line2d_63">
      <g>
       <use xlink:href="#m585cb2f19d" x="162.377603" y="206.722571" style="stroke: #000000; stroke-width: 0.6"/>
      </g>
     </g>
    </g>
    <g id="ytick_23">
     <g id="line2d_64">
      <g>
       <use xlink:href="#m585cb2f19d" x="162.377603" y="199.332246" style="stroke: #000000; stroke-width: 0.6"/>
      </g>
     </g>
    </g>
    <g id="ytick_24">
     <g id="line2d_65">
      <g>
       <use xlink:href="#m585cb2f19d" x="162.377603" y="191.94192" style="stroke: #000000; stroke-width: 0.6"/>
      </g>
     </g>
    </g>
    <g id="ytick_25">
     <g id="line2d_66">
      <g>
       <use xlink:href="#m585cb2f19d" x="162.377603" y="184.551595" style="stroke: #000000; stroke-width: 0.6"/>
      </g>
     </g>
    </g>
    <g id="ytick_26">
     <g id="line2d_67">
      <g>
       <use xlink:href="#m585cb2f19d" x="162.377603" y="169.770944" style="stroke: #000000; stroke-width: 0.6"/>
      </g>
     </g>
    </g>
    <g id="ytick_27">
     <g id="line2d_68">
      <g>
       <use xlink:href="#m585cb2f19d" x="162.377603" y="162.380618" style="stroke: #000000; stroke-width: 0.6"/>
      </g>
     </g>
    </g>
    <g id="ytick_28">
     <g id="line2d_69">
      <g>
       <use xlink:href="#m585cb2f19d" x="162.377603" y="154.990293" style="stroke: #000000; stroke-width: 0.6"/>
      </g>
     </g>
    </g>
    <g id="ytick_29">
     <g id="line2d_70">
      <g>
       <use xlink:href="#m585cb2f19d" x="162.377603" y="147.599967" style="stroke: #000000; stroke-width: 0.6"/>
      </g>
     </g>
    </g>
    <g id="ytick_30">
     <g id="line2d_71">
      <g>
       <use xlink:href="#m585cb2f19d" x="162.377603" y="132.819317" style="stroke: #000000; stroke-width: 0.6"/>
      </g>
     </g>
    </g>
    <g id="ytick_31">
     <g id="line2d_72">
      <g>
       <use xlink:href="#m585cb2f19d" x="162.377603" y="125.428991" style="stroke: #000000; stroke-width: 0.6"/>
      </g>
     </g>
    </g>
    <g id="ytick_32">
     <g id="line2d_73">
      <g>
       <use xlink:href="#m585cb2f19d" x="162.377603" y="118.038666" style="stroke: #000000; stroke-width: 0.6"/>
      </g>
     </g>
    </g>
    <g id="ytick_33">
     <g id="line2d_74">
      <g>
       <use xlink:href="#m585cb2f19d" x="162.377603" y="110.64834" style="stroke: #000000; stroke-width: 0.6"/>
      </g>
     </g>
    </g>
    <g id="ytick_34">
     <g id="line2d_75">
      <g>
       <use xlink:href="#m585cb2f19d" x="162.377603" y="95.867689" style="stroke: #000000; stroke-width: 0.6"/>
      </g>
     </g>
    </g>
    <g id="ytick_35">
     <g id="line2d_76">
      <g>
       <use xlink:href="#m585cb2f19d" x="162.377603" y="88.477364" style="stroke: #000000; stroke-width: 0.6"/>
      </g>
     </g>
    </g>
    <g id="ytick_36">
     <g id="line2d_77">
      <g>
       <use xlink:href="#m585cb2f19d" x="162.377603" y="81.087038" style="stroke: #000000; stroke-width: 0.6"/>
      </g>
     </g>
    </g>
    <g id="ytick_37">
     <g id="line2d_78">
      <g>
       <use xlink:href="#m585cb2f19d" x="162.377603" y="73.696713" style="stroke: #000000; stroke-width: 0.6"/>
      </g>
     </g>
    </g>
    <g id="ytick_38">
     <g id="line2d_79">
      <g>
       <use xlink:href="#m585cb2f19d" x="162.377603" y="58.916062" style="stroke: #000000; stroke-width: 0.6"/>
      </g>
     </g>
    </g>
    <g id="ytick_39">
     <g id="line2d_80">
      <g>
       <use xlink:href="#m585cb2f19d" x="162.377603" y="51.525737" style="stroke: #000000; stroke-width: 0.6"/>
      </g>
     </g>
    </g>
    <g id="ytick_40">
     <g id="line2d_81">
      <g>
       <use xlink:href="#m585cb2f19d" x="162.377603" y="44.135411" style="stroke: #000000; stroke-width: 0.6"/>
      </g>
     </g>
    </g>
    <g id="ytick_41">
     <g id="line2d_82">
      <g>
       <use xlink:href="#m585cb2f19d" x="162.377603" y="36.745086" style="stroke: #000000; stroke-width: 0.6"/>
      </g>
     </g>
    </g>
    <g id="text_18">
     <!-- $y$ -->
     <g transform="translate(158.377603 12.0825) scale(0.16 -0.16)">
      <defs>
       <path id="Cmmi10-79" d="M 538 -916 
Q 672 -1147 1006 -1147 
Q 1309 -1147 1531 -934 
Q 1753 -722 1889 -420 
Q 2025 -119 2100 197 
Q 1816 -72 1484 -72 
Q 1231 -72 1053 15 
Q 875 103 776 276 
Q 678 450 678 697 
Q 678 906 734 1126 
Q 791 1347 892 1617 
Q 994 1888 1069 2088 
Q 1153 2322 1153 2472 
Q 1153 2663 1013 2663 
Q 759 2663 595 2402 
Q 431 2141 353 1819 
Q 341 1778 300 1778 
L 225 1778 
Q 172 1778 172 1838 
L 172 1856 
Q 275 2238 487 2533 
Q 700 2828 1025 2828 
Q 1253 2828 1411 2678 
Q 1569 2528 1569 2297 
Q 1569 2178 1516 2047 
Q 1488 1969 1388 1706 
Q 1288 1444 1234 1272 
Q 1181 1100 1147 934 
Q 1113 769 1113 603 
Q 1113 391 1203 244 
Q 1294 97 1491 97 
Q 1888 97 2203 581 
L 2688 2553 
Q 2709 2638 2787 2698 
Q 2866 2759 2956 2759 
Q 3034 2759 3092 2709 
Q 3150 2659 3150 2578 
Q 3150 2541 3144 2528 
L 2509 -19 
Q 2425 -347 2200 -647 
Q 1975 -947 1658 -1130 
Q 1341 -1313 997 -1313 
Q 831 -1313 668 -1248 
Q 506 -1184 406 -1056 
Q 306 -928 306 -756 
Q 306 -581 409 -453 
Q 513 -325 684 -325 
Q 788 -325 858 -389 
Q 928 -453 928 -556 
Q 928 -703 818 -812 
Q 709 -922 563 -922 
Q 556 -919 550 -917 
Q 544 -916 538 -916 
z
" transform="scale(0.015625)"/>
      </defs>
      <use xlink:href="#Cmmi10-79" transform="translate(0 0.8125)"/>
     </g>
    </g>
   </g>
   <g id="line2d_83">
    <path d="M 199.32923 177.161269 
L 199.265412 174.990489 
L 198.902108 171.559192 
L 198.264771 168.355937 
L 197.272778 165.006045 
L 196.217513 162.319328 
L 194.747848 159.340214 
L 193.420959 157.117997 
L 192.459186 155.701514 
L 190.98229 153.769079 
L 188.353933 150.880991 
L 186.007232 148.752409 
L 183.096753 146.564871 
L 180.376338 144.889482 
L 177.807233 143.585247 
L 175.168555 142.494076 
L 172.921085 141.745768 
L 170.046878 141.014278 
L 167.099087 140.512527 
L 163.806984 140.237298 
L 160.550447 140.254844 
L 157.616189 140.517693 
L 154.745175 141.00648 
L 151.730416 141.776807 
L 148.830436 142.78254 
L 145.480067 144.299498 
L 142.656464 145.912278 
L 139.980053 147.771262 
L 138.723344 148.772913 
L 135.907026 151.378885 
L 134.495054 152.912842 
L 132.417127 155.532755 
L 130.993028 157.656622 
L 129.274589 160.741365 
L 127.959679 163.713992 
L 127.144239 166.024267 
L 126.270197 169.307732 
L 125.709904 172.589326 
L 125.458251 175.617166 
L 125.445814 178.371961 
L 125.705273 181.69591 
L 126.025252 183.789194 
L 126.819613 187.213739 
L 127.718895 189.975196 
L 128.926788 192.860497 
L 130.068683 195.093265 
L 131.788369 197.890995 
L 133.474352 200.183538 
L 135.703579 202.733114 
L 137.388461 204.381951 
L 139.565966 206.231048 
L 141.494613 207.646077 
L 144.492711 209.496288 
L 146.548126 210.550645 
L 148.729765 211.500158 
L 152.015996 212.630409 
L 155.080109 213.385147 
L 158.081763 213.862339 
L 161.35603 214.098772 
L 164.021908 214.076293 
L 167.27951 213.786316 
L 170.542946 213.199442 
L 172.177838 212.789603 
L 175.799587 211.589065 
L 177.47949 210.885975 
L 180.286476 209.483011 
L 182.894607 207.893586 
L 184.74271 206.575972 
L 187.459164 204.296819 
L 189.155556 202.624261 
L 190.9304 200.616769 
L 192.987212 197.860896 
L 194.589859 195.266331 
L 196.04709 192.385867 
L 196.945691 190.217686 
L 197.99768 186.991471 
L 198.615238 184.390138 
L 199.036777 181.801062 
L 199.255026 179.501866 
L 199.32923 177.161269 
L 199.32923 177.161269 
" clip-path="url(#p4208337010)" style="fill: none; stroke-dasharray: 3.7,1.6; stroke-dashoffset: 0; stroke: #808080"/>
   </g>
   <g id="line2d_84">
    <path d="M 236.280857 177.161269 
L 236.231305 174.45542 
L 235.840852 169.108812 
L 235.378114 165.645352 
L 234.769133 162.289911 
L 233.893755 158.529817 
L 232.551378 153.980842 
L 231.316374 150.531646 
L 229.81093 146.921604 
L 228.096231 143.356641 
L 225.487136 138.705088 
L 223.025379 134.929311 
L 219.924036 130.792109 
L 216.796802 127.158852 
L 213.870211 124.149928 
L 211.444803 121.897349 
L 209.636083 120.3429 
L 205.134449 116.882391 
L 201.220978 114.28931 
L 197.761228 112.279145 
L 196.255366 111.480312 
L 190.558901 108.842125 
L 187.499979 107.659059 
L 182.416039 106.026523 
L 180.465021 105.50559 
L 174.820771 104.313081 
L 170.719979 103.730378 
L 166.40215 103.367678 
L 161.708792 103.261041 
L 157.266958 103.434935 
L 152.263241 103.95341 
L 147.463088 104.778617 
L 143.959577 105.589855 
L 141.379931 106.303745 
L 136.312977 108.006903 
L 133.31142 109.213878 
L 129.74949 110.850657 
L 126.542987 112.527135 
L 124.168989 113.901544 
L 119.339127 117.083148 
L 116.579447 119.159373 
L 112.862575 122.298231 
L 110.242232 124.78194 
L 106.536792 128.751612 
L 103.938549 131.922259 
L 101.823375 134.795285 
L 98.963764 139.208982 
L 96.928134 142.838419 
L 95.457308 145.802616 
L 93.552155 150.24011 
L 92.026711 154.524065 
L 90.839578 158.613976 
L 90.03451 162.056038 
L 89.115819 167.445194 
L 88.652775 172.028933 
L 88.495933 175.37524 
L 88.517043 179.672982 
L 88.840303 184.50678 
L 89.387178 188.740947 
L 90.062217 192.398592 
L 91.072733 196.585649 
L 92.004714 199.729999 
L 93.264921 203.336225 
L 94.33355 206.000443 
L 96.480926 210.617494 
L 97.837813 213.165527 
L 100.193861 217.097133 
L 102.201013 220.061958 
L 104.37126 222.953793 
L 106.84926 225.929026 
L 110.238214 229.536599 
L 112.787713 231.956651 
L 115.994349 234.696344 
L 118.848264 236.884696 
L 122.56139 239.421692 
L 125.471403 241.189571 
L 130.032664 243.610467 
L 135.717619 246.088305 
L 141.256038 247.981962 
L 145.134622 249.024825 
L 147.5206 249.555748 
L 152.749575 250.434676 
L 153.728795 250.556699 
L 159.416637 251.005184 
L 163.62915 251.053925 
L 168.931374 250.773355 
L 173.69269 250.193179 
L 178.761879 249.225452 
L 182.212211 248.353118 
L 186.197588 247.120538 
L 192.049628 244.846289 
L 195.836961 243.056355 
L 198.828232 241.450014 
L 203.225171 238.749963 
L 207.244013 235.88687 
L 210.411697 233.325464 
L 213.478285 230.550513 
L 215.82705 228.198977 
L 217.897853 225.938239 
L 221.112484 222.01553 
L 222.739611 219.800676 
L 225.257112 215.99242 
L 227.488592 212.121962 
L 228.860553 209.436776 
L 230.580619 205.622463 
L 231.969298 202.034686 
L 233.292457 197.9645 
L 234.47624 193.393261 
L 235.150324 190.038458 
L 235.78856 185.677274 
L 236.134726 181.806463 
L 236.280857 177.161269 
L 236.280857 177.161269 
" clip-path="url(#p4208337010)" style="fill: none; stroke-dasharray: 3.7,1.6; stroke-dashoffset: 0; stroke: #808080"/>
   </g>
   <g id="line2d_85">
    <path d="M 273.232484 177.161269 
L 273.136582 172.551144 
L 272.882066 168.353984 
L 272.234075 162.316733 
L 271.364535 156.896688 
L 270.467061 152.554892 
L 269.03548 146.947001 
L 267.256368 141.255151 
L 265.183384 135.691087 
L 262.85042 130.320925 
L 260.862694 126.274221 
L 257.999461 121.078608 
L 255.624409 117.212642 
L 252.688342 112.874605 
L 249.3142 108.380219 
L 246.338104 104.7773 
L 242.595316 100.650333 
L 237.71942 95.84451 
L 233.960287 92.516576 
L 229.972998 89.299632 
L 225.24512 85.856942 
L 219.358766 82.072091 
L 214.487251 79.317571 
L 209.562997 76.850037 
L 204.02938 74.428927 
L 200.206392 72.960562 
L 195.729914 71.442642 
L 190.029856 69.81064 
L 182.704631 68.185966 
L 176.676749 67.232478 
L 173.463891 66.862135 
L 169.577809 66.540467 
L 163.154067 66.309107 
L 156.764103 66.448608 
L 152.132805 66.780796 
L 145.185103 67.647696 
L 142.100042 68.17675 
L 135.150632 69.701989 
L 129.186601 71.391887 
L 123.978544 73.169361 
L 117.849965 75.642334 
L 112.518753 78.151674 
L 106.876396 81.200752 
L 102.37418 83.949714 
L 97.697362 87.131989 
L 92.376885 91.203696 
L 88.599654 94.423013 
L 85.074984 97.706188 
L 82.202152 100.606047 
L 78.203882 105.025359 
L 74.867912 109.110855 
L 71.100321 114.254491 
L 68.666378 117.941245 
L 66.247257 121.954735 
L 64.395603 125.312137 
L 62.037291 130.037744 
L 59.705765 135.360568 
L 57.816474 140.340417 
L 56.188157 145.339793 
L 54.566184 151.363927 
L 53.414748 156.767615 
L 52.622803 161.582799 
L 52.130237 165.571486 
L 51.795488 169.389474 
L 51.551356 174.641793 
L 51.554403 179.811393 
L 51.813804 185.189428 
L 52.36729 190.819082 
L 53.102668 195.810492 
L 54.136486 201.091701 
L 55.17894 205.396914 
L 56.486233 209.961005 
L 58.113211 214.814177 
L 60.329566 220.462575 
L 61.96616 224.133037 
L 64.052843 228.357426 
L 66.514791 232.831064 
L 68.669049 236.385519 
L 71.313353 240.37604 
L 74.180068 244.3178 
L 78.007727 249.067659 
L 80.539033 251.935953 
L 84.492252 256.045216 
L 87.47656 258.884207 
L 91.645848 262.518306 
L 96.141471 266.052099 
L 98.396202 267.688531 
L 103.963115 271.376727 
L 109.158928 274.406205 
L 114.24039 277.019236 
L 118.285713 278.870217 
L 123.939342 281.138694 
L 128.099261 282.583279 
L 134.618386 284.484289 
L 139.821434 285.697088 
L 143.115706 286.329873 
L 149.667295 287.285076 
L 156.994884 287.885391 
L 161.666884 288.013873 
L 165.564826 287.970323 
L 172.472715 287.555533 
L 174.196629 287.384295 
L 179.217248 286.729655 
L 186.13278 285.440983 
L 188.070851 284.997542 
L 193.612433 283.52475 
L 198.595948 281.932621 
L 204.052007 279.884435 
L 208.898027 277.782613 
L 215.121288 274.664646 
L 220.419303 271.60684 
L 225.886174 268.020865 
L 228.206156 266.354354 
L 231.934473 263.478397 
L 234.516508 261.332423 
L 239.436125 256.853106 
L 243.945934 252.230651 
L 246.430077 249.438418 
L 249.934382 245.151086 
L 252.789031 241.306248 
L 255.480678 237.332874 
L 258.268516 232.782646 
L 260.322182 229.081056 
L 262.319285 225.124431 
L 264.758586 219.669374 
L 266.663335 214.755028 
L 268.459939 209.338011 
L 269.900753 204.134905 
L 270.787888 200.313264 
L 271.66835 195.7176 
L 272.412615 190.618643 
L 272.920738 185.469103 
L 273.191976 180.157852 
L 273.232484 177.161269 
L 273.232484 177.161269 
" clip-path="url(#p4208337010)" style="fill: none; stroke-dasharray: 3.7,1.6; stroke-dashoffset: 0; stroke: #808080"/>
   </g>
   <g id="line2d_86">
    <path d="M 310.184112 177.161269 
L 310.021852 170.237409 
L 309.48501 162.802482 
L 308.750848 156.627462 
L 308.232594 153.222066 
L 307.060213 146.933693 
L 305.533721 140.376901 
L 303.817351 134.247848 
L 301.91178 128.407015 
L 299.96971 123.168899 
L 297.425064 117.086755 
L 294.976835 111.860368 
L 291.780566 105.735524 
L 289.218343 101.278527 
L 286.283942 96.576016 
L 282.774478 91.421218 
L 280.288039 88.032749 
L 275.957268 82.575733 
L 271.640192 77.620068 
L 268.272947 74.04512 
L 264.061737 69.890114 
L 260.028149 66.205716 
L 255.149605 62.09555 
L 251.009373 58.876979 
L 246.051666 55.319506 
L 242.331832 52.846808 
L 235.871488 48.921599 
L 230.172175 45.819501 
L 226.648061 44.059533 
L 222.519059 42.143606 
L 215.076436 39.068558 
L 210.847681 37.528123 
L 204.199626 35.394974 
L 197.510587 33.590947 
L 192.567437 32.470779 
L 186.01537 31.257123 
L 174.694169 29.868818 
L 167.404 29.44025 
L 162.389544 29.354761 
L 158.442105 29.407163 
L 150.435361 29.837996 
L 143.695432 30.540191 
L 134.612047 31.986072 
L 130.798696 32.767583 
L 126.563558 33.759323 
L 120.899578 35.293945 
L 113.219987 37.768684 
L 107.739026 39.824493 
L 103.972834 41.383336 
L 100.039228 43.143766 
L 96.158617 45.018127 
L 89.817046 48.391204 
L 84.110729 51.777616 
L 78.447758 55.495558 
L 75.564896 57.535528 
L 69.833434 61.912231 
L 64.479146 66.424391 
L 58.561486 71.952059 
L 55.428953 75.137986 
L 51.570021 79.342846 
L 48.113578 83.40362 
L 43.19885 89.735936 
L 39.54028 94.955696 
L 37.063877 98.782482 
L 33.521114 104.754298 
L 30.210421 110.990278 
L 28.208807 115.149187 
L 25.43453 121.543297 
L 23.175279 127.467434 
L 21.252008 133.225742 
L 19.393527 139.713731 
L 18.139216 144.880439 
L 16.784259 151.67907 
L 16.000704 156.653522 
L 15.204271 163.49472 
L 14.739114 170.115651 
L 14.571129 177.058791 
L 14.638141 181.612743 
L 14.898855 186.999105 
L 15.476868 193.499518 
L 16.06766 198.141371 
L 16.93134 203.46999 
L 17.70462 207.434892 
L 19.305098 214.269522 
L 21.24547 221.075791 
L 23.545073 227.879046 
L 25.91348 233.944252 
L 27.706142 238.074008 
L 30.857389 244.609007 
L 34.139555 250.657984 
L 37.813 256.725231 
L 40.84359 261.281705 
L 45.443441 267.566833 
L 47.980208 270.756142 
L 51.917109 275.371469 
L 56.356906 280.148531 
L 59.298502 283.092677 
L 64.219997 287.668502 
L 68.095457 290.992904 
L 72.949391 294.844569 
L 78.909102 299.143946 
L 85.201095 303.218997 
L 90.966305 306.572206 
L 96.441566 309.445823 
L 101.648482 311.915631 
L 108.331133 314.732135 
L 114.450615 316.981754 
L 121.550197 319.217198 
L 127.336062 320.753938 
L 137.462687 322.852762 
L 142.943231 323.684541 
L 150.105602 324.457441 
L 156.257818 324.841032 
L 159.724039 324.943957 
L 167.079314 324.892979 
L 171.552515 324.682742 
L 177.33788 324.208725 
L 182.14165 323.640437 
L 187.634975 322.793784 
L 196.887878 320.882544 
L 202.920275 319.298723 
L 210.613923 316.87534 
L 214.167933 315.597268 
L 219.464793 313.498413 
L 226.645913 310.264043 
L 231.245981 307.943189 
L 234.956637 305.920921 
L 238.607964 303.793398 
L 242.231342 301.540304 
L 248.818469 297.055976 
L 253.779121 293.318605 
L 258.049091 289.827726 
L 263.075521 285.358743 
L 267.221586 281.346216 
L 270.417988 278.027712 
L 274.840632 273.071806 
L 278.688221 268.367651 
L 282.20667 263.693106 
L 285.094977 259.545795 
L 287.383847 256.029533 
L 290.399417 251.033991 
L 293.069776 246.199808 
L 295.90833 240.535624 
L 297.952167 236.036574 
L 300.263231 230.399578 
L 301.958054 225.782885 
L 303.854066 219.953492 
L 305.751198 213.088644 
L 306.99782 207.685961 
L 308.238705 201.063214 
L 308.851241 196.966248 
L 309.649049 189.726508 
L 309.957646 185.340196 
L 310.166936 179.414479 
L 310.184112 177.161269 
L 310.184112 177.161269 
" clip-path="url(#p4208337010)" style="fill: none; stroke-dasharray: 3.7,1.6; stroke-dashoffset: 0; stroke: #808080"/>
   </g>
   <g id="line2d_87">
    <path d="M 337.436372 118.103985 
L 335.712666 113.204059 
L 332.869887 105.971734 
L 329.974619 99.400039 
L 327.530302 94.335219 
L 323.75666 87.203675 
L 319.801205 80.448405 
L 316.270706 74.92389 
L 311.782566 68.470305 
L 307.639387 62.992171 
L 302.80997 57.101621 
L 298.274062 51.990501 
L 293.409111 46.90647 
L 288.845349 42.470965 
L 285.020797 38.979448 
L 281.607621 36.023848 
L 277.892874 32.967681 
L 271.289426 27.917229 
L 264.72382 23.340527 
L 261.525413 21.25976 
L 257.154014 18.564293 
L 249.372828 14.166179 
L 244.470542 11.642937 
L 235.380844 7.437683 
L 226.62201 3.932447 
L 221.023677 1.957939 
L 213.254062 -0.453918 
L 211.256375 -1 
M 113.467981 -1 
L 105.862348 1.259038 
L 101.808872 2.613288 
L 96.293064 4.626048 
L 87.853392 8.100006 
L 79.707378 11.930513 
L 74.588794 14.592226 
L 68.420905 18.077305 
L 62.739665 21.572548 
L 58.011432 24.703829 
L 53.988275 27.537332 
L 47.894061 32.147175 
L 44.269438 35.083719 
L 38.685793 39.917308 
L 32.729847 45.529098 
L 27.984946 50.377269 
L 22.510481 56.443594 
L 18.921675 60.731179 
L 14.511059 66.386479 
L 10.672137 71.705019 
L 7.847505 75.88927 
L 3.588532 82.707048 
L 0.797261 87.565722 
L -1 90.89691 
M -1 263.420975 
L 0.901273 266.94414 
L 4.003735 272.310031 
L 7.742612 278.273031 
L 11.289001 283.499424 
L 15.229467 288.888594 
L 20.573557 295.597672 
L 24.78259 300.46245 
L 28.605821 304.600193 
L 33.130334 309.186692 
L 39.047141 314.730038 
L 44.276977 319.245086 
L 50.711463 324.355842 
L 57.754406 329.442442 
L 63.912826 333.495068 
L 70.074395 337.210283 
L 73.406062 339.080038 
M 251.351416 339.080038 
L 253.582639 337.838617 
L 258.210035 335.122384 
L 264.560803 331.090352 
L 271.002274 326.614438 
L 277.638164 321.55854 
L 283.780371 316.434155 
L 289.539058 311.196836 
L 295.132534 305.659118 
L 300.027199 300.401512 
L 304.142775 295.6442 
L 308.828977 289.800355 
L 312.813494 284.420822 
L 316.077952 279.688199 
L 320.425364 272.850736 
L 324.818389 265.187173 
L 328.349799 258.332685 
L 331.314298 251.96743 
L 334.269248 244.902182 
L 336.505095 238.928454 
L 337.436372 236.227731 
L 337.436372 236.227731 
" clip-path="url(#p4208337010)" style="fill: none; stroke-dasharray: 3.7,1.6; stroke-dashoffset: 0; stroke: #808080"/>
   </g>
   <g id="line2d_88">
    <path d="M 162.377603 177.161269 
L 337.436372 104.649553 
" clip-path="url(#p4208337010)" style="fill: none; stroke: #808080; stroke-linecap: square"/>
   </g>
   <g id="line2d_89">
    <path d="M 162.377603 177.161269 
L 319.15008 20.388792 
" clip-path="url(#p4208337010)" style="fill: none; stroke: #808080; stroke-linecap: square"/>
   </g>
   <g id="line2d_90">
    <path d="M 162.377603 177.161269 
L 236.174417 -1 
" clip-path="url(#p4208337010)" style="fill: none; stroke: #808080; stroke-linecap: square"/>
   </g>
   <g id="line2d_91">
    <path d="M 162.377603 177.161269 
L 162.377603 -1 
" clip-path="url(#p4208337010)" style="fill: none; stroke: #808080; stroke-linecap: square"/>
   </g>
   <g id="line2d_92">
    <path d="M 162.377603 177.161269 
L 88.580789 -1 
" clip-path="url(#p4208337010)" style="fill: none; stroke: #808080; stroke-linecap: square"/>
   </g>
   <g id="line2d_93">
    <path d="M 162.377603 177.161269 
L 5.605126 20.388792 
" clip-path="url(#p4208337010)" style="fill: none; stroke: #808080; stroke-linecap: square"/>
   </g>
   <g id="line2d_94">
    <path d="M 162.377603 177.161269 
L -1 109.48805 
" clip-path="url(#p4208337010)" style="fill: none; stroke: #808080; stroke-linecap: square"/>
   </g>
   <g id="line2d_95">
    <path d="M 162.377603 177.161269 
L -1 177.161269 
" clip-path="url(#p4208337010)" style="fill: none; stroke: #808080; stroke-linecap: square"/>
   </g>
   <g id="line2d_96">
    <path d="M 162.377603 177.161269 
L -1 244.834488 
" clip-path="url(#p4208337010)" style="fill: none; stroke: #808080; stroke-linecap: square"/>
   </g>
   <g id="line2d_97">
    <path d="M 162.377603 177.161269 
L 5.605126 333.933746 
" clip-path="url(#p4208337010)" style="fill: none; stroke: #808080; stroke-linecap: square"/>
   </g>
   <g id="line2d_98">
    <path d="M 162.377603 177.161269 
L 95.308652 339.080038 
" clip-path="url(#p4208337010)" style="fill: none; stroke: #808080; stroke-linecap: square"/>
   </g>
   <g id="line2d_99">
    <path d="M 162.377603 177.161269 
L 162.377603 339.080038 
" clip-path="url(#p4208337010)" style="fill: none; stroke: #808080; stroke-linecap: square"/>
   </g>
   <g id="line2d_100">
    <path d="M 162.377603 177.161269 
L 229.446553 339.080038 
" clip-path="url(#p4208337010)" style="fill: none; stroke: #808080; stroke-linecap: square"/>
   </g>
   <g id="line2d_101">
    <path d="M 162.377603 177.161269 
L 319.15008 333.933746 
" clip-path="url(#p4208337010)" style="fill: none; stroke: #808080; stroke-linecap: square"/>
   </g>
   <g id="line2d_102">
    <path d="M 162.377603 177.161269 
L 337.436372 249.672986 
" clip-path="url(#p4208337010)" style="fill: none; stroke: #808080; stroke-linecap: square"/>
   </g>
   <g id="patch_3">
    <path d="M 162.377603 330.880038 
L 162.377603 23.4425 
" style="fill: none; stroke: #000000; stroke-width: 0.8; stroke-linejoin: miter; stroke-linecap: square"/>
   </g>
   <g id="patch_4">
    <path d="M 8.658833 177.161269 
L 316.096372 177.161269 
" style="fill: none; stroke: #000000; stroke-width: 0.8; stroke-linejoin: miter; stroke-linecap: square"/>
   </g>
  </g>
 </g>
 <defs>
  <clipPath id="p4208337010">
   <rect x="8.658833" y="23.4425" width="307.437538" height="307.437538"/>
  </clipPath>
 </defs>
</svg>
