<?xml version="1.0" encoding="utf-8" standalone="no"?>
<!DOCTYPE svg PUBLIC "-//W3C//DTD SVG 1.1//EN"
  "http://www.w3.org/Graphics/SVG/1.1/DTD/svg11.dtd">
<svg xmlns:xlink="http://www.w3.org/1999/xlink" width="338.4pt" height="338.4pt" viewBox="0 0 338.4 338.4" xmlns="http://www.w3.org/2000/svg" version="1.1">
 <metadata>
  <rdf:RDF xmlns:dc="http://purl.org/dc/elements/1.1/" xmlns:cc="http://creativecommons.org/ns#" xmlns:rdf="http://www.w3.org/1999/02/22-rdf-syntax-ns#">
   <cc:Work>
    <dc:type rdf:resource="http://purl.org/dc/dcmitype/StillImage"/>
    <dc:date>2025-09-03T15:04:58.297727</dc:date>
    <dc:format>image/svg+xml</dc:format>
    <dc:creator>
     <cc:Agent>
      <dc:title>Matplotlib v3.10.5, https://matplotlib.org/</dc:title>
     </cc:Agent>
    </dc:creator>
   </cc:Work>
  </rdf:RDF>
 </metadata>
 <defs>
  <style type="text/css">*{stroke-linejoin: round; stroke-linecap: butt}</style>
 </defs>
 <g id="figure_1">
  <g id="patch_1">
   <path d="M -0 338.4 
L 338.4 338.4 
L 338.4 0 
L -0 0 
z
" style="fill: #ffffff"/>
  </g>
  <g id="axes_1">
   <g id="patch_2">
    <path d="M 7.2 331.2 
L 331.2 331.2 
L 331.2 7.2 
L 7.2 7.2 
z
" style="fill: #ffffff"/>
   </g>
   <g id="patch_3">
    <path d="M 193.33247 175.873631 
L 190.758 180.592396 
L 188.533602 185.779414 
L 186.588425 191.379874 
L 184.847081 197.33415 
L 183.23258 203.577802 
L 181.669238 210.041807 
L 180.085405 216.653112 
L 178.415893 223.335551 
L 176.603979 230.011139 
L 174.602869 236.601692 
L 172.37658 243.030705 
L 169.900184 249.225367 
L 167.15946 255.118598 
L 164.149994 260.650959 
L 160.875843 265.772345 
L 157.347886 270.443335 
L 153.582023 274.636162 
L 149.597354 278.335258 
L 145.414506 281.537367 
L 141.054207 284.251274 
L 136.536199 286.497165 
L 131.878555 288.3057 
L 127.09738 289.716821 
L 122.206906 290.778383 
L 117.219889 291.544619 
L 117.219889 291.544619 
L 116.110044 288.276552 
L 114.897324 285.045248 
L 113.582944 281.853943 
L 112.168221 278.705836 
L 110.654573 275.604081 
L 109.043516 272.551784 
L 107.336665 269.552005 
L 105.535728 266.607749 
L 103.642512 263.721965 
L 101.658912 260.897545 
L 99.586916 258.137318 
L 97.428599 255.444051 
L 95.186126 252.820441 
L 92.861741 250.269118 
L 90.457773 247.792636 
L 87.976633 245.393479 
L 85.420804 243.074048 
L 82.792849 240.836668 
L 80.095399 238.683582 
L 77.331158 236.616945 
L 74.502895 234.638828 
L 71.613443 232.751214 
L 68.665698 230.955994 
L 65.662613 229.254965 
L 62.607196 227.649833 
L 62.607196 227.649833 
L 65.035371 223.292158 
L 67.392774 218.898816 
L 69.668231 214.463845 
L 71.85079 209.981632 
L 73.929769 205.446995 
L 75.894812 200.855263 
L 77.735943 196.202345 
L 79.443625 191.484795 
L 81.008821 186.699867 
L 82.423057 181.84556 
L 83.678487 176.920648 
L 84.767962 171.924707 
L 85.6851 166.858123 
L 86.424351 161.722087 
L 86.981074 156.518584 
L 87.351602 151.25036 
L 87.533306 145.920886 
L 87.524663 140.534299 
L 87.325308 135.095345 
L 86.93609 129.609302 
L 86.359116 124.081895 
L 85.597784 118.519208 
L 84.656812 112.927589 
L 83.54225 107.313545 
L 82.261489 101.683647 
L 82.261489 101.683647 
L 87.420439 103.339701 
L 92.539602 105.114933 
L 97.616226 107.008389 
L 102.647579 109.01905 
L 107.630958 111.145836 
L 112.563682 113.387602 
L 117.443098 115.743144 
L 122.266583 118.211195 
L 127.031543 120.790427 
L 131.735416 123.479453 
L 136.375672 126.276828 
L 140.949815 129.181048 
L 145.455387 132.190549 
L 149.889965 135.303715 
L 154.251163 138.518872 
L 158.536637 141.834289 
L 162.744083 145.248185 
L 166.871237 148.758724 
L 170.91588 152.364017 
L 174.875838 156.062127 
L 178.74898 159.851064 
L 182.533225 163.728792 
L 186.226538 167.693224 
L 189.826931 171.74223 
z
" clip-path="url(#pebefccfd64)" style="fill: #add8e6; stroke: #000000; stroke-linejoin: miter"/>
   </g>
   <g id="matplotlib.axis_1"/>
   <g id="matplotlib.axis_2"/>
   <g id="line2d_1">
    <path d="M 137.299362 286.154172 
L 135.647003 281.228756 
L 133.874949 276.562242 
L 131.80983 271.71104 
L 129.530832 266.910533 
L 126.909183 261.939979 
L 124.208005 257.305052 
L 121.251361 252.686751 
L 118.287151 248.450108 
L 114.806627 243.89536 
L 111.259931 239.649291 
L 107.660304 235.689716 
L 103.561783 231.553829 
L 99.538474 227.832728 
L 95.395503 224.312292 
L 90.87085 220.791158 
L 86.379431 217.598239 
L 81.82517 214.641342 
L 77.017008 211.801978 
L 72.204764 209.229633 
L 72.204764 209.229633 
" clip-path="url(#pebefccfd64)" style="fill: none; stroke-dasharray: 7.4,3.2; stroke-dashoffset: 0; stroke: #808080; stroke-width: 2"/>
   </g>
   <g id="line2d_2">
    <path d="M 154.862613 273.292897 
L 152.752009 267.84654 
L 150.552145 262.75076 
L 147.999977 257.407865 
L 145.384922 252.432954 
L 142.771852 247.869983 
L 139.623543 242.818189 
L 136.408507 238.079153 
L 133.081315 233.551745 
L 129.532138 229.084499 
L 125.641656 224.559437 
L 121.659631 220.279579 
L 117.804316 216.435492 
L 113.755164 212.681985 
L 109.552802 209.06425 
L 104.789375 205.273722 
L 100.233438 201.92978 
L 95.719328 198.866087 
L 90.608941 195.675226 
L 85.822406 192.935672 
L 80.266843 190.038326 
L 79.981619 189.89742 
L 79.981619 189.89742 
" clip-path="url(#pebefccfd64)" style="fill: none; stroke-dasharray: 7.4,3.2; stroke-dashoffset: 0; stroke: #808080; stroke-width: 2"/>
   </g>
   <g id="line2d_3">
    <path d="M 168.563355 252.213577 
L 166.040378 247.060234 
L 163.037891 241.439514 
L 159.917315 236.080557 
L 156.873669 231.248161 
L 153.331183 226.03805 
L 150.041507 221.542876 
L 146.297943 216.7758 
L 142.14059 211.86182 
L 137.941478 207.255222 
L 133.585675 202.812352 
L 128.929596 198.400967 
L 124.148851 194.198397 
L 119.40382 190.32445 
L 114.495646 186.602345 
L 109.223386 182.901363 
L 103.900922 179.454091 
L 98.71415 176.354799 
L 93.401359 173.429766 
L 88.079383 170.738595 
L 85.24844 169.40019 
L 85.24844 169.40019 
" clip-path="url(#pebefccfd64)" style="fill: none; stroke-dasharray: 7.4,3.2; stroke-dashoffset: 0; stroke: #808080; stroke-width: 2"/>
   </g>
   <g id="line2d_4">
    <path d="M 177.83027 225.565383 
L 174.24906 219.870237 
L 170.573946 214.450711 
L 166.881806 209.379005 
L 162.973305 204.365122 
L 159.063141 199.671452 
L 155.014124 195.113639 
L 150.512817 190.370444 
L 145.928379 185.855233 
L 141.353349 181.636978 
L 136.400317 177.365669 
L 131.300857 173.262397 
L 125.95018 169.252491 
L 120.828405 165.67683 
L 115.830593 162.41894 
L 109.8576 158.806096 
L 104.643252 155.887582 
L 98.788952 152.857925 
L 92.759397 149.996977 
L 87.493836 147.70394 
L 87.493836 147.70394 
" clip-path="url(#pebefccfd64)" style="fill: none; stroke-dasharray: 7.4,3.2; stroke-dashoffset: 0; stroke: #808080; stroke-width: 2"/>
   </g>
   <g id="line2d_5">
    <path d="M 184.571264 198.356473 
L 180.338192 192.826233 
L 175.993676 187.516837 
L 171.375886 182.234514 
L 166.565312 177.085252 
L 161.45885 171.97398 
L 156.70551 167.513814 
L 151.605373 163.019737 
L 145.981153 158.385152 
L 141.110671 154.6234 
L 135.506336 150.563338 
L 129.611807 146.582499 
L 123.550417 142.778335 
L 117.521608 139.267974 
L 111.261647 135.895227 
L 104.919608 132.746308 
L 98.776526 129.941127 
L 92.58304 127.346415 
L 86.468189 125.005747 
L 86.468189 125.005747 
" clip-path="url(#pebefccfd64)" style="fill: none; stroke-dasharray: 7.4,3.2; stroke-dashoffset: 0; stroke: #808080; stroke-width: 2"/>
   </g>
   <g id="line2d_6">
    <path d="M 122.461951 323.709261 
L 122.319362 319.254293 
L 121.898505 313.827578 
L 121.351221 309.39482 
L 120.52624 304.476642 
L 119.509922 299.738309 
L 118.324839 295.193062 
L 116.756464 290.138399 
L 115.21115 285.852223 
L 113.131335 280.819674 
L 110.938644 276.167586 
L 108.382222 271.363189 
L 106.157025 267.60001 
L 103.639658 263.717762 
L 100.658531 259.542144 
L 97.858037 255.966169 
L 94.659203 252.227719 
L 90.881176 248.217549 
L 87.652928 245.091466 
L 84.425655 242.209867 
L 80.374477 238.899921 
L 76.45636 235.990801 
L 72.746374 233.475815 
L 68.586599 230.909566 
L 64.69033 228.730759 
L 59.970403 226.361682 
L 55.313069 224.295207 
L 51.047358 222.62482 
L 46.744863 221.144584 
L 41.428707 219.586587 
L 36.585674 218.417664 
L 31.650956 217.463831 
L 31.650956 217.463831 
" clip-path="url(#pebefccfd64)" style="fill: none; stroke-dasharray: 7.4,3.2; stroke-dashoffset: 0; stroke: #808080; stroke-width: 2"/>
   </g>
   <g id="line2d_7">
    <path d="M 229.358191 235.697352 
L 226.832135 229.816842 
L 223.405639 222.476919 
L 220.225678 216.203493 
L 216.490658 209.380297 
L 213.128446 203.664006 
L 209.215975 197.445613 
L 205.401667 191.772782 
L 200.981111 185.617197 
L 196.152063 179.342831 
L 191.158864 173.289158 
L 185.919826 167.356905 
L 180.706765 161.834743 
L 175.877905 157.025645 
L 170.144463 151.663322 
L 164.952145 147.105821 
L 159.929402 142.946511 
L 153.817569 138.192181 
L 148.556842 134.351645 
L 143.0413 130.559277 
L 136.82564 126.555961 
L 131.084168 123.098486 
L 124.108784 119.191446 
L 117.910704 115.976257 
L 110.777854 112.560038 
L 104.3732 109.740064 
L 99.064899 107.573473 
L 92.424589 105.073582 
L 85.911716 102.841718 
L 79.355003 100.808317 
L 71.996099 98.774134 
L 64.982587 97.073356 
L 58.21796 95.647999 
L 52.407656 94.589279 
L 45.063813 93.466595 
L 37.562266 92.564862 
L 31.470739 92.012841 
L 23.512562 91.532993 
L 15.649966 91.325924 
L 13.201865 91.315497 
L 13.201865 91.315497 
" clip-path="url(#pebefccfd64)" style="fill: none; stroke-dasharray: 7.4,3.2; stroke-dashoffset: 0; stroke: #808080; stroke-width: 2"/>
   </g>
   <g id="patch_4">
    <path d="M 13.430769 331.2 
L 13.430769 7.2 
" style="fill: none; stroke: #000000; stroke-width: 0.8; stroke-linejoin: miter; stroke-linecap: square"/>
   </g>
   <g id="patch_5">
    <path d="M 7.2 324.969231 
L 331.2 324.969231 
" style="fill: none; stroke: #000000; stroke-width: 0.8; stroke-linejoin: miter; stroke-linecap: square"/>
   </g>
   <g id="text_1">
    <!-- $r=c$ -->
    <g style="fill: #808080" transform="translate(60.588462 266.800601) scale(0.15 -0.15)">
     <defs>
      <path id="Cmmi10-72" d="M 494 109 
Q 494 147 500 166 
L 978 2075 
Q 1025 2253 1025 2388 
Q 1025 2663 838 2663 
Q 638 2663 541 2423 
Q 444 2184 353 1819 
Q 353 1800 334 1789 
Q 316 1778 300 1778 
L 225 1778 
Q 203 1778 187 1801 
Q 172 1825 172 1844 
Q 241 2122 305 2315 
Q 369 2509 505 2668 
Q 641 2828 844 2828 
Q 1066 2828 1233 2700 
Q 1400 2572 1441 2363 
Q 1603 2575 1811 2701 
Q 2019 2828 2266 2828 
Q 2469 2828 2623 2709 
Q 2778 2591 2778 2388 
Q 2778 2225 2676 2104 
Q 2575 1984 2406 1984 
Q 2303 1984 2233 2048 
Q 2163 2113 2163 2216 
Q 2163 2356 2266 2467 
Q 2369 2578 2503 2578 
Q 2400 2663 2253 2663 
Q 1978 2663 1775 2467 
Q 1572 2272 1409 1972 
L 953 141 
Q 931 53 854 -9 
Q 778 -72 684 -72 
Q 606 -72 550 -22 
Q 494 28 494 109 
z
" transform="scale(0.015625)"/>
      <path id="Cmr10-3d" d="M 481 850 
Q 428 850 393 890 
Q 359 931 359 978 
Q 359 1031 393 1068 
Q 428 1106 481 1106 
L 4500 1106 
Q 4547 1106 4581 1068 
Q 4616 1031 4616 978 
Q 4616 931 4581 890 
Q 4547 850 4500 850 
L 481 850 
z
M 481 2094 
Q 428 2094 393 2131 
Q 359 2169 359 2222 
Q 359 2269 393 2309 
Q 428 2350 481 2350 
L 4500 2350 
Q 4547 2350 4581 2309 
Q 4616 2269 4616 2222 
Q 4616 2169 4581 2131 
Q 4547 2094 4500 2094 
L 481 2094 
z
" transform="scale(0.015625)"/>
      <path id="Cmmi10-63" d="M 750 763 
Q 750 484 892 290 
Q 1034 97 1300 97 
Q 1681 97 2032 272 
Q 2384 447 2606 756 
Q 2625 775 2656 775 
Q 2688 775 2720 739 
Q 2753 703 2753 672 
Q 2753 647 2741 634 
Q 2506 306 2109 117 
Q 1713 -72 1288 -72 
Q 981 -72 747 73 
Q 513 219 384 462 
Q 256 706 256 1013 
Q 256 1444 497 1869 
Q 738 2294 1138 2561 
Q 1538 2828 1978 2828 
Q 2266 2828 2495 2689 
Q 2725 2550 2725 2278 
Q 2725 2103 2623 1979 
Q 2522 1856 2350 1856 
Q 2247 1856 2176 1920 
Q 2106 1984 2106 2088 
Q 2106 2238 2215 2344 
Q 2325 2450 2472 2450 
L 2484 2450 
Q 2409 2559 2267 2611 
Q 2125 2663 1972 2663 
Q 1597 2663 1315 2342 
Q 1034 2022 892 1576 
Q 750 1131 750 763 
z
" transform="scale(0.015625)"/>
     </defs>
     <use xlink:href="#Cmmi10-72" transform="translate(0 0.8125)"/>
     <use xlink:href="#Cmr10-3d" transform="translate(62.675781 0.8125)"/>
     <use xlink:href="#Cmmi10-63" transform="translate(157.919922 0.8125)"/>
    </g>
   </g>
   <g id="text_2">
    <!-- $r=d$ -->
    <g style="fill: #808080" transform="translate(145.661538 126.608293) scale(0.15 -0.15)">
     <defs>
      <path id="Cmmi10-64" d="M 1113 -72 
Q 709 -72 476 233 
Q 244 538 244 953 
Q 244 1363 456 1803 
Q 669 2244 1030 2536 
Q 1391 2828 1806 2828 
Q 1994 2828 2145 2723 
Q 2297 2619 2381 2444 
L 2741 3872 
Q 2766 3981 2772 4044 
Q 2772 4147 2356 4147 
Q 2291 4147 2291 4231 
Q 2294 4247 2305 4287 
Q 2316 4328 2333 4350 
Q 2350 4372 2381 4372 
L 3244 4441 
Q 3322 4441 3322 4359 
L 2400 678 
Q 2356 572 2356 372 
Q 2356 97 2541 97 
Q 2741 97 2845 351 
Q 2950 606 3022 941 
Q 3034 978 3072 978 
L 3150 978 
Q 3175 978 3190 956 
Q 3206 934 3206 916 
Q 3094 469 2961 198 
Q 2828 -72 2528 -72 
Q 2313 -72 2147 54 
Q 1981 181 1941 391 
Q 1528 -72 1113 -72 
z
M 1119 97 
Q 1350 97 1567 270 
Q 1784 444 1941 678 
Q 1947 684 1947 703 
L 2297 2113 
Q 2259 2338 2131 2500 
Q 2003 2663 1791 2663 
Q 1575 2663 1389 2486 
Q 1203 2309 1075 2069 
Q 950 1813 836 1366 
Q 722 919 722 672 
Q 722 450 817 273 
Q 913 97 1119 97 
z
" transform="scale(0.015625)"/>
     </defs>
     <use xlink:href="#Cmmi10-72" transform="translate(0 0.609375)"/>
     <use xlink:href="#Cmr10-3d" transform="translate(62.675781 0.609375)"/>
     <use xlink:href="#Cmmi10-64" transform="translate(157.919922 0.609375)"/>
    </g>
   </g>
   <g id="text_3">
    <!-- $\theta=h_1(r)$ -->
    <g style="fill: #0000ff" transform="translate(162.153846 283.238462) scale(0.2 -0.2)">
     <defs>
      <path id="Cmmi10-b5" d="M 1031 -72 
Q 741 -72 566 140 
Q 391 353 323 653 
Q 256 953 256 1247 
L 256 1253 
Q 256 1572 317 1915 
Q 378 2259 493 2601 
Q 609 2944 744 3213 
Q 838 3400 986 3631 
Q 1134 3863 1317 4064 
Q 1500 4266 1711 4389 
Q 1922 4513 2138 4513 
L 2144 4513 
Q 2375 4513 2529 4384 
Q 2684 4256 2770 4056 
Q 2856 3856 2890 3628 
Q 2925 3400 2925 3194 
Q 2925 2709 2794 2204 
Q 2663 1700 2431 1228 
Q 2344 1050 2189 809 
Q 2034 569 1861 378 
Q 1688 188 1472 58 
Q 1256 -72 1038 -72 
L 1031 -72 
z
M 1044 97 
Q 1256 97 1451 323 
Q 1647 550 1794 873 
Q 1941 1197 2052 1536 
Q 2163 1875 2216 2113 
L 909 2113 
Q 809 1709 753 1417 
Q 697 1125 697 844 
Q 697 97 1044 97 
z
M 959 2338 
L 2272 2338 
Q 2341 2619 2381 2808 
Q 2422 2997 2450 3206 
Q 2478 3416 2478 3597 
Q 2478 4347 2138 4347 
Q 1731 4347 1436 3692 
Q 1141 3038 959 2338 
z
" transform="scale(0.015625)"/>
      <path id="Cmmi10-68" d="M 341 116 
Q 341 153 347 172 
L 1275 3872 
Q 1300 3981 1306 4044 
Q 1306 4147 891 4147 
Q 825 4147 825 4231 
Q 828 4247 839 4287 
Q 850 4328 867 4350 
Q 884 4372 916 4372 
L 1778 4441 
L 1797 4441 
Q 1797 4434 1819 4423 
Q 1841 4413 1844 4409 
Q 1856 4378 1856 4359 
L 1356 2363 
Q 1750 2828 2291 2828 
Q 2516 2828 2680 2750 
Q 2844 2672 2936 2514 
Q 3028 2356 3028 2138 
Q 3028 1875 2911 1503 
Q 2794 1131 2619 672 
Q 2528 463 2528 288 
Q 2528 97 2675 97 
Q 2925 97 3092 364 
Q 3259 631 3328 941 
Q 3341 978 3378 978 
L 3456 978 
Q 3481 978 3497 961 
Q 3513 944 3513 922 
Q 3513 916 3506 903 
Q 3450 672 3339 448 
Q 3228 225 3059 76 
Q 2891 -72 2663 -72 
Q 2438 -72 2278 83 
Q 2119 238 2119 459 
Q 2119 578 2169 709 
Q 2350 1191 2470 1569 
Q 2591 1947 2591 2234 
Q 2591 2419 2519 2541 
Q 2447 2663 2278 2663 
Q 1934 2663 1678 2452 
Q 1422 2241 1234 1894 
L 800 147 
Q 775 50 703 -11 
Q 631 -72 538 -72 
Q 456 -72 398 -17 
Q 341 38 341 116 
z
" transform="scale(0.015625)"/>
      <path id="Cmr10-31" d="M 594 0 
L 594 225 
Q 1394 225 1394 428 
L 1394 3788 
Q 1063 3628 556 3628 
L 556 3853 
Q 1341 3853 1741 4263 
L 1831 4263 
Q 1853 4263 1873 4245 
Q 1894 4228 1894 4206 
L 1894 428 
Q 1894 225 2694 225 
L 2694 0 
L 594 0 
z
" transform="scale(0.015625)"/>
      <path id="Cmr10-28" d="M 1984 -1588 
Q 1628 -1306 1370 -942 
Q 1113 -578 948 -165 
Q 784 247 703 697 
Q 622 1147 622 1600 
Q 622 2059 703 2509 
Q 784 2959 951 3375 
Q 1119 3791 1378 4153 
Q 1638 4516 1984 4788 
Q 1984 4800 2016 4800 
L 2075 4800 
Q 2094 4800 2109 4783 
Q 2125 4766 2125 4744 
Q 2125 4716 2113 4703 
Q 1800 4397 1592 4047 
Q 1384 3697 1257 3301 
Q 1131 2906 1075 2482 
Q 1019 2059 1019 1600 
Q 1019 -434 2106 -1491 
Q 2125 -1509 2125 -1544 
Q 2125 -1559 2108 -1579 
Q 2091 -1600 2075 -1600 
L 2016 -1600 
Q 1984 -1600 1984 -1588 
z
" transform="scale(0.015625)"/>
      <path id="Cmr10-29" d="M 416 -1600 
Q 359 -1600 359 -1544 
Q 359 -1516 372 -1503 
Q 1466 -434 1466 1600 
Q 1466 3634 384 4691 
Q 359 4706 359 4744 
Q 359 4766 376 4783 
Q 394 4800 416 4800 
L 475 4800 
Q 494 4800 506 4788 
Q 966 4425 1272 3906 
Q 1578 3388 1720 2800 
Q 1863 2213 1863 1600 
Q 1863 1147 1786 708 
Q 1709 269 1542 -157 
Q 1375 -584 1119 -945 
Q 863 -1306 506 -1588 
Q 494 -1600 475 -1600 
L 416 -1600 
z
" transform="scale(0.015625)"/>
     </defs>
     <use xlink:href="#Cmmi10-b5"/>
     <use xlink:href="#Cmr10-3d" transform="translate(64.482422 0)"/>
     <use xlink:href="#Cmmi10-68" transform="translate(159.726562 0)"/>
     <use xlink:href="#Cmr10-31" transform="translate(217.34375 -17.00625) scale(0.7)"/>
     <use xlink:href="#Cmr10-28" transform="translate(258.721094 0)"/>
     <use xlink:href="#Cmmi10-72" transform="translate(297.539453 0)"/>
     <use xlink:href="#Cmr10-29" transform="translate(342.656641 0)"/>
    </g>
   </g>
   <g id="text_4">
    <!-- $\theta=h_2(r)$ -->
    <g style="fill: #ff0000" transform="translate(53.115385 88.526923) scale(0.2 -0.2)">
     <defs>
      <path id="Cmr10-32" d="M 319 0 
L 319 172 
Q 319 188 331 206 
L 1325 1306 
Q 1550 1550 1690 1715 
Q 1831 1881 1968 2097 
Q 2106 2313 2186 2536 
Q 2266 2759 2266 3009 
Q 2266 3272 2169 3511 
Q 2072 3750 1880 3894 
Q 1688 4038 1416 4038 
Q 1138 4038 916 3870 
Q 694 3703 603 3438 
Q 628 3444 672 3444 
Q 816 3444 917 3347 
Q 1019 3250 1019 3097 
Q 1019 2950 917 2848 
Q 816 2747 672 2747 
Q 522 2747 420 2851 
Q 319 2956 319 3097 
Q 319 3338 409 3548 
Q 500 3759 670 3923 
Q 841 4088 1055 4175 
Q 1269 4263 1509 4263 
Q 1875 4263 2190 4108 
Q 2506 3953 2690 3670 
Q 2875 3388 2875 3009 
Q 2875 2731 2753 2481 
Q 2631 2231 2440 2026 
Q 2250 1822 1953 1562 
Q 1656 1303 1563 1216 
L 838 519 
L 1453 519 
Q 1906 519 2211 526 
Q 2516 534 2534 550 
Q 2609 631 2688 1141 
L 2875 1141 
L 2694 0 
L 319 0 
z
" transform="scale(0.015625)"/>
     </defs>
     <use xlink:href="#Cmmi10-b5"/>
     <use xlink:href="#Cmr10-3d" transform="translate(64.482422 0)"/>
     <use xlink:href="#Cmmi10-68" transform="translate(159.726562 0)"/>
     <use xlink:href="#Cmr10-32" transform="translate(217.34375 -17.00625) scale(0.7)"/>
     <use xlink:href="#Cmr10-28" transform="translate(258.721094 0)"/>
     <use xlink:href="#Cmmi10-72" transform="translate(297.539453 0)"/>
     <use xlink:href="#Cmr10-29" transform="translate(342.656641 0)"/>
    </g>
   </g>
   <g id="line2d_8">
    <path d="M 62.607196 227.649833 
L 66.89889 219.834589 
L 70.153324 213.488909 
L 73.084491 207.326219 
L 75.607701 201.547867 
L 77.876023 195.831526 
L 79.943105 190.012905 
L 81.741768 184.259328 
L 83.346628 178.293706 
L 84.562715 172.934145 
L 85.593246 167.416372 
L 86.421015 161.748653 
L 87.019102 156.082049 
L 87.404538 150.157475 
L 87.551689 144.114584 
L 87.46387 138.248029 
L 87.136876 132.114465 
L 86.645819 126.611879 
L 85.832545 120.102564 
L 84.778861 113.598981 
L 83.408578 106.691321 
L 82.261489 101.683647 
L 82.261489 101.683647 
" clip-path="url(#pebefccfd64)" style="fill: none; stroke: #ff0000; stroke-width: 3; stroke-linecap: square"/>
   </g>
   <g id="line2d_9">
    <path d="M 117.219889 291.544619 
L 122.168536 290.785398 
L 126.276566 289.919752 
L 130.111955 288.875158 
L 133.195669 287.841295 
L 136.404233 286.555064 
L 139.658656 285.002006 
L 142.319788 283.523023 
L 145.346323 281.584429 
L 148.580773 279.173092 
L 151.560935 276.598745 
L 154.303057 273.889777 
L 156.878429 271.007538 
L 159.578076 267.583588 
L 161.708052 264.548858 
L 164.214935 260.54056 
L 166.488225 256.430414 
L 168.365709 252.636415 
L 170.447194 247.934495 
L 172.38922 242.996652 
L 174.125404 238.0567 
L 175.954606 232.239312 
L 177.864855 225.435558 
L 180.169548 216.306062 
L 184.812215 197.462255 
L 186.528594 191.569588 
L 188.133424 186.844283 
L 189.827113 182.620715 
L 191.34674 179.404783 
L 193.130218 176.20285 
L 193.33247 175.873631 
L 193.33247 175.873631 
" clip-path="url(#pebefccfd64)" style="fill: none; stroke: #0000ff; stroke-width: 3; stroke-linecap: square"/>
   </g>
  </g>
 </g>
 <defs>
  <clipPath id="pebefccfd64">
   <rect x="7.2" y="7.2" width="324" height="324"/>
  </clipPath>
 </defs>
</svg>
