<?xml version="1.0" encoding="utf-8" standalone="no"?>
<!DOCTYPE svg PUBLIC "-//W3C//DTD SVG 1.1//EN"
  "http://www.w3.org/Graphics/SVG/1.1/DTD/svg11.dtd">
<svg xmlns:xlink="http://www.w3.org/1999/xlink" width="325.696646pt" height="338.096672pt" viewBox="0 0 325.696646 338.096672" xmlns="http://www.w3.org/2000/svg" version="1.1">
 <metadata>
  <rdf:RDF xmlns:dc="http://purl.org/dc/elements/1.1/" xmlns:cc="http://creativecommons.org/ns#" xmlns:rdf="http://www.w3.org/1999/02/22-rdf-syntax-ns#">
   <cc:Work>
    <dc:type rdf:resource="http://purl.org/dc/dcmitype/StillImage"/>
    <dc:date>2025-08-04T00:37:00.110591</dc:date>
    <dc:format>image/svg+xml</dc:format>
    <dc:creator>
     <cc:Agent>
      <dc:title>Matplotlib v3.10.5, https://matplotlib.org/</dc:title>
     </cc:Agent>
    </dc:creator>
   </cc:Work>
  </rdf:RDF>
 </metadata>
 <defs>
  <style type="text/css">*{stroke-linejoin: round; stroke-linecap: butt}</style>
 </defs>
 <g id="figure_1">
  <g id="patch_1">
   <path d="M 0 338.096672 
L 325.696646 338.096672 
L 325.696646 0 
L 0 0 
z
" style="fill: #ffffff"/>
  </g>
  <g id="axes_1">
   <g id="patch_2">
    <path d="M 8.880118 319.920038 
L 305.356646 319.920038 
L 305.356646 23.4425 
L 8.880118 23.4425 
z
" style="fill: #ffffff"/>
   </g>
   <g id="patch_3">
    <path d="M 157.113134 314.218547 
L 166.063423 313.937273 
L 174.978389 313.094561 
L 183.822849 311.693736 
L 192.561898 309.740327 
L 201.161047 307.242043 
L 209.586359 304.208744 
L 217.804583 300.652401 
L 225.783286 296.587049 
L 233.490979 292.028732 
L 240.897243 286.99544 
L 247.97285 281.507037 
L 254.689875 275.585182 
L 261.02181 269.253248 
L 266.943664 262.536223 
L 272.432067 255.460616 
L 277.465359 248.054352 
L 282.023676 240.346659 
L 286.089028 232.367956 
L 289.645372 224.149732 
L 292.678671 215.72442 
L 295.176954 207.125271 
L 297.130363 198.386222 
L 298.531188 189.541762 
L 299.3739 180.626796 
L 299.655175 171.676507 
z
" clip-path="url(#pcb172eb939)" style="fill: #add8e6; stroke: #000000; stroke-width: 3; stroke-linejoin: miter"/>
   </g>
   <g id="matplotlib.axis_1">
    <g id="xtick_1">
     <g id="line2d_1">
      <defs>
       <path id="m65022bc348" d="M 0 0 
L 0 3.5 
" style="stroke: #000000; stroke-width: 0.8"/>
      </defs>
      <g>
       <use xlink:href="#m65022bc348" x="14.571094" y="314.218547" style="stroke: #000000; stroke-width: 0.8"/>
      </g>
     </g>
     <g id="text_1">
      <!-- −1 -->
      <g transform="translate(7.2 328.816985) scale(0.1 -0.1)">
       <defs>
        <path id="DejaVuSans-2212" d="M 678 2272 
L 4684 2272 
L 4684 1741 
L 678 1741 
L 678 2272 
z
" transform="scale(0.015625)"/>
        <path id="DejaVuSans-31" d="M 794 531 
L 1825 531 
L 1825 4091 
L 703 3866 
L 703 4441 
L 1819 4666 
L 2450 4666 
L 2450 531 
L 3481 531 
L 3481 0 
L 794 0 
L 794 531 
z
" transform="scale(0.015625)"/>
       </defs>
       <use xlink:href="#DejaVuSans-2212"/>
       <use xlink:href="#DejaVuSans-31" transform="translate(83.789062 0)"/>
      </g>
     </g>
    </g>
    <g id="xtick_2">
     <g id="line2d_2">
      <g>
       <use xlink:href="#m65022bc348" x="299.655175" y="314.218547" style="stroke: #000000; stroke-width: 0.8"/>
      </g>
     </g>
     <g id="text_2">
      <!-- 1 -->
      <g transform="translate(296.473925 328.816985) scale(0.1 -0.1)">
       <use xlink:href="#DejaVuSans-31"/>
      </g>
     </g>
    </g>
    <g id="text_3">
     <!-- $x$ -->
     <g transform="translate(313.356646 314.218547) scale(0.16 -0.16)">
      <defs>
       <path id="Cmmi10-78" d="M 500 184 
Q 613 97 819 97 
Q 1019 97 1172 289 
Q 1325 481 1381 709 
L 1672 1844 
Q 1741 2153 1741 2266 
Q 1741 2425 1652 2544 
Q 1563 2663 1403 2663 
Q 1200 2663 1022 2536 
Q 844 2409 722 2214 
Q 600 2019 550 1819 
Q 538 1778 500 1778 
L 422 1778 
Q 372 1778 372 1838 
L 372 1856 
Q 434 2094 584 2320 
Q 734 2547 951 2687 
Q 1169 2828 1416 2828 
Q 1650 2828 1839 2703 
Q 2028 2578 2106 2363 
Q 2216 2559 2386 2693 
Q 2556 2828 2759 2828 
Q 2897 2828 3040 2779 
Q 3184 2731 3275 2631 
Q 3366 2531 3366 2381 
Q 3366 2219 3261 2101 
Q 3156 1984 2994 1984 
Q 2891 1984 2822 2050 
Q 2753 2116 2753 2216 
Q 2753 2350 2845 2451 
Q 2938 2553 3066 2572 
Q 2950 2663 2747 2663 
Q 2541 2663 2389 2472 
Q 2238 2281 2175 2047 
L 1894 916 
Q 1825 659 1825 494 
Q 1825 331 1917 214 
Q 2009 97 2163 97 
Q 2463 97 2698 361 
Q 2934 625 3009 941 
Q 3022 978 3059 978 
L 3138 978 
Q 3163 978 3178 961 
Q 3194 944 3194 922 
Q 3194 916 3188 903 
Q 3097 522 2806 225 
Q 2516 -72 2150 -72 
Q 1916 -72 1727 54 
Q 1538 181 1459 397 
Q 1359 209 1182 68 
Q 1006 -72 806 -72 
Q 669 -72 523 -23 
Q 378 25 287 125 
Q 197 225 197 378 
Q 197 528 301 651 
Q 406 775 563 775 
Q 669 775 741 711 
Q 813 647 813 544 
Q 813 409 723 309 
Q 634 209 500 184 
z
" transform="scale(0.015625)"/>
      </defs>
      <use xlink:href="#Cmmi10-78" transform="translate(0 0.8125)"/>
     </g>
    </g>
   </g>
   <g id="matplotlib.axis_2">
    <g id="ytick_1">
     <g id="line2d_3">
      <defs>
       <path id="m8777404810" d="M 0 0 
L -3.5 0 
" style="stroke: #000000; stroke-width: 0.8"/>
      </defs>
      <g>
       <use xlink:href="#m8777404810" x="157.113134" y="314.218547" style="stroke: #000000; stroke-width: 0.8"/>
      </g>
     </g>
    </g>
    <g id="ytick_2">
     <g id="line2d_4">
      <g>
       <use xlink:href="#m8777404810" x="157.113134" y="171.676507" style="stroke: #000000; stroke-width: 0.8"/>
      </g>
     </g>
     <g id="text_4">
      <!-- 1 -->
      <g transform="translate(143.750634 175.475726) scale(0.1 -0.1)">
       <use xlink:href="#DejaVuSans-31"/>
      </g>
     </g>
    </g>
    <g id="ytick_3">
     <g id="line2d_5">
      <g>
       <use xlink:href="#m8777404810" x="157.113134" y="29.134467" style="stroke: #000000; stroke-width: 0.8"/>
      </g>
     </g>
     <g id="text_5">
      <!-- 2 -->
      <g transform="translate(143.750634 32.933685) scale(0.1 -0.1)">
       <defs>
        <path id="DejaVuSans-32" d="M 1228 531 
L 3431 531 
L 3431 0 
L 469 0 
L 469 531 
Q 828 903 1448 1529 
Q 2069 2156 2228 2338 
Q 2531 2678 2651 2914 
Q 2772 3150 2772 3378 
Q 2772 3750 2511 3984 
Q 2250 4219 1831 4219 
Q 1534 4219 1204 4116 
Q 875 4013 500 3803 
L 500 4441 
Q 881 4594 1212 4672 
Q 1544 4750 1819 4750 
Q 2544 4750 2975 4387 
Q 3406 4025 3406 3419 
Q 3406 3131 3298 2873 
Q 3191 2616 2906 2266 
Q 2828 2175 2409 1742 
Q 1991 1309 1228 531 
z
" transform="scale(0.015625)"/>
       </defs>
       <use xlink:href="#DejaVuSans-32"/>
      </g>
     </g>
    </g>
    <g id="text_6">
     <!-- $y$ -->
     <g transform="translate(153.113134 12.0825) scale(0.16 -0.16)">
      <defs>
       <path id="Cmmi10-79" d="M 538 -916 
Q 672 -1147 1006 -1147 
Q 1309 -1147 1531 -934 
Q 1753 -722 1889 -420 
Q 2025 -119 2100 197 
Q 1816 -72 1484 -72 
Q 1231 -72 1053 15 
Q 875 103 776 276 
Q 678 450 678 697 
Q 678 906 734 1126 
Q 791 1347 892 1617 
Q 994 1888 1069 2088 
Q 1153 2322 1153 2472 
Q 1153 2663 1013 2663 
Q 759 2663 595 2402 
Q 431 2141 353 1819 
Q 341 1778 300 1778 
L 225 1778 
Q 172 1778 172 1838 
L 172 1856 
Q 275 2238 487 2533 
Q 700 2828 1025 2828 
Q 1253 2828 1411 2678 
Q 1569 2528 1569 2297 
Q 1569 2178 1516 2047 
Q 1488 1969 1388 1706 
Q 1288 1444 1234 1272 
Q 1181 1100 1147 934 
Q 1113 769 1113 603 
Q 1113 391 1203 244 
Q 1294 97 1491 97 
Q 1888 97 2203 581 
L 2688 2553 
Q 2709 2638 2787 2698 
Q 2866 2759 2956 2759 
Q 3034 2759 3092 2709 
Q 3150 2659 3150 2578 
Q 3150 2541 3144 2528 
L 2509 -19 
Q 2425 -347 2200 -647 
Q 1975 -947 1658 -1130 
Q 1341 -1313 997 -1313 
Q 831 -1313 668 -1248 
Q 506 -1184 406 -1056 
Q 306 -928 306 -756 
Q 306 -581 409 -453 
Q 513 -325 684 -325 
Q 788 -325 858 -389 
Q 928 -453 928 -556 
Q 928 -703 818 -812 
Q 709 -922 563 -922 
Q 556 -919 550 -917 
Q 544 -916 538 -916 
z
" transform="scale(0.015625)"/>
      </defs>
      <use xlink:href="#Cmmi10-79" transform="translate(0 0.8125)"/>
     </g>
    </g>
   </g>
   <g id="line2d_6">
    <path d="M 299.655175 171.676507 
L 299.491672 164.851176 
L 298.723643 155.406997 
L 297.937329 149.613429 
L 296.458727 141.659194 
L 294.648722 134.230609 
L 292.792763 127.981296 
L 289.963231 120.013318 
L 288.35536 116.055366 
L 285.848625 110.476778 
L 283.804747 106.350643 
L 279.805576 99.11758 
L 277.515809 95.378216 
L 274.246264 90.448044 
L 271.128398 86.126797 
L 267.222005 81.1543 
L 264.759264 78.239127 
L 258.428444 71.409657 
L 254.238538 67.345834 
L 248.398548 62.199539 
L 245.122655 59.54909 
L 241.604197 56.874532 
L 234.118788 51.725006 
L 227.584654 47.773326 
L 224.634482 46.141249 
L 217.989705 42.787887 
L 210.680571 39.582741 
L 205.111679 37.458874 
L 197.224 34.894375 
L 191.376153 33.313655 
L 184.264705 31.74429 
L 180.384746 31.046975 
L 173.30506 30.057106 
L 169.504002 29.674043 
L 164.490371 29.325498 
L 158.760926 29.143991 
L 151.22646 29.256072 
L 147.754317 29.442032 
L 142.016849 29.936126 
L 137.008064 30.559465 
L 129.661079 31.802928 
L 126.246868 32.516502 
L 118.871304 34.3601 
L 115.996163 35.193438 
L 107.359626 38.099482 
L 99.356689 41.359868 
L 95.04596 43.356987 
L 88.850942 46.542553 
L 83.071738 49.872957 
L 80.296549 51.603839 
L 74.008852 55.866699 
L 69.299057 59.395961 
L 63.499374 64.18373 
L 58.291763 68.950805 
L 53.078165 74.234429 
L 46.51687 81.750428 
L 41.88127 87.772689 
L 37.706137 93.829205 
L 33.981549 99.865323 
L 29.561849 108.045516 
L 27.542157 112.266112 
L 24.967841 118.236309 
L 22.580387 124.568407 
L 19.948588 132.893515 
L 18.764983 137.354177 
L 17.807586 141.4739 
L 16.825254 146.426875 
L 15.661492 154.079173 
L 15.173383 158.5868 
L 14.80412 163.52925 
L 14.58159 169.946702 
L 14.585063 173.672086 
L 14.755026 178.915444 
L 14.987825 182.568233 
L 15.469973 187.659251 
L 15.957115 191.506069 
L 16.794285 196.753468 
L 17.539745 200.616139 
L 19.770778 209.825039 
L 21.628365 215.972226 
L 22.967423 219.875694 
L 25.598402 226.650215 
L 26.722364 229.265397 
L 28.988692 234.145384 
L 32.162659 240.27397 
L 34.10239 243.694492 
L 38.057782 250.060539 
L 39.511965 252.22586 
L 42.261985 256.100715 
L 45.791894 260.703552 
L 51.728886 267.657722 
L 58.083356 274.201316 
L 65.077212 280.52329 
L 69.193101 283.874105 
L 73.763671 287.309981 
L 76.994252 289.571367 
L 80.413732 291.824062 
L 85.348447 294.835197 
L 90.341799 297.612292 
L 97.673794 301.234209 
L 105.588881 304.58055 
L 111.801592 306.824934 
L 119.276205 309.105034 
L 124.087614 310.339942 
L 129.457839 311.510043 
L 135.999953 312.646244 
L 142.709066 313.488905 
L 150.263068 314.053857 
L 155.029041 314.203311 
L 162.810233 314.104651 
L 170.576381 313.581314 
L 176.326575 312.917708 
L 183.536602 311.748037 
L 190.792422 310.182604 
L 199.425087 307.793853 
L 205.874957 305.618725 
L 211.995594 303.229344 
L 217.853108 300.629556 
L 223.600888 297.762239 
L 228.508956 295.049397 
L 233.628403 291.94141 
L 237.993826 289.050043 
L 242.491652 285.820022 
L 246.612677 282.618227 
L 253.019011 277.129322 
L 259.185695 271.172364 
L 263.294993 266.774594 
L 268.384489 260.765894 
L 273.114114 254.513733 
L 276.397693 249.71129 
L 280.212636 243.542674 
L 283.830877 236.951671 
L 285.363061 233.887354 
L 287.972565 228.192368 
L 289.577658 224.320435 
L 291.015346 220.548083 
L 293.294986 213.780386 
L 295.423939 206.149025 
L 296.254547 202.626474 
L 297.353012 197.191404 
L 297.997629 193.351202 
L 298.785691 187.396557 
L 299.359071 180.859462 
L 299.51089 178.088403 
L 299.655175 171.676507 
L 299.655175 171.676507 
" clip-path="url(#pcb172eb939)" style="fill: none; stroke: #000000; stroke-width: 2; stroke-linecap: square"/>
   </g>
   <g id="patch_4">
    <path d="M 157.113134 319.920038 
L 157.113134 23.4425 
" style="fill: none; stroke: #000000; stroke-width: 0.8; stroke-linejoin: miter; stroke-linecap: square"/>
   </g>
   <g id="patch_5">
    <path d="M 8.880118 314.218547 
L 305.356646 314.218547 
" style="fill: none; stroke: #000000; stroke-width: 0.8; stroke-linejoin: miter; stroke-linecap: square"/>
   </g>
  </g>
 </g>
 <defs>
  <clipPath id="pcb172eb939">
   <rect x="8.880118" y="23.4425" width="296.476528" height="296.477538"/>
  </clipPath>
 </defs>
</svg>
