<?xml version="1.0" encoding="utf-8" standalone="no"?>
<!DOCTYPE svg PUBLIC "-//W3C//DTD SVG 1.1//EN"
  "http://www.w3.org/Graphics/SVG/1.1/DTD/svg11.dtd">
<svg xmlns:xlink="http://www.w3.org/1999/xlink" width="451.30218pt" height="337.397538pt" viewBox="0 0 451.30218 337.397538" xmlns="http://www.w3.org/2000/svg" version="1.1">
 <metadata>
  <rdf:RDF xmlns:dc="http://purl.org/dc/elements/1.1/" xmlns:cc="http://creativecommons.org/ns#" xmlns:rdf="http://www.w3.org/1999/02/22-rdf-syntax-ns#">
   <cc:Work>
    <dc:type rdf:resource="http://purl.org/dc/dcmitype/StillImage"/>
    <dc:date>2025-07-25T20:21:23.248397</dc:date>
    <dc:format>image/svg+xml</dc:format>
    <dc:creator>
     <cc:Agent>
      <dc:title>Matplotlib v3.10.3, https://matplotlib.org/</dc:title>
     </cc:Agent>
    </dc:creator>
   </cc:Work>
  </rdf:RDF>
 </metadata>
 <defs>
  <style type="text/css">*{stroke-linejoin: round; stroke-linecap: butt}</style>
 </defs>
 <g id="figure_1">
  <g id="patch_1">
   <path d="M 0 337.397538 
L 451.30218 337.397538 
L 451.30218 0 
L 0 0 
z
" style="fill: #ffffff"/>
  </g>
  <g id="axes_1">
   <g id="patch_2">
    <path d="M 20.801795 330.197538 
L 444.10218 330.197538 
L 444.10218 7.2 
L 20.801795 7.2 
z
" style="fill: #ffffff"/>
   </g>
   <g id="matplotlib.axis_1">
    <g id="xtick_1">
     <g id="line2d_1">
      <path d="M 28.942187 330.197538 
L 28.942187 7.2 
" clip-path="url(#ped1aaa1a64)" style="fill: none; stroke-dasharray: 0.5,0.825; stroke-dashoffset: 0; stroke: #000000; stroke-width: 0.5"/>
     </g>
     <g id="line2d_2">
      <defs>
       <path id="mb0a631a105" d="M 0 0 
L 0 3.5 
" style="stroke: #000000; stroke-width: 0.8"/>
      </defs>
      <g>
       <use xlink:href="#mb0a631a105" x="28.942187" y="199.756225" style="stroke: #000000; stroke-width: 0.8"/>
      </g>
     </g>
    </g>
    <g id="xtick_2">
     <g id="line2d_3">
      <path d="M 130.697088 330.197538 
L 130.697088 7.2 
" clip-path="url(#ped1aaa1a64)" style="fill: none; stroke-dasharray: 0.5,0.825; stroke-dashoffset: 0; stroke: #000000; stroke-width: 0.5"/>
     </g>
     <g id="line2d_4">
      <g>
       <use xlink:href="#mb0a631a105" x="130.697088" y="199.756225" style="stroke: #000000; stroke-width: 0.8"/>
      </g>
     </g>
     <g id="text_1">
      <!-- 0.5 -->
      <g transform="translate(122.745525 214.354662) scale(0.1 -0.1)">
       <defs>
        <path id="DejaVuSans-30" d="M 2034 4250 
Q 1547 4250 1301 3770 
Q 1056 3291 1056 2328 
Q 1056 1369 1301 889 
Q 1547 409 2034 409 
Q 2525 409 2770 889 
Q 3016 1369 3016 2328 
Q 3016 3291 2770 3770 
Q 2525 4250 2034 4250 
z
M 2034 4750 
Q 2819 4750 3233 4129 
Q 3647 3509 3647 2328 
Q 3647 1150 3233 529 
Q 2819 -91 2034 -91 
Q 1250 -91 836 529 
Q 422 1150 422 2328 
Q 422 3509 836 4129 
Q 1250 4750 2034 4750 
z
" transform="scale(0.015625)"/>
        <path id="DejaVuSans-2e" d="M 684 794 
L 1344 794 
L 1344 0 
L 684 0 
L 684 794 
z
" transform="scale(0.015625)"/>
        <path id="DejaVuSans-35" d="M 691 4666 
L 3169 4666 
L 3169 4134 
L 1269 4134 
L 1269 2991 
Q 1406 3038 1543 3061 
Q 1681 3084 1819 3084 
Q 2600 3084 3056 2656 
Q 3513 2228 3513 1497 
Q 3513 744 3044 326 
Q 2575 -91 1722 -91 
Q 1428 -91 1123 -41 
Q 819 9 494 109 
L 494 744 
Q 775 591 1075 516 
Q 1375 441 1709 441 
Q 2250 441 2565 725 
Q 2881 1009 2881 1497 
Q 2881 1984 2565 2268 
Q 2250 2553 1709 2553 
Q 1456 2553 1204 2497 
Q 953 2441 691 2322 
L 691 4666 
z
" transform="scale(0.015625)"/>
       </defs>
       <use xlink:href="#DejaVuSans-30"/>
       <use xlink:href="#DejaVuSans-2e" transform="translate(63.623047 0)"/>
       <use xlink:href="#DejaVuSans-35" transform="translate(95.410156 0)"/>
      </g>
     </g>
    </g>
    <g id="xtick_3">
     <g id="line2d_5">
      <path d="M 232.451988 330.197538 
L 232.451988 7.2 
" clip-path="url(#ped1aaa1a64)" style="fill: none; stroke-dasharray: 0.5,0.825; stroke-dashoffset: 0; stroke: #000000; stroke-width: 0.5"/>
     </g>
     <g id="line2d_6">
      <g>
       <use xlink:href="#mb0a631a105" x="232.451988" y="199.756225" style="stroke: #000000; stroke-width: 0.8"/>
      </g>
     </g>
     <g id="text_2">
      <!-- 1.0 -->
      <g transform="translate(224.500425 214.354662) scale(0.1 -0.1)">
       <defs>
        <path id="DejaVuSans-31" d="M 794 531 
L 1825 531 
L 1825 4091 
L 703 3866 
L 703 4441 
L 1819 4666 
L 2450 4666 
L 2450 531 
L 3481 531 
L 3481 0 
L 794 0 
L 794 531 
z
" transform="scale(0.015625)"/>
       </defs>
       <use xlink:href="#DejaVuSans-31"/>
       <use xlink:href="#DejaVuSans-2e" transform="translate(63.623047 0)"/>
       <use xlink:href="#DejaVuSans-30" transform="translate(95.410156 0)"/>
      </g>
     </g>
    </g>
    <g id="xtick_4">
     <g id="line2d_7">
      <path d="M 334.206888 330.197538 
L 334.206888 7.2 
" clip-path="url(#ped1aaa1a64)" style="fill: none; stroke-dasharray: 0.5,0.825; stroke-dashoffset: 0; stroke: #000000; stroke-width: 0.5"/>
     </g>
     <g id="line2d_8">
      <g>
       <use xlink:href="#mb0a631a105" x="334.206888" y="199.756225" style="stroke: #000000; stroke-width: 0.8"/>
      </g>
     </g>
     <g id="text_3">
      <!-- 1.5 -->
      <g transform="translate(326.255325 214.354662) scale(0.1 -0.1)">
       <use xlink:href="#DejaVuSans-31"/>
       <use xlink:href="#DejaVuSans-2e" transform="translate(63.623047 0)"/>
       <use xlink:href="#DejaVuSans-35" transform="translate(95.410156 0)"/>
      </g>
     </g>
    </g>
    <g id="xtick_5">
     <g id="line2d_9">
      <path d="M 435.961788 330.197538 
L 435.961788 7.2 
" clip-path="url(#ped1aaa1a64)" style="fill: none; stroke-dasharray: 0.5,0.825; stroke-dashoffset: 0; stroke: #000000; stroke-width: 0.5"/>
     </g>
     <g id="line2d_10">
      <g>
       <use xlink:href="#mb0a631a105" x="435.961788" y="199.756225" style="stroke: #000000; stroke-width: 0.8"/>
      </g>
     </g>
     <g id="text_4">
      <!-- 2.0 -->
      <g transform="translate(428.010226 214.354662) scale(0.1 -0.1)">
       <defs>
        <path id="DejaVuSans-32" d="M 1228 531 
L 3431 531 
L 3431 0 
L 469 0 
L 469 531 
Q 828 903 1448 1529 
Q 2069 2156 2228 2338 
Q 2531 2678 2651 2914 
Q 2772 3150 2772 3378 
Q 2772 3750 2511 3984 
Q 2250 4219 1831 4219 
Q 1534 4219 1204 4116 
Q 875 4013 500 3803 
L 500 4441 
Q 881 4594 1212 4672 
Q 1544 4750 1819 4750 
Q 2544 4750 2975 4387 
Q 3406 4025 3406 3419 
Q 3406 3131 3298 2873 
Q 3191 2616 2906 2266 
Q 2828 2175 2409 1742 
Q 1991 1309 1228 531 
z
" transform="scale(0.015625)"/>
       </defs>
       <use xlink:href="#DejaVuSans-32"/>
       <use xlink:href="#DejaVuSans-2e" transform="translate(63.623047 0)"/>
       <use xlink:href="#DejaVuSans-30" transform="translate(95.410156 0)"/>
      </g>
     </g>
    </g>
    <g id="xtick_6">
     <g id="line2d_11">
      <defs>
       <path id="meee1561f68" d="M 0 0 
L 0 2 
" style="stroke: #000000; stroke-width: 0.6"/>
      </defs>
      <g>
       <use xlink:href="#meee1561f68" x="49.293168" y="199.756225" style="stroke: #000000; stroke-width: 0.6"/>
      </g>
     </g>
    </g>
    <g id="xtick_7">
     <g id="line2d_12">
      <g>
       <use xlink:href="#meee1561f68" x="69.644148" y="199.756225" style="stroke: #000000; stroke-width: 0.6"/>
      </g>
     </g>
    </g>
    <g id="xtick_8">
     <g id="line2d_13">
      <g>
       <use xlink:href="#meee1561f68" x="89.995128" y="199.756225" style="stroke: #000000; stroke-width: 0.6"/>
      </g>
     </g>
    </g>
    <g id="xtick_9">
     <g id="line2d_14">
      <g>
       <use xlink:href="#meee1561f68" x="110.346108" y="199.756225" style="stroke: #000000; stroke-width: 0.6"/>
      </g>
     </g>
    </g>
    <g id="xtick_10">
     <g id="line2d_15">
      <g>
       <use xlink:href="#meee1561f68" x="151.048068" y="199.756225" style="stroke: #000000; stroke-width: 0.6"/>
      </g>
     </g>
    </g>
    <g id="xtick_11">
     <g id="line2d_16">
      <g>
       <use xlink:href="#meee1561f68" x="171.399048" y="199.756225" style="stroke: #000000; stroke-width: 0.6"/>
      </g>
     </g>
    </g>
    <g id="xtick_12">
     <g id="line2d_17">
      <g>
       <use xlink:href="#meee1561f68" x="191.750028" y="199.756225" style="stroke: #000000; stroke-width: 0.6"/>
      </g>
     </g>
    </g>
    <g id="xtick_13">
     <g id="line2d_18">
      <g>
       <use xlink:href="#meee1561f68" x="212.101008" y="199.756225" style="stroke: #000000; stroke-width: 0.6"/>
      </g>
     </g>
    </g>
    <g id="xtick_14">
     <g id="line2d_19">
      <g>
       <use xlink:href="#meee1561f68" x="252.802968" y="199.756225" style="stroke: #000000; stroke-width: 0.6"/>
      </g>
     </g>
    </g>
    <g id="xtick_15">
     <g id="line2d_20">
      <g>
       <use xlink:href="#meee1561f68" x="273.153948" y="199.756225" style="stroke: #000000; stroke-width: 0.6"/>
      </g>
     </g>
    </g>
    <g id="xtick_16">
     <g id="line2d_21">
      <g>
       <use xlink:href="#meee1561f68" x="293.504928" y="199.756225" style="stroke: #000000; stroke-width: 0.6"/>
      </g>
     </g>
    </g>
    <g id="xtick_17">
     <g id="line2d_22">
      <g>
       <use xlink:href="#meee1561f68" x="313.855908" y="199.756225" style="stroke: #000000; stroke-width: 0.6"/>
      </g>
     </g>
    </g>
    <g id="xtick_18">
     <g id="line2d_23">
      <g>
       <use xlink:href="#meee1561f68" x="354.557868" y="199.756225" style="stroke: #000000; stroke-width: 0.6"/>
      </g>
     </g>
    </g>
    <g id="xtick_19">
     <g id="line2d_24">
      <g>
       <use xlink:href="#meee1561f68" x="374.908848" y="199.756225" style="stroke: #000000; stroke-width: 0.6"/>
      </g>
     </g>
    </g>
    <g id="xtick_20">
     <g id="line2d_25">
      <g>
       <use xlink:href="#meee1561f68" x="395.259828" y="199.756225" style="stroke: #000000; stroke-width: 0.6"/>
      </g>
     </g>
    </g>
    <g id="xtick_21">
     <g id="line2d_26">
      <g>
       <use xlink:href="#meee1561f68" x="415.610808" y="199.756225" style="stroke: #000000; stroke-width: 0.6"/>
      </g>
     </g>
    </g>
   </g>
   <g id="matplotlib.axis_2">
    <g id="ytick_1">
     <g id="line2d_27">
      <path d="M 20.801795 323.986047 
L 444.10218 323.986047 
" clip-path="url(#ped1aaa1a64)" style="fill: none; stroke-dasharray: 0.5,0.825; stroke-dashoffset: 0; stroke: #000000; stroke-width: 0.5"/>
     </g>
     <g id="line2d_28">
      <defs>
       <path id="m9ba36bb184" d="M 0 0 
L -3.5 0 
" style="stroke: #000000; stroke-width: 0.8"/>
      </defs>
      <g>
       <use xlink:href="#m9ba36bb184" x="28.942187" y="323.986047" style="stroke: #000000; stroke-width: 0.8"/>
      </g>
     </g>
     <g id="text_5">
      <!-- −2 -->
      <g transform="translate(7.2 327.785266) scale(0.1 -0.1)">
       <defs>
        <path id="DejaVuSans-2212" d="M 678 2272 
L 4684 2272 
L 4684 1741 
L 678 1741 
L 678 2272 
z
" transform="scale(0.015625)"/>
       </defs>
       <use xlink:href="#DejaVuSans-2212"/>
       <use xlink:href="#DejaVuSans-32" transform="translate(83.789062 0)"/>
      </g>
     </g>
    </g>
    <g id="ytick_2">
     <g id="line2d_29">
      <path d="M 20.801795 261.871136 
L 444.10218 261.871136 
" clip-path="url(#ped1aaa1a64)" style="fill: none; stroke-dasharray: 0.5,0.825; stroke-dashoffset: 0; stroke: #000000; stroke-width: 0.5"/>
     </g>
     <g id="line2d_30">
      <g>
       <use xlink:href="#m9ba36bb184" x="28.942187" y="261.871136" style="stroke: #000000; stroke-width: 0.8"/>
      </g>
     </g>
     <g id="text_6">
      <!-- −1 -->
      <g transform="translate(7.2 265.670355) scale(0.1 -0.1)">
       <use xlink:href="#DejaVuSans-2212"/>
       <use xlink:href="#DejaVuSans-31" transform="translate(83.789062 0)"/>
      </g>
     </g>
    </g>
    <g id="ytick_3">
     <g id="line2d_31">
      <path d="M 20.801795 199.756225 
L 444.10218 199.756225 
" clip-path="url(#ped1aaa1a64)" style="fill: none; stroke-dasharray: 0.5,0.825; stroke-dashoffset: 0; stroke: #000000; stroke-width: 0.5"/>
     </g>
     <g id="line2d_32">
      <g>
       <use xlink:href="#m9ba36bb184" x="28.942187" y="199.756225" style="stroke: #000000; stroke-width: 0.8"/>
      </g>
     </g>
    </g>
    <g id="ytick_4">
     <g id="line2d_33">
      <path d="M 20.801795 137.641314 
L 444.10218 137.641314 
" clip-path="url(#ped1aaa1a64)" style="fill: none; stroke-dasharray: 0.5,0.825; stroke-dashoffset: 0; stroke: #000000; stroke-width: 0.5"/>
     </g>
     <g id="line2d_34">
      <g>
       <use xlink:href="#m9ba36bb184" x="28.942187" y="137.641314" style="stroke: #000000; stroke-width: 0.8"/>
      </g>
     </g>
     <g id="text_7">
      <!-- 1 -->
      <g transform="translate(15.579687 141.440532) scale(0.1 -0.1)">
       <use xlink:href="#DejaVuSans-31"/>
      </g>
     </g>
    </g>
    <g id="ytick_5">
     <g id="line2d_35">
      <path d="M 20.801795 75.526402 
L 444.10218 75.526402 
" clip-path="url(#ped1aaa1a64)" style="fill: none; stroke-dasharray: 0.5,0.825; stroke-dashoffset: 0; stroke: #000000; stroke-width: 0.5"/>
     </g>
     <g id="line2d_36">
      <g>
       <use xlink:href="#m9ba36bb184" x="28.942187" y="75.526402" style="stroke: #000000; stroke-width: 0.8"/>
      </g>
     </g>
     <g id="text_8">
      <!-- 2 -->
      <g transform="translate(15.579687 79.325621) scale(0.1 -0.1)">
       <use xlink:href="#DejaVuSans-32"/>
      </g>
     </g>
    </g>
    <g id="ytick_6">
     <g id="line2d_37">
      <path d="M 20.801795 13.411491 
L 444.10218 13.411491 
" clip-path="url(#ped1aaa1a64)" style="fill: none; stroke-dasharray: 0.5,0.825; stroke-dashoffset: 0; stroke: #000000; stroke-width: 0.5"/>
     </g>
     <g id="line2d_38">
      <g>
       <use xlink:href="#m9ba36bb184" x="28.942187" y="13.411491" style="stroke: #000000; stroke-width: 0.8"/>
      </g>
     </g>
     <g id="text_9">
      <!-- 3 -->
      <g transform="translate(15.579687 17.21071) scale(0.1 -0.1)">
       <defs>
        <path id="DejaVuSans-33" d="M 2597 2516 
Q 3050 2419 3304 2112 
Q 3559 1806 3559 1356 
Q 3559 666 3084 287 
Q 2609 -91 1734 -91 
Q 1441 -91 1130 -33 
Q 819 25 488 141 
L 488 750 
Q 750 597 1062 519 
Q 1375 441 1716 441 
Q 2309 441 2620 675 
Q 2931 909 2931 1356 
Q 2931 1769 2642 2001 
Q 2353 2234 1838 2234 
L 1294 2234 
L 1294 2753 
L 1863 2753 
Q 2328 2753 2575 2939 
Q 2822 3125 2822 3475 
Q 2822 3834 2567 4026 
Q 2313 4219 1838 4219 
Q 1578 4219 1281 4162 
Q 984 4106 628 3988 
L 628 4550 
Q 988 4650 1302 4700 
Q 1616 4750 1894 4750 
Q 2613 4750 3031 4423 
Q 3450 4097 3450 3541 
Q 3450 3153 3228 2886 
Q 3006 2619 2597 2516 
z
" transform="scale(0.015625)"/>
       </defs>
       <use xlink:href="#DejaVuSans-33"/>
      </g>
     </g>
    </g>
    <g id="ytick_7">
     <g id="line2d_39">
      <defs>
       <path id="m19130ac1ab" d="M 0 0 
L -2 0 
" style="stroke: #000000; stroke-width: 0.6"/>
      </defs>
      <g>
       <use xlink:href="#m19130ac1ab" x="28.942187" y="311.563065" style="stroke: #000000; stroke-width: 0.6"/>
      </g>
     </g>
    </g>
    <g id="ytick_8">
     <g id="line2d_40">
      <g>
       <use xlink:href="#m19130ac1ab" x="28.942187" y="299.140083" style="stroke: #000000; stroke-width: 0.6"/>
      </g>
     </g>
    </g>
    <g id="ytick_9">
     <g id="line2d_41">
      <g>
       <use xlink:href="#m19130ac1ab" x="28.942187" y="286.717101" style="stroke: #000000; stroke-width: 0.6"/>
      </g>
     </g>
    </g>
    <g id="ytick_10">
     <g id="line2d_42">
      <g>
       <use xlink:href="#m19130ac1ab" x="28.942187" y="274.294118" style="stroke: #000000; stroke-width: 0.6"/>
      </g>
     </g>
    </g>
    <g id="ytick_11">
     <g id="line2d_43">
      <g>
       <use xlink:href="#m19130ac1ab" x="28.942187" y="249.448154" style="stroke: #000000; stroke-width: 0.6"/>
      </g>
     </g>
    </g>
    <g id="ytick_12">
     <g id="line2d_44">
      <g>
       <use xlink:href="#m19130ac1ab" x="28.942187" y="237.025172" style="stroke: #000000; stroke-width: 0.6"/>
      </g>
     </g>
    </g>
    <g id="ytick_13">
     <g id="line2d_45">
      <g>
       <use xlink:href="#m19130ac1ab" x="28.942187" y="224.602189" style="stroke: #000000; stroke-width: 0.6"/>
      </g>
     </g>
    </g>
    <g id="ytick_14">
     <g id="line2d_46">
      <g>
       <use xlink:href="#m19130ac1ab" x="28.942187" y="212.179207" style="stroke: #000000; stroke-width: 0.6"/>
      </g>
     </g>
    </g>
    <g id="ytick_15">
     <g id="line2d_47">
      <g>
       <use xlink:href="#m19130ac1ab" x="28.942187" y="187.333243" style="stroke: #000000; stroke-width: 0.6"/>
      </g>
     </g>
    </g>
    <g id="ytick_16">
     <g id="line2d_48">
      <g>
       <use xlink:href="#m19130ac1ab" x="28.942187" y="174.91026" style="stroke: #000000; stroke-width: 0.6"/>
      </g>
     </g>
    </g>
    <g id="ytick_17">
     <g id="line2d_49">
      <g>
       <use xlink:href="#m19130ac1ab" x="28.942187" y="162.487278" style="stroke: #000000; stroke-width: 0.6"/>
      </g>
     </g>
    </g>
    <g id="ytick_18">
     <g id="line2d_50">
      <g>
       <use xlink:href="#m19130ac1ab" x="28.942187" y="150.064296" style="stroke: #000000; stroke-width: 0.6"/>
      </g>
     </g>
    </g>
    <g id="ytick_19">
     <g id="line2d_51">
      <g>
       <use xlink:href="#m19130ac1ab" x="28.942187" y="125.218331" style="stroke: #000000; stroke-width: 0.6"/>
      </g>
     </g>
    </g>
    <g id="ytick_20">
     <g id="line2d_52">
      <g>
       <use xlink:href="#m19130ac1ab" x="28.942187" y="112.795349" style="stroke: #000000; stroke-width: 0.6"/>
      </g>
     </g>
    </g>
    <g id="ytick_21">
     <g id="line2d_53">
      <g>
       <use xlink:href="#m19130ac1ab" x="28.942187" y="100.372367" style="stroke: #000000; stroke-width: 0.6"/>
      </g>
     </g>
    </g>
    <g id="ytick_22">
     <g id="line2d_54">
      <g>
       <use xlink:href="#m19130ac1ab" x="28.942187" y="87.949385" style="stroke: #000000; stroke-width: 0.6"/>
      </g>
     </g>
    </g>
    <g id="ytick_23">
     <g id="line2d_55">
      <g>
       <use xlink:href="#m19130ac1ab" x="28.942187" y="63.10342" style="stroke: #000000; stroke-width: 0.6"/>
      </g>
     </g>
    </g>
    <g id="ytick_24">
     <g id="line2d_56">
      <g>
       <use xlink:href="#m19130ac1ab" x="28.942187" y="50.680438" style="stroke: #000000; stroke-width: 0.6"/>
      </g>
     </g>
    </g>
    <g id="ytick_25">
     <g id="line2d_57">
      <g>
       <use xlink:href="#m19130ac1ab" x="28.942187" y="38.257456" style="stroke: #000000; stroke-width: 0.6"/>
      </g>
     </g>
    </g>
    <g id="ytick_26">
     <g id="line2d_58">
      <g>
       <use xlink:href="#m19130ac1ab" x="28.942187" y="25.834473" style="stroke: #000000; stroke-width: 0.6"/>
      </g>
     </g>
    </g>
   </g>
   <g id="line2d_59">
    <path d="M 28.942187 199.756225 
L 34.085498 170.813378 
L 36.735894 157.148455 
L 39.040816 146.45158 
L 40.75336 139.39073 
L 42.385336 133.465332 
L 44.014802 128.402818 
L 45.315364 125.012911 
L 46.505295 122.438646 
L 47.690696 120.388362 
L 48.659322 119.100012 
L 49.627947 118.162445 
L 50.433357 117.650378 
L 51.297455 117.37024 
L 52.190897 117.371449 
L 53.084339 117.664728 
L 53.813451 118.117028 
L 54.822567 119.051981 
L 55.942585 120.49746 
L 57.131943 122.482657 
L 58.529323 125.373957 
L 60.107135 129.307623 
L 61.696465 133.911592 
L 63.73358 140.611997 
L 65.745937 147.925575 
L 68.42695 158.369521 
L 74.524071 182.414357 
L 77.020239 191.256757 
L 78.940323 197.276633 
L 80.524966 201.605506 
L 81.968605 204.972694 
L 83.232293 207.425434 
L 84.414969 209.273709 
L 85.604997 210.674826 
L 86.583574 211.469629 
L 87.542479 211.927433 
L 88.309603 212.06108 
L 89.076727 211.985773 
L 89.769237 211.737296 
L 90.564505 211.240181 
L 91.448122 210.422686 
L 92.331738 209.327686 
L 93.440036 207.566604 
L 94.525048 205.432639 
L 95.828435 202.349095 
L 97.353228 198.053484 
L 98.884848 193.039541 
L 100.73508 186.13502 
L 102.931045 176.901525 
L 105.56185 164.678477 
L 108.989912 147.586422 
L 114.6021 119.508972 
L 117.038636 108.338593 
L 119.301118 99.004326 
L 120.940255 93.026536 
L 122.563448 87.859258 
L 124.010277 83.948197 
L 125.385108 80.883321 
L 126.440295 78.983151 
L 127.495482 77.489196 
L 128.446439 76.498772 
L 129.397397 75.851189 
L 130.257181 75.563637 
L 130.934617 75.537259 
L 131.833716 75.774851 
L 132.732814 76.32228 
L 133.622997 77.167037 
L 134.49535 78.283427 
L 135.658486 80.207633 
L 136.715908 82.377458 
L 138.013905 85.567279 
L 139.457361 89.760107 
L 141.045531 95.100569 
L 142.59748 100.983695 
L 144.680833 109.77025 
L 147.053303 120.7605 
L 150.287435 136.815479 
L 156.384275 167.327574 
L 158.965281 179.101397 
L 161.14445 188.029913 
L 162.83936 194.176279 
L 164.393969 199.111772 
L 165.877048 203.136058 
L 167.298518 206.324979 
L 168.611146 208.66228 
L 169.648643 210.08499 
L 170.648323 211.095135 
L 171.398083 211.618573 
L 172.119945 211.932394 
L 172.841808 212.059922 
L 173.563671 212.002001 
L 174.557774 211.621444 
L 175.374494 211.051588 
L 176.379721 210.038243 
L 177.384948 208.689821 
L 178.510069 206.797737 
L 179.874978 203.986963 
L 181.223034 200.693874 
L 182.776462 196.320975 
L 184.389744 191.204071 
L 186.561465 183.558541 
L 189.464348 172.397596 
L 196.693925 144.052013 
L 199.047572 135.960339 
L 200.968219 130.182254 
L 202.550584 126.102984 
L 203.895877 123.183872 
L 205.210509 120.863108 
L 206.252757 119.420472 
L 207.171929 118.453015 
L 208.091102 117.780489 
L 209.065314 117.39778 
L 209.788177 117.337384 
L 210.51104 117.469882 
L 211.233903 117.79681 
L 212.075186 118.423328 
L 213.034891 119.461661 
L 214.145076 121.091546 
L 215.116549 122.891505 
L 216.411846 125.824375 
L 217.783858 129.576554 
L 219.18144 134.052668 
L 220.903101 140.418301 
L 222.717871 148.057175 
L 224.766979 157.682825 
L 227.121604 169.809974 
L 230.095546 186.261762 
L 238.1199 231.499552 
L 240.795197 245.026583 
L 242.936124 254.720995 
L 244.739937 261.937387 
L 246.470904 267.936638 
L 247.903216 272.15744 
L 249.300176 275.588459 
L 250.439772 277.867854 
L 251.617693 279.721887 
L 252.542923 280.815888 
L 253.468154 281.589436 
L 254.335145 282.023598 
L 255.202137 282.17796 
L 256.033183 282.065741 
L 256.864228 281.702298 
L 257.83497 280.965618 
L 258.87675 279.810513 
L 259.918529 278.29094 
L 261.118206 276.109802 
L 262.480601 273.106457 
L 264.140837 268.754199 
L 265.837538 263.612811 
L 267.841264 256.790139 
L 270.164148 248.116362 
L 274.195177 232.082775 
L 278.350282 215.92526 
L 280.778132 207.435079 
L 282.611454 201.766963 
L 284.142885 197.634954 
L 285.654453 194.169521 
L 286.980252 191.679263 
L 288.164332 189.91907 
L 289.127818 188.824908 
L 290.107527 188.033737 
L 291.063904 187.581441 
L 291.763688 187.454059 
L 292.463472 187.500466 
L 293.183742 187.730778 
L 293.904013 188.146773 
L 294.766953 188.889503 
L 295.723852 190.022998 
L 296.680751 191.478994 
L 297.74919 193.479241 
L 298.960869 196.213431 
L 300.463898 200.265238 
L 301.981087 205.053269 
L 303.684881 211.196216 
L 305.546418 218.727267 
L 307.756624 228.590857 
L 310.652471 242.607576 
L 319.689637 287.351271 
L 322.062143 297.547853 
L 324.049092 305.09087 
L 325.720655 310.598535 
L 327.110672 314.527076 
L 328.514552 317.846844 
L 329.712505 320.136491 
L 330.762743 321.716356 
L 331.652274 322.734165 
L 332.541804 323.453247 
L 333.431334 323.870338 
L 334.320865 323.983548 
L 334.989741 323.868151 
L 335.846241 323.469565 
L 336.690963 322.802145 
L 337.705179 321.644852 
L 338.708973 320.123415 
L 339.913526 317.816439 
L 341.141069 314.944254 
L 342.601444 310.87647 
L 344.061819 306.148787 
L 345.688978 300.174616 
L 347.583972 292.395385 
L 350.077748 281.070004 
L 353.494115 264.232519 
L 360.036151 231.509435 
L 362.377952 220.832746 
L 364.724104 211.214553 
L 366.637765 204.367022 
L 368.180441 199.597752 
L 369.605437 195.842575 
L 370.826861 193.150338 
L 371.932682 191.148809 
L 372.98489 189.639014 
L 373.984221 188.567444 
L 374.824918 187.941897 
L 375.665615 187.569325 
L 376.506312 187.449368 
L 377.136835 187.524343 
L 377.866747 187.786243 
L 378.92083 188.491707 
L 379.893342 189.478704 
L 380.865854 190.779294 
L 382.071655 192.811241 
L 383.247163 195.2175 
L 384.684342 198.691703 
L 386.232073 203.029289 
L 387.932908 208.419733 
L 390.309059 216.834362 
L 393.215459 228.073106 
L 399.673498 253.514291 
L 402.148366 262.218438 
L 404.080403 268.204088 
L 405.858676 272.926911 
L 407.243051 276.004155 
L 408.631674 278.51015 
L 409.623548 279.920521 
L 410.498525 280.88988 
L 411.373502 281.593461 
L 412.244302 282.023253 
L 413.106748 282.177776 
L 413.842339 282.093315 
L 414.577931 281.807854 
L 415.309633 281.323362 
L 416.274867 280.377544 
L 417.189208 279.16034 
L 418.331704 277.203424 
L 419.474201 274.769204 
L 420.841069 271.2455 
L 422.307435 266.75277 
L 423.908979 261.050428 
L 425.599522 254.200469 
L 427.684492 244.710699 
L 429.926623 233.434394 
L 432.914476 217.152692 
L 435.961788 199.756225 
L 435.961788 199.756225 
" clip-path="url(#ped1aaa1a64)" style="fill: none; stroke: #000000; stroke-width: 3; stroke-linecap: square"/>
   </g>
   <g id="patch_3">
    <path d="M 28.942187 330.197538 
L 28.942187 7.2 
" style="fill: none; stroke: #000000; stroke-width: 0.8; stroke-linejoin: miter; stroke-linecap: square"/>
   </g>
   <g id="patch_4">
    <path d="M 20.801795 199.756225 
L 444.10218 199.756225 
" style="fill: none; stroke: #000000; stroke-width: 0.8; stroke-linejoin: miter; stroke-linecap: square"/>
   </g>
  </g>
 </g>
 <defs>
  <clipPath id="ped1aaa1a64">
   <rect x="20.801795" y="7.2" width="423.300385" height="322.997538"/>
  </clipPath>
 </defs>
</svg>
