<?xml version="1.0" encoding="utf-8" standalone="no"?>
<!DOCTYPE svg PUBLIC "-//W3C//DTD SVG 1.1//EN"
  "http://www.w3.org/Graphics/SVG/1.1/DTD/svg11.dtd">
<svg xmlns:xlink="http://www.w3.org/1999/xlink" width="453.6pt" height="220.528679pt" viewBox="0 0 453.6 220.528679" xmlns="http://www.w3.org/2000/svg" version="1.1">
 <metadata>
  <rdf:RDF xmlns:dc="http://purl.org/dc/elements/1.1/" xmlns:cc="http://creativecommons.org/ns#" xmlns:rdf="http://www.w3.org/1999/02/22-rdf-syntax-ns#">
   <cc:Work>
    <dc:type rdf:resource="http://purl.org/dc/dcmitype/StillImage"/>
    <dc:date>2025-08-04T00:38:27.403179</dc:date>
    <dc:format>image/svg+xml</dc:format>
    <dc:creator>
     <cc:Agent>
      <dc:title>Matplotlib v3.10.5, https://matplotlib.org/</dc:title>
     </cc:Agent>
    </dc:creator>
   </cc:Work>
  </rdf:RDF>
 </metadata>
 <defs>
  <style type="text/css">*{stroke-linejoin: round; stroke-linecap: butt}</style>
 </defs>
 <g id="figure_1">
  <g id="patch_1">
   <path d="M 0 220.528679 
L 453.6 220.528679 
L 453.6 0 
L 0 0 
z
" style="fill: #ffffff"/>
  </g>
  <g id="axes_1">
   <g id="patch_2">
    <path d="M 7.2 213.328679 
L 446.4 213.328679 
L 446.4 7.2 
L 7.2 7.2 
z
" style="fill: #ffffff"/>
   </g>
   <g id="PathCollection_1">
    <path d="M 206.320088 65.498964 
C 207.046377 65.498964 207.743016 65.210407 208.25658 64.696843 
C 208.770143 64.18328 209.058701 63.48664 209.058701 62.760352 
C 209.058701 62.034063 208.770143 61.337424 208.25658 60.82386 
C 207.743016 60.310296 207.046377 60.021739 206.320088 60.021739 
C 205.593799 60.021739 204.89716 60.310296 204.383596 60.82386 
C 203.870033 61.337424 203.581475 62.034063 203.581475 62.760352 
C 203.581475 63.48664 203.870033 64.18328 204.383596 64.696843 
C 204.89716 65.210407 205.593799 65.498964 206.320088 65.498964 
z
" clip-path="url(#p8959867265)"/>
   </g>
   <g id="matplotlib.axis_1"/>
   <g id="matplotlib.axis_2"/>
   <g id="line2d_1">
    <path d="M 368.949087 209.364666 
L 382.311392 201.988313 
L 392.44709 196.146024 
L 400.092947 191.503111 
L 406.716371 187.237066 
L 412.427211 183.29951 
L 417.432148 179.568305 
L 421.337176 176.399844 
L 424.820916 173.302015 
L 427.702342 170.462332 
L 430.114909 167.800384 
L 432.306178 165.038349 
L 433.867694 162.752164 
L 435.277229 160.3001 
L 436.404338 157.840212 
L 437.156532 155.65199 
L 437.625434 153.68245 
L 437.86411 152.015749 
L 437.953846 149.952575 
L 437.817285 147.942395 
L 437.42984 145.829648 
L 436.863535 143.930239 
L 435.994273 141.834372 
L 435.1496 140.224774 
L 433.596121 137.820188 
L 432.135887 135.941953 
L 430.336106 133.938519 
L 428.153217 131.816167 
L 425.209763 129.313872 
L 421.821674 126.783612 
L 418.075671 124.291454 
L 414.038383 121.866736 
L 409.724957 119.501553 
L 404.373198 116.814478 
L 398.17124 113.964247 
L 391.241261 111.03754 
L 384.28418 108.314112 
L 375.918507 105.264856 
L 366.009103 101.906103 
L 355.380162 98.545413 
L 344.009444 95.171024 
L 330.006976 91.265235 
L 315.788439 87.523685 
L 298.82199 83.292155 
L 279.83006 78.790066 
L 257.011857 73.627583 
L 230.214691 67.807909 
L 190.712918 59.503123 
L 132.12959 47.210746 
L 107.130743 41.72102 
L 88.970531 37.515662 
L 73.8371 33.785717 
L 61.72817 30.578159 
L 52.42397 27.915538 
L 43.520386 25.130182 
L 36.618603 22.733315 
L 31.049952 20.567527 
L 26.55143 18.582361 
L 22.791503 16.660674 
L 19.952386 14.937813 
L 17.923949 13.445237 
L 16.374002 12.013056 
L 15.646154 11.164013 
L 15.646154 11.164013 
" clip-path="url(#p8959867265)" style="fill: none; stroke: #000000; stroke-width: 2; stroke-linecap: square"/>
   </g>
   <g id="patch_3">
    <path d="M 206.320088 62.760352 
Q 155.255111 52.066425 106.378726 41.83083 
" clip-path="url(#p8959867265)" style="fill: none; stroke: #ff0000; stroke-width: 2; stroke-linecap: round"/>
    <path d="M 115.141546 48.774385 
L 106.378726 41.83083 
L 117.191263 38.986706 
z
" clip-path="url(#p8959867265)" style="fill: #ff0000; stroke: #ff0000; stroke-width: 2; stroke-linecap: round"/>
   </g>
   <g id="patch_4">
    <path d="M 206.320088 62.760352 
Q 195.626162 113.825329 185.390566 162.701714 
" clip-path="url(#p8959867265)" style="fill: none; stroke: #800080; stroke-width: 2; stroke-linecap: round"/>
    <path d="M 192.334122 153.938893 
L 185.390566 162.701714 
L 182.546443 151.889177 
z
" clip-path="url(#p8959867265)" style="fill: #800080; stroke: #800080; stroke-width: 2; stroke-linecap: round"/>
   </g>
   <g id="patch_5">
    <path d="M 206.320088 62.760352 
Q 269.347536 75.959435 330.186392 88.700188 
" clip-path="url(#p8959867265)" style="fill: none; stroke: #ffa500; stroke-width: 2; stroke-linecap: round"/>
    <path d="M 321.423571 81.756632 
L 330.186392 88.700188 
L 319.373855 91.544311 
z
" clip-path="url(#p8959867265)" style="fill: #ffa500; stroke: #ffa500; stroke-width: 2; stroke-linecap: round"/>
   </g>
   <g id="patch_6">
    <path d="M 206.320088 62.760352 
Q 202.519299 80.909645 199.17684 96.870347 
" clip-path="url(#p8959867265)" style="fill: none; stroke: #0000ff; stroke-width: 2; stroke-linecap: round"/>
    <path d="M 206.120396 88.107526 
L 199.17684 96.870347 
L 196.332717 86.05781 
z
" clip-path="url(#p8959867265)" style="fill: #0000ff; stroke: #0000ff; stroke-width: 2; stroke-linecap: round"/>
   </g>
   <g id="patch_7">
    <path d="M 206.320088 62.760352 
Q 265.546747 94.108728 322.7971 124.411057 
" clip-path="url(#p8959867265)" style="fill: none; stroke: #008000; stroke-width: 2; stroke-linecap: round"/>
    <path d="M 316.29783 115.313832 
L 322.7971 124.411057 
L 311.619759 124.152138 
z
" clip-path="url(#p8959867265)" style="fill: #008000; stroke: #008000; stroke-width: 2; stroke-linecap: round"/>
   </g>
  </g>
 </g>
 <defs>
  <clipPath id="p8959867265">
   <rect x="7.2" y="7.2" width="439.2" height="206.128679"/>
  </clipPath>
 </defs>
</svg>
