<?xml version="1.0" encoding="utf-8" standalone="no"?>
<!DOCTYPE svg PUBLIC "-//W3C//DTD SVG 1.1//EN"
  "http://www.w3.org/Graphics/SVG/1.1/DTD/svg11.dtd">
<svg xmlns:xlink="http://www.w3.org/1999/xlink" width="452.644161pt" height="225.136271pt" viewBox="0 0 452.644161 225.136271" xmlns="http://www.w3.org/2000/svg" version="1.1">
 <metadata>
  <rdf:RDF xmlns:dc="http://purl.org/dc/elements/1.1/" xmlns:cc="http://creativecommons.org/ns#" xmlns:rdf="http://www.w3.org/1999/02/22-rdf-syntax-ns#">
   <cc:Work>
    <dc:type rdf:resource="http://purl.org/dc/dcmitype/StillImage"/>
    <dc:date>2025-06-18T14:14:59.821614</dc:date>
    <dc:format>image/svg+xml</dc:format>
    <dc:creator>
     <cc:Agent>
      <dc:title>Matplotlib v3.10.3, https://matplotlib.org/</dc:title>
     </cc:Agent>
    </dc:creator>
   </cc:Work>
  </rdf:RDF>
 </metadata>
 <defs>
  <style type="text/css">*{stroke-linejoin: round; stroke-linecap: butt}</style>
 </defs>
 <g id="figure_1">
  <g id="patch_1">
   <path d="M 0 225.136271 
L 452.644161 225.136271 
L 452.644161 0 
L 0 0 
z
" style="fill: #ffffff"/>
  </g>
  <g id="axes_1">
   <g id="patch_2">
    <path d="M 10.944232 217.936271 
L 445.444161 217.936271 
L 445.444161 7.2 
L 10.944232 7.2 
z
" style="fill: #ffffff"/>
   </g>
   <g id="PathCollection_1">
    <path d="M 40.896684 133.423613 
C 41.834319 133.423613 42.733677 133.051086 43.396684 132.388079 
C 44.059692 131.725071 44.432218 130.825713 44.432218 129.888079 
C 44.432218 128.950444 44.059692 128.051086 43.396684 127.388079 
C 42.733677 126.725071 41.834319 126.352545 40.896684 126.352545 
C 39.95905 126.352545 39.059692 126.725071 38.396684 127.388079 
C 37.733677 128.051086 37.361151 128.950444 37.361151 129.888079 
C 37.361151 130.825713 37.733677 131.725071 38.396684 132.388079 
C 39.059692 133.051086 39.95905 133.423613 40.896684 133.423613 
z
" clip-path="url(#p8fe9697631)"/>
   </g>
   <g id="PathCollection_2">
    <path d="M 37.275319 166.007264 
C 38.212954 166.007264 39.112311 165.634737 39.775319 164.97173 
C 40.438327 164.308722 40.810853 163.409364 40.810853 162.47173 
C 40.810853 161.534095 40.438327 160.634737 39.775319 159.97173 
C 39.112311 159.308722 38.212954 158.936196 37.275319 158.936196 
C 36.337685 158.936196 35.438327 159.308722 34.775319 159.97173 
C 34.112311 160.634737 33.739785 161.534095 33.739785 162.47173 
C 33.739785 163.409364 34.112311 164.308722 34.775319 164.97173 
C 35.438327 165.634737 36.337685 166.007264 37.275319 166.007264 
z
" clip-path="url(#p8fe9697631)"/>
   </g>
   <g id="matplotlib.axis_1"/>
   <g id="matplotlib.axis_2"/>
   <g id="line2d_1">
    <path d="M 437.088394 71.690024 
L 434.101737 67.793141 
L 431.768236 64.973066 
L 429.515767 62.412736 
L 426.180158 58.876739 
L 421.938888 54.76077 
L 417.904824 51.183749 
L 412.923917 47.15566 
L 408.56908 43.939661 
L 405.030618 41.512568 
L 399.70785 38.142558 
L 394.921224 35.371639 
L 390.215931 32.863803 
L 385.39368 30.496442 
L 378.164158 27.296387 
L 370.799699 24.425602 
L 366.51359 22.919886 
L 359.647895 20.741507 
L 353.432715 19.001019 
L 347.117583 17.442404 
L 340.552911 16.032532 
L 334.222915 14.86442 
L 326.191631 13.63725 
L 318.270762 12.690619 
L 310.696389 12.01718 
L 305.788294 11.69663 
L 296.287828 11.324207 
L 288.783124 11.252621 
L 282.085241 11.348585 
L 271.547839 11.794561 
L 264.234298 12.310011 
L 256.541421 13.029578 
L 246.026749 14.301068 
L 236.968511 15.658438 
L 225.389249 17.741844 
L 219.504541 18.949454 
L 208.116747 21.57086 
L 200.498017 23.53502 
L 192.498126 25.780827 
L 184.176719 28.31915 
L 175.089643 31.331679 
L 163.193163 35.668047 
L 155.252111 38.8208 
L 147.395439 42.153727 
L 137.982399 46.442524 
L 130.05126 50.323077 
L 120.338506 55.43667 
L 114.966707 58.450363 
L 107.332656 62.983136 
L 101.744817 66.504315 
L 94.034784 71.679557 
L 86.838352 76.888312 
L 80.521064 81.813695 
L 74.912185 86.514279 
L 69.721723 91.192348 
L 64.760367 96.022124 
L 59.587206 101.525956 
L 56.079214 105.604099 
L 53.324465 109.055968 
L 49.785806 113.905516 
L 47.00037 118.16121 
L 44.842946 121.826241 
L 42.926617 125.460556 
L 40.538856 130.755214 
L 38.894147 135.257154 
L 37.668948 139.536661 
L 36.990433 142.652515 
L 36.431552 146.303335 
L 36.206579 148.709058 
L 36.092114 152.607146 
L 36.223223 155.622047 
L 36.665222 159.370135 
L 37.200078 162.144021 
L 38.054725 165.369079 
L 39.303086 168.927764 
L 40.827997 172.359067 
L 42.016981 174.623477 
L 43.96928 177.838217 
L 46.343244 181.173173 
L 49.085977 184.492656 
L 51.919053 187.494354 
L 55.533777 190.863372 
L 59.250577 193.92108 
L 62.953038 196.649784 
L 65.768643 198.551959 
L 71.186171 201.86841 
L 75.607489 204.296946 
L 80.738828 206.857593 
L 84.679518 208.662941 
L 89.939218 210.884203 
L 97.867282 213.883651 
L 97.867282 213.883651 
" clip-path="url(#p8fe9697631)" style="fill: none; stroke: #000000; stroke-width: 2; stroke-linecap: square"/>
   </g>
   <g id="patch_3">
    <path d="M 193.248006 25.56227 
Q 192.272845 25.84823 193.443398 25.504972 
" clip-path="url(#p8fe9697631)" style="fill: none; stroke: #000000; stroke-width: 2; stroke-linecap: round"/>
    <path d="M 204.446293 27.488985 
L 193.443398 25.504972 
L 201.632345 17.893064 
z
" clip-path="url(#p8fe9697631)" style="stroke: #000000; stroke-width: 2; stroke-linecap: round"/>
   </g>
   <g id="text_1">
    <!-- $Q_0$ -->
    <g transform="translate(19.809025 117.431509) scale(0.2 -0.2)">
     <defs>
      <path id="Cmmi10-51" d="M 1947 -141 
Q 1466 -141 1094 79 
Q 722 300 520 692 
Q 319 1084 319 1563 
Q 319 2259 714 2950 
Q 1109 3641 1756 4077 
Q 2403 4513 3109 4513 
Q 3475 4513 3778 4381 
Q 4081 4250 4290 4017 
Q 4500 3784 4614 3471 
Q 4728 3159 4728 2791 
Q 4728 2366 4581 1936 
Q 4434 1506 4171 1136 
Q 3909 766 3559 484 
Q 3209 203 2809 38 
Q 2850 -256 2934 -425 
Q 3019 -594 3256 -594 
Q 3506 -594 3726 -412 
Q 3947 -231 4006 13 
Q 4019 72 4078 72 
Q 4147 72 4147 -13 
Q 4100 -219 4008 -430 
Q 3916 -641 3786 -823 
Q 3656 -1006 3478 -1123 
Q 3300 -1241 3084 -1241 
Q 2547 -1241 2547 -550 
Q 2547 -509 2562 -332 
Q 2578 -156 2578 -44 
Q 2269 -141 1947 -141 
z
M 1709 300 
Q 1709 44 1991 44 
Q 2275 44 2591 184 
L 2591 244 
Q 2591 503 2509 648 
Q 2428 794 2194 794 
Q 2078 794 1964 723 
Q 1850 653 1779 539 
Q 1709 425 1709 300 
z
M 1544 288 
Q 1544 456 1637 612 
Q 1731 769 1881 864 
Q 2031 959 2203 959 
Q 2481 959 2607 771 
Q 2734 584 2778 281 
Q 3188 525 3500 978 
Q 3813 1431 3977 1973 
Q 4141 2516 4141 3003 
Q 4141 3356 4023 3656 
Q 3906 3956 3664 4140 
Q 3422 4325 3066 4325 
Q 2722 4325 2403 4156 
Q 2084 3988 1813 3706 
Q 1550 3434 1342 3032 
Q 1134 2631 1021 2193 
Q 909 1756 909 1356 
Q 909 947 1068 612 
Q 1228 278 1569 128 
Q 1544 194 1544 288 
z
" transform="scale(0.015625)"/>
      <path id="Cmr10-30" d="M 1600 -141 
Q 816 -141 533 504 
Q 250 1150 250 2041 
Q 250 2597 351 3087 
Q 453 3578 754 3920 
Q 1056 4263 1600 4263 
Q 2022 4263 2290 4056 
Q 2559 3850 2700 3523 
Q 2841 3197 2892 2823 
Q 2944 2450 2944 2041 
Q 2944 1491 2842 1011 
Q 2741 531 2444 195 
Q 2147 -141 1600 -141 
z
M 1600 25 
Q 1956 25 2131 390 
Q 2306 756 2347 1200 
Q 2388 1644 2388 2144 
Q 2388 2625 2347 3031 
Q 2306 3438 2132 3767 
Q 1959 4097 1600 4097 
Q 1238 4097 1063 3765 
Q 888 3434 847 3029 
Q 806 2625 806 2144 
Q 806 1788 823 1472 
Q 841 1156 916 820 
Q 991 484 1158 254 
Q 1325 25 1600 25 
z
" transform="scale(0.015625)"/>
     </defs>
     <use xlink:href="#Cmmi10-51" transform="translate(0 0.484375)"/>
     <use xlink:href="#Cmr10-30" transform="translate(79.003906 -16.521875) scale(0.7)"/>
    </g>
   </g>
   <g id="text_2">
    <!-- $Q_1$ -->
    <g transform="translate(7.2 159.00282) scale(0.2 -0.2)">
     <defs>
      <path id="Cmr10-31" d="M 594 0 
L 594 225 
Q 1394 225 1394 428 
L 1394 3788 
Q 1063 3628 556 3628 
L 556 3853 
Q 1341 3853 1741 4263 
L 1831 4263 
Q 1853 4263 1873 4245 
Q 1894 4228 1894 4206 
L 1894 428 
Q 1894 225 2694 225 
L 2694 0 
L 594 0 
z
" transform="scale(0.015625)"/>
     </defs>
     <use xlink:href="#Cmmi10-51" transform="translate(0 0.484375)"/>
     <use xlink:href="#Cmr10-31" transform="translate(79.003906 -16.521875) scale(0.7)"/>
    </g>
   </g>
  </g>
 </g>
 <defs>
  <clipPath id="p8fe9697631">
   <rect x="10.944232" y="7.2" width="434.499929" height="210.736271"/>
  </clipPath>
 </defs>
</svg>
