<?xml version="1.0" encoding="utf-8" standalone="no"?>
<!DOCTYPE svg PUBLIC "-//W3C//DTD SVG 1.1//EN"
  "http://www.w3.org/Graphics/SVG/1.1/DTD/svg11.dtd">
<svg xmlns:xlink="http://www.w3.org/1999/xlink" width="453.6pt" height="329.763846pt" viewBox="0 0 453.6 329.763846" xmlns="http://www.w3.org/2000/svg" version="1.1">
 <metadata>
  <rdf:RDF xmlns:dc="http://purl.org/dc/elements/1.1/" xmlns:cc="http://creativecommons.org/ns#" xmlns:rdf="http://www.w3.org/1999/02/22-rdf-syntax-ns#">
   <cc:Work>
    <dc:type rdf:resource="http://purl.org/dc/dcmitype/StillImage"/>
    <dc:date>2025-12-10T16:55:42.161033</dc:date>
    <dc:format>image/svg+xml</dc:format>
    <dc:creator>
     <cc:Agent>
      <dc:title>Matplotlib v3.10.5, https://matplotlib.org/</dc:title>
     </cc:Agent>
    </dc:creator>
   </cc:Work>
  </rdf:RDF>
 </metadata>
 <defs>
  <style type="text/css">*{stroke-linejoin: round; stroke-linecap: butt}</style>
 </defs>
 <g id="figure_1">
  <g id="patch_1">
   <path d="M 0 329.763846 
L 453.6 329.763846 
L 453.6 0 
L 0 0 
z
" style="fill: #ffffff"/>
  </g>
  <g id="axes_1">
   <g id="patch_2">
    <path d="M 7.2 322.563846 
L 446.4 322.563846 
L 446.4 7.2 
L 7.2 7.2 
z
" style="fill: #ffffff"/>
   </g>
   <g id="PathCollection_1">
    <path d="M 230.70997 134.534818 
C 231.436259 134.534818 232.132898 134.246261 232.646462 133.732697 
C 233.160026 133.219134 233.448583 132.522494 233.448583 131.796205 
C 233.448583 131.069917 233.160026 130.373277 232.646462 129.859714 
C 232.132898 129.34615 231.436259 129.057593 230.70997 129.057593 
C 229.983682 129.057593 229.287042 129.34615 228.773479 129.859714 
C 228.259915 130.373277 227.971357 131.069917 227.971357 131.796205 
C 227.971357 132.522494 228.259915 133.219134 228.773479 133.732697 
C 229.287042 134.246261 229.983682 134.534818 230.70997 134.534818 
z
" clip-path="url(#p73f5a0cec8)"/>
   </g>
   <g id="matplotlib.axis_1"/>
   <g id="matplotlib.axis_2"/>
   <g id="line2d_1">
    <path d="M 15.646154 316.499157 
L 15.699016 309.087895 
L 16.011053 299.611374 
L 16.446331 293.33271 
L 17.119279 287.082713 
L 18.004851 281.263843 
L 19.213594 275.306262 
L 20.077957 271.826928 
L 21.677795 266.418111 
L 23.20104 262.090411 
L 25.14921 257.325136 
L 27.728389 251.920545 
L 30.362465 247.136646 
L 32.869033 243.082107 
L 35.897267 238.670197 
L 38.996148 234.581746 
L 42.635051 230.209673 
L 46.007919 226.487404 
L 49.79331 222.615949 
L 53.733725 218.869535 
L 59.202781 214.061106 
L 63.943848 210.19569 
L 69.463425 205.987384 
L 74.763808 202.194863 
L 80.619146 198.244659 
L 87.294441 194.001673 
L 95.273088 189.237036 
L 102.260582 185.296817 
L 108.99796 181.674026 
L 118.804092 176.666892 
L 128.281384 172.083786 
L 138.273489 167.483095 
L 149.565187 162.527492 
L 161.930273 157.352081 
L 172.934294 152.934192 
L 189.454256 146.579672 
L 206.377091 140.35505 
L 226.494442 133.251264 
L 249.543052 125.409242 
L 275.931757 116.690654 
L 347.554612 93.214534 
L 365.886557 86.881929 
L 378.448581 82.333038 
L 389.670179 78.047884 
L 398.02186 74.663216 
L 406.799561 70.845092 
L 413.279776 67.778259 
L 418.451372 65.108584 
L 423.541016 62.193647 
L 427.072725 59.915558 
L 429.44806 58.202864 
L 432.081001 56.038068 
L 434.123578 54.035496 
L 435.389341 52.535944 
L 436.700174 50.542408 
L 437.337654 49.181843 
L 437.748628 47.851639 
L 437.939639 46.533437 
L 437.92084 45.358789 
L 437.679682 44.043773 
L 437.140097 42.609195 
L 436.432715 41.371463 
L 435.278255 39.889895 
L 433.669955 38.317989 
L 431.33855 36.531868 
L 429.211784 35.187065 
L 426.376884 33.652973 
L 423.04062 32.099116 
L 418.315956 30.207985 
L 413.827893 28.643742 
L 408.109241 26.881805 
L 401.508188 25.083316 
L 395.159248 23.531512 
L 385.882548 21.500272 
L 375.634098 19.503752 
L 364.128884 17.496499 
L 351.466332 15.507802 
L 337.901001 13.578075 
L 335.57387 13.264689 
L 335.57387 13.264689 
" clip-path="url(#p73f5a0cec8)" style="fill: none; stroke: #000000; stroke-width: 2; stroke-linecap: square"/>
   </g>
   <g id="patch_3">
    <path d="M 230.70997 131.796205 
Q 307.325757 105.444337 381.827052 79.819745 
" clip-path="url(#p73f5a0cec8)" style="fill: none; stroke: #800080; stroke-width: 2; stroke-linecap: round"/>
    <path d="M 370.744526 78.344075 
L 381.827052 79.819745 
L 373.997 87.800364 
z
" clip-path="url(#p73f5a0cec8)" style="fill: #800080; stroke: #800080; stroke-width: 2; stroke-linecap: round"/>
   </g>
   <g id="patch_4">
    <path d="M 230.70997 131.796205 
Q 257.061838 208.411992 282.686431 282.913288 
" clip-path="url(#p73f5a0cec8)" style="fill: none; stroke: #ff0000; stroke-width: 2; stroke-linecap: round"/>
    <path d="M 284.162101 271.830761 
L 282.686431 282.913288 
L 274.705812 275.083236 
z
" clip-path="url(#p73f5a0cec8)" style="fill: #ff0000; stroke: #ff0000; stroke-width: 2; stroke-linecap: round"/>
   </g>
   <g id="patch_5">
    <path d="M 230.70997 131.796205 
Q 276.336625 116.102996 319.848789 101.137062 
" clip-path="url(#p73f5a0cec8)" style="fill: none; stroke: #0000ff; stroke-width: 2; stroke-linecap: round"/>
    <path d="M 308.766262 99.661392 
L 319.848789 101.137062 
L 312.018737 109.117681 
z
" clip-path="url(#p73f5a0cec8)" style="fill: #0000ff; stroke: #0000ff; stroke-width: 2; stroke-linecap: round"/>
   </g>
   <g id="patch_6">
    <path d="M 230.70997 131.796205 
Q 244.368585 171.507453 257.299925 209.104209 
" clip-path="url(#p73f5a0cec8)" style="fill: none; stroke: #ffa500; stroke-width: 2; stroke-linecap: round"/>
    <path d="M 258.775595 198.021682 
L 257.299925 209.104209 
L 249.319306 201.274157 
z
" clip-path="url(#p73f5a0cec8)" style="fill: #ffa500; stroke: #ffa500; stroke-width: 2; stroke-linecap: round"/>
   </g>
   <g id="patch_7">
    <path d="M 230.70997 131.796205 
Q 289.99524 155.814243 347.208057 178.992675 
" clip-path="url(#p73f5a0cec8)" style="fill: none; stroke: #008000; stroke-width: 2; stroke-linecap: round"/>
    <path d="M 339.81718 170.603697 
L 347.208057 178.992675 
L 336.062349 179.87199 
z
" clip-path="url(#p73f5a0cec8)" style="fill: #008000; stroke: #008000; stroke-width: 2; stroke-linecap: round"/>
   </g>
  </g>
 </g>
 <defs>
  <clipPath id="p73f5a0cec8">
   <rect x="7.2" y="7.2" width="439.2" height="315.363846"/>
  </clipPath>
 </defs>
</svg>
