<?xml version="1.0" encoding="utf-8" standalone="no"?>
<!DOCTYPE svg PUBLIC "-//W3C//DTD SVG 1.1//EN"
  "http://www.w3.org/Graphics/SVG/1.1/DTD/svg11.dtd">
<svg xmlns:xlink="http://www.w3.org/1999/xlink" width="335.98pt" height="339.0825pt" viewBox="0 0 335.98 339.0825" xmlns="http://www.w3.org/2000/svg" version="1.1">
 <metadata>
  <rdf:RDF xmlns:dc="http://purl.org/dc/elements/1.1/" xmlns:cc="http://creativecommons.org/ns#" xmlns:rdf="http://www.w3.org/1999/02/22-rdf-syntax-ns#">
   <cc:Work>
    <dc:type rdf:resource="http://purl.org/dc/dcmitype/StillImage"/>
    <dc:date>2025-06-25T15:26:40.540855</dc:date>
    <dc:format>image/svg+xml</dc:format>
    <dc:creator>
     <cc:Agent>
      <dc:title>Matplotlib v3.10.3, https://matplotlib.org/</dc:title>
     </cc:Agent>
    </dc:creator>
   </cc:Work>
  </rdf:RDF>
 </metadata>
 <defs>
  <style type="text/css">*{stroke-linejoin: round; stroke-linecap: butt}</style>
 </defs>
 <g id="figure_1">
  <g id="patch_1">
   <path d="M 0 339.0825 
L 335.98 339.0825 
L 335.98 0 
L 0 0 
z
" style="fill: #ffffff"/>
  </g>
  <g id="axes_1">
   <g id="patch_2">
    <path d="M 7.2 331.8825 
L 315.64 331.8825 
L 315.64 23.4425 
L 7.2 23.4425 
z
" style="fill: #ffffff"/>
   </g>
   <g id="matplotlib.axis_1">
    <g id="text_1">
     <!-- $x$ -->
     <g transform="translate(323.64 311.828251) scale(0.16 -0.16)">
      <defs>
       <path id="Cmmi10-78" d="M 500 184 
Q 613 97 819 97 
Q 1019 97 1172 289 
Q 1325 481 1381 709 
L 1672 1844 
Q 1741 2153 1741 2266 
Q 1741 2425 1652 2544 
Q 1563 2663 1403 2663 
Q 1200 2663 1022 2536 
Q 844 2409 722 2214 
Q 600 2019 550 1819 
Q 538 1778 500 1778 
L 422 1778 
Q 372 1778 372 1838 
L 372 1856 
Q 434 2094 584 2320 
Q 734 2547 951 2687 
Q 1169 2828 1416 2828 
Q 1650 2828 1839 2703 
Q 2028 2578 2106 2363 
Q 2216 2559 2386 2693 
Q 2556 2828 2759 2828 
Q 2897 2828 3040 2779 
Q 3184 2731 3275 2631 
Q 3366 2531 3366 2381 
Q 3366 2219 3261 2101 
Q 3156 1984 2994 1984 
Q 2891 1984 2822 2050 
Q 2753 2116 2753 2216 
Q 2753 2350 2845 2451 
Q 2938 2553 3066 2572 
Q 2950 2663 2747 2663 
Q 2541 2663 2389 2472 
Q 2238 2281 2175 2047 
L 1894 916 
Q 1825 659 1825 494 
Q 1825 331 1917 214 
Q 2009 97 2163 97 
Q 2463 97 2698 361 
Q 2934 625 3009 941 
Q 3022 978 3059 978 
L 3138 978 
Q 3163 978 3178 961 
Q 3194 944 3194 922 
Q 3194 916 3188 903 
Q 3097 522 2806 225 
Q 2516 -72 2150 -72 
Q 1916 -72 1727 54 
Q 1538 181 1459 397 
Q 1359 209 1182 68 
Q 1006 -72 806 -72 
Q 669 -72 523 -23 
Q 378 25 287 125 
Q 197 225 197 378 
Q 197 528 301 651 
Q 406 775 563 775 
Q 669 775 741 711 
Q 813 647 813 544 
Q 813 409 723 309 
Q 634 209 500 184 
z
" transform="scale(0.015625)"/>
      </defs>
      <use xlink:href="#Cmmi10-78" transform="translate(0 0.8125)"/>
     </g>
    </g>
   </g>
   <g id="matplotlib.axis_2">
    <g id="text_2">
     <!-- $y$ -->
     <g transform="translate(23.254249 12.0825) scale(0.16 -0.16)">
      <defs>
       <path id="Cmmi10-79" d="M 538 -916 
Q 672 -1147 1006 -1147 
Q 1309 -1147 1531 -934 
Q 1753 -722 1889 -420 
Q 2025 -119 2100 197 
Q 1816 -72 1484 -72 
Q 1231 -72 1053 15 
Q 875 103 776 276 
Q 678 450 678 697 
Q 678 906 734 1126 
Q 791 1347 892 1617 
Q 994 1888 1069 2088 
Q 1153 2322 1153 2472 
Q 1153 2663 1013 2663 
Q 759 2663 595 2402 
Q 431 2141 353 1819 
Q 341 1778 300 1778 
L 225 1778 
Q 172 1778 172 1838 
L 172 1856 
Q 275 2238 487 2533 
Q 700 2828 1025 2828 
Q 1253 2828 1411 2678 
Q 1569 2528 1569 2297 
Q 1569 2178 1516 2047 
Q 1488 1969 1388 1706 
Q 1288 1444 1234 1272 
Q 1181 1100 1147 934 
Q 1113 769 1113 603 
Q 1113 391 1203 244 
Q 1294 97 1491 97 
Q 1888 97 2203 581 
L 2688 2553 
Q 2709 2638 2787 2698 
Q 2866 2759 2956 2759 
Q 3034 2759 3092 2709 
Q 3150 2659 3150 2578 
Q 3150 2541 3144 2528 
L 2509 -19 
Q 2425 -347 2200 -647 
Q 1975 -947 1658 -1130 
Q 1341 -1313 997 -1313 
Q 831 -1313 668 -1248 
Q 506 -1184 406 -1056 
Q 306 -928 306 -756 
Q 306 -581 409 -453 
Q 513 -325 684 -325 
Q 788 -325 858 -389 
Q 928 -453 928 -556 
Q 928 -703 818 -812 
Q 709 -922 563 -922 
Q 556 -919 550 -917 
Q 544 -916 538 -916 
z
" transform="scale(0.015625)"/>
      </defs>
      <use xlink:href="#Cmmi10-79" transform="translate(0 0.8125)"/>
     </g>
    </g>
   </g>
   <g id="line2d_1">
    <path d="M 168.481355 170.601145 
L 274.401685 170.601145 
L 274.401685 170.601145 
" clip-path="url(#pfb3f4e2164)" style="fill: none; stroke: #808080; stroke-width: 2; stroke-linecap: square"/>
   </g>
   <g id="patch_3">
    <path d="M 203.788132 170.601145 
Q 200.257454 170.601145 198.962845 170.601145 
" clip-path="url(#pfb3f4e2164)" style="fill: none; stroke: #808080; stroke-width: 2; stroke-linecap: round"/>
    <path d="M 204.962845 173.601145 
L 198.962845 170.601145 
L 204.962845 167.601145 
z
" clip-path="url(#pfb3f4e2164)" style="fill: #808080; stroke: #808080; stroke-width: 2; stroke-linecap: round"/>
   </g>
   <g id="line2d_2">
    <path d="M 168.481355 170.601145 
L 168.481355 64.680815 
L 168.481355 64.680815 
" clip-path="url(#pfb3f4e2164)" style="fill: none; stroke: #808080; stroke-width: 2; stroke-linecap: square"/>
   </g>
   <g id="patch_4">
    <path d="M 168.481355 135.294368 
Q 168.481355 138.825046 168.481355 140.119655 
" clip-path="url(#pfb3f4e2164)" style="fill: none; stroke: #808080; stroke-width: 2; stroke-linecap: round"/>
    <path d="M 171.481355 134.119655 
L 168.481355 140.119655 
L 165.481355 134.119655 
z
" clip-path="url(#pfb3f4e2164)" style="fill: #808080; stroke: #808080; stroke-width: 2; stroke-linecap: round"/>
   </g>
   <g id="line2d_3">
    <path d="M 168.481355 170.601145 
L 168.481355 276.521474 
L 168.481355 276.521474 
" clip-path="url(#pfb3f4e2164)" style="fill: none; stroke: #808080; stroke-width: 2; stroke-linecap: square"/>
   </g>
   <g id="patch_5">
    <path d="M 168.481355 205.907921 
Q 168.481355 202.377244 168.481355 201.082634 
" clip-path="url(#pfb3f4e2164)" style="fill: none; stroke: #808080; stroke-width: 2; stroke-linecap: round"/>
    <path d="M 165.481355 207.082634 
L 168.481355 201.082634 
L 171.481355 207.082634 
z
" clip-path="url(#pfb3f4e2164)" style="fill: #808080; stroke: #808080; stroke-width: 2; stroke-linecap: round"/>
   </g>
   <g id="line2d_4">
    <path d="M 168.481355 170.601145 
L 62.561026 170.601145 
L 62.561026 170.601145 
" clip-path="url(#pfb3f4e2164)" style="fill: none; stroke: #808080; stroke-width: 2; stroke-linecap: square"/>
   </g>
   <g id="patch_6">
    <path d="M 133.174579 170.601145 
Q 136.705256 170.601145 137.999866 170.601145 
" clip-path="url(#pfb3f4e2164)" style="fill: none; stroke: #808080; stroke-width: 2; stroke-linecap: round"/>
    <path d="M 131.999866 167.601145 
L 137.999866 170.601145 
L 131.999866 173.601145 
z
" clip-path="url(#pfb3f4e2164)" style="fill: #808080; stroke: #808080; stroke-width: 2; stroke-linecap: round"/>
   </g>
   <g id="line2d_5">
    <path d="M 168.481355 170.601145 
L 62.561026 64.680815 
L 62.561026 64.680815 
" clip-path="url(#pfb3f4e2164)" style="fill: none; stroke: #808080; stroke-width: 2; stroke-linecap: square"/>
   </g>
   <g id="patch_7">
    <path d="M 133.174579 135.294368 
Q 136.705256 138.825046 138.654795 140.774585 
" clip-path="url(#pfb3f4e2164)" style="fill: none; stroke: #808080; stroke-width: 2; stroke-linecap: round"/>
    <path d="M 136.533475 134.410624 
L 138.654795 140.774585 
L 132.290834 138.653264 
z
" clip-path="url(#pfb3f4e2164)" style="fill: #808080; stroke: #808080; stroke-width: 2; stroke-linecap: round"/>
   </g>
   <g id="line2d_6">
    <path d="M 168.481355 170.601145 
L 171.180845 170.497946 
L 173.86727 170.190344 
L 176.257376 169.744843 
L 179.259285 168.956081 
L 181.87715 168.059886 
L 184.794991 166.832255 
L 187.923757 165.247966 
L 190.903077 163.481639 
L 194.069063 161.329118 
L 196.96685 159.110101 
L 200.566182 156.022695 
L 203.389159 153.344475 
L 207.122713 149.455706 
L 210.593627 145.486371 
L 214.216984 140.978676 
L 217.919416 135.9885 
L 221.603124 130.638245 
L 225.359982 124.785886 
L 229.527204 117.826636 
L 233.665385 110.429159 
L 237.723765 102.703254 
L 241.921477 94.221311 
L 246.322214 84.793264 
L 250.499018 75.337604 
L 254.667798 65.407416 
L 259.578181 53.079348 
L 264.299801 40.58114 
L 268.982078 27.563515 
L 274.060406 12.742837 
L 274.401685 11.72065 
L 274.401685 11.72065 
" clip-path="url(#pfb3f4e2164)" style="fill: none; stroke: #808080; stroke-width: 2; stroke-linecap: square"/>
   </g>
   <g id="patch_8">
    <path d="M 203.788132 152.947756 
Q 200.257454 156.125366 198.388833 157.807126 
" clip-path="url(#pfb3f4e2164)" style="fill: none; stroke: #808080; stroke-width: 2; stroke-linecap: round"/>
    <path d="M 204.855492 156.02322 
L 198.388833 157.807126 
L 200.841703 151.563455 
z
" clip-path="url(#pfb3f4e2164)" style="fill: #808080; stroke: #808080; stroke-width: 2; stroke-linecap: round"/>
   </g>
   <g id="line2d_7">
    <path d="M 168.481355 170.601145 
L 165.41292 179.615134 
L 163.051475 185.851764 
L 161.124879 190.14991 
L 159.744943 192.681763 
L 158.399301 194.661723 
L 157.507669 195.695561 
L 155.933419 196.972643 
L 154.518866 197.535413 
L 153.795061 197.619735 
L 152.675347 197.497984 
L 152.18502 197.354957 
L 150.599598 196.564682 
L 148.926185 195.293182 
L 146.793879 193.280654 
L 143.565084 190.188031 
L 141.875147 188.929669 
L 140.854531 188.388502 
L 139.546242 187.998903 
L 138.616965 187.959153 
L 137.842597 188.090634 
L 136.699195 188.575379 
L 135.57286 189.406037 
L 135.196502 189.763299 
L 134.028874 191.126523 
L 132.386046 193.684618 
L 130.555704 197.356861 
L 128.589535 202.12854 
L 126.183895 208.816986 
L 119.023063 229.381223 
L 117.313485 233.362447 
L 116.150345 235.691113 
L 114.6583 238.169247 
L 113.328731 239.863124 
L 112.079191 241.000432 
L 110.912456 241.667448 
L 109.975085 241.936014 
L 109.622243 241.977868 
L 108.532916 241.913772 
L 107.457507 241.585602 
L 105.835136 240.666159 
L 104.644167 239.734637 
L 102.360853 237.583518 
L 99.142383 234.509217 
L 97.583127 233.344966 
L 96.512607 232.767622 
L 95.707589 232.479715 
L 94.628053 232.317917 
L 93.649229 232.415281 
L 92.364597 232.924074 
L 91.521832 233.504187 
L 90.824659 234.135154 
L 89.392805 235.861609 
L 87.914528 238.238176 
L 86.560501 240.911818 
L 84.792745 245.033488 
L 82.648808 250.789751 
L 79.163365 261.08258 
L 76.586517 268.605755 
L 74.357758 274.4851 
L 73.076097 277.448915 
L 71.477018 280.614388 
L 69.932645 283.041592 
L 68.857648 284.341678 
L 67.769078 285.325431 
L 66.622245 286.002509 
L 65.885679 286.248229 
L 64.782179 286.352939 
L 63.464357 286.095685 
L 62.561026 285.705301 
L 62.561026 285.705301 
" clip-path="url(#pfb3f4e2164)" style="fill: none; stroke: #808080; stroke-width: 2; stroke-linecap: square"/>
   </g>
   <g id="patch_9">
    <path d="M 133.174579 192.365311 
Q 136.705256 190.261887 138.314935 189.302911 
" clip-path="url(#pfb3f4e2164)" style="fill: none; stroke: #808080; stroke-width: 2; stroke-linecap: round"/>
    <path d="M 131.624914 189.796496 
L 138.314935 189.302911 
L 134.69579 194.951078 
z
" clip-path="url(#pfb3f4e2164)" style="fill: #808080; stroke: #808080; stroke-width: 2; stroke-linecap: round"/>
   </g>
   <g id="patch_10">
    <path d="M 27.254249 331.8825 
L 27.254249 23.4425 
" style="fill: none; stroke: #000000; stroke-width: 0.8; stroke-linejoin: miter; stroke-linecap: square"/>
   </g>
   <g id="patch_11">
    <path d="M 7.2 311.828251 
L 315.64 311.828251 
" style="fill: none; stroke: #000000; stroke-width: 0.8; stroke-linejoin: miter; stroke-linecap: square"/>
   </g>
   <g id="text_3">
    <!-- $(a,b)$ -->
    <g transform="translate(173.240421 188.473855) scale(0.15 -0.15)">
     <defs>
      <path id="Cmr10-28" d="M 1984 -1588 
Q 1628 -1306 1370 -942 
Q 1113 -578 948 -165 
Q 784 247 703 697 
Q 622 1147 622 1600 
Q 622 2059 703 2509 
Q 784 2959 951 3375 
Q 1119 3791 1378 4153 
Q 1638 4516 1984 4788 
Q 1984 4800 2016 4800 
L 2075 4800 
Q 2094 4800 2109 4783 
Q 2125 4766 2125 4744 
Q 2125 4716 2113 4703 
Q 1800 4397 1592 4047 
Q 1384 3697 1257 3301 
Q 1131 2906 1075 2482 
Q 1019 2059 1019 1600 
Q 1019 -434 2106 -1491 
Q 2125 -1509 2125 -1544 
Q 2125 -1559 2108 -1579 
Q 2091 -1600 2075 -1600 
L 2016 -1600 
Q 1984 -1600 1984 -1588 
z
" transform="scale(0.015625)"/>
      <path id="Cmmi10-61" d="M 1113 -72 
Q 709 -72 476 233 
Q 244 538 244 953 
Q 244 1363 456 1803 
Q 669 2244 1030 2536 
Q 1391 2828 1806 2828 
Q 1997 2828 2147 2725 
Q 2297 2622 2381 2444 
Q 2453 2700 2663 2700 
Q 2744 2700 2798 2651 
Q 2853 2603 2853 2522 
Q 2853 2503 2851 2493 
Q 2850 2484 2847 2472 
L 2400 684 
Q 2356 494 2356 372 
Q 2356 97 2541 97 
Q 2741 97 2845 351 
Q 2950 606 3022 941 
Q 3034 978 3072 978 
L 3150 978 
Q 3175 978 3190 956 
Q 3206 934 3206 916 
Q 3094 469 2961 198 
Q 2828 -72 2528 -72 
Q 2313 -72 2147 54 
Q 1981 181 1941 391 
Q 1528 -72 1113 -72 
z
M 1119 97 
Q 1350 97 1567 270 
Q 1784 444 1941 678 
Q 1947 684 1947 697 
L 2291 2088 
L 2297 2106 
Q 2259 2334 2132 2498 
Q 2006 2663 1791 2663 
Q 1575 2663 1389 2486 
Q 1203 2309 1075 2069 
Q 950 1813 836 1366 
Q 722 919 722 672 
Q 722 450 817 273 
Q 913 97 1119 97 
z
" transform="scale(0.015625)"/>
      <path id="Cmmi10-3b" d="M 634 -1153 
Q 634 -1125 659 -1100 
Q 891 -878 1019 -587 
Q 1147 -297 1147 25 
L 1147 103 
Q 1044 0 891 0 
Q 744 0 641 103 
Q 538 206 538 353 
Q 538 503 641 603 
Q 744 703 891 703 
Q 1119 703 1216 492 
Q 1313 281 1313 25 
Q 1313 -331 1170 -651 
Q 1028 -972 769 -1228 
Q 744 -1241 728 -1241 
Q 697 -1241 665 -1212 
Q 634 -1184 634 -1153 
z
" transform="scale(0.015625)"/>
      <path id="Cmmi10-62" d="M 1106 -72 
Q 719 -72 503 231 
Q 288 534 288 941 
Q 288 1000 317 1173 
Q 347 1347 347 1388 
L 966 3872 
Q 991 3981 997 4044 
Q 997 4147 581 4147 
Q 519 4147 519 4231 
Q 522 4247 533 4287 
Q 544 4328 561 4350 
Q 578 4372 609 4372 
L 1472 4441 
Q 1550 4441 1550 4359 
L 1075 2472 
Q 1438 2828 1806 2828 
Q 2078 2828 2273 2684 
Q 2469 2541 2566 2306 
Q 2663 2072 2663 1806 
Q 2663 1497 2542 1167 
Q 2422 838 2209 555 
Q 1997 272 1712 100 
Q 1428 -72 1106 -72 
z
M 1119 97 
Q 1338 97 1528 280 
Q 1719 463 1838 691 
Q 1966 947 2077 1386 
Q 2188 1825 2188 2088 
Q 2188 2316 2092 2489 
Q 1997 2663 1791 2663 
Q 1559 2663 1348 2492 
Q 1138 2322 978 2088 
L 800 1363 
Q 697 959 691 716 
Q 691 475 795 286 
Q 900 97 1119 97 
z
" transform="scale(0.015625)"/>
      <path id="Cmr10-29" d="M 416 -1600 
Q 359 -1600 359 -1544 
Q 359 -1516 372 -1503 
Q 1466 -434 1466 1600 
Q 1466 3634 384 4691 
Q 359 4706 359 4744 
Q 359 4766 376 4783 
Q 394 4800 416 4800 
L 475 4800 
Q 494 4800 506 4788 
Q 966 4425 1272 3906 
Q 1578 3388 1720 2800 
Q 1863 2213 1863 1600 
Q 1863 1147 1786 708 
Q 1709 269 1542 -157 
Q 1375 -584 1119 -945 
Q 863 -1306 506 -1588 
Q 494 -1600 475 -1600 
L 416 -1600 
z
" transform="scale(0.015625)"/>
     </defs>
     <use xlink:href="#Cmr10-28"/>
     <use xlink:href="#Cmmi10-61" transform="translate(38.818359 0)"/>
     <use xlink:href="#Cmmi10-3b" transform="translate(91.601562 0)"/>
     <use xlink:href="#Cmmi10-62" transform="translate(136.845703 0)"/>
     <use xlink:href="#Cmr10-29" transform="translate(179.765625 0)"/>
    </g>
   </g>
   <g id="PathCollection_1">
    <path d="M 168.481355 173.763422 
C 169.320001 173.763422 170.124411 173.430225 170.717423 172.837213 
C 171.310435 172.244201 171.643633 171.439791 171.643633 170.601145 
C 171.643633 169.762499 171.310435 168.958089 170.717423 168.365077 
C 170.124411 167.772065 169.320001 167.438867 168.481355 167.438867 
C 167.642709 167.438867 166.838299 167.772065 166.245287 168.365077 
C 165.652275 168.958089 165.319078 169.762499 165.319078 170.601145 
C 165.319078 171.439791 165.652275 172.244201 166.245287 172.837213 
C 166.838299 173.430225 167.642709 173.763422 168.481355 173.763422 
z
" clip-path="url(#pfb3f4e2164)"/>
   </g>
  </g>
 </g>
 <defs>
  <clipPath id="pfb3f4e2164">
   <rect x="7.2" y="23.4425" width="308.44" height="308.44"/>
  </clipPath>
 </defs>
</svg>
