<?xml version="1.0" encoding="utf-8" standalone="no"?>
<!DOCTYPE svg PUBLIC "-//W3C//DTD SVG 1.1//EN"
  "http://www.w3.org/Graphics/SVG/1.1/DTD/svg11.dtd">
<svg xmlns:xlink="http://www.w3.org/1999/xlink" width="452.901797pt" height="224.06794pt" viewBox="0 0 452.901797 224.06794" xmlns="http://www.w3.org/2000/svg" version="1.1">
 <metadata>
  <rdf:RDF xmlns:dc="http://purl.org/dc/elements/1.1/" xmlns:cc="http://creativecommons.org/ns#" xmlns:rdf="http://www.w3.org/1999/02/22-rdf-syntax-ns#">
   <cc:Work>
    <dc:type rdf:resource="http://purl.org/dc/dcmitype/StillImage"/>
    <dc:date>2025-08-27T14:11:37.712867</dc:date>
    <dc:format>image/svg+xml</dc:format>
    <dc:creator>
     <cc:Agent>
      <dc:title>Matplotlib v3.10.3, https://matplotlib.org/</dc:title>
     </cc:Agent>
    </dc:creator>
   </cc:Work>
  </rdf:RDF>
 </metadata>
 <defs>
  <style type="text/css">*{stroke-linejoin: round; stroke-linecap: butt}</style>
 </defs>
 <g id="figure_1">
  <g id="patch_1">
   <path d="M 0 224.06794 
L 452.901797 224.06794 
L 452.901797 0 
L 0 0 
z
" style="fill: #ffffff"/>
  </g>
  <g id="axes_1">
   <g id="patch_2">
    <path d="M 13.406631 216.86794 
L 445.701797 216.86794 
L 445.701797 7.2 
L 13.406631 7.2 
z
" style="fill: #ffffff"/>
   </g>
   <g id="PathCollection_1">
    <path d="M 48.965994 121.644979 
C 49.903629 121.644979 50.802987 121.272453 51.465994 120.609445 
C 52.129002 119.946437 52.501528 119.04708 52.501528 118.109445 
C 52.501528 117.171811 52.129002 116.272453 51.465994 115.609445 
C 50.802987 114.946437 49.903629 114.573911 48.965994 114.573911 
C 48.02836 114.573911 47.129002 114.946437 46.465994 115.609445 
C 45.802987 116.272453 45.43046 117.171811 45.43046 118.109445 
C 45.43046 119.04708 45.802987 119.946437 46.465994 120.609445 
C 47.129002 121.272453 48.02836 121.644979 48.965994 121.644979 
z
" clip-path="url(#p34100ffe2a)"/>
   </g>
   <g id="PathCollection_2">
    <path d="M 39.604108 165.220355 
C 40.541742 165.220355 41.4411 164.847828 42.104108 164.184821 
C 42.767116 163.521813 43.139642 162.622455 43.139642 161.684821 
C 43.139642 160.747186 42.767116 159.847828 42.104108 159.184821 
C 41.4411 158.521813 40.541742 158.149287 39.604108 158.149287 
C 38.666473 158.149287 37.767116 158.521813 37.104108 159.184821 
C 36.4411 159.847828 36.068574 160.747186 36.068574 161.684821 
C 36.068574 162.622455 36.4411 163.521813 37.104108 164.184821 
C 37.767116 164.847828 38.666473 165.220355 39.604108 165.220355 
z
" clip-path="url(#p34100ffe2a)"/>
   </g>
   <g id="matplotlib.axis_1"/>
   <g id="matplotlib.axis_2"/>
   <g id="line2d_1">
    <path d="M 437.388428 71.363764 
L 433.36844 66.197158 
L 430.100509 62.406332 
L 426.567671 58.648222 
L 422.20566 54.418622 
L 419.031745 51.586255 
L 415.420396 48.582886 
L 411.111101 45.270029 
L 406.188291 41.803792 
L 402.058938 39.128833 
L 398.38541 36.91014 
L 393.178938 34.001731 
L 387.429437 31.081847 
L 381.633416 28.418363 
L 376.066866 26.101109 
L 370.608095 24.039188 
L 365.178661 22.179928 
L 356.316673 19.522979 
L 347.669364 17.344257 
L 339.363336 15.603773 
L 334.004541 14.651798 
L 324.80545 13.310893 
L 315.645882 12.322713 
L 307.202594 11.700367 
L 303.650628 11.517752 
L 291.955059 11.23386 
L 283.105301 11.330207 
L 275.825802 11.602446 
L 264.709813 12.343212 
L 254.642884 13.343304 
L 243.8224 14.75821 
L 238.952938 15.508048 
L 230.489617 16.97658 
L 223.84508 18.275775 
L 212.473006 20.797099 
L 203.187866 23.135341 
L 192.574203 26.119376 
L 183.473117 28.947276 
L 173.335135 32.397774 
L 167.0018 34.718888 
L 155.773263 39.160126 
L 147.541754 42.693641 
L 137.825603 47.186973 
L 127.591231 52.327641 
L 120.599755 56.101714 
L 112.927931 60.512498 
L 105.690682 64.958614 
L 99.56837 68.96082 
L 92.066502 74.206527 
L 85.984066 78.776956 
L 79.711241 83.840716 
L 76.81411 86.3181 
L 72.231748 90.444327 
L 67.811119 94.705337 
L 64.857528 97.734124 
L 60.331439 102.720214 
L 57.966433 105.526348 
L 55.066423 109.201484 
L 52.077159 113.327299 
L 49.520073 117.213153 
L 46.797064 121.853856 
L 45.001002 125.319745 
L 43.069012 129.597393 
L 41.437531 133.935778 
L 40.513255 136.913992 
L 39.57313 140.706009 
L 38.883585 144.659869 
L 38.554937 147.793828 
L 38.424254 151.165393 
L 38.498659 153.986544 
L 38.758229 156.903874 
L 39.281768 160.189409 
L 40.158778 163.820507 
L 41.072747 166.656623 
L 42.404326 169.959842 
L 43.907461 173.017648 
L 45.199786 175.285743 
L 47.048087 178.132898 
L 49.316412 181.173072 
L 51.284211 183.514198 
L 54.296453 186.702749 
L 57.033 189.280798 
L 59.334654 191.263471 
L 63.131971 194.235802 
L 67.290465 197.146533 
L 71.497964 199.797964 
L 76.258227 202.507673 
L 82.077507 205.477318 
L 86.682454 207.603909 
L 91.858155 209.79401 
L 97.899983 212.119234 
L 99.888612 212.835864 
L 99.888612 212.835864 
" clip-path="url(#p34100ffe2a)" style="fill: none; stroke: #000000; stroke-width: 2; stroke-linecap: square"/>
   </g>
   <g id="patch_3">
    <path d="M 194.785349 25.470074 
Q 193.815137 25.754583 194.990638 25.409874 
" clip-path="url(#p34100ffe2a)" style="fill: none; stroke: #000000; stroke-width: 2; stroke-linecap: round"/>
    <path d="M 205.993532 27.393888 
L 194.990638 25.409874 
L 203.179585 17.797967 
z
" clip-path="url(#p34100ffe2a)" style="stroke: #000000; stroke-width: 2; stroke-linecap: round"/>
   </g>
   <g id="text_1">
    <!-- $Q_0$ -->
    <g transform="translate(25.50394 106.847837) scale(0.24 -0.24)">
     <defs>
      <path id="Cmmi10-51" d="M 1947 -141 
Q 1466 -141 1094 79 
Q 722 300 520 692 
Q 319 1084 319 1563 
Q 319 2259 714 2950 
Q 1109 3641 1756 4077 
Q 2403 4513 3109 4513 
Q 3475 4513 3778 4381 
Q 4081 4250 4290 4017 
Q 4500 3784 4614 3471 
Q 4728 3159 4728 2791 
Q 4728 2366 4581 1936 
Q 4434 1506 4171 1136 
Q 3909 766 3559 484 
Q 3209 203 2809 38 
Q 2850 -256 2934 -425 
Q 3019 -594 3256 -594 
Q 3506 -594 3726 -412 
Q 3947 -231 4006 13 
Q 4019 72 4078 72 
Q 4147 72 4147 -13 
Q 4100 -219 4008 -430 
Q 3916 -641 3786 -823 
Q 3656 -1006 3478 -1123 
Q 3300 -1241 3084 -1241 
Q 2547 -1241 2547 -550 
Q 2547 -509 2562 -332 
Q 2578 -156 2578 -44 
Q 2269 -141 1947 -141 
z
M 1709 300 
Q 1709 44 1991 44 
Q 2275 44 2591 184 
L 2591 244 
Q 2591 503 2509 648 
Q 2428 794 2194 794 
Q 2078 794 1964 723 
Q 1850 653 1779 539 
Q 1709 425 1709 300 
z
M 1544 288 
Q 1544 456 1637 612 
Q 1731 769 1881 864 
Q 2031 959 2203 959 
Q 2481 959 2607 771 
Q 2734 584 2778 281 
Q 3188 525 3500 978 
Q 3813 1431 3977 1973 
Q 4141 2516 4141 3003 
Q 4141 3356 4023 3656 
Q 3906 3956 3664 4140 
Q 3422 4325 3066 4325 
Q 2722 4325 2403 4156 
Q 2084 3988 1813 3706 
Q 1550 3434 1342 3032 
Q 1134 2631 1021 2193 
Q 909 1756 909 1356 
Q 909 947 1068 612 
Q 1228 278 1569 128 
Q 1544 194 1544 288 
z
" transform="scale(0.015625)"/>
      <path id="Cmr10-30" d="M 1600 -141 
Q 816 -141 533 504 
Q 250 1150 250 2041 
Q 250 2597 351 3087 
Q 453 3578 754 3920 
Q 1056 4263 1600 4263 
Q 2022 4263 2290 4056 
Q 2559 3850 2700 3523 
Q 2841 3197 2892 2823 
Q 2944 2450 2944 2041 
Q 2944 1491 2842 1011 
Q 2741 531 2444 195 
Q 2147 -141 1600 -141 
z
M 1600 25 
Q 1956 25 2131 390 
Q 2306 756 2347 1200 
Q 2388 1644 2388 2144 
Q 2388 2625 2347 3031 
Q 2306 3438 2132 3767 
Q 1959 4097 1600 4097 
Q 1238 4097 1063 3765 
Q 888 3434 847 3029 
Q 806 2625 806 2144 
Q 806 1788 823 1472 
Q 841 1156 916 820 
Q 991 484 1158 254 
Q 1325 25 1600 25 
z
" transform="scale(0.015625)"/>
     </defs>
     <use xlink:href="#Cmmi10-51" transform="translate(0 0.484375)"/>
     <use xlink:href="#Cmr10-30" transform="translate(79.003906 -16.521875) scale(0.7)"/>
    </g>
   </g>
   <g id="text_2">
    <!-- $Q_1$ -->
    <g transform="translate(7.2 159.365267) scale(0.24 -0.24)">
     <defs>
      <path id="Cmr10-31" d="M 594 0 
L 594 225 
Q 1394 225 1394 428 
L 1394 3788 
Q 1063 3628 556 3628 
L 556 3853 
Q 1341 3853 1741 4263 
L 1831 4263 
Q 1853 4263 1873 4245 
Q 1894 4228 1894 4206 
L 1894 428 
Q 1894 225 2694 225 
L 2694 0 
L 594 0 
z
" transform="scale(0.015625)"/>
     </defs>
     <use xlink:href="#Cmmi10-51" transform="translate(0 0.484375)"/>
     <use xlink:href="#Cmr10-31" transform="translate(79.003906 -16.521875) scale(0.7)"/>
    </g>
   </g>
  </g>
 </g>
 <defs>
  <clipPath id="p34100ffe2a">
   <rect x="13.406631" y="7.2" width="432.295165" height="209.66794"/>
  </clipPath>
 </defs>
</svg>
