<?xml version="1.0" encoding="utf-8" standalone="no"?>
<!DOCTYPE svg PUBLIC "-//W3C//DTD SVG 1.1//EN"
  "http://www.w3.org/Graphics/SVG/1.1/DTD/svg11.dtd">
<svg xmlns:xlink="http://www.w3.org/1999/xlink" width="325.693613pt" height="338.09769pt" viewBox="0 0 325.693613 338.09769" xmlns="http://www.w3.org/2000/svg" version="1.1">
 <metadata>
  <rdf:RDF xmlns:dc="http://purl.org/dc/elements/1.1/" xmlns:cc="http://creativecommons.org/ns#" xmlns:rdf="http://www.w3.org/1999/02/22-rdf-syntax-ns#">
   <cc:Work>
    <dc:type rdf:resource="http://purl.org/dc/dcmitype/StillImage"/>
    <dc:date>2025-11-26T17:28:32.965055</dc:date>
    <dc:format>image/svg+xml</dc:format>
    <dc:creator>
     <cc:Agent>
      <dc:title>Matplotlib v3.10.5, https://matplotlib.org/</dc:title>
     </cc:Agent>
    </dc:creator>
   </cc:Work>
  </rdf:RDF>
 </metadata>
 <defs>
  <style type="text/css">*{stroke-linejoin: round; stroke-linecap: butt}</style>
 </defs>
 <g id="figure_1">
  <g id="patch_1">
   <path d="M 0 338.09769 
L 325.693613 338.09769 
L 325.693613 0 
L 0 0 
z
" style="fill: #ffffff"/>
  </g>
  <g id="axes_1">
   <g id="patch_2">
    <path d="M 8.871918 319.912404 
L 305.353613 319.912404 
L 305.353613 23.4425 
L 8.871918 23.4425 
z
" style="fill: #ffffff"/>
   </g>
   <g id="matplotlib.axis_1">
    <g id="xtick_1">
     <g id="line2d_1">
      <defs>
       <path id="me0bea582c3" d="M 0 0 
L 0 3.5 
" style="stroke: #000000; stroke-width: 0.8"/>
      </defs>
      <g>
       <use xlink:href="#me0bea582c3" x="14.571094" y="314.219565" style="stroke: #000000; stroke-width: 0.8"/>
      </g>
     </g>
     <g id="text_1">
      <!-- −1 -->
      <g transform="translate(7.2 328.818003) scale(0.1 -0.1)">
       <defs>
        <path id="DejaVuSans-2212" d="M 678 2272 
L 4684 2272 
L 4684 1741 
L 678 1741 
L 678 2272 
z
" transform="scale(0.015625)"/>
        <path id="DejaVuSans-31" d="M 794 531 
L 1825 531 
L 1825 4091 
L 703 3866 
L 703 4441 
L 1819 4666 
L 2450 4666 
L 2450 531 
L 3481 531 
L 3481 0 
L 794 0 
L 794 531 
z
" transform="scale(0.015625)"/>
       </defs>
       <use xlink:href="#DejaVuSans-2212"/>
       <use xlink:href="#DejaVuSans-31" transform="translate(83.789062 0)"/>
      </g>
     </g>
    </g>
    <g id="xtick_2">
     <g id="line2d_2">
      <g>
       <use xlink:href="#me0bea582c3" x="299.652042" y="314.219565" style="stroke: #000000; stroke-width: 0.8"/>
      </g>
     </g>
     <g id="text_2">
      <!-- 1 -->
      <g transform="translate(296.470792 328.818003) scale(0.1 -0.1)">
       <use xlink:href="#DejaVuSans-31"/>
      </g>
     </g>
    </g>
    <g id="text_3">
     <!-- $x$ -->
     <g transform="translate(313.353613 314.219565) scale(0.16 -0.16)">
      <defs>
       <path id="Cmmi10-78" d="M 500 184 
Q 613 97 819 97 
Q 1019 97 1172 289 
Q 1325 481 1381 709 
L 1672 1844 
Q 1741 2153 1741 2266 
Q 1741 2425 1652 2544 
Q 1563 2663 1403 2663 
Q 1200 2663 1022 2536 
Q 844 2409 722 2214 
Q 600 2019 550 1819 
Q 538 1778 500 1778 
L 422 1778 
Q 372 1778 372 1838 
L 372 1856 
Q 434 2094 584 2320 
Q 734 2547 951 2687 
Q 1169 2828 1416 2828 
Q 1650 2828 1839 2703 
Q 2028 2578 2106 2363 
Q 2216 2559 2386 2693 
Q 2556 2828 2759 2828 
Q 2897 2828 3040 2779 
Q 3184 2731 3275 2631 
Q 3366 2531 3366 2381 
Q 3366 2219 3261 2101 
Q 3156 1984 2994 1984 
Q 2891 1984 2822 2050 
Q 2753 2116 2753 2216 
Q 2753 2350 2845 2451 
Q 2938 2553 3066 2572 
Q 2950 2663 2747 2663 
Q 2541 2663 2389 2472 
Q 2238 2281 2175 2047 
L 1894 916 
Q 1825 659 1825 494 
Q 1825 331 1917 214 
Q 2009 97 2163 97 
Q 2463 97 2698 361 
Q 2934 625 3009 941 
Q 3022 978 3059 978 
L 3138 978 
Q 3163 978 3178 961 
Q 3194 944 3194 922 
Q 3194 916 3188 903 
Q 3097 522 2806 225 
Q 2516 -72 2150 -72 
Q 1916 -72 1727 54 
Q 1538 181 1459 397 
Q 1359 209 1182 68 
Q 1006 -72 806 -72 
Q 669 -72 523 -23 
Q 378 25 287 125 
Q 197 225 197 378 
Q 197 528 301 651 
Q 406 775 563 775 
Q 669 775 741 711 
Q 813 647 813 544 
Q 813 409 723 309 
Q 634 209 500 184 
z
" transform="scale(0.015625)"/>
      </defs>
      <use xlink:href="#Cmmi10-78" transform="translate(0 0.8125)"/>
     </g>
    </g>
   </g>
   <g id="matplotlib.axis_2">
    <g id="ytick_1">
     <g id="line2d_3">
      <defs>
       <path id="m803d014f2d" d="M 0 0 
L -3.5 0 
" style="stroke: #000000; stroke-width: 0.8"/>
      </defs>
      <g>
       <use xlink:href="#m803d014f2d" x="157.111568" y="314.219565" style="stroke: #000000; stroke-width: 0.8"/>
      </g>
     </g>
    </g>
    <g id="ytick_2">
     <g id="line2d_4">
      <g>
       <use xlink:href="#m803d014f2d" x="157.111568" y="171.679091" style="stroke: #000000; stroke-width: 0.8"/>
      </g>
     </g>
     <g id="text_4">
      <!-- 1 -->
      <g transform="translate(143.749068 175.47831) scale(0.1 -0.1)">
       <use xlink:href="#DejaVuSans-31"/>
      </g>
     </g>
    </g>
    <g id="ytick_3">
     <g id="line2d_5">
      <g>
       <use xlink:href="#m803d014f2d" x="157.111568" y="29.138617" style="stroke: #000000; stroke-width: 0.8"/>
      </g>
     </g>
     <g id="text_5">
      <!-- 2 -->
      <g transform="translate(143.749068 32.937836) scale(0.1 -0.1)">
       <defs>
        <path id="DejaVuSans-32" d="M 1228 531 
L 3431 531 
L 3431 0 
L 469 0 
L 469 531 
Q 828 903 1448 1529 
Q 2069 2156 2228 2338 
Q 2531 2678 2651 2914 
Q 2772 3150 2772 3378 
Q 2772 3750 2511 3984 
Q 2250 4219 1831 4219 
Q 1534 4219 1204 4116 
Q 875 4013 500 3803 
L 500 4441 
Q 881 4594 1212 4672 
Q 1544 4750 1819 4750 
Q 2544 4750 2975 4387 
Q 3406 4025 3406 3419 
Q 3406 3131 3298 2873 
Q 3191 2616 2906 2266 
Q 2828 2175 2409 1742 
Q 1991 1309 1228 531 
z
" transform="scale(0.015625)"/>
       </defs>
       <use xlink:href="#DejaVuSans-32"/>
      </g>
     </g>
    </g>
    <g id="text_6">
     <!-- $y$ -->
     <g transform="translate(153.111568 12.0825) scale(0.16 -0.16)">
      <defs>
       <path id="Cmmi10-79" d="M 538 -916 
Q 672 -1147 1006 -1147 
Q 1309 -1147 1531 -934 
Q 1753 -722 1889 -420 
Q 2025 -119 2100 197 
Q 1816 -72 1484 -72 
Q 1231 -72 1053 15 
Q 875 103 776 276 
Q 678 450 678 697 
Q 678 906 734 1126 
Q 791 1347 892 1617 
Q 994 1888 1069 2088 
Q 1153 2322 1153 2472 
Q 1153 2663 1013 2663 
Q 759 2663 595 2402 
Q 431 2141 353 1819 
Q 341 1778 300 1778 
L 225 1778 
Q 172 1778 172 1838 
L 172 1856 
Q 275 2238 487 2533 
Q 700 2828 1025 2828 
Q 1253 2828 1411 2678 
Q 1569 2528 1569 2297 
Q 1569 2178 1516 2047 
Q 1488 1969 1388 1706 
Q 1288 1444 1234 1272 
Q 1181 1100 1147 934 
Q 1113 769 1113 603 
Q 1113 391 1203 244 
Q 1294 97 1491 97 
Q 1888 97 2203 581 
L 2688 2553 
Q 2709 2638 2787 2698 
Q 2866 2759 2956 2759 
Q 3034 2759 3092 2709 
Q 3150 2659 3150 2578 
Q 3150 2541 3144 2528 
L 2509 -19 
Q 2425 -347 2200 -647 
Q 1975 -947 1658 -1130 
Q 1341 -1313 997 -1313 
Q 831 -1313 668 -1248 
Q 506 -1184 406 -1056 
Q 306 -928 306 -756 
Q 306 -581 409 -453 
Q 513 -325 684 -325 
Q 788 -325 858 -389 
Q 928 -453 928 -556 
Q 928 -703 818 -812 
Q 709 -922 563 -922 
Q 556 -919 550 -917 
Q 544 -916 538 -916 
z
" transform="scale(0.015625)"/>
      </defs>
      <use xlink:href="#Cmmi10-79" transform="translate(0 0.8125)"/>
     </g>
    </g>
   </g>
   <g id="line2d_6">
    <path d="M 299.652042 171.679091 
L 299.482526 164.729472 
L 299.204694 160.395015 
L 298.470967 153.367699 
L 297.517859 147.105526 
L 296.862652 143.618065 
L 295.550151 137.729929 
L 294.28362 132.928414 
L 291.667222 124.641204 
L 288.1129 115.496907 
L 285.623516 110.014953 
L 282.604517 104.082446 
L 279.273428 98.23342 
L 277.12346 94.770492 
L 273.405219 89.255954 
L 270.162488 84.861603 
L 267.776511 81.840029 
L 264.615571 78.080608 
L 258.6989 71.690088 
L 255.164502 68.22181 
L 251.706888 65.051176 
L 246.089938 60.320946 
L 241.387512 56.721046 
L 234.877235 52.220781 
L 232.338586 50.606044 
L 227.256241 47.592381 
L 224.031486 45.823971 
L 219.848853 43.687608 
L 214.803148 41.335436 
L 205.122988 37.467727 
L 201.684481 36.286912 
L 195.61742 34.438113 
L 191.10273 33.250815 
L 184.463034 31.787404 
L 178.073521 30.68837 
L 171.215722 29.838125 
L 165.130762 29.364372 
L 158.332314 29.143844 
L 152.58317 29.210567 
L 144.69381 29.680549 
L 135.360181 30.808001 
L 126.293902 32.50992 
L 120.337357 33.964008 
L 112.661254 36.246612 
L 107.937707 37.889263 
L 103.305838 39.683901 
L 99.256838 41.40777 
L 92.884441 44.428696 
L 88.696892 46.630225 
L 84.365505 49.099333 
L 78.76498 52.60097 
L 73.711412 56.084105 
L 69.376808 59.338543 
L 63.142525 64.498843 
L 55.616771 71.59616 
L 51.955596 75.450153 
L 48.077055 79.86808 
L 43.219277 85.96834 
L 39.440641 91.234454 
L 36.111772 96.334309 
L 32.946782 101.672714 
L 30.740642 105.738392 
L 28.159179 110.941392 
L 25.648945 116.584939 
L 24.092014 120.458149 
L 21.384491 128.136614 
L 20.033874 132.595942 
L 18.725668 137.515813 
L 17.116078 144.863994 
L 16.302746 149.528187 
L 15.667743 154.031682 
L 15.203874 158.262935 
L 14.810523 163.420801 
L 14.573489 170.852698 
L 14.692339 177.557007 
L 15.052751 183.387173 
L 15.820581 190.511082 
L 16.571141 195.473529 
L 17.796422 201.829991 
L 19.532707 208.959701 
L 21.787976 216.459805 
L 23.763749 222.039254 
L 25.635608 226.741408 
L 28.670842 233.491442 
L 31.5238 239.09941 
L 34.298556 244.03067 
L 38.238493 250.336442 
L 42.02266 255.776238 
L 44.136724 258.595553 
L 47.28568 262.541961 
L 50.841266 266.675984 
L 54.896238 271.026024 
L 57.396857 273.535673 
L 61.881409 277.740411 
L 66.444491 281.666672 
L 72.920121 286.699033 
L 76.578448 289.289479 
L 81.983104 292.813317 
L 87.954735 296.319049 
L 93.2374 299.107021 
L 98.36931 301.552622 
L 103.158787 303.614243 
L 106.769541 305.033758 
L 111.567591 306.747714 
L 116.098616 308.191818 
L 120.747494 309.50304 
L 127.826755 311.178864 
L 135.34191 312.547358 
L 142.131582 313.430235 
L 147.220596 313.875981 
L 155.554393 314.211059 
L 159.508338 314.199413 
L 168.401504 313.771751 
L 178.27228 312.640118 
L 182.344534 311.968379 
L 190.415799 310.274239 
L 194.292662 309.284879 
L 201.586689 307.103426 
L 207.579944 304.985992 
L 213.377487 302.64448 
L 217.898346 300.608352 
L 221.878749 298.655463 
L 228.747892 294.910677 
L 231.422829 293.316352 
L 235.860379 290.491597 
L 240.521615 287.26694 
L 245.593848 283.431822 
L 251.014523 278.917246 
L 252.740071 277.38139 
L 259.44517 270.904192 
L 263.596773 266.435029 
L 269.234373 259.69195 
L 271.68092 256.48269 
L 277.064343 248.679861 
L 282.151284 240.110489 
L 283.756635 237.091733 
L 287.467262 229.343462 
L 290.288347 222.48984 
L 291.499651 219.193615 
L 292.82708 215.2576 
L 294.290898 210.403995 
L 295.883314 204.23964 
L 297.572311 195.939479 
L 298.147175 192.336883 
L 298.903536 186.267602 
L 299.40867 180.005041 
L 299.582451 176.132643 
L 299.652042 171.679091 
L 299.652042 171.679091 
" clip-path="url(#p176092533e)" style="fill: none; stroke: #000000; stroke-width: 3; stroke-linecap: square"/>
   </g>
   <g id="patch_3">
    <path d="M 157.111568 319.912404 
L 157.111568 23.4425 
" style="fill: none; stroke: #000000; stroke-width: 0.8; stroke-linejoin: miter; stroke-linecap: square"/>
   </g>
   <g id="patch_4">
    <path d="M 8.871918 314.219565 
L 305.353613 314.219565 
" style="fill: none; stroke: #000000; stroke-width: 0.8; stroke-linejoin: miter; stroke-linecap: square"/>
   </g>
  </g>
 </g>
 <defs>
  <clipPath id="p176092533e">
   <rect x="8.871918" y="23.4425" width="296.481695" height="296.469904"/>
  </clipPath>
 </defs>
</svg>
