<?xml version="1.0" encoding="utf-8" standalone="no"?>
<!DOCTYPE svg PUBLIC "-//W3C//DTD SVG 1.1//EN"
  "http://www.w3.org/Graphics/SVG/1.1/DTD/svg11.dtd">
<svg xmlns:xlink="http://www.w3.org/1999/xlink" width="338.4pt" height="338.4pt" viewBox="0 0 338.4 338.4" xmlns="http://www.w3.org/2000/svg" version="1.1">
 <metadata>
  <rdf:RDF xmlns:dc="http://purl.org/dc/elements/1.1/" xmlns:cc="http://creativecommons.org/ns#" xmlns:rdf="http://www.w3.org/1999/02/22-rdf-syntax-ns#">
   <cc:Work>
    <dc:type rdf:resource="http://purl.org/dc/dcmitype/StillImage"/>
    <dc:date>2025-08-04T00:38:05.931058</dc:date>
    <dc:format>image/svg+xml</dc:format>
    <dc:creator>
     <cc:Agent>
      <dc:title>Matplotlib v3.10.5, https://matplotlib.org/</dc:title>
     </cc:Agent>
    </dc:creator>
   </cc:Work>
  </rdf:RDF>
 </metadata>
 <defs>
  <style type="text/css">*{stroke-linejoin: round; stroke-linecap: butt}</style>
 </defs>
 <g id="figure_1">
  <g id="patch_1">
   <path d="M -0 338.4 
L 338.4 338.4 
L 338.4 0 
L -0 0 
z
" style="fill: #ffffff"/>
  </g>
  <g id="axes_1">
   <g id="patch_2">
    <path d="M 7.2 331.2 
L 331.2 331.2 
L 331.2 7.2 
L 7.2 7.2 
z
" style="fill: #ffffff"/>
   </g>
   <g id="patch_3">
    <path d="M 193.33247 175.873631 
L 190.758 180.592396 
L 188.533602 185.779414 
L 186.588425 191.379874 
L 184.847081 197.33415 
L 183.23258 203.577802 
L 181.669238 210.041807 
L 180.085405 216.653112 
L 178.415893 223.335551 
L 176.603979 230.011139 
L 174.602869 236.601692 
L 172.37658 243.030705 
L 169.900184 249.225367 
L 167.15946 255.118598 
L 164.149994 260.650959 
L 160.875843 265.772345 
L 157.347886 270.443335 
L 153.582023 274.636162 
L 149.597354 278.335258 
L 145.414506 281.537367 
L 141.054207 284.251274 
L 136.536199 286.497165 
L 131.878555 288.3057 
L 127.09738 289.716821 
L 122.206906 290.778383 
L 117.219889 291.544619 
L 117.219889 291.544619 
L 116.110044 288.276552 
L 114.897324 285.045248 
L 113.582944 281.853943 
L 112.168221 278.705836 
L 110.654573 275.604081 
L 109.043516 272.551784 
L 107.336665 269.552005 
L 105.535728 266.607749 
L 103.642512 263.721965 
L 101.658912 260.897545 
L 99.586916 258.137318 
L 97.428599 255.444051 
L 95.186126 252.820441 
L 92.861741 250.269118 
L 90.457773 247.792636 
L 87.976633 245.393479 
L 85.420804 243.074048 
L 82.792849 240.836668 
L 80.095399 238.683582 
L 77.331158 236.616945 
L 74.502895 234.638828 
L 71.613443 232.751214 
L 68.665698 230.955994 
L 65.662613 229.254965 
L 62.607196 227.649833 
L 62.607196 227.649833 
L 65.035371 223.292158 
L 67.392774 218.898816 
L 69.668231 214.463845 
L 71.85079 209.981632 
L 73.929769 205.446995 
L 75.894812 200.855263 
L 77.735943 196.202345 
L 79.443625 191.484795 
L 81.008821 186.699867 
L 82.423057 181.84556 
L 83.678487 176.920648 
L 84.767962 171.924707 
L 85.6851 166.858123 
L 86.424351 161.722087 
L 86.981074 156.518584 
L 87.351602 151.25036 
L 87.533306 145.920886 
L 87.524663 140.534299 
L 87.325308 135.095345 
L 86.93609 129.609302 
L 86.359116 124.081895 
L 85.597784 118.519208 
L 84.656812 112.927589 
L 83.54225 107.313545 
L 82.261489 101.683647 
L 82.261489 101.683647 
L 87.420439 103.339701 
L 92.539602 105.114933 
L 97.616226 107.008389 
L 102.647579 109.01905 
L 107.630958 111.145836 
L 112.563682 113.387602 
L 117.443098 115.743144 
L 122.266583 118.211195 
L 127.031543 120.790427 
L 131.735416 123.479453 
L 136.375672 126.276828 
L 140.949815 129.181048 
L 145.455387 132.190549 
L 149.889965 135.303715 
L 154.251163 138.518872 
L 158.536637 141.834289 
L 162.744083 145.248185 
L 166.871237 148.758724 
L 170.91588 152.364017 
L 174.875838 156.062127 
L 178.74898 159.851064 
L 182.533225 163.728792 
L 186.226538 167.693224 
L 189.826931 171.74223 
z
" clip-path="url(#pba43a5ff6f)" style="fill: #add8e6; stroke: #000000; stroke-linejoin: miter"/>
   </g>
   <g id="matplotlib.axis_1"/>
   <g id="matplotlib.axis_2"/>
   <g id="line2d_1">
    <path d="M 137.299362 286.154172 
L 135.714605 281.418105 
L 133.878107 276.5701 
L 131.844758 271.788744 
L 129.417771 266.684993 
L 126.966555 262.043383 
L 124.224818 257.332586 
L 121.294509 252.751154 
L 118.194547 248.323371 
L 115.097678 244.260639 
L 111.619281 240.063088 
L 108.317263 236.38825 
L 104.424377 232.393854 
L 100.797405 228.96346 
L 96.534797 225.250839 
L 92.389146 221.93714 
L 88.311862 218.936882 
L 84.03319 216.041111 
L 79.180224 213.044943 
L 74.218778 210.274615 
L 72.204764 209.229633 
L 72.204764 209.229633 
" clip-path="url(#pba43a5ff6f)" style="fill: none; stroke-dasharray: 7.4,3.2; stroke-dashoffset: 0; stroke: #808080; stroke-width: 2"/>
   </g>
   <g id="line2d_2">
    <path d="M 154.862613 273.292897 
L 152.713247 267.75209 
L 150.369609 262.350032 
L 147.799535 257.010092 
L 145.140179 251.989499 
L 141.969834 246.540164 
L 138.962856 241.812121 
L 135.92447 237.3981 
L 132.326248 232.571856 
L 128.632211 228.005126 
L 124.979711 223.824566 
L 120.883104 219.482712 
L 116.827351 215.504366 
L 112.483792 211.558877 
L 108.249127 207.99535 
L 103.67231 204.429304 
L 98.909633 201.006439 
L 94.113812 197.832862 
L 89.68546 195.128437 
L 84.581192 192.262686 
L 79.981619 189.89742 
L 79.981619 189.89742 
" clip-path="url(#pba43a5ff6f)" style="fill: none; stroke-dasharray: 7.4,3.2; stroke-dashoffset: 0; stroke: #808080; stroke-width: 2"/>
   </g>
   <g id="line2d_3">
    <path d="M 168.563355 252.213577 
L 165.793262 246.578062 
L 162.839139 241.084528 
L 159.728598 235.770297 
L 156.273514 230.335967 
L 152.570163 224.970563 
L 148.555424 219.608744 
L 144.629654 214.758718 
L 140.672682 210.212967 
L 136.431728 205.678541 
L 132.124273 201.3919 
L 127.948724 197.512797 
L 123.186369 193.389549 
L 118.308397 189.469461 
L 113.380569 185.794729 
L 108.484985 182.40626 
L 103.228612 179.038248 
L 97.585327 175.712691 
L 92.124938 172.763015 
L 86.967822 170.20552 
L 85.24844 169.40019 
L 85.24844 169.40019 
" clip-path="url(#pba43a5ff6f)" style="fill: none; stroke-dasharray: 7.4,3.2; stroke-dashoffset: 0; stroke: #808080; stroke-width: 2"/>
   </g>
   <g id="line2d_4">
    <path d="M 177.83027 225.565383 
L 174.360342 220.040714 
L 170.561584 214.433137 
L 166.641048 209.060079 
L 162.451558 203.721033 
L 158.281402 198.768537 
L 153.639495 193.630606 
L 149.079092 188.925659 
L 144.269825 184.294206 
L 139.666712 180.149316 
L 134.373439 175.700374 
L 129.148041 171.613977 
L 123.902375 167.793071 
L 118.862993 164.369208 
L 113.205715 160.794686 
L 107.466665 157.441408 
L 101.979389 154.477404 
L 95.90551 151.457738 
L 89.884061 148.721634 
L 87.493836 147.70394 
L 87.493836 147.70394 
" clip-path="url(#pba43a5ff6f)" style="fill: none; stroke-dasharray: 7.4,3.2; stroke-dashoffset: 0; stroke: #808080; stroke-width: 2"/>
   </g>
   <g id="line2d_5">
    <path d="M 184.571264 198.356473 
L 180.572256 193.122415 
L 175.994357 187.517641 
L 171.610575 182.494641 
L 166.816335 177.34563 
L 161.920544 172.422037 
L 156.689293 167.49906 
L 151.377513 162.825605 
L 145.729069 158.184881 
L 140.200974 153.94533 
L 134.430422 149.815174 
L 128.851555 146.089658 
L 123.080774 142.495298 
L 117.43821 139.221252 
L 111.850567 136.201112 
L 105.454307 133.001713 
L 99.1637 130.111016 
L 92.593149 127.350464 
L 86.468189 125.005747 
L 86.468189 125.005747 
" clip-path="url(#pba43a5ff6f)" style="fill: none; stroke-dasharray: 7.4,3.2; stroke-dashoffset: 0; stroke: #808080; stroke-width: 2"/>
   </g>
   <g id="line2d_6">
    <path d="M 122.461951 323.709261 
L 122.320494 319.275913 
L 121.96782 314.524388 
L 121.32544 309.217212 
L 120.547705 304.589136 
L 119.473302 299.58484 
L 118.186614 294.710364 
L 116.823979 290.339325 
L 115.235184 285.914816 
L 113.377901 281.380736 
L 111.574805 277.459924 
L 109.54363 273.474532 
L 107.066819 269.097267 
L 104.293448 264.691875 
L 101.280518 260.379697 
L 98.044173 256.19454 
L 94.625683 252.190305 
L 91.211475 248.552296 
L 87.780078 245.209803 
L 83.82017 241.694274 
L 79.578961 238.287036 
L 75.770991 235.50928 
L 72.150254 233.092095 
L 68.21994 230.695518 
L 63.523957 228.118528 
L 58.77633 225.806908 
L 54.426249 223.930838 
L 50.12448 222.290325 
L 45.001629 220.601291 
L 40.43713 219.328128 
L 35.705123 218.230113 
L 31.650956 217.463831 
L 31.650956 217.463831 
" clip-path="url(#pba43a5ff6f)" style="fill: none; stroke-dasharray: 7.4,3.2; stroke-dashoffset: 0; stroke: #808080; stroke-width: 2"/>
   </g>
   <g id="line2d_7">
    <path d="M 229.358191 235.697352 
L 226.279832 228.587716 
L 222.956188 221.561211 
L 220.177704 216.11233 
L 216.521458 209.434422 
L 212.786235 203.102427 
L 208.910284 196.977515 
L 204.952913 191.128324 
L 200.444088 184.897326 
L 196.160272 179.353131 
L 191.654915 173.872329 
L 186.797174 168.322464 
L 182.346746 163.533446 
L 177.028811 158.146568 
L 172.473134 153.797837 
L 166.41063 148.358693 
L 160.731737 143.595184 
L 154.692909 138.853332 
L 149.080152 134.723692 
L 143.064314 130.574622 
L 137.040638 126.689832 
L 130.165331 122.565767 
L 123.560423 118.897449 
L 117.791424 115.916669 
L 110.446645 112.408558 
L 103.014835 109.171142 
L 97.173975 106.838088 
L 91.250684 104.655408 
L 84.755466 102.467753 
L 77.961831 100.40329 
L 70.249422 98.329074 
L 64.232727 96.905027 
L 56.461443 95.311919 
L 48.744562 93.999415 
L 41.266752 92.979408 
L 33.622605 92.189486 
L 27.524656 91.74084 
L 20.792443 91.431385 
L 13.201865 91.315497 
L 13.201865 91.315497 
" clip-path="url(#pba43a5ff6f)" style="fill: none; stroke-dasharray: 7.4,3.2; stroke-dashoffset: 0; stroke: #808080; stroke-width: 2"/>
   </g>
   <g id="patch_4">
    <path d="M 13.430769 331.2 
L 13.430769 7.2 
" style="fill: none; stroke: #000000; stroke-width: 0.8; stroke-linejoin: miter; stroke-linecap: square"/>
   </g>
   <g id="patch_5">
    <path d="M 7.2 324.969231 
L 331.2 324.969231 
" style="fill: none; stroke: #000000; stroke-width: 0.8; stroke-linejoin: miter; stroke-linecap: square"/>
   </g>
   <g id="text_1">
    <!-- $r=c$ -->
    <g style="fill: #808080" transform="translate(60.588462 266.800601) scale(0.15 -0.15)">
     <defs>
      <path id="Cmmi10-72" d="M 494 109 
Q 494 147 500 166 
L 978 2075 
Q 1025 2253 1025 2388 
Q 1025 2663 838 2663 
Q 638 2663 541 2423 
Q 444 2184 353 1819 
Q 353 1800 334 1789 
Q 316 1778 300 1778 
L 225 1778 
Q 203 1778 187 1801 
Q 172 1825 172 1844 
Q 241 2122 305 2315 
Q 369 2509 505 2668 
Q 641 2828 844 2828 
Q 1066 2828 1233 2700 
Q 1400 2572 1441 2363 
Q 1603 2575 1811 2701 
Q 2019 2828 2266 2828 
Q 2469 2828 2623 2709 
Q 2778 2591 2778 2388 
Q 2778 2225 2676 2104 
Q 2575 1984 2406 1984 
Q 2303 1984 2233 2048 
Q 2163 2113 2163 2216 
Q 2163 2356 2266 2467 
Q 2369 2578 2503 2578 
Q 2400 2663 2253 2663 
Q 1978 2663 1775 2467 
Q 1572 2272 1409 1972 
L 953 141 
Q 931 53 854 -9 
Q 778 -72 684 -72 
Q 606 -72 550 -22 
Q 494 28 494 109 
z
" transform="scale(0.015625)"/>
      <path id="Cmr10-3d" d="M 481 850 
Q 428 850 393 890 
Q 359 931 359 978 
Q 359 1031 393 1068 
Q 428 1106 481 1106 
L 4500 1106 
Q 4547 1106 4581 1068 
Q 4616 1031 4616 978 
Q 4616 931 4581 890 
Q 4547 850 4500 850 
L 481 850 
z
M 481 2094 
Q 428 2094 393 2131 
Q 359 2169 359 2222 
Q 359 2269 393 2309 
Q 428 2350 481 2350 
L 4500 2350 
Q 4547 2350 4581 2309 
Q 4616 2269 4616 2222 
Q 4616 2169 4581 2131 
Q 4547 2094 4500 2094 
L 481 2094 
z
" transform="scale(0.015625)"/>
      <path id="Cmmi10-63" d="M 750 763 
Q 750 484 892 290 
Q 1034 97 1300 97 
Q 1681 97 2032 272 
Q 2384 447 2606 756 
Q 2625 775 2656 775 
Q 2688 775 2720 739 
Q 2753 703 2753 672 
Q 2753 647 2741 634 
Q 2506 306 2109 117 
Q 1713 -72 1288 -72 
Q 981 -72 747 73 
Q 513 219 384 462 
Q 256 706 256 1013 
Q 256 1444 497 1869 
Q 738 2294 1138 2561 
Q 1538 2828 1978 2828 
Q 2266 2828 2495 2689 
Q 2725 2550 2725 2278 
Q 2725 2103 2623 1979 
Q 2522 1856 2350 1856 
Q 2247 1856 2176 1920 
Q 2106 1984 2106 2088 
Q 2106 2238 2215 2344 
Q 2325 2450 2472 2450 
L 2484 2450 
Q 2409 2559 2267 2611 
Q 2125 2663 1972 2663 
Q 1597 2663 1315 2342 
Q 1034 2022 892 1576 
Q 750 1131 750 763 
z
" transform="scale(0.015625)"/>
     </defs>
     <use xlink:href="#Cmmi10-72" transform="translate(0 0.8125)"/>
     <use xlink:href="#Cmr10-3d" transform="translate(62.675781 0.8125)"/>
     <use xlink:href="#Cmmi10-63" transform="translate(157.919922 0.8125)"/>
    </g>
   </g>
   <g id="text_2">
    <!-- $r=d$ -->
    <g style="fill: #808080" transform="translate(145.661538 126.608293) scale(0.15 -0.15)">
     <defs>
      <path id="Cmmi10-64" d="M 1113 -72 
Q 709 -72 476 233 
Q 244 538 244 953 
Q 244 1363 456 1803 
Q 669 2244 1030 2536 
Q 1391 2828 1806 2828 
Q 1994 2828 2145 2723 
Q 2297 2619 2381 2444 
L 2741 3872 
Q 2766 3981 2772 4044 
Q 2772 4147 2356 4147 
Q 2291 4147 2291 4231 
Q 2294 4247 2305 4287 
Q 2316 4328 2333 4350 
Q 2350 4372 2381 4372 
L 3244 4441 
Q 3322 4441 3322 4359 
L 2400 678 
Q 2356 572 2356 372 
Q 2356 97 2541 97 
Q 2741 97 2845 351 
Q 2950 606 3022 941 
Q 3034 978 3072 978 
L 3150 978 
Q 3175 978 3190 956 
Q 3206 934 3206 916 
Q 3094 469 2961 198 
Q 2828 -72 2528 -72 
Q 2313 -72 2147 54 
Q 1981 181 1941 391 
Q 1528 -72 1113 -72 
z
M 1119 97 
Q 1350 97 1567 270 
Q 1784 444 1941 678 
Q 1947 684 1947 703 
L 2297 2113 
Q 2259 2338 2131 2500 
Q 2003 2663 1791 2663 
Q 1575 2663 1389 2486 
Q 1203 2309 1075 2069 
Q 950 1813 836 1366 
Q 722 919 722 672 
Q 722 450 817 273 
Q 913 97 1119 97 
z
" transform="scale(0.015625)"/>
     </defs>
     <use xlink:href="#Cmmi10-72" transform="translate(0 0.609375)"/>
     <use xlink:href="#Cmr10-3d" transform="translate(62.675781 0.609375)"/>
     <use xlink:href="#Cmmi10-64" transform="translate(157.919922 0.609375)"/>
    </g>
   </g>
   <g id="text_3">
    <!-- $\theta=h_1(r)$ -->
    <g style="fill: #0000ff" transform="translate(162.153846 283.238462) scale(0.2 -0.2)">
     <defs>
      <path id="Cmmi10-b5" d="M 1031 -72 
Q 741 -72 566 140 
Q 391 353 323 653 
Q 256 953 256 1247 
L 256 1253 
Q 256 1572 317 1915 
Q 378 2259 493 2601 
Q 609 2944 744 3213 
Q 838 3400 986 3631 
Q 1134 3863 1317 4064 
Q 1500 4266 1711 4389 
Q 1922 4513 2138 4513 
L 2144 4513 
Q 2375 4513 2529 4384 
Q 2684 4256 2770 4056 
Q 2856 3856 2890 3628 
Q 2925 3400 2925 3194 
Q 2925 2709 2794 2204 
Q 2663 1700 2431 1228 
Q 2344 1050 2189 809 
Q 2034 569 1861 378 
Q 1688 188 1472 58 
Q 1256 -72 1038 -72 
L 1031 -72 
z
M 1044 97 
Q 1256 97 1451 323 
Q 1647 550 1794 873 
Q 1941 1197 2052 1536 
Q 2163 1875 2216 2113 
L 909 2113 
Q 809 1709 753 1417 
Q 697 1125 697 844 
Q 697 97 1044 97 
z
M 959 2338 
L 2272 2338 
Q 2341 2619 2381 2808 
Q 2422 2997 2450 3206 
Q 2478 3416 2478 3597 
Q 2478 4347 2138 4347 
Q 1731 4347 1436 3692 
Q 1141 3038 959 2338 
z
" transform="scale(0.015625)"/>
      <path id="Cmmi10-68" d="M 341 116 
Q 341 153 347 172 
L 1275 3872 
Q 1300 3981 1306 4044 
Q 1306 4147 891 4147 
Q 825 4147 825 4231 
Q 828 4247 839 4287 
Q 850 4328 867 4350 
Q 884 4372 916 4372 
L 1778 4441 
L 1797 4441 
Q 1797 4434 1819 4423 
Q 1841 4413 1844 4409 
Q 1856 4378 1856 4359 
L 1356 2363 
Q 1750 2828 2291 2828 
Q 2516 2828 2680 2750 
Q 2844 2672 2936 2514 
Q 3028 2356 3028 2138 
Q 3028 1875 2911 1503 
Q 2794 1131 2619 672 
Q 2528 463 2528 288 
Q 2528 97 2675 97 
Q 2925 97 3092 364 
Q 3259 631 3328 941 
Q 3341 978 3378 978 
L 3456 978 
Q 3481 978 3497 961 
Q 3513 944 3513 922 
Q 3513 916 3506 903 
Q 3450 672 3339 448 
Q 3228 225 3059 76 
Q 2891 -72 2663 -72 
Q 2438 -72 2278 83 
Q 2119 238 2119 459 
Q 2119 578 2169 709 
Q 2350 1191 2470 1569 
Q 2591 1947 2591 2234 
Q 2591 2419 2519 2541 
Q 2447 2663 2278 2663 
Q 1934 2663 1678 2452 
Q 1422 2241 1234 1894 
L 800 147 
Q 775 50 703 -11 
Q 631 -72 538 -72 
Q 456 -72 398 -17 
Q 341 38 341 116 
z
" transform="scale(0.015625)"/>
      <path id="Cmr10-31" d="M 594 0 
L 594 225 
Q 1394 225 1394 428 
L 1394 3788 
Q 1063 3628 556 3628 
L 556 3853 
Q 1341 3853 1741 4263 
L 1831 4263 
Q 1853 4263 1873 4245 
Q 1894 4228 1894 4206 
L 1894 428 
Q 1894 225 2694 225 
L 2694 0 
L 594 0 
z
" transform="scale(0.015625)"/>
      <path id="Cmr10-28" d="M 1984 -1588 
Q 1628 -1306 1370 -942 
Q 1113 -578 948 -165 
Q 784 247 703 697 
Q 622 1147 622 1600 
Q 622 2059 703 2509 
Q 784 2959 951 3375 
Q 1119 3791 1378 4153 
Q 1638 4516 1984 4788 
Q 1984 4800 2016 4800 
L 2075 4800 
Q 2094 4800 2109 4783 
Q 2125 4766 2125 4744 
Q 2125 4716 2113 4703 
Q 1800 4397 1592 4047 
Q 1384 3697 1257 3301 
Q 1131 2906 1075 2482 
Q 1019 2059 1019 1600 
Q 1019 -434 2106 -1491 
Q 2125 -1509 2125 -1544 
Q 2125 -1559 2108 -1579 
Q 2091 -1600 2075 -1600 
L 2016 -1600 
Q 1984 -1600 1984 -1588 
z
" transform="scale(0.015625)"/>
      <path id="Cmr10-29" d="M 416 -1600 
Q 359 -1600 359 -1544 
Q 359 -1516 372 -1503 
Q 1466 -434 1466 1600 
Q 1466 3634 384 4691 
Q 359 4706 359 4744 
Q 359 4766 376 4783 
Q 394 4800 416 4800 
L 475 4800 
Q 494 4800 506 4788 
Q 966 4425 1272 3906 
Q 1578 3388 1720 2800 
Q 1863 2213 1863 1600 
Q 1863 1147 1786 708 
Q 1709 269 1542 -157 
Q 1375 -584 1119 -945 
Q 863 -1306 506 -1588 
Q 494 -1600 475 -1600 
L 416 -1600 
z
" transform="scale(0.015625)"/>
     </defs>
     <use xlink:href="#Cmmi10-b5"/>
     <use xlink:href="#Cmr10-3d" transform="translate(64.482422 0)"/>
     <use xlink:href="#Cmmi10-68" transform="translate(159.726562 0)"/>
     <use xlink:href="#Cmr10-31" transform="translate(217.34375 -17.00625) scale(0.7)"/>
     <use xlink:href="#Cmr10-28" transform="translate(258.721094 0)"/>
     <use xlink:href="#Cmmi10-72" transform="translate(297.539453 0)"/>
     <use xlink:href="#Cmr10-29" transform="translate(342.656641 0)"/>
    </g>
   </g>
   <g id="text_4">
    <!-- $\theta=h_2(r)$ -->
    <g style="fill: #ff0000" transform="translate(53.115385 88.526923) scale(0.2 -0.2)">
     <defs>
      <path id="Cmr10-32" d="M 319 0 
L 319 172 
Q 319 188 331 206 
L 1325 1306 
Q 1550 1550 1690 1715 
Q 1831 1881 1968 2097 
Q 2106 2313 2186 2536 
Q 2266 2759 2266 3009 
Q 2266 3272 2169 3511 
Q 2072 3750 1880 3894 
Q 1688 4038 1416 4038 
Q 1138 4038 916 3870 
Q 694 3703 603 3438 
Q 628 3444 672 3444 
Q 816 3444 917 3347 
Q 1019 3250 1019 3097 
Q 1019 2950 917 2848 
Q 816 2747 672 2747 
Q 522 2747 420 2851 
Q 319 2956 319 3097 
Q 319 3338 409 3548 
Q 500 3759 670 3923 
Q 841 4088 1055 4175 
Q 1269 4263 1509 4263 
Q 1875 4263 2190 4108 
Q 2506 3953 2690 3670 
Q 2875 3388 2875 3009 
Q 2875 2731 2753 2481 
Q 2631 2231 2440 2026 
Q 2250 1822 1953 1562 
Q 1656 1303 1563 1216 
L 838 519 
L 1453 519 
Q 1906 519 2211 526 
Q 2516 534 2534 550 
Q 2609 631 2688 1141 
L 2875 1141 
L 2694 0 
L 319 0 
z
" transform="scale(0.015625)"/>
     </defs>
     <use xlink:href="#Cmmi10-b5"/>
     <use xlink:href="#Cmr10-3d" transform="translate(64.482422 0)"/>
     <use xlink:href="#Cmmi10-68" transform="translate(159.726562 0)"/>
     <use xlink:href="#Cmr10-32" transform="translate(217.34375 -17.00625) scale(0.7)"/>
     <use xlink:href="#Cmr10-28" transform="translate(258.721094 0)"/>
     <use xlink:href="#Cmmi10-72" transform="translate(297.539453 0)"/>
     <use xlink:href="#Cmr10-29" transform="translate(342.656641 0)"/>
    </g>
   </g>
   <g id="line2d_8">
    <path d="M 62.607196 227.649833 
L 66.501706 220.580937 
L 69.948268 213.902412 
L 73.138408 207.207881 
L 75.734874 201.242078 
L 77.920824 195.712372 
L 79.85836 190.265982 
L 81.686432 184.44887 
L 83.089375 179.320174 
L 84.396598 173.725273 
L 85.393415 168.586098 
L 86.280862 162.830671 
L 86.865221 157.764193 
L 87.285351 152.429067 
L 87.514247 146.900902 
L 87.529632 140.805283 
L 87.321152 135.018606 
L 86.913139 129.350205 
L 86.214174 122.914745 
L 85.332111 116.832169 
L 84.248466 110.771469 
L 82.860138 104.228542 
L 82.261489 101.683647 
L 82.261489 101.683647 
" clip-path="url(#pba43a5ff6f)" style="fill: none; stroke: #ff0000; stroke-width: 3; stroke-linecap: square"/>
   </g>
   <g id="line2d_9">
    <path d="M 117.219889 291.544619 
L 121.951431 290.824731 
L 125.777934 290.037885 
L 129.698047 289.00014 
L 133.185412 287.845048 
L 136.353473 286.577225 
L 139.610694 285.026865 
L 142.829575 283.216399 
L 145.885365 281.208098 
L 148.641809 279.123918 
L 151.632851 276.532055 
L 154.45178 273.73266 
L 156.384478 271.587795 
L 158.950638 268.419279 
L 161.49504 264.866816 
L 163.795118 261.247792 
L 166.243872 256.896286 
L 168.283979 252.809901 
L 170.332681 248.208164 
L 172.464665 242.792845 
L 174.583328 236.662101 
L 176.204169 231.393332 
L 178.273944 223.882105 
L 180.875435 213.370139 
L 184.57535 198.34118 
L 186.099689 192.96086 
L 187.730554 187.960834 
L 189.262016 183.949357 
L 190.717158 180.677424 
L 192.462913 177.335845 
L 193.33247 175.873631 
L 193.33247 175.873631 
" clip-path="url(#pba43a5ff6f)" style="fill: none; stroke: #0000ff; stroke-width: 3; stroke-linecap: square"/>
   </g>
  </g>
 </g>
 <defs>
  <clipPath id="pba43a5ff6f">
   <rect x="7.2" y="7.2" width="324" height="324"/>
  </clipPath>
 </defs>
</svg>
