<?xml version="1.0" encoding="utf-8" standalone="no"?>
<!DOCTYPE svg PUBLIC "-//W3C//DTD SVG 1.1//EN"
  "http://www.w3.org/Graphics/SVG/1.1/DTD/svg11.dtd">
<svg xmlns:xlink="http://www.w3.org/1999/xlink" width="453.6pt" height="329.763805pt" viewBox="0 0 453.6 329.763805" xmlns="http://www.w3.org/2000/svg" version="1.1">
 <metadata>
  <rdf:RDF xmlns:dc="http://purl.org/dc/elements/1.1/" xmlns:cc="http://creativecommons.org/ns#" xmlns:rdf="http://www.w3.org/1999/02/22-rdf-syntax-ns#">
   <cc:Work>
    <dc:type rdf:resource="http://purl.org/dc/dcmitype/StillImage"/>
    <dc:date>2025-07-25T20:20:55.606157</dc:date>
    <dc:format>image/svg+xml</dc:format>
    <dc:creator>
     <cc:Agent>
      <dc:title>Matplotlib v3.10.3, https://matplotlib.org/</dc:title>
     </cc:Agent>
    </dc:creator>
   </cc:Work>
  </rdf:RDF>
 </metadata>
 <defs>
  <style type="text/css">*{stroke-linejoin: round; stroke-linecap: butt}</style>
 </defs>
 <g id="figure_1">
  <g id="patch_1">
   <path d="M 0 329.763805 
L 453.6 329.763805 
L 453.6 0 
L 0 0 
z
" style="fill: #ffffff"/>
  </g>
  <g id="axes_1">
   <g id="patch_2">
    <path d="M 7.2 322.563805 
L 446.4 322.563805 
L 446.4 7.2 
L 7.2 7.2 
z
" style="fill: #ffffff"/>
   </g>
   <g id="PathCollection_1">
    <path d="M 230.709942 134.534802 
C 231.436231 134.534802 232.13287 134.246245 232.646434 133.732681 
C 233.159997 133.219117 233.448555 132.522478 233.448555 131.796189 
C 233.448555 131.069901 233.159997 130.373261 232.646434 129.859698 
C 232.13287 129.346134 231.436231 129.057576 230.709942 129.057576 
C 229.983654 129.057576 229.287014 129.346134 228.773451 129.859698 
C 228.259887 130.373261 227.971329 131.069901 227.971329 131.796189 
C 227.971329 132.522478 228.259887 133.219117 228.773451 133.732681 
C 229.287014 134.246245 229.983654 134.534802 230.709942 134.534802 
z
" clip-path="url(#p02fcf0a05f)"/>
   </g>
   <g id="matplotlib.axis_1"/>
   <g id="matplotlib.axis_2"/>
   <g id="line2d_1">
    <path d="M 15.646154 316.499116 
L 15.725237 307.651577 
L 15.936937 301.116706 
L 16.413174 293.718101 
L 17.065308 287.50458 
L 17.953726 281.556282 
L 18.780168 277.263396 
L 20.170011 271.483586 
L 21.985444 265.490401 
L 23.428998 261.493762 
L 25.702555 256.090961 
L 27.713217 251.949963 
L 29.851863 248.017152 
L 32.361916 243.869513 
L 35.778288 238.835042 
L 38.404509 235.333668 
L 41.546712 231.474817 
L 45.385163 227.153701 
L 49.813393 222.596134 
L 53.699599 218.900853 
L 58.624324 214.550719 
L 63.485945 210.558172 
L 69.054504 206.289517 
L 75.6097 201.609546 
L 82.200269 197.216167 
L 89.255218 192.801863 
L 96.171231 188.719167 
L 103.293349 184.730818 
L 111.640988 180.295217 
L 119.585742 176.279923 
L 130.429771 171.075772 
L 142.215056 165.725908 
L 152.993785 161.067928 
L 166.745093 155.398904 
L 177.78359 151.036655 
L 194.300254 144.770429 
L 211.560466 138.496994 
L 229.955418 132.055868 
L 255.660348 123.368313 
L 290.155299 112.056893 
L 340.38624 95.624002 
L 361.265467 88.506639 
L 375.06192 83.58123 
L 387.028774 79.080075 
L 395.240756 75.81292 
L 404.502287 71.876222 
L 411.699286 68.550779 
L 416.896815 65.936728 
L 421.704438 63.286698 
L 425.611933 60.890272 
L 429.158049 58.422026 
L 431.601239 56.460174 
L 433.437799 54.752028 
L 434.951785 53.086372 
L 436.085106 51.560615 
L 436.807991 50.340936 
L 437.397582 49.023833 
L 437.750652 47.842483 
L 437.943439 46.465166 
L 437.909254 45.245185 
L 437.614194 43.818133 
L 437.12065 42.569007 
L 436.375808 41.286736 
L 435.452785 40.08832 
L 433.726286 38.367072 
L 431.8762 36.908564 
L 430.281152 35.83744 
L 427.489828 34.227 
L 424.622117 32.808025 
L 420.112198 30.892317 
L 415.733582 29.285173 
L 410.171369 27.491973 
L 403.462801 25.593832 
L 397.024201 23.97187 
L 389.690567 22.304583 
L 380.656866 20.454165 
L 369.147915 18.345657 
L 355.939806 16.187396 
L 340.56956 13.943437 
L 335.573829 13.264689 
L 335.573829 13.264689 
" clip-path="url(#p02fcf0a05f)" style="fill: none; stroke: #000000; stroke-width: 2; stroke-linecap: square"/>
   </g>
   <g id="patch_3">
    <path d="M 230.709942 131.796189 
Q 307.325719 105.444325 381.827004 79.819735 
" clip-path="url(#p02fcf0a05f)" style="fill: none; stroke: #800080; stroke-width: 2; stroke-linecap: round"/>
    <path d="M 370.744478 78.344065 
L 381.827004 79.819735 
L 373.996952 87.800355 
z
" clip-path="url(#p02fcf0a05f)" style="fill: #800080; stroke: #800080; stroke-width: 2; stroke-linecap: round"/>
   </g>
   <g id="patch_4">
    <path d="M 230.709942 131.796189 
Q 257.061807 208.411966 282.686396 282.913251 
" clip-path="url(#p02fcf0a05f)" style="fill: none; stroke: #ff0000; stroke-width: 2; stroke-linecap: round"/>
    <path d="M 284.162066 271.830725 
L 282.686396 282.913251 
L 274.705777 275.083199 
z
" clip-path="url(#p02fcf0a05f)" style="fill: #ff0000; stroke: #ff0000; stroke-width: 2; stroke-linecap: round"/>
   </g>
   <g id="patch_5">
    <path d="M 230.709942 131.796189 
Q 276.336591 116.102982 319.848749 101.13705 
" clip-path="url(#p02fcf0a05f)" style="fill: none; stroke: #0000ff; stroke-width: 2; stroke-linecap: round"/>
    <path d="M 308.766222 99.66138 
L 319.848749 101.13705 
L 312.018697 109.117669 
z
" clip-path="url(#p02fcf0a05f)" style="fill: #0000ff; stroke: #0000ff; stroke-width: 2; stroke-linecap: round"/>
   </g>
   <g id="patch_6">
    <path d="M 230.709942 131.796189 
Q 244.368556 171.507431 257.299894 209.104182 
" clip-path="url(#p02fcf0a05f)" style="fill: none; stroke: #ffa500; stroke-width: 2; stroke-linecap: round"/>
    <path d="M 258.775564 198.021656 
L 257.299894 209.104182 
L 249.319274 201.27413 
z
" clip-path="url(#p02fcf0a05f)" style="fill: #ffa500; stroke: #ffa500; stroke-width: 2; stroke-linecap: round"/>
   </g>
   <g id="patch_7">
    <path d="M 230.709942 131.796189 
Q 289.995204 155.814224 347.208013 178.992652 
" clip-path="url(#p02fcf0a05f)" style="fill: none; stroke: #008000; stroke-width: 2; stroke-linecap: round"/>
    <path d="M 339.817137 170.603675 
L 347.208013 178.992652 
L 336.062305 179.871967 
z
" clip-path="url(#p02fcf0a05f)" style="fill: #008000; stroke: #008000; stroke-width: 2; stroke-linecap: round"/>
   </g>
  </g>
 </g>
 <defs>
  <clipPath id="p02fcf0a05f">
   <rect x="7.2" y="7.2" width="439.2" height="315.363805"/>
  </clipPath>
 </defs>
</svg>
