<?xml version="1.0" encoding="utf-8" standalone="no"?>
<!DOCTYPE svg PUBLIC "-//W3C//DTD SVG 1.1//EN"
  "http://www.w3.org/Graphics/SVG/1.1/DTD/svg11.dtd">
<svg xmlns:xlink="http://www.w3.org/1999/xlink" width="325.687085pt" height="338.096672pt" viewBox="0 0 325.687085 338.096672" xmlns="http://www.w3.org/2000/svg" version="1.1">
 <metadata>
  <rdf:RDF xmlns:dc="http://purl.org/dc/elements/1.1/" xmlns:cc="http://creativecommons.org/ns#" xmlns:rdf="http://www.w3.org/1999/02/22-rdf-syntax-ns#">
   <cc:Work>
    <dc:type rdf:resource="http://purl.org/dc/dcmitype/StillImage"/>
    <dc:date>2025-09-11T16:27:36.247116</dc:date>
    <dc:format>image/svg+xml</dc:format>
    <dc:creator>
     <cc:Agent>
      <dc:title>Matplotlib v3.10.3, https://matplotlib.org/</dc:title>
     </cc:Agent>
    </dc:creator>
   </cc:Work>
  </rdf:RDF>
 </metadata>
 <defs>
  <style type="text/css">*{stroke-linejoin: round; stroke-linecap: butt}</style>
 </defs>
 <g id="figure_1">
  <g id="patch_1">
   <path d="M 0 338.096672 
L 325.687085 338.096672 
L 325.687085 0 
L 0 0 
z
" style="fill: #ffffff"/>
  </g>
  <g id="axes_1">
   <g id="patch_2">
    <path d="M 8.874112 319.920038 
L 305.347085 319.920038 
L 305.347085 23.4425 
L 8.874112 23.4425 
z
" style="fill: #ffffff"/>
   </g>
   <g id="patch_3">
    <path d="M 157.108388 314.218547 
L 166.058379 313.937283 
L 174.973048 313.094598 
L 183.817213 311.69382 
L 192.555971 309.740476 
L 201.154834 307.242276 
L 209.579866 304.209078 
L 217.797816 300.652853 
L 225.776253 296.587636 
L 233.483689 292.029471 
L 240.889707 286.996346 
L 247.965079 281.508126 
L 254.68188 275.586469 
L 261.013604 269.254745 
L 266.935261 262.537944 
L 272.423481 255.462573 
L 277.456606 248.056555 
L 282.014771 240.349118 
L 286.079988 232.370681 
L 289.636212 224.152731 
L 292.66941 215.727699 
L 295.167611 207.128837 
L 297.120955 198.390079 
L 298.521733 189.545913 
L 299.364417 180.631244 
L 299.645682 171.681253 
z
" clip-path="url(#pbc04d03fc1)" style="fill: #add8e6; stroke: #000000; stroke-width: 3; stroke-linejoin: miter"/>
   </g>
   <g id="matplotlib.axis_1">
    <g id="xtick_1">
     <g id="line2d_1">
      <defs>
       <path id="m2c05919254" d="M 0 0 
L 0 3.5 
" style="stroke: #000000; stroke-width: 0.8"/>
      </defs>
      <g>
       <use xlink:href="#m2c05919254" x="14.571094" y="314.218547" style="stroke: #000000; stroke-width: 0.8"/>
      </g>
     </g>
     <g id="text_1">
      <!-- −1 -->
      <g transform="translate(7.2 328.816985) scale(0.1 -0.1)">
       <defs>
        <path id="DejaVuSans-2212" d="M 678 2272 
L 4684 2272 
L 4684 1741 
L 678 1741 
L 678 2272 
z
" transform="scale(0.015625)"/>
        <path id="DejaVuSans-31" d="M 794 531 
L 1825 531 
L 1825 4091 
L 703 3866 
L 703 4441 
L 1819 4666 
L 2450 4666 
L 2450 531 
L 3481 531 
L 3481 0 
L 794 0 
L 794 531 
z
" transform="scale(0.015625)"/>
       </defs>
       <use xlink:href="#DejaVuSans-2212"/>
       <use xlink:href="#DejaVuSans-31" transform="translate(83.789062 0)"/>
      </g>
     </g>
    </g>
    <g id="xtick_2">
     <g id="line2d_2">
      <g>
       <use xlink:href="#m2c05919254" x="299.645682" y="314.218547" style="stroke: #000000; stroke-width: 0.8"/>
      </g>
     </g>
     <g id="text_2">
      <!-- 1 -->
      <g transform="translate(296.464432 328.816985) scale(0.1 -0.1)">
       <use xlink:href="#DejaVuSans-31"/>
      </g>
     </g>
    </g>
    <g id="text_3">
     <!-- $x$ -->
     <g transform="translate(313.347085 314.218547) scale(0.16 -0.16)">
      <defs>
       <path id="Cmmi10-78" d="M 500 184 
Q 613 97 819 97 
Q 1019 97 1172 289 
Q 1325 481 1381 709 
L 1672 1844 
Q 1741 2153 1741 2266 
Q 1741 2425 1652 2544 
Q 1563 2663 1403 2663 
Q 1200 2663 1022 2536 
Q 844 2409 722 2214 
Q 600 2019 550 1819 
Q 538 1778 500 1778 
L 422 1778 
Q 372 1778 372 1838 
L 372 1856 
Q 434 2094 584 2320 
Q 734 2547 951 2687 
Q 1169 2828 1416 2828 
Q 1650 2828 1839 2703 
Q 2028 2578 2106 2363 
Q 2216 2559 2386 2693 
Q 2556 2828 2759 2828 
Q 2897 2828 3040 2779 
Q 3184 2731 3275 2631 
Q 3366 2531 3366 2381 
Q 3366 2219 3261 2101 
Q 3156 1984 2994 1984 
Q 2891 1984 2822 2050 
Q 2753 2116 2753 2216 
Q 2753 2350 2845 2451 
Q 2938 2553 3066 2572 
Q 2950 2663 2747 2663 
Q 2541 2663 2389 2472 
Q 2238 2281 2175 2047 
L 1894 916 
Q 1825 659 1825 494 
Q 1825 331 1917 214 
Q 2009 97 2163 97 
Q 2463 97 2698 361 
Q 2934 625 3009 941 
Q 3022 978 3059 978 
L 3138 978 
Q 3163 978 3178 961 
Q 3194 944 3194 922 
Q 3194 916 3188 903 
Q 3097 522 2806 225 
Q 2516 -72 2150 -72 
Q 1916 -72 1727 54 
Q 1538 181 1459 397 
Q 1359 209 1182 68 
Q 1006 -72 806 -72 
Q 669 -72 523 -23 
Q 378 25 287 125 
Q 197 225 197 378 
Q 197 528 301 651 
Q 406 775 563 775 
Q 669 775 741 711 
Q 813 647 813 544 
Q 813 409 723 309 
Q 634 209 500 184 
z
" transform="scale(0.015625)"/>
      </defs>
      <use xlink:href="#Cmmi10-78" transform="translate(0 0.8125)"/>
     </g>
    </g>
   </g>
   <g id="matplotlib.axis_2">
    <g id="ytick_1">
     <g id="line2d_3">
      <defs>
       <path id="m7bdfe17c53" d="M 0 0 
L -3.5 0 
" style="stroke: #000000; stroke-width: 0.8"/>
      </defs>
      <g>
       <use xlink:href="#m7bdfe17c53" x="157.108388" y="314.218547" style="stroke: #000000; stroke-width: 0.8"/>
      </g>
     </g>
    </g>
    <g id="ytick_2">
     <g id="line2d_4">
      <g>
       <use xlink:href="#m7bdfe17c53" x="157.108388" y="171.681253" style="stroke: #000000; stroke-width: 0.8"/>
      </g>
     </g>
     <g id="text_4">
      <!-- 1 -->
      <g transform="translate(143.745888 175.480472) scale(0.1 -0.1)">
       <use xlink:href="#DejaVuSans-31"/>
      </g>
     </g>
    </g>
    <g id="ytick_3">
     <g id="line2d_5">
      <g>
       <use xlink:href="#m7bdfe17c53" x="157.108388" y="29.143959" style="stroke: #000000; stroke-width: 0.8"/>
      </g>
     </g>
     <g id="text_5">
      <!-- 2 -->
      <g transform="translate(143.745888 32.943178) scale(0.1 -0.1)">
       <defs>
        <path id="DejaVuSans-32" d="M 1228 531 
L 3431 531 
L 3431 0 
L 469 0 
L 469 531 
Q 828 903 1448 1529 
Q 2069 2156 2228 2338 
Q 2531 2678 2651 2914 
Q 2772 3150 2772 3378 
Q 2772 3750 2511 3984 
Q 2250 4219 1831 4219 
Q 1534 4219 1204 4116 
Q 875 4013 500 3803 
L 500 4441 
Q 881 4594 1212 4672 
Q 1544 4750 1819 4750 
Q 2544 4750 2975 4387 
Q 3406 4025 3406 3419 
Q 3406 3131 3298 2873 
Q 3191 2616 2906 2266 
Q 2828 2175 2409 1742 
Q 1991 1309 1228 531 
z
" transform="scale(0.015625)"/>
       </defs>
       <use xlink:href="#DejaVuSans-32"/>
      </g>
     </g>
    </g>
    <g id="text_6">
     <!-- $y$ -->
     <g transform="translate(153.108388 12.0825) scale(0.16 -0.16)">
      <defs>
       <path id="Cmmi10-79" d="M 538 -916 
Q 672 -1147 1006 -1147 
Q 1309 -1147 1531 -934 
Q 1753 -722 1889 -420 
Q 2025 -119 2100 197 
Q 1816 -72 1484 -72 
Q 1231 -72 1053 15 
Q 875 103 776 276 
Q 678 450 678 697 
Q 678 906 734 1126 
Q 791 1347 892 1617 
Q 994 1888 1069 2088 
Q 1153 2322 1153 2472 
Q 1153 2663 1013 2663 
Q 759 2663 595 2402 
Q 431 2141 353 1819 
Q 341 1778 300 1778 
L 225 1778 
Q 172 1778 172 1838 
L 172 1856 
Q 275 2238 487 2533 
Q 700 2828 1025 2828 
Q 1253 2828 1411 2678 
Q 1569 2528 1569 2297 
Q 1569 2178 1516 2047 
Q 1488 1969 1388 1706 
Q 1288 1444 1234 1272 
Q 1181 1100 1147 934 
Q 1113 769 1113 603 
Q 1113 391 1203 244 
Q 1294 97 1491 97 
Q 1888 97 2203 581 
L 2688 2553 
Q 2709 2638 2787 2698 
Q 2866 2759 2956 2759 
Q 3034 2759 3092 2709 
Q 3150 2659 3150 2578 
Q 3150 2541 3144 2528 
L 2509 -19 
Q 2425 -347 2200 -647 
Q 1975 -947 1658 -1130 
Q 1341 -1313 997 -1313 
Q 831 -1313 668 -1248 
Q 506 -1184 406 -1056 
Q 306 -928 306 -756 
Q 306 -581 409 -453 
Q 513 -325 684 -325 
Q 788 -325 858 -389 
Q 928 -453 928 -556 
Q 928 -703 818 -812 
Q 709 -922 563 -922 
Q 556 -919 550 -917 
Q 544 -916 538 -916 
z
" transform="scale(0.015625)"/>
      </defs>
      <use xlink:href="#Cmmi10-79" transform="translate(0 0.8125)"/>
     </g>
    </g>
   </g>
   <g id="line2d_6">
    <path d="M 299.645682 171.681253 
L 299.624131 169.202715 
L 299.450068 164.216252 
L 298.74886 155.717014 
L 298.212253 151.517441 
L 297.064356 144.677416 
L 295.316507 136.818722 
L 293.25332 129.474173 
L 291.809646 125.071691 
L 290.005145 120.151339 
L 288.512546 116.45601 
L 285.944308 110.704325 
L 281.954993 102.904764 
L 277.511925 95.393191 
L 272.840027 88.476278 
L 268.523307 82.779082 
L 264.025215 77.417409 
L 260.424172 73.483856 
L 254.242363 67.365046 
L 247.986399 61.872022 
L 242.359557 57.448516 
L 238.849073 54.910792 
L 234.364454 51.896527 
L 230.196194 49.308655 
L 221.46495 44.499835 
L 216.398538 42.060428 
L 212.199435 40.220777 
L 204.527339 37.26279 
L 197.951051 35.120801 
L 192.164888 33.522207 
L 187.291278 32.376288 
L 182.8818 31.493481 
L 177.785164 30.651642 
L 168.743681 29.619646 
L 164.755356 29.349233 
L 157.203924 29.143991 
L 151.655865 29.248286 
L 145.083819 29.652066 
L 141.609405 29.989116 
L 135.099504 30.853382 
L 128.793762 31.984574 
L 125.428027 32.709188 
L 120.119479 34.026973 
L 112.693673 36.240442 
L 106.639854 38.377813 
L 100.831693 40.723956 
L 94.520701 43.62009 
L 86.968084 47.595726 
L 83.537628 49.598398 
L 79.193544 52.323985 
L 75.900986 54.539297 
L 71.522698 57.69893 
L 65.21936 62.716641 
L 61.501382 65.963796 
L 57.649853 69.578951 
L 52.466793 74.897903 
L 48.581017 79.27622 
L 43.96258 84.992694 
L 39.382915 91.322101 
L 36.044054 96.44624 
L 32.330404 102.780346 
L 28.982555 109.22606 
L 26.608439 114.351997 
L 24.010519 120.673042 
L 21.738015 127.052314 
L 19.939351 132.9316 
L 18.224425 139.616865 
L 17.505109 142.909657 
L 16.239029 149.939499 
L 15.483557 155.578844 
L 15.092446 159.50125 
L 14.693807 165.767941 
L 14.575515 170.558556 
L 14.612974 175.136274 
L 14.761464 179.045586 
L 15.345964 186.5236 
L 16.518046 195.159667 
L 17.971833 202.631203 
L 18.535623 205.064919 
L 20.839749 213.487213 
L 22.896553 219.681916 
L 24.21087 223.209205 
L 26.648209 229.100953 
L 29.94201 236.067529 
L 32.548886 240.976353 
L 36.992565 248.421526 
L 41.011191 254.375395 
L 45.493561 260.332315 
L 51.674929 267.601355 
L 55.588603 271.734307 
L 61.452483 277.354467 
L 67.71014 282.69852 
L 74.557485 287.880344 
L 79.232092 291.063676 
L 86.565 295.538068 
L 90.795352 297.853602 
L 96.718282 300.79328 
L 101.972034 303.122734 
L 105.86382 304.6883 
L 113.566789 307.405273 
L 119.814068 309.253103 
L 127.13867 311.032235 
L 133.510444 312.251582 
L 142.656379 313.484002 
L 146.085424 313.791684 
L 151.989149 314.126589 
L 156.279948 314.21614 
L 164.705599 314.015938 
L 169.714771 313.659982 
L 175.021821 313.088428 
L 182.381389 311.960103 
L 189.125739 310.576068 
L 192.957541 309.636748 
L 196.926323 308.544003 
L 202.817029 306.690884 
L 209.954135 304.060282 
L 214.387435 302.203247 
L 219.473057 299.851173 
L 225.020953 296.999902 
L 228.092002 295.286296 
L 232.131445 292.87705 
L 235.967152 290.416992 
L 242.941106 285.477671 
L 247.33422 282.02698 
L 250.371575 279.47206 
L 257.301915 273.062402 
L 260.657907 269.632145 
L 263.624833 266.397287 
L 266.761166 262.747978 
L 269.469073 259.385054 
L 272.897561 254.806144 
L 275.625767 250.867812 
L 278.295677 246.718052 
L 282.155551 240.092417 
L 284.029549 236.549573 
L 285.988253 232.565245 
L 287.811665 228.545421 
L 290.690096 221.408585 
L 292.965709 214.805128 
L 295.143302 207.22338 
L 296.809946 199.971795 
L 297.82374 194.398424 
L 298.477315 189.89407 
L 299.232694 182.523852 
L 299.605979 175.045289 
L 299.645682 171.681253 
L 299.645682 171.681253 
" clip-path="url(#pbc04d03fc1)" style="fill: none; stroke: #000000; stroke-width: 2; stroke-linecap: square"/>
   </g>
   <g id="patch_4">
    <path d="M 157.108388 319.920038 
L 157.108388 23.4425 
" style="fill: none; stroke: #000000; stroke-width: 0.8; stroke-linejoin: miter; stroke-linecap: square"/>
   </g>
   <g id="patch_5">
    <path d="M 8.874112 314.218547 
L 305.347085 314.218547 
" style="fill: none; stroke: #000000; stroke-width: 0.8; stroke-linejoin: miter; stroke-linecap: square"/>
   </g>
  </g>
 </g>
 <defs>
  <clipPath id="pbc04d03fc1">
   <rect x="8.874112" y="23.4425" width="296.472973" height="296.477538"/>
  </clipPath>
 </defs>
</svg>
