<?xml version="1.0" encoding="utf-8" standalone="no"?>
<!DOCTYPE svg PUBLIC "-//W3C//DTD SVG 1.1//EN"
  "http://www.w3.org/Graphics/SVG/1.1/DTD/svg11.dtd">
<svg xmlns:xlink="http://www.w3.org/1999/xlink" width="338.4pt" height="338.4pt" viewBox="0 0 338.4 338.4" xmlns="http://www.w3.org/2000/svg" version="1.1">
 <metadata>
  <rdf:RDF xmlns:dc="http://purl.org/dc/elements/1.1/" xmlns:cc="http://creativecommons.org/ns#" xmlns:rdf="http://www.w3.org/1999/02/22-rdf-syntax-ns#">
   <cc:Work>
    <dc:type rdf:resource="http://purl.org/dc/dcmitype/StillImage"/>
    <dc:date>2026-01-14T23:10:12.991010</dc:date>
    <dc:format>image/svg+xml</dc:format>
    <dc:creator>
     <cc:Agent>
      <dc:title>Matplotlib v3.10.5, https://matplotlib.org/</dc:title>
     </cc:Agent>
    </dc:creator>
   </cc:Work>
  </rdf:RDF>
 </metadata>
 <defs>
  <style type="text/css">*{stroke-linejoin: round; stroke-linecap: butt}</style>
 </defs>
 <g id="figure_1">
  <g id="patch_1">
   <path d="M -0 338.4 
L 338.4 338.4 
L 338.4 0 
L -0 0 
z
" style="fill: #ffffff"/>
  </g>
  <g id="axes_1">
   <g id="patch_2">
    <path d="M 7.2 331.2 
L 331.2 331.2 
L 331.2 7.2 
L 7.2 7.2 
z
" style="fill: #ffffff"/>
   </g>
   <g id="PathCollection_1">
    <path d="M 91.315385 247.084615 
C 91.315385 247.084615 91.315385 247.084615 91.315385 247.084615 
C 91.315385 247.084615 91.315385 247.084615 91.315385 247.084615 
C 91.315385 247.084615 91.315385 247.084615 91.315385 247.084615 
C 91.315385 247.084615 91.315385 247.084615 91.315385 247.084615 
C 91.315385 247.084615 91.315385 247.084615 91.315385 247.084615 
C 91.315385 247.084615 91.315385 247.084615 91.315385 247.084615 
C 91.315385 247.084615 91.315385 247.084615 91.315385 247.084615 
C 91.315385 247.084615 91.315385 247.084615 91.315385 247.084615 
z
" clip-path="url(#p8d6a2ac126)" style="fill: #0000ff"/>
   </g>
   <g id="PathCollection_2">
    <path d="M 130.257692 197.397606 
C 130.850704 197.397606 131.419508 197.162 131.838831 196.742677 
C 132.258154 196.323354 132.49376 195.754551 132.49376 195.161538 
C 132.49376 194.568526 132.258154 193.999723 131.838831 193.5804 
C 131.419508 193.161077 130.850704 192.92547 130.257692 192.92547 
C 129.66468 192.92547 129.095876 193.161077 128.676553 193.5804 
C 128.257231 193.999723 128.021624 194.568526 128.021624 195.161538 
C 128.021624 195.754551 128.257231 196.323354 128.676553 196.742677 
C 129.095876 197.162 129.66468 197.397606 130.257692 197.397606 
z
" clip-path="url(#p8d6a2ac126)"/>
   </g>
   <g id="PathCollection_3">
    <path d="M 208.142308 93.551453 
C 208.73532 93.551453 209.304124 93.315846 209.723447 92.896523 
C 210.142769 92.477201 210.378376 91.908397 210.378376 91.315385 
C 210.378376 90.722372 210.142769 90.153569 209.723447 89.734246 
C 209.304124 89.314923 208.73532 89.079317 208.142308 89.079317 
C 207.549296 89.079317 206.980492 89.314923 206.561169 89.734246 
C 206.141846 90.153569 205.90624 90.722372 205.90624 91.315385 
C 205.90624 91.908397 206.141846 92.477201 206.561169 92.896523 
C 206.980492 93.315846 207.549296 93.551453 208.142308 93.551453 
z
" clip-path="url(#p8d6a2ac126)"/>
   </g>
   <g id="PathCollection_4">
    <path d="M 286.026923 41.628376 
C 286.619935 41.628376 287.188739 41.392769 287.608062 40.973447 
C 288.027385 40.554124 288.262991 39.98532 288.262991 39.392308 
C 288.262991 38.799296 288.027385 38.230492 287.608062 37.811169 
C 287.188739 37.391846 286.619935 37.15624 286.026923 37.15624 
C 285.433911 37.15624 284.865107 37.391846 284.445784 37.811169 
C 284.026461 38.230492 283.790855 38.799296 283.790855 39.392308 
C 283.790855 39.98532 284.026461 40.554124 284.445784 40.973447 
C 284.865107 41.392769 285.433911 41.628376 286.026923 41.628376 
z
" clip-path="url(#p8d6a2ac126)"/>
   </g>
   <g id="matplotlib.axis_1">
    <g id="xtick_1">
     <g id="line2d_1">
      <path d="M 13.430769 331.2 
L 13.430769 7.2 
" clip-path="url(#p8d6a2ac126)" style="fill: none; stroke-dasharray: 0.5,0.825; stroke-dashoffset: 0; stroke: #000000; stroke-width: 0.5"/>
     </g>
     <g id="line2d_2">
      <defs>
       <path id="me25106841f" d="M 0 0 
L 0 3.5 
" style="stroke: #000000; stroke-width: 0.8"/>
      </defs>
      <g>
       <use xlink:href="#me25106841f" x="13.430769" y="247.084615" style="stroke: #000000; stroke-width: 0.8"/>
      </g>
     </g>
    </g>
    <g id="xtick_2">
     <g id="line2d_3">
      <path d="M 91.315385 331.2 
L 91.315385 7.2 
" clip-path="url(#p8d6a2ac126)" style="fill: none; stroke-dasharray: 0.5,0.825; stroke-dashoffset: 0; stroke: #000000; stroke-width: 0.5"/>
     </g>
     <g id="line2d_4">
      <g>
       <use xlink:href="#me25106841f" x="91.315385" y="247.084615" style="stroke: #000000; stroke-width: 0.8"/>
      </g>
     </g>
    </g>
    <g id="xtick_3">
     <g id="line2d_5">
      <path d="M 169.2 331.2 
L 169.2 7.2 
" clip-path="url(#p8d6a2ac126)" style="fill: none; stroke-dasharray: 0.5,0.825; stroke-dashoffset: 0; stroke: #000000; stroke-width: 0.5"/>
     </g>
     <g id="line2d_6">
      <g>
       <use xlink:href="#me25106841f" x="169.2" y="247.084615" style="stroke: #000000; stroke-width: 0.8"/>
      </g>
     </g>
    </g>
    <g id="xtick_4">
     <g id="line2d_7">
      <path d="M 247.084615 331.2 
L 247.084615 7.2 
" clip-path="url(#p8d6a2ac126)" style="fill: none; stroke-dasharray: 0.5,0.825; stroke-dashoffset: 0; stroke: #000000; stroke-width: 0.5"/>
     </g>
     <g id="line2d_8">
      <g>
       <use xlink:href="#me25106841f" x="247.084615" y="247.084615" style="stroke: #000000; stroke-width: 0.8"/>
      </g>
     </g>
    </g>
    <g id="xtick_5">
     <g id="line2d_9">
      <path d="M 324.969231 331.2 
L 324.969231 7.2 
" clip-path="url(#p8d6a2ac126)" style="fill: none; stroke-dasharray: 0.5,0.825; stroke-dashoffset: 0; stroke: #000000; stroke-width: 0.5"/>
     </g>
     <g id="line2d_10">
      <g>
       <use xlink:href="#me25106841f" x="324.969231" y="247.084615" style="stroke: #000000; stroke-width: 0.8"/>
      </g>
     </g>
    </g>
   </g>
   <g id="matplotlib.axis_2">
    <g id="ytick_1">
     <g id="line2d_11">
      <path d="M 7.2 324.969231 
L 331.2 324.969231 
" clip-path="url(#p8d6a2ac126)" style="fill: none; stroke-dasharray: 0.5,0.825; stroke-dashoffset: 0; stroke: #000000; stroke-width: 0.5"/>
     </g>
     <g id="line2d_12">
      <defs>
       <path id="m1f2e355ee4" d="M 0 0 
L -3.5 0 
" style="stroke: #000000; stroke-width: 0.8"/>
      </defs>
      <g>
       <use xlink:href="#m1f2e355ee4" x="91.315385" y="324.969231" style="stroke: #000000; stroke-width: 0.8"/>
      </g>
     </g>
    </g>
    <g id="ytick_2">
     <g id="line2d_13">
      <path d="M 7.2 247.084615 
L 331.2 247.084615 
" clip-path="url(#p8d6a2ac126)" style="fill: none; stroke-dasharray: 0.5,0.825; stroke-dashoffset: 0; stroke: #000000; stroke-width: 0.5"/>
     </g>
     <g id="line2d_14">
      <g>
       <use xlink:href="#m1f2e355ee4" x="91.315385" y="247.084615" style="stroke: #000000; stroke-width: 0.8"/>
      </g>
     </g>
    </g>
    <g id="ytick_3">
     <g id="line2d_15">
      <path d="M 7.2 169.2 
L 331.2 169.2 
" clip-path="url(#p8d6a2ac126)" style="fill: none; stroke-dasharray: 0.5,0.825; stroke-dashoffset: 0; stroke: #000000; stroke-width: 0.5"/>
     </g>
     <g id="line2d_16">
      <g>
       <use xlink:href="#m1f2e355ee4" x="91.315385" y="169.2" style="stroke: #000000; stroke-width: 0.8"/>
      </g>
     </g>
    </g>
    <g id="ytick_4">
     <g id="line2d_17">
      <path d="M 7.2 91.315385 
L 331.2 91.315385 
" clip-path="url(#p8d6a2ac126)" style="fill: none; stroke-dasharray: 0.5,0.825; stroke-dashoffset: 0; stroke: #000000; stroke-width: 0.5"/>
     </g>
     <g id="line2d_18">
      <g>
       <use xlink:href="#m1f2e355ee4" x="91.315385" y="91.315385" style="stroke: #000000; stroke-width: 0.8"/>
      </g>
     </g>
    </g>
    <g id="ytick_5">
     <g id="line2d_19">
      <path d="M 7.2 13.430769 
L 331.2 13.430769 
" clip-path="url(#p8d6a2ac126)" style="fill: none; stroke-dasharray: 0.5,0.825; stroke-dashoffset: 0; stroke: #000000; stroke-width: 0.5"/>
     </g>
     <g id="line2d_20">
      <g>
       <use xlink:href="#m1f2e355ee4" x="91.315385" y="13.430769" style="stroke: #000000; stroke-width: 0.8"/>
      </g>
     </g>
    </g>
   </g>
   <g id="line2d_21">
    <path d="M 106.892308 236.440385 
L 114.393192 222.679532 
L 122.069932 209.094723 
L 127.785367 199.308242 
L 135.441727 186.636498 
L 142.604012 175.236721 
L 150.086614 163.796108 
L 156.590765 154.240853 
L 163.779945 144.100545 
L 170.627614 134.853314 
L 177.33901 126.179575 
L 183.568172 118.474063 
L 189.083702 111.928557 
L 195.28763 104.877275 
L 201.29019 98.368447 
L 207.128082 92.334013 
L 213.578372 86.005793 
L 219.10906 80.863366 
L 225.005249 75.669452 
L 229.751537 71.704662 
L 236.417933 66.461535 
L 241.100675 63.006006 
L 246.548682 59.22198 
L 252.408807 55.435321 
L 258.1914 51.986902 
L 263.943846 48.840448 
L 268.936221 46.339315 
L 274.559149 43.777739 
L 279.531775 41.73791 
L 284.817829 39.801596 
L 290.274639 38.053624 
L 295.525167 36.612339 
L 300.478598 35.46893 
L 305.890303 34.459807 
L 309.392308 33.940385 
L 309.392308 33.940385 
" clip-path="url(#p8d6a2ac126)" style="fill: none; stroke: #0000ff; stroke-width: 2; stroke-linecap: square"/>
   </g>
   <g id="patch_3">
    <path d="M 91.315385 331.2 
L 91.315385 7.2 
" style="fill: none; stroke: #000000; stroke-width: 0.8; stroke-linejoin: miter; stroke-linecap: square"/>
   </g>
   <g id="patch_4">
    <path d="M 7.2 247.084615 
L 331.2 247.084615 
" style="fill: none; stroke: #000000; stroke-width: 0.8; stroke-linejoin: miter; stroke-linecap: square"/>
   </g>
   <g id="line2d_22">
    <path d="M 110.786538 227.613462 
L 149.728846 162.709615 
L 149.728846 162.709615 
" clip-path="url(#p8d6a2ac126)" style="fill: none; stroke: #ff0000; stroke-width: 2; stroke-linecap: square"/>
   </g>
   <g id="line2d_23">
    <path d="M 188.671154 110.786538 
L 227.613462 71.844231 
L 227.613462 71.844231 
" clip-path="url(#p8d6a2ac126)" style="fill: none; stroke: #ff0000; stroke-width: 2; stroke-linecap: square"/>
   </g>
   <g id="line2d_24">
    <path d="M 266.555769 45.882692 
L 305.498077 32.901923 
L 305.498077 32.901923 
" clip-path="url(#p8d6a2ac126)" style="fill: none; stroke: #ff0000; stroke-width: 2; stroke-linecap: square"/>
   </g>
  </g>
 </g>
 <defs>
  <clipPath id="p8d6a2ac126">
   <rect x="7.2" y="7.2" width="324" height="324"/>
  </clipPath>
 </defs>
</svg>
