<?xml version="1.0" encoding="utf-8" standalone="no"?>
<!DOCTYPE svg PUBLIC "-//W3C//DTD SVG 1.1//EN"
  "http://www.w3.org/Graphics/SVG/1.1/DTD/svg11.dtd">
<svg xmlns:xlink="http://www.w3.org/1999/xlink" width="325.687418pt" height="338.096672pt" viewBox="0 0 325.687418 338.096672" xmlns="http://www.w3.org/2000/svg" version="1.1">
 <metadata>
  <rdf:RDF xmlns:dc="http://purl.org/dc/elements/1.1/" xmlns:cc="http://creativecommons.org/ns#" xmlns:rdf="http://www.w3.org/1999/02/22-rdf-syntax-ns#">
   <cc:Work>
    <dc:type rdf:resource="http://purl.org/dc/dcmitype/StillImage"/>
    <dc:date>2025-11-05T14:55:55.994646</dc:date>
    <dc:format>image/svg+xml</dc:format>
    <dc:creator>
     <cc:Agent>
      <dc:title>Matplotlib v3.10.3, https://matplotlib.org/</dc:title>
     </cc:Agent>
    </dc:creator>
   </cc:Work>
  </rdf:RDF>
 </metadata>
 <defs>
  <style type="text/css">*{stroke-linejoin: round; stroke-linecap: butt}</style>
 </defs>
 <g id="figure_1">
  <g id="patch_1">
   <path d="M 0 338.096672 
L 325.687418 338.096672 
L 325.687418 0 
L 0 0 
z
" style="fill: #ffffff"/>
  </g>
  <g id="axes_1">
   <g id="patch_2">
    <path d="M 8.870006 319.920038 
L 305.347418 319.920038 
L 305.347418 23.4425 
L 8.870006 23.4425 
z
" style="fill: #ffffff"/>
   </g>
   <g id="patch_3">
    <path d="M 157.108511 314.218547 
L 166.05851 313.937282 
L 174.973187 313.094597 
L 183.81736 311.693818 
L 192.556126 309.740472 
L 201.154996 307.24227 
L 209.580035 304.209069 
L 217.797992 300.652841 
L 225.776436 296.587621 
L 233.483879 292.029452 
L 240.889904 286.996323 
L 247.965281 281.508098 
L 254.682088 275.586435 
L 261.013817 269.254706 
L 266.935479 262.537899 
L 272.423705 255.462522 
L 277.456834 248.056497 
L 282.015003 240.349054 
L 286.080223 232.37061 
L 289.636451 224.152653 
L 292.669651 215.727614 
L 295.167854 207.128744 
L 297.1212 198.389978 
L 298.521979 189.545805 
L 299.364664 180.631128 
L 299.645929 171.68113 
z
" clip-path="url(#p6460b91896)" style="fill: #add8e6; stroke: #000000; stroke-width: 3; stroke-linejoin: miter"/>
   </g>
   <g id="matplotlib.axis_1">
    <g id="xtick_1">
     <g id="line2d_1">
      <defs>
       <path id="mc3a4f7fa25" d="M 0 0 
L 0 3.5 
" style="stroke: #000000; stroke-width: 0.8"/>
      </defs>
      <g>
       <use xlink:href="#mc3a4f7fa25" x="14.571094" y="314.218547" style="stroke: #000000; stroke-width: 0.8"/>
      </g>
     </g>
     <g id="text_1">
      <!-- −1 -->
      <g transform="translate(7.2 328.816985) scale(0.1 -0.1)">
       <defs>
        <path id="DejaVuSans-2212" d="M 678 2272 
L 4684 2272 
L 4684 1741 
L 678 1741 
L 678 2272 
z
" transform="scale(0.015625)"/>
        <path id="DejaVuSans-31" d="M 794 531 
L 1825 531 
L 1825 4091 
L 703 3866 
L 703 4441 
L 1819 4666 
L 2450 4666 
L 2450 531 
L 3481 531 
L 3481 0 
L 794 0 
L 794 531 
z
" transform="scale(0.015625)"/>
       </defs>
       <use xlink:href="#DejaVuSans-2212"/>
       <use xlink:href="#DejaVuSans-31" transform="translate(83.789062 0)"/>
      </g>
     </g>
    </g>
    <g id="xtick_2">
     <g id="line2d_2">
      <g>
       <use xlink:href="#mc3a4f7fa25" x="299.645929" y="314.218547" style="stroke: #000000; stroke-width: 0.8"/>
      </g>
     </g>
     <g id="text_2">
      <!-- 1 -->
      <g transform="translate(296.464679 328.816985) scale(0.1 -0.1)">
       <use xlink:href="#DejaVuSans-31"/>
      </g>
     </g>
    </g>
    <g id="text_3">
     <!-- $x$ -->
     <g transform="translate(313.347418 314.218547) scale(0.16 -0.16)">
      <defs>
       <path id="Cmmi10-78" d="M 500 184 
Q 613 97 819 97 
Q 1019 97 1172 289 
Q 1325 481 1381 709 
L 1672 1844 
Q 1741 2153 1741 2266 
Q 1741 2425 1652 2544 
Q 1563 2663 1403 2663 
Q 1200 2663 1022 2536 
Q 844 2409 722 2214 
Q 600 2019 550 1819 
Q 538 1778 500 1778 
L 422 1778 
Q 372 1778 372 1838 
L 372 1856 
Q 434 2094 584 2320 
Q 734 2547 951 2687 
Q 1169 2828 1416 2828 
Q 1650 2828 1839 2703 
Q 2028 2578 2106 2363 
Q 2216 2559 2386 2693 
Q 2556 2828 2759 2828 
Q 2897 2828 3040 2779 
Q 3184 2731 3275 2631 
Q 3366 2531 3366 2381 
Q 3366 2219 3261 2101 
Q 3156 1984 2994 1984 
Q 2891 1984 2822 2050 
Q 2753 2116 2753 2216 
Q 2753 2350 2845 2451 
Q 2938 2553 3066 2572 
Q 2950 2663 2747 2663 
Q 2541 2663 2389 2472 
Q 2238 2281 2175 2047 
L 1894 916 
Q 1825 659 1825 494 
Q 1825 331 1917 214 
Q 2009 97 2163 97 
Q 2463 97 2698 361 
Q 2934 625 3009 941 
Q 3022 978 3059 978 
L 3138 978 
Q 3163 978 3178 961 
Q 3194 944 3194 922 
Q 3194 916 3188 903 
Q 3097 522 2806 225 
Q 2516 -72 2150 -72 
Q 1916 -72 1727 54 
Q 1538 181 1459 397 
Q 1359 209 1182 68 
Q 1006 -72 806 -72 
Q 669 -72 523 -23 
Q 378 25 287 125 
Q 197 225 197 378 
Q 197 528 301 651 
Q 406 775 563 775 
Q 669 775 741 711 
Q 813 647 813 544 
Q 813 409 723 309 
Q 634 209 500 184 
z
" transform="scale(0.015625)"/>
      </defs>
      <use xlink:href="#Cmmi10-78" transform="translate(0 0.8125)"/>
     </g>
    </g>
   </g>
   <g id="matplotlib.axis_2">
    <g id="ytick_1">
     <g id="line2d_3">
      <defs>
       <path id="ma51b3b61ec" d="M 0 0 
L -3.5 0 
" style="stroke: #000000; stroke-width: 0.8"/>
      </defs>
      <g>
       <use xlink:href="#ma51b3b61ec" x="157.108511" y="314.218547" style="stroke: #000000; stroke-width: 0.8"/>
      </g>
     </g>
    </g>
    <g id="ytick_2">
     <g id="line2d_4">
      <g>
       <use xlink:href="#ma51b3b61ec" x="157.108511" y="171.68113" style="stroke: #000000; stroke-width: 0.8"/>
      </g>
     </g>
     <g id="text_4">
      <!-- 1 -->
      <g transform="translate(143.746011 175.480348) scale(0.1 -0.1)">
       <use xlink:href="#DejaVuSans-31"/>
      </g>
     </g>
    </g>
    <g id="ytick_3">
     <g id="line2d_5">
      <g>
       <use xlink:href="#ma51b3b61ec" x="157.108511" y="29.143712" style="stroke: #000000; stroke-width: 0.8"/>
      </g>
     </g>
     <g id="text_5">
      <!-- 2 -->
      <g transform="translate(143.746011 32.942931) scale(0.1 -0.1)">
       <defs>
        <path id="DejaVuSans-32" d="M 1228 531 
L 3431 531 
L 3431 0 
L 469 0 
L 469 531 
Q 828 903 1448 1529 
Q 2069 2156 2228 2338 
Q 2531 2678 2651 2914 
Q 2772 3150 2772 3378 
Q 2772 3750 2511 3984 
Q 2250 4219 1831 4219 
Q 1534 4219 1204 4116 
Q 875 4013 500 3803 
L 500 4441 
Q 881 4594 1212 4672 
Q 1544 4750 1819 4750 
Q 2544 4750 2975 4387 
Q 3406 4025 3406 3419 
Q 3406 3131 3298 2873 
Q 3191 2616 2906 2266 
Q 2828 2175 2409 1742 
Q 1991 1309 1228 531 
z
" transform="scale(0.015625)"/>
       </defs>
       <use xlink:href="#DejaVuSans-32"/>
      </g>
     </g>
    </g>
    <g id="text_6">
     <!-- $y$ -->
     <g transform="translate(153.108511 12.0825) scale(0.16 -0.16)">
      <defs>
       <path id="Cmmi10-79" d="M 538 -916 
Q 672 -1147 1006 -1147 
Q 1309 -1147 1531 -934 
Q 1753 -722 1889 -420 
Q 2025 -119 2100 197 
Q 1816 -72 1484 -72 
Q 1231 -72 1053 15 
Q 875 103 776 276 
Q 678 450 678 697 
Q 678 906 734 1126 
Q 791 1347 892 1617 
Q 994 1888 1069 2088 
Q 1153 2322 1153 2472 
Q 1153 2663 1013 2663 
Q 759 2663 595 2402 
Q 431 2141 353 1819 
Q 341 1778 300 1778 
L 225 1778 
Q 172 1778 172 1838 
L 172 1856 
Q 275 2238 487 2533 
Q 700 2828 1025 2828 
Q 1253 2828 1411 2678 
Q 1569 2528 1569 2297 
Q 1569 2178 1516 2047 
Q 1488 1969 1388 1706 
Q 1288 1444 1234 1272 
Q 1181 1100 1147 934 
Q 1113 769 1113 603 
Q 1113 391 1203 244 
Q 1294 97 1491 97 
Q 1888 97 2203 581 
L 2688 2553 
Q 2709 2638 2787 2698 
Q 2866 2759 2956 2759 
Q 3034 2759 3092 2709 
Q 3150 2659 3150 2578 
Q 3150 2541 3144 2528 
L 2509 -19 
Q 2425 -347 2200 -647 
Q 1975 -947 1658 -1130 
Q 1341 -1313 997 -1313 
Q 831 -1313 668 -1248 
Q 506 -1184 406 -1056 
Q 306 -928 306 -756 
Q 306 -581 409 -453 
Q 513 -325 684 -325 
Q 788 -325 858 -389 
Q 928 -453 928 -556 
Q 928 -703 818 -812 
Q 709 -922 563 -922 
Q 556 -919 550 -917 
Q 544 -916 538 -916 
z
" transform="scale(0.015625)"/>
      </defs>
      <use xlink:href="#Cmmi10-79" transform="translate(0 0.8125)"/>
     </g>
    </g>
   </g>
   <g id="line2d_6">
    <path d="M 299.645929 171.68113 
L 299.352319 162.537025 
L 299.029842 158.442871 
L 298.494921 153.60356 
L 297.38812 146.411645 
L 296.461517 141.720235 
L 295.063119 135.828074 
L 292.79019 128.007368 
L 291.634399 124.567427 
L 288.613503 116.696108 
L 284.821509 108.385744 
L 281.159587 101.479662 
L 277.961382 96.106669 
L 274.771197 91.229854 
L 271.7845 87.026932 
L 269.002786 83.382846 
L 264.074313 77.472676 
L 260.759787 73.837742 
L 255.152071 68.219175 
L 248.641187 62.416841 
L 241.727836 56.979406 
L 237.574226 54.028318 
L 231.693991 50.215407 
L 226.648836 47.258227 
L 223.089946 45.334916 
L 217.413375 42.52913 
L 214.222581 41.086725 
L 206.094299 37.82558 
L 199.381021 35.556369 
L 191.63878 33.389496 
L 184.234359 31.748632 
L 179.860469 30.971273 
L 175.971013 30.397297 
L 166.807154 29.474056 
L 161.816216 29.221476 
L 156.826377 29.143991 
L 152.009441 29.234947 
L 147.627457 29.459384 
L 140.163771 30.154485 
L 135.336804 30.816272 
L 125.827108 32.618592 
L 121.53828 33.653328 
L 114.356952 35.70606 
L 109.52583 37.320407 
L 100.645838 40.803775 
L 92.762365 44.494303 
L 85.602835 48.377222 
L 82.35389 50.31943 
L 75.726219 54.660456 
L 71.478354 57.732055 
L 68.61575 59.940597 
L 63.277455 64.38412 
L 57.771276 69.460637 
L 53.62962 73.655447 
L 49.223545 78.526691 
L 45.570778 82.932894 
L 42.814292 86.512198 
L 39.776374 90.748535 
L 37.122518 94.737794 
L 34.987731 98.1731 
L 32.161158 103.087585 
L 29.563728 108.047462 
L 26.243807 115.189143 
L 24.355377 119.78199 
L 23.063624 123.215846 
L 21.42612 128.009582 
L 20.255327 131.82989 
L 18.255272 139.483409 
L 17.683771 142.05585 
L 16.646095 147.448401 
L 15.885421 152.369111 
L 14.968109 161.049974 
L 14.674121 166.262646 
L 14.571495 171.342871 
L 14.669248 176.969943 
L 15.316967 186.243865 
L 15.822451 190.526942 
L 16.663184 196.012702 
L 18.046954 202.966887 
L 19.603973 209.223336 
L 20.928268 213.774558 
L 23.236832 220.622817 
L 24.98344 225.158985 
L 27.916849 231.900976 
L 31.261536 238.609854 
L 34.934007 245.099832 
L 37.673272 249.476624 
L 40.948503 254.28723 
L 43.079366 257.204632 
L 45.968737 260.927227 
L 48.506352 263.998443 
L 52.461239 268.458522 
L 58.046036 274.167916 
L 64.405118 279.953916 
L 71.091523 285.33848 
L 77.630858 290.003647 
L 86.203489 295.331416 
L 94.654276 299.807567 
L 97.529022 301.169353 
L 103.670402 303.822281 
L 107.923659 305.463661 
L 113.262623 307.307283 
L 116.888884 308.426503 
L 121.527853 309.706244 
L 129.071168 311.43385 
L 135.868192 312.627092 
L 142.652592 313.483604 
L 147.755933 313.911382 
L 155.847296 314.212967 
L 161.86694 314.139098 
L 165.674042 313.960949 
L 173.580734 313.263549 
L 177.434258 312.761885 
L 184.137534 311.632362 
L 191.044814 310.119718 
L 199.715843 307.701462 
L 206.216432 305.49192 
L 213.223089 302.70811 
L 216.979804 301.034691 
L 221.031062 299.081377 
L 224.64343 297.203838 
L 229.257815 294.609538 
L 235.139288 290.962785 
L 241.280618 286.711438 
L 243.812544 284.815237 
L 248.009013 281.471905 
L 253.304849 276.862782 
L 256.782167 273.573611 
L 262.525053 267.620007 
L 265.262584 264.522995 
L 268.50224 260.610049 
L 271.648652 256.519044 
L 274.403877 252.66701 
L 277.404074 248.13957 
L 281.561294 241.167966 
L 284.617942 235.385607 
L 287.686927 228.831744 
L 289.259498 225.094912 
L 290.699544 221.383761 
L 292.211858 217.11241 
L 293.447995 213.255891 
L 294.852275 208.335886 
L 296.127763 203.154342 
L 297.642328 195.496292 
L 298.405108 190.44778 
L 299.020682 185.017215 
L 299.56455 176.496986 
L 299.645929 171.68113 
L 299.645929 171.68113 
" clip-path="url(#p6460b91896)" style="fill: none; stroke: #000000; stroke-width: 2; stroke-linecap: square"/>
   </g>
   <g id="patch_4">
    <path d="M 157.108511 319.920038 
L 157.108511 23.4425 
" style="fill: none; stroke: #000000; stroke-width: 0.8; stroke-linejoin: miter; stroke-linecap: square"/>
   </g>
   <g id="patch_5">
    <path d="M 8.870006 314.218547 
L 305.347418 314.218547 
" style="fill: none; stroke: #000000; stroke-width: 0.8; stroke-linejoin: miter; stroke-linecap: square"/>
   </g>
  </g>
 </g>
 <defs>
  <clipPath id="p6460b91896">
   <rect x="8.870006" y="23.4425" width="296.477411" height="296.477538"/>
  </clipPath>
 </defs>
</svg>
