<?xml version="1.0" encoding="utf-8" standalone="no"?>
<!DOCTYPE svg PUBLIC "-//W3C//DTD SVG 1.1//EN"
  "http://www.w3.org/Graphics/SVG/1.1/DTD/svg11.dtd">
<svg xmlns:xlink="http://www.w3.org/1999/xlink" width="338.4pt" height="338.4pt" viewBox="0 0 338.4 338.4" xmlns="http://www.w3.org/2000/svg" version="1.1">
 <metadata>
  <rdf:RDF xmlns:dc="http://purl.org/dc/elements/1.1/" xmlns:cc="http://creativecommons.org/ns#" xmlns:rdf="http://www.w3.org/1999/02/22-rdf-syntax-ns#">
   <cc:Work>
    <dc:type rdf:resource="http://purl.org/dc/dcmitype/StillImage"/>
    <dc:date>2025-06-11T09:50:58.836386</dc:date>
    <dc:format>image/svg+xml</dc:format>
    <dc:creator>
     <cc:Agent>
      <dc:title>Matplotlib v3.8.0, https://matplotlib.org/</dc:title>
     </cc:Agent>
    </dc:creator>
   </cc:Work>
  </rdf:RDF>
 </metadata>
 <defs>
  <style type="text/css">*{stroke-linejoin: round; stroke-linecap: butt}</style>
 </defs>
 <g id="figure_1">
  <g id="patch_1">
   <path d="M -0 338.4 
L 338.4 338.4 
L 338.4 0 
L -0 0 
z
" style="fill: #ffffff"/>
  </g>
  <g id="axes_1">
   <g id="patch_2">
    <path d="M 7.2 331.2 
L 331.2 331.2 
L 331.2 7.2 
L 7.2 7.2 
z
" style="fill: #ffffff"/>
   </g>
   <g id="patch_3">
    <path d="M 293.815385 169.2 
L 293.753894 173.114264 
L 293.569485 177.024665 
L 293.262337 180.927344 
L 292.832755 184.818449 
L 292.281162 188.694141 
L 291.608104 192.550595 
L 290.814243 196.384004 
L 289.900363 200.190586 
L 288.867367 203.966584 
L 287.716274 207.708272 
L 286.448219 211.411956 
L 285.064454 215.073983 
L 283.566346 218.690737 
L 281.955371 222.25865 
L 280.233121 225.774201 
L 278.401294 229.233919 
L 276.461699 232.634392 
L 274.416249 235.972262 
L 272.266964 239.244236 
L 270.015964 242.447085 
L 267.665471 245.577648 
L 265.217804 248.632836 
L 262.675379 251.609632 
L 260.040706 254.505101 
L 257.316384 257.316384 
L 254.505101 260.040706 
L 251.609632 262.675379 
L 248.632836 265.217804 
L 245.577648 267.665471 
L 242.447085 270.015964 
L 239.244236 272.266964 
L 235.972262 274.416249 
L 232.634392 276.461699 
L 229.233919 278.401294 
L 225.774201 280.233121 
L 222.25865 281.955371 
L 218.690737 283.566346 
L 215.073983 285.064454 
L 211.411956 286.448219 
L 207.708272 287.716274 
L 203.966584 288.867367 
L 200.190586 289.900363 
L 196.384004 290.814243 
L 192.550595 291.608104 
L 188.694141 292.281162 
L 184.818449 292.832755 
L 180.927344 293.262337 
L 177.024665 293.569485 
L 173.114264 293.753894 
L 169.2 293.815385 
L 165.285736 293.753894 
L 161.375335 293.569485 
L 157.472656 293.262337 
L 153.581551 292.832755 
L 149.705859 292.281162 
L 145.849405 291.608104 
L 142.015996 290.814243 
L 138.209414 289.900363 
L 134.433416 288.867367 
L 130.691728 287.716274 
L 126.988044 286.448219 
L 123.326017 285.064454 
L 119.709263 283.566346 
L 116.14135 281.955371 
L 112.625799 280.233121 
L 109.166081 278.401294 
L 105.765608 276.461699 
L 102.427738 274.416249 
L 99.155764 272.266964 
L 95.952915 270.015964 
L 92.822352 267.665471 
L 89.767164 265.217804 
L 86.790368 262.675379 
L 83.894899 260.040706 
L 81.083616 257.316384 
L 78.359294 254.505101 
L 75.724621 251.609632 
L 73.182196 248.632836 
L 70.734529 245.577648 
L 68.384036 242.447085 
L 66.133036 239.244236 
L 63.983751 235.972262 
L 61.938301 232.634392 
L 59.998706 229.233919 
L 58.166879 225.774201 
L 56.444629 222.25865 
L 54.833654 218.690737 
L 53.335546 215.073983 
L 51.951781 211.411956 
L 50.683726 207.708272 
L 49.532633 203.966584 
L 48.499637 200.190586 
L 47.585757 196.384004 
L 46.791896 192.550595 
L 46.118838 188.694141 
L 45.567245 184.818449 
L 45.137663 180.927344 
L 44.830515 177.024665 
L 44.646106 173.114264 
L 44.584615 169.2 
L 44.646106 165.285736 
L 44.830515 161.375335 
L 45.137663 157.472656 
L 45.567245 153.581551 
L 46.118838 149.705859 
L 46.791896 145.849405 
L 47.585757 142.015996 
L 48.499637 138.209414 
L 49.532633 134.433416 
L 50.683726 130.691728 
L 51.951781 126.988044 
L 53.335546 123.326017 
L 54.833654 119.709263 
L 56.444629 116.14135 
L 58.166879 112.625799 
L 59.998706 109.166081 
L 61.938301 105.765608 
L 63.983751 102.427738 
L 66.133036 99.155764 
L 68.384036 95.952915 
L 70.734529 92.822352 
L 73.182196 89.767164 
L 75.724621 86.790368 
L 78.359294 83.894899 
L 81.083616 81.083616 
L 83.894899 78.359294 
L 86.790368 75.724621 
L 89.767164 73.182196 
L 92.822352 70.734529 
L 95.952915 68.384036 
L 99.155764 66.133036 
L 102.427738 63.983751 
L 105.765608 61.938301 
L 109.166081 59.998706 
L 112.625799 58.166879 
L 116.14135 56.444629 
L 119.709263 54.833654 
L 123.326017 53.335546 
L 126.988044 51.951781 
L 130.691728 50.683726 
L 134.433416 49.532633 
L 138.209414 48.499637 
L 142.015996 47.585757 
L 145.849405 46.791896 
L 149.705859 46.118838 
L 153.581551 45.567245 
L 157.472656 45.137663 
L 161.375335 44.830515 
L 165.285736 44.646106 
L 169.2 44.584615 
L 173.114264 44.646106 
L 177.024665 44.830515 
L 180.927344 45.137663 
L 184.818449 45.567245 
L 188.694141 46.118838 
L 192.550595 46.791896 
L 196.384004 47.585757 
L 200.190586 48.499637 
L 203.966584 49.532633 
L 207.708272 50.683726 
L 211.411956 51.951781 
L 215.073983 53.335546 
L 218.690737 54.833654 
L 222.25865 56.444629 
L 225.774201 58.166879 
L 229.233919 59.998706 
L 232.634392 61.938301 
L 235.972262 63.983751 
L 239.244236 66.133036 
L 242.447085 68.384036 
L 245.577648 70.734529 
L 248.632836 73.182196 
L 251.609632 75.724621 
L 254.505101 78.359294 
L 257.316384 81.083616 
L 260.040706 83.894899 
L 262.675379 86.790368 
L 265.217804 89.767164 
L 267.665471 92.822352 
L 270.015964 95.952915 
L 272.266964 99.155764 
L 274.416249 102.427738 
L 276.461699 105.765608 
L 278.401294 109.166081 
L 280.233121 112.625799 
L 281.955371 116.14135 
L 283.566346 119.709263 
L 285.064454 123.326017 
L 286.448219 126.988044 
L 287.716274 130.691728 
L 288.867367 134.433416 
L 289.900363 138.209414 
L 290.814243 142.015996 
L 291.608104 145.849405 
L 292.281162 149.705859 
L 292.832755 153.581551 
L 293.262337 157.472656 
L 293.569485 161.375335 
L 293.753894 165.285736 
L 293.815385 169.2 
L 324.969231 169.2 
L 324.892368 164.30717 
L 324.661856 159.419169 
L 324.277921 154.54082 
L 323.740944 149.676939 
L 323.051453 144.832324 
L 322.210129 140.011757 
L 321.217803 135.219995 
L 320.075454 130.461768 
L 318.784209 125.74177 
L 317.345342 121.06466 
L 315.760274 116.435055 
L 314.030568 111.857522 
L 312.157932 107.336579 
L 310.144214 102.876687 
L 307.991401 98.482249 
L 305.701617 94.157601 
L 303.277123 89.90701 
L 300.720311 85.734672 
L 298.033705 81.644705 
L 295.219955 77.641143 
L 292.281838 73.72794 
L 289.222255 69.908955 
L 286.044224 66.187959 
L 282.750882 62.568624 
L 279.345479 59.054521 
L 275.831376 55.649118 
L 272.212041 52.355776 
L 268.491045 49.177745 
L 264.67206 46.118162 
L 260.758857 43.180045 
L 256.755295 40.366295 
L 252.665328 37.679689 
L 248.49299 35.122877 
L 244.242399 32.698383 
L 239.917751 30.408599 
L 235.523313 28.255786 
L 231.063421 26.242068 
L 226.542478 24.369432 
L 221.964945 22.639726 
L 217.33534 21.054658 
L 212.65823 19.615791 
L 207.938232 18.324546 
L 203.180005 17.182197 
L 198.388243 16.189871 
L 193.567676 15.348547 
L 188.723061 14.659056 
L 183.85918 14.122079 
L 178.980831 13.738144 
L 174.09283 13.507632 
L 169.2 13.430769 
L 164.30717 13.507632 
L 159.419169 13.738144 
L 154.54082 14.122079 
L 149.676939 14.659056 
L 144.832324 15.348547 
L 140.011757 16.189871 
L 135.219995 17.182197 
L 130.461768 18.324546 
L 125.74177 19.615791 
L 121.06466 21.054658 
L 116.435055 22.639726 
L 111.857522 24.369432 
L 107.336579 26.242068 
L 102.876687 28.255786 
L 98.482249 30.408599 
L 94.157601 32.698383 
L 89.90701 35.122877 
L 85.734672 37.679689 
L 81.644705 40.366295 
L 77.641143 43.180045 
L 73.72794 46.118162 
L 69.908955 49.177745 
L 66.187959 52.355776 
L 62.568624 55.649118 
L 59.054521 59.054521 
L 55.649118 62.568624 
L 52.355776 66.187959 
L 49.177745 69.908955 
L 46.118162 73.72794 
L 43.180045 77.641143 
L 40.366295 81.644705 
L 37.679689 85.734672 
L 35.122877 89.90701 
L 32.698383 94.157601 
L 30.408599 98.482249 
L 28.255786 102.876687 
L 26.242068 107.336579 
L 24.369432 111.857522 
L 22.639726 116.435055 
L 21.054658 121.06466 
L 19.615791 125.74177 
L 18.324546 130.461768 
L 17.182197 135.219995 
L 16.189871 140.011757 
L 15.348547 144.832324 
L 14.659056 149.676939 
L 14.122079 154.54082 
L 13.738144 159.419169 
L 13.507632 164.30717 
L 13.430769 169.2 
L 13.507632 174.09283 
L 13.738144 178.980831 
L 14.122079 183.85918 
L 14.659056 188.723061 
L 15.348547 193.567676 
L 16.189871 198.388243 
L 17.182197 203.180005 
L 18.324546 207.938232 
L 19.615791 212.65823 
L 21.054658 217.33534 
L 22.639726 221.964945 
L 24.369432 226.542478 
L 26.242068 231.063421 
L 28.255786 235.523313 
L 30.408599 239.917751 
L 32.698383 244.242399 
L 35.122877 248.49299 
L 37.679689 252.665328 
L 40.366295 256.755295 
L 43.180045 260.758857 
L 46.118162 264.67206 
L 49.177745 268.491045 
L 52.355776 272.212041 
L 55.649118 275.831376 
L 59.054521 279.345479 
L 62.568624 282.750882 
L 66.187959 286.044224 
L 69.908955 289.222255 
L 73.72794 292.281838 
L 77.641143 295.219955 
L 81.644705 298.033705 
L 85.734672 300.720311 
L 89.90701 303.277123 
L 94.157601 305.701617 
L 98.482249 307.991401 
L 102.876687 310.144214 
L 107.336579 312.157932 
L 111.857522 314.030568 
L 116.435055 315.760274 
L 121.06466 317.345342 
L 125.74177 318.784209 
L 130.461768 320.075454 
L 135.219995 321.217803 
L 140.011757 322.210129 
L 144.832324 323.051453 
L 149.676939 323.740944 
L 154.54082 324.277921 
L 159.419169 324.661856 
L 164.30717 324.892368 
L 169.2 324.969231 
L 174.09283 324.892368 
L 178.980831 324.661856 
L 183.85918 324.277921 
L 188.723061 323.740944 
L 193.567676 323.051453 
L 198.388243 322.210129 
L 203.180005 321.217803 
L 207.938232 320.075454 
L 212.65823 318.784209 
L 217.33534 317.345342 
L 221.964945 315.760274 
L 226.542478 314.030568 
L 231.063421 312.157932 
L 235.523313 310.144214 
L 239.917751 307.991401 
L 244.242399 305.701617 
L 248.49299 303.277123 
L 252.665328 300.720311 
L 256.755295 298.033705 
L 260.758857 295.219955 
L 264.67206 292.281838 
L 268.491045 289.222255 
L 272.212041 286.044224 
L 275.831376 282.750882 
L 279.345479 279.345479 
L 282.750882 275.831376 
L 286.044224 272.212041 
L 289.222255 268.491045 
L 292.281838 264.67206 
L 295.219955 260.758857 
L 298.033705 256.755295 
L 300.720311 252.665328 
L 303.277123 248.49299 
L 305.701617 244.242399 
L 307.991401 239.917751 
L 310.144214 235.523313 
L 312.157932 231.063421 
L 314.030568 226.542478 
L 315.760274 221.964945 
L 317.345342 217.33534 
L 318.784209 212.65823 
L 320.075454 207.938232 
L 321.217803 203.180005 
L 322.210129 198.388243 
L 323.051453 193.567676 
L 323.740944 188.723061 
L 324.277921 183.85918 
L 324.661856 178.980831 
L 324.892368 174.09283 
L 324.969231 169.2 
z
" clip-path="url(#p5e0175392d)" style="fill: #808080"/>
   </g>
   <g id="matplotlib.axis_1"/>
   <g id="matplotlib.axis_2"/>
   <g id="line2d_1">
    <path d="M 293.815385 169.2 
L 293.707636 164.018999 
L 293.292125 157.792164 
L 292.370903 150.281151 
L 291.076283 143.216047 
L 290.166452 139.264878 
L 289.105727 135.26461 
L 286.921226 128.325718 
L 285.097705 123.410088 
L 282.837386 118.057664 
L 281.492049 115.167696 
L 278.738078 109.782801 
L 276.140507 105.225614 
L 274.390892 102.387799 
L 270.322146 96.376201 
L 266.570364 91.431071 
L 263.964374 88.275915 
L 259.307687 83.120974 
L 255.112692 78.933708 
L 249.06868 73.54443 
L 245.079722 70.350306 
L 240.542051 67.027079 
L 235.383966 63.612706 
L 233.642787 62.541099 
L 227.408361 59.014789 
L 223.788736 57.177395 
L 217.509039 54.329504 
L 213.449478 52.70546 
L 206.899499 50.423984 
L 202.619305 49.14941 
L 198.338045 48.03908 
L 191.244759 46.549999 
L 185.83966 45.700543 
L 181.740297 45.217199 
L 175.95348 44.767751 
L 172.324763 44.623799 
L 166.981931 44.604357 
L 163.214738 44.728434 
L 156.91711 45.191433 
L 149.098211 46.216618 
L 145.512086 46.856725 
L 138.881963 48.32895 
L 134.429383 49.533805 
L 126.709714 52.052359 
L 119.935309 54.7361 
L 116.213504 56.410704 
L 111.900996 58.539175 
L 105.669449 61.995228 
L 102.770006 63.76732 
L 98.69236 66.449493 
L 94.134579 69.730524 
L 89.955197 73.026951 
L 83.891112 78.36285 
L 77.696293 84.606468 
L 74.511342 88.187334 
L 70.688784 92.881363 
L 65.901686 99.497401 
L 62.189215 105.343238 
L 61.691737 106.184387 
L 59.164524 110.709077 
L 57.535764 113.881898 
L 55.524077 118.143379 
L 53.660785 122.512915 
L 52.015458 126.811591 
L 50.139531 132.408714 
L 48.156633 139.577417 
L 46.800027 145.806823 
L 46.043305 150.188881 
L 45.136372 157.486322 
L 44.700103 163.83626 
L 44.587361 168.372799 
L 44.601388 171.244469 
L 45.052292 179.986136 
L 45.360489 183.084149 
L 46.352267 190.114793 
L 47.144398 194.328152 
L 48.222053 199.088636 
L 49.594197 204.177793 
L 51.748908 210.844148 
L 53.47221 215.417668 
L 55.818425 220.906988 
L 57.369345 224.180895 
L 60.875639 230.802166 
L 64.303603 236.473621 
L 68.490881 242.59392 
L 71.644493 246.736554 
L 74.312528 249.979712 
L 79.158337 255.348087 
L 85.603944 261.615872 
L 87.997881 263.72624 
L 91.933605 266.969618 
L 98.301393 271.681128 
L 103.036125 274.799885 
L 106.643344 276.975966 
L 111.707818 279.760585 
L 116.803928 282.264786 
L 123.173035 285.003768 
L 127.15242 286.507268 
L 131.701705 288.03969 
L 136.466157 289.439301 
L 143.895079 291.219077 
L 150.980303 292.476262 
L 155.634038 293.07477 
L 160.273125 293.495233 
L 164.296303 293.718865 
L 169.283118 293.815357 
L 176.431326 293.605394 
L 180.478842 293.303915 
L 185.696196 292.718701 
L 192.96045 291.529208 
L 198.383793 290.349908 
L 206.483379 288.10729 
L 211.67697 286.352469 
L 215.50086 284.894531 
L 219.381101 283.265118 
L 224.205965 281.018326 
L 230.591828 277.643707 
L 236.736206 273.927527 
L 241.971593 270.359722 
L 246.691227 266.791515 
L 251.742373 262.558186 
L 254.681843 259.87441 
L 258.637246 255.975417 
L 261.657806 252.749675 
L 264.564185 249.416372 
L 267.81442 245.385237 
L 271.231274 240.744484 
L 273.157111 237.916179 
L 277.531682 230.789291 
L 281.356636 223.512827 
L 283.268074 219.374381 
L 286.053945 212.491449 
L 287.453652 208.507351 
L 288.701855 204.5313 
L 290.835579 196.288373 
L 291.993045 190.433517 
L 292.879711 184.442154 
L 293.380497 179.601841 
L 293.717471 174.138977 
L 293.815385 169.2 
L 293.815385 169.2 
" clip-path="url(#p5e0175392d)" style="fill: none; stroke: #000000; stroke-width: 3; stroke-linecap: square"/>
   </g>
   <g id="line2d_2">
    <path d="M 324.969231 169.2 
L 324.850431 163.117519 
L 324.329214 155.093966 
L 323.807439 150.21071 
L 322.408258 141.070249 
L 320.585166 132.504158 
L 319.382872 127.858032 
L 317.75866 122.355814 
L 316.418936 118.301687 
L 314.70598 113.593678 
L 311.554053 105.959373 
L 307.702884 97.918836 
L 304.445305 91.916362 
L 302.718919 88.970632 
L 299.07542 83.197508 
L 296.012973 78.7427 
L 291.405335 72.608544 
L 289.516943 70.266253 
L 285.115462 65.143962 
L 279.100151 58.809737 
L 273.009104 53.063342 
L 269.038202 49.632501 
L 265.382043 46.672175 
L 259.816 42.50038 
L 256.265005 40.034455 
L 251.765904 37.113193 
L 245.429677 33.35785 
L 239.552026 30.222859 
L 230.300356 25.914272 
L 226.873736 24.501025 
L 222.832635 22.955022 
L 215.844455 20.578507 
L 212.688289 19.624527 
L 207.008707 18.088932 
L 200.286268 16.564168 
L 196.624203 15.863878 
L 187.668921 14.529537 
L 184.157137 14.150533 
L 173.561112 13.491831 
L 166.050589 13.462611 
L 157.931876 13.838864 
L 155.424687 14.041069 
L 149.334082 14.702756 
L 140.026507 16.187058 
L 129.668179 18.530533 
L 126.045012 19.528024 
L 121.218769 21.004674 
L 112.183141 24.240933 
L 105.50128 27.050338 
L 102.430663 28.466533 
L 96.474936 31.449797 
L 90.000914 35.067386 
L 84.651604 38.373313 
L 76.999389 43.648813 
L 74.219615 45.738347 
L 69.30844 49.677075 
L 63.394716 54.878982 
L 58.152741 59.963745 
L 51.910186 66.695596 
L 46.730063 72.944259 
L 42.851686 78.094804 
L 37.315784 86.310876 
L 32.561284 94.407524 
L 30.264222 98.766323 
L 26.852674 105.944234 
L 24.817171 110.739313 
L 22.06264 118.066347 
L 20.298827 123.456213 
L 18.268216 130.681826 
L 16.831627 136.828219 
L 15.46553 144.104863 
L 15.128135 146.267195 
L 14.342188 152.374091 
L 13.972686 156.217928 
L 13.488618 164.955152 
L 13.446501 171.413766 
L 13.774149 179.537211 
L 14.521471 187.601251 
L 14.945321 190.869041 
L 15.70966 195.74748 
L 17.411383 204.189556 
L 18.877851 210.032644 
L 21.310672 218.116253 
L 24.09041 225.832676 
L 25.454822 229.211475 
L 28.742236 236.547382 
L 31.418166 241.865118 
L 34.772369 247.897302 
L 37.58712 252.519284 
L 41.194062 257.961101 
L 44.781321 262.923239 
L 47.870006 266.888718 
L 51.326735 271.032935 
L 56.910252 277.15863 
L 60.517647 280.789423 
L 63.631012 283.73926 
L 67.824976 287.467315 
L 73.190962 291.863433 
L 78.52939 295.860545 
L 82.445206 298.574104 
L 88.325689 302.329257 
L 91.344526 304.116931 
L 99.551889 308.531238 
L 105.826238 311.494833 
L 114.021486 314.86875 
L 121.039121 317.337041 
L 125.140599 318.608241 
L 133.844436 320.903782 
L 140.994205 322.394277 
L 148.397081 323.57387 
L 152.709204 324.093857 
L 161.565573 324.782032 
L 166.340925 324.94299 
L 175.476106 324.842744 
L 183.764271 324.286864 
L 187.283075 323.916048 
L 196.073823 322.633539 
L 203.705428 321.099403 
L 210.735086 319.329577 
L 219.233999 316.714922 
L 225.31552 314.510363 
L 234.593288 310.578114 
L 243.404528 306.158904 
L 248.483842 303.282533 
L 254.767467 299.362444 
L 262.999306 293.561342 
L 266.630946 290.737089 
L 270.980428 287.118607 
L 276.593458 282.030397 
L 279.118567 279.571925 
L 285.367609 272.974466 
L 289.953604 267.600306 
L 294.238466 262.094753 
L 299.14456 255.097989 
L 302.154931 250.360579 
L 306.032378 243.637582 
L 307.155599 241.53468 
L 310.110485 235.594944 
L 313.882246 226.91569 
L 316.882938 218.735877 
L 317.933522 215.485988 
L 319.285504 210.894062 
L 321.269073 202.949817 
L 322.599597 196.266897 
L 323.144907 192.970122 
L 323.850081 187.838819 
L 324.285768 183.775931 
L 324.69481 178.44215 
L 324.969231 169.2 
L 324.969231 169.2 
" clip-path="url(#p5e0175392d)" style="fill: none; stroke: #000000; stroke-width: 3; stroke-linecap: square"/>
   </g>
   <g id="line2d_3">
    <path d="M 253.362475 38.124712 
L 169.2 169.2 
L 272.049515 98.836861 
" clip-path="url(#p5e0175392d)" style="fill: none; stroke: #000000; stroke-width: 2; stroke-linecap: square"/>
   </g>
   <g id="patch_4">
    <path d="M 169.2 331.2 
L 169.2 7.2 
" style="fill: none; stroke: #000000; stroke-width: 0.8; stroke-linejoin: miter; stroke-linecap: square"/>
   </g>
   <g id="patch_5">
    <path d="M 7.2 169.2 
L 331.2 169.2 
" style="fill: none; stroke: #000000; stroke-width: 0.8; stroke-linejoin: miter; stroke-linecap: square"/>
   </g>
   <g id="text_1">
    <!-- $R_0$ -->
    <g transform="translate(270.63413 93.970996) scale(0.2 -0.2)">
     <defs>
      <path id="Cmmi10-52" d="M 313 0 
Q 250 0 250 84 
Q 253 100 262 139 
Q 272 178 289 201 
Q 306 225 331 225 
Q 722 225 878 269 
Q 959 297 997 441 
L 1875 3956 
Q 1888 4019 1888 4044 
Q 1888 4113 1813 4122 
Q 1691 4147 1350 4147 
Q 1288 4147 1288 4231 
Q 1291 4247 1300 4286 
Q 1309 4325 1326 4348 
Q 1344 4372 1369 4372 
L 3309 4372 
Q 3541 4372 3791 4319 
Q 4041 4266 4250 4152 
Q 4459 4038 4593 3848 
Q 4728 3659 4728 3406 
Q 4728 3084 4515 2831 
Q 4303 2578 3978 2408 
Q 3653 2238 3347 2169 
Q 3597 2078 3756 1879 
Q 3916 1681 3916 1422 
Q 3916 1388 3914 1370 
Q 3913 1353 3909 1331 
L 3859 763 
Q 3853 638 3847 550 
Q 3841 463 3841 409 
Q 3841 234 3892 129 
Q 3944 25 4097 25 
Q 4297 25 4448 211 
Q 4600 397 4647 616 
Q 4675 672 4709 672 
L 4769 672 
Q 4831 672 4831 588 
Q 4784 403 4682 237 
Q 4581 72 4426 -34 
Q 4272 -141 4091 -141 
Q 3716 -141 3452 26 
Q 3188 194 3188 550 
Q 3188 684 3213 788 
L 3353 1356 
Q 3378 1434 3378 1538 
Q 3378 1803 3198 1954 
Q 3019 2106 2747 2106 
L 1959 2106 
L 1538 416 
Q 1522 363 1522 325 
Q 1522 259 1600 250 
Q 1722 225 2059 225 
Q 2125 225 2125 141 
Q 2103 50 2090 25 
Q 2078 0 2016 0 
L 313 0 
z
M 1997 2272 
L 2706 2272 
Q 3403 2272 3756 2625 
Q 3919 2788 4014 3039 
Q 4109 3291 4109 3541 
Q 4109 3778 3970 3912 
Q 3831 4047 3626 4097 
Q 3422 4147 3175 4147 
L 2747 4147 
Q 2572 4147 2515 4117 
Q 2459 4088 2413 3928 
L 1997 2272 
z
" transform="scale(0.015625)"/>
      <path id="Cmr10-30" d="M 1600 -141 
Q 816 -141 533 504 
Q 250 1150 250 2041 
Q 250 2597 351 3087 
Q 453 3578 754 3920 
Q 1056 4263 1600 4263 
Q 2022 4263 2290 4056 
Q 2559 3850 2700 3523 
Q 2841 3197 2892 2823 
Q 2944 2450 2944 2041 
Q 2944 1491 2842 1011 
Q 2741 531 2444 195 
Q 2147 -141 1600 -141 
z
M 1600 25 
Q 1956 25 2131 390 
Q 2306 756 2347 1200 
Q 2388 1644 2388 2144 
Q 2388 2625 2347 3031 
Q 2306 3438 2132 3767 
Q 1959 4097 1600 4097 
Q 1238 4097 1063 3765 
Q 888 3434 847 3029 
Q 806 2625 806 2144 
Q 806 1788 823 1472 
Q 841 1156 916 820 
Q 991 484 1158 254 
Q 1325 25 1600 25 
z
" transform="scale(0.015625)"/>
     </defs>
     <use xlink:href="#Cmmi10-52" transform="translate(0 0.6875)"/>
     <use xlink:href="#Cmr10-30" transform="translate(75.878906 -16.31875) scale(0.7)"/>
    </g>
   </g>
   <g id="text_2">
    <!-- $R_1$ -->
    <g transform="translate(251.94709 33.258847) scale(0.2 -0.2)">
     <defs>
      <path id="Cmr10-31" d="M 594 0 
L 594 225 
Q 1394 225 1394 428 
L 1394 3788 
Q 1063 3628 556 3628 
L 556 3853 
Q 1341 3853 1741 4263 
L 1831 4263 
Q 1853 4263 1873 4245 
Q 1894 4228 1894 4206 
L 1894 428 
Q 1894 225 2694 225 
L 2694 0 
L 594 0 
z
" transform="scale(0.015625)"/>
     </defs>
     <use xlink:href="#Cmmi10-52" transform="translate(0 0.6875)"/>
     <use xlink:href="#Cmr10-31" transform="translate(75.878906 -16.31875) scale(0.7)"/>
    </g>
   </g>
  </g>
 </g>
 <defs>
  <clipPath id="p5e0175392d">
   <rect x="7.2" y="7.2" width="324" height="324"/>
  </clipPath>
 </defs>
</svg>
