<?xml version="1.0" encoding="utf-8" standalone="no"?>
<!DOCTYPE svg PUBLIC "-//W3C//DTD SVG 1.1//EN"
  "http://www.w3.org/Graphics/SVG/1.1/DTD/svg11.dtd">
<svg xmlns:xlink="http://www.w3.org/1999/xlink" width="453.6pt" height="236.327486pt" viewBox="0 0 453.6 236.327486" xmlns="http://www.w3.org/2000/svg" version="1.1">
 <metadata>
  <rdf:RDF xmlns:dc="http://purl.org/dc/elements/1.1/" xmlns:cc="http://creativecommons.org/ns#" xmlns:rdf="http://www.w3.org/1999/02/22-rdf-syntax-ns#">
   <cc:Work>
    <dc:type rdf:resource="http://purl.org/dc/dcmitype/StillImage"/>
    <dc:date>2025-07-23T19:15:56.613204</dc:date>
    <dc:format>image/svg+xml</dc:format>
    <dc:creator>
     <cc:Agent>
      <dc:title>Matplotlib v3.10.3, https://matplotlib.org/</dc:title>
     </cc:Agent>
    </dc:creator>
   </cc:Work>
  </rdf:RDF>
 </metadata>
 <defs>
  <style type="text/css">*{stroke-linejoin: round; stroke-linecap: butt}</style>
 </defs>
 <g id="figure_1">
  <g id="patch_1">
   <path d="M 0 236.327486 
L 453.6 236.327486 
L 453.6 0 
L 0 0 
z
" style="fill: #ffffff"/>
  </g>
  <g id="axes_1">
   <g id="patch_2">
    <path d="M 7.2 229.127486 
L 446.4 229.127486 
L 446.4 7.2 
L 7.2 7.2 
z
" style="fill: #ffffff"/>
   </g>
   <g id="PathCollection_1">
    <path d="M 391.28843 39.16282 
C 392.226065 39.16282 393.125422 38.790293 393.78843 38.127286 
C 394.451438 37.464278 394.823964 36.56492 394.823964 35.627286 
C 394.823964 34.689651 394.451438 33.790293 393.78843 33.127286 
C 393.125422 32.464278 392.226065 32.091752 391.28843 32.091752 
C 390.350796 32.091752 389.451438 32.464278 388.78843 33.127286 
C 388.125422 33.790293 387.752896 34.689651 387.752896 35.627286 
C 387.752896 36.56492 388.125422 37.464278 388.78843 38.127286 
C 389.451438 38.790293 390.350796 39.16282 391.28843 39.16282 
z
" clip-path="url(#p2fc7db8905)"/>
   </g>
   <g id="PathCollection_2">
    <path d="M 323.927012 17.892775 
C 324.864646 17.892775 325.764004 17.520249 326.427012 16.857241 
C 327.09002 16.194233 327.462546 15.294875 327.462546 14.357241 
C 327.462546 13.419606 327.09002 12.520249 326.427012 11.857241 
C 325.764004 11.194233 324.864646 10.821707 323.927012 10.821707 
C 322.989377 10.821707 322.09002 11.194233 321.427012 11.857241 
C 320.764004 12.520249 320.391478 13.419606 320.391478 14.357241 
C 320.391478 15.294875 320.764004 16.194233 321.427012 16.857241 
C 322.09002 17.520249 322.989377 17.892775 323.927012 17.892775 
z
" clip-path="url(#p2fc7db8905)"/>
   </g>
   <g id="matplotlib.axis_1"/>
   <g id="matplotlib.axis_2"/>
   <g id="line2d_1">
    <path d="M 437.953846 75.105914 
L 435.055484 71.311304 
L 432.310591 67.984758 
L 428.644441 63.88533 
L 424.735119 59.882489 
L 420.029221 55.490156 
L 417.21822 53.059477 
L 412.25664 49.07671 
L 408.41974 46.237072 
L 402.62224 42.295968 
L 398.727556 39.86043 
L 393.298236 36.720026 
L 388.08708 33.95952 
L 382.219864 31.120804 
L 376.663039 28.672394 
L 369.190612 25.715182 
L 364.359441 23.9919 
L 356.28498 21.415607 
L 350.435515 19.77042 
L 344.043901 18.170621 
L 336.964619 16.625414 
L 329.745065 15.280476 
L 320.325841 13.854649 
L 312.509769 12.937792 
L 302.368217 12.087116 
L 295.63586 11.723759 
L 285.742159 11.467836 
L 276.281423 11.520239 
L 271.608578 11.649727 
L 262.851008 12.07176 
L 252.671493 12.848915 
L 245.295169 13.599952 
L 233.803278 15.077887 
L 224.698763 16.510857 
L 215.398214 18.211154 
L 209.211874 19.473789 
L 199.692574 21.621944 
L 189.103968 24.304843 
L 178.817348 27.21032 
L 172.454006 29.157506 
L 160.22804 33.227708 
L 154.457491 35.303049 
L 145.913572 38.563788 
L 136.510189 42.421883 
L 127.916289 46.207345 
L 120.721645 49.578008 
L 110.959079 54.465901 
L 101.985805 59.304354 
L 93.087617 64.463955 
L 87.169724 68.116032 
L 78.33435 73.937624 
L 70.849667 79.263275 
L 63.246514 85.109343 
L 58.862572 88.713799 
L 52.035678 94.733992 
L 45.610904 100.95427 
L 40.133556 106.80651 
L 36.453609 111.106616 
L 32.993349 115.499542 
L 29.818398 119.916536 
L 27.063836 124.147959 
L 24.956236 127.72431 
L 22.85647 131.692878 
L 21.36312 134.860714 
L 19.396713 139.711031 
L 17.934856 144.182528 
L 16.726487 149.108278 
L 16.161004 152.403724 
L 15.737786 156.525123 
L 15.646154 160.84885 
L 15.893921 164.816323 
L 16.258472 167.555316 
L 16.873114 170.669151 
L 17.586144 173.371624 
L 18.673665 176.618784 
L 20.091006 180.008015 
L 22.292539 184.242092 
L 24.146279 187.219074 
L 26.696499 190.749928 
L 28.443408 192.894312 
L 31.400954 196.148827 
L 33.966467 198.673271 
L 37.864692 202.103504 
L 41.251894 204.7706 
L 44.885588 207.373194 
L 48.578721 209.791601 
L 51.846471 211.770065 
L 57.982484 215.142831 
L 61.180381 216.748955 
L 66.860971 219.384682 
L 71.941705 221.536412 
L 78.321982 224.00197 
L 80.697128 224.85965 
L 80.697128 224.85965 
" clip-path="url(#p2fc7db8905)" style="fill: none; stroke: #000000; stroke-width: 2; stroke-linecap: square"/>
   </g>
   <g id="patch_3">
    <path d="M 181.149025 26.525653 
Q 180.122017 26.826817 181.240723 26.498763 
" clip-path="url(#p2fc7db8905)" style="fill: none; stroke: #000000; stroke-width: 2; stroke-linecap: round"/>
    <path d="M 192.243618 28.482777 
L 181.240723 26.498763 
L 189.42967 18.886856 
z
" clip-path="url(#p2fc7db8905)" style="stroke: #000000; stroke-width: 2; stroke-linecap: round"/>
   </g>
   <g id="text_1">
    <!-- $P_0$ -->
    <g transform="translate(388.033943 61.180811) scale(0.24 -0.24)">
     <defs>
      <path id="Cmmi10-50" d="M 313 0 
Q 250 0 250 84 
Q 253 100 262 139 
Q 272 178 289 201 
Q 306 225 331 225 
Q 722 225 878 269 
Q 959 297 997 441 
L 1875 3956 
Q 1888 4019 1888 4044 
Q 1888 4113 1813 4122 
Q 1691 4147 1350 4147 
Q 1288 4147 1288 4231 
Q 1291 4247 1300 4286 
Q 1309 4325 1326 4348 
Q 1344 4372 1369 4372 
L 3578 4372 
Q 3881 4372 4165 4264 
Q 4450 4156 4631 3934 
Q 4813 3713 4813 3397 
Q 4813 2991 4527 2672 
Q 4241 2353 3814 2175 
Q 3388 1997 2988 1997 
L 1947 1997 
L 1556 416 
Q 1544 353 1544 325 
Q 1544 300 1551 283 
Q 1559 266 1573 261 
Q 1588 256 1619 250 
Q 1741 225 2081 225 
Q 2144 225 2144 141 
Q 2122 50 2109 25 
Q 2097 0 2034 0 
L 313 0 
z
M 1978 2188 
L 2875 2188 
Q 3497 2188 3822 2522 
Q 3988 2688 4092 3000 
Q 4197 3313 4197 3566 
Q 4197 3881 3956 4014 
Q 3716 4147 3359 4147 
L 2747 4147 
Q 2572 4147 2515 4117 
Q 2459 4088 2413 3928 
L 1978 2188 
z
" transform="scale(0.015625)"/>
      <path id="Cmr10-30" d="M 1600 -141 
Q 816 -141 533 504 
Q 250 1150 250 2041 
Q 250 2597 351 3087 
Q 453 3578 754 3920 
Q 1056 4263 1600 4263 
Q 2022 4263 2290 4056 
Q 2559 3850 2700 3523 
Q 2841 3197 2892 2823 
Q 2944 2450 2944 2041 
Q 2944 1491 2842 1011 
Q 2741 531 2444 195 
Q 2147 -141 1600 -141 
z
M 1600 25 
Q 1956 25 2131 390 
Q 2306 756 2347 1200 
Q 2388 1644 2388 2144 
Q 2388 2625 2347 3031 
Q 2306 3438 2132 3767 
Q 1959 4097 1600 4097 
Q 1238 4097 1063 3765 
Q 888 3434 847 3029 
Q 806 2625 806 2144 
Q 806 1788 823 1472 
Q 841 1156 916 820 
Q 991 484 1158 254 
Q 1325 25 1600 25 
z
" transform="scale(0.015625)"/>
     </defs>
     <use xlink:href="#Cmmi10-50" transform="translate(0 0.6875)"/>
     <use xlink:href="#Cmr10-30" transform="translate(64.208984 -16.31875) scale(0.7)"/>
    </g>
   </g>
   <g id="text_2">
    <!-- $P_1$ -->
    <g transform="translate(301.741499 39.910766) scale(0.24 -0.24)">
     <defs>
      <path id="Cmr10-31" d="M 594 0 
L 594 225 
Q 1394 225 1394 428 
L 1394 3788 
Q 1063 3628 556 3628 
L 556 3853 
Q 1341 3853 1741 4263 
L 1831 4263 
Q 1853 4263 1873 4245 
Q 1894 4228 1894 4206 
L 1894 428 
Q 1894 225 2694 225 
L 2694 0 
L 594 0 
z
" transform="scale(0.015625)"/>
     </defs>
     <use xlink:href="#Cmmi10-50" transform="translate(0 0.6875)"/>
     <use xlink:href="#Cmr10-31" transform="translate(64.208984 -16.31875) scale(0.7)"/>
    </g>
   </g>
  </g>
 </g>
 <defs>
  <clipPath id="p2fc7db8905">
   <rect x="7.2" y="7.2" width="439.2" height="221.927486"/>
  </clipPath>
 </defs>
</svg>
