<?xml version="1.0" encoding="utf-8" standalone="no"?>
<!DOCTYPE svg PUBLIC "-//W3C//DTD SVG 1.1//EN"
  "http://www.w3.org/Graphics/SVG/1.1/DTD/svg11.dtd">
<svg xmlns:xlink="http://www.w3.org/1999/xlink" width="453.6pt" height="208.168401pt" viewBox="0 0 453.6 208.168401" xmlns="http://www.w3.org/2000/svg" version="1.1">
 <metadata>
  <rdf:RDF xmlns:dc="http://purl.org/dc/elements/1.1/" xmlns:cc="http://creativecommons.org/ns#" xmlns:rdf="http://www.w3.org/1999/02/22-rdf-syntax-ns#">
   <cc:Work>
    <dc:type rdf:resource="http://purl.org/dc/dcmitype/StillImage"/>
    <dc:date>2025-12-10T16:54:16.292677</dc:date>
    <dc:format>image/svg+xml</dc:format>
    <dc:creator>
     <cc:Agent>
      <dc:title>Matplotlib v3.10.5, https://matplotlib.org/</dc:title>
     </cc:Agent>
    </dc:creator>
   </cc:Work>
  </rdf:RDF>
 </metadata>
 <defs>
  <style type="text/css">*{stroke-linejoin: round; stroke-linecap: butt}</style>
 </defs>
 <g id="figure_1">
  <g id="patch_1">
   <path d="M 0 208.168401 
L 453.6 208.168401 
L 453.6 0 
L 0 0 
z
" style="fill: #ffffff"/>
  </g>
  <g id="axes_1">
   <g id="patch_2">
    <path d="M 7.2 196.241923 
L 446.4 196.241923 
L 446.4 7.2 
L 7.2 7.2 
z
" style="fill: #ffffff"/>
   </g>
   <g id="PathCollection_1">
    <path d="M 412.500414 64.169689 
C 413.438048 64.169689 414.337406 63.797163 415.000414 63.134155 
C 415.663422 62.471147 416.035948 61.57179 416.035948 60.634155 
C 416.035948 59.696521 415.663422 58.797163 415.000414 58.134155 
C 414.337406 57.471147 413.438048 57.098621 412.500414 57.098621 
C 411.562779 57.098621 410.663422 57.471147 410.000414 58.134155 
C 409.337406 58.797163 408.96488 59.696521 408.96488 60.634155 
C 408.96488 61.57179 409.337406 62.471147 410.000414 63.134155 
C 410.663422 63.797163 411.562779 64.169689 412.500414 64.169689 
z
" clip-path="url(#pc104b75776)"/>
   </g>
   <g id="PathCollection_2">
    <path d="M 132.996758 181.331143 
C 133.934393 181.331143 134.833751 180.958616 135.496758 180.295609 
C 136.159766 179.632601 136.532292 178.733243 136.532292 177.795609 
C 136.532292 176.857974 136.159766 175.958616 135.496758 175.295609 
C 134.833751 174.632601 133.934393 174.260075 132.996758 174.260075 
C 132.059124 174.260075 131.159766 174.632601 130.496758 175.295609 
C 129.833751 175.958616 129.461224 176.857974 129.461224 177.795609 
C 129.461224 178.733243 129.833751 179.632601 130.496758 180.295609 
C 131.159766 180.958616 132.059124 181.331143 132.996758 181.331143 
z
" clip-path="url(#pc104b75776)"/>
   </g>
   <g id="matplotlib.axis_1"/>
   <g id="matplotlib.axis_2"/>
   <g id="line2d_1">
    <path d="M 412.500414 60.634155 
L 409.854188 57.19267 
L 408.091544 55.070082 
L 404.746006 51.355066 
L 402.441101 49.001972 
L 399.334799 46.058733 
L 395.411716 42.665213 
L 390.677599 38.979445 
L 386.959198 36.354475 
L 382.187945 33.288266 
L 378.401855 31.07001 
L 374.456596 28.94004 
L 370.187693 26.825341 
L 366.105488 24.97225 
L 360.836831 22.804134 
L 356.209005 21.090838 
L 350.779104 19.290108 
L 343.662171 17.244505 
L 337.766314 15.798611 
L 331.313637 14.454783 
L 324.458587 13.28178 
L 319.945936 12.644487 
L 311.368435 11.711167 
L 306.309297 11.323243 
L 297.127569 10.910545 
L 290.673288 10.835422 
L 284.950208 10.911248 
L 275.331307 11.329528 
L 266.545247 12.019536 
L 257.672325 13.005425 
L 249.61215 14.147105 
L 239.790609 15.849799 
L 232.305215 17.375299 
L 224.422363 19.194451 
L 215.811129 21.432318 
L 207.845353 23.738363 
L 199.209411 26.49999 
L 189.591903 29.906069 
L 183.110229 32.405951 
L 175.378912 35.613621 
L 168.295287 38.779957 
L 160.546295 42.510102 
L 154.760501 45.490454 
L 147.017936 49.764302 
L 141.680931 52.919073 
L 135.094957 57.075008 
L 129.264788 61.027175 
L 122.881906 65.695368 
L 117.887638 69.640186 
L 113.042707 73.760249 
L 109.058294 77.407782 
L 105.309902 81.098476 
L 101.087475 85.631417 
L 97.663805 89.6833 
L 94.676274 93.586694 
L 92.426807 96.828365 
L 90.062456 100.622159 
L 88.063175 104.272888 
L 86.194014 108.259751 
L 84.815588 111.798696 
L 83.908924 114.625427 
L 83.281101 117.012092 
L 82.491669 121.212799 
L 82.171833 124.385578 
L 82.096506 126.441963 
L 82.163154 129.179999 
L 82.567638 132.871036 
L 83.322811 136.445645 
L 84.095362 139.002246 
L 84.980394 141.338643 
L 86.276055 144.133464 
L 87.965269 147.122113 
L 89.945666 150.048229 
L 91.891472 152.522135 
L 94.212577 155.108184 
L 97.174881 157.990074 
L 100.715266 160.98483 
L 104.782272 163.979783 
L 109.293261 166.883014 
L 113.445487 169.252197 
L 117.613027 171.394163 
L 122.007505 173.439484 
L 127.448622 175.717444 
L 132.996758 177.795609 
L 132.996758 177.795609 
" clip-path="url(#pc104b75776)" style="fill: none; stroke: #000000; stroke-width: 2; stroke-linecap: square"/>
   </g>
   <g id="patch_3">
    <path d="M 132.996758 177.795609 
Q 108.256309 166.898047 85.562207 156.901852 
" clip-path="url(#pc104b75776)" style="fill: none; stroke: #0000ff; stroke-width: 2; stroke-linecap: round"/>
    <path d="M 92.698237 165.508656 
L 85.562207 156.901852 
L 96.729268 156.35711 
z
" clip-path="url(#pc104b75776)" style="fill: #0000ff; stroke: #0000ff; stroke-width: 2; stroke-linecap: round"/>
   </g>
   <g id="patch_4">
    <path d="M 110.582315 167.646509 
Q 82.106125 158.440464 55.757579 149.922264 
" clip-path="url(#pc104b75776)" style="fill: none; stroke: #0000ff; stroke-width: 2; stroke-linecap: round"/>
    <path d="M 63.734627 157.755955 
L 55.757579 149.922264 
L 66.81076 148.24084 
z
" clip-path="url(#pc104b75776)" style="fill: #0000ff; stroke: #0000ff; stroke-width: 2; stroke-linecap: round"/>
   </g>
   <g id="patch_5">
    <path d="M 94.609381 155.518505 
Q 63.471035 148.333794 34.511511 141.651814 
" clip-path="url(#pc104b75776)" style="fill: none; stroke: #0000ff; stroke-width: 2; stroke-linecap: round"/>
    <path d="M 43.131355 148.772086 
L 34.511511 141.651814 
L 45.379635 139.028101 
z
" clip-path="url(#pc104b75776)" style="fill: #0000ff; stroke: #0000ff; stroke-width: 2; stroke-linecap: round"/>
   </g>
   <g id="patch_6">
    <path d="M 85.152498 141.74518 
Q 52.438005 136.856023 21.935019 132.297374 
" clip-path="url(#pc104b75776)" style="fill: none; stroke: #0000ff; stroke-width: 2; stroke-linecap: round"/>
    <path d="M 31.086142 138.720532 
L 21.935019 132.297374 
L 32.564219 128.830371 
z
" clip-path="url(#pc104b75776)" style="fill: #0000ff; stroke: #0000ff; stroke-width: 2; stroke-linecap: round"/>
   </g>
   <g id="patch_7">
    <path d="M 82.094479 126.720411 
Q 48.870316 124.335382 17.876483 122.11046 
" clip-path="url(#pc104b75776)" style="fill: none; stroke: #0000ff; stroke-width: 2; stroke-linecap: round"/>
    <path d="M 27.492807 127.813644 
L 17.876483 122.11046 
L 28.208824 117.839311 
z
" clip-path="url(#pc104b75776)" style="fill: #0000ff; stroke: #0000ff; stroke-width: 2; stroke-linecap: round"/>
   </g>
   <g id="patch_8">
    <path d="M 85.145013 110.887159 
Q 52.429273 111.141006 21.949533 111.377503 
" clip-path="url(#pc104b75776)" style="fill: none; stroke: #0000ff; stroke-width: 2; stroke-linecap: round"/>
    <path d="M 31.988027 116.299763 
L 21.949533 111.377503 
L 31.910438 106.300064 
z
" clip-path="url(#pc104b75776)" style="fill: #0000ff; stroke: #0000ff; stroke-width: 2; stroke-linecap: round"/>
   </g>
   <g id="patch_9">
    <path d="M 93.862811 94.724424 
Q 62.600037 97.67206 33.563458 100.409797 
" clip-path="url(#pc104b75776)" style="fill: none; stroke: #0000ff; stroke-width: 2; stroke-linecap: round"/>
    <path d="M 43.98865 104.449025 
L 33.563458 100.409797 
L 43.049955 94.49318 
z
" clip-path="url(#pc104b75776)" style="fill: #0000ff; stroke: #0000ff; stroke-width: 2; stroke-linecap: round"/>
   </g>
   <g id="patch_10">
    <path d="M 107.680175 78.732758 
Q 78.720295 84.345671 51.955632 89.533115 
" clip-path="url(#pc104b75776)" style="fill: none; stroke: #0000ff; stroke-width: 2; stroke-linecap: round"/>
    <path d="M 62.724318 92.539008 
L 51.955632 89.533115 
L 60.821558 82.721702 
z
" clip-path="url(#pc104b75776)" style="fill: #0000ff; stroke: #0000ff; stroke-width: 2; stroke-linecap: round"/>
   </g>
   <g id="patch_11">
    <path d="M 125.928882 63.418762 
Q 100.010453 71.584008 76.22476 79.077365 
" clip-path="url(#pc104b75776)" style="fill: none; stroke: #0000ff; stroke-width: 2; stroke-linecap: round"/>
    <path d="M 87.265038 80.841528 
L 76.22476 79.077365 
L 84.260257 71.303641 
z
" clip-path="url(#pc104b75776)" style="fill: #0000ff; stroke: #0000ff; stroke-width: 2; stroke-linecap: round"/>
   </g>
   <g id="patch_12">
    <path d="M 147.866346 49.279064 
Q 125.604162 59.800927 105.363617 69.367294 
" clip-path="url(#pc104b75776)" style="fill: none; stroke: #0000ff; stroke-width: 2; stroke-linecap: round"/>
    <path d="M 116.541219 69.614712 
L 105.363617 69.367294 
L 112.268113 60.573663 
z
" clip-path="url(#pc104b75776)" style="fill: #0000ff; stroke: #0000ff; stroke-width: 2; stroke-linecap: round"/>
   </g>
   <g id="patch_13">
    <path d="M 172.701152 36.784262 
Q 154.578101 49.388591 138.290794 60.716187 
" clip-path="url(#pc104b75776)" style="fill: none; stroke: #0000ff; stroke-width: 2; stroke-linecap: round"/>
    <path d="M 149.355348 59.111307 
L 138.290794 60.716187 
L 143.645622 50.901616 
z
" clip-path="url(#pc104b75776)" style="fill: #0000ff; stroke: #0000ff; stroke-width: 2; stroke-linecap: round"/>
   </g>
   <g id="patch_14">
    <path d="M 199.617158 26.363369 
Q 185.980109 40.704514 173.88392 53.425243 
" clip-path="url(#pc104b75776)" style="fill: none; stroke: #0000ff; stroke-width: 2; stroke-linecap: round"/>
    <path d="M 184.398218 49.623988 
L 173.88392 53.425243 
L 177.151495 42.733052 
z
" clip-path="url(#pc104b75776)" style="fill: #0000ff; stroke: #0000ff; stroke-width: 2; stroke-linecap: round"/>
   </g>
   <g id="patch_15">
    <path d="M 227.795575 18.389265 
Q 218.854929 34.059428 211.022399 47.787407 
" clip-path="url(#pc104b75776)" style="fill: none; stroke: #0000ff; stroke-width: 2; stroke-linecap: round"/>
    <path d="M 220.320904 41.579524 
L 211.022399 47.787407 
L 211.635196 36.623873 
z
" clip-path="url(#pc104b75776)" style="fill: #0000ff; stroke: #0000ff; stroke-width: 2; stroke-linecap: round"/>
   </g>
   <g id="patch_16">
    <path d="M 256.434551 13.165637 
Q 252.267066 29.706404 248.645892 44.078866 
" clip-path="url(#pc104b75776)" style="fill: none; stroke: #0000ff; stroke-width: 2; stroke-linecap: round"/>
    <path d="M 255.937539 35.603497 
L 248.645892 44.078866 
L 246.240584 33.160327 
z
" clip-path="url(#pc104b75776)" style="fill: #0000ff; stroke: #0000ff; stroke-width: 2; stroke-linecap: round"/>
   </g>
   <g id="patch_17">
    <path d="M 284.766003 10.915865 
Q 285.320428 27.831594 285.801603 42.512455 
" clip-path="url(#pc104b75776)" style="fill: none; stroke: #0000ff; stroke-width: 2; stroke-linecap: round"/>
    <path d="M 290.471339 32.354032 
L 285.801603 42.512455 
L 280.476706 32.681613 
z
" clip-path="url(#pc104b75776)" style="fill: #0000ff; stroke: #0000ff; stroke-width: 2; stroke-linecap: round"/>
   </g>
   <g id="patch_18">
    <path d="M 312.069605 11.774254 
Q 317.17463 28.546918 321.628563 43.180405 
" clip-path="url(#pc104b75776)" style="fill: none; stroke: #0000ff; stroke-width: 2; stroke-linecap: round"/>
    <path d="M 323.500135 32.157828 
L 321.628563 43.180405 
L 313.933444 35.069601 
z
" clip-path="url(#pc104b75776)" style="fill: #0000ff; stroke: #0000ff; stroke-width: 2; stroke-linecap: round"/>
   </g>
   <g id="patch_19">
    <path d="M 337.683957 15.779924 
Q 347.05804 31.884977 355.307273 46.05749 
" clip-path="url(#pc104b75776)" style="fill: none; stroke: #0000ff; stroke-width: 2; stroke-linecap: round"/>
    <path d="M 354.598075 34.899665 
L 355.307273 46.05749 
L 345.955495 39.930153 
z
" clip-path="url(#pc104b75776)" style="fill: #0000ff; stroke: #0000ff; stroke-width: 2; stroke-linecap: round"/>
   </g>
   <g id="patch_20">
    <path d="M 361.015146 22.873621 
Q 374.277762 37.796391 386.054944 51.047788 
" clip-path="url(#pc104b75776)" style="fill: none; stroke: #0000ff; stroke-width: 2; stroke-linecap: round"/>
    <path d="M 383.149188 40.25165 
L 386.054944 51.047788 
L 375.67458 46.89471 
z
" clip-path="url(#pc104b75776)" style="fill: #0000ff; stroke: #0000ff; stroke-width: 2; stroke-linecap: round"/>
   </g>
   <g id="patch_21">
    <path d="M 381.542981 32.897599 
Q 398.226902 46.149706 413.159893 58.011042 
" clip-path="url(#pc104b75776)" style="fill: none; stroke: #0000ff; stroke-width: 2; stroke-linecap: round"/>
    <path d="M 408.439354 47.876126 
L 413.159893 58.011042 
L 402.219637 55.706523 
z
" clip-path="url(#pc104b75776)" style="fill: #0000ff; stroke: #0000ff; stroke-width: 2; stroke-linecap: round"/>
   </g>
   <g id="patch_22">
    <path d="M 398.825248 45.598636 
Q 418.389547 56.733903 436.010501 66.763092 
" clip-path="url(#pc104b75776)" style="fill: none; stroke: #0000ff; stroke-width: 2; stroke-linecap: round"/>
    <path d="M 429.792868 57.471104 
L 436.010501 66.763092 
L 424.846331 66.162006 
z
" clip-path="url(#pc104b75776)" style="fill: #0000ff; stroke: #0000ff; stroke-width: 2; stroke-linecap: round"/>
   </g>
   <g id="text_1">
    <!-- $Q$ -->
    <g transform="translate(405.588414 80.213248) scale(0.1728 -0.1728)">
     <defs>
      <path id="Cmmi10-51" d="M 1947 -141 
Q 1466 -141 1094 79 
Q 722 300 520 692 
Q 319 1084 319 1563 
Q 319 2259 714 2950 
Q 1109 3641 1756 4077 
Q 2403 4513 3109 4513 
Q 3475 4513 3778 4381 
Q 4081 4250 4290 4017 
Q 4500 3784 4614 3471 
Q 4728 3159 4728 2791 
Q 4728 2366 4581 1936 
Q 4434 1506 4171 1136 
Q 3909 766 3559 484 
Q 3209 203 2809 38 
Q 2850 -256 2934 -425 
Q 3019 -594 3256 -594 
Q 3506 -594 3726 -412 
Q 3947 -231 4006 13 
Q 4019 72 4078 72 
Q 4147 72 4147 -13 
Q 4100 -219 4008 -430 
Q 3916 -641 3786 -823 
Q 3656 -1006 3478 -1123 
Q 3300 -1241 3084 -1241 
Q 2547 -1241 2547 -550 
Q 2547 -509 2562 -332 
Q 2578 -156 2578 -44 
Q 2269 -141 1947 -141 
z
M 1709 300 
Q 1709 44 1991 44 
Q 2275 44 2591 184 
L 2591 244 
Q 2591 503 2509 648 
Q 2428 794 2194 794 
Q 2078 794 1964 723 
Q 1850 653 1779 539 
Q 1709 425 1709 300 
z
M 1544 288 
Q 1544 456 1637 612 
Q 1731 769 1881 864 
Q 2031 959 2203 959 
Q 2481 959 2607 771 
Q 2734 584 2778 281 
Q 3188 525 3500 978 
Q 3813 1431 3977 1973 
Q 4141 2516 4141 3003 
Q 4141 3356 4023 3656 
Q 3906 3956 3664 4140 
Q 3422 4325 3066 4325 
Q 2722 4325 2403 4156 
Q 2084 3988 1813 3706 
Q 1550 3434 1342 3032 
Q 1134 2631 1021 2193 
Q 909 1756 909 1356 
Q 909 947 1068 612 
Q 1228 278 1569 128 
Q 1544 194 1544 288 
z
" transform="scale(0.015625)"/>
     </defs>
     <use xlink:href="#Cmmi10-51" transform="translate(0 0.484375)"/>
    </g>
   </g>
   <g id="text_2">
    <!-- $P$ -->
    <g transform="translate(127.380758 197.374701) scale(0.1728 -0.1728)">
     <defs>
      <path id="Cmmi10-50" d="M 313 0 
Q 250 0 250 84 
Q 253 100 262 139 
Q 272 178 289 201 
Q 306 225 331 225 
Q 722 225 878 269 
Q 959 297 997 441 
L 1875 3956 
Q 1888 4019 1888 4044 
Q 1888 4113 1813 4122 
Q 1691 4147 1350 4147 
Q 1288 4147 1288 4231 
Q 1291 4247 1300 4286 
Q 1309 4325 1326 4348 
Q 1344 4372 1369 4372 
L 3578 4372 
Q 3881 4372 4165 4264 
Q 4450 4156 4631 3934 
Q 4813 3713 4813 3397 
Q 4813 2991 4527 2672 
Q 4241 2353 3814 2175 
Q 3388 1997 2988 1997 
L 1947 1997 
L 1556 416 
Q 1544 353 1544 325 
Q 1544 300 1551 283 
Q 1559 266 1573 261 
Q 1588 256 1619 250 
Q 1741 225 2081 225 
Q 2144 225 2144 141 
Q 2122 50 2109 25 
Q 2097 0 2034 0 
L 313 0 
z
M 1978 2188 
L 2875 2188 
Q 3497 2188 3822 2522 
Q 3988 2688 4092 3000 
Q 4197 3313 4197 3566 
Q 4197 3881 3956 4014 
Q 3716 4147 3359 4147 
L 2747 4147 
Q 2572 4147 2515 4117 
Q 2459 4088 2413 3928 
L 1978 2188 
z
" transform="scale(0.015625)"/>
     </defs>
     <use xlink:href="#Cmmi10-50" transform="translate(0 0.6875)"/>
    </g>
   </g>
  </g>
 </g>
 <defs>
  <clipPath id="pc104b75776">
   <rect x="7.2" y="7.2" width="439.2" height="189.041923"/>
  </clipPath>
 </defs>
</svg>
