<?xml version="1.0" encoding="utf-8" standalone="no"?>
<!DOCTYPE svg PUBLIC "-//W3C//DTD SVG 1.1//EN"
  "http://www.w3.org/Graphics/SVG/1.1/DTD/svg11.dtd">
<svg xmlns:xlink="http://www.w3.org/1999/xlink" width="453.6pt" height="208.168722pt" viewBox="0 0 453.6 208.168722" xmlns="http://www.w3.org/2000/svg" version="1.1">
 <metadata>
  <rdf:RDF xmlns:dc="http://purl.org/dc/elements/1.1/" xmlns:cc="http://creativecommons.org/ns#" xmlns:rdf="http://www.w3.org/1999/02/22-rdf-syntax-ns#">
   <cc:Work>
    <dc:type rdf:resource="http://purl.org/dc/dcmitype/StillImage"/>
    <dc:date>2025-07-25T20:22:11.998862</dc:date>
    <dc:format>image/svg+xml</dc:format>
    <dc:creator>
     <cc:Agent>
      <dc:title>Matplotlib v3.10.3, https://matplotlib.org/</dc:title>
     </cc:Agent>
    </dc:creator>
   </cc:Work>
  </rdf:RDF>
 </metadata>
 <defs>
  <style type="text/css">*{stroke-linejoin: round; stroke-linecap: butt}</style>
 </defs>
 <g id="figure_1">
  <g id="patch_1">
   <path d="M 0 208.168722 
L 453.6 208.168722 
L 453.6 -0 
L 0 -0 
z
" style="fill: #ffffff"/>
  </g>
  <g id="axes_1">
   <g id="patch_2">
    <path d="M 7.2 196.24225 
L 446.4 196.24225 
L 446.4 7.2 
L 7.2 7.2 
z
" style="fill: #ffffff"/>
   </g>
   <g id="PathCollection_1">
    <path d="M 412.500414 64.17001 
C 413.438048 64.17001 414.337406 63.797483 415.000414 63.134476 
C 415.663422 62.471468 416.035948 61.57211 416.035948 60.634476 
C 416.035948 59.696841 415.663422 58.797483 415.000414 58.134476 
C 414.337406 57.471468 413.438048 57.098942 412.500414 57.098942 
C 411.562779 57.098942 410.663422 57.471468 410.000414 58.134476 
C 409.337406 58.797483 408.96488 59.696841 408.96488 60.634476 
C 408.96488 61.57211 409.337406 62.471468 410.000414 63.134476 
C 410.663422 63.797483 411.562779 64.17001 412.500414 64.17001 
z
" clip-path="url(#p26af22ad28)"/>
   </g>
   <g id="PathCollection_2">
    <path d="M 132.996758 181.331463 
C 133.934393 181.331463 134.833751 180.958937 135.496758 180.295929 
C 136.159766 179.632922 136.532292 178.733564 136.532292 177.795929 
C 136.532292 176.858295 136.159766 175.958937 135.496758 175.295929 
C 134.833751 174.632922 133.934393 174.260395 132.996758 174.260395 
C 132.059124 174.260395 131.159766 174.632922 130.496758 175.295929 
C 129.833751 175.958937 129.461224 176.858295 129.461224 177.795929 
C 129.461224 178.733564 129.833751 179.632922 130.496758 180.295929 
C 131.159766 180.958937 132.059124 181.331463 132.996758 181.331463 
z
" clip-path="url(#p26af22ad28)"/>
   </g>
   <g id="matplotlib.axis_1"/>
   <g id="matplotlib.axis_2"/>
   <g id="line2d_1">
    <path d="M 412.500414 60.634476 
L 410.09139 57.488394 
L 406.69756 53.475772 
L 403.759627 50.329399 
L 400.806393 47.422836 
L 395.92025 43.08689 
L 392.852288 40.621764 
L 389.148106 37.873262 
L 383.853736 34.323069 
L 378.211357 30.963366 
L 371.640194 27.524115 
L 365.858006 24.865244 
L 360.669642 22.739544 
L 355.840112 20.961847 
L 349.505683 18.899024 
L 344.864882 17.566752 
L 338.669723 16.00659 
L 332.807551 14.744939 
L 325.229545 13.401482 
L 318.875575 12.508764 
L 310.792232 11.661363 
L 303.298411 11.147596 
L 296.195413 10.889276 
L 285.947291 10.888915 
L 279.591573 11.100356 
L 272.834396 11.496501 
L 263.02592 12.376561 
L 256.699684 13.131176 
L 247.89534 14.420488 
L 241.129277 15.598038 
L 233.034306 17.218391 
L 224.666821 19.135073 
L 215.321939 21.567682 
L 208.802693 23.449414 
L 199.696715 26.337106 
L 190.028589 29.743982 
L 183.750732 32.151694 
L 177.024503 34.910005 
L 168.730813 38.579068 
L 163.435081 41.085984 
L 156.735345 44.453871 
L 151.319382 47.348163 
L 143.645444 51.737114 
L 138.363353 54.974561 
L 132.370113 58.888289 
L 126.342931 63.116693 
L 121.340511 66.883548 
L 116.223326 71.02056 
L 110.944815 75.648901 
L 107.333449 79.072066 
L 103.824051 82.643607 
L 99.889683 87.005637 
L 96.643978 90.972104 
L 93.958663 94.588778 
L 91.625649 98.063093 
L 88.951493 102.589286 
L 86.912813 106.641644 
L 85.492905 109.974366 
L 84.255668 113.478914 
L 83.348969 116.728954 
L 82.775069 119.439496 
L 82.330108 122.523592 
L 82.110358 125.739019 
L 82.104562 127.767048 
L 82.394529 131.664365 
L 82.873979 134.538565 
L 83.676493 137.69901 
L 84.6283 140.463794 
L 85.784259 143.138738 
L 86.797704 145.119939 
L 88.440662 147.871777 
L 89.843699 149.909263 
L 92.542879 153.283274 
L 94.720313 155.632067 
L 97.732588 158.491004 
L 99.38261 159.906485 
L 102.949261 162.680906 
L 106.770604 165.307378 
L 110.675252 167.700856 
L 115.456384 170.312879 
L 119.620025 172.353585 
L 125.189648 174.803285 
L 131.246758 177.164659 
L 132.996758 177.795929 
L 132.996758 177.795929 
" clip-path="url(#p26af22ad28)" style="fill: none; stroke: #000000; stroke-width: 2; stroke-linecap: square"/>
   </g>
   <g id="patch_3">
    <path d="M 132.996758 177.795929 
Q 108.256309 166.898368 85.562207 156.902172 
" clip-path="url(#p26af22ad28)" style="fill: none; stroke: #0000ff; stroke-width: 2; stroke-linecap: round"/>
    <path d="M 92.698237 165.508976 
L 85.562207 156.902172 
L 96.729268 156.357431 
z
" clip-path="url(#p26af22ad28)" style="fill: #0000ff; stroke: #0000ff; stroke-width: 2; stroke-linecap: round"/>
   </g>
   <g id="patch_4">
    <path d="M 110.582315 167.64683 
Q 82.106125 158.440785 55.757579 149.922584 
" clip-path="url(#p26af22ad28)" style="fill: none; stroke: #0000ff; stroke-width: 2; stroke-linecap: round"/>
    <path d="M 63.734627 157.756275 
L 55.757579 149.922584 
L 66.81076 148.241161 
z
" clip-path="url(#p26af22ad28)" style="fill: #0000ff; stroke: #0000ff; stroke-width: 2; stroke-linecap: round"/>
   </g>
   <g id="patch_5">
    <path d="M 94.609381 155.518826 
Q 63.471035 148.334115 34.511511 141.652134 
" clip-path="url(#p26af22ad28)" style="fill: none; stroke: #0000ff; stroke-width: 2; stroke-linecap: round"/>
    <path d="M 43.131355 148.772406 
L 34.511511 141.652134 
L 45.379635 139.028422 
z
" clip-path="url(#p26af22ad28)" style="fill: #0000ff; stroke: #0000ff; stroke-width: 2; stroke-linecap: round"/>
   </g>
   <g id="patch_6">
    <path d="M 85.152498 141.7455 
Q 52.438005 136.856344 21.935019 132.297695 
" clip-path="url(#p26af22ad28)" style="fill: none; stroke: #0000ff; stroke-width: 2; stroke-linecap: round"/>
    <path d="M 31.086142 138.720853 
L 21.935019 132.297695 
L 32.564219 128.830692 
z
" clip-path="url(#p26af22ad28)" style="fill: #0000ff; stroke: #0000ff; stroke-width: 2; stroke-linecap: round"/>
   </g>
   <g id="patch_7">
    <path d="M 82.094479 126.720731 
Q 48.870316 124.335703 17.876483 122.110781 
" clip-path="url(#p26af22ad28)" style="fill: none; stroke: #0000ff; stroke-width: 2; stroke-linecap: round"/>
    <path d="M 27.492807 127.813964 
L 17.876483 122.110781 
L 28.208824 117.839631 
z
" clip-path="url(#p26af22ad28)" style="fill: #0000ff; stroke: #0000ff; stroke-width: 2; stroke-linecap: round"/>
   </g>
   <g id="patch_8">
    <path d="M 85.145013 110.887479 
Q 52.429273 111.141326 21.949533 111.377823 
" clip-path="url(#p26af22ad28)" style="fill: none; stroke: #0000ff; stroke-width: 2; stroke-linecap: round"/>
    <path d="M 31.988027 116.300084 
L 21.949533 111.377823 
L 31.910438 106.300385 
z
" clip-path="url(#p26af22ad28)" style="fill: #0000ff; stroke: #0000ff; stroke-width: 2; stroke-linecap: round"/>
   </g>
   <g id="patch_9">
    <path d="M 93.862811 94.724745 
Q 62.600037 97.67238 33.563458 100.410118 
" clip-path="url(#p26af22ad28)" style="fill: none; stroke: #0000ff; stroke-width: 2; stroke-linecap: round"/>
    <path d="M 43.98865 104.449345 
L 33.563458 100.410118 
L 43.049955 94.4935 
z
" clip-path="url(#p26af22ad28)" style="fill: #0000ff; stroke: #0000ff; stroke-width: 2; stroke-linecap: round"/>
   </g>
   <g id="patch_10">
    <path d="M 107.680175 78.733078 
Q 78.720295 84.345992 51.955632 89.533435 
" clip-path="url(#p26af22ad28)" style="fill: none; stroke: #0000ff; stroke-width: 2; stroke-linecap: round"/>
    <path d="M 62.724318 92.539329 
L 51.955632 89.533435 
L 60.821558 82.722022 
z
" clip-path="url(#p26af22ad28)" style="fill: #0000ff; stroke: #0000ff; stroke-width: 2; stroke-linecap: round"/>
   </g>
   <g id="patch_11">
    <path d="M 125.928882 63.419083 
Q 100.010453 71.584329 76.22476 79.077686 
" clip-path="url(#p26af22ad28)" style="fill: none; stroke: #0000ff; stroke-width: 2; stroke-linecap: round"/>
    <path d="M 87.265038 80.841848 
L 76.22476 79.077686 
L 84.260257 71.303961 
z
" clip-path="url(#p26af22ad28)" style="fill: #0000ff; stroke: #0000ff; stroke-width: 2; stroke-linecap: round"/>
   </g>
   <g id="patch_12">
    <path d="M 147.866346 49.279385 
Q 125.604162 59.801247 105.363617 69.367614 
" clip-path="url(#p26af22ad28)" style="fill: none; stroke: #0000ff; stroke-width: 2; stroke-linecap: round"/>
    <path d="M 116.541219 69.615033 
L 105.363617 69.367614 
L 112.268113 60.573984 
z
" clip-path="url(#p26af22ad28)" style="fill: #0000ff; stroke: #0000ff; stroke-width: 2; stroke-linecap: round"/>
   </g>
   <g id="patch_13">
    <path d="M 172.701152 36.784582 
Q 154.578101 49.388912 138.290794 60.716508 
" clip-path="url(#p26af22ad28)" style="fill: none; stroke: #0000ff; stroke-width: 2; stroke-linecap: round"/>
    <path d="M 149.355348 59.111627 
L 138.290794 60.716508 
L 143.645622 50.901936 
z
" clip-path="url(#p26af22ad28)" style="fill: #0000ff; stroke: #0000ff; stroke-width: 2; stroke-linecap: round"/>
   </g>
   <g id="patch_14">
    <path d="M 199.617158 26.36369 
Q 185.980109 40.704835 173.88392 53.425563 
" clip-path="url(#p26af22ad28)" style="fill: none; stroke: #0000ff; stroke-width: 2; stroke-linecap: round"/>
    <path d="M 184.398218 49.624309 
L 173.88392 53.425563 
L 177.151495 42.733372 
z
" clip-path="url(#p26af22ad28)" style="fill: #0000ff; stroke: #0000ff; stroke-width: 2; stroke-linecap: round"/>
   </g>
   <g id="patch_15">
    <path d="M 227.795575 18.389586 
Q 218.854929 34.059748 211.022399 47.787727 
" clip-path="url(#p26af22ad28)" style="fill: none; stroke: #0000ff; stroke-width: 2; stroke-linecap: round"/>
    <path d="M 220.320904 41.579844 
L 211.022399 47.787727 
L 211.635196 36.624194 
z
" clip-path="url(#p26af22ad28)" style="fill: #0000ff; stroke: #0000ff; stroke-width: 2; stroke-linecap: round"/>
   </g>
   <g id="patch_16">
    <path d="M 256.434551 13.165957 
Q 252.267066 29.706724 248.645892 44.079187 
" clip-path="url(#p26af22ad28)" style="fill: none; stroke: #0000ff; stroke-width: 2; stroke-linecap: round"/>
    <path d="M 255.937539 35.603817 
L 248.645892 44.079187 
L 246.240584 33.160647 
z
" clip-path="url(#p26af22ad28)" style="fill: #0000ff; stroke: #0000ff; stroke-width: 2; stroke-linecap: round"/>
   </g>
   <g id="patch_17">
    <path d="M 284.766003 10.916185 
Q 285.320428 27.831914 285.801603 42.512776 
" clip-path="url(#p26af22ad28)" style="fill: none; stroke: #0000ff; stroke-width: 2; stroke-linecap: round"/>
    <path d="M 290.471339 32.354352 
L 285.801603 42.512776 
L 280.476706 32.681933 
z
" clip-path="url(#p26af22ad28)" style="fill: #0000ff; stroke: #0000ff; stroke-width: 2; stroke-linecap: round"/>
   </g>
   <g id="patch_18">
    <path d="M 312.069605 11.774574 
Q 317.17463 28.547239 321.628563 43.180726 
" clip-path="url(#p26af22ad28)" style="fill: none; stroke: #0000ff; stroke-width: 2; stroke-linecap: round"/>
    <path d="M 323.500135 32.158148 
L 321.628563 43.180726 
L 313.933444 35.069922 
z
" clip-path="url(#p26af22ad28)" style="fill: #0000ff; stroke: #0000ff; stroke-width: 2; stroke-linecap: round"/>
   </g>
   <g id="patch_19">
    <path d="M 337.683957 15.780245 
Q 347.05804 31.885297 355.307273 46.05781 
" clip-path="url(#p26af22ad28)" style="fill: none; stroke: #0000ff; stroke-width: 2; stroke-linecap: round"/>
    <path d="M 354.598075 34.899986 
L 355.307273 46.05781 
L 345.955495 39.930474 
z
" clip-path="url(#p26af22ad28)" style="fill: #0000ff; stroke: #0000ff; stroke-width: 2; stroke-linecap: round"/>
   </g>
   <g id="patch_20">
    <path d="M 361.015146 22.873942 
Q 374.277762 37.796712 386.054944 51.048108 
" clip-path="url(#p26af22ad28)" style="fill: none; stroke: #0000ff; stroke-width: 2; stroke-linecap: round"/>
    <path d="M 383.149188 40.251971 
L 386.054944 51.048108 
L 375.67458 46.89503 
z
" clip-path="url(#p26af22ad28)" style="fill: #0000ff; stroke: #0000ff; stroke-width: 2; stroke-linecap: round"/>
   </g>
   <g id="patch_21">
    <path d="M 381.542981 32.897919 
Q 398.226902 46.150026 413.159893 58.011362 
" clip-path="url(#p26af22ad28)" style="fill: none; stroke: #0000ff; stroke-width: 2; stroke-linecap: round"/>
    <path d="M 408.439354 47.876447 
L 413.159893 58.011362 
L 402.219637 55.706844 
z
" clip-path="url(#p26af22ad28)" style="fill: #0000ff; stroke: #0000ff; stroke-width: 2; stroke-linecap: round"/>
   </g>
   <g id="patch_22">
    <path d="M 398.825248 45.598957 
Q 418.389547 56.734224 436.010501 66.763412 
" clip-path="url(#p26af22ad28)" style="fill: none; stroke: #0000ff; stroke-width: 2; stroke-linecap: round"/>
    <path d="M 429.792868 57.471425 
L 436.010501 66.763412 
L 424.846331 66.162327 
z
" clip-path="url(#p26af22ad28)" style="fill: #0000ff; stroke: #0000ff; stroke-width: 2; stroke-linecap: round"/>
   </g>
   <g id="text_1">
    <!-- $Q$ -->
    <g transform="translate(405.588414 80.213568) scale(0.1728 -0.1728)">
     <defs>
      <path id="Cmmi10-51" d="M 1947 -141 
Q 1466 -141 1094 79 
Q 722 300 520 692 
Q 319 1084 319 1563 
Q 319 2259 714 2950 
Q 1109 3641 1756 4077 
Q 2403 4513 3109 4513 
Q 3475 4513 3778 4381 
Q 4081 4250 4290 4017 
Q 4500 3784 4614 3471 
Q 4728 3159 4728 2791 
Q 4728 2366 4581 1936 
Q 4434 1506 4171 1136 
Q 3909 766 3559 484 
Q 3209 203 2809 38 
Q 2850 -256 2934 -425 
Q 3019 -594 3256 -594 
Q 3506 -594 3726 -412 
Q 3947 -231 4006 13 
Q 4019 72 4078 72 
Q 4147 72 4147 -13 
Q 4100 -219 4008 -430 
Q 3916 -641 3786 -823 
Q 3656 -1006 3478 -1123 
Q 3300 -1241 3084 -1241 
Q 2547 -1241 2547 -550 
Q 2547 -509 2562 -332 
Q 2578 -156 2578 -44 
Q 2269 -141 1947 -141 
z
M 1709 300 
Q 1709 44 1991 44 
Q 2275 44 2591 184 
L 2591 244 
Q 2591 503 2509 648 
Q 2428 794 2194 794 
Q 2078 794 1964 723 
Q 1850 653 1779 539 
Q 1709 425 1709 300 
z
M 1544 288 
Q 1544 456 1637 612 
Q 1731 769 1881 864 
Q 2031 959 2203 959 
Q 2481 959 2607 771 
Q 2734 584 2778 281 
Q 3188 525 3500 978 
Q 3813 1431 3977 1973 
Q 4141 2516 4141 3003 
Q 4141 3356 4023 3656 
Q 3906 3956 3664 4140 
Q 3422 4325 3066 4325 
Q 2722 4325 2403 4156 
Q 2084 3988 1813 3706 
Q 1550 3434 1342 3032 
Q 1134 2631 1021 2193 
Q 909 1756 909 1356 
Q 909 947 1068 612 
Q 1228 278 1569 128 
Q 1544 194 1544 288 
z
" transform="scale(0.015625)"/>
     </defs>
     <use xlink:href="#Cmmi10-51" transform="translate(0 0.484375)"/>
    </g>
   </g>
   <g id="text_2">
    <!-- $P$ -->
    <g transform="translate(127.380758 197.375022) scale(0.1728 -0.1728)">
     <defs>
      <path id="Cmmi10-50" d="M 313 0 
Q 250 0 250 84 
Q 253 100 262 139 
Q 272 178 289 201 
Q 306 225 331 225 
Q 722 225 878 269 
Q 959 297 997 441 
L 1875 3956 
Q 1888 4019 1888 4044 
Q 1888 4113 1813 4122 
Q 1691 4147 1350 4147 
Q 1288 4147 1288 4231 
Q 1291 4247 1300 4286 
Q 1309 4325 1326 4348 
Q 1344 4372 1369 4372 
L 3578 4372 
Q 3881 4372 4165 4264 
Q 4450 4156 4631 3934 
Q 4813 3713 4813 3397 
Q 4813 2991 4527 2672 
Q 4241 2353 3814 2175 
Q 3388 1997 2988 1997 
L 1947 1997 
L 1556 416 
Q 1544 353 1544 325 
Q 1544 300 1551 283 
Q 1559 266 1573 261 
Q 1588 256 1619 250 
Q 1741 225 2081 225 
Q 2144 225 2144 141 
Q 2122 50 2109 25 
Q 2097 0 2034 0 
L 313 0 
z
M 1978 2188 
L 2875 2188 
Q 3497 2188 3822 2522 
Q 3988 2688 4092 3000 
Q 4197 3313 4197 3566 
Q 4197 3881 3956 4014 
Q 3716 4147 3359 4147 
L 2747 4147 
Q 2572 4147 2515 4117 
Q 2459 4088 2413 3928 
L 1978 2188 
z
" transform="scale(0.015625)"/>
     </defs>
     <use xlink:href="#Cmmi10-50" transform="translate(0 0.6875)"/>
    </g>
   </g>
  </g>
 </g>
 <defs>
  <clipPath id="p26af22ad28">
   <rect x="7.2" y="7.2" width="439.2" height="189.04225"/>
  </clipPath>
 </defs>
</svg>
