<?xml version="1.0" encoding="utf-8" standalone="no"?>
<!DOCTYPE svg PUBLIC "-//W3C//DTD SVG 1.1//EN"
  "http://www.w3.org/Graphics/SVG/1.1/DTD/svg11.dtd">
<svg xmlns:xlink="http://www.w3.org/1999/xlink" width="453.6pt" height="208.16098pt" viewBox="0 0 453.6 208.16098" xmlns="http://www.w3.org/2000/svg" version="1.1">
 <metadata>
  <rdf:RDF xmlns:dc="http://purl.org/dc/elements/1.1/" xmlns:cc="http://creativecommons.org/ns#" xmlns:rdf="http://www.w3.org/1999/02/22-rdf-syntax-ns#">
   <cc:Work>
    <dc:type rdf:resource="http://purl.org/dc/dcmitype/StillImage"/>
    <dc:date>2025-10-29T15:20:51.376187</dc:date>
    <dc:format>image/svg+xml</dc:format>
    <dc:creator>
     <cc:Agent>
      <dc:title>Matplotlib v3.10.5, https://matplotlib.org/</dc:title>
     </cc:Agent>
    </dc:creator>
   </cc:Work>
  </rdf:RDF>
 </metadata>
 <defs>
  <style type="text/css">*{stroke-linejoin: round; stroke-linecap: butt}</style>
 </defs>
 <g id="figure_1">
  <g id="patch_1">
   <path d="M 0 208.16098 
L 453.6 208.16098 
L 453.6 -0 
L 0 -0 
z
" style="fill: #ffffff"/>
  </g>
  <g id="axes_1">
   <g id="patch_2">
    <path d="M 7.2 196.234356 
L 446.4 196.234356 
L 446.4 7.2 
L 7.2 7.2 
z
" style="fill: #ffffff"/>
   </g>
   <g id="PathCollection_1">
    <path d="M 412.500414 64.162268 
C 413.438048 64.162268 414.337406 63.789742 415.000414 63.126734 
C 415.663422 62.463726 416.035948 61.564368 416.035948 60.626734 
C 416.035948 59.689099 415.663422 58.789742 415.000414 58.126734 
C 414.337406 57.463726 413.438048 57.0912 412.500414 57.0912 
C 411.562779 57.0912 410.663422 57.463726 410.000414 58.126734 
C 409.337406 58.789742 408.96488 59.689099 408.96488 60.626734 
C 408.96488 61.564368 409.337406 62.463726 410.000414 63.126734 
C 410.663422 63.789742 411.562779 64.162268 412.500414 64.162268 
z
" clip-path="url(#p91f435f5a4)"/>
   </g>
   <g id="PathCollection_2">
    <path d="M 132.996758 181.323721 
C 133.934393 181.323721 134.833751 180.951195 135.496758 180.288188 
C 136.159766 179.62518 136.532292 178.725822 136.532292 177.788188 
C 136.532292 176.850553 136.159766 175.951195 135.496758 175.288188 
C 134.833751 174.62518 133.934393 174.252654 132.996758 174.252654 
C 132.059124 174.252654 131.159766 174.62518 130.496758 175.288188 
C 129.833751 175.951195 129.461224 176.850553 129.461224 177.788188 
C 129.461224 178.725822 129.833751 179.62518 130.496758 180.288188 
C 131.159766 180.951195 132.059124 181.323721 132.996758 181.323721 
z
" clip-path="url(#p91f435f5a4)"/>
   </g>
   <g id="matplotlib.axis_1"/>
   <g id="matplotlib.axis_2"/>
   <g id="line2d_1">
    <path d="M 412.500414 60.626734 
L 409.3338 56.545521 
L 405.935568 52.625219 
L 402.217724 48.774532 
L 399.395539 46.106564 
L 396.209053 43.320797 
L 392.681021 40.481659 
L 387.200525 36.510843 
L 382.177253 33.274324 
L 377.459276 30.537509 
L 373.114096 28.247124 
L 369.969005 26.714585 
L 366.113334 24.968241 
L 358.726848 21.994315 
L 354.27146 20.415786 
L 347.279033 18.233916 
L 341.448441 16.6688 
L 334.299943 15.039381 
L 330.876039 14.364832 
L 322.08969 12.926845 
L 315.033908 12.059183 
L 306.664704 11.339266 
L 298.488786 10.941267 
L 288.465289 10.841636 
L 280.905367 11.035949 
L 275.83016 11.291646 
L 267.161822 11.95431 
L 257.656813 12.999978 
L 249.19338 14.205327 
L 241.871805 15.453189 
L 232.603264 17.303378 
L 227.250714 18.509191 
L 216.59127 21.211303 
L 207.457987 23.848936 
L 198.516639 26.726122 
L 192.643935 28.779178 
L 183.761865 32.139542 
L 175.835639 35.409655 
L 168.459389 38.69662 
L 161.172582 42.190357 
L 153.7355 46.029474 
L 147.457307 49.505049 
L 140.364975 53.71787 
L 135.611546 56.730314 
L 130.584183 60.100987 
L 124.114378 64.75596 
L 119.303815 68.485303 
L 114.138176 72.793137 
L 108.926378 77.525684 
L 104.536992 81.888313 
L 100.343292 86.472454 
L 97.107616 90.373381 
L 93.798646 94.808315 
L 91.658621 98.0036 
L 89.371907 101.820706 
L 87.487216 105.421358 
L 85.774677 109.25918 
L 84.464881 112.821603 
L 83.514555 116.059132 
L 82.685945 119.942236 
L 82.352688 122.310678 
L 82.10783 125.823553 
L 82.210413 129.857246 
L 82.61288 133.139377 
L 83.325197 136.447276 
L 84.13878 139.121198 
L 84.946968 141.250738 
L 86.243352 144.061973 
L 87.662723 146.619439 
L 89.331064 149.18431 
L 91.093866 151.539968 
L 93.962144 154.837437 
L 96.697264 157.544255 
L 99.895876 160.320607 
L 103.246396 162.88908 
L 107.051041 165.480536 
L 111.72284 168.293008 
L 114.506738 169.8109 
L 120.378619 172.697197 
L 126.271801 175.238903 
L 130.430713 176.855137 
L 132.996758 177.788188 
L 132.996758 177.788188 
" clip-path="url(#p91f435f5a4)" style="fill: none; stroke: #000000; stroke-width: 2; stroke-linecap: square"/>
   </g>
   <g id="patch_3">
    <path d="M 132.996758 177.788188 
Q 108.256309 166.890626 85.562207 156.894431 
" clip-path="url(#p91f435f5a4)" style="fill: none; stroke: #0000ff; stroke-width: 2; stroke-linecap: round"/>
    <path d="M 92.698237 165.501235 
L 85.562207 156.894431 
L 96.729268 156.349689 
z
" clip-path="url(#p91f435f5a4)" style="fill: #0000ff; stroke: #0000ff; stroke-width: 2; stroke-linecap: round"/>
   </g>
   <g id="patch_4">
    <path d="M 110.582315 167.639088 
Q 82.106125 158.433043 55.757579 149.914842 
" clip-path="url(#p91f435f5a4)" style="fill: none; stroke: #0000ff; stroke-width: 2; stroke-linecap: round"/>
    <path d="M 63.734627 157.748533 
L 55.757579 149.914842 
L 66.81076 148.233419 
z
" clip-path="url(#p91f435f5a4)" style="fill: #0000ff; stroke: #0000ff; stroke-width: 2; stroke-linecap: round"/>
   </g>
   <g id="patch_5">
    <path d="M 94.609381 155.511084 
Q 63.471035 148.326373 34.511511 141.644393 
" clip-path="url(#p91f435f5a4)" style="fill: none; stroke: #0000ff; stroke-width: 2; stroke-linecap: round"/>
    <path d="M 43.131355 148.764665 
L 34.511511 141.644393 
L 45.379635 139.02068 
z
" clip-path="url(#p91f435f5a4)" style="fill: #0000ff; stroke: #0000ff; stroke-width: 2; stroke-linecap: round"/>
   </g>
   <g id="patch_6">
    <path d="M 85.152498 141.737759 
Q 52.438005 136.848602 21.935019 132.289953 
" clip-path="url(#p91f435f5a4)" style="fill: none; stroke: #0000ff; stroke-width: 2; stroke-linecap: round"/>
    <path d="M 31.086142 138.713111 
L 21.935019 132.289953 
L 32.564219 128.82295 
z
" clip-path="url(#p91f435f5a4)" style="fill: #0000ff; stroke: #0000ff; stroke-width: 2; stroke-linecap: round"/>
   </g>
   <g id="patch_7">
    <path d="M 82.094479 126.71299 
Q 48.870316 124.327961 17.876483 122.103039 
" clip-path="url(#p91f435f5a4)" style="fill: none; stroke: #0000ff; stroke-width: 2; stroke-linecap: round"/>
    <path d="M 27.492807 127.806223 
L 17.876483 122.103039 
L 28.208824 117.831889 
z
" clip-path="url(#p91f435f5a4)" style="fill: #0000ff; stroke: #0000ff; stroke-width: 2; stroke-linecap: round"/>
   </g>
   <g id="patch_8">
    <path d="M 85.145013 110.879738 
Q 52.429273 111.133584 21.949533 111.370082 
" clip-path="url(#p91f435f5a4)" style="fill: none; stroke: #0000ff; stroke-width: 2; stroke-linecap: round"/>
    <path d="M 31.988027 116.292342 
L 21.949533 111.370082 
L 31.910438 106.292643 
z
" clip-path="url(#p91f435f5a4)" style="fill: #0000ff; stroke: #0000ff; stroke-width: 2; stroke-linecap: round"/>
   </g>
   <g id="patch_9">
    <path d="M 93.862811 94.717003 
Q 62.600037 97.664639 33.563458 100.402376 
" clip-path="url(#p91f435f5a4)" style="fill: none; stroke: #0000ff; stroke-width: 2; stroke-linecap: round"/>
    <path d="M 43.98865 104.441604 
L 33.563458 100.402376 
L 43.049955 94.485759 
z
" clip-path="url(#p91f435f5a4)" style="fill: #0000ff; stroke: #0000ff; stroke-width: 2; stroke-linecap: round"/>
   </g>
   <g id="patch_10">
    <path d="M 107.680175 78.725336 
Q 78.720295 84.33825 51.955632 89.525694 
" clip-path="url(#p91f435f5a4)" style="fill: none; stroke: #0000ff; stroke-width: 2; stroke-linecap: round"/>
    <path d="M 62.724318 92.531587 
L 51.955632 89.525694 
L 60.821558 82.714281 
z
" clip-path="url(#p91f435f5a4)" style="fill: #0000ff; stroke: #0000ff; stroke-width: 2; stroke-linecap: round"/>
   </g>
   <g id="patch_11">
    <path d="M 125.928882 63.411341 
Q 100.010453 71.576587 76.22476 79.069944 
" clip-path="url(#p91f435f5a4)" style="fill: none; stroke: #0000ff; stroke-width: 2; stroke-linecap: round"/>
    <path d="M 87.265038 80.834107 
L 76.22476 79.069944 
L 84.260257 71.29622 
z
" clip-path="url(#p91f435f5a4)" style="fill: #0000ff; stroke: #0000ff; stroke-width: 2; stroke-linecap: round"/>
   </g>
   <g id="patch_12">
    <path d="M 147.866346 49.271643 
Q 125.604162 59.793505 105.363617 69.359872 
" clip-path="url(#p91f435f5a4)" style="fill: none; stroke: #0000ff; stroke-width: 2; stroke-linecap: round"/>
    <path d="M 116.541219 69.607291 
L 105.363617 69.359872 
L 112.268113 60.566242 
z
" clip-path="url(#p91f435f5a4)" style="fill: #0000ff; stroke: #0000ff; stroke-width: 2; stroke-linecap: round"/>
   </g>
   <g id="patch_13">
    <path d="M 172.701152 36.77684 
Q 154.578101 49.38117 138.290794 60.708766 
" clip-path="url(#p91f435f5a4)" style="fill: none; stroke: #0000ff; stroke-width: 2; stroke-linecap: round"/>
    <path d="M 149.355348 59.103886 
L 138.290794 60.708766 
L 143.645622 50.894195 
z
" clip-path="url(#p91f435f5a4)" style="fill: #0000ff; stroke: #0000ff; stroke-width: 2; stroke-linecap: round"/>
   </g>
   <g id="patch_14">
    <path d="M 199.617158 26.355948 
Q 185.980109 40.697093 173.88392 53.417822 
" clip-path="url(#p91f435f5a4)" style="fill: none; stroke: #0000ff; stroke-width: 2; stroke-linecap: round"/>
    <path d="M 184.398218 49.616567 
L 173.88392 53.417822 
L 177.151495 42.72563 
z
" clip-path="url(#p91f435f5a4)" style="fill: #0000ff; stroke: #0000ff; stroke-width: 2; stroke-linecap: round"/>
   </g>
   <g id="patch_15">
    <path d="M 227.795575 18.381844 
Q 218.854929 34.052007 211.022399 47.779985 
" clip-path="url(#p91f435f5a4)" style="fill: none; stroke: #0000ff; stroke-width: 2; stroke-linecap: round"/>
    <path d="M 220.320904 41.572102 
L 211.022399 47.779985 
L 211.635196 36.616452 
z
" clip-path="url(#p91f435f5a4)" style="fill: #0000ff; stroke: #0000ff; stroke-width: 2; stroke-linecap: round"/>
   </g>
   <g id="patch_16">
    <path d="M 256.434551 13.158215 
Q 252.267066 29.698983 248.645892 44.071445 
" clip-path="url(#p91f435f5a4)" style="fill: none; stroke: #0000ff; stroke-width: 2; stroke-linecap: round"/>
    <path d="M 255.937539 35.596076 
L 248.645892 44.071445 
L 246.240584 33.152906 
z
" clip-path="url(#p91f435f5a4)" style="fill: #0000ff; stroke: #0000ff; stroke-width: 2; stroke-linecap: round"/>
   </g>
   <g id="patch_17">
    <path d="M 284.766003 10.908444 
Q 285.320428 27.824173 285.801603 42.505034 
" clip-path="url(#p91f435f5a4)" style="fill: none; stroke: #0000ff; stroke-width: 2; stroke-linecap: round"/>
    <path d="M 290.471339 32.34661 
L 285.801603 42.505034 
L 280.476706 32.674191 
z
" clip-path="url(#p91f435f5a4)" style="fill: #0000ff; stroke: #0000ff; stroke-width: 2; stroke-linecap: round"/>
   </g>
   <g id="patch_18">
    <path d="M 312.069605 11.766833 
Q 317.17463 28.539497 321.628563 43.172984 
" clip-path="url(#p91f435f5a4)" style="fill: none; stroke: #0000ff; stroke-width: 2; stroke-linecap: round"/>
    <path d="M 323.500135 32.150406 
L 321.628563 43.172984 
L 313.933444 35.06218 
z
" clip-path="url(#p91f435f5a4)" style="fill: #0000ff; stroke: #0000ff; stroke-width: 2; stroke-linecap: round"/>
   </g>
   <g id="patch_19">
    <path d="M 337.683957 15.772503 
Q 347.05804 31.877555 355.307273 46.050068 
" clip-path="url(#p91f435f5a4)" style="fill: none; stroke: #0000ff; stroke-width: 2; stroke-linecap: round"/>
    <path d="M 354.598075 34.892244 
L 355.307273 46.050068 
L 345.955495 39.922732 
z
" clip-path="url(#p91f435f5a4)" style="fill: #0000ff; stroke: #0000ff; stroke-width: 2; stroke-linecap: round"/>
   </g>
   <g id="patch_20">
    <path d="M 361.015146 22.8662 
Q 374.277762 37.78897 386.054944 51.040366 
" clip-path="url(#p91f435f5a4)" style="fill: none; stroke: #0000ff; stroke-width: 2; stroke-linecap: round"/>
    <path d="M 383.149188 40.244229 
L 386.054944 51.040366 
L 375.67458 46.887288 
z
" clip-path="url(#p91f435f5a4)" style="fill: #0000ff; stroke: #0000ff; stroke-width: 2; stroke-linecap: round"/>
   </g>
   <g id="patch_21">
    <path d="M 381.542981 32.890178 
Q 398.226902 46.142285 413.159893 58.00362 
" clip-path="url(#p91f435f5a4)" style="fill: none; stroke: #0000ff; stroke-width: 2; stroke-linecap: round"/>
    <path d="M 408.439354 47.868705 
L 413.159893 58.00362 
L 402.219637 55.699102 
z
" clip-path="url(#p91f435f5a4)" style="fill: #0000ff; stroke: #0000ff; stroke-width: 2; stroke-linecap: round"/>
   </g>
   <g id="patch_22">
    <path d="M 398.825248 45.591215 
Q 418.389547 56.726482 436.010501 66.75567 
" clip-path="url(#p91f435f5a4)" style="fill: none; stroke: #0000ff; stroke-width: 2; stroke-linecap: round"/>
    <path d="M 429.792868 57.463683 
L 436.010501 66.75567 
L 424.846331 66.154585 
z
" clip-path="url(#p91f435f5a4)" style="fill: #0000ff; stroke: #0000ff; stroke-width: 2; stroke-linecap: round"/>
   </g>
   <g id="text_1">
    <!-- $Q$ -->
    <g transform="translate(405.588414 80.205826) scale(0.1728 -0.1728)">
     <defs>
      <path id="Cmmi10-51" d="M 1947 -141 
Q 1466 -141 1094 79 
Q 722 300 520 692 
Q 319 1084 319 1563 
Q 319 2259 714 2950 
Q 1109 3641 1756 4077 
Q 2403 4513 3109 4513 
Q 3475 4513 3778 4381 
Q 4081 4250 4290 4017 
Q 4500 3784 4614 3471 
Q 4728 3159 4728 2791 
Q 4728 2366 4581 1936 
Q 4434 1506 4171 1136 
Q 3909 766 3559 484 
Q 3209 203 2809 38 
Q 2850 -256 2934 -425 
Q 3019 -594 3256 -594 
Q 3506 -594 3726 -412 
Q 3947 -231 4006 13 
Q 4019 72 4078 72 
Q 4147 72 4147 -13 
Q 4100 -219 4008 -430 
Q 3916 -641 3786 -823 
Q 3656 -1006 3478 -1123 
Q 3300 -1241 3084 -1241 
Q 2547 -1241 2547 -550 
Q 2547 -509 2562 -332 
Q 2578 -156 2578 -44 
Q 2269 -141 1947 -141 
z
M 1709 300 
Q 1709 44 1991 44 
Q 2275 44 2591 184 
L 2591 244 
Q 2591 503 2509 648 
Q 2428 794 2194 794 
Q 2078 794 1964 723 
Q 1850 653 1779 539 
Q 1709 425 1709 300 
z
M 1544 288 
Q 1544 456 1637 612 
Q 1731 769 1881 864 
Q 2031 959 2203 959 
Q 2481 959 2607 771 
Q 2734 584 2778 281 
Q 3188 525 3500 978 
Q 3813 1431 3977 1973 
Q 4141 2516 4141 3003 
Q 4141 3356 4023 3656 
Q 3906 3956 3664 4140 
Q 3422 4325 3066 4325 
Q 2722 4325 2403 4156 
Q 2084 3988 1813 3706 
Q 1550 3434 1342 3032 
Q 1134 2631 1021 2193 
Q 909 1756 909 1356 
Q 909 947 1068 612 
Q 1228 278 1569 128 
Q 1544 194 1544 288 
z
" transform="scale(0.015625)"/>
     </defs>
     <use xlink:href="#Cmmi10-51" transform="translate(0 0.484375)"/>
    </g>
   </g>
   <g id="text_2">
    <!-- $P$ -->
    <g transform="translate(127.380758 197.36728) scale(0.1728 -0.1728)">
     <defs>
      <path id="Cmmi10-50" d="M 313 0 
Q 250 0 250 84 
Q 253 100 262 139 
Q 272 178 289 201 
Q 306 225 331 225 
Q 722 225 878 269 
Q 959 297 997 441 
L 1875 3956 
Q 1888 4019 1888 4044 
Q 1888 4113 1813 4122 
Q 1691 4147 1350 4147 
Q 1288 4147 1288 4231 
Q 1291 4247 1300 4286 
Q 1309 4325 1326 4348 
Q 1344 4372 1369 4372 
L 3578 4372 
Q 3881 4372 4165 4264 
Q 4450 4156 4631 3934 
Q 4813 3713 4813 3397 
Q 4813 2991 4527 2672 
Q 4241 2353 3814 2175 
Q 3388 1997 2988 1997 
L 1947 1997 
L 1556 416 
Q 1544 353 1544 325 
Q 1544 300 1551 283 
Q 1559 266 1573 261 
Q 1588 256 1619 250 
Q 1741 225 2081 225 
Q 2144 225 2144 141 
Q 2122 50 2109 25 
Q 2097 0 2034 0 
L 313 0 
z
M 1978 2188 
L 2875 2188 
Q 3497 2188 3822 2522 
Q 3988 2688 4092 3000 
Q 4197 3313 4197 3566 
Q 4197 3881 3956 4014 
Q 3716 4147 3359 4147 
L 2747 4147 
Q 2572 4147 2515 4117 
Q 2459 4088 2413 3928 
L 1978 2188 
z
" transform="scale(0.015625)"/>
     </defs>
     <use xlink:href="#Cmmi10-50" transform="translate(0 0.6875)"/>
    </g>
   </g>
  </g>
 </g>
 <defs>
  <clipPath id="p91f435f5a4">
   <rect x="7.2" y="7.2" width="439.2" height="189.034356"/>
  </clipPath>
 </defs>
</svg>
