<?xml version="1.0" encoding="utf-8" standalone="no"?>
<!DOCTYPE svg PUBLIC "-//W3C//DTD SVG 1.1//EN"
  "http://www.w3.org/Graphics/SVG/1.1/DTD/svg11.dtd">
<svg xmlns:xlink="http://www.w3.org/1999/xlink" width="453.6pt" height="208.167235pt" viewBox="0 0 453.6 208.167235" xmlns="http://www.w3.org/2000/svg" version="1.1">
 <metadata>
  <rdf:RDF xmlns:dc="http://purl.org/dc/elements/1.1/" xmlns:cc="http://creativecommons.org/ns#" xmlns:rdf="http://www.w3.org/1999/02/22-rdf-syntax-ns#">
   <cc:Work>
    <dc:type rdf:resource="http://purl.org/dc/dcmitype/StillImage"/>
    <dc:date>2025-08-04T00:36:00.712915</dc:date>
    <dc:format>image/svg+xml</dc:format>
    <dc:creator>
     <cc:Agent>
      <dc:title>Matplotlib v3.10.5, https://matplotlib.org/</dc:title>
     </cc:Agent>
    </dc:creator>
   </cc:Work>
  </rdf:RDF>
 </metadata>
 <defs>
  <style type="text/css">*{stroke-linejoin: round; stroke-linecap: butt}</style>
 </defs>
 <g id="figure_1">
  <g id="patch_1">
   <path d="M 0 208.167235 
L 453.6 208.167235 
L 453.6 0 
L 0 0 
z
" style="fill: #ffffff"/>
  </g>
  <g id="axes_1">
   <g id="patch_2">
    <path d="M 7.2 196.240733 
L 446.4 196.240733 
L 446.4 7.2 
L 7.2 7.2 
z
" style="fill: #ffffff"/>
   </g>
   <g id="PathCollection_1">
    <path d="M 412.500414 64.168522 
C 413.438048 64.168522 414.337406 63.795996 415.000414 63.132989 
C 415.663422 62.469981 416.035948 61.570623 416.035948 60.632989 
C 416.035948 59.695354 415.663422 58.795996 415.000414 58.132989 
C 414.337406 57.469981 413.438048 57.097455 412.500414 57.097455 
C 411.562779 57.097455 410.663422 57.469981 410.000414 58.132989 
C 409.337406 58.795996 408.96488 59.695354 408.96488 60.632989 
C 408.96488 61.570623 409.337406 62.469981 410.000414 63.132989 
C 410.663422 63.795996 411.562779 64.168522 412.500414 64.168522 
z
" clip-path="url(#p4a19f4ee4e)"/>
   </g>
   <g id="PathCollection_2">
    <path d="M 132.996758 181.329976 
C 133.934393 181.329976 134.833751 180.95745 135.496758 180.294442 
C 136.159766 179.631434 136.532292 178.732077 136.532292 177.794442 
C 136.532292 176.856808 136.159766 175.95745 135.496758 175.294442 
C 134.833751 174.631434 133.934393 174.258908 132.996758 174.258908 
C 132.059124 174.258908 131.159766 174.631434 130.496758 175.294442 
C 129.833751 175.95745 129.461224 176.856808 129.461224 177.794442 
C 129.461224 178.732077 129.833751 179.631434 130.496758 180.294442 
C 131.159766 180.95745 132.059124 181.329976 132.996758 181.329976 
z
" clip-path="url(#p4a19f4ee4e)"/>
   </g>
   <g id="matplotlib.axis_1"/>
   <g id="matplotlib.axis_2"/>
   <g id="line2d_1">
    <path d="M 412.500414 60.632989 
L 410.365598 57.831438 
L 407.979048 54.937586 
L 404.949972 51.569762 
L 401.399656 47.986453 
L 399.381697 46.100219 
L 395.96421 43.122075 
L 391.672137 39.7189 
L 387.818576 36.940605 
L 383.007315 33.791288 
L 378.631583 31.198411 
L 375.15056 29.300848 
L 370.036306 26.75259 
L 365.884679 24.875297 
L 360.463258 22.658247 
L 356.796939 21.297933 
L 351.414174 19.488425 
L 345.287473 17.680618 
L 338.778823 16.030514 
L 332.294373 14.642472 
L 323.630506 13.15584 
L 317.067854 12.290391 
L 309.729635 11.571479 
L 301.01179 11.039188 
L 296.414109 10.892525 
L 286.492508 10.876714 
L 282.417887 10.985285 
L 275.498339 11.318057 
L 268.314993 11.856224 
L 258.770467 12.86674 
L 250.621619 13.990261 
L 241.248498 15.574406 
L 232.908931 17.243809 
L 223.312745 19.466913 
L 215.932115 21.397884 
L 210.931916 22.81649 
L 200.229777 26.15811 
L 193.825791 28.361653 
L 184.858385 31.713899 
L 176.519947 35.123114 
L 171.437925 37.346337 
L 163.202152 41.197833 
L 159.438294 43.066316 
L 150.65944 47.710446 
L 145.293113 50.763109 
L 138.888149 54.642925 
L 132.456857 58.828186 
L 126.137616 63.26495 
L 121.789201 66.533668 
L 116.349462 70.913243 
L 111.321079 75.30365 
L 107.113376 79.286956 
L 103.373844 83.120437 
L 100.348715 86.472465 
L 97.257597 90.190343 
L 93.776964 94.84548 
L 91.150605 98.816851 
L 89.255105 102.03621 
L 87.395697 105.616563 
L 85.839296 109.106861 
L 84.7845 111.8862 
L 83.91728 114.595449 
L 82.919756 118.674029 
L 82.513852 121.05405 
L 82.193575 124.056243 
L 82.097744 126.338509 
L 82.237276 130.189258 
L 82.546833 132.738493 
L 83.283353 136.293399 
L 83.77396 138.01592 
L 85.099237 141.619574 
L 86.557621 144.672665 
L 88.018491 147.206539 
L 89.615647 149.592283 
L 91.574037 152.139012 
L 93.97806 154.86053 
L 96.15344 157.039888 
L 99.032815 159.612668 
L 100.88737 161.119116 
L 104.151122 163.539924 
L 107.904441 166.028281 
L 112.052464 168.484645 
L 115.835582 170.505597 
L 119.47266 172.28315 
L 125.070384 174.752326 
L 129.928344 176.673198 
L 132.996758 177.794442 
L 132.996758 177.794442 
" clip-path="url(#p4a19f4ee4e)" style="fill: none; stroke: #000000; stroke-width: 2; stroke-linecap: square"/>
   </g>
   <g id="patch_3">
    <path d="M 132.996758 177.794442 
Q 108.256309 166.896881 85.562207 156.900685 
" clip-path="url(#p4a19f4ee4e)" style="fill: none; stroke: #0000ff; stroke-width: 2; stroke-linecap: round"/>
    <path d="M 92.698237 165.507489 
L 85.562207 156.900685 
L 96.729268 156.355944 
z
" clip-path="url(#p4a19f4ee4e)" style="fill: #0000ff; stroke: #0000ff; stroke-width: 2; stroke-linecap: round"/>
   </g>
   <g id="patch_4">
    <path d="M 110.582315 167.645343 
Q 82.106125 158.439298 55.757579 149.921097 
" clip-path="url(#p4a19f4ee4e)" style="fill: none; stroke: #0000ff; stroke-width: 2; stroke-linecap: round"/>
    <path d="M 63.734627 157.754788 
L 55.757579 149.921097 
L 66.81076 148.239674 
z
" clip-path="url(#p4a19f4ee4e)" style="fill: #0000ff; stroke: #0000ff; stroke-width: 2; stroke-linecap: round"/>
   </g>
   <g id="patch_5">
    <path d="M 94.609381 155.517338 
Q 63.471035 148.332628 34.511511 141.650647 
" clip-path="url(#p4a19f4ee4e)" style="fill: none; stroke: #0000ff; stroke-width: 2; stroke-linecap: round"/>
    <path d="M 43.131355 148.770919 
L 34.511511 141.650647 
L 45.379635 139.026935 
z
" clip-path="url(#p4a19f4ee4e)" style="fill: #0000ff; stroke: #0000ff; stroke-width: 2; stroke-linecap: round"/>
   </g>
   <g id="patch_6">
    <path d="M 85.152498 141.744013 
Q 52.438005 136.854856 21.935019 132.296208 
" clip-path="url(#p4a19f4ee4e)" style="fill: none; stroke: #0000ff; stroke-width: 2; stroke-linecap: round"/>
    <path d="M 31.086142 138.719366 
L 21.935019 132.296208 
L 32.564219 128.829205 
z
" clip-path="url(#p4a19f4ee4e)" style="fill: #0000ff; stroke: #0000ff; stroke-width: 2; stroke-linecap: round"/>
   </g>
   <g id="patch_7">
    <path d="M 82.094479 126.719244 
Q 48.870316 124.334216 17.876483 122.109294 
" clip-path="url(#p4a19f4ee4e)" style="fill: none; stroke: #0000ff; stroke-width: 2; stroke-linecap: round"/>
    <path d="M 27.492807 127.812477 
L 17.876483 122.109294 
L 28.208824 117.838144 
z
" clip-path="url(#p4a19f4ee4e)" style="fill: #0000ff; stroke: #0000ff; stroke-width: 2; stroke-linecap: round"/>
   </g>
   <g id="patch_8">
    <path d="M 85.145013 110.885992 
Q 52.429273 111.139839 21.949533 111.376336 
" clip-path="url(#p4a19f4ee4e)" style="fill: none; stroke: #0000ff; stroke-width: 2; stroke-linecap: round"/>
    <path d="M 31.988027 116.298597 
L 21.949533 111.376336 
L 31.910438 106.298898 
z
" clip-path="url(#p4a19f4ee4e)" style="fill: #0000ff; stroke: #0000ff; stroke-width: 2; stroke-linecap: round"/>
   </g>
   <g id="patch_9">
    <path d="M 93.862811 94.723257 
Q 62.600037 97.670893 33.563458 100.408631 
" clip-path="url(#p4a19f4ee4e)" style="fill: none; stroke: #0000ff; stroke-width: 2; stroke-linecap: round"/>
    <path d="M 43.98865 104.447858 
L 33.563458 100.408631 
L 43.049955 94.492013 
z
" clip-path="url(#p4a19f4ee4e)" style="fill: #0000ff; stroke: #0000ff; stroke-width: 2; stroke-linecap: round"/>
   </g>
   <g id="patch_10">
    <path d="M 107.680175 78.731591 
Q 78.720295 84.344505 51.955632 89.531948 
" clip-path="url(#p4a19f4ee4e)" style="fill: none; stroke: #0000ff; stroke-width: 2; stroke-linecap: round"/>
    <path d="M 62.724318 92.537842 
L 51.955632 89.531948 
L 60.821558 82.720535 
z
" clip-path="url(#p4a19f4ee4e)" style="fill: #0000ff; stroke: #0000ff; stroke-width: 2; stroke-linecap: round"/>
   </g>
   <g id="patch_11">
    <path d="M 125.928882 63.417596 
Q 100.010453 71.582842 76.22476 79.076199 
" clip-path="url(#p4a19f4ee4e)" style="fill: none; stroke: #0000ff; stroke-width: 2; stroke-linecap: round"/>
    <path d="M 87.265038 80.840361 
L 76.22476 79.076199 
L 84.260257 71.302474 
z
" clip-path="url(#p4a19f4ee4e)" style="fill: #0000ff; stroke: #0000ff; stroke-width: 2; stroke-linecap: round"/>
   </g>
   <g id="patch_12">
    <path d="M 147.866346 49.277897 
Q 125.604162 59.79976 105.363617 69.366127 
" clip-path="url(#p4a19f4ee4e)" style="fill: none; stroke: #0000ff; stroke-width: 2; stroke-linecap: round"/>
    <path d="M 116.541219 69.613546 
L 105.363617 69.366127 
L 112.268113 60.572497 
z
" clip-path="url(#p4a19f4ee4e)" style="fill: #0000ff; stroke: #0000ff; stroke-width: 2; stroke-linecap: round"/>
   </g>
   <g id="patch_13">
    <path d="M 172.701152 36.783095 
Q 154.578101 49.387425 138.290794 60.715021 
" clip-path="url(#p4a19f4ee4e)" style="fill: none; stroke: #0000ff; stroke-width: 2; stroke-linecap: round"/>
    <path d="M 149.355348 59.11014 
L 138.290794 60.715021 
L 143.645622 50.900449 
z
" clip-path="url(#p4a19f4ee4e)" style="fill: #0000ff; stroke: #0000ff; stroke-width: 2; stroke-linecap: round"/>
   </g>
   <g id="patch_14">
    <path d="M 199.617158 26.362203 
Q 185.980109 40.703348 173.88392 53.424076 
" clip-path="url(#p4a19f4ee4e)" style="fill: none; stroke: #0000ff; stroke-width: 2; stroke-linecap: round"/>
    <path d="M 184.398218 49.622821 
L 173.88392 53.424076 
L 177.151495 42.731885 
z
" clip-path="url(#p4a19f4ee4e)" style="fill: #0000ff; stroke: #0000ff; stroke-width: 2; stroke-linecap: round"/>
   </g>
   <g id="patch_15">
    <path d="M 227.795575 18.388099 
Q 218.854929 34.058261 211.022399 47.78624 
" clip-path="url(#p4a19f4ee4e)" style="fill: none; stroke: #0000ff; stroke-width: 2; stroke-linecap: round"/>
    <path d="M 220.320904 41.578357 
L 211.022399 47.78624 
L 211.635196 36.622707 
z
" clip-path="url(#p4a19f4ee4e)" style="fill: #0000ff; stroke: #0000ff; stroke-width: 2; stroke-linecap: round"/>
   </g>
   <g id="patch_16">
    <path d="M 256.434551 13.16447 
Q 252.267066 29.705237 248.645892 44.0777 
" clip-path="url(#p4a19f4ee4e)" style="fill: none; stroke: #0000ff; stroke-width: 2; stroke-linecap: round"/>
    <path d="M 255.937539 35.60233 
L 248.645892 44.0777 
L 246.240584 33.15916 
z
" clip-path="url(#p4a19f4ee4e)" style="fill: #0000ff; stroke: #0000ff; stroke-width: 2; stroke-linecap: round"/>
   </g>
   <g id="patch_17">
    <path d="M 284.766003 10.914698 
Q 285.320428 27.830427 285.801603 42.511289 
" clip-path="url(#p4a19f4ee4e)" style="fill: none; stroke: #0000ff; stroke-width: 2; stroke-linecap: round"/>
    <path d="M 290.471339 32.352865 
L 285.801603 42.511289 
L 280.476706 32.680446 
z
" clip-path="url(#p4a19f4ee4e)" style="fill: #0000ff; stroke: #0000ff; stroke-width: 2; stroke-linecap: round"/>
   </g>
   <g id="patch_18">
    <path d="M 312.069605 11.773087 
Q 317.17463 28.545752 321.628563 43.179239 
" clip-path="url(#p4a19f4ee4e)" style="fill: none; stroke: #0000ff; stroke-width: 2; stroke-linecap: round"/>
    <path d="M 323.500135 32.156661 
L 321.628563 43.179239 
L 313.933444 35.068434 
z
" clip-path="url(#p4a19f4ee4e)" style="fill: #0000ff; stroke: #0000ff; stroke-width: 2; stroke-linecap: round"/>
   </g>
   <g id="patch_19">
    <path d="M 337.683957 15.778758 
Q 347.05804 31.88381 355.307273 46.056323 
" clip-path="url(#p4a19f4ee4e)" style="fill: none; stroke: #0000ff; stroke-width: 2; stroke-linecap: round"/>
    <path d="M 354.598075 34.898499 
L 355.307273 46.056323 
L 345.955495 39.928987 
z
" clip-path="url(#p4a19f4ee4e)" style="fill: #0000ff; stroke: #0000ff; stroke-width: 2; stroke-linecap: round"/>
   </g>
   <g id="patch_20">
    <path d="M 361.015146 22.872455 
Q 374.277762 37.795224 386.054944 51.046621 
" clip-path="url(#p4a19f4ee4e)" style="fill: none; stroke: #0000ff; stroke-width: 2; stroke-linecap: round"/>
    <path d="M 383.149188 40.250484 
L 386.054944 51.046621 
L 375.67458 46.893543 
z
" clip-path="url(#p4a19f4ee4e)" style="fill: #0000ff; stroke: #0000ff; stroke-width: 2; stroke-linecap: round"/>
   </g>
   <g id="patch_21">
    <path d="M 381.542981 32.896432 
Q 398.226902 46.148539 413.159893 58.009875 
" clip-path="url(#p4a19f4ee4e)" style="fill: none; stroke: #0000ff; stroke-width: 2; stroke-linecap: round"/>
    <path d="M 408.439354 47.87496 
L 413.159893 58.009875 
L 402.219637 55.705357 
z
" clip-path="url(#p4a19f4ee4e)" style="fill: #0000ff; stroke: #0000ff; stroke-width: 2; stroke-linecap: round"/>
   </g>
   <g id="patch_22">
    <path d="M 398.825248 45.59747 
Q 418.389547 56.732737 436.010501 66.761925 
" clip-path="url(#p4a19f4ee4e)" style="fill: none; stroke: #0000ff; stroke-width: 2; stroke-linecap: round"/>
    <path d="M 429.792868 57.469938 
L 436.010501 66.761925 
L 424.846331 66.16084 
z
" clip-path="url(#p4a19f4ee4e)" style="fill: #0000ff; stroke: #0000ff; stroke-width: 2; stroke-linecap: round"/>
   </g>
   <g id="text_1">
    <!-- $Q$ -->
    <g transform="translate(405.588414 80.212081) scale(0.1728 -0.1728)">
     <defs>
      <path id="Cmmi10-51" d="M 1947 -141 
Q 1466 -141 1094 79 
Q 722 300 520 692 
Q 319 1084 319 1563 
Q 319 2259 714 2950 
Q 1109 3641 1756 4077 
Q 2403 4513 3109 4513 
Q 3475 4513 3778 4381 
Q 4081 4250 4290 4017 
Q 4500 3784 4614 3471 
Q 4728 3159 4728 2791 
Q 4728 2366 4581 1936 
Q 4434 1506 4171 1136 
Q 3909 766 3559 484 
Q 3209 203 2809 38 
Q 2850 -256 2934 -425 
Q 3019 -594 3256 -594 
Q 3506 -594 3726 -412 
Q 3947 -231 4006 13 
Q 4019 72 4078 72 
Q 4147 72 4147 -13 
Q 4100 -219 4008 -430 
Q 3916 -641 3786 -823 
Q 3656 -1006 3478 -1123 
Q 3300 -1241 3084 -1241 
Q 2547 -1241 2547 -550 
Q 2547 -509 2562 -332 
Q 2578 -156 2578 -44 
Q 2269 -141 1947 -141 
z
M 1709 300 
Q 1709 44 1991 44 
Q 2275 44 2591 184 
L 2591 244 
Q 2591 503 2509 648 
Q 2428 794 2194 794 
Q 2078 794 1964 723 
Q 1850 653 1779 539 
Q 1709 425 1709 300 
z
M 1544 288 
Q 1544 456 1637 612 
Q 1731 769 1881 864 
Q 2031 959 2203 959 
Q 2481 959 2607 771 
Q 2734 584 2778 281 
Q 3188 525 3500 978 
Q 3813 1431 3977 1973 
Q 4141 2516 4141 3003 
Q 4141 3356 4023 3656 
Q 3906 3956 3664 4140 
Q 3422 4325 3066 4325 
Q 2722 4325 2403 4156 
Q 2084 3988 1813 3706 
Q 1550 3434 1342 3032 
Q 1134 2631 1021 2193 
Q 909 1756 909 1356 
Q 909 947 1068 612 
Q 1228 278 1569 128 
Q 1544 194 1544 288 
z
" transform="scale(0.015625)"/>
     </defs>
     <use xlink:href="#Cmmi10-51" transform="translate(0 0.484375)"/>
    </g>
   </g>
   <g id="text_2">
    <!-- $P$ -->
    <g transform="translate(127.380758 197.373535) scale(0.1728 -0.1728)">
     <defs>
      <path id="Cmmi10-50" d="M 313 0 
Q 250 0 250 84 
Q 253 100 262 139 
Q 272 178 289 201 
Q 306 225 331 225 
Q 722 225 878 269 
Q 959 297 997 441 
L 1875 3956 
Q 1888 4019 1888 4044 
Q 1888 4113 1813 4122 
Q 1691 4147 1350 4147 
Q 1288 4147 1288 4231 
Q 1291 4247 1300 4286 
Q 1309 4325 1326 4348 
Q 1344 4372 1369 4372 
L 3578 4372 
Q 3881 4372 4165 4264 
Q 4450 4156 4631 3934 
Q 4813 3713 4813 3397 
Q 4813 2991 4527 2672 
Q 4241 2353 3814 2175 
Q 3388 1997 2988 1997 
L 1947 1997 
L 1556 416 
Q 1544 353 1544 325 
Q 1544 300 1551 283 
Q 1559 266 1573 261 
Q 1588 256 1619 250 
Q 1741 225 2081 225 
Q 2144 225 2144 141 
Q 2122 50 2109 25 
Q 2097 0 2034 0 
L 313 0 
z
M 1978 2188 
L 2875 2188 
Q 3497 2188 3822 2522 
Q 3988 2688 4092 3000 
Q 4197 3313 4197 3566 
Q 4197 3881 3956 4014 
Q 3716 4147 3359 4147 
L 2747 4147 
Q 2572 4147 2515 4117 
Q 2459 4088 2413 3928 
L 1978 2188 
z
" transform="scale(0.015625)"/>
     </defs>
     <use xlink:href="#Cmmi10-50" transform="translate(0 0.6875)"/>
    </g>
   </g>
  </g>
 </g>
 <defs>
  <clipPath id="p4a19f4ee4e">
   <rect x="7.2" y="7.2" width="439.2" height="189.040733"/>
  </clipPath>
 </defs>
</svg>
