<?xml version="1.0" encoding="utf-8" standalone="no"?>
<!DOCTYPE svg PUBLIC "-//W3C//DTD SVG 1.1//EN"
  "http://www.w3.org/Graphics/SVG/1.1/DTD/svg11.dtd">
<svg xmlns:xlink="http://www.w3.org/1999/xlink" width="452.367692pt" height="250.25449pt" viewBox="0 0 452.367692 250.25449" xmlns="http://www.w3.org/2000/svg" version="1.1">
 <metadata>
  <rdf:RDF xmlns:dc="http://purl.org/dc/elements/1.1/" xmlns:cc="http://creativecommons.org/ns#" xmlns:rdf="http://www.w3.org/1999/02/22-rdf-syntax-ns#">
   <cc:Work>
    <dc:type rdf:resource="http://purl.org/dc/dcmitype/StillImage"/>
    <dc:date>2025-12-10T16:56:29.039781</dc:date>
    <dc:format>image/svg+xml</dc:format>
    <dc:creator>
     <cc:Agent>
      <dc:title>Matplotlib v3.10.5, https://matplotlib.org/</dc:title>
     </cc:Agent>
    </dc:creator>
   </cc:Work>
  </rdf:RDF>
 </metadata>
 <defs>
  <style type="text/css">*{stroke-linejoin: round; stroke-linecap: butt}</style>
 </defs>
 <g id="figure_1">
  <g id="patch_1">
   <path d="M 0 250.25449 
L 452.367692 250.25449 
L 452.367692 0 
L 0 0 
z
" style="fill: #ffffff"/>
  </g>
  <g id="axes_1">
   <g id="patch_2">
    <path d="M 7.2 237.811195 
L 445.167692 237.811195 
L 445.167692 7.2 
L 7.2 7.2 
z
" style="fill: #ffffff"/>
   </g>
   <g id="PathCollection_1">
    <path d="M 77.71308 218.844199 
C 78.650715 218.844199 79.550072 218.471673 80.21308 217.808666 
C 80.876088 217.145658 81.248614 216.2463 81.248614 215.308666 
C 81.248614 214.371031 80.876088 213.471673 80.21308 212.808666 
C 79.550072 212.145658 78.650715 211.773132 77.71308 211.773132 
C 76.775446 211.773132 75.876088 212.145658 75.21308 212.808666 
C 74.550072 213.471673 74.177546 214.371031 74.177546 215.308666 
C 74.177546 216.2463 74.550072 217.145658 75.21308 217.808666 
C 75.876088 218.471673 76.775446 218.844199 77.71308 218.844199 
z
" clip-path="url(#pd3ec3af4ea)"/>
   </g>
   <g id="PathCollection_2">
    <path d="M 418.677538 75.919802 
C 419.615172 75.919802 420.51453 75.547276 421.177538 74.884268 
C 421.840545 74.221261 422.213071 73.321903 422.213071 72.384268 
C 422.213071 71.446634 421.840545 70.547276 421.177538 69.884268 
C 420.51453 69.221261 419.615172 68.848734 418.677538 68.848734 
C 417.739903 68.848734 416.840545 69.221261 416.177538 69.884268 
C 415.51453 70.547276 415.142004 71.446634 415.142004 72.384268 
C 415.142004 73.321903 415.51453 74.221261 416.177538 74.884268 
C 416.840545 75.547276 417.739903 75.919802 418.677538 75.919802 
z
" clip-path="url(#pd3ec3af4ea)"/>
   </g>
   <g id="matplotlib.axis_1"/>
   <g id="matplotlib.axis_2"/>
   <g id="line2d_1">
    <path d="M 418.677538 72.384268 
L 414.632863 67.184723 
L 410.388465 62.317508 
L 406.153891 57.945625 
L 401.08469 53.233506 
L 396.712602 49.553221 
L 392.213674 46.084061 
L 386.532906 42.103477 
L 384.055856 40.492748 
L 378.291981 37.007762 
L 372.145773 33.657541 
L 365.371551 30.35269 
L 358.261402 27.273465 
L 350.937869 24.475657 
L 343.327526 21.931315 
L 339.621953 20.816267 
L 333.92907 19.251178 
L 326.094435 17.373094 
L 318.401539 15.819105 
L 310.669635 14.527573 
L 306.219761 13.900674 
L 296.183515 12.782338 
L 288.433654 12.185402 
L 279.567968 11.772479 
L 270.806333 11.634831 
L 265.312283 11.680643 
L 255.81174 11.992209 
L 248.200705 12.448323 
L 239.755198 13.163612 
L 230.525118 14.191353 
L 225.269787 14.889374 
L 216.097993 16.301122 
L 206.005875 18.136143 
L 195.491451 20.359879 
L 187.626003 22.231517 
L 177.613167 24.873544 
L 168.896398 27.413049 
L 161.298625 29.811645 
L 151.237013 33.260055 
L 142.337927 36.576791 
L 135.065171 39.4808 
L 124.12803 44.192468 
L 118.479567 46.796599 
L 112.497767 49.688799 
L 103.475159 54.329514 
L 98.54594 57.016103 
L 92.056858 60.729246 
L 86.156862 64.293119 
L 78.89682 68.949346 
L 70.686394 74.622718 
L 63.594307 79.929156 
L 58.083462 84.358963 
L 52.13652 89.497701 
L 48.013058 93.320323 
L 42.566137 98.769208 
L 38.513767 103.187857 
L 35.665309 106.527044 
L 32.642412 110.332282 
L 28.931645 115.478512 
L 25.882296 120.246433 
L 23.552254 124.36438 
L 21.634072 128.209444 
L 19.894545 132.240703 
L 18.673661 135.563977 
L 17.382683 139.879911 
L 16.693255 142.846842 
L 16.127733 146.102845 
L 15.695614 150.432156 
L 15.62341 153.937033 
L 15.741876 156.609095 
L 16.145477 160.189436 
L 16.958153 164.248543 
L 17.708564 166.917496 
L 18.910635 170.278719 
L 20.686339 174.180821 
L 22.462152 177.371931 
L 24.335851 180.257704 
L 27.176861 184.005783 
L 29.213276 186.359626 
L 32.692298 189.918097 
L 35.73138 192.662468 
L 39.112925 195.409913 
L 42.711748 198.050824 
L 46.709448 200.707321 
L 50.966146 203.272671 
L 56.196909 206.118956 
L 62.517579 209.188644 
L 69.085183 212.026341 
L 74.902683 214.289388 
L 77.71308 215.308666 
L 77.71308 215.308666 
" clip-path="url(#pd3ec3af4ea)" style="fill: none; stroke: #000000; stroke-width: 2; stroke-linecap: square"/>
   </g>
   <g id="text_1">
    <!-- $P$ -->
    <g transform="translate(80.24693 238.895115) scale(0.2 -0.2)">
     <defs>
      <path id="Cmmi10-50" d="M 313 0 
Q 250 0 250 84 
Q 253 100 262 139 
Q 272 178 289 201 
Q 306 225 331 225 
Q 722 225 878 269 
Q 959 297 997 441 
L 1875 3956 
Q 1888 4019 1888 4044 
Q 1888 4113 1813 4122 
Q 1691 4147 1350 4147 
Q 1288 4147 1288 4231 
Q 1291 4247 1300 4286 
Q 1309 4325 1326 4348 
Q 1344 4372 1369 4372 
L 3578 4372 
Q 3881 4372 4165 4264 
Q 4450 4156 4631 3934 
Q 4813 3713 4813 3397 
Q 4813 2991 4527 2672 
Q 4241 2353 3814 2175 
Q 3388 1997 2988 1997 
L 1947 1997 
L 1556 416 
Q 1544 353 1544 325 
Q 1544 300 1551 283 
Q 1559 266 1573 261 
Q 1588 256 1619 250 
Q 1741 225 2081 225 
Q 2144 225 2144 141 
Q 2122 50 2109 25 
Q 2097 0 2034 0 
L 313 0 
z
M 1978 2188 
L 2875 2188 
Q 3497 2188 3822 2522 
Q 3988 2688 4092 3000 
Q 4197 3313 4197 3566 
Q 4197 3881 3956 4014 
Q 3716 4147 3359 4147 
L 2747 4147 
Q 2572 4147 2515 4117 
Q 2459 4088 2413 3928 
L 1978 2188 
z
" transform="scale(0.015625)"/>
     </defs>
     <use xlink:href="#Cmmi10-50" transform="translate(0 0.6875)"/>
    </g>
   </g>
   <g id="text_2">
    <!-- $Q$ -->
    <g transform="translate(428.745237 95.970717) scale(0.2 -0.2)">
     <defs>
      <path id="Cmmi10-51" d="M 1947 -141 
Q 1466 -141 1094 79 
Q 722 300 520 692 
Q 319 1084 319 1563 
Q 319 2259 714 2950 
Q 1109 3641 1756 4077 
Q 2403 4513 3109 4513 
Q 3475 4513 3778 4381 
Q 4081 4250 4290 4017 
Q 4500 3784 4614 3471 
Q 4728 3159 4728 2791 
Q 4728 2366 4581 1936 
Q 4434 1506 4171 1136 
Q 3909 766 3559 484 
Q 3209 203 2809 38 
Q 2850 -256 2934 -425 
Q 3019 -594 3256 -594 
Q 3506 -594 3726 -412 
Q 3947 -231 4006 13 
Q 4019 72 4078 72 
Q 4147 72 4147 -13 
Q 4100 -219 4008 -430 
Q 3916 -641 3786 -823 
Q 3656 -1006 3478 -1123 
Q 3300 -1241 3084 -1241 
Q 2547 -1241 2547 -550 
Q 2547 -509 2562 -332 
Q 2578 -156 2578 -44 
Q 2269 -141 1947 -141 
z
M 1709 300 
Q 1709 44 1991 44 
Q 2275 44 2591 184 
L 2591 244 
Q 2591 503 2509 648 
Q 2428 794 2194 794 
Q 2078 794 1964 723 
Q 1850 653 1779 539 
Q 1709 425 1709 300 
z
M 1544 288 
Q 1544 456 1637 612 
Q 1731 769 1881 864 
Q 2031 959 2203 959 
Q 2481 959 2607 771 
Q 2734 584 2778 281 
Q 3188 525 3500 978 
Q 3813 1431 3977 1973 
Q 4141 2516 4141 3003 
Q 4141 3356 4023 3656 
Q 3906 3956 3664 4140 
Q 3422 4325 3066 4325 
Q 2722 4325 2403 4156 
Q 2084 3988 1813 3706 
Q 1550 3434 1342 3032 
Q 1134 2631 1021 2193 
Q 909 1756 909 1356 
Q 909 947 1068 612 
Q 1228 278 1569 128 
Q 1544 194 1544 288 
z
" transform="scale(0.015625)"/>
     </defs>
     <use xlink:href="#Cmmi10-51" transform="translate(0 0.484375)"/>
    </g>
   </g>
  </g>
 </g>
 <defs>
  <clipPath id="pd3ec3af4ea">
   <rect x="7.2" y="7.2" width="437.967692" height="230.611195"/>
  </clipPath>
 </defs>
</svg>
