<?xml version="1.0" encoding="utf-8" standalone="no"?>
<!DOCTYPE svg PUBLIC "-//W3C//DTD SVG 1.1//EN"
  "http://www.w3.org/Graphics/SVG/1.1/DTD/svg11.dtd">
<svg xmlns:xlink="http://www.w3.org/1999/xlink" width="452.367692pt" height="250.250805pt" viewBox="0 0 452.367692 250.250805" xmlns="http://www.w3.org/2000/svg" version="1.1">
 <metadata>
  <rdf:RDF xmlns:dc="http://purl.org/dc/elements/1.1/" xmlns:cc="http://creativecommons.org/ns#" xmlns:rdf="http://www.w3.org/1999/02/22-rdf-syntax-ns#">
   <cc:Work>
    <dc:type rdf:resource="http://purl.org/dc/dcmitype/StillImage"/>
    <dc:date>2025-08-27T14:10:09.952253</dc:date>
    <dc:format>image/svg+xml</dc:format>
    <dc:creator>
     <cc:Agent>
      <dc:title>Matplotlib v3.10.3, https://matplotlib.org/</dc:title>
     </cc:Agent>
    </dc:creator>
   </cc:Work>
  </rdf:RDF>
 </metadata>
 <defs>
  <style type="text/css">*{stroke-linejoin: round; stroke-linecap: butt}</style>
 </defs>
 <g id="figure_1">
  <g id="patch_1">
   <path d="M 0 250.250805 
L 452.367692 250.250805 
L 452.367692 0 
L 0 0 
z
" style="fill: #ffffff"/>
  </g>
  <g id="axes_1">
   <g id="patch_2">
    <path d="M 7.2 237.807439 
L 445.167692 237.807439 
L 445.167692 7.2 
L 7.2 7.2 
z
" style="fill: #ffffff"/>
   </g>
   <g id="PathCollection_1">
    <path d="M 77.717343 218.840729 
C 78.654977 218.840729 79.554335 218.468203 80.217343 217.805195 
C 80.88035 217.142188 81.252877 216.24283 81.252877 215.305195 
C 81.252877 214.367561 80.88035 213.468203 80.217343 212.805195 
C 79.554335 212.142188 78.654977 211.769662 77.717343 211.769662 
C 76.779708 211.769662 75.88035 212.142188 75.217343 212.805195 
C 74.554335 213.468203 74.181809 214.367561 74.181809 215.305195 
C 74.181809 216.24283 74.554335 217.142188 75.217343 217.805195 
C 75.88035 218.468203 76.779708 218.840729 77.717343 218.840729 
z
" clip-path="url(#p5d0e48ee03)"/>
   </g>
   <g id="PathCollection_2">
    <path d="M 418.677752 75.918029 
C 419.615387 75.918029 420.514744 75.545503 421.177752 74.882495 
C 421.84076 74.219487 422.213286 73.32013 422.213286 72.382495 
C 422.213286 71.444861 421.84076 70.545503 421.177752 69.882495 
C 420.514744 69.219487 419.615387 68.846961 418.677752 68.846961 
C 417.740118 68.846961 416.84076 69.219487 416.177752 69.882495 
C 415.514744 70.545503 415.142218 71.444861 415.142218 72.382495 
C 415.142218 73.32013 415.514744 74.219487 416.177752 74.882495 
C 416.84076 75.545503 417.740118 75.918029 418.677752 75.918029 
z
" clip-path="url(#p5d0e48ee03)"/>
   </g>
   <g id="matplotlib.axis_1"/>
   <g id="matplotlib.axis_2"/>
   <g id="line2d_1">
    <path d="M 418.677752 72.382495 
L 415.957408 68.818579 
L 411.948627 64.04278 
L 408.564192 60.37831 
L 405.542173 57.346861 
L 401.893828 53.949698 
L 397.681402 50.339064 
L 392.473493 46.274521 
L 386.997941 42.412155 
L 382.818907 39.712932 
L 378.562406 37.16176 
L 372.367952 33.770856 
L 369.290009 32.215745 
L 362.341285 28.992484 
L 357.766 27.071073 
L 350.940472 24.475019 
L 343.268737 21.911491 
L 339.321144 20.727655 
L 330.743097 18.448621 
L 321.881097 16.486303 
L 312.751488 14.848311 
L 306.240107 13.90207 
L 296.009734 12.765244 
L 289.351104 12.243192 
L 280.232262 11.792611 
L 271.368553 11.634758 
L 264.456977 11.695723 
L 254.305674 12.067128 
L 245.277026 12.670416 
L 235.264776 13.631032 
L 228.294519 14.476935 
L 218.567892 15.896183 
L 209.462102 17.474015 
L 199.38096 19.499676 
L 192.140117 21.13505 
L 181.219131 23.888017 
L 172.545229 26.322338 
L 165.190979 28.560842 
L 154.218734 32.20516 
L 145.067292 35.53228 
L 135.338968 39.368321 
L 126.599307 43.090649 
L 119.61981 46.261471 
L 112.479333 49.698336 
L 102.558508 54.821301 
L 96.09313 58.396027 
L 89.596857 62.193359 
L 82.388444 66.671712 
L 74.610382 71.854464 
L 68.104265 76.509011 
L 61.205434 81.815361 
L 54.620873 87.303334 
L 50.397931 91.083277 
L 44.98632 96.288625 
L 40.975692 100.464632 
L 37.266894 104.626569 
L 34.196768 108.342203 
L 30.957305 112.599464 
L 27.992642 116.890836 
L 25.84941 120.307072 
L 23.942241 123.645405 
L 21.953399 127.540745 
L 20.030735 131.90966 
L 18.422494 136.33512 
L 17.228808 140.50248 
L 16.393291 144.454185 
L 15.89049 148.06608 
L 15.640103 151.875125 
L 15.631509 154.109308 
L 15.794401 157.203109 
L 16.114789 159.949138 
L 16.70914 163.16667 
L 17.658675 166.738854 
L 19.098866 170.725293 
L 20.487462 173.773389 
L 22.361446 177.193329 
L 24.562698 180.571529 
L 26.271599 182.868752 
L 28.304394 185.329161 
L 30.76916 188.006431 
L 34.305222 191.403529 
L 38.073289 194.588385 
L 41.119789 196.908107 
L 44.567438 199.310434 
L 49.382722 202.340942 
L 52.813941 204.30774 
L 56.865518 206.45583 
L 61.817623 208.860821 
L 67.401181 211.324 
L 74.744047 214.225426 
L 77.717343 215.305195 
L 77.717343 215.305195 
" clip-path="url(#p5d0e48ee03)" style="fill: none; stroke: #000000; stroke-width: 2; stroke-linecap: square"/>
   </g>
   <g id="text_1">
    <!-- $P$ -->
    <g transform="translate(80.251085 238.89143) scale(0.2 -0.2)">
     <defs>
      <path id="Cmmi10-50" d="M 313 0 
Q 250 0 250 84 
Q 253 100 262 139 
Q 272 178 289 201 
Q 306 225 331 225 
Q 722 225 878 269 
Q 959 297 997 441 
L 1875 3956 
Q 1888 4019 1888 4044 
Q 1888 4113 1813 4122 
Q 1691 4147 1350 4147 
Q 1288 4147 1288 4231 
Q 1291 4247 1300 4286 
Q 1309 4325 1326 4348 
Q 1344 4372 1369 4372 
L 3578 4372 
Q 3881 4372 4165 4264 
Q 4450 4156 4631 3934 
Q 4813 3713 4813 3397 
Q 4813 2991 4527 2672 
Q 4241 2353 3814 2175 
Q 3388 1997 2988 1997 
L 1947 1997 
L 1556 416 
Q 1544 353 1544 325 
Q 1544 300 1551 283 
Q 1559 266 1573 261 
Q 1588 256 1619 250 
Q 1741 225 2081 225 
Q 2144 225 2144 141 
Q 2122 50 2109 25 
Q 2097 0 2034 0 
L 313 0 
z
M 1978 2188 
L 2875 2188 
Q 3497 2188 3822 2522 
Q 3988 2688 4092 3000 
Q 4197 3313 4197 3566 
Q 4197 3881 3956 4014 
Q 3716 4147 3359 4147 
L 2747 4147 
Q 2572 4147 2515 4117 
Q 2459 4088 2413 3928 
L 1978 2188 
z
" transform="scale(0.015625)"/>
     </defs>
     <use xlink:href="#Cmmi10-50" transform="translate(0 0.6875)"/>
    </g>
   </g>
   <g id="text_2">
    <!-- $Q$ -->
    <g transform="translate(428.745237 95.96873) scale(0.2 -0.2)">
     <defs>
      <path id="Cmmi10-51" d="M 1947 -141 
Q 1466 -141 1094 79 
Q 722 300 520 692 
Q 319 1084 319 1563 
Q 319 2259 714 2950 
Q 1109 3641 1756 4077 
Q 2403 4513 3109 4513 
Q 3475 4513 3778 4381 
Q 4081 4250 4290 4017 
Q 4500 3784 4614 3471 
Q 4728 3159 4728 2791 
Q 4728 2366 4581 1936 
Q 4434 1506 4171 1136 
Q 3909 766 3559 484 
Q 3209 203 2809 38 
Q 2850 -256 2934 -425 
Q 3019 -594 3256 -594 
Q 3506 -594 3726 -412 
Q 3947 -231 4006 13 
Q 4019 72 4078 72 
Q 4147 72 4147 -13 
Q 4100 -219 4008 -430 
Q 3916 -641 3786 -823 
Q 3656 -1006 3478 -1123 
Q 3300 -1241 3084 -1241 
Q 2547 -1241 2547 -550 
Q 2547 -509 2562 -332 
Q 2578 -156 2578 -44 
Q 2269 -141 1947 -141 
z
M 1709 300 
Q 1709 44 1991 44 
Q 2275 44 2591 184 
L 2591 244 
Q 2591 503 2509 648 
Q 2428 794 2194 794 
Q 2078 794 1964 723 
Q 1850 653 1779 539 
Q 1709 425 1709 300 
z
M 1544 288 
Q 1544 456 1637 612 
Q 1731 769 1881 864 
Q 2031 959 2203 959 
Q 2481 959 2607 771 
Q 2734 584 2778 281 
Q 3188 525 3500 978 
Q 3813 1431 3977 1973 
Q 4141 2516 4141 3003 
Q 4141 3356 4023 3656 
Q 3906 3956 3664 4140 
Q 3422 4325 3066 4325 
Q 2722 4325 2403 4156 
Q 2084 3988 1813 3706 
Q 1550 3434 1342 3032 
Q 1134 2631 1021 2193 
Q 909 1756 909 1356 
Q 909 947 1068 612 
Q 1228 278 1569 128 
Q 1544 194 1544 288 
z
" transform="scale(0.015625)"/>
     </defs>
     <use xlink:href="#Cmmi10-51" transform="translate(0 0.484375)"/>
    </g>
   </g>
  </g>
 </g>
 <defs>
  <clipPath id="p5d0e48ee03">
   <rect x="7.2" y="7.2" width="437.967692" height="230.607439"/>
  </clipPath>
 </defs>
</svg>
