<?xml version="1.0" encoding="utf-8" standalone="no"?>
<!DOCTYPE svg PUBLIC "-//W3C//DTD SVG 1.1//EN"
  "http://www.w3.org/Graphics/SVG/1.1/DTD/svg11.dtd">
<svg xmlns:xlink="http://www.w3.org/1999/xlink" width="453.6pt" height="208.166544pt" viewBox="0 0 453.6 208.166544" xmlns="http://www.w3.org/2000/svg" version="1.1">
 <metadata>
  <rdf:RDF xmlns:dc="http://purl.org/dc/elements/1.1/" xmlns:cc="http://creativecommons.org/ns#" xmlns:rdf="http://www.w3.org/1999/02/22-rdf-syntax-ns#">
   <cc:Work>
    <dc:type rdf:resource="http://purl.org/dc/dcmitype/StillImage"/>
    <dc:date>2025-06-25T15:24:47.411258</dc:date>
    <dc:format>image/svg+xml</dc:format>
    <dc:creator>
     <cc:Agent>
      <dc:title>Matplotlib v3.10.3, https://matplotlib.org/</dc:title>
     </cc:Agent>
    </dc:creator>
   </cc:Work>
  </rdf:RDF>
 </metadata>
 <defs>
  <style type="text/css">*{stroke-linejoin: round; stroke-linecap: butt}</style>
 </defs>
 <g id="figure_1">
  <g id="patch_1">
   <path d="M 0 208.166544 
L 453.6 208.166544 
L 453.6 0 
L 0 0 
z
" style="fill: #ffffff"/>
  </g>
  <g id="axes_1">
   <g id="patch_2">
    <path d="M 7.2 196.240029 
L 446.4 196.240029 
L 446.4 7.2 
L 7.2 7.2 
z
" style="fill: #ffffff"/>
   </g>
   <g id="PathCollection_1">
    <path d="M 412.500414 64.167832 
C 413.438048 64.167832 414.337406 63.795306 415.000414 63.132298 
C 415.663422 62.46929 416.035948 61.569933 416.035948 60.632298 
C 416.035948 59.694664 415.663422 58.795306 415.000414 58.132298 
C 414.337406 57.46929 413.438048 57.096764 412.500414 57.096764 
C 411.562779 57.096764 410.663422 57.46929 410.000414 58.132298 
C 409.337406 58.795306 408.96488 59.694664 408.96488 60.632298 
C 408.96488 61.569933 409.337406 62.46929 410.000414 63.132298 
C 410.663422 63.795306 411.562779 64.167832 412.500414 64.167832 
z
" clip-path="url(#pd79477320a)"/>
   </g>
   <g id="PathCollection_2">
    <path d="M 132.996758 181.329286 
C 133.934393 181.329286 134.833751 180.956759 135.496758 180.293752 
C 136.159766 179.630744 136.532292 178.731386 136.532292 177.793752 
C 136.532292 176.856117 136.159766 175.956759 135.496758 175.293752 
C 134.833751 174.630744 133.934393 174.258218 132.996758 174.258218 
C 132.059124 174.258218 131.159766 174.630744 130.496758 175.293752 
C 129.833751 175.956759 129.461224 176.856117 129.461224 177.793752 
C 129.461224 178.731386 129.833751 179.630744 130.496758 180.293752 
C 131.159766 180.956759 132.059124 181.329286 132.996758 181.329286 
z
" clip-path="url(#pd79477320a)"/>
   </g>
   <g id="matplotlib.axis_1"/>
   <g id="matplotlib.axis_2"/>
   <g id="line2d_1">
    <path d="M 412.500414 60.632298 
L 409.188538 56.374514 
L 405.510952 52.169535 
L 402.674995 49.231959 
L 400.539431 47.169291 
L 396.889645 43.902705 
L 392.333082 40.219956 
L 389.034126 37.790158 
L 384.206614 34.544866 
L 380.385946 32.208287 
L 375.849653 29.670173 
L 369.960648 26.716209 
L 364.060539 24.10009 
L 359.387436 22.247195 
L 353.094279 20.029469 
L 347.562154 18.321185 
L 343.229532 17.129131 
L 336.708094 15.55973 
L 330.664838 14.330945 
L 322.843709 13.039886 
L 315.404634 12.104258 
L 310.943904 11.67223 
L 304.229538 11.195535 
L 299.130733 10.967559 
L 288.972969 10.842315 
L 282.692443 10.975221 
L 275.554179 11.313945 
L 268.046488 11.879388 
L 258.045886 12.9563 
L 250.644619 13.986066 
L 244.574852 14.976028 
L 235.991617 16.597594 
L 228.521677 18.219324 
L 219.38142 20.470701 
L 210.01105 23.086874 
L 201.648262 25.690237 
L 196.191464 27.528822 
L 188.207518 30.424047 
L 179.163821 34.009992 
L 170.529711 37.755015 
L 162.107353 41.733387 
L 154.426583 45.665987 
L 149.705992 48.239713 
L 141.376811 53.102504 
L 135.229519 56.985103 
L 129.237351 61.044582 
L 123.547418 65.188335 
L 117.197436 70.206405 
L 112.032544 74.659116 
L 106.878657 79.518098 
L 102.564137 83.992727 
L 99.863964 87.033445 
L 96.141565 91.620621 
L 93.018759 95.943385 
L 90.971676 99.105474 
L 88.888949 102.702159 
L 87.398375 105.61032 
L 86.106286 108.464338 
L 84.759673 111.956672 
L 83.790211 115.040007 
L 82.879151 118.880692 
L 82.471535 121.357737 
L 82.184755 124.183907 
L 82.098332 127.433678 
L 82.211355 129.874855 
L 82.693812 133.608826 
L 83.255365 136.183935 
L 84.223601 139.369542 
L 85.344193 142.181609 
L 86.992486 145.470073 
L 88.715103 148.287452 
L 90.764796 151.128191 
L 92.953745 153.746099 
L 95.744962 156.647235 
L 97.629694 158.397356 
L 101.208025 161.368555 
L 104.967402 164.104954 
L 109.74521 167.151892 
L 114.428972 169.775482 
L 120.018803 172.536847 
L 125.244146 174.823673 
L 131.359716 177.203877 
L 132.996758 177.793752 
L 132.996758 177.793752 
" clip-path="url(#pd79477320a)" style="fill: none; stroke: #000000; stroke-width: 2; stroke-linecap: square"/>
   </g>
   <g id="patch_3">
    <path d="M 132.996758 177.793752 
Q 108.256309 166.89619 85.562207 156.899995 
" clip-path="url(#pd79477320a)" style="fill: none; stroke: #0000ff; stroke-width: 2; stroke-linecap: round"/>
    <path d="M 92.698237 165.506799 
L 85.562207 156.899995 
L 96.729268 156.355253 
z
" clip-path="url(#pd79477320a)" style="fill: #0000ff; stroke: #0000ff; stroke-width: 2; stroke-linecap: round"/>
   </g>
   <g id="patch_4">
    <path d="M 110.582315 167.644652 
Q 82.106125 158.438607 55.757579 149.920407 
" clip-path="url(#pd79477320a)" style="fill: none; stroke: #0000ff; stroke-width: 2; stroke-linecap: round"/>
    <path d="M 63.734627 157.754098 
L 55.757579 149.920407 
L 66.81076 148.238983 
z
" clip-path="url(#pd79477320a)" style="fill: #0000ff; stroke: #0000ff; stroke-width: 2; stroke-linecap: round"/>
   </g>
   <g id="patch_5">
    <path d="M 94.609381 155.516648 
Q 63.471035 148.331937 34.511511 141.649957 
" clip-path="url(#pd79477320a)" style="fill: none; stroke: #0000ff; stroke-width: 2; stroke-linecap: round"/>
    <path d="M 43.131355 148.770229 
L 34.511511 141.649957 
L 45.379635 139.026244 
z
" clip-path="url(#pd79477320a)" style="fill: #0000ff; stroke: #0000ff; stroke-width: 2; stroke-linecap: round"/>
   </g>
   <g id="patch_6">
    <path d="M 85.152498 141.743323 
Q 52.438005 136.854166 21.935019 132.295517 
" clip-path="url(#pd79477320a)" style="fill: none; stroke: #0000ff; stroke-width: 2; stroke-linecap: round"/>
    <path d="M 31.086142 138.718675 
L 21.935019 132.295517 
L 32.564219 128.828514 
z
" clip-path="url(#pd79477320a)" style="fill: #0000ff; stroke: #0000ff; stroke-width: 2; stroke-linecap: round"/>
   </g>
   <g id="patch_7">
    <path d="M 82.094479 126.718554 
Q 48.870316 124.333525 17.876483 122.108603 
" clip-path="url(#pd79477320a)" style="fill: none; stroke: #0000ff; stroke-width: 2; stroke-linecap: round"/>
    <path d="M 27.492807 127.811787 
L 17.876483 122.108603 
L 28.208824 117.837454 
z
" clip-path="url(#pd79477320a)" style="fill: #0000ff; stroke: #0000ff; stroke-width: 2; stroke-linecap: round"/>
   </g>
   <g id="patch_8">
    <path d="M 85.145013 110.885302 
Q 52.429273 111.139149 21.949533 111.375646 
" clip-path="url(#pd79477320a)" style="fill: none; stroke: #0000ff; stroke-width: 2; stroke-linecap: round"/>
    <path d="M 31.988027 116.297906 
L 21.949533 111.375646 
L 31.910438 106.298207 
z
" clip-path="url(#pd79477320a)" style="fill: #0000ff; stroke: #0000ff; stroke-width: 2; stroke-linecap: round"/>
   </g>
   <g id="patch_9">
    <path d="M 93.862811 94.722567 
Q 62.600037 97.670203 33.563458 100.40794 
" clip-path="url(#pd79477320a)" style="fill: none; stroke: #0000ff; stroke-width: 2; stroke-linecap: round"/>
    <path d="M 43.98865 104.447168 
L 33.563458 100.40794 
L 43.049955 94.491323 
z
" clip-path="url(#pd79477320a)" style="fill: #0000ff; stroke: #0000ff; stroke-width: 2; stroke-linecap: round"/>
   </g>
   <g id="patch_10">
    <path d="M 107.680175 78.7309 
Q 78.720295 84.343814 51.955632 89.531258 
" clip-path="url(#pd79477320a)" style="fill: none; stroke: #0000ff; stroke-width: 2; stroke-linecap: round"/>
    <path d="M 62.724318 92.537151 
L 51.955632 89.531258 
L 60.821558 82.719845 
z
" clip-path="url(#pd79477320a)" style="fill: #0000ff; stroke: #0000ff; stroke-width: 2; stroke-linecap: round"/>
   </g>
   <g id="patch_11">
    <path d="M 125.928882 63.416905 
Q 100.010453 71.582151 76.22476 79.075508 
" clip-path="url(#pd79477320a)" style="fill: none; stroke: #0000ff; stroke-width: 2; stroke-linecap: round"/>
    <path d="M 87.265038 80.839671 
L 76.22476 79.075508 
L 84.260257 71.301784 
z
" clip-path="url(#pd79477320a)" style="fill: #0000ff; stroke: #0000ff; stroke-width: 2; stroke-linecap: round"/>
   </g>
   <g id="patch_12">
    <path d="M 147.866346 49.277207 
Q 125.604162 59.79907 105.363617 69.365437 
" clip-path="url(#pd79477320a)" style="fill: none; stroke: #0000ff; stroke-width: 2; stroke-linecap: round"/>
    <path d="M 116.541219 69.612855 
L 105.363617 69.365437 
L 112.268113 60.571806 
z
" clip-path="url(#pd79477320a)" style="fill: #0000ff; stroke: #0000ff; stroke-width: 2; stroke-linecap: round"/>
   </g>
   <g id="patch_13">
    <path d="M 172.701152 36.782405 
Q 154.578101 49.386734 138.290794 60.71433 
" clip-path="url(#pd79477320a)" style="fill: none; stroke: #0000ff; stroke-width: 2; stroke-linecap: round"/>
    <path d="M 149.355348 59.10945 
L 138.290794 60.71433 
L 143.645622 50.899759 
z
" clip-path="url(#pd79477320a)" style="fill: #0000ff; stroke: #0000ff; stroke-width: 2; stroke-linecap: round"/>
   </g>
   <g id="patch_14">
    <path d="M 199.617158 26.361512 
Q 185.980109 40.702657 173.88392 53.423386 
" clip-path="url(#pd79477320a)" style="fill: none; stroke: #0000ff; stroke-width: 2; stroke-linecap: round"/>
    <path d="M 184.398218 49.622131 
L 173.88392 53.423386 
L 177.151495 42.731195 
z
" clip-path="url(#pd79477320a)" style="fill: #0000ff; stroke: #0000ff; stroke-width: 2; stroke-linecap: round"/>
   </g>
   <g id="patch_15">
    <path d="M 227.795575 18.387408 
Q 218.854929 34.057571 211.022399 47.78555 
" clip-path="url(#pd79477320a)" style="fill: none; stroke: #0000ff; stroke-width: 2; stroke-linecap: round"/>
    <path d="M 220.320904 41.577667 
L 211.022399 47.78555 
L 211.635196 36.622016 
z
" clip-path="url(#pd79477320a)" style="fill: #0000ff; stroke: #0000ff; stroke-width: 2; stroke-linecap: round"/>
   </g>
   <g id="patch_16">
    <path d="M 256.434551 13.16378 
Q 252.267066 29.704547 248.645892 44.077009 
" clip-path="url(#pd79477320a)" style="fill: none; stroke: #0000ff; stroke-width: 2; stroke-linecap: round"/>
    <path d="M 255.937539 35.60164 
L 248.645892 44.077009 
L 246.240584 33.15847 
z
" clip-path="url(#pd79477320a)" style="fill: #0000ff; stroke: #0000ff; stroke-width: 2; stroke-linecap: round"/>
   </g>
   <g id="patch_17">
    <path d="M 284.766003 10.914008 
Q 285.320428 27.829737 285.801603 42.510598 
" clip-path="url(#pd79477320a)" style="fill: none; stroke: #0000ff; stroke-width: 2; stroke-linecap: round"/>
    <path d="M 290.471339 32.352175 
L 285.801603 42.510598 
L 280.476706 32.679756 
z
" clip-path="url(#pd79477320a)" style="fill: #0000ff; stroke: #0000ff; stroke-width: 2; stroke-linecap: round"/>
   </g>
   <g id="patch_18">
    <path d="M 312.069605 11.772397 
Q 317.17463 28.545061 321.628563 43.178548 
" clip-path="url(#pd79477320a)" style="fill: none; stroke: #0000ff; stroke-width: 2; stroke-linecap: round"/>
    <path d="M 323.500135 32.155971 
L 321.628563 43.178548 
L 313.933444 35.067744 
z
" clip-path="url(#pd79477320a)" style="fill: #0000ff; stroke: #0000ff; stroke-width: 2; stroke-linecap: round"/>
   </g>
   <g id="patch_19">
    <path d="M 337.683957 15.778067 
Q 347.05804 31.88312 355.307273 46.055633 
" clip-path="url(#pd79477320a)" style="fill: none; stroke: #0000ff; stroke-width: 2; stroke-linecap: round"/>
    <path d="M 354.598075 34.897808 
L 355.307273 46.055633 
L 345.955495 39.928296 
z
" clip-path="url(#pd79477320a)" style="fill: #0000ff; stroke: #0000ff; stroke-width: 2; stroke-linecap: round"/>
   </g>
   <g id="patch_20">
    <path d="M 361.015146 22.871764 
Q 374.277762 37.794534 386.054944 51.045931 
" clip-path="url(#pd79477320a)" style="fill: none; stroke: #0000ff; stroke-width: 2; stroke-linecap: round"/>
    <path d="M 383.149188 40.249793 
L 386.054944 51.045931 
L 375.67458 46.892853 
z
" clip-path="url(#pd79477320a)" style="fill: #0000ff; stroke: #0000ff; stroke-width: 2; stroke-linecap: round"/>
   </g>
   <g id="patch_21">
    <path d="M 381.542981 32.895742 
Q 398.226902 46.147849 413.159893 58.009184 
" clip-path="url(#pd79477320a)" style="fill: none; stroke: #0000ff; stroke-width: 2; stroke-linecap: round"/>
    <path d="M 408.439354 47.874269 
L 413.159893 58.009184 
L 402.219637 55.704666 
z
" clip-path="url(#pd79477320a)" style="fill: #0000ff; stroke: #0000ff; stroke-width: 2; stroke-linecap: round"/>
   </g>
   <g id="patch_22">
    <path d="M 398.825248 45.596779 
Q 418.389547 56.732046 436.010501 66.761234 
" clip-path="url(#pd79477320a)" style="fill: none; stroke: #0000ff; stroke-width: 2; stroke-linecap: round"/>
    <path d="M 429.792868 57.469247 
L 436.010501 66.761234 
L 424.846331 66.160149 
z
" clip-path="url(#pd79477320a)" style="fill: #0000ff; stroke: #0000ff; stroke-width: 2; stroke-linecap: round"/>
   </g>
   <g id="text_1">
    <!-- $Q$ -->
    <g transform="translate(405.588414 80.211391) scale(0.1728 -0.1728)">
     <defs>
      <path id="Cmmi10-51" d="M 1947 -141 
Q 1466 -141 1094 79 
Q 722 300 520 692 
Q 319 1084 319 1563 
Q 319 2259 714 2950 
Q 1109 3641 1756 4077 
Q 2403 4513 3109 4513 
Q 3475 4513 3778 4381 
Q 4081 4250 4290 4017 
Q 4500 3784 4614 3471 
Q 4728 3159 4728 2791 
Q 4728 2366 4581 1936 
Q 4434 1506 4171 1136 
Q 3909 766 3559 484 
Q 3209 203 2809 38 
Q 2850 -256 2934 -425 
Q 3019 -594 3256 -594 
Q 3506 -594 3726 -412 
Q 3947 -231 4006 13 
Q 4019 72 4078 72 
Q 4147 72 4147 -13 
Q 4100 -219 4008 -430 
Q 3916 -641 3786 -823 
Q 3656 -1006 3478 -1123 
Q 3300 -1241 3084 -1241 
Q 2547 -1241 2547 -550 
Q 2547 -509 2562 -332 
Q 2578 -156 2578 -44 
Q 2269 -141 1947 -141 
z
M 1709 300 
Q 1709 44 1991 44 
Q 2275 44 2591 184 
L 2591 244 
Q 2591 503 2509 648 
Q 2428 794 2194 794 
Q 2078 794 1964 723 
Q 1850 653 1779 539 
Q 1709 425 1709 300 
z
M 1544 288 
Q 1544 456 1637 612 
Q 1731 769 1881 864 
Q 2031 959 2203 959 
Q 2481 959 2607 771 
Q 2734 584 2778 281 
Q 3188 525 3500 978 
Q 3813 1431 3977 1973 
Q 4141 2516 4141 3003 
Q 4141 3356 4023 3656 
Q 3906 3956 3664 4140 
Q 3422 4325 3066 4325 
Q 2722 4325 2403 4156 
Q 2084 3988 1813 3706 
Q 1550 3434 1342 3032 
Q 1134 2631 1021 2193 
Q 909 1756 909 1356 
Q 909 947 1068 612 
Q 1228 278 1569 128 
Q 1544 194 1544 288 
z
" transform="scale(0.015625)"/>
     </defs>
     <use xlink:href="#Cmmi10-51" transform="translate(0 0.484375)"/>
    </g>
   </g>
   <g id="text_2">
    <!-- $P$ -->
    <g transform="translate(127.380758 197.372844) scale(0.1728 -0.1728)">
     <defs>
      <path id="Cmmi10-50" d="M 313 0 
Q 250 0 250 84 
Q 253 100 262 139 
Q 272 178 289 201 
Q 306 225 331 225 
Q 722 225 878 269 
Q 959 297 997 441 
L 1875 3956 
Q 1888 4019 1888 4044 
Q 1888 4113 1813 4122 
Q 1691 4147 1350 4147 
Q 1288 4147 1288 4231 
Q 1291 4247 1300 4286 
Q 1309 4325 1326 4348 
Q 1344 4372 1369 4372 
L 3578 4372 
Q 3881 4372 4165 4264 
Q 4450 4156 4631 3934 
Q 4813 3713 4813 3397 
Q 4813 2991 4527 2672 
Q 4241 2353 3814 2175 
Q 3388 1997 2988 1997 
L 1947 1997 
L 1556 416 
Q 1544 353 1544 325 
Q 1544 300 1551 283 
Q 1559 266 1573 261 
Q 1588 256 1619 250 
Q 1741 225 2081 225 
Q 2144 225 2144 141 
Q 2122 50 2109 25 
Q 2097 0 2034 0 
L 313 0 
z
M 1978 2188 
L 2875 2188 
Q 3497 2188 3822 2522 
Q 3988 2688 4092 3000 
Q 4197 3313 4197 3566 
Q 4197 3881 3956 4014 
Q 3716 4147 3359 4147 
L 2747 4147 
Q 2572 4147 2515 4117 
Q 2459 4088 2413 3928 
L 1978 2188 
z
" transform="scale(0.015625)"/>
     </defs>
     <use xlink:href="#Cmmi10-50" transform="translate(0 0.6875)"/>
    </g>
   </g>
  </g>
 </g>
 <defs>
  <clipPath id="pd79477320a">
   <rect x="7.2" y="7.2" width="439.2" height="189.040029"/>
  </clipPath>
 </defs>
</svg>
