<?xml version="1.0" encoding="utf-8" standalone="no"?>
<!DOCTYPE svg PUBLIC "-//W3C//DTD SVG 1.1//EN"
  "http://www.w3.org/Graphics/SVG/1.1/DTD/svg11.dtd">
<svg xmlns:xlink="http://www.w3.org/1999/xlink" width="453.6pt" height="208.168627pt" viewBox="0 0 453.6 208.168627" xmlns="http://www.w3.org/2000/svg" version="1.1">
 <metadata>
  <rdf:RDF xmlns:dc="http://purl.org/dc/elements/1.1/" xmlns:cc="http://creativecommons.org/ns#" xmlns:rdf="http://www.w3.org/1999/02/22-rdf-syntax-ns#">
   <cc:Work>
    <dc:type rdf:resource="http://purl.org/dc/dcmitype/StillImage"/>
    <dc:date>2025-09-03T15:03:52.320291</dc:date>
    <dc:format>image/svg+xml</dc:format>
    <dc:creator>
     <cc:Agent>
      <dc:title>Matplotlib v3.10.5, https://matplotlib.org/</dc:title>
     </cc:Agent>
    </dc:creator>
   </cc:Work>
  </rdf:RDF>
 </metadata>
 <defs>
  <style type="text/css">*{stroke-linejoin: round; stroke-linecap: butt}</style>
 </defs>
 <g id="figure_1">
  <g id="patch_1">
   <path d="M 0 208.168627 
L 453.6 208.168627 
L 453.6 0 
L 0 0 
z
" style="fill: #ffffff"/>
  </g>
  <g id="axes_1">
   <g id="patch_2">
    <path d="M 7.2 196.242153 
L 446.4 196.242153 
L 446.4 7.2 
L 7.2 7.2 
z
" style="fill: #ffffff"/>
   </g>
   <g id="PathCollection_1">
    <path d="M 412.500414 64.169915 
C 413.438048 64.169915 414.337406 63.797389 415.000414 63.134381 
C 415.663422 62.471373 416.035948 61.572016 416.035948 60.634381 
C 416.035948 59.696747 415.663422 58.797389 415.000414 58.134381 
C 414.337406 57.471373 413.438048 57.098847 412.500414 57.098847 
C 411.562779 57.098847 410.663422 57.471373 410.000414 58.134381 
C 409.337406 58.797389 408.96488 59.696747 408.96488 60.634381 
C 408.96488 61.572016 409.337406 62.471373 410.000414 63.134381 
C 410.663422 63.797389 411.562779 64.169915 412.500414 64.169915 
z
" clip-path="url(#pe19796a503)"/>
   </g>
   <g id="PathCollection_2">
    <path d="M 132.996758 181.331369 
C 133.934393 181.331369 134.833751 180.958843 135.496758 180.295835 
C 136.159766 179.632827 136.532292 178.733469 136.532292 177.795835 
C 136.532292 176.8582 136.159766 175.958843 135.496758 175.295835 
C 134.833751 174.632827 133.934393 174.260301 132.996758 174.260301 
C 132.059124 174.260301 131.159766 174.632827 130.496758 175.295835 
C 129.833751 175.958843 129.461224 176.8582 129.461224 177.795835 
C 129.461224 178.733469 129.833751 179.632827 130.496758 180.295835 
C 131.159766 180.958843 132.059124 181.331369 132.996758 181.331369 
z
" clip-path="url(#pe19796a503)"/>
   </g>
   <g id="matplotlib.axis_1"/>
   <g id="matplotlib.axis_2"/>
   <g id="line2d_1">
    <path d="M 412.500414 60.634381 
L 409.295433 56.506448 
L 406.819357 53.612236 
L 403.972606 50.548367 
L 399.685554 46.379234 
L 397.290499 44.248847 
L 392.340486 40.227704 
L 389.259717 37.952615 
L 385.528986 35.401774 
L 381.444903 32.838889 
L 375.511234 29.49246 
L 371.188634 27.304607 
L 365.618271 24.761713 
L 360.145349 22.53739 
L 356.752493 21.283488 
L 351.272779 19.445154 
L 344.425671 17.448006 
L 337.281737 15.689471 
L 329.991352 14.208876 
L 322.992609 13.063538 
L 314.146974 11.974977 
L 307.996797 11.439863 
L 301.716717 11.071108 
L 292.92274 10.842217 
L 286.48401 10.878265 
L 279.219608 11.117519 
L 270.192506 11.698295 
L 262.760911 12.405163 
L 255.348843 13.310923 
L 248.890496 14.260839 
L 240.661655 15.685284 
L 232.2577 17.385836 
L 225.624991 18.903014 
L 217.978026 20.84463 
L 210.532152 22.935184 
L 199.694085 26.33789 
L 191.047194 29.367967 
L 185.973421 31.281091 
L 176.4675 35.146876 
L 168.631034 38.624994 
L 161.171686 42.19845 
L 154.420777 45.67116 
L 148.869547 48.711055 
L 140.654946 53.546866 
L 134.642883 57.37204 
L 129.624349 60.775542 
L 125.70592 63.582495 
L 119.321179 68.479029 
L 114.171182 72.772137 
L 109.028889 77.435917 
L 104.484845 81.950237 
L 101.132954 85.580322 
L 97.921228 89.364759 
L 94.533362 93.784205 
L 92.284292 97.044767 
L 90.16683 100.444476 
L 88.402673 103.616419 
L 86.903458 106.661848 
L 85.440571 110.108694 
L 83.981033 114.379058 
L 83.200131 117.360925 
L 82.525275 120.975879 
L 82.180407 124.251556 
L 82.098389 126.293795 
L 82.165929 129.226055 
L 82.530722 132.635992 
L 83.218363 136.040069 
L 84.139586 139.131177 
L 85.275241 142.027723 
L 86.436149 144.443354 
L 88.063438 147.279872 
L 89.812068 149.86574 
L 92.111706 152.782954 
L 94.457435 155.36259 
L 97.796721 158.547723 
L 100.404993 160.738694 
L 103.574675 163.132818 
L 107.164518 165.560962 
L 111.366426 168.098409 
L 116.443803 170.814839 
L 121.372213 173.15621 
L 126.722494 175.428312 
L 132.996758 177.795835 
L 132.996758 177.795835 
" clip-path="url(#pe19796a503)" style="fill: none; stroke: #000000; stroke-width: 2; stroke-linecap: square"/>
   </g>
   <g id="patch_3">
    <path d="M 132.996758 177.795835 
Q 108.256309 166.898273 85.562207 156.902078 
" clip-path="url(#pe19796a503)" style="fill: none; stroke: #0000ff; stroke-width: 2; stroke-linecap: round"/>
    <path d="M 92.698237 165.508882 
L 85.562207 156.902078 
L 96.729268 156.357336 
z
" clip-path="url(#pe19796a503)" style="fill: #0000ff; stroke: #0000ff; stroke-width: 2; stroke-linecap: round"/>
   </g>
   <g id="patch_4">
    <path d="M 110.582315 167.646735 
Q 82.106125 158.44069 55.757579 149.92249 
" clip-path="url(#pe19796a503)" style="fill: none; stroke: #0000ff; stroke-width: 2; stroke-linecap: round"/>
    <path d="M 63.734627 157.756181 
L 55.757579 149.92249 
L 66.81076 148.241066 
z
" clip-path="url(#pe19796a503)" style="fill: #0000ff; stroke: #0000ff; stroke-width: 2; stroke-linecap: round"/>
   </g>
   <g id="patch_5">
    <path d="M 94.609381 155.518731 
Q 63.471035 148.33402 34.511511 141.65204 
" clip-path="url(#pe19796a503)" style="fill: none; stroke: #0000ff; stroke-width: 2; stroke-linecap: round"/>
    <path d="M 43.131355 148.772312 
L 34.511511 141.65204 
L 45.379635 139.028327 
z
" clip-path="url(#pe19796a503)" style="fill: #0000ff; stroke: #0000ff; stroke-width: 2; stroke-linecap: round"/>
   </g>
   <g id="patch_6">
    <path d="M 85.152498 141.745406 
Q 52.438005 136.856249 21.935019 132.2976 
" clip-path="url(#pe19796a503)" style="fill: none; stroke: #0000ff; stroke-width: 2; stroke-linecap: round"/>
    <path d="M 31.086142 138.720758 
L 21.935019 132.2976 
L 32.564219 128.830597 
z
" clip-path="url(#pe19796a503)" style="fill: #0000ff; stroke: #0000ff; stroke-width: 2; stroke-linecap: round"/>
   </g>
   <g id="patch_7">
    <path d="M 82.094479 126.720637 
Q 48.870316 124.335608 17.876483 122.110686 
" clip-path="url(#pe19796a503)" style="fill: none; stroke: #0000ff; stroke-width: 2; stroke-linecap: round"/>
    <path d="M 27.492807 127.81387 
L 17.876483 122.110686 
L 28.208824 117.839537 
z
" clip-path="url(#pe19796a503)" style="fill: #0000ff; stroke: #0000ff; stroke-width: 2; stroke-linecap: round"/>
   </g>
   <g id="patch_8">
    <path d="M 85.145013 110.887385 
Q 52.429273 111.141232 21.949533 111.377729 
" clip-path="url(#pe19796a503)" style="fill: none; stroke: #0000ff; stroke-width: 2; stroke-linecap: round"/>
    <path d="M 31.988027 116.299989 
L 21.949533 111.377729 
L 31.910438 106.30029 
z
" clip-path="url(#pe19796a503)" style="fill: #0000ff; stroke: #0000ff; stroke-width: 2; stroke-linecap: round"/>
   </g>
   <g id="patch_9">
    <path d="M 93.862811 94.72465 
Q 62.600037 97.672286 33.563458 100.410023 
" clip-path="url(#pe19796a503)" style="fill: none; stroke: #0000ff; stroke-width: 2; stroke-linecap: round"/>
    <path d="M 43.98865 104.449251 
L 33.563458 100.410023 
L 43.049955 94.493406 
z
" clip-path="url(#pe19796a503)" style="fill: #0000ff; stroke: #0000ff; stroke-width: 2; stroke-linecap: round"/>
   </g>
   <g id="patch_10">
    <path d="M 107.680175 78.732984 
Q 78.720295 84.345897 51.955632 89.533341 
" clip-path="url(#pe19796a503)" style="fill: none; stroke: #0000ff; stroke-width: 2; stroke-linecap: round"/>
    <path d="M 62.724318 92.539234 
L 51.955632 89.533341 
L 60.821558 82.721928 
z
" clip-path="url(#pe19796a503)" style="fill: #0000ff; stroke: #0000ff; stroke-width: 2; stroke-linecap: round"/>
   </g>
   <g id="patch_11">
    <path d="M 125.928882 63.418988 
Q 100.010453 71.584234 76.22476 79.077591 
" clip-path="url(#pe19796a503)" style="fill: none; stroke: #0000ff; stroke-width: 2; stroke-linecap: round"/>
    <path d="M 87.265038 80.841754 
L 76.22476 79.077591 
L 84.260257 71.303867 
z
" clip-path="url(#pe19796a503)" style="fill: #0000ff; stroke: #0000ff; stroke-width: 2; stroke-linecap: round"/>
   </g>
   <g id="patch_12">
    <path d="M 147.866346 49.27929 
Q 125.604162 59.801153 105.363617 69.36752 
" clip-path="url(#pe19796a503)" style="fill: none; stroke: #0000ff; stroke-width: 2; stroke-linecap: round"/>
    <path d="M 116.541219 69.614938 
L 105.363617 69.36752 
L 112.268113 60.573889 
z
" clip-path="url(#pe19796a503)" style="fill: #0000ff; stroke: #0000ff; stroke-width: 2; stroke-linecap: round"/>
   </g>
   <g id="patch_13">
    <path d="M 172.701152 36.784488 
Q 154.578101 49.388817 138.290794 60.716413 
" clip-path="url(#pe19796a503)" style="fill: none; stroke: #0000ff; stroke-width: 2; stroke-linecap: round"/>
    <path d="M 149.355348 59.111533 
L 138.290794 60.716413 
L 143.645622 50.901842 
z
" clip-path="url(#pe19796a503)" style="fill: #0000ff; stroke: #0000ff; stroke-width: 2; stroke-linecap: round"/>
   </g>
   <g id="patch_14">
    <path d="M 199.617158 26.363595 
Q 185.980109 40.70474 173.88392 53.425469 
" clip-path="url(#pe19796a503)" style="fill: none; stroke: #0000ff; stroke-width: 2; stroke-linecap: round"/>
    <path d="M 184.398218 49.624214 
L 173.88392 53.425469 
L 177.151495 42.733278 
z
" clip-path="url(#pe19796a503)" style="fill: #0000ff; stroke: #0000ff; stroke-width: 2; stroke-linecap: round"/>
   </g>
   <g id="patch_15">
    <path d="M 227.795575 18.389491 
Q 218.854929 34.059654 211.022399 47.787633 
" clip-path="url(#pe19796a503)" style="fill: none; stroke: #0000ff; stroke-width: 2; stroke-linecap: round"/>
    <path d="M 220.320904 41.57975 
L 211.022399 47.787633 
L 211.635196 36.624099 
z
" clip-path="url(#pe19796a503)" style="fill: #0000ff; stroke: #0000ff; stroke-width: 2; stroke-linecap: round"/>
   </g>
   <g id="patch_16">
    <path d="M 256.434551 13.165863 
Q 252.267066 29.70663 248.645892 44.079092 
" clip-path="url(#pe19796a503)" style="fill: none; stroke: #0000ff; stroke-width: 2; stroke-linecap: round"/>
    <path d="M 255.937539 35.603723 
L 248.645892 44.079092 
L 246.240584 33.160553 
z
" clip-path="url(#pe19796a503)" style="fill: #0000ff; stroke: #0000ff; stroke-width: 2; stroke-linecap: round"/>
   </g>
   <g id="patch_17">
    <path d="M 284.766003 10.916091 
Q 285.320428 27.83182 285.801603 42.512681 
" clip-path="url(#pe19796a503)" style="fill: none; stroke: #0000ff; stroke-width: 2; stroke-linecap: round"/>
    <path d="M 290.471339 32.354258 
L 285.801603 42.512681 
L 280.476706 32.681839 
z
" clip-path="url(#pe19796a503)" style="fill: #0000ff; stroke: #0000ff; stroke-width: 2; stroke-linecap: round"/>
   </g>
   <g id="patch_18">
    <path d="M 312.069605 11.77448 
Q 317.17463 28.547144 321.628563 43.180631 
" clip-path="url(#pe19796a503)" style="fill: none; stroke: #0000ff; stroke-width: 2; stroke-linecap: round"/>
    <path d="M 323.500135 32.158054 
L 321.628563 43.180631 
L 313.933444 35.069827 
z
" clip-path="url(#pe19796a503)" style="fill: #0000ff; stroke: #0000ff; stroke-width: 2; stroke-linecap: round"/>
   </g>
   <g id="patch_19">
    <path d="M 337.683957 15.78015 
Q 347.05804 31.885203 355.307273 46.057716 
" clip-path="url(#pe19796a503)" style="fill: none; stroke: #0000ff; stroke-width: 2; stroke-linecap: round"/>
    <path d="M 354.598075 34.899891 
L 355.307273 46.057716 
L 345.955495 39.930379 
z
" clip-path="url(#pe19796a503)" style="fill: #0000ff; stroke: #0000ff; stroke-width: 2; stroke-linecap: round"/>
   </g>
   <g id="patch_20">
    <path d="M 361.015146 22.873847 
Q 374.277762 37.796617 386.054944 51.048014 
" clip-path="url(#pe19796a503)" style="fill: none; stroke: #0000ff; stroke-width: 2; stroke-linecap: round"/>
    <path d="M 383.149188 40.251876 
L 386.054944 51.048014 
L 375.67458 46.894936 
z
" clip-path="url(#pe19796a503)" style="fill: #0000ff; stroke: #0000ff; stroke-width: 2; stroke-linecap: round"/>
   </g>
   <g id="patch_21">
    <path d="M 381.542981 32.897825 
Q 398.226902 46.149932 413.159893 58.011268 
" clip-path="url(#pe19796a503)" style="fill: none; stroke: #0000ff; stroke-width: 2; stroke-linecap: round"/>
    <path d="M 408.439354 47.876352 
L 413.159893 58.011268 
L 402.219637 55.70675 
z
" clip-path="url(#pe19796a503)" style="fill: #0000ff; stroke: #0000ff; stroke-width: 2; stroke-linecap: round"/>
   </g>
   <g id="patch_22">
    <path d="M 398.825248 45.598862 
Q 418.389547 56.73413 436.010501 66.763318 
" clip-path="url(#pe19796a503)" style="fill: none; stroke: #0000ff; stroke-width: 2; stroke-linecap: round"/>
    <path d="M 429.792868 57.47133 
L 436.010501 66.763318 
L 424.846331 66.162232 
z
" clip-path="url(#pe19796a503)" style="fill: #0000ff; stroke: #0000ff; stroke-width: 2; stroke-linecap: round"/>
   </g>
   <g id="text_1">
    <!-- $Q$ -->
    <g transform="translate(405.588414 80.213474) scale(0.1728 -0.1728)">
     <defs>
      <path id="Cmmi10-51" d="M 1947 -141 
Q 1466 -141 1094 79 
Q 722 300 520 692 
Q 319 1084 319 1563 
Q 319 2259 714 2950 
Q 1109 3641 1756 4077 
Q 2403 4513 3109 4513 
Q 3475 4513 3778 4381 
Q 4081 4250 4290 4017 
Q 4500 3784 4614 3471 
Q 4728 3159 4728 2791 
Q 4728 2366 4581 1936 
Q 4434 1506 4171 1136 
Q 3909 766 3559 484 
Q 3209 203 2809 38 
Q 2850 -256 2934 -425 
Q 3019 -594 3256 -594 
Q 3506 -594 3726 -412 
Q 3947 -231 4006 13 
Q 4019 72 4078 72 
Q 4147 72 4147 -13 
Q 4100 -219 4008 -430 
Q 3916 -641 3786 -823 
Q 3656 -1006 3478 -1123 
Q 3300 -1241 3084 -1241 
Q 2547 -1241 2547 -550 
Q 2547 -509 2562 -332 
Q 2578 -156 2578 -44 
Q 2269 -141 1947 -141 
z
M 1709 300 
Q 1709 44 1991 44 
Q 2275 44 2591 184 
L 2591 244 
Q 2591 503 2509 648 
Q 2428 794 2194 794 
Q 2078 794 1964 723 
Q 1850 653 1779 539 
Q 1709 425 1709 300 
z
M 1544 288 
Q 1544 456 1637 612 
Q 1731 769 1881 864 
Q 2031 959 2203 959 
Q 2481 959 2607 771 
Q 2734 584 2778 281 
Q 3188 525 3500 978 
Q 3813 1431 3977 1973 
Q 4141 2516 4141 3003 
Q 4141 3356 4023 3656 
Q 3906 3956 3664 4140 
Q 3422 4325 3066 4325 
Q 2722 4325 2403 4156 
Q 2084 3988 1813 3706 
Q 1550 3434 1342 3032 
Q 1134 2631 1021 2193 
Q 909 1756 909 1356 
Q 909 947 1068 612 
Q 1228 278 1569 128 
Q 1544 194 1544 288 
z
" transform="scale(0.015625)"/>
     </defs>
     <use xlink:href="#Cmmi10-51" transform="translate(0 0.484375)"/>
    </g>
   </g>
   <g id="text_2">
    <!-- $P$ -->
    <g transform="translate(127.380758 197.374927) scale(0.1728 -0.1728)">
     <defs>
      <path id="Cmmi10-50" d="M 313 0 
Q 250 0 250 84 
Q 253 100 262 139 
Q 272 178 289 201 
Q 306 225 331 225 
Q 722 225 878 269 
Q 959 297 997 441 
L 1875 3956 
Q 1888 4019 1888 4044 
Q 1888 4113 1813 4122 
Q 1691 4147 1350 4147 
Q 1288 4147 1288 4231 
Q 1291 4247 1300 4286 
Q 1309 4325 1326 4348 
Q 1344 4372 1369 4372 
L 3578 4372 
Q 3881 4372 4165 4264 
Q 4450 4156 4631 3934 
Q 4813 3713 4813 3397 
Q 4813 2991 4527 2672 
Q 4241 2353 3814 2175 
Q 3388 1997 2988 1997 
L 1947 1997 
L 1556 416 
Q 1544 353 1544 325 
Q 1544 300 1551 283 
Q 1559 266 1573 261 
Q 1588 256 1619 250 
Q 1741 225 2081 225 
Q 2144 225 2144 141 
Q 2122 50 2109 25 
Q 2097 0 2034 0 
L 313 0 
z
M 1978 2188 
L 2875 2188 
Q 3497 2188 3822 2522 
Q 3988 2688 4092 3000 
Q 4197 3313 4197 3566 
Q 4197 3881 3956 4014 
Q 3716 4147 3359 4147 
L 2747 4147 
Q 2572 4147 2515 4117 
Q 2459 4088 2413 3928 
L 1978 2188 
z
" transform="scale(0.015625)"/>
     </defs>
     <use xlink:href="#Cmmi10-50" transform="translate(0 0.6875)"/>
    </g>
   </g>
  </g>
 </g>
 <defs>
  <clipPath id="pe19796a503">
   <rect x="7.2" y="7.2" width="439.2" height="189.042153"/>
  </clipPath>
 </defs>
</svg>
