<?xml version="1.0" encoding="utf-8" standalone="no"?>
<!DOCTYPE svg PUBLIC "-//W3C//DTD SVG 1.1//EN"
  "http://www.w3.org/Graphics/SVG/1.1/DTD/svg11.dtd">
<svg xmlns:xlink="http://www.w3.org/1999/xlink" width="392.674603pt" height="338.4pt" viewBox="0 0 392.674603 338.4" xmlns="http://www.w3.org/2000/svg" version="1.1">
 <metadata>
  <rdf:RDF xmlns:dc="http://purl.org/dc/elements/1.1/" xmlns:cc="http://creativecommons.org/ns#" xmlns:rdf="http://www.w3.org/1999/02/22-rdf-syntax-ns#">
   <cc:Work>
    <dc:type rdf:resource="http://purl.org/dc/dcmitype/StillImage"/>
    <dc:date>2025-11-05T14:56:30.097556</dc:date>
    <dc:format>image/svg+xml</dc:format>
    <dc:creator>
     <cc:Agent>
      <dc:title>Matplotlib v3.10.3, https://matplotlib.org/</dc:title>
     </cc:Agent>
    </dc:creator>
   </cc:Work>
  </rdf:RDF>
 </metadata>
 <defs>
  <style type="text/css">*{stroke-linejoin: round; stroke-linecap: butt}</style>
 </defs>
 <g id="figure_1">
  <g id="patch_1">
   <path d="M 0 338.4 
L 392.674603 338.4 
L 392.674603 0 
L 0 0 
z
" style="fill: #ffffff"/>
  </g>
  <g id="axes_1">
   <g id="patch_2">
    <path d="M 7.2 331.2 
L 385.474603 331.2 
L 385.474603 7.2 
L 7.2 7.2 
z
" style="fill: #ffffff"/>
   </g>
   <g id="PathCollection_1">
    <path d="M 137.728239 100.66122 
C 138.665873 100.66122 139.565231 100.288694 140.228239 99.625686 
C 140.891246 98.962678 141.263773 98.06332 141.263773 97.125686 
C 141.263773 96.188051 140.891246 95.288694 140.228239 94.625686 
C 139.565231 93.962678 138.665873 93.590152 137.728239 93.590152 
C 136.790604 93.590152 135.891246 93.962678 135.228239 94.625686 
C 134.565231 95.288694 134.192705 96.188051 134.192705 97.125686 
C 134.192705 98.06332 134.565231 98.962678 135.228239 99.625686 
C 135.891246 100.288694 136.790604 100.66122 137.728239 100.66122 
z
" clip-path="url(#p1e60ba4664)"/>
   </g>
   <g id="matplotlib.axis_1"/>
   <g id="matplotlib.axis_2"/>
   <g id="line2d_1">
    <path d="M 378.200091 243.23613 
L 347.767839 205.626345 
L 322.050708 174.0197 
L 305.587887 154.176202 
L 292.783591 139.080053 
L 278.569001 122.773574 
L 267.310675 110.268607 
L 255.071555 97.159894 
L 245.2387 87.046639 
L 238.936579 80.782242 
L 229.78795 72.018433 
L 219.477799 62.65249 
L 212.120052 56.32911 
L 204.089345 49.798709 
L 197.909013 45.054887 
L 189.16036 38.788983 
L 182.56759 34.438213 
L 178.725289 32.058281 
L 171.768689 28.056635 
L 165.962879 25.035507 
L 164.324181 24.237547 
L 156.589431 20.811905 
L 149.870257 18.31573 
L 148.58481 17.891537 
L 143.286845 16.331812 
L 139.044377 15.309406 
L 131.632174 14.034284 
L 130.211349 13.867423 
L 124.31213 13.455266 
L 120.931823 13.430769 
L 115.990472 13.687003 
L 109.471959 14.585877 
L 105.215632 15.538744 
L 99.279113 17.384484 
L 96.66102 18.400433 
L 92.059735 20.503526 
L 87.216057 23.18027 
L 84.998721 24.57332 
L 80.514343 27.732312 
L 76.302348 31.141541 
L 73.622406 33.548722 
L 69.291174 37.858453 
L 65.897656 41.622784 
L 63.39689 44.63093 
L 60.63339 48.201651 
L 57.585103 52.461255 
L 54.3186 57.429772 
L 51.83431 61.512023 
L 48.329982 67.759989 
L 45.603317 73.057931 
L 42.608143 79.3703 
L 40.552319 84.034528 
L 37.070273 92.635394 
L 34.533551 99.538754 
L 31.816278 107.640707 
L 30.109222 113.168381 
L 27.323621 123.067092 
L 25.187105 131.569813 
L 23.155784 140.607396 
L 20.76093 152.906716 
L 19.071729 163.159512 
L 18.099961 169.955163 
L 17.097593 178.008078 
L 16.025396 188.57005 
L 15.349626 197.25734 
L 14.846086 206.307244 
L 14.565708 214.739681 
L 14.480676 224.989645 
L 14.636506 233.519792 
L 14.895462 239.867979 
L 15.578364 249.931748 
L 16.185181 256.163213 
L 16.938104 262.313474 
L 18.33401 271.207225 
L 19.573032 277.484453 
L 20.699637 282.334175 
L 21.827692 286.584595 
L 23.391191 291.705182 
L 25.545674 297.641116 
L 26.991954 301.054345 
L 29.08928 305.351291 
L 31.032029 308.756265 
L 33.463813 312.370223 
L 35.810617 315.279279 
L 37.928314 317.484802 
L 40.027814 319.325569 
L 42.671569 321.208942 
L 45.670465 322.826078 
L 49.056415 324.068317 
L 52.483864 324.769738 
L 55.158193 324.969231 
L 58.330061 324.847913 
L 60.586791 324.543455 
L 64.100743 323.737142 
L 66.034589 323.132112 
L 70.681798 321.247515 
L 72.640772 320.282713 
L 72.640772 320.282713 
" clip-path="url(#p1e60ba4664)" style="fill: none; stroke: #ffffff; stroke-linecap: square"/>
   </g>
   <g id="line2d_2">
    <path d="M 72.640772 320.282713 
L 77.452495 315.861226 
L 82.022465 311.362329 
L 86.361731 306.768104 
L 90.536025 301.990634 
L 94.651424 296.858792 
L 98.636942 291.388005 
L 101.4602 287.13744 
L 104.191345 282.65299 
L 106.771889 277.993473 
L 108.910045 273.738456 
L 111.001439 269.131792 
L 113.127545 263.853558 
L 115.034622 258.416474 
L 116.658596 253.036372 
L 118.15859 247.150575 
L 119.355973 241.467396 
L 120.274992 236.141467 
L 121.024492 230.754078 
L 121.799951 223.290728 
L 122.231853 217.323692 
L 122.592745 209.504098 
L 122.803321 199.558546 
L 122.852051 182.823247 
L 122.975448 168.273435 
L 123.301515 158.567851 
L 123.771469 151.085013 
L 124.454073 143.912931 
L 125.214715 138.042986 
L 126.144265 132.391643 
L 127.144356 127.401049 
L 128.533281 121.624191 
L 129.727952 117.370776 
L 131.476053 111.958219 
L 133.307259 107.024877 
L 135.438365 101.962822 
L 137.728239 97.125686 
L 137.728239 97.125686 
" clip-path="url(#p1e60ba4664)" style="fill: none; stroke: #000000; stroke-linecap: square"/>
   </g>
   <g id="patch_3">
    <path d="M 122.851103 186.388497 
Q 122.851111 185.942183 122.851081 187.731937 
" clip-path="url(#p1e60ba4664)" style="fill: none; stroke: #000000; stroke-width: 2; stroke-linecap: round"/>
    <path d="M 117.850914 197.731853 
L 122.851081 187.731937 
L 127.850914 197.73202 
z
" clip-path="url(#p1e60ba4664)" style="stroke: #000000; stroke-width: 2; stroke-linecap: round"/>
   </g>
   <g id="text_1">
    <g clip-path="url(#p1e60ba4664)">
     <!-- $Q$ -->
     <g transform="translate(89.419616 318.25487) scale(0.25 -0.25)">
      <defs>
       <path id="Cmmi10-51" d="M 1947 -141 
Q 1466 -141 1094 79 
Q 722 300 520 692 
Q 319 1084 319 1563 
Q 319 2259 714 2950 
Q 1109 3641 1756 4077 
Q 2403 4513 3109 4513 
Q 3475 4513 3778 4381 
Q 4081 4250 4290 4017 
Q 4500 3784 4614 3471 
Q 4728 3159 4728 2791 
Q 4728 2366 4581 1936 
Q 4434 1506 4171 1136 
Q 3909 766 3559 484 
Q 3209 203 2809 38 
Q 2850 -256 2934 -425 
Q 3019 -594 3256 -594 
Q 3506 -594 3726 -412 
Q 3947 -231 4006 13 
Q 4019 72 4078 72 
Q 4147 72 4147 -13 
Q 4100 -219 4008 -430 
Q 3916 -641 3786 -823 
Q 3656 -1006 3478 -1123 
Q 3300 -1241 3084 -1241 
Q 2547 -1241 2547 -550 
Q 2547 -509 2562 -332 
Q 2578 -156 2578 -44 
Q 2269 -141 1947 -141 
z
M 1709 300 
Q 1709 44 1991 44 
Q 2275 44 2591 184 
L 2591 244 
Q 2591 503 2509 648 
Q 2428 794 2194 794 
Q 2078 794 1964 723 
Q 1850 653 1779 539 
Q 1709 425 1709 300 
z
M 1544 288 
Q 1544 456 1637 612 
Q 1731 769 1881 864 
Q 2031 959 2203 959 
Q 2481 959 2607 771 
Q 2734 584 2778 281 
Q 3188 525 3500 978 
Q 3813 1431 3977 1973 
Q 4141 2516 4141 3003 
Q 4141 3356 4023 3656 
Q 3906 3956 3664 4140 
Q 3422 4325 3066 4325 
Q 2722 4325 2403 4156 
Q 2084 3988 1813 3706 
Q 1550 3434 1342 3032 
Q 1134 2631 1021 2193 
Q 909 1756 909 1356 
Q 909 947 1068 612 
Q 1228 278 1569 128 
Q 1544 194 1544 288 
z
" transform="scale(0.015625)"/>
      </defs>
      <use xlink:href="#Cmmi10-51" transform="translate(0 0.484375)"/>
     </g>
    </g>
   </g>
   <g id="text_2">
    <g clip-path="url(#p1e60ba4664)">
     <!-- $R$ -->
     <g transform="translate(105.912536 117.413545) scale(0.25 -0.25)">
      <defs>
       <path id="Cmmi10-52" d="M 313 0 
Q 250 0 250 84 
Q 253 100 262 139 
Q 272 178 289 201 
Q 306 225 331 225 
Q 722 225 878 269 
Q 959 297 997 441 
L 1875 3956 
Q 1888 4019 1888 4044 
Q 1888 4113 1813 4122 
Q 1691 4147 1350 4147 
Q 1288 4147 1288 4231 
Q 1291 4247 1300 4286 
Q 1309 4325 1326 4348 
Q 1344 4372 1369 4372 
L 3309 4372 
Q 3541 4372 3791 4319 
Q 4041 4266 4250 4152 
Q 4459 4038 4593 3848 
Q 4728 3659 4728 3406 
Q 4728 3084 4515 2831 
Q 4303 2578 3978 2408 
Q 3653 2238 3347 2169 
Q 3597 2078 3756 1879 
Q 3916 1681 3916 1422 
Q 3916 1388 3914 1370 
Q 3913 1353 3909 1331 
L 3859 763 
Q 3853 638 3847 550 
Q 3841 463 3841 409 
Q 3841 234 3892 129 
Q 3944 25 4097 25 
Q 4297 25 4448 211 
Q 4600 397 4647 616 
Q 4675 672 4709 672 
L 4769 672 
Q 4831 672 4831 588 
Q 4784 403 4682 237 
Q 4581 72 4426 -34 
Q 4272 -141 4091 -141 
Q 3716 -141 3452 26 
Q 3188 194 3188 550 
Q 3188 684 3213 788 
L 3353 1356 
Q 3378 1434 3378 1538 
Q 3378 1803 3198 1954 
Q 3019 2106 2747 2106 
L 1959 2106 
L 1538 416 
Q 1522 363 1522 325 
Q 1522 259 1600 250 
Q 1722 225 2059 225 
Q 2125 225 2125 141 
Q 2103 50 2090 25 
Q 2078 0 2016 0 
L 313 0 
z
M 1997 2272 
L 2706 2272 
Q 3403 2272 3756 2625 
Q 3919 2788 4014 3039 
Q 4109 3291 4109 3541 
Q 4109 3778 3970 3912 
Q 3831 4047 3626 4097 
Q 3422 4147 3175 4147 
L 2747 4147 
Q 2572 4147 2515 4117 
Q 2459 4088 2413 3928 
L 1997 2272 
z
" transform="scale(0.015625)"/>
      </defs>
      <use xlink:href="#Cmmi10-52" transform="translate(0 0.6875)"/>
     </g>
    </g>
   </g>
   <g id="PathCollection_2">
    <path d="M 72.640772 323.818247 
C 73.578407 323.818247 74.477765 323.445721 75.140772 322.782713 
C 75.80378 322.119705 76.176306 321.220348 76.176306 320.282713 
C 76.176306 319.345079 75.80378 318.445721 75.140772 317.782713 
C 74.477765 317.119705 73.578407 316.747179 72.640772 316.747179 
C 71.703138 316.747179 70.80378 317.119705 70.140772 317.782713 
C 69.477765 318.445721 69.105238 319.345079 69.105238 320.282713 
C 69.105238 321.220348 69.477765 322.119705 70.140772 322.782713 
C 70.80378 323.445721 71.703138 323.818247 72.640772 323.818247 
z
" clip-path="url(#p1e60ba4664)"/>
   </g>
  </g>
 </g>
 <defs>
  <clipPath id="p1e60ba4664">
   <rect x="7.2" y="7.2" width="378.274603" height="324"/>
  </clipPath>
 </defs>
</svg>
