<?xml version="1.0" encoding="utf-8" standalone="no"?>
<!DOCTYPE svg PUBLIC "-//W3C//DTD SVG 1.1//EN"
  "http://www.w3.org/Graphics/SVG/1.1/DTD/svg11.dtd">
<svg xmlns:xlink="http://www.w3.org/1999/xlink" width="392.667107pt" height="338.4pt" viewBox="0 0 392.667107 338.4" xmlns="http://www.w3.org/2000/svg" version="1.1">
 <metadata>
  <rdf:RDF xmlns:dc="http://purl.org/dc/elements/1.1/" xmlns:cc="http://creativecommons.org/ns#" xmlns:rdf="http://www.w3.org/1999/02/22-rdf-syntax-ns#">
   <cc:Work>
    <dc:type rdf:resource="http://purl.org/dc/dcmitype/StillImage"/>
    <dc:date>2025-09-11T16:28:54.302328</dc:date>
    <dc:format>image/svg+xml</dc:format>
    <dc:creator>
     <cc:Agent>
      <dc:title>Matplotlib v3.10.3, https://matplotlib.org/</dc:title>
     </cc:Agent>
    </dc:creator>
   </cc:Work>
  </rdf:RDF>
 </metadata>
 <defs>
  <style type="text/css">*{stroke-linejoin: round; stroke-linecap: butt}</style>
 </defs>
 <g id="figure_1">
  <g id="patch_1">
   <path d="M 0 338.4 
L 392.667107 338.4 
L 392.667107 0 
L 0 0 
z
" style="fill: #ffffff"/>
  </g>
  <g id="axes_1">
   <g id="patch_2">
    <path d="M 7.2 331.2 
L 385.467107 331.2 
L 385.467107 7.2 
L 7.2 7.2 
z
" style="fill: #ffffff"/>
   </g>
   <g id="PathCollection_1">
    <path d="M 378.19274 246.769612 
C 379.130375 246.769612 380.029732 246.397086 380.69274 245.734079 
C 381.355748 245.071071 381.728274 244.171713 381.728274 243.234079 
C 381.728274 242.296444 381.355748 241.397086 380.69274 240.734079 
C 380.029732 240.071071 379.130375 239.698545 378.19274 239.698545 
C 377.255105 239.698545 376.355748 240.071071 375.69274 240.734079 
C 375.029732 241.397086 374.657206 242.296444 374.657206 243.234079 
C 374.657206 244.171713 375.029732 245.071071 375.69274 245.734079 
C 376.355748 246.397086 377.255105 246.769612 378.19274 246.769612 
z
" clip-path="url(#p2197e0edf3)"/>
   </g>
   <g id="PathCollection_2">
    <path d="M 137.724699 100.661485 
C 138.662334 100.661485 139.561692 100.288958 140.224699 99.625951 
C 140.887707 98.962943 141.260233 98.063585 141.260233 97.125951 
C 141.260233 96.188316 140.887707 95.288958 140.224699 94.625951 
C 139.561692 93.962943 138.662334 93.590417 137.724699 93.590417 
C 136.787065 93.590417 135.887707 93.962943 135.224699 94.625951 
C 134.561692 95.288958 134.189165 96.188316 134.189165 97.125951 
C 134.189165 98.063585 134.561692 98.962943 135.224699 99.625951 
C 135.887707 100.288958 136.787065 100.661485 137.724699 100.661485 
z
" clip-path="url(#p2197e0edf3)"/>
   </g>
   <g id="matplotlib.axis_1"/>
   <g id="matplotlib.axis_2"/>
   <g id="line2d_1">
    <path d="M 378.19274 243.234079 
L 347.122557 204.835332 
L 322.774946 174.908461 
L 307.418674 156.368049 
L 295.198802 141.907329 
L 284.549269 129.575639 
L 271.618561 115.012648 
L 260.532312 102.947466 
L 250.650515 92.569575 
L 242.330966 84.139885 
L 234.270719 76.267424 
L 227.182778 69.604068 
L 220.560862 63.614485 
L 215.716337 59.385588 
L 207.609924 52.616836 
L 203.760075 49.544254 
L 196.305721 43.870654 
L 189.570815 39.074848 
L 182.093768 34.142336 
L 176.006203 30.449856 
L 170.82847 27.550798 
L 162.566787 23.412585 
L 157.944793 21.373618 
L 151.774329 18.978875 
L 147.765249 17.632968 
L 143.948319 16.512186 
L 139.085976 15.320757 
L 133.150474 14.242804 
L 130.002182 13.846977 
L 124.414981 13.460176 
L 118.426581 13.517814 
L 114.847345 13.798684 
L 109.83937 14.518517 
L 107.066827 15.08838 
L 103.927944 15.887504 
L 99.463679 17.318118 
L 96.557921 18.443383 
L 93.845817 19.638055 
L 90.824877 21.139578 
L 87.220319 23.17748 
L 82.906086 25.988769 
L 79.683526 28.369177 
L 75.560338 31.787995 
L 71.717019 35.377723 
L 68.441461 38.76646 
L 65.463319 42.12891 
L 62.29826 46.016672 
L 58.926361 50.541766 
L 55.22761 56.000524 
L 52.17453 60.933794 
L 48.704422 67.060161 
L 45.318546 73.631453 
L 41.855088 81.041768 
L 38.611771 88.707385 
L 35.36417 97.208242 
L 32.882384 104.36112 
L 30.115898 113.139901 
L 27.002075 124.28372 
L 24.591666 134.103277 
L 22.956086 141.548044 
L 20.702683 153.224413 
L 18.842806 164.677378 
L 17.754552 172.574256 
L 16.659087 181.993048 
L 15.722905 192.146068 
L 15.112979 201.029287 
L 14.737284 208.933892 
L 14.489428 219.438626 
L 14.521707 228.759342 
L 14.729137 236.205643 
L 15.316529 246.662432 
L 15.84651 252.890891 
L 16.540123 259.237798 
L 17.753903 267.813441 
L 18.808647 273.75771 
L 20.053948 279.643918 
L 21.382228 284.972748 
L 22.64491 289.362626 
L 24.253839 294.221305 
L 25.974141 298.696453 
L 27.246581 301.615658 
L 29.562232 306.227488 
L 30.988708 308.685608 
L 32.193181 310.564308 
L 33.761417 312.767978 
L 36.023476 315.516971 
L 38.826927 318.311047 
L 41.116504 320.154951 
L 43.525737 321.720736 
L 44.509471 322.259006 
L 47.121075 323.427101 
L 49.785167 324.259167 
L 51.866131 324.67867 
L 54.019988 324.916392 
L 57.459717 324.914458 
L 60.825329 324.497473 
L 63.653615 323.857193 
L 67.515552 322.591515 
L 70.027009 321.543756 
L 72.638265 320.27944 
L 72.638265 320.27944 
" clip-path="url(#p2197e0edf3)" style="fill: none; stroke: #000000; stroke-linecap: square"/>
   </g>
   <g id="line2d_2">
    <path d="M 72.638265 320.27944 
L 77.78157 315.541966 
L 82.239584 311.134555 
L 86.467121 306.646036 
L 90.200234 302.383379 
L 93.735464 298.035588 
L 97.242971 293.358536 
L 100.419122 288.738818 
L 102.96448 284.710508 
L 105.829385 279.741268 
L 108.257482 275.071859 
L 110.276686 270.776014 
L 112.131774 266.402233 
L 114.065352 261.267156 
L 115.760849 256.10017 
L 117.33644 250.495382 
L 118.519851 245.532646 
L 119.638819 239.919566 
L 120.564445 234.178849 
L 121.407343 227.375622 
L 122.004264 220.679446 
L 122.47982 212.394976 
L 122.740455 203.635932 
L 122.845495 191.181372 
L 122.975961 168.089039 
L 123.282356 158.897348 
L 123.772085 151.034197 
L 124.423807 144.15172 
L 125.06356 139.072171 
L 126.203739 132.050111 
L 127.251407 126.899389 
L 128.589755 121.397407 
L 129.963576 116.580136 
L 131.68845 111.342489 
L 133.084089 107.584777 
L 135.373514 102.100392 
L 137.724699 97.125951 
L 137.724699 97.125951 
" clip-path="url(#p2197e0edf3)" style="fill: none; stroke: #000000; stroke-linecap: square"/>
   </g>
   <g id="patch_3">
    <path d="M 100.086146 17.097303 
Q 99.983753 17.133238 101.991268 16.428704 
" clip-path="url(#p2197e0edf3)" style="fill: none; stroke: #000000; stroke-width: 2; stroke-linecap: round"/>
    <path d="M 113.082795 17.835126 
L 101.991268 16.428704 
L 109.771322 8.399336 
z
" clip-path="url(#p2197e0edf3)" style="stroke: #000000; stroke-width: 2; stroke-linecap: round"/>
   </g>
   <g id="patch_4">
    <path d="M 122.8478 186.387347 
Q 122.847807 185.94104 122.847778 187.730801 
" clip-path="url(#p2197e0edf3)" style="fill: none; stroke: #000000; stroke-width: 2; stroke-linecap: round"/>
    <path d="M 117.847611 197.730717 
L 122.847778 187.730801 
L 127.847611 197.730884 
z
" clip-path="url(#p2197e0edf3)" style="stroke: #000000; stroke-width: 2; stroke-linecap: round"/>
   </g>
   <g id="text_1">
    <g clip-path="url(#p2197e0edf3)">
     <!-- $P$ -->
     <g transform="translate(361.1416 272.447865) scale(0.25 -0.25)">
      <defs>
       <path id="Cmmi10-50" d="M 313 0 
Q 250 0 250 84 
Q 253 100 262 139 
Q 272 178 289 201 
Q 306 225 331 225 
Q 722 225 878 269 
Q 959 297 997 441 
L 1875 3956 
Q 1888 4019 1888 4044 
Q 1888 4113 1813 4122 
Q 1691 4147 1350 4147 
Q 1288 4147 1288 4231 
Q 1291 4247 1300 4286 
Q 1309 4325 1326 4348 
Q 1344 4372 1369 4372 
L 3578 4372 
Q 3881 4372 4165 4264 
Q 4450 4156 4631 3934 
Q 4813 3713 4813 3397 
Q 4813 2991 4527 2672 
Q 4241 2353 3814 2175 
Q 3388 1997 2988 1997 
L 1947 1997 
L 1556 416 
Q 1544 353 1544 325 
Q 1544 300 1551 283 
Q 1559 266 1573 261 
Q 1588 256 1619 250 
Q 1741 225 2081 225 
Q 2144 225 2144 141 
Q 2122 50 2109 25 
Q 2097 0 2034 0 
L 313 0 
z
M 1978 2188 
L 2875 2188 
Q 3497 2188 3822 2522 
Q 3988 2688 4092 3000 
Q 4197 3313 4197 3566 
Q 4197 3881 3956 4014 
Q 3716 4147 3359 4147 
L 2747 4147 
Q 2572 4147 2515 4117 
Q 2459 4088 2413 3928 
L 1978 2188 
z
" transform="scale(0.015625)"/>
      </defs>
      <use xlink:href="#Cmmi10-50" transform="translate(0 0.6875)"/>
     </g>
    </g>
   </g>
   <g id="text_2">
    <g clip-path="url(#p2197e0edf3)">
     <!-- $R$ -->
     <g transform="translate(150.540048 81.709039) scale(0.25 -0.25)">
      <defs>
       <path id="Cmmi10-52" d="M 313 0 
Q 250 0 250 84 
Q 253 100 262 139 
Q 272 178 289 201 
Q 306 225 331 225 
Q 722 225 878 269 
Q 959 297 997 441 
L 1875 3956 
Q 1888 4019 1888 4044 
Q 1888 4113 1813 4122 
Q 1691 4147 1350 4147 
Q 1288 4147 1288 4231 
Q 1291 4247 1300 4286 
Q 1309 4325 1326 4348 
Q 1344 4372 1369 4372 
L 3309 4372 
Q 3541 4372 3791 4319 
Q 4041 4266 4250 4152 
Q 4459 4038 4593 3848 
Q 4728 3659 4728 3406 
Q 4728 3084 4515 2831 
Q 4303 2578 3978 2408 
Q 3653 2238 3347 2169 
Q 3597 2078 3756 1879 
Q 3916 1681 3916 1422 
Q 3916 1388 3914 1370 
Q 3913 1353 3909 1331 
L 3859 763 
Q 3853 638 3847 550 
Q 3841 463 3841 409 
Q 3841 234 3892 129 
Q 3944 25 4097 25 
Q 4297 25 4448 211 
Q 4600 397 4647 616 
Q 4675 672 4709 672 
L 4769 672 
Q 4831 672 4831 588 
Q 4784 403 4682 237 
Q 4581 72 4426 -34 
Q 4272 -141 4091 -141 
Q 3716 -141 3452 26 
Q 3188 194 3188 550 
Q 3188 684 3213 788 
L 3353 1356 
Q 3378 1434 3378 1538 
Q 3378 1803 3198 1954 
Q 3019 2106 2747 2106 
L 1959 2106 
L 1538 416 
Q 1522 363 1522 325 
Q 1522 259 1600 250 
Q 1722 225 2059 225 
Q 2125 225 2125 141 
Q 2103 50 2090 25 
Q 2078 0 2016 0 
L 313 0 
z
M 1997 2272 
L 2706 2272 
Q 3403 2272 3756 2625 
Q 3919 2788 4014 3039 
Q 4109 3291 4109 3541 
Q 4109 3778 3970 3912 
Q 3831 4047 3626 4097 
Q 3422 4147 3175 4147 
L 2747 4147 
Q 2572 4147 2515 4117 
Q 2459 4088 2413 3928 
L 1997 2272 
z
" transform="scale(0.015625)"/>
      </defs>
      <use xlink:href="#Cmmi10-52" transform="translate(0 0.6875)"/>
     </g>
    </g>
   </g>
  </g>
 </g>
 <defs>
  <clipPath id="p2197e0edf3">
   <rect x="7.2" y="7.2" width="378.267107" height="324"/>
  </clipPath>
 </defs>
</svg>
