<?xml version="1.0" encoding="utf-8" standalone="no"?>
<!DOCTYPE svg PUBLIC "-//W3C//DTD SVG 1.1//EN"
  "http://www.w3.org/Graphics/SVG/1.1/DTD/svg11.dtd">
<svg xmlns:xlink="http://www.w3.org/1999/xlink" width="392.675121pt" height="338.4pt" viewBox="0 0 392.675121 338.4" xmlns="http://www.w3.org/2000/svg" version="1.1">
 <metadata>
  <rdf:RDF xmlns:dc="http://purl.org/dc/elements/1.1/" xmlns:cc="http://creativecommons.org/ns#" xmlns:rdf="http://www.w3.org/1999/02/22-rdf-syntax-ns#">
   <cc:Work>
    <dc:type rdf:resource="http://purl.org/dc/dcmitype/StillImage"/>
    <dc:date>2025-12-10T16:56:40.420392</dc:date>
    <dc:format>image/svg+xml</dc:format>
    <dc:creator>
     <cc:Agent>
      <dc:title>Matplotlib v3.10.5, https://matplotlib.org/</dc:title>
     </cc:Agent>
    </dc:creator>
   </cc:Work>
  </rdf:RDF>
 </metadata>
 <defs>
  <style type="text/css">*{stroke-linejoin: round; stroke-linecap: butt}</style>
 </defs>
 <g id="figure_1">
  <g id="patch_1">
   <path d="M 0 338.4 
L 392.675121 338.4 
L 392.675121 0 
L 0 0 
z
" style="fill: #ffffff"/>
  </g>
  <g id="axes_1">
   <g id="patch_2">
    <path d="M 7.2 331.2 
L 385.475121 331.2 
L 385.475121 7.2 
L 7.2 7.2 
z
" style="fill: #ffffff"/>
   </g>
   <g id="PathCollection_1">
    <path d="M 378.200599 246.77993 
C 379.138234 246.77993 380.037592 246.407404 380.700599 245.744397 
C 381.363607 245.081389 381.736133 244.182031 381.736133 243.244397 
C 381.736133 242.306762 381.363607 241.407404 380.700599 240.744397 
C 380.037592 240.081389 379.138234 239.708863 378.200599 239.708863 
C 377.262965 239.708863 376.363607 240.081389 375.700599 240.744397 
C 375.037592 241.407404 374.665065 242.306762 374.665065 243.244397 
C 374.665065 244.182031 375.037592 245.081389 375.700599 245.744397 
C 376.363607 246.407404 377.262965 246.77993 378.200599 246.77993 
z
" clip-path="url(#p869dd93b7c)"/>
   </g>
   <g id="PathCollection_2">
    <path d="M 137.728315 100.669224 
C 138.665949 100.669224 139.565307 100.296698 140.228315 99.63369 
C 140.891323 98.970682 141.263849 98.071325 141.263849 97.13369 
C 141.263849 96.196055 140.891323 95.296698 140.228315 94.63369 
C 139.565307 93.970682 138.665949 93.598156 137.728315 93.598156 
C 136.79068 93.598156 135.891323 93.970682 135.228315 94.63369 
C 134.565307 95.296698 134.192781 96.196055 134.192781 97.13369 
C 134.192781 98.071325 134.565307 98.970682 135.228315 99.63369 
C 135.891323 100.296698 136.79068 100.669224 137.728315 100.669224 
z
" clip-path="url(#p869dd93b7c)"/>
   </g>
   <g id="matplotlib.axis_1"/>
   <g id="matplotlib.axis_2"/>
   <g id="line2d_1">
    <path d="M 378.200599 243.244397 
L 312.065076 161.940704 
L 297.510589 144.620501 
L 282.957969 127.758958 
L 271.920178 115.348054 
L 260.52524 102.941567 
L 253.76343 95.799575 
L 244.696937 86.508914 
L 233.6947 75.718876 
L 224.415255 67.074779 
L 218.909146 62.160449 
L 208.81285 53.599032 
L 202.232918 48.355004 
L 197.208284 44.540989 
L 190.611225 39.79798 
L 184.170193 35.473054 
L 176.226208 30.582101 
L 172.530331 28.482672 
L 166.769564 25.44512 
L 161.034523 22.718641 
L 153.974631 19.793617 
L 150.263417 18.45679 
L 143.597272 16.422497 
L 140.310735 15.600762 
L 135.267311 14.584063 
L 132.762071 14.193015 
L 126.850746 13.584109 
L 121.612924 13.430769 
L 116.028214 13.691548 
L 109.650535 14.560238 
L 106.808861 15.154819 
L 103.335656 16.064313 
L 99.552785 17.293462 
L 94.049091 19.551247 
L 90.868938 21.124215 
L 86.776582 23.455642 
L 85.39838 24.322048 
L 80.428089 27.805581 
L 75.798817 31.587157 
L 71.501964 35.599752 
L 67.249656 40.08827 
L 63.408488 44.624338 
L 61.134431 47.542153 
L 57.180551 53.061047 
L 54.321244 57.433385 
L 51.570181 61.97021 
L 48.82404 66.850121 
L 46.765513 70.758018 
L 43.859968 76.673365 
L 40.522172 84.112836 
L 37.750537 90.887859 
L 35.117571 97.904503 
L 32.723759 104.853324 
L 30.834626 110.781909 
L 27.905336 120.906664 
L 25.445826 130.498232 
L 23.419858 139.377746 
L 21.395222 149.442818 
L 19.759484 158.79065 
L 18.524196 166.895025 
L 17.019778 178.699556 
L 16.166447 187.01709 
L 15.456636 195.71137 
L 15.040558 202.360524 
L 14.710433 209.720962 
L 14.50383 218.2828 
L 14.520782 228.626348 
L 14.807497 238.043319 
L 15.211894 245.183065 
L 15.874198 253.171145 
L 16.607033 259.778463 
L 17.425648 265.719163 
L 18.711797 273.257002 
L 19.949202 279.190302 
L 20.987147 283.477855 
L 23.178554 291.06269 
L 24.065142 293.694849 
L 26.426549 299.776689 
L 28.630157 304.478535 
L 30.687274 308.196685 
L 32.096906 310.429211 
L 33.38673 312.274101 
L 35.029577 314.377184 
L 38.030727 317.590756 
L 40.408518 319.633889 
L 41.627088 320.527783 
L 43.321738 321.612571 
L 45.086687 322.559858 
L 48.114606 323.788993 
L 49.010814 324.063803 
L 51.43316 324.618594 
L 54.058004 324.930498 
L 56.582337 324.969231 
L 58.80733 324.806527 
L 61.667363 324.345702 
L 63.369547 323.945184 
L 66.433367 323.002192 
L 70.859051 321.172609 
L 72.640732 320.291118 
L 72.640732 320.291118 
" clip-path="url(#p869dd93b7c)" style="fill: none; stroke: #000000; stroke-linecap: square"/>
   </g>
   <g id="line2d_2">
    <path d="M 72.640732 320.291118 
L 76.946047 316.349262 
L 81.700472 311.698367 
L 86.615599 306.496644 
L 90.32539 302.249623 
L 93.714495 298.077299 
L 96.843487 293.927187 
L 99.796728 289.69248 
L 102.351259 285.726985 
L 105.14273 280.996691 
L 107.450499 276.69457 
L 109.51588 272.462727 
L 111.662933 267.570916 
L 113.556983 262.70433 
L 115.141325 258.095623 
L 116.558973 253.400295 
L 117.784222 248.733719 
L 119.050857 243.034122 
L 120.169481 236.820184 
L 121.059931 230.473903 
L 121.708564 224.339339 
L 122.229201 217.37682 
L 122.602091 209.231631 
L 122.802455 199.650303 
L 122.851731 183.373203 
L 122.958624 169.141094 
L 123.252004 159.636284 
L 123.713853 151.846405 
L 124.261809 145.692542 
L 125.077145 139.00821 
L 126.041463 132.967838 
L 127.117717 127.531626 
L 128.508875 121.725324 
L 130.03758 116.358352 
L 131.38392 112.232411 
L 133.130664 107.482406 
L 135.491431 101.852519 
L 137.728315 97.13369 
L 137.728315 97.13369 
" clip-path="url(#p869dd93b7c)" style="fill: none; stroke: #000000; stroke-linecap: square"/>
   </g>
   <g id="patch_3">
    <path d="M 100.089097 17.10363 
Q 99.986702 17.139565 101.994215 16.435032 
" clip-path="url(#p869dd93b7c)" style="fill: none; stroke: #000000; stroke-width: 2; stroke-linecap: round"/>
    <path d="M 113.085742 17.841454 
L 101.994215 16.435032 
L 109.774269 8.405664 
z
" clip-path="url(#p869dd93b7c)" style="stroke: #000000; stroke-width: 2; stroke-linecap: round"/>
   </g>
   <g id="patch_4">
    <path d="M 122.851153 186.396661 
Q 122.85116 185.950346 122.85113 187.7401 
" clip-path="url(#p869dd93b7c)" style="fill: none; stroke: #000000; stroke-width: 2; stroke-linecap: round"/>
    <path d="M 117.850964 197.740016 
L 122.85113 187.7401 
L 127.850964 197.740183 
z
" clip-path="url(#p869dd93b7c)" style="stroke: #000000; stroke-width: 2; stroke-linecap: round"/>
   </g>
   <g id="text_1">
    <g clip-path="url(#p869dd93b7c)">
     <!-- $P$ -->
     <g transform="translate(361.149302 272.458577) scale(0.25 -0.25)">
      <defs>
       <path id="Cmmi10-50" d="M 313 0 
Q 250 0 250 84 
Q 253 100 262 139 
Q 272 178 289 201 
Q 306 225 331 225 
Q 722 225 878 269 
Q 959 297 997 441 
L 1875 3956 
Q 1888 4019 1888 4044 
Q 1888 4113 1813 4122 
Q 1691 4147 1350 4147 
Q 1288 4147 1288 4231 
Q 1291 4247 1300 4286 
Q 1309 4325 1326 4348 
Q 1344 4372 1369 4372 
L 3578 4372 
Q 3881 4372 4165 4264 
Q 4450 4156 4631 3934 
Q 4813 3713 4813 3397 
Q 4813 2991 4527 2672 
Q 4241 2353 3814 2175 
Q 3388 1997 2988 1997 
L 1947 1997 
L 1556 416 
Q 1544 353 1544 325 
Q 1544 300 1551 283 
Q 1559 266 1573 261 
Q 1588 256 1619 250 
Q 1741 225 2081 225 
Q 2144 225 2144 141 
Q 2122 50 2109 25 
Q 2097 0 2034 0 
L 313 0 
z
M 1978 2188 
L 2875 2188 
Q 3497 2188 3822 2522 
Q 3988 2688 4092 3000 
Q 4197 3313 4197 3566 
Q 4197 3881 3956 4014 
Q 3716 4147 3359 4147 
L 2747 4147 
Q 2572 4147 2515 4117 
Q 2459 4088 2413 3928 
L 1978 2188 
z
" transform="scale(0.015625)"/>
      </defs>
      <use xlink:href="#Cmmi10-50" transform="translate(0 0.6875)"/>
     </g>
    </g>
   </g>
   <g id="text_2">
    <g clip-path="url(#p869dd93b7c)">
     <!-- $R$ -->
     <g transform="translate(150.544058 81.716385) scale(0.25 -0.25)">
      <defs>
       <path id="Cmmi10-52" d="M 313 0 
Q 250 0 250 84 
Q 253 100 262 139 
Q 272 178 289 201 
Q 306 225 331 225 
Q 722 225 878 269 
Q 959 297 997 441 
L 1875 3956 
Q 1888 4019 1888 4044 
Q 1888 4113 1813 4122 
Q 1691 4147 1350 4147 
Q 1288 4147 1288 4231 
Q 1291 4247 1300 4286 
Q 1309 4325 1326 4348 
Q 1344 4372 1369 4372 
L 3309 4372 
Q 3541 4372 3791 4319 
Q 4041 4266 4250 4152 
Q 4459 4038 4593 3848 
Q 4728 3659 4728 3406 
Q 4728 3084 4515 2831 
Q 4303 2578 3978 2408 
Q 3653 2238 3347 2169 
Q 3597 2078 3756 1879 
Q 3916 1681 3916 1422 
Q 3916 1388 3914 1370 
Q 3913 1353 3909 1331 
L 3859 763 
Q 3853 638 3847 550 
Q 3841 463 3841 409 
Q 3841 234 3892 129 
Q 3944 25 4097 25 
Q 4297 25 4448 211 
Q 4600 397 4647 616 
Q 4675 672 4709 672 
L 4769 672 
Q 4831 672 4831 588 
Q 4784 403 4682 237 
Q 4581 72 4426 -34 
Q 4272 -141 4091 -141 
Q 3716 -141 3452 26 
Q 3188 194 3188 550 
Q 3188 684 3213 788 
L 3353 1356 
Q 3378 1434 3378 1538 
Q 3378 1803 3198 1954 
Q 3019 2106 2747 2106 
L 1959 2106 
L 1538 416 
Q 1522 363 1522 325 
Q 1522 259 1600 250 
Q 1722 225 2059 225 
Q 2125 225 2125 141 
Q 2103 50 2090 25 
Q 2078 0 2016 0 
L 313 0 
z
M 1997 2272 
L 2706 2272 
Q 3403 2272 3756 2625 
Q 3919 2788 4014 3039 
Q 4109 3291 4109 3541 
Q 4109 3778 3970 3912 
Q 3831 4047 3626 4097 
Q 3422 4147 3175 4147 
L 2747 4147 
Q 2572 4147 2515 4117 
Q 2459 4088 2413 3928 
L 1997 2272 
z
" transform="scale(0.015625)"/>
      </defs>
      <use xlink:href="#Cmmi10-52" transform="translate(0 0.6875)"/>
     </g>
    </g>
   </g>
  </g>
 </g>
 <defs>
  <clipPath id="p869dd93b7c">
   <rect x="7.2" y="7.2" width="378.275121" height="324"/>
  </clipPath>
 </defs>
</svg>
