<?xml version="1.0" encoding="utf-8" standalone="no"?>
<!DOCTYPE svg PUBLIC "-//W3C//DTD SVG 1.1//EN"
  "http://www.w3.org/Graphics/SVG/1.1/DTD/svg11.dtd">
<svg xmlns:xlink="http://www.w3.org/1999/xlink" width="392.674134pt" height="338.4pt" viewBox="0 0 392.674134 338.4" xmlns="http://www.w3.org/2000/svg" version="1.1">
 <metadata>
  <rdf:RDF xmlns:dc="http://purl.org/dc/elements/1.1/" xmlns:cc="http://creativecommons.org/ns#" xmlns:rdf="http://www.w3.org/1999/02/22-rdf-syntax-ns#">
   <cc:Work>
    <dc:type rdf:resource="http://purl.org/dc/dcmitype/StillImage"/>
    <dc:date>2025-10-29T15:21:51.408684</dc:date>
    <dc:format>image/svg+xml</dc:format>
    <dc:creator>
     <cc:Agent>
      <dc:title>Matplotlib v3.10.5, https://matplotlib.org/</dc:title>
     </cc:Agent>
    </dc:creator>
   </cc:Work>
  </rdf:RDF>
 </metadata>
 <defs>
  <style type="text/css">*{stroke-linejoin: round; stroke-linecap: butt}</style>
 </defs>
 <g id="figure_1">
  <g id="patch_1">
   <path d="M 0 338.4 
L 392.674134 338.4 
L 392.674134 0 
L 0 0 
z
" style="fill: #ffffff"/>
  </g>
  <g id="axes_1">
   <g id="patch_2">
    <path d="M 7.2 331.2 
L 385.474134 331.2 
L 385.474134 7.2 
L 7.2 7.2 
z
" style="fill: #ffffff"/>
   </g>
   <g id="PathCollection_1">
    <path d="M 378.199631 246.768534 
C 379.137266 246.768534 380.036624 246.396008 380.699631 245.733 
C 381.362639 245.069992 381.735165 244.170635 381.735165 243.233 
C 381.735165 242.295366 381.362639 241.396008 380.699631 240.733 
C 380.036624 240.069992 379.137266 239.697466 378.199631 239.697466 
C 377.261997 239.697466 376.362639 240.069992 375.699631 240.733 
C 375.036624 241.396008 374.664097 242.295366 374.664097 243.233 
C 374.664097 244.170635 375.036624 245.069992 375.699631 245.733 
C 376.362639 246.396008 377.261997 246.768534 378.199631 246.768534 
z
" clip-path="url(#pfedf4bd7de)"/>
   </g>
   <g id="PathCollection_2">
    <path d="M 137.725932 100.656968 
C 138.663567 100.656968 139.562924 100.284442 140.225932 99.621434 
C 140.88894 98.958426 141.261466 98.059069 141.261466 97.121434 
C 141.261466 96.1838 140.88894 95.284442 140.225932 94.621434 
C 139.562924 93.958426 138.663567 93.5859 137.725932 93.5859 
C 136.788298 93.5859 135.88894 93.958426 135.225932 94.621434 
C 134.562924 95.284442 134.190398 96.1838 134.190398 97.121434 
C 134.190398 98.059069 134.562924 98.958426 135.225932 99.621434 
C 135.88894 100.284442 136.788298 100.656968 137.725932 100.656968 
z
" clip-path="url(#pfedf4bd7de)"/>
   </g>
   <g id="matplotlib.axis_1"/>
   <g id="matplotlib.axis_2"/>
   <g id="line2d_1">
    <path d="M 378.199631 243.233 
L 344.254336 201.280227 
L 320.15489 171.711838 
L 305.342247 153.880892 
L 289.813785 135.627801 
L 278.163803 122.314112 
L 267.581042 110.561438 
L 256.503626 98.662394 
L 249.528306 91.406826 
L 241.002147 82.812924 
L 231.430434 73.558743 
L 222.051694 64.934155 
L 215.577633 59.258447 
L 210.73393 55.170397 
L 204.671399 50.255201 
L 197.028558 44.396672 
L 190.187587 39.492883 
L 181.795735 33.947217 
L 177.086972 31.076072 
L 168.905546 26.525748 
L 163.427996 23.807787 
L 156.047485 20.589641 
L 154.007092 19.794091 
L 147.986603 17.695977 
L 144.067187 16.537877 
L 138.030885 15.091606 
L 136.425357 14.778428 
L 129.953313 13.835237 
L 123.738967 13.435165 
L 120.66084 13.430769 
L 114.787974 13.79855 
L 109.44369 14.585863 
L 106.880843 15.124789 
L 104.146826 15.820045 
L 101.53083 16.605451 
L 98.43349 17.692858 
L 94.51037 19.325884 
L 91.641071 20.709497 
L 87.183064 23.193759 
L 81.972971 26.646426 
L 78.395636 29.384657 
L 74.152587 33.049932 
L 71.735005 35.353688 
L 69.434035 37.699976 
L 64.900554 42.789513 
L 60.948001 47.773091 
L 57.604235 52.424573 
L 54.112523 57.748827 
L 51.154087 62.668836 
L 47.526929 69.268428 
L 44.811858 74.66284 
L 42.36258 79.901457 
L 39.509459 86.501629 
L 37.319 91.976894 
L 33.897552 101.351789 
L 30.617857 111.468057 
L 28.186572 119.855669 
L 25.96746 128.34184 
L 23.541676 138.787745 
L 21.488471 148.918707 
L 19.60701 159.703327 
L 18.29305 168.510864 
L 17.021818 178.64231 
L 16.137483 187.286457 
L 15.391931 196.582487 
L 14.888455 205.300164 
L 14.573116 214.269035 
L 14.474503 221.359588 
L 14.572667 231.322445 
L 14.923344 240.465302 
L 15.467244 248.632088 
L 16.334607 257.519274 
L 16.887157 261.956934 
L 18.213372 270.543696 
L 18.98608 274.668791 
L 20.586139 281.885799 
L 22.403408 288.571376 
L 24.200768 294.076455 
L 25.800713 298.278094 
L 27.993666 303.198726 
L 30.17058 307.311135 
L 32.36871 310.826471 
L 34.36555 313.551527 
L 36.588655 316.133664 
L 38.964909 318.434391 
L 41.358436 320.330302 
L 42.613806 321.171972 
L 44.555033 322.283864 
L 46.53356 323.197206 
L 48.081315 323.768069 
L 50.162306 324.350672 
L 53.214617 324.850933 
L 55.289011 324.969231 
L 58.591362 324.818831 
L 61.960427 324.271735 
L 63.099834 324.003054 
L 67.032564 322.773899 
L 69.910568 321.596661 
L 72.637966 320.280175 
L 72.637966 320.280175 
" clip-path="url(#pfedf4bd7de)" style="fill: none; stroke: #000000; stroke-linecap: square"/>
   </g>
   <g id="line2d_2">
    <path d="M 72.637966 320.280175 
L 77.581907 315.732875 
L 82.831618 310.525792 
L 86.943714 306.119034 
L 91.080628 301.331642 
L 94.733553 296.745274 
L 98.004965 292.287186 
L 101.003728 287.842253 
L 103.679744 283.517685 
L 106.225256 279.012414 
L 108.919592 273.710335 
L 111.221639 268.607198 
L 113.396737 263.122272 
L 114.883564 258.866976 
L 116.736811 252.742594 
L 118.171784 247.079852 
L 119.367373 241.391416 
L 120.223504 236.452052 
L 121.119449 229.947907 
L 121.802754 223.226122 
L 122.324834 215.642286 
L 122.662996 207.090795 
L 122.826022 196.655458 
L 123.141733 162.277714 
L 123.52567 154.516554 
L 124.070934 147.580038 
L 124.765134 141.30337 
L 125.787991 134.395542 
L 126.980828 128.144462 
L 128.271022 122.622933 
L 129.780595 117.183134 
L 131.426035 112.091439 
L 133.453339 106.646955 
L 135.747357 101.268245 
L 137.725932 97.121434 
L 137.725932 97.121434 
" clip-path="url(#pfedf4bd7de)" style="fill: none; stroke: #000000; stroke-linecap: square"/>
   </g>
   <g id="patch_3">
    <path d="M 100.086493 17.090904 
Q 99.984098 17.126839 101.99161 16.422306 
" clip-path="url(#pfedf4bd7de)" style="fill: none; stroke: #000000; stroke-width: 2; stroke-linecap: round"/>
    <path d="M 113.083137 17.828728 
L 101.99161 16.422306 
L 109.771664 8.392938 
z
" clip-path="url(#pfedf4bd7de)" style="stroke: #000000; stroke-width: 2; stroke-linecap: round"/>
   </g>
   <g id="patch_4">
    <path d="M 122.848683 186.384931 
Q 122.84869 185.938613 122.84866 187.728364 
" clip-path="url(#pfedf4bd7de)" style="fill: none; stroke: #000000; stroke-width: 2; stroke-linecap: round"/>
    <path d="M 117.848494 197.72828 
L 122.84866 187.728364 
L 127.848494 197.728447 
z
" clip-path="url(#pfedf4bd7de)" style="stroke: #000000; stroke-width: 2; stroke-linecap: round"/>
   </g>
   <g id="text_1">
    <g clip-path="url(#pfedf4bd7de)">
     <!-- $P$ -->
     <g transform="translate(361.148282 272.447312) scale(0.25 -0.25)">
      <defs>
       <path id="Cmmi10-50" d="M 313 0 
Q 250 0 250 84 
Q 253 100 262 139 
Q 272 178 289 201 
Q 306 225 331 225 
Q 722 225 878 269 
Q 959 297 997 441 
L 1875 3956 
Q 1888 4019 1888 4044 
Q 1888 4113 1813 4122 
Q 1691 4147 1350 4147 
Q 1288 4147 1288 4231 
Q 1291 4247 1300 4286 
Q 1309 4325 1326 4348 
Q 1344 4372 1369 4372 
L 3578 4372 
Q 3881 4372 4165 4264 
Q 4450 4156 4631 3934 
Q 4813 3713 4813 3397 
Q 4813 2991 4527 2672 
Q 4241 2353 3814 2175 
Q 3388 1997 2988 1997 
L 1947 1997 
L 1556 416 
Q 1544 353 1544 325 
Q 1544 300 1551 283 
Q 1559 266 1573 261 
Q 1588 256 1619 250 
Q 1741 225 2081 225 
Q 2144 225 2144 141 
Q 2122 50 2109 25 
Q 2097 0 2034 0 
L 313 0 
z
M 1978 2188 
L 2875 2188 
Q 3497 2188 3822 2522 
Q 3988 2688 4092 3000 
Q 4197 3313 4197 3566 
Q 4197 3881 3956 4014 
Q 3716 4147 3359 4147 
L 2747 4147 
Q 2572 4147 2515 4117 
Q 2459 4088 2413 3928 
L 1978 2188 
z
" transform="scale(0.015625)"/>
      </defs>
      <use xlink:href="#Cmmi10-50" transform="translate(0 0.6875)"/>
     </g>
    </g>
   </g>
   <g id="text_2">
    <g clip-path="url(#pfedf4bd7de)">
     <!-- $R$ -->
     <g transform="translate(150.541806 81.703998) scale(0.25 -0.25)">
      <defs>
       <path id="Cmmi10-52" d="M 313 0 
Q 250 0 250 84 
Q 253 100 262 139 
Q 272 178 289 201 
Q 306 225 331 225 
Q 722 225 878 269 
Q 959 297 997 441 
L 1875 3956 
Q 1888 4019 1888 4044 
Q 1888 4113 1813 4122 
Q 1691 4147 1350 4147 
Q 1288 4147 1288 4231 
Q 1291 4247 1300 4286 
Q 1309 4325 1326 4348 
Q 1344 4372 1369 4372 
L 3309 4372 
Q 3541 4372 3791 4319 
Q 4041 4266 4250 4152 
Q 4459 4038 4593 3848 
Q 4728 3659 4728 3406 
Q 4728 3084 4515 2831 
Q 4303 2578 3978 2408 
Q 3653 2238 3347 2169 
Q 3597 2078 3756 1879 
Q 3916 1681 3916 1422 
Q 3916 1388 3914 1370 
Q 3913 1353 3909 1331 
L 3859 763 
Q 3853 638 3847 550 
Q 3841 463 3841 409 
Q 3841 234 3892 129 
Q 3944 25 4097 25 
Q 4297 25 4448 211 
Q 4600 397 4647 616 
Q 4675 672 4709 672 
L 4769 672 
Q 4831 672 4831 588 
Q 4784 403 4682 237 
Q 4581 72 4426 -34 
Q 4272 -141 4091 -141 
Q 3716 -141 3452 26 
Q 3188 194 3188 550 
Q 3188 684 3213 788 
L 3353 1356 
Q 3378 1434 3378 1538 
Q 3378 1803 3198 1954 
Q 3019 2106 2747 2106 
L 1959 2106 
L 1538 416 
Q 1522 363 1522 325 
Q 1522 259 1600 250 
Q 1722 225 2059 225 
Q 2125 225 2125 141 
Q 2103 50 2090 25 
Q 2078 0 2016 0 
L 313 0 
z
M 1997 2272 
L 2706 2272 
Q 3403 2272 3756 2625 
Q 3919 2788 4014 3039 
Q 4109 3291 4109 3541 
Q 4109 3778 3970 3912 
Q 3831 4047 3626 4097 
Q 3422 4147 3175 4147 
L 2747 4147 
Q 2572 4147 2515 4117 
Q 2459 4088 2413 3928 
L 1997 2272 
z
" transform="scale(0.015625)"/>
      </defs>
      <use xlink:href="#Cmmi10-52" transform="translate(0 0.6875)"/>
     </g>
    </g>
   </g>
  </g>
 </g>
 <defs>
  <clipPath id="pfedf4bd7de">
   <rect x="7.2" y="7.2" width="378.274134" height="324"/>
  </clipPath>
 </defs>
</svg>
