<?xml version="1.0" encoding="utf-8" standalone="no"?>
<!DOCTYPE svg PUBLIC "-//W3C//DTD SVG 1.1//EN"
  "http://www.w3.org/Graphics/SVG/1.1/DTD/svg11.dtd">
<svg xmlns:xlink="http://www.w3.org/1999/xlink" width="392.657462pt" height="338.4pt" viewBox="0 0 392.657462 338.4" xmlns="http://www.w3.org/2000/svg" version="1.1">
 <metadata>
  <rdf:RDF xmlns:dc="http://purl.org/dc/elements/1.1/" xmlns:cc="http://creativecommons.org/ns#" xmlns:rdf="http://www.w3.org/1999/02/22-rdf-syntax-ns#">
   <cc:Work>
    <dc:type rdf:resource="http://purl.org/dc/dcmitype/StillImage"/>
    <dc:date>2025-08-04T00:37:34.945726</dc:date>
    <dc:format>image/svg+xml</dc:format>
    <dc:creator>
     <cc:Agent>
      <dc:title>Matplotlib v3.10.5, https://matplotlib.org/</dc:title>
     </cc:Agent>
    </dc:creator>
   </cc:Work>
  </rdf:RDF>
 </metadata>
 <defs>
  <style type="text/css">*{stroke-linejoin: round; stroke-linecap: butt}</style>
 </defs>
 <g id="figure_1">
  <g id="patch_1">
   <path d="M 0 338.4 
L 392.657462 338.4 
L 392.657462 0 
L 0 0 
z
" style="fill: #ffffff"/>
  </g>
  <g id="axes_1">
   <g id="patch_2">
    <path d="M 7.2 331.2 
L 385.457462 331.2 
L 385.457462 7.2 
L 7.2 7.2 
z
" style="fill: #ffffff"/>
   </g>
   <g id="PathCollection_1">
    <path d="M 137.71918 100.663863 
C 138.656815 100.663863 139.556172 100.291337 140.21918 99.628329 
C 140.882188 98.965321 141.254714 98.065964 141.254714 97.128329 
C 141.254714 96.190695 140.882188 95.291337 140.21918 94.628329 
C 139.556172 93.965321 138.656815 93.592795 137.71918 93.592795 
C 136.781546 93.592795 135.882188 93.965321 135.21918 94.628329 
C 134.556172 95.291337 134.183646 96.190695 134.183646 97.128329 
C 134.183646 98.065964 134.556172 98.965321 135.21918 99.628329 
C 135.882188 100.291337 136.781546 100.663863 137.71918 100.663863 
z
" clip-path="url(#pc01a6e2989)"/>
   </g>
   <g id="matplotlib.axis_1"/>
   <g id="matplotlib.axis_2"/>
   <g id="line2d_1">
    <path d="M 378.18328 243.234063 
L 347.186801 204.926463 
L 328.700243 182.157353 
L 310.443261 160.00229 
L 296.772091 143.762974 
L 285.136532 130.259172 
L 271.868941 115.300496 
L 261.791032 104.306211 
L 253.246791 95.269441 
L 245.608183 87.434973 
L 241.069168 82.897459 
L 232.425195 74.517753 
L 224.917782 67.53815 
L 216.536867 60.101312 
L 210.388436 54.900739 
L 205.002806 50.534157 
L 197.656775 44.879234 
L 193.202823 41.628831 
L 186.733496 37.160755 
L 182.606941 34.474526 
L 175.042461 29.900072 
L 171.062485 27.683665 
L 162.832686 23.542405 
L 157.522742 21.203757 
L 151.460683 18.873186 
L 148.692175 17.934544 
L 142.261139 16.073366 
L 135.979388 14.708299 
L 131.918238 14.077445 
L 126.940496 13.588023 
L 122.858632 13.430769 
L 118.56617 13.514164 
L 115.837843 13.705193 
L 109.957674 14.499785 
L 104.266917 15.795491 
L 101.208567 16.718894 
L 96.944146 18.286418 
L 94.392837 19.387068 
L 91.179934 20.954678 
L 87.264611 23.151522 
L 84.211232 25.094484 
L 80.567055 27.691854 
L 76.578494 30.902982 
L 74.238342 32.976745 
L 72.48502 34.627019 
L 67.729471 39.543762 
L 64.8105 42.901657 
L 61.201915 47.440666 
L 56.300925 54.357075 
L 53.789216 58.270527 
L 50.637909 63.570926 
L 47.178859 69.939135 
L 43.74692 76.896289 
L 40.417915 84.338739 
L 37.973711 90.300626 
L 35.84849 95.874264 
L 32.853532 104.438839 
L 30.762866 110.991929 
L 28.056552 120.326504 
L 26.448383 126.422285 
L 24.074616 136.364648 
L 21.57916 148.433579 
L 20.148994 156.403801 
L 18.808622 164.886251 
L 17.274146 176.447426 
L 16.228623 186.288314 
L 15.352934 197.131372 
L 14.849145 206.122687 
L 14.532461 216.122381 
L 14.474182 224.734075 
L 14.62468 233.297875 
L 15.056695 242.848868 
L 15.483774 248.859407 
L 16.182673 256.184743 
L 17.163341 263.96247 
L 18.446057 271.851106 
L 19.615374 277.700682 
L 20.822539 282.841483 
L 22.570257 289.129703 
L 24.315967 294.404197 
L 25.918718 298.570277 
L 27.715495 302.625026 
L 30.166305 307.306486 
L 32.015787 310.302817 
L 34.167953 313.301525 
L 36.171324 315.683489 
L 38.398718 317.926669 
L 39.685406 319.047607 
L 41.318925 320.302228 
L 42.837196 321.311167 
L 46.296682 323.09815 
L 48.018704 323.746218 
L 50.726098 324.472319 
L 53.800313 324.899856 
L 55.955196 324.969231 
L 59.314788 324.730944 
L 62.458798 324.156196 
L 65.724837 323.229508 
L 67.427224 322.62226 
L 70.675876 321.242477 
L 72.633812 320.278162 
L 72.633812 320.278162 
" clip-path="url(#pc01a6e2989)" style="fill: none; stroke: #ffffff; stroke-linecap: square"/>
   </g>
   <g id="line2d_2">
    <path d="M 72.633812 320.278162 
L 77.648793 315.663156 
L 82.87669 310.472824 
L 86.506374 306.596554 
L 90.405851 302.132726 
L 94.377156 297.202031 
L 97.717407 292.686032 
L 100.174136 289.101954 
L 103.434394 283.920763 
L 106.299965 278.86284 
L 108.761371 274.02796 
L 110.805377 269.56387 
L 112.894717 264.442637 
L 115.005437 258.47793 
L 116.471158 253.670275 
L 117.756179 248.803421 
L 118.801485 244.195979 
L 120.001751 237.788721 
L 120.898004 231.68765 
L 121.634222 225.043944 
L 122.202142 217.670753 
L 122.595732 209.153139 
L 122.782045 200.634208 
L 122.842525 186.502636 
L 122.935031 169.974374 
L 123.224976 160.044357 
L 123.707014 151.814918 
L 124.391118 144.399416 
L 125.319513 137.282839 
L 126.139279 132.372939 
L 127.355456 126.412697 
L 128.485934 121.772972 
L 130.027836 116.355168 
L 131.799979 111.015172 
L 133.820952 105.726414 
L 135.632132 101.51442 
L 137.71918 97.128329 
L 137.71918 97.128329 
" clip-path="url(#pc01a6e2989)" style="fill: none; stroke: #000000; stroke-linecap: square"/>
   </g>
   <g id="patch_3">
    <path d="M 122.842525 186.388262 
Q 122.842532 185.941963 122.842502 187.731731 
" clip-path="url(#pc01a6e2989)" style="fill: none; stroke: #000000; stroke-width: 2; stroke-linecap: round"/>
    <path d="M 117.842335 197.731648 
L 122.842502 187.731731 
L 127.842335 197.731814 
z
" clip-path="url(#pc01a6e2989)" style="stroke: #000000; stroke-width: 2; stroke-linecap: round"/>
   </g>
   <g id="text_1">
    <g clip-path="url(#pc01a6e2989)">
     <!-- $Q$ -->
     <g transform="translate(89.411792 318.250606) scale(0.25 -0.25)">
      <defs>
       <path id="Cmmi10-51" d="M 1947 -141 
Q 1466 -141 1094 79 
Q 722 300 520 692 
Q 319 1084 319 1563 
Q 319 2259 714 2950 
Q 1109 3641 1756 4077 
Q 2403 4513 3109 4513 
Q 3475 4513 3778 4381 
Q 4081 4250 4290 4017 
Q 4500 3784 4614 3471 
Q 4728 3159 4728 2791 
Q 4728 2366 4581 1936 
Q 4434 1506 4171 1136 
Q 3909 766 3559 484 
Q 3209 203 2809 38 
Q 2850 -256 2934 -425 
Q 3019 -594 3256 -594 
Q 3506 -594 3726 -412 
Q 3947 -231 4006 13 
Q 4019 72 4078 72 
Q 4147 72 4147 -13 
Q 4100 -219 4008 -430 
Q 3916 -641 3786 -823 
Q 3656 -1006 3478 -1123 
Q 3300 -1241 3084 -1241 
Q 2547 -1241 2547 -550 
Q 2547 -509 2562 -332 
Q 2578 -156 2578 -44 
Q 2269 -141 1947 -141 
z
M 1709 300 
Q 1709 44 1991 44 
Q 2275 44 2591 184 
L 2591 244 
Q 2591 503 2509 648 
Q 2428 794 2194 794 
Q 2078 794 1964 723 
Q 1850 653 1779 539 
Q 1709 425 1709 300 
z
M 1544 288 
Q 1544 456 1637 612 
Q 1731 769 1881 864 
Q 2031 959 2203 959 
Q 2481 959 2607 771 
Q 2734 584 2778 281 
Q 3188 525 3500 978 
Q 3813 1431 3977 1973 
Q 4141 2516 4141 3003 
Q 4141 3356 4023 3656 
Q 3906 3956 3664 4140 
Q 3422 4325 3066 4325 
Q 2722 4325 2403 4156 
Q 2084 3988 1813 3706 
Q 1550 3434 1342 3032 
Q 1134 2631 1021 2193 
Q 909 1756 909 1356 
Q 909 947 1068 612 
Q 1228 278 1569 128 
Q 1544 194 1544 288 
z
" transform="scale(0.015625)"/>
      </defs>
      <use xlink:href="#Cmmi10-51" transform="translate(0 0.484375)"/>
     </g>
    </g>
   </g>
   <g id="text_2">
    <g clip-path="url(#pc01a6e2989)">
     <!-- $R$ -->
     <g transform="translate(105.904197 117.415757) scale(0.25 -0.25)">
      <defs>
       <path id="Cmmi10-52" d="M 313 0 
Q 250 0 250 84 
Q 253 100 262 139 
Q 272 178 289 201 
Q 306 225 331 225 
Q 722 225 878 269 
Q 959 297 997 441 
L 1875 3956 
Q 1888 4019 1888 4044 
Q 1888 4113 1813 4122 
Q 1691 4147 1350 4147 
Q 1288 4147 1288 4231 
Q 1291 4247 1300 4286 
Q 1309 4325 1326 4348 
Q 1344 4372 1369 4372 
L 3309 4372 
Q 3541 4372 3791 4319 
Q 4041 4266 4250 4152 
Q 4459 4038 4593 3848 
Q 4728 3659 4728 3406 
Q 4728 3084 4515 2831 
Q 4303 2578 3978 2408 
Q 3653 2238 3347 2169 
Q 3597 2078 3756 1879 
Q 3916 1681 3916 1422 
Q 3916 1388 3914 1370 
Q 3913 1353 3909 1331 
L 3859 763 
Q 3853 638 3847 550 
Q 3841 463 3841 409 
Q 3841 234 3892 129 
Q 3944 25 4097 25 
Q 4297 25 4448 211 
Q 4600 397 4647 616 
Q 4675 672 4709 672 
L 4769 672 
Q 4831 672 4831 588 
Q 4784 403 4682 237 
Q 4581 72 4426 -34 
Q 4272 -141 4091 -141 
Q 3716 -141 3452 26 
Q 3188 194 3188 550 
Q 3188 684 3213 788 
L 3353 1356 
Q 3378 1434 3378 1538 
Q 3378 1803 3198 1954 
Q 3019 2106 2747 2106 
L 1959 2106 
L 1538 416 
Q 1522 363 1522 325 
Q 1522 259 1600 250 
Q 1722 225 2059 225 
Q 2125 225 2125 141 
Q 2103 50 2090 25 
Q 2078 0 2016 0 
L 313 0 
z
M 1997 2272 
L 2706 2272 
Q 3403 2272 3756 2625 
Q 3919 2788 4014 3039 
Q 4109 3291 4109 3541 
Q 4109 3778 3970 3912 
Q 3831 4047 3626 4097 
Q 3422 4147 3175 4147 
L 2747 4147 
Q 2572 4147 2515 4117 
Q 2459 4088 2413 3928 
L 1997 2272 
z
" transform="scale(0.015625)"/>
      </defs>
      <use xlink:href="#Cmmi10-52" transform="translate(0 0.6875)"/>
     </g>
    </g>
   </g>
   <g id="PathCollection_2">
    <path d="M 72.633812 323.813696 
C 73.571447 323.813696 74.470804 323.44117 75.133812 322.778162 
C 75.79682 322.115155 76.169346 321.215797 76.169346 320.278162 
C 76.169346 319.340528 75.79682 318.44117 75.133812 317.778162 
C 74.470804 317.115155 73.571447 316.742628 72.633812 316.742628 
C 71.696178 316.742628 70.79682 317.115155 70.133812 317.778162 
C 69.470804 318.44117 69.098278 319.340528 69.098278 320.278162 
C 69.098278 321.215797 69.470804 322.115155 70.133812 322.778162 
C 70.79682 323.44117 71.696178 323.813696 72.633812 323.813696 
z
" clip-path="url(#pc01a6e2989)"/>
   </g>
  </g>
 </g>
 <defs>
  <clipPath id="pc01a6e2989">
   <rect x="7.2" y="7.2" width="378.257462" height="324"/>
  </clipPath>
 </defs>
</svg>
