<?xml version="1.0" encoding="utf-8" standalone="no"?>
<!DOCTYPE svg PUBLIC "-//W3C//DTD SVG 1.1//EN"
  "http://www.w3.org/Graphics/SVG/1.1/DTD/svg11.dtd">
<svg xmlns:xlink="http://www.w3.org/1999/xlink" width="392.660734pt" height="338.4pt" viewBox="0 0 392.660734 338.4" xmlns="http://www.w3.org/2000/svg" version="1.1">
 <metadata>
  <rdf:RDF xmlns:dc="http://purl.org/dc/elements/1.1/" xmlns:cc="http://creativecommons.org/ns#" xmlns:rdf="http://www.w3.org/1999/02/22-rdf-syntax-ns#">
   <cc:Work>
    <dc:type rdf:resource="http://purl.org/dc/dcmitype/StillImage"/>
    <dc:date>2025-11-26T17:28:50.681107</dc:date>
    <dc:format>image/svg+xml</dc:format>
    <dc:creator>
     <cc:Agent>
      <dc:title>Matplotlib v3.10.5, https://matplotlib.org/</dc:title>
     </cc:Agent>
    </dc:creator>
   </cc:Work>
  </rdf:RDF>
 </metadata>
 <defs>
  <style type="text/css">*{stroke-linejoin: round; stroke-linecap: butt}</style>
 </defs>
 <g id="figure_1">
  <g id="patch_1">
   <path d="M 0 338.4 
L 392.660734 338.4 
L 392.660734 0 
L 0 0 
z
" style="fill: #ffffff"/>
  </g>
  <g id="axes_1">
   <g id="patch_2">
    <path d="M 7.2 331.2 
L 385.460734 331.2 
L 385.460734 7.2 
L 7.2 7.2 
z
" style="fill: #ffffff"/>
   </g>
   <g id="PathCollection_1">
    <path d="M 137.723274 100.663528 
C 138.660909 100.663528 139.560267 100.291001 140.223274 99.627994 
C 140.886282 98.964986 141.258808 98.065628 141.258808 97.127994 
C 141.258808 96.190359 140.886282 95.291001 140.223274 94.627994 
C 139.560267 93.964986 138.660909 93.59246 137.723274 93.59246 
C 136.78564 93.59246 135.886282 93.964986 135.223274 94.627994 
C 134.560267 95.291001 134.18774 96.190359 134.18774 97.127994 
C 134.18774 98.065628 134.560267 98.964986 135.223274 99.627994 
C 135.886282 100.291001 136.78564 100.663528 137.723274 100.663528 
z
" clip-path="url(#p4f04cbf148)"/>
   </g>
   <g id="matplotlib.axis_1"/>
   <g id="matplotlib.axis_2"/>
   <g id="line2d_1">
    <path d="M 378.18649 243.23319 
L 312.579846 162.566036 
L 296.549702 143.49729 
L 283.591469 128.487006 
L 272.652128 116.164537 
L 260.833612 103.275792 
L 251.287088 93.232495 
L 244.426306 86.240744 
L 233.407437 75.448149 
L 225.783931 68.32485 
L 216.756547 60.287735 
L 209.016387 53.767866 
L 204.696661 50.28822 
L 195.956184 43.618881 
L 190.665591 39.837157 
L 187.413639 37.613216 
L 181.762431 33.938479 
L 177.234404 31.17527 
L 170.91644 27.602701 
L 164.678789 24.415918 
L 159.996675 22.257892 
L 153.762469 19.712733 
L 148.072797 17.73433 
L 144.767733 16.743388 
L 140.335447 15.605048 
L 135.031629 14.542246 
L 133.15988 14.248074 
L 129.369767 13.786502 
L 123.929339 13.450002 
L 121.319156 13.430769 
L 116.247575 13.669813 
L 113.254268 13.989089 
L 109.792223 14.530708 
L 106.131562 15.312619 
L 102.363785 16.352113 
L 97.764564 17.960406 
L 93.40282 19.85015 
L 88.312148 22.534415 
L 85.786581 24.068858 
L 81.366565 27.098319 
L 76.9326 30.605236 
L 73.435041 33.726332 
L 69.371152 37.775756 
L 66.806486 40.581262 
L 63.101043 45.001869 
L 59.59961 49.60835 
L 56.340823 54.303449 
L 52.502645 60.387164 
L 48.511986 67.420576 
L 45.053244 74.176683 
L 41.471388 81.913403 
L 38.798574 88.248439 
L 34.976386 98.289433 
L 32.336327 106.025794 
L 30.351197 112.36014 
L 28.09541 120.20069 
L 26.115819 127.75988 
L 24.281057 135.467504 
L 22.441436 144.057432 
L 20.452158 154.659043 
L 18.858555 164.578044 
L 18.071374 170.162874 
L 16.615233 182.424017 
L 15.595454 193.800761 
L 14.908355 204.937544 
L 14.593022 213.56486 
L 14.474245 222.440897 
L 14.54973 230.18999 
L 14.930343 240.546871 
L 15.509157 249.112265 
L 16.092323 255.304326 
L 16.766276 261.021377 
L 17.938225 268.925445 
L 19.408329 276.713312 
L 20.976382 283.425792 
L 22.772864 289.772151 
L 24.107883 293.805434 
L 26.175752 299.175522 
L 27.59379 302.357841 
L 29.281723 305.708346 
L 31.355686 309.272854 
L 33.372115 312.241883 
L 35.679257 315.125917 
L 37.143694 316.706497 
L 39.939472 319.250053 
L 42.465027 321.07325 
L 43.294445 321.583206 
L 45.834116 322.894688 
L 48.581583 323.923297 
L 50.183485 324.351945 
L 53.961438 324.909908 
L 55.691324 324.969231 
L 57.798738 324.887854 
L 59.623655 324.688474 
L 63.103263 323.999003 
L 66.040618 323.12343 
L 68.482961 322.205596 
L 72.638146 320.277005 
L 72.638146 320.277005 
" clip-path="url(#p4f04cbf148)" style="fill: none; stroke: #ffffff; stroke-linecap: square"/>
   </g>
   <g id="line2d_2">
    <path d="M 72.638146 320.277005 
L 78.206974 315.13174 
L 82.290907 311.079408 
L 86.309957 306.816362 
L 90.882105 301.567492 
L 94.864418 296.570607 
L 97.696309 292.720701 
L 101.133814 287.637062 
L 103.661848 283.544355 
L 106.658425 278.19697 
L 109.263393 272.98176 
L 111.458629 268.040216 
L 113.798146 262.015089 
L 115.570231 256.715354 
L 117.114679 251.339067 
L 118.424486 245.958307 
L 119.615654 240.041372 
L 120.552779 234.251876 
L 121.326672 228.116319 
L 121.934356 221.587039 
L 122.399612 214.138445 
L 122.716221 204.794083 
L 122.839082 193.520359 
L 123.020994 166.113722 
L 123.318864 158.126248 
L 123.820758 150.411071 
L 124.512413 143.365715 
L 125.428012 136.602195 
L 126.438807 130.805124 
L 127.713916 124.881989 
L 129.17369 119.262227 
L 130.668484 114.344981 
L 132.52408 109.047145 
L 134.615754 103.834273 
L 137.198098 98.190954 
L 137.723274 97.127994 
L 137.723274 97.127994 
" clip-path="url(#p4f04cbf148)" style="fill: none; stroke: #000000; stroke-linecap: square"/>
   </g>
   <g id="patch_3">
    <path d="M 122.846674 186.387598 
Q 122.846681 185.9413 122.846651 187.73107 
" clip-path="url(#p4f04cbf148)" style="fill: none; stroke: #000000; stroke-width: 2; stroke-linecap: round"/>
    <path d="M 117.846484 197.730987 
L 122.846651 187.73107 
L 127.846484 197.731154 
z
" clip-path="url(#p4f04cbf148)" style="stroke: #000000; stroke-width: 2; stroke-linecap: round"/>
   </g>
   <g id="text_1">
    <g clip-path="url(#p4f04cbf148)">
     <!-- $Q$ -->
     <g transform="translate(89.416027 318.249482) scale(0.25 -0.25)">
      <defs>
       <path id="Cmmi10-51" d="M 1947 -141 
Q 1466 -141 1094 79 
Q 722 300 520 692 
Q 319 1084 319 1563 
Q 319 2259 714 2950 
Q 1109 3641 1756 4077 
Q 2403 4513 3109 4513 
Q 3475 4513 3778 4381 
Q 4081 4250 4290 4017 
Q 4500 3784 4614 3471 
Q 4728 3159 4728 2791 
Q 4728 2366 4581 1936 
Q 4434 1506 4171 1136 
Q 3909 766 3559 484 
Q 3209 203 2809 38 
Q 2850 -256 2934 -425 
Q 3019 -594 3256 -594 
Q 3506 -594 3726 -412 
Q 3947 -231 4006 13 
Q 4019 72 4078 72 
Q 4147 72 4147 -13 
Q 4100 -219 4008 -430 
Q 3916 -641 3786 -823 
Q 3656 -1006 3478 -1123 
Q 3300 -1241 3084 -1241 
Q 2547 -1241 2547 -550 
Q 2547 -509 2562 -332 
Q 2578 -156 2578 -44 
Q 2269 -141 1947 -141 
z
M 1709 300 
Q 1709 44 1991 44 
Q 2275 44 2591 184 
L 2591 244 
Q 2591 503 2509 648 
Q 2428 794 2194 794 
Q 2078 794 1964 723 
Q 1850 653 1779 539 
Q 1709 425 1709 300 
z
M 1544 288 
Q 1544 456 1637 612 
Q 1731 769 1881 864 
Q 2031 959 2203 959 
Q 2481 959 2607 771 
Q 2734 584 2778 281 
Q 3188 525 3500 978 
Q 3813 1431 3977 1973 
Q 4141 2516 4141 3003 
Q 4141 3356 4023 3656 
Q 3906 3956 3664 4140 
Q 3422 4325 3066 4325 
Q 2722 4325 2403 4156 
Q 2084 3988 1813 3706 
Q 1550 3434 1342 3032 
Q 1134 2631 1021 2193 
Q 909 1756 909 1356 
Q 909 947 1068 612 
Q 1228 278 1569 128 
Q 1544 194 1544 288 
z
" transform="scale(0.015625)"/>
      </defs>
      <use xlink:href="#Cmmi10-51" transform="translate(0 0.484375)"/>
     </g>
    </g>
   </g>
   <g id="text_2">
    <g clip-path="url(#p4f04cbf148)">
     <!-- $R$ -->
     <g transform="translate(105.908373 117.415372) scale(0.25 -0.25)">
      <defs>
       <path id="Cmmi10-52" d="M 313 0 
Q 250 0 250 84 
Q 253 100 262 139 
Q 272 178 289 201 
Q 306 225 331 225 
Q 722 225 878 269 
Q 959 297 997 441 
L 1875 3956 
Q 1888 4019 1888 4044 
Q 1888 4113 1813 4122 
Q 1691 4147 1350 4147 
Q 1288 4147 1288 4231 
Q 1291 4247 1300 4286 
Q 1309 4325 1326 4348 
Q 1344 4372 1369 4372 
L 3309 4372 
Q 3541 4372 3791 4319 
Q 4041 4266 4250 4152 
Q 4459 4038 4593 3848 
Q 4728 3659 4728 3406 
Q 4728 3084 4515 2831 
Q 4303 2578 3978 2408 
Q 3653 2238 3347 2169 
Q 3597 2078 3756 1879 
Q 3916 1681 3916 1422 
Q 3916 1388 3914 1370 
Q 3913 1353 3909 1331 
L 3859 763 
Q 3853 638 3847 550 
Q 3841 463 3841 409 
Q 3841 234 3892 129 
Q 3944 25 4097 25 
Q 4297 25 4448 211 
Q 4600 397 4647 616 
Q 4675 672 4709 672 
L 4769 672 
Q 4831 672 4831 588 
Q 4784 403 4682 237 
Q 4581 72 4426 -34 
Q 4272 -141 4091 -141 
Q 3716 -141 3452 26 
Q 3188 194 3188 550 
Q 3188 684 3213 788 
L 3353 1356 
Q 3378 1434 3378 1538 
Q 3378 1803 3198 1954 
Q 3019 2106 2747 2106 
L 1959 2106 
L 1538 416 
Q 1522 363 1522 325 
Q 1522 259 1600 250 
Q 1722 225 2059 225 
Q 2125 225 2125 141 
Q 2103 50 2090 25 
Q 2078 0 2016 0 
L 313 0 
z
M 1997 2272 
L 2706 2272 
Q 3403 2272 3756 2625 
Q 3919 2788 4014 3039 
Q 4109 3291 4109 3541 
Q 4109 3778 3970 3912 
Q 3831 4047 3626 4097 
Q 3422 4147 3175 4147 
L 2747 4147 
Q 2572 4147 2515 4117 
Q 2459 4088 2413 3928 
L 1997 2272 
z
" transform="scale(0.015625)"/>
      </defs>
      <use xlink:href="#Cmmi10-52" transform="translate(0 0.6875)"/>
     </g>
    </g>
   </g>
   <g id="PathCollection_2">
    <path d="M 72.638146 323.812539 
C 73.57578 323.812539 74.475138 323.440013 75.138146 322.777005 
C 75.801154 322.113998 76.17368 321.21464 76.17368 320.277005 
C 76.17368 319.339371 75.801154 318.440013 75.138146 317.777005 
C 74.475138 317.113998 73.57578 316.741472 72.638146 316.741472 
C 71.700511 316.741472 70.801154 317.113998 70.138146 317.777005 
C 69.475138 318.440013 69.102612 319.339371 69.102612 320.277005 
C 69.102612 321.21464 69.475138 322.113998 70.138146 322.777005 
C 70.801154 323.440013 71.700511 323.812539 72.638146 323.812539 
z
" clip-path="url(#p4f04cbf148)"/>
   </g>
  </g>
 </g>
 <defs>
  <clipPath id="p4f04cbf148">
   <rect x="7.2" y="7.2" width="378.260734" height="324"/>
  </clipPath>
 </defs>
</svg>
