<?xml version="1.0" encoding="utf-8" standalone="no"?>
<!DOCTYPE svg PUBLIC "-//W3C//DTD SVG 1.1//EN"
  "http://www.w3.org/Graphics/SVG/1.1/DTD/svg11.dtd">
<svg xmlns:xlink="http://www.w3.org/1999/xlink" width="392.674133pt" height="338.4pt" viewBox="0 0 392.674133 338.4" xmlns="http://www.w3.org/2000/svg" version="1.1">
 <metadata>
  <rdf:RDF xmlns:dc="http://purl.org/dc/elements/1.1/" xmlns:cc="http://creativecommons.org/ns#" xmlns:rdf="http://www.w3.org/1999/02/22-rdf-syntax-ns#">
   <cc:Work>
    <dc:type rdf:resource="http://purl.org/dc/dcmitype/StillImage"/>
    <dc:date>2025-06-24T17:08:28.055852</dc:date>
    <dc:format>image/svg+xml</dc:format>
    <dc:creator>
     <cc:Agent>
      <dc:title>Matplotlib v3.10.3, https://matplotlib.org/</dc:title>
     </cc:Agent>
    </dc:creator>
   </cc:Work>
  </rdf:RDF>
 </metadata>
 <defs>
  <style type="text/css">*{stroke-linejoin: round; stroke-linecap: butt}</style>
 </defs>
 <g id="figure_1">
  <g id="patch_1">
   <path d="M 0 338.4 
L 392.674133 338.4 
L 392.674133 0 
L 0 0 
z
" style="fill: #ffffff"/>
  </g>
  <g id="axes_1">
   <g id="patch_2">
    <path d="M 7.2 331.2 
L 385.474133 331.2 
L 385.474133 7.2 
L 7.2 7.2 
z
" style="fill: #ffffff"/>
   </g>
   <g id="PathCollection_1">
    <path d="M 137.727057 100.65771 
C 138.664691 100.65771 139.564049 100.285184 140.227057 99.622176 
C 140.890064 98.959169 141.262591 98.059811 141.262591 97.122176 
C 141.262591 96.184542 140.890064 95.285184 140.227057 94.622176 
C 139.564049 93.959169 138.664691 93.586642 137.727057 93.586642 
C 136.789422 93.586642 135.890064 93.959169 135.227057 94.622176 
C 134.564049 95.285184 134.191523 96.184542 134.191523 97.122176 
C 134.191523 98.059811 134.564049 98.959169 135.227057 99.622176 
C 135.890064 100.285184 136.789422 100.65771 137.727057 100.65771 
z
" clip-path="url(#p895b457405)"/>
   </g>
   <g id="matplotlib.axis_1"/>
   <g id="matplotlib.axis_2"/>
   <g id="line2d_1">
    <path d="M 378.19963 243.233059 
L 346.263899 203.764058 
L 324.696257 177.241488 
L 308.390437 157.521003 
L 297.981657 145.164371 
L 284.58407 129.606442 
L 275.776876 119.633175 
L 266.794359 109.702282 
L 257.644193 99.867017 
L 252.349325 94.31796 
L 244.587748 86.388747 
L 232.772861 74.830272 
L 222.734754 65.546818 
L 213.073138 57.127551 
L 207.164816 52.249215 
L 197.565099 44.795513 
L 193.983924 42.173625 
L 186.037306 36.683806 
L 180.310307 33.02273 
L 177.46837 31.302436 
L 170.118105 27.164339 
L 164.708264 24.41917 
L 160.243261 22.355593 
L 153.697424 19.677732 
L 151.126196 18.743673 
L 144.55361 16.673241 
L 142.184329 16.042874 
L 135.122988 14.548047 
L 132.807154 14.187932 
L 128.854727 13.728554 
L 124.672114 13.463422 
L 120.719544 13.430769 
L 115.469703 13.730999 
L 109.762212 14.527697 
L 105.152619 15.551031 
L 100.133623 17.076041 
L 95.144166 19.043837 
L 91.929471 20.564754 
L 86.868134 23.387158 
L 82.735887 26.104163 
L 78.444793 29.347095 
L 74.301874 32.915272 
L 71.295722 35.792296 
L 67.623009 39.659345 
L 63.982227 43.902936 
L 60.003219 49.048272 
L 57.2281 52.977579 
L 54.172996 57.655645 
L 51.217808 62.562203 
L 48.874608 66.742836 
L 45.888272 72.478595 
L 43.018348 78.466362 
L 40.947859 83.107763 
L 38.80797 88.218914 
L 35.729868 96.202474 
L 32.939969 104.185423 
L 30.497809 111.86887 
L 28.239164 119.671467 
L 26.110839 127.772944 
L 24.172072 135.943021 
L 22.233281 145.087533 
L 20.619986 153.690686 
L 19.192735 162.353134 
L 17.80216 172.201896 
L 16.735301 181.269762 
L 15.728459 192.075183 
L 15.260996 198.586694 
L 14.793334 207.505132 
L 14.536496 216.09345 
L 14.48555 225.882242 
L 14.717919 235.914088 
L 15.056926 242.793043 
L 15.543716 249.538619 
L 16.487705 258.804681 
L 17.312823 264.963777 
L 18.219051 270.56632 
L 19.536934 277.321262 
L 21.037515 283.666933 
L 22.669188 289.440853 
L 24.092185 293.764502 
L 26.300784 299.474434 
L 28.553001 304.318792 
L 29.781124 306.621818 
L 30.934868 308.597224 
L 33.316699 312.16912 
L 35.04602 314.387331 
L 36.731196 316.282475 
L 39.428227 318.831149 
L 41.063565 320.116426 
L 43.505071 321.708946 
L 45.273271 322.63909 
L 48.112884 323.777635 
L 50.768365 324.481846 
L 53.482088 324.875442 
L 56.11229 324.969231 
L 57.294016 324.925291 
L 60.952662 324.474838 
L 63.18566 323.98123 
L 67.151272 322.730061 
L 70.153364 321.487548 
L 72.639395 320.279873 
L 72.639395 320.279873 
" clip-path="url(#p895b457405)" style="fill: none; stroke: #ffffff; stroke-linecap: square"/>
   </g>
   <g id="line2d_2">
    <path d="M 72.639395 320.279873 
L 77.885253 315.444359 
L 81.963071 311.418658 
L 86.31723 306.812672 
L 90.036415 302.578891 
L 94.029918 297.659872 
L 97.71129 292.704515 
L 100.203819 289.06762 
L 103.25469 284.232393 
L 105.875966 279.658904 
L 108.106759 275.379401 
L 110.5903 270.072026 
L 112.403037 265.725458 
L 114.457243 260.141323 
L 115.955412 255.461998 
L 117.508677 249.827412 
L 118.898715 243.762532 
L 120.017993 237.73325 
L 120.971471 231.166363 
L 121.61291 225.345138 
L 122.209965 217.660818 
L 122.597819 209.311439 
L 122.802937 199.477433 
L 122.850232 183.814986 
L 122.956431 169.178933 
L 123.23804 159.910227 
L 123.699732 152.0073 
L 124.374053 144.617286 
L 125.223016 137.974775 
L 126.028967 133.019098 
L 127.051072 127.822352 
L 128.530098 121.628251 
L 130.046244 116.314612 
L 131.855006 110.876907 
L 133.546764 106.41703 
L 135.422235 101.992744 
L 137.727057 97.122176 
L 137.727057 97.122176 
" clip-path="url(#p895b457405)" style="fill: none; stroke: #000000; stroke-linecap: square"/>
   </g>
   <g id="patch_3">
    <path d="M 122.849877 186.385255 
Q 122.849884 185.93894 122.849855 187.728692 
" clip-path="url(#p895b457405)" style="fill: none; stroke: #000000; stroke-width: 2; stroke-linecap: round"/>
    <path d="M 117.849688 197.728609 
L 122.849855 187.728692 
L 127.849688 197.728776 
z
" clip-path="url(#p895b457405)" style="stroke: #000000; stroke-width: 2; stroke-linecap: round"/>
   </g>
   <g id="text_1">
    <g clip-path="url(#p895b457405)">
     <!-- $Q$ -->
     <g transform="translate(89.418319 318.252003) scale(0.25 -0.25)">
      <defs>
       <path id="Cmmi10-51" d="M 1947 -141 
Q 1466 -141 1094 79 
Q 722 300 520 692 
Q 319 1084 319 1563 
Q 319 2259 714 2950 
Q 1109 3641 1756 4077 
Q 2403 4513 3109 4513 
Q 3475 4513 3778 4381 
Q 4081 4250 4290 4017 
Q 4500 3784 4614 3471 
Q 4728 3159 4728 2791 
Q 4728 2366 4581 1936 
Q 4434 1506 4171 1136 
Q 3909 766 3559 484 
Q 3209 203 2809 38 
Q 2850 -256 2934 -425 
Q 3019 -594 3256 -594 
Q 3506 -594 3726 -412 
Q 3947 -231 4006 13 
Q 4019 72 4078 72 
Q 4147 72 4147 -13 
Q 4100 -219 4008 -430 
Q 3916 -641 3786 -823 
Q 3656 -1006 3478 -1123 
Q 3300 -1241 3084 -1241 
Q 2547 -1241 2547 -550 
Q 2547 -509 2562 -332 
Q 2578 -156 2578 -44 
Q 2269 -141 1947 -141 
z
M 1709 300 
Q 1709 44 1991 44 
Q 2275 44 2591 184 
L 2591 244 
Q 2591 503 2509 648 
Q 2428 794 2194 794 
Q 2078 794 1964 723 
Q 1850 653 1779 539 
Q 1709 425 1709 300 
z
M 1544 288 
Q 1544 456 1637 612 
Q 1731 769 1881 864 
Q 2031 959 2203 959 
Q 2481 959 2607 771 
Q 2734 584 2778 281 
Q 3188 525 3500 978 
Q 3813 1431 3977 1973 
Q 4141 2516 4141 3003 
Q 4141 3356 4023 3656 
Q 3906 3956 3664 4140 
Q 3422 4325 3066 4325 
Q 2722 4325 2403 4156 
Q 2084 3988 1813 3706 
Q 1550 3434 1342 3032 
Q 1134 2631 1021 2193 
Q 909 1756 909 1356 
Q 909 947 1068 612 
Q 1228 278 1569 128 
Q 1544 194 1544 288 
z
" transform="scale(0.015625)"/>
      </defs>
      <use xlink:href="#Cmmi10-51" transform="translate(0 0.484375)"/>
     </g>
    </g>
   </g>
   <g id="text_2">
    <g clip-path="url(#p895b457405)">
     <!-- $R$ -->
     <g transform="translate(105.911287 117.410076) scale(0.25 -0.25)">
      <defs>
       <path id="Cmmi10-52" d="M 313 0 
Q 250 0 250 84 
Q 253 100 262 139 
Q 272 178 289 201 
Q 306 225 331 225 
Q 722 225 878 269 
Q 959 297 997 441 
L 1875 3956 
Q 1888 4019 1888 4044 
Q 1888 4113 1813 4122 
Q 1691 4147 1350 4147 
Q 1288 4147 1288 4231 
Q 1291 4247 1300 4286 
Q 1309 4325 1326 4348 
Q 1344 4372 1369 4372 
L 3309 4372 
Q 3541 4372 3791 4319 
Q 4041 4266 4250 4152 
Q 4459 4038 4593 3848 
Q 4728 3659 4728 3406 
Q 4728 3084 4515 2831 
Q 4303 2578 3978 2408 
Q 3653 2238 3347 2169 
Q 3597 2078 3756 1879 
Q 3916 1681 3916 1422 
Q 3916 1388 3914 1370 
Q 3913 1353 3909 1331 
L 3859 763 
Q 3853 638 3847 550 
Q 3841 463 3841 409 
Q 3841 234 3892 129 
Q 3944 25 4097 25 
Q 4297 25 4448 211 
Q 4600 397 4647 616 
Q 4675 672 4709 672 
L 4769 672 
Q 4831 672 4831 588 
Q 4784 403 4682 237 
Q 4581 72 4426 -34 
Q 4272 -141 4091 -141 
Q 3716 -141 3452 26 
Q 3188 194 3188 550 
Q 3188 684 3213 788 
L 3353 1356 
Q 3378 1434 3378 1538 
Q 3378 1803 3198 1954 
Q 3019 2106 2747 2106 
L 1959 2106 
L 1538 416 
Q 1522 363 1522 325 
Q 1522 259 1600 250 
Q 1722 225 2059 225 
Q 2125 225 2125 141 
Q 2103 50 2090 25 
Q 2078 0 2016 0 
L 313 0 
z
M 1997 2272 
L 2706 2272 
Q 3403 2272 3756 2625 
Q 3919 2788 4014 3039 
Q 4109 3291 4109 3541 
Q 4109 3778 3970 3912 
Q 3831 4047 3626 4097 
Q 3422 4147 3175 4147 
L 2747 4147 
Q 2572 4147 2515 4117 
Q 2459 4088 2413 3928 
L 1997 2272 
z
" transform="scale(0.015625)"/>
      </defs>
      <use xlink:href="#Cmmi10-52" transform="translate(0 0.6875)"/>
     </g>
    </g>
   </g>
   <g id="PathCollection_2">
    <path d="M 72.639395 323.815407 
C 73.57703 323.815407 74.476387 323.442881 75.139395 322.779873 
C 75.802403 322.116865 76.174929 321.217508 76.174929 320.279873 
C 76.174929 319.342238 75.802403 318.442881 75.139395 317.779873 
C 74.476387 317.116865 73.57703 316.744339 72.639395 316.744339 
C 71.701761 316.744339 70.802403 317.116865 70.139395 317.779873 
C 69.476387 318.442881 69.103861 319.342238 69.103861 320.279873 
C 69.103861 321.217508 69.476387 322.116865 70.139395 322.779873 
C 70.802403 323.442881 71.701761 323.815407 72.639395 323.815407 
z
" clip-path="url(#p895b457405)"/>
   </g>
  </g>
 </g>
 <defs>
  <clipPath id="p895b457405">
   <rect x="7.2" y="7.2" width="378.274133" height="324"/>
  </clipPath>
 </defs>
</svg>
