<?xml version="1.0" encoding="utf-8" standalone="no"?>
<!DOCTYPE svg PUBLIC "-//W3C//DTD SVG 1.1//EN"
  "http://www.w3.org/Graphics/SVG/1.1/DTD/svg11.dtd">
<svg xmlns:xlink="http://www.w3.org/1999/xlink" width="392.680394pt" height="338.4pt" viewBox="0 0 392.680394 338.4" xmlns="http://www.w3.org/2000/svg" version="1.1">
 <metadata>
  <rdf:RDF xmlns:dc="http://purl.org/dc/elements/1.1/" xmlns:cc="http://creativecommons.org/ns#" xmlns:rdf="http://www.w3.org/1999/02/22-rdf-syntax-ns#">
   <cc:Work>
    <dc:type rdf:resource="http://purl.org/dc/dcmitype/StillImage"/>
    <dc:date>2025-11-26T17:28:47.994064</dc:date>
    <dc:format>image/svg+xml</dc:format>
    <dc:creator>
     <cc:Agent>
      <dc:title>Matplotlib v3.10.5, https://matplotlib.org/</dc:title>
     </cc:Agent>
    </dc:creator>
   </cc:Work>
  </rdf:RDF>
 </metadata>
 <defs>
  <style type="text/css">*{stroke-linejoin: round; stroke-linecap: butt}</style>
 </defs>
 <g id="figure_1">
  <g id="patch_1">
   <path d="M 0 338.4 
L 392.680394 338.4 
L 392.680394 0 
L 0 0 
z
" style="fill: #ffffff"/>
  </g>
  <g id="axes_1">
   <g id="patch_2">
    <path d="M 7.2 331.2 
L 385.480394 331.2 
L 385.480394 7.2 
L 7.2 7.2 
z
" style="fill: #ffffff"/>
   </g>
   <g id="PathCollection_1">
    <path d="M 378.205771 246.764569 
C 379.143406 246.764569 380.042763 246.392042 380.705771 245.729035 
C 381.368779 245.066027 381.741305 244.166669 381.741305 243.229035 
C 381.741305 242.2914 381.368779 241.392042 380.705771 240.729035 
C 380.042763 240.066027 379.143406 239.693501 378.205771 239.693501 
C 377.268136 239.693501 376.368779 240.066027 375.705771 240.729035 
C 375.042763 241.392042 374.670237 242.2914 374.670237 243.229035 
C 374.670237 244.166669 375.042763 245.066027 375.705771 245.729035 
C 376.368779 246.392042 377.268136 246.764569 378.205771 246.764569 
z
" clip-path="url(#p1cf7f8c3e3)"/>
   </g>
   <g id="PathCollection_2">
    <path d="M 72.641639 323.812365 
C 73.579273 323.812365 74.478631 323.439839 75.141639 322.776832 
C 75.804647 322.113824 76.177173 321.214466 76.177173 320.276832 
C 76.177173 319.339197 75.804647 318.439839 75.141639 317.776832 
C 74.478631 317.113824 73.579273 316.741298 72.641639 316.741298 
C 71.704004 316.741298 70.804647 317.113824 70.141639 317.776832 
C 69.478631 318.439839 69.106105 319.339197 69.106105 320.276832 
C 69.106105 321.214466 69.478631 322.113824 70.141639 322.776832 
C 70.804647 323.439839 71.704004 323.812365 72.641639 323.812365 
z
" clip-path="url(#p1cf7f8c3e3)"/>
   </g>
   <g id="matplotlib.axis_1"/>
   <g id="matplotlib.axis_2"/>
   <g id="line2d_1">
    <path d="M 378.205771 243.229035 
L 352.273131 211.187071 
L 325.32157 177.993254 
L 309.389252 158.705912 
L 297.539297 144.63276 
L 286.157566 131.399608 
L 274.905658 118.647855 
L 262.483813 105.020908 
L 254.420349 96.464723 
L 246.65411 88.464444 
L 236.99887 78.879459 
L 229.050843 71.317388 
L 220.996304 63.983174 
L 213.400102 57.393871 
L 207.11679 52.200787 
L 201.086528 47.449788 
L 192.270909 40.942085 
L 186.320417 36.862247 
L 180.520034 33.143317 
L 171.989791 28.165718 
L 167.644207 25.867869 
L 164.271999 24.20089 
L 157.886282 21.334532 
L 152.055535 19.065359 
L 150.619026 18.55951 
L 144.823078 16.7411 
L 142.52831 16.122749 
L 135.537839 14.612024 
L 132.989667 14.206531 
L 127.103465 13.582185 
L 123.804591 13.430769 
L 118.150579 13.520726 
L 113.081381 13.996436 
L 106.800742 15.138485 
L 102.301799 16.356946 
L 97.40531 18.08846 
L 93.348798 19.862352 
L 89.064282 22.090857 
L 85.28054 24.380367 
L 81.832796 26.744929 
L 78.351383 29.41782 
L 75.945273 31.441662 
L 73.440017 33.709997 
L 69.14682 38.001968 
L 65.465523 42.11862 
L 61.88613 46.540609 
L 58.978493 50.461623 
L 55.167845 56.086677 
L 50.831507 63.230238 
L 47.401362 69.510234 
L 45.43599 73.387582 
L 42.01154 80.685826 
L 39.032637 87.664767 
L 35.56557 96.650608 
L 33.297802 103.116541 
L 30.882203 110.611117 
L 28.528958 118.628494 
L 26.356841 126.795026 
L 23.845956 137.407545 
L 21.856373 147.008092 
L 20.088362 156.786099 
L 18.573354 166.534909 
L 17.213235 177.000766 
L 16.064497 188.122779 
L 15.513957 194.899308 
L 14.895082 205.222838 
L 14.566001 214.716769 
L 14.474623 223.235377 
L 14.54319 229.84122 
L 14.859418 239.136395 
L 15.388764 247.593898 
L 15.953872 253.957269 
L 16.810465 261.351464 
L 17.73049 267.654014 
L 19.134325 275.385835 
L 20.794229 282.705049 
L 22.321809 288.28343 
L 24.447025 294.749309 
L 26.371108 299.632158 
L 27.702711 302.584102 
L 28.918784 305.021174 
L 30.478462 307.830288 
L 33.109091 311.87712 
L 34.100579 313.205496 
L 36.77245 316.320836 
L 38.787957 318.271697 
L 41.619523 320.507923 
L 42.995326 321.402817 
L 45.776489 322.867931 
L 49.209264 324.105045 
L 50.884064 324.50176 
L 52.807385 324.803538 
L 55.775849 324.969231 
L 59.200635 324.745399 
L 63.163221 323.984521 
L 64.041649 323.748261 
L 68.186838 322.326928 
L 69.712735 321.682988 
L 72.641639 320.276832 
L 72.641639 320.276832 
" clip-path="url(#p1cf7f8c3e3)" style="fill: none; stroke: #000000; stroke-linecap: square"/>
   </g>
   <g id="patch_3">
    <path d="M 99.885596 17.156984 
Q 99.987991 17.121048 97.98048 17.82558 
" clip-path="url(#p1cf7f8c3e3)" style="fill: none; stroke: #000000; stroke-width: 2; stroke-linecap: round"/>
    <path d="M 86.888953 16.419158 
L 97.98048 17.82558 
L 90.200426 25.854949 
z
" clip-path="url(#p1cf7f8c3e3)" style="stroke: #000000; stroke-width: 2; stroke-linecap: round"/>
   </g>
   <g id="text_1">
    <g clip-path="url(#p1cf7f8c3e3)">
     <!-- $P$ -->
     <g transform="translate(361.154349 272.443526) scale(0.25 -0.25)">
      <defs>
       <path id="Cmmi10-50" d="M 313 0 
Q 250 0 250 84 
Q 253 100 262 139 
Q 272 178 289 201 
Q 306 225 331 225 
Q 722 225 878 269 
Q 959 297 997 441 
L 1875 3956 
Q 1888 4019 1888 4044 
Q 1888 4113 1813 4122 
Q 1691 4147 1350 4147 
Q 1288 4147 1288 4231 
Q 1291 4247 1300 4286 
Q 1309 4325 1326 4348 
Q 1344 4372 1369 4372 
L 3578 4372 
Q 3881 4372 4165 4264 
Q 4450 4156 4631 3934 
Q 4813 3713 4813 3397 
Q 4813 2991 4527 2672 
Q 4241 2353 3814 2175 
Q 3388 1997 2988 1997 
L 1947 1997 
L 1556 416 
Q 1544 353 1544 325 
Q 1544 300 1551 283 
Q 1559 266 1573 261 
Q 1588 256 1619 250 
Q 1741 225 2081 225 
Q 2144 225 2144 141 
Q 2122 50 2109 25 
Q 2097 0 2034 0 
L 313 0 
z
M 1978 2188 
L 2875 2188 
Q 3497 2188 3822 2522 
Q 3988 2688 4092 3000 
Q 4197 3313 4197 3566 
Q 4197 3881 3956 4014 
Q 3716 4147 3359 4147 
L 2747 4147 
Q 2572 4147 2515 4117 
Q 2459 4088 2413 3928 
L 1978 2188 
z
" transform="scale(0.015625)"/>
      </defs>
      <use xlink:href="#Cmmi10-50" transform="translate(0 0.6875)"/>
     </g>
    </g>
   </g>
   <g id="text_2">
    <g clip-path="url(#p1cf7f8c3e3)">
     <!-- $Q$ -->
     <g transform="translate(84.957693 322.712058) scale(0.25 -0.25)">
      <defs>
       <path id="Cmmi10-51" d="M 1947 -141 
Q 1466 -141 1094 79 
Q 722 300 520 692 
Q 319 1084 319 1563 
Q 319 2259 714 2950 
Q 1109 3641 1756 4077 
Q 2403 4513 3109 4513 
Q 3475 4513 3778 4381 
Q 4081 4250 4290 4017 
Q 4500 3784 4614 3471 
Q 4728 3159 4728 2791 
Q 4728 2366 4581 1936 
Q 4434 1506 4171 1136 
Q 3909 766 3559 484 
Q 3209 203 2809 38 
Q 2850 -256 2934 -425 
Q 3019 -594 3256 -594 
Q 3506 -594 3726 -412 
Q 3947 -231 4006 13 
Q 4019 72 4078 72 
Q 4147 72 4147 -13 
Q 4100 -219 4008 -430 
Q 3916 -641 3786 -823 
Q 3656 -1006 3478 -1123 
Q 3300 -1241 3084 -1241 
Q 2547 -1241 2547 -550 
Q 2547 -509 2562 -332 
Q 2578 -156 2578 -44 
Q 2269 -141 1947 -141 
z
M 1709 300 
Q 1709 44 1991 44 
Q 2275 44 2591 184 
L 2591 244 
Q 2591 503 2509 648 
Q 2428 794 2194 794 
Q 2078 794 1964 723 
Q 1850 653 1779 539 
Q 1709 425 1709 300 
z
M 1544 288 
Q 1544 456 1637 612 
Q 1731 769 1881 864 
Q 2031 959 2203 959 
Q 2481 959 2607 771 
Q 2734 584 2778 281 
Q 3188 525 3500 978 
Q 3813 1431 3977 1973 
Q 4141 2516 4141 3003 
Q 4141 3356 4023 3656 
Q 3906 3956 3664 4140 
Q 3422 4325 3066 4325 
Q 2722 4325 2403 4156 
Q 2084 3988 1813 3706 
Q 1550 3434 1342 3032 
Q 1134 2631 1021 2193 
Q 909 1756 909 1356 
Q 909 947 1068 612 
Q 1228 278 1569 128 
Q 1544 194 1544 288 
z
" transform="scale(0.015625)"/>
      </defs>
      <use xlink:href="#Cmmi10-51" transform="translate(0 0.484375)"/>
     </g>
    </g>
   </g>
  </g>
 </g>
 <defs>
  <clipPath id="p1cf7f8c3e3">
   <rect x="7.2" y="7.2" width="378.280394" height="324"/>
  </clipPath>
 </defs>
</svg>
