<?xml version="1.0" encoding="utf-8" standalone="no"?>
<!DOCTYPE svg PUBLIC "-//W3C//DTD SVG 1.1//EN"
  "http://www.w3.org/Graphics/SVG/1.1/DTD/svg11.dtd">
<svg xmlns:xlink="http://www.w3.org/1999/xlink" width="392.678805pt" height="338.4pt" viewBox="0 0 392.678805 338.4" xmlns="http://www.w3.org/2000/svg" version="1.1">
 <metadata>
  <rdf:RDF xmlns:dc="http://purl.org/dc/elements/1.1/" xmlns:cc="http://creativecommons.org/ns#" xmlns:rdf="http://www.w3.org/1999/02/22-rdf-syntax-ns#">
   <cc:Work>
    <dc:type rdf:resource="http://purl.org/dc/dcmitype/StillImage"/>
    <dc:date>2025-08-04T00:37:28.124547</dc:date>
    <dc:format>image/svg+xml</dc:format>
    <dc:creator>
     <cc:Agent>
      <dc:title>Matplotlib v3.10.5, https://matplotlib.org/</dc:title>
     </cc:Agent>
    </dc:creator>
   </cc:Work>
  </rdf:RDF>
 </metadata>
 <defs>
  <style type="text/css">*{stroke-linejoin: round; stroke-linecap: butt}</style>
 </defs>
 <g id="figure_1">
  <g id="patch_1">
   <path d="M 0 338.4 
L 392.678805 338.4 
L 392.678805 0 
L 0 0 
z
" style="fill: #ffffff"/>
  </g>
  <g id="axes_1">
   <g id="patch_2">
    <path d="M 7.2 331.2 
L 385.478805 331.2 
L 385.478805 7.2 
L 7.2 7.2 
z
" style="fill: #ffffff"/>
   </g>
   <g id="PathCollection_1">
    <path d="M 378.204213 246.780296 
C 379.141847 246.780296 380.041205 246.40777 380.704213 245.744762 
C 381.36722 245.081755 381.739747 244.182397 381.739747 243.244762 
C 381.739747 242.307128 381.36722 241.40777 380.704213 240.744762 
C 380.041205 240.081755 379.141847 239.709228 378.204213 239.709228 
C 377.266578 239.709228 376.36722 240.081755 375.704213 240.744762 
C 375.041205 241.40777 374.668679 242.307128 374.668679 243.244762 
C 374.668679 244.182397 375.041205 245.081755 375.704213 245.744762 
C 376.36722 246.40777 377.266578 246.780296 378.204213 246.780296 
z
" clip-path="url(#pe5f9349b10)"/>
   </g>
   <g id="PathCollection_2">
    <path d="M 72.638743 323.828431 
C 73.576377 323.828431 74.475735 323.455904 75.138743 322.792897 
C 75.80175 322.129889 76.174277 321.230531 76.174277 320.292897 
C 76.174277 319.355262 75.80175 318.455904 75.138743 317.792897 
C 74.475735 317.129889 73.576377 316.757363 72.638743 316.757363 
C 71.701108 316.757363 70.80175 317.129889 70.138743 317.792897 
C 69.475735 318.455904 69.103209 319.355262 69.103209 320.292897 
C 69.103209 321.230531 69.475735 322.129889 70.138743 322.792897 
C 70.80175 323.455904 71.701108 323.828431 72.638743 323.828431 
z
" clip-path="url(#pe5f9349b10)"/>
   </g>
   <g id="matplotlib.axis_1"/>
   <g id="matplotlib.axis_2"/>
   <g id="line2d_1">
    <path d="M 378.204213 243.244762 
L 348.658268 206.731318 
L 323.270008 175.508302 
L 308.696205 157.893231 
L 296.704968 143.67009 
L 283.395366 128.254073 
L 271.603801 114.993929 
L 263.343765 105.964839 
L 252.050085 94.014286 
L 242.172584 83.98073 
L 234.491346 76.477474 
L 226.041563 68.554062 
L 218.20335 61.539101 
L 209.53877 54.190729 
L 204.977989 50.505651 
L 197.420463 44.695098 
L 190.571456 39.766845 
L 181.298559 33.643505 
L 176.150278 30.534337 
L 173.55253 29.048303 
L 166.266516 25.190369 
L 160.169044 22.33043 
L 154.116966 19.844161 
L 149.932093 18.340841 
L 144.754275 16.737169 
L 138.878255 15.277795 
L 133.921212 14.360646 
L 131.082332 13.97079 
L 128.046734 13.66708 
L 122.98217 13.430769 
L 120.702929 13.438862 
L 117.661528 13.56452 
L 112.441013 14.098593 
L 108.193325 14.844556 
L 103.978341 15.876304 
L 102.561124 16.291127 
L 99.160953 17.431141 
L 95.13558 19.055375 
L 91.144553 20.975232 
L 89.569143 21.821791 
L 86.268423 23.765476 
L 82.698382 26.13825 
L 79.834556 28.255559 
L 76.73099 30.776781 
L 72.671953 34.451539 
L 70.869775 36.227947 
L 67.506232 39.796344 
L 63.758403 44.185184 
L 60.573995 48.283014 
L 56.731905 53.718589 
L 52.686239 60.08204 
L 49.004022 66.511602 
L 45.557984 73.149495 
L 42.216995 80.235396 
L 38.576555 88.798155 
L 35.992235 95.496007 
L 32.61659 105.168091 
L 29.682559 114.605733 
L 27.301836 123.144505 
L 25.821038 128.945596 
L 23.839237 137.439153 
L 22.150818 145.505096 
L 20.341494 155.293042 
L 18.640656 166.059939 
L 17.236806 176.788426 
L 16.054379 188.216184 
L 15.299841 197.969721 
L 14.786392 207.645709 
L 14.523849 216.724705 
L 14.481665 225.615967 
L 14.760311 237.025762 
L 15.267955 246.026754 
L 15.827425 252.720084 
L 16.760675 261.010355 
L 17.76619 267.910059 
L 19.334372 276.386533 
L 20.618942 282.030644 
L 21.664754 286.023148 
L 23.661387 292.532726 
L 25.42251 297.348311 
L 26.99446 301.076267 
L 28.917644 305.040893 
L 30.188359 307.354105 
L 32.348716 310.80925 
L 33.842007 312.888707 
L 36.006377 315.512162 
L 37.563299 317.143589 
L 39.688196 319.061935 
L 41.534399 320.466802 
L 43.2077 321.548414 
L 44.699534 322.370395 
L 46.499122 323.19568 
L 48.637815 323.956728 
L 51.149468 324.569608 
L 52.547304 324.788447 
L 54.279787 324.945849 
L 57.762907 324.906727 
L 60.907378 324.496128 
L 62.801491 324.090269 
L 66.76641 322.884272 
L 71.129318 321.044882 
L 72.638743 320.292897 
L 72.638743 320.292897 
" clip-path="url(#pe5f9349b10)" style="fill: none; stroke: #000000; stroke-linecap: square"/>
   </g>
   <g id="patch_3">
    <path d="M 99.882819 17.171722 
Q 99.985215 17.135786 97.977704 17.840318 
" clip-path="url(#pe5f9349b10)" style="fill: none; stroke: #000000; stroke-width: 2; stroke-linecap: round"/>
    <path d="M 86.886177 16.433896 
L 97.977704 17.840318 
L 90.19765 25.869687 
z
" clip-path="url(#pe5f9349b10)" style="stroke: #000000; stroke-width: 2; stroke-linecap: round"/>
   </g>
   <g id="text_1">
    <g clip-path="url(#pe5f9349b10)">
     <!-- $P$ -->
     <g transform="translate(361.152752 272.459352) scale(0.25 -0.25)">
      <defs>
       <path id="Cmmi10-50" d="M 313 0 
Q 250 0 250 84 
Q 253 100 262 139 
Q 272 178 289 201 
Q 306 225 331 225 
Q 722 225 878 269 
Q 959 297 997 441 
L 1875 3956 
Q 1888 4019 1888 4044 
Q 1888 4113 1813 4122 
Q 1691 4147 1350 4147 
Q 1288 4147 1288 4231 
Q 1291 4247 1300 4286 
Q 1309 4325 1326 4348 
Q 1344 4372 1369 4372 
L 3578 4372 
Q 3881 4372 4165 4264 
Q 4450 4156 4631 3934 
Q 4813 3713 4813 3397 
Q 4813 2991 4527 2672 
Q 4241 2353 3814 2175 
Q 3388 1997 2988 1997 
L 1947 1997 
L 1556 416 
Q 1544 353 1544 325 
Q 1544 300 1551 283 
Q 1559 266 1573 261 
Q 1588 256 1619 250 
Q 1741 225 2081 225 
Q 2144 225 2144 141 
Q 2122 50 2109 25 
Q 2097 0 2034 0 
L 313 0 
z
M 1978 2188 
L 2875 2188 
Q 3497 2188 3822 2522 
Q 3988 2688 4092 3000 
Q 4197 3313 4197 3566 
Q 4197 3881 3956 4014 
Q 3716 4147 3359 4147 
L 2747 4147 
Q 2572 4147 2515 4117 
Q 2459 4088 2413 3928 
L 1978 2188 
z
" transform="scale(0.015625)"/>
      </defs>
      <use xlink:href="#Cmmi10-50" transform="translate(0 0.6875)"/>
     </g>
    </g>
   </g>
   <g id="text_2">
    <g clip-path="url(#pe5f9349b10)">
     <!-- $Q$ -->
     <g transform="translate(84.954895 322.728104) scale(0.25 -0.25)">
      <defs>
       <path id="Cmmi10-51" d="M 1947 -141 
Q 1466 -141 1094 79 
Q 722 300 520 692 
Q 319 1084 319 1563 
Q 319 2259 714 2950 
Q 1109 3641 1756 4077 
Q 2403 4513 3109 4513 
Q 3475 4513 3778 4381 
Q 4081 4250 4290 4017 
Q 4500 3784 4614 3471 
Q 4728 3159 4728 2791 
Q 4728 2366 4581 1936 
Q 4434 1506 4171 1136 
Q 3909 766 3559 484 
Q 3209 203 2809 38 
Q 2850 -256 2934 -425 
Q 3019 -594 3256 -594 
Q 3506 -594 3726 -412 
Q 3947 -231 4006 13 
Q 4019 72 4078 72 
Q 4147 72 4147 -13 
Q 4100 -219 4008 -430 
Q 3916 -641 3786 -823 
Q 3656 -1006 3478 -1123 
Q 3300 -1241 3084 -1241 
Q 2547 -1241 2547 -550 
Q 2547 -509 2562 -332 
Q 2578 -156 2578 -44 
Q 2269 -141 1947 -141 
z
M 1709 300 
Q 1709 44 1991 44 
Q 2275 44 2591 184 
L 2591 244 
Q 2591 503 2509 648 
Q 2428 794 2194 794 
Q 2078 794 1964 723 
Q 1850 653 1779 539 
Q 1709 425 1709 300 
z
M 1544 288 
Q 1544 456 1637 612 
Q 1731 769 1881 864 
Q 2031 959 2203 959 
Q 2481 959 2607 771 
Q 2734 584 2778 281 
Q 3188 525 3500 978 
Q 3813 1431 3977 1973 
Q 4141 2516 4141 3003 
Q 4141 3356 4023 3656 
Q 3906 3956 3664 4140 
Q 3422 4325 3066 4325 
Q 2722 4325 2403 4156 
Q 2084 3988 1813 3706 
Q 1550 3434 1342 3032 
Q 1134 2631 1021 2193 
Q 909 1756 909 1356 
Q 909 947 1068 612 
Q 1228 278 1569 128 
Q 1544 194 1544 288 
z
" transform="scale(0.015625)"/>
      </defs>
      <use xlink:href="#Cmmi10-51" transform="translate(0 0.484375)"/>
     </g>
    </g>
   </g>
  </g>
 </g>
 <defs>
  <clipPath id="pe5f9349b10">
   <rect x="7.2" y="7.2" width="378.278805" height="324"/>
  </clipPath>
 </defs>
</svg>
