<?xml version="1.0" encoding="utf-8" standalone="no"?>
<!DOCTYPE svg PUBLIC "-//W3C//DTD SVG 1.1//EN"
  "http://www.w3.org/Graphics/SVG/1.1/DTD/svg11.dtd">
<svg xmlns:xlink="http://www.w3.org/1999/xlink" width="392.670748pt" height="338.4pt" viewBox="0 0 392.670748 338.4" xmlns="http://www.w3.org/2000/svg" version="1.1">
 <metadata>
  <rdf:RDF xmlns:dc="http://purl.org/dc/elements/1.1/" xmlns:cc="http://creativecommons.org/ns#" xmlns:rdf="http://www.w3.org/1999/02/22-rdf-syntax-ns#">
   <cc:Work>
    <dc:type rdf:resource="http://purl.org/dc/dcmitype/StillImage"/>
    <dc:date>2025-08-04T00:38:02.379272</dc:date>
    <dc:format>image/svg+xml</dc:format>
    <dc:creator>
     <cc:Agent>
      <dc:title>Matplotlib v3.10.5, https://matplotlib.org/</dc:title>
     </cc:Agent>
    </dc:creator>
   </cc:Work>
  </rdf:RDF>
 </metadata>
 <defs>
  <style type="text/css">*{stroke-linejoin: round; stroke-linecap: butt}</style>
 </defs>
 <g id="figure_1">
  <g id="patch_1">
   <path d="M 0 338.4 
L 392.670748 338.4 
L 392.670748 0 
L 0 0 
z
" style="fill: #ffffff"/>
  </g>
  <g id="axes_1">
   <g id="patch_2">
    <path d="M 7.2 331.2 
L 385.470748 331.2 
L 385.470748 7.2 
L 7.2 7.2 
z
" style="fill: #ffffff"/>
   </g>
   <g id="PathCollection_1">
    <path d="M 378.19631 246.76711 
C 379.133945 246.76711 380.033303 246.394583 380.69631 245.731576 
C 381.359318 245.068568 381.731844 244.16921 381.731844 243.231576 
C 381.731844 242.293941 381.359318 241.394583 380.69631 240.731576 
C 380.033303 240.068568 379.133945 239.696042 378.19631 239.696042 
C 377.258676 239.696042 376.359318 240.068568 375.69631 240.731576 
C 375.033303 241.394583 374.660776 242.293941 374.660776 243.231576 
C 374.660776 244.16921 375.033303 245.068568 375.69631 245.731576 
C 376.359318 246.394583 377.258676 246.76711 378.19631 246.76711 
z
" clip-path="url(#p308795326c)"/>
   </g>
   <g id="PathCollection_2">
    <path d="M 72.640114 323.812906 
C 73.577749 323.812906 74.477106 323.440379 75.140114 322.777372 
C 75.803122 322.114364 76.175648 321.215006 76.175648 320.277372 
C 76.175648 319.339737 75.803122 318.440379 75.140114 317.777372 
C 74.477106 317.114364 73.577749 316.741838 72.640114 316.741838 
C 71.70248 316.741838 70.803122 317.114364 70.140114 317.777372 
C 69.477106 318.440379 69.10458 319.339737 69.10458 320.277372 
C 69.10458 321.215006 69.477106 322.114364 70.140114 322.777372 
C 70.803122 323.440379 71.70248 323.812906 72.640114 323.812906 
z
" clip-path="url(#p308795326c)"/>
   </g>
   <g id="matplotlib.axis_1"/>
   <g id="matplotlib.axis_2"/>
   <g id="line2d_1">
    <path d="M 378.19631 243.231576 
L 340.887354 197.125397 
L 318.846667 170.126398 
L 305.435757 153.994884 
L 290.253149 136.13933 
L 278.975918 123.232576 
L 267.179151 110.124619 
L 255.813464 97.938329 
L 248.207597 90.057573 
L 237.598621 79.474927 
L 230.624261 72.801843 
L 226.210599 68.704118 
L 216.194273 59.791012 
L 210.058439 54.613671 
L 202.978005 48.926082 
L 196.273585 43.841511 
L 189.61372 39.098986 
L 184.28827 35.540456 
L 177.495701 31.320382 
L 172.80077 28.623141 
L 166.472093 25.286936 
L 161.096032 22.736837 
L 158.14628 21.453478 
L 153.449581 19.586346 
L 147.096437 17.42062 
L 145.023293 16.807224 
L 137.383967 14.964189 
L 132.20764 14.107088 
L 127.116266 13.591761 
L 123.955403 13.443064 
L 118.220623 13.525181 
L 115.28994 13.750031 
L 109.817128 14.51918 
L 105.441957 15.478006 
L 100.820593 16.842674 
L 96.984023 18.265539 
L 92.283504 20.388873 
L 87.678405 22.900577 
L 83.851423 25.334369 
L 79.929811 28.176192 
L 76.228433 31.202399 
L 71.916702 35.179309 
L 68.854316 38.320201 
L 66.130404 41.349978 
L 62.36491 45.929988 
L 58.719959 50.83123 
L 55.300726 55.886436 
L 52.303224 60.716912 
L 49.263256 66.033454 
L 46.749945 70.777088 
L 43.818105 76.750839 
L 41.033141 82.914142 
L 38.007374 90.223547 
L 35.367925 97.199077 
L 32.47917 105.585846 
L 29.789416 114.242268 
L 27.350218 122.962633 
L 24.845939 133.01166 
L 22.760039 142.49638 
L 20.772981 152.834745 
L 18.923186 164.143201 
L 17.592903 173.862934 
L 16.365607 184.907933 
L 15.793824 191.28403 
L 15.229553 199.108107 
L 14.679015 210.629636 
L 14.485073 220.119497 
L 14.502881 227.376586 
L 14.673812 234.659015 
L 15.158523 244.375612 
L 15.780382 252.178769 
L 16.833833 261.531283 
L 17.943104 268.95025 
L 18.861679 274.020072 
L 20.098626 279.828338 
L 21.561376 285.623653 
L 22.442088 288.687806 
L 24.163221 293.959764 
L 25.998955 298.750324 
L 27.364526 301.865744 
L 29.242584 305.633914 
L 31.83049 310.011831 
L 33.343607 312.201829 
L 35.481969 314.897842 
L 37.423121 316.987004 
L 40.153725 319.420771 
L 42.039722 320.794872 
L 43.396508 321.642773 
L 46.30685 323.099291 
L 47.47168 323.553898 
L 50.385241 324.397648 
L 53.557468 324.87931 
L 55.872936 324.969231 
L 58.668505 324.807983 
L 61.404888 324.38538 
L 64.883115 323.500106 
L 68.087343 322.366657 
L 72.640114 320.277372 
L 72.640114 320.277372 
" clip-path="url(#p308795326c)" style="fill: none; stroke: #000000; stroke-linecap: square"/>
   </g>
   <g id="patch_3">
    <path d="M 100.088149 17.093527 
Q 99.985757 17.129461 101.99327 16.424928 
" clip-path="url(#p308795326c)" style="fill: none; stroke: #000000; stroke-width: 2; stroke-linecap: round"/>
    <path d="M 113.084798 17.83135 
L 101.99327 16.424928 
L 109.773324 8.395559 
z
" clip-path="url(#p308795326c)" style="stroke: #000000; stroke-width: 2; stroke-linecap: round"/>
   </g>
   <g id="text_1">
    <g clip-path="url(#p308795326c)">
     <!-- $P$ -->
     <g transform="translate(361.145121 272.445488) scale(0.25 -0.25)">
      <defs>
       <path id="Cmmi10-50" d="M 313 0 
Q 250 0 250 84 
Q 253 100 262 139 
Q 272 178 289 201 
Q 306 225 331 225 
Q 722 225 878 269 
Q 959 297 997 441 
L 1875 3956 
Q 1888 4019 1888 4044 
Q 1888 4113 1813 4122 
Q 1691 4147 1350 4147 
Q 1288 4147 1288 4231 
Q 1291 4247 1300 4286 
Q 1309 4325 1326 4348 
Q 1344 4372 1369 4372 
L 3578 4372 
Q 3881 4372 4165 4264 
Q 4450 4156 4631 3934 
Q 4813 3713 4813 3397 
Q 4813 2991 4527 2672 
Q 4241 2353 3814 2175 
Q 3388 1997 2988 1997 
L 1947 1997 
L 1556 416 
Q 1544 353 1544 325 
Q 1544 300 1551 283 
Q 1559 266 1573 261 
Q 1588 256 1619 250 
Q 1741 225 2081 225 
Q 2144 225 2144 141 
Q 2122 50 2109 25 
Q 2097 0 2034 0 
L 313 0 
z
M 1978 2188 
L 2875 2188 
Q 3497 2188 3822 2522 
Q 3988 2688 4092 3000 
Q 4197 3313 4197 3566 
Q 4197 3881 3956 4014 
Q 3716 4147 3359 4147 
L 2747 4147 
Q 2572 4147 2515 4117 
Q 2459 4088 2413 3928 
L 1978 2188 
z
" transform="scale(0.015625)"/>
      </defs>
      <use xlink:href="#Cmmi10-50" transform="translate(0 0.6875)"/>
     </g>
    </g>
   </g>
   <g id="text_2">
    <g clip-path="url(#p308795326c)">
     <!-- $Q$ -->
     <g transform="translate(84.955589 322.712714) scale(0.25 -0.25)">
      <defs>
       <path id="Cmmi10-51" d="M 1947 -141 
Q 1466 -141 1094 79 
Q 722 300 520 692 
Q 319 1084 319 1563 
Q 319 2259 714 2950 
Q 1109 3641 1756 4077 
Q 2403 4513 3109 4513 
Q 3475 4513 3778 4381 
Q 4081 4250 4290 4017 
Q 4500 3784 4614 3471 
Q 4728 3159 4728 2791 
Q 4728 2366 4581 1936 
Q 4434 1506 4171 1136 
Q 3909 766 3559 484 
Q 3209 203 2809 38 
Q 2850 -256 2934 -425 
Q 3019 -594 3256 -594 
Q 3506 -594 3726 -412 
Q 3947 -231 4006 13 
Q 4019 72 4078 72 
Q 4147 72 4147 -13 
Q 4100 -219 4008 -430 
Q 3916 -641 3786 -823 
Q 3656 -1006 3478 -1123 
Q 3300 -1241 3084 -1241 
Q 2547 -1241 2547 -550 
Q 2547 -509 2562 -332 
Q 2578 -156 2578 -44 
Q 2269 -141 1947 -141 
z
M 1709 300 
Q 1709 44 1991 44 
Q 2275 44 2591 184 
L 2591 244 
Q 2591 503 2509 648 
Q 2428 794 2194 794 
Q 2078 794 1964 723 
Q 1850 653 1779 539 
Q 1709 425 1709 300 
z
M 1544 288 
Q 1544 456 1637 612 
Q 1731 769 1881 864 
Q 2031 959 2203 959 
Q 2481 959 2607 771 
Q 2734 584 2778 281 
Q 3188 525 3500 978 
Q 3813 1431 3977 1973 
Q 4141 2516 4141 3003 
Q 4141 3356 4023 3656 
Q 3906 3956 3664 4140 
Q 3422 4325 3066 4325 
Q 2722 4325 2403 4156 
Q 2084 3988 1813 3706 
Q 1550 3434 1342 3032 
Q 1134 2631 1021 2193 
Q 909 1756 909 1356 
Q 909 947 1068 612 
Q 1228 278 1569 128 
Q 1544 194 1544 288 
z
" transform="scale(0.015625)"/>
      </defs>
      <use xlink:href="#Cmmi10-51" transform="translate(0 0.484375)"/>
     </g>
    </g>
   </g>
  </g>
 </g>
 <defs>
  <clipPath id="p308795326c">
   <rect x="7.2" y="7.2" width="378.270748" height="324"/>
  </clipPath>
 </defs>
</svg>
