<?xml version="1.0" encoding="utf-8" standalone="no"?>
<!DOCTYPE svg PUBLIC "-//W3C//DTD SVG 1.1//EN"
  "http://www.w3.org/Graphics/SVG/1.1/DTD/svg11.dtd">
<svg xmlns:xlink="http://www.w3.org/1999/xlink" width="392.660257pt" height="338.4pt" viewBox="0 0 392.660257 338.4" xmlns="http://www.w3.org/2000/svg" version="1.1">
 <metadata>
  <rdf:RDF xmlns:dc="http://purl.org/dc/elements/1.1/" xmlns:cc="http://creativecommons.org/ns#" xmlns:rdf="http://www.w3.org/1999/02/22-rdf-syntax-ns#">
   <cc:Work>
    <dc:type rdf:resource="http://purl.org/dc/dcmitype/StillImage"/>
    <dc:date>2025-11-05T14:56:43.332497</dc:date>
    <dc:format>image/svg+xml</dc:format>
    <dc:creator>
     <cc:Agent>
      <dc:title>Matplotlib v3.10.3, https://matplotlib.org/</dc:title>
     </cc:Agent>
    </dc:creator>
   </cc:Work>
  </rdf:RDF>
 </metadata>
 <defs>
  <style type="text/css">*{stroke-linejoin: round; stroke-linecap: butt}</style>
 </defs>
 <g id="figure_1">
  <g id="patch_1">
   <path d="M 0 338.4 
L 392.660257 338.4 
L 392.660257 0 
L 0 0 
z
" style="fill: #ffffff"/>
  </g>
  <g id="axes_1">
   <g id="patch_2">
    <path d="M 7.2 331.2 
L 385.460257 331.2 
L 385.460257 7.2 
L 7.2 7.2 
z
" style="fill: #ffffff"/>
   </g>
   <g id="PathCollection_1">
    <path d="M 378.186022 246.773312 
C 379.123656 246.773312 380.023014 246.400786 380.686022 245.737778 
C 381.349029 245.07477 381.721555 244.175413 381.721555 243.237778 
C 381.721555 242.300144 381.349029 241.400786 380.686022 240.737778 
C 380.023014 240.07477 379.123656 239.702244 378.186022 239.702244 
C 377.248387 239.702244 376.349029 240.07477 375.686022 240.737778 
C 375.023014 241.400786 374.650488 242.300144 374.650488 243.237778 
C 374.650488 244.175413 375.023014 245.07477 375.686022 245.737778 
C 376.349029 246.400786 377.248387 246.773312 378.186022 246.773312 
z
" clip-path="url(#p2997e9d442)"/>
   </g>
   <g id="PathCollection_2">
    <path d="M 137.722338 100.667831 
C 138.659972 100.667831 139.55933 100.295305 140.222338 99.632297 
C 140.885345 98.96929 141.257872 98.069932 141.257872 97.132297 
C 141.257872 96.194663 140.885345 95.295305 140.222338 94.632297 
C 139.55933 93.96929 138.659972 93.596764 137.722338 93.596764 
C 136.784703 93.596764 135.885345 93.96929 135.222338 94.632297 
C 134.55933 95.295305 134.186804 96.194663 134.186804 97.132297 
C 134.186804 98.069932 134.55933 98.96929 135.222338 99.632297 
C 135.885345 100.295305 136.784703 100.667831 137.722338 100.667831 
z
" clip-path="url(#p2997e9d442)"/>
   </g>
   <g id="matplotlib.axis_1"/>
   <g id="matplotlib.axis_2"/>
   <g id="line2d_1">
    <path d="M 378.186022 243.237778 
L 345.949779 203.397255 
L 323.346023 175.616168 
L 306.500776 155.283514 
L 292.190287 138.407396 
L 279.717319 124.088501 
L 270.732067 114.044042 
L 260.721787 103.161216 
L 250.277541 92.196383 
L 242.668526 84.486904 
L 233.333452 75.382594 
L 223.808434 66.532975 
L 216.594437 60.152476 
L 209.021004 53.77652 
L 202.898076 48.879301 
L 197.904071 45.06551 
L 193.910903 42.138139 
L 184.743455 35.851053 
L 179.190915 32.353656 
L 172.941302 28.715489 
L 166.230069 25.180408 
L 161.361203 22.870047 
L 157.935602 21.37863 
L 154.198218 19.882545 
L 147.750539 17.63693 
L 142.324388 16.09274 
L 137.278655 14.956035 
L 133.433366 14.292645 
L 128.223452 13.687313 
L 125.395496 13.506006 
L 119.952532 13.462847 
L 116.298165 13.669634 
L 111.547305 14.236597 
L 108.063142 14.876612 
L 103.415394 16.041249 
L 100.419627 16.989112 
L 97.355892 18.125805 
L 92.691072 20.19735 
L 88.047503 22.692281 
L 83.988638 25.250585 
L 82.554679 26.243063 
L 77.772881 29.906309 
L 74.56788 32.682971 
L 69.86533 37.261008 
L 67.275856 40.055728 
L 64.954704 42.737346 
L 60.097862 48.928751 
L 57.503207 52.584066 
L 53.554543 58.659252 
L 50.024672 64.666121 
L 47.567695 69.202857 
L 44.993204 74.301842 
L 42.436813 79.749544 
L 39.322015 86.968115 
L 36.390312 94.429156 
L 33.988147 101.101984 
L 31.517185 108.581923 
L 29.057944 116.763947 
L 26.841621 124.905732 
L 25.177759 131.605784 
L 23.240829 140.202445 
L 21.161167 150.690241 
L 19.691946 159.192466 
L 18.463986 167.304132 
L 16.978422 179.048431 
L 15.897959 190.022438 
L 15.228754 199.101423 
L 14.7523 208.538723 
L 14.513588 217.45703 
L 14.479092 225.013956 
L 14.656676 234.206371 
L 15.167075 244.536242 
L 15.916198 253.606622 
L 16.5714 259.497138 
L 17.48788 266.130713 
L 18.678006 273.08083 
L 20.089823 279.803349 
L 21.594721 285.7567 
L 23.651031 292.489521 
L 25.280288 296.9741 
L 26.861416 300.767065 
L 28.653869 304.520062 
L 30.459154 307.807223 
L 32.449124 310.945148 
L 34.074463 313.180451 
L 35.965121 315.454893 
L 38.05582 317.607512 
L 39.963082 319.274728 
L 41.153805 320.184759 
L 43.008029 321.417261 
L 44.482702 322.247715 
L 46.052001 322.995746 
L 49.247213 324.121124 
L 52.166339 324.725812 
L 54.260159 324.933382 
L 57.828728 324.890187 
L 61.635157 324.3422 
L 64.448123 323.634533 
L 68.311457 322.279747 
L 69.852103 321.623958 
L 72.637082 320.281744 
L 72.637082 320.281744 
" clip-path="url(#p2997e9d442)" style="fill: none; stroke: #000000; stroke-linecap: square"/>
   </g>
   <g id="line2d_2">
    <path d="M 72.637082 320.281744 
L 77.769614 315.554558 
L 82.510642 310.857449 
L 86.079216 307.072924 
L 89.939756 302.691913 
L 93.526854 298.302348 
L 96.15597 294.851941 
L 99.87622 289.558425 
L 102.968306 284.704294 
L 105.728949 279.924344 
L 108.425762 274.728978 
L 110.570278 270.112841 
L 112.503536 265.464468 
L 114.073612 261.241548 
L 115.896437 255.649665 
L 117.523931 249.755677 
L 118.779861 244.317777 
L 119.882235 238.522104 
L 120.879546 231.858841 
L 121.633142 225.093124 
L 122.147993 218.581529 
L 122.539726 210.848119 
L 122.777518 201.21932 
L 122.845285 189.115765 
L 122.947031 169.472479 
L 123.166929 161.536591 
L 123.614705 153.141757 
L 124.273325 145.526446 
L 125.020837 139.368466 
L 125.897237 133.750754 
L 127.091348 127.624831 
L 128.549313 121.54793 
L 129.64628 117.632039 
L 131.21094 112.718182 
L 133.17341 107.356579 
L 135.417318 102.00332 
L 137.722338 97.132297 
L 137.722338 97.132297 
" clip-path="url(#p2997e9d442)" style="fill: none; stroke: #000000; stroke-linecap: square"/>
   </g>
   <g id="patch_3">
    <path d="M 100.084466 17.1051 
Q 99.982075 17.141034 101.989592 16.4365 
" clip-path="url(#p2997e9d442)" style="fill: none; stroke: #000000; stroke-width: 2; stroke-linecap: round"/>
    <path d="M 113.081119 17.842922 
L 101.989592 16.4365 
L 109.769645 8.407131 
z
" clip-path="url(#p2997e9d442)" style="stroke: #000000; stroke-width: 2; stroke-linecap: round"/>
   </g>
   <g id="patch_4">
    <path d="M 122.845708 186.392076 
Q 122.845715 185.945777 122.845686 187.735546 
" clip-path="url(#p2997e9d442)" style="fill: none; stroke: #000000; stroke-width: 2; stroke-linecap: round"/>
    <path d="M 117.845519 197.735463 
L 122.845686 187.735546 
L 127.845519 197.73563 
z
" clip-path="url(#p2997e9d442)" style="stroke: #000000; stroke-width: 2; stroke-linecap: round"/>
   </g>
   <g id="text_1">
    <g clip-path="url(#p2997e9d442)">
     <!-- $P$ -->
     <g transform="translate(361.135044 272.45116) scale(0.25 -0.25)">
      <defs>
       <path id="Cmmi10-50" d="M 313 0 
Q 250 0 250 84 
Q 253 100 262 139 
Q 272 178 289 201 
Q 306 225 331 225 
Q 722 225 878 269 
Q 959 297 997 441 
L 1875 3956 
Q 1888 4019 1888 4044 
Q 1888 4113 1813 4122 
Q 1691 4147 1350 4147 
Q 1288 4147 1288 4231 
Q 1291 4247 1300 4286 
Q 1309 4325 1326 4348 
Q 1344 4372 1369 4372 
L 3578 4372 
Q 3881 4372 4165 4264 
Q 4450 4156 4631 3934 
Q 4813 3713 4813 3397 
Q 4813 2991 4527 2672 
Q 4241 2353 3814 2175 
Q 3388 1997 2988 1997 
L 1947 1997 
L 1556 416 
Q 1544 353 1544 325 
Q 1544 300 1551 283 
Q 1559 266 1573 261 
Q 1588 256 1619 250 
Q 1741 225 2081 225 
Q 2144 225 2144 141 
Q 2122 50 2109 25 
Q 2097 0 2034 0 
L 313 0 
z
M 1978 2188 
L 2875 2188 
Q 3497 2188 3822 2522 
Q 3988 2688 4092 3000 
Q 4197 3313 4197 3566 
Q 4197 3881 3956 4014 
Q 3716 4147 3359 4147 
L 2747 4147 
Q 2572 4147 2515 4117 
Q 2459 4088 2413 3928 
L 1978 2188 
z
" transform="scale(0.015625)"/>
      </defs>
      <use xlink:href="#Cmmi10-50" transform="translate(0 0.6875)"/>
     </g>
    </g>
   </g>
   <g id="text_2">
    <g clip-path="url(#p2997e9d442)">
     <!-- $R$ -->
     <g transform="translate(150.537282 81.71579) scale(0.25 -0.25)">
      <defs>
       <path id="Cmmi10-52" d="M 313 0 
Q 250 0 250 84 
Q 253 100 262 139 
Q 272 178 289 201 
Q 306 225 331 225 
Q 722 225 878 269 
Q 959 297 997 441 
L 1875 3956 
Q 1888 4019 1888 4044 
Q 1888 4113 1813 4122 
Q 1691 4147 1350 4147 
Q 1288 4147 1288 4231 
Q 1291 4247 1300 4286 
Q 1309 4325 1326 4348 
Q 1344 4372 1369 4372 
L 3309 4372 
Q 3541 4372 3791 4319 
Q 4041 4266 4250 4152 
Q 4459 4038 4593 3848 
Q 4728 3659 4728 3406 
Q 4728 3084 4515 2831 
Q 4303 2578 3978 2408 
Q 3653 2238 3347 2169 
Q 3597 2078 3756 1879 
Q 3916 1681 3916 1422 
Q 3916 1388 3914 1370 
Q 3913 1353 3909 1331 
L 3859 763 
Q 3853 638 3847 550 
Q 3841 463 3841 409 
Q 3841 234 3892 129 
Q 3944 25 4097 25 
Q 4297 25 4448 211 
Q 4600 397 4647 616 
Q 4675 672 4709 672 
L 4769 672 
Q 4831 672 4831 588 
Q 4784 403 4682 237 
Q 4581 72 4426 -34 
Q 4272 -141 4091 -141 
Q 3716 -141 3452 26 
Q 3188 194 3188 550 
Q 3188 684 3213 788 
L 3353 1356 
Q 3378 1434 3378 1538 
Q 3378 1803 3198 1954 
Q 3019 2106 2747 2106 
L 1959 2106 
L 1538 416 
Q 1522 363 1522 325 
Q 1522 259 1600 250 
Q 1722 225 2059 225 
Q 2125 225 2125 141 
Q 2103 50 2090 25 
Q 2078 0 2016 0 
L 313 0 
z
M 1997 2272 
L 2706 2272 
Q 3403 2272 3756 2625 
Q 3919 2788 4014 3039 
Q 4109 3291 4109 3541 
Q 4109 3778 3970 3912 
Q 3831 4047 3626 4097 
Q 3422 4147 3175 4147 
L 2747 4147 
Q 2572 4147 2515 4117 
Q 2459 4088 2413 3928 
L 1997 2272 
z
" transform="scale(0.015625)"/>
      </defs>
      <use xlink:href="#Cmmi10-52" transform="translate(0 0.6875)"/>
     </g>
    </g>
   </g>
  </g>
 </g>
 <defs>
  <clipPath id="p2997e9d442">
   <rect x="7.2" y="7.2" width="378.260257" height="324"/>
  </clipPath>
 </defs>
</svg>
