<?xml version="1.0" encoding="utf-8" standalone="no"?>
<!DOCTYPE svg PUBLIC "-//W3C//DTD SVG 1.1//EN"
  "http://www.w3.org/Graphics/SVG/1.1/DTD/svg11.dtd">
<svg xmlns:xlink="http://www.w3.org/1999/xlink" width="392.697042pt" height="338.4pt" viewBox="0 0 392.697042 338.4" xmlns="http://www.w3.org/2000/svg" version="1.1">
 <metadata>
  <rdf:RDF xmlns:dc="http://purl.org/dc/elements/1.1/" xmlns:cc="http://creativecommons.org/ns#" xmlns:rdf="http://www.w3.org/1999/02/22-rdf-syntax-ns#">
   <cc:Work>
    <dc:type rdf:resource="http://purl.org/dc/dcmitype/StillImage"/>
    <dc:date>2025-09-03T15:04:55.536127</dc:date>
    <dc:format>image/svg+xml</dc:format>
    <dc:creator>
     <cc:Agent>
      <dc:title>Matplotlib v3.10.5, https://matplotlib.org/</dc:title>
     </cc:Agent>
    </dc:creator>
   </cc:Work>
  </rdf:RDF>
 </metadata>
 <defs>
  <style type="text/css">*{stroke-linejoin: round; stroke-linecap: butt}</style>
 </defs>
 <g id="figure_1">
  <g id="patch_1">
   <path d="M 0 338.4 
L 392.697042 338.4 
L 392.697042 0 
L 0 0 
z
" style="fill: #ffffff"/>
  </g>
  <g id="axes_1">
   <g id="patch_2">
    <path d="M 7.2 331.2 
L 385.497042 331.2 
L 385.497042 7.2 
L 7.2 7.2 
z
" style="fill: #ffffff"/>
   </g>
   <g id="PathCollection_1">
    <path d="M 378.222099 246.765278 
C 379.159733 246.765278 380.059091 246.392752 380.722099 245.729744 
C 381.385107 245.066736 381.757633 244.167379 381.757633 243.229744 
C 381.757633 242.292109 381.385107 241.392752 380.722099 240.729744 
C 380.059091 240.066736 379.159733 239.69421 378.222099 239.69421 
C 377.284464 239.69421 376.385107 240.066736 375.722099 240.729744 
C 375.059091 241.392752 374.686565 242.292109 374.686565 243.229744 
C 374.686565 244.167379 375.059091 245.066736 375.722099 245.729744 
C 376.385107 246.392752 377.284464 246.765278 378.222099 246.765278 
z
" clip-path="url(#pc383cc29f4)"/>
   </g>
   <g id="PathCollection_2">
    <path d="M 72.64311 323.816821 
C 73.580745 323.816821 74.480102 323.444295 75.14311 322.781287 
C 75.806118 322.118279 76.178644 321.218922 76.178644 320.281287 
C 76.178644 319.343652 75.806118 318.444295 75.14311 317.781287 
C 74.480102 317.118279 73.580745 316.745753 72.64311 316.745753 
C 71.705476 316.745753 70.806118 317.118279 70.14311 317.781287 
C 69.480102 318.444295 69.107576 319.343652 69.107576 320.281287 
C 69.107576 321.218922 69.480102 322.118279 70.14311 322.781287 
C 70.806118 323.444295 71.705476 323.816821 72.64311 323.816821 
z
" clip-path="url(#pc383cc29f4)"/>
   </g>
   <g id="matplotlib.axis_1"/>
   <g id="matplotlib.axis_2"/>
   <g id="line2d_1">
    <path d="M 378.222099 243.229744 
L 312.027279 161.854611 
L 296.631529 143.547696 
L 284.314934 129.269064 
L 272.510999 115.963947 
L 265.521728 108.288172 
L 258.2887 100.521723 
L 246.482052 88.273157 
L 240.929032 82.713733 
L 232.876069 74.901854 
L 225.378416 67.914788 
L 215.888691 59.500618 
L 208.190601 53.056013 
L 200.107045 46.685831 
L 194.229527 42.32687 
L 186.371063 36.88189 
L 179.517618 32.513819 
L 175.643731 30.210529 
L 169.395824 26.761059 
L 167.417807 25.739781 
L 161.318681 22.81448 
L 154.675563 20.030422 
L 148.08995 17.709737 
L 145.540238 16.934613 
L 138.170611 15.102294 
L 136.303849 14.738161 
L 130.396821 13.865926 
L 124.245603 13.431919 
L 120.011743 13.430769 
L 114.743915 13.787778 
L 112.38805 14.081858 
L 107.895263 14.883951 
L 103.258703 16.059192 
L 99.418128 17.314622 
L 93.891023 19.597748 
L 88.768984 22.249697 
L 87.60849 22.926338 
L 84.544917 24.853527 
L 80.750754 27.535834 
L 76.46792 30.98121 
L 73.581706 33.569129 
L 68.672949 38.500676 
L 64.841182 42.851488 
L 61.733733 46.730961 
L 58.189384 51.572203 
L 56.823305 53.564704 
L 52.27841 60.74559 
L 49.021808 66.46222 
L 45.699248 72.848431 
L 43.699173 76.991451 
L 40.741871 83.576361 
L 37.609612 91.224651 
L 34.151792 100.614129 
L 31.481265 108.680816 
L 28.622692 118.286059 
L 26.56087 125.983991 
L 24.850547 132.979461 
L 22.412837 144.185381 
L 20.919896 152.002302 
L 19.461477 160.622887 
L 17.862683 171.729375 
L 16.719119 181.417569 
L 15.607959 193.617436 
L 14.938659 204.288148 
L 14.569524 214.499617 
L 14.478121 224.777472 
L 14.624506 233.163979 
L 15.026619 242.278783 
L 15.689849 251.208684 
L 16.608604 259.786504 
L 17.700438 267.476281 
L 18.833846 273.882927 
L 20.183993 280.199813 
L 21.790373 286.451913 
L 23.591285 292.305453 
L 25.090774 296.478479 
L 27.450874 302.05481 
L 29.712617 306.497611 
L 31.4331 309.397247 
L 33.335749 312.194315 
L 35.196637 314.566376 
L 37.067521 316.631205 
L 40.100695 319.382069 
L 43.186654 321.5225 
L 45.791366 322.879111 
L 47.982051 323.735127 
L 51.20208 324.56733 
L 51.896526 324.685091 
L 53.910026 324.910862 
L 56.214658 324.969231 
L 58.919482 324.7843 
L 60.866233 324.492937 
L 64.18649 323.711976 
L 67.265295 322.6902 
L 70.819004 321.18279 
L 72.64311 320.281287 
L 72.64311 320.281287 
" clip-path="url(#pc383cc29f4)" style="fill: none; stroke: #000000; stroke-linecap: square"/>
   </g>
   <g id="patch_3">
    <path d="M 100.093193 17.074827 
Q 99.990792 17.110764 101.998299 16.406233 
" clip-path="url(#pc383cc29f4)" style="fill: none; stroke: #000000; stroke-width: 2; stroke-linecap: round"/>
    <path d="M 113.089826 17.812655 
L 101.998299 16.406233 
L 109.778352 8.376865 
z
" clip-path="url(#pc383cc29f4)" style="stroke: #000000; stroke-width: 2; stroke-linecap: round"/>
   </g>
   <g id="text_1">
    <g clip-path="url(#pc383cc29f4)">
     <!-- $P$ -->
     <g transform="translate(361.170243 272.445321) scale(0.25 -0.25)">
      <defs>
       <path id="Cmmi10-50" d="M 313 0 
Q 250 0 250 84 
Q 253 100 262 139 
Q 272 178 289 201 
Q 306 225 331 225 
Q 722 225 878 269 
Q 959 297 997 441 
L 1875 3956 
Q 1888 4019 1888 4044 
Q 1888 4113 1813 4122 
Q 1691 4147 1350 4147 
Q 1288 4147 1288 4231 
Q 1291 4247 1300 4286 
Q 1309 4325 1326 4348 
Q 1344 4372 1369 4372 
L 3578 4372 
Q 3881 4372 4165 4264 
Q 4450 4156 4631 3934 
Q 4813 3713 4813 3397 
Q 4813 2991 4527 2672 
Q 4241 2353 3814 2175 
Q 3388 1997 2988 1997 
L 1947 1997 
L 1556 416 
Q 1544 353 1544 325 
Q 1544 300 1551 283 
Q 1559 266 1573 261 
Q 1588 256 1619 250 
Q 1741 225 2081 225 
Q 2144 225 2144 141 
Q 2122 50 2109 25 
Q 2097 0 2034 0 
L 313 0 
z
M 1978 2188 
L 2875 2188 
Q 3497 2188 3822 2522 
Q 3988 2688 4092 3000 
Q 4197 3313 4197 3566 
Q 4197 3881 3956 4014 
Q 3716 4147 3359 4147 
L 2747 4147 
Q 2572 4147 2515 4117 
Q 2459 4088 2413 3928 
L 1978 2188 
z
" transform="scale(0.015625)"/>
      </defs>
      <use xlink:href="#Cmmi10-50" transform="translate(0 0.6875)"/>
     </g>
    </g>
   </g>
   <g id="text_2">
    <g clip-path="url(#pc383cc29f4)">
     <!-- $Q$ -->
     <g transform="translate(84.960249 322.716297) scale(0.25 -0.25)">
      <defs>
       <path id="Cmmi10-51" d="M 1947 -141 
Q 1466 -141 1094 79 
Q 722 300 520 692 
Q 319 1084 319 1563 
Q 319 2259 714 2950 
Q 1109 3641 1756 4077 
Q 2403 4513 3109 4513 
Q 3475 4513 3778 4381 
Q 4081 4250 4290 4017 
Q 4500 3784 4614 3471 
Q 4728 3159 4728 2791 
Q 4728 2366 4581 1936 
Q 4434 1506 4171 1136 
Q 3909 766 3559 484 
Q 3209 203 2809 38 
Q 2850 -256 2934 -425 
Q 3019 -594 3256 -594 
Q 3506 -594 3726 -412 
Q 3947 -231 4006 13 
Q 4019 72 4078 72 
Q 4147 72 4147 -13 
Q 4100 -219 4008 -430 
Q 3916 -641 3786 -823 
Q 3656 -1006 3478 -1123 
Q 3300 -1241 3084 -1241 
Q 2547 -1241 2547 -550 
Q 2547 -509 2562 -332 
Q 2578 -156 2578 -44 
Q 2269 -141 1947 -141 
z
M 1709 300 
Q 1709 44 1991 44 
Q 2275 44 2591 184 
L 2591 244 
Q 2591 503 2509 648 
Q 2428 794 2194 794 
Q 2078 794 1964 723 
Q 1850 653 1779 539 
Q 1709 425 1709 300 
z
M 1544 288 
Q 1544 456 1637 612 
Q 1731 769 1881 864 
Q 2031 959 2203 959 
Q 2481 959 2607 771 
Q 2734 584 2778 281 
Q 3188 525 3500 978 
Q 3813 1431 3977 1973 
Q 4141 2516 4141 3003 
Q 4141 3356 4023 3656 
Q 3906 3956 3664 4140 
Q 3422 4325 3066 4325 
Q 2722 4325 2403 4156 
Q 2084 3988 1813 3706 
Q 1550 3434 1342 3032 
Q 1134 2631 1021 2193 
Q 909 1756 909 1356 
Q 909 947 1068 612 
Q 1228 278 1569 128 
Q 1544 194 1544 288 
z
" transform="scale(0.015625)"/>
      </defs>
      <use xlink:href="#Cmmi10-51" transform="translate(0 0.484375)"/>
     </g>
    </g>
   </g>
  </g>
 </g>
 <defs>
  <clipPath id="pc383cc29f4">
   <rect x="7.2" y="7.2" width="378.297042" height="324"/>
  </clipPath>
 </defs>
</svg>
