<?xml version="1.0" encoding="utf-8" standalone="no"?>
<!DOCTYPE svg PUBLIC "-//W3C//DTD SVG 1.1//EN"
  "http://www.w3.org/Graphics/SVG/1.1/DTD/svg11.dtd">
<svg xmlns:xlink="http://www.w3.org/1999/xlink" width="392.658611pt" height="338.4pt" viewBox="0 0 392.658611 338.4" xmlns="http://www.w3.org/2000/svg" version="1.1">
 <metadata>
  <rdf:RDF xmlns:dc="http://purl.org/dc/elements/1.1/" xmlns:cc="http://creativecommons.org/ns#" xmlns:rdf="http://www.w3.org/1999/02/22-rdf-syntax-ns#">
   <cc:Work>
    <dc:type rdf:resource="http://purl.org/dc/dcmitype/StillImage"/>
    <dc:date>2025-11-05T14:57:18.115864</dc:date>
    <dc:format>image/svg+xml</dc:format>
    <dc:creator>
     <cc:Agent>
      <dc:title>Matplotlib v3.10.3, https://matplotlib.org/</dc:title>
     </cc:Agent>
    </dc:creator>
   </cc:Work>
  </rdf:RDF>
 </metadata>
 <defs>
  <style type="text/css">*{stroke-linejoin: round; stroke-linecap: butt}</style>
 </defs>
 <g id="figure_1">
  <g id="patch_1">
   <path d="M 0 338.4 
L 392.658611 338.4 
L 392.658611 0 
L 0 0 
z
" style="fill: #ffffff"/>
  </g>
  <g id="axes_1">
   <g id="patch_2">
    <path d="M 7.2 331.2 
L 385.458611 331.2 
L 385.458611 7.2 
L 7.2 7.2 
z
" style="fill: #ffffff"/>
   </g>
   <g id="PathCollection_1">
    <path d="M 378.184407 246.77135 
C 379.122041 246.77135 380.021399 246.398824 380.684407 245.735816 
C 381.347414 245.072809 381.719941 244.173451 381.719941 243.235816 
C 381.719941 242.298182 381.347414 241.398824 380.684407 240.735816 
C 380.021399 240.072809 379.122041 239.700282 378.184407 239.700282 
C 377.246772 239.700282 376.347414 240.072809 375.684407 240.735816 
C 375.021399 241.398824 374.648873 242.298182 374.648873 243.235816 
C 374.648873 244.173451 375.021399 245.072809 375.684407 245.735816 
C 376.347414 246.398824 377.246772 246.77135 378.184407 246.77135 
z
" clip-path="url(#pafa49f56b7)"/>
   </g>
   <g id="PathCollection_2">
    <path d="M 72.637698 323.814754 
C 73.575333 323.814754 74.47469 323.442228 75.137698 322.77922 
C 75.800706 322.116212 76.173232 321.216854 76.173232 320.27922 
C 76.173232 319.341585 75.800706 318.442228 75.137698 317.77922 
C 74.47469 317.116212 73.575333 316.743686 72.637698 316.743686 
C 71.700063 316.743686 70.800706 317.116212 70.137698 317.77922 
C 69.47469 318.442228 69.102164 319.341585 69.102164 320.27922 
C 69.102164 321.216854 69.47469 322.116212 70.137698 322.77922 
C 70.800706 323.442228 71.700063 323.814754 72.637698 323.814754 
z
" clip-path="url(#pafa49f56b7)"/>
   </g>
   <g id="matplotlib.axis_1"/>
   <g id="matplotlib.axis_2"/>
   <g id="line2d_1">
    <path d="M 378.184407 243.235816 
L 350.658048 209.221294 
L 324.284795 176.760834 
L 307.762385 156.790708 
L 295.422523 142.180882 
L 285.570553 130.757376 
L 275.376089 119.204858 
L 265.062505 107.837872 
L 253.589945 95.627715 
L 244.818953 86.640324 
L 234.868767 76.851504 
L 229.988034 72.221406 
L 221.674282 64.615173 
L 212.708542 56.838046 
L 205.380212 50.83556 
L 199.246271 46.073813 
L 192.263626 40.962862 
L 187.03184 37.361707 
L 182.788563 34.591784 
L 176.251256 30.601673 
L 173.946808 29.278487 
L 166.100842 25.115931 
L 159.709506 22.136499 
L 153.030407 19.443504 
L 150.607686 18.578085 
L 143.824913 16.486777 
L 138.750382 15.256594 
L 135.472223 14.621714 
L 129.849948 13.838804 
L 126.496628 13.563685 
L 121.879616 13.430769 
L 118.832931 13.505317 
L 113.474089 13.964777 
L 110.238995 14.453916 
L 106.478118 15.232824 
L 103.83397 15.921144 
L 99.348254 17.366866 
L 95.212372 19.025262 
L 90.338373 21.405549 
L 86.65692 23.52785 
L 82.532396 26.258869 
L 78.208547 29.54935 
L 74.304679 32.923151 
L 71.740778 35.360763 
L 68.209345 39.025097 
L 64.359011 43.453851 
L 61.596093 46.931732 
L 57.563005 52.497411 
L 53.475616 58.787996 
L 50.322076 64.138202 
L 47.2087 69.892806 
L 43.657405 77.099142 
L 39.870662 85.647904 
L 37.230725 92.219645 
L 34.133273 100.6847 
L 32.429508 105.742682 
L 30.023487 113.456588 
L 28.128203 120.083713 
L 26.039849 128.067007 
L 23.961468 136.893857 
L 21.559271 148.563814 
L 20.112494 156.648648 
L 18.861915 164.557313 
L 17.361983 175.74986 
L 16.167892 186.988779 
L 15.347825 197.275198 
L 14.770345 208.100954 
L 14.519134 217.161083 
L 14.485926 225.825763 
L 14.663557 234.379984 
L 15.096043 243.417258 
L 15.600958 250.202024 
L 16.189227 256.206056 
L 17.048059 263.117317 
L 18.274449 270.876978 
L 19.700921 278.073159 
L 21.14756 284.087729 
L 22.48003 288.819365 
L 23.950242 293.357683 
L 25.163688 296.669151 
L 27.592864 302.358628 
L 29.545649 306.196489 
L 31.046162 308.778429 
L 32.460669 310.95823 
L 33.975868 313.048918 
L 36.063768 315.561209 
L 37.437807 317.004881 
L 39.233273 318.665002 
L 41.788246 320.627952 
L 43.536861 321.726782 
L 46.001841 322.971015 
L 48.333748 323.84837 
L 50.048556 324.322722 
L 52.033306 324.703769 
L 55.371019 324.969231 
L 56.938552 324.943021 
L 60.528373 324.549398 
L 62.59975 324.124909 
L 64.504527 323.615515 
L 67.355722 322.651936 
L 70.548417 321.304736 
L 72.637698 320.27922 
L 72.637698 320.27922 
" clip-path="url(#pafa49f56b7)" style="fill: none; stroke: #000000; stroke-linecap: square"/>
   </g>
   <g id="patch_3">
    <path d="M 100.084881 17.104789 
Q 99.982491 17.140722 101.990008 16.436188 
" clip-path="url(#pafa49f56b7)" style="fill: none; stroke: #000000; stroke-width: 2; stroke-linecap: round"/>
    <path d="M 113.081536 17.84261 
L 101.990008 16.436188 
L 109.770062 8.406819 
z
" clip-path="url(#pafa49f56b7)" style="stroke: #000000; stroke-width: 2; stroke-linecap: round"/>
   </g>
   <g id="text_1">
    <g clip-path="url(#pafa49f56b7)">
     <!-- $P$ -->
     <g transform="translate(361.133494 272.449036) scale(0.25 -0.25)">
      <defs>
       <path id="Cmmi10-50" d="M 313 0 
Q 250 0 250 84 
Q 253 100 262 139 
Q 272 178 289 201 
Q 306 225 331 225 
Q 722 225 878 269 
Q 959 297 997 441 
L 1875 3956 
Q 1888 4019 1888 4044 
Q 1888 4113 1813 4122 
Q 1691 4147 1350 4147 
Q 1288 4147 1288 4231 
Q 1291 4247 1300 4286 
Q 1309 4325 1326 4348 
Q 1344 4372 1369 4372 
L 3578 4372 
Q 3881 4372 4165 4264 
Q 4450 4156 4631 3934 
Q 4813 3713 4813 3397 
Q 4813 2991 4527 2672 
Q 4241 2353 3814 2175 
Q 3388 1997 2988 1997 
L 1947 1997 
L 1556 416 
Q 1544 353 1544 325 
Q 1544 300 1551 283 
Q 1559 266 1573 261 
Q 1588 256 1619 250 
Q 1741 225 2081 225 
Q 2144 225 2144 141 
Q 2122 50 2109 25 
Q 2097 0 2034 0 
L 313 0 
z
M 1978 2188 
L 2875 2188 
Q 3497 2188 3822 2522 
Q 3988 2688 4092 3000 
Q 4197 3313 4197 3566 
Q 4197 3881 3956 4014 
Q 3716 4147 3359 4147 
L 2747 4147 
Q 2572 4147 2515 4117 
Q 2459 4088 2413 3928 
L 1978 2188 
z
" transform="scale(0.015625)"/>
      </defs>
      <use xlink:href="#Cmmi10-50" transform="translate(0 0.6875)"/>
     </g>
    </g>
   </g>
   <g id="text_2">
    <g clip-path="url(#pafa49f56b7)">
     <!-- $Q$ -->
     <g transform="translate(84.95248 322.714701) scale(0.25 -0.25)">
      <defs>
       <path id="Cmmi10-51" d="M 1947 -141 
Q 1466 -141 1094 79 
Q 722 300 520 692 
Q 319 1084 319 1563 
Q 319 2259 714 2950 
Q 1109 3641 1756 4077 
Q 2403 4513 3109 4513 
Q 3475 4513 3778 4381 
Q 4081 4250 4290 4017 
Q 4500 3784 4614 3471 
Q 4728 3159 4728 2791 
Q 4728 2366 4581 1936 
Q 4434 1506 4171 1136 
Q 3909 766 3559 484 
Q 3209 203 2809 38 
Q 2850 -256 2934 -425 
Q 3019 -594 3256 -594 
Q 3506 -594 3726 -412 
Q 3947 -231 4006 13 
Q 4019 72 4078 72 
Q 4147 72 4147 -13 
Q 4100 -219 4008 -430 
Q 3916 -641 3786 -823 
Q 3656 -1006 3478 -1123 
Q 3300 -1241 3084 -1241 
Q 2547 -1241 2547 -550 
Q 2547 -509 2562 -332 
Q 2578 -156 2578 -44 
Q 2269 -141 1947 -141 
z
M 1709 300 
Q 1709 44 1991 44 
Q 2275 44 2591 184 
L 2591 244 
Q 2591 503 2509 648 
Q 2428 794 2194 794 
Q 2078 794 1964 723 
Q 1850 653 1779 539 
Q 1709 425 1709 300 
z
M 1544 288 
Q 1544 456 1637 612 
Q 1731 769 1881 864 
Q 2031 959 2203 959 
Q 2481 959 2607 771 
Q 2734 584 2778 281 
Q 3188 525 3500 978 
Q 3813 1431 3977 1973 
Q 4141 2516 4141 3003 
Q 4141 3356 4023 3656 
Q 3906 3956 3664 4140 
Q 3422 4325 3066 4325 
Q 2722 4325 2403 4156 
Q 2084 3988 1813 3706 
Q 1550 3434 1342 3032 
Q 1134 2631 1021 2193 
Q 909 1756 909 1356 
Q 909 947 1068 612 
Q 1228 278 1569 128 
Q 1544 194 1544 288 
z
" transform="scale(0.015625)"/>
      </defs>
      <use xlink:href="#Cmmi10-51" transform="translate(0 0.484375)"/>
     </g>
    </g>
   </g>
  </g>
 </g>
 <defs>
  <clipPath id="pafa49f56b7">
   <rect x="7.2" y="7.2" width="378.258611" height="324"/>
  </clipPath>
 </defs>
</svg>
