<?xml version="1.0" encoding="utf-8" standalone="no"?>
<!DOCTYPE svg PUBLIC "-//W3C//DTD SVG 1.1//EN"
  "http://www.w3.org/Graphics/SVG/1.1/DTD/svg11.dtd">
<svg xmlns:xlink="http://www.w3.org/1999/xlink" width="453.6pt" height="252.884503pt" viewBox="0 0 453.6 252.884503" xmlns="http://www.w3.org/2000/svg" version="1.1">
 <metadata>
  <rdf:RDF xmlns:dc="http://purl.org/dc/elements/1.1/" xmlns:cc="http://creativecommons.org/ns#" xmlns:rdf="http://www.w3.org/1999/02/22-rdf-syntax-ns#">
   <cc:Work>
    <dc:type rdf:resource="http://purl.org/dc/dcmitype/StillImage"/>
    <dc:date>2026-06-23T16:36:44.103072</dc:date>
    <dc:format>image/svg+xml</dc:format>
    <dc:creator>
     <cc:Agent>
      <dc:title>Matplotlib v3.10.5, https://matplotlib.org/</dc:title>
     </cc:Agent>
    </dc:creator>
   </cc:Work>
  </rdf:RDF>
 </metadata>
 <defs>
  <style type="text/css">*{stroke-linejoin: round; stroke-linecap: butt}</style>
 </defs>
 <g id="figure_1">
  <g id="patch_1">
   <path d="M 0 252.884503 
L 453.6 252.884503 
L 453.6 0 
L 0 0 
z
" style="fill: #ffffff"/>
  </g>
  <g id="axes_1">
   <g id="patch_2">
    <path d="M 7.2 245.684503 
L 446.4 245.684503 
L 446.4 7.2 
L 7.2 7.2 
z
" style="fill: #ffffff"/>
   </g>
   <g id="PathCollection_1">
    <path d="M 376.129991 48.22798 
C 377.067625 48.22798 377.966983 47.855454 378.629991 47.192446 
C 379.292998 46.529439 379.665524 45.630081 379.665524 44.692446 
C 379.665524 43.754812 379.292998 42.855454 378.629991 42.192446 
C 377.966983 41.529439 377.067625 41.156913 376.129991 41.156913 
C 375.192356 41.156913 374.292998 41.529439 373.629991 42.192446 
C 372.966983 42.855454 372.594457 43.754812 372.594457 44.692446 
C 372.594457 45.630081 372.966983 46.529439 373.629991 47.192446 
C 374.292998 47.855454 375.192356 48.22798 376.129991 48.22798 
z
" clip-path="url(#pbc54828a8f)"/>
   </g>
   <g id="PathCollection_2">
    <path d="M 342.327419 37.553941 
C 343.265053 37.553941 344.164411 37.181415 344.827419 36.518407 
C 345.490427 35.8554 345.862953 34.956042 345.862953 34.018407 
C 345.862953 33.080773 345.490427 32.181415 344.827419 31.518407 
C 344.164411 30.8554 343.265053 30.482874 342.327419 30.482874 
C 341.389784 30.482874 340.490427 30.8554 339.827419 31.518407 
C 339.164411 32.181415 338.791885 33.080773 338.791885 34.018407 
C 338.791885 34.956042 339.164411 35.8554 339.827419 36.518407 
C 340.490427 37.181415 341.389784 37.553941 342.327419 37.553941 
z
" clip-path="url(#pbc54828a8f)"/>
   </g>
   <g id="matplotlib.axis_1"/>
   <g id="matplotlib.axis_2"/>
   <g id="line2d_1">
    <path d="M 437.953846 91.348706 
L 435.106919 87.618781 
L 430.560166 82.224824 
L 427.456069 78.873946 
L 424.304217 75.704875 
L 419.373816 71.1542 
L 415.902619 68.209709 
L 411.818554 64.985391 
L 407.980203 62.167081 
L 403.035506 58.807062 
L 396.387428 54.715147 
L 389.545779 50.951808 
L 385.908403 49.116766 
L 377.65268 45.335602 
L 372.910917 43.384919 
L 364.190699 40.177765 
L 356.21481 37.638418 
L 352.097804 36.46353 
L 344.518308 34.526295 
L 339.532802 33.403159 
L 330.307097 31.621062 
L 320.275576 30.092065 
L 312.894708 29.221669 
L 304.302079 28.465013 
L 296.793706 28.019513 
L 292.714156 27.858731 
L 283.12482 27.698363 
L 276.876674 27.753258 
L 270.571782 27.932306 
L 259.627142 28.529842 
L 249.626912 29.385025 
L 240.050611 30.473486 
L 231.445146 31.672275 
L 222.992866 33.050347 
L 213.281365 34.877012 
L 209.157326 35.731093 
L 196.46863 38.65192 
L 186.614886 41.226807 
L 177.697154 43.791026 
L 168.756606 46.588824 
L 158.45235 50.102334 
L 151.021246 52.834035 
L 142.426724 56.207906 
L 133.321668 60.044069 
L 124.74572 63.917087 
L 117.05825 67.616347 
L 110.453005 70.977798 
L 105.123443 73.821159 
L 96.347401 78.778173 
L 87.068836 84.429122 
L 79.075688 89.680464 
L 73.119078 93.856818 
L 65.745536 99.385156 
L 60.383013 103.693651 
L 54.395395 108.843473 
L 50.180597 112.721127 
L 45.281026 117.544205 
L 41.610434 121.424117 
L 38.037797 125.468598 
L 34.347115 129.990991 
L 30.693976 134.912818 
L 27.274569 140.068084 
L 24.467847 144.868522 
L 22.090493 149.540188 
L 20.337243 153.540409 
L 19.088693 156.846557 
L 18.0248 160.154471 
L 17.155219 163.441742 
L 16.509369 166.549177 
L 15.968929 170.257817 
L 15.667697 174.530769 
L 15.659727 177.168417 
L 15.841179 180.389601 
L 16.227073 183.52541 
L 16.647073 185.829464 
L 17.425605 189.014559 
L 18.355236 191.950761 
L 19.806464 195.59498 
L 21.359532 198.779732 
L 23.441901 202.358146 
L 25.672208 205.620421 
L 27.529333 208.021458 
L 30.604994 211.54046 
L 34.080932 215.009276 
L 38.019872 218.461556 
L 41.770847 221.388454 
L 46.117351 224.435026 
L 50.315683 227.093125 
L 53.602545 229.010921 
L 58.203133 231.490167 
L 63.671714 234.171113 
L 68.604803 236.377942 
L 73.939484 238.569788 
L 80.707098 241.098263 
L 80.707098 241.098263 
" clip-path="url(#pbc54828a8f)" style="fill: none; stroke: #000000; stroke-width: 2; stroke-linecap: square"/>
   </g>
   <g id="patch_3">
    <path d="M 181.156192 42.769801 
Q 180.129213 43.070957 181.247947 42.742895 
" clip-path="url(#pbc54828a8f)" style="fill: none; stroke: #000000; stroke-width: 2; stroke-linecap: round"/>
    <path d="M 192.250842 44.726908 
L 181.247947 42.742895 
L 189.436895 35.130987 
z
" clip-path="url(#pbc54828a8f)" style="stroke: #000000; stroke-width: 2; stroke-linecap: round"/>
   </g>
   <g id="patch_4">
    <path d="M 376.129991 44.692446 
Q 336.683573 28.239343 299.300901 12.647029 
" clip-path="url(#pbc54828a8f)" style="fill: none; stroke: #0000ff; stroke-width: 2; stroke-linecap: round"/>
    <path d="M 306.605468 21.111265 
L 299.300901 12.647029 
L 310.45503 11.881916 
z
" clip-path="url(#pbc54828a8f)" style="fill: #0000ff; stroke: #0000ff; stroke-width: 2; stroke-linecap: round"/>
   </g>
   <g id="patch_5">
    <path d="M 342.327419 34.018407 
Q 297.472157 23.851998 254.797652 14.179856 
" clip-path="url(#pbc54828a8f)" style="fill: none; stroke: #0000ff; stroke-width: 2; stroke-linecap: round"/>
    <path d="M 263.445079 21.266605 
L 254.797652 14.179856 
L 265.655507 11.513964 
z
" clip-path="url(#pbc54828a8f)" style="fill: #0000ff; stroke: #0000ff; stroke-width: 2; stroke-linecap: round"/>
   </g>
   <g id="text_1">
    <!-- $P_0$ -->
    <g transform="translate(374.995239 69.141694) scale(0.2 -0.2)">
     <defs>
      <path id="Cmmi10-50" d="M 313 0 
Q 250 0 250 84 
Q 253 100 262 139 
Q 272 178 289 201 
Q 306 225 331 225 
Q 722 225 878 269 
Q 959 297 997 441 
L 1875 3956 
Q 1888 4019 1888 4044 
Q 1888 4113 1813 4122 
Q 1691 4147 1350 4147 
Q 1288 4147 1288 4231 
Q 1291 4247 1300 4286 
Q 1309 4325 1326 4348 
Q 1344 4372 1369 4372 
L 3578 4372 
Q 3881 4372 4165 4264 
Q 4450 4156 4631 3934 
Q 4813 3713 4813 3397 
Q 4813 2991 4527 2672 
Q 4241 2353 3814 2175 
Q 3388 1997 2988 1997 
L 1947 1997 
L 1556 416 
Q 1544 353 1544 325 
Q 1544 300 1551 283 
Q 1559 266 1573 261 
Q 1588 256 1619 250 
Q 1741 225 2081 225 
Q 2144 225 2144 141 
Q 2122 50 2109 25 
Q 2097 0 2034 0 
L 313 0 
z
M 1978 2188 
L 2875 2188 
Q 3497 2188 3822 2522 
Q 3988 2688 4092 3000 
Q 4197 3313 4197 3566 
Q 4197 3881 3956 4014 
Q 3716 4147 3359 4147 
L 2747 4147 
Q 2572 4147 2515 4117 
Q 2459 4088 2413 3928 
L 1978 2188 
z
" transform="scale(0.015625)"/>
      <path id="Cmr10-30" d="M 1600 -141 
Q 816 -141 533 504 
Q 250 1150 250 2041 
Q 250 2597 351 3087 
Q 453 3578 754 3920 
Q 1056 4263 1600 4263 
Q 2022 4263 2290 4056 
Q 2559 3850 2700 3523 
Q 2841 3197 2892 2823 
Q 2944 2450 2944 2041 
Q 2944 1491 2842 1011 
Q 2741 531 2444 195 
Q 2147 -141 1600 -141 
z
M 1600 25 
Q 1956 25 2131 390 
Q 2306 756 2347 1200 
Q 2388 1644 2388 2144 
Q 2388 2625 2347 3031 
Q 2306 3438 2132 3767 
Q 1959 4097 1600 4097 
Q 1238 4097 1063 3765 
Q 888 3434 847 3029 
Q 806 2625 806 2144 
Q 806 1788 823 1472 
Q 841 1156 916 820 
Q 991 484 1158 254 
Q 1325 25 1600 25 
z
" transform="scale(0.015625)"/>
     </defs>
     <use xlink:href="#Cmmi10-50" transform="translate(0 0.6875)"/>
     <use xlink:href="#Cmr10-30" transform="translate(64.208984 -16.31875) scale(0.7)"/>
    </g>
   </g>
   <g id="text_2">
    <!-- $P_1$ -->
    <g transform="translate(322.26217 58.467655) scale(0.2 -0.2)">
     <defs>
      <path id="Cmr10-31" d="M 594 0 
L 594 225 
Q 1394 225 1394 428 
L 1394 3788 
Q 1063 3628 556 3628 
L 556 3853 
Q 1341 3853 1741 4263 
L 1831 4263 
Q 1853 4263 1873 4245 
Q 1894 4228 1894 4206 
L 1894 428 
Q 1894 225 2694 225 
L 2694 0 
L 594 0 
z
" transform="scale(0.015625)"/>
     </defs>
     <use xlink:href="#Cmmi10-50" transform="translate(0 0.6875)"/>
     <use xlink:href="#Cmr10-31" transform="translate(64.208984 -16.31875) scale(0.7)"/>
    </g>
   </g>
  </g>
 </g>
 <defs>
  <clipPath id="pbc54828a8f">
   <rect x="7.2" y="7.2" width="439.2" height="238.484503"/>
  </clipPath>
 </defs>
</svg>
