<?xml version="1.0" encoding="utf-8" standalone="no"?>
<!DOCTYPE svg PUBLIC "-//W3C//DTD SVG 1.1//EN"
  "http://www.w3.org/Graphics/SVG/1.1/DTD/svg11.dtd">
<svg xmlns:xlink="http://www.w3.org/1999/xlink" width="453.6pt" height="267.38615pt" viewBox="0 0 453.6 267.38615" xmlns="http://www.w3.org/2000/svg" version="1.1">
 <metadata>
  <rdf:RDF xmlns:dc="http://purl.org/dc/elements/1.1/" xmlns:cc="http://creativecommons.org/ns#" xmlns:rdf="http://www.w3.org/1999/02/22-rdf-syntax-ns#">
   <cc:Work>
    <dc:type rdf:resource="http://purl.org/dc/dcmitype/StillImage"/>
    <dc:date>2025-07-25T20:20:54.216601</dc:date>
    <dc:format>image/svg+xml</dc:format>
    <dc:creator>
     <cc:Agent>
      <dc:title>Matplotlib v3.10.3, https://matplotlib.org/</dc:title>
     </cc:Agent>
    </dc:creator>
   </cc:Work>
  </rdf:RDF>
 </metadata>
 <defs>
  <style type="text/css">*{stroke-linejoin: round; stroke-linecap: butt}</style>
 </defs>
 <g id="figure_1">
  <g id="patch_1">
   <path d="M 0 267.38615 
L 453.6 267.38615 
L 453.6 0 
L 0 0 
z
" style="fill: #ffffff"/>
  </g>
  <g id="axes_1">
   <g id="patch_2">
    <path d="M 7.2 260.18615 
L 446.4 260.18615 
L 446.4 7.2 
L 7.2 7.2 
z
" style="fill: #ffffff"/>
   </g>
   <g id="PathCollection_1">
    <path d="M 149.972631 105.127051 
C 150.811276 105.127051 151.615686 104.793854 152.208699 104.200842 
C 152.801711 103.607829 153.134908 102.803419 153.134908 101.964774 
C 153.134908 101.126128 152.801711 100.321718 152.208699 99.728706 
C 151.615686 99.135693 150.811276 98.802496 149.972631 98.802496 
C 149.133985 98.802496 148.329575 99.135693 147.736563 99.728706 
C 147.14355 100.321718 146.810353 101.126128 146.810353 101.964774 
C 146.810353 102.803419 147.14355 103.607829 147.736563 104.200842 
C 148.329575 104.793854 149.133985 105.127051 149.972631 105.127051 
z
" clip-path="url(#p17669fd7a4)"/>
   </g>
   <g id="PathCollection_2">
    <path d="M 437.953846 258.483309 
C 438.792492 258.483309 439.596902 258.150111 440.189914 257.557099 
C 440.782926 256.964087 441.116124 256.159677 441.116124 255.321031 
C 441.116124 254.482386 440.782926 253.677976 440.189914 253.084963 
C 439.596902 252.491951 438.792492 252.158754 437.953846 252.158754 
C 437.1152 252.158754 436.31079 252.491951 435.717778 253.084963 
C 435.124766 253.677976 434.791568 254.482386 434.791568 255.321031 
C 434.791568 256.159677 435.124766 256.964087 435.717778 257.557099 
C 436.31079 258.150111 437.1152 258.483309 437.953846 258.483309 
z
" clip-path="url(#p17669fd7a4)"/>
   </g>
   <g id="PathCollection_3">
    <path d="M 285.9189 15.227396 
C 286.757546 15.227396 287.561956 14.894198 288.154968 14.301186 
C 288.747981 13.708174 289.081178 12.903764 289.081178 12.065118 
C 289.081178 11.226472 288.747981 10.422062 288.154968 9.82905 
C 287.561956 9.236038 286.757546 8.902841 285.9189 8.902841 
C 285.080255 8.902841 284.275845 9.236038 283.682832 9.82905 
C 283.08982 10.422062 282.756623 11.226472 282.756623 12.065118 
C 282.756623 12.903764 283.08982 13.708174 283.682832 14.301186 
C 284.275845 14.894198 285.080255 15.227396 285.9189 15.227396 
z
" clip-path="url(#p17669fd7a4)"/>
   </g>
   <g id="matplotlib.axis_1"/>
   <g id="matplotlib.axis_2"/>
   <g id="line2d_1">
    <path d="M 437.953846 255.321031 
L 418.181223 240.552392 
L 403.424506 229.872977 
L 385.51602 217.316718 
L 370.774625 207.322006 
L 359.749852 200.053395 
L 340.886123 188.036764 
L 326.061983 178.976074 
L 313.203489 171.39793 
L 296.226534 161.80516 
L 282.255212 154.274425 
L 268.167551 147.025364 
L 253.972391 140.083302 
L 237.500177 132.502159 
L 225.583371 127.348621 
L 210.788858 121.354995 
L 204.86387 119.084906 
L 194.748045 115.387761 
L 180.910553 110.709516 
L 170.188842 107.400536 
L 159.841482 104.48259 
L 150.754407 102.15446 
L 144.283116 100.636381 
L 133.051487 98.292438 
L 125.363013 96.912328 
L 115.508545 95.428342 
L 109.110609 94.647011 
L 101.478726 93.915534 
L 94.378984 93.444315 
L 85.973617 93.169093 
L 79.741291 93.180494 
L 73.596243 93.388727 
L 65.374091 94.007555 
L 57.625301 94.998202 
L 52.858139 95.835322 
L 46.538066 97.259983 
L 42.5558 98.373605 
L 37.381513 100.124596 
L 33.632905 101.656887 
L 30.486585 103.159853 
L 27.951678 104.552623 
L 24.94541 106.481603 
L 22.955302 107.983355 
L 20.53271 110.174675 
L 19.01379 111.870675 
L 17.59536 113.867502 
L 16.637805 115.686479 
L 16.216234 116.772033 
L 15.790846 118.426821 
L 15.654246 119.561084 
L 15.697676 121.271404 
L 15.78674 121.866925 
L 16.319374 123.697168 
L 17.235772 125.447225 
L 18.173752 126.695021 
L 19.660088 128.176223 
L 20.876022 129.127751 
L 22.585074 130.21581 
L 25.296789 131.543789 
L 28.559604 132.709508 
L 31.862802 133.555299 
L 35.210367 134.156199 
L 39.393715 134.623542 
L 43.52568 134.83485 
L 47.076405 134.850118 
L 52.315433 134.633294 
L 56.725787 134.258097 
L 62.948837 133.468517 
L 69.393003 132.368561 
L 77.011459 130.742741 
L 82.411457 129.398556 
L 90.620015 127.079792 
L 97.855447 124.783243 
L 106.022001 121.930444 
L 115.263141 118.394435 
L 123.408584 115.026009 
L 131.463787 111.477845 
L 137.859195 108.515077 
L 147.601353 103.76664 
L 153.586857 100.714489 
L 163.723672 95.322508 
L 172.850942 90.237786 
L 183.322629 84.148333 
L 195.229978 76.906913 
L 205.288133 70.538505 
L 218.661983 61.729388 
L 229.735253 54.152376 
L 243.069495 44.701413 
L 256.645237 34.726176 
L 266.88753 26.972661 
L 281.919607 15.250701 
L 285.9189 12.065118 
L 285.9189 12.065118 
" clip-path="url(#p17669fd7a4)" style="fill: none; stroke: #1e88e5; stroke-width: 2; stroke-linecap: square"/>
   </g>
   <g id="patch_3">
    <path d="M 222.571006 126.091328 
Q 221.980604 125.847451 223.456895 126.45726 
" clip-path="url(#p17669fd7a4)" style="fill: none; stroke: #1e88e5; stroke-width: 2; stroke-linecap: round"/>
    <path d="M 230.79053 134.896323 
L 223.456895 126.45726 
L 234.608327 125.65379 
z
" clip-path="url(#p17669fd7a4)" style="fill: #1e88e5; stroke: #1e88e5; stroke-width: 2; stroke-linecap: round"/>
   </g>
   <g id="patch_4">
    <path d="M 53.643289 95.684338 
Q 53.390742 95.732594 55.334528 95.361182 
" clip-path="url(#p17669fd7a4)" style="fill: none; stroke: #1e88e5; stroke-width: 2; stroke-linecap: round"/>
    <path d="M 66.095235 98.395517 
L 55.334528 95.361182 
L 64.21842 88.573217 
z
" clip-path="url(#p17669fd7a4)" style="fill: #1e88e5; stroke: #1e88e5; stroke-width: 2; stroke-linecap: round"/>
   </g>
   <g id="patch_5">
    <path d="M 210.914994 66.878784 
Q 211.490193 66.500475 210.197176 67.350894 
" clip-path="url(#p17669fd7a4)" style="fill: none; stroke: #1e88e5; stroke-width: 2; stroke-linecap: round"/>
    <path d="M 199.094745 68.668475 
L 210.197176 67.350894 
L 204.589783 77.023387 
z
" clip-path="url(#p17669fd7a4)" style="fill: #1e88e5; stroke: #1e88e5; stroke-width: 2; stroke-linecap: round"/>
   </g>
   <g id="text_1">
    <g clip-path="url(#p17669fd7a4)">
     <!-- $C_1$ -->
     <g style="fill: #1e88e5" transform="translate(220.562031 166.24026) scale(0.2 -0.2)">
      <defs>
       <path id="Cmmi10-43" d="M 934 1381 
Q 934 997 1082 705 
Q 1231 413 1514 248 
Q 1797 84 2181 84 
Q 2584 84 2957 290 
Q 3331 497 3595 842 
Q 3859 1188 3956 1575 
Q 3969 1613 4006 1613 
L 4084 1613 
Q 4109 1613 4125 1595 
Q 4141 1578 4141 1556 
Q 4141 1550 4134 1538 
Q 4025 1094 3711 705 
Q 3397 316 2959 87 
Q 2522 -141 2059 -141 
Q 1559 -141 1162 84 
Q 766 309 545 709 
Q 325 1109 325 1613 
Q 325 2150 565 2676 
Q 806 3203 1212 3614 
Q 1619 4025 2139 4269 
Q 2659 4513 3194 4513 
Q 3406 4513 3600 4448 
Q 3794 4384 3959 4253 
Q 4125 4122 4231 3950 
L 4738 4500 
Q 4738 4513 4769 4513 
L 4806 4513 
Q 4831 4513 4847 4491 
Q 4863 4469 4863 4447 
L 4428 2719 
Q 4428 2675 4378 2675 
L 4263 2675 
Q 4213 2675 4213 2747 
Q 4238 2888 4238 3084 
Q 4238 3397 4131 3673 
Q 4025 3950 3801 4119 
Q 3578 4288 3256 4288 
Q 2734 4288 2300 4025 
Q 1866 3763 1564 3336 
Q 1263 2909 1098 2389 
Q 934 1869 934 1381 
z
" transform="scale(0.015625)"/>
       <path id="Cmr10-31" d="M 594 0 
L 594 225 
Q 1394 225 1394 428 
L 1394 3788 
Q 1063 3628 556 3628 
L 556 3853 
Q 1341 3853 1741 4263 
L 1831 4263 
Q 1853 4263 1873 4245 
Q 1894 4228 1894 4206 
L 1894 428 
Q 1894 225 2694 225 
L 2694 0 
L 594 0 
z
" transform="scale(0.015625)"/>
      </defs>
      <use xlink:href="#Cmmi10-43" transform="translate(0 0.484375)"/>
      <use xlink:href="#Cmr10-31" transform="translate(71.386719 -16.521875) scale(0.7)"/>
     </g>
    </g>
   </g>
   <g id="text_2">
    <g clip-path="url(#p17669fd7a4)">
     <!-- $C_2$ -->
     <g style="fill: #1e88e5" transform="translate(71.90564 115.561944) scale(0.2 -0.2)">
      <defs>
       <path id="Cmr10-32" d="M 319 0 
L 319 172 
Q 319 188 331 206 
L 1325 1306 
Q 1550 1550 1690 1715 
Q 1831 1881 1968 2097 
Q 2106 2313 2186 2536 
Q 2266 2759 2266 3009 
Q 2266 3272 2169 3511 
Q 2072 3750 1880 3894 
Q 1688 4038 1416 4038 
Q 1138 4038 916 3870 
Q 694 3703 603 3438 
Q 628 3444 672 3444 
Q 816 3444 917 3347 
Q 1019 3250 1019 3097 
Q 1019 2950 917 2848 
Q 816 2747 672 2747 
Q 522 2747 420 2851 
Q 319 2956 319 3097 
Q 319 3338 409 3548 
Q 500 3759 670 3923 
Q 841 4088 1055 4175 
Q 1269 4263 1509 4263 
Q 1875 4263 2190 4108 
Q 2506 3953 2690 3670 
Q 2875 3388 2875 3009 
Q 2875 2731 2753 2481 
Q 2631 2231 2440 2026 
Q 2250 1822 1953 1562 
Q 1656 1303 1563 1216 
L 838 519 
L 1453 519 
Q 1906 519 2211 526 
Q 2516 534 2534 550 
Q 2609 631 2688 1141 
L 2875 1141 
L 2694 0 
L 319 0 
z
" transform="scale(0.015625)"/>
      </defs>
      <use xlink:href="#Cmmi10-43" transform="translate(0 0.484375)"/>
      <use xlink:href="#Cmr10-32" transform="translate(71.386719 -16.521875) scale(0.7)"/>
     </g>
    </g>
   </g>
   <g id="text_3">
    <g clip-path="url(#p17669fd7a4)">
     <!-- $C_3$ -->
     <g style="fill: #1e88e5" transform="translate(193.533596 47.990857) scale(0.2 -0.2)">
      <defs>
       <path id="Cmr10-33" d="M 609 494 
Q 759 275 1012 169 
Q 1266 63 1556 63 
Q 1928 63 2084 380 
Q 2241 697 2241 1100 
Q 2241 1281 2208 1462 
Q 2175 1644 2097 1800 
Q 2019 1956 1883 2050 
Q 1747 2144 1550 2144 
L 1125 2144 
Q 1069 2144 1069 2203 
L 1069 2259 
Q 1069 2309 1125 2309 
L 1478 2338 
Q 1703 2338 1851 2506 
Q 2000 2675 2069 2917 
Q 2138 3159 2138 3378 
Q 2138 3684 1994 3881 
Q 1850 4078 1556 4078 
Q 1313 4078 1091 3986 
Q 869 3894 738 3706 
Q 750 3709 759 3711 
Q 769 3713 781 3713 
Q 925 3713 1022 3613 
Q 1119 3513 1119 3372 
Q 1119 3234 1022 3134 
Q 925 3034 781 3034 
Q 641 3034 541 3134 
Q 441 3234 441 3372 
Q 441 3647 606 3850 
Q 772 4053 1033 4158 
Q 1294 4263 1556 4263 
Q 1750 4263 1965 4205 
Q 2181 4147 2356 4039 
Q 2531 3931 2642 3762 
Q 2753 3594 2753 3378 
Q 2753 3109 2633 2881 
Q 2513 2653 2303 2487 
Q 2094 2322 1844 2241 
Q 2122 2188 2372 2031 
Q 2622 1875 2773 1631 
Q 2925 1388 2925 1106 
Q 2925 753 2731 467 
Q 2538 181 2222 20 
Q 1906 -141 1556 -141 
Q 1256 -141 954 -26 
Q 653 88 461 316 
Q 269 544 269 863 
Q 269 1022 375 1128 
Q 481 1234 641 1234 
Q 744 1234 830 1186 
Q 916 1138 964 1050 
Q 1013 963 1013 863 
Q 1013 706 903 600 
Q 794 494 641 494 
L 609 494 
z
" transform="scale(0.015625)"/>
      </defs>
      <use xlink:href="#Cmmi10-43" transform="translate(0 0.484375)"/>
      <use xlink:href="#Cmr10-33" transform="translate(71.386719 -16.521875) scale(0.7)"/>
     </g>
    </g>
   </g>
  </g>
 </g>
 <defs>
  <clipPath id="p17669fd7a4">
   <rect x="7.2" y="7.2" width="439.2" height="252.98615"/>
  </clipPath>
 </defs>
</svg>
