<?xml version="1.0" encoding="utf-8" standalone="no"?>
<!DOCTYPE svg PUBLIC "-//W3C//DTD SVG 1.1//EN"
  "http://www.w3.org/Graphics/SVG/1.1/DTD/svg11.dtd">
<svg xmlns:xlink="http://www.w3.org/1999/xlink" width="340.149524pt" height="336.989337pt" viewBox="0 0 340.149524 336.989337" xmlns="http://www.w3.org/2000/svg" version="1.1">
 <metadata>
  <rdf:RDF xmlns:dc="http://purl.org/dc/elements/1.1/" xmlns:cc="http://creativecommons.org/ns#" xmlns:rdf="http://www.w3.org/1999/02/22-rdf-syntax-ns#">
   <cc:Work>
    <dc:type rdf:resource="http://purl.org/dc/dcmitype/StillImage"/>
    <dc:date>2025-04-09T13:39:08.885297</dc:date>
    <dc:format>image/svg+xml</dc:format>
    <dc:creator>
     <cc:Agent>
      <dc:title>Matplotlib v3.8.0, https://matplotlib.org/</dc:title>
     </cc:Agent>
    </dc:creator>
   </cc:Work>
  </rdf:RDF>
 </metadata>
 <defs>
  <style type="text/css">*{stroke-linejoin: round; stroke-linecap: butt}</style>
 </defs>
 <g id="figure_1">
  <g id="patch_1">
   <path d="M 0 336.989337 
L 340.149524 336.989337 
L 340.149524 0 
L 0 0 
z
" style="fill: #ffffff"/>
  </g>
  <g id="axes_1">
   <g id="patch_2">
    <path d="M 13.450115 329.788987 
L 319.809524 329.788987 
L 319.809524 23.4425 
L 13.450115 23.4425 
z
" style="fill: #ffffff"/>
   </g>
   <g id="matplotlib.axis_1">
    <g id="xtick_1">
     <g id="line2d_1">
      <defs>
       <path id="m5b4032c805" d="M 0 0 
L 0 3.5 
" style="stroke: #000000; stroke-width: 0.8"/>
      </defs>
      <g>
       <use xlink:href="#m5b4032c805" x="19.341406" y="176.622105" style="stroke: #000000; stroke-width: 0.8"/>
      </g>
     </g>
     <g id="text_1">
      <!-- −1.0 -->
      <g transform="translate(7.2 191.220542) scale(0.1 -0.1)">
       <defs>
        <path id="DejaVuSans-2212" d="M 678 2272 
L 4684 2272 
L 4684 1741 
L 678 1741 
L 678 2272 
z
" transform="scale(0.015625)"/>
        <path id="DejaVuSans-31" d="M 794 531 
L 1825 531 
L 1825 4091 
L 703 3866 
L 703 4441 
L 1819 4666 
L 2450 4666 
L 2450 531 
L 3481 531 
L 3481 0 
L 794 0 
L 794 531 
z
" transform="scale(0.015625)"/>
        <path id="DejaVuSans-2e" d="M 684 794 
L 1344 794 
L 1344 0 
L 684 0 
L 684 794 
z
" transform="scale(0.015625)"/>
        <path id="DejaVuSans-30" d="M 2034 4250 
Q 1547 4250 1301 3770 
Q 1056 3291 1056 2328 
Q 1056 1369 1301 889 
Q 1547 409 2034 409 
Q 2525 409 2770 889 
Q 3016 1369 3016 2328 
Q 3016 3291 2770 3770 
Q 2525 4250 2034 4250 
z
M 2034 4750 
Q 2819 4750 3233 4129 
Q 3647 3509 3647 2328 
Q 3647 1150 3233 529 
Q 2819 -91 2034 -91 
Q 1250 -91 836 529 
Q 422 1150 422 2328 
Q 422 3509 836 4129 
Q 1250 4750 2034 4750 
z
" transform="scale(0.015625)"/>
       </defs>
       <use xlink:href="#DejaVuSans-2212"/>
       <use xlink:href="#DejaVuSans-31" x="83.789062"/>
       <use xlink:href="#DejaVuSans-2e" x="147.412109"/>
       <use xlink:href="#DejaVuSans-30" x="179.199219"/>
      </g>
     </g>
    </g>
    <g id="xtick_2">
     <g id="line2d_2">
      <g>
       <use xlink:href="#m5b4032c805" x="92.985569" y="176.622105" style="stroke: #000000; stroke-width: 0.8"/>
      </g>
     </g>
     <g id="text_2">
      <!-- −0.5 -->
      <g transform="translate(80.844163 191.220542) scale(0.1 -0.1)">
       <defs>
        <path id="DejaVuSans-35" d="M 691 4666 
L 3169 4666 
L 3169 4134 
L 1269 4134 
L 1269 2991 
Q 1406 3038 1543 3061 
Q 1681 3084 1819 3084 
Q 2600 3084 3056 2656 
Q 3513 2228 3513 1497 
Q 3513 744 3044 326 
Q 2575 -91 1722 -91 
Q 1428 -91 1123 -41 
Q 819 9 494 109 
L 494 744 
Q 775 591 1075 516 
Q 1375 441 1709 441 
Q 2250 441 2565 725 
Q 2881 1009 2881 1497 
Q 2881 1984 2565 2268 
Q 2250 2553 1709 2553 
Q 1456 2553 1204 2497 
Q 953 2441 691 2322 
L 691 4666 
z
" transform="scale(0.015625)"/>
       </defs>
       <use xlink:href="#DejaVuSans-2212"/>
       <use xlink:href="#DejaVuSans-30" x="83.789062"/>
       <use xlink:href="#DejaVuSans-2e" x="147.412109"/>
       <use xlink:href="#DejaVuSans-35" x="179.199219"/>
      </g>
     </g>
    </g>
    <g id="xtick_3">
     <g id="line2d_3">
      <g>
       <use xlink:href="#m5b4032c805" x="166.629732" y="176.622105" style="stroke: #000000; stroke-width: 0.8"/>
      </g>
     </g>
    </g>
    <g id="xtick_4">
     <g id="line2d_4">
      <g>
       <use xlink:href="#m5b4032c805" x="240.273895" y="176.622105" style="stroke: #000000; stroke-width: 0.8"/>
      </g>
     </g>
     <g id="text_3">
      <!-- 0.5 -->
      <g transform="translate(232.322333 191.220542) scale(0.1 -0.1)">
       <use xlink:href="#DejaVuSans-30"/>
       <use xlink:href="#DejaVuSans-2e" x="63.623047"/>
       <use xlink:href="#DejaVuSans-35" x="95.410156"/>
      </g>
     </g>
    </g>
    <g id="xtick_5">
     <g id="line2d_5">
      <g>
       <use xlink:href="#m5b4032c805" x="313.918058" y="176.622105" style="stroke: #000000; stroke-width: 0.8"/>
      </g>
     </g>
     <g id="text_4">
      <!-- 1.0 -->
      <g transform="translate(305.966496 191.220542) scale(0.1 -0.1)">
       <use xlink:href="#DejaVuSans-31"/>
       <use xlink:href="#DejaVuSans-2e" x="63.623047"/>
       <use xlink:href="#DejaVuSans-30" x="95.410156"/>
      </g>
     </g>
    </g>
    <g id="xtick_6">
     <g id="line2d_6">
      <defs>
       <path id="m13afd75432" d="M 0 0 
L 0 2 
" style="stroke: #000000; stroke-width: 0.6"/>
      </defs>
      <g>
       <use xlink:href="#m13afd75432" x="34.070239" y="176.622105" style="stroke: #000000; stroke-width: 0.6"/>
      </g>
     </g>
    </g>
    <g id="xtick_7">
     <g id="line2d_7">
      <g>
       <use xlink:href="#m13afd75432" x="48.799071" y="176.622105" style="stroke: #000000; stroke-width: 0.6"/>
      </g>
     </g>
    </g>
    <g id="xtick_8">
     <g id="line2d_8">
      <g>
       <use xlink:href="#m13afd75432" x="63.527904" y="176.622105" style="stroke: #000000; stroke-width: 0.6"/>
      </g>
     </g>
    </g>
    <g id="xtick_9">
     <g id="line2d_9">
      <g>
       <use xlink:href="#m13afd75432" x="78.256737" y="176.622105" style="stroke: #000000; stroke-width: 0.6"/>
      </g>
     </g>
    </g>
    <g id="xtick_10">
     <g id="line2d_10">
      <g>
       <use xlink:href="#m13afd75432" x="107.714402" y="176.622105" style="stroke: #000000; stroke-width: 0.6"/>
      </g>
     </g>
    </g>
    <g id="xtick_11">
     <g id="line2d_11">
      <g>
       <use xlink:href="#m13afd75432" x="122.443234" y="176.622105" style="stroke: #000000; stroke-width: 0.6"/>
      </g>
     </g>
    </g>
    <g id="xtick_12">
     <g id="line2d_12">
      <g>
       <use xlink:href="#m13afd75432" x="137.172067" y="176.622105" style="stroke: #000000; stroke-width: 0.6"/>
      </g>
     </g>
    </g>
    <g id="xtick_13">
     <g id="line2d_13">
      <g>
       <use xlink:href="#m13afd75432" x="151.9009" y="176.622105" style="stroke: #000000; stroke-width: 0.6"/>
      </g>
     </g>
    </g>
    <g id="xtick_14">
     <g id="line2d_14">
      <g>
       <use xlink:href="#m13afd75432" x="181.358565" y="176.622105" style="stroke: #000000; stroke-width: 0.6"/>
      </g>
     </g>
    </g>
    <g id="xtick_15">
     <g id="line2d_15">
      <g>
       <use xlink:href="#m13afd75432" x="196.087398" y="176.622105" style="stroke: #000000; stroke-width: 0.6"/>
      </g>
     </g>
    </g>
    <g id="xtick_16">
     <g id="line2d_16">
      <g>
       <use xlink:href="#m13afd75432" x="210.81623" y="176.622105" style="stroke: #000000; stroke-width: 0.6"/>
      </g>
     </g>
    </g>
    <g id="xtick_17">
     <g id="line2d_17">
      <g>
       <use xlink:href="#m13afd75432" x="225.545063" y="176.622105" style="stroke: #000000; stroke-width: 0.6"/>
      </g>
     </g>
    </g>
    <g id="xtick_18">
     <g id="line2d_18">
      <g>
       <use xlink:href="#m13afd75432" x="255.002728" y="176.622105" style="stroke: #000000; stroke-width: 0.6"/>
      </g>
     </g>
    </g>
    <g id="xtick_19">
     <g id="line2d_19">
      <g>
       <use xlink:href="#m13afd75432" x="269.731561" y="176.622105" style="stroke: #000000; stroke-width: 0.6"/>
      </g>
     </g>
    </g>
    <g id="xtick_20">
     <g id="line2d_20">
      <g>
       <use xlink:href="#m13afd75432" x="284.460393" y="176.622105" style="stroke: #000000; stroke-width: 0.6"/>
      </g>
     </g>
    </g>
    <g id="xtick_21">
     <g id="line2d_21">
      <g>
       <use xlink:href="#m13afd75432" x="299.189226" y="176.622105" style="stroke: #000000; stroke-width: 0.6"/>
      </g>
     </g>
    </g>
    <g id="text_5">
     <!-- $x$ -->
     <g transform="translate(327.809524 176.622105) scale(0.16 -0.16)">
      <defs>
       <path id="Cmmi10-78" d="M 500 184 
Q 613 97 819 97 
Q 1019 97 1172 289 
Q 1325 481 1381 709 
L 1672 1844 
Q 1741 2153 1741 2266 
Q 1741 2425 1652 2544 
Q 1563 2663 1403 2663 
Q 1200 2663 1022 2536 
Q 844 2409 722 2214 
Q 600 2019 550 1819 
Q 538 1778 500 1778 
L 422 1778 
Q 372 1778 372 1838 
L 372 1856 
Q 434 2094 584 2320 
Q 734 2547 951 2687 
Q 1169 2828 1416 2828 
Q 1650 2828 1839 2703 
Q 2028 2578 2106 2363 
Q 2216 2559 2386 2693 
Q 2556 2828 2759 2828 
Q 2897 2828 3040 2779 
Q 3184 2731 3275 2631 
Q 3366 2531 3366 2381 
Q 3366 2219 3261 2101 
Q 3156 1984 2994 1984 
Q 2891 1984 2822 2050 
Q 2753 2116 2753 2216 
Q 2753 2350 2845 2451 
Q 2938 2553 3066 2572 
Q 2950 2663 2747 2663 
Q 2541 2663 2389 2472 
Q 2238 2281 2175 2047 
L 1894 916 
Q 1825 659 1825 494 
Q 1825 331 1917 214 
Q 2009 97 2163 97 
Q 2463 97 2698 361 
Q 2934 625 3009 941 
Q 3022 978 3059 978 
L 3138 978 
Q 3163 978 3178 961 
Q 3194 944 3194 922 
Q 3194 916 3188 903 
Q 3097 522 2806 225 
Q 2516 -72 2150 -72 
Q 1916 -72 1727 54 
Q 1538 181 1459 397 
Q 1359 209 1182 68 
Q 1006 -72 806 -72 
Q 669 -72 523 -23 
Q 378 25 287 125 
Q 197 225 197 378 
Q 197 528 301 651 
Q 406 775 563 775 
Q 669 775 741 711 
Q 813 647 813 544 
Q 813 409 723 309 
Q 634 209 500 184 
z
" transform="scale(0.015625)"/>
      </defs>
      <use xlink:href="#Cmmi10-78" transform="translate(0 0.8125)"/>
     </g>
    </g>
   </g>
   <g id="matplotlib.axis_2">
    <g id="ytick_1">
     <g id="line2d_22">
      <defs>
       <path id="m88f86105ee" d="M 0 0 
L -3.5 0 
" style="stroke: #000000; stroke-width: 0.8"/>
      </defs>
      <g>
       <use xlink:href="#m88f86105ee" x="166.629732" y="323.910431" style="stroke: #000000; stroke-width: 0.8"/>
      </g>
     </g>
     <g id="text_6">
      <!-- −1.0 -->
      <g transform="translate(135.34692 327.709649) scale(0.1 -0.1)">
       <use xlink:href="#DejaVuSans-2212"/>
       <use xlink:href="#DejaVuSans-31" x="83.789062"/>
       <use xlink:href="#DejaVuSans-2e" x="147.412109"/>
       <use xlink:href="#DejaVuSans-30" x="179.199219"/>
      </g>
     </g>
    </g>
    <g id="ytick_2">
     <g id="line2d_23">
      <g>
       <use xlink:href="#m88f86105ee" x="166.629732" y="250.266268" style="stroke: #000000; stroke-width: 0.8"/>
      </g>
     </g>
     <g id="text_7">
      <!-- −0.5 -->
      <g transform="translate(135.34692 254.065486) scale(0.1 -0.1)">
       <use xlink:href="#DejaVuSans-2212"/>
       <use xlink:href="#DejaVuSans-30" x="83.789062"/>
       <use xlink:href="#DejaVuSans-2e" x="147.412109"/>
       <use xlink:href="#DejaVuSans-35" x="179.199219"/>
      </g>
     </g>
    </g>
    <g id="ytick_3">
     <g id="line2d_24">
      <g>
       <use xlink:href="#m88f86105ee" x="166.629732" y="176.622105" style="stroke: #000000; stroke-width: 0.8"/>
      </g>
     </g>
    </g>
    <g id="ytick_4">
     <g id="line2d_25">
      <g>
       <use xlink:href="#m88f86105ee" x="166.629732" y="102.977942" style="stroke: #000000; stroke-width: 0.8"/>
      </g>
     </g>
     <g id="text_8">
      <!-- 0.5 -->
      <g transform="translate(143.726607 106.77716) scale(0.1 -0.1)">
       <use xlink:href="#DejaVuSans-30"/>
       <use xlink:href="#DejaVuSans-2e" x="63.623047"/>
       <use xlink:href="#DejaVuSans-35" x="95.410156"/>
      </g>
     </g>
    </g>
    <g id="ytick_5">
     <g id="line2d_26">
      <g>
       <use xlink:href="#m88f86105ee" x="166.629732" y="29.333779" style="stroke: #000000; stroke-width: 0.8"/>
      </g>
     </g>
     <g id="text_9">
      <!-- 1.0 -->
      <g transform="translate(143.726607 33.132997) scale(0.1 -0.1)">
       <use xlink:href="#DejaVuSans-31"/>
       <use xlink:href="#DejaVuSans-2e" x="63.623047"/>
       <use xlink:href="#DejaVuSans-30" x="95.410156"/>
      </g>
     </g>
    </g>
    <g id="ytick_6">
     <g id="line2d_27">
      <defs>
       <path id="m8a6a4d26d9" d="M 0 0 
L -2 0 
" style="stroke: #000000; stroke-width: 0.6"/>
      </defs>
      <g>
       <use xlink:href="#m8a6a4d26d9" x="166.629732" y="309.181598" style="stroke: #000000; stroke-width: 0.6"/>
      </g>
     </g>
    </g>
    <g id="ytick_7">
     <g id="line2d_28">
      <g>
       <use xlink:href="#m8a6a4d26d9" x="166.629732" y="294.452766" style="stroke: #000000; stroke-width: 0.6"/>
      </g>
     </g>
    </g>
    <g id="ytick_8">
     <g id="line2d_29">
      <g>
       <use xlink:href="#m8a6a4d26d9" x="166.629732" y="279.723933" style="stroke: #000000; stroke-width: 0.6"/>
      </g>
     </g>
    </g>
    <g id="ytick_9">
     <g id="line2d_30">
      <g>
       <use xlink:href="#m8a6a4d26d9" x="166.629732" y="264.9951" style="stroke: #000000; stroke-width: 0.6"/>
      </g>
     </g>
    </g>
    <g id="ytick_10">
     <g id="line2d_31">
      <g>
       <use xlink:href="#m8a6a4d26d9" x="166.629732" y="235.537435" style="stroke: #000000; stroke-width: 0.6"/>
      </g>
     </g>
    </g>
    <g id="ytick_11">
     <g id="line2d_32">
      <g>
       <use xlink:href="#m8a6a4d26d9" x="166.629732" y="220.808602" style="stroke: #000000; stroke-width: 0.6"/>
      </g>
     </g>
    </g>
    <g id="ytick_12">
     <g id="line2d_33">
      <g>
       <use xlink:href="#m8a6a4d26d9" x="166.629732" y="206.07977" style="stroke: #000000; stroke-width: 0.6"/>
      </g>
     </g>
    </g>
    <g id="ytick_13">
     <g id="line2d_34">
      <g>
       <use xlink:href="#m8a6a4d26d9" x="166.629732" y="191.350937" style="stroke: #000000; stroke-width: 0.6"/>
      </g>
     </g>
    </g>
    <g id="ytick_14">
     <g id="line2d_35">
      <g>
       <use xlink:href="#m8a6a4d26d9" x="166.629732" y="161.893272" style="stroke: #000000; stroke-width: 0.6"/>
      </g>
     </g>
    </g>
    <g id="ytick_15">
     <g id="line2d_36">
      <g>
       <use xlink:href="#m8a6a4d26d9" x="166.629732" y="147.164439" style="stroke: #000000; stroke-width: 0.6"/>
      </g>
     </g>
    </g>
    <g id="ytick_16">
     <g id="line2d_37">
      <g>
       <use xlink:href="#m8a6a4d26d9" x="166.629732" y="132.435607" style="stroke: #000000; stroke-width: 0.6"/>
      </g>
     </g>
    </g>
    <g id="ytick_17">
     <g id="line2d_38">
      <g>
       <use xlink:href="#m8a6a4d26d9" x="166.629732" y="117.706774" style="stroke: #000000; stroke-width: 0.6"/>
      </g>
     </g>
    </g>
    <g id="ytick_18">
     <g id="line2d_39">
      <g>
       <use xlink:href="#m8a6a4d26d9" x="166.629732" y="88.249109" style="stroke: #000000; stroke-width: 0.6"/>
      </g>
     </g>
    </g>
    <g id="ytick_19">
     <g id="line2d_40">
      <g>
       <use xlink:href="#m8a6a4d26d9" x="166.629732" y="73.520276" style="stroke: #000000; stroke-width: 0.6"/>
      </g>
     </g>
    </g>
    <g id="ytick_20">
     <g id="line2d_41">
      <g>
       <use xlink:href="#m8a6a4d26d9" x="166.629732" y="58.791444" style="stroke: #000000; stroke-width: 0.6"/>
      </g>
     </g>
    </g>
    <g id="ytick_21">
     <g id="line2d_42">
      <g>
       <use xlink:href="#m8a6a4d26d9" x="166.629732" y="44.062611" style="stroke: #000000; stroke-width: 0.6"/>
      </g>
     </g>
    </g>
    <g id="text_10">
     <!-- $y$ -->
     <g transform="translate(162.629732 12.0825) scale(0.16 -0.16)">
      <defs>
       <path id="Cmmi10-79" d="M 538 -916 
Q 672 -1147 1006 -1147 
Q 1309 -1147 1531 -934 
Q 1753 -722 1889 -420 
Q 2025 -119 2100 197 
Q 1816 -72 1484 -72 
Q 1231 -72 1053 15 
Q 875 103 776 276 
Q 678 450 678 697 
Q 678 906 734 1126 
Q 791 1347 892 1617 
Q 994 1888 1069 2088 
Q 1153 2322 1153 2472 
Q 1153 2663 1013 2663 
Q 759 2663 595 2402 
Q 431 2141 353 1819 
Q 341 1778 300 1778 
L 225 1778 
Q 172 1778 172 1838 
L 172 1856 
Q 275 2238 487 2533 
Q 700 2828 1025 2828 
Q 1253 2828 1411 2678 
Q 1569 2528 1569 2297 
Q 1569 2178 1516 2047 
Q 1488 1969 1388 1706 
Q 1288 1444 1234 1272 
Q 1181 1100 1147 934 
Q 1113 769 1113 603 
Q 1113 391 1203 244 
Q 1294 97 1491 97 
Q 1888 97 2203 581 
L 2688 2553 
Q 2709 2638 2787 2698 
Q 2866 2759 2956 2759 
Q 3034 2759 3092 2709 
Q 3150 2659 3150 2578 
Q 3150 2541 3144 2528 
L 2509 -19 
Q 2425 -347 2200 -647 
Q 1975 -947 1658 -1130 
Q 1341 -1313 997 -1313 
Q 831 -1313 668 -1248 
Q 506 -1184 406 -1056 
Q 306 -928 306 -756 
Q 306 -581 409 -453 
Q 513 -325 684 -325 
Q 788 -325 858 -389 
Q 928 -453 928 -556 
Q 928 -703 818 -812 
Q 709 -922 563 -922 
Q 556 -919 550 -917 
Q 544 -916 538 -916 
z
" transform="scale(0.015625)"/>
      </defs>
      <use xlink:href="#Cmmi10-79" transform="translate(0 0.8125)"/>
     </g>
    </g>
   </g>
   <g id="line2d_43">
    <path d="M 166.629732 29.333779 
L 183.022076 29.562714 
L 191.360547 29.857482 
L 206.779658 30.734927 
L 218.365758 31.699105 
L 231.763942 33.18016 
L 237.923225 34.009059 
L 251.423769 36.208338 
L 259.339274 37.785883 
L 264.829793 39.031299 
L 272.488384 41.01672 
L 277.494485 42.502467 
L 285.126732 45.133959 
L 287.907085 46.229921 
L 292.00067 48.014378 
L 297.231463 50.678529 
L 300.657936 52.747875 
L 302.3836 53.924112 
L 304.872621 55.834765 
L 307.067868 57.809597 
L 308.535842 59.351568 
L 309.717574 60.782082 
L 310.754858 62.241832 
L 311.80708 64.030877 
L 312.648438 65.860809 
L 313.245127 67.614735 
L 313.654263 69.403524 
L 313.879275 71.285356 
L 313.906836 73.118353 
L 313.75096 74.983581 
L 313.32473 77.252612 
L 312.637907 79.565778 
L 311.817252 81.640799 
L 310.699458 83.930552 
L 309.347246 86.258014 
L 306.933842 89.752209 
L 303.773965 93.609316 
L 299.675719 97.922928 
L 295.057607 102.215774 
L 289.204182 107.104535 
L 284.981244 110.363292 
L 277.065688 116.042982 
L 269.657606 120.986355 
L 261.273621 126.265678 
L 257.330605 128.657042 
L 243.235186 136.840905 
L 233.542958 142.213376 
L 218.568547 150.225315 
L 203.111422 158.23748 
L 176.020789 171.924186 
L 138.029575 190.990719 
L 116.476763 202.081834 
L 104.251993 208.571705 
L 93.102712 214.677814 
L 81.902841 221.055714 
L 71.971855 226.98711 
L 63.832289 232.108702 
L 55.938532 237.377247 
L 48.028384 243.068634 
L 42.159673 247.669165 
L 37.137452 251.977165 
L 33.781925 255.126585 
L 31.03374 257.933456 
L 28.564672 260.698477 
L 26.961193 262.664437 
L 25.403023 264.753631 
L 24.019597 266.815561 
L 22.908371 268.677702 
L 21.240396 272.072337 
L 20.161541 275.130231 
L 19.524523 278.141623 
L 19.376241 279.631967 
L 19.34511 281.139322 
L 19.481854 283.019958 
L 19.815498 284.864998 
L 20.537467 287.195401 
L 21.426481 289.163669 
L 22.558792 291.084789 
L 24.488644 293.623819 
L 26.562783 295.792815 
L 28.977089 297.889444 
L 32.109689 300.171593 
L 33.888057 301.310468 
L 37.153997 303.18321 
L 42.150313 305.637904 
L 47.47454 307.858341 
L 51.387464 309.293781 
L 59.284692 311.803471 
L 67.557837 314.002351 
L 72.354613 315.116802 
L 83.153288 317.276138 
L 90.212218 318.466108 
L 101.46908 320.060701 
L 106.939863 320.716543 
L 120.958886 322.084192 
L 133.400704 322.958034 
L 140.918639 323.343975 
L 155.435812 323.803896 
L 170.501067 323.897709 
L 187.552302 323.536552 
L 204.285924 322.681557 
L 215.502137 321.809276 
L 224.269616 320.943846 
L 231.174527 320.138213 
L 238.307695 319.180035 
L 244.665409 318.207208 
L 254.732089 316.405431 
L 258.542983 315.628088 
L 265.140729 314.138239 
L 274.539107 311.63883 
L 279.727654 310.022105 
L 284.594829 308.310598 
L 291.177825 305.606882 
L 296.095482 303.188567 
L 298.635415 301.755199 
L 301.288855 300.078311 
L 304.10818 298.02763 
L 306.582515 295.900773 
L 307.996049 294.48537 
L 309.771297 292.391906 
L 311.000648 290.618274 
L 312.01616 288.802426 
L 312.922102 286.650306 
L 313.538153 284.443672 
L 313.753607 283.202382 
L 313.917997 280.723278 
L 313.740699 278.18379 
L 313.436707 276.475521 
L 312.869369 274.37104 
L 312.084918 272.230274 
L 310.956251 269.802601 
L 308.926097 266.326628 
L 307.482171 264.232436 
L 305.859635 262.110467 
L 303.308787 259.113003 
L 300.422427 256.064908 
L 297.674664 253.402109 
L 294.369813 250.426469 
L 288.956485 245.943118 
L 280.860077 239.863639 
L 277.16131 237.26712 
L 272.035934 233.812488 
L 261.461508 227.093812 
L 250.827989 220.748002 
L 243.641534 216.632517 
L 230.431898 209.340664 
L 218.957481 203.223429 
L 199.26525 193.04222 
L 165.914493 176.264484 
L 131.824117 159.094751 
L 112.943184 149.304887 
L 99.409155 142.045568 
L 87.340478 135.320421 
L 75.594116 128.456017 
L 68.014901 123.80118 
L 60.27233 118.801834 
L 54.140458 114.614743 
L 46.965325 109.370088 
L 44.089839 107.132001 
L 37.851738 101.906069 
L 34.07356 98.402188 
L 30.76288 95.02016 
L 28.551279 92.529942 
L 26.570611 90.074888 
L 24.993283 87.903642 
L 23.296357 85.242742 
L 21.898231 82.629471 
L 21.028226 80.653279 
L 20.170894 78.146884 
L 19.614184 75.691027 
L 19.405664 74.023103 
L 19.341642 72.380356 
L 19.471355 70.309049 
L 19.781577 68.525457 
L 20.274981 66.775578 
L 21.008825 64.933032 
L 21.952507 63.130725 
L 23.18523 61.258302 
L 24.651874 59.432916 
L 26.199606 57.801747 
L 27.962996 56.1914 
L 29.921209 54.623357 
L 32.622342 52.734305 
L 35.245911 51.124149 
L 40.227679 48.501392 
L 45.218951 46.2847 
L 48.106455 45.143931 
L 51.79749 43.808176 
L 57.448746 41.98403 
L 66.218 39.572775 
L 74.50402 37.66116 
L 84.584467 35.713792 
L 90.759954 34.692254 
L 97.102298 33.761089 
L 109.94096 32.198207 
L 123.76481 30.93635 
L 137.836489 30.045949 
L 154.62197 29.456401 
L 166.629732 29.333779 
L 166.629732 29.333779 
" clip-path="url(#p8d94989df1)" style="fill: none; stroke: #0000ff; stroke-width: 1.5; stroke-linecap: square"/>
   </g>
   <g id="patch_3">
    <path d="M 294.185164 49.066673 
Q 290.190467 47.306041 288.241917 46.447233 
" clip-path="url(#p8d94989df1)" style="fill: none; stroke: #0000ff; stroke-width: 2; stroke-linecap: round"/>
    <path d="M 295.376024 55.05563 
L 288.241917 46.447233 
L 299.409099 45.904985 
z
" clip-path="url(#p8d94989df1)" style="fill: #0000ff; stroke: #0000ff; stroke-width: 2; stroke-linecap: round"/>
   </g>
   <g id="patch_4">
    <path d="M 166.629732 329.788987 
L 166.629732 23.4425 
" style="fill: none; stroke: #000000; stroke-width: 0.8; stroke-linejoin: miter; stroke-linecap: square"/>
   </g>
   <g id="patch_5">
    <path d="M 13.450115 176.622105 
L 319.809524 176.622105 
" style="fill: none; stroke: #000000; stroke-width: 0.8; stroke-linejoin: miter; stroke-linecap: square"/>
   </g>
  </g>
 </g>
 <defs>
  <clipPath id="p8d94989df1">
   <rect x="13.450115" y="23.4425" width="306.359409" height="306.346487"/>
  </clipPath>
 </defs>
</svg>
