<?xml version="1.0" encoding="utf-8" standalone="no"?>
<!DOCTYPE svg PUBLIC "-//W3C//DTD SVG 1.1//EN"
  "http://www.w3.org/Graphics/SVG/1.1/DTD/svg11.dtd">
<svg xmlns:xlink="http://www.w3.org/1999/xlink" width="340.147811pt" height="336.995308pt" viewBox="0 0 340.147811 336.995308" xmlns="http://www.w3.org/2000/svg" version="1.1">
 <metadata>
  <rdf:RDF xmlns:dc="http://purl.org/dc/elements/1.1/" xmlns:cc="http://creativecommons.org/ns#" xmlns:rdf="http://www.w3.org/1999/02/22-rdf-syntax-ns#">
   <cc:Work>
    <dc:type rdf:resource="http://purl.org/dc/dcmitype/StillImage"/>
    <dc:date>2025-06-11T11:20:43.097376</dc:date>
    <dc:format>image/svg+xml</dc:format>
    <dc:creator>
     <cc:Agent>
      <dc:title>Matplotlib v3.8.0, https://matplotlib.org/</dc:title>
     </cc:Agent>
    </dc:creator>
   </cc:Work>
  </rdf:RDF>
 </metadata>
 <defs>
  <style type="text/css">*{stroke-linejoin: round; stroke-linecap: butt}</style>
 </defs>
 <g id="figure_1">
  <g id="patch_1">
   <path d="M 0 336.995308 
L 340.147811 336.995308 
L 340.147811 0 
L 0 0 
z
" style="fill: #ffffff"/>
  </g>
  <g id="axes_1">
   <g id="patch_2">
    <path d="M 13.450872 329.795308 
L 319.807811 329.795308 
L 319.807811 23.4425 
L 13.450872 23.4425 
z
" style="fill: #ffffff"/>
   </g>
   <g id="matplotlib.axis_1">
    <g id="xtick_1">
     <g id="line2d_1">
      <defs>
       <path id="m32e2ffeb25" d="M 0 0 
L 0 3.5 
" style="stroke: #000000; stroke-width: 0.8"/>
      </defs>
      <g>
       <use xlink:href="#m32e2ffeb25" x="19.341406" y="176.621627" style="stroke: #000000; stroke-width: 0.8"/>
      </g>
     </g>
     <g id="text_1">
      <!-- −1.0 -->
      <g transform="translate(7.2 191.220064) scale(0.1 -0.1)">
       <defs>
        <path id="DejaVuSans-2212" d="M 678 2272 
L 4684 2272 
L 4684 1741 
L 678 1741 
L 678 2272 
z
" transform="scale(0.015625)"/>
        <path id="DejaVuSans-31" d="M 794 531 
L 1825 531 
L 1825 4091 
L 703 3866 
L 703 4441 
L 1819 4666 
L 2450 4666 
L 2450 531 
L 3481 531 
L 3481 0 
L 794 0 
L 794 531 
z
" transform="scale(0.015625)"/>
        <path id="DejaVuSans-2e" d="M 684 794 
L 1344 794 
L 1344 0 
L 684 0 
L 684 794 
z
" transform="scale(0.015625)"/>
        <path id="DejaVuSans-30" d="M 2034 4250 
Q 1547 4250 1301 3770 
Q 1056 3291 1056 2328 
Q 1056 1369 1301 889 
Q 1547 409 2034 409 
Q 2525 409 2770 889 
Q 3016 1369 3016 2328 
Q 3016 3291 2770 3770 
Q 2525 4250 2034 4250 
z
M 2034 4750 
Q 2819 4750 3233 4129 
Q 3647 3509 3647 2328 
Q 3647 1150 3233 529 
Q 2819 -91 2034 -91 
Q 1250 -91 836 529 
Q 422 1150 422 2328 
Q 422 3509 836 4129 
Q 1250 4750 2034 4750 
z
" transform="scale(0.015625)"/>
       </defs>
       <use xlink:href="#DejaVuSans-2212"/>
       <use xlink:href="#DejaVuSans-31" x="83.789062"/>
       <use xlink:href="#DejaVuSans-2e" x="147.412109"/>
       <use xlink:href="#DejaVuSans-30" x="179.199219"/>
      </g>
     </g>
    </g>
    <g id="xtick_2">
     <g id="line2d_2">
      <g>
       <use xlink:href="#m32e2ffeb25" x="92.98527" y="176.621627" style="stroke: #000000; stroke-width: 0.8"/>
      </g>
     </g>
     <g id="text_2">
      <!-- −0.5 -->
      <g transform="translate(80.843863 191.220064) scale(0.1 -0.1)">
       <defs>
        <path id="DejaVuSans-35" d="M 691 4666 
L 3169 4666 
L 3169 4134 
L 1269 4134 
L 1269 2991 
Q 1406 3038 1543 3061 
Q 1681 3084 1819 3084 
Q 2600 3084 3056 2656 
Q 3513 2228 3513 1497 
Q 3513 744 3044 326 
Q 2575 -91 1722 -91 
Q 1428 -91 1123 -41 
Q 819 9 494 109 
L 494 744 
Q 775 591 1075 516 
Q 1375 441 1709 441 
Q 2250 441 2565 725 
Q 2881 1009 2881 1497 
Q 2881 1984 2565 2268 
Q 2250 2553 1709 2553 
Q 1456 2553 1204 2497 
Q 953 2441 691 2322 
L 691 4666 
z
" transform="scale(0.015625)"/>
       </defs>
       <use xlink:href="#DejaVuSans-2212"/>
       <use xlink:href="#DejaVuSans-30" x="83.789062"/>
       <use xlink:href="#DejaVuSans-2e" x="147.412109"/>
       <use xlink:href="#DejaVuSans-35" x="179.199219"/>
      </g>
     </g>
    </g>
    <g id="xtick_3">
     <g id="line2d_3">
      <g>
       <use xlink:href="#m32e2ffeb25" x="166.629133" y="176.621627" style="stroke: #000000; stroke-width: 0.8"/>
      </g>
     </g>
    </g>
    <g id="xtick_4">
     <g id="line2d_4">
      <g>
       <use xlink:href="#m32e2ffeb25" x="240.272996" y="176.621627" style="stroke: #000000; stroke-width: 0.8"/>
      </g>
     </g>
     <g id="text_3">
      <!-- 0.5 -->
      <g transform="translate(232.321434 191.220064) scale(0.1 -0.1)">
       <use xlink:href="#DejaVuSans-30"/>
       <use xlink:href="#DejaVuSans-2e" x="63.623047"/>
       <use xlink:href="#DejaVuSans-35" x="95.410156"/>
      </g>
     </g>
    </g>
    <g id="xtick_5">
     <g id="line2d_5">
      <g>
       <use xlink:href="#m32e2ffeb25" x="313.91686" y="176.621627" style="stroke: #000000; stroke-width: 0.8"/>
      </g>
     </g>
     <g id="text_4">
      <!-- 1.0 -->
      <g transform="translate(305.965297 191.220064) scale(0.1 -0.1)">
       <use xlink:href="#DejaVuSans-31"/>
       <use xlink:href="#DejaVuSans-2e" x="63.623047"/>
       <use xlink:href="#DejaVuSans-30" x="95.410156"/>
      </g>
     </g>
    </g>
    <g id="xtick_6">
     <g id="line2d_6">
      <defs>
       <path id="mb2de7fe2fe" d="M 0 0 
L 0 2 
" style="stroke: #000000; stroke-width: 0.6"/>
      </defs>
      <g>
       <use xlink:href="#mb2de7fe2fe" x="34.070179" y="176.621627" style="stroke: #000000; stroke-width: 0.6"/>
      </g>
     </g>
    </g>
    <g id="xtick_7">
     <g id="line2d_7">
      <g>
       <use xlink:href="#mb2de7fe2fe" x="48.798952" y="176.621627" style="stroke: #000000; stroke-width: 0.6"/>
      </g>
     </g>
    </g>
    <g id="xtick_8">
     <g id="line2d_8">
      <g>
       <use xlink:href="#mb2de7fe2fe" x="63.527724" y="176.621627" style="stroke: #000000; stroke-width: 0.6"/>
      </g>
     </g>
    </g>
    <g id="xtick_9">
     <g id="line2d_9">
      <g>
       <use xlink:href="#mb2de7fe2fe" x="78.256497" y="176.621627" style="stroke: #000000; stroke-width: 0.6"/>
      </g>
     </g>
    </g>
    <g id="xtick_10">
     <g id="line2d_10">
      <g>
       <use xlink:href="#mb2de7fe2fe" x="107.714042" y="176.621627" style="stroke: #000000; stroke-width: 0.6"/>
      </g>
     </g>
    </g>
    <g id="xtick_11">
     <g id="line2d_11">
      <g>
       <use xlink:href="#mb2de7fe2fe" x="122.442815" y="176.621627" style="stroke: #000000; stroke-width: 0.6"/>
      </g>
     </g>
    </g>
    <g id="xtick_12">
     <g id="line2d_12">
      <g>
       <use xlink:href="#mb2de7fe2fe" x="137.171588" y="176.621627" style="stroke: #000000; stroke-width: 0.6"/>
      </g>
     </g>
    </g>
    <g id="xtick_13">
     <g id="line2d_13">
      <g>
       <use xlink:href="#mb2de7fe2fe" x="151.90036" y="176.621627" style="stroke: #000000; stroke-width: 0.6"/>
      </g>
     </g>
    </g>
    <g id="xtick_14">
     <g id="line2d_14">
      <g>
       <use xlink:href="#mb2de7fe2fe" x="181.357906" y="176.621627" style="stroke: #000000; stroke-width: 0.6"/>
      </g>
     </g>
    </g>
    <g id="xtick_15">
     <g id="line2d_15">
      <g>
       <use xlink:href="#mb2de7fe2fe" x="196.086678" y="176.621627" style="stroke: #000000; stroke-width: 0.6"/>
      </g>
     </g>
    </g>
    <g id="xtick_16">
     <g id="line2d_16">
      <g>
       <use xlink:href="#mb2de7fe2fe" x="210.815451" y="176.621627" style="stroke: #000000; stroke-width: 0.6"/>
      </g>
     </g>
    </g>
    <g id="xtick_17">
     <g id="line2d_17">
      <g>
       <use xlink:href="#mb2de7fe2fe" x="225.544224" y="176.621627" style="stroke: #000000; stroke-width: 0.6"/>
      </g>
     </g>
    </g>
    <g id="xtick_18">
     <g id="line2d_18">
      <g>
       <use xlink:href="#mb2de7fe2fe" x="255.001769" y="176.621627" style="stroke: #000000; stroke-width: 0.6"/>
      </g>
     </g>
    </g>
    <g id="xtick_19">
     <g id="line2d_19">
      <g>
       <use xlink:href="#mb2de7fe2fe" x="269.730542" y="176.621627" style="stroke: #000000; stroke-width: 0.6"/>
      </g>
     </g>
    </g>
    <g id="xtick_20">
     <g id="line2d_20">
      <g>
       <use xlink:href="#mb2de7fe2fe" x="284.459314" y="176.621627" style="stroke: #000000; stroke-width: 0.6"/>
      </g>
     </g>
    </g>
    <g id="xtick_21">
     <g id="line2d_21">
      <g>
       <use xlink:href="#mb2de7fe2fe" x="299.188087" y="176.621627" style="stroke: #000000; stroke-width: 0.6"/>
      </g>
     </g>
    </g>
    <g id="text_5">
     <!-- $x$ -->
     <g transform="translate(327.807811 176.621627) scale(0.16 -0.16)">
      <defs>
       <path id="Cmmi10-78" d="M 500 184 
Q 613 97 819 97 
Q 1019 97 1172 289 
Q 1325 481 1381 709 
L 1672 1844 
Q 1741 2153 1741 2266 
Q 1741 2425 1652 2544 
Q 1563 2663 1403 2663 
Q 1200 2663 1022 2536 
Q 844 2409 722 2214 
Q 600 2019 550 1819 
Q 538 1778 500 1778 
L 422 1778 
Q 372 1778 372 1838 
L 372 1856 
Q 434 2094 584 2320 
Q 734 2547 951 2687 
Q 1169 2828 1416 2828 
Q 1650 2828 1839 2703 
Q 2028 2578 2106 2363 
Q 2216 2559 2386 2693 
Q 2556 2828 2759 2828 
Q 2897 2828 3040 2779 
Q 3184 2731 3275 2631 
Q 3366 2531 3366 2381 
Q 3366 2219 3261 2101 
Q 3156 1984 2994 1984 
Q 2891 1984 2822 2050 
Q 2753 2116 2753 2216 
Q 2753 2350 2845 2451 
Q 2938 2553 3066 2572 
Q 2950 2663 2747 2663 
Q 2541 2663 2389 2472 
Q 2238 2281 2175 2047 
L 1894 916 
Q 1825 659 1825 494 
Q 1825 331 1917 214 
Q 2009 97 2163 97 
Q 2463 97 2698 361 
Q 2934 625 3009 941 
Q 3022 978 3059 978 
L 3138 978 
Q 3163 978 3178 961 
Q 3194 944 3194 922 
Q 3194 916 3188 903 
Q 3097 522 2806 225 
Q 2516 -72 2150 -72 
Q 1916 -72 1727 54 
Q 1538 181 1459 397 
Q 1359 209 1182 68 
Q 1006 -72 806 -72 
Q 669 -72 523 -23 
Q 378 25 287 125 
Q 197 225 197 378 
Q 197 528 301 651 
Q 406 775 563 775 
Q 669 775 741 711 
Q 813 647 813 544 
Q 813 409 723 309 
Q 634 209 500 184 
z
" transform="scale(0.015625)"/>
      </defs>
      <use xlink:href="#Cmmi10-78" transform="translate(0 0.8125)"/>
     </g>
    </g>
   </g>
   <g id="matplotlib.axis_2">
    <g id="ytick_1">
     <g id="line2d_22">
      <defs>
       <path id="mb8e4f08c98" d="M 0 0 
L -3.5 0 
" style="stroke: #000000; stroke-width: 0.8"/>
      </defs>
      <g>
       <use xlink:href="#mb8e4f08c98" x="166.629133" y="323.909354" style="stroke: #000000; stroke-width: 0.8"/>
      </g>
     </g>
     <g id="text_6">
      <!-- −1.0 -->
      <g transform="translate(135.34632 327.708572) scale(0.1 -0.1)">
       <use xlink:href="#DejaVuSans-2212"/>
       <use xlink:href="#DejaVuSans-31" x="83.789062"/>
       <use xlink:href="#DejaVuSans-2e" x="147.412109"/>
       <use xlink:href="#DejaVuSans-30" x="179.199219"/>
      </g>
     </g>
    </g>
    <g id="ytick_2">
     <g id="line2d_23">
      <g>
       <use xlink:href="#mb8e4f08c98" x="166.629133" y="250.26549" style="stroke: #000000; stroke-width: 0.8"/>
      </g>
     </g>
     <g id="text_7">
      <!-- −0.5 -->
      <g transform="translate(135.34632 254.064709) scale(0.1 -0.1)">
       <use xlink:href="#DejaVuSans-2212"/>
       <use xlink:href="#DejaVuSans-30" x="83.789062"/>
       <use xlink:href="#DejaVuSans-2e" x="147.412109"/>
       <use xlink:href="#DejaVuSans-35" x="179.199219"/>
      </g>
     </g>
    </g>
    <g id="ytick_3">
     <g id="line2d_24">
      <g>
       <use xlink:href="#mb8e4f08c98" x="166.629133" y="176.621627" style="stroke: #000000; stroke-width: 0.8"/>
      </g>
     </g>
    </g>
    <g id="ytick_4">
     <g id="line2d_25">
      <g>
       <use xlink:href="#mb8e4f08c98" x="166.629133" y="102.977764" style="stroke: #000000; stroke-width: 0.8"/>
      </g>
     </g>
     <g id="text_8">
      <!-- 0.5 -->
      <g transform="translate(143.726008 106.776982) scale(0.1 -0.1)">
       <use xlink:href="#DejaVuSans-30"/>
       <use xlink:href="#DejaVuSans-2e" x="63.623047"/>
       <use xlink:href="#DejaVuSans-35" x="95.410156"/>
      </g>
     </g>
    </g>
    <g id="ytick_5">
     <g id="line2d_26">
      <g>
       <use xlink:href="#mb8e4f08c98" x="166.629133" y="29.3339" style="stroke: #000000; stroke-width: 0.8"/>
      </g>
     </g>
     <g id="text_9">
      <!-- 1.0 -->
      <g transform="translate(143.726008 33.133119) scale(0.1 -0.1)">
       <use xlink:href="#DejaVuSans-31"/>
       <use xlink:href="#DejaVuSans-2e" x="63.623047"/>
       <use xlink:href="#DejaVuSans-30" x="95.410156"/>
      </g>
     </g>
    </g>
    <g id="ytick_6">
     <g id="line2d_27">
      <defs>
       <path id="mb88e3962ef" d="M 0 0 
L -2 0 
" style="stroke: #000000; stroke-width: 0.6"/>
      </defs>
      <g>
       <use xlink:href="#mb88e3962ef" x="166.629133" y="309.180581" style="stroke: #000000; stroke-width: 0.6"/>
      </g>
     </g>
    </g>
    <g id="ytick_7">
     <g id="line2d_28">
      <g>
       <use xlink:href="#mb88e3962ef" x="166.629133" y="294.451808" style="stroke: #000000; stroke-width: 0.6"/>
      </g>
     </g>
    </g>
    <g id="ytick_8">
     <g id="line2d_29">
      <g>
       <use xlink:href="#mb88e3962ef" x="166.629133" y="279.723036" style="stroke: #000000; stroke-width: 0.6"/>
      </g>
     </g>
    </g>
    <g id="ytick_9">
     <g id="line2d_30">
      <g>
       <use xlink:href="#mb88e3962ef" x="166.629133" y="264.994263" style="stroke: #000000; stroke-width: 0.6"/>
      </g>
     </g>
    </g>
    <g id="ytick_10">
     <g id="line2d_31">
      <g>
       <use xlink:href="#mb88e3962ef" x="166.629133" y="235.536718" style="stroke: #000000; stroke-width: 0.6"/>
      </g>
     </g>
    </g>
    <g id="ytick_11">
     <g id="line2d_32">
      <g>
       <use xlink:href="#mb88e3962ef" x="166.629133" y="220.807945" style="stroke: #000000; stroke-width: 0.6"/>
      </g>
     </g>
    </g>
    <g id="ytick_12">
     <g id="line2d_33">
      <g>
       <use xlink:href="#mb88e3962ef" x="166.629133" y="206.079172" style="stroke: #000000; stroke-width: 0.6"/>
      </g>
     </g>
    </g>
    <g id="ytick_13">
     <g id="line2d_34">
      <g>
       <use xlink:href="#mb88e3962ef" x="166.629133" y="191.3504" style="stroke: #000000; stroke-width: 0.6"/>
      </g>
     </g>
    </g>
    <g id="ytick_14">
     <g id="line2d_35">
      <g>
       <use xlink:href="#mb88e3962ef" x="166.629133" y="161.892854" style="stroke: #000000; stroke-width: 0.6"/>
      </g>
     </g>
    </g>
    <g id="ytick_15">
     <g id="line2d_36">
      <g>
       <use xlink:href="#mb88e3962ef" x="166.629133" y="147.164082" style="stroke: #000000; stroke-width: 0.6"/>
      </g>
     </g>
    </g>
    <g id="ytick_16">
     <g id="line2d_37">
      <g>
       <use xlink:href="#mb88e3962ef" x="166.629133" y="132.435309" style="stroke: #000000; stroke-width: 0.6"/>
      </g>
     </g>
    </g>
    <g id="ytick_17">
     <g id="line2d_38">
      <g>
       <use xlink:href="#mb88e3962ef" x="166.629133" y="117.706536" style="stroke: #000000; stroke-width: 0.6"/>
      </g>
     </g>
    </g>
    <g id="ytick_18">
     <g id="line2d_39">
      <g>
       <use xlink:href="#mb88e3962ef" x="166.629133" y="88.248991" style="stroke: #000000; stroke-width: 0.6"/>
      </g>
     </g>
    </g>
    <g id="ytick_19">
     <g id="line2d_40">
      <g>
       <use xlink:href="#mb88e3962ef" x="166.629133" y="73.520218" style="stroke: #000000; stroke-width: 0.6"/>
      </g>
     </g>
    </g>
    <g id="ytick_20">
     <g id="line2d_41">
      <g>
       <use xlink:href="#mb88e3962ef" x="166.629133" y="58.791446" style="stroke: #000000; stroke-width: 0.6"/>
      </g>
     </g>
    </g>
    <g id="ytick_21">
     <g id="line2d_42">
      <g>
       <use xlink:href="#mb88e3962ef" x="166.629133" y="44.062673" style="stroke: #000000; stroke-width: 0.6"/>
      </g>
     </g>
    </g>
    <g id="text_10">
     <!-- $y$ -->
     <g transform="translate(162.629133 12.0825) scale(0.16 -0.16)">
      <defs>
       <path id="Cmmi10-79" d="M 538 -916 
Q 672 -1147 1006 -1147 
Q 1309 -1147 1531 -934 
Q 1753 -722 1889 -420 
Q 2025 -119 2100 197 
Q 1816 -72 1484 -72 
Q 1231 -72 1053 15 
Q 875 103 776 276 
Q 678 450 678 697 
Q 678 906 734 1126 
Q 791 1347 892 1617 
Q 994 1888 1069 2088 
Q 1153 2322 1153 2472 
Q 1153 2663 1013 2663 
Q 759 2663 595 2402 
Q 431 2141 353 1819 
Q 341 1778 300 1778 
L 225 1778 
Q 172 1778 172 1838 
L 172 1856 
Q 275 2238 487 2533 
Q 700 2828 1025 2828 
Q 1253 2828 1411 2678 
Q 1569 2528 1569 2297 
Q 1569 2178 1516 2047 
Q 1488 1969 1388 1706 
Q 1288 1444 1234 1272 
Q 1181 1100 1147 934 
Q 1113 769 1113 603 
Q 1113 391 1203 244 
Q 1294 97 1491 97 
Q 1888 97 2203 581 
L 2688 2553 
Q 2709 2638 2787 2698 
Q 2866 2759 2956 2759 
Q 3034 2759 3092 2709 
Q 3150 2659 3150 2578 
Q 3150 2541 3144 2528 
L 2509 -19 
Q 2425 -347 2200 -647 
Q 1975 -947 1658 -1130 
Q 1341 -1313 997 -1313 
Q 831 -1313 668 -1248 
Q 506 -1184 406 -1056 
Q 306 -928 306 -756 
Q 306 -581 409 -453 
Q 513 -325 684 -325 
Q 788 -325 858 -389 
Q 928 -453 928 -556 
Q 928 -703 818 -812 
Q 709 -922 563 -922 
Q 556 -919 550 -917 
Q 544 -916 538 -916 
z
" transform="scale(0.015625)"/>
      </defs>
      <use xlink:href="#Cmmi10-79" transform="translate(0 0.8125)"/>
     </g>
    </g>
   </g>
   <g id="line2d_43">
    <path d="M 166.629133 29.3339 
L 178.855406 29.461036 
L 187.171063 29.694217 
L 205.012634 30.611779 
L 212.037396 31.138538 
L 223.483114 32.215938 
L 234.52896 33.540129 
L 239.385127 34.221057 
L 247.944285 35.586853 
L 254.598285 36.812781 
L 261.708545 38.307138 
L 267.666291 39.73055 
L 272.494033 41.018669 
L 280.142417 43.36044 
L 286.791191 45.780342 
L 292.407684 48.205201 
L 297.175535 50.647871 
L 301.365994 53.21872 
L 303.338752 54.624619 
L 305.135773 56.05595 
L 306.770273 57.52265 
L 308.746176 59.593226 
L 310.407757 61.72852 
L 311.735961 63.898425 
L 312.389318 65.24406 
L 312.927146 66.611765 
L 313.480683 68.543011 
L 313.874886 71.23769 
L 313.853944 74.006662 
L 313.771842 74.809923 
L 313.380639 77.011809 
L 312.743056 79.255508 
L 311.676762 81.952339 
L 310.761732 83.811316 
L 309.692336 85.695144 
L 308.203143 87.993304 
L 306.494582 90.325799 
L 304.689264 92.550744 
L 302.467689 95.049908 
L 300.017353 97.58342 
L 296.688375 100.751976 
L 293.62034 103.463289 
L 287.494517 108.445742 
L 284.524731 110.703775 
L 276.578884 116.376581 
L 269.426135 121.13527 
L 259.636448 127.26407 
L 249.666839 133.168725 
L 240.381999 138.439958 
L 230.899666 143.64956 
L 211.90388 153.705171 
L 189.640572 165.080421 
L 119.342538 200.58418 
L 103.478324 208.988197 
L 88.100076 217.49104 
L 77.160996 223.849429 
L 66.620882 230.322195 
L 56.842277 236.755058 
L 51.028323 240.850875 
L 45.739444 244.816364 
L 41.193366 248.466409 
L 36.59157 252.471486 
L 32.490538 256.414773 
L 29.225295 259.930316 
L 26.110751 263.778179 
L 24.286492 266.397918 
L 22.035431 270.332564 
L 20.615944 273.693608 
L 19.865431 276.284426 
L 19.442805 278.819572 
L 19.342351 280.583082 
L 19.407436 282.317378 
L 19.809998 284.840755 
L 20.35385 286.696393 
L 21.103698 288.513273 
L 21.85328 289.942064 
L 22.734023 291.345187 
L 23.975797 293.010478 
L 25.40731 294.637065 
L 27.726957 296.848619 
L 30.037537 298.707177 
L 32.412921 300.371789 
L 35.014249 301.984314 
L 38.173935 303.719085 
L 43.715713 306.326402 
L 48.52591 308.257649 
L 53.14188 309.89151 
L 58.050014 311.439584 
L 65.574887 313.50837 
L 72.595337 315.169002 
L 78.346577 316.368822 
L 84.316082 317.482252 
L 95.529295 319.261658 
L 108.119752 320.847541 
L 123.132804 322.25783 
L 133.577456 322.967257 
L 148.821294 323.638982 
L 161.175295 323.884099 
L 169.162065 323.903908 
L 181.383766 323.724014 
L 188.849963 323.487289 
L 202.70088 322.783701 
L 216.536752 321.714707 
L 227.014296 320.636117 
L 238.158809 319.200241 
L 247.566569 317.721466 
L 256.698112 316.010265 
L 262.32084 314.797504 
L 267.711951 313.501119 
L 272.193642 312.308638 
L 276.954393 310.908871 
L 284.438281 308.367611 
L 288.884956 306.606386 
L 291.785664 305.327806 
L 295.714404 303.38988 
L 299.282369 301.363364 
L 301.758362 299.756698 
L 304.155502 297.988352 
L 306.297701 296.163754 
L 307.904399 294.580629 
L 309.32453 292.958557 
L 310.458556 291.44119 
L 311.533156 289.71624 
L 312.599955 287.500264 
L 313.353476 285.22479 
L 313.702138 283.543659 
L 313.885868 281.83255 
L 313.901969 280.026677 
L 313.74041 278.189617 
L 313.388181 276.26414 
L 312.818647 274.216346 
L 312.044224 272.134353 
L 311.061633 270.010277 
L 309.874977 267.853211 
L 308.441016 265.597546 
L 306.949381 263.513352 
L 303.915847 259.796553 
L 302.451894 258.176339 
L 300.093987 255.736163 
L 297.527507 253.265076 
L 294.397282 250.450546 
L 288.054435 245.233463 
L 282.395545 240.971235 
L 276.41965 236.757565 
L 267.932217 231.147004 
L 258.053952 225.021921 
L 244.605823 217.177742 
L 234.531954 211.57122 
L 217.85694 202.644936 
L 203.001635 194.950348 
L 177.447738 182.034586 
L 143.846517 165.195888 
L 122.27081 154.180457 
L 104.745085 144.937846 
L 92.967601 138.490905 
L 78.640721 130.272759 
L 70.47988 125.337923 
L 61.977714 119.927644 
L 56.900576 116.528101 
L 52.29508 113.305792 
L 44.686938 107.604227 
L 39.249101 103.128956 
L 34.740264 99.044263 
L 30.520209 94.757287 
L 28.603842 92.591768 
L 26.551253 90.049477 
L 24.998555 87.911226 
L 23.630697 85.80192 
L 22.084164 83.009025 
L 21.156428 80.969946 
L 19.996467 77.500613 
L 19.678601 76.05676 
L 19.426814 74.261953 
L 19.343093 72.224561 
L 19.481558 70.226544 
L 19.915874 67.975838 
L 20.415091 66.375753 
L 21.068439 64.804723 
L 21.807866 63.380462 
L 22.677416 61.981639 
L 23.676307 60.608568 
L 25.868168 58.131203 
L 27.421916 56.662508 
L 29.136269 55.228415 
L 31.780253 53.294634 
L 34.724372 51.429485 
L 36.967377 50.16148 
L 39.977637 48.622047 
L 42.876439 47.282355 
L 49.252268 44.715542 
L 56.099361 42.397934 
L 63.76106 40.20376 
L 69.49733 38.778448 
L 76.190399 37.308749 
L 82.854829 36.02202 
L 89.783142 34.846032 
L 103.047684 32.986794 
L 115.922161 31.602288 
L 119.280432 31.30157 
L 129.170504 30.549645 
L 142.741195 29.822222 
L 150.113926 29.566295 
L 166.629133 29.3339 
L 166.629133 29.3339 
" clip-path="url(#p525630e6da)" style="fill: none; stroke: #0000ff; stroke-width: 1.5; stroke-linecap: square"/>
   </g>
   <g id="patch_3">
    <path d="M 294.184046 49.066714 
Q 290.189365 47.30609 288.240831 46.447288 
" clip-path="url(#p525630e6da)" style="fill: none; stroke: #0000ff; stroke-width: 2; stroke-linecap: round"/>
    <path d="M 295.374938 55.055686 
L 288.240831 46.447288 
L 299.408013 45.905041 
z
" clip-path="url(#p525630e6da)" style="fill: #0000ff; stroke: #0000ff; stroke-width: 2; stroke-linecap: round"/>
   </g>
   <g id="patch_4">
    <path d="M 166.629133 329.795308 
L 166.629133 23.4425 
" style="fill: none; stroke: #000000; stroke-width: 0.8; stroke-linejoin: miter; stroke-linecap: square"/>
   </g>
   <g id="patch_5">
    <path d="M 13.450872 176.621627 
L 319.807811 176.621627 
" style="fill: none; stroke: #000000; stroke-width: 0.8; stroke-linejoin: miter; stroke-linecap: square"/>
   </g>
  </g>
 </g>
 <defs>
  <clipPath id="p525630e6da">
   <rect x="13.450872" y="23.4425" width="306.35694" height="306.352808"/>
  </clipPath>
 </defs>
</svg>
