<?xml version="1.0" encoding="utf-8" standalone="no"?>
<!DOCTYPE svg PUBLIC "-//W3C//DTD SVG 1.1//EN"
  "http://www.w3.org/Graphics/SVG/1.1/DTD/svg11.dtd">
<svg xmlns:xlink="http://www.w3.org/1999/xlink" width="453.6pt" height="236.33609pt" viewBox="0 0 453.6 236.33609" xmlns="http://www.w3.org/2000/svg" version="1.1">
 <metadata>
  <rdf:RDF xmlns:dc="http://purl.org/dc/elements/1.1/" xmlns:cc="http://creativecommons.org/ns#" xmlns:rdf="http://www.w3.org/1999/02/22-rdf-syntax-ns#">
   <cc:Work>
    <dc:type rdf:resource="http://purl.org/dc/dcmitype/StillImage"/>
    <dc:date>2025-04-09T13:39:46.922780</dc:date>
    <dc:format>image/svg+xml</dc:format>
    <dc:creator>
     <cc:Agent>
      <dc:title>Matplotlib v3.8.0, https://matplotlib.org/</dc:title>
     </cc:Agent>
    </dc:creator>
   </cc:Work>
  </rdf:RDF>
 </metadata>
 <defs>
  <style type="text/css">*{stroke-linejoin: round; stroke-linecap: butt}</style>
 </defs>
 <g id="figure_1">
  <g id="patch_1">
   <path d="M 0 236.33609 
L 453.6 236.33609 
L 453.6 0 
L 0 0 
z
" style="fill: #ffffff"/>
  </g>
  <g id="axes_1">
   <g id="patch_2">
    <path d="M 7.2 229.13609 
L 446.4 229.13609 
L 446.4 7.2 
L 7.2 7.2 
z
" style="fill: #ffffff"/>
   </g>
   <g id="PathCollection_1">
    <path d="M 411.548108 52.085594 
C 412.485742 52.085594 413.3851 51.713067 414.048108 51.05006 
C 414.711115 50.387052 415.083641 49.487694 415.083641 48.55006 
C 415.083641 47.612425 414.711115 46.713067 414.048108 46.05006 
C 413.3851 45.387052 412.485742 45.014526 411.548108 45.014526 
C 410.610473 45.014526 409.711115 45.387052 409.048108 46.05006 
C 408.3851 46.713067 408.012574 47.612425 408.012574 48.55006 
C 408.012574 49.487694 408.3851 50.387052 409.048108 51.05006 
C 409.711115 51.713067 410.610473 52.085594 411.548108 52.085594 
z
" clip-path="url(#p0e65715c61)"/>
   </g>
   <g id="matplotlib.axis_1"/>
   <g id="matplotlib.axis_2"/>
   <g id="line2d_1">
    <path d="M 437.953846 75.118416 
L 434.274418 70.35259 
L 431.677692 67.263087 
L 427.277344 62.457956 
L 423.152726 58.369751 
L 417.979288 53.717005 
L 413.739095 50.2408 
L 409.600654 47.102951 
L 404.022847 43.224851 
L 398.42231 39.689042 
L 393.50327 36.846424 
L 386.400997 33.128627 
L 378.513668 29.476163 
L 371.65884 26.664641 
L 365.497508 24.398331 
L 358.720894 22.167661 
L 355.129921 21.089821 
L 346.384622 18.74671 
L 337.800399 16.809427 
L 330.514447 15.42673 
L 323.104417 14.251577 
L 316.578344 13.399604 
L 308.309462 12.554056 
L 302.35948 12.100512 
L 293.869716 11.668232 
L 284.413746 11.472159 
L 277.377744 11.513974 
L 270.223465 11.715414 
L 261.175427 12.193246 
L 251.233196 12.997756 
L 245.613828 13.579041 
L 234.678094 14.967255 
L 224.215741 16.608376 
L 211.8571 18.936327 
L 204.709107 20.474273 
L 193.805105 23.09099 
L 187.621142 24.721101 
L 175.421318 28.251073 
L 165.539013 31.421915 
L 154.424375 35.331666 
L 143.935036 39.368359 
L 136.195972 42.572717 
L 128.361029 46.022236 
L 120.70619 49.602796 
L 114.037459 52.901543 
L 106.010185 57.109199 
L 97.123792 62.094652 
L 88.81486 67.100603 
L 81.10893 72.077692 
L 75.261831 76.096154 
L 67.3989 81.877463 
L 61.515443 86.531013 
L 55.498119 91.634747 
L 50.897808 95.814305 
L 45.774668 100.810431 
L 40.902771 105.971944 
L 36.615232 110.935101 
L 32.949412 115.583909 
L 29.951899 119.749258 
L 27.316287 123.770384 
L 24.491257 128.594874 
L 22.976686 131.485466 
L 20.674228 136.491601 
L 19.000893 140.867898 
L 17.848234 144.536392 
L 17.202921 147.009211 
L 16.225908 152.044876 
L 15.784122 156.025508 
L 15.646154 159.592639 
L 15.69829 162.05785 
L 16.006574 165.7199 
L 16.375487 168.187751 
L 16.945728 170.9389 
L 17.677595 173.64936 
L 18.515894 176.170366 
L 19.869489 179.506511 
L 21.681242 183.146561 
L 23.427994 186.106502 
L 25.348298 188.945376 
L 27.704678 192.00633 
L 30.409741 195.101284 
L 33.769722 198.486787 
L 37.70336 201.969838 
L 41.513715 204.967417 
L 46.110655 208.200593 
L 50.317893 210.864456 
L 55.296055 213.719651 
L 59.328361 215.833893 
L 64.227572 218.199169 
L 71.390543 221.315996 
L 78.205458 223.963959 
L 80.706821 224.868088 
L 80.706821 224.868088 
" clip-path="url(#p0e65715c61)" style="fill: none; stroke: #000000; stroke-width: 2; stroke-linecap: square"/>
   </g>
   <g id="patch_3">
    <path d="M 181.155993 26.539473 
Q 180.129013 26.840629 181.247746 26.512566 
" clip-path="url(#p0e65715c61)" style="fill: none; stroke: #000000; stroke-width: 2; stroke-linecap: round"/>
    <path d="M 192.250641 28.49658 
L 181.247746 26.512566 
L 189.436694 18.900659 
z
" clip-path="url(#p0e65715c61)" style="stroke: #000000; stroke-width: 2; stroke-linecap: round"/>
   </g>
   <g id="patch_4">
    <path d="M 411.548108 48.55006 
Q 376.053397 39.084804 342.719254 30.195699 
" clip-path="url(#p0e65715c61)" style="fill: none; stroke: #ff0000; stroke-width: 2; stroke-linecap: round"/>
    <path d="M 351.093291 37.6035 
L 342.719254 30.195699 
L 353.669917 27.941151 
z
" clip-path="url(#p0e65715c61)" style="fill: #ff0000; stroke: #ff0000; stroke-width: 2; stroke-linecap: round"/>
   </g>
   <g id="text_1">
    <!-- $P$ -->
    <g transform="translate(414.513364 35.138298) scale(0.2 -0.2)">
     <defs>
      <path id="Cmmi10-50" d="M 313 0 
Q 250 0 250 84 
Q 253 100 262 139 
Q 272 178 289 201 
Q 306 225 331 225 
Q 722 225 878 269 
Q 959 297 997 441 
L 1875 3956 
Q 1888 4019 1888 4044 
Q 1888 4113 1813 4122 
Q 1691 4147 1350 4147 
Q 1288 4147 1288 4231 
Q 1291 4247 1300 4286 
Q 1309 4325 1326 4348 
Q 1344 4372 1369 4372 
L 3578 4372 
Q 3881 4372 4165 4264 
Q 4450 4156 4631 3934 
Q 4813 3713 4813 3397 
Q 4813 2991 4527 2672 
Q 4241 2353 3814 2175 
Q 3388 1997 2988 1997 
L 1947 1997 
L 1556 416 
Q 1544 353 1544 325 
Q 1544 300 1551 283 
Q 1559 266 1573 261 
Q 1588 256 1619 250 
Q 1741 225 2081 225 
Q 2144 225 2144 141 
Q 2122 50 2109 25 
Q 2097 0 2034 0 
L 313 0 
z
M 1978 2188 
L 2875 2188 
Q 3497 2188 3822 2522 
Q 3988 2688 4092 3000 
Q 4197 3313 4197 3566 
Q 4197 3881 3956 4014 
Q 3716 4147 3359 4147 
L 2747 4147 
Q 2572 4147 2515 4117 
Q 2459 4088 2413 3928 
L 1978 2188 
z
" transform="scale(0.015625)"/>
     </defs>
     <use xlink:href="#Cmmi10-50" transform="translate(0 0.6875)"/>
    </g>
   </g>
  </g>
 </g>
 <defs>
  <clipPath id="p0e65715c61">
   <rect x="7.2" y="7.2" width="439.2" height="221.93609"/>
  </clipPath>
 </defs>
</svg>
