<?xml version="1.0" encoding="utf-8" standalone="no"?>
<!DOCTYPE svg PUBLIC "-//W3C//DTD SVG 1.1//EN"
  "http://www.w3.org/Graphics/SVG/1.1/DTD/svg11.dtd">
<svg xmlns:xlink="http://www.w3.org/1999/xlink" width="338.4pt" height="338.4pt" viewBox="0 0 338.4 338.4" xmlns="http://www.w3.org/2000/svg" version="1.1">
 <metadata>
  <rdf:RDF xmlns:dc="http://purl.org/dc/elements/1.1/" xmlns:cc="http://creativecommons.org/ns#" xmlns:rdf="http://www.w3.org/1999/02/22-rdf-syntax-ns#">
   <cc:Work>
    <dc:type rdf:resource="http://purl.org/dc/dcmitype/StillImage"/>
    <dc:date>2025-06-18T14:13:26.436535</dc:date>
    <dc:format>image/svg+xml</dc:format>
    <dc:creator>
     <cc:Agent>
      <dc:title>Matplotlib v3.10.3, https://matplotlib.org/</dc:title>
     </cc:Agent>
    </dc:creator>
   </cc:Work>
  </rdf:RDF>
 </metadata>
 <defs>
  <style type="text/css">*{stroke-linejoin: round; stroke-linecap: butt}</style>
 </defs>
 <g id="figure_1">
  <g id="patch_1">
   <path d="M -0 338.4 
L 338.4 338.4 
L 338.4 0 
L -0 0 
z
" style="fill: #ffffff"/>
  </g>
  <g id="axes_1">
   <g id="patch_2">
    <path d="M 7.2 331.2 
L 331.2 331.2 
L 331.2 7.2 
L 7.2 7.2 
z
" style="fill: #ffffff"/>
   </g>
   <g id="PathCollection_1">
    <path d="M 91.315385 247.084615 
C 91.315385 247.084615 91.315385 247.084615 91.315385 247.084615 
C 91.315385 247.084615 91.315385 247.084615 91.315385 247.084615 
C 91.315385 247.084615 91.315385 247.084615 91.315385 247.084615 
C 91.315385 247.084615 91.315385 247.084615 91.315385 247.084615 
C 91.315385 247.084615 91.315385 247.084615 91.315385 247.084615 
C 91.315385 247.084615 91.315385 247.084615 91.315385 247.084615 
C 91.315385 247.084615 91.315385 247.084615 91.315385 247.084615 
C 91.315385 247.084615 91.315385 247.084615 91.315385 247.084615 
z
" clip-path="url(#p6fc2811c6d)" style="fill: #0000ff"/>
   </g>
   <g id="PathCollection_2">
    <path d="M 130.257692 41.628376 
C 130.850704 41.628376 131.419508 41.392769 131.838831 40.973447 
C 132.258154 40.554124 132.49376 39.98532 132.49376 39.392308 
C 132.49376 38.799296 132.258154 38.230492 131.838831 37.811169 
C 131.419508 37.391846 130.850704 37.15624 130.257692 37.15624 
C 129.66468 37.15624 129.095876 37.391846 128.676553 37.811169 
C 128.257231 38.230492 128.021624 38.799296 128.021624 39.392308 
C 128.021624 39.98532 128.257231 40.554124 128.676553 40.973447 
C 129.095876 41.392769 129.66468 41.628376 130.257692 41.628376 
z
" clip-path="url(#p6fc2811c6d)"/>
   </g>
   <g id="PathCollection_3">
    <path d="M 208.142308 93.551453 
C 208.73532 93.551453 209.304124 93.315846 209.723447 92.896523 
C 210.142769 92.477201 210.378376 91.908397 210.378376 91.315385 
C 210.378376 90.722372 210.142769 90.153569 209.723447 89.734246 
C 209.304124 89.314923 208.73532 89.079317 208.142308 89.079317 
C 207.549296 89.079317 206.980492 89.314923 206.561169 89.734246 
C 206.141846 90.153569 205.90624 90.722372 205.90624 91.315385 
C 205.90624 91.908397 206.141846 92.477201 206.561169 92.896523 
C 206.980492 93.315846 207.549296 93.551453 208.142308 93.551453 
z
" clip-path="url(#p6fc2811c6d)"/>
   </g>
   <g id="PathCollection_4">
    <path d="M 286.026923 197.397606 
C 286.619935 197.397606 287.188739 197.162 287.608062 196.742677 
C 288.027385 196.323354 288.262991 195.754551 288.262991 195.161538 
C 288.262991 194.568526 288.027385 193.999723 287.608062 193.5804 
C 287.188739 193.161077 286.619935 192.92547 286.026923 192.92547 
C 285.433911 192.92547 284.865107 193.161077 284.445784 193.5804 
C 284.026461 193.999723 283.790855 194.568526 283.790855 195.161538 
C 283.790855 195.754551 284.026461 196.323354 284.445784 196.742677 
C 284.865107 197.162 285.433911 197.397606 286.026923 197.397606 
z
" clip-path="url(#p6fc2811c6d)"/>
   </g>
   <g id="matplotlib.axis_1">
    <g id="xtick_1">
     <g id="line2d_1">
      <path d="M 13.430769 331.2 
L 13.430769 7.2 
" clip-path="url(#p6fc2811c6d)" style="fill: none; stroke-dasharray: 0.5,0.825; stroke-dashoffset: 0; stroke: #000000; stroke-width: 0.5"/>
     </g>
     <g id="line2d_2">
      <defs>
       <path id="m7aa8fb41c8" d="M 0 0 
L 0 3.5 
" style="stroke: #000000; stroke-width: 0.8"/>
      </defs>
      <g>
       <use xlink:href="#m7aa8fb41c8" x="13.430769" y="247.084615" style="stroke: #000000; stroke-width: 0.8"/>
      </g>
     </g>
    </g>
    <g id="xtick_2">
     <g id="line2d_3">
      <path d="M 91.315385 331.2 
L 91.315385 7.2 
" clip-path="url(#p6fc2811c6d)" style="fill: none; stroke-dasharray: 0.5,0.825; stroke-dashoffset: 0; stroke: #000000; stroke-width: 0.5"/>
     </g>
     <g id="line2d_4">
      <g>
       <use xlink:href="#m7aa8fb41c8" x="91.315385" y="247.084615" style="stroke: #000000; stroke-width: 0.8"/>
      </g>
     </g>
    </g>
    <g id="xtick_3">
     <g id="line2d_5">
      <path d="M 169.2 331.2 
L 169.2 7.2 
" clip-path="url(#p6fc2811c6d)" style="fill: none; stroke-dasharray: 0.5,0.825; stroke-dashoffset: 0; stroke: #000000; stroke-width: 0.5"/>
     </g>
     <g id="line2d_6">
      <g>
       <use xlink:href="#m7aa8fb41c8" x="169.2" y="247.084615" style="stroke: #000000; stroke-width: 0.8"/>
      </g>
     </g>
    </g>
    <g id="xtick_4">
     <g id="line2d_7">
      <path d="M 247.084615 331.2 
L 247.084615 7.2 
" clip-path="url(#p6fc2811c6d)" style="fill: none; stroke-dasharray: 0.5,0.825; stroke-dashoffset: 0; stroke: #000000; stroke-width: 0.5"/>
     </g>
     <g id="line2d_8">
      <g>
       <use xlink:href="#m7aa8fb41c8" x="247.084615" y="247.084615" style="stroke: #000000; stroke-width: 0.8"/>
      </g>
     </g>
    </g>
    <g id="xtick_5">
     <g id="line2d_9">
      <path d="M 324.969231 331.2 
L 324.969231 7.2 
" clip-path="url(#p6fc2811c6d)" style="fill: none; stroke-dasharray: 0.5,0.825; stroke-dashoffset: 0; stroke: #000000; stroke-width: 0.5"/>
     </g>
     <g id="line2d_10">
      <g>
       <use xlink:href="#m7aa8fb41c8" x="324.969231" y="247.084615" style="stroke: #000000; stroke-width: 0.8"/>
      </g>
     </g>
    </g>
   </g>
   <g id="matplotlib.axis_2">
    <g id="ytick_1">
     <g id="line2d_11">
      <path d="M 7.2 324.969231 
L 331.2 324.969231 
" clip-path="url(#p6fc2811c6d)" style="fill: none; stroke-dasharray: 0.5,0.825; stroke-dashoffset: 0; stroke: #000000; stroke-width: 0.5"/>
     </g>
     <g id="line2d_12">
      <defs>
       <path id="m8047ec93d6" d="M 0 0 
L -3.5 0 
" style="stroke: #000000; stroke-width: 0.8"/>
      </defs>
      <g>
       <use xlink:href="#m8047ec93d6" x="91.315385" y="324.969231" style="stroke: #000000; stroke-width: 0.8"/>
      </g>
     </g>
    </g>
    <g id="ytick_2">
     <g id="line2d_13">
      <path d="M 7.2 247.084615 
L 331.2 247.084615 
" clip-path="url(#p6fc2811c6d)" style="fill: none; stroke-dasharray: 0.5,0.825; stroke-dashoffset: 0; stroke: #000000; stroke-width: 0.5"/>
     </g>
     <g id="line2d_14">
      <g>
       <use xlink:href="#m8047ec93d6" x="91.315385" y="247.084615" style="stroke: #000000; stroke-width: 0.8"/>
      </g>
     </g>
    </g>
    <g id="ytick_3">
     <g id="line2d_15">
      <path d="M 7.2 169.2 
L 331.2 169.2 
" clip-path="url(#p6fc2811c6d)" style="fill: none; stroke-dasharray: 0.5,0.825; stroke-dashoffset: 0; stroke: #000000; stroke-width: 0.5"/>
     </g>
     <g id="line2d_16">
      <g>
       <use xlink:href="#m8047ec93d6" x="91.315385" y="169.2" style="stroke: #000000; stroke-width: 0.8"/>
      </g>
     </g>
    </g>
    <g id="ytick_4">
     <g id="line2d_17">
      <path d="M 7.2 91.315385 
L 331.2 91.315385 
" clip-path="url(#p6fc2811c6d)" style="fill: none; stroke-dasharray: 0.5,0.825; stroke-dashoffset: 0; stroke: #000000; stroke-width: 0.5"/>
     </g>
     <g id="line2d_18">
      <g>
       <use xlink:href="#m8047ec93d6" x="91.315385" y="91.315385" style="stroke: #000000; stroke-width: 0.8"/>
      </g>
     </g>
    </g>
    <g id="ytick_5">
     <g id="line2d_19">
      <path d="M 7.2 13.430769 
L 331.2 13.430769 
" clip-path="url(#p6fc2811c6d)" style="fill: none; stroke-dasharray: 0.5,0.825; stroke-dashoffset: 0; stroke: #000000; stroke-width: 0.5"/>
     </g>
     <g id="line2d_20">
      <g>
       <use xlink:href="#m8047ec93d6" x="91.315385" y="13.430769" style="stroke: #000000; stroke-width: 0.8"/>
      </g>
     </g>
    </g>
   </g>
   <g id="line2d_21">
    <path d="M 106.892308 33.940385 
L 112.612606 34.843135 
L 117.897104 35.926003 
L 122.853141 37.158776 
L 128.35766 38.774414 
L 133.702768 40.591462 
L 138.784835 42.545885 
L 143.178487 44.413745 
L 149.163634 47.22405 
L 155.197869 50.36781 
L 160.438318 53.35089 
L 165.808921 56.651958 
L 171.885215 60.684464 
L 176.674721 64.085729 
L 183.154886 69.000169 
L 189.062305 73.793441 
L 194.792584 78.728392 
L 200.400316 83.82992 
L 206.819393 89.99996 
L 212.572969 95.830062 
L 219.265626 102.96824 
L 224.99883 109.38799 
L 231.18936 116.635743 
L 236.842373 123.540723 
L 243.33065 131.803102 
L 250.193625 140.934791 
L 256.752728 150.03894 
L 262.319816 158.055076 
L 269.839647 169.304181 
L 276.8737 180.264737 
L 283.034624 190.212694 
L 289.804508 201.518587 
L 297.1947 214.308278 
L 303.867219 226.257535 
L 309.392308 236.440385 
L 309.392308 236.440385 
" clip-path="url(#p6fc2811c6d)" style="fill: none; stroke: #0000ff; stroke-width: 2; stroke-linecap: square"/>
   </g>
   <g id="patch_3">
    <path d="M 91.315385 331.2 
L 91.315385 7.2 
" style="fill: none; stroke: #000000; stroke-width: 0.8; stroke-linejoin: miter; stroke-linecap: square"/>
   </g>
   <g id="patch_4">
    <path d="M 7.2 247.084615 
L 331.2 247.084615 
" style="fill: none; stroke: #000000; stroke-width: 0.8; stroke-linejoin: miter; stroke-linecap: square"/>
   </g>
   <g id="line2d_22">
    <path d="M 110.786538 32.901923 
L 149.728846 45.882692 
L 149.728846 45.882692 
" clip-path="url(#p6fc2811c6d)" style="fill: none; stroke: #ff0000; stroke-width: 2; stroke-linecap: square"/>
   </g>
   <g id="line2d_23">
    <path d="M 188.671154 71.844231 
L 227.613462 110.786538 
L 227.613462 110.786538 
" clip-path="url(#p6fc2811c6d)" style="fill: none; stroke: #ff0000; stroke-width: 2; stroke-linecap: square"/>
   </g>
   <g id="line2d_24">
    <path d="M 266.555769 162.709615 
L 305.498077 227.613462 
L 305.498077 227.613462 
" clip-path="url(#p6fc2811c6d)" style="fill: none; stroke: #ff0000; stroke-width: 2; stroke-linecap: square"/>
   </g>
  </g>
 </g>
 <defs>
  <clipPath id="p6fc2811c6d">
   <rect x="7.2" y="7.2" width="324" height="324"/>
  </clipPath>
 </defs>
</svg>
