<?xml version="1.0" encoding="utf-8" standalone="no"?>
<!DOCTYPE svg PUBLIC "-//W3C//DTD SVG 1.1//EN"
  "http://www.w3.org/Graphics/SVG/1.1/DTD/svg11.dtd">
<svg xmlns:xlink="http://www.w3.org/1999/xlink" width="453.6pt" height="236.335868pt" viewBox="0 0 453.6 236.335868" xmlns="http://www.w3.org/2000/svg" version="1.1">
 <metadata>
  <rdf:RDF xmlns:dc="http://purl.org/dc/elements/1.1/" xmlns:cc="http://creativecommons.org/ns#" xmlns:rdf="http://www.w3.org/1999/02/22-rdf-syntax-ns#">
   <cc:Work>
    <dc:type rdf:resource="http://purl.org/dc/dcmitype/StillImage"/>
    <dc:date>2025-06-18T14:13:56.378412</dc:date>
    <dc:format>image/svg+xml</dc:format>
    <dc:creator>
     <cc:Agent>
      <dc:title>Matplotlib v3.10.3, https://matplotlib.org/</dc:title>
     </cc:Agent>
    </dc:creator>
   </cc:Work>
  </rdf:RDF>
 </metadata>
 <defs>
  <style type="text/css">*{stroke-linejoin: round; stroke-linecap: butt}</style>
 </defs>
 <g id="figure_1">
  <g id="patch_1">
   <path d="M 0 236.335868 
L 453.6 236.335868 
L 453.6 0 
L 0 0 
z
" style="fill: #ffffff"/>
  </g>
  <g id="axes_1">
   <g id="patch_2">
    <path d="M 7.2 229.135868 
L 446.4 229.135868 
L 446.4 7.2 
L 7.2 7.2 
z
" style="fill: #ffffff"/>
   </g>
   <g id="PathCollection_1">
    <path d="M 411.548127 52.085507 
C 412.485762 52.085507 413.385119 51.712981 414.048127 51.049973 
C 414.711135 50.386965 415.083661 49.487608 415.083661 48.549973 
C 415.083661 47.612339 414.711135 46.712981 414.048127 46.049973 
C 413.385119 45.386965 412.485762 45.014439 411.548127 45.014439 
C 410.610493 45.014439 409.711135 45.386965 409.048127 46.049973 
C 408.385119 46.712981 408.012593 47.612339 408.012593 48.549973 
C 408.012593 49.487608 408.385119 50.386965 409.048127 51.049973 
C 409.711135 51.712981 410.610493 52.085507 411.548127 52.085507 
z
" clip-path="url(#p8b3138d4f6)"/>
   </g>
   <g id="matplotlib.axis_1"/>
   <g id="matplotlib.axis_2"/>
   <g id="line2d_1">
    <path d="M 437.953846 75.118309 
L 434.705875 70.886451 
L 431.82323 67.430781 
L 426.997905 62.169007 
L 423.048542 58.271005 
L 418.79224 54.416439 
L 413.858474 50.334802 
L 409.654706 47.142333 
L 406.159285 44.665532 
L 401.809216 41.786848 
L 396.670715 38.649951 
L 390.835736 35.398905 
L 383.439547 31.701601 
L 375.666978 28.269662 
L 368.880281 25.613247 
L 362.400701 23.346075 
L 355.156847 21.09756 
L 346.673816 18.817982 
L 341.731817 17.653846 
L 332.445095 15.770562 
L 323.785099 14.350076 
L 313.552396 13.0604 
L 302.120782 12.084879 
L 296.434825 11.772706 
L 286.302686 11.487841 
L 280.812593 11.473868 
L 269.896857 11.728311 
L 261.024393 12.203247 
L 251.615705 12.961437 
L 243.541864 13.81608 
L 234.065258 15.054952 
L 222.123716 16.972852 
L 214.58318 18.386702 
L 205.767788 20.237612 
L 195.027813 22.781218 
L 185.123939 25.40955 
L 175.620846 28.189938 
L 166.57362 31.076646 
L 156.671645 34.511186 
L 148.308452 37.643327 
L 137.943424 41.831914 
L 130.425348 45.092746 
L 120.910134 49.504626 
L 113.083635 53.387664 
L 103.66676 58.389247 
L 96.895728 62.227487 
L 92.918868 64.584033 
L 83.429707 70.542473 
L 77.867019 74.278282 
L 70.843408 79.287732 
L 64.490562 84.139722 
L 58.748087 88.831425 
L 53.810522 93.137737 
L 49.439969 97.196587 
L 44.135251 102.498039 
L 40.507603 106.411478 
L 36.303998 111.313983 
L 31.957803 116.921021 
L 28.753287 121.530436 
L 26.15697 125.675221 
L 23.863083 129.763333 
L 21.778689 133.979418 
L 19.858412 138.521612 
L 18.563335 142.177036 
L 17.29581 146.627416 
L 16.41048 150.88486 
L 15.934315 154.347086 
L 15.70054 157.428655 
L 15.697541 162.034562 
L 15.947524 165.214038 
L 16.493207 168.827173 
L 17.252163 172.151201 
L 18.244818 175.403493 
L 19.359862 178.329805 
L 20.528657 180.915679 
L 22.437223 184.479976 
L 23.862835 186.781642 
L 25.946902 189.76104 
L 27.715176 192.01856 
L 29.870012 194.513035 
L 32.556234 197.313544 
L 34.759291 199.405772 
L 37.707336 201.972695 
L 41.007493 204.586944 
L 44.095131 206.828363 
L 48.737432 209.892852 
L 53.485284 212.714343 
L 58.355439 215.338153 
L 64.767976 218.447372 
L 69.188663 220.396818 
L 75.664335 223.009107 
L 80.707085 224.867871 
L 80.707085 224.867871 
" clip-path="url(#p8b3138d4f6)" style="fill: none; stroke: #000000; stroke-width: 2; stroke-linecap: square"/>
   </g>
   <g id="patch_3">
    <path d="M 181.156183 26.539402 
Q 180.129204 26.840558 181.247938 26.512496 
" clip-path="url(#p8b3138d4f6)" style="fill: none; stroke: #000000; stroke-width: 2; stroke-linecap: round"/>
    <path d="M 192.250833 28.496509 
L 181.247938 26.512496 
L 189.436885 18.900588 
z
" clip-path="url(#p8b3138d4f6)" style="stroke: #000000; stroke-width: 2; stroke-linecap: round"/>
   </g>
   <g id="patch_4">
    <path d="M 411.548127 48.549973 
Q 376.053443 39.084724 342.719327 30.195626 
" clip-path="url(#p8b3138d4f6)" style="fill: none; stroke: #ff0000; stroke-width: 2; stroke-linecap: round"/>
    <path d="M 351.093363 37.603427 
L 342.719327 30.195626 
L 353.669989 27.941078 
z
" clip-path="url(#p8b3138d4f6)" style="fill: #ff0000; stroke: #ff0000; stroke-width: 2; stroke-linecap: round"/>
   </g>
   <g id="text_1">
    <!-- $P$ -->
    <g transform="translate(414.513376 35.138225) scale(0.2 -0.2)">
     <defs>
      <path id="Cmmi10-50" d="M 313 0 
Q 250 0 250 84 
Q 253 100 262 139 
Q 272 178 289 201 
Q 306 225 331 225 
Q 722 225 878 269 
Q 959 297 997 441 
L 1875 3956 
Q 1888 4019 1888 4044 
Q 1888 4113 1813 4122 
Q 1691 4147 1350 4147 
Q 1288 4147 1288 4231 
Q 1291 4247 1300 4286 
Q 1309 4325 1326 4348 
Q 1344 4372 1369 4372 
L 3578 4372 
Q 3881 4372 4165 4264 
Q 4450 4156 4631 3934 
Q 4813 3713 4813 3397 
Q 4813 2991 4527 2672 
Q 4241 2353 3814 2175 
Q 3388 1997 2988 1997 
L 1947 1997 
L 1556 416 
Q 1544 353 1544 325 
Q 1544 300 1551 283 
Q 1559 266 1573 261 
Q 1588 256 1619 250 
Q 1741 225 2081 225 
Q 2144 225 2144 141 
Q 2122 50 2109 25 
Q 2097 0 2034 0 
L 313 0 
z
M 1978 2188 
L 2875 2188 
Q 3497 2188 3822 2522 
Q 3988 2688 4092 3000 
Q 4197 3313 4197 3566 
Q 4197 3881 3956 4014 
Q 3716 4147 3359 4147 
L 2747 4147 
Q 2572 4147 2515 4117 
Q 2459 4088 2413 3928 
L 1978 2188 
z
" transform="scale(0.015625)"/>
     </defs>
     <use xlink:href="#Cmmi10-50" transform="translate(0 0.6875)"/>
    </g>
   </g>
  </g>
 </g>
 <defs>
  <clipPath id="p8b3138d4f6">
   <rect x="7.2" y="7.2" width="439.2" height="221.935868"/>
  </clipPath>
 </defs>
</svg>
