<?xml version="1.0" encoding="utf-8" standalone="no"?>
<!DOCTYPE svg PUBLIC "-//W3C//DTD SVG 1.1//EN"
  "http://www.w3.org/Graphics/SVG/1.1/DTD/svg11.dtd">
<svg xmlns:xlink="http://www.w3.org/1999/xlink" width="452.644161pt" height="225.124507pt" viewBox="0 0 452.644161 225.124507" xmlns="http://www.w3.org/2000/svg" version="1.1">
 <metadata>
  <rdf:RDF xmlns:dc="http://purl.org/dc/elements/1.1/" xmlns:cc="http://creativecommons.org/ns#" xmlns:rdf="http://www.w3.org/1999/02/22-rdf-syntax-ns#">
   <cc:Work>
    <dc:type rdf:resource="http://purl.org/dc/dcmitype/StillImage"/>
    <dc:date>2025-06-11T11:23:40.337502</dc:date>
    <dc:format>image/svg+xml</dc:format>
    <dc:creator>
     <cc:Agent>
      <dc:title>Matplotlib v3.8.0, https://matplotlib.org/</dc:title>
     </cc:Agent>
    </dc:creator>
   </cc:Work>
  </rdf:RDF>
 </metadata>
 <defs>
  <style type="text/css">*{stroke-linejoin: round; stroke-linecap: butt}</style>
 </defs>
 <g id="figure_1">
  <g id="patch_1">
   <path d="M 0 225.124507 
L 452.644161 225.124507 
L 452.644161 0 
L 0 0 
z
" style="fill: #ffffff"/>
  </g>
  <g id="axes_1">
   <g id="patch_2">
    <path d="M 10.944232 217.924507 
L 445.444161 217.924507 
L 445.444161 7.2 
L 10.944232 7.2 
z
" style="fill: #ffffff"/>
   </g>
   <g id="PathCollection_1">
    <path d="M 40.896684 133.412075 
C 41.834319 133.412075 42.733677 133.039548 43.396684 132.376541 
C 44.059692 131.713533 44.432218 130.814175 44.432218 129.876541 
C 44.432218 128.938906 44.059692 128.039548 43.396684 127.376541 
C 42.733677 126.713533 41.834319 126.341007 40.896684 126.341007 
C 39.95905 126.341007 39.059692 126.713533 38.396684 127.376541 
C 37.733677 128.039548 37.361151 128.938906 37.361151 129.876541 
C 37.361151 130.814175 37.733677 131.713533 38.396684 132.376541 
C 39.059692 133.039548 39.95905 133.412075 40.896684 133.412075 
z
" clip-path="url(#p3ce4548500)"/>
   </g>
   <g id="PathCollection_2">
    <path d="M 37.275319 165.995726 
C 38.212954 165.995726 39.112311 165.6232 39.775319 164.960192 
C 40.438327 164.297184 40.810853 163.397826 40.810853 162.460192 
C 40.810853 161.522557 40.438327 160.6232 39.775319 159.960192 
C 39.112311 159.297184 38.212954 158.924658 37.275319 158.924658 
C 36.337685 158.924658 35.438327 159.297184 34.775319 159.960192 
C 34.112311 160.6232 33.739785 161.522557 33.739785 162.460192 
C 33.739785 163.397826 34.112311 164.297184 34.775319 164.960192 
C 35.438327 165.6232 36.337685 165.995726 37.275319 165.995726 
z
" clip-path="url(#p3ce4548500)"/>
   </g>
   <g id="matplotlib.axis_1"/>
   <g id="matplotlib.axis_2"/>
   <g id="line2d_1">
    <path d="M 437.088394 71.678486 
L 433.64929 67.220452 
L 429.605047 62.499886 
L 426.091987 58.775517 
L 422.015063 54.819779 
L 417.950338 51.21091 
L 413.239947 47.388098 
L 408.782981 44.07999 
L 403.522742 40.513459 
L 400.334023 38.511061 
L 395.16681 35.496696 
L 389.399239 32.437374 
L 383.226492 29.483353 
L 376.547975 26.622677 
L 372.619871 25.089307 
L 364.649731 22.289256 
L 359.67996 20.739503 
L 352.327839 18.701911 
L 344.723157 16.89247 
L 337.146739 15.36976 
L 331.756429 14.446388 
L 323.385281 13.261158 
L 318.947062 12.750052 
L 311.000356 12.028446 
L 301.496024 11.476999 
L 292.487671 11.252394 
L 281.762781 11.345393 
L 270.740289 11.831754 
L 264.746024 12.257018 
L 256.914013 12.979053 
L 247.103777 14.144183 
L 237.255933 15.600141 
L 229.665046 16.915694 
L 217.644601 19.340417 
L 209.489161 21.22348 
L 199.0989 23.902639 
L 188.674303 26.909855 
L 181.823598 29.063357 
L 173.887081 31.738001 
L 164.094197 35.31207 
L 153.593103 39.494999 
L 149.074205 41.411655 
L 138.238938 46.309647 
L 130.823163 49.922613 
L 125.929826 52.430808 
L 117.509476 56.994979 
L 111.328927 60.560671 
L 103.924211 65.097788 
L 96.553637 69.934182 
L 88.700604 75.490502 
L 81.862563 80.725705 
L 76.920778 84.780437 
L 70.707133 90.265519 
L 65.704845 95.06057 
L 61.739591 99.158434 
L 57.222006 104.228438 
L 53.754969 108.488365 
L 50.898076 112.311296 
L 48.594254 115.65887 
L 45.402202 120.827065 
L 43.106449 125.08902 
L 41.508007 128.463066 
L 40.03407 132.025384 
L 38.666691 135.959146 
L 37.669019 139.524834 
L 36.960967 142.798719 
L 36.494537 145.777751 
L 36.113728 150.527761 
L 36.103355 153.223979 
L 36.323431 156.741457 
L 36.934286 160.870461 
L 37.808944 164.523041 
L 38.833722 167.684697 
L 40.300266 171.240324 
L 41.633724 173.912496 
L 43.66524 177.358887 
L 45.989802 180.696415 
L 48.516405 183.829696 
L 50.541194 186.06907 
L 53.841565 189.330173 
L 57.405033 192.436051 
L 60.472944 194.841902 
L 64.955988 198.005223 
L 69.322715 200.762246 
L 72.817054 202.779024 
L 78.672918 205.845559 
L 85.609225 209.05897 
L 92.389592 211.841563 
L 97.867282 213.872113 
L 97.867282 213.872113 
" clip-path="url(#p3ce4548500)" style="fill: none; stroke: #000000; stroke-width: 2; stroke-linecap: square"/>
   </g>
   <g id="patch_3">
    <path d="M 193.248006 25.550732 
Q 192.272845 25.836692 193.443398 25.493434 
" clip-path="url(#p3ce4548500)" style="fill: none; stroke: #000000; stroke-width: 2; stroke-linecap: round"/>
    <path d="M 204.446293 27.477447 
L 193.443398 25.493434 
L 201.632345 17.881526 
z
" clip-path="url(#p3ce4548500)" style="stroke: #000000; stroke-width: 2; stroke-linecap: round"/>
   </g>
   <g id="text_1">
    <!-- $Q_0$ -->
    <g transform="translate(19.809025 117.419971) scale(0.2 -0.2)">
     <defs>
      <path id="Cmmi10-51" d="M 1947 -141 
Q 1466 -141 1094 79 
Q 722 300 520 692 
Q 319 1084 319 1563 
Q 319 2259 714 2950 
Q 1109 3641 1756 4077 
Q 2403 4513 3109 4513 
Q 3475 4513 3778 4381 
Q 4081 4250 4290 4017 
Q 4500 3784 4614 3471 
Q 4728 3159 4728 2791 
Q 4728 2366 4581 1936 
Q 4434 1506 4171 1136 
Q 3909 766 3559 484 
Q 3209 203 2809 38 
Q 2850 -256 2934 -425 
Q 3019 -594 3256 -594 
Q 3506 -594 3726 -412 
Q 3947 -231 4006 13 
Q 4019 72 4078 72 
Q 4147 72 4147 -13 
Q 4100 -219 4008 -430 
Q 3916 -641 3786 -823 
Q 3656 -1006 3478 -1123 
Q 3300 -1241 3084 -1241 
Q 2547 -1241 2547 -550 
Q 2547 -509 2562 -332 
Q 2578 -156 2578 -44 
Q 2269 -141 1947 -141 
z
M 1709 300 
Q 1709 44 1991 44 
Q 2275 44 2591 184 
L 2591 244 
Q 2591 503 2509 648 
Q 2428 794 2194 794 
Q 2078 794 1964 723 
Q 1850 653 1779 539 
Q 1709 425 1709 300 
z
M 1544 288 
Q 1544 456 1637 612 
Q 1731 769 1881 864 
Q 2031 959 2203 959 
Q 2481 959 2607 771 
Q 2734 584 2778 281 
Q 3188 525 3500 978 
Q 3813 1431 3977 1973 
Q 4141 2516 4141 3003 
Q 4141 3356 4023 3656 
Q 3906 3956 3664 4140 
Q 3422 4325 3066 4325 
Q 2722 4325 2403 4156 
Q 2084 3988 1813 3706 
Q 1550 3434 1342 3032 
Q 1134 2631 1021 2193 
Q 909 1756 909 1356 
Q 909 947 1068 612 
Q 1228 278 1569 128 
Q 1544 194 1544 288 
z
" transform="scale(0.015625)"/>
      <path id="Cmr10-30" d="M 1600 -141 
Q 816 -141 533 504 
Q 250 1150 250 2041 
Q 250 2597 351 3087 
Q 453 3578 754 3920 
Q 1056 4263 1600 4263 
Q 2022 4263 2290 4056 
Q 2559 3850 2700 3523 
Q 2841 3197 2892 2823 
Q 2944 2450 2944 2041 
Q 2944 1491 2842 1011 
Q 2741 531 2444 195 
Q 2147 -141 1600 -141 
z
M 1600 25 
Q 1956 25 2131 390 
Q 2306 756 2347 1200 
Q 2388 1644 2388 2144 
Q 2388 2625 2347 3031 
Q 2306 3438 2132 3767 
Q 1959 4097 1600 4097 
Q 1238 4097 1063 3765 
Q 888 3434 847 3029 
Q 806 2625 806 2144 
Q 806 1788 823 1472 
Q 841 1156 916 820 
Q 991 484 1158 254 
Q 1325 25 1600 25 
z
" transform="scale(0.015625)"/>
     </defs>
     <use xlink:href="#Cmmi10-51" transform="translate(0 0.484375)"/>
     <use xlink:href="#Cmr10-30" transform="translate(79.003906 -16.521875) scale(0.7)"/>
    </g>
   </g>
   <g id="text_2">
    <!-- $Q_1$ -->
    <g transform="translate(7.2 158.991282) scale(0.2 -0.2)">
     <defs>
      <path id="Cmr10-31" d="M 594 0 
L 594 225 
Q 1394 225 1394 428 
L 1394 3788 
Q 1063 3628 556 3628 
L 556 3853 
Q 1341 3853 1741 4263 
L 1831 4263 
Q 1853 4263 1873 4245 
Q 1894 4228 1894 4206 
L 1894 428 
Q 1894 225 2694 225 
L 2694 0 
L 594 0 
z
" transform="scale(0.015625)"/>
     </defs>
     <use xlink:href="#Cmmi10-51" transform="translate(0 0.484375)"/>
     <use xlink:href="#Cmr10-31" transform="translate(79.003906 -16.521875) scale(0.7)"/>
    </g>
   </g>
  </g>
 </g>
 <defs>
  <clipPath id="p3ce4548500">
   <rect x="10.944232" y="7.2" width="434.499929" height="210.724507"/>
  </clipPath>
 </defs>
</svg>
