<?xml version="1.0" encoding="utf-8" standalone="no"?>
<!DOCTYPE svg PUBLIC "-//W3C//DTD SVG 1.1//EN"
  "http://www.w3.org/Graphics/SVG/1.1/DTD/svg11.dtd">
<svg xmlns:xlink="http://www.w3.org/1999/xlink" width="338.4pt" height="338.4pt" viewBox="0 0 338.4 338.4" xmlns="http://www.w3.org/2000/svg" version="1.1">
 <metadata>
  <rdf:RDF xmlns:dc="http://purl.org/dc/elements/1.1/" xmlns:cc="http://creativecommons.org/ns#" xmlns:rdf="http://www.w3.org/1999/02/22-rdf-syntax-ns#">
   <cc:Work>
    <dc:type rdf:resource="http://purl.org/dc/dcmitype/StillImage"/>
    <dc:date>2025-06-11T11:21:33.334491</dc:date>
    <dc:format>image/svg+xml</dc:format>
    <dc:creator>
     <cc:Agent>
      <dc:title>Matplotlib v3.8.0, https://matplotlib.org/</dc:title>
     </cc:Agent>
    </dc:creator>
   </cc:Work>
  </rdf:RDF>
 </metadata>
 <defs>
  <style type="text/css">*{stroke-linejoin: round; stroke-linecap: butt}</style>
 </defs>
 <g id="figure_1">
  <g id="patch_1">
   <path d="M -0 338.4 
L 338.4 338.4 
L 338.4 0 
L -0 0 
z
" style="fill: #ffffff"/>
  </g>
  <g id="axes_1">
   <g id="patch_2">
    <path d="M 7.2 331.2 
L 331.2 331.2 
L 331.2 7.2 
L 7.2 7.2 
z
" style="fill: #ffffff"/>
   </g>
   <g id="PathCollection_1">
    <path d="M 91.315385 247.084615 
C 91.315385 247.084615 91.315385 247.084615 91.315385 247.084615 
C 91.315385 247.084615 91.315385 247.084615 91.315385 247.084615 
C 91.315385 247.084615 91.315385 247.084615 91.315385 247.084615 
C 91.315385 247.084615 91.315385 247.084615 91.315385 247.084615 
C 91.315385 247.084615 91.315385 247.084615 91.315385 247.084615 
C 91.315385 247.084615 91.315385 247.084615 91.315385 247.084615 
C 91.315385 247.084615 91.315385 247.084615 91.315385 247.084615 
C 91.315385 247.084615 91.315385 247.084615 91.315385 247.084615 
z
" clip-path="url(#pd1aa8186b9)" style="fill: #0000ff"/>
   </g>
   <g id="PathCollection_2">
    <path d="M 130.257692 67.589914 
C 130.850704 67.589914 131.419508 67.354308 131.838831 66.934985 
C 132.258154 66.515662 132.49376 65.946858 132.49376 65.353846 
C 132.49376 64.760834 132.258154 64.19203 131.838831 63.772707 
C 131.419508 63.353384 130.850704 63.117778 130.257692 63.117778 
C 129.66468 63.117778 129.095876 63.353384 128.676553 63.772707 
C 128.257231 64.19203 128.021624 64.760834 128.021624 65.353846 
C 128.021624 65.946858 128.257231 66.515662 128.676553 66.934985 
C 129.095876 67.354308 129.66468 67.589914 130.257692 67.589914 
z
" clip-path="url(#pd1aa8186b9)"/>
   </g>
   <g id="PathCollection_3">
    <path d="M 208.142308 171.436068 
C 208.73532 171.436068 209.304124 171.200462 209.723447 170.781139 
C 210.142769 170.361816 210.378376 169.793012 210.378376 169.2 
C 210.378376 168.606988 210.142769 168.038184 209.723447 167.618861 
C 209.304124 167.199538 208.73532 166.963932 208.142308 166.963932 
C 207.549296 166.963932 206.980492 167.199538 206.561169 167.618861 
C 206.141846 168.038184 205.90624 168.606988 205.90624 169.2 
C 205.90624 169.793012 206.141846 170.361816 206.561169 170.781139 
C 206.980492 171.200462 207.549296 171.436068 208.142308 171.436068 
z
" clip-path="url(#pd1aa8186b9)"/>
   </g>
   <g id="PathCollection_4">
    <path d="M 286.026923 223.359145 
C 286.619935 223.359145 287.188739 223.123539 287.608062 222.704216 
C 288.027385 222.284893 288.262991 221.716089 288.262991 221.123077 
C 288.262991 220.530065 288.027385 219.961261 287.608062 219.541938 
C 287.188739 219.122615 286.619935 218.887009 286.026923 218.887009 
C 285.433911 218.887009 284.865107 219.122615 284.445784 219.541938 
C 284.026461 219.961261 283.790855 220.530065 283.790855 221.123077 
C 283.790855 221.716089 284.026461 222.284893 284.445784 222.704216 
C 284.865107 223.123539 285.433911 223.359145 286.026923 223.359145 
z
" clip-path="url(#pd1aa8186b9)"/>
   </g>
   <g id="matplotlib.axis_1">
    <g id="xtick_1">
     <g id="line2d_1">
      <path d="M 13.430769 331.2 
L 13.430769 7.2 
" clip-path="url(#pd1aa8186b9)" style="fill: none; stroke-dasharray: 0.5,0.825; stroke-dashoffset: 0; stroke: #000000; stroke-width: 0.5"/>
     </g>
     <g id="line2d_2">
      <defs>
       <path id="mbffc41674b" d="M 0 0 
L 0 3.5 
" style="stroke: #000000; stroke-width: 0.8"/>
      </defs>
      <g>
       <use xlink:href="#mbffc41674b" x="13.430769" y="247.084615" style="stroke: #000000; stroke-width: 0.8"/>
      </g>
     </g>
    </g>
    <g id="xtick_2">
     <g id="line2d_3">
      <path d="M 91.315385 331.2 
L 91.315385 7.2 
" clip-path="url(#pd1aa8186b9)" style="fill: none; stroke-dasharray: 0.5,0.825; stroke-dashoffset: 0; stroke: #000000; stroke-width: 0.5"/>
     </g>
     <g id="line2d_4">
      <g>
       <use xlink:href="#mbffc41674b" x="91.315385" y="247.084615" style="stroke: #000000; stroke-width: 0.8"/>
      </g>
     </g>
    </g>
    <g id="xtick_3">
     <g id="line2d_5">
      <path d="M 169.2 331.2 
L 169.2 7.2 
" clip-path="url(#pd1aa8186b9)" style="fill: none; stroke-dasharray: 0.5,0.825; stroke-dashoffset: 0; stroke: #000000; stroke-width: 0.5"/>
     </g>
     <g id="line2d_6">
      <g>
       <use xlink:href="#mbffc41674b" x="169.2" y="247.084615" style="stroke: #000000; stroke-width: 0.8"/>
      </g>
     </g>
    </g>
    <g id="xtick_4">
     <g id="line2d_7">
      <path d="M 247.084615 331.2 
L 247.084615 7.2 
" clip-path="url(#pd1aa8186b9)" style="fill: none; stroke-dasharray: 0.5,0.825; stroke-dashoffset: 0; stroke: #000000; stroke-width: 0.5"/>
     </g>
     <g id="line2d_8">
      <g>
       <use xlink:href="#mbffc41674b" x="247.084615" y="247.084615" style="stroke: #000000; stroke-width: 0.8"/>
      </g>
     </g>
    </g>
    <g id="xtick_5">
     <g id="line2d_9">
      <path d="M 324.969231 331.2 
L 324.969231 7.2 
" clip-path="url(#pd1aa8186b9)" style="fill: none; stroke-dasharray: 0.5,0.825; stroke-dashoffset: 0; stroke: #000000; stroke-width: 0.5"/>
     </g>
     <g id="line2d_10">
      <g>
       <use xlink:href="#mbffc41674b" x="324.969231" y="247.084615" style="stroke: #000000; stroke-width: 0.8"/>
      </g>
     </g>
    </g>
   </g>
   <g id="matplotlib.axis_2">
    <g id="ytick_1">
     <g id="line2d_11">
      <path d="M 7.2 324.969231 
L 331.2 324.969231 
" clip-path="url(#pd1aa8186b9)" style="fill: none; stroke-dasharray: 0.5,0.825; stroke-dashoffset: 0; stroke: #000000; stroke-width: 0.5"/>
     </g>
     <g id="line2d_12">
      <defs>
       <path id="m43eb246e15" d="M 0 0 
L -3.5 0 
" style="stroke: #000000; stroke-width: 0.8"/>
      </defs>
      <g>
       <use xlink:href="#m43eb246e15" x="91.315385" y="324.969231" style="stroke: #000000; stroke-width: 0.8"/>
      </g>
     </g>
    </g>
    <g id="ytick_2">
     <g id="line2d_13">
      <path d="M 7.2 247.084615 
L 331.2 247.084615 
" clip-path="url(#pd1aa8186b9)" style="fill: none; stroke-dasharray: 0.5,0.825; stroke-dashoffset: 0; stroke: #000000; stroke-width: 0.5"/>
     </g>
     <g id="line2d_14">
      <g>
       <use xlink:href="#m43eb246e15" x="91.315385" y="247.084615" style="stroke: #000000; stroke-width: 0.8"/>
      </g>
     </g>
    </g>
    <g id="ytick_3">
     <g id="line2d_15">
      <path d="M 7.2 169.2 
L 331.2 169.2 
" clip-path="url(#pd1aa8186b9)" style="fill: none; stroke-dasharray: 0.5,0.825; stroke-dashoffset: 0; stroke: #000000; stroke-width: 0.5"/>
     </g>
     <g id="line2d_16">
      <g>
       <use xlink:href="#m43eb246e15" x="91.315385" y="169.2" style="stroke: #000000; stroke-width: 0.8"/>
      </g>
     </g>
    </g>
    <g id="ytick_4">
     <g id="line2d_17">
      <path d="M 7.2 91.315385 
L 331.2 91.315385 
" clip-path="url(#pd1aa8186b9)" style="fill: none; stroke-dasharray: 0.5,0.825; stroke-dashoffset: 0; stroke: #000000; stroke-width: 0.5"/>
     </g>
     <g id="line2d_18">
      <g>
       <use xlink:href="#m43eb246e15" x="91.315385" y="91.315385" style="stroke: #000000; stroke-width: 0.8"/>
      </g>
     </g>
    </g>
    <g id="ytick_5">
     <g id="line2d_19">
      <path d="M 7.2 13.430769 
L 331.2 13.430769 
" clip-path="url(#pd1aa8186b9)" style="fill: none; stroke-dasharray: 0.5,0.825; stroke-dashoffset: 0; stroke: #000000; stroke-width: 0.5"/>
     </g>
     <g id="line2d_20">
      <g>
       <use xlink:href="#m43eb246e15" x="91.315385" y="13.430769" style="stroke: #000000; stroke-width: 0.8"/>
      </g>
     </g>
    </g>
   </g>
   <g id="line2d_21">
    <path d="M 106.892308 24.075 
L 114.344795 37.748609 
L 121.51635 50.457915 
L 129.049308 63.333623 
L 136.388844 75.411548 
L 143.712622 87.003928 
L 150.219202 96.917677 
L 157.160568 107.094378 
L 162.843332 115.118815 
L 169.578532 124.271403 
L 176.787521 133.637611 
L 183.594101 142.072702 
L 190.113109 149.779632 
L 196.723817 157.223496 
L 202.455761 163.375058 
L 208.814194 169.869954 
L 214.384843 175.275753 
L 220.638009 181.027437 
L 226.659084 186.249345 
L 232.420943 190.955878 
L 238.493243 195.60844 
L 242.825548 198.73491 
L 248.123703 202.340027 
L 253.335916 205.652206 
L 259.642425 209.348872 
L 265.367679 212.41001 
L 270.284261 214.814845 
L 276.24016 217.450897 
L 280.695026 219.224106 
L 285.843278 221.061717 
L 290.618196 222.563283 
L 296.391635 224.11821 
L 301.76552 225.309146 
L 307.403438 226.292888 
L 309.392308 226.575 
L 309.392308 226.575 
" clip-path="url(#pd1aa8186b9)" style="fill: none; stroke: #0000ff; stroke-width: 2; stroke-linecap: square"/>
   </g>
   <g id="patch_3">
    <path d="M 91.315385 331.2 
L 91.315385 7.2 
" style="fill: none; stroke: #000000; stroke-width: 0.8; stroke-linejoin: miter; stroke-linecap: square"/>
   </g>
   <g id="patch_4">
    <path d="M 7.2 247.084615 
L 331.2 247.084615 
" style="fill: none; stroke: #000000; stroke-width: 0.8; stroke-linejoin: miter; stroke-linecap: square"/>
   </g>
   <g id="line2d_22">
    <path d="M 110.786538 32.901923 
L 149.728846 97.805769 
L 149.728846 97.805769 
" clip-path="url(#pd1aa8186b9)" style="fill: none; stroke: #ff0000; stroke-width: 2; stroke-linecap: square"/>
   </g>
   <g id="line2d_23">
    <path d="M 188.671154 149.728846 
L 227.613462 188.671154 
L 227.613462 188.671154 
" clip-path="url(#pd1aa8186b9)" style="fill: none; stroke: #ff0000; stroke-width: 2; stroke-linecap: square"/>
   </g>
   <g id="line2d_24">
    <path d="M 266.555769 214.632692 
L 305.498077 227.613462 
L 305.498077 227.613462 
" clip-path="url(#pd1aa8186b9)" style="fill: none; stroke: #ff0000; stroke-width: 2; stroke-linecap: square"/>
   </g>
  </g>
 </g>
 <defs>
  <clipPath id="pd1aa8186b9">
   <rect x="7.2" y="7.2" width="324" height="324"/>
  </clipPath>
 </defs>
</svg>
