<?xml version="1.0" encoding="utf-8" standalone="no"?>
<!DOCTYPE svg PUBLIC "-//W3C//DTD SVG 1.1//EN"
  "http://www.w3.org/Graphics/SVG/1.1/DTD/svg11.dtd">
<svg xmlns:xlink="http://www.w3.org/1999/xlink" width="453.6pt" height="236.34062pt" viewBox="0 0 453.6 236.34062" xmlns="http://www.w3.org/2000/svg" version="1.1">
 <metadata>
  <rdf:RDF xmlns:dc="http://purl.org/dc/elements/1.1/" xmlns:cc="http://creativecommons.org/ns#" xmlns:rdf="http://www.w3.org/1999/02/22-rdf-syntax-ns#">
   <cc:Work>
    <dc:type rdf:resource="http://purl.org/dc/dcmitype/StillImage"/>
    <dc:date>2025-04-09T13:40:11.047532</dc:date>
    <dc:format>image/svg+xml</dc:format>
    <dc:creator>
     <cc:Agent>
      <dc:title>Matplotlib v3.8.0, https://matplotlib.org/</dc:title>
     </cc:Agent>
    </dc:creator>
   </cc:Work>
  </rdf:RDF>
 </metadata>
 <defs>
  <style type="text/css">*{stroke-linejoin: round; stroke-linecap: butt}</style>
 </defs>
 <g id="figure_1">
  <g id="patch_1">
   <path d="M 0 236.34062 
L 453.6 236.34062 
L 453.6 -0 
L 0 -0 
z
" style="fill: #ffffff"/>
  </g>
  <g id="axes_1">
   <g id="patch_2">
    <path d="M 7.2 229.14062 
L 446.4 229.14062 
L 446.4 7.2 
L 7.2 7.2 
z
" style="fill: #ffffff"/>
   </g>
   <g id="PathCollection_1">
    <path d="M 376.128292 31.996853 
C 377.065926 31.996853 377.965284 31.624327 378.628292 30.961319 
C 379.2913 30.298311 379.663826 29.398953 379.663826 28.461319 
C 379.663826 27.523684 379.2913 26.624327 378.628292 25.961319 
C 377.965284 25.298311 377.065926 24.925785 376.128292 24.925785 
C 375.190657 24.925785 374.2913 25.298311 373.628292 25.961319 
C 372.965284 26.624327 372.592758 27.523684 372.592758 28.461319 
C 372.592758 29.398953 372.965284 30.298311 373.628292 30.961319 
C 374.2913 31.624327 375.190657 31.996853 376.128292 31.996853 
z
" clip-path="url(#p60b0543fbf)"/>
   </g>
   <g id="PathCollection_2">
    <path d="M 342.324791 21.32252 
C 343.262426 21.32252 344.161784 20.949994 344.824791 20.286987 
C 345.487799 19.623979 345.860325 18.724621 345.860325 17.786987 
C 345.860325 16.849352 345.487799 15.949994 344.824791 15.286987 
C 344.161784 14.623979 343.262426 14.251453 342.324791 14.251453 
C 341.387157 14.251453 340.487799 14.623979 339.824791 15.286987 
C 339.161784 15.949994 338.789258 16.849352 338.789258 17.786987 
C 338.789258 18.724621 339.161784 19.623979 339.824791 20.286987 
C 340.487799 20.949994 341.387157 21.32252 342.324791 21.32252 
z
" clip-path="url(#p60b0543fbf)"/>
   </g>
   <g id="matplotlib.axis_1"/>
   <g id="matplotlib.axis_2"/>
   <g id="line2d_1">
    <path d="M 437.953846 75.118861 
L 435.370974 71.722424 
L 430.703545 66.155777 
L 427.028813 62.201372 
L 423.005282 58.230585 
L 418.376451 54.057698 
L 412.694937 49.426812 
L 406.799572 45.108198 
L 402.160147 42.011458 
L 395.583074 38.020107 
L 389.52103 34.708685 
L 386.281924 33.069913 
L 380.687718 30.436242 
L 373.598494 27.427917 
L 368.050447 25.308579 
L 360.271035 22.65451 
L 354.058433 20.781243 
L 346.282105 18.721055 
L 337.623048 16.772426 
L 332.871322 15.848098 
L 326.897717 14.824162 
L 316.288278 13.364759 
L 310.275029 12.731104 
L 302.070204 12.080669 
L 292.553066 11.622071 
L 281.462959 11.469272 
L 274.843742 11.565861 
L 264.095224 12.010719 
L 252.784617 12.851597 
L 241.493166 14.060686 
L 230.693876 15.554388 
L 219.786395 17.39224 
L 208.827801 19.568634 
L 197.216661 22.234512 
L 187.317394 24.801187 
L 175.582019 28.198883 
L 166.516201 31.092593 
L 157.653331 34.154255 
L 150.808251 36.680939 
L 143.303434 39.618862 
L 133.865525 43.572767 
L 123.725638 48.160624 
L 116.770842 51.524129 
L 108.9699 55.521803 
L 103.236692 58.621808 
L 97.966449 61.601047 
L 90.44998 66.081788 
L 83.14827 70.720975 
L 76.084132 75.511087 
L 68.588672 80.965457 
L 63.737725 84.729858 
L 56.856335 90.441139 
L 50.847519 95.852791 
L 45.355784 101.22758 
L 41.992068 104.767801 
L 37.609108 109.732463 
L 34.979724 112.944397 
L 30.839436 118.462121 
L 28.94956 121.218592 
L 25.621574 126.570665 
L 22.651839 132.120569 
L 20.971148 135.768568 
L 19.834516 138.556188 
L 18.206084 143.281155 
L 16.952437 148.051917 
L 16.142699 152.548558 
L 15.781145 155.916588 
L 15.650714 158.500874 
L 15.708174 162.480037 
L 15.868806 164.579067 
L 16.344802 168.079815 
L 17.054154 171.432116 
L 18.13189 175.109282 
L 19.487202 178.661847 
L 20.390046 180.655755 
L 22.383866 184.411768 
L 24.567501 187.854219 
L 27.284295 191.505612 
L 29.546566 194.17051 
L 33.004112 197.767191 
L 36.821597 201.240022 
L 39.448794 203.395665 
L 43.879166 206.689048 
L 47.819799 209.324158 
L 53.228024 212.578887 
L 58.805148 215.57796 
L 63.76938 217.995512 
L 69.937935 220.72199 
L 77.434866 223.68643 
L 80.697282 224.872531 
L 80.697282 224.872531 
" clip-path="url(#p60b0543fbf)" style="fill: none; stroke: #000000; stroke-width: 2; stroke-linecap: square"/>
   </g>
   <g id="patch_3">
    <path d="M 181.149136 26.538621 
Q 180.122129 26.839785 181.240835 26.511731 
" clip-path="url(#p60b0543fbf)" style="fill: none; stroke: #000000; stroke-width: 2; stroke-linecap: round"/>
    <path d="M 192.24373 28.495744 
L 181.240835 26.511731 
L 189.429783 18.899823 
z
" clip-path="url(#p60b0543fbf)" style="stroke: #000000; stroke-width: 2; stroke-linecap: round"/>
   </g>
   <g id="text_1">
    <!-- $P_0$ -->
    <g transform="translate(374.993801 52.911086) scale(0.2 -0.2)">
     <defs>
      <path id="Cmmi10-50" d="M 313 0 
Q 250 0 250 84 
Q 253 100 262 139 
Q 272 178 289 201 
Q 306 225 331 225 
Q 722 225 878 269 
Q 959 297 997 441 
L 1875 3956 
Q 1888 4019 1888 4044 
Q 1888 4113 1813 4122 
Q 1691 4147 1350 4147 
Q 1288 4147 1288 4231 
Q 1291 4247 1300 4286 
Q 1309 4325 1326 4348 
Q 1344 4372 1369 4372 
L 3578 4372 
Q 3881 4372 4165 4264 
Q 4450 4156 4631 3934 
Q 4813 3713 4813 3397 
Q 4813 2991 4527 2672 
Q 4241 2353 3814 2175 
Q 3388 1997 2988 1997 
L 1947 1997 
L 1556 416 
Q 1544 353 1544 325 
Q 1544 300 1551 283 
Q 1559 266 1573 261 
Q 1588 256 1619 250 
Q 1741 225 2081 225 
Q 2144 225 2144 141 
Q 2122 50 2109 25 
Q 2097 0 2034 0 
L 313 0 
z
M 1978 2188 
L 2875 2188 
Q 3497 2188 3822 2522 
Q 3988 2688 4092 3000 
Q 4197 3313 4197 3566 
Q 4197 3881 3956 4014 
Q 3716 4147 3359 4147 
L 2747 4147 
Q 2572 4147 2515 4117 
Q 2459 4088 2413 3928 
L 1978 2188 
z
" transform="scale(0.015625)"/>
      <path id="Cmr10-30" d="M 1600 -141 
Q 816 -141 533 504 
Q 250 1150 250 2041 
Q 250 2597 351 3087 
Q 453 3578 754 3920 
Q 1056 4263 1600 4263 
Q 2022 4263 2290 4056 
Q 2559 3850 2700 3523 
Q 2841 3197 2892 2823 
Q 2944 2450 2944 2041 
Q 2944 1491 2842 1011 
Q 2741 531 2444 195 
Q 2147 -141 1600 -141 
z
M 1600 25 
Q 1956 25 2131 390 
Q 2306 756 2347 1200 
Q 2388 1644 2388 2144 
Q 2388 2625 2347 3031 
Q 2306 3438 2132 3767 
Q 1959 4097 1600 4097 
Q 1238 4097 1063 3765 
Q 888 3434 847 3029 
Q 806 2625 806 2144 
Q 806 1788 823 1472 
Q 841 1156 916 820 
Q 991 484 1158 254 
Q 1325 25 1600 25 
z
" transform="scale(0.015625)"/>
     </defs>
     <use xlink:href="#Cmmi10-50" transform="translate(0 0.6875)"/>
     <use xlink:href="#Cmr10-30" transform="translate(64.208984 -16.31875) scale(0.7)"/>
    </g>
   </g>
   <g id="text_2">
    <!-- $P_1$ -->
    <g transform="translate(322.259283 42.236754) scale(0.2 -0.2)">
     <defs>
      <path id="Cmr10-31" d="M 594 0 
L 594 225 
Q 1394 225 1394 428 
L 1394 3788 
Q 1063 3628 556 3628 
L 556 3853 
Q 1341 3853 1741 4263 
L 1831 4263 
Q 1853 4263 1873 4245 
Q 1894 4228 1894 4206 
L 1894 428 
Q 1894 225 2694 225 
L 2694 0 
L 594 0 
z
" transform="scale(0.015625)"/>
     </defs>
     <use xlink:href="#Cmmi10-50" transform="translate(0 0.6875)"/>
     <use xlink:href="#Cmr10-31" transform="translate(64.208984 -16.31875) scale(0.7)"/>
    </g>
   </g>
  </g>
 </g>
 <defs>
  <clipPath id="p60b0543fbf">
   <rect x="7.2" y="7.2" width="439.2" height="221.94062"/>
  </clipPath>
 </defs>
</svg>
