<?xml version="1.0" encoding="utf-8" standalone="no"?>
<!DOCTYPE svg PUBLIC "-//W3C//DTD SVG 1.1//EN"
  "http://www.w3.org/Graphics/SVG/1.1/DTD/svg11.dtd">
<svg xmlns:xlink="http://www.w3.org/1999/xlink" width="453.6pt" height="236.32685pt" viewBox="0 0 453.6 236.32685" xmlns="http://www.w3.org/2000/svg" version="1.1">
 <metadata>
  <rdf:RDF xmlns:dc="http://purl.org/dc/elements/1.1/" xmlns:cc="http://creativecommons.org/ns#" xmlns:rdf="http://www.w3.org/1999/02/22-rdf-syntax-ns#">
   <cc:Work>
    <dc:type rdf:resource="http://purl.org/dc/dcmitype/StillImage"/>
    <dc:date>2025-04-09T13:39:27.134899</dc:date>
    <dc:format>image/svg+xml</dc:format>
    <dc:creator>
     <cc:Agent>
      <dc:title>Matplotlib v3.8.0, https://matplotlib.org/</dc:title>
     </cc:Agent>
    </dc:creator>
   </cc:Work>
  </rdf:RDF>
 </metadata>
 <defs>
  <style type="text/css">*{stroke-linejoin: round; stroke-linecap: butt}</style>
 </defs>
 <g id="figure_1">
  <g id="patch_1">
   <path d="M 0 236.32685 
L 453.6 236.32685 
L 453.6 0 
L 0 0 
z
" style="fill: #ffffff"/>
  </g>
  <g id="axes_1">
   <g id="patch_2">
    <path d="M 7.2 229.12685 
L 446.4 229.12685 
L 446.4 7.2 
L 7.2 7.2 
z
" style="fill: #ffffff"/>
   </g>
   <g id="PathCollection_1">
    <path d="M 20.707826 139.138397 
C 21.434115 139.138397 22.130754 138.849839 22.644318 138.336276 
C 23.157881 137.822712 23.446439 137.126073 23.446439 136.399784 
C 23.446439 135.673495 23.157881 134.976856 22.644318 134.463292 
C 22.130754 133.949729 21.434115 133.661171 20.707826 133.661171 
C 19.981538 133.661171 19.284898 133.949729 18.771334 134.463292 
C 18.257771 134.976856 17.969213 135.673495 17.969213 136.399784 
C 17.969213 137.126073 18.257771 137.822712 18.771334 138.336276 
C 19.284898 138.849839 19.981538 139.138397 20.707826 139.138397 
z
" clip-path="url(#p88c2f77432)"/>
   </g>
   <g id="matplotlib.axis_1"/>
   <g id="matplotlib.axis_2"/>
   <g id="line2d_1">
    <path d="M 437.953846 75.108984 
L 434.668827 70.831031 
L 431.080051 66.570915 
L 428.563873 63.802309 
L 425.469071 60.610875 
L 420.650433 56.049036 
L 415.196485 51.394704 
L 411.239369 48.307777 
L 406.201949 44.6855 
L 401.348139 41.48477 
L 395.520808 37.974814 
L 391.353341 35.665444 
L 384.830015 32.353599 
L 378.522393 29.470468 
L 370.556067 26.232022 
L 364.353564 23.993598 
L 357.369969 21.74446 
L 350.729721 19.852797 
L 344.851016 18.365584 
L 339.407018 17.136472 
L 329.533344 15.248507 
L 323.410064 14.286068 
L 313.775203 13.074706 
L 305.844482 12.341207 
L 299.641873 11.925507 
L 290.008419 11.54298 
L 285.212762 11.467824 
L 274.227837 11.573578 
L 266.467436 11.874291 
L 256.449335 12.530044 
L 249.863138 13.121499 
L 241.089309 14.102847 
L 231.217534 15.466772 
L 219.013163 17.527489 
L 209.231141 19.475335 
L 200.49192 21.437759 
L 190.32749 23.984903 
L 182.300238 26.199362 
L 172.977608 28.999165 
L 165.981727 31.264027 
L 155.406174 34.961533 
L 148.410377 37.594042 
L 138.789678 41.466977 
L 132.547804 44.14273 
L 125.157657 47.484775 
L 115.220341 52.293879 
L 106.94521 56.595243 
L 99.383709 60.782368 
L 92.506205 64.823082 
L 83.874496 70.241822 
L 75.981945 75.579018 
L 69.277538 80.443312 
L 65.443092 83.380644 
L 59.323971 88.336104 
L 53.372117 93.523363 
L 49.753029 96.886831 
L 44.747886 101.851413 
L 41.875072 104.894668 
L 37.377053 110.009028 
L 33.619993 114.689899 
L 30.43902 119.035106 
L 27.144004 124.036598 
L 25.142907 127.412827 
L 22.890087 131.647565 
L 21.570111 134.424324 
L 19.878498 138.456916 
L 18.513072 142.319863 
L 17.426508 146.091397 
L 16.748005 149.054443 
L 16.100412 152.924856 
L 15.783286 156.013491 
L 15.646154 159.394107 
L 15.796514 163.636755 
L 16.329112 167.917385 
L 16.95033 170.953328 
L 18.13092 175.063897 
L 19.055171 177.578452 
L 20.546506 180.946101 
L 22.708306 184.930891 
L 24.955195 188.385322 
L 26.902762 191.000633 
L 28.9866 193.51306 
L 31.478298 196.218358 
L 34.043481 198.736139 
L 37.671698 201.935215 
L 40.76064 204.391774 
L 44.146733 206.856313 
L 49.090531 210.104662 
L 52.532037 212.162134 
L 58.718156 215.51564 
L 63.511114 217.857382 
L 69.490471 220.516369 
L 76.347426 223.260978 
L 80.70594 224.859026 
L 80.70594 224.859026 
" clip-path="url(#p88c2f77432)" style="fill: none; stroke: #000000; stroke-width: 2; stroke-linecap: square"/>
   </g>
   <g id="patch_3">
    <path d="M 181.155359 26.529921 
Q 180.128377 26.831078 181.247108 26.503017 
" clip-path="url(#p88c2f77432)" style="fill: none; stroke: #000000; stroke-width: 2; stroke-linecap: round"/>
    <path d="M 192.250003 28.48703 
L 181.247108 26.503017 
L 189.436056 18.891109 
z
" clip-path="url(#p88c2f77432)" style="stroke: #000000; stroke-width: 2; stroke-linecap: round"/>
   </g>
   <g id="patch_4">
    <path d="M 20.707826 136.399784 
Q 52.258757 117.469225 81.892276 99.689114 
" clip-path="url(#p88c2f77432)" style="fill: none; stroke: #ff0000; stroke-width: 2; stroke-linecap: round"/>
    <path d="M 70.744868 100.546607 
L 81.892276 99.689114 
L 75.889826 109.121536 
z
" clip-path="url(#p88c2f77432)" style="fill: #ff0000; stroke: #ff0000; stroke-width: 2; stroke-linecap: round"/>
   </g>
   <g id="text_1">
    <!-- $Q$ -->
    <g transform="translate(31.638385 151.383813) scale(0.2 -0.2)">
     <defs>
      <path id="Cmmi10-51" d="M 1947 -141 
Q 1466 -141 1094 79 
Q 722 300 520 692 
Q 319 1084 319 1563 
Q 319 2259 714 2950 
Q 1109 3641 1756 4077 
Q 2403 4513 3109 4513 
Q 3475 4513 3778 4381 
Q 4081 4250 4290 4017 
Q 4500 3784 4614 3471 
Q 4728 3159 4728 2791 
Q 4728 2366 4581 1936 
Q 4434 1506 4171 1136 
Q 3909 766 3559 484 
Q 3209 203 2809 38 
Q 2850 -256 2934 -425 
Q 3019 -594 3256 -594 
Q 3506 -594 3726 -412 
Q 3947 -231 4006 13 
Q 4019 72 4078 72 
Q 4147 72 4147 -13 
Q 4100 -219 4008 -430 
Q 3916 -641 3786 -823 
Q 3656 -1006 3478 -1123 
Q 3300 -1241 3084 -1241 
Q 2547 -1241 2547 -550 
Q 2547 -509 2562 -332 
Q 2578 -156 2578 -44 
Q 2269 -141 1947 -141 
z
M 1709 300 
Q 1709 44 1991 44 
Q 2275 44 2591 184 
L 2591 244 
Q 2591 503 2509 648 
Q 2428 794 2194 794 
Q 2078 794 1964 723 
Q 1850 653 1779 539 
Q 1709 425 1709 300 
z
M 1544 288 
Q 1544 456 1637 612 
Q 1731 769 1881 864 
Q 2031 959 2203 959 
Q 2481 959 2607 771 
Q 2734 584 2778 281 
Q 3188 525 3500 978 
Q 3813 1431 3977 1973 
Q 4141 2516 4141 3003 
Q 4141 3356 4023 3656 
Q 3906 3956 3664 4140 
Q 3422 4325 3066 4325 
Q 2722 4325 2403 4156 
Q 2084 3988 1813 3706 
Q 1550 3434 1342 3032 
Q 1134 2631 1021 2193 
Q 909 1756 909 1356 
Q 909 947 1068 612 
Q 1228 278 1569 128 
Q 1544 194 1544 288 
z
" transform="scale(0.015625)"/>
     </defs>
     <use xlink:href="#Cmmi10-51" transform="translate(0 0.484375)"/>
    </g>
   </g>
  </g>
 </g>
 <defs>
  <clipPath id="p88c2f77432">
   <rect x="7.2" y="7.2" width="439.2" height="221.92685"/>
  </clipPath>
 </defs>
</svg>
