<?xml version="1.0" encoding="utf-8" standalone="no"?>
<!DOCTYPE svg PUBLIC "-//W3C//DTD SVG 1.1//EN"
  "http://www.w3.org/Graphics/SVG/1.1/DTD/svg11.dtd">
<svg xmlns:xlink="http://www.w3.org/1999/xlink" width="453.6pt" height="329.769009pt" viewBox="0 0 453.6 329.769009" xmlns="http://www.w3.org/2000/svg" version="1.1">
 <metadata>
  <rdf:RDF xmlns:dc="http://purl.org/dc/elements/1.1/" xmlns:cc="http://creativecommons.org/ns#" xmlns:rdf="http://www.w3.org/1999/02/22-rdf-syntax-ns#">
   <cc:Work>
    <dc:type rdf:resource="http://purl.org/dc/dcmitype/StillImage"/>
    <dc:date>2025-06-11T11:21:09.040228</dc:date>
    <dc:format>image/svg+xml</dc:format>
    <dc:creator>
     <cc:Agent>
      <dc:title>Matplotlib v3.8.0, https://matplotlib.org/</dc:title>
     </cc:Agent>
    </dc:creator>
   </cc:Work>
  </rdf:RDF>
 </metadata>
 <defs>
  <style type="text/css">*{stroke-linejoin: round; stroke-linecap: butt}</style>
 </defs>
 <g id="figure_1">
  <g id="patch_1">
   <path d="M 0 329.769009 
L 453.6 329.769009 
L 453.6 0 
L 0 0 
z
" style="fill: #ffffff"/>
  </g>
  <g id="axes_1">
   <g id="patch_2">
    <path d="M 7.2 322.569009 
L 446.4 322.569009 
L 446.4 7.2 
L 7.2 7.2 
z
" style="fill: #ffffff"/>
   </g>
   <g id="PathCollection_1">
    <path d="M 230.713491 134.536858 
C 231.43978 134.536858 232.136419 134.248301 232.649983 133.734737 
C 233.163547 133.221173 233.452104 132.524534 233.452104 131.798245 
C 233.452104 131.071957 233.163547 130.375317 232.649983 129.861754 
C 232.136419 129.34819 231.43978 129.059633 230.713491 129.059633 
C 229.987203 129.059633 229.290563 129.34819 228.777 129.861754 
C 228.263436 130.375317 227.974878 131.071957 227.974878 131.798245 
C 227.974878 132.524534 228.263436 133.221173 228.777 133.734737 
C 229.290563 134.248301 229.987203 134.536858 230.713491 134.536858 
z
" clip-path="url(#p82c21fbdb7)"/>
   </g>
   <g id="matplotlib.axis_1"/>
   <g id="matplotlib.axis_2"/>
   <g id="line2d_1">
    <path d="M 15.646154 316.50422 
L 15.779689 305.411442 
L 16.024391 299.366524 
L 16.445138 293.351238 
L 16.903639 288.839276 
L 17.807485 282.421785 
L 18.726224 277.523873 
L 19.703991 273.276572 
L 20.728805 269.497055 
L 22.258036 264.697461 
L 24.020987 260.000844 
L 25.730805 256.033635 
L 27.376191 252.615034 
L 29.370198 248.871436 
L 32.357222 243.881214 
L 35.860593 238.7252 
L 38.217537 235.578199 
L 41.965583 230.988071 
L 46.237528 226.248078 
L 50.549689 221.880093 
L 55.96947 216.857702 
L 60.572765 212.921735 
L 66.179684 208.460106 
L 72.060606 204.105022 
L 77.523633 200.307886 
L 83.908646 196.1256 
L 91.241698 191.60991 
L 99.907457 186.605342 
L 108.223206 182.086212 
L 117.749939 177.195048 
L 127.130732 172.631717 
L 137.864098 167.67091 
L 149.813935 162.424414 
L 160.507379 157.939055 
L 172.804821 152.98865 
L 186.539393 147.682543 
L 204.031279 141.206238 
L 224.421777 133.97383 
L 247.952202 125.945631 
L 275.952527 116.68705 
L 346.488735 93.577967 
L 365.524234 87.013475 
L 380.772416 81.469111 
L 391.917144 77.160063 
L 401.119575 73.355306 
L 407.294915 70.623281 
L 414.179347 67.334606 
L 419.247799 64.678959 
L 423.547442 62.194701 
L 426.69971 60.174837 
L 429.549266 58.131629 
L 432.068284 56.056349 
L 434.23825 53.918444 
L 435.804507 51.98205 
L 436.549373 50.823345 
L 437.248495 49.42083 
L 437.71384 48.027112 
L 437.953846 46.393186 
L 437.884507 44.994367 
L 437.550018 43.597468 
L 436.871705 42.079083 
L 435.756163 40.443448 
L 434.543924 39.116639 
L 432.923302 37.693451 
L 431.401875 36.571134 
L 429.281233 35.22438 
L 425.86843 33.398236 
L 421.876669 31.602072 
L 418.305328 30.201981 
L 413.160991 28.424586 
L 406.616048 26.454057 
L 400.442053 24.810529 
L 391.764398 22.75812 
L 382.262239 20.767971 
L 372.02553 18.849633 
L 359.682089 16.773889 
L 344.739553 14.527167 
L 335.579108 13.264789 
L 335.579108 13.264789 
" clip-path="url(#p82c21fbdb7)" style="fill: none; stroke: #000000; stroke-width: 2; stroke-linecap: square"/>
   </g>
   <g id="patch_3">
    <path d="M 230.713491 131.798245 
Q 307.330532 105.445946 381.833082 79.820922 
" clip-path="url(#p82c21fbdb7)" style="fill: none; stroke: #800080; stroke-width: 2; stroke-linecap: round"/>
    <path d="M 370.750555 78.345252 
L 381.833082 79.820922 
L 374.00303 87.801541 
z
" clip-path="url(#p82c21fbdb7)" style="fill: #800080; stroke: #800080; stroke-width: 2; stroke-linecap: round"/>
   </g>
   <g id="patch_4">
    <path d="M 230.713491 131.798245 
Q 257.065791 208.415286 282.690815 282.917836 
" clip-path="url(#p82c21fbdb7)" style="fill: none; stroke: #ff0000; stroke-width: 2; stroke-linecap: round"/>
    <path d="M 284.166485 271.83531 
L 282.690815 282.917836 
L 274.710196 275.087784 
z
" clip-path="url(#p82c21fbdb7)" style="fill: #ff0000; stroke: #ff0000; stroke-width: 2; stroke-linecap: round"/>
   </g>
   <g id="patch_5">
    <path d="M 230.713491 131.798245 
Q 276.340893 116.104779 319.853804 101.138588 
" clip-path="url(#p82c21fbdb7)" style="fill: none; stroke: #0000ff; stroke-width: 2; stroke-linecap: round"/>
    <path d="M 308.771277 99.662918 
L 319.853804 101.138588 
L 312.023752 109.119207 
z
" clip-path="url(#p82c21fbdb7)" style="fill: #0000ff; stroke: #0000ff; stroke-width: 2; stroke-linecap: round"/>
   </g>
   <g id="patch_6">
    <path d="M 230.713491 131.798245 
Q 244.37233 171.510143 257.303893 209.107549 
" clip-path="url(#p82c21fbdb7)" style="fill: none; stroke: #ffa500; stroke-width: 2; stroke-linecap: round"/>
    <path d="M 258.779564 198.025022 
L 257.303893 209.107549 
L 249.323274 201.277497 
z
" clip-path="url(#p82c21fbdb7)" style="fill: #ffa500; stroke: #ffa500; stroke-width: 2; stroke-linecap: round"/>
   </g>
   <g id="patch_7">
    <path d="M 230.713491 131.798245 
Q 289.999732 155.816676 347.213519 178.995501 
" clip-path="url(#p82c21fbdb7)" style="fill: none; stroke: #008000; stroke-width: 2; stroke-linecap: round"/>
    <path d="M 339.822642 170.606524 
L 347.213519 178.995501 
L 336.067811 179.874816 
z
" clip-path="url(#p82c21fbdb7)" style="fill: #008000; stroke: #008000; stroke-width: 2; stroke-linecap: round"/>
   </g>
  </g>
 </g>
 <defs>
  <clipPath id="p82c21fbdb7">
   <rect x="7.2" y="7.2" width="439.2" height="315.369009"/>
  </clipPath>
 </defs>
</svg>
