<?xml version="1.0" encoding="utf-8" standalone="no"?>
<!DOCTYPE svg PUBLIC "-//W3C//DTD SVG 1.1//EN"
  "http://www.w3.org/Graphics/SVG/1.1/DTD/svg11.dtd">
<svg xmlns:xlink="http://www.w3.org/1999/xlink" width="453.6pt" height="236.339051pt" viewBox="0 0 453.6 236.339051" xmlns="http://www.w3.org/2000/svg" version="1.1">
 <metadata>
  <rdf:RDF xmlns:dc="http://purl.org/dc/elements/1.1/" xmlns:cc="http://creativecommons.org/ns#" xmlns:rdf="http://www.w3.org/1999/02/22-rdf-syntax-ns#">
   <cc:Work>
    <dc:type rdf:resource="http://purl.org/dc/dcmitype/StillImage"/>
    <dc:date>2025-06-11T11:21:15.969463</dc:date>
    <dc:format>image/svg+xml</dc:format>
    <dc:creator>
     <cc:Agent>
      <dc:title>Matplotlib v3.8.0, https://matplotlib.org/</dc:title>
     </cc:Agent>
    </dc:creator>
   </cc:Work>
  </rdf:RDF>
 </metadata>
 <defs>
  <style type="text/css">*{stroke-linejoin: round; stroke-linecap: butt}</style>
 </defs>
 <g id="figure_1">
  <g id="patch_1">
   <path d="M 0 236.339051 
L 453.6 236.339051 
L 453.6 0 
L 0 0 
z
" style="fill: #ffffff"/>
  </g>
  <g id="axes_1">
   <g id="patch_2">
    <path d="M 7.2 229.139051 
L 446.4 229.139051 
L 446.4 7.2 
L 7.2 7.2 
z
" style="fill: #ffffff"/>
   </g>
   <g id="PathCollection_1">
    <path d="M 20.703204 139.149384 
C 21.429493 139.149384 22.126133 138.860826 22.639696 138.347263 
C 23.15326 137.833699 23.441817 137.137059 23.441817 136.410771 
C 23.441817 135.684482 23.15326 134.987843 22.639696 134.474279 
C 22.126133 133.960716 21.429493 133.672158 20.703204 133.672158 
C 19.976916 133.672158 19.280276 133.960716 18.766713 134.474279 
C 18.253149 134.987843 17.964592 135.684482 17.964592 136.410771 
C 17.964592 137.137059 18.253149 137.833699 18.766713 138.347263 
C 19.280276 138.860826 19.976916 139.149384 20.703204 139.149384 
z
" clip-path="url(#pee1320271b)"/>
   </g>
   <g id="matplotlib.axis_1"/>
   <g id="matplotlib.axis_2"/>
   <g id="line2d_1">
    <path d="M 437.953846 75.119292 
L 434.785585 70.986758 
L 431.2955 66.82618 
L 428.728536 63.988789 
L 423.567852 58.765793 
L 418.958567 54.561871 
L 413.994227 50.44297 
L 410.718282 47.927983 
L 404.417774 43.487932 
L 398.69142 39.852108 
L 392.615818 36.358497 
L 388.857142 34.36632 
L 381.580337 30.841158 
L 377.535731 29.055927 
L 369.980444 26.024293 
L 363.225364 23.62138 
L 358.463385 22.08852 
L 350.705222 19.856197 
L 344.297756 18.244223 
L 338.060739 16.863539 
L 331.51755 15.603753 
L 323.056114 14.244928 
L 315.15396 13.235857 
L 309.905919 12.697698 
L 303.172835 12.155211 
L 293.739261 11.663598 
L 288.01052 11.512161 
L 278.700032 11.494144 
L 269.288472 11.753279 
L 264.182565 12.007089 
L 256.822408 12.50977 
L 246.039501 13.531602 
L 234.179825 15.038177 
L 223.101362 16.80062 
L 212.849075 18.733473 
L 202.871994 20.891617 
L 193.441103 23.183327 
L 184.376199 25.61835 
L 174.552479 28.517699 
L 165.693934 31.369066 
L 157.083299 34.361509 
L 150.671986 36.735075 
L 139.788816 41.059339 
L 130.952566 44.856349 
L 122.227059 48.872763 
L 114.352845 52.739972 
L 106.8539 56.652431 
L 101.178658 59.773108 
L 92.701156 64.713189 
L 83.760336 70.323983 
L 78.408176 73.903738 
L 71.093923 79.100144 
L 63.625737 84.823397 
L 58.2871 89.218725 
L 52.195925 94.604226 
L 48.852613 97.757895 
L 45.878046 100.701417 
L 42.088459 104.669031 
L 38.218894 109.020714 
L 34.432631 113.645327 
L 30.216272 119.359632 
L 26.533022 125.038995 
L 24.104737 129.299888 
L 22.643457 132.148494 
L 21.172601 135.317227 
L 19.290409 140.032615 
L 18.006615 143.967608 
L 16.896803 148.331735 
L 16.20501 152.149935 
L 15.839141 155.273163 
L 15.651131 158.722828 
L 15.726317 162.700038 
L 16.109264 166.545523 
L 16.74589 170.092426 
L 17.963438 174.582483 
L 19.180514 177.912234 
L 20.584819 181.045461 
L 21.833051 183.434254 
L 24.165298 187.250997 
L 26.534473 190.545533 
L 28.776932 193.288468 
L 30.79394 195.519885 
L 33.961813 198.675448 
L 37.459134 201.773252 
L 41.0508 204.626773 
L 45.708478 207.938409 
L 49.513703 210.380423 
L 54.060487 213.043554 
L 58.666521 215.503285 
L 62.631195 217.456323 
L 68.178611 219.96941 
L 74.18625 222.441451 
L 80.701983 224.870992 
L 80.701983 224.870992 
" clip-path="url(#pee1320271b)" style="fill: none; stroke: #000000; stroke-width: 2; stroke-linecap: square"/>
   </g>
   <g id="patch_3">
    <path d="M 181.152515 26.539691 
Q 180.125521 26.840851 181.244241 26.512793 
" clip-path="url(#pee1320271b)" style="fill: none; stroke: #000000; stroke-width: 2; stroke-linecap: round"/>
    <path d="M 192.247136 28.496806 
L 181.244241 26.512793 
L 189.433188 18.900885 
z
" clip-path="url(#pee1320271b)" style="stroke: #000000; stroke-width: 2; stroke-linecap: round"/>
   </g>
   <g id="patch_4">
    <path d="M 20.703204 136.410771 
Q 52.254485 117.480002 81.888353 99.699682 
" clip-path="url(#pee1320271b)" style="fill: none; stroke: #ff0000; stroke-width: 2; stroke-linecap: round"/>
    <path d="M 70.740945 100.557174 
L 81.888353 99.699682 
L 75.885903 109.132104 
z
" clip-path="url(#pee1320271b)" style="fill: #ff0000; stroke: #ff0000; stroke-width: 2; stroke-linecap: round"/>
   </g>
   <g id="text_1">
    <!-- $Q$ -->
    <g transform="translate(31.633973 151.394905) scale(0.2 -0.2)">
     <defs>
      <path id="Cmmi10-51" d="M 1947 -141 
Q 1466 -141 1094 79 
Q 722 300 520 692 
Q 319 1084 319 1563 
Q 319 2259 714 2950 
Q 1109 3641 1756 4077 
Q 2403 4513 3109 4513 
Q 3475 4513 3778 4381 
Q 4081 4250 4290 4017 
Q 4500 3784 4614 3471 
Q 4728 3159 4728 2791 
Q 4728 2366 4581 1936 
Q 4434 1506 4171 1136 
Q 3909 766 3559 484 
Q 3209 203 2809 38 
Q 2850 -256 2934 -425 
Q 3019 -594 3256 -594 
Q 3506 -594 3726 -412 
Q 3947 -231 4006 13 
Q 4019 72 4078 72 
Q 4147 72 4147 -13 
Q 4100 -219 4008 -430 
Q 3916 -641 3786 -823 
Q 3656 -1006 3478 -1123 
Q 3300 -1241 3084 -1241 
Q 2547 -1241 2547 -550 
Q 2547 -509 2562 -332 
Q 2578 -156 2578 -44 
Q 2269 -141 1947 -141 
z
M 1709 300 
Q 1709 44 1991 44 
Q 2275 44 2591 184 
L 2591 244 
Q 2591 503 2509 648 
Q 2428 794 2194 794 
Q 2078 794 1964 723 
Q 1850 653 1779 539 
Q 1709 425 1709 300 
z
M 1544 288 
Q 1544 456 1637 612 
Q 1731 769 1881 864 
Q 2031 959 2203 959 
Q 2481 959 2607 771 
Q 2734 584 2778 281 
Q 3188 525 3500 978 
Q 3813 1431 3977 1973 
Q 4141 2516 4141 3003 
Q 4141 3356 4023 3656 
Q 3906 3956 3664 4140 
Q 3422 4325 3066 4325 
Q 2722 4325 2403 4156 
Q 2084 3988 1813 3706 
Q 1550 3434 1342 3032 
Q 1134 2631 1021 2193 
Q 909 1756 909 1356 
Q 909 947 1068 612 
Q 1228 278 1569 128 
Q 1544 194 1544 288 
z
" transform="scale(0.015625)"/>
     </defs>
     <use xlink:href="#Cmmi10-51" transform="translate(0 0.484375)"/>
    </g>
   </g>
  </g>
 </g>
 <defs>
  <clipPath id="pee1320271b">
   <rect x="7.2" y="7.2" width="439.2" height="221.939051"/>
  </clipPath>
 </defs>
</svg>
