<?xml version="1.0" encoding="utf-8" standalone="no"?>
<!DOCTYPE svg PUBLIC "-//W3C//DTD SVG 1.1//EN"
  "http://www.w3.org/Graphics/SVG/1.1/DTD/svg11.dtd">
<svg xmlns:xlink="http://www.w3.org/1999/xlink" width="324.659239pt" height="337.037442pt" viewBox="0 0 324.659239 337.037442" xmlns="http://www.w3.org/2000/svg" version="1.1">
 <metadata>
  <rdf:RDF xmlns:dc="http://purl.org/dc/elements/1.1/" xmlns:cc="http://creativecommons.org/ns#" xmlns:rdf="http://www.w3.org/1999/02/22-rdf-syntax-ns#">
   <cc:Work>
    <dc:type rdf:resource="http://purl.org/dc/dcmitype/StillImage"/>
    <dc:date>2025-06-04T11:09:29.610941</dc:date>
    <dc:format>image/svg+xml</dc:format>
    <dc:creator>
     <cc:Agent>
      <dc:title>Matplotlib v3.8.0, https://matplotlib.org/</dc:title>
     </cc:Agent>
    </dc:creator>
   </cc:Work>
  </rdf:RDF>
 </metadata>
 <defs>
  <style type="text/css">*{stroke-linejoin: round; stroke-linecap: butt}</style>
 </defs>
 <g id="figure_1">
  <g id="patch_1">
   <path d="M 0 337.037442 
L 324.659239 337.037442 
L 324.659239 0 
L 0 0 
z
" style="fill: #ffffff"/>
  </g>
  <g id="axes_1">
   <g id="patch_2">
    <path d="M 8.890975 318.840038 
L 304.319239 318.840038 
L 304.319239 23.4425 
L 8.890975 23.4425 
z
" style="fill: #ffffff"/>
   </g>
   <g id="patch_3">
    <path d="M 156.60451 313.159317 
L 165.522862 312.879046 
L 174.406017 312.039341 
L 183.218918 310.643514 
L 191.926784 308.697076 
L 200.495249 306.207706 
L 208.890498 303.185231 
L 217.079397 299.641578 
L 225.02963 295.590732 
L 232.70982 291.04868 
L 240.089657 286.033348 
L 247.140017 280.564528 
L 253.833074 274.663805 
L 260.142414 268.354464 
L 266.043138 261.661407 
L 271.511957 254.611048 
L 276.527289 247.231211 
L 281.069341 239.551021 
L 285.120187 231.600788 
L 288.66384 223.411888 
L 291.686316 215.01664 
L 294.175685 206.448175 
L 296.122124 197.740309 
L 297.51795 188.927408 
L 298.357655 180.044252 
L 298.637926 171.1259 
z
" clip-path="url(#pa37f89a7c3)" style="fill: #add8e6; stroke: #000000; stroke-width: 3; stroke-linejoin: miter"/>
   </g>
   <g id="matplotlib.axis_1">
    <g id="xtick_1">
     <g id="line2d_1">
      <defs>
       <path id="m760efe078c" d="M 0 0 
L 0 3.5 
" style="stroke: #000000; stroke-width: 0.8"/>
      </defs>
      <g>
       <use xlink:href="#m760efe078c" x="14.571094" y="313.159317" style="stroke: #000000; stroke-width: 0.8"/>
      </g>
     </g>
     <g id="text_1">
      <!-- −1 -->
      <g transform="translate(7.2 327.757754) scale(0.1 -0.1)">
       <defs>
        <path id="DejaVuSans-2212" d="M 678 2272 
L 4684 2272 
L 4684 1741 
L 678 1741 
L 678 2272 
z
" transform="scale(0.015625)"/>
        <path id="DejaVuSans-31" d="M 794 531 
L 1825 531 
L 1825 4091 
L 703 3866 
L 703 4441 
L 1819 4666 
L 2450 4666 
L 2450 531 
L 3481 531 
L 3481 0 
L 794 0 
L 794 531 
z
" transform="scale(0.015625)"/>
       </defs>
       <use xlink:href="#DejaVuSans-2212"/>
       <use xlink:href="#DejaVuSans-31" x="83.789062"/>
      </g>
     </g>
    </g>
    <g id="xtick_2">
     <g id="line2d_2">
      <g>
       <use xlink:href="#m760efe078c" x="298.637926" y="313.159317" style="stroke: #000000; stroke-width: 0.8"/>
      </g>
     </g>
     <g id="text_2">
      <!-- 1 -->
      <g transform="translate(295.456676 327.757754) scale(0.1 -0.1)">
       <use xlink:href="#DejaVuSans-31"/>
      </g>
     </g>
    </g>
    <g id="text_3">
     <!-- $x$ -->
     <g transform="translate(312.319239 313.159317) scale(0.16 -0.16)">
      <defs>
       <path id="Cmmi10-78" d="M 500 184 
Q 613 97 819 97 
Q 1019 97 1172 289 
Q 1325 481 1381 709 
L 1672 1844 
Q 1741 2153 1741 2266 
Q 1741 2425 1652 2544 
Q 1563 2663 1403 2663 
Q 1200 2663 1022 2536 
Q 844 2409 722 2214 
Q 600 2019 550 1819 
Q 538 1778 500 1778 
L 422 1778 
Q 372 1778 372 1838 
L 372 1856 
Q 434 2094 584 2320 
Q 734 2547 951 2687 
Q 1169 2828 1416 2828 
Q 1650 2828 1839 2703 
Q 2028 2578 2106 2363 
Q 2216 2559 2386 2693 
Q 2556 2828 2759 2828 
Q 2897 2828 3040 2779 
Q 3184 2731 3275 2631 
Q 3366 2531 3366 2381 
Q 3366 2219 3261 2101 
Q 3156 1984 2994 1984 
Q 2891 1984 2822 2050 
Q 2753 2116 2753 2216 
Q 2753 2350 2845 2451 
Q 2938 2553 3066 2572 
Q 2950 2663 2747 2663 
Q 2541 2663 2389 2472 
Q 2238 2281 2175 2047 
L 1894 916 
Q 1825 659 1825 494 
Q 1825 331 1917 214 
Q 2009 97 2163 97 
Q 2463 97 2698 361 
Q 2934 625 3009 941 
Q 3022 978 3059 978 
L 3138 978 
Q 3163 978 3178 961 
Q 3194 944 3194 922 
Q 3194 916 3188 903 
Q 3097 522 2806 225 
Q 2516 -72 2150 -72 
Q 1916 -72 1727 54 
Q 1538 181 1459 397 
Q 1359 209 1182 68 
Q 1006 -72 806 -72 
Q 669 -72 523 -23 
Q 378 25 287 125 
Q 197 225 197 378 
Q 197 528 301 651 
Q 406 775 563 775 
Q 669 775 741 711 
Q 813 647 813 544 
Q 813 409 723 309 
Q 634 209 500 184 
z
" transform="scale(0.015625)"/>
      </defs>
      <use xlink:href="#Cmmi10-78" transform="translate(0 0.8125)"/>
     </g>
    </g>
   </g>
   <g id="matplotlib.axis_2">
    <g id="ytick_1">
     <g id="line2d_3">
      <defs>
       <path id="m9fb937b22c" d="M 0 0 
L -3.5 0 
" style="stroke: #000000; stroke-width: 0.8"/>
      </defs>
      <g>
       <use xlink:href="#m9fb937b22c" x="156.60451" y="313.159317" style="stroke: #000000; stroke-width: 0.8"/>
      </g>
     </g>
    </g>
    <g id="ytick_2">
     <g id="line2d_4">
      <g>
       <use xlink:href="#m9fb937b22c" x="156.60451" y="171.1259" style="stroke: #000000; stroke-width: 0.8"/>
      </g>
     </g>
     <g id="text_4">
      <!-- 1 -->
      <g transform="translate(143.24201 174.925119) scale(0.1 -0.1)">
       <use xlink:href="#DejaVuSans-31"/>
      </g>
     </g>
    </g>
    <g id="ytick_3">
     <g id="line2d_5">
      <g>
       <use xlink:href="#m9fb937b22c" x="156.60451" y="29.092484" style="stroke: #000000; stroke-width: 0.8"/>
      </g>
     </g>
     <g id="text_5">
      <!-- 2 -->
      <g transform="translate(143.24201 32.891703) scale(0.1 -0.1)">
       <defs>
        <path id="DejaVuSans-32" d="M 1228 531 
L 3431 531 
L 3431 0 
L 469 0 
L 469 531 
Q 828 903 1448 1529 
Q 2069 2156 2228 2338 
Q 2531 2678 2651 2914 
Q 2772 3150 2772 3378 
Q 2772 3750 2511 3984 
Q 2250 4219 1831 4219 
Q 1534 4219 1204 4116 
Q 875 4013 500 3803 
L 500 4441 
Q 881 4594 1212 4672 
Q 1544 4750 1819 4750 
Q 2544 4750 2975 4387 
Q 3406 4025 3406 3419 
Q 3406 3131 3298 2873 
Q 3191 2616 2906 2266 
Q 2828 2175 2409 1742 
Q 1991 1309 1228 531 
z
" transform="scale(0.015625)"/>
       </defs>
       <use xlink:href="#DejaVuSans-32"/>
      </g>
     </g>
    </g>
    <g id="text_6">
     <!-- $y$ -->
     <g transform="translate(152.60451 12.0825) scale(0.16 -0.16)">
      <defs>
       <path id="Cmmi10-79" d="M 538 -916 
Q 672 -1147 1006 -1147 
Q 1309 -1147 1531 -934 
Q 1753 -722 1889 -420 
Q 2025 -119 2100 197 
Q 1816 -72 1484 -72 
Q 1231 -72 1053 15 
Q 875 103 776 276 
Q 678 450 678 697 
Q 678 906 734 1126 
Q 791 1347 892 1617 
Q 994 1888 1069 2088 
Q 1153 2322 1153 2472 
Q 1153 2663 1013 2663 
Q 759 2663 595 2402 
Q 431 2141 353 1819 
Q 341 1778 300 1778 
L 225 1778 
Q 172 1778 172 1838 
L 172 1856 
Q 275 2238 487 2533 
Q 700 2828 1025 2828 
Q 1253 2828 1411 2678 
Q 1569 2528 1569 2297 
Q 1569 2178 1516 2047 
Q 1488 1969 1388 1706 
Q 1288 1444 1234 1272 
Q 1181 1100 1147 934 
Q 1113 769 1113 603 
Q 1113 391 1203 244 
Q 1294 97 1491 97 
Q 1888 97 2203 581 
L 2688 2553 
Q 2709 2638 2787 2698 
Q 2866 2759 2956 2759 
Q 3034 2759 3092 2709 
Q 3150 2659 3150 2578 
Q 3150 2541 3144 2528 
L 2509 -19 
Q 2425 -347 2200 -647 
Q 1975 -947 1658 -1130 
Q 1341 -1313 997 -1313 
Q 831 -1313 668 -1248 
Q 506 -1184 406 -1056 
Q 306 -928 306 -756 
Q 306 -581 409 -453 
Q 513 -325 684 -325 
Q 788 -325 858 -389 
Q 928 -453 928 -556 
Q 928 -703 818 -812 
Q 709 -922 563 -922 
Q 556 -919 550 -917 
Q 544 -916 538 -916 
z
" transform="scale(0.015625)"/>
      </defs>
      <use xlink:href="#Cmmi10-79" transform="translate(0 0.8125)"/>
     </g>
    </g>
   </g>
   <g id="line2d_6">
    <path d="M 298.637926 171.1259 
L 298.608768 168.248039 
L 298.416781 163.203077 
L 298.116292 158.964209 
L 297.176724 150.804882 
L 295.649621 142.144038 
L 294.203351 135.911555 
L 292.872709 131.070074 
L 290.158611 122.785509 
L 287.564917 116.145332 
L 284.437532 109.221057 
L 283.545112 107.411108 
L 280.550042 101.764554 
L 276.447139 94.894441 
L 273.683519 90.714478 
L 271.460649 87.570179 
L 266.188643 80.766568 
L 262.314825 76.263787 
L 259.581994 73.303975 
L 254.892726 68.593379 
L 250.041525 64.153869 
L 245.184558 60.098578 
L 240.290317 56.364509 
L 233.669906 51.817829 
L 229.587014 49.277448 
L 225.31797 46.820021 
L 220.710357 44.382334 
L 213.154153 40.835344 
L 210.030754 39.523743 
L 205.4463 37.754349 
L 198.977413 35.560314 
L 192.531503 33.711409 
L 187.229657 32.433465 
L 182.707482 31.511696 
L 177.326135 30.61218 
L 173.819236 30.139573 
L 165.977941 29.40212 
L 162.051969 29.196987 
L 152.287687 29.1581 
L 148.211673 29.34067 
L 141.44754 29.903531 
L 135.33408 30.694208 
L 125.13663 32.62224 
L 118.538079 34.288632 
L 112.809103 36.013156 
L 107.868289 37.715736 
L 102.582124 39.767333 
L 95.422245 42.945474 
L 91.355871 44.966849 
L 84.688743 48.644826 
L 76.253741 54.005257 
L 73.433459 55.990903 
L 69.696051 58.785297 
L 65.933571 61.799453 
L 60.774092 66.292593 
L 55.642042 71.225593 
L 51.142384 75.987941 
L 47.629508 80.032869 
L 44.541472 83.859832 
L 40.853916 88.813743 
L 36.325744 95.584456 
L 34.291778 98.924191 
L 30.672273 105.440567 
L 28.196262 110.423239 
L 25.35472 116.83977 
L 22.771016 123.564497 
L 20.492406 130.54282 
L 18.939994 136.169179 
L 17.286194 143.487195 
L 16.20789 149.625193 
L 15.346345 156.306245 
L 14.784621 163.340627 
L 14.572288 170.543575 
L 14.738615 178.02222 
L 15.092231 183.281812 
L 15.850365 190.145944 
L 17.030911 197.445128 
L 18.773703 205.421089 
L 20.875186 212.971355 
L 21.991626 216.43443 
L 24.47132 223.224954 
L 27.400235 230.115278 
L 28.376493 232.208361 
L 30.886077 237.219524 
L 33.191879 241.431049 
L 37.967849 249.220932 
L 43.269347 256.733331 
L 45.71161 259.874173 
L 50.61106 265.67155 
L 56.611735 271.996789 
L 61.07298 276.231648 
L 65.053185 279.716168 
L 71.47132 284.817727 
L 77.380904 289.011912 
L 83.953424 293.172248 
L 88.839415 295.951311 
L 95.718444 299.447287 
L 101.863522 302.186633 
L 107.243387 304.30612 
L 111.976642 305.965971 
L 115.526332 307.089405 
L 122.955706 309.115934 
L 131.211323 310.870945 
L 140.250211 312.214625 
L 144.510187 312.643456 
L 152.295149 313.093928 
L 155.312047 313.153436 
L 164.52121 312.938513 
L 168.532864 312.657542 
L 175.431368 311.906015 
L 181.463153 310.967022 
L 188.243675 309.590533 
L 191.492395 308.807877 
L 196.882935 307.328469 
L 200.669689 306.150903 
L 205.951657 304.311299 
L 213.173017 301.408268 
L 216.389589 299.963921 
L 223.489934 296.424868 
L 229.618691 292.955374 
L 235.066412 289.520247 
L 241.649838 284.883465 
L 249.291899 278.748106 
L 251.798565 276.537395 
L 257.099899 271.496055 
L 261.600498 266.77805 
L 266.859259 260.665733 
L 270.498269 255.988748 
L 275.265471 249.184005 
L 277.494919 245.684604 
L 279.621199 242.121573 
L 281.819594 238.16823 
L 283.813421 234.303303 
L 287.048171 227.321474 
L 289.785584 220.484716 
L 291.02292 217.008167 
L 292.281922 213.139363 
L 294.207138 206.325448 
L 296.025413 198.242371 
L 296.782207 194.010493 
L 297.452824 189.43556 
L 298.307463 180.809095 
L 298.637926 171.1259 
L 298.637926 171.1259 
" clip-path="url(#pa37f89a7c3)" style="fill: none; stroke: #000000; stroke-width: 2; stroke-linecap: square"/>
   </g>
   <g id="patch_4">
    <path d="M 156.60451 318.840038 
L 156.60451 23.4425 
" style="fill: none; stroke: #000000; stroke-width: 0.8; stroke-linejoin: miter; stroke-linecap: square"/>
   </g>
   <g id="patch_5">
    <path d="M 8.890975 313.159317 
L 304.319239 313.159317 
" style="fill: none; stroke: #000000; stroke-width: 0.8; stroke-linejoin: miter; stroke-linecap: square"/>
   </g>
  </g>
 </g>
 <defs>
  <clipPath id="pa37f89a7c3">
   <rect x="8.890975" y="23.4425" width="295.428264" height="295.397538"/>
  </clipPath>
 </defs>
</svg>
