<?xml version="1.0" encoding="utf-8" standalone="no"?>
<!DOCTYPE svg PUBLIC "-//W3C//DTD SVG 1.1//EN"
  "http://www.w3.org/Graphics/SVG/1.1/DTD/svg11.dtd">
<svg xmlns:xlink="http://www.w3.org/1999/xlink" width="325.696488pt" height="338.096672pt" viewBox="0 0 325.696488 338.096672" xmlns="http://www.w3.org/2000/svg" version="1.1">
 <metadata>
  <rdf:RDF xmlns:dc="http://purl.org/dc/elements/1.1/" xmlns:cc="http://creativecommons.org/ns#" xmlns:rdf="http://www.w3.org/1999/02/22-rdf-syntax-ns#">
   <cc:Work>
    <dc:type rdf:resource="http://purl.org/dc/dcmitype/StillImage"/>
    <dc:date>2025-06-25T15:24:23.588321</dc:date>
    <dc:format>image/svg+xml</dc:format>
    <dc:creator>
     <cc:Agent>
      <dc:title>Matplotlib v3.10.3, https://matplotlib.org/</dc:title>
     </cc:Agent>
    </dc:creator>
   </cc:Work>
  </rdf:RDF>
 </metadata>
 <defs>
  <style type="text/css">*{stroke-linejoin: round; stroke-linecap: butt}</style>
 </defs>
 <g id="figure_1">
  <g id="patch_1">
   <path d="M 0 338.096672 
L 325.696488 338.096672 
L 325.696488 0 
L 0 0 
z
" style="fill: #ffffff"/>
  </g>
  <g id="axes_1">
   <g id="patch_2">
    <path d="M 8.876394 319.920038 
L 305.356488 319.920038 
L 305.356488 23.4425 
L 8.876394 23.4425 
z
" style="fill: #ffffff"/>
   </g>
   <g id="patch_3">
    <path d="M 157.113021 314.218547 
L 166.063302 313.937273 
L 174.978261 313.094562 
L 183.822714 311.693738 
L 192.561757 309.740331 
L 201.160899 307.242049 
L 209.586204 304.208752 
L 217.804422 300.652412 
L 225.783118 296.587063 
L 233.490805 292.02875 
L 240.897063 286.995462 
L 247.972665 281.507063 
L 254.689684 275.585213 
L 261.021614 269.253284 
L 266.943463 262.536264 
L 272.431862 255.460663 
L 277.46515 248.054404 
L 282.023464 240.346717 
L 286.088813 232.368021 
L 289.645153 224.149803 
L 292.678449 215.724498 
L 295.176731 207.125356 
L 297.130138 198.386314 
L 298.530962 189.541861 
L 299.373674 180.626902 
L 299.654948 171.67662 
z
" clip-path="url(#p40019423c6)" style="fill: #add8e6; stroke: #000000; stroke-width: 3; stroke-linejoin: miter"/>
   </g>
   <g id="matplotlib.axis_1">
    <g id="xtick_1">
     <g id="line2d_1">
      <defs>
       <path id="m1c0d36da0b" d="M 0 0 
L 0 3.5 
" style="stroke: #000000; stroke-width: 0.8"/>
      </defs>
      <g>
       <use xlink:href="#m1c0d36da0b" x="14.571094" y="314.218547" style="stroke: #000000; stroke-width: 0.8"/>
      </g>
     </g>
     <g id="text_1">
      <!-- −1 -->
      <g transform="translate(7.2 328.816985) scale(0.1 -0.1)">
       <defs>
        <path id="DejaVuSans-2212" d="M 678 2272 
L 4684 2272 
L 4684 1741 
L 678 1741 
L 678 2272 
z
" transform="scale(0.015625)"/>
        <path id="DejaVuSans-31" d="M 794 531 
L 1825 531 
L 1825 4091 
L 703 3866 
L 703 4441 
L 1819 4666 
L 2450 4666 
L 2450 531 
L 3481 531 
L 3481 0 
L 794 0 
L 794 531 
z
" transform="scale(0.015625)"/>
       </defs>
       <use xlink:href="#DejaVuSans-2212"/>
       <use xlink:href="#DejaVuSans-31" transform="translate(83.789062 0)"/>
      </g>
     </g>
    </g>
    <g id="xtick_2">
     <g id="line2d_2">
      <g>
       <use xlink:href="#m1c0d36da0b" x="299.654948" y="314.218547" style="stroke: #000000; stroke-width: 0.8"/>
      </g>
     </g>
     <g id="text_2">
      <!-- 1 -->
      <g transform="translate(296.473698 328.816985) scale(0.1 -0.1)">
       <use xlink:href="#DejaVuSans-31"/>
      </g>
     </g>
    </g>
    <g id="text_3">
     <!-- $x$ -->
     <g transform="translate(313.356488 314.218547) scale(0.16 -0.16)">
      <defs>
       <path id="Cmmi10-78" d="M 500 184 
Q 613 97 819 97 
Q 1019 97 1172 289 
Q 1325 481 1381 709 
L 1672 1844 
Q 1741 2153 1741 2266 
Q 1741 2425 1652 2544 
Q 1563 2663 1403 2663 
Q 1200 2663 1022 2536 
Q 844 2409 722 2214 
Q 600 2019 550 1819 
Q 538 1778 500 1778 
L 422 1778 
Q 372 1778 372 1838 
L 372 1856 
Q 434 2094 584 2320 
Q 734 2547 951 2687 
Q 1169 2828 1416 2828 
Q 1650 2828 1839 2703 
Q 2028 2578 2106 2363 
Q 2216 2559 2386 2693 
Q 2556 2828 2759 2828 
Q 2897 2828 3040 2779 
Q 3184 2731 3275 2631 
Q 3366 2531 3366 2381 
Q 3366 2219 3261 2101 
Q 3156 1984 2994 1984 
Q 2891 1984 2822 2050 
Q 2753 2116 2753 2216 
Q 2753 2350 2845 2451 
Q 2938 2553 3066 2572 
Q 2950 2663 2747 2663 
Q 2541 2663 2389 2472 
Q 2238 2281 2175 2047 
L 1894 916 
Q 1825 659 1825 494 
Q 1825 331 1917 214 
Q 2009 97 2163 97 
Q 2463 97 2698 361 
Q 2934 625 3009 941 
Q 3022 978 3059 978 
L 3138 978 
Q 3163 978 3178 961 
Q 3194 944 3194 922 
Q 3194 916 3188 903 
Q 3097 522 2806 225 
Q 2516 -72 2150 -72 
Q 1916 -72 1727 54 
Q 1538 181 1459 397 
Q 1359 209 1182 68 
Q 1006 -72 806 -72 
Q 669 -72 523 -23 
Q 378 25 287 125 
Q 197 225 197 378 
Q 197 528 301 651 
Q 406 775 563 775 
Q 669 775 741 711 
Q 813 647 813 544 
Q 813 409 723 309 
Q 634 209 500 184 
z
" transform="scale(0.015625)"/>
      </defs>
      <use xlink:href="#Cmmi10-78" transform="translate(0 0.8125)"/>
     </g>
    </g>
   </g>
   <g id="matplotlib.axis_2">
    <g id="ytick_1">
     <g id="line2d_3">
      <defs>
       <path id="m934e870eb0" d="M 0 0 
L -3.5 0 
" style="stroke: #000000; stroke-width: 0.8"/>
      </defs>
      <g>
       <use xlink:href="#m934e870eb0" x="157.113021" y="314.218547" style="stroke: #000000; stroke-width: 0.8"/>
      </g>
     </g>
    </g>
    <g id="ytick_2">
     <g id="line2d_4">
      <g>
       <use xlink:href="#m934e870eb0" x="157.113021" y="171.67662" style="stroke: #000000; stroke-width: 0.8"/>
      </g>
     </g>
     <g id="text_4">
      <!-- 1 -->
      <g transform="translate(143.750521 175.475839) scale(0.1 -0.1)">
       <use xlink:href="#DejaVuSans-31"/>
      </g>
     </g>
    </g>
    <g id="ytick_3">
     <g id="line2d_5">
      <g>
       <use xlink:href="#m934e870eb0" x="157.113021" y="29.134693" style="stroke: #000000; stroke-width: 0.8"/>
      </g>
     </g>
     <g id="text_5">
      <!-- 2 -->
      <g transform="translate(143.750521 32.933912) scale(0.1 -0.1)">
       <defs>
        <path id="DejaVuSans-32" d="M 1228 531 
L 3431 531 
L 3431 0 
L 469 0 
L 469 531 
Q 828 903 1448 1529 
Q 2069 2156 2228 2338 
Q 2531 2678 2651 2914 
Q 2772 3150 2772 3378 
Q 2772 3750 2511 3984 
Q 2250 4219 1831 4219 
Q 1534 4219 1204 4116 
Q 875 4013 500 3803 
L 500 4441 
Q 881 4594 1212 4672 
Q 1544 4750 1819 4750 
Q 2544 4750 2975 4387 
Q 3406 4025 3406 3419 
Q 3406 3131 3298 2873 
Q 3191 2616 2906 2266 
Q 2828 2175 2409 1742 
Q 1991 1309 1228 531 
z
" transform="scale(0.015625)"/>
       </defs>
       <use xlink:href="#DejaVuSans-32"/>
      </g>
     </g>
    </g>
    <g id="text_6">
     <!-- $y$ -->
     <g transform="translate(153.113021 12.0825) scale(0.16 -0.16)">
      <defs>
       <path id="Cmmi10-79" d="M 538 -916 
Q 672 -1147 1006 -1147 
Q 1309 -1147 1531 -934 
Q 1753 -722 1889 -420 
Q 2025 -119 2100 197 
Q 1816 -72 1484 -72 
Q 1231 -72 1053 15 
Q 875 103 776 276 
Q 678 450 678 697 
Q 678 906 734 1126 
Q 791 1347 892 1617 
Q 994 1888 1069 2088 
Q 1153 2322 1153 2472 
Q 1153 2663 1013 2663 
Q 759 2663 595 2402 
Q 431 2141 353 1819 
Q 341 1778 300 1778 
L 225 1778 
Q 172 1778 172 1838 
L 172 1856 
Q 275 2238 487 2533 
Q 700 2828 1025 2828 
Q 1253 2828 1411 2678 
Q 1569 2528 1569 2297 
Q 1569 2178 1516 2047 
Q 1488 1969 1388 1706 
Q 1288 1444 1234 1272 
Q 1181 1100 1147 934 
Q 1113 769 1113 603 
Q 1113 391 1203 244 
Q 1294 97 1491 97 
Q 1888 97 2203 581 
L 2688 2553 
Q 2709 2638 2787 2698 
Q 2866 2759 2956 2759 
Q 3034 2759 3092 2709 
Q 3150 2659 3150 2578 
Q 3150 2541 3144 2528 
L 2509 -19 
Q 2425 -347 2200 -647 
Q 1975 -947 1658 -1130 
Q 1341 -1313 997 -1313 
Q 831 -1313 668 -1248 
Q 506 -1184 406 -1056 
Q 306 -928 306 -756 
Q 306 -581 409 -453 
Q 513 -325 684 -325 
Q 788 -325 858 -389 
Q 928 -453 928 -556 
Q 928 -703 818 -812 
Q 709 -922 563 -922 
Q 556 -919 550 -917 
Q 544 -916 538 -916 
z
" transform="scale(0.015625)"/>
      </defs>
      <use xlink:href="#Cmmi10-79" transform="translate(0 0.8125)"/>
     </g>
    </g>
   </g>
   <g id="line2d_6">
    <path d="M 299.654948 171.67662 
L 299.556855 166.389358 
L 298.996584 157.99249 
L 298.208623 151.422433 
L 296.991767 144.251499 
L 295.61152 137.96658 
L 293.553649 130.419428 
L 292.666653 127.592454 
L 291.051421 122.904643 
L 289.211504 118.121119 
L 286.643124 112.177433 
L 283.872999 106.48376 
L 282.18021 103.292418 
L 277.62358 95.549055 
L 272.742944 88.322425 
L 267.561993 81.569876 
L 260.932683 74.005342 
L 255.535878 68.56919 
L 248.774477 62.514454 
L 240.601611 56.143697 
L 237.170936 53.740488 
L 232.705691 50.82982 
L 226.365657 47.088204 
L 220.846622 44.176702 
L 213.669799 40.834992 
L 210.868663 39.659455 
L 205.244668 37.506782 
L 201.701379 36.287997 
L 196.504224 34.68562 
L 192.223339 33.526461 
L 188.09335 32.54208 
L 180.399765 31.049708 
L 176.02096 30.394311 
L 167.663053 29.525652 
L 161.274482 29.195452 
L 155.484956 29.143991 
L 149.177598 29.35575 
L 141.345443 30.009459 
L 133.755076 31.061517 
L 125.438651 32.698437 
L 122.099097 33.501998 
L 113.850233 35.858609 
L 103.995375 39.401465 
L 95.377579 43.197298 
L 92.214475 44.765708 
L 86.759873 47.706319 
L 81.140896 51.068008 
L 72.87507 56.688932 
L 68.907724 59.70329 
L 62.320027 65.222455 
L 58.893457 68.375516 
L 52.020758 75.37596 
L 49.339435 78.386454 
L 46.545495 81.715389 
L 41.877575 87.777914 
L 36.393316 95.881147 
L 33.591944 100.537711 
L 31.435604 104.420484 
L 27.799651 111.70785 
L 24.854701 118.517069 
L 22.543353 124.674434 
L 20.289214 131.708548 
L 19.659171 133.932215 
L 18.285569 139.348001 
L 17.390824 143.464767 
L 16.622308 147.581793 
L 15.675407 153.967802 
L 14.822376 163.216523 
L 14.597823 168.916282 
L 14.577934 173.073051 
L 14.67031 176.994057 
L 15.27745 185.849544 
L 16.454449 194.771365 
L 17.319189 199.531344 
L 18.736952 205.885748 
L 20.8125 213.394349 
L 23.5082 221.355115 
L 25.414823 226.209048 
L 27.144636 230.212249 
L 30.432167 237.023098 
L 34.09332 243.679079 
L 37.240349 248.804718 
L 42.290724 256.139874 
L 46.420966 261.484582 
L 51.866848 267.80905 
L 55.942325 272.089225 
L 59.072611 275.147771 
L 62.031312 277.872993 
L 65.19968 280.626787 
L 70.334768 284.759492 
L 73.992517 287.474646 
L 79.313605 291.114687 
L 87.477494 296.051435 
L 89.928309 297.392234 
L 97.503438 301.155957 
L 105.947165 304.71893 
L 113.008998 307.223793 
L 117.589833 308.6296 
L 121.970587 309.818614 
L 128.467771 311.310608 
L 131.627726 311.921765 
L 140.420084 313.237727 
L 147.427764 313.889126 
L 152.349486 314.13893 
L 158.690487 314.209818 
L 166.055692 313.937752 
L 173.935151 313.222432 
L 176.97187 312.828408 
L 181.579826 312.103029 
L 186.634037 311.128083 
L 194.767473 309.155139 
L 199.859587 307.657987 
L 208.783887 304.52361 
L 211.467876 303.448206 
L 215.910355 301.52682 
L 220.732736 299.233403 
L 227.793704 295.460472 
L 233.581756 291.970982 
L 236.463826 290.089672 
L 240.31515 287.416011 
L 247.276591 282.079209 
L 250.04826 279.756417 
L 254.678226 275.595972 
L 260.085478 270.24068 
L 262.682216 267.454206 
L 267.561639 261.783799 
L 271.389653 256.876693 
L 276.350371 249.783312 
L 279.431659 244.863722 
L 283.255819 238.055799 
L 285.124361 234.376681 
L 287.358187 229.593781 
L 289.359818 224.86483 
L 290.989703 220.617757 
L 292.38549 216.616136 
L 293.757263 212.254348 
L 295.388991 206.288136 
L 296.85717 199.779535 
L 297.581176 195.902607 
L 298.234294 191.751162 
L 298.769896 187.536335 
L 299.273194 182.101891 
L 299.504207 178.230321 
L 299.654948 171.67662 
L 299.654948 171.67662 
" clip-path="url(#p40019423c6)" style="fill: none; stroke: #000000; stroke-width: 2; stroke-linecap: square"/>
   </g>
   <g id="patch_4">
    <path d="M 157.113021 319.920038 
L 157.113021 23.4425 
" style="fill: none; stroke: #000000; stroke-width: 0.8; stroke-linejoin: miter; stroke-linecap: square"/>
   </g>
   <g id="patch_5">
    <path d="M 8.876394 314.218547 
L 305.356488 314.218547 
" style="fill: none; stroke: #000000; stroke-width: 0.8; stroke-linejoin: miter; stroke-linecap: square"/>
   </g>
  </g>
 </g>
 <defs>
  <clipPath id="p40019423c6">
   <rect x="8.876394" y="23.4425" width="296.480094" height="296.477538"/>
  </clipPath>
 </defs>
</svg>
