<?xml version="1.0" encoding="utf-8" standalone="no"?>
<!DOCTYPE svg PUBLIC "-//W3C//DTD SVG 1.1//EN"
  "http://www.w3.org/Graphics/SVG/1.1/DTD/svg11.dtd">
<svg xmlns:xlink="http://www.w3.org/1999/xlink" width="453.6pt" height="236.322142pt" viewBox="0 0 453.6 236.322142" xmlns="http://www.w3.org/2000/svg" version="1.1">
 <metadata>
  <rdf:RDF xmlns:dc="http://purl.org/dc/elements/1.1/" xmlns:cc="http://creativecommons.org/ns#" xmlns:rdf="http://www.w3.org/1999/02/22-rdf-syntax-ns#">
   <cc:Work>
    <dc:type rdf:resource="http://purl.org/dc/dcmitype/StillImage"/>
    <dc:date>2025-06-25T15:27:38.240544</dc:date>
    <dc:format>image/svg+xml</dc:format>
    <dc:creator>
     <cc:Agent>
      <dc:title>Matplotlib v3.10.3, https://matplotlib.org/</dc:title>
     </cc:Agent>
    </dc:creator>
   </cc:Work>
  </rdf:RDF>
 </metadata>
 <defs>
  <style type="text/css">*{stroke-linejoin: round; stroke-linecap: butt}</style>
 </defs>
 <g id="figure_1">
  <g id="patch_1">
   <path d="M 0 236.322142 
L 453.6 236.322142 
L 453.6 0 
L 0 0 
z
" style="fill: #ffffff"/>
  </g>
  <g id="axes_1">
   <g id="patch_2">
    <path d="M 7.2 229.122142 
L 446.4 229.122142 
L 446.4 7.2 
L 7.2 7.2 
z
" style="fill: #ffffff"/>
   </g>
   <g id="PathCollection_1">
    <path d="M 376.129612 31.982923 
C 377.067246 31.982923 377.966604 31.610397 378.629612 30.947389 
C 379.29262 30.284381 379.665146 29.385024 379.665146 28.447389 
C 379.665146 27.509754 379.29262 26.610397 378.629612 25.947389 
C 377.966604 25.284381 377.067246 24.911855 376.129612 24.911855 
C 375.191977 24.911855 374.29262 25.284381 373.629612 25.947389 
C 372.966604 26.610397 372.594078 27.509754 372.594078 28.447389 
C 372.594078 29.385024 372.966604 30.284381 373.629612 30.947389 
C 374.29262 31.610397 375.191977 31.982923 376.129612 31.982923 
z
" clip-path="url(#pc4bbfbd288)"/>
   </g>
   <g id="PathCollection_2">
    <path d="M 342.326833 21.308819 
C 343.264468 21.308819 344.163825 20.936292 344.826833 20.273285 
C 345.489841 19.610277 345.862367 18.710919 345.862367 17.773285 
C 345.862367 16.83565 345.489841 15.936292 344.826833 15.273285 
C 344.163825 14.610277 343.264468 14.237751 342.326833 14.237751 
C 341.389198 14.237751 340.489841 14.610277 339.826833 15.273285 
C 339.163825 15.936292 338.791299 16.83565 338.791299 17.773285 
C 338.791299 18.710919 339.163825 19.610277 339.826833 20.273285 
C 340.489841 20.936292 341.389198 21.308819 342.326833 21.308819 
z
" clip-path="url(#pc4bbfbd288)"/>
   </g>
   <g id="matplotlib.axis_1"/>
   <g id="matplotlib.axis_2"/>
   <g id="line2d_1">
    <path d="M 437.953846 75.103935 
L 435.020516 71.265406 
L 430.467516 65.876424 
L 427.326455 62.494419 
L 422.581958 57.817478 
L 418.853547 54.455249 
L 414.550166 50.869792 
L 408.096637 46.004937 
L 402.958882 42.512392 
L 396.667445 38.63359 
L 389.931386 34.907968 
L 385.766182 32.802336 
L 379.931407 30.083812 
L 374.188757 27.650711 
L 367.123197 24.958897 
L 359.052325 22.256059 
L 354.431429 20.873571 
L 347.685228 19.056167 
L 342.828124 17.887492 
L 336.603824 16.551636 
L 327.647196 14.930389 
L 319.905957 13.798415 
L 311.095678 12.795756 
L 302.321258 12.083235 
L 292.20615 11.597501 
L 285.796195 11.467733 
L 274.873509 11.551637 
L 264.620205 11.967503 
L 255.262722 12.622031 
L 247.608829 13.3474 
L 238.607832 14.414687 
L 229.504965 15.725764 
L 220.091404 17.323543 
L 207.711637 19.796127 
L 199.889809 21.57533 
L 191.44786 23.684738 
L 183.969643 25.718571 
L 174.802655 28.426151 
L 165.603916 31.384961 
L 155.96816 34.751131 
L 147.812636 37.820557 
L 135.991326 42.6448 
L 129.44535 45.516743 
L 120.146762 49.857516 
L 110.976964 54.458773 
L 104.709673 57.801025 
L 95.974098 62.750981 
L 89.849771 66.441912 
L 83.107913 70.737603 
L 76.233135 75.397192 
L 69.479093 80.286364 
L 65.597368 83.254235 
L 60.271139 87.539801 
L 55.274276 91.815962 
L 50.282546 96.377677 
L 46.688394 99.873315 
L 42.766809 103.926986 
L 37.928149 109.350072 
L 35.401699 112.41036 
L 31.346079 117.747567 
L 28.030714 122.623554 
L 25.28536 127.154991 
L 23.289428 130.848484 
L 20.901784 135.934648 
L 19.222048 140.217237 
L 17.864447 144.457089 
L 17.126142 147.310359 
L 16.478715 150.462233 
L 16.022443 153.529051 
L 15.735147 156.713361 
L 15.646154 160.269024 
L 15.872919 164.512229 
L 16.354374 168.066185 
L 17.068303 171.435787 
L 18.31478 175.598665 
L 19.197682 177.929722 
L 20.719647 181.29558 
L 22.667403 184.859768 
L 24.631041 187.91648 
L 26.95474 191.063369 
L 30.327357 195.000964 
L 33.788434 198.492692 
L 36.909986 201.29046 
L 40.428915 204.134381 
L 44.803105 207.305997 
L 48.102221 209.480757 
L 52.322115 212.036877 
L 56.86154 214.547275 
L 61.561828 216.92529 
L 66.913447 219.399157 
L 71.96003 221.535448 
L 78.460413 224.044713 
L 80.704909 224.854408 
L 80.704909 224.854408 
" clip-path="url(#pc4bbfbd288)" style="fill: none; stroke: #000000; stroke-width: 2; stroke-linecap: square"/>
   </g>
   <g id="patch_3">
    <path d="M 181.154619 26.524732 
Q 180.127633 26.825889 181.246361 26.497829 
" clip-path="url(#pc4bbfbd288)" style="fill: none; stroke: #000000; stroke-width: 2; stroke-linecap: round"/>
    <path d="M 192.249256 28.481842 
L 181.246361 26.497829 
L 189.435309 18.885921 
z
" clip-path="url(#pc4bbfbd288)" style="stroke: #000000; stroke-width: 2; stroke-linecap: round"/>
   </g>
   <g id="text_1">
    <!-- $P_0$ -->
    <g transform="translate(374.994918 52.896752) scale(0.2 -0.2)">
     <defs>
      <path id="Cmmi10-50" d="M 313 0 
Q 250 0 250 84 
Q 253 100 262 139 
Q 272 178 289 201 
Q 306 225 331 225 
Q 722 225 878 269 
Q 959 297 997 441 
L 1875 3956 
Q 1888 4019 1888 4044 
Q 1888 4113 1813 4122 
Q 1691 4147 1350 4147 
Q 1288 4147 1288 4231 
Q 1291 4247 1300 4286 
Q 1309 4325 1326 4348 
Q 1344 4372 1369 4372 
L 3578 4372 
Q 3881 4372 4165 4264 
Q 4450 4156 4631 3934 
Q 4813 3713 4813 3397 
Q 4813 2991 4527 2672 
Q 4241 2353 3814 2175 
Q 3388 1997 2988 1997 
L 1947 1997 
L 1556 416 
Q 1544 353 1544 325 
Q 1544 300 1551 283 
Q 1559 266 1573 261 
Q 1588 256 1619 250 
Q 1741 225 2081 225 
Q 2144 225 2144 141 
Q 2122 50 2109 25 
Q 2097 0 2034 0 
L 313 0 
z
M 1978 2188 
L 2875 2188 
Q 3497 2188 3822 2522 
Q 3988 2688 4092 3000 
Q 4197 3313 4197 3566 
Q 4197 3881 3956 4014 
Q 3716 4147 3359 4147 
L 2747 4147 
Q 2572 4147 2515 4117 
Q 2459 4088 2413 3928 
L 1978 2188 
z
" transform="scale(0.015625)"/>
      <path id="Cmr10-30" d="M 1600 -141 
Q 816 -141 533 504 
Q 250 1150 250 2041 
Q 250 2597 351 3087 
Q 453 3578 754 3920 
Q 1056 4263 1600 4263 
Q 2022 4263 2290 4056 
Q 2559 3850 2700 3523 
Q 2841 3197 2892 2823 
Q 2944 2450 2944 2041 
Q 2944 1491 2842 1011 
Q 2741 531 2444 195 
Q 2147 -141 1600 -141 
z
M 1600 25 
Q 1956 25 2131 390 
Q 2306 756 2347 1200 
Q 2388 1644 2388 2144 
Q 2388 2625 2347 3031 
Q 2306 3438 2132 3767 
Q 1959 4097 1600 4097 
Q 1238 4097 1063 3765 
Q 888 3434 847 3029 
Q 806 2625 806 2144 
Q 806 1788 823 1472 
Q 841 1156 916 820 
Q 991 484 1158 254 
Q 1325 25 1600 25 
z
" transform="scale(0.015625)"/>
     </defs>
     <use xlink:href="#Cmmi10-50" transform="translate(0 0.6875)"/>
     <use xlink:href="#Cmr10-30" transform="translate(64.208984 -16.31875) scale(0.7)"/>
    </g>
   </g>
   <g id="text_2">
    <!-- $P_1$ -->
    <g transform="translate(322.261526 42.222648) scale(0.2 -0.2)">
     <defs>
      <path id="Cmr10-31" d="M 594 0 
L 594 225 
Q 1394 225 1394 428 
L 1394 3788 
Q 1063 3628 556 3628 
L 556 3853 
Q 1341 3853 1741 4263 
L 1831 4263 
Q 1853 4263 1873 4245 
Q 1894 4228 1894 4206 
L 1894 428 
Q 1894 225 2694 225 
L 2694 0 
L 594 0 
z
" transform="scale(0.015625)"/>
     </defs>
     <use xlink:href="#Cmmi10-50" transform="translate(0 0.6875)"/>
     <use xlink:href="#Cmr10-31" transform="translate(64.208984 -16.31875) scale(0.7)"/>
    </g>
   </g>
  </g>
 </g>
 <defs>
  <clipPath id="pc4bbfbd288">
   <rect x="7.2" y="7.2" width="439.2" height="221.922142"/>
  </clipPath>
 </defs>
</svg>
