<?xml version="1.0" encoding="utf-8" standalone="no"?>
<!DOCTYPE svg PUBLIC "-//W3C//DTD SVG 1.1//EN"
  "http://www.w3.org/Graphics/SVG/1.1/DTD/svg11.dtd">
<svg xmlns:xlink="http://www.w3.org/1999/xlink" width="338.4pt" height="338.4pt" viewBox="0 0 338.4 338.4" xmlns="http://www.w3.org/2000/svg" version="1.1">
 <metadata>
  <rdf:RDF xmlns:dc="http://purl.org/dc/elements/1.1/" xmlns:cc="http://creativecommons.org/ns#" xmlns:rdf="http://www.w3.org/1999/02/22-rdf-syntax-ns#">
   <cc:Work>
    <dc:type rdf:resource="http://purl.org/dc/dcmitype/StillImage"/>
    <dc:date>2025-11-26T17:29:23.351961</dc:date>
    <dc:format>image/svg+xml</dc:format>
    <dc:creator>
     <cc:Agent>
      <dc:title>Matplotlib v3.10.5, https://matplotlib.org/</dc:title>
     </cc:Agent>
    </dc:creator>
   </cc:Work>
  </rdf:RDF>
 </metadata>
 <defs>
  <style type="text/css">*{stroke-linejoin: round; stroke-linecap: butt}</style>
 </defs>
 <g id="figure_1">
  <g id="patch_1">
   <path d="M -0 338.4 
L 338.4 338.4 
L 338.4 0 
L -0 0 
z
" style="fill: #ffffff"/>
  </g>
  <g id="axes_1">
   <g id="patch_2">
    <path d="M 7.2 331.2 
L 331.2 331.2 
L 331.2 7.2 
L 7.2 7.2 
z
" style="fill: #ffffff"/>
   </g>
   <g id="patch_3">
    <path d="M 293.815385 169.2 
L 293.753894 173.114264 
L 293.569485 177.024665 
L 293.262337 180.927344 
L 292.832755 184.818449 
L 292.281162 188.694141 
L 291.608104 192.550595 
L 290.814243 196.384004 
L 289.900363 200.190586 
L 288.867367 203.966584 
L 287.716274 207.708272 
L 286.448219 211.411956 
L 285.064454 215.073983 
L 283.566346 218.690737 
L 281.955371 222.25865 
L 280.233121 225.774201 
L 278.401294 229.233919 
L 276.461699 232.634392 
L 274.416249 235.972262 
L 272.266964 239.244236 
L 270.015964 242.447085 
L 267.665471 245.577648 
L 265.217804 248.632836 
L 262.675379 251.609632 
L 260.040706 254.505101 
L 257.316384 257.316384 
L 254.505101 260.040706 
L 251.609632 262.675379 
L 248.632836 265.217804 
L 245.577648 267.665471 
L 242.447085 270.015964 
L 239.244236 272.266964 
L 235.972262 274.416249 
L 232.634392 276.461699 
L 229.233919 278.401294 
L 225.774201 280.233121 
L 222.25865 281.955371 
L 218.690737 283.566346 
L 215.073983 285.064454 
L 211.411956 286.448219 
L 207.708272 287.716274 
L 203.966584 288.867367 
L 200.190586 289.900363 
L 196.384004 290.814243 
L 192.550595 291.608104 
L 188.694141 292.281162 
L 184.818449 292.832755 
L 180.927344 293.262337 
L 177.024665 293.569485 
L 173.114264 293.753894 
L 169.2 293.815385 
L 165.285736 293.753894 
L 161.375335 293.569485 
L 157.472656 293.262337 
L 153.581551 292.832755 
L 149.705859 292.281162 
L 145.849405 291.608104 
L 142.015996 290.814243 
L 138.209414 289.900363 
L 134.433416 288.867367 
L 130.691728 287.716274 
L 126.988044 286.448219 
L 123.326017 285.064454 
L 119.709263 283.566346 
L 116.14135 281.955371 
L 112.625799 280.233121 
L 109.166081 278.401294 
L 105.765608 276.461699 
L 102.427738 274.416249 
L 99.155764 272.266964 
L 95.952915 270.015964 
L 92.822352 267.665471 
L 89.767164 265.217804 
L 86.790368 262.675379 
L 83.894899 260.040706 
L 81.083616 257.316384 
L 78.359294 254.505101 
L 75.724621 251.609632 
L 73.182196 248.632836 
L 70.734529 245.577648 
L 68.384036 242.447085 
L 66.133036 239.244236 
L 63.983751 235.972262 
L 61.938301 232.634392 
L 59.998706 229.233919 
L 58.166879 225.774201 
L 56.444629 222.25865 
L 54.833654 218.690737 
L 53.335546 215.073983 
L 51.951781 211.411956 
L 50.683726 207.708272 
L 49.532633 203.966584 
L 48.499637 200.190586 
L 47.585757 196.384004 
L 46.791896 192.550595 
L 46.118838 188.694141 
L 45.567245 184.818449 
L 45.137663 180.927344 
L 44.830515 177.024665 
L 44.646106 173.114264 
L 44.584615 169.2 
L 44.646106 165.285736 
L 44.830515 161.375335 
L 45.137663 157.472656 
L 45.567245 153.581551 
L 46.118838 149.705859 
L 46.791896 145.849405 
L 47.585757 142.015996 
L 48.499637 138.209414 
L 49.532633 134.433416 
L 50.683726 130.691728 
L 51.951781 126.988044 
L 53.335546 123.326017 
L 54.833654 119.709263 
L 56.444629 116.14135 
L 58.166879 112.625799 
L 59.998706 109.166081 
L 61.938301 105.765608 
L 63.983751 102.427738 
L 66.133036 99.155764 
L 68.384036 95.952915 
L 70.734529 92.822352 
L 73.182196 89.767164 
L 75.724621 86.790368 
L 78.359294 83.894899 
L 81.083616 81.083616 
L 83.894899 78.359294 
L 86.790368 75.724621 
L 89.767164 73.182196 
L 92.822352 70.734529 
L 95.952915 68.384036 
L 99.155764 66.133036 
L 102.427738 63.983751 
L 105.765608 61.938301 
L 109.166081 59.998706 
L 112.625799 58.166879 
L 116.14135 56.444629 
L 119.709263 54.833654 
L 123.326017 53.335546 
L 126.988044 51.951781 
L 130.691728 50.683726 
L 134.433416 49.532633 
L 138.209414 48.499637 
L 142.015996 47.585757 
L 145.849405 46.791896 
L 149.705859 46.118838 
L 153.581551 45.567245 
L 157.472656 45.137663 
L 161.375335 44.830515 
L 165.285736 44.646106 
L 169.2 44.584615 
L 173.114264 44.646106 
L 177.024665 44.830515 
L 180.927344 45.137663 
L 184.818449 45.567245 
L 188.694141 46.118838 
L 192.550595 46.791896 
L 196.384004 47.585757 
L 200.190586 48.499637 
L 203.966584 49.532633 
L 207.708272 50.683726 
L 211.411956 51.951781 
L 215.073983 53.335546 
L 218.690737 54.833654 
L 222.25865 56.444629 
L 225.774201 58.166879 
L 229.233919 59.998706 
L 232.634392 61.938301 
L 235.972262 63.983751 
L 239.244236 66.133036 
L 242.447085 68.384036 
L 245.577648 70.734529 
L 248.632836 73.182196 
L 251.609632 75.724621 
L 254.505101 78.359294 
L 257.316384 81.083616 
L 260.040706 83.894899 
L 262.675379 86.790368 
L 265.217804 89.767164 
L 267.665471 92.822352 
L 270.015964 95.952915 
L 272.266964 99.155764 
L 274.416249 102.427738 
L 276.461699 105.765608 
L 278.401294 109.166081 
L 280.233121 112.625799 
L 281.955371 116.14135 
L 283.566346 119.709263 
L 285.064454 123.326017 
L 286.448219 126.988044 
L 287.716274 130.691728 
L 288.867367 134.433416 
L 289.900363 138.209414 
L 290.814243 142.015996 
L 291.608104 145.849405 
L 292.281162 149.705859 
L 292.832755 153.581551 
L 293.262337 157.472656 
L 293.569485 161.375335 
L 293.753894 165.285736 
L 293.815385 169.2 
L 324.969231 169.2 
L 324.892368 164.30717 
L 324.661856 159.419169 
L 324.277921 154.54082 
L 323.740944 149.676939 
L 323.051453 144.832324 
L 322.210129 140.011757 
L 321.217803 135.219995 
L 320.075454 130.461768 
L 318.784209 125.74177 
L 317.345342 121.06466 
L 315.760274 116.435055 
L 314.030568 111.857522 
L 312.157932 107.336579 
L 310.144214 102.876687 
L 307.991401 98.482249 
L 305.701617 94.157601 
L 303.277123 89.90701 
L 300.720311 85.734672 
L 298.033705 81.644705 
L 295.219955 77.641143 
L 292.281838 73.72794 
L 289.222255 69.908955 
L 286.044224 66.187959 
L 282.750882 62.568624 
L 279.345479 59.054521 
L 275.831376 55.649118 
L 272.212041 52.355776 
L 268.491045 49.177745 
L 264.67206 46.118162 
L 260.758857 43.180045 
L 256.755295 40.366295 
L 252.665328 37.679689 
L 248.49299 35.122877 
L 244.242399 32.698383 
L 239.917751 30.408599 
L 235.523313 28.255786 
L 231.063421 26.242068 
L 226.542478 24.369432 
L 221.964945 22.639726 
L 217.33534 21.054658 
L 212.65823 19.615791 
L 207.938232 18.324546 
L 203.180005 17.182197 
L 198.388243 16.189871 
L 193.567676 15.348547 
L 188.723061 14.659056 
L 183.85918 14.122079 
L 178.980831 13.738144 
L 174.09283 13.507632 
L 169.2 13.430769 
L 164.30717 13.507632 
L 159.419169 13.738144 
L 154.54082 14.122079 
L 149.676939 14.659056 
L 144.832324 15.348547 
L 140.011757 16.189871 
L 135.219995 17.182197 
L 130.461768 18.324546 
L 125.74177 19.615791 
L 121.06466 21.054658 
L 116.435055 22.639726 
L 111.857522 24.369432 
L 107.336579 26.242068 
L 102.876687 28.255786 
L 98.482249 30.408599 
L 94.157601 32.698383 
L 89.90701 35.122877 
L 85.734672 37.679689 
L 81.644705 40.366295 
L 77.641143 43.180045 
L 73.72794 46.118162 
L 69.908955 49.177745 
L 66.187959 52.355776 
L 62.568624 55.649118 
L 59.054521 59.054521 
L 55.649118 62.568624 
L 52.355776 66.187959 
L 49.177745 69.908955 
L 46.118162 73.72794 
L 43.180045 77.641143 
L 40.366295 81.644705 
L 37.679689 85.734672 
L 35.122877 89.90701 
L 32.698383 94.157601 
L 30.408599 98.482249 
L 28.255786 102.876687 
L 26.242068 107.336579 
L 24.369432 111.857522 
L 22.639726 116.435055 
L 21.054658 121.06466 
L 19.615791 125.74177 
L 18.324546 130.461768 
L 17.182197 135.219995 
L 16.189871 140.011757 
L 15.348547 144.832324 
L 14.659056 149.676939 
L 14.122079 154.54082 
L 13.738144 159.419169 
L 13.507632 164.30717 
L 13.430769 169.2 
L 13.507632 174.09283 
L 13.738144 178.980831 
L 14.122079 183.85918 
L 14.659056 188.723061 
L 15.348547 193.567676 
L 16.189871 198.388243 
L 17.182197 203.180005 
L 18.324546 207.938232 
L 19.615791 212.65823 
L 21.054658 217.33534 
L 22.639726 221.964945 
L 24.369432 226.542478 
L 26.242068 231.063421 
L 28.255786 235.523313 
L 30.408599 239.917751 
L 32.698383 244.242399 
L 35.122877 248.49299 
L 37.679689 252.665328 
L 40.366295 256.755295 
L 43.180045 260.758857 
L 46.118162 264.67206 
L 49.177745 268.491045 
L 52.355776 272.212041 
L 55.649118 275.831376 
L 59.054521 279.345479 
L 62.568624 282.750882 
L 66.187959 286.044224 
L 69.908955 289.222255 
L 73.72794 292.281838 
L 77.641143 295.219955 
L 81.644705 298.033705 
L 85.734672 300.720311 
L 89.90701 303.277123 
L 94.157601 305.701617 
L 98.482249 307.991401 
L 102.876687 310.144214 
L 107.336579 312.157932 
L 111.857522 314.030568 
L 116.435055 315.760274 
L 121.06466 317.345342 
L 125.74177 318.784209 
L 130.461768 320.075454 
L 135.219995 321.217803 
L 140.011757 322.210129 
L 144.832324 323.051453 
L 149.676939 323.740944 
L 154.54082 324.277921 
L 159.419169 324.661856 
L 164.30717 324.892368 
L 169.2 324.969231 
L 174.09283 324.892368 
L 178.980831 324.661856 
L 183.85918 324.277921 
L 188.723061 323.740944 
L 193.567676 323.051453 
L 198.388243 322.210129 
L 203.180005 321.217803 
L 207.938232 320.075454 
L 212.65823 318.784209 
L 217.33534 317.345342 
L 221.964945 315.760274 
L 226.542478 314.030568 
L 231.063421 312.157932 
L 235.523313 310.144214 
L 239.917751 307.991401 
L 244.242399 305.701617 
L 248.49299 303.277123 
L 252.665328 300.720311 
L 256.755295 298.033705 
L 260.758857 295.219955 
L 264.67206 292.281838 
L 268.491045 289.222255 
L 272.212041 286.044224 
L 275.831376 282.750882 
L 279.345479 279.345479 
L 282.750882 275.831376 
L 286.044224 272.212041 
L 289.222255 268.491045 
L 292.281838 264.67206 
L 295.219955 260.758857 
L 298.033705 256.755295 
L 300.720311 252.665328 
L 303.277123 248.49299 
L 305.701617 244.242399 
L 307.991401 239.917751 
L 310.144214 235.523313 
L 312.157932 231.063421 
L 314.030568 226.542478 
L 315.760274 221.964945 
L 317.345342 217.33534 
L 318.784209 212.65823 
L 320.075454 207.938232 
L 321.217803 203.180005 
L 322.210129 198.388243 
L 323.051453 193.567676 
L 323.740944 188.723061 
L 324.277921 183.85918 
L 324.661856 178.980831 
L 324.892368 174.09283 
L 324.969231 169.2 
z
" clip-path="url(#p28174c6fd8)" style="fill: #808080"/>
   </g>
   <g id="matplotlib.axis_1"/>
   <g id="matplotlib.axis_2"/>
   <g id="line2d_1">
    <path d="M 293.815385 169.2 
L 293.702298 163.892275 
L 293.356385 158.514204 
L 292.69276 152.510712 
L 291.860294 147.212589 
L 290.722105 141.607027 
L 290.323059 139.904974 
L 289.128793 135.346217 
L 287.998022 131.569906 
L 285.707101 124.983605 
L 284.210459 121.225128 
L 281.365072 114.904597 
L 279.262784 110.760479 
L 275.853796 104.748763 
L 272.330511 99.249361 
L 268.265302 93.601984 
L 263.760103 88.037318 
L 258.968283 82.767081 
L 258.202905 81.979148 
L 254.41557 78.275302 
L 251.132649 75.306257 
L 245.231163 70.466741 
L 240.99222 67.342888 
L 235.419065 63.634715 
L 232.058871 61.600017 
L 225.863282 58.212313 
L 219.514662 55.193733 
L 215.007566 53.309272 
L 207.914236 50.750846 
L 204.430332 49.66834 
L 198.043759 47.968685 
L 191.895266 46.668702 
L 185.550912 45.661983 
L 181.279408 45.171447 
L 177.666598 44.872566 
L 168.5579 44.58627 
L 164.282394 44.681683 
L 157.658923 45.120197 
L 149.931806 46.083264 
L 145.60829 46.838138 
L 141.657301 47.666491 
L 136.949803 48.830075 
L 129.288457 51.148898 
L 125.179062 52.618907 
L 121.26673 54.172196 
L 117.572371 55.782268 
L 112.952744 58.000898 
L 108.672749 60.271372 
L 101.410871 64.63601 
L 95.939044 68.394115 
L 93.162154 70.471888 
L 88.624858 74.138754 
L 84.205641 78.068485 
L 78.448455 83.800051 
L 73.205847 89.738583 
L 69.221496 94.813894 
L 67.777168 96.795558 
L 63.900622 102.558908 
L 60.090898 108.998688 
L 57.533396 113.886678 
L 54.38896 120.749829 
L 51.769655 127.497385 
L 50.171977 132.303879 
L 49.201459 135.594282 
L 47.1697 143.94926 
L 45.947771 150.818432 
L 45.194488 156.886308 
L 44.700126 163.835734 
L 44.620359 166.215504 
L 44.664475 173.660615 
L 45.1419 180.972085 
L 45.275896 182.30765 
L 46.283639 189.707613 
L 47.513865 196.060353 
L 48.740311 201.113278 
L 51.13855 209.080924 
L 52.483945 212.861843 
L 55.087867 219.274097 
L 56.911803 223.240309 
L 60.198191 229.595362 
L 62.155977 233.001029 
L 65.798871 238.749986 
L 69.283394 243.669228 
L 73.276957 248.747244 
L 76.420315 252.392092 
L 81.984002 258.207661 
L 85.892354 261.875942 
L 90.596152 265.897618 
L 93.698925 268.339204 
L 101.491524 273.816233 
L 104.378545 275.629193 
L 107.774647 277.624721 
L 114.575161 281.205005 
L 120.436078 283.878132 
L 124.851552 285.656899 
L 132.297386 288.22601 
L 136.767141 289.520837 
L 143.954298 291.231343 
L 151.165283 292.503459 
L 156.529721 293.169585 
L 161.989495 293.606602 
L 169.145178 293.815373 
L 170.943448 293.803188 
L 176.827084 293.581758 
L 182.480566 293.105693 
L 188.0492 292.38158 
L 191.709402 291.765578 
L 197.760767 290.498296 
L 201.591836 289.531887 
L 207.05128 287.927733 
L 212.362419 286.101667 
L 219.0711 283.400996 
L 224.301261 280.971397 
L 231.403308 277.180288 
L 236.237376 274.247533 
L 240.987127 271.060701 
L 246.83958 266.673534 
L 251.756996 262.545254 
L 257.32827 257.304496 
L 259.655508 254.913448 
L 263.734802 250.392151 
L 268.678344 244.253669 
L 272.022227 239.603009 
L 275.400416 234.395596 
L 279.349085 227.476694 
L 282.208664 221.717006 
L 283.401394 219.070189 
L 286.352002 211.67826 
L 287.311582 208.932207 
L 288.755563 204.349132 
L 290.481567 197.831723 
L 291.574985 192.723545 
L 292.353352 188.232763 
L 293.195494 181.614172 
L 293.696528 174.641373 
L 293.815385 169.2 
L 293.815385 169.2 
" clip-path="url(#p28174c6fd8)" style="fill: none; stroke: #000000; stroke-width: 3; stroke-linecap: square"/>
   </g>
   <g id="line2d_2">
    <path d="M 324.969231 169.2 
L 324.745309 160.850748 
L 324.450448 156.497571 
L 323.594679 148.552088 
L 322.558929 141.903622 
L 321.932336 138.591394 
L 320.787044 133.347226 
L 319.796296 129.390341 
L 318.208742 123.807841 
L 315.755389 116.421489 
L 312.5547 108.261644 
L 311.162034 105.084213 
L 308.708617 99.907871 
L 305.356582 93.533374 
L 302.449552 88.524042 
L 300.27173 85.031984 
L 295.679981 78.277684 
L 290.89131 71.961744 
L 287.401878 67.748685 
L 284.931302 64.939178 
L 279.280585 58.989664 
L 276.444032 56.227566 
L 271.099331 51.384128 
L 264.71946 46.154943 
L 261.563308 43.768454 
L 255.40926 39.461738 
L 251.54692 36.97656 
L 244.732266 32.968836 
L 238.215926 29.554538 
L 231.575477 26.464744 
L 223.203245 23.091469 
L 218.423835 21.412763 
L 212.368453 19.531907 
L 203.826628 17.32818 
L 196.404783 15.824796 
L 190.714784 14.923731 
L 184.037768 14.139064 
L 178.905671 13.733434 
L 170.276983 13.434492 
L 165.283459 13.480014 
L 158.398604 13.805717 
L 150.795207 14.521893 
L 145.363969 15.265284 
L 140.811401 16.039494 
L 135.782009 17.057662 
L 128.757292 18.772474 
L 121.773157 20.826324 
L 114.509611 23.347284 
L 106.695599 26.521154 
L 100.316393 29.48922 
L 92.091093 33.854997 
L 88.78597 35.792215 
L 80.39614 41.223722 
L 74.163241 45.781737 
L 67.821687 50.935504 
L 65.842165 52.661546 
L 61.258006 56.89426 
L 54.932548 63.336868 
L 50.37155 68.483305 
L 45.915931 73.989226 
L 40.923543 80.830301 
L 37.195332 86.502837 
L 35.330049 89.55774 
L 32.123717 95.212528 
L 28.563818 102.225994 
L 27.89666 103.645295 
L 24.018531 112.751843 
L 21.41142 119.980199 
L 20.347627 123.297667 
L 18.013868 131.692577 
L 16.61717 137.854614 
L 15.715906 142.616429 
L 14.894881 147.893115 
L 14.265118 153.099204 
L 13.631949 161.28578 
L 13.469198 165.74015 
L 13.436951 170.587718 
L 13.795948 179.85992 
L 14.056094 183.143517 
L 15.072393 191.755133 
L 16.414239 199.540807 
L 17.989063 206.607295 
L 19.440504 212.050283 
L 21.63176 219.076526 
L 24.505237 226.884302 
L 27.674616 234.273949 
L 30.146242 239.400467 
L 33.018532 244.82183 
L 35.362026 248.895984 
L 39.537968 255.523872 
L 42.872906 260.334618 
L 46.922792 265.700454 
L 51.848389 271.63365 
L 53.962996 274.006899 
L 57.217943 277.477755 
L 63.369361 283.497547 
L 67.858224 287.495806 
L 71.517006 290.534603 
L 77.609056 295.196635 
L 80.248533 297.073726 
L 86.04338 300.915716 
L 91.230181 304.050883 
L 96.557995 306.994022 
L 100.21213 308.859325 
L 105.732591 311.453089 
L 113.278897 314.585293 
L 119.684603 316.889806 
L 128.373887 319.523923 
L 133.025111 320.710497 
L 137.341277 321.676474 
L 142.2626 322.62239 
L 148.615021 323.603083 
L 153.567986 324.182881 
L 160.057563 324.700704 
L 167.166823 324.955961 
L 171.976003 324.944493 
L 178.226876 324.707456 
L 184.962595 324.169655 
L 191.458389 323.370741 
L 199.280869 322.03715 
L 202.821973 321.29739 
L 208.952241 319.811462 
L 214.417679 318.261782 
L 220.622647 316.23661 
L 224.035253 314.998314 
L 232.912468 311.3435 
L 237.277609 309.305291 
L 244.224641 305.711379 
L 250.392856 302.135222 
L 259.229507 296.317037 
L 265.216095 291.857909 
L 271.480714 286.68493 
L 275.868552 282.71596 
L 282.379524 276.225458 
L 285.579108 272.737223 
L 288.448724 269.418736 
L 291.769408 265.329046 
L 297.374236 257.7179 
L 302.121124 250.415935 
L 304.478326 246.425823 
L 306.597983 242.588334 
L 309.996076 235.837214 
L 312.281776 230.776445 
L 315.015057 223.990713 
L 317.944332 215.451238 
L 318.971227 212.009259 
L 320.758248 205.174308 
L 322.10287 198.945009 
L 322.915272 194.412462 
L 324.033435 186.248769 
L 324.399396 182.511673 
L 324.892943 174.074504 
L 324.969231 169.2 
L 324.969231 169.2 
" clip-path="url(#p28174c6fd8)" style="fill: none; stroke: #000000; stroke-width: 3; stroke-linecap: square"/>
   </g>
   <g id="line2d_3">
    <path d="M 253.362475 38.124712 
L 169.2 169.2 
L 272.049515 98.836861 
" clip-path="url(#p28174c6fd8)" style="fill: none; stroke: #000000; stroke-width: 2; stroke-linecap: square"/>
   </g>
   <g id="patch_4">
    <path d="M 169.2 331.2 
L 169.2 7.2 
" style="fill: none; stroke: #000000; stroke-width: 0.8; stroke-linejoin: miter; stroke-linecap: square"/>
   </g>
   <g id="patch_5">
    <path d="M 7.2 169.2 
L 331.2 169.2 
" style="fill: none; stroke: #000000; stroke-width: 0.8; stroke-linejoin: miter; stroke-linecap: square"/>
   </g>
   <g id="text_1">
    <!-- $R_0$ -->
    <g transform="translate(270.63413 93.970996) scale(0.2 -0.2)">
     <defs>
      <path id="Cmmi10-52" d="M 313 0 
Q 250 0 250 84 
Q 253 100 262 139 
Q 272 178 289 201 
Q 306 225 331 225 
Q 722 225 878 269 
Q 959 297 997 441 
L 1875 3956 
Q 1888 4019 1888 4044 
Q 1888 4113 1813 4122 
Q 1691 4147 1350 4147 
Q 1288 4147 1288 4231 
Q 1291 4247 1300 4286 
Q 1309 4325 1326 4348 
Q 1344 4372 1369 4372 
L 3309 4372 
Q 3541 4372 3791 4319 
Q 4041 4266 4250 4152 
Q 4459 4038 4593 3848 
Q 4728 3659 4728 3406 
Q 4728 3084 4515 2831 
Q 4303 2578 3978 2408 
Q 3653 2238 3347 2169 
Q 3597 2078 3756 1879 
Q 3916 1681 3916 1422 
Q 3916 1388 3914 1370 
Q 3913 1353 3909 1331 
L 3859 763 
Q 3853 638 3847 550 
Q 3841 463 3841 409 
Q 3841 234 3892 129 
Q 3944 25 4097 25 
Q 4297 25 4448 211 
Q 4600 397 4647 616 
Q 4675 672 4709 672 
L 4769 672 
Q 4831 672 4831 588 
Q 4784 403 4682 237 
Q 4581 72 4426 -34 
Q 4272 -141 4091 -141 
Q 3716 -141 3452 26 
Q 3188 194 3188 550 
Q 3188 684 3213 788 
L 3353 1356 
Q 3378 1434 3378 1538 
Q 3378 1803 3198 1954 
Q 3019 2106 2747 2106 
L 1959 2106 
L 1538 416 
Q 1522 363 1522 325 
Q 1522 259 1600 250 
Q 1722 225 2059 225 
Q 2125 225 2125 141 
Q 2103 50 2090 25 
Q 2078 0 2016 0 
L 313 0 
z
M 1997 2272 
L 2706 2272 
Q 3403 2272 3756 2625 
Q 3919 2788 4014 3039 
Q 4109 3291 4109 3541 
Q 4109 3778 3970 3912 
Q 3831 4047 3626 4097 
Q 3422 4147 3175 4147 
L 2747 4147 
Q 2572 4147 2515 4117 
Q 2459 4088 2413 3928 
L 1997 2272 
z
" transform="scale(0.015625)"/>
      <path id="Cmr10-30" d="M 1600 -141 
Q 816 -141 533 504 
Q 250 1150 250 2041 
Q 250 2597 351 3087 
Q 453 3578 754 3920 
Q 1056 4263 1600 4263 
Q 2022 4263 2290 4056 
Q 2559 3850 2700 3523 
Q 2841 3197 2892 2823 
Q 2944 2450 2944 2041 
Q 2944 1491 2842 1011 
Q 2741 531 2444 195 
Q 2147 -141 1600 -141 
z
M 1600 25 
Q 1956 25 2131 390 
Q 2306 756 2347 1200 
Q 2388 1644 2388 2144 
Q 2388 2625 2347 3031 
Q 2306 3438 2132 3767 
Q 1959 4097 1600 4097 
Q 1238 4097 1063 3765 
Q 888 3434 847 3029 
Q 806 2625 806 2144 
Q 806 1788 823 1472 
Q 841 1156 916 820 
Q 991 484 1158 254 
Q 1325 25 1600 25 
z
" transform="scale(0.015625)"/>
     </defs>
     <use xlink:href="#Cmmi10-52" transform="translate(0 0.6875)"/>
     <use xlink:href="#Cmr10-30" transform="translate(75.878906 -16.31875) scale(0.7)"/>
    </g>
   </g>
   <g id="text_2">
    <!-- $R_1$ -->
    <g transform="translate(251.94709 33.258847) scale(0.2 -0.2)">
     <defs>
      <path id="Cmr10-31" d="M 594 0 
L 594 225 
Q 1394 225 1394 428 
L 1394 3788 
Q 1063 3628 556 3628 
L 556 3853 
Q 1341 3853 1741 4263 
L 1831 4263 
Q 1853 4263 1873 4245 
Q 1894 4228 1894 4206 
L 1894 428 
Q 1894 225 2694 225 
L 2694 0 
L 594 0 
z
" transform="scale(0.015625)"/>
     </defs>
     <use xlink:href="#Cmmi10-52" transform="translate(0 0.6875)"/>
     <use xlink:href="#Cmr10-31" transform="translate(75.878906 -16.31875) scale(0.7)"/>
    </g>
   </g>
  </g>
 </g>
 <defs>
  <clipPath id="p28174c6fd8">
   <rect x="7.2" y="7.2" width="324" height="324"/>
  </clipPath>
 </defs>
</svg>
