<?xml version="1.0" encoding="utf-8" standalone="no"?>
<!DOCTYPE svg PUBLIC "-//W3C//DTD SVG 1.1//EN"
  "http://www.w3.org/Graphics/SVG/1.1/DTD/svg11.dtd">
<svg xmlns:xlink="http://www.w3.org/1999/xlink" width="334.9pt" height="338.0025pt" viewBox="0 0 334.9 338.0025" xmlns="http://www.w3.org/2000/svg" version="1.1">
 <metadata>
  <rdf:RDF xmlns:dc="http://purl.org/dc/elements/1.1/" xmlns:cc="http://creativecommons.org/ns#" xmlns:rdf="http://www.w3.org/1999/02/22-rdf-syntax-ns#">
   <cc:Work>
    <dc:type rdf:resource="http://purl.org/dc/dcmitype/StillImage"/>
    <dc:date>2025-06-04T11:04:57.699595</dc:date>
    <dc:format>image/svg+xml</dc:format>
    <dc:creator>
     <cc:Agent>
      <dc:title>Matplotlib v3.8.0, https://matplotlib.org/</dc:title>
     </cc:Agent>
    </dc:creator>
   </cc:Work>
  </rdf:RDF>
 </metadata>
 <defs>
  <style type="text/css">*{stroke-linejoin: round; stroke-linecap: butt}</style>
 </defs>
 <g id="figure_1">
  <g id="patch_1">
   <path d="M -0 338.0025 
L 334.9 338.0025 
L 334.9 0 
L -0 0 
z
" style="fill: #ffffff"/>
  </g>
  <g id="axes_1">
   <g id="patch_2">
    <path d="M 7.2 330.8025 
L 314.56 330.8025 
L 314.56 23.4425 
L 7.2 23.4425 
z
" style="fill: #ffffff"/>
   </g>
   <g id="matplotlib.axis_1">
    <g id="text_1">
     <!-- $x$ -->
     <g transform="translate(322.56 310.818471) scale(0.16 -0.16)">
      <defs>
       <path id="Cmmi10-78" d="M 500 184 
Q 613 97 819 97 
Q 1019 97 1172 289 
Q 1325 481 1381 709 
L 1672 1844 
Q 1741 2153 1741 2266 
Q 1741 2425 1652 2544 
Q 1563 2663 1403 2663 
Q 1200 2663 1022 2536 
Q 844 2409 722 2214 
Q 600 2019 550 1819 
Q 538 1778 500 1778 
L 422 1778 
Q 372 1778 372 1838 
L 372 1856 
Q 434 2094 584 2320 
Q 734 2547 951 2687 
Q 1169 2828 1416 2828 
Q 1650 2828 1839 2703 
Q 2028 2578 2106 2363 
Q 2216 2559 2386 2693 
Q 2556 2828 2759 2828 
Q 2897 2828 3040 2779 
Q 3184 2731 3275 2631 
Q 3366 2531 3366 2381 
Q 3366 2219 3261 2101 
Q 3156 1984 2994 1984 
Q 2891 1984 2822 2050 
Q 2753 2116 2753 2216 
Q 2753 2350 2845 2451 
Q 2938 2553 3066 2572 
Q 2950 2663 2747 2663 
Q 2541 2663 2389 2472 
Q 2238 2281 2175 2047 
L 1894 916 
Q 1825 659 1825 494 
Q 1825 331 1917 214 
Q 2009 97 2163 97 
Q 2463 97 2698 361 
Q 2934 625 3009 941 
Q 3022 978 3059 978 
L 3138 978 
Q 3163 978 3178 961 
Q 3194 944 3194 922 
Q 3194 916 3188 903 
Q 3097 522 2806 225 
Q 2516 -72 2150 -72 
Q 1916 -72 1727 54 
Q 1538 181 1459 397 
Q 1359 209 1182 68 
Q 1006 -72 806 -72 
Q 669 -72 523 -23 
Q 378 25 287 125 
Q 197 225 197 378 
Q 197 528 301 651 
Q 406 775 563 775 
Q 669 775 741 711 
Q 813 647 813 544 
Q 813 409 723 309 
Q 634 209 500 184 
z
" transform="scale(0.015625)"/>
      </defs>
      <use xlink:href="#Cmmi10-78" transform="translate(0 0.8125)"/>
     </g>
    </g>
   </g>
   <g id="matplotlib.axis_2">
    <g id="text_2">
     <!-- $y$ -->
     <g transform="translate(23.184029 12.0825) scale(0.16 -0.16)">
      <defs>
       <path id="Cmmi10-79" d="M 538 -916 
Q 672 -1147 1006 -1147 
Q 1309 -1147 1531 -934 
Q 1753 -722 1889 -420 
Q 2025 -119 2100 197 
Q 1816 -72 1484 -72 
Q 1231 -72 1053 15 
Q 875 103 776 276 
Q 678 450 678 697 
Q 678 906 734 1126 
Q 791 1347 892 1617 
Q 994 1888 1069 2088 
Q 1153 2322 1153 2472 
Q 1153 2663 1013 2663 
Q 759 2663 595 2402 
Q 431 2141 353 1819 
Q 341 1778 300 1778 
L 225 1778 
Q 172 1778 172 1838 
L 172 1856 
Q 275 2238 487 2533 
Q 700 2828 1025 2828 
Q 1253 2828 1411 2678 
Q 1569 2528 1569 2297 
Q 1569 2178 1516 2047 
Q 1488 1969 1388 1706 
Q 1288 1444 1234 1272 
Q 1181 1100 1147 934 
Q 1113 769 1113 603 
Q 1113 391 1203 244 
Q 1294 97 1491 97 
Q 1888 97 2203 581 
L 2688 2553 
Q 2709 2638 2787 2698 
Q 2866 2759 2956 2759 
Q 3034 2759 3092 2709 
Q 3150 2659 3150 2578 
Q 3150 2541 3144 2528 
L 2509 -19 
Q 2425 -347 2200 -647 
Q 1975 -947 1658 -1130 
Q 1341 -1313 997 -1313 
Q 831 -1313 668 -1248 
Q 506 -1184 406 -1056 
Q 306 -928 306 -756 
Q 306 -581 409 -453 
Q 513 -325 684 -325 
Q 788 -325 858 -389 
Q 928 -453 928 -556 
Q 928 -703 818 -812 
Q 709 -922 563 -922 
Q 556 -919 550 -917 
Q 544 -916 538 -916 
z
" transform="scale(0.015625)"/>
      </defs>
      <use xlink:href="#Cmmi10-79" transform="translate(0 0.8125)"/>
     </g>
    </g>
   </g>
   <g id="line2d_1">
    <path d="M 167.91663 170.08587 
L 273.466081 170.08587 
L 273.466081 170.08587 
" clip-path="url(#p71575072f3)" style="fill: none; stroke: #808080; stroke-width: 2; stroke-linecap: square"/>
   </g>
   <g id="patch_3">
    <path d="M 203.09978 170.08587 
Q 199.581465 170.08587 198.299218 170.08587 
" clip-path="url(#p71575072f3)" style="fill: none; stroke: #808080; stroke-width: 2; stroke-linecap: round"/>
    <path d="M 204.299218 173.08587 
L 198.299218 170.08587 
L 204.299218 167.08587 
z
" clip-path="url(#p71575072f3)" style="fill: #808080; stroke: #808080; stroke-width: 2; stroke-linecap: round"/>
   </g>
   <g id="line2d_2">
    <path d="M 167.91663 170.08587 
L 167.91663 64.536419 
L 167.91663 64.536419 
" clip-path="url(#p71575072f3)" style="fill: none; stroke: #808080; stroke-width: 2; stroke-linecap: square"/>
   </g>
   <g id="patch_4">
    <path d="M 167.91663 134.90272 
Q 167.91663 138.421035 167.91663 139.703282 
" clip-path="url(#p71575072f3)" style="fill: none; stroke: #808080; stroke-width: 2; stroke-linecap: round"/>
    <path d="M 170.91663 133.703282 
L 167.91663 139.703282 
L 164.91663 133.703282 
z
" clip-path="url(#p71575072f3)" style="fill: #808080; stroke: #808080; stroke-width: 2; stroke-linecap: round"/>
   </g>
   <g id="line2d_3">
    <path d="M 167.91663 170.08587 
L 167.91663 275.635321 
L 167.91663 275.635321 
" clip-path="url(#p71575072f3)" style="fill: none; stroke: #808080; stroke-width: 2; stroke-linecap: square"/>
   </g>
   <g id="patch_5">
    <path d="M 167.91663 205.26902 
Q 167.91663 201.750705 167.91663 200.468458 
" clip-path="url(#p71575072f3)" style="fill: none; stroke: #808080; stroke-width: 2; stroke-linecap: round"/>
    <path d="M 164.91663 206.468458 
L 167.91663 200.468458 
L 170.91663 206.468458 
z
" clip-path="url(#p71575072f3)" style="fill: #808080; stroke: #808080; stroke-width: 2; stroke-linecap: round"/>
   </g>
   <g id="line2d_4">
    <path d="M 167.91663 170.08587 
L 62.367179 170.08587 
L 62.367179 170.08587 
" clip-path="url(#p71575072f3)" style="fill: none; stroke: #808080; stroke-width: 2; stroke-linecap: square"/>
   </g>
   <g id="patch_6">
    <path d="M 132.73348 170.08587 
Q 136.251795 170.08587 137.534042 170.08587 
" clip-path="url(#p71575072f3)" style="fill: none; stroke: #808080; stroke-width: 2; stroke-linecap: round"/>
    <path d="M 131.534042 167.08587 
L 137.534042 170.08587 
L 131.534042 173.08587 
z
" clip-path="url(#p71575072f3)" style="fill: #808080; stroke: #808080; stroke-width: 2; stroke-linecap: round"/>
   </g>
   <g id="line2d_5">
    <path d="M 167.91663 170.08587 
L 62.367179 64.536419 
L 62.367179 64.536419 
" clip-path="url(#p71575072f3)" style="fill: none; stroke: #808080; stroke-width: 2; stroke-linecap: square"/>
   </g>
   <g id="patch_7">
    <path d="M 132.73348 134.90272 
Q 136.251795 138.421035 138.188971 140.358211 
" clip-path="url(#p71575072f3)" style="fill: none; stroke: #808080; stroke-width: 2; stroke-linecap: round"/>
    <path d="M 136.067651 133.99425 
L 138.188971 140.358211 
L 131.82501 138.236891 
z
" clip-path="url(#p71575072f3)" style="fill: #808080; stroke: #808080; stroke-width: 2; stroke-linecap: round"/>
   </g>
   <g id="line2d_6">
    <path d="M 167.91663 170.08587 
L 170.791943 169.968379 
L 173.774457 169.59822 
L 176.786729 168.96774 
L 179.544508 168.164388 
L 182.542333 167.045904 
L 185.579051 165.652482 
L 188.12512 164.282196 
L 191.178793 162.395709 
L 194.576476 159.985192 
L 197.588333 157.574057 
L 200.905317 154.62032 
L 204.453804 151.114216 
L 207.997681 147.255472 
L 211.489584 143.104171 
L 214.963611 138.63021 
L 218.840665 133.232187 
L 222.751491 127.354308 
L 226.243459 121.738593 
L 230.439919 114.531411 
L 234.533196 107.019219 
L 238.45874 99.36751 
L 242.598844 90.823026 
L 247.078107 81.029895 
L 251.39459 71.053097 
L 255.752627 60.443012 
L 260.488686 48.300504 
L 265.673103 34.277563 
L 270.729876 19.863911 
L 273.466081 11.761694 
L 273.466081 11.761694 
" clip-path="url(#p71575072f3)" style="fill: none; stroke: #808080; stroke-width: 2; stroke-linecap: square"/>
   </g>
   <g id="patch_8">
    <path d="M 203.09978 152.494295 
Q 199.581465 155.660778 197.725206 157.331411 
" clip-path="url(#p71575072f3)" style="fill: none; stroke: #808080; stroke-width: 2; stroke-linecap: round"/>
    <path d="M 204.191865 155.547505 
L 197.725206 157.331411 
L 200.178077 151.08774 
z
" clip-path="url(#p71575072f3)" style="fill: #808080; stroke: #808080; stroke-width: 2; stroke-linecap: round"/>
   </g>
   <g id="line2d_7">
    <path d="M 167.91663 170.08587 
L 164.316499 180.576223 
L 162.465375 185.381363 
L 160.769922 189.192315 
L 159.31338 191.91802 
L 158.458981 193.256576 
L 157.32263 194.723186 
L 156.038978 195.940274 
L 155.043925 196.563925 
L 154.048388 196.916071 
L 153.323447 197.008581 
L 152.679163 196.980821 
L 151.344557 196.619977 
L 150.128379 195.978195 
L 148.309407 194.586695 
L 146.199822 192.581115 
L 143.250581 189.744449 
L 141.605086 188.478575 
L 140.471565 187.848618 
L 139.078965 187.422118 
L 138.295592 187.375673 
L 137.189579 187.572069 
L 136.234546 188.003688 
L 135.287625 188.681566 
L 134.008758 190.000033 
L 133.633727 190.474536 
L 132.609164 191.970775 
L 130.850033 195.193632 
L 129.084745 199.175047 
L 127.160756 204.203284 
L 124.583053 211.666268 
L 119.911444 225.314537 
L 117.784985 230.708311 
L 116.064566 234.387511 
L 115.035105 236.240631 
L 113.289803 238.728017 
L 111.861254 240.125948 
L 110.626784 240.87064 
L 109.784589 241.139527 
L 109.166017 241.218689 
L 107.957589 241.101949 
L 106.872477 240.718585 
L 105.538216 239.93938 
L 104.383921 239.046077 
L 102.029572 236.835622 
L 99.211765 234.109298 
L 97.398355 232.694764 
L 96.093962 231.989202 
L 95.281225 231.717528 
L 94.43381 231.590609 
L 93.606205 231.634039 
L 92.853135 231.826551 
L 91.663745 232.443038 
L 90.476884 233.453013 
L 88.930673 235.367229 
L 87.514691 237.699369 
L 85.68777 241.463072 
L 84.184228 245.113575 
L 81.84701 251.532394 
L 74.528524 272.597552 
L 73.009298 276.200481 
L 71.53035 279.208688 
L 70.441401 281.068159 
L 69.297744 282.673253 
L 67.943317 284.097594 
L 67.334561 284.568327 
L 66.237558 285.155306 
L 65.214314 285.409686 
L 64.537864 285.430327 
L 63.123355 285.124728 
L 62.367179 284.78699 
L 62.367179 284.78699 
" clip-path="url(#p71575072f3)" style="fill: none; stroke: #808080; stroke-width: 2; stroke-linecap: square"/>
   </g>
   <g id="patch_9">
    <path d="M 132.73348 191.773829 
Q 136.251795 189.677771 137.84911 188.72616 
" clip-path="url(#p71575072f3)" style="fill: none; stroke: #808080; stroke-width: 2; stroke-linecap: round"/>
    <path d="M 131.15909 189.219744 
L 137.84911 188.72616 
L 134.229966 194.374327 
z
" clip-path="url(#p71575072f3)" style="fill: #808080; stroke: #808080; stroke-width: 2; stroke-linecap: round"/>
   </g>
   <g id="patch_10">
    <path d="M 27.184029 330.8025 
L 27.184029 23.4425 
" style="fill: none; stroke: #000000; stroke-width: 0.8; stroke-linejoin: miter; stroke-linecap: square"/>
   </g>
   <g id="patch_11">
    <path d="M 7.2 310.818471 
L 314.56 310.818471 
" style="fill: none; stroke: #000000; stroke-width: 0.8; stroke-linejoin: miter; stroke-linecap: square"/>
   </g>
   <g id="text_3">
    <!-- $(a,b)$ -->
    <g transform="translate(172.60152 187.90913) scale(0.15 -0.15)">
     <defs>
      <path id="Cmr10-28" d="M 1984 -1588 
Q 1628 -1306 1370 -942 
Q 1113 -578 948 -165 
Q 784 247 703 697 
Q 622 1147 622 1600 
Q 622 2059 703 2509 
Q 784 2959 951 3375 
Q 1119 3791 1378 4153 
Q 1638 4516 1984 4788 
Q 1984 4800 2016 4800 
L 2075 4800 
Q 2094 4800 2109 4783 
Q 2125 4766 2125 4744 
Q 2125 4716 2113 4703 
Q 1800 4397 1592 4047 
Q 1384 3697 1257 3301 
Q 1131 2906 1075 2482 
Q 1019 2059 1019 1600 
Q 1019 -434 2106 -1491 
Q 2125 -1509 2125 -1544 
Q 2125 -1559 2108 -1579 
Q 2091 -1600 2075 -1600 
L 2016 -1600 
Q 1984 -1600 1984 -1588 
z
" transform="scale(0.015625)"/>
      <path id="Cmmi10-61" d="M 1113 -72 
Q 709 -72 476 233 
Q 244 538 244 953 
Q 244 1363 456 1803 
Q 669 2244 1030 2536 
Q 1391 2828 1806 2828 
Q 1997 2828 2147 2725 
Q 2297 2622 2381 2444 
Q 2453 2700 2663 2700 
Q 2744 2700 2798 2651 
Q 2853 2603 2853 2522 
Q 2853 2503 2851 2493 
Q 2850 2484 2847 2472 
L 2400 684 
Q 2356 494 2356 372 
Q 2356 97 2541 97 
Q 2741 97 2845 351 
Q 2950 606 3022 941 
Q 3034 978 3072 978 
L 3150 978 
Q 3175 978 3190 956 
Q 3206 934 3206 916 
Q 3094 469 2961 198 
Q 2828 -72 2528 -72 
Q 2313 -72 2147 54 
Q 1981 181 1941 391 
Q 1528 -72 1113 -72 
z
M 1119 97 
Q 1350 97 1567 270 
Q 1784 444 1941 678 
Q 1947 684 1947 697 
L 2291 2088 
L 2297 2106 
Q 2259 2334 2132 2498 
Q 2006 2663 1791 2663 
Q 1575 2663 1389 2486 
Q 1203 2309 1075 2069 
Q 950 1813 836 1366 
Q 722 919 722 672 
Q 722 450 817 273 
Q 913 97 1119 97 
z
" transform="scale(0.015625)"/>
      <path id="Cmmi10-3b" d="M 634 -1153 
Q 634 -1125 659 -1100 
Q 891 -878 1019 -587 
Q 1147 -297 1147 25 
L 1147 103 
Q 1044 0 891 0 
Q 744 0 641 103 
Q 538 206 538 353 
Q 538 503 641 603 
Q 744 703 891 703 
Q 1119 703 1216 492 
Q 1313 281 1313 25 
Q 1313 -331 1170 -651 
Q 1028 -972 769 -1228 
Q 744 -1241 728 -1241 
Q 697 -1241 665 -1212 
Q 634 -1184 634 -1153 
z
" transform="scale(0.015625)"/>
      <path id="Cmmi10-62" d="M 1106 -72 
Q 719 -72 503 231 
Q 288 534 288 941 
Q 288 1000 317 1173 
Q 347 1347 347 1388 
L 966 3872 
Q 991 3981 997 4044 
Q 997 4147 581 4147 
Q 519 4147 519 4231 
Q 522 4247 533 4287 
Q 544 4328 561 4350 
Q 578 4372 609 4372 
L 1472 4441 
Q 1550 4441 1550 4359 
L 1075 2472 
Q 1438 2828 1806 2828 
Q 2078 2828 2273 2684 
Q 2469 2541 2566 2306 
Q 2663 2072 2663 1806 
Q 2663 1497 2542 1167 
Q 2422 838 2209 555 
Q 1997 272 1712 100 
Q 1428 -72 1106 -72 
z
M 1119 97 
Q 1338 97 1528 280 
Q 1719 463 1838 691 
Q 1966 947 2077 1386 
Q 2188 1825 2188 2088 
Q 2188 2316 2092 2489 
Q 1997 2663 1791 2663 
Q 1559 2663 1348 2492 
Q 1138 2322 978 2088 
L 800 1363 
Q 697 959 691 716 
Q 691 475 795 286 
Q 900 97 1119 97 
z
" transform="scale(0.015625)"/>
      <path id="Cmr10-29" d="M 416 -1600 
Q 359 -1600 359 -1544 
Q 359 -1516 372 -1503 
Q 1466 -434 1466 1600 
Q 1466 3634 384 4691 
Q 359 4706 359 4744 
Q 359 4766 376 4783 
Q 394 4800 416 4800 
L 475 4800 
Q 494 4800 506 4788 
Q 966 4425 1272 3906 
Q 1578 3388 1720 2800 
Q 1863 2213 1863 1600 
Q 1863 1147 1786 708 
Q 1709 269 1542 -157 
Q 1375 -584 1119 -945 
Q 863 -1306 506 -1588 
Q 494 -1600 475 -1600 
L 416 -1600 
z
" transform="scale(0.015625)"/>
     </defs>
     <use xlink:href="#Cmr10-28"/>
     <use xlink:href="#Cmmi10-61" transform="translate(38.818359 0)"/>
     <use xlink:href="#Cmmi10-3b" transform="translate(91.601562 0)"/>
     <use xlink:href="#Cmmi10-62" transform="translate(136.845703 0)"/>
     <use xlink:href="#Cmr10-29" transform="translate(179.765625 0)"/>
    </g>
   </g>
   <g id="PathCollection_1">
    <path d="M 167.91663 173.248148 
C 168.755276 173.248148 169.559686 172.91495 170.152698 172.321938 
C 170.74571 171.728926 171.078908 170.924516 171.078908 170.08587 
C 171.078908 169.247224 170.74571 168.442814 170.152698 167.849802 
C 169.559686 167.25679 168.755276 166.923592 167.91663 166.923592 
C 167.077984 166.923592 166.273574 167.25679 165.680562 167.849802 
C 165.08755 168.442814 164.754352 169.247224 164.754352 170.08587 
C 164.754352 170.924516 165.08755 171.728926 165.680562 172.321938 
C 166.273574 172.91495 167.077984 173.248148 167.91663 173.248148 
z
" clip-path="url(#p71575072f3)"/>
   </g>
  </g>
 </g>
 <defs>
  <clipPath id="p71575072f3">
   <rect x="7.2" y="23.4425" width="307.36" height="307.36"/>
  </clipPath>
 </defs>
</svg>
