<?xml version="1.0" encoding="utf-8" standalone="no"?>
<!DOCTYPE svg PUBLIC "-//W3C//DTD SVG 1.1//EN"
  "http://www.w3.org/Graphics/SVG/1.1/DTD/svg11.dtd">
<svg xmlns:xlink="http://www.w3.org/1999/xlink" width="338.4pt" height="338.4pt" viewBox="0 0 338.4 338.4" xmlns="http://www.w3.org/2000/svg" version="1.1">
 <metadata>
  <rdf:RDF xmlns:dc="http://purl.org/dc/elements/1.1/" xmlns:cc="http://creativecommons.org/ns#" xmlns:rdf="http://www.w3.org/1999/02/22-rdf-syntax-ns#">
   <cc:Work>
    <dc:type rdf:resource="http://purl.org/dc/dcmitype/StillImage"/>
    <dc:date>2025-09-03T15:05:12.249516</dc:date>
    <dc:format>image/svg+xml</dc:format>
    <dc:creator>
     <cc:Agent>
      <dc:title>Matplotlib v3.10.5, https://matplotlib.org/</dc:title>
     </cc:Agent>
    </dc:creator>
   </cc:Work>
  </rdf:RDF>
 </metadata>
 <defs>
  <style type="text/css">*{stroke-linejoin: round; stroke-linecap: butt}</style>
 </defs>
 <g id="figure_1">
  <g id="patch_1">
   <path d="M -0 338.4 
L 338.4 338.4 
L 338.4 0 
L -0 0 
z
" style="fill: #ffffff"/>
  </g>
  <g id="axes_1">
   <g id="patch_2">
    <path d="M 7.2 331.2 
L 331.2 331.2 
L 331.2 7.2 
L 7.2 7.2 
z
" style="fill: #ffffff"/>
   </g>
   <g id="PathCollection_1">
    <path d="M 91.315385 247.084615 
C 91.315385 247.084615 91.315385 247.084615 91.315385 247.084615 
C 91.315385 247.084615 91.315385 247.084615 91.315385 247.084615 
C 91.315385 247.084615 91.315385 247.084615 91.315385 247.084615 
C 91.315385 247.084615 91.315385 247.084615 91.315385 247.084615 
C 91.315385 247.084615 91.315385 247.084615 91.315385 247.084615 
C 91.315385 247.084615 91.315385 247.084615 91.315385 247.084615 
C 91.315385 247.084615 91.315385 247.084615 91.315385 247.084615 
C 91.315385 247.084615 91.315385 247.084615 91.315385 247.084615 
z
" clip-path="url(#p1e9a570b04)" style="fill: #0000ff"/>
   </g>
   <g id="PathCollection_2">
    <path d="M 130.257692 197.397606 
C 130.850704 197.397606 131.419508 197.162 131.838831 196.742677 
C 132.258154 196.323354 132.49376 195.754551 132.49376 195.161538 
C 132.49376 194.568526 132.258154 193.999723 131.838831 193.5804 
C 131.419508 193.161077 130.850704 192.92547 130.257692 192.92547 
C 129.66468 192.92547 129.095876 193.161077 128.676553 193.5804 
C 128.257231 193.999723 128.021624 194.568526 128.021624 195.161538 
C 128.021624 195.754551 128.257231 196.323354 128.676553 196.742677 
C 129.095876 197.162 129.66468 197.397606 130.257692 197.397606 
z
" clip-path="url(#p1e9a570b04)"/>
   </g>
   <g id="PathCollection_3">
    <path d="M 208.142308 93.551453 
C 208.73532 93.551453 209.304124 93.315846 209.723447 92.896523 
C 210.142769 92.477201 210.378376 91.908397 210.378376 91.315385 
C 210.378376 90.722372 210.142769 90.153569 209.723447 89.734246 
C 209.304124 89.314923 208.73532 89.079317 208.142308 89.079317 
C 207.549296 89.079317 206.980492 89.314923 206.561169 89.734246 
C 206.141846 90.153569 205.90624 90.722372 205.90624 91.315385 
C 205.90624 91.908397 206.141846 92.477201 206.561169 92.896523 
C 206.980492 93.315846 207.549296 93.551453 208.142308 93.551453 
z
" clip-path="url(#p1e9a570b04)"/>
   </g>
   <g id="PathCollection_4">
    <path d="M 286.026923 41.628376 
C 286.619935 41.628376 287.188739 41.392769 287.608062 40.973447 
C 288.027385 40.554124 288.262991 39.98532 288.262991 39.392308 
C 288.262991 38.799296 288.027385 38.230492 287.608062 37.811169 
C 287.188739 37.391846 286.619935 37.15624 286.026923 37.15624 
C 285.433911 37.15624 284.865107 37.391846 284.445784 37.811169 
C 284.026461 38.230492 283.790855 38.799296 283.790855 39.392308 
C 283.790855 39.98532 284.026461 40.554124 284.445784 40.973447 
C 284.865107 41.392769 285.433911 41.628376 286.026923 41.628376 
z
" clip-path="url(#p1e9a570b04)"/>
   </g>
   <g id="matplotlib.axis_1">
    <g id="xtick_1">
     <g id="line2d_1">
      <path d="M 13.430769 331.2 
L 13.430769 7.2 
" clip-path="url(#p1e9a570b04)" style="fill: none; stroke-dasharray: 0.5,0.825; stroke-dashoffset: 0; stroke: #000000; stroke-width: 0.5"/>
     </g>
     <g id="line2d_2">
      <defs>
       <path id="me6d9c502bc" d="M 0 0 
L 0 3.5 
" style="stroke: #000000; stroke-width: 0.8"/>
      </defs>
      <g>
       <use xlink:href="#me6d9c502bc" x="13.430769" y="247.084615" style="stroke: #000000; stroke-width: 0.8"/>
      </g>
     </g>
    </g>
    <g id="xtick_2">
     <g id="line2d_3">
      <path d="M 91.315385 331.2 
L 91.315385 7.2 
" clip-path="url(#p1e9a570b04)" style="fill: none; stroke-dasharray: 0.5,0.825; stroke-dashoffset: 0; stroke: #000000; stroke-width: 0.5"/>
     </g>
     <g id="line2d_4">
      <g>
       <use xlink:href="#me6d9c502bc" x="91.315385" y="247.084615" style="stroke: #000000; stroke-width: 0.8"/>
      </g>
     </g>
    </g>
    <g id="xtick_3">
     <g id="line2d_5">
      <path d="M 169.2 331.2 
L 169.2 7.2 
" clip-path="url(#p1e9a570b04)" style="fill: none; stroke-dasharray: 0.5,0.825; stroke-dashoffset: 0; stroke: #000000; stroke-width: 0.5"/>
     </g>
     <g id="line2d_6">
      <g>
       <use xlink:href="#me6d9c502bc" x="169.2" y="247.084615" style="stroke: #000000; stroke-width: 0.8"/>
      </g>
     </g>
    </g>
    <g id="xtick_4">
     <g id="line2d_7">
      <path d="M 247.084615 331.2 
L 247.084615 7.2 
" clip-path="url(#p1e9a570b04)" style="fill: none; stroke-dasharray: 0.5,0.825; stroke-dashoffset: 0; stroke: #000000; stroke-width: 0.5"/>
     </g>
     <g id="line2d_8">
      <g>
       <use xlink:href="#me6d9c502bc" x="247.084615" y="247.084615" style="stroke: #000000; stroke-width: 0.8"/>
      </g>
     </g>
    </g>
    <g id="xtick_5">
     <g id="line2d_9">
      <path d="M 324.969231 331.2 
L 324.969231 7.2 
" clip-path="url(#p1e9a570b04)" style="fill: none; stroke-dasharray: 0.5,0.825; stroke-dashoffset: 0; stroke: #000000; stroke-width: 0.5"/>
     </g>
     <g id="line2d_10">
      <g>
       <use xlink:href="#me6d9c502bc" x="324.969231" y="247.084615" style="stroke: #000000; stroke-width: 0.8"/>
      </g>
     </g>
    </g>
   </g>
   <g id="matplotlib.axis_2">
    <g id="ytick_1">
     <g id="line2d_11">
      <path d="M 7.2 324.969231 
L 331.2 324.969231 
" clip-path="url(#p1e9a570b04)" style="fill: none; stroke-dasharray: 0.5,0.825; stroke-dashoffset: 0; stroke: #000000; stroke-width: 0.5"/>
     </g>
     <g id="line2d_12">
      <defs>
       <path id="m0393c3b122" d="M 0 0 
L -3.5 0 
" style="stroke: #000000; stroke-width: 0.8"/>
      </defs>
      <g>
       <use xlink:href="#m0393c3b122" x="91.315385" y="324.969231" style="stroke: #000000; stroke-width: 0.8"/>
      </g>
     </g>
    </g>
    <g id="ytick_2">
     <g id="line2d_13">
      <path d="M 7.2 247.084615 
L 331.2 247.084615 
" clip-path="url(#p1e9a570b04)" style="fill: none; stroke-dasharray: 0.5,0.825; stroke-dashoffset: 0; stroke: #000000; stroke-width: 0.5"/>
     </g>
     <g id="line2d_14">
      <g>
       <use xlink:href="#m0393c3b122" x="91.315385" y="247.084615" style="stroke: #000000; stroke-width: 0.8"/>
      </g>
     </g>
    </g>
    <g id="ytick_3">
     <g id="line2d_15">
      <path d="M 7.2 169.2 
L 331.2 169.2 
" clip-path="url(#p1e9a570b04)" style="fill: none; stroke-dasharray: 0.5,0.825; stroke-dashoffset: 0; stroke: #000000; stroke-width: 0.5"/>
     </g>
     <g id="line2d_16">
      <g>
       <use xlink:href="#m0393c3b122" x="91.315385" y="169.2" style="stroke: #000000; stroke-width: 0.8"/>
      </g>
     </g>
    </g>
    <g id="ytick_4">
     <g id="line2d_17">
      <path d="M 7.2 91.315385 
L 331.2 91.315385 
" clip-path="url(#p1e9a570b04)" style="fill: none; stroke-dasharray: 0.5,0.825; stroke-dashoffset: 0; stroke: #000000; stroke-width: 0.5"/>
     </g>
     <g id="line2d_18">
      <g>
       <use xlink:href="#m0393c3b122" x="91.315385" y="91.315385" style="stroke: #000000; stroke-width: 0.8"/>
      </g>
     </g>
    </g>
    <g id="ytick_5">
     <g id="line2d_19">
      <path d="M 7.2 13.430769 
L 331.2 13.430769 
" clip-path="url(#p1e9a570b04)" style="fill: none; stroke-dasharray: 0.5,0.825; stroke-dashoffset: 0; stroke: #000000; stroke-width: 0.5"/>
     </g>
     <g id="line2d_20">
      <g>
       <use xlink:href="#m0393c3b122" x="91.315385" y="13.430769" style="stroke: #000000; stroke-width: 0.8"/>
      </g>
     </g>
    </g>
   </g>
   <g id="line2d_21">
    <path d="M 106.892308 236.440385 
L 113.516094 224.263759 
L 121.256549 210.510199 
L 128.401189 198.270461 
L 135.186152 187.051395 
L 141.613652 176.786857 
L 148.653515 165.950157 
L 155.604587 155.666359 
L 163.096972 145.044858 
L 168.751216 137.347317 
L 174.73181 129.503297 
L 181.993778 120.390232 
L 187.82986 113.393673 
L 194.949959 105.252588 
L 201.922351 97.700919 
L 207.607326 91.851591 
L 213.563919 86.019574 
L 219.69299 80.335711 
L 225.854753 74.945655 
L 232.03457 69.866225 
L 238.321205 65.034415 
L 244.57929 60.560541 
L 250.131028 56.872239 
L 255.481982 53.567013 
L 260.742759 50.556414 
L 266.35104 47.607832 
L 271.507882 45.134188 
L 277.226657 42.65718 
L 282.202314 40.729781 
L 287.716711 38.841266 
L 293.287144 37.197828 
L 298.592639 35.87951 
L 302.926555 34.981408 
L 308.457728 34.068733 
L 309.392308 33.940385 
L 309.392308 33.940385 
" clip-path="url(#p1e9a570b04)" style="fill: none; stroke: #0000ff; stroke-width: 2; stroke-linecap: square"/>
   </g>
   <g id="patch_3">
    <path d="M 91.315385 331.2 
L 91.315385 7.2 
" style="fill: none; stroke: #000000; stroke-width: 0.8; stroke-linejoin: miter; stroke-linecap: square"/>
   </g>
   <g id="patch_4">
    <path d="M 7.2 247.084615 
L 331.2 247.084615 
" style="fill: none; stroke: #000000; stroke-width: 0.8; stroke-linejoin: miter; stroke-linecap: square"/>
   </g>
   <g id="line2d_22">
    <path d="M 110.786538 227.613462 
L 149.728846 162.709615 
L 149.728846 162.709615 
" clip-path="url(#p1e9a570b04)" style="fill: none; stroke: #ff0000; stroke-width: 2; stroke-linecap: square"/>
   </g>
   <g id="line2d_23">
    <path d="M 188.671154 110.786538 
L 227.613462 71.844231 
L 227.613462 71.844231 
" clip-path="url(#p1e9a570b04)" style="fill: none; stroke: #ff0000; stroke-width: 2; stroke-linecap: square"/>
   </g>
   <g id="line2d_24">
    <path d="M 266.555769 45.882692 
L 305.498077 32.901923 
L 305.498077 32.901923 
" clip-path="url(#p1e9a570b04)" style="fill: none; stroke: #ff0000; stroke-width: 2; stroke-linecap: square"/>
   </g>
  </g>
 </g>
 <defs>
  <clipPath id="p1e9a570b04">
   <rect x="7.2" y="7.2" width="324" height="324"/>
  </clipPath>
 </defs>
</svg>
