<?xml version="1.0" encoding="utf-8" standalone="no"?>
<!DOCTYPE svg PUBLIC "-//W3C//DTD SVG 1.1//EN"
  "http://www.w3.org/Graphics/SVG/1.1/DTD/svg11.dtd">
<svg xmlns:xlink="http://www.w3.org/1999/xlink" width="453.6pt" height="236.335904pt" viewBox="0 0 453.6 236.335904" xmlns="http://www.w3.org/2000/svg" version="1.1">
 <metadata>
  <rdf:RDF xmlns:dc="http://purl.org/dc/elements/1.1/" xmlns:cc="http://creativecommons.org/ns#" xmlns:rdf="http://www.w3.org/1999/02/22-rdf-syntax-ns#">
   <cc:Work>
    <dc:type rdf:resource="http://purl.org/dc/dcmitype/StillImage"/>
    <dc:date>2025-06-11T11:22:41.379307</dc:date>
    <dc:format>image/svg+xml</dc:format>
    <dc:creator>
     <cc:Agent>
      <dc:title>Matplotlib v3.8.0, https://matplotlib.org/</dc:title>
     </cc:Agent>
    </dc:creator>
   </cc:Work>
  </rdf:RDF>
 </metadata>
 <defs>
  <style type="text/css">*{stroke-linejoin: round; stroke-linecap: butt}</style>
 </defs>
 <g id="figure_1">
  <g id="patch_1">
   <path d="M 0 236.335904 
L 453.6 236.335904 
L 453.6 0 
L 0 0 
z
" style="fill: #ffffff"/>
  </g>
  <g id="axes_1">
   <g id="patch_2">
    <path d="M 7.2 229.135904 
L 446.4 229.135904 
L 446.4 7.2 
L 7.2 7.2 
z
" style="fill: #ffffff"/>
   </g>
   <g id="PathCollection_1">
    <path d="M 376.129863 31.99722 
C 377.067498 31.99722 377.966856 31.624694 378.629863 30.961686 
C 379.292871 30.298678 379.665397 29.39932 379.665397 28.461686 
C 379.665397 27.524051 379.292871 26.624694 378.629863 25.961686 
C 377.966856 25.298678 377.067498 24.926152 376.129863 24.926152 
C 375.192229 24.926152 374.292871 25.298678 373.629863 25.961686 
C 372.966856 26.624694 372.59433 27.524051 372.59433 28.461686 
C 372.59433 29.39932 372.966856 30.298678 373.629863 30.961686 
C 374.292871 31.624694 375.192229 31.99722 376.129863 31.99722 
z
" clip-path="url(#pb296fff5d6)"/>
   </g>
   <g id="PathCollection_2">
    <path d="M 342.327222 21.323159 
C 343.264857 21.323159 344.164215 20.950633 344.827222 20.287625 
C 345.49023 19.624617 345.862756 18.725259 345.862756 17.787625 
C 345.862756 16.84999 345.49023 15.950633 344.827222 15.287625 
C 344.164215 14.624617 343.264857 14.252091 342.327222 14.252091 
C 341.389588 14.252091 340.49023 14.624617 339.827222 15.287625 
C 339.164215 15.950633 338.791688 16.84999 338.791688 17.787625 
C 338.791688 18.725259 339.164215 19.624617 339.827222 20.287625 
C 340.49023 20.950633 341.389588 21.323159 342.327222 21.323159 
z
" clip-path="url(#pb296fff5d6)"/>
   </g>
   <g id="matplotlib.axis_1"/>
   <g id="matplotlib.axis_2"/>
   <g id="line2d_1">
    <path d="M 437.953846 75.118042 
L 434.979777 71.228397 
L 431.949926 67.577086 
L 427.790783 62.993087 
L 424.073303 59.250476 
L 420.156497 55.615671 
L 415.619693 51.747616 
L 410.216436 47.554653 
L 406.369361 44.809833 
L 400.365257 40.877442 
L 396.703082 38.668584 
L 389.706172 34.804573 
L 384.688044 32.294457 
L 379.052907 29.710726 
L 372.75768 27.093692 
L 367.222155 25.008635 
L 361.225758 22.961136 
L 354.983058 21.046805 
L 347.365102 18.989863 
L 342.226868 17.764903 
L 334.509518 16.155725 
L 330.287921 15.386994 
L 320.214691 13.853264 
L 309.838645 12.690834 
L 301.118122 12.021297 
L 291.698633 11.596626 
L 283.39739 11.467998 
L 275.138683 11.559536 
L 268.022152 11.808512 
L 256.411924 12.542197 
L 247.873765 13.333915 
L 237.784046 14.538261 
L 227.327306 16.088087 
L 215.796768 18.14813 
L 205.094746 20.387209 
L 194.841441 22.827667 
L 184.714514 25.52358 
L 174.628468 28.494539 
L 166.05701 31.248114 
L 159.748729 33.412006 
L 150.081227 36.96073 
L 141.79992 40.232225 
L 133.750367 43.626199 
L 122.812033 48.595763 
L 114.253941 52.791115 
L 104.025572 58.191018 
L 95.754383 62.895103 
L 86.665232 68.454206 
L 82.150518 71.383938 
L 75.269331 76.090153 
L 68.432668 81.089622 
L 62.53877 85.698513 
L 58.544527 89.002797 
L 53.237333 93.655035 
L 47.203315 99.376044 
L 43.76473 102.884985 
L 39.884512 107.110091 
L 35.982258 111.707131 
L 32.771065 115.82058 
L 29.994166 119.686704 
L 26.981084 124.310291 
L 25.079838 127.534318 
L 22.428322 132.599402 
L 20.839616 136.098222 
L 19.151775 140.434047 
L 17.981096 144.070696 
L 16.843387 148.604295 
L 16.263152 151.793562 
L 15.841845 155.299205 
L 15.679376 157.918925 
L 15.695832 162.015642 
L 15.847382 164.237219 
L 16.111618 166.523055 
L 16.744597 170.060489 
L 17.665459 173.610647 
L 18.667117 176.581837 
L 20.428966 180.711219 
L 22.468103 184.534012 
L 24.133138 187.192539 
L 26.828552 190.914458 
L 29.209788 193.775903 
L 32.21983 196.979764 
L 34.362933 199.042018 
L 38.139441 202.330074 
L 41.522724 204.974304 
L 44.974315 207.435583 
L 49.639771 210.451966 
L 53.235117 212.573047 
L 59.199797 215.768997 
L 64.485833 218.318267 
L 71.541688 221.377877 
L 77.42578 223.675032 
L 80.706364 224.867906 
L 80.706364 224.867906 
" clip-path="url(#pb296fff5d6)" style="fill: none; stroke: #000000; stroke-width: 2; stroke-linecap: square"/>
   </g>
   <g id="patch_3">
    <path d="M 181.155664 26.539037 
Q 180.128683 26.840193 181.247415 26.512131 
" clip-path="url(#pb296fff5d6)" style="fill: none; stroke: #000000; stroke-width: 2; stroke-linecap: round"/>
    <path d="M 192.25031 28.496144 
L 181.247415 26.512131 
L 189.436363 18.900223 
z
" clip-path="url(#pb296fff5d6)" style="stroke: #000000; stroke-width: 2; stroke-linecap: round"/>
   </g>
   <g id="text_1">
    <!-- $P_0$ -->
    <g transform="translate(374.995132 52.910972) scale(0.2 -0.2)">
     <defs>
      <path id="Cmmi10-50" d="M 313 0 
Q 250 0 250 84 
Q 253 100 262 139 
Q 272 178 289 201 
Q 306 225 331 225 
Q 722 225 878 269 
Q 959 297 997 441 
L 1875 3956 
Q 1888 4019 1888 4044 
Q 1888 4113 1813 4122 
Q 1691 4147 1350 4147 
Q 1288 4147 1288 4231 
Q 1291 4247 1300 4286 
Q 1309 4325 1326 4348 
Q 1344 4372 1369 4372 
L 3578 4372 
Q 3881 4372 4165 4264 
Q 4450 4156 4631 3934 
Q 4813 3713 4813 3397 
Q 4813 2991 4527 2672 
Q 4241 2353 3814 2175 
Q 3388 1997 2988 1997 
L 1947 1997 
L 1556 416 
Q 1544 353 1544 325 
Q 1544 300 1551 283 
Q 1559 266 1573 261 
Q 1588 256 1619 250 
Q 1741 225 2081 225 
Q 2144 225 2144 141 
Q 2122 50 2109 25 
Q 2097 0 2034 0 
L 313 0 
z
M 1978 2188 
L 2875 2188 
Q 3497 2188 3822 2522 
Q 3988 2688 4092 3000 
Q 4197 3313 4197 3566 
Q 4197 3881 3956 4014 
Q 3716 4147 3359 4147 
L 2747 4147 
Q 2572 4147 2515 4117 
Q 2459 4088 2413 3928 
L 1978 2188 
z
" transform="scale(0.015625)"/>
      <path id="Cmr10-30" d="M 1600 -141 
Q 816 -141 533 504 
Q 250 1150 250 2041 
Q 250 2597 351 3087 
Q 453 3578 754 3920 
Q 1056 4263 1600 4263 
Q 2022 4263 2290 4056 
Q 2559 3850 2700 3523 
Q 2841 3197 2892 2823 
Q 2944 2450 2944 2041 
Q 2944 1491 2842 1011 
Q 2741 531 2444 195 
Q 2147 -141 1600 -141 
z
M 1600 25 
Q 1956 25 2131 390 
Q 2306 756 2347 1200 
Q 2388 1644 2388 2144 
Q 2388 2625 2347 3031 
Q 2306 3438 2132 3767 
Q 1959 4097 1600 4097 
Q 1238 4097 1063 3765 
Q 888 3434 847 3029 
Q 806 2625 806 2144 
Q 806 1788 823 1472 
Q 841 1156 916 820 
Q 991 484 1158 254 
Q 1325 25 1600 25 
z
" transform="scale(0.015625)"/>
     </defs>
     <use xlink:href="#Cmmi10-50" transform="translate(0 0.6875)"/>
     <use xlink:href="#Cmr10-30" transform="translate(64.208984 -16.31875) scale(0.7)"/>
    </g>
   </g>
   <g id="text_2">
    <!-- $P_1$ -->
    <g transform="translate(322.261954 42.236911) scale(0.2 -0.2)">
     <defs>
      <path id="Cmr10-31" d="M 594 0 
L 594 225 
Q 1394 225 1394 428 
L 1394 3788 
Q 1063 3628 556 3628 
L 556 3853 
Q 1341 3853 1741 4263 
L 1831 4263 
Q 1853 4263 1873 4245 
Q 1894 4228 1894 4206 
L 1894 428 
Q 1894 225 2694 225 
L 2694 0 
L 594 0 
z
" transform="scale(0.015625)"/>
     </defs>
     <use xlink:href="#Cmmi10-50" transform="translate(0 0.6875)"/>
     <use xlink:href="#Cmr10-31" transform="translate(64.208984 -16.31875) scale(0.7)"/>
    </g>
   </g>
  </g>
 </g>
 <defs>
  <clipPath id="pb296fff5d6">
   <rect x="7.2" y="7.2" width="439.2" height="221.935904"/>
  </clipPath>
 </defs>
</svg>
