<?xml version="1.0" encoding="utf-8" standalone="no"?>
<!DOCTYPE svg PUBLIC "-//W3C//DTD SVG 1.1//EN"
  "http://www.w3.org/Graphics/SVG/1.1/DTD/svg11.dtd">
<svg xmlns:xlink="http://www.w3.org/1999/xlink" width="338.4pt" height="338.4pt" viewBox="0 0 338.4 338.4" xmlns="http://www.w3.org/2000/svg" version="1.1">
 <metadata>
  <rdf:RDF xmlns:dc="http://purl.org/dc/elements/1.1/" xmlns:cc="http://creativecommons.org/ns#" xmlns:rdf="http://www.w3.org/1999/02/22-rdf-syntax-ns#">
   <cc:Work>
    <dc:type rdf:resource="http://purl.org/dc/dcmitype/StillImage"/>
    <dc:date>2025-06-11T11:27:58.594814</dc:date>
    <dc:format>image/svg+xml</dc:format>
    <dc:creator>
     <cc:Agent>
      <dc:title>Matplotlib v3.8.0, https://matplotlib.org/</dc:title>
     </cc:Agent>
    </dc:creator>
   </cc:Work>
  </rdf:RDF>
 </metadata>
 <defs>
  <style type="text/css">*{stroke-linejoin: round; stroke-linecap: butt}</style>
 </defs>
 <g id="figure_1">
  <g id="patch_1">
   <path d="M -0 338.4 
L 338.4 338.4 
L 338.4 0 
L -0 0 
z
" style="fill: #ffffff"/>
  </g>
  <g id="axes_1">
   <g id="patch_2">
    <path d="M 7.2 331.2 
L 331.2 331.2 
L 331.2 7.2 
L 7.2 7.2 
z
" style="fill: #ffffff"/>
   </g>
   <g id="patch_3">
    <path d="M 293.815385 169.2 
L 293.753894 173.114264 
L 293.569485 177.024665 
L 293.262337 180.927344 
L 292.832755 184.818449 
L 292.281162 188.694141 
L 291.608104 192.550595 
L 290.814243 196.384004 
L 289.900363 200.190586 
L 288.867367 203.966584 
L 287.716274 207.708272 
L 286.448219 211.411956 
L 285.064454 215.073983 
L 283.566346 218.690737 
L 281.955371 222.25865 
L 280.233121 225.774201 
L 278.401294 229.233919 
L 276.461699 232.634392 
L 274.416249 235.972262 
L 272.266964 239.244236 
L 270.015964 242.447085 
L 267.665471 245.577648 
L 265.217804 248.632836 
L 262.675379 251.609632 
L 260.040706 254.505101 
L 257.316384 257.316384 
L 254.505101 260.040706 
L 251.609632 262.675379 
L 248.632836 265.217804 
L 245.577648 267.665471 
L 242.447085 270.015964 
L 239.244236 272.266964 
L 235.972262 274.416249 
L 232.634392 276.461699 
L 229.233919 278.401294 
L 225.774201 280.233121 
L 222.25865 281.955371 
L 218.690737 283.566346 
L 215.073983 285.064454 
L 211.411956 286.448219 
L 207.708272 287.716274 
L 203.966584 288.867367 
L 200.190586 289.900363 
L 196.384004 290.814243 
L 192.550595 291.608104 
L 188.694141 292.281162 
L 184.818449 292.832755 
L 180.927344 293.262337 
L 177.024665 293.569485 
L 173.114264 293.753894 
L 169.2 293.815385 
L 165.285736 293.753894 
L 161.375335 293.569485 
L 157.472656 293.262337 
L 153.581551 292.832755 
L 149.705859 292.281162 
L 145.849405 291.608104 
L 142.015996 290.814243 
L 138.209414 289.900363 
L 134.433416 288.867367 
L 130.691728 287.716274 
L 126.988044 286.448219 
L 123.326017 285.064454 
L 119.709263 283.566346 
L 116.14135 281.955371 
L 112.625799 280.233121 
L 109.166081 278.401294 
L 105.765608 276.461699 
L 102.427738 274.416249 
L 99.155764 272.266964 
L 95.952915 270.015964 
L 92.822352 267.665471 
L 89.767164 265.217804 
L 86.790368 262.675379 
L 83.894899 260.040706 
L 81.083616 257.316384 
L 78.359294 254.505101 
L 75.724621 251.609632 
L 73.182196 248.632836 
L 70.734529 245.577648 
L 68.384036 242.447085 
L 66.133036 239.244236 
L 63.983751 235.972262 
L 61.938301 232.634392 
L 59.998706 229.233919 
L 58.166879 225.774201 
L 56.444629 222.25865 
L 54.833654 218.690737 
L 53.335546 215.073983 
L 51.951781 211.411956 
L 50.683726 207.708272 
L 49.532633 203.966584 
L 48.499637 200.190586 
L 47.585757 196.384004 
L 46.791896 192.550595 
L 46.118838 188.694141 
L 45.567245 184.818449 
L 45.137663 180.927344 
L 44.830515 177.024665 
L 44.646106 173.114264 
L 44.584615 169.2 
L 44.646106 165.285736 
L 44.830515 161.375335 
L 45.137663 157.472656 
L 45.567245 153.581551 
L 46.118838 149.705859 
L 46.791896 145.849405 
L 47.585757 142.015996 
L 48.499637 138.209414 
L 49.532633 134.433416 
L 50.683726 130.691728 
L 51.951781 126.988044 
L 53.335546 123.326017 
L 54.833654 119.709263 
L 56.444629 116.14135 
L 58.166879 112.625799 
L 59.998706 109.166081 
L 61.938301 105.765608 
L 63.983751 102.427738 
L 66.133036 99.155764 
L 68.384036 95.952915 
L 70.734529 92.822352 
L 73.182196 89.767164 
L 75.724621 86.790368 
L 78.359294 83.894899 
L 81.083616 81.083616 
L 83.894899 78.359294 
L 86.790368 75.724621 
L 89.767164 73.182196 
L 92.822352 70.734529 
L 95.952915 68.384036 
L 99.155764 66.133036 
L 102.427738 63.983751 
L 105.765608 61.938301 
L 109.166081 59.998706 
L 112.625799 58.166879 
L 116.14135 56.444629 
L 119.709263 54.833654 
L 123.326017 53.335546 
L 126.988044 51.951781 
L 130.691728 50.683726 
L 134.433416 49.532633 
L 138.209414 48.499637 
L 142.015996 47.585757 
L 145.849405 46.791896 
L 149.705859 46.118838 
L 153.581551 45.567245 
L 157.472656 45.137663 
L 161.375335 44.830515 
L 165.285736 44.646106 
L 169.2 44.584615 
L 173.114264 44.646106 
L 177.024665 44.830515 
L 180.927344 45.137663 
L 184.818449 45.567245 
L 188.694141 46.118838 
L 192.550595 46.791896 
L 196.384004 47.585757 
L 200.190586 48.499637 
L 203.966584 49.532633 
L 207.708272 50.683726 
L 211.411956 51.951781 
L 215.073983 53.335546 
L 218.690737 54.833654 
L 222.25865 56.444629 
L 225.774201 58.166879 
L 229.233919 59.998706 
L 232.634392 61.938301 
L 235.972262 63.983751 
L 239.244236 66.133036 
L 242.447085 68.384036 
L 245.577648 70.734529 
L 248.632836 73.182196 
L 251.609632 75.724621 
L 254.505101 78.359294 
L 257.316384 81.083616 
L 260.040706 83.894899 
L 262.675379 86.790368 
L 265.217804 89.767164 
L 267.665471 92.822352 
L 270.015964 95.952915 
L 272.266964 99.155764 
L 274.416249 102.427738 
L 276.461699 105.765608 
L 278.401294 109.166081 
L 280.233121 112.625799 
L 281.955371 116.14135 
L 283.566346 119.709263 
L 285.064454 123.326017 
L 286.448219 126.988044 
L 287.716274 130.691728 
L 288.867367 134.433416 
L 289.900363 138.209414 
L 290.814243 142.015996 
L 291.608104 145.849405 
L 292.281162 149.705859 
L 292.832755 153.581551 
L 293.262337 157.472656 
L 293.569485 161.375335 
L 293.753894 165.285736 
L 293.815385 169.2 
L 324.969231 169.2 
L 324.892368 164.30717 
L 324.661856 159.419169 
L 324.277921 154.54082 
L 323.740944 149.676939 
L 323.051453 144.832324 
L 322.210129 140.011757 
L 321.217803 135.219995 
L 320.075454 130.461768 
L 318.784209 125.74177 
L 317.345342 121.06466 
L 315.760274 116.435055 
L 314.030568 111.857522 
L 312.157932 107.336579 
L 310.144214 102.876687 
L 307.991401 98.482249 
L 305.701617 94.157601 
L 303.277123 89.90701 
L 300.720311 85.734672 
L 298.033705 81.644705 
L 295.219955 77.641143 
L 292.281838 73.72794 
L 289.222255 69.908955 
L 286.044224 66.187959 
L 282.750882 62.568624 
L 279.345479 59.054521 
L 275.831376 55.649118 
L 272.212041 52.355776 
L 268.491045 49.177745 
L 264.67206 46.118162 
L 260.758857 43.180045 
L 256.755295 40.366295 
L 252.665328 37.679689 
L 248.49299 35.122877 
L 244.242399 32.698383 
L 239.917751 30.408599 
L 235.523313 28.255786 
L 231.063421 26.242068 
L 226.542478 24.369432 
L 221.964945 22.639726 
L 217.33534 21.054658 
L 212.65823 19.615791 
L 207.938232 18.324546 
L 203.180005 17.182197 
L 198.388243 16.189871 
L 193.567676 15.348547 
L 188.723061 14.659056 
L 183.85918 14.122079 
L 178.980831 13.738144 
L 174.09283 13.507632 
L 169.2 13.430769 
L 164.30717 13.507632 
L 159.419169 13.738144 
L 154.54082 14.122079 
L 149.676939 14.659056 
L 144.832324 15.348547 
L 140.011757 16.189871 
L 135.219995 17.182197 
L 130.461768 18.324546 
L 125.74177 19.615791 
L 121.06466 21.054658 
L 116.435055 22.639726 
L 111.857522 24.369432 
L 107.336579 26.242068 
L 102.876687 28.255786 
L 98.482249 30.408599 
L 94.157601 32.698383 
L 89.90701 35.122877 
L 85.734672 37.679689 
L 81.644705 40.366295 
L 77.641143 43.180045 
L 73.72794 46.118162 
L 69.908955 49.177745 
L 66.187959 52.355776 
L 62.568624 55.649118 
L 59.054521 59.054521 
L 55.649118 62.568624 
L 52.355776 66.187959 
L 49.177745 69.908955 
L 46.118162 73.72794 
L 43.180045 77.641143 
L 40.366295 81.644705 
L 37.679689 85.734672 
L 35.122877 89.90701 
L 32.698383 94.157601 
L 30.408599 98.482249 
L 28.255786 102.876687 
L 26.242068 107.336579 
L 24.369432 111.857522 
L 22.639726 116.435055 
L 21.054658 121.06466 
L 19.615791 125.74177 
L 18.324546 130.461768 
L 17.182197 135.219995 
L 16.189871 140.011757 
L 15.348547 144.832324 
L 14.659056 149.676939 
L 14.122079 154.54082 
L 13.738144 159.419169 
L 13.507632 164.30717 
L 13.430769 169.2 
L 13.507632 174.09283 
L 13.738144 178.980831 
L 14.122079 183.85918 
L 14.659056 188.723061 
L 15.348547 193.567676 
L 16.189871 198.388243 
L 17.182197 203.180005 
L 18.324546 207.938232 
L 19.615791 212.65823 
L 21.054658 217.33534 
L 22.639726 221.964945 
L 24.369432 226.542478 
L 26.242068 231.063421 
L 28.255786 235.523313 
L 30.408599 239.917751 
L 32.698383 244.242399 
L 35.122877 248.49299 
L 37.679689 252.665328 
L 40.366295 256.755295 
L 43.180045 260.758857 
L 46.118162 264.67206 
L 49.177745 268.491045 
L 52.355776 272.212041 
L 55.649118 275.831376 
L 59.054521 279.345479 
L 62.568624 282.750882 
L 66.187959 286.044224 
L 69.908955 289.222255 
L 73.72794 292.281838 
L 77.641143 295.219955 
L 81.644705 298.033705 
L 85.734672 300.720311 
L 89.90701 303.277123 
L 94.157601 305.701617 
L 98.482249 307.991401 
L 102.876687 310.144214 
L 107.336579 312.157932 
L 111.857522 314.030568 
L 116.435055 315.760274 
L 121.06466 317.345342 
L 125.74177 318.784209 
L 130.461768 320.075454 
L 135.219995 321.217803 
L 140.011757 322.210129 
L 144.832324 323.051453 
L 149.676939 323.740944 
L 154.54082 324.277921 
L 159.419169 324.661856 
L 164.30717 324.892368 
L 169.2 324.969231 
L 174.09283 324.892368 
L 178.980831 324.661856 
L 183.85918 324.277921 
L 188.723061 323.740944 
L 193.567676 323.051453 
L 198.388243 322.210129 
L 203.180005 321.217803 
L 207.938232 320.075454 
L 212.65823 318.784209 
L 217.33534 317.345342 
L 221.964945 315.760274 
L 226.542478 314.030568 
L 231.063421 312.157932 
L 235.523313 310.144214 
L 239.917751 307.991401 
L 244.242399 305.701617 
L 248.49299 303.277123 
L 252.665328 300.720311 
L 256.755295 298.033705 
L 260.758857 295.219955 
L 264.67206 292.281838 
L 268.491045 289.222255 
L 272.212041 286.044224 
L 275.831376 282.750882 
L 279.345479 279.345479 
L 282.750882 275.831376 
L 286.044224 272.212041 
L 289.222255 268.491045 
L 292.281838 264.67206 
L 295.219955 260.758857 
L 298.033705 256.755295 
L 300.720311 252.665328 
L 303.277123 248.49299 
L 305.701617 244.242399 
L 307.991401 239.917751 
L 310.144214 235.523313 
L 312.157932 231.063421 
L 314.030568 226.542478 
L 315.760274 221.964945 
L 317.345342 217.33534 
L 318.784209 212.65823 
L 320.075454 207.938232 
L 321.217803 203.180005 
L 322.210129 198.388243 
L 323.051453 193.567676 
L 323.740944 188.723061 
L 324.277921 183.85918 
L 324.661856 178.980831 
L 324.892368 174.09283 
L 324.969231 169.2 
z
" clip-path="url(#p341b110212)" style="fill: #808080"/>
   </g>
   <g id="matplotlib.axis_1"/>
   <g id="matplotlib.axis_2"/>
   <g id="line2d_1">
    <path d="M 293.815385 169.2 
L 293.786878 166.534662 
L 293.616412 162.160789 
L 292.921549 154.30126 
L 292.48337 151.028463 
L 291.720602 146.447061 
L 290.336812 139.961895 
L 288.933671 134.662453 
L 286.895059 128.250432 
L 284.771853 122.593767 
L 282.640287 117.621948 
L 279.399726 111.019123 
L 278.377039 109.121981 
L 274.228195 102.13233 
L 272.630845 99.694214 
L 270.107874 96.079586 
L 265.754788 90.420771 
L 260.904184 84.823838 
L 257.922682 81.694116 
L 252.58052 76.589617 
L 248.087266 72.73346 
L 243.853344 69.420882 
L 241.210021 67.49675 
L 235.531446 63.705292 
L 229.857296 60.343735 
L 225.731934 58.145354 
L 222.660465 56.634585 
L 214.788965 53.223104 
L 208.245509 50.859634 
L 199.512226 48.327493 
L 191.296635 46.559335 
L 184.803262 45.565327 
L 177.673927 44.873066 
L 168.221582 44.588456 
L 162.080885 44.788134 
L 156.182306 45.266414 
L 151.625181 45.83015 
L 147.025053 46.57347 
L 142.160674 47.553508 
L 137.61818 48.652985 
L 130.249773 50.828239 
L 122.929907 53.493161 
L 117.281507 55.915119 
L 114.405626 57.277837 
L 107.517134 60.921572 
L 104.400743 62.757291 
L 97.645779 67.175554 
L 95.750747 68.53123 
L 92.129408 71.275958 
L 88.323507 74.395005 
L 82.628322 79.565528 
L 79.201371 83.006956 
L 74.418124 88.296415 
L 70.883205 92.631064 
L 66.266399 98.959927 
L 62.572746 104.704863 
L 59.210513 110.622643 
L 55.510746 118.17307 
L 53.554224 122.777499 
L 51.276698 128.912421 
L 49.516308 134.489657 
L 48.535564 138.069823 
L 47.333247 143.171391 
L 46.643087 146.643469 
L 45.770393 152.049889 
L 44.940032 159.794977 
L 44.688526 164.112092 
L 44.58494 169.484618 
L 44.707089 174.723505 
L 44.903306 178.106515 
L 45.665853 185.580128 
L 46.556559 191.281224 
L 47.733216 197.035489 
L 49.8402 205.008271 
L 51.919846 211.323148 
L 52.766219 213.609106 
L 55.950399 221.195403 
L 59.025472 227.428579 
L 60.990873 231.004359 
L 62.977747 234.36001 
L 67.072753 240.607419 
L 71.196086 246.169 
L 74.741492 250.480898 
L 80.014873 256.234517 
L 82.171316 258.390819 
L 86.971052 262.834364 
L 92.543074 267.448205 
L 97.193951 270.906062 
L 103.582485 275.140246 
L 111.463776 279.633339 
L 113.291944 280.570029 
L 122.421815 284.702361 
L 128.130511 286.853267 
L 133.848185 288.695788 
L 139.15767 290.139871 
L 144.326685 291.30779 
L 147.516089 291.914311 
L 152.673914 292.714706 
L 157.077511 293.22435 
L 161.079804 293.550539 
L 164.924708 293.742025 
L 170.015071 293.812719 
L 174.815128 293.688812 
L 179.337935 293.40232 
L 183.253202 293.020441 
L 188.295717 292.343606 
L 193.675602 291.38813 
L 198.651999 290.284986 
L 207.126139 287.903842 
L 213.472871 285.685651 
L 221.681665 282.225081 
L 227.422139 279.377931 
L 234.382549 275.408425 
L 239.818932 271.87405 
L 242.428094 270.029759 
L 248.181624 265.5893 
L 250.784417 263.396481 
L 255.123903 259.45562 
L 259.46257 255.116603 
L 265.375303 248.442067 
L 270.126264 242.295029 
L 273.188272 237.869013 
L 276.73586 232.168507 
L 279.565408 227.065973 
L 282.637709 220.783721 
L 284.63419 216.146159 
L 286.963953 209.951019 
L 288.637475 204.748328 
L 289.905885 200.16907 
L 291.556405 192.819994 
L 292.589156 186.638757 
L 292.965655 183.72779 
L 293.415496 179.175203 
L 293.665865 175.302674 
L 293.815385 169.2 
L 293.815385 169.2 
" clip-path="url(#p341b110212)" style="fill: none; stroke: #000000; stroke-width: 3; stroke-linecap: square"/>
   </g>
   <g id="line2d_2">
    <path d="M 324.969231 169.2 
L 324.769558 161.315456 
L 324.249167 154.239747 
L 323.300308 146.459107 
L 322.516666 141.667233 
L 321.715911 137.530613 
L 320.803568 133.417165 
L 319.312111 127.601834 
L 318.072519 123.363047 
L 316.713261 119.161104 
L 314.430022 112.87688 
L 311.929743 106.811911 
L 308.654287 99.798594 
L 306.165618 95.007867 
L 302.018113 87.815713 
L 298.001039 81.596657 
L 296.153892 78.940581 
L 293.359859 75.134157 
L 290.227113 71.13629 
L 285.048121 65.068995 
L 279.234487 58.94364 
L 275.779659 55.600575 
L 272.619184 52.715986 
L 265.502662 46.766955 
L 261.772027 43.922416 
L 256.550664 40.227465 
L 249.306378 35.607255 
L 241.520335 31.23688 
L 236.828677 28.87746 
L 228.252259 25.058112 
L 222.886078 22.974632 
L 216.568585 20.807714 
L 208.079344 18.360848 
L 199.208133 16.348552 
L 191.002484 14.964126 
L 183.880651 14.12411 
L 178.235498 13.693045 
L 174.418822 13.518218 
L 168.718526 13.431513 
L 161.611676 13.615712 
L 153.811898 14.192711 
L 145.280163 15.278284 
L 136.767806 16.844475 
L 132.587085 17.794757 
L 128.155839 18.935466 
L 122.622894 20.557387 
L 115.152183 23.107951 
L 112.105823 24.271369 
L 106.923734 26.42143 
L 103.298742 28.057953 
L 98.099804 30.604129 
L 93.556894 33.030349 
L 89.70406 35.243108 
L 84.192073 38.671437 
L 78.96207 42.230834 
L 74.569306 45.470113 
L 67.900357 50.868112 
L 63.633664 54.658296 
L 57.805573 60.317794 
L 55.771664 62.438276 
L 51.056455 67.68076 
L 45.919692 73.984355 
L 41.269899 80.329631 
L 37.44256 86.109505 
L 33.992913 91.84952 
L 30.43636 98.427791 
L 28.475065 102.412682 
L 26.249249 107.319987 
L 24.27352 112.100361 
L 22.688252 116.300463 
L 20.686783 122.211942 
L 18.623875 129.314116 
L 17.002368 136.034748 
L 16.323498 139.319767 
L 14.943044 147.547175 
L 14.475113 151.192705 
L 13.870124 157.508851 
L 13.584623 162.278455 
L 13.4372 167.784561 
L 13.518831 174.437056 
L 13.911772 181.431906 
L 14.278277 185.426926 
L 15.410186 193.953714 
L 16.545529 200.194607 
L 17.764183 205.68625 
L 19.690819 212.915648 
L 22.050277 220.298064 
L 24.374975 226.556477 
L 26.421064 231.475426 
L 29.039529 237.16393 
L 32.382383 243.66471 
L 34.203663 246.917708 
L 38.008273 253.180855 
L 42.125105 259.28898 
L 47.396608 266.297821 
L 53.059167 273.004432 
L 56.457232 276.685448 
L 59.825336 280.110938 
L 63.308645 283.441298 
L 66.721526 286.51247 
L 71.487154 290.510564 
L 75.732057 293.810581 
L 79.017393 296.208467 
L 86.746531 301.357023 
L 90.696253 303.740755 
L 94.714831 306.006479 
L 101.595078 309.533987 
L 108.435351 312.628416 
L 117.371513 316.094047 
L 122.886044 317.924815 
L 127.408178 319.258312 
L 131.501823 320.33868 
L 137.550456 321.72003 
L 146.540308 323.312269 
L 152.454372 324.066514 
L 158.756807 324.618766 
L 162.447235 324.822792 
L 167.320577 324.957892 
L 174.967215 324.862431 
L 182.650797 324.387401 
L 189.592317 323.628646 
L 193.983565 322.985006 
L 201.242806 321.637895 
L 206.712614 320.384844 
L 215.335435 317.980291 
L 223.23236 315.297766 
L 229.295576 312.910038 
L 232.724038 311.42781 
L 241.215379 307.322548 
L 247.317334 303.965483 
L 253.355461 300.279791 
L 259.614948 296.043173 
L 264.09951 292.723829 
L 269.189644 288.640882 
L 273.74819 284.671768 
L 278.768309 279.919641 
L 281.425618 277.225293 
L 284.537921 273.895832 
L 287.442938 270.603456 
L 290.644278 266.746607 
L 294.495494 261.747785 
L 299.128485 255.122302 
L 302.077574 250.487167 
L 306.00009 243.696903 
L 310.00999 235.807808 
L 313.13912 228.744798 
L 314.822922 224.499348 
L 316.381536 220.20636 
L 317.771864 216.002293 
L 319.497465 210.123408 
L 320.803506 204.983101 
L 321.855313 200.190461 
L 322.816609 195.006795 
L 323.646366 189.457674 
L 324.10923 185.545754 
L 324.627799 179.507889 
L 324.941814 172.122442 
L 324.969231 169.2 
L 324.969231 169.2 
" clip-path="url(#p341b110212)" style="fill: none; stroke: #000000; stroke-width: 3; stroke-linecap: square"/>
   </g>
   <g id="line2d_3">
    <path d="M 253.362475 38.124712 
L 169.2 169.2 
L 272.049515 98.836861 
" clip-path="url(#p341b110212)" style="fill: none; stroke: #000000; stroke-width: 2; stroke-linecap: square"/>
   </g>
   <g id="patch_4">
    <path d="M 169.2 331.2 
L 169.2 7.2 
" style="fill: none; stroke: #000000; stroke-width: 0.8; stroke-linejoin: miter; stroke-linecap: square"/>
   </g>
   <g id="patch_5">
    <path d="M 7.2 169.2 
L 331.2 169.2 
" style="fill: none; stroke: #000000; stroke-width: 0.8; stroke-linejoin: miter; stroke-linecap: square"/>
   </g>
   <g id="text_1">
    <!-- $R_0$ -->
    <g transform="translate(270.63413 93.970996) scale(0.2 -0.2)">
     <defs>
      <path id="Cmmi10-52" d="M 313 0 
Q 250 0 250 84 
Q 253 100 262 139 
Q 272 178 289 201 
Q 306 225 331 225 
Q 722 225 878 269 
Q 959 297 997 441 
L 1875 3956 
Q 1888 4019 1888 4044 
Q 1888 4113 1813 4122 
Q 1691 4147 1350 4147 
Q 1288 4147 1288 4231 
Q 1291 4247 1300 4286 
Q 1309 4325 1326 4348 
Q 1344 4372 1369 4372 
L 3309 4372 
Q 3541 4372 3791 4319 
Q 4041 4266 4250 4152 
Q 4459 4038 4593 3848 
Q 4728 3659 4728 3406 
Q 4728 3084 4515 2831 
Q 4303 2578 3978 2408 
Q 3653 2238 3347 2169 
Q 3597 2078 3756 1879 
Q 3916 1681 3916 1422 
Q 3916 1388 3914 1370 
Q 3913 1353 3909 1331 
L 3859 763 
Q 3853 638 3847 550 
Q 3841 463 3841 409 
Q 3841 234 3892 129 
Q 3944 25 4097 25 
Q 4297 25 4448 211 
Q 4600 397 4647 616 
Q 4675 672 4709 672 
L 4769 672 
Q 4831 672 4831 588 
Q 4784 403 4682 237 
Q 4581 72 4426 -34 
Q 4272 -141 4091 -141 
Q 3716 -141 3452 26 
Q 3188 194 3188 550 
Q 3188 684 3213 788 
L 3353 1356 
Q 3378 1434 3378 1538 
Q 3378 1803 3198 1954 
Q 3019 2106 2747 2106 
L 1959 2106 
L 1538 416 
Q 1522 363 1522 325 
Q 1522 259 1600 250 
Q 1722 225 2059 225 
Q 2125 225 2125 141 
Q 2103 50 2090 25 
Q 2078 0 2016 0 
L 313 0 
z
M 1997 2272 
L 2706 2272 
Q 3403 2272 3756 2625 
Q 3919 2788 4014 3039 
Q 4109 3291 4109 3541 
Q 4109 3778 3970 3912 
Q 3831 4047 3626 4097 
Q 3422 4147 3175 4147 
L 2747 4147 
Q 2572 4147 2515 4117 
Q 2459 4088 2413 3928 
L 1997 2272 
z
" transform="scale(0.015625)"/>
      <path id="Cmr10-30" d="M 1600 -141 
Q 816 -141 533 504 
Q 250 1150 250 2041 
Q 250 2597 351 3087 
Q 453 3578 754 3920 
Q 1056 4263 1600 4263 
Q 2022 4263 2290 4056 
Q 2559 3850 2700 3523 
Q 2841 3197 2892 2823 
Q 2944 2450 2944 2041 
Q 2944 1491 2842 1011 
Q 2741 531 2444 195 
Q 2147 -141 1600 -141 
z
M 1600 25 
Q 1956 25 2131 390 
Q 2306 756 2347 1200 
Q 2388 1644 2388 2144 
Q 2388 2625 2347 3031 
Q 2306 3438 2132 3767 
Q 1959 4097 1600 4097 
Q 1238 4097 1063 3765 
Q 888 3434 847 3029 
Q 806 2625 806 2144 
Q 806 1788 823 1472 
Q 841 1156 916 820 
Q 991 484 1158 254 
Q 1325 25 1600 25 
z
" transform="scale(0.015625)"/>
     </defs>
     <use xlink:href="#Cmmi10-52" transform="translate(0 0.6875)"/>
     <use xlink:href="#Cmr10-30" transform="translate(75.878906 -16.31875) scale(0.7)"/>
    </g>
   </g>
   <g id="text_2">
    <!-- $R_1$ -->
    <g transform="translate(251.94709 33.258847) scale(0.2 -0.2)">
     <defs>
      <path id="Cmr10-31" d="M 594 0 
L 594 225 
Q 1394 225 1394 428 
L 1394 3788 
Q 1063 3628 556 3628 
L 556 3853 
Q 1341 3853 1741 4263 
L 1831 4263 
Q 1853 4263 1873 4245 
Q 1894 4228 1894 4206 
L 1894 428 
Q 1894 225 2694 225 
L 2694 0 
L 594 0 
z
" transform="scale(0.015625)"/>
     </defs>
     <use xlink:href="#Cmmi10-52" transform="translate(0 0.6875)"/>
     <use xlink:href="#Cmr10-31" transform="translate(75.878906 -16.31875) scale(0.7)"/>
    </g>
   </g>
  </g>
 </g>
 <defs>
  <clipPath id="p341b110212">
   <rect x="7.2" y="7.2" width="324" height="324"/>
  </clipPath>
 </defs>
</svg>
