<?xml version="1.0" encoding="utf-8" standalone="no"?>
<!DOCTYPE svg PUBLIC "-//W3C//DTD SVG 1.1//EN"
  "http://www.w3.org/Graphics/SVG/1.1/DTD/svg11.dtd">
<svg xmlns:xlink="http://www.w3.org/1999/xlink" width="324.655756pt" height="337.037442pt" viewBox="0 0 324.655756 337.037442" xmlns="http://www.w3.org/2000/svg" version="1.1">
 <metadata>
  <rdf:RDF xmlns:dc="http://purl.org/dc/elements/1.1/" xmlns:cc="http://creativecommons.org/ns#" xmlns:rdf="http://www.w3.org/1999/02/22-rdf-syntax-ns#">
   <cc:Work>
    <dc:type rdf:resource="http://purl.org/dc/dcmitype/StillImage"/>
    <dc:date>2025-06-11T11:26:41.346495</dc:date>
    <dc:format>image/svg+xml</dc:format>
    <dc:creator>
     <cc:Agent>
      <dc:title>Matplotlib v3.8.0, https://matplotlib.org/</dc:title>
     </cc:Agent>
    </dc:creator>
   </cc:Work>
  </rdf:RDF>
 </metadata>
 <defs>
  <style type="text/css">*{stroke-linejoin: round; stroke-linecap: butt}</style>
 </defs>
 <g id="figure_1">
  <g id="patch_1">
   <path d="M 0 337.037442 
L 324.655756 337.037442 
L 324.655756 0 
L 0 0 
z
" style="fill: #ffffff"/>
  </g>
  <g id="axes_1">
   <g id="patch_2">
    <path d="M 8.905586 318.840038 
L 304.315756 318.840038 
L 304.315756 23.4425 
L 8.905586 23.4425 
z
" style="fill: #ffffff"/>
   </g>
   <g id="patch_3">
    <path d="M 156.602942 313.159317 
L 165.521196 312.879049 
L 174.404253 312.039353 
L 183.217057 310.643542 
L 191.924827 308.697125 
L 200.493197 306.207783 
L 208.888353 303.185341 
L 217.077162 299.641727 
L 225.027307 295.590926 
L 232.707412 291.048924 
L 240.087168 286.033647 
L 247.13745 280.564888 
L 253.830433 274.66423 
L 260.139704 268.354959 
L 266.040362 261.661976 
L 271.509121 254.611694 
L 276.524398 247.231938 
L 281.0664 239.551833 
L 285.117201 231.601688 
L 288.660815 223.412879 
L 291.683257 215.017723 
L 294.172599 206.449352 
L 296.119016 197.741583 
L 297.514827 188.928779 
L 298.354523 180.045722 
L 298.634791 171.127468 
z
" clip-path="url(#p9c42326f7d)" style="fill: #add8e6; stroke: #000000; stroke-width: 3; stroke-linejoin: miter"/>
   </g>
   <g id="matplotlib.axis_1">
    <g id="xtick_1">
     <g id="line2d_1">
      <defs>
       <path id="m58484f81ed" d="M 0 0 
L 0 3.5 
" style="stroke: #000000; stroke-width: 0.8"/>
      </defs>
      <g>
       <use xlink:href="#m58484f81ed" x="14.571094" y="313.159317" style="stroke: #000000; stroke-width: 0.8"/>
      </g>
     </g>
     <g id="text_1">
      <!-- −1 -->
      <g transform="translate(7.2 327.757754) scale(0.1 -0.1)">
       <defs>
        <path id="DejaVuSans-2212" d="M 678 2272 
L 4684 2272 
L 4684 1741 
L 678 1741 
L 678 2272 
z
" transform="scale(0.015625)"/>
        <path id="DejaVuSans-31" d="M 794 531 
L 1825 531 
L 1825 4091 
L 703 3866 
L 703 4441 
L 1819 4666 
L 2450 4666 
L 2450 531 
L 3481 531 
L 3481 0 
L 794 0 
L 794 531 
z
" transform="scale(0.015625)"/>
       </defs>
       <use xlink:href="#DejaVuSans-2212"/>
       <use xlink:href="#DejaVuSans-31" x="83.789062"/>
      </g>
     </g>
    </g>
    <g id="xtick_2">
     <g id="line2d_2">
      <g>
       <use xlink:href="#m58484f81ed" x="298.634791" y="313.159317" style="stroke: #000000; stroke-width: 0.8"/>
      </g>
     </g>
     <g id="text_2">
      <!-- 1 -->
      <g transform="translate(295.453541 327.757754) scale(0.1 -0.1)">
       <use xlink:href="#DejaVuSans-31"/>
      </g>
     </g>
    </g>
    <g id="text_3">
     <!-- $x$ -->
     <g transform="translate(312.315756 313.159317) scale(0.16 -0.16)">
      <defs>
       <path id="Cmmi10-78" d="M 500 184 
Q 613 97 819 97 
Q 1019 97 1172 289 
Q 1325 481 1381 709 
L 1672 1844 
Q 1741 2153 1741 2266 
Q 1741 2425 1652 2544 
Q 1563 2663 1403 2663 
Q 1200 2663 1022 2536 
Q 844 2409 722 2214 
Q 600 2019 550 1819 
Q 538 1778 500 1778 
L 422 1778 
Q 372 1778 372 1838 
L 372 1856 
Q 434 2094 584 2320 
Q 734 2547 951 2687 
Q 1169 2828 1416 2828 
Q 1650 2828 1839 2703 
Q 2028 2578 2106 2363 
Q 2216 2559 2386 2693 
Q 2556 2828 2759 2828 
Q 2897 2828 3040 2779 
Q 3184 2731 3275 2631 
Q 3366 2531 3366 2381 
Q 3366 2219 3261 2101 
Q 3156 1984 2994 1984 
Q 2891 1984 2822 2050 
Q 2753 2116 2753 2216 
Q 2753 2350 2845 2451 
Q 2938 2553 3066 2572 
Q 2950 2663 2747 2663 
Q 2541 2663 2389 2472 
Q 2238 2281 2175 2047 
L 1894 916 
Q 1825 659 1825 494 
Q 1825 331 1917 214 
Q 2009 97 2163 97 
Q 2463 97 2698 361 
Q 2934 625 3009 941 
Q 3022 978 3059 978 
L 3138 978 
Q 3163 978 3178 961 
Q 3194 944 3194 922 
Q 3194 916 3188 903 
Q 3097 522 2806 225 
Q 2516 -72 2150 -72 
Q 1916 -72 1727 54 
Q 1538 181 1459 397 
Q 1359 209 1182 68 
Q 1006 -72 806 -72 
Q 669 -72 523 -23 
Q 378 25 287 125 
Q 197 225 197 378 
Q 197 528 301 651 
Q 406 775 563 775 
Q 669 775 741 711 
Q 813 647 813 544 
Q 813 409 723 309 
Q 634 209 500 184 
z
" transform="scale(0.015625)"/>
      </defs>
      <use xlink:href="#Cmmi10-78" transform="translate(0 0.8125)"/>
     </g>
    </g>
   </g>
   <g id="matplotlib.axis_2">
    <g id="ytick_1">
     <g id="line2d_3">
      <defs>
       <path id="m086508fc4e" d="M 0 0 
L -3.5 0 
" style="stroke: #000000; stroke-width: 0.8"/>
      </defs>
      <g>
       <use xlink:href="#m086508fc4e" x="156.602942" y="313.159317" style="stroke: #000000; stroke-width: 0.8"/>
      </g>
     </g>
    </g>
    <g id="ytick_2">
     <g id="line2d_4">
      <g>
       <use xlink:href="#m086508fc4e" x="156.602942" y="171.127468" style="stroke: #000000; stroke-width: 0.8"/>
      </g>
     </g>
     <g id="text_4">
      <!-- 1 -->
      <g transform="translate(143.240442 174.926687) scale(0.1 -0.1)">
       <use xlink:href="#DejaVuSans-31"/>
      </g>
     </g>
    </g>
    <g id="ytick_3">
     <g id="line2d_5">
      <g>
       <use xlink:href="#m086508fc4e" x="156.602942" y="29.09562" style="stroke: #000000; stroke-width: 0.8"/>
      </g>
     </g>
     <g id="text_5">
      <!-- 2 -->
      <g transform="translate(143.240442 32.894838) scale(0.1 -0.1)">
       <defs>
        <path id="DejaVuSans-32" d="M 1228 531 
L 3431 531 
L 3431 0 
L 469 0 
L 469 531 
Q 828 903 1448 1529 
Q 2069 2156 2228 2338 
Q 2531 2678 2651 2914 
Q 2772 3150 2772 3378 
Q 2772 3750 2511 3984 
Q 2250 4219 1831 4219 
Q 1534 4219 1204 4116 
Q 875 4013 500 3803 
L 500 4441 
Q 881 4594 1212 4672 
Q 1544 4750 1819 4750 
Q 2544 4750 2975 4387 
Q 3406 4025 3406 3419 
Q 3406 3131 3298 2873 
Q 3191 2616 2906 2266 
Q 2828 2175 2409 1742 
Q 1991 1309 1228 531 
z
" transform="scale(0.015625)"/>
       </defs>
       <use xlink:href="#DejaVuSans-32"/>
      </g>
     </g>
    </g>
    <g id="text_6">
     <!-- $y$ -->
     <g transform="translate(152.602942 12.0825) scale(0.16 -0.16)">
      <defs>
       <path id="Cmmi10-79" d="M 538 -916 
Q 672 -1147 1006 -1147 
Q 1309 -1147 1531 -934 
Q 1753 -722 1889 -420 
Q 2025 -119 2100 197 
Q 1816 -72 1484 -72 
Q 1231 -72 1053 15 
Q 875 103 776 276 
Q 678 450 678 697 
Q 678 906 734 1126 
Q 791 1347 892 1617 
Q 994 1888 1069 2088 
Q 1153 2322 1153 2472 
Q 1153 2663 1013 2663 
Q 759 2663 595 2402 
Q 431 2141 353 1819 
Q 341 1778 300 1778 
L 225 1778 
Q 172 1778 172 1838 
L 172 1856 
Q 275 2238 487 2533 
Q 700 2828 1025 2828 
Q 1253 2828 1411 2678 
Q 1569 2528 1569 2297 
Q 1569 2178 1516 2047 
Q 1488 1969 1388 1706 
Q 1288 1444 1234 1272 
Q 1181 1100 1147 934 
Q 1113 769 1113 603 
Q 1113 391 1203 244 
Q 1294 97 1491 97 
Q 1888 97 2203 581 
L 2688 2553 
Q 2709 2638 2787 2698 
Q 2866 2759 2956 2759 
Q 3034 2759 3092 2709 
Q 3150 2659 3150 2578 
Q 3150 2541 3144 2528 
L 2509 -19 
Q 2425 -347 2200 -647 
Q 1975 -947 1658 -1130 
Q 1341 -1313 997 -1313 
Q 831 -1313 668 -1248 
Q 506 -1184 406 -1056 
Q 306 -928 306 -756 
Q 306 -581 409 -453 
Q 513 -325 684 -325 
Q 788 -325 858 -389 
Q 928 -453 928 -556 
Q 928 -703 818 -812 
Q 709 -922 563 -922 
Q 556 -919 550 -917 
Q 544 -916 538 -916 
z
" transform="scale(0.015625)"/>
      </defs>
      <use xlink:href="#Cmmi10-79" transform="translate(0 0.8125)"/>
     </g>
    </g>
   </g>
   <g id="line2d_6">
    <path d="M 298.634791 171.127468 
L 298.581684 167.243815 
L 298.238682 160.527315 
L 297.715625 154.994988 
L 296.879681 148.868031 
L 295.450397 141.220442 
L 293.829279 134.494443 
L 291.721742 127.355833 
L 289.268053 120.40258 
L 287.427298 115.827974 
L 285.235978 110.906308 
L 283.44583 107.221851 
L 280.583307 101.831617 
L 277.75355 96.995314 
L 275.062722 92.767232 
L 272.704665 89.314047 
L 269.541022 84.999446 
L 266.069713 80.628451 
L 261.174665 75.013989 
L 256.745495 70.407485 
L 252.726628 66.565128 
L 246.097615 60.838078 
L 244.130122 59.270243 
L 238.805849 55.301184 
L 235.527818 53.043134 
L 229.909363 49.475445 
L 222.130986 45.115082 
L 216.310889 42.255411 
L 212.840746 40.703715 
L 206.711602 38.228378 
L 201.467538 36.36763 
L 194.570859 34.264459 
L 187.884524 32.58322 
L 180.907763 31.190619 
L 176.962499 30.562414 
L 171.619736 29.891701 
L 166.995282 29.476329 
L 159.402954 29.123222 
L 153.279275 29.134513 
L 147.993752 29.356781 
L 144.077445 29.648996 
L 135.545935 30.665201 
L 131.236526 31.379155 
L 124.835075 32.693915 
L 117.460532 34.595722 
L 113.564705 35.77328 
L 106.284903 38.307511 
L 100.511774 40.640584 
L 95.424026 42.94718 
L 88.783213 46.333517 
L 83.514415 49.34441 
L 79.828479 51.633837 
L 76.311997 53.967705 
L 70.968839 57.814422 
L 66.105969 61.659007 
L 62.78984 64.487195 
L 58.566114 68.356721 
L 55.082546 71.79643 
L 49.102093 78.301752 
L 46.610038 81.268651 
L 42.077284 87.121995 
L 37.939171 93.076488 
L 36.323013 95.590824 
L 33.040619 101.088919 
L 28.880152 108.999094 
L 26.369901 114.449421 
L 24.7354 118.36387 
L 22.089691 125.52888 
L 20.925966 129.117895 
L 19.156472 135.32923 
L 18.075563 139.771269 
L 17.174459 144.058221 
L 16.145353 150.039279 
L 15.234432 157.416514 
L 14.744428 164.112624 
L 14.621154 167.356809 
L 14.58655 173.222807 
L 14.895516 180.7218 
L 15.628779 188.428662 
L 16.405843 193.883115 
L 17.525237 199.944785 
L 18.263603 203.303129 
L 20.876581 212.977209 
L 22.100028 216.756538 
L 25.175433 224.977778 
L 27.084956 229.421012 
L 30.544859 236.56756 
L 34.822102 244.21969 
L 37.160565 247.981644 
L 39.388313 251.338295 
L 42.77545 256.076559 
L 46.591233 260.963262 
L 51.637958 266.811312 
L 54.373621 269.728746 
L 60.078641 275.320103 
L 64.435024 279.192823 
L 68.797293 282.766234 
L 73.242885 286.123759 
L 77.342842 288.987056 
L 81.326222 291.57024 
L 89.465843 296.289986 
L 94.155968 298.694789 
L 97.464749 300.261972 
L 105.760689 303.747645 
L 109.451712 305.10436 
L 115.707913 307.144535 
L 122.025455 308.88611 
L 130.070256 310.659051 
L 136.627549 311.747629 
L 143.429874 312.547114 
L 147.635984 312.875977 
L 155.720123 313.156573 
L 158.431466 313.147546 
L 166.011643 312.847341 
L 171.301262 312.396734 
L 176.881187 311.704276 
L 185.566236 310.174847 
L 190.8414 308.970763 
L 196.18808 307.531511 
L 203.770577 305.098585 
L 210.782097 302.419757 
L 219.075759 298.682136 
L 227.530706 294.181514 
L 230.408548 292.477287 
L 235.262448 289.388739 
L 238.922706 286.870729 
L 242.226713 284.448322 
L 246.559486 281.040462 
L 252.098819 276.263492 
L 256.053279 272.531001 
L 260.31267 268.17044 
L 263.569605 264.568247 
L 267.64345 259.688473 
L 270.161331 256.435958 
L 274.266574 250.67818 
L 278.463975 244.085913 
L 282.260459 237.333468 
L 286.356254 228.895314 
L 288.250579 224.43737 
L 290.699197 217.938155 
L 293.026234 210.646216 
L 294.14614 206.552245 
L 295.673059 199.981389 
L 296.882992 193.36603 
L 297.395223 189.851238 
L 298.084118 183.62238 
L 298.56124 175.697783 
L 298.634791 171.127468 
L 298.634791 171.127468 
" clip-path="url(#p9c42326f7d)" style="fill: none; stroke: #000000; stroke-width: 2; stroke-linecap: square"/>
   </g>
   <g id="patch_4">
    <path d="M 156.602942 318.840038 
L 156.602942 23.4425 
" style="fill: none; stroke: #000000; stroke-width: 0.8; stroke-linejoin: miter; stroke-linecap: square"/>
   </g>
   <g id="patch_5">
    <path d="M 8.905586 313.159317 
L 304.315756 313.159317 
" style="fill: none; stroke: #000000; stroke-width: 0.8; stroke-linejoin: miter; stroke-linecap: square"/>
   </g>
  </g>
 </g>
 <defs>
  <clipPath id="p9c42326f7d">
   <rect x="8.905586" y="23.4425" width="295.41017" height="295.397538"/>
  </clipPath>
 </defs>
</svg>
