<?xml version="1.0" encoding="utf-8" standalone="no"?>
<!DOCTYPE svg PUBLIC "-//W3C//DTD SVG 1.1//EN"
  "http://www.w3.org/Graphics/SVG/1.1/DTD/svg11.dtd">
<svg xmlns:xlink="http://www.w3.org/1999/xlink" width="453.6pt" height="220.528743pt" viewBox="0 0 453.6 220.528743" xmlns="http://www.w3.org/2000/svg" version="1.1">
 <metadata>
  <rdf:RDF xmlns:dc="http://purl.org/dc/elements/1.1/" xmlns:cc="http://creativecommons.org/ns#" xmlns:rdf="http://www.w3.org/1999/02/22-rdf-syntax-ns#">
   <cc:Work>
    <dc:type rdf:resource="http://purl.org/dc/dcmitype/StillImage"/>
    <dc:date>2025-04-09T13:40:58.386344</dc:date>
    <dc:format>image/svg+xml</dc:format>
    <dc:creator>
     <cc:Agent>
      <dc:title>Matplotlib v3.8.0, https://matplotlib.org/</dc:title>
     </cc:Agent>
    </dc:creator>
   </cc:Work>
  </rdf:RDF>
 </metadata>
 <defs>
  <style type="text/css">*{stroke-linejoin: round; stroke-linecap: butt}</style>
 </defs>
 <g id="figure_1">
  <g id="patch_1">
   <path d="M 0 220.528743 
L 453.6 220.528743 
L 453.6 0 
L 0 0 
z
" style="fill: #ffffff"/>
  </g>
  <g id="axes_1">
   <g id="patch_2">
    <path d="M 7.2 213.328743 
L 446.4 213.328743 
L 446.4 7.2 
L 7.2 7.2 
z
" style="fill: #ffffff"/>
   </g>
   <g id="PathCollection_1">
    <path d="M 206.320147 65.498982 
C 207.046436 65.498982 207.743075 65.210424 208.256639 64.696861 
C 208.770203 64.183297 209.05876 63.486658 209.05876 62.760369 
C 209.05876 62.03408 208.770203 61.337441 208.256639 60.823877 
C 207.743075 60.310314 207.046436 60.021756 206.320147 60.021756 
C 205.593859 60.021756 204.897219 60.310314 204.383656 60.823877 
C 203.870092 61.337441 203.581534 62.03408 203.581534 62.760369 
C 203.581534 63.486658 203.870092 64.183297 204.383656 64.696861 
C 204.897219 65.210424 205.593859 65.498982 206.320147 65.498982 
z
" clip-path="url(#p13654034f8)"/>
   </g>
   <g id="matplotlib.axis_1"/>
   <g id="matplotlib.axis_2"/>
   <g id="line2d_1">
    <path d="M 368.949197 209.364729 
L 381.844094 202.25147 
L 391.652058 196.615537 
L 399.730731 191.729204 
L 406.446068 187.416909 
L 412.591954 183.181545 
L 416.984612 179.91547 
L 421.409628 176.338513 
L 424.451987 173.645428 
L 427.510132 170.661961 
L 429.745162 168.230128 
L 431.967373 165.494088 
L 433.885572 162.724082 
L 435.311668 160.233631 
L 436.442643 157.743835 
L 437.191001 155.531798 
L 437.684195 153.353978 
L 437.898618 151.628069 
L 437.937117 149.364034 
L 437.752186 147.466756 
L 437.288047 145.282006 
L 436.575875 143.164098 
L 435.598665 141.043353 
L 434.39417 138.987244 
L 432.989152 137.004871 
L 431.295974 134.971919 
L 428.972656 132.580735 
L 426.20728 130.124317 
L 423.522826 128.015152 
L 420.220321 125.684788 
L 416.165161 123.114856 
L 411.79217 120.609681 
L 406.482965 117.845223 
L 400.348887 114.937084 
L 394.348417 112.320235 
L 387.045545 109.372368 
L 379.148661 106.416314 
L 369.536378 103.073942 
L 359.654893 99.870415 
L 348.695684 96.537132 
L 334.571204 92.511699 
L 318.776924 88.293771 
L 302.414169 84.169715 
L 283.640389 79.67639 
L 264.001139 75.184913 
L 235.717478 68.986418 
L 198.243305 61.072308 
L 127.454187 46.202931 
L 105.79666 41.41968 
L 88.291526 37.353425 
L 73.32513 33.654744 
L 61.29809 30.45944 
L 52.110969 27.822101 
L 43.749957 25.205789 
L 37.126104 22.918895 
L 31.261972 20.655054 
L 26.790049 18.694847 
L 23.311167 16.946012 
L 20.616793 15.370781 
L 18.197816 13.665947 
L 16.73836 12.385204 
L 15.646154 11.164014 
L 15.646154 11.164014 
" clip-path="url(#p13654034f8)" style="fill: none; stroke: #000000; stroke-width: 2; stroke-linecap: square"/>
   </g>
   <g id="patch_3">
    <path d="M 206.320147 62.760369 
Q 155.255154 52.066439 106.378753 41.83084 
" clip-path="url(#p13654034f8)" style="fill: none; stroke: #ff0000; stroke-width: 2; stroke-linecap: round"/>
    <path d="M 115.141574 48.774396 
L 106.378753 41.83084 
L 117.19129 38.986717 
z
" clip-path="url(#p13654034f8)" style="fill: #ff0000; stroke: #ff0000; stroke-width: 2; stroke-linecap: round"/>
   </g>
   <g id="patch_4">
    <path d="M 206.320147 62.760369 
Q 195.626218 113.825362 185.390618 162.701763 
" clip-path="url(#p13654034f8)" style="fill: none; stroke: #800080; stroke-width: 2; stroke-linecap: round"/>
    <path d="M 192.334174 153.938942 
L 185.390618 162.701763 
L 182.546495 151.889226 
z
" clip-path="url(#p13654034f8)" style="fill: #800080; stroke: #800080; stroke-width: 2; stroke-linecap: round"/>
   </g>
   <g id="patch_5">
    <path d="M 206.320147 62.760369 
Q 269.347615 75.959456 330.18649 88.700213 
" clip-path="url(#p13654034f8)" style="fill: none; stroke: #ffa500; stroke-width: 2; stroke-linecap: round"/>
    <path d="M 321.423669 81.756657 
L 330.18649 88.700213 
L 319.373953 91.544336 
z
" clip-path="url(#p13654034f8)" style="fill: #ffa500; stroke: #ffa500; stroke-width: 2; stroke-linecap: round"/>
   </g>
   <g id="patch_6">
    <path d="M 206.320147 62.760369 
Q 202.519357 80.909668 199.176897 96.870376 
" clip-path="url(#p13654034f8)" style="fill: none; stroke: #0000ff; stroke-width: 2; stroke-linecap: round"/>
    <path d="M 206.120453 88.107555 
L 199.176897 96.870376 
L 196.332774 86.057838 
z
" clip-path="url(#p13654034f8)" style="fill: #0000ff; stroke: #0000ff; stroke-width: 2; stroke-linecap: round"/>
   </g>
   <g id="patch_7">
    <path d="M 206.320147 62.760369 
Q 265.546824 94.108755 322.797196 124.411093 
" clip-path="url(#p13654034f8)" style="fill: none; stroke: #008000; stroke-width: 2; stroke-linecap: round"/>
    <path d="M 316.297926 115.313869 
L 322.797196 124.411093 
L 311.619855 124.152175 
z
" clip-path="url(#p13654034f8)" style="fill: #008000; stroke: #008000; stroke-width: 2; stroke-linecap: round"/>
   </g>
  </g>
 </g>
 <defs>
  <clipPath id="p13654034f8">
   <rect x="7.2" y="7.2" width="439.2" height="206.128743"/>
  </clipPath>
 </defs>
</svg>
