<?xml version="1.0" encoding="utf-8" standalone="no"?>
<!DOCTYPE svg PUBLIC "-//W3C//DTD SVG 1.1//EN"
  "http://www.w3.org/Graphics/SVG/1.1/DTD/svg11.dtd">
<svg xmlns:xlink="http://www.w3.org/1999/xlink" width="336.436372pt" height="338.080038pt" viewBox="0 0 336.436372 338.080038" xmlns="http://www.w3.org/2000/svg" version="1.1">
 <metadata>
  <rdf:RDF xmlns:dc="http://purl.org/dc/elements/1.1/" xmlns:cc="http://creativecommons.org/ns#" xmlns:rdf="http://www.w3.org/1999/02/22-rdf-syntax-ns#">
   <cc:Work>
    <dc:type rdf:resource="http://purl.org/dc/dcmitype/StillImage"/>
    <dc:date>2025-11-26T17:29:12.549875</dc:date>
    <dc:format>image/svg+xml</dc:format>
    <dc:creator>
     <cc:Agent>
      <dc:title>Matplotlib v3.10.5, https://matplotlib.org/</dc:title>
     </cc:Agent>
    </dc:creator>
   </cc:Work>
  </rdf:RDF>
 </metadata>
 <defs>
  <style type="text/css">*{stroke-linejoin: round; stroke-linecap: butt}</style>
 </defs>
 <g id="figure_1">
  <g id="patch_1">
   <path d="M 0 338.080038 
L 336.436372 338.080038 
L 336.436372 0 
L 0 0 
z
" style="fill: #ffffff"/>
  </g>
  <g id="axes_1">
   <g id="patch_2">
    <path d="M 8.658833 330.880038 
L 316.096372 330.880038 
L 316.096372 23.4425 
L 8.658833 23.4425 
z
" style="fill: #ffffff"/>
   </g>
   <g id="PathCollection_1">
    <path d="M 162.377603 177.161269 
C 162.377603 177.161269 162.377603 177.161269 162.377603 177.161269 
C 162.377603 177.161269 162.377603 177.161269 162.377603 177.161269 
C 162.377603 177.161269 162.377603 177.161269 162.377603 177.161269 
C 162.377603 177.161269 162.377603 177.161269 162.377603 177.161269 
C 162.377603 177.161269 162.377603 177.161269 162.377603 177.161269 
C 162.377603 177.161269 162.377603 177.161269 162.377603 177.161269 
C 162.377603 177.161269 162.377603 177.161269 162.377603 177.161269 
C 162.377603 177.161269 162.377603 177.161269 162.377603 177.161269 
z
" clip-path="url(#p97b266cff1)"/>
   </g>
   <g id="matplotlib.axis_1">
    <g id="xtick_1">
     <g id="line2d_1">
      <defs>
       <path id="m56a9e7b62d" d="M 0 0 
L 0 3.5 
" style="stroke: #000000; stroke-width: 0.8"/>
      </defs>
      <g>
       <use xlink:href="#m56a9e7b62d" x="14.571094" y="177.161269" style="stroke: #000000; stroke-width: 0.8"/>
      </g>
     </g>
     <g id="text_1">
      <!-- −4 -->
      <g transform="translate(7.2 191.759707) scale(0.1 -0.1)">
       <defs>
        <path id="DejaVuSans-2212" d="M 678 2272 
L 4684 2272 
L 4684 1741 
L 678 1741 
L 678 2272 
z
" transform="scale(0.015625)"/>
        <path id="DejaVuSans-34" d="M 2419 4116 
L 825 1625 
L 2419 1625 
L 2419 4116 
z
M 2253 4666 
L 3047 4666 
L 3047 1625 
L 3713 1625 
L 3713 1100 
L 3047 1100 
L 3047 0 
L 2419 0 
L 2419 1100 
L 313 1100 
L 313 1709 
L 2253 4666 
z
" transform="scale(0.015625)"/>
       </defs>
       <use xlink:href="#DejaVuSans-2212"/>
       <use xlink:href="#DejaVuSans-34" transform="translate(83.789062 0)"/>
      </g>
     </g>
    </g>
    <g id="xtick_2">
     <g id="line2d_2">
      <g>
       <use xlink:href="#m56a9e7b62d" x="51.522721" y="177.161269" style="stroke: #000000; stroke-width: 0.8"/>
      </g>
     </g>
     <g id="text_2">
      <!-- −3 -->
      <g transform="translate(44.151627 191.759707) scale(0.1 -0.1)">
       <defs>
        <path id="DejaVuSans-33" d="M 2597 2516 
Q 3050 2419 3304 2112 
Q 3559 1806 3559 1356 
Q 3559 666 3084 287 
Q 2609 -91 1734 -91 
Q 1441 -91 1130 -33 
Q 819 25 488 141 
L 488 750 
Q 750 597 1062 519 
Q 1375 441 1716 441 
Q 2309 441 2620 675 
Q 2931 909 2931 1356 
Q 2931 1769 2642 2001 
Q 2353 2234 1838 2234 
L 1294 2234 
L 1294 2753 
L 1863 2753 
Q 2328 2753 2575 2939 
Q 2822 3125 2822 3475 
Q 2822 3834 2567 4026 
Q 2313 4219 1838 4219 
Q 1578 4219 1281 4162 
Q 984 4106 628 3988 
L 628 4550 
Q 988 4650 1302 4700 
Q 1616 4750 1894 4750 
Q 2613 4750 3031 4423 
Q 3450 4097 3450 3541 
Q 3450 3153 3228 2886 
Q 3006 2619 2597 2516 
z
" transform="scale(0.015625)"/>
       </defs>
       <use xlink:href="#DejaVuSans-2212"/>
       <use xlink:href="#DejaVuSans-33" transform="translate(83.789062 0)"/>
      </g>
     </g>
    </g>
    <g id="xtick_3">
     <g id="line2d_3">
      <g>
       <use xlink:href="#m56a9e7b62d" x="88.474348" y="177.161269" style="stroke: #000000; stroke-width: 0.8"/>
      </g>
     </g>
     <g id="text_3">
      <!-- −2 -->
      <g transform="translate(81.103254 191.759707) scale(0.1 -0.1)">
       <defs>
        <path id="DejaVuSans-32" d="M 1228 531 
L 3431 531 
L 3431 0 
L 469 0 
L 469 531 
Q 828 903 1448 1529 
Q 2069 2156 2228 2338 
Q 2531 2678 2651 2914 
Q 2772 3150 2772 3378 
Q 2772 3750 2511 3984 
Q 2250 4219 1831 4219 
Q 1534 4219 1204 4116 
Q 875 4013 500 3803 
L 500 4441 
Q 881 4594 1212 4672 
Q 1544 4750 1819 4750 
Q 2544 4750 2975 4387 
Q 3406 4025 3406 3419 
Q 3406 3131 3298 2873 
Q 3191 2616 2906 2266 
Q 2828 2175 2409 1742 
Q 1991 1309 1228 531 
z
" transform="scale(0.015625)"/>
       </defs>
       <use xlink:href="#DejaVuSans-2212"/>
       <use xlink:href="#DejaVuSans-32" transform="translate(83.789062 0)"/>
      </g>
     </g>
    </g>
    <g id="xtick_4">
     <g id="line2d_4">
      <g>
       <use xlink:href="#m56a9e7b62d" x="125.425975" y="177.161269" style="stroke: #000000; stroke-width: 0.8"/>
      </g>
     </g>
     <g id="text_4">
      <!-- −1 -->
      <g transform="translate(118.054882 191.759707) scale(0.1 -0.1)">
       <defs>
        <path id="DejaVuSans-31" d="M 794 531 
L 1825 531 
L 1825 4091 
L 703 3866 
L 703 4441 
L 1819 4666 
L 2450 4666 
L 2450 531 
L 3481 531 
L 3481 0 
L 794 0 
L 794 531 
z
" transform="scale(0.015625)"/>
       </defs>
       <use xlink:href="#DejaVuSans-2212"/>
       <use xlink:href="#DejaVuSans-31" transform="translate(83.789062 0)"/>
      </g>
     </g>
    </g>
    <g id="xtick_5">
     <g id="line2d_5">
      <g>
       <use xlink:href="#m56a9e7b62d" x="162.377603" y="177.161269" style="stroke: #000000; stroke-width: 0.8"/>
      </g>
     </g>
    </g>
    <g id="xtick_6">
     <g id="line2d_6">
      <g>
       <use xlink:href="#m56a9e7b62d" x="199.32923" y="177.161269" style="stroke: #000000; stroke-width: 0.8"/>
      </g>
     </g>
     <g id="text_5">
      <!-- 1 -->
      <g transform="translate(196.14798 191.759707) scale(0.1 -0.1)">
       <use xlink:href="#DejaVuSans-31"/>
      </g>
     </g>
    </g>
    <g id="xtick_7">
     <g id="line2d_7">
      <g>
       <use xlink:href="#m56a9e7b62d" x="236.280857" y="177.161269" style="stroke: #000000; stroke-width: 0.8"/>
      </g>
     </g>
     <g id="text_6">
      <!-- 2 -->
      <g transform="translate(233.099607 191.759707) scale(0.1 -0.1)">
       <use xlink:href="#DejaVuSans-32"/>
      </g>
     </g>
    </g>
    <g id="xtick_8">
     <g id="line2d_8">
      <g>
       <use xlink:href="#m56a9e7b62d" x="273.232484" y="177.161269" style="stroke: #000000; stroke-width: 0.8"/>
      </g>
     </g>
     <g id="text_7">
      <!-- 3 -->
      <g transform="translate(270.051234 191.759707) scale(0.1 -0.1)">
       <use xlink:href="#DejaVuSans-33"/>
      </g>
     </g>
    </g>
    <g id="xtick_9">
     <g id="line2d_9">
      <g>
       <use xlink:href="#m56a9e7b62d" x="310.184112" y="177.161269" style="stroke: #000000; stroke-width: 0.8"/>
      </g>
     </g>
     <g id="text_8">
      <!-- 4 -->
      <g transform="translate(307.002862 191.759707) scale(0.1 -0.1)">
       <use xlink:href="#DejaVuSans-34"/>
      </g>
     </g>
    </g>
    <g id="xtick_10">
     <g id="line2d_10">
      <defs>
       <path id="me04f6158d1" d="M 0 0 
L 0 2 
" style="stroke: #000000; stroke-width: 0.6"/>
      </defs>
      <g>
       <use xlink:href="#me04f6158d1" x="21.961419" y="177.161269" style="stroke: #000000; stroke-width: 0.6"/>
      </g>
     </g>
    </g>
    <g id="xtick_11">
     <g id="line2d_11">
      <g>
       <use xlink:href="#me04f6158d1" x="29.351745" y="177.161269" style="stroke: #000000; stroke-width: 0.6"/>
      </g>
     </g>
    </g>
    <g id="xtick_12">
     <g id="line2d_12">
      <g>
       <use xlink:href="#me04f6158d1" x="36.74207" y="177.161269" style="stroke: #000000; stroke-width: 0.6"/>
      </g>
     </g>
    </g>
    <g id="xtick_13">
     <g id="line2d_13">
      <g>
       <use xlink:href="#me04f6158d1" x="44.132396" y="177.161269" style="stroke: #000000; stroke-width: 0.6"/>
      </g>
     </g>
    </g>
    <g id="xtick_14">
     <g id="line2d_14">
      <g>
       <use xlink:href="#me04f6158d1" x="58.913046" y="177.161269" style="stroke: #000000; stroke-width: 0.6"/>
      </g>
     </g>
    </g>
    <g id="xtick_15">
     <g id="line2d_15">
      <g>
       <use xlink:href="#me04f6158d1" x="66.303372" y="177.161269" style="stroke: #000000; stroke-width: 0.6"/>
      </g>
     </g>
    </g>
    <g id="xtick_16">
     <g id="line2d_16">
      <g>
       <use xlink:href="#me04f6158d1" x="73.693697" y="177.161269" style="stroke: #000000; stroke-width: 0.6"/>
      </g>
     </g>
    </g>
    <g id="xtick_17">
     <g id="line2d_17">
      <g>
       <use xlink:href="#me04f6158d1" x="81.084023" y="177.161269" style="stroke: #000000; stroke-width: 0.6"/>
      </g>
     </g>
    </g>
    <g id="xtick_18">
     <g id="line2d_18">
      <g>
       <use xlink:href="#me04f6158d1" x="95.864674" y="177.161269" style="stroke: #000000; stroke-width: 0.6"/>
      </g>
     </g>
    </g>
    <g id="xtick_19">
     <g id="line2d_19">
      <g>
       <use xlink:href="#me04f6158d1" x="103.254999" y="177.161269" style="stroke: #000000; stroke-width: 0.6"/>
      </g>
     </g>
    </g>
    <g id="xtick_20">
     <g id="line2d_20">
      <g>
       <use xlink:href="#me04f6158d1" x="110.645325" y="177.161269" style="stroke: #000000; stroke-width: 0.6"/>
      </g>
     </g>
    </g>
    <g id="xtick_21">
     <g id="line2d_21">
      <g>
       <use xlink:href="#me04f6158d1" x="118.03565" y="177.161269" style="stroke: #000000; stroke-width: 0.6"/>
      </g>
     </g>
    </g>
    <g id="xtick_22">
     <g id="line2d_22">
      <g>
       <use xlink:href="#me04f6158d1" x="132.816301" y="177.161269" style="stroke: #000000; stroke-width: 0.6"/>
      </g>
     </g>
    </g>
    <g id="xtick_23">
     <g id="line2d_23">
      <g>
       <use xlink:href="#me04f6158d1" x="140.206626" y="177.161269" style="stroke: #000000; stroke-width: 0.6"/>
      </g>
     </g>
    </g>
    <g id="xtick_24">
     <g id="line2d_24">
      <g>
       <use xlink:href="#me04f6158d1" x="147.596952" y="177.161269" style="stroke: #000000; stroke-width: 0.6"/>
      </g>
     </g>
    </g>
    <g id="xtick_25">
     <g id="line2d_25">
      <g>
       <use xlink:href="#me04f6158d1" x="154.987277" y="177.161269" style="stroke: #000000; stroke-width: 0.6"/>
      </g>
     </g>
    </g>
    <g id="xtick_26">
     <g id="line2d_26">
      <g>
       <use xlink:href="#me04f6158d1" x="169.767928" y="177.161269" style="stroke: #000000; stroke-width: 0.6"/>
      </g>
     </g>
    </g>
    <g id="xtick_27">
     <g id="line2d_27">
      <g>
       <use xlink:href="#me04f6158d1" x="177.158254" y="177.161269" style="stroke: #000000; stroke-width: 0.6"/>
      </g>
     </g>
    </g>
    <g id="xtick_28">
     <g id="line2d_28">
      <g>
       <use xlink:href="#me04f6158d1" x="184.548579" y="177.161269" style="stroke: #000000; stroke-width: 0.6"/>
      </g>
     </g>
    </g>
    <g id="xtick_29">
     <g id="line2d_29">
      <g>
       <use xlink:href="#me04f6158d1" x="191.938904" y="177.161269" style="stroke: #000000; stroke-width: 0.6"/>
      </g>
     </g>
    </g>
    <g id="xtick_30">
     <g id="line2d_30">
      <g>
       <use xlink:href="#me04f6158d1" x="206.719555" y="177.161269" style="stroke: #000000; stroke-width: 0.6"/>
      </g>
     </g>
    </g>
    <g id="xtick_31">
     <g id="line2d_31">
      <g>
       <use xlink:href="#me04f6158d1" x="214.109881" y="177.161269" style="stroke: #000000; stroke-width: 0.6"/>
      </g>
     </g>
    </g>
    <g id="xtick_32">
     <g id="line2d_32">
      <g>
       <use xlink:href="#me04f6158d1" x="221.500206" y="177.161269" style="stroke: #000000; stroke-width: 0.6"/>
      </g>
     </g>
    </g>
    <g id="xtick_33">
     <g id="line2d_33">
      <g>
       <use xlink:href="#me04f6158d1" x="228.890532" y="177.161269" style="stroke: #000000; stroke-width: 0.6"/>
      </g>
     </g>
    </g>
    <g id="xtick_34">
     <g id="line2d_34">
      <g>
       <use xlink:href="#me04f6158d1" x="243.671183" y="177.161269" style="stroke: #000000; stroke-width: 0.6"/>
      </g>
     </g>
    </g>
    <g id="xtick_35">
     <g id="line2d_35">
      <g>
       <use xlink:href="#me04f6158d1" x="251.061508" y="177.161269" style="stroke: #000000; stroke-width: 0.6"/>
      </g>
     </g>
    </g>
    <g id="xtick_36">
     <g id="line2d_36">
      <g>
       <use xlink:href="#me04f6158d1" x="258.451833" y="177.161269" style="stroke: #000000; stroke-width: 0.6"/>
      </g>
     </g>
    </g>
    <g id="xtick_37">
     <g id="line2d_37">
      <g>
       <use xlink:href="#me04f6158d1" x="265.842159" y="177.161269" style="stroke: #000000; stroke-width: 0.6"/>
      </g>
     </g>
    </g>
    <g id="xtick_38">
     <g id="line2d_38">
      <g>
       <use xlink:href="#me04f6158d1" x="280.62281" y="177.161269" style="stroke: #000000; stroke-width: 0.6"/>
      </g>
     </g>
    </g>
    <g id="xtick_39">
     <g id="line2d_39">
      <g>
       <use xlink:href="#me04f6158d1" x="288.013135" y="177.161269" style="stroke: #000000; stroke-width: 0.6"/>
      </g>
     </g>
    </g>
    <g id="xtick_40">
     <g id="line2d_40">
      <g>
       <use xlink:href="#me04f6158d1" x="295.403461" y="177.161269" style="stroke: #000000; stroke-width: 0.6"/>
      </g>
     </g>
    </g>
    <g id="xtick_41">
     <g id="line2d_41">
      <g>
       <use xlink:href="#me04f6158d1" x="302.793786" y="177.161269" style="stroke: #000000; stroke-width: 0.6"/>
      </g>
     </g>
    </g>
    <g id="text_9">
     <!-- $x$ -->
     <g transform="translate(324.096372 177.161269) scale(0.16 -0.16)">
      <defs>
       <path id="Cmmi10-78" d="M 500 184 
Q 613 97 819 97 
Q 1019 97 1172 289 
Q 1325 481 1381 709 
L 1672 1844 
Q 1741 2153 1741 2266 
Q 1741 2425 1652 2544 
Q 1563 2663 1403 2663 
Q 1200 2663 1022 2536 
Q 844 2409 722 2214 
Q 600 2019 550 1819 
Q 538 1778 500 1778 
L 422 1778 
Q 372 1778 372 1838 
L 372 1856 
Q 434 2094 584 2320 
Q 734 2547 951 2687 
Q 1169 2828 1416 2828 
Q 1650 2828 1839 2703 
Q 2028 2578 2106 2363 
Q 2216 2559 2386 2693 
Q 2556 2828 2759 2828 
Q 2897 2828 3040 2779 
Q 3184 2731 3275 2631 
Q 3366 2531 3366 2381 
Q 3366 2219 3261 2101 
Q 3156 1984 2994 1984 
Q 2891 1984 2822 2050 
Q 2753 2116 2753 2216 
Q 2753 2350 2845 2451 
Q 2938 2553 3066 2572 
Q 2950 2663 2747 2663 
Q 2541 2663 2389 2472 
Q 2238 2281 2175 2047 
L 1894 916 
Q 1825 659 1825 494 
Q 1825 331 1917 214 
Q 2009 97 2163 97 
Q 2463 97 2698 361 
Q 2934 625 3009 941 
Q 3022 978 3059 978 
L 3138 978 
Q 3163 978 3178 961 
Q 3194 944 3194 922 
Q 3194 916 3188 903 
Q 3097 522 2806 225 
Q 2516 -72 2150 -72 
Q 1916 -72 1727 54 
Q 1538 181 1459 397 
Q 1359 209 1182 68 
Q 1006 -72 806 -72 
Q 669 -72 523 -23 
Q 378 25 287 125 
Q 197 225 197 378 
Q 197 528 301 651 
Q 406 775 563 775 
Q 669 775 741 711 
Q 813 647 813 544 
Q 813 409 723 309 
Q 634 209 500 184 
z
" transform="scale(0.015625)"/>
      </defs>
      <use xlink:href="#Cmmi10-78" transform="translate(0 0.8125)"/>
     </g>
    </g>
   </g>
   <g id="matplotlib.axis_2">
    <g id="ytick_1">
     <g id="line2d_42">
      <defs>
       <path id="m587e09db19" d="M 0 0 
L -3.5 0 
" style="stroke: #000000; stroke-width: 0.8"/>
      </defs>
      <g>
       <use xlink:href="#m587e09db19" x="162.377603" y="324.967778" style="stroke: #000000; stroke-width: 0.8"/>
      </g>
     </g>
     <g id="text_10">
      <!-- −4 -->
      <g transform="translate(140.635415 328.766997) scale(0.1 -0.1)">
       <use xlink:href="#DejaVuSans-2212"/>
       <use xlink:href="#DejaVuSans-34" transform="translate(83.789062 0)"/>
      </g>
     </g>
    </g>
    <g id="ytick_2">
     <g id="line2d_43">
      <g>
       <use xlink:href="#m587e09db19" x="162.377603" y="288.016151" style="stroke: #000000; stroke-width: 0.8"/>
      </g>
     </g>
     <g id="text_11">
      <!-- −3 -->
      <g transform="translate(140.635415 291.81537) scale(0.1 -0.1)">
       <use xlink:href="#DejaVuSans-2212"/>
       <use xlink:href="#DejaVuSans-33" transform="translate(83.789062 0)"/>
      </g>
     </g>
    </g>
    <g id="ytick_3">
     <g id="line2d_44">
      <g>
       <use xlink:href="#m587e09db19" x="162.377603" y="251.064524" style="stroke: #000000; stroke-width: 0.8"/>
      </g>
     </g>
     <g id="text_12">
      <!-- −2 -->
      <g transform="translate(140.635415 254.863742) scale(0.1 -0.1)">
       <use xlink:href="#DejaVuSans-2212"/>
       <use xlink:href="#DejaVuSans-32" transform="translate(83.789062 0)"/>
      </g>
     </g>
    </g>
    <g id="ytick_4">
     <g id="line2d_45">
      <g>
       <use xlink:href="#m587e09db19" x="162.377603" y="214.112896" style="stroke: #000000; stroke-width: 0.8"/>
      </g>
     </g>
     <g id="text_13">
      <!-- −1 -->
      <g transform="translate(140.635415 217.912115) scale(0.1 -0.1)">
       <use xlink:href="#DejaVuSans-2212"/>
       <use xlink:href="#DejaVuSans-31" transform="translate(83.789062 0)"/>
      </g>
     </g>
    </g>
    <g id="ytick_5">
     <g id="line2d_46">
      <g>
       <use xlink:href="#m587e09db19" x="162.377603" y="177.161269" style="stroke: #000000; stroke-width: 0.8"/>
      </g>
     </g>
    </g>
    <g id="ytick_6">
     <g id="line2d_47">
      <g>
       <use xlink:href="#m587e09db19" x="162.377603" y="140.209642" style="stroke: #000000; stroke-width: 0.8"/>
      </g>
     </g>
     <g id="text_14">
      <!-- 1 -->
      <g transform="translate(149.015103 144.008861) scale(0.1 -0.1)">
       <use xlink:href="#DejaVuSans-31"/>
      </g>
     </g>
    </g>
    <g id="ytick_7">
     <g id="line2d_48">
      <g>
       <use xlink:href="#m587e09db19" x="162.377603" y="103.258015" style="stroke: #000000; stroke-width: 0.8"/>
      </g>
     </g>
     <g id="text_15">
      <!-- 2 -->
      <g transform="translate(149.015103 107.057234) scale(0.1 -0.1)">
       <use xlink:href="#DejaVuSans-32"/>
      </g>
     </g>
    </g>
    <g id="ytick_8">
     <g id="line2d_49">
      <g>
       <use xlink:href="#m587e09db19" x="162.377603" y="66.306388" style="stroke: #000000; stroke-width: 0.8"/>
      </g>
     </g>
     <g id="text_16">
      <!-- 3 -->
      <g transform="translate(149.015103 70.105606) scale(0.1 -0.1)">
       <use xlink:href="#DejaVuSans-33"/>
      </g>
     </g>
    </g>
    <g id="ytick_9">
     <g id="line2d_50">
      <g>
       <use xlink:href="#m587e09db19" x="162.377603" y="29.35476" style="stroke: #000000; stroke-width: 0.8"/>
      </g>
     </g>
     <g id="text_17">
      <!-- 4 -->
      <g transform="translate(149.015103 33.153979) scale(0.1 -0.1)">
       <use xlink:href="#DejaVuSans-34"/>
      </g>
     </g>
    </g>
    <g id="ytick_10">
     <g id="line2d_51">
      <defs>
       <path id="m19f3d9dfc1" d="M 0 0 
L -2 0 
" style="stroke: #000000; stroke-width: 0.6"/>
      </defs>
      <g>
       <use xlink:href="#m19f3d9dfc1" x="162.377603" y="317.577453" style="stroke: #000000; stroke-width: 0.6"/>
      </g>
     </g>
    </g>
    <g id="ytick_11">
     <g id="line2d_52">
      <g>
       <use xlink:href="#m19f3d9dfc1" x="162.377603" y="310.187127" style="stroke: #000000; stroke-width: 0.6"/>
      </g>
     </g>
    </g>
    <g id="ytick_12">
     <g id="line2d_53">
      <g>
       <use xlink:href="#m19f3d9dfc1" x="162.377603" y="302.796802" style="stroke: #000000; stroke-width: 0.6"/>
      </g>
     </g>
    </g>
    <g id="ytick_13">
     <g id="line2d_54">
      <g>
       <use xlink:href="#m19f3d9dfc1" x="162.377603" y="295.406476" style="stroke: #000000; stroke-width: 0.6"/>
      </g>
     </g>
    </g>
    <g id="ytick_14">
     <g id="line2d_55">
      <g>
       <use xlink:href="#m19f3d9dfc1" x="162.377603" y="280.625825" style="stroke: #000000; stroke-width: 0.6"/>
      </g>
     </g>
    </g>
    <g id="ytick_15">
     <g id="line2d_56">
      <g>
       <use xlink:href="#m19f3d9dfc1" x="162.377603" y="273.2355" style="stroke: #000000; stroke-width: 0.6"/>
      </g>
     </g>
    </g>
    <g id="ytick_16">
     <g id="line2d_57">
      <g>
       <use xlink:href="#m19f3d9dfc1" x="162.377603" y="265.845175" style="stroke: #000000; stroke-width: 0.6"/>
      </g>
     </g>
    </g>
    <g id="ytick_17">
     <g id="line2d_58">
      <g>
       <use xlink:href="#m19f3d9dfc1" x="162.377603" y="258.454849" style="stroke: #000000; stroke-width: 0.6"/>
      </g>
     </g>
    </g>
    <g id="ytick_18">
     <g id="line2d_59">
      <g>
       <use xlink:href="#m19f3d9dfc1" x="162.377603" y="243.674198" style="stroke: #000000; stroke-width: 0.6"/>
      </g>
     </g>
    </g>
    <g id="ytick_19">
     <g id="line2d_60">
      <g>
       <use xlink:href="#m19f3d9dfc1" x="162.377603" y="236.283873" style="stroke: #000000; stroke-width: 0.6"/>
      </g>
     </g>
    </g>
    <g id="ytick_20">
     <g id="line2d_61">
      <g>
       <use xlink:href="#m19f3d9dfc1" x="162.377603" y="228.893547" style="stroke: #000000; stroke-width: 0.6"/>
      </g>
     </g>
    </g>
    <g id="ytick_21">
     <g id="line2d_62">
      <g>
       <use xlink:href="#m19f3d9dfc1" x="162.377603" y="221.503222" style="stroke: #000000; stroke-width: 0.6"/>
      </g>
     </g>
    </g>
    <g id="ytick_22">
     <g id="line2d_63">
      <g>
       <use xlink:href="#m19f3d9dfc1" x="162.377603" y="206.722571" style="stroke: #000000; stroke-width: 0.6"/>
      </g>
     </g>
    </g>
    <g id="ytick_23">
     <g id="line2d_64">
      <g>
       <use xlink:href="#m19f3d9dfc1" x="162.377603" y="199.332246" style="stroke: #000000; stroke-width: 0.6"/>
      </g>
     </g>
    </g>
    <g id="ytick_24">
     <g id="line2d_65">
      <g>
       <use xlink:href="#m19f3d9dfc1" x="162.377603" y="191.94192" style="stroke: #000000; stroke-width: 0.6"/>
      </g>
     </g>
    </g>
    <g id="ytick_25">
     <g id="line2d_66">
      <g>
       <use xlink:href="#m19f3d9dfc1" x="162.377603" y="184.551595" style="stroke: #000000; stroke-width: 0.6"/>
      </g>
     </g>
    </g>
    <g id="ytick_26">
     <g id="line2d_67">
      <g>
       <use xlink:href="#m19f3d9dfc1" x="162.377603" y="169.770944" style="stroke: #000000; stroke-width: 0.6"/>
      </g>
     </g>
    </g>
    <g id="ytick_27">
     <g id="line2d_68">
      <g>
       <use xlink:href="#m19f3d9dfc1" x="162.377603" y="162.380618" style="stroke: #000000; stroke-width: 0.6"/>
      </g>
     </g>
    </g>
    <g id="ytick_28">
     <g id="line2d_69">
      <g>
       <use xlink:href="#m19f3d9dfc1" x="162.377603" y="154.990293" style="stroke: #000000; stroke-width: 0.6"/>
      </g>
     </g>
    </g>
    <g id="ytick_29">
     <g id="line2d_70">
      <g>
       <use xlink:href="#m19f3d9dfc1" x="162.377603" y="147.599967" style="stroke: #000000; stroke-width: 0.6"/>
      </g>
     </g>
    </g>
    <g id="ytick_30">
     <g id="line2d_71">
      <g>
       <use xlink:href="#m19f3d9dfc1" x="162.377603" y="132.819317" style="stroke: #000000; stroke-width: 0.6"/>
      </g>
     </g>
    </g>
    <g id="ytick_31">
     <g id="line2d_72">
      <g>
       <use xlink:href="#m19f3d9dfc1" x="162.377603" y="125.428991" style="stroke: #000000; stroke-width: 0.6"/>
      </g>
     </g>
    </g>
    <g id="ytick_32">
     <g id="line2d_73">
      <g>
       <use xlink:href="#m19f3d9dfc1" x="162.377603" y="118.038666" style="stroke: #000000; stroke-width: 0.6"/>
      </g>
     </g>
    </g>
    <g id="ytick_33">
     <g id="line2d_74">
      <g>
       <use xlink:href="#m19f3d9dfc1" x="162.377603" y="110.64834" style="stroke: #000000; stroke-width: 0.6"/>
      </g>
     </g>
    </g>
    <g id="ytick_34">
     <g id="line2d_75">
      <g>
       <use xlink:href="#m19f3d9dfc1" x="162.377603" y="95.867689" style="stroke: #000000; stroke-width: 0.6"/>
      </g>
     </g>
    </g>
    <g id="ytick_35">
     <g id="line2d_76">
      <g>
       <use xlink:href="#m19f3d9dfc1" x="162.377603" y="88.477364" style="stroke: #000000; stroke-width: 0.6"/>
      </g>
     </g>
    </g>
    <g id="ytick_36">
     <g id="line2d_77">
      <g>
       <use xlink:href="#m19f3d9dfc1" x="162.377603" y="81.087038" style="stroke: #000000; stroke-width: 0.6"/>
      </g>
     </g>
    </g>
    <g id="ytick_37">
     <g id="line2d_78">
      <g>
       <use xlink:href="#m19f3d9dfc1" x="162.377603" y="73.696713" style="stroke: #000000; stroke-width: 0.6"/>
      </g>
     </g>
    </g>
    <g id="ytick_38">
     <g id="line2d_79">
      <g>
       <use xlink:href="#m19f3d9dfc1" x="162.377603" y="58.916062" style="stroke: #000000; stroke-width: 0.6"/>
      </g>
     </g>
    </g>
    <g id="ytick_39">
     <g id="line2d_80">
      <g>
       <use xlink:href="#m19f3d9dfc1" x="162.377603" y="51.525737" style="stroke: #000000; stroke-width: 0.6"/>
      </g>
     </g>
    </g>
    <g id="ytick_40">
     <g id="line2d_81">
      <g>
       <use xlink:href="#m19f3d9dfc1" x="162.377603" y="44.135411" style="stroke: #000000; stroke-width: 0.6"/>
      </g>
     </g>
    </g>
    <g id="ytick_41">
     <g id="line2d_82">
      <g>
       <use xlink:href="#m19f3d9dfc1" x="162.377603" y="36.745086" style="stroke: #000000; stroke-width: 0.6"/>
      </g>
     </g>
    </g>
    <g id="text_18">
     <!-- $y$ -->
     <g transform="translate(158.377603 12.0825) scale(0.16 -0.16)">
      <defs>
       <path id="Cmmi10-79" d="M 538 -916 
Q 672 -1147 1006 -1147 
Q 1309 -1147 1531 -934 
Q 1753 -722 1889 -420 
Q 2025 -119 2100 197 
Q 1816 -72 1484 -72 
Q 1231 -72 1053 15 
Q 875 103 776 276 
Q 678 450 678 697 
Q 678 906 734 1126 
Q 791 1347 892 1617 
Q 994 1888 1069 2088 
Q 1153 2322 1153 2472 
Q 1153 2663 1013 2663 
Q 759 2663 595 2402 
Q 431 2141 353 1819 
Q 341 1778 300 1778 
L 225 1778 
Q 172 1778 172 1838 
L 172 1856 
Q 275 2238 487 2533 
Q 700 2828 1025 2828 
Q 1253 2828 1411 2678 
Q 1569 2528 1569 2297 
Q 1569 2178 1516 2047 
Q 1488 1969 1388 1706 
Q 1288 1444 1234 1272 
Q 1181 1100 1147 934 
Q 1113 769 1113 603 
Q 1113 391 1203 244 
Q 1294 97 1491 97 
Q 1888 97 2203 581 
L 2688 2553 
Q 2709 2638 2787 2698 
Q 2866 2759 2956 2759 
Q 3034 2759 3092 2709 
Q 3150 2659 3150 2578 
Q 3150 2541 3144 2528 
L 2509 -19 
Q 2425 -347 2200 -647 
Q 1975 -947 1658 -1130 
Q 1341 -1313 997 -1313 
Q 831 -1313 668 -1248 
Q 506 -1184 406 -1056 
Q 306 -928 306 -756 
Q 306 -581 409 -453 
Q 513 -325 684 -325 
Q 788 -325 858 -389 
Q 928 -453 928 -556 
Q 928 -703 818 -812 
Q 709 -922 563 -922 
Q 556 -919 550 -917 
Q 544 -916 538 -916 
z
" transform="scale(0.015625)"/>
      </defs>
      <use xlink:href="#Cmmi10-79" transform="translate(0 0.8125)"/>
     </g>
    </g>
   </g>
   <g id="line2d_83">
    <path d="M 199.32923 177.161269 
L 199.139809 173.424572 
L 198.683068 170.281158 
L 197.924634 167.07012 
L 197.025684 164.318636 
L 195.963036 161.752134 
L 194.81605 159.464662 
L 193.624251 157.436419 
L 191.768859 154.765359 
L 189.94562 152.55584 
L 187.862042 150.403726 
L 185.133919 148.048165 
L 182.89074 146.426371 
L 181.357323 145.456491 
L 178.491871 143.908403 
L 176.131199 142.864602 
L 173.792958 142.017103 
L 170.652987 141.148205 
L 166.91517 140.489301 
L 164.736191 140.284992 
L 161.136212 140.2305 
L 158.690999 140.394005 
L 156.310126 140.711187 
L 152.849028 141.459322 
L 150.668132 142.114001 
L 148.571872 142.885556 
L 146.12897 143.973852 
L 144.343385 144.909297 
L 141.868605 146.423609 
L 139.601966 148.063278 
L 137.854672 149.51984 
L 136.126441 151.155514 
L 134.615122 152.775466 
L 132.71555 155.125267 
L 131.430597 156.969548 
L 129.765757 159.78628 
L 128.723227 161.903296 
L 127.8909 163.891376 
L 126.790671 167.211745 
L 126.065207 170.31783 
L 125.642575 173.166207 
L 125.440424 176.12801 
L 125.501847 179.52799 
L 125.844932 182.709849 
L 126.463362 185.855525 
L 126.98732 187.789095 
L 128.059132 190.860368 
L 129.433621 193.897961 
L 130.864692 196.45788 
L 132.602214 199.043888 
L 134.153692 201.011503 
L 136.507996 203.54661 
L 139.507731 206.185255 
L 141.028637 207.321581 
L 143.744186 209.070806 
L 146.714476 210.629003 
L 149.583852 211.82743 
L 151.641584 212.51888 
L 155.128989 213.39496 
L 158.443656 213.902892 
L 160.704273 214.074989 
L 164.401687 214.057419 
L 167.529171 213.752034 
L 170.864575 213.125057 
L 174.017038 212.23186 
L 176.519739 211.299558 
L 179.598242 209.854882 
L 182.027807 208.454914 
L 185.039238 206.348133 
L 187.526051 204.234841 
L 189.810707 201.917026 
L 191.337343 200.112439 
L 192.966045 197.892162 
L 194.828836 194.834418 
L 196.319791 191.767795 
L 197.306264 189.219933 
L 198.163589 186.369196 
L 198.675331 184.082081 
L 198.997351 182.102606 
L 199.307125 178.439203 
L 199.32923 177.161269 
L 199.32923 177.161269 
" clip-path="url(#p97b266cff1)" style="fill: none; stroke-dasharray: 3.7,1.6; stroke-dashoffset: 0; stroke: #808080"/>
   </g>
   <g id="line2d_84">
    <path d="M 236.280857 177.161269 
L 236.194922 173.59835 
L 235.883235 169.505354 
L 235.174638 164.422247 
L 234.577778 161.387061 
L 233.874415 158.455738 
L 232.56991 154.037019 
L 231.289766 150.462866 
L 229.835572 146.976615 
L 227.898237 142.974466 
L 226.401575 140.24756 
L 223.723598 135.950107 
L 221.519151 132.844588 
L 219.00241 129.671037 
L 216.710478 127.065065 
L 214.123942 124.397575 
L 210.145534 120.770527 
L 207.968784 118.996544 
L 204.137937 116.187787 
L 199.960622 113.527884 
L 198.399564 112.631359 
L 194.401018 110.556526 
L 191.391427 109.191504 
L 186.483512 107.300006 
L 182.907572 106.166823 
L 178.794324 105.10447 
L 173.155265 104.048117 
L 169.275793 103.58066 
L 164.817868 103.298314 
L 160.092908 103.293339 
L 155.024663 103.624712 
L 149.391645 104.407878 
L 144.425282 105.471624 
L 139.805906 106.789332 
L 136.531746 107.924843 
L 133.018401 109.339973 
L 130.458047 110.50669 
L 126.88611 112.338087 
L 123.261641 114.458537 
L 120.636054 116.174925 
L 118.918559 117.386671 
L 114.215088 121.107159 
L 110.88895 124.146086 
L 108.402688 126.679593 
L 106.089392 129.272561 
L 103.827406 132.066197 
L 100.865914 136.197832 
L 98.926466 139.271372 
L 96.709429 143.258733 
L 95.025427 146.741286 
L 93.50182 150.369151 
L 92.083177 154.349326 
L 90.697497 159.170896 
L 89.689234 163.816154 
L 89.065577 167.83186 
L 88.633872 172.308099 
L 88.4745 177.011257 
L 88.551125 180.529083 
L 88.816931 184.268918 
L 89.19712 187.471848 
L 89.972652 191.96715 
L 90.564593 194.613567 
L 91.945853 199.545633 
L 93.588278 204.174597 
L 94.823404 207.129941 
L 96.883047 211.398006 
L 99.145423 215.415451 
L 102.085913 219.900047 
L 104.886333 223.598807 
L 107.294855 226.431767 
L 109.810232 229.107035 
L 112.502896 231.697538 
L 115.675727 234.438017 
L 119.481036 237.340797 
L 122.637372 239.470218 
L 126.552088 241.800449 
L 129.937163 243.563897 
L 134.158155 245.464664 
L 135.905431 246.160654 
L 141.488441 248.050859 
L 146.610601 249.363019 
L 149.485503 249.931351 
L 154.334142 250.625504 
L 159.185167 250.995539 
L 160.748951 251.046576 
L 165.838884 250.983424 
L 170.836695 250.578806 
L 176.137871 249.772191 
L 177.633374 249.472765 
L 182.658868 248.227163 
L 186.841632 246.897933 
L 191.866567 244.926245 
L 194.857013 243.544843 
L 199.57943 241.018258 
L 201.582482 239.808444 
L 205.39169 237.256854 
L 208.525657 234.885165 
L 211.159094 232.677547 
L 215.256328 228.790054 
L 218.205865 225.585397 
L 220.939014 222.241776 
L 223.52796 218.662171 
L 225.656791 215.337641 
L 227.774471 211.584236 
L 229.829446 207.35961 
L 231.641387 202.933719 
L 233.089005 198.645881 
L 234.205276 194.553118 
L 235.050076 190.592675 
L 235.562969 187.437121 
L 236.072283 182.709699 
L 236.264367 178.72239 
L 236.280857 177.161269 
L 236.280857 177.161269 
" clip-path="url(#p97b266cff1)" style="fill: none; stroke-dasharray: 3.7,1.6; stroke-dashoffset: 0; stroke: #808080"/>
   </g>
   <g id="line2d_85">
    <path d="M 273.232484 177.161269 
L 273.177687 173.676131 
L 272.903015 168.62089 
L 272.467139 164.157474 
L 271.683251 158.692915 
L 270.840071 154.254987 
L 270.022752 150.678698 
L 268.569566 145.348196 
L 267.446469 141.815292 
L 265.750714 137.126228 
L 263.442941 131.613469 
L 260.987628 126.516747 
L 259.084726 122.971445 
L 256.37453 118.395783 
L 254.098439 114.902993 
L 250.608531 110.048618 
L 246.526748 104.996693 
L 242.697775 100.757901 
L 238.497254 96.572166 
L 234.757236 93.19703 
L 231.45614 90.460863 
L 227.65877 87.566772 
L 225.096475 85.754772 
L 219.007091 81.862236 
L 212.450521 78.259764 
L 207.188482 75.767039 
L 200.493299 73.065167 
L 192.65054 70.520029 
L 190.457186 69.921623 
L 186.539336 68.97155 
L 182.036963 68.063541 
L 175.483872 67.083885 
L 168.911421 66.499108 
L 163.775055 66.315196 
L 158.889106 66.361291 
L 153.9051 66.630633 
L 147.796509 67.26952 
L 145.713751 67.56601 
L 137.875063 69.048225 
L 131.968244 70.558851 
L 125.522698 72.612138 
L 119.495268 74.936467 
L 115.186417 76.852761 
L 110.319365 79.290208 
L 104.582814 82.564403 
L 101.554572 84.482449 
L 96.334059 88.127258 
L 91.884556 91.606987 
L 88.781189 94.261494 
L 85.283215 97.504128 
L 82.232968 100.573788 
L 78.194987 105.035739 
L 75.494843 108.312225 
L 72.593724 112.140811 
L 69.233466 117.053245 
L 66.952699 120.744139 
L 64.006562 126.054096 
L 62.020264 130.074016 
L 59.390302 136.143948 
L 57.82187 140.325098 
L 56.065002 145.753694 
L 54.912409 149.95765 
L 53.923191 154.216873 
L 53.091553 158.577291 
L 52.402145 163.22558 
L 51.950289 167.434334 
L 51.587086 173.384211 
L 51.523569 177.594968 
L 51.712607 183.646913 
L 52.141764 188.860186 
L 52.789202 193.870167 
L 53.878941 199.8955 
L 54.868642 204.191402 
L 56.226293 209.109733 
L 58.019681 214.554169 
L 60.25621 220.289287 
L 62.346499 224.937655 
L 65.191612 230.48751 
L 67.576959 234.621193 
L 70.475554 239.151739 
L 73.103765 242.880267 
L 75.516412 246.037523 
L 78.894989 250.095884 
L 82.951831 254.494002 
L 87.235443 258.662562 
L 90.99156 261.971868 
L 95.122334 265.283535 
L 99.845064 268.695341 
L 103.943354 271.364472 
L 109.516074 274.600807 
L 115.572782 277.65064 
L 119.857993 279.537475 
L 125.804678 281.809375 
L 129.904409 283.153233 
L 133.454416 284.176474 
L 137.823884 285.262702 
L 143.353305 286.371529 
L 149.818865 287.302465 
L 153.108963 287.627993 
L 158.857658 287.960253 
L 164.145435 288.002054 
L 169.506881 287.786665 
L 173.024759 287.503658 
L 177.350621 287.000304 
L 184.260527 285.834828 
L 192.332507 283.892279 
L 197.044476 282.456154 
L 203.092029 280.26869 
L 209.235675 277.625819 
L 214.750417 274.864356 
L 219.668554 272.064123 
L 224.743041 268.809275 
L 229.263409 265.564288 
L 232.685497 262.867773 
L 236.496664 259.594088 
L 240.761278 255.550071 
L 244.364593 251.773186 
L 247.722363 247.907836 
L 250.806992 244.012207 
L 254.544103 238.757868 
L 256.643693 235.494013 
L 258.550454 232.293724 
L 261.744574 226.304019 
L 263.320126 222.980607 
L 265.909744 216.783238 
L 267.559519 212.169401 
L 268.901396 207.844916 
L 270.164227 203.062009 
L 271.378015 197.353218 
L 272.262929 191.790684 
L 272.894284 185.8139 
L 273.186173 180.365241 
L 273.232484 177.161269 
L 273.232484 177.161269 
" clip-path="url(#p97b266cff1)" style="fill: none; stroke-dasharray: 3.7,1.6; stroke-dashoffset: 0; stroke: #808080"/>
   </g>
   <g id="line2d_86">
    <path d="M 310.184112 177.161269 
L 310.069461 171.340698 
L 309.703186 165.247559 
L 308.976889 158.308859 
L 307.896765 151.258811 
L 306.591291 144.77028 
L 305.221973 139.184304 
L 303.342128 132.711671 
L 302.017592 128.710909 
L 299.652439 122.36726 
L 297.96252 118.30981 
L 295.59494 113.130768 
L 293.172343 108.317243 
L 290.096373 102.76584 
L 287.818776 98.986618 
L 283.455455 92.385579 
L 280.471802 88.276377 
L 276.211251 82.881554 
L 272.509184 78.582373 
L 268.33057 74.10433 
L 263.886133 69.723928 
L 259.84426 66.044148 
L 255.950424 62.745837 
L 250.173602 58.255312 
L 244.672682 54.383893 
L 240.345603 51.591548 
L 234.085813 47.914619 
L 230.991975 46.245907 
L 224.025159 42.824592 
L 217.377835 39.968928 
L 212.627837 38.15883 
L 208.956124 36.885806 
L 204.780455 35.567618 
L 199.19057 34.012502 
L 190.426999 32.040646 
L 182.249225 30.696657 
L 175.753632 29.961249 
L 172.424898 29.696643 
L 167.988876 29.461311 
L 158.825489 29.397449 
L 149.965477 29.87684 
L 144.824665 30.400721 
L 138.495086 31.296985 
L 133.962246 32.111858 
L 128.279685 33.341604 
L 123.825689 34.470996 
L 118.136873 36.131053 
L 114.50408 37.32247 
L 107.431082 39.947407 
L 103.79425 41.460293 
L 98.815033 43.720032 
L 95.294558 45.454666 
L 87.710733 49.600998 
L 82.891125 52.547209 
L 77.534929 56.130344 
L 73.21003 59.280363 
L 69.460636 62.212579 
L 63.51698 67.282512 
L 58.558683 71.954824 
L 53.754616 76.9225 
L 50.745582 80.28477 
L 46.981048 84.801109 
L 42.945855 90.08187 
L 38.659835 96.286811 
L 35.237403 101.781341 
L 32.647762 106.330961 
L 29.4433 112.545209 
L 26.356993 119.323931 
L 23.717765 125.973247 
L 22.052668 130.732003 
L 20.644715 135.226169 
L 19.064386 140.993797 
L 18.056551 145.252053 
L 17.002548 150.461878 
L 16.078462 156.105976 
L 15.486933 160.732777 
L 14.879104 167.624135 
L 14.639676 172.659158 
L 14.578096 178.600017 
L 14.69734 183.268978 
L 15.14975 190.227391 
L 15.927968 197.142978 
L 16.77556 202.593714 
L 18.035532 208.975273 
L 19.151565 213.67245 
L 20.417306 218.319964 
L 21.855042 222.988926 
L 23.608563 228.052504 
L 25.700136 233.428794 
L 28.308404 239.388385 
L 30.991921 244.870697 
L 33.721571 249.923826 
L 36.106575 253.988293 
L 40.105539 260.205272 
L 44.847587 266.790837 
L 48.727143 271.66173 
L 54.106535 277.780055 
L 58.850674 282.655056 
L 63.004487 286.576752 
L 68.264814 291.132964 
L 71.72503 293.904043 
L 76.885786 297.734539 
L 83.123692 301.92337 
L 88.610754 305.244118 
L 96.065996 309.257957 
L 100.433973 311.361682 
L 104.217463 313.044168 
L 109.717756 315.268853 
L 118.564506 318.324921 
L 124.082532 319.920688 
L 132.739755 321.965834 
L 142.094282 323.569435 
L 145.487762 323.999607 
L 152.356062 324.627648 
L 160.745685 324.958769 
L 167.898484 324.864634 
L 172.313526 324.633441 
L 180.144524 323.896066 
L 187.263381 322.857742 
L 193.666543 321.618067 
L 200.562079 319.950309 
L 205.660228 318.488472 
L 211.839026 316.446343 
L 219.085959 313.656421 
L 226.390245 310.387189 
L 229.593185 308.800282 
L 235.898554 305.385424 
L 240.368881 302.716534 
L 246.311297 298.824324 
L 249.325839 296.688539 
L 254.894763 292.43199 
L 260.110638 288.044171 
L 264.830251 283.698676 
L 269.098065 279.423222 
L 273.674575 274.422505 
L 277.852881 269.422984 
L 282.371405 263.464523 
L 285.930286 258.287705 
L 288.959213 253.475488 
L 291.423827 249.229543 
L 293.717977 244.958542 
L 296.965928 238.257477 
L 299.276194 232.888639 
L 301.715745 226.472994 
L 303.843789 219.987454 
L 305.747811 213.102155 
L 306.943355 207.942875 
L 308.006875 202.437325 
L 308.797691 197.358342 
L 309.42575 192.114743 
L 309.924048 185.925433 
L 310.154455 180.122009 
L 310.184112 177.161269 
L 310.184112 177.161269 
" clip-path="url(#p97b266cff1)" style="fill: none; stroke-dasharray: 3.7,1.6; stroke-dashoffset: 0; stroke: #808080"/>
   </g>
   <g id="line2d_87">
    <path d="M 337.436372 118.101458 
L 336.137147 114.366449 
L 333.522972 107.556445 
L 330.694866 100.971587 
L 327.472144 94.219354 
L 323.739936 87.17368 
L 319.679837 80.251126 
L 315.731834 74.117353 
L 311.686886 68.338906 
L 308.133681 63.623898 
L 304.978496 59.68551 
L 300.328952 54.258893 
L 295.490375 49.03415 
L 290.415616 43.962786 
L 286.419957 40.234051 
L 282.315761 36.625128 
L 277.707197 32.819129 
L 273.261487 29.376517 
L 266.19029 24.326408 
L 260.36543 20.528085 
L 255.409774 17.534881 
L 247.252122 13.051901 
L 241.626436 10.262524 
L 235.377372 7.43619 
L 231.150239 5.679803 
L 222.694936 2.526255 
L 214.329558 -0.142321 
L 211.247882 -1 
M 113.586253 -1 
L 108.454627 0.447145 
L 100.168572 3.191142 
L 94.816869 5.198726 
L 87.010457 8.474097 
L 79.626908 11.970799 
L 76.395848 13.629295 
L 69.025767 17.721614 
L 62.96673 21.42737 
L 59.114525 23.954528 
L 53.586586 27.829144 
L 48.26367 31.856144 
L 42.27571 36.765029 
L 36.41724 41.996349 
L 30.252141 48.016269 
L 26.354599 52.128028 
L 21.784595 57.289775 
L 16.832613 63.353428 
L 14.146911 66.874231 
L 10.136192 72.480221 
L 6.066793 78.660001 
L 2.544752 84.484256 
L -1 90.889208 
M -1 263.41006 
L 2.465422 269.701332 
L 6.321661 276.065828 
L 10.031877 281.690446 
L 13.155976 286.1038 
L 16.407885 290.423842 
L 21.207757 296.352895 
L 25.351252 301.094106 
L 28.580594 304.573707 
L 32.975225 309.034669 
L 36.769061 312.653199 
L 40.334655 315.873517 
L 46.536772 321.093443 
L 50.900411 324.498992 
L 57.374357 329.180634 
L 59.624136 330.710265 
L 64.199381 333.675184 
L 68.438286 336.255498 
L 73.407059 339.080038 
M 251.346402 339.080038 
L 255.191463 336.914692 
L 262.511438 332.431305 
L 267.27404 329.254353 
L 273.416802 324.82936 
L 279.395898 320.137796 
L 284.653785 315.667963 
L 290.081717 310.679913 
L 294.221078 306.594135 
L 297.834551 302.807535 
L 302.524992 297.553454 
L 307.757403 291.180051 
L 313.038492 284.10455 
L 316.814898 278.574732 
L 320.449623 272.810656 
L 323.863992 266.926044 
L 326.256547 262.479851 
L 329.401751 256.145463 
L 332.501759 249.226102 
L 335.250643 242.35698 
L 337.436372 236.216079 
L 337.436372 236.216079 
" clip-path="url(#p97b266cff1)" style="fill: none; stroke-dasharray: 3.7,1.6; stroke-dashoffset: 0; stroke: #808080"/>
   </g>
   <g id="line2d_88">
    <path d="M 162.377603 177.161269 
L 337.436372 104.649553 
" clip-path="url(#p97b266cff1)" style="fill: none; stroke: #808080; stroke-linecap: square"/>
   </g>
   <g id="line2d_89">
    <path d="M 162.377603 177.161269 
L 319.15008 20.388792 
" clip-path="url(#p97b266cff1)" style="fill: none; stroke: #808080; stroke-linecap: square"/>
   </g>
   <g id="line2d_90">
    <path d="M 162.377603 177.161269 
L 236.174417 -1 
" clip-path="url(#p97b266cff1)" style="fill: none; stroke: #808080; stroke-linecap: square"/>
   </g>
   <g id="line2d_91">
    <path d="M 162.377603 177.161269 
L 162.377603 -1 
" clip-path="url(#p97b266cff1)" style="fill: none; stroke: #808080; stroke-linecap: square"/>
   </g>
   <g id="line2d_92">
    <path d="M 162.377603 177.161269 
L 88.580789 -1 
" clip-path="url(#p97b266cff1)" style="fill: none; stroke: #808080; stroke-linecap: square"/>
   </g>
   <g id="line2d_93">
    <path d="M 162.377603 177.161269 
L 5.605126 20.388792 
" clip-path="url(#p97b266cff1)" style="fill: none; stroke: #808080; stroke-linecap: square"/>
   </g>
   <g id="line2d_94">
    <path d="M 162.377603 177.161269 
L -1 109.48805 
" clip-path="url(#p97b266cff1)" style="fill: none; stroke: #808080; stroke-linecap: square"/>
   </g>
   <g id="line2d_95">
    <path d="M 162.377603 177.161269 
L -1 177.161269 
" clip-path="url(#p97b266cff1)" style="fill: none; stroke: #808080; stroke-linecap: square"/>
   </g>
   <g id="line2d_96">
    <path d="M 162.377603 177.161269 
L -1 244.834488 
" clip-path="url(#p97b266cff1)" style="fill: none; stroke: #808080; stroke-linecap: square"/>
   </g>
   <g id="line2d_97">
    <path d="M 162.377603 177.161269 
L 5.605126 333.933746 
" clip-path="url(#p97b266cff1)" style="fill: none; stroke: #808080; stroke-linecap: square"/>
   </g>
   <g id="line2d_98">
    <path d="M 162.377603 177.161269 
L 95.308652 339.080038 
" clip-path="url(#p97b266cff1)" style="fill: none; stroke: #808080; stroke-linecap: square"/>
   </g>
   <g id="line2d_99">
    <path d="M 162.377603 177.161269 
L 162.377603 339.080038 
" clip-path="url(#p97b266cff1)" style="fill: none; stroke: #808080; stroke-linecap: square"/>
   </g>
   <g id="line2d_100">
    <path d="M 162.377603 177.161269 
L 229.446553 339.080038 
" clip-path="url(#p97b266cff1)" style="fill: none; stroke: #808080; stroke-linecap: square"/>
   </g>
   <g id="line2d_101">
    <path d="M 162.377603 177.161269 
L 319.15008 333.933746 
" clip-path="url(#p97b266cff1)" style="fill: none; stroke: #808080; stroke-linecap: square"/>
   </g>
   <g id="line2d_102">
    <path d="M 162.377603 177.161269 
L 337.436372 249.672986 
" clip-path="url(#p97b266cff1)" style="fill: none; stroke: #808080; stroke-linecap: square"/>
   </g>
   <g id="patch_3">
    <path d="M 162.377603 330.880038 
L 162.377603 23.4425 
" style="fill: none; stroke: #000000; stroke-width: 0.8; stroke-linejoin: miter; stroke-linecap: square"/>
   </g>
   <g id="patch_4">
    <path d="M 8.658833 177.161269 
L 316.096372 177.161269 
" style="fill: none; stroke: #000000; stroke-width: 0.8; stroke-linejoin: miter; stroke-linecap: square"/>
   </g>
  </g>
 </g>
 <defs>
  <clipPath id="p97b266cff1">
   <rect x="8.658833" y="23.4425" width="307.437538" height="307.437538"/>
  </clipPath>
 </defs>
</svg>
