<?xml version="1.0" encoding="utf-8" standalone="no"?>
<!DOCTYPE svg PUBLIC "-//W3C//DTD SVG 1.1//EN"
  "http://www.w3.org/Graphics/SVG/1.1/DTD/svg11.dtd">
<svg xmlns:xlink="http://www.w3.org/1999/xlink" width="452.901797pt" height="224.068151pt" viewBox="0 0 452.901797 224.068151" xmlns="http://www.w3.org/2000/svg" version="1.1">
 <metadata>
  <rdf:RDF xmlns:dc="http://purl.org/dc/elements/1.1/" xmlns:cc="http://creativecommons.org/ns#" xmlns:rdf="http://www.w3.org/1999/02/22-rdf-syntax-ns#">
   <cc:Work>
    <dc:type rdf:resource="http://purl.org/dc/dcmitype/StillImage"/>
    <dc:date>2025-08-04T00:37:36.452333</dc:date>
    <dc:format>image/svg+xml</dc:format>
    <dc:creator>
     <cc:Agent>
      <dc:title>Matplotlib v3.10.5, https://matplotlib.org/</dc:title>
     </cc:Agent>
    </dc:creator>
   </cc:Work>
  </rdf:RDF>
 </metadata>
 <defs>
  <style type="text/css">*{stroke-linejoin: round; stroke-linecap: butt}</style>
 </defs>
 <g id="figure_1">
  <g id="patch_1">
   <path d="M 0 224.068151 
L 452.901797 224.068151 
L 452.901797 0 
L 0 0 
z
" style="fill: #ffffff"/>
  </g>
  <g id="axes_1">
   <g id="patch_2">
    <path d="M 13.406631 216.868151 
L 445.701797 216.868151 
L 445.701797 7.2 
L 13.406631 7.2 
z
" style="fill: #ffffff"/>
   </g>
   <g id="PathCollection_1">
    <path d="M 48.965994 121.645186 
C 49.903629 121.645186 50.802987 121.27266 51.465994 120.609652 
C 52.129002 119.946644 52.501528 119.047287 52.501528 118.109652 
C 52.501528 117.172018 52.129002 116.27266 51.465994 115.609652 
C 50.802987 114.946644 49.903629 114.574118 48.965994 114.574118 
C 48.02836 114.574118 47.129002 114.946644 46.465994 115.609652 
C 45.802987 116.27266 45.43046 117.172018 45.43046 118.109652 
C 45.43046 119.047287 45.802987 119.946644 46.465994 120.609652 
C 47.129002 121.27266 48.02836 121.645186 48.965994 121.645186 
z
" clip-path="url(#pfa2e5b697d)"/>
   </g>
   <g id="PathCollection_2">
    <path d="M 39.604108 165.220562 
C 40.541742 165.220562 41.4411 164.848035 42.104108 164.185028 
C 42.767116 163.52202 43.139642 162.622662 43.139642 161.685028 
C 43.139642 160.747393 42.767116 159.848035 42.104108 159.185028 
C 41.4411 158.52202 40.541742 158.149494 39.604108 158.149494 
C 38.666473 158.149494 37.767116 158.52202 37.104108 159.185028 
C 36.4411 159.848035 36.068574 160.747393 36.068574 161.685028 
C 36.068574 162.622662 36.4411 163.52202 37.104108 164.185028 
C 37.767116 164.848035 38.666473 165.220562 39.604108 165.220562 
z
" clip-path="url(#pfa2e5b697d)"/>
   </g>
   <g id="matplotlib.axis_1"/>
   <g id="matplotlib.axis_2"/>
   <g id="line2d_1">
    <path d="M 437.388428 71.363971 
L 434.805835 67.975037 
L 430.152176 62.463981 
L 426.33547 58.412464 
L 422.57148 54.757881 
L 419.209178 51.739836 
L 413.978972 47.443838 
L 408.893251 43.669079 
L 403.164501 39.825746 
L 397.424907 36.35364 
L 391.302048 33.016582 
L 386.475911 30.625295 
L 381.035456 28.158719 
L 375.486278 25.8724 
L 367.917391 23.094953 
L 361.360147 20.979953 
L 356.400323 19.546195 
L 347.49801 17.305171 
L 341.096919 15.940092 
L 333.492876 14.56784 
L 325.6866 13.424052 
L 319.542258 12.702398 
L 313.676306 12.153572 
L 306.077851 11.637766 
L 296.348008 11.284655 
L 289.563963 11.234236 
L 278.496516 11.482895 
L 272.589559 11.778256 
L 262.843479 12.505479 
L 255.110855 13.29021 
L 249.363835 13.990262 
L 240.403048 15.277667 
L 231.188633 16.847577 
L 220.036136 19.078598 
L 210.73168 21.216609 
L 200.803788 23.776754 
L 192.368541 26.180721 
L 186.102551 28.104592 
L 179.188256 30.366668 
L 170.276164 33.502889 
L 161.709457 36.759411 
L 153.022844 40.314113 
L 146.368194 43.217603 
L 137.801697 47.198686 
L 131.018137 50.557561 
L 123.920952 54.281203 
L 116.482188 58.432519 
L 109.283173 62.715259 
L 102.936526 66.730329 
L 95.250717 71.930955 
L 90.242329 75.545457 
L 83.116451 81.044265 
L 76.88449 86.256983 
L 72.943917 89.785146 
L 68.247259 94.271397 
L 63.377905 99.314685 
L 59.601961 103.569592 
L 56.176701 107.760889 
L 53.327083 111.554672 
L 49.946828 116.537391 
L 47.118867 121.271723 
L 45.069622 125.179856 
L 43.804886 127.883878 
L 42.501432 131.009458 
L 40.874813 135.686127 
L 39.905549 139.236726 
L 38.988455 143.927671 
L 38.57219 147.566151 
L 38.430371 150.558155 
L 38.469046 153.398996 
L 38.702359 156.423062 
L 39.07539 159.071061 
L 39.687404 162.035311 
L 40.507828 164.981098 
L 41.720803 168.35583 
L 43.061295 171.364121 
L 44.14949 173.464065 
L 46.475781 177.293055 
L 49.035032 180.818096 
L 51.57557 183.841932 
L 54.878901 187.274307 
L 57.938596 190.079449 
L 61.894536 193.303993 
L 66.439388 196.576541 
L 71.081594 199.547328 
L 74.918265 201.773015 
L 78.738841 203.815832 
L 84.837563 206.773681 
L 90.557264 209.262085 
L 95.296195 211.145689 
L 99.888612 212.836071 
L 99.888612 212.836071 
" clip-path="url(#pfa2e5b697d)" style="fill: none; stroke: #000000; stroke-width: 2; stroke-linecap: square"/>
   </g>
   <g id="patch_3">
    <path d="M 194.785349 25.470281 
Q 193.815137 25.75479 194.990638 25.410081 
" clip-path="url(#pfa2e5b697d)" style="fill: none; stroke: #000000; stroke-width: 2; stroke-linecap: round"/>
    <path d="M 205.993532 27.394095 
L 194.990638 25.410081 
L 203.179585 17.798174 
z
" clip-path="url(#pfa2e5b697d)" style="stroke: #000000; stroke-width: 2; stroke-linecap: round"/>
   </g>
   <g id="text_1">
    <!-- $Q_0$ -->
    <g transform="translate(25.50394 106.848044) scale(0.24 -0.24)">
     <defs>
      <path id="Cmmi10-51" d="M 1947 -141 
Q 1466 -141 1094 79 
Q 722 300 520 692 
Q 319 1084 319 1563 
Q 319 2259 714 2950 
Q 1109 3641 1756 4077 
Q 2403 4513 3109 4513 
Q 3475 4513 3778 4381 
Q 4081 4250 4290 4017 
Q 4500 3784 4614 3471 
Q 4728 3159 4728 2791 
Q 4728 2366 4581 1936 
Q 4434 1506 4171 1136 
Q 3909 766 3559 484 
Q 3209 203 2809 38 
Q 2850 -256 2934 -425 
Q 3019 -594 3256 -594 
Q 3506 -594 3726 -412 
Q 3947 -231 4006 13 
Q 4019 72 4078 72 
Q 4147 72 4147 -13 
Q 4100 -219 4008 -430 
Q 3916 -641 3786 -823 
Q 3656 -1006 3478 -1123 
Q 3300 -1241 3084 -1241 
Q 2547 -1241 2547 -550 
Q 2547 -509 2562 -332 
Q 2578 -156 2578 -44 
Q 2269 -141 1947 -141 
z
M 1709 300 
Q 1709 44 1991 44 
Q 2275 44 2591 184 
L 2591 244 
Q 2591 503 2509 648 
Q 2428 794 2194 794 
Q 2078 794 1964 723 
Q 1850 653 1779 539 
Q 1709 425 1709 300 
z
M 1544 288 
Q 1544 456 1637 612 
Q 1731 769 1881 864 
Q 2031 959 2203 959 
Q 2481 959 2607 771 
Q 2734 584 2778 281 
Q 3188 525 3500 978 
Q 3813 1431 3977 1973 
Q 4141 2516 4141 3003 
Q 4141 3356 4023 3656 
Q 3906 3956 3664 4140 
Q 3422 4325 3066 4325 
Q 2722 4325 2403 4156 
Q 2084 3988 1813 3706 
Q 1550 3434 1342 3032 
Q 1134 2631 1021 2193 
Q 909 1756 909 1356 
Q 909 947 1068 612 
Q 1228 278 1569 128 
Q 1544 194 1544 288 
z
" transform="scale(0.015625)"/>
      <path id="Cmr10-30" d="M 1600 -141 
Q 816 -141 533 504 
Q 250 1150 250 2041 
Q 250 2597 351 3087 
Q 453 3578 754 3920 
Q 1056 4263 1600 4263 
Q 2022 4263 2290 4056 
Q 2559 3850 2700 3523 
Q 2841 3197 2892 2823 
Q 2944 2450 2944 2041 
Q 2944 1491 2842 1011 
Q 2741 531 2444 195 
Q 2147 -141 1600 -141 
z
M 1600 25 
Q 1956 25 2131 390 
Q 2306 756 2347 1200 
Q 2388 1644 2388 2144 
Q 2388 2625 2347 3031 
Q 2306 3438 2132 3767 
Q 1959 4097 1600 4097 
Q 1238 4097 1063 3765 
Q 888 3434 847 3029 
Q 806 2625 806 2144 
Q 806 1788 823 1472 
Q 841 1156 916 820 
Q 991 484 1158 254 
Q 1325 25 1600 25 
z
" transform="scale(0.015625)"/>
     </defs>
     <use xlink:href="#Cmmi10-51" transform="translate(0 0.484375)"/>
     <use xlink:href="#Cmr10-30" transform="translate(79.003906 -16.521875) scale(0.7)"/>
    </g>
   </g>
   <g id="text_2">
    <!-- $Q_1$ -->
    <g transform="translate(7.2 159.365474) scale(0.24 -0.24)">
     <defs>
      <path id="Cmr10-31" d="M 594 0 
L 594 225 
Q 1394 225 1394 428 
L 1394 3788 
Q 1063 3628 556 3628 
L 556 3853 
Q 1341 3853 1741 4263 
L 1831 4263 
Q 1853 4263 1873 4245 
Q 1894 4228 1894 4206 
L 1894 428 
Q 1894 225 2694 225 
L 2694 0 
L 594 0 
z
" transform="scale(0.015625)"/>
     </defs>
     <use xlink:href="#Cmmi10-51" transform="translate(0 0.484375)"/>
     <use xlink:href="#Cmr10-31" transform="translate(79.003906 -16.521875) scale(0.7)"/>
    </g>
   </g>
  </g>
 </g>
 <defs>
  <clipPath id="pfa2e5b697d">
   <rect x="13.406631" y="7.2" width="432.295165" height="209.668151"/>
  </clipPath>
 </defs>
</svg>
