<?xml version="1.0" encoding="utf-8" standalone="no"?>
<!DOCTYPE svg PUBLIC "-//W3C//DTD SVG 1.1//EN"
  "http://www.w3.org/Graphics/SVG/1.1/DTD/svg11.dtd">
<svg xmlns:xlink="http://www.w3.org/1999/xlink" width="453.6pt" height="329.76725pt" viewBox="0 0 453.6 329.76725" xmlns="http://www.w3.org/2000/svg" version="1.1">
 <metadata>
  <rdf:RDF xmlns:dc="http://purl.org/dc/elements/1.1/" xmlns:cc="http://creativecommons.org/ns#" xmlns:rdf="http://www.w3.org/1999/02/22-rdf-syntax-ns#">
   <cc:Work>
    <dc:type rdf:resource="http://purl.org/dc/dcmitype/StillImage"/>
    <dc:date>2025-06-18T14:12:20.483543</dc:date>
    <dc:format>image/svg+xml</dc:format>
    <dc:creator>
     <cc:Agent>
      <dc:title>Matplotlib v3.10.3, https://matplotlib.org/</dc:title>
     </cc:Agent>
    </dc:creator>
   </cc:Work>
  </rdf:RDF>
 </metadata>
 <defs>
  <style type="text/css">*{stroke-linejoin: round; stroke-linecap: butt}</style>
 </defs>
 <g id="figure_1">
  <g id="patch_1">
   <path d="M 0 329.76725 
L 453.6 329.76725 
L 453.6 0 
L 0 0 
z
" style="fill: #ffffff"/>
  </g>
  <g id="axes_1">
   <g id="patch_2">
    <path d="M 7.2 322.56725 
L 446.4 322.56725 
L 446.4 7.2 
L 7.2 7.2 
z
" style="fill: #ffffff"/>
   </g>
   <g id="PathCollection_1">
    <path d="M 230.712292 134.536163 
C 231.438581 134.536163 232.13522 134.247606 232.648784 133.734042 
C 233.162347 133.220479 233.450905 132.523839 233.450905 131.797551 
C 233.450905 131.071262 233.162347 130.374622 232.648784 129.861059 
C 232.13522 129.347495 231.438581 129.058938 230.712292 129.058938 
C 229.986003 129.058938 229.289364 129.347495 228.7758 129.861059 
C 228.262237 130.374622 227.973679 131.071262 227.973679 131.797551 
C 227.973679 132.523839 228.262237 133.220479 228.7758 133.734042 
C 229.289364 134.247606 229.986003 134.536163 230.712292 134.536163 
z
" clip-path="url(#p6eaf522f91)"/>
   </g>
   <g id="matplotlib.axis_1"/>
   <g id="matplotlib.axis_2"/>
   <g id="line2d_1">
    <path d="M 15.646154 316.502496 
L 15.735904 307.154051 
L 15.958532 300.658564 
L 16.457671 293.206441 
L 17.188629 286.558257 
L 18.099482 280.736351 
L 19.406633 274.487841 
L 20.923322 268.836321 
L 22.715529 263.404762 
L 24.35054 259.195746 
L 26.56728 254.251793 
L 28.835105 249.837413 
L 31.600171 245.085189 
L 33.79195 241.689946 
L 36.289443 238.133967 
L 39.706818 233.697503 
L 42.513218 230.352378 
L 46.156569 226.332378 
L 50.766488 221.66853 
L 55.918041 216.901889 
L 61.033287 212.541032 
L 67.018176 207.818967 
L 71.803221 204.288164 
L 76.978172 200.676055 
L 83.827013 196.176212 
L 91.383328 191.524113 
L 99.245813 186.974895 
L 106.90468 182.784897 
L 115.936058 178.103815 
L 126.297534 173.026674 
L 136.788821 168.155384 
L 147.852593 163.266353 
L 160.820941 157.809035 
L 173.316547 152.785818 
L 186.433878 147.721364 
L 203.51269 141.393161 
L 220.486786 135.345756 
L 244.340612 127.158944 
L 264.829515 120.335807 
L 306.710755 106.682994 
L 340.113881 95.717143 
L 360.861022 88.650008 
L 375.312223 83.491856 
L 384.94075 79.88735 
L 395.29463 75.793325 
L 404.312496 71.962885 
L 410.98663 68.896257 
L 417.391299 65.678901 
L 421.605664 63.34722 
L 425.994893 60.643158 
L 429.238924 58.365176 
L 431.712721 56.367871 
L 433.75928 54.42802 
L 435.139234 52.861647 
L 436.275416 51.273008 
L 437.142255 49.661458 
L 437.553605 48.583925 
L 437.88773 47.110467 
L 437.950048 45.708927 
L 437.789768 44.47661 
L 437.412086 43.224534 
L 436.843711 42.033213 
L 436.032674 40.800672 
L 435.063877 39.650945 
L 433.166143 37.890721 
L 431.779569 36.83665 
L 429.213376 35.185681 
L 426.395449 33.660347 
L 422.570509 31.89514 
L 418.183693 30.157702 
L 413.125577 28.413739 
L 406.87703 26.52817 
L 399.714864 24.628486 
L 391.987594 22.808175 
L 382.854123 20.885784 
L 373.524361 19.118425 
L 361.975683 17.143061 
L 347.739086 14.95844 
L 335.577324 13.264755 
L 335.577324 13.264755 
" clip-path="url(#p6eaf522f91)" style="fill: none; stroke: #000000; stroke-width: 2; stroke-linecap: square"/>
   </g>
   <g id="patch_3">
    <path d="M 230.712292 131.797551 
Q 307.328905 105.445398 381.831028 79.820521 
" clip-path="url(#p6eaf522f91)" style="fill: none; stroke: #800080; stroke-width: 2; stroke-linecap: round"/>
    <path d="M 370.748502 78.344851 
L 381.831028 79.820521 
L 374.000976 87.80114 
z
" clip-path="url(#p6eaf522f91)" style="fill: #800080; stroke: #800080; stroke-width: 2; stroke-linecap: round"/>
   </g>
   <g id="patch_4">
    <path d="M 230.712292 131.797551 
Q 257.064444 208.414164 282.689322 282.916287 
" clip-path="url(#p6eaf522f91)" style="fill: none; stroke: #ff0000; stroke-width: 2; stroke-linecap: round"/>
    <path d="M 284.164992 271.83376 
L 282.689322 282.916287 
L 274.708702 275.086235 
z
" clip-path="url(#p6eaf522f91)" style="fill: #ff0000; stroke: #ff0000; stroke-width: 2; stroke-linecap: round"/>
   </g>
   <g id="patch_5">
    <path d="M 230.712292 131.797551 
Q 276.339439 116.104172 319.852096 101.138068 
" clip-path="url(#p6eaf522f91)" style="fill: none; stroke: #0000ff; stroke-width: 2; stroke-linecap: round"/>
    <path d="M 308.769569 99.662398 
L 319.852096 101.138068 
L 312.022043 109.118687 
z
" clip-path="url(#p6eaf522f91)" style="fill: #0000ff; stroke: #0000ff; stroke-width: 2; stroke-linecap: round"/>
   </g>
   <g id="patch_6">
    <path d="M 230.712292 131.797551 
Q 244.371055 171.509226 257.302542 209.106411 
" clip-path="url(#p6eaf522f91)" style="fill: none; stroke: #ffa500; stroke-width: 2; stroke-linecap: round"/>
    <path d="M 258.778212 198.023885 
L 257.302542 209.106411 
L 249.321923 201.276359 
z
" clip-path="url(#p6eaf522f91)" style="fill: #ffa500; stroke: #ffa500; stroke-width: 2; stroke-linecap: round"/>
   </g>
   <g id="patch_7">
    <path d="M 230.712292 131.797551 
Q 289.998202 155.815847 347.211658 178.994538 
" clip-path="url(#p6eaf522f91)" style="fill: none; stroke: #008000; stroke-width: 2; stroke-linecap: round"/>
    <path d="M 339.820782 170.605561 
L 347.211658 178.994538 
L 336.06595 179.873853 
z
" clip-path="url(#p6eaf522f91)" style="fill: #008000; stroke: #008000; stroke-width: 2; stroke-linecap: round"/>
   </g>
  </g>
 </g>
 <defs>
  <clipPath id="p6eaf522f91">
   <rect x="7.2" y="7.2" width="439.2" height="315.36725"/>
  </clipPath>
 </defs>
</svg>
