<?xml version="1.0" encoding="utf-8" standalone="no"?>
<!DOCTYPE svg PUBLIC "-//W3C//DTD SVG 1.1//EN"
  "http://www.w3.org/Graphics/SVG/1.1/DTD/svg11.dtd">
<svg xmlns:xlink="http://www.w3.org/1999/xlink" width="325.6868pt" height="338.096672pt" viewBox="0 0 325.6868 338.096672" xmlns="http://www.w3.org/2000/svg" version="1.1">
 <metadata>
  <rdf:RDF xmlns:dc="http://purl.org/dc/elements/1.1/" xmlns:cc="http://creativecommons.org/ns#" xmlns:rdf="http://www.w3.org/1999/02/22-rdf-syntax-ns#">
   <cc:Work>
    <dc:type rdf:resource="http://purl.org/dc/dcmitype/StillImage"/>
    <dc:date>2025-11-26T17:28:33.832809</dc:date>
    <dc:format>image/svg+xml</dc:format>
    <dc:creator>
     <cc:Agent>
      <dc:title>Matplotlib v3.10.5, https://matplotlib.org/</dc:title>
     </cc:Agent>
    </dc:creator>
   </cc:Work>
  </rdf:RDF>
 </metadata>
 <defs>
  <style type="text/css">*{stroke-linejoin: round; stroke-linecap: butt}</style>
 </defs>
 <g id="figure_1">
  <g id="patch_1">
   <path d="M 0 338.096672 
L 325.6868 338.096672 
L 325.6868 0 
L 0 0 
z
" style="fill: #ffffff"/>
  </g>
  <g id="axes_1">
   <g id="patch_2">
    <path d="M 8.908413 319.920038 
L 305.3468 319.920038 
L 305.3468 23.4425 
L 8.908413 23.4425 
z
" style="fill: #ffffff"/>
   </g>
   <g id="patch_3">
    <path d="M 157.108578 314.218547 
L 166.05858 313.937282 
L 174.973262 313.094597 
L 183.817439 311.693817 
L 192.556209 309.74047 
L 201.155083 307.242266 
L 209.580125 304.209064 
L 217.798087 300.652835 
L 225.776534 296.587613 
L 233.483981 292.029442 
L 240.890009 286.99631 
L 247.965389 281.508082 
L 254.6822 275.586417 
L 261.013932 269.254685 
L 266.935597 262.537875 
L 272.423825 255.462494 
L 277.456956 248.056467 
L 282.015127 240.34902 
L 286.080349 232.370572 
L 289.636579 224.152611 
L 292.669781 215.727568 
L 295.167985 207.128694 
L 297.121331 198.389924 
L 298.522111 189.545747 
L 299.364797 180.631066 
L 299.646062 171.681063 
z
" clip-path="url(#p5a70451c30)" style="fill: #add8e6; stroke: #000000; stroke-width: 3; stroke-linejoin: miter"/>
   </g>
   <g id="matplotlib.axis_1">
    <g id="xtick_1">
     <g id="line2d_1">
      <defs>
       <path id="mce75e3ffbd" d="M 0 0 
L 0 3.5 
" style="stroke: #000000; stroke-width: 0.8"/>
      </defs>
      <g>
       <use xlink:href="#mce75e3ffbd" x="14.571094" y="314.218547" style="stroke: #000000; stroke-width: 0.8"/>
      </g>
     </g>
     <g id="text_1">
      <!-- −1 -->
      <g transform="translate(7.2 328.816985) scale(0.1 -0.1)">
       <defs>
        <path id="DejaVuSans-2212" d="M 678 2272 
L 4684 2272 
L 4684 1741 
L 678 1741 
L 678 2272 
z
" transform="scale(0.015625)"/>
        <path id="DejaVuSans-31" d="M 794 531 
L 1825 531 
L 1825 4091 
L 703 3866 
L 703 4441 
L 1819 4666 
L 2450 4666 
L 2450 531 
L 3481 531 
L 3481 0 
L 794 0 
L 794 531 
z
" transform="scale(0.015625)"/>
       </defs>
       <use xlink:href="#DejaVuSans-2212"/>
       <use xlink:href="#DejaVuSans-31" transform="translate(83.789062 0)"/>
      </g>
     </g>
    </g>
    <g id="xtick_2">
     <g id="line2d_2">
      <g>
       <use xlink:href="#mce75e3ffbd" x="299.646062" y="314.218547" style="stroke: #000000; stroke-width: 0.8"/>
      </g>
     </g>
     <g id="text_2">
      <!-- 1 -->
      <g transform="translate(296.464812 328.816985) scale(0.1 -0.1)">
       <use xlink:href="#DejaVuSans-31"/>
      </g>
     </g>
    </g>
    <g id="text_3">
     <!-- $x$ -->
     <g transform="translate(313.3468 314.218547) scale(0.16 -0.16)">
      <defs>
       <path id="Cmmi10-78" d="M 500 184 
Q 613 97 819 97 
Q 1019 97 1172 289 
Q 1325 481 1381 709 
L 1672 1844 
Q 1741 2153 1741 2266 
Q 1741 2425 1652 2544 
Q 1563 2663 1403 2663 
Q 1200 2663 1022 2536 
Q 844 2409 722 2214 
Q 600 2019 550 1819 
Q 538 1778 500 1778 
L 422 1778 
Q 372 1778 372 1838 
L 372 1856 
Q 434 2094 584 2320 
Q 734 2547 951 2687 
Q 1169 2828 1416 2828 
Q 1650 2828 1839 2703 
Q 2028 2578 2106 2363 
Q 2216 2559 2386 2693 
Q 2556 2828 2759 2828 
Q 2897 2828 3040 2779 
Q 3184 2731 3275 2631 
Q 3366 2531 3366 2381 
Q 3366 2219 3261 2101 
Q 3156 1984 2994 1984 
Q 2891 1984 2822 2050 
Q 2753 2116 2753 2216 
Q 2753 2350 2845 2451 
Q 2938 2553 3066 2572 
Q 2950 2663 2747 2663 
Q 2541 2663 2389 2472 
Q 2238 2281 2175 2047 
L 1894 916 
Q 1825 659 1825 494 
Q 1825 331 1917 214 
Q 2009 97 2163 97 
Q 2463 97 2698 361 
Q 2934 625 3009 941 
Q 3022 978 3059 978 
L 3138 978 
Q 3163 978 3178 961 
Q 3194 944 3194 922 
Q 3194 916 3188 903 
Q 3097 522 2806 225 
Q 2516 -72 2150 -72 
Q 1916 -72 1727 54 
Q 1538 181 1459 397 
Q 1359 209 1182 68 
Q 1006 -72 806 -72 
Q 669 -72 523 -23 
Q 378 25 287 125 
Q 197 225 197 378 
Q 197 528 301 651 
Q 406 775 563 775 
Q 669 775 741 711 
Q 813 647 813 544 
Q 813 409 723 309 
Q 634 209 500 184 
z
" transform="scale(0.015625)"/>
      </defs>
      <use xlink:href="#Cmmi10-78" transform="translate(0 0.8125)"/>
     </g>
    </g>
   </g>
   <g id="matplotlib.axis_2">
    <g id="ytick_1">
     <g id="line2d_3">
      <defs>
       <path id="m8594f3f7dd" d="M 0 0 
L -3.5 0 
" style="stroke: #000000; stroke-width: 0.8"/>
      </defs>
      <g>
       <use xlink:href="#m8594f3f7dd" x="157.108578" y="314.218547" style="stroke: #000000; stroke-width: 0.8"/>
      </g>
     </g>
    </g>
    <g id="ytick_2">
     <g id="line2d_4">
      <g>
       <use xlink:href="#m8594f3f7dd" x="157.108578" y="171.681063" style="stroke: #000000; stroke-width: 0.8"/>
      </g>
     </g>
     <g id="text_4">
      <!-- 1 -->
      <g transform="translate(143.746078 175.480282) scale(0.1 -0.1)">
       <use xlink:href="#DejaVuSans-31"/>
      </g>
     </g>
    </g>
    <g id="ytick_3">
     <g id="line2d_5">
      <g>
       <use xlink:href="#m8594f3f7dd" x="157.108578" y="29.143579" style="stroke: #000000; stroke-width: 0.8"/>
      </g>
     </g>
     <g id="text_5">
      <!-- 2 -->
      <g transform="translate(143.746078 32.942798) scale(0.1 -0.1)">
       <defs>
        <path id="DejaVuSans-32" d="M 1228 531 
L 3431 531 
L 3431 0 
L 469 0 
L 469 531 
Q 828 903 1448 1529 
Q 2069 2156 2228 2338 
Q 2531 2678 2651 2914 
Q 2772 3150 2772 3378 
Q 2772 3750 2511 3984 
Q 2250 4219 1831 4219 
Q 1534 4219 1204 4116 
Q 875 4013 500 3803 
L 500 4441 
Q 881 4594 1212 4672 
Q 1544 4750 1819 4750 
Q 2544 4750 2975 4387 
Q 3406 4025 3406 3419 
Q 3406 3131 3298 2873 
Q 3191 2616 2906 2266 
Q 2828 2175 2409 1742 
Q 1991 1309 1228 531 
z
" transform="scale(0.015625)"/>
       </defs>
       <use xlink:href="#DejaVuSans-32"/>
      </g>
     </g>
    </g>
    <g id="text_6">
     <!-- $y$ -->
     <g transform="translate(153.108578 12.0825) scale(0.16 -0.16)">
      <defs>
       <path id="Cmmi10-79" d="M 538 -916 
Q 672 -1147 1006 -1147 
Q 1309 -1147 1531 -934 
Q 1753 -722 1889 -420 
Q 2025 -119 2100 197 
Q 1816 -72 1484 -72 
Q 1231 -72 1053 15 
Q 875 103 776 276 
Q 678 450 678 697 
Q 678 906 734 1126 
Q 791 1347 892 1617 
Q 994 1888 1069 2088 
Q 1153 2322 1153 2472 
Q 1153 2663 1013 2663 
Q 759 2663 595 2402 
Q 431 2141 353 1819 
Q 341 1778 300 1778 
L 225 1778 
Q 172 1778 172 1838 
L 172 1856 
Q 275 2238 487 2533 
Q 700 2828 1025 2828 
Q 1253 2828 1411 2678 
Q 1569 2528 1569 2297 
Q 1569 2178 1516 2047 
Q 1488 1969 1388 1706 
Q 1288 1444 1234 1272 
Q 1181 1100 1147 934 
Q 1113 769 1113 603 
Q 1113 391 1203 244 
Q 1294 97 1491 97 
Q 1888 97 2203 581 
L 2688 2553 
Q 2709 2638 2787 2698 
Q 2866 2759 2956 2759 
Q 3034 2759 3092 2709 
Q 3150 2659 3150 2578 
Q 3150 2541 3144 2528 
L 2509 -19 
Q 2425 -347 2200 -647 
Q 1975 -947 1658 -1130 
Q 1341 -1313 997 -1313 
Q 831 -1313 668 -1248 
Q 506 -1184 406 -1056 
Q 306 -928 306 -756 
Q 306 -581 409 -453 
Q 513 -325 684 -325 
Q 788 -325 858 -389 
Q 928 -453 928 -556 
Q 928 -703 818 -812 
Q 709 -922 563 -922 
Q 556 -919 550 -917 
Q 544 -916 538 -916 
z
" transform="scale(0.015625)"/>
      </defs>
      <use xlink:href="#Cmmi10-79" transform="translate(0 0.8125)"/>
     </g>
    </g>
   </g>
   <g id="line2d_6">
    <path d="M 299.646062 171.681063 
L 299.438994 164.000764 
L 298.827381 156.426055 
L 298.055581 150.447207 
L 296.783495 143.258327 
L 295.477757 137.46258 
L 293.23428 129.411363 
L 291.964584 125.520563 
L 290.583706 121.667819 
L 287.761683 114.701239 
L 286.1742 111.1914 
L 282.827868 104.512661 
L 280.304975 99.990185 
L 276.926014 94.475388 
L 272.108328 87.467099 
L 269.652062 84.211648 
L 264.494875 77.952105 
L 261.729437 74.875019 
L 255.414725 68.468488 
L 249.38363 63.042906 
L 246.689963 60.811276 
L 242.590629 57.620758 
L 237.175058 53.756117 
L 230.55918 49.525657 
L 222.986578 45.280813 
L 214.256292 41.101306 
L 209.045427 38.942606 
L 205.644248 37.661576 
L 197.174106 34.890392 
L 193.20003 33.788564 
L 186.816565 32.273855 
L 180.982197 31.157099 
L 175.675908 30.35807 
L 166.879927 29.478901 
L 161.891028 29.223833 
L 157.451192 29.143991 
L 152.922582 29.205059 
L 146.54474 29.535576 
L 143.030158 29.840546 
L 136.286732 30.672606 
L 132.749024 31.240519 
L 128.46981 32.050281 
L 120.423596 33.945278 
L 116.790373 34.964654 
L 109.266112 37.412553 
L 104.183117 39.33368 
L 97.981557 41.985536 
L 91.861444 44.954011 
L 87.9593 47.040333 
L 81.562664 50.810267 
L 76.28877 54.271128 
L 70.85573 58.202516 
L 68.121577 60.333643 
L 63.187865 64.462436 
L 59.203284 68.088169 
L 54.875306 72.356884 
L 50.453091 77.121339 
L 45.539882 82.971647 
L 43.535345 85.552931 
L 38.991039 91.898977 
L 35.842809 96.770799 
L 31.224998 104.821071 
L 29.160231 108.862636 
L 27.004609 113.458286 
L 24.884172 118.449109 
L 22.268211 125.474897 
L 21.004753 129.340973 
L 18.947184 136.633043 
L 17.837002 141.343587 
L 16.370327 149.104992 
L 15.359437 156.710578 
L 14.798576 163.631363 
L 14.623228 167.826269 
L 14.609152 174.974676 
L 14.852196 180.62847 
L 15.263031 185.708723 
L 15.753729 190.004299 
L 17.24425 199.156585 
L 18.274875 203.963216 
L 19.635778 209.339576 
L 21.252937 214.81086 
L 23.644232 221.723074 
L 25.711066 226.922607 
L 28.857721 233.879553 
L 32.427604 240.757753 
L 34.424709 244.245536 
L 37.655614 249.449462 
L 42.627936 256.599359 
L 45.648446 260.526848 
L 49.281831 264.902987 
L 55.112976 271.249289 
L 60.488582 276.473767 
L 63.613395 279.270957 
L 66.978655 282.105388 
L 71.359399 285.540681 
L 74.182528 287.61296 
L 78.045248 290.280913 
L 83.125912 293.514965 
L 88.810979 296.790505 
L 92.81324 298.893657 
L 96.542587 300.710886 
L 103.289327 303.667512 
L 105.99809 304.739894 
L 111.868113 306.848495 
L 118.913379 309.005719 
L 126.689956 310.934939 
L 134.201306 312.365786 
L 139.537948 313.131434 
L 143.519595 313.569308 
L 148.215376 313.940844 
L 154.523418 314.195102 
L 162.563503 314.114129 
L 167.740232 313.821495 
L 174.142055 313.197123 
L 182.127228 312.005692 
L 187.623037 310.913969 
L 192.114404 309.853153 
L 200.58498 307.42618 
L 206.676168 305.322331 
L 213.762151 302.475968 
L 220.089361 299.549571 
L 223.430144 297.849143 
L 227.165406 295.813957 
L 232.074563 292.912394 
L 235.645909 290.629884 
L 242.375414 285.902344 
L 248.68405 280.909573 
L 253.260152 276.903728 
L 259.376216 270.969857 
L 262.26584 267.904161 
L 265.902838 263.772014 
L 271.378367 256.88288 
L 273.732083 253.631612 
L 276.057716 250.217913 
L 278.765554 245.954306 
L 283.175233 238.195218 
L 285.999541 232.542003 
L 287.963764 228.195261 
L 290.831949 221.026724 
L 292.638153 215.82479 
L 293.859197 211.883084 
L 295.823461 204.470018 
L 297.056992 198.725022 
L 298.400485 190.483494 
L 299.289707 181.753838 
L 299.553315 176.822191 
L 299.646062 171.681063 
L 299.646062 171.681063 
" clip-path="url(#p5a70451c30)" style="fill: none; stroke: #000000; stroke-width: 2; stroke-linecap: square"/>
   </g>
   <g id="patch_4">
    <path d="M 157.108578 319.920038 
L 157.108578 23.4425 
" style="fill: none; stroke: #000000; stroke-width: 0.8; stroke-linejoin: miter; stroke-linecap: square"/>
   </g>
   <g id="patch_5">
    <path d="M 8.908413 314.218547 
L 305.3468 314.218547 
" style="fill: none; stroke: #000000; stroke-width: 0.8; stroke-linejoin: miter; stroke-linecap: square"/>
   </g>
  </g>
 </g>
 <defs>
  <clipPath id="p5a70451c30">
   <rect x="8.908413" y="23.4425" width="296.438387" height="296.477538"/>
  </clipPath>
 </defs>
</svg>
