<?xml version="1.0" encoding="utf-8" standalone="no"?>
<!DOCTYPE svg PUBLIC "-//W3C//DTD SVG 1.1//EN"
  "http://www.w3.org/Graphics/SVG/1.1/DTD/svg11.dtd">
<svg xmlns:xlink="http://www.w3.org/1999/xlink" width="338.4pt" height="338.4pt" viewBox="0 0 338.4 338.4" xmlns="http://www.w3.org/2000/svg" version="1.1">
 <metadata>
  <rdf:RDF xmlns:dc="http://purl.org/dc/elements/1.1/" xmlns:cc="http://creativecommons.org/ns#" xmlns:rdf="http://www.w3.org/1999/02/22-rdf-syntax-ns#">
   <cc:Work>
    <dc:type rdf:resource="http://purl.org/dc/dcmitype/StillImage"/>
    <dc:date>2025-06-04T11:10:38.313349</dc:date>
    <dc:format>image/svg+xml</dc:format>
    <dc:creator>
     <cc:Agent>
      <dc:title>Matplotlib v3.8.0, https://matplotlib.org/</dc:title>
     </cc:Agent>
    </dc:creator>
   </cc:Work>
  </rdf:RDF>
 </metadata>
 <defs>
  <style type="text/css">*{stroke-linejoin: round; stroke-linecap: butt}</style>
 </defs>
 <g id="figure_1">
  <g id="patch_1">
   <path d="M -0 338.4 
L 338.4 338.4 
L 338.4 0 
L -0 0 
z
" style="fill: #ffffff"/>
  </g>
  <g id="axes_1">
   <g id="patch_2">
    <path d="M 7.2 331.2 
L 331.2 331.2 
L 331.2 7.2 
L 7.2 7.2 
z
" style="fill: #ffffff"/>
   </g>
   <g id="patch_3">
    <path d="M 293.815385 169.2 
L 293.753894 173.114264 
L 293.569485 177.024665 
L 293.262337 180.927344 
L 292.832755 184.818449 
L 292.281162 188.694141 
L 291.608104 192.550595 
L 290.814243 196.384004 
L 289.900363 200.190586 
L 288.867367 203.966584 
L 287.716274 207.708272 
L 286.448219 211.411956 
L 285.064454 215.073983 
L 283.566346 218.690737 
L 281.955371 222.25865 
L 280.233121 225.774201 
L 278.401294 229.233919 
L 276.461699 232.634392 
L 274.416249 235.972262 
L 272.266964 239.244236 
L 270.015964 242.447085 
L 267.665471 245.577648 
L 265.217804 248.632836 
L 262.675379 251.609632 
L 260.040706 254.505101 
L 257.316384 257.316384 
L 254.505101 260.040706 
L 251.609632 262.675379 
L 248.632836 265.217804 
L 245.577648 267.665471 
L 242.447085 270.015964 
L 239.244236 272.266964 
L 235.972262 274.416249 
L 232.634392 276.461699 
L 229.233919 278.401294 
L 225.774201 280.233121 
L 222.25865 281.955371 
L 218.690737 283.566346 
L 215.073983 285.064454 
L 211.411956 286.448219 
L 207.708272 287.716274 
L 203.966584 288.867367 
L 200.190586 289.900363 
L 196.384004 290.814243 
L 192.550595 291.608104 
L 188.694141 292.281162 
L 184.818449 292.832755 
L 180.927344 293.262337 
L 177.024665 293.569485 
L 173.114264 293.753894 
L 169.2 293.815385 
L 165.285736 293.753894 
L 161.375335 293.569485 
L 157.472656 293.262337 
L 153.581551 292.832755 
L 149.705859 292.281162 
L 145.849405 291.608104 
L 142.015996 290.814243 
L 138.209414 289.900363 
L 134.433416 288.867367 
L 130.691728 287.716274 
L 126.988044 286.448219 
L 123.326017 285.064454 
L 119.709263 283.566346 
L 116.14135 281.955371 
L 112.625799 280.233121 
L 109.166081 278.401294 
L 105.765608 276.461699 
L 102.427738 274.416249 
L 99.155764 272.266964 
L 95.952915 270.015964 
L 92.822352 267.665471 
L 89.767164 265.217804 
L 86.790368 262.675379 
L 83.894899 260.040706 
L 81.083616 257.316384 
L 78.359294 254.505101 
L 75.724621 251.609632 
L 73.182196 248.632836 
L 70.734529 245.577648 
L 68.384036 242.447085 
L 66.133036 239.244236 
L 63.983751 235.972262 
L 61.938301 232.634392 
L 59.998706 229.233919 
L 58.166879 225.774201 
L 56.444629 222.25865 
L 54.833654 218.690737 
L 53.335546 215.073983 
L 51.951781 211.411956 
L 50.683726 207.708272 
L 49.532633 203.966584 
L 48.499637 200.190586 
L 47.585757 196.384004 
L 46.791896 192.550595 
L 46.118838 188.694141 
L 45.567245 184.818449 
L 45.137663 180.927344 
L 44.830515 177.024665 
L 44.646106 173.114264 
L 44.584615 169.2 
L 44.646106 165.285736 
L 44.830515 161.375335 
L 45.137663 157.472656 
L 45.567245 153.581551 
L 46.118838 149.705859 
L 46.791896 145.849405 
L 47.585757 142.015996 
L 48.499637 138.209414 
L 49.532633 134.433416 
L 50.683726 130.691728 
L 51.951781 126.988044 
L 53.335546 123.326017 
L 54.833654 119.709263 
L 56.444629 116.14135 
L 58.166879 112.625799 
L 59.998706 109.166081 
L 61.938301 105.765608 
L 63.983751 102.427738 
L 66.133036 99.155764 
L 68.384036 95.952915 
L 70.734529 92.822352 
L 73.182196 89.767164 
L 75.724621 86.790368 
L 78.359294 83.894899 
L 81.083616 81.083616 
L 83.894899 78.359294 
L 86.790368 75.724621 
L 89.767164 73.182196 
L 92.822352 70.734529 
L 95.952915 68.384036 
L 99.155764 66.133036 
L 102.427738 63.983751 
L 105.765608 61.938301 
L 109.166081 59.998706 
L 112.625799 58.166879 
L 116.14135 56.444629 
L 119.709263 54.833654 
L 123.326017 53.335546 
L 126.988044 51.951781 
L 130.691728 50.683726 
L 134.433416 49.532633 
L 138.209414 48.499637 
L 142.015996 47.585757 
L 145.849405 46.791896 
L 149.705859 46.118838 
L 153.581551 45.567245 
L 157.472656 45.137663 
L 161.375335 44.830515 
L 165.285736 44.646106 
L 169.2 44.584615 
L 173.114264 44.646106 
L 177.024665 44.830515 
L 180.927344 45.137663 
L 184.818449 45.567245 
L 188.694141 46.118838 
L 192.550595 46.791896 
L 196.384004 47.585757 
L 200.190586 48.499637 
L 203.966584 49.532633 
L 207.708272 50.683726 
L 211.411956 51.951781 
L 215.073983 53.335546 
L 218.690737 54.833654 
L 222.25865 56.444629 
L 225.774201 58.166879 
L 229.233919 59.998706 
L 232.634392 61.938301 
L 235.972262 63.983751 
L 239.244236 66.133036 
L 242.447085 68.384036 
L 245.577648 70.734529 
L 248.632836 73.182196 
L 251.609632 75.724621 
L 254.505101 78.359294 
L 257.316384 81.083616 
L 260.040706 83.894899 
L 262.675379 86.790368 
L 265.217804 89.767164 
L 267.665471 92.822352 
L 270.015964 95.952915 
L 272.266964 99.155764 
L 274.416249 102.427738 
L 276.461699 105.765608 
L 278.401294 109.166081 
L 280.233121 112.625799 
L 281.955371 116.14135 
L 283.566346 119.709263 
L 285.064454 123.326017 
L 286.448219 126.988044 
L 287.716274 130.691728 
L 288.867367 134.433416 
L 289.900363 138.209414 
L 290.814243 142.015996 
L 291.608104 145.849405 
L 292.281162 149.705859 
L 292.832755 153.581551 
L 293.262337 157.472656 
L 293.569485 161.375335 
L 293.753894 165.285736 
L 293.815385 169.2 
L 324.969231 169.2 
L 324.892368 164.30717 
L 324.661856 159.419169 
L 324.277921 154.54082 
L 323.740944 149.676939 
L 323.051453 144.832324 
L 322.210129 140.011757 
L 321.217803 135.219995 
L 320.075454 130.461768 
L 318.784209 125.74177 
L 317.345342 121.06466 
L 315.760274 116.435055 
L 314.030568 111.857522 
L 312.157932 107.336579 
L 310.144214 102.876687 
L 307.991401 98.482249 
L 305.701617 94.157601 
L 303.277123 89.90701 
L 300.720311 85.734672 
L 298.033705 81.644705 
L 295.219955 77.641143 
L 292.281838 73.72794 
L 289.222255 69.908955 
L 286.044224 66.187959 
L 282.750882 62.568624 
L 279.345479 59.054521 
L 275.831376 55.649118 
L 272.212041 52.355776 
L 268.491045 49.177745 
L 264.67206 46.118162 
L 260.758857 43.180045 
L 256.755295 40.366295 
L 252.665328 37.679689 
L 248.49299 35.122877 
L 244.242399 32.698383 
L 239.917751 30.408599 
L 235.523313 28.255786 
L 231.063421 26.242068 
L 226.542478 24.369432 
L 221.964945 22.639726 
L 217.33534 21.054658 
L 212.65823 19.615791 
L 207.938232 18.324546 
L 203.180005 17.182197 
L 198.388243 16.189871 
L 193.567676 15.348547 
L 188.723061 14.659056 
L 183.85918 14.122079 
L 178.980831 13.738144 
L 174.09283 13.507632 
L 169.2 13.430769 
L 164.30717 13.507632 
L 159.419169 13.738144 
L 154.54082 14.122079 
L 149.676939 14.659056 
L 144.832324 15.348547 
L 140.011757 16.189871 
L 135.219995 17.182197 
L 130.461768 18.324546 
L 125.74177 19.615791 
L 121.06466 21.054658 
L 116.435055 22.639726 
L 111.857522 24.369432 
L 107.336579 26.242068 
L 102.876687 28.255786 
L 98.482249 30.408599 
L 94.157601 32.698383 
L 89.90701 35.122877 
L 85.734672 37.679689 
L 81.644705 40.366295 
L 77.641143 43.180045 
L 73.72794 46.118162 
L 69.908955 49.177745 
L 66.187959 52.355776 
L 62.568624 55.649118 
L 59.054521 59.054521 
L 55.649118 62.568624 
L 52.355776 66.187959 
L 49.177745 69.908955 
L 46.118162 73.72794 
L 43.180045 77.641143 
L 40.366295 81.644705 
L 37.679689 85.734672 
L 35.122877 89.90701 
L 32.698383 94.157601 
L 30.408599 98.482249 
L 28.255786 102.876687 
L 26.242068 107.336579 
L 24.369432 111.857522 
L 22.639726 116.435055 
L 21.054658 121.06466 
L 19.615791 125.74177 
L 18.324546 130.461768 
L 17.182197 135.219995 
L 16.189871 140.011757 
L 15.348547 144.832324 
L 14.659056 149.676939 
L 14.122079 154.54082 
L 13.738144 159.419169 
L 13.507632 164.30717 
L 13.430769 169.2 
L 13.507632 174.09283 
L 13.738144 178.980831 
L 14.122079 183.85918 
L 14.659056 188.723061 
L 15.348547 193.567676 
L 16.189871 198.388243 
L 17.182197 203.180005 
L 18.324546 207.938232 
L 19.615791 212.65823 
L 21.054658 217.33534 
L 22.639726 221.964945 
L 24.369432 226.542478 
L 26.242068 231.063421 
L 28.255786 235.523313 
L 30.408599 239.917751 
L 32.698383 244.242399 
L 35.122877 248.49299 
L 37.679689 252.665328 
L 40.366295 256.755295 
L 43.180045 260.758857 
L 46.118162 264.67206 
L 49.177745 268.491045 
L 52.355776 272.212041 
L 55.649118 275.831376 
L 59.054521 279.345479 
L 62.568624 282.750882 
L 66.187959 286.044224 
L 69.908955 289.222255 
L 73.72794 292.281838 
L 77.641143 295.219955 
L 81.644705 298.033705 
L 85.734672 300.720311 
L 89.90701 303.277123 
L 94.157601 305.701617 
L 98.482249 307.991401 
L 102.876687 310.144214 
L 107.336579 312.157932 
L 111.857522 314.030568 
L 116.435055 315.760274 
L 121.06466 317.345342 
L 125.74177 318.784209 
L 130.461768 320.075454 
L 135.219995 321.217803 
L 140.011757 322.210129 
L 144.832324 323.051453 
L 149.676939 323.740944 
L 154.54082 324.277921 
L 159.419169 324.661856 
L 164.30717 324.892368 
L 169.2 324.969231 
L 174.09283 324.892368 
L 178.980831 324.661856 
L 183.85918 324.277921 
L 188.723061 323.740944 
L 193.567676 323.051453 
L 198.388243 322.210129 
L 203.180005 321.217803 
L 207.938232 320.075454 
L 212.65823 318.784209 
L 217.33534 317.345342 
L 221.964945 315.760274 
L 226.542478 314.030568 
L 231.063421 312.157932 
L 235.523313 310.144214 
L 239.917751 307.991401 
L 244.242399 305.701617 
L 248.49299 303.277123 
L 252.665328 300.720311 
L 256.755295 298.033705 
L 260.758857 295.219955 
L 264.67206 292.281838 
L 268.491045 289.222255 
L 272.212041 286.044224 
L 275.831376 282.750882 
L 279.345479 279.345479 
L 282.750882 275.831376 
L 286.044224 272.212041 
L 289.222255 268.491045 
L 292.281838 264.67206 
L 295.219955 260.758857 
L 298.033705 256.755295 
L 300.720311 252.665328 
L 303.277123 248.49299 
L 305.701617 244.242399 
L 307.991401 239.917751 
L 310.144214 235.523313 
L 312.157932 231.063421 
L 314.030568 226.542478 
L 315.760274 221.964945 
L 317.345342 217.33534 
L 318.784209 212.65823 
L 320.075454 207.938232 
L 321.217803 203.180005 
L 322.210129 198.388243 
L 323.051453 193.567676 
L 323.740944 188.723061 
L 324.277921 183.85918 
L 324.661856 178.980831 
L 324.892368 174.09283 
L 324.969231 169.2 
z
" clip-path="url(#pacd33ebe97)" style="fill: #808080"/>
   </g>
   <g id="matplotlib.axis_1"/>
   <g id="matplotlib.axis_2"/>
   <g id="line2d_1">
    <path d="M 293.815385 169.2 
L 293.757443 165.400336 
L 293.479788 160.060609 
L 292.693075 152.513043 
L 291.677976 146.218714 
L 290.344742 139.994769 
L 288.978368 134.817784 
L 287.667458 130.541814 
L 285.345 124.041025 
L 284.029308 120.793139 
L 280.816099 113.784834 
L 278.932116 110.14192 
L 276.949092 106.597066 
L 274.116022 101.95699 
L 271.651598 98.258727 
L 267.08709 92.082482 
L 262.114683 86.15871 
L 260.018602 83.871367 
L 254.877175 78.710134 
L 249.693001 74.069191 
L 246.748806 71.654232 
L 242.000373 68.060988 
L 238.012127 65.306375 
L 232.880937 62.084491 
L 226.700936 58.643967 
L 221.57384 56.124914 
L 217.301624 54.242495 
L 212.084957 52.196263 
L 208.802766 51.044954 
L 203.572629 49.418881 
L 196.740357 47.66596 
L 193.277447 46.93279 
L 187.482419 45.933025 
L 180.565398 45.103981 
L 173.72663 44.666857 
L 167.346773 44.598396 
L 163.519766 44.714141 
L 157.978684 45.09087 
L 151.478896 45.851078 
L 146.955488 46.58607 
L 143.068081 47.355358 
L 138.395879 48.451914 
L 131.117439 50.546249 
L 122.547103 53.646976 
L 119.1757 55.066028 
L 111.972657 58.502099 
L 109.531231 59.798756 
L 105.297172 62.216718 
L 102.191693 64.133922 
L 97.235667 67.464417 
L 92.287961 71.151377 
L 87.964765 74.702218 
L 82.924955 79.279976 
L 79.56369 82.630224 
L 77.164525 85.185326 
L 71.885313 91.361411 
L 67.815733 96.741567 
L 63.260627 103.581075 
L 59.996003 109.170998 
L 57.742583 113.466364 
L 55.407351 118.404064 
L 53.910373 121.899937 
L 52.450598 125.627404 
L 50.43448 131.46745 
L 48.928945 136.583021 
L 47.475444 142.514303 
L 46.188619 149.270267 
L 45.625781 153.124973 
L 45.02671 158.712474 
L 44.67535 164.445459 
L 44.588235 170.149767 
L 44.791474 176.377231 
L 44.950534 178.742756 
L 45.410752 183.525368 
L 46.503518 190.984567 
L 48.087393 198.538207 
L 49.734218 204.653082 
L 52.102616 211.828592 
L 53.57445 215.672855 
L 55.146907 219.408427 
L 58.62832 226.670843 
L 61.367967 231.659962 
L 65.802224 238.754971 
L 68.46419 242.557281 
L 72.230715 247.46846 
L 74.379183 250.057942 
L 79.705616 255.916488 
L 82.924002 259.11911 
L 88.169577 263.873463 
L 94.867344 269.21825 
L 98.379687 271.735249 
L 104.17905 275.507432 
L 110.696776 279.228937 
L 117.938737 282.783789 
L 124.562762 285.546513 
L 132.176028 288.188317 
L 135.609815 289.20289 
L 144.063911 291.253968 
L 148.89726 292.150367 
L 154.670618 292.965468 
L 158.877288 293.3871 
L 163.297966 293.67554 
L 170.742721 293.805835 
L 176.39285 293.607624 
L 183.317216 293.013159 
L 189.13093 292.211187 
L 194.731048 291.171963 
L 198.531602 290.314207 
L 205.356648 288.454731 
L 211.287009 286.493127 
L 214.160414 285.422009 
L 221.367456 282.370449 
L 227.146347 279.52323 
L 235.081056 274.97656 
L 240.606534 271.327866 
L 246.284308 267.113245 
L 250.199777 263.899684 
L 253.677801 260.810563 
L 256.882099 257.748538 
L 261.772048 252.623078 
L 266.753695 246.738834 
L 270.512853 241.758252 
L 273.436876 237.491052 
L 277.729939 230.439255 
L 281.188535 223.858596 
L 282.824193 220.371642 
L 285.016413 215.195138 
L 286.30543 211.806482 
L 287.658684 207.885065 
L 288.847648 204.034386 
L 290.664874 197.043823 
L 291.557741 192.813074 
L 292.642579 186.256485 
L 293.487349 178.235982 
L 293.798792 171.233495 
L 293.815385 169.2 
L 293.815385 169.2 
" clip-path="url(#pacd33ebe97)" style="fill: none; stroke: #000000; stroke-width: 3; stroke-linecap: square"/>
   </g>
   <g id="line2d_2">
    <path d="M 324.969231 169.2 
L 324.941578 166.26501 
L 324.732957 160.623725 
L 324.273809 154.497379 
L 323.262262 146.202771 
L 321.839565 138.132066 
L 321.227731 135.264439 
L 320.016926 130.234528 
L 318.618688 125.176041 
L 315.869594 116.739697 
L 313.385493 110.254288 
L 311.016448 104.762835 
L 308.948245 100.392434 
L 306.745398 96.088327 
L 304.677607 92.324313 
L 300.690819 85.688217 
L 296.865953 79.950587 
L 294.577452 76.763277 
L 289.667865 70.450079 
L 284.593929 64.565903 
L 281.662466 61.421306 
L 277.527877 57.266429 
L 274.747292 54.640747 
L 269.365083 49.906206 
L 264.707413 46.145592 
L 260.964004 43.329349 
L 254.300485 38.731764 
L 247.655594 34.631159 
L 241.933266 31.454128 
L 237.773896 29.336945 
L 231.922972 26.617105 
L 226.569101 24.379975 
L 217.696327 21.172436 
L 208.055378 18.354672 
L 203.165258 17.178901 
L 197.56831 16.035735 
L 193.101394 15.275419 
L 187.004765 14.451677 
L 179.656352 13.782118 
L 174.20154 13.511086 
L 165.039573 13.486339 
L 159.178356 13.753482 
L 155.040319 14.075673 
L 147.139079 15.000879 
L 143.523847 15.561501 
L 138.364302 16.51335 
L 130.537967 18.305002 
L 126.229384 19.474987 
L 120.551344 21.222429 
L 116.149133 22.74298 
L 108.092733 25.91722 
L 102.251323 28.551758 
L 96.557912 31.406022 
L 92.053974 33.876152 
L 85.099191 38.085137 
L 80.062124 41.456145 
L 74.201718 45.752118 
L 70.836024 48.4168 
L 66.071836 52.458255 
L 59.305992 58.803622 
L 56.387658 61.787577 
L 53.550318 64.84865 
L 50.801717 67.977967 
L 45.435268 74.614883 
L 42.208635 78.993312 
L 37.63082 85.811727 
L 34.848122 90.373443 
L 31.752436 95.904568 
L 28.83286 101.663941 
L 26.287461 107.231786 
L 23.688895 113.607091 
L 21.513129 119.67585 
L 19.26205 126.978391 
L 17.269246 134.832873 
L 16.099872 140.487563 
L 14.808172 148.530781 
L 14.028621 155.56562 
L 13.581376 162.351858 
L 13.438632 167.634948 
L 13.485401 173.325151 
L 13.768715 179.455185 
L 14.101062 183.635121 
L 14.703404 189.070961 
L 15.794927 196.235844 
L 16.958574 202.163636 
L 18.76575 209.617692 
L 20.619247 215.974064 
L 21.897241 219.855212 
L 23.591224 224.536584 
L 25.91807 230.309262 
L 29.206549 237.507298 
L 31.851379 242.680675 
L 35.867305 249.738473 
L 40.13147 256.408759 
L 44.417075 262.437734 
L 47.475711 266.396968 
L 51.097585 270.767085 
L 54.544306 274.64252 
L 60.589684 280.859538 
L 65.290044 285.246432 
L 71.179934 290.262463 
L 74.621041 292.969438 
L 78.92394 296.142059 
L 87.282167 301.689705 
L 96.555227 306.992562 
L 101.517015 309.496354 
L 105.714528 311.445028 
L 110.145305 313.34089 
L 114.049087 314.879202 
L 118.643423 316.536641 
L 128.727064 319.619396 
L 132.737517 320.641542 
L 139.270089 322.066784 
L 144.672938 323.026124 
L 148.536844 323.59264 
L 153.054772 324.130258 
L 161.779466 324.792381 
L 169.729303 324.968331 
L 176.988402 324.7744 
L 185.198706 324.145457 
L 191.0568 323.428187 
L 200.083088 321.877071 
L 207.473075 320.194122 
L 211.977855 318.9802 
L 217.948115 317.144836 
L 225.603757 314.398724 
L 233.532615 311.063906 
L 242.147961 306.832293 
L 246.32673 304.534847 
L 250.661114 301.971006 
L 256.594534 298.142812 
L 260.405842 295.475681 
L 264.977418 292.044371 
L 268.469019 289.240473 
L 272.058334 286.179555 
L 278.681828 280.005156 
L 283.959946 274.529047 
L 288.617887 269.217106 
L 292.98601 263.757268 
L 296.99208 258.268724 
L 299.741454 254.188128 
L 302.061424 250.513561 
L 305.134727 245.264468 
L 308.826575 238.25413 
L 310.722685 234.27982 
L 312.10282 231.190622 
L 314.97527 224.096484 
L 316.645198 219.439098 
L 317.996261 215.283901 
L 319.622258 209.662297 
L 320.677792 205.511594 
L 322.167552 198.610563 
L 323.23164 192.401444 
L 324.076215 185.855665 
L 324.475741 181.58941 
L 324.901547 173.791447 
L 324.969231 169.2 
L 324.969231 169.2 
" clip-path="url(#pacd33ebe97)" style="fill: none; stroke: #000000; stroke-width: 3; stroke-linecap: square"/>
   </g>
   <g id="line2d_3">
    <path d="M 253.362475 38.124712 
L 169.2 169.2 
L 272.049515 98.836861 
" clip-path="url(#pacd33ebe97)" style="fill: none; stroke: #000000; stroke-width: 2; stroke-linecap: square"/>
   </g>
   <g id="patch_4">
    <path d="M 169.2 331.2 
L 169.2 7.2 
" style="fill: none; stroke: #000000; stroke-width: 0.8; stroke-linejoin: miter; stroke-linecap: square"/>
   </g>
   <g id="patch_5">
    <path d="M 7.2 169.2 
L 331.2 169.2 
" style="fill: none; stroke: #000000; stroke-width: 0.8; stroke-linejoin: miter; stroke-linecap: square"/>
   </g>
   <g id="text_1">
    <!-- $R_0$ -->
    <g transform="translate(270.63413 93.970996) scale(0.2 -0.2)">
     <defs>
      <path id="Cmmi10-52" d="M 313 0 
Q 250 0 250 84 
Q 253 100 262 139 
Q 272 178 289 201 
Q 306 225 331 225 
Q 722 225 878 269 
Q 959 297 997 441 
L 1875 3956 
Q 1888 4019 1888 4044 
Q 1888 4113 1813 4122 
Q 1691 4147 1350 4147 
Q 1288 4147 1288 4231 
Q 1291 4247 1300 4286 
Q 1309 4325 1326 4348 
Q 1344 4372 1369 4372 
L 3309 4372 
Q 3541 4372 3791 4319 
Q 4041 4266 4250 4152 
Q 4459 4038 4593 3848 
Q 4728 3659 4728 3406 
Q 4728 3084 4515 2831 
Q 4303 2578 3978 2408 
Q 3653 2238 3347 2169 
Q 3597 2078 3756 1879 
Q 3916 1681 3916 1422 
Q 3916 1388 3914 1370 
Q 3913 1353 3909 1331 
L 3859 763 
Q 3853 638 3847 550 
Q 3841 463 3841 409 
Q 3841 234 3892 129 
Q 3944 25 4097 25 
Q 4297 25 4448 211 
Q 4600 397 4647 616 
Q 4675 672 4709 672 
L 4769 672 
Q 4831 672 4831 588 
Q 4784 403 4682 237 
Q 4581 72 4426 -34 
Q 4272 -141 4091 -141 
Q 3716 -141 3452 26 
Q 3188 194 3188 550 
Q 3188 684 3213 788 
L 3353 1356 
Q 3378 1434 3378 1538 
Q 3378 1803 3198 1954 
Q 3019 2106 2747 2106 
L 1959 2106 
L 1538 416 
Q 1522 363 1522 325 
Q 1522 259 1600 250 
Q 1722 225 2059 225 
Q 2125 225 2125 141 
Q 2103 50 2090 25 
Q 2078 0 2016 0 
L 313 0 
z
M 1997 2272 
L 2706 2272 
Q 3403 2272 3756 2625 
Q 3919 2788 4014 3039 
Q 4109 3291 4109 3541 
Q 4109 3778 3970 3912 
Q 3831 4047 3626 4097 
Q 3422 4147 3175 4147 
L 2747 4147 
Q 2572 4147 2515 4117 
Q 2459 4088 2413 3928 
L 1997 2272 
z
" transform="scale(0.015625)"/>
      <path id="Cmr10-30" d="M 1600 -141 
Q 816 -141 533 504 
Q 250 1150 250 2041 
Q 250 2597 351 3087 
Q 453 3578 754 3920 
Q 1056 4263 1600 4263 
Q 2022 4263 2290 4056 
Q 2559 3850 2700 3523 
Q 2841 3197 2892 2823 
Q 2944 2450 2944 2041 
Q 2944 1491 2842 1011 
Q 2741 531 2444 195 
Q 2147 -141 1600 -141 
z
M 1600 25 
Q 1956 25 2131 390 
Q 2306 756 2347 1200 
Q 2388 1644 2388 2144 
Q 2388 2625 2347 3031 
Q 2306 3438 2132 3767 
Q 1959 4097 1600 4097 
Q 1238 4097 1063 3765 
Q 888 3434 847 3029 
Q 806 2625 806 2144 
Q 806 1788 823 1472 
Q 841 1156 916 820 
Q 991 484 1158 254 
Q 1325 25 1600 25 
z
" transform="scale(0.015625)"/>
     </defs>
     <use xlink:href="#Cmmi10-52" transform="translate(0 0.6875)"/>
     <use xlink:href="#Cmr10-30" transform="translate(75.878906 -16.31875) scale(0.7)"/>
    </g>
   </g>
   <g id="text_2">
    <!-- $R_1$ -->
    <g transform="translate(251.94709 33.258847) scale(0.2 -0.2)">
     <defs>
      <path id="Cmr10-31" d="M 594 0 
L 594 225 
Q 1394 225 1394 428 
L 1394 3788 
Q 1063 3628 556 3628 
L 556 3853 
Q 1341 3853 1741 4263 
L 1831 4263 
Q 1853 4263 1873 4245 
Q 1894 4228 1894 4206 
L 1894 428 
Q 1894 225 2694 225 
L 2694 0 
L 594 0 
z
" transform="scale(0.015625)"/>
     </defs>
     <use xlink:href="#Cmmi10-52" transform="translate(0 0.6875)"/>
     <use xlink:href="#Cmr10-31" transform="translate(75.878906 -16.31875) scale(0.7)"/>
    </g>
   </g>
  </g>
 </g>
 <defs>
  <clipPath id="pacd33ebe97">
   <rect x="7.2" y="7.2" width="324" height="324"/>
  </clipPath>
 </defs>
</svg>
