<?xml version="1.0" encoding="utf-8" standalone="no"?>
<!DOCTYPE svg PUBLIC "-//W3C//DTD SVG 1.1//EN"
  "http://www.w3.org/Graphics/SVG/1.1/DTD/svg11.dtd">
<svg xmlns:xlink="http://www.w3.org/1999/xlink" width="453.6pt" height="236.330607pt" viewBox="0 0 453.6 236.330607" xmlns="http://www.w3.org/2000/svg" version="1.1">
 <metadata>
  <rdf:RDF xmlns:dc="http://purl.org/dc/elements/1.1/" xmlns:cc="http://creativecommons.org/ns#" xmlns:rdf="http://www.w3.org/1999/02/22-rdf-syntax-ns#">
   <cc:Work>
    <dc:type rdf:resource="http://purl.org/dc/dcmitype/StillImage"/>
    <dc:date>2025-06-25T15:25:47.513966</dc:date>
    <dc:format>image/svg+xml</dc:format>
    <dc:creator>
     <cc:Agent>
      <dc:title>Matplotlib v3.10.3, https://matplotlib.org/</dc:title>
     </cc:Agent>
    </dc:creator>
   </cc:Work>
  </rdf:RDF>
 </metadata>
 <defs>
  <style type="text/css">*{stroke-linejoin: round; stroke-linecap: butt}</style>
 </defs>
 <g id="figure_1">
  <g id="patch_1">
   <path d="M 0 236.330607 
L 453.6 236.330607 
L 453.6 0 
L 0 0 
z
" style="fill: #ffffff"/>
  </g>
  <g id="axes_1">
   <g id="patch_2">
    <path d="M 7.2 229.130607 
L 446.4 229.130607 
L 446.4 7.2 
L 7.2 7.2 
z
" style="fill: #ffffff"/>
   </g>
   <g id="PathCollection_1">
    <path d="M 20.709173 139.142367 
C 21.435461 139.142367 22.132101 138.85381 22.645665 138.340246 
C 23.159228 137.826682 23.447786 137.130043 23.447786 136.403754 
C 23.447786 135.677466 23.159228 134.980826 22.645665 134.467263 
C 22.132101 133.953699 21.435461 133.665142 20.709173 133.665142 
C 19.982884 133.665142 19.286245 133.953699 18.772681 134.467263 
C 18.259118 134.980826 17.97056 135.677466 17.97056 136.403754 
C 17.97056 137.130043 18.259118 137.826682 18.772681 138.340246 
C 19.286245 138.85381 19.982884 139.142367 20.709173 139.142367 
z
" clip-path="url(#pbaace8742f)"/>
   </g>
   <g id="matplotlib.axis_1"/>
   <g id="matplotlib.axis_2"/>
   <g id="line2d_1">
    <path d="M 437.953846 75.113152 
L 435.25894 71.574929 
L 431.961536 67.585652 
L 428.593661 63.838304 
L 423.998646 59.173493 
L 420.329514 55.765262 
L 416.133186 52.163669 
L 410.913579 48.067687 
L 407.573511 45.644077 
L 402.573801 42.272192 
L 398.717073 39.861647 
L 392.299414 36.180072 
L 386.885456 33.363452 
L 382.969483 31.476237 
L 375.261301 28.097149 
L 370.061928 26.04919 
L 361.107799 22.918124 
L 352.549347 20.352505 
L 349.296903 19.478799 
L 342.680063 17.863071 
L 333.283064 15.919657 
L 323.518842 14.30614 
L 316.342534 13.366695 
L 308.439043 12.560128 
L 301.41223 12.034693 
L 295.543181 11.728682 
L 286.202701 11.481562 
L 278.853318 11.487002 
L 270.485447 11.700051 
L 260.724784 12.218233 
L 253.460779 12.787264 
L 241.499735 14.05651 
L 232.292377 15.309513 
L 220.934915 17.180209 
L 216.643533 17.979708 
L 208.382702 19.661168 
L 197.721168 22.108326 
L 186.873803 24.920139 
L 175.975053 28.076557 
L 169.460086 30.124773 
L 157.883866 34.069817 
L 147.251595 38.049472 
L 138.703068 41.507892 
L 128.922691 45.762713 
L 123.115283 48.447659 
L 117.819874 51.004291 
L 108.082904 55.991806 
L 98.722467 61.165759 
L 90.21603 66.226308 
L 83.733631 70.338649 
L 75.880549 75.65519 
L 69.811163 80.048953 
L 64.959272 83.7651 
L 58.833562 88.75407 
L 53.562747 93.356111 
L 47.912316 98.672525 
L 44.442346 102.173202 
L 39.983758 106.99402 
L 35.408552 112.41387 
L 31.864869 117.043129 
L 28.367036 122.115508 
L 25.093773 127.506119 
L 22.284595 132.895478 
L 20.252264 137.51543 
L 18.829586 141.365452 
L 17.759185 144.850474 
L 16.731229 149.148276 
L 16.02732 153.518726 
L 15.727844 156.892041 
L 15.646154 159.794662 
L 15.747351 162.935255 
L 16.158186 166.836437 
L 16.583164 169.281376 
L 17.721002 173.7859 
L 18.42888 175.92274 
L 19.721174 179.166715 
L 20.851327 181.562148 
L 22.702052 184.922023 
L 25.017841 188.476162 
L 27.365003 191.582969 
L 29.365794 193.946185 
L 32.323553 197.077414 
L 36.086858 200.586678 
L 39.64568 203.532794 
L 43.719784 206.56013 
L 47.580944 209.155028 
L 51.256125 211.419905 
L 56.625668 214.429433 
L 62.607614 217.434388 
L 70.107575 220.779137 
L 76.766683 223.42262 
L 80.707093 224.86271 
L 80.707093 224.86271 
" clip-path="url(#pbaace8742f)" style="fill: none; stroke: #000000; stroke-width: 2; stroke-linecap: square"/>
   </g>
   <g id="patch_3">
    <path d="M 181.156188 26.534246 
Q 180.129209 26.835402 181.247944 26.50734 
" clip-path="url(#pbaace8742f)" style="fill: none; stroke: #000000; stroke-width: 2; stroke-linecap: round"/>
    <path d="M 192.250838 28.491353 
L 181.247944 26.50734 
L 189.436891 18.895432 
z
" clip-path="url(#pbaace8742f)" style="stroke: #000000; stroke-width: 2; stroke-linecap: round"/>
   </g>
   <g id="text_1">
    <!-- $Q$ -->
    <g transform="translate(31.63967 151.387753) scale(0.2 -0.2)">
     <defs>
      <path id="Cmmi10-51" d="M 1947 -141 
Q 1466 -141 1094 79 
Q 722 300 520 692 
Q 319 1084 319 1563 
Q 319 2259 714 2950 
Q 1109 3641 1756 4077 
Q 2403 4513 3109 4513 
Q 3475 4513 3778 4381 
Q 4081 4250 4290 4017 
Q 4500 3784 4614 3471 
Q 4728 3159 4728 2791 
Q 4728 2366 4581 1936 
Q 4434 1506 4171 1136 
Q 3909 766 3559 484 
Q 3209 203 2809 38 
Q 2850 -256 2934 -425 
Q 3019 -594 3256 -594 
Q 3506 -594 3726 -412 
Q 3947 -231 4006 13 
Q 4019 72 4078 72 
Q 4147 72 4147 -13 
Q 4100 -219 4008 -430 
Q 3916 -641 3786 -823 
Q 3656 -1006 3478 -1123 
Q 3300 -1241 3084 -1241 
Q 2547 -1241 2547 -550 
Q 2547 -509 2562 -332 
Q 2578 -156 2578 -44 
Q 2269 -141 1947 -141 
z
M 1709 300 
Q 1709 44 1991 44 
Q 2275 44 2591 184 
L 2591 244 
Q 2591 503 2509 648 
Q 2428 794 2194 794 
Q 2078 794 1964 723 
Q 1850 653 1779 539 
Q 1709 425 1709 300 
z
M 1544 288 
Q 1544 456 1637 612 
Q 1731 769 1881 864 
Q 2031 959 2203 959 
Q 2481 959 2607 771 
Q 2734 584 2778 281 
Q 3188 525 3500 978 
Q 3813 1431 3977 1973 
Q 4141 2516 4141 3003 
Q 4141 3356 4023 3656 
Q 3906 3956 3664 4140 
Q 3422 4325 3066 4325 
Q 2722 4325 2403 4156 
Q 2084 3988 1813 3706 
Q 1550 3434 1342 3032 
Q 1134 2631 1021 2193 
Q 909 1756 909 1356 
Q 909 947 1068 612 
Q 1228 278 1569 128 
Q 1544 194 1544 288 
z
" transform="scale(0.015625)"/>
     </defs>
     <use xlink:href="#Cmmi10-51" transform="translate(0 0.484375)"/>
    </g>
   </g>
  </g>
 </g>
 <defs>
  <clipPath id="pbaace8742f">
   <rect x="7.2" y="7.2" width="439.2" height="221.930607"/>
  </clipPath>
 </defs>
</svg>
