<?xml version="1.0" encoding="utf-8" standalone="no"?>
<!DOCTYPE svg PUBLIC "-//W3C//DTD SVG 1.1//EN"
  "http://www.w3.org/Graphics/SVG/1.1/DTD/svg11.dtd">
<svg xmlns:xlink="http://www.w3.org/1999/xlink" width="453.6pt" height="208.168599pt" viewBox="0 0 453.6 208.168599" xmlns="http://www.w3.org/2000/svg" version="1.1">
 <metadata>
  <rdf:RDF xmlns:dc="http://purl.org/dc/elements/1.1/" xmlns:cc="http://creativecommons.org/ns#" xmlns:rdf="http://www.w3.org/1999/02/22-rdf-syntax-ns#">
   <cc:Work>
    <dc:type rdf:resource="http://purl.org/dc/dcmitype/StillImage"/>
    <dc:date>2025-12-10T16:30:52.675258</dc:date>
    <dc:format>image/svg+xml</dc:format>
    <dc:creator>
     <cc:Agent>
      <dc:title>Matplotlib v3.10.5, https://matplotlib.org/</dc:title>
     </cc:Agent>
    </dc:creator>
   </cc:Work>
  </rdf:RDF>
 </metadata>
 <defs>
  <style type="text/css">*{stroke-linejoin: round; stroke-linecap: butt}</style>
 </defs>
 <g id="figure_1">
  <g id="patch_1">
   <path d="M 0 208.168599 
L 453.6 208.168599 
L 453.6 0 
L 0 0 
z
" style="fill: #ffffff"/>
  </g>
  <g id="axes_1">
   <g id="patch_2">
    <path d="M 7.2 196.242124 
L 446.4 196.242124 
L 446.4 7.2 
L 7.2 7.2 
z
" style="fill: #ffffff"/>
   </g>
   <g id="PathCollection_1">
    <path d="M 412.500414 64.169887 
C 413.438048 64.169887 414.337406 63.79736 415.000414 63.134353 
C 415.663422 62.471345 416.035948 61.571987 416.035948 60.634353 
C 416.035948 59.696718 415.663422 58.79736 415.000414 58.134353 
C 414.337406 57.471345 413.438048 57.098819 412.500414 57.098819 
C 411.562779 57.098819 410.663422 57.471345 410.000414 58.134353 
C 409.337406 58.79736 408.96488 59.696718 408.96488 60.634353 
C 408.96488 61.571987 409.337406 62.471345 410.000414 63.134353 
C 410.663422 63.79736 411.562779 64.169887 412.500414 64.169887 
z
" clip-path="url(#p327cd1798b)"/>
   </g>
   <g id="PathCollection_2">
    <path d="M 132.996758 181.33134 
C 133.934393 181.33134 134.833751 180.958814 135.496758 180.295806 
C 136.159766 179.632799 136.532292 178.733441 136.532292 177.795806 
C 136.532292 176.858172 136.159766 175.958814 135.496758 175.295806 
C 134.833751 174.632799 133.934393 174.260272 132.996758 174.260272 
C 132.059124 174.260272 131.159766 174.632799 130.496758 175.295806 
C 129.833751 175.958814 129.461224 176.858172 129.461224 177.795806 
C 129.461224 178.733441 129.833751 179.632799 130.496758 180.295806 
C 131.159766 180.958814 132.059124 181.33134 132.996758 181.33134 
z
" clip-path="url(#p327cd1798b)"/>
   </g>
   <g id="matplotlib.axis_1"/>
   <g id="matplotlib.axis_2"/>
   <g id="line2d_1">
    <path d="M 412.500414 60.634353 
L 409.922365 57.277526 
L 406.727682 53.509374 
L 403.014463 49.573213 
L 399.444372 46.158666 
L 395.915542 43.082842 
L 391.256138 39.4084 
L 387.310079 36.593106 
L 383.759168 34.263214 
L 379.540127 31.718422 
L 376.061986 29.785691 
L 371.874722 27.638768 
L 366.19807 25.012742 
L 360.843492 22.806923 
L 356.614477 21.234378 
L 350.105374 19.081805 
L 345.425667 17.719959 
L 338.839334 16.046003 
L 331.962375 14.5793 
L 324.017798 13.215117 
L 316.970105 12.280484 
L 309.278508 11.53689 
L 302.337462 11.099755 
L 295.430109 10.874162 
L 287.140821 10.866884 
L 280.666921 11.053354 
L 272.168064 11.544829 
L 263.740163 12.300374 
L 256.432766 13.166069 
L 248.362259 14.345067 
L 238.910472 16.019163 
L 229.370764 18.027174 
L 221.73227 19.865525 
L 214.774921 21.719579 
L 208.153424 23.64511 
L 199.249117 26.486856 
L 192.794316 28.732575 
L 183.328199 32.319325 
L 175.13442 35.719404 
L 165.892685 39.90599 
L 159.417269 43.078316 
L 152.021366 46.9638 
L 145.130288 50.859819 
L 138.855337 54.664874 
L 131.860124 59.234008 
L 127.391107 62.358211 
L 121.314635 66.903584 
L 116.656137 70.658162 
L 112.04284 74.651912 
L 107.170555 79.23201 
L 102.569385 83.989069 
L 98.905065 88.168888 
L 96.897092 90.648245 
L 93.567242 95.14724 
L 91.064182 98.957613 
L 88.789309 102.888543 
L 87.326977 105.760821 
L 85.733186 109.369315 
L 84.434312 112.922376 
L 83.387416 116.571525 
L 82.719251 119.754979 
L 82.382778 122.058101 
L 82.110686 125.727449 
L 82.133237 128.61 
L 82.38142 131.559641 
L 82.912834 134.7233 
L 83.684648 137.725919 
L 84.524851 140.194091 
L 85.817356 143.207818 
L 87.696718 146.683464 
L 89.817988 149.873847 
L 92.197561 152.883566 
L 95.01821 155.932962 
L 97.937678 158.672032 
L 100.984353 161.196438 
L 104.003733 163.437565 
L 107.158447 165.557046 
L 112.000103 168.456667 
L 116.770515 170.978354 
L 122.3173 173.57652 
L 128.923731 176.292575 
L 132.996758 177.795806 
L 132.996758 177.795806 
" clip-path="url(#p327cd1798b)" style="fill: none; stroke: #000000; stroke-width: 2; stroke-linecap: square"/>
   </g>
   <g id="patch_3">
    <path d="M 132.996758 177.795806 
Q 108.256309 166.898245 85.562207 156.902049 
" clip-path="url(#p327cd1798b)" style="fill: none; stroke: #0000ff; stroke-width: 2; stroke-linecap: round"/>
    <path d="M 92.698237 165.508853 
L 85.562207 156.902049 
L 96.729268 156.357308 
z
" clip-path="url(#p327cd1798b)" style="fill: #0000ff; stroke: #0000ff; stroke-width: 2; stroke-linecap: round"/>
   </g>
   <g id="patch_4">
    <path d="M 110.582315 167.646707 
Q 82.106125 158.440662 55.757579 149.922461 
" clip-path="url(#p327cd1798b)" style="fill: none; stroke: #0000ff; stroke-width: 2; stroke-linecap: round"/>
    <path d="M 63.734627 157.756152 
L 55.757579 149.922461 
L 66.81076 148.241038 
z
" clip-path="url(#p327cd1798b)" style="fill: #0000ff; stroke: #0000ff; stroke-width: 2; stroke-linecap: round"/>
   </g>
   <g id="patch_5">
    <path d="M 94.609381 155.518703 
Q 63.471035 148.333992 34.511511 141.652011 
" clip-path="url(#p327cd1798b)" style="fill: none; stroke: #0000ff; stroke-width: 2; stroke-linecap: round"/>
    <path d="M 43.131355 148.772283 
L 34.511511 141.652011 
L 45.379635 139.028299 
z
" clip-path="url(#p327cd1798b)" style="fill: #0000ff; stroke: #0000ff; stroke-width: 2; stroke-linecap: round"/>
   </g>
   <g id="patch_6">
    <path d="M 85.152498 141.745377 
Q 52.438005 136.856221 21.935019 132.297572 
" clip-path="url(#p327cd1798b)" style="fill: none; stroke: #0000ff; stroke-width: 2; stroke-linecap: round"/>
    <path d="M 31.086142 138.72073 
L 21.935019 132.297572 
L 32.564219 128.830569 
z
" clip-path="url(#p327cd1798b)" style="fill: #0000ff; stroke: #0000ff; stroke-width: 2; stroke-linecap: round"/>
   </g>
   <g id="patch_7">
    <path d="M 82.094479 126.720608 
Q 48.870316 124.33558 17.876483 122.110658 
" clip-path="url(#p327cd1798b)" style="fill: none; stroke: #0000ff; stroke-width: 2; stroke-linecap: round"/>
    <path d="M 27.492807 127.813841 
L 17.876483 122.110658 
L 28.208824 117.839508 
z
" clip-path="url(#p327cd1798b)" style="fill: #0000ff; stroke: #0000ff; stroke-width: 2; stroke-linecap: round"/>
   </g>
   <g id="patch_8">
    <path d="M 85.145013 110.887356 
Q 52.429273 111.141203 21.949533 111.3777 
" clip-path="url(#p327cd1798b)" style="fill: none; stroke: #0000ff; stroke-width: 2; stroke-linecap: round"/>
    <path d="M 31.988027 116.299961 
L 21.949533 111.3777 
L 31.910438 106.300262 
z
" clip-path="url(#p327cd1798b)" style="fill: #0000ff; stroke: #0000ff; stroke-width: 2; stroke-linecap: round"/>
   </g>
   <g id="patch_9">
    <path d="M 93.862811 94.724622 
Q 62.600037 97.672257 33.563458 100.409995 
" clip-path="url(#p327cd1798b)" style="fill: none; stroke: #0000ff; stroke-width: 2; stroke-linecap: round"/>
    <path d="M 43.98865 104.449222 
L 33.563458 100.409995 
L 43.049955 94.493377 
z
" clip-path="url(#p327cd1798b)" style="fill: #0000ff; stroke: #0000ff; stroke-width: 2; stroke-linecap: round"/>
   </g>
   <g id="patch_10">
    <path d="M 107.680175 78.732955 
Q 78.720295 84.345869 51.955632 89.533312 
" clip-path="url(#p327cd1798b)" style="fill: none; stroke: #0000ff; stroke-width: 2; stroke-linecap: round"/>
    <path d="M 62.724318 92.539206 
L 51.955632 89.533312 
L 60.821558 82.721899 
z
" clip-path="url(#p327cd1798b)" style="fill: #0000ff; stroke: #0000ff; stroke-width: 2; stroke-linecap: round"/>
   </g>
   <g id="patch_11">
    <path d="M 125.928882 63.41896 
Q 100.010453 71.584206 76.22476 79.077563 
" clip-path="url(#p327cd1798b)" style="fill: none; stroke: #0000ff; stroke-width: 2; stroke-linecap: round"/>
    <path d="M 87.265038 80.841725 
L 76.22476 79.077563 
L 84.260257 71.303838 
z
" clip-path="url(#p327cd1798b)" style="fill: #0000ff; stroke: #0000ff; stroke-width: 2; stroke-linecap: round"/>
   </g>
   <g id="patch_12">
    <path d="M 147.866346 49.279262 
Q 125.604162 59.801124 105.363617 69.367491 
" clip-path="url(#p327cd1798b)" style="fill: none; stroke: #0000ff; stroke-width: 2; stroke-linecap: round"/>
    <path d="M 116.541219 69.61491 
L 105.363617 69.367491 
L 112.268113 60.573861 
z
" clip-path="url(#p327cd1798b)" style="fill: #0000ff; stroke: #0000ff; stroke-width: 2; stroke-linecap: round"/>
   </g>
   <g id="patch_13">
    <path d="M 172.701152 36.784459 
Q 154.578101 49.388789 138.290794 60.716385 
" clip-path="url(#p327cd1798b)" style="fill: none; stroke: #0000ff; stroke-width: 2; stroke-linecap: round"/>
    <path d="M 149.355348 59.111504 
L 138.290794 60.716385 
L 143.645622 50.901813 
z
" clip-path="url(#p327cd1798b)" style="fill: #0000ff; stroke: #0000ff; stroke-width: 2; stroke-linecap: round"/>
   </g>
   <g id="patch_14">
    <path d="M 199.617158 26.363567 
Q 185.980109 40.704712 173.88392 53.42544 
" clip-path="url(#p327cd1798b)" style="fill: none; stroke: #0000ff; stroke-width: 2; stroke-linecap: round"/>
    <path d="M 184.398218 49.624186 
L 173.88392 53.42544 
L 177.151495 42.733249 
z
" clip-path="url(#p327cd1798b)" style="fill: #0000ff; stroke: #0000ff; stroke-width: 2; stroke-linecap: round"/>
   </g>
   <g id="patch_15">
    <path d="M 227.795575 18.389463 
Q 218.854929 34.059625 211.022399 47.787604 
" clip-path="url(#p327cd1798b)" style="fill: none; stroke: #0000ff; stroke-width: 2; stroke-linecap: round"/>
    <path d="M 220.320904 41.579721 
L 211.022399 47.787604 
L 211.635196 36.624071 
z
" clip-path="url(#p327cd1798b)" style="fill: #0000ff; stroke: #0000ff; stroke-width: 2; stroke-linecap: round"/>
   </g>
   <g id="patch_16">
    <path d="M 256.434551 13.165834 
Q 252.267066 29.706601 248.645892 44.079064 
" clip-path="url(#p327cd1798b)" style="fill: none; stroke: #0000ff; stroke-width: 2; stroke-linecap: round"/>
    <path d="M 255.937539 35.603694 
L 248.645892 44.079064 
L 246.240584 33.160524 
z
" clip-path="url(#p327cd1798b)" style="fill: #0000ff; stroke: #0000ff; stroke-width: 2; stroke-linecap: round"/>
   </g>
   <g id="patch_17">
    <path d="M 284.766003 10.916062 
Q 285.320428 27.831791 285.801603 42.512653 
" clip-path="url(#p327cd1798b)" style="fill: none; stroke: #0000ff; stroke-width: 2; stroke-linecap: round"/>
    <path d="M 290.471339 32.354229 
L 285.801603 42.512653 
L 280.476706 32.68181 
z
" clip-path="url(#p327cd1798b)" style="fill: #0000ff; stroke: #0000ff; stroke-width: 2; stroke-linecap: round"/>
   </g>
   <g id="patch_18">
    <path d="M 312.069605 11.774451 
Q 317.17463 28.547116 321.628563 43.180603 
" clip-path="url(#p327cd1798b)" style="fill: none; stroke: #0000ff; stroke-width: 2; stroke-linecap: round"/>
    <path d="M 323.500135 32.158025 
L 321.628563 43.180603 
L 313.933444 35.069799 
z
" clip-path="url(#p327cd1798b)" style="fill: #0000ff; stroke: #0000ff; stroke-width: 2; stroke-linecap: round"/>
   </g>
   <g id="patch_19">
    <path d="M 337.683957 15.780122 
Q 347.05804 31.885174 355.307273 46.057687 
" clip-path="url(#p327cd1798b)" style="fill: none; stroke: #0000ff; stroke-width: 2; stroke-linecap: round"/>
    <path d="M 354.598075 34.899863 
L 355.307273 46.057687 
L 345.955495 39.930351 
z
" clip-path="url(#p327cd1798b)" style="fill: #0000ff; stroke: #0000ff; stroke-width: 2; stroke-linecap: round"/>
   </g>
   <g id="patch_20">
    <path d="M 361.015146 22.873819 
Q 374.277762 37.796589 386.054944 51.047985 
" clip-path="url(#p327cd1798b)" style="fill: none; stroke: #0000ff; stroke-width: 2; stroke-linecap: round"/>
    <path d="M 383.149188 40.251848 
L 386.054944 51.047985 
L 375.67458 46.894907 
z
" clip-path="url(#p327cd1798b)" style="fill: #0000ff; stroke: #0000ff; stroke-width: 2; stroke-linecap: round"/>
   </g>
   <g id="patch_21">
    <path d="M 381.542981 32.897797 
Q 398.226902 46.149903 413.159893 58.011239 
" clip-path="url(#p327cd1798b)" style="fill: none; stroke: #0000ff; stroke-width: 2; stroke-linecap: round"/>
    <path d="M 408.439354 47.876324 
L 413.159893 58.011239 
L 402.219637 55.706721 
z
" clip-path="url(#p327cd1798b)" style="fill: #0000ff; stroke: #0000ff; stroke-width: 2; stroke-linecap: round"/>
   </g>
   <g id="patch_22">
    <path d="M 398.825248 45.598834 
Q 418.389547 56.734101 436.010501 66.763289 
" clip-path="url(#p327cd1798b)" style="fill: none; stroke: #0000ff; stroke-width: 2; stroke-linecap: round"/>
    <path d="M 429.792868 57.471302 
L 436.010501 66.763289 
L 424.846331 66.162204 
z
" clip-path="url(#p327cd1798b)" style="fill: #0000ff; stroke: #0000ff; stroke-width: 2; stroke-linecap: round"/>
   </g>
   <g id="text_1">
    <!-- $Q$ -->
    <g transform="translate(405.588414 80.213445) scale(0.1728 -0.1728)">
     <defs>
      <path id="Cmmi10-51" d="M 1947 -141 
Q 1466 -141 1094 79 
Q 722 300 520 692 
Q 319 1084 319 1563 
Q 319 2259 714 2950 
Q 1109 3641 1756 4077 
Q 2403 4513 3109 4513 
Q 3475 4513 3778 4381 
Q 4081 4250 4290 4017 
Q 4500 3784 4614 3471 
Q 4728 3159 4728 2791 
Q 4728 2366 4581 1936 
Q 4434 1506 4171 1136 
Q 3909 766 3559 484 
Q 3209 203 2809 38 
Q 2850 -256 2934 -425 
Q 3019 -594 3256 -594 
Q 3506 -594 3726 -412 
Q 3947 -231 4006 13 
Q 4019 72 4078 72 
Q 4147 72 4147 -13 
Q 4100 -219 4008 -430 
Q 3916 -641 3786 -823 
Q 3656 -1006 3478 -1123 
Q 3300 -1241 3084 -1241 
Q 2547 -1241 2547 -550 
Q 2547 -509 2562 -332 
Q 2578 -156 2578 -44 
Q 2269 -141 1947 -141 
z
M 1709 300 
Q 1709 44 1991 44 
Q 2275 44 2591 184 
L 2591 244 
Q 2591 503 2509 648 
Q 2428 794 2194 794 
Q 2078 794 1964 723 
Q 1850 653 1779 539 
Q 1709 425 1709 300 
z
M 1544 288 
Q 1544 456 1637 612 
Q 1731 769 1881 864 
Q 2031 959 2203 959 
Q 2481 959 2607 771 
Q 2734 584 2778 281 
Q 3188 525 3500 978 
Q 3813 1431 3977 1973 
Q 4141 2516 4141 3003 
Q 4141 3356 4023 3656 
Q 3906 3956 3664 4140 
Q 3422 4325 3066 4325 
Q 2722 4325 2403 4156 
Q 2084 3988 1813 3706 
Q 1550 3434 1342 3032 
Q 1134 2631 1021 2193 
Q 909 1756 909 1356 
Q 909 947 1068 612 
Q 1228 278 1569 128 
Q 1544 194 1544 288 
z
" transform="scale(0.015625)"/>
     </defs>
     <use xlink:href="#Cmmi10-51" transform="translate(0 0.484375)"/>
    </g>
   </g>
   <g id="text_2">
    <!-- $P$ -->
    <g transform="translate(127.380758 197.374899) scale(0.1728 -0.1728)">
     <defs>
      <path id="Cmmi10-50" d="M 313 0 
Q 250 0 250 84 
Q 253 100 262 139 
Q 272 178 289 201 
Q 306 225 331 225 
Q 722 225 878 269 
Q 959 297 997 441 
L 1875 3956 
Q 1888 4019 1888 4044 
Q 1888 4113 1813 4122 
Q 1691 4147 1350 4147 
Q 1288 4147 1288 4231 
Q 1291 4247 1300 4286 
Q 1309 4325 1326 4348 
Q 1344 4372 1369 4372 
L 3578 4372 
Q 3881 4372 4165 4264 
Q 4450 4156 4631 3934 
Q 4813 3713 4813 3397 
Q 4813 2991 4527 2672 
Q 4241 2353 3814 2175 
Q 3388 1997 2988 1997 
L 1947 1997 
L 1556 416 
Q 1544 353 1544 325 
Q 1544 300 1551 283 
Q 1559 266 1573 261 
Q 1588 256 1619 250 
Q 1741 225 2081 225 
Q 2144 225 2144 141 
Q 2122 50 2109 25 
Q 2097 0 2034 0 
L 313 0 
z
M 1978 2188 
L 2875 2188 
Q 3497 2188 3822 2522 
Q 3988 2688 4092 3000 
Q 4197 3313 4197 3566 
Q 4197 3881 3956 4014 
Q 3716 4147 3359 4147 
L 2747 4147 
Q 2572 4147 2515 4117 
Q 2459 4088 2413 3928 
L 1978 2188 
z
" transform="scale(0.015625)"/>
     </defs>
     <use xlink:href="#Cmmi10-50" transform="translate(0 0.6875)"/>
    </g>
   </g>
  </g>
 </g>
 <defs>
  <clipPath id="p327cd1798b">
   <rect x="7.2" y="7.2" width="439.2" height="189.042124"/>
  </clipPath>
 </defs>
</svg>
