<?xml version="1.0" encoding="utf-8" standalone="no"?>
<!DOCTYPE svg PUBLIC "-//W3C//DTD SVG 1.1//EN"
  "http://www.w3.org/Graphics/SVG/1.1/DTD/svg11.dtd">
<svg xmlns:xlink="http://www.w3.org/1999/xlink" width="452.367692pt" height="250.241925pt" viewBox="0 0 452.367692 250.241925" xmlns="http://www.w3.org/2000/svg" version="1.1">
 <metadata>
  <rdf:RDF xmlns:dc="http://purl.org/dc/elements/1.1/" xmlns:cc="http://creativecommons.org/ns#" xmlns:rdf="http://www.w3.org/1999/02/22-rdf-syntax-ns#">
   <cc:Work>
    <dc:type rdf:resource="http://purl.org/dc/dcmitype/StillImage"/>
    <dc:date>2025-04-09T13:40:08.868977</dc:date>
    <dc:format>image/svg+xml</dc:format>
    <dc:creator>
     <cc:Agent>
      <dc:title>Matplotlib v3.8.0, https://matplotlib.org/</dc:title>
     </cc:Agent>
    </dc:creator>
   </cc:Work>
  </rdf:RDF>
 </metadata>
 <defs>
  <style type="text/css">*{stroke-linejoin: round; stroke-linecap: butt}</style>
 </defs>
 <g id="figure_1">
  <g id="patch_1">
   <path d="M 0 250.241925 
L 452.367692 250.241925 
L 452.367692 0 
L 0 0 
z
" style="fill: #ffffff"/>
  </g>
  <g id="axes_1">
   <g id="patch_2">
    <path d="M 7.2 237.798385 
L 445.167692 237.798385 
L 445.167692 7.2 
L 7.2 7.2 
z
" style="fill: #ffffff"/>
   </g>
   <g id="PathCollection_1">
    <path d="M 77.715239 218.831744 
C 78.652873 218.831744 79.552231 218.459218 80.215239 217.79621 
C 80.878246 217.133202 81.250773 216.233844 81.250773 215.29621 
C 81.250773 214.358575 80.878246 213.459218 80.215239 212.79621 
C 79.552231 212.133202 78.652873 211.760676 77.715239 211.760676 
C 76.777604 211.760676 75.878246 212.133202 75.215239 212.79621 
C 74.552231 213.459218 74.179705 214.358575 74.179705 215.29621 
C 74.179705 216.233844 74.552231 217.133202 75.215239 217.79621 
C 75.878246 218.459218 76.777604 218.831744 77.715239 218.831744 
z
" clip-path="url(#p837eb39ca9)"/>
   </g>
   <g id="PathCollection_2">
    <path d="M 418.677646 75.908206 
C 419.615281 75.908206 420.514638 75.53568 421.177646 74.872672 
C 421.840654 74.209664 422.21318 73.310307 422.21318 72.372672 
C 422.21318 71.435037 421.840654 70.53568 421.177646 69.872672 
C 420.514638 69.209664 419.615281 68.837138 418.677646 68.837138 
C 417.740012 68.837138 416.840654 69.209664 416.177646 69.872672 
C 415.514638 70.53568 415.142112 71.435037 415.142112 72.372672 
C 415.142112 73.310307 415.514638 74.209664 416.177646 74.872672 
C 416.840654 75.53568 417.740012 75.908206 418.677646 75.908206 
z
" clip-path="url(#p837eb39ca9)"/>
   </g>
   <g id="matplotlib.axis_1"/>
   <g id="matplotlib.axis_2"/>
   <g id="line2d_1">
    <path d="M 418.677646 72.372672 
L 414.827685 67.409836 
L 411.294854 63.301011 
L 406.531343 58.306326 
L 401.692354 53.759997 
L 396.362077 49.260258 
L 391.282848 45.391124 
L 388.432366 43.376778 
L 383.042717 39.842624 
L 378.410722 37.064475 
L 372.28117 33.716021 
L 365.834805 30.555135 
L 360.610254 28.237718 
L 355.529207 26.1759 
L 350.30414 24.238659 
L 343.144577 21.862952 
L 336.256041 19.85836 
L 330.062449 18.274216 
L 324.519817 17.02089 
L 315.404453 15.275885 
L 307.77051 14.098397 
L 300.023634 13.151729 
L 290.232562 12.292647 
L 280.369672 11.787051 
L 273.711235 11.640158 
L 264.785944 11.67905 
L 255.568549 11.992794 
L 247.278535 12.504663 
L 237.978079 13.330563 
L 230.132045 14.229655 
L 220.783427 15.538269 
L 214.727727 16.521986 
L 206.122692 18.102225 
L 196.478327 20.126678 
L 187.895914 22.153407 
L 177.376735 24.928591 
L 167.509238 27.827171 
L 161.024435 29.890679 
L 154.361864 32.144592 
L 145.307055 35.431001 
L 136.342079 38.947353 
L 128.137277 42.405211 
L 119.281364 46.409033 
L 111.521142 50.164122 
L 104.112897 53.97955 
L 97.798335 57.423069 
L 88.674211 62.739337 
L 82.205722 66.777924 
L 77.7555 69.70061 
L 71.101867 74.314153 
L 66.291999 77.852066 
L 60.6724 82.231621 
L 54.025797 87.810976 
L 49.580753 91.829722 
L 45.368284 95.894163 
L 40.94461 100.486058 
L 37.4403 104.412214 
L 33.768085 108.871298 
L 31.412164 111.964534 
L 28.974214 115.407603 
L 26.040595 119.975819 
L 24.235994 123.095355 
L 22.037741 127.350131 
L 20.752884 130.164166 
L 19.009746 134.589392 
L 18.103063 137.331606 
L 16.951732 141.648702 
L 16.343571 144.72038 
L 15.977464 147.256659 
L 15.663935 151.110179 
L 15.622456 153.657691 
L 15.723853 156.303034 
L 16.134199 160.086429 
L 16.693699 163.098852 
L 17.266605 165.401447 
L 18.206141 168.390657 
L 19.308221 171.219674 
L 21.096836 174.951684 
L 22.598507 177.580009 
L 24.550328 180.548228 
L 26.483861 183.13214 
L 29.349112 186.493708 
L 32.16985 189.400426 
L 34.59572 191.656421 
L 38.347208 194.798213 
L 41.858965 197.434245 
L 46.525308 200.576728 
L 51.716636 203.686698 
L 56.440224 206.230556 
L 63.117248 209.44815 
L 69.685067 212.256569 
L 77.715239 215.29621 
L 77.715239 215.29621 
" clip-path="url(#p837eb39ca9)" style="fill: none; stroke: #000000; stroke-width: 2; stroke-linecap: square"/>
   </g>
   <g id="text_1">
    <!-- $P$ -->
    <g transform="translate(80.249034 238.88255) scale(0.2 -0.2)">
     <defs>
      <path id="Cmmi10-50" d="M 313 0 
Q 250 0 250 84 
Q 253 100 262 139 
Q 272 178 289 201 
Q 306 225 331 225 
Q 722 225 878 269 
Q 959 297 997 441 
L 1875 3956 
Q 1888 4019 1888 4044 
Q 1888 4113 1813 4122 
Q 1691 4147 1350 4147 
Q 1288 4147 1288 4231 
Q 1291 4247 1300 4286 
Q 1309 4325 1326 4348 
Q 1344 4372 1369 4372 
L 3578 4372 
Q 3881 4372 4165 4264 
Q 4450 4156 4631 3934 
Q 4813 3713 4813 3397 
Q 4813 2991 4527 2672 
Q 4241 2353 3814 2175 
Q 3388 1997 2988 1997 
L 1947 1997 
L 1556 416 
Q 1544 353 1544 325 
Q 1544 300 1551 283 
Q 1559 266 1573 261 
Q 1588 256 1619 250 
Q 1741 225 2081 225 
Q 2144 225 2144 141 
Q 2122 50 2109 25 
Q 2097 0 2034 0 
L 313 0 
z
M 1978 2188 
L 2875 2188 
Q 3497 2188 3822 2522 
Q 3988 2688 4092 3000 
Q 4197 3313 4197 3566 
Q 4197 3881 3956 4014 
Q 3716 4147 3359 4147 
L 2747 4147 
Q 2572 4147 2515 4117 
Q 2459 4088 2413 3928 
L 1978 2188 
z
" transform="scale(0.015625)"/>
     </defs>
     <use xlink:href="#Cmmi10-50" transform="translate(0 0.6875)"/>
    </g>
   </g>
   <g id="text_2">
    <!-- $Q$ -->
    <g transform="translate(428.745237 95.959012) scale(0.2 -0.2)">
     <defs>
      <path id="Cmmi10-51" d="M 1947 -141 
Q 1466 -141 1094 79 
Q 722 300 520 692 
Q 319 1084 319 1563 
Q 319 2259 714 2950 
Q 1109 3641 1756 4077 
Q 2403 4513 3109 4513 
Q 3475 4513 3778 4381 
Q 4081 4250 4290 4017 
Q 4500 3784 4614 3471 
Q 4728 3159 4728 2791 
Q 4728 2366 4581 1936 
Q 4434 1506 4171 1136 
Q 3909 766 3559 484 
Q 3209 203 2809 38 
Q 2850 -256 2934 -425 
Q 3019 -594 3256 -594 
Q 3506 -594 3726 -412 
Q 3947 -231 4006 13 
Q 4019 72 4078 72 
Q 4147 72 4147 -13 
Q 4100 -219 4008 -430 
Q 3916 -641 3786 -823 
Q 3656 -1006 3478 -1123 
Q 3300 -1241 3084 -1241 
Q 2547 -1241 2547 -550 
Q 2547 -509 2562 -332 
Q 2578 -156 2578 -44 
Q 2269 -141 1947 -141 
z
M 1709 300 
Q 1709 44 1991 44 
Q 2275 44 2591 184 
L 2591 244 
Q 2591 503 2509 648 
Q 2428 794 2194 794 
Q 2078 794 1964 723 
Q 1850 653 1779 539 
Q 1709 425 1709 300 
z
M 1544 288 
Q 1544 456 1637 612 
Q 1731 769 1881 864 
Q 2031 959 2203 959 
Q 2481 959 2607 771 
Q 2734 584 2778 281 
Q 3188 525 3500 978 
Q 3813 1431 3977 1973 
Q 4141 2516 4141 3003 
Q 4141 3356 4023 3656 
Q 3906 3956 3664 4140 
Q 3422 4325 3066 4325 
Q 2722 4325 2403 4156 
Q 2084 3988 1813 3706 
Q 1550 3434 1342 3032 
Q 1134 2631 1021 2193 
Q 909 1756 909 1356 
Q 909 947 1068 612 
Q 1228 278 1569 128 
Q 1544 194 1544 288 
z
" transform="scale(0.015625)"/>
     </defs>
     <use xlink:href="#Cmmi10-51" transform="translate(0 0.484375)"/>
    </g>
   </g>
  </g>
 </g>
 <defs>
  <clipPath id="p837eb39ca9">
   <rect x="7.2" y="7.2" width="437.967692" height="230.598385"/>
  </clipPath>
 </defs>
</svg>
