<?xml version="1.0" encoding="utf-8" standalone="no"?>
<!DOCTYPE svg PUBLIC "-//W3C//DTD SVG 1.1//EN"
  "http://www.w3.org/Graphics/SVG/1.1/DTD/svg11.dtd">
<svg xmlns:xlink="http://www.w3.org/1999/xlink" width="453.6pt" height="208.163404pt" viewBox="0 0 453.6 208.163404" xmlns="http://www.w3.org/2000/svg" version="1.1">
 <metadata>
  <rdf:RDF xmlns:dc="http://purl.org/dc/elements/1.1/" xmlns:cc="http://creativecommons.org/ns#" xmlns:rdf="http://www.w3.org/1999/02/22-rdf-syntax-ns#">
   <cc:Work>
    <dc:type rdf:resource="http://purl.org/dc/dcmitype/StillImage"/>
    <dc:date>2025-06-11T11:20:00.059027</dc:date>
    <dc:format>image/svg+xml</dc:format>
    <dc:creator>
     <cc:Agent>
      <dc:title>Matplotlib v3.8.0, https://matplotlib.org/</dc:title>
     </cc:Agent>
    </dc:creator>
   </cc:Work>
  </rdf:RDF>
 </metadata>
 <defs>
  <style type="text/css">*{stroke-linejoin: round; stroke-linecap: butt}</style>
 </defs>
 <g id="figure_1">
  <g id="patch_1">
   <path d="M 0 208.163404 
L 453.6 208.163404 
L 453.6 0 
L 0 0 
z
" style="fill: #ffffff"/>
  </g>
  <g id="axes_1">
   <g id="patch_2">
    <path d="M 7.2 196.236828 
L 446.4 196.236828 
L 446.4 7.2 
L 7.2 7.2 
z
" style="fill: #ffffff"/>
   </g>
   <g id="PathCollection_1">
    <path d="M 412.500414 64.164692 
C 413.438048 64.164692 414.337406 63.792166 415.000414 63.129158 
C 415.663422 62.46615 416.035948 61.566793 416.035948 60.629158 
C 416.035948 59.691524 415.663422 58.792166 415.000414 58.129158 
C 414.337406 57.46615 413.438048 57.093624 412.500414 57.093624 
C 411.562779 57.093624 410.663422 57.46615 410.000414 58.129158 
C 409.337406 58.792166 408.96488 59.691524 408.96488 60.629158 
C 408.96488 61.566793 409.337406 62.46615 410.000414 63.129158 
C 410.663422 63.792166 411.562779 64.164692 412.500414 64.164692 
z
" clip-path="url(#p592cdffe02)"/>
   </g>
   <g id="PathCollection_2">
    <path d="M 132.996758 181.326146 
C 133.934393 181.326146 134.833751 180.95362 135.496758 180.290612 
C 136.159766 179.627604 136.532292 178.728246 136.532292 177.790612 
C 136.532292 176.852977 136.159766 175.95362 135.496758 175.290612 
C 134.833751 174.627604 133.934393 174.255078 132.996758 174.255078 
C 132.059124 174.255078 131.159766 174.627604 130.496758 175.290612 
C 129.833751 175.95362 129.461224 176.852977 129.461224 177.790612 
C 129.461224 178.728246 129.833751 179.627604 130.496758 180.290612 
C 131.159766 180.95362 132.059124 181.326146 132.996758 181.326146 
z
" clip-path="url(#p592cdffe02)"/>
   </g>
   <g id="matplotlib.axis_1"/>
   <g id="matplotlib.axis_2"/>
   <g id="line2d_1">
    <path d="M 412.500414 60.629158 
L 409.320827 56.532141 
L 405.305443 51.945258 
L 402.251173 48.809815 
L 398.49721 45.300626 
L 394.34161 41.790412 
L 391.091652 39.280722 
L 386.615227 36.117537 
L 381.696858 32.985318 
L 376.990091 30.282433 
L 373.429563 28.408902 
L 366.993266 25.356883 
L 362.14888 23.316653 
L 356.340047 21.132028 
L 352.716836 19.90284 
L 345.162004 17.642416 
L 337.828993 15.807862 
L 332.687895 14.715943 
L 326.583154 13.613339 
L 320.700728 12.738871 
L 313.600627 11.915043 
L 306.04723 11.301323 
L 301.411397 11.052397 
L 292.686097 10.835324 
L 285.954948 10.883439 
L 278.075182 11.168741 
L 269.566776 11.744713 
L 262.346572 12.445319 
L 254.951851 13.359797 
L 246.970899 14.566529 
L 237.214448 16.347625 
L 229.521175 17.987842 
L 220.098186 20.280343 
L 211.29045 22.707946 
L 205.129727 24.572121 
L 196.719513 27.342853 
L 189.600439 29.89789 
L 180.826512 33.322372 
L 172.903771 36.689582 
L 165.270801 40.196626 
L 159.341964 43.111237 
L 150.738443 47.662937 
L 143.832528 51.620507 
L 137.628454 55.434842 
L 131.762064 59.295554 
L 125.387668 63.811482 
L 121.137439 67.036629 
L 116.176717 71.0544 
L 111.391772 75.235487 
L 107.336742 79.063518 
L 103.676365 82.794653 
L 100.461045 86.339518 
L 98.364906 88.815937 
L 94.717057 93.525593 
L 91.686259 97.962711 
L 89.44015 101.701609 
L 87.259078 105.897687 
L 86.033887 108.633187 
L 84.634725 112.316581 
L 83.718762 115.294267 
L 83.011161 118.22078 
L 82.357209 122.273092 
L 82.164915 124.494351 
L 82.120564 128.295316 
L 82.369401 131.456379 
L 82.78967 134.114863 
L 83.576836 137.357144 
L 84.497214 140.115828 
L 85.635857 142.818803 
L 86.855497 145.220003 
L 88.655214 148.193999 
L 90.646017 150.972079 
L 92.567312 153.305919 
L 95.15149 156.061022 
L 97.731209 158.484463 
L 100.575325 160.869065 
L 104.340052 163.668337 
L 107.945282 166.050032 
L 111.857301 168.371245 
L 115.735594 170.450729 
L 121.404847 173.165646 
L 125.908226 175.093471 
L 131.561327 177.274396 
L 132.996758 177.790612 
L 132.996758 177.790612 
" clip-path="url(#p592cdffe02)" style="fill: none; stroke: #000000; stroke-width: 2; stroke-linecap: square"/>
   </g>
   <g id="patch_3">
    <path d="M 132.996758 177.790612 
Q 108.256309 166.89305 85.562207 156.896855 
" clip-path="url(#p592cdffe02)" style="fill: none; stroke: #0000ff; stroke-width: 2; stroke-linecap: round"/>
    <path d="M 92.698237 165.503659 
L 85.562207 156.896855 
L 96.729268 156.352113 
z
" clip-path="url(#p592cdffe02)" style="fill: #0000ff; stroke: #0000ff; stroke-width: 2; stroke-linecap: round"/>
   </g>
   <g id="patch_4">
    <path d="M 110.582315 167.641512 
Q 82.106125 158.435467 55.757579 149.917267 
" clip-path="url(#p592cdffe02)" style="fill: none; stroke: #0000ff; stroke-width: 2; stroke-linecap: round"/>
    <path d="M 63.734627 157.750958 
L 55.757579 149.917267 
L 66.81076 148.235843 
z
" clip-path="url(#p592cdffe02)" style="fill: #0000ff; stroke: #0000ff; stroke-width: 2; stroke-linecap: round"/>
   </g>
   <g id="patch_5">
    <path d="M 94.609381 155.513508 
Q 63.471035 148.328797 34.511511 141.646817 
" clip-path="url(#p592cdffe02)" style="fill: none; stroke: #0000ff; stroke-width: 2; stroke-linecap: round"/>
    <path d="M 43.131355 148.767089 
L 34.511511 141.646817 
L 45.379635 139.023104 
z
" clip-path="url(#p592cdffe02)" style="fill: #0000ff; stroke: #0000ff; stroke-width: 2; stroke-linecap: round"/>
   </g>
   <g id="patch_6">
    <path d="M 85.152498 141.740183 
Q 52.438005 136.851026 21.935019 132.292377 
" clip-path="url(#p592cdffe02)" style="fill: none; stroke: #0000ff; stroke-width: 2; stroke-linecap: round"/>
    <path d="M 31.086142 138.715535 
L 21.935019 132.292377 
L 32.564219 128.825374 
z
" clip-path="url(#p592cdffe02)" style="fill: #0000ff; stroke: #0000ff; stroke-width: 2; stroke-linecap: round"/>
   </g>
   <g id="patch_7">
    <path d="M 82.094479 126.715414 
Q 48.870316 124.330385 17.876483 122.105463 
" clip-path="url(#p592cdffe02)" style="fill: none; stroke: #0000ff; stroke-width: 2; stroke-linecap: round"/>
    <path d="M 27.492807 127.808647 
L 17.876483 122.105463 
L 28.208824 117.834314 
z
" clip-path="url(#p592cdffe02)" style="fill: #0000ff; stroke: #0000ff; stroke-width: 2; stroke-linecap: round"/>
   </g>
   <g id="patch_8">
    <path d="M 85.145013 110.882162 
Q 52.429273 111.136009 21.949533 111.372506 
" clip-path="url(#p592cdffe02)" style="fill: none; stroke: #0000ff; stroke-width: 2; stroke-linecap: round"/>
    <path d="M 31.988027 116.294766 
L 21.949533 111.372506 
L 31.910438 106.295067 
z
" clip-path="url(#p592cdffe02)" style="fill: #0000ff; stroke: #0000ff; stroke-width: 2; stroke-linecap: round"/>
   </g>
   <g id="patch_9">
    <path d="M 93.862811 94.719427 
Q 62.600037 97.667063 33.563458 100.4048 
" clip-path="url(#p592cdffe02)" style="fill: none; stroke: #0000ff; stroke-width: 2; stroke-linecap: round"/>
    <path d="M 43.98865 104.444028 
L 33.563458 100.4048 
L 43.049955 94.488183 
z
" clip-path="url(#p592cdffe02)" style="fill: #0000ff; stroke: #0000ff; stroke-width: 2; stroke-linecap: round"/>
   </g>
   <g id="patch_10">
    <path d="M 107.680175 78.727761 
Q 78.720295 84.340674 51.955632 89.528118 
" clip-path="url(#p592cdffe02)" style="fill: none; stroke: #0000ff; stroke-width: 2; stroke-linecap: round"/>
    <path d="M 62.724318 92.534011 
L 51.955632 89.528118 
L 60.821558 82.716705 
z
" clip-path="url(#p592cdffe02)" style="fill: #0000ff; stroke: #0000ff; stroke-width: 2; stroke-linecap: round"/>
   </g>
   <g id="patch_11">
    <path d="M 125.928882 63.413765 
Q 100.010453 71.579011 76.22476 79.072368 
" clip-path="url(#p592cdffe02)" style="fill: none; stroke: #0000ff; stroke-width: 2; stroke-linecap: round"/>
    <path d="M 87.265038 80.836531 
L 76.22476 79.072368 
L 84.260257 71.298644 
z
" clip-path="url(#p592cdffe02)" style="fill: #0000ff; stroke: #0000ff; stroke-width: 2; stroke-linecap: round"/>
   </g>
   <g id="patch_12">
    <path d="M 147.866346 49.274067 
Q 125.604162 59.79593 105.363617 69.362297 
" clip-path="url(#p592cdffe02)" style="fill: none; stroke: #0000ff; stroke-width: 2; stroke-linecap: round"/>
    <path d="M 116.541219 69.609715 
L 105.363617 69.362297 
L 112.268113 60.568666 
z
" clip-path="url(#p592cdffe02)" style="fill: #0000ff; stroke: #0000ff; stroke-width: 2; stroke-linecap: round"/>
   </g>
   <g id="patch_13">
    <path d="M 172.701152 36.779265 
Q 154.578101 49.383594 138.290794 60.71119 
" clip-path="url(#p592cdffe02)" style="fill: none; stroke: #0000ff; stroke-width: 2; stroke-linecap: round"/>
    <path d="M 149.355348 59.10631 
L 138.290794 60.71119 
L 143.645622 50.896619 
z
" clip-path="url(#p592cdffe02)" style="fill: #0000ff; stroke: #0000ff; stroke-width: 2; stroke-linecap: round"/>
   </g>
   <g id="patch_14">
    <path d="M 199.617158 26.358372 
Q 185.980109 40.699517 173.88392 53.420246 
" clip-path="url(#p592cdffe02)" style="fill: none; stroke: #0000ff; stroke-width: 2; stroke-linecap: round"/>
    <path d="M 184.398218 49.618991 
L 173.88392 53.420246 
L 177.151495 42.728055 
z
" clip-path="url(#p592cdffe02)" style="fill: #0000ff; stroke: #0000ff; stroke-width: 2; stroke-linecap: round"/>
   </g>
   <g id="patch_15">
    <path d="M 227.795575 18.384268 
Q 218.854929 34.054431 211.022399 47.78241 
" clip-path="url(#p592cdffe02)" style="fill: none; stroke: #0000ff; stroke-width: 2; stroke-linecap: round"/>
    <path d="M 220.320904 41.574527 
L 211.022399 47.78241 
L 211.635196 36.618876 
z
" clip-path="url(#p592cdffe02)" style="fill: #0000ff; stroke: #0000ff; stroke-width: 2; stroke-linecap: round"/>
   </g>
   <g id="patch_16">
    <path d="M 256.434551 13.16064 
Q 252.267066 29.701407 248.645892 44.073869 
" clip-path="url(#p592cdffe02)" style="fill: none; stroke: #0000ff; stroke-width: 2; stroke-linecap: round"/>
    <path d="M 255.937539 35.5985 
L 248.645892 44.073869 
L 246.240584 33.15533 
z
" clip-path="url(#p592cdffe02)" style="fill: #0000ff; stroke: #0000ff; stroke-width: 2; stroke-linecap: round"/>
   </g>
   <g id="patch_17">
    <path d="M 284.766003 10.910868 
Q 285.320428 27.826597 285.801603 42.507458 
" clip-path="url(#p592cdffe02)" style="fill: none; stroke: #0000ff; stroke-width: 2; stroke-linecap: round"/>
    <path d="M 290.471339 32.349035 
L 285.801603 42.507458 
L 280.476706 32.676616 
z
" clip-path="url(#p592cdffe02)" style="fill: #0000ff; stroke: #0000ff; stroke-width: 2; stroke-linecap: round"/>
   </g>
   <g id="patch_18">
    <path d="M 312.069605 11.769257 
Q 317.17463 28.541921 321.628563 43.175408 
" clip-path="url(#p592cdffe02)" style="fill: none; stroke: #0000ff; stroke-width: 2; stroke-linecap: round"/>
    <path d="M 323.500135 32.152831 
L 321.628563 43.175408 
L 313.933444 35.064604 
z
" clip-path="url(#p592cdffe02)" style="fill: #0000ff; stroke: #0000ff; stroke-width: 2; stroke-linecap: round"/>
   </g>
   <g id="patch_19">
    <path d="M 337.683957 15.774927 
Q 347.05804 31.87998 355.307273 46.052493 
" clip-path="url(#p592cdffe02)" style="fill: none; stroke: #0000ff; stroke-width: 2; stroke-linecap: round"/>
    <path d="M 354.598075 34.894668 
L 355.307273 46.052493 
L 345.955495 39.925156 
z
" clip-path="url(#p592cdffe02)" style="fill: #0000ff; stroke: #0000ff; stroke-width: 2; stroke-linecap: round"/>
   </g>
   <g id="patch_20">
    <path d="M 361.015146 22.868624 
Q 374.277762 37.791394 386.054944 51.042791 
" clip-path="url(#p592cdffe02)" style="fill: none; stroke: #0000ff; stroke-width: 2; stroke-linecap: round"/>
    <path d="M 383.149188 40.246653 
L 386.054944 51.042791 
L 375.67458 46.889713 
z
" clip-path="url(#p592cdffe02)" style="fill: #0000ff; stroke: #0000ff; stroke-width: 2; stroke-linecap: round"/>
   </g>
   <g id="patch_21">
    <path d="M 381.542981 32.892602 
Q 398.226902 46.144709 413.159893 58.006045 
" clip-path="url(#p592cdffe02)" style="fill: none; stroke: #0000ff; stroke-width: 2; stroke-linecap: round"/>
    <path d="M 408.439354 47.871129 
L 413.159893 58.006045 
L 402.219637 55.701527 
z
" clip-path="url(#p592cdffe02)" style="fill: #0000ff; stroke: #0000ff; stroke-width: 2; stroke-linecap: round"/>
   </g>
   <g id="patch_22">
    <path d="M 398.825248 45.593639 
Q 418.389547 56.728906 436.010501 66.758095 
" clip-path="url(#p592cdffe02)" style="fill: none; stroke: #0000ff; stroke-width: 2; stroke-linecap: round"/>
    <path d="M 429.792868 57.466107 
L 436.010501 66.758095 
L 424.846331 66.157009 
z
" clip-path="url(#p592cdffe02)" style="fill: #0000ff; stroke: #0000ff; stroke-width: 2; stroke-linecap: round"/>
   </g>
   <g id="text_1">
    <!-- $Q$ -->
    <g transform="translate(405.588414 80.208251) scale(0.1728 -0.1728)">
     <defs>
      <path id="Cmmi10-51" d="M 1947 -141 
Q 1466 -141 1094 79 
Q 722 300 520 692 
Q 319 1084 319 1563 
Q 319 2259 714 2950 
Q 1109 3641 1756 4077 
Q 2403 4513 3109 4513 
Q 3475 4513 3778 4381 
Q 4081 4250 4290 4017 
Q 4500 3784 4614 3471 
Q 4728 3159 4728 2791 
Q 4728 2366 4581 1936 
Q 4434 1506 4171 1136 
Q 3909 766 3559 484 
Q 3209 203 2809 38 
Q 2850 -256 2934 -425 
Q 3019 -594 3256 -594 
Q 3506 -594 3726 -412 
Q 3947 -231 4006 13 
Q 4019 72 4078 72 
Q 4147 72 4147 -13 
Q 4100 -219 4008 -430 
Q 3916 -641 3786 -823 
Q 3656 -1006 3478 -1123 
Q 3300 -1241 3084 -1241 
Q 2547 -1241 2547 -550 
Q 2547 -509 2562 -332 
Q 2578 -156 2578 -44 
Q 2269 -141 1947 -141 
z
M 1709 300 
Q 1709 44 1991 44 
Q 2275 44 2591 184 
L 2591 244 
Q 2591 503 2509 648 
Q 2428 794 2194 794 
Q 2078 794 1964 723 
Q 1850 653 1779 539 
Q 1709 425 1709 300 
z
M 1544 288 
Q 1544 456 1637 612 
Q 1731 769 1881 864 
Q 2031 959 2203 959 
Q 2481 959 2607 771 
Q 2734 584 2778 281 
Q 3188 525 3500 978 
Q 3813 1431 3977 1973 
Q 4141 2516 4141 3003 
Q 4141 3356 4023 3656 
Q 3906 3956 3664 4140 
Q 3422 4325 3066 4325 
Q 2722 4325 2403 4156 
Q 2084 3988 1813 3706 
Q 1550 3434 1342 3032 
Q 1134 2631 1021 2193 
Q 909 1756 909 1356 
Q 909 947 1068 612 
Q 1228 278 1569 128 
Q 1544 194 1544 288 
z
" transform="scale(0.015625)"/>
     </defs>
     <use xlink:href="#Cmmi10-51" transform="translate(0 0.484375)"/>
    </g>
   </g>
   <g id="text_2">
    <!-- $P$ -->
    <g transform="translate(127.380758 197.369704) scale(0.1728 -0.1728)">
     <defs>
      <path id="Cmmi10-50" d="M 313 0 
Q 250 0 250 84 
Q 253 100 262 139 
Q 272 178 289 201 
Q 306 225 331 225 
Q 722 225 878 269 
Q 959 297 997 441 
L 1875 3956 
Q 1888 4019 1888 4044 
Q 1888 4113 1813 4122 
Q 1691 4147 1350 4147 
Q 1288 4147 1288 4231 
Q 1291 4247 1300 4286 
Q 1309 4325 1326 4348 
Q 1344 4372 1369 4372 
L 3578 4372 
Q 3881 4372 4165 4264 
Q 4450 4156 4631 3934 
Q 4813 3713 4813 3397 
Q 4813 2991 4527 2672 
Q 4241 2353 3814 2175 
Q 3388 1997 2988 1997 
L 1947 1997 
L 1556 416 
Q 1544 353 1544 325 
Q 1544 300 1551 283 
Q 1559 266 1573 261 
Q 1588 256 1619 250 
Q 1741 225 2081 225 
Q 2144 225 2144 141 
Q 2122 50 2109 25 
Q 2097 0 2034 0 
L 313 0 
z
M 1978 2188 
L 2875 2188 
Q 3497 2188 3822 2522 
Q 3988 2688 4092 3000 
Q 4197 3313 4197 3566 
Q 4197 3881 3956 4014 
Q 3716 4147 3359 4147 
L 2747 4147 
Q 2572 4147 2515 4117 
Q 2459 4088 2413 3928 
L 1978 2188 
z
" transform="scale(0.015625)"/>
     </defs>
     <use xlink:href="#Cmmi10-50" transform="translate(0 0.6875)"/>
    </g>
   </g>
  </g>
 </g>
 <defs>
  <clipPath id="p592cdffe02">
   <rect x="7.2" y="7.2" width="439.2" height="189.036828"/>
  </clipPath>
 </defs>
</svg>
