<?xml version="1.0" encoding="utf-8" standalone="no"?>
<!DOCTYPE svg PUBLIC "-//W3C//DTD SVG 1.1//EN"
  "http://www.w3.org/Graphics/SVG/1.1/DTD/svg11.dtd">
<svg xmlns:xlink="http://www.w3.org/1999/xlink" width="392.68762pt" height="338.4pt" viewBox="0 0 392.68762 338.4" xmlns="http://www.w3.org/2000/svg" version="1.1">
 <metadata>
  <rdf:RDF xmlns:dc="http://purl.org/dc/elements/1.1/" xmlns:cc="http://creativecommons.org/ns#" xmlns:rdf="http://www.w3.org/1999/02/22-rdf-syntax-ns#">
   <cc:Work>
    <dc:type rdf:resource="http://purl.org/dc/dcmitype/StillImage"/>
    <dc:date>2025-08-22T20:32:40.458448</dc:date>
    <dc:format>image/svg+xml</dc:format>
    <dc:creator>
     <cc:Agent>
      <dc:title>Matplotlib v3.10.3, https://matplotlib.org/</dc:title>
     </cc:Agent>
    </dc:creator>
   </cc:Work>
  </rdf:RDF>
 </metadata>
 <defs>
  <style type="text/css">*{stroke-linejoin: round; stroke-linecap: butt}</style>
 </defs>
 <g id="figure_1">
  <g id="patch_1">
   <path d="M 0 338.4 
L 392.68762 338.4 
L 392.68762 0 
L 0 0 
z
" style="fill: #ffffff"/>
  </g>
  <g id="axes_1">
   <g id="patch_2">
    <path d="M 7.2 331.2 
L 385.48762 331.2 
L 385.48762 7.2 
L 7.2 7.2 
z
" style="fill: #ffffff"/>
   </g>
   <g id="PathCollection_1">
    <path d="M 378.212858 246.763773 
C 379.150492 246.763773 380.04985 246.391246 380.712858 245.728239 
C 381.375866 245.065231 381.748392 244.165873 381.748392 243.228239 
C 381.748392 242.290604 381.375866 241.391246 380.712858 240.728239 
C 380.04985 240.065231 379.150492 239.692705 378.212858 239.692705 
C 377.275223 239.692705 376.375866 240.065231 375.712858 240.728239 
C 375.04985 241.391246 374.677324 242.290604 374.677324 243.228239 
C 374.677324 244.165873 375.04985 245.065231 375.712858 245.728239 
C 376.375866 246.391246 377.275223 246.763773 378.212858 246.763773 
z
" clip-path="url(#pa05eba9399)"/>
   </g>
   <g id="PathCollection_2">
    <path d="M 137.732477 100.648147 
C 138.670111 100.648147 139.569469 100.27562 140.232477 99.612613 
C 140.895485 98.949605 141.268011 98.050247 141.268011 97.112613 
C 141.268011 96.174978 140.895485 95.27562 140.232477 94.612613 
C 139.569469 93.949605 138.670111 93.577079 137.732477 93.577079 
C 136.794842 93.577079 135.895485 93.949605 135.232477 94.612613 
C 134.569469 95.27562 134.196943 96.174978 134.196943 97.112613 
C 134.196943 98.050247 134.569469 98.949605 135.232477 99.612613 
C 135.895485 100.27562 136.794842 100.648147 137.732477 100.648147 
z
" clip-path="url(#pa05eba9399)"/>
   </g>
   <g id="matplotlib.axis_1"/>
   <g id="matplotlib.axis_2"/>
   <g id="line2d_1">
    <path d="M 378.212858 243.228239 
L 313.403355 163.521112 
L 299.776944 147.259764 
L 284.95827 130.014765 
L 274.396895 118.071074 
L 262.412694 104.935707 
L 250.628351 92.51917 
L 241.931858 83.715984 
L 234.651107 76.605442 
L 229.726247 71.939743 
L 221.060045 64.03197 
L 212.055093 56.254418 
L 204.887132 50.409346 
L 197.346857 44.616457 
L 190.845205 39.933736 
L 181.232379 33.578936 
L 177.437172 31.268233 
L 174.064985 29.314036 
L 167.656811 25.867716 
L 160.869163 22.618795 
L 154.151045 19.835207 
L 146.36435 17.183204 
L 145.530151 16.937452 
L 138.548474 15.186607 
L 132.260503 14.099655 
L 128.849782 13.715368 
L 124.019361 13.430769 
L 118.378876 13.503048 
L 113.753818 13.905937 
L 110.782152 14.336497 
L 106.862697 15.119208 
L 104.300855 15.767965 
L 99.462939 17.303046 
L 95.680485 18.799437 
L 91.690369 20.676072 
L 87.207566 23.171181 
L 83.055351 25.870927 
L 78.811326 29.043592 
L 76.20218 31.214467 
L 72.088182 35.001062 
L 68.567584 38.61833 
L 65.561165 42.002605 
L 61.721326 46.751169 
L 58.128009 51.664213 
L 54.461973 57.189966 
L 50.935305 63.046018 
L 47.807435 68.732228 
L 45.055371 74.160607 
L 41.812994 81.128798 
L 39.504092 86.514689 
L 36.414596 94.352809 
L 33.466046 102.616277 
L 30.441569 112.051799 
L 28.47247 118.828293 
L 26.688332 125.491849 
L 25.014613 132.286771 
L 22.545049 143.539147 
L 20.722132 153.114314 
L 19.312026 161.584188 
L 18.077099 170.114918 
L 16.654135 182.046347 
L 15.885019 190.181735 
L 15.20119 199.561125 
L 14.689581 210.306766 
L 14.487598 219.794937 
L 14.548533 230.106975 
L 14.895242 239.857972 
L 15.490362 248.873143 
L 16.351504 257.633896 
L 17.390144 265.467835 
L 18.315458 271.096794 
L 20.043842 279.588483 
L 21.450043 285.213304 
L 23.350667 291.575347 
L 25.462544 297.425573 
L 27.315316 301.757554 
L 28.820497 304.832683 
L 30.904789 308.541982 
L 32.886968 311.565757 
L 34.855796 314.152378 
L 35.997199 315.482735 
L 38.503938 318.016185 
L 40.682808 319.8295 
L 43.102778 321.468238 
L 44.090977 322.033462 
L 47.413066 323.532493 
L 48.859227 324.006262 
L 50.878186 324.501271 
L 53.410236 324.866606 
L 55.497655 324.969231 
L 57.843185 324.885544 
L 60.195893 324.603799 
L 63.562842 323.880996 
L 65.04558 323.450778 
L 69.215223 321.900972 
L 72.642702 320.277554 
L 72.642702 320.277554 
" clip-path="url(#pa05eba9399)" style="fill: none; stroke: #000000; stroke-linecap: square"/>
   </g>
   <g id="line2d_2">
    <path d="M 72.642702 320.277554 
L 77.454441 315.856057 
L 82.766169 310.595727 
L 87.103985 305.943321 
L 90.18274 302.40761 
L 94.348531 297.25043 
L 97.764723 292.631737 
L 101.424043 287.192468 
L 104.653464 281.850495 
L 107.201213 277.170219 
L 109.37483 272.756796 
L 111.697592 267.479628 
L 113.586015 262.618471 
L 115.363722 257.394572 
L 116.915878 252.105608 
L 118.489426 245.695978 
L 119.654735 239.863092 
L 120.60451 233.940006 
L 121.429548 227.223662 
L 122.007801 220.718913 
L 122.478246 212.587906 
L 122.742704 203.879317 
L 122.852361 191.273521 
L 122.980046 168.220096 
L 123.311525 158.428187 
L 123.748288 151.42152 
L 124.485654 143.657248 
L 125.310254 137.413772 
L 126.391337 131.081805 
L 127.309808 126.658089 
L 128.836247 120.495169 
L 130.286116 115.552049 
L 132.118069 110.153913 
L 134.052916 105.178619 
L 136.213279 100.260726 
L 137.732477 97.112613 
L 137.732477 97.112613 
" clip-path="url(#pa05eba9399)" style="fill: none; stroke: #000000; stroke-linecap: square"/>
   </g>
   <g id="patch_3">
    <path d="M 100.091991 17.079859 
Q 99.989594 17.115795 101.997103 16.411263 
" clip-path="url(#pa05eba9399)" style="fill: none; stroke: #000000; stroke-width: 2; stroke-linecap: round"/>
    <path d="M 113.08863 17.817685 
L 101.997103 16.411263 
L 109.777157 8.381894 
z
" clip-path="url(#pa05eba9399)" style="stroke: #000000; stroke-width: 2; stroke-linecap: round"/>
   </g>
   <g id="patch_4">
    <path d="M 122.854814 186.378589 
Q 122.854821 185.932259 122.854792 187.721998 
" clip-path="url(#pa05eba9399)" style="fill: none; stroke: #000000; stroke-width: 2; stroke-linecap: round"/>
    <path d="M 117.854625 197.721914 
L 122.854792 187.721998 
L 127.854625 197.722081 
z
" clip-path="url(#pa05eba9399)" style="stroke: #000000; stroke-width: 2; stroke-linecap: round"/>
   </g>
   <g id="text_1">
    <g clip-path="url(#pa05eba9399)">
     <!-- $P$ -->
     <g transform="translate(361.16126 272.44317) scale(0.25 -0.25)">
      <defs>
       <path id="Cmmi10-50" d="M 313 0 
Q 250 0 250 84 
Q 253 100 262 139 
Q 272 178 289 201 
Q 306 225 331 225 
Q 722 225 878 269 
Q 959 297 997 441 
L 1875 3956 
Q 1888 4019 1888 4044 
Q 1888 4113 1813 4122 
Q 1691 4147 1350 4147 
Q 1288 4147 1288 4231 
Q 1291 4247 1300 4286 
Q 1309 4325 1326 4348 
Q 1344 4372 1369 4372 
L 3578 4372 
Q 3881 4372 4165 4264 
Q 4450 4156 4631 3934 
Q 4813 3713 4813 3397 
Q 4813 2991 4527 2672 
Q 4241 2353 3814 2175 
Q 3388 1997 2988 1997 
L 1947 1997 
L 1556 416 
Q 1544 353 1544 325 
Q 1544 300 1551 283 
Q 1559 266 1573 261 
Q 1588 256 1619 250 
Q 1741 225 2081 225 
Q 2144 225 2144 141 
Q 2122 50 2109 25 
Q 2097 0 2034 0 
L 313 0 
z
M 1978 2188 
L 2875 2188 
Q 3497 2188 3822 2522 
Q 3988 2688 4092 3000 
Q 4197 3313 4197 3566 
Q 4197 3881 3956 4014 
Q 3716 4147 3359 4147 
L 2747 4147 
Q 2572 4147 2515 4117 
Q 2459 4088 2413 3928 
L 1978 2188 
z
" transform="scale(0.015625)"/>
      </defs>
      <use xlink:href="#Cmmi10-50" transform="translate(0 0.6875)"/>
     </g>
    </g>
   </g>
   <g id="text_2">
    <g clip-path="url(#pa05eba9399)">
     <!-- $R$ -->
     <g transform="translate(150.548971 81.694556) scale(0.25 -0.25)">
      <defs>
       <path id="Cmmi10-52" d="M 313 0 
Q 250 0 250 84 
Q 253 100 262 139 
Q 272 178 289 201 
Q 306 225 331 225 
Q 722 225 878 269 
Q 959 297 997 441 
L 1875 3956 
Q 1888 4019 1888 4044 
Q 1888 4113 1813 4122 
Q 1691 4147 1350 4147 
Q 1288 4147 1288 4231 
Q 1291 4247 1300 4286 
Q 1309 4325 1326 4348 
Q 1344 4372 1369 4372 
L 3309 4372 
Q 3541 4372 3791 4319 
Q 4041 4266 4250 4152 
Q 4459 4038 4593 3848 
Q 4728 3659 4728 3406 
Q 4728 3084 4515 2831 
Q 4303 2578 3978 2408 
Q 3653 2238 3347 2169 
Q 3597 2078 3756 1879 
Q 3916 1681 3916 1422 
Q 3916 1388 3914 1370 
Q 3913 1353 3909 1331 
L 3859 763 
Q 3853 638 3847 550 
Q 3841 463 3841 409 
Q 3841 234 3892 129 
Q 3944 25 4097 25 
Q 4297 25 4448 211 
Q 4600 397 4647 616 
Q 4675 672 4709 672 
L 4769 672 
Q 4831 672 4831 588 
Q 4784 403 4682 237 
Q 4581 72 4426 -34 
Q 4272 -141 4091 -141 
Q 3716 -141 3452 26 
Q 3188 194 3188 550 
Q 3188 684 3213 788 
L 3353 1356 
Q 3378 1434 3378 1538 
Q 3378 1803 3198 1954 
Q 3019 2106 2747 2106 
L 1959 2106 
L 1538 416 
Q 1522 363 1522 325 
Q 1522 259 1600 250 
Q 1722 225 2059 225 
Q 2125 225 2125 141 
Q 2103 50 2090 25 
Q 2078 0 2016 0 
L 313 0 
z
M 1997 2272 
L 2706 2272 
Q 3403 2272 3756 2625 
Q 3919 2788 4014 3039 
Q 4109 3291 4109 3541 
Q 4109 3778 3970 3912 
Q 3831 4047 3626 4097 
Q 3422 4147 3175 4147 
L 2747 4147 
Q 2572 4147 2515 4117 
Q 2459 4088 2413 3928 
L 1997 2272 
z
" transform="scale(0.015625)"/>
      </defs>
      <use xlink:href="#Cmmi10-52" transform="translate(0 0.6875)"/>
     </g>
    </g>
   </g>
  </g>
 </g>
 <defs>
  <clipPath id="pa05eba9399">
   <rect x="7.2" y="7.2" width="378.28762" height="324"/>
  </clipPath>
 </defs>
</svg>
