<?xml version="1.0" encoding="utf-8" standalone="no"?>
<!DOCTYPE svg PUBLIC "-//W3C//DTD SVG 1.1//EN"
  "http://www.w3.org/Graphics/SVG/1.1/DTD/svg11.dtd">
<svg xmlns:xlink="http://www.w3.org/1999/xlink" width="392.656203pt" height="338.4pt" viewBox="0 0 392.656203 338.4" xmlns="http://www.w3.org/2000/svg" version="1.1">
 <metadata>
  <rdf:RDF xmlns:dc="http://purl.org/dc/elements/1.1/" xmlns:cc="http://creativecommons.org/ns#" xmlns:rdf="http://www.w3.org/1999/02/22-rdf-syntax-ns#">
   <cc:Work>
    <dc:type rdf:resource="http://purl.org/dc/dcmitype/StillImage"/>
    <dc:date>2025-08-22T20:33:26.849798</dc:date>
    <dc:format>image/svg+xml</dc:format>
    <dc:creator>
     <cc:Agent>
      <dc:title>Matplotlib v3.10.3, https://matplotlib.org/</dc:title>
     </cc:Agent>
    </dc:creator>
   </cc:Work>
  </rdf:RDF>
 </metadata>
 <defs>
  <style type="text/css">*{stroke-linejoin: round; stroke-linecap: butt}</style>
 </defs>
 <g id="figure_1">
  <g id="patch_1">
   <path d="M 0 338.4 
L 392.656203 338.4 
L 392.656203 0 
L 0 0 
z
" style="fill: #ffffff"/>
  </g>
  <g id="axes_1">
   <g id="patch_2">
    <path d="M 7.2 331.2 
L 385.456203 331.2 
L 385.456203 7.2 
L 7.2 7.2 
z
" style="fill: #ffffff"/>
   </g>
   <g id="PathCollection_1">
    <path d="M 378.182045 246.770968 
C 379.11968 246.770968 380.019038 246.398442 380.682045 245.735435 
C 381.345053 245.072427 381.717579 244.173069 381.717579 243.235435 
C 381.717579 242.2978 381.345053 241.398442 380.682045 240.735435 
C 380.019038 240.072427 379.11968 239.699901 378.182045 239.699901 
C 377.244411 239.699901 376.345053 240.072427 375.682045 240.735435 
C 375.019038 241.398442 374.646511 242.2978 374.646511 243.235435 
C 374.646511 244.173069 375.019038 245.072427 375.682045 245.735435 
C 376.345053 246.398442 377.244411 246.770968 378.182045 246.770968 
z
" clip-path="url(#pb23dcc57be)"/>
   </g>
   <g id="PathCollection_2">
    <path d="M 72.635698 323.814281 
C 73.573333 323.814281 74.47269 323.441755 75.135698 322.778747 
C 75.798706 322.115739 76.171232 321.216382 76.171232 320.278747 
C 76.171232 319.341112 75.798706 318.441755 75.135698 317.778747 
C 74.47269 317.115739 73.573333 316.743213 72.635698 316.743213 
C 71.698064 316.743213 70.798706 317.115739 70.135698 317.778747 
C 69.47269 318.441755 69.100164 319.341112 69.100164 320.278747 
C 69.100164 321.216382 69.47269 322.115739 70.135698 322.778747 
C 70.798706 323.441755 71.698064 323.814281 72.635698 323.814281 
z
" clip-path="url(#pb23dcc57be)"/>
   </g>
   <g id="matplotlib.axis_1"/>
   <g id="matplotlib.axis_2"/>
   <g id="line2d_1">
    <path d="M 378.182045 243.235435 
L 342.820316 199.533001 
L 319.53645 170.984661 
L 303.495974 151.707917 
L 289.04399 134.760159 
L 278.494603 122.709668 
L 265.149358 107.934322 
L 259.442495 101.797834 
L 249.675651 91.579543 
L 239.301915 81.1586 
L 231.168208 73.33203 
L 225.782547 68.330126 
L 216.689446 60.23607 
L 209.972799 54.560243 
L 202.208152 48.343806 
L 195.609498 43.370943 
L 187.929781 37.966709 
L 180.485435 33.148107 
L 173.383034 28.962635 
L 165.996291 25.065071 
L 159.891161 22.21666 
L 154.44086 19.975782 
L 151.294095 18.817716 
L 144.98138 16.808384 
L 141.429135 15.869649 
L 135.448848 14.617899 
L 129.537597 13.807096 
L 125.470256 13.509118 
L 122.333946 13.430769 
L 118.987694 13.498135 
L 112.779976 14.055587 
L 108.194319 14.848209 
L 105.437432 15.488964 
L 101.219006 16.719671 
L 97.527043 18.056661 
L 92.677608 20.202733 
L 89.2345 22.010495 
L 85.213373 24.438657 
L 80.777491 27.538259 
L 78.018706 29.702566 
L 75.307322 32.016673 
L 71.644721 35.453536 
L 67.528906 39.771527 
L 63.502633 44.501463 
L 60.449606 48.450132 
L 56.989403 53.336012 
L 52.872006 59.773574 
L 49.781355 65.098863 
L 46.960161 70.36995 
L 43.77802 76.837843 
L 41.001782 82.987666 
L 37.897266 90.50317 
L 34.879652 98.557439 
L 31.939409 107.250531 
L 29.70223 114.536252 
L 26.657488 125.615015 
L 24.633936 133.918817 
L 22.65634 142.993983 
L 21.424317 149.26817 
L 19.863846 158.131133 
L 18.758447 165.246935 
L 17.168424 177.372272 
L 16.054394 188.215688 
L 15.542482 194.484178 
L 14.822404 206.791717 
L 14.552435 215.235437 
L 14.494778 226.920653 
L 14.721467 236.036597 
L 15.199909 245.035202 
L 15.855871 252.999496 
L 16.648725 260.121795 
L 17.271102 264.690005 
L 18.705502 273.227588 
L 19.967735 279.273073 
L 21.602724 285.786473 
L 23.305102 291.449458 
L 25.557685 297.675869 
L 27.684391 302.555525 
L 30.149522 307.274015 
L 32.432178 310.918974 
L 34.499399 313.719177 
L 36.19498 315.707616 
L 38.788129 318.277416 
L 39.694188 319.053612 
L 41.63939 320.526463 
L 44.705099 322.3596 
L 45.987267 322.96503 
L 49.535559 324.195375 
L 52.380616 324.752557 
L 55.408156 324.969231 
L 58.827218 324.791207 
L 62.194381 324.217887 
L 65.915178 323.166935 
L 68.628454 322.146448 
L 72.635698 320.278747 
L 72.635698 320.278747 
" clip-path="url(#pb23dcc57be)" style="fill: none; stroke: #000000; stroke-linecap: square"/>
   </g>
   <g id="patch_3">
    <path d="M 99.878069 17.176542 
Q 99.980459 17.140608 97.972942 17.845143 
" clip-path="url(#pb23dcc57be)" style="fill: none; stroke: #000000; stroke-width: 2; stroke-linecap: round"/>
    <path d="M 86.881415 16.438721 
L 97.972942 17.845143 
L 90.192888 25.874511 
z
" clip-path="url(#pb23dcc57be)" style="stroke: #000000; stroke-width: 2; stroke-linecap: round"/>
   </g>
   <g id="text_1">
    <g clip-path="url(#pb23dcc57be)">
     <!-- $P$ -->
     <g transform="translate(361.131143 272.448627) scale(0.25 -0.25)">
      <defs>
       <path id="Cmmi10-50" d="M 313 0 
Q 250 0 250 84 
Q 253 100 262 139 
Q 272 178 289 201 
Q 306 225 331 225 
Q 722 225 878 269 
Q 959 297 997 441 
L 1875 3956 
Q 1888 4019 1888 4044 
Q 1888 4113 1813 4122 
Q 1691 4147 1350 4147 
Q 1288 4147 1288 4231 
Q 1291 4247 1300 4286 
Q 1309 4325 1326 4348 
Q 1344 4372 1369 4372 
L 3578 4372 
Q 3881 4372 4165 4264 
Q 4450 4156 4631 3934 
Q 4813 3713 4813 3397 
Q 4813 2991 4527 2672 
Q 4241 2353 3814 2175 
Q 3388 1997 2988 1997 
L 1947 1997 
L 1556 416 
Q 1544 353 1544 325 
Q 1544 300 1551 283 
Q 1559 266 1573 261 
Q 1588 256 1619 250 
Q 1741 225 2081 225 
Q 2144 225 2144 141 
Q 2122 50 2109 25 
Q 2097 0 2034 0 
L 313 0 
z
M 1978 2188 
L 2875 2188 
Q 3497 2188 3822 2522 
Q 3988 2688 4092 3000 
Q 4197 3313 4197 3566 
Q 4197 3881 3956 4014 
Q 3716 4147 3359 4147 
L 2747 4147 
Q 2572 4147 2515 4117 
Q 2459 4088 2413 3928 
L 1978 2188 
z
" transform="scale(0.015625)"/>
      </defs>
      <use xlink:href="#Cmmi10-50" transform="translate(0 0.6875)"/>
     </g>
    </g>
   </g>
   <g id="text_2">
    <g clip-path="url(#pb23dcc57be)">
     <!-- $Q$ -->
     <g transform="translate(84.950454 322.714233) scale(0.25 -0.25)">
      <defs>
       <path id="Cmmi10-51" d="M 1947 -141 
Q 1466 -141 1094 79 
Q 722 300 520 692 
Q 319 1084 319 1563 
Q 319 2259 714 2950 
Q 1109 3641 1756 4077 
Q 2403 4513 3109 4513 
Q 3475 4513 3778 4381 
Q 4081 4250 4290 4017 
Q 4500 3784 4614 3471 
Q 4728 3159 4728 2791 
Q 4728 2366 4581 1936 
Q 4434 1506 4171 1136 
Q 3909 766 3559 484 
Q 3209 203 2809 38 
Q 2850 -256 2934 -425 
Q 3019 -594 3256 -594 
Q 3506 -594 3726 -412 
Q 3947 -231 4006 13 
Q 4019 72 4078 72 
Q 4147 72 4147 -13 
Q 4100 -219 4008 -430 
Q 3916 -641 3786 -823 
Q 3656 -1006 3478 -1123 
Q 3300 -1241 3084 -1241 
Q 2547 -1241 2547 -550 
Q 2547 -509 2562 -332 
Q 2578 -156 2578 -44 
Q 2269 -141 1947 -141 
z
M 1709 300 
Q 1709 44 1991 44 
Q 2275 44 2591 184 
L 2591 244 
Q 2591 503 2509 648 
Q 2428 794 2194 794 
Q 2078 794 1964 723 
Q 1850 653 1779 539 
Q 1709 425 1709 300 
z
M 1544 288 
Q 1544 456 1637 612 
Q 1731 769 1881 864 
Q 2031 959 2203 959 
Q 2481 959 2607 771 
Q 2734 584 2778 281 
Q 3188 525 3500 978 
Q 3813 1431 3977 1973 
Q 4141 2516 4141 3003 
Q 4141 3356 4023 3656 
Q 3906 3956 3664 4140 
Q 3422 4325 3066 4325 
Q 2722 4325 2403 4156 
Q 2084 3988 1813 3706 
Q 1550 3434 1342 3032 
Q 1134 2631 1021 2193 
Q 909 1756 909 1356 
Q 909 947 1068 612 
Q 1228 278 1569 128 
Q 1544 194 1544 288 
z
" transform="scale(0.015625)"/>
      </defs>
      <use xlink:href="#Cmmi10-51" transform="translate(0 0.484375)"/>
     </g>
    </g>
   </g>
  </g>
 </g>
 <defs>
  <clipPath id="pb23dcc57be">
   <rect x="7.2" y="7.2" width="378.256203" height="324"/>
  </clipPath>
 </defs>
</svg>
