<?xml version="1.0" encoding="utf-8" standalone="no"?>
<!DOCTYPE svg PUBLIC "-//W3C//DTD SVG 1.1//EN"
  "http://www.w3.org/Graphics/SVG/1.1/DTD/svg11.dtd">
<svg xmlns:xlink="http://www.w3.org/1999/xlink" width="392.675441pt" height="338.4pt" viewBox="0 0 392.675441 338.4" xmlns="http://www.w3.org/2000/svg" version="1.1">
 <metadata>
  <rdf:RDF xmlns:dc="http://purl.org/dc/elements/1.1/" xmlns:cc="http://creativecommons.org/ns#" xmlns:rdf="http://www.w3.org/1999/02/22-rdf-syntax-ns#">
   <cc:Work>
    <dc:type rdf:resource="http://purl.org/dc/dcmitype/StillImage"/>
    <dc:date>2025-12-10T16:31:33.792587</dc:date>
    <dc:format>image/svg+xml</dc:format>
    <dc:creator>
     <cc:Agent>
      <dc:title>Matplotlib v3.10.5, https://matplotlib.org/</dc:title>
     </cc:Agent>
    </dc:creator>
   </cc:Work>
  </rdf:RDF>
 </metadata>
 <defs>
  <style type="text/css">*{stroke-linejoin: round; stroke-linecap: butt}</style>
 </defs>
 <g id="figure_1">
  <g id="patch_1">
   <path d="M 0 338.4 
L 392.675441 338.4 
L 392.675441 0 
L 0 0 
z
" style="fill: #ffffff"/>
  </g>
  <g id="axes_1">
   <g id="patch_2">
    <path d="M 7.2 331.2 
L 385.475441 331.2 
L 385.475441 7.2 
L 7.2 7.2 
z
" style="fill: #ffffff"/>
   </g>
   <g id="PathCollection_1">
    <path d="M 378.200913 246.765933 
C 379.138548 246.765933 380.037906 246.393407 380.700913 245.730399 
C 381.363921 245.067391 381.736447 244.168034 381.736447 243.230399 
C 381.736447 242.292765 381.363921 241.393407 380.700913 240.730399 
C 380.037906 240.067391 379.138548 239.694865 378.200913 239.694865 
C 377.263279 239.694865 376.363921 240.067391 375.700913 240.730399 
C 375.037906 241.393407 374.66538 242.292765 374.66538 243.230399 
C 374.66538 244.168034 375.037906 245.067391 375.700913 245.730399 
C 376.363921 246.393407 377.263279 246.765933 378.200913 246.765933 
z
" clip-path="url(#p050c94de77)"/>
   </g>
   <g id="PathCollection_2">
    <path d="M 137.726609 100.653999 
C 138.664243 100.653999 139.563601 100.281473 140.226609 99.618465 
C 140.889616 98.955457 141.262143 98.0561 141.262143 97.118465 
C 141.262143 96.180831 140.889616 95.281473 140.226609 94.618465 
C 139.563601 93.955457 138.664243 93.582931 137.726609 93.582931 
C 136.788974 93.582931 135.889616 93.955457 135.226609 94.618465 
C 134.563601 95.281473 134.191075 96.180831 134.191075 97.118465 
C 134.191075 98.0561 134.563601 98.955457 135.226609 99.618465 
C 135.889616 100.281473 136.788974 100.653999 137.726609 100.653999 
z
" clip-path="url(#p050c94de77)"/>
   </g>
   <g id="matplotlib.axis_1"/>
   <g id="matplotlib.axis_2"/>
   <g id="line2d_1">
    <path d="M 378.200913 243.230399 
L 342.133423 198.656518 
L 320.807837 172.501133 
L 308.130512 157.205754 
L 296.157612 143.017398 
L 284.963953 130.03728 
L 272.018238 115.442263 
L 263.151394 105.746661 
L 253.396819 95.402909 
L 243.31048 85.104378 
L 235.968224 77.887745 
L 226.611744 69.066271 
L 220.453837 63.507672 
L 211.19543 55.550068 
L 204.030001 49.745012 
L 196.965499 44.346256 
L 191.275142 40.246441 
L 181.192368 33.565777 
L 174.933152 29.819527 
L 167.629383 25.864767 
L 161.058884 22.714401 
L 154.639979 20.032932 
L 148.671373 17.912014 
L 141.887171 15.964089 
L 138.241753 15.131697 
L 133.016643 14.213543 
L 126.704301 13.558972 
L 124.114407 13.44147 
L 118.035439 13.52974 
L 113.119004 13.993666 
L 108.190063 14.833016 
L 104.960209 15.596964 
L 102.345679 16.344973 
L 99.422701 17.323667 
L 95.709361 18.792753 
L 91.049678 21.012376 
L 87.74941 22.851999 
L 84.823275 24.678824 
L 80.065959 28.064676 
L 76.163021 31.252159 
L 72.400617 34.700597 
L 68.959633 38.200422 
L 65.101355 42.547833 
L 61.072698 47.605133 
L 59.144951 50.22691 
L 56.687021 53.772821 
L 52.565539 60.2701 
L 49.829769 65.000354 
L 46.908473 70.459071 
L 43.36683 77.70633 
L 40.706371 83.661524 
L 37.603327 91.242648 
L 34.625856 99.262254 
L 32.678704 104.96688 
L 30.149332 113.018005 
L 28.040469 120.386525 
L 25.108241 131.88313 
L 23.387528 139.500831 
L 22.099399 145.752982 
L 20.001788 157.288359 
L 18.549396 166.68441 
L 17.106672 177.897541 
L 16.015273 188.64578 
L 15.351302 197.183262 
L 14.867728 205.754533 
L 14.531388 216.296819 
L 14.481628 225.555589 
L 14.724173 236.107862 
L 14.989508 241.663517 
L 15.676274 251.075369 
L 16.655979 260.176443 
L 17.596067 266.827876 
L 18.52994 272.291057 
L 19.862079 278.803021 
L 21.447847 285.217111 
L 23.147601 290.961473 
L 25.190202 296.739288 
L 26.745346 300.501664 
L 28.699926 304.606104 
L 31.26456 309.130485 
L 33.848112 312.88152 
L 35.934428 315.416623 
L 38.421741 317.944363 
L 40.139225 319.411481 
L 42.800856 321.286245 
L 44.577277 322.292703 
L 47.598525 323.60044 
L 50.206942 324.358446 
L 52.626545 324.783186 
L 54.030053 324.915522 
L 56.960133 324.940808 
L 60.095641 324.619163 
L 62.52606 324.141173 
L 65.092197 323.435057 
L 68.138828 322.345839 
L 72.638479 320.277768 
L 72.638479 320.277768 
" clip-path="url(#p050c94de77)" style="fill: none; stroke: #000000; stroke-linecap: square"/>
   </g>
   <g id="line2d_2">
    <path d="M 72.638479 320.277768 
L 77.630139 315.685001 
L 82.08447 311.291751 
L 86.179196 306.961056 
L 90.126537 302.46925 
L 93.483729 298.355191 
L 96.809748 293.957272 
L 99.273401 290.451646 
L 102.487796 285.489077 
L 105.538002 280.270268 
L 108.356397 274.870468 
L 110.516939 270.234698 
L 112.534961 265.385961 
L 114.03253 261.360777 
L 115.767312 256.080015 
L 117.299102 250.641657 
L 118.3051 246.49775 
L 119.529691 240.523694 
L 120.610709 233.860298 
L 121.41862 227.278434 
L 121.993009 220.847152 
L 122.438047 213.372698 
L 122.724958 204.498298 
L 122.842689 193.201394 
L 123.018338 166.315451 
L 123.344109 157.676154 
L 123.877653 149.74871 
L 124.488571 143.588263 
L 125.372226 136.973799 
L 126.348314 131.282637 
L 127.527195 125.682951 
L 128.657401 121.142591 
L 130.107829 116.110102 
L 131.771959 111.10475 
L 134.015508 105.2608 
L 136.098311 100.501668 
L 137.726609 97.118465 
L 137.726609 97.118465 
" clip-path="url(#p050c94de77)" style="fill: none; stroke: #000000; stroke-linecap: square"/>
   </g>
   <g id="patch_3">
    <path d="M 100.087074 17.087733 
Q 99.984679 17.123669 101.992191 16.419136 
" clip-path="url(#p050c94de77)" style="fill: none; stroke: #000000; stroke-width: 2; stroke-linecap: round"/>
    <path d="M 113.083718 17.825558 
L 101.992191 16.419136 
L 109.772245 8.389767 
z
" clip-path="url(#p050c94de77)" style="stroke: #000000; stroke-width: 2; stroke-linecap: round"/>
   </g>
   <g id="patch_4">
    <path d="M 122.849322 186.382186 
Q 122.849329 185.935868 122.849299 187.725617 
" clip-path="url(#p050c94de77)" style="fill: none; stroke: #000000; stroke-width: 2; stroke-linecap: round"/>
    <path d="M 117.849133 197.725534 
L 122.849299 187.725617 
L 127.849133 197.7257 
z
" clip-path="url(#p050c94de77)" style="stroke: #000000; stroke-width: 2; stroke-linecap: round"/>
   </g>
   <g id="text_1">
    <g clip-path="url(#p050c94de77)">
     <!-- $P$ -->
     <g transform="translate(361.149541 272.444767) scale(0.25 -0.25)">
      <defs>
       <path id="Cmmi10-50" d="M 313 0 
Q 250 0 250 84 
Q 253 100 262 139 
Q 272 178 289 201 
Q 306 225 331 225 
Q 722 225 878 269 
Q 959 297 997 441 
L 1875 3956 
Q 1888 4019 1888 4044 
Q 1888 4113 1813 4122 
Q 1691 4147 1350 4147 
Q 1288 4147 1288 4231 
Q 1291 4247 1300 4286 
Q 1309 4325 1326 4348 
Q 1344 4372 1369 4372 
L 3578 4372 
Q 3881 4372 4165 4264 
Q 4450 4156 4631 3934 
Q 4813 3713 4813 3397 
Q 4813 2991 4527 2672 
Q 4241 2353 3814 2175 
Q 3388 1997 2988 1997 
L 1947 1997 
L 1556 416 
Q 1544 353 1544 325 
Q 1544 300 1551 283 
Q 1559 266 1573 261 
Q 1588 256 1619 250 
Q 1741 225 2081 225 
Q 2144 225 2144 141 
Q 2122 50 2109 25 
Q 2097 0 2034 0 
L 313 0 
z
M 1978 2188 
L 2875 2188 
Q 3497 2188 3822 2522 
Q 3988 2688 4092 3000 
Q 4197 3313 4197 3566 
Q 4197 3881 3956 4014 
Q 3716 4147 3359 4147 
L 2747 4147 
Q 2572 4147 2515 4117 
Q 2459 4088 2413 3928 
L 1978 2188 
z
" transform="scale(0.015625)"/>
      </defs>
      <use xlink:href="#Cmmi10-50" transform="translate(0 0.6875)"/>
     </g>
    </g>
   </g>
   <g id="text_2">
    <g clip-path="url(#p050c94de77)">
     <!-- $R$ -->
     <g transform="translate(150.542539 81.700972) scale(0.25 -0.25)">
      <defs>
       <path id="Cmmi10-52" d="M 313 0 
Q 250 0 250 84 
Q 253 100 262 139 
Q 272 178 289 201 
Q 306 225 331 225 
Q 722 225 878 269 
Q 959 297 997 441 
L 1875 3956 
Q 1888 4019 1888 4044 
Q 1888 4113 1813 4122 
Q 1691 4147 1350 4147 
Q 1288 4147 1288 4231 
Q 1291 4247 1300 4286 
Q 1309 4325 1326 4348 
Q 1344 4372 1369 4372 
L 3309 4372 
Q 3541 4372 3791 4319 
Q 4041 4266 4250 4152 
Q 4459 4038 4593 3848 
Q 4728 3659 4728 3406 
Q 4728 3084 4515 2831 
Q 4303 2578 3978 2408 
Q 3653 2238 3347 2169 
Q 3597 2078 3756 1879 
Q 3916 1681 3916 1422 
Q 3916 1388 3914 1370 
Q 3913 1353 3909 1331 
L 3859 763 
Q 3853 638 3847 550 
Q 3841 463 3841 409 
Q 3841 234 3892 129 
Q 3944 25 4097 25 
Q 4297 25 4448 211 
Q 4600 397 4647 616 
Q 4675 672 4709 672 
L 4769 672 
Q 4831 672 4831 588 
Q 4784 403 4682 237 
Q 4581 72 4426 -34 
Q 4272 -141 4091 -141 
Q 3716 -141 3452 26 
Q 3188 194 3188 550 
Q 3188 684 3213 788 
L 3353 1356 
Q 3378 1434 3378 1538 
Q 3378 1803 3198 1954 
Q 3019 2106 2747 2106 
L 1959 2106 
L 1538 416 
Q 1522 363 1522 325 
Q 1522 259 1600 250 
Q 1722 225 2059 225 
Q 2125 225 2125 141 
Q 2103 50 2090 25 
Q 2078 0 2016 0 
L 313 0 
z
M 1997 2272 
L 2706 2272 
Q 3403 2272 3756 2625 
Q 3919 2788 4014 3039 
Q 4109 3291 4109 3541 
Q 4109 3778 3970 3912 
Q 3831 4047 3626 4097 
Q 3422 4147 3175 4147 
L 2747 4147 
Q 2572 4147 2515 4117 
Q 2459 4088 2413 3928 
L 1997 2272 
z
" transform="scale(0.015625)"/>
      </defs>
      <use xlink:href="#Cmmi10-52" transform="translate(0 0.6875)"/>
     </g>
    </g>
   </g>
  </g>
 </g>
 <defs>
  <clipPath id="p050c94de77">
   <rect x="7.2" y="7.2" width="378.275441" height="324"/>
  </clipPath>
 </defs>
</svg>
