<?xml version="1.0" encoding="utf-8" standalone="no"?>
<!DOCTYPE svg PUBLIC "-//W3C//DTD SVG 1.1//EN"
  "http://www.w3.org/Graphics/SVG/1.1/DTD/svg11.dtd">
<svg xmlns:xlink="http://www.w3.org/1999/xlink" width="392.684997pt" height="338.4pt" viewBox="0 0 392.684997 338.4" xmlns="http://www.w3.org/2000/svg" version="1.1">
 <metadata>
  <rdf:RDF xmlns:dc="http://purl.org/dc/elements/1.1/" xmlns:cc="http://creativecommons.org/ns#" xmlns:rdf="http://www.w3.org/1999/02/22-rdf-syntax-ns#">
   <cc:Work>
    <dc:type rdf:resource="http://purl.org/dc/dcmitype/StillImage"/>
    <dc:date>2025-06-04T11:06:42.981234</dc:date>
    <dc:format>image/svg+xml</dc:format>
    <dc:creator>
     <cc:Agent>
      <dc:title>Matplotlib v3.8.0, https://matplotlib.org/</dc:title>
     </cc:Agent>
    </dc:creator>
   </cc:Work>
  </rdf:RDF>
 </metadata>
 <defs>
  <style type="text/css">*{stroke-linejoin: round; stroke-linecap: butt}</style>
 </defs>
 <g id="figure_1">
  <g id="patch_1">
   <path d="M 0 338.4 
L 392.684997 338.4 
L 392.684997 0 
L 0 0 
z
" style="fill: #ffffff"/>
  </g>
  <g id="axes_1">
   <g id="patch_2">
    <path d="M 7.2 331.2 
L 385.484997 331.2 
L 385.484997 7.2 
L 7.2 7.2 
z
" style="fill: #ffffff"/>
   </g>
   <g id="PathCollection_1">
    <path d="M 378.210285 246.766481 
C 379.14792 246.766481 380.047278 246.393955 380.710285 245.730947 
C 381.373293 245.067939 381.745819 244.168582 381.745819 243.230947 
C 381.745819 242.293313 381.373293 241.393955 380.710285 240.730947 
C 380.047278 240.067939 379.14792 239.695413 378.210285 239.695413 
C 377.272651 239.695413 376.373293 240.067939 375.710285 240.730947 
C 375.047278 241.393955 374.674751 242.293313 374.674751 243.230947 
C 374.674751 244.168582 375.047278 245.067939 375.710285 245.730947 
C 376.373293 246.393955 377.272651 246.766481 378.210285 246.766481 
z
" clip-path="url(#pe480ae1e24)"/>
   </g>
   <g id="PathCollection_2">
    <path d="M 72.642281 323.815254 
C 73.579916 323.815254 74.479274 323.442728 75.142281 322.77972 
C 75.805289 322.116713 76.177815 321.217355 76.177815 320.27972 
C 76.177815 319.342086 75.805289 318.442728 75.142281 317.77972 
C 74.479274 317.116713 73.579916 316.744186 72.642281 316.744186 
C 71.704647 316.744186 70.805289 317.116713 70.142281 317.77972 
C 69.479274 318.442728 69.106748 319.342086 69.106748 320.27972 
C 69.106748 321.217355 69.479274 322.116713 70.142281 322.77972 
C 70.805289 323.442728 71.704647 323.815254 72.642281 323.815254 
z
" clip-path="url(#pe480ae1e24)"/>
   </g>
   <g id="matplotlib.axis_1"/>
   <g id="matplotlib.axis_2"/>
   <g id="line2d_1">
    <path d="M 378.210285 243.230947 
L 311.510883 161.249107 
L 295.130363 141.803364 
L 284.543792 129.545871 
L 274.288003 117.955274 
L 261.398244 103.851894 
L 253.763482 95.775606 
L 243.96537 85.750642 
L 236.258621 78.159396 
L 226.169928 68.652026 
L 219.002448 62.219277 
L 211.164855 55.516485 
L 202.479654 48.524096 
L 194.240931 42.347271 
L 186.85179 37.213786 
L 178.679855 32.01693 
L 171.260524 27.76673 
L 167.791737 25.94136 
L 161.06289 22.710298 
L 154.252963 19.878752 
L 147.753732 17.61392 
L 145.394291 16.902723 
L 140.422756 15.606447 
L 136.491739 14.782924 
L 130.671669 13.906611 
L 126.923437 13.569081 
L 123.847733 13.430769 
L 119.1283 13.471738 
L 113.732292 13.912801 
L 110.685561 14.357017 
L 107.88777 14.894522 
L 104.716503 15.659292 
L 100.502302 16.942233 
L 97.302977 18.128787 
L 94.104536 19.507184 
L 89.02467 22.112822 
L 87.768779 22.839475 
L 84.139297 25.132592 
L 80.330184 27.862196 
L 76.835298 30.675542 
L 74.431712 32.791815 
L 70.643105 36.445986 
L 66.970443 40.384822 
L 63.635097 44.326184 
L 59.500375 49.735198 
L 56.105972 54.648214 
L 53.198574 59.227519 
L 49.822966 65.01594 
L 46.925321 70.430184 
L 44.067641 76.217858 
L 40.56 84.00825 
L 37.856731 90.601364 
L 35.325981 97.310659 
L 32.484976 105.564037 
L 30.252807 112.681088 
L 27.386926 122.820576 
L 25.196024 131.524684 
L 23.255157 140.13184 
L 21.602672 148.329338 
L 19.992619 157.359476 
L 18.518083 166.923325 
L 17.334884 175.972574 
L 16.198899 186.652925 
L 15.296374 198.055802 
L 14.791243 207.587697 
L 14.498198 218.735447 
L 14.480708 225.013647 
L 14.620011 232.971043 
L 15.08824 243.278161 
L 15.611065 250.307114 
L 16.486816 258.783475 
L 17.509221 266.252597 
L 18.535426 272.306521 
L 19.777174 278.411572 
L 21.233623 284.408445 
L 22.885385 290.129949 
L 24.847782 295.836181 
L 25.846115 298.380074 
L 27.25664 301.632645 
L 29.338681 305.813233 
L 31.519539 309.531011 
L 33.956283 313.02093 
L 36.250115 315.764257 
L 38.72288 318.216283 
L 40.610074 319.776661 
L 43.714653 321.827282 
L 46.395423 323.138314 
L 48.72431 323.968597 
L 50.318189 324.384929 
L 51.960005 324.6931 
L 55.315762 324.969231 
L 56.895806 324.945933 
L 60.425747 324.56822 
L 62.574908 324.132503 
L 64.480452 323.624561 
L 66.8954 322.825458 
L 70.862465 321.160331 
L 72.642281 320.27972 
L 72.642281 320.27972 
" clip-path="url(#pe480ae1e24)" style="fill: none; stroke: #000000; stroke-linecap: square"/>
   </g>
   <g id="patch_3">
    <path d="M 99.886584 17.156032 
Q 99.988981 17.120096 97.981471 17.824628 
" clip-path="url(#pe480ae1e24)" style="fill: none; stroke: #000000; stroke-width: 2; stroke-linecap: round"/>
    <path d="M 86.889943 16.418206 
L 97.981471 17.824628 
L 90.201417 25.853996 
z
" clip-path="url(#pe480ae1e24)" style="stroke: #000000; stroke-width: 2; stroke-linecap: round"/>
   </g>
   <g id="text_1">
    <g clip-path="url(#pe480ae1e24)">
     <!-- $P$ -->
     <g transform="translate(361.158751 272.445722) scale(0.25 -0.25)">
      <defs>
       <path id="Cmmi10-50" d="M 313 0 
Q 250 0 250 84 
Q 253 100 262 139 
Q 272 178 289 201 
Q 306 225 331 225 
Q 722 225 878 269 
Q 959 297 997 441 
L 1875 3956 
Q 1888 4019 1888 4044 
Q 1888 4113 1813 4122 
Q 1691 4147 1350 4147 
Q 1288 4147 1288 4231 
Q 1291 4247 1300 4286 
Q 1309 4325 1326 4348 
Q 1344 4372 1369 4372 
L 3578 4372 
Q 3881 4372 4165 4264 
Q 4450 4156 4631 3934 
Q 4813 3713 4813 3397 
Q 4813 2991 4527 2672 
Q 4241 2353 3814 2175 
Q 3388 1997 2988 1997 
L 1947 1997 
L 1556 416 
Q 1544 353 1544 325 
Q 1544 300 1551 283 
Q 1559 266 1573 261 
Q 1588 256 1619 250 
Q 1741 225 2081 225 
Q 2144 225 2144 141 
Q 2122 50 2109 25 
Q 2097 0 2034 0 
L 313 0 
z
M 1978 2188 
L 2875 2188 
Q 3497 2188 3822 2522 
Q 3988 2688 4092 3000 
Q 4197 3313 4197 3566 
Q 4197 3881 3956 4014 
Q 3716 4147 3359 4147 
L 2747 4147 
Q 2572 4147 2515 4117 
Q 2459 4088 2413 3928 
L 1978 2188 
z
" transform="scale(0.015625)"/>
      </defs>
      <use xlink:href="#Cmmi10-50" transform="translate(0 0.6875)"/>
     </g>
    </g>
   </g>
   <g id="text_2">
    <g clip-path="url(#pe480ae1e24)">
     <!-- $Q$ -->
     <g transform="translate(84.958619 322.71489) scale(0.25 -0.25)">
      <defs>
       <path id="Cmmi10-51" d="M 1947 -141 
Q 1466 -141 1094 79 
Q 722 300 520 692 
Q 319 1084 319 1563 
Q 319 2259 714 2950 
Q 1109 3641 1756 4077 
Q 2403 4513 3109 4513 
Q 3475 4513 3778 4381 
Q 4081 4250 4290 4017 
Q 4500 3784 4614 3471 
Q 4728 3159 4728 2791 
Q 4728 2366 4581 1936 
Q 4434 1506 4171 1136 
Q 3909 766 3559 484 
Q 3209 203 2809 38 
Q 2850 -256 2934 -425 
Q 3019 -594 3256 -594 
Q 3506 -594 3726 -412 
Q 3947 -231 4006 13 
Q 4019 72 4078 72 
Q 4147 72 4147 -13 
Q 4100 -219 4008 -430 
Q 3916 -641 3786 -823 
Q 3656 -1006 3478 -1123 
Q 3300 -1241 3084 -1241 
Q 2547 -1241 2547 -550 
Q 2547 -509 2562 -332 
Q 2578 -156 2578 -44 
Q 2269 -141 1947 -141 
z
M 1709 300 
Q 1709 44 1991 44 
Q 2275 44 2591 184 
L 2591 244 
Q 2591 503 2509 648 
Q 2428 794 2194 794 
Q 2078 794 1964 723 
Q 1850 653 1779 539 
Q 1709 425 1709 300 
z
M 1544 288 
Q 1544 456 1637 612 
Q 1731 769 1881 864 
Q 2031 959 2203 959 
Q 2481 959 2607 771 
Q 2734 584 2778 281 
Q 3188 525 3500 978 
Q 3813 1431 3977 1973 
Q 4141 2516 4141 3003 
Q 4141 3356 4023 3656 
Q 3906 3956 3664 4140 
Q 3422 4325 3066 4325 
Q 2722 4325 2403 4156 
Q 2084 3988 1813 3706 
Q 1550 3434 1342 3032 
Q 1134 2631 1021 2193 
Q 909 1756 909 1356 
Q 909 947 1068 612 
Q 1228 278 1569 128 
Q 1544 194 1544 288 
z
" transform="scale(0.015625)"/>
      </defs>
      <use xlink:href="#Cmmi10-51" transform="translate(0 0.484375)"/>
     </g>
    </g>
   </g>
  </g>
 </g>
 <defs>
  <clipPath id="pe480ae1e24">
   <rect x="7.2" y="7.2" width="378.284997" height="324"/>
  </clipPath>
 </defs>
</svg>
