<?xml version="1.0" encoding="utf-8" standalone="no"?>
<!DOCTYPE svg PUBLIC "-//W3C//DTD SVG 1.1//EN"
  "http://www.w3.org/Graphics/SVG/1.1/DTD/svg11.dtd">
<svg xmlns:xlink="http://www.w3.org/1999/xlink" width="392.65811pt" height="338.4pt" viewBox="0 0 392.65811 338.4" xmlns="http://www.w3.org/2000/svg" version="1.1">
 <metadata>
  <rdf:RDF xmlns:dc="http://purl.org/dc/elements/1.1/" xmlns:cc="http://creativecommons.org/ns#" xmlns:rdf="http://www.w3.org/1999/02/22-rdf-syntax-ns#">
   <cc:Work>
    <dc:type rdf:resource="http://purl.org/dc/dcmitype/StillImage"/>
    <dc:date>2025-12-10T16:31:25.626984</dc:date>
    <dc:format>image/svg+xml</dc:format>
    <dc:creator>
     <cc:Agent>
      <dc:title>Matplotlib v3.10.5, https://matplotlib.org/</dc:title>
     </cc:Agent>
    </dc:creator>
   </cc:Work>
  </rdf:RDF>
 </metadata>
 <defs>
  <style type="text/css">*{stroke-linejoin: round; stroke-linecap: butt}</style>
 </defs>
 <g id="figure_1">
  <g id="patch_1">
   <path d="M 0 338.4 
L 392.65811 338.4 
L 392.65811 0 
L 0 0 
z
" style="fill: #ffffff"/>
  </g>
  <g id="axes_1">
   <g id="patch_2">
    <path d="M 7.2 331.2 
L 385.45811 331.2 
L 385.45811 7.2 
L 7.2 7.2 
z
" style="fill: #ffffff"/>
   </g>
   <g id="PathCollection_1">
    <path d="M 137.720904 100.667379 
C 138.658538 100.667379 139.557896 100.294853 140.220904 99.631845 
C 140.883911 98.968838 141.256438 98.06948 141.256438 97.131845 
C 141.256438 96.194211 140.883911 95.294853 140.220904 94.631845 
C 139.557896 93.968838 138.658538 93.596311 137.720904 93.596311 
C 136.783269 93.596311 135.883911 93.968838 135.220904 94.631845 
C 134.557896 95.294853 134.18537 96.194211 134.18537 97.131845 
C 134.18537 98.06948 134.557896 98.968838 135.220904 99.631845 
C 135.883911 100.294853 136.783269 100.667379 137.720904 100.667379 
z
" clip-path="url(#p76e6700bd4)"/>
   </g>
   <g id="matplotlib.axis_1"/>
   <g id="matplotlib.axis_2"/>
   <g id="line2d_1">
    <path d="M 378.183916 243.236918 
L 345.727693 203.124454 
L 324.517708 177.046682 
L 307.024519 155.910532 
L 296.33472 143.25178 
L 282.619189 127.384621 
L 270.27754 113.544081 
L 261.947397 104.476354 
L 250.766458 92.701449 
L 242.555154 84.375236 
L 237.302797 79.205247 
L 225.562125 68.128184 
L 217.884922 61.273551 
L 208.542043 53.385932 
L 198.802022 45.73982 
L 193.947672 42.165432 
L 187.18474 37.465156 
L 179.582773 32.593136 
L 177.448586 31.307568 
L 172.51418 28.479389 
L 168.327885 26.243211 
L 161.146776 22.773821 
L 158.127623 21.459614 
L 150.936819 18.692694 
L 146.822208 17.350032 
L 140.682664 15.690631 
L 139.568664 15.435333 
L 135.116264 14.560885 
L 130.262653 13.882991 
L 125.123402 13.494026 
L 121.374957 13.434087 
L 117.508302 13.579259 
L 112.618485 14.078097 
L 110.006431 14.495198 
L 104.134884 15.836402 
L 99.702432 17.239087 
L 96.222957 18.589581 
L 93.953016 19.594298 
L 90.053801 21.558523 
L 87.489724 23.02141 
L 84.729472 24.755189 
L 80.105569 28.048593 
L 77.687107 29.975852 
L 73.024869 34.115608 
L 71.331012 35.765656 
L 68.753389 38.4347 
L 64.053784 43.823236 
L 60.63546 48.200799 
L 57.298557 52.88125 
L 54.338878 57.398404 
L 52.083683 61.090174 
L 48.980385 66.554332 
L 46.270196 71.723746 
L 42.575403 79.440731 
L 39.412769 86.744751 
L 36.817588 93.29405 
L 33.899284 101.35578 
L 31.117622 109.853389 
L 28.440708 118.946738 
L 26.100216 127.817068 
L 23.762876 137.783357 
L 21.456985 149.094558 
L 19.616865 159.650922 
L 18.288842 168.550613 
L 17.17107 177.349006 
L 16.247527 186.115171 
L 15.64671 193.104583 
L 14.946085 204.120142 
L 14.585767 213.767859 
L 14.474194 221.554365 
L 14.531587 229.390674 
L 14.895391 239.922825 
L 15.514085 249.202948 
L 16.309401 257.299522 
L 17.193395 264.158541 
L 18.472393 271.985091 
L 19.552979 277.40498 
L 21.342156 284.830654 
L 22.854412 290.044391 
L 24.790403 295.694701 
L 27.015772 301.113156 
L 28.961797 305.114556 
L 30.670715 308.164527 
L 31.452955 309.433941 
L 33.506547 312.430958 
L 35.68329 315.1368 
L 37.350625 316.921363 
L 39.94329 319.258642 
L 42.479433 321.087594 
L 44.768627 322.393685 
L 47.338026 323.509808 
L 49.745664 324.250945 
L 51.997237 324.700148 
L 55.270311 324.969231 
L 58.28123 324.849928 
L 60.476118 324.559442 
L 63.666141 323.854345 
L 66.886677 322.827208 
L 69.139662 321.933489 
L 72.63583 320.280669 
L 72.63583 320.280669 
" clip-path="url(#p76e6700bd4)" style="fill: none; stroke: #ffffff; stroke-linecap: square"/>
   </g>
   <g id="line2d_2">
    <path d="M 72.63583 320.280669 
L 77.961042 315.369181 
L 82.604357 310.758612 
L 86.796213 306.280819 
L 89.945953 302.682054 
L 93.832462 297.90946 
L 97.062812 293.606541 
L 100.781738 288.18148 
L 103.910508 283.122475 
L 106.483847 278.525119 
L 108.40435 274.768974 
L 110.547745 270.160016 
L 112.83413 264.608319 
L 114.452397 260.143391 
L 116.176205 254.70192 
L 117.683369 249.110009 
L 118.963994 243.422163 
L 119.85113 238.694947 
L 120.792401 232.509664 
L 121.572823 225.709378 
L 122.117403 219.023663 
L 122.496362 211.918022 
L 122.749363 202.948636 
L 122.841653 191.421437 
L 122.97291 168.072669 
L 123.295776 158.549826 
L 123.787227 150.802807 
L 124.350596 144.78862 
L 125.262222 137.679672 
L 126.406459 130.964045 
L 127.593494 125.387189 
L 129.025694 119.785083 
L 130.723013 114.174566 
L 132.648986 108.713414 
L 134.973706 103.004095 
L 137.026217 98.543424 
L 137.720904 97.131845 
L 137.720904 97.131845 
" clip-path="url(#p76e6700bd4)" style="fill: none; stroke: #000000; stroke-linecap: square"/>
   </g>
   <g id="patch_3">
    <path d="M 122.844315 186.391375 
Q 122.844323 185.945077 122.844293 187.734847 
" clip-path="url(#p76e6700bd4)" style="fill: none; stroke: #000000; stroke-width: 2; stroke-linecap: round"/>
    <path d="M 117.844126 197.734764 
L 122.844293 187.734847 
L 127.844126 197.734931 
z
" clip-path="url(#p76e6700bd4)" style="stroke: #000000; stroke-width: 2; stroke-linecap: round"/>
   </g>
   <g id="text_1">
    <g clip-path="url(#p76e6700bd4)">
     <!-- $Q$ -->
     <g transform="translate(89.413689 318.253153) scale(0.25 -0.25)">
      <defs>
       <path id="Cmmi10-51" d="M 1947 -141 
Q 1466 -141 1094 79 
Q 722 300 520 692 
Q 319 1084 319 1563 
Q 319 2259 714 2950 
Q 1109 3641 1756 4077 
Q 2403 4513 3109 4513 
Q 3475 4513 3778 4381 
Q 4081 4250 4290 4017 
Q 4500 3784 4614 3471 
Q 4728 3159 4728 2791 
Q 4728 2366 4581 1936 
Q 4434 1506 4171 1136 
Q 3909 766 3559 484 
Q 3209 203 2809 38 
Q 2850 -256 2934 -425 
Q 3019 -594 3256 -594 
Q 3506 -594 3726 -412 
Q 3947 -231 4006 13 
Q 4019 72 4078 72 
Q 4147 72 4147 -13 
Q 4100 -219 4008 -430 
Q 3916 -641 3786 -823 
Q 3656 -1006 3478 -1123 
Q 3300 -1241 3084 -1241 
Q 2547 -1241 2547 -550 
Q 2547 -509 2562 -332 
Q 2578 -156 2578 -44 
Q 2269 -141 1947 -141 
z
M 1709 300 
Q 1709 44 1991 44 
Q 2275 44 2591 184 
L 2591 244 
Q 2591 503 2509 648 
Q 2428 794 2194 794 
Q 2078 794 1964 723 
Q 1850 653 1779 539 
Q 1709 425 1709 300 
z
M 1544 288 
Q 1544 456 1637 612 
Q 1731 769 1881 864 
Q 2031 959 2203 959 
Q 2481 959 2607 771 
Q 2734 584 2778 281 
Q 3188 525 3500 978 
Q 3813 1431 3977 1973 
Q 4141 2516 4141 3003 
Q 4141 3356 4023 3656 
Q 3906 3956 3664 4140 
Q 3422 4325 3066 4325 
Q 2722 4325 2403 4156 
Q 2084 3988 1813 3706 
Q 1550 3434 1342 3032 
Q 1134 2631 1021 2193 
Q 909 1756 909 1356 
Q 909 947 1068 612 
Q 1228 278 1569 128 
Q 1544 194 1544 288 
z
" transform="scale(0.015625)"/>
      </defs>
      <use xlink:href="#Cmmi10-51" transform="translate(0 0.484375)"/>
     </g>
    </g>
   </g>
   <g id="text_2">
    <g clip-path="url(#p76e6700bd4)">
     <!-- $R$ -->
     <g transform="translate(105.906021 117.419212) scale(0.25 -0.25)">
      <defs>
       <path id="Cmmi10-52" d="M 313 0 
Q 250 0 250 84 
Q 253 100 262 139 
Q 272 178 289 201 
Q 306 225 331 225 
Q 722 225 878 269 
Q 959 297 997 441 
L 1875 3956 
Q 1888 4019 1888 4044 
Q 1888 4113 1813 4122 
Q 1691 4147 1350 4147 
Q 1288 4147 1288 4231 
Q 1291 4247 1300 4286 
Q 1309 4325 1326 4348 
Q 1344 4372 1369 4372 
L 3309 4372 
Q 3541 4372 3791 4319 
Q 4041 4266 4250 4152 
Q 4459 4038 4593 3848 
Q 4728 3659 4728 3406 
Q 4728 3084 4515 2831 
Q 4303 2578 3978 2408 
Q 3653 2238 3347 2169 
Q 3597 2078 3756 1879 
Q 3916 1681 3916 1422 
Q 3916 1388 3914 1370 
Q 3913 1353 3909 1331 
L 3859 763 
Q 3853 638 3847 550 
Q 3841 463 3841 409 
Q 3841 234 3892 129 
Q 3944 25 4097 25 
Q 4297 25 4448 211 
Q 4600 397 4647 616 
Q 4675 672 4709 672 
L 4769 672 
Q 4831 672 4831 588 
Q 4784 403 4682 237 
Q 4581 72 4426 -34 
Q 4272 -141 4091 -141 
Q 3716 -141 3452 26 
Q 3188 194 3188 550 
Q 3188 684 3213 788 
L 3353 1356 
Q 3378 1434 3378 1538 
Q 3378 1803 3198 1954 
Q 3019 2106 2747 2106 
L 1959 2106 
L 1538 416 
Q 1522 363 1522 325 
Q 1522 259 1600 250 
Q 1722 225 2059 225 
Q 2125 225 2125 141 
Q 2103 50 2090 25 
Q 2078 0 2016 0 
L 313 0 
z
M 1997 2272 
L 2706 2272 
Q 3403 2272 3756 2625 
Q 3919 2788 4014 3039 
Q 4109 3291 4109 3541 
Q 4109 3778 3970 3912 
Q 3831 4047 3626 4097 
Q 3422 4147 3175 4147 
L 2747 4147 
Q 2572 4147 2515 4117 
Q 2459 4088 2413 3928 
L 1997 2272 
z
" transform="scale(0.015625)"/>
      </defs>
      <use xlink:href="#Cmmi10-52" transform="translate(0 0.6875)"/>
     </g>
    </g>
   </g>
   <g id="PathCollection_2">
    <path d="M 72.63583 323.816203 
C 73.573465 323.816203 74.472822 323.443677 75.13583 322.780669 
C 75.798838 322.117661 76.171364 321.218303 76.171364 320.280669 
C 76.171364 319.343034 75.798838 318.443677 75.13583 317.780669 
C 74.472822 317.117661 73.573465 316.745135 72.63583 316.745135 
C 71.698196 316.745135 70.798838 317.117661 70.13583 317.780669 
C 69.472822 318.443677 69.100296 319.343034 69.100296 320.280669 
C 69.100296 321.218303 69.472822 322.117661 70.13583 322.780669 
C 70.798838 323.443677 71.698196 323.816203 72.63583 323.816203 
z
" clip-path="url(#p76e6700bd4)"/>
   </g>
  </g>
 </g>
 <defs>
  <clipPath id="p76e6700bd4">
   <rect x="7.2" y="7.2" width="378.25811" height="324"/>
  </clipPath>
 </defs>
</svg>
