<?xml version="1.0" encoding="utf-8" standalone="no"?>
<!DOCTYPE svg PUBLIC "-//W3C//DTD SVG 1.1//EN"
  "http://www.w3.org/Graphics/SVG/1.1/DTD/svg11.dtd">
<svg xmlns:xlink="http://www.w3.org/1999/xlink" width="392.652205pt" height="338.4pt" viewBox="0 0 392.652205 338.4" xmlns="http://www.w3.org/2000/svg" version="1.1">
 <metadata>
  <rdf:RDF xmlns:dc="http://purl.org/dc/elements/1.1/" xmlns:cc="http://creativecommons.org/ns#" xmlns:rdf="http://www.w3.org/1999/02/22-rdf-syntax-ns#">
   <cc:Work>
    <dc:type rdf:resource="http://purl.org/dc/dcmitype/StillImage"/>
    <dc:date>2025-08-22T20:32:32.786109</dc:date>
    <dc:format>image/svg+xml</dc:format>
    <dc:creator>
     <cc:Agent>
      <dc:title>Matplotlib v3.10.3, https://matplotlib.org/</dc:title>
     </cc:Agent>
    </dc:creator>
   </cc:Work>
  </rdf:RDF>
 </metadata>
 <defs>
  <style type="text/css">*{stroke-linejoin: round; stroke-linecap: butt}</style>
 </defs>
 <g id="figure_1">
  <g id="patch_1">
   <path d="M 0 338.4 
L 392.652205 338.4 
L 392.652205 0 
L 0 0 
z
" style="fill: #ffffff"/>
  </g>
  <g id="axes_1">
   <g id="patch_2">
    <path d="M 7.2 331.2 
L 385.452205 331.2 
L 385.452205 7.2 
L 7.2 7.2 
z
" style="fill: #ffffff"/>
   </g>
   <g id="PathCollection_1">
    <path d="M 137.717206 100.666685 
C 138.654841 100.666685 139.554198 100.294159 140.217206 99.631151 
C 140.880214 98.968144 141.25274 98.068786 141.25274 97.131151 
C 141.25274 96.193517 140.880214 95.294159 140.217206 94.631151 
C 139.554198 93.968144 138.654841 93.595617 137.717206 93.595617 
C 136.779572 93.595617 135.880214 93.968144 135.217206 94.631151 
C 134.554198 95.294159 134.181672 96.193517 134.181672 97.131151 
C 134.181672 98.068786 134.554198 98.968144 135.217206 99.631151 
C 135.880214 100.294159 136.779572 100.666685 137.717206 100.666685 
z
" clip-path="url(#p33ffba1f54)"/>
   </g>
   <g id="matplotlib.axis_1"/>
   <g id="matplotlib.axis_2"/>
   <g id="line2d_1">
    <path d="M 378.178124 243.234952 
L 343.694473 200.617064 
L 322.497631 174.589416 
L 305.787119 154.438819 
L 293.881186 140.384919 
L 280.621616 125.118855 
L 269.176585 112.33673 
L 258.063987 100.337018 
L 250.194886 92.116848 
L 239.124171 80.987658 
L 229.986606 72.225223 
L 221.709812 64.651803 
L 214.788535 58.605714 
L 206.80117 51.97779 
L 198.973569 45.872038 
L 192.888336 41.410082 
L 187.33309 37.567246 
L 179.941269 32.815057 
L 171.592189 27.975882 
L 166.80915 25.472106 
L 164.352418 24.265741 
L 157.396512 21.15623 
L 150.075928 18.3982 
L 143.660136 16.44375 
L 138.068682 15.115218 
L 136.080069 14.730768 
L 129.973973 13.852432 
L 125.685138 13.519744 
L 121.301275 13.434857 
L 118.63829 13.514437 
L 115.195849 13.769942 
L 110.21283 14.457728 
L 105.140107 15.565064 
L 100.755128 16.873225 
L 97.288137 18.1508 
L 93.290512 19.904889 
L 90.725476 21.196347 
L 88.163243 22.621662 
L 84.901663 24.639901 
L 80.214085 27.962962 
L 76.507545 30.966442 
L 72.440643 34.672465 
L 68.954135 38.216306 
L 64.85745 42.847823 
L 61.604358 46.914428 
L 59.666342 49.512722 
L 55.85183 55.039573 
L 52.417406 60.52427 
L 50.164293 64.409303 
L 47.83885 68.67833 
L 44.794912 74.700916 
L 41.678143 81.436034 
L 38.875061 88.050447 
L 36.012189 95.432154 
L 32.76162 104.717251 
L 29.900254 113.855101 
L 27.49887 122.389621 
L 25.117867 131.840097 
L 23.030703 141.176354 
L 20.924887 151.963687 
L 19.820839 158.375605 
L 18.220913 169.02435 
L 16.952221 179.247384 
L 16.195388 186.640732 
L 15.380387 196.722936 
L 14.818548 206.815394 
L 14.51713 216.987885 
L 14.488159 226.57251 
L 14.703475 235.637646 
L 15.168135 244.605251 
L 16.052653 254.976388 
L 16.887477 261.977444 
L 18.061523 269.683609 
L 18.795382 273.709675 
L 20.333309 280.852367 
L 21.756939 286.350528 
L 23.275585 291.367234 
L 24.165033 293.982577 
L 26.429938 299.786064 
L 28.209078 303.641835 
L 30.219321 307.399336 
L 32.080203 310.400691 
L 34.445528 313.654574 
L 36.010052 315.505754 
L 37.430398 317.001162 
L 40.051587 319.345212 
L 42.882458 321.339332 
L 45.774884 322.871525 
L 48.520658 323.90719 
L 51.624636 324.639096 
L 53.509159 324.876243 
L 57.015238 324.93794 
L 60.758125 324.507097 
L 63.341251 323.937339 
L 65.737195 323.224889 
L 68.646027 322.137218 
L 72.632699 320.278031 
L 72.632699 320.278031 
" clip-path="url(#p33ffba1f54)" style="fill: none; stroke: #ffffff; stroke-linecap: square"/>
   </g>
   <g id="line2d_2">
    <path d="M 72.632699 320.278031 
L 77.814479 315.503786 
L 82.4864 310.874151 
L 86.994362 306.05461 
L 91.129328 301.264197 
L 95.050893 296.319099 
L 98.399083 291.714034 
L 101.668811 286.790852 
L 104.614696 281.899825 
L 107.005219 277.52699 
L 109.346685 272.793507 
L 111.084085 268.913657 
L 113.010894 264.133859 
L 114.907357 258.773013 
L 116.686815 252.897084 
L 118.02597 247.673329 
L 119.09417 242.75746 
L 120.027643 237.622484 
L 120.950133 231.266364 
L 121.644389 224.917456 
L 122.157439 218.356022 
L 122.534579 210.85073 
L 122.768313 201.518553 
L 122.840112 189.50971 
L 122.955365 168.760644 
L 123.252913 159.380917 
L 123.718628 151.639262 
L 124.328684 144.956963 
L 125.10363 138.742605 
L 126.193351 132.071749 
L 127.30255 126.642218 
L 128.705663 120.940623 
L 130.181789 115.855089 
L 131.818552 110.960441 
L 133.456499 106.626955 
L 135.418455 101.988153 
L 137.717206 97.131151 
L 137.717206 97.131151 
" clip-path="url(#p33ffba1f54)" style="fill: none; stroke: #000000; stroke-linecap: square"/>
   </g>
   <g id="patch_3">
    <path d="M 122.840747 186.389903 
Q 122.840755 185.94361 122.840725 187.733384 
" clip-path="url(#p33ffba1f54)" style="fill: none; stroke: #000000; stroke-width: 2; stroke-linecap: round"/>
    <path d="M 117.840558 197.7333 
L 122.840725 187.733384 
L 127.840558 197.733467 
z
" clip-path="url(#p33ffba1f54)" style="stroke: #000000; stroke-width: 2; stroke-linecap: round"/>
   </g>
   <g id="text_1">
    <g clip-path="url(#p33ffba1f54)">
     <!-- $Q$ -->
     <g transform="translate(89.410325 318.250594) scale(0.25 -0.25)">
      <defs>
       <path id="Cmmi10-51" d="M 1947 -141 
Q 1466 -141 1094 79 
Q 722 300 520 692 
Q 319 1084 319 1563 
Q 319 2259 714 2950 
Q 1109 3641 1756 4077 
Q 2403 4513 3109 4513 
Q 3475 4513 3778 4381 
Q 4081 4250 4290 4017 
Q 4500 3784 4614 3471 
Q 4728 3159 4728 2791 
Q 4728 2366 4581 1936 
Q 4434 1506 4171 1136 
Q 3909 766 3559 484 
Q 3209 203 2809 38 
Q 2850 -256 2934 -425 
Q 3019 -594 3256 -594 
Q 3506 -594 3726 -412 
Q 3947 -231 4006 13 
Q 4019 72 4078 72 
Q 4147 72 4147 -13 
Q 4100 -219 4008 -430 
Q 3916 -641 3786 -823 
Q 3656 -1006 3478 -1123 
Q 3300 -1241 3084 -1241 
Q 2547 -1241 2547 -550 
Q 2547 -509 2562 -332 
Q 2578 -156 2578 -44 
Q 2269 -141 1947 -141 
z
M 1709 300 
Q 1709 44 1991 44 
Q 2275 44 2591 184 
L 2591 244 
Q 2591 503 2509 648 
Q 2428 794 2194 794 
Q 2078 794 1964 723 
Q 1850 653 1779 539 
Q 1709 425 1709 300 
z
M 1544 288 
Q 1544 456 1637 612 
Q 1731 769 1881 864 
Q 2031 959 2203 959 
Q 2481 959 2607 771 
Q 2734 584 2778 281 
Q 3188 525 3500 978 
Q 3813 1431 3977 1973 
Q 4141 2516 4141 3003 
Q 4141 3356 4023 3656 
Q 3906 3956 3664 4140 
Q 3422 4325 3066 4325 
Q 2722 4325 2403 4156 
Q 2084 3988 1813 3706 
Q 1550 3434 1342 3032 
Q 1134 2631 1021 2193 
Q 909 1756 909 1356 
Q 909 947 1068 612 
Q 1228 278 1569 128 
Q 1544 194 1544 288 
z
" transform="scale(0.015625)"/>
      </defs>
      <use xlink:href="#Cmmi10-51" transform="translate(0 0.484375)"/>
     </g>
    </g>
   </g>
   <g id="text_2">
    <g clip-path="url(#p33ffba1f54)">
     <!-- $R$ -->
     <g transform="translate(105.902518 117.418402) scale(0.25 -0.25)">
      <defs>
       <path id="Cmmi10-52" d="M 313 0 
Q 250 0 250 84 
Q 253 100 262 139 
Q 272 178 289 201 
Q 306 225 331 225 
Q 722 225 878 269 
Q 959 297 997 441 
L 1875 3956 
Q 1888 4019 1888 4044 
Q 1888 4113 1813 4122 
Q 1691 4147 1350 4147 
Q 1288 4147 1288 4231 
Q 1291 4247 1300 4286 
Q 1309 4325 1326 4348 
Q 1344 4372 1369 4372 
L 3309 4372 
Q 3541 4372 3791 4319 
Q 4041 4266 4250 4152 
Q 4459 4038 4593 3848 
Q 4728 3659 4728 3406 
Q 4728 3084 4515 2831 
Q 4303 2578 3978 2408 
Q 3653 2238 3347 2169 
Q 3597 2078 3756 1879 
Q 3916 1681 3916 1422 
Q 3916 1388 3914 1370 
Q 3913 1353 3909 1331 
L 3859 763 
Q 3853 638 3847 550 
Q 3841 463 3841 409 
Q 3841 234 3892 129 
Q 3944 25 4097 25 
Q 4297 25 4448 211 
Q 4600 397 4647 616 
Q 4675 672 4709 672 
L 4769 672 
Q 4831 672 4831 588 
Q 4784 403 4682 237 
Q 4581 72 4426 -34 
Q 4272 -141 4091 -141 
Q 3716 -141 3452 26 
Q 3188 194 3188 550 
Q 3188 684 3213 788 
L 3353 1356 
Q 3378 1434 3378 1538 
Q 3378 1803 3198 1954 
Q 3019 2106 2747 2106 
L 1959 2106 
L 1538 416 
Q 1522 363 1522 325 
Q 1522 259 1600 250 
Q 1722 225 2059 225 
Q 2125 225 2125 141 
Q 2103 50 2090 25 
Q 2078 0 2016 0 
L 313 0 
z
M 1997 2272 
L 2706 2272 
Q 3403 2272 3756 2625 
Q 3919 2788 4014 3039 
Q 4109 3291 4109 3541 
Q 4109 3778 3970 3912 
Q 3831 4047 3626 4097 
Q 3422 4147 3175 4147 
L 2747 4147 
Q 2572 4147 2515 4117 
Q 2459 4088 2413 3928 
L 1997 2272 
z
" transform="scale(0.015625)"/>
      </defs>
      <use xlink:href="#Cmmi10-52" transform="translate(0 0.6875)"/>
     </g>
    </g>
   </g>
   <g id="PathCollection_2">
    <path d="M 72.632699 323.813565 
C 73.570334 323.813565 74.469692 323.441039 75.132699 322.778031 
C 75.795707 322.115024 76.168233 321.215666 76.168233 320.278031 
C 76.168233 319.340397 75.795707 318.441039 75.132699 317.778031 
C 74.469692 317.115024 73.570334 316.742497 72.632699 316.742497 
C 71.695065 316.742497 70.795707 317.115024 70.132699 317.778031 
C 69.469692 318.441039 69.097166 319.340397 69.097166 320.278031 
C 69.097166 321.215666 69.469692 322.115024 70.132699 322.778031 
C 70.795707 323.441039 71.695065 323.813565 72.632699 323.813565 
z
" clip-path="url(#p33ffba1f54)"/>
   </g>
  </g>
 </g>
 <defs>
  <clipPath id="p33ffba1f54">
   <rect x="7.2" y="7.2" width="378.252205" height="324"/>
  </clipPath>
 </defs>
</svg>
