<?xml version="1.0" encoding="utf-8" standalone="no"?>
<!DOCTYPE svg PUBLIC "-//W3C//DTD SVG 1.1//EN"
  "http://www.w3.org/Graphics/SVG/1.1/DTD/svg11.dtd">
<svg xmlns:xlink="http://www.w3.org/1999/xlink" width="392.679391pt" height="338.4pt" viewBox="0 0 392.679391 338.4" xmlns="http://www.w3.org/2000/svg" version="1.1">
 <metadata>
  <rdf:RDF xmlns:dc="http://purl.org/dc/elements/1.1/" xmlns:cc="http://creativecommons.org/ns#" xmlns:rdf="http://www.w3.org/1999/02/22-rdf-syntax-ns#">
   <cc:Work>
    <dc:type rdf:resource="http://purl.org/dc/dcmitype/StillImage"/>
    <dc:date>2025-06-11T11:19:04.551853</dc:date>
    <dc:format>image/svg+xml</dc:format>
    <dc:creator>
     <cc:Agent>
      <dc:title>Matplotlib v3.8.0, https://matplotlib.org/</dc:title>
     </cc:Agent>
    </dc:creator>
   </cc:Work>
  </rdf:RDF>
 </metadata>
 <defs>
  <style type="text/css">*{stroke-linejoin: round; stroke-linecap: butt}</style>
 </defs>
 <g id="figure_1">
  <g id="patch_1">
   <path d="M 0 338.4 
L 392.679391 338.4 
L 392.679391 0 
L 0 0 
z
" style="fill: #ffffff"/>
  </g>
  <g id="axes_1">
   <g id="patch_2">
    <path d="M 7.2 331.2 
L 385.479391 331.2 
L 385.479391 7.2 
L 7.2 7.2 
z
" style="fill: #ffffff"/>
   </g>
   <g id="PathCollection_1">
    <path d="M 137.729722 100.65651 
C 138.667356 100.65651 139.566714 100.283984 140.229722 99.620976 
C 140.892729 98.957968 141.265256 98.058611 141.265256 97.120976 
C 141.265256 96.183342 140.892729 95.283984 140.229722 94.620976 
C 139.566714 93.957968 138.667356 93.585442 137.729722 93.585442 
C 136.792087 93.585442 135.892729 93.957968 135.229722 94.620976 
C 134.566714 95.283984 134.194188 96.183342 134.194188 97.120976 
C 134.194188 98.058611 134.566714 98.957968 135.229722 99.620976 
C 135.892729 100.283984 136.792087 100.65651 137.729722 100.65651 
z
" clip-path="url(#p662623a560)"/>
   </g>
   <g id="matplotlib.axis_1"/>
   <g id="matplotlib.axis_2"/>
   <g id="line2d_1">
    <path d="M 378.204787 243.233372 
L 347.368889 205.124365 
L 324.418891 176.897074 
L 309.526491 158.875944 
L 296.922734 143.913748 
L 283.769365 128.669153 
L 274.39466 118.082924 
L 267.016612 109.939391 
L 256.037183 98.166093 
L 244.622617 86.418694 
L 237.386299 79.261245 
L 230.02409 72.231883 
L 221.213295 64.181497 
L 212.480967 56.62456 
L 207.908715 52.847206 
L 199.201183 46.018505 
L 193.995016 42.177501 
L 187.282167 37.50904 
L 181.101142 33.509189 
L 174.017604 29.299129 
L 165.902393 24.999026 
L 159.509393 22.031253 
L 154.280554 19.895899 
L 150.322529 18.462808 
L 144.890644 16.765196 
L 141.135973 15.781508 
L 135.001181 14.524967 
L 130.601272 13.90468 
L 126.652423 13.557792 
L 124.016496 13.440971 
L 120.618878 13.430769 
L 117.780386 13.547405 
L 114.629559 13.815007 
L 110.184684 14.449611 
L 106.128027 15.303625 
L 103.114991 16.115721 
L 100.248524 17.034902 
L 97.562852 18.030657 
L 93.658919 19.720178 
L 89.293079 21.966978 
L 85.224308 24.421438 
L 82.197768 26.486256 
L 77.488298 30.131395 
L 74.095956 33.104396 
L 70.203266 36.901195 
L 66.081163 41.405207 
L 64.49929 43.274693 
L 60.858774 47.895589 
L 57.795721 52.150889 
L 54.23851 57.5525 
L 51.717245 61.706625 
L 47.343172 69.626374 
L 44.407907 75.507726 
L 41.716868 81.352929 
L 38.743394 88.381226 
L 36.389104 94.42783 
L 33.771092 101.728655 
L 30.440313 112.062716 
L 28.60725 118.352959 
L 26.55872 126.004473 
L 24.935316 132.630078 
L 22.539788 143.571319 
L 20.546981 154.114384 
L 19.117917 162.851063 
L 17.4952 174.652276 
L 16.305464 185.529357 
L 15.627657 193.381072 
L 14.930668 204.48149 
L 14.572778 214.41677 
L 14.474604 223.32572 
L 14.546199 230.00045 
L 14.878245 239.526145 
L 15.475076 248.691002 
L 16.464991 258.604226 
L 17.261024 264.602602 
L 18.763995 273.518596 
L 20.086718 279.7794 
L 21.54783 285.576822 
L 22.781622 289.800275 
L 24.545951 295.02514 
L 25.751173 298.149356 
L 27.623921 302.422552 
L 29.688272 306.453363 
L 31.700424 309.814549 
L 33.34253 312.20331 
L 35.832628 315.302219 
L 38.189281 317.72963 
L 40.219494 319.475906 
L 42.465759 321.076615 
L 44.451093 322.229022 
L 47.093816 323.417508 
L 49.942132 324.298689 
L 52.169033 324.725171 
L 55.243321 324.969231 
L 58.690567 324.809418 
L 62.310267 324.195191 
L 65.908166 323.173496 
L 69.84506 321.628264 
L 72.641386 320.280985 
L 72.641386 320.280985 
" clip-path="url(#p662623a560)" style="fill: none; stroke: #ffffff; stroke-linecap: square"/>
   </g>
   <g id="line2d_2">
    <path d="M 72.641386 320.280985 
L 77.602977 315.716873 
L 81.88252 311.503859 
L 85.319979 307.901914 
L 89.44421 303.277194 
L 93.380976 298.492557 
L 96.459812 294.444221 
L 100.001056 289.377376 
L 103.275828 284.20178 
L 106.048788 279.346261 
L 108.645347 274.287745 
L 110.950826 269.24963 
L 113.32111 263.336706 
L 115.018215 258.4679 
L 116.649103 253.072088 
L 118.092936 247.435164 
L 119.241815 242.064229 
L 120.183385 236.729358 
L 121.179764 229.467466 
L 121.909361 221.976179 
L 122.426475 213.692034 
L 122.724198 204.685017 
L 122.845589 193.260547 
L 123.000784 167.169876 
L 123.281314 159.013683 
L 123.804994 150.673672 
L 124.414042 144.277138 
L 125.325219 137.30555 
L 126.264172 131.746931 
L 127.417092 126.179103 
L 128.637664 121.230738 
L 130.481635 114.936134 
L 132.132628 110.114866 
L 133.912184 105.521883 
L 136.010928 100.700159 
L 137.729722 97.120976 
L 137.729722 97.120976 
" clip-path="url(#p662623a560)" style="fill: none; stroke: #000000; stroke-linecap: square"/>
   </g>
   <g id="patch_3">
    <path d="M 122.852388 186.38498 
Q 122.852395 185.93866 122.852365 187.728408 
" clip-path="url(#p662623a560)" style="fill: none; stroke: #000000; stroke-width: 2; stroke-linecap: round"/>
    <path d="M 117.852199 197.728324 
L 122.852365 187.728408 
L 127.852199 197.728491 
z
" clip-path="url(#p662623a560)" style="stroke: #000000; stroke-width: 2; stroke-linecap: round"/>
   </g>
   <g id="text_1">
    <g clip-path="url(#p662623a560)">
     <!-- $Q$ -->
     <g transform="translate(89.420587 318.253022) scale(0.25 -0.25)">
      <defs>
       <path id="Cmmi10-51" d="M 1947 -141 
Q 1466 -141 1094 79 
Q 722 300 520 692 
Q 319 1084 319 1563 
Q 319 2259 714 2950 
Q 1109 3641 1756 4077 
Q 2403 4513 3109 4513 
Q 3475 4513 3778 4381 
Q 4081 4250 4290 4017 
Q 4500 3784 4614 3471 
Q 4728 3159 4728 2791 
Q 4728 2366 4581 1936 
Q 4434 1506 4171 1136 
Q 3909 766 3559 484 
Q 3209 203 2809 38 
Q 2850 -256 2934 -425 
Q 3019 -594 3256 -594 
Q 3506 -594 3726 -412 
Q 3947 -231 4006 13 
Q 4019 72 4078 72 
Q 4147 72 4147 -13 
Q 4100 -219 4008 -430 
Q 3916 -641 3786 -823 
Q 3656 -1006 3478 -1123 
Q 3300 -1241 3084 -1241 
Q 2547 -1241 2547 -550 
Q 2547 -509 2562 -332 
Q 2578 -156 2578 -44 
Q 2269 -141 1947 -141 
z
M 1709 300 
Q 1709 44 1991 44 
Q 2275 44 2591 184 
L 2591 244 
Q 2591 503 2509 648 
Q 2428 794 2194 794 
Q 2078 794 1964 723 
Q 1850 653 1779 539 
Q 1709 425 1709 300 
z
M 1544 288 
Q 1544 456 1637 612 
Q 1731 769 1881 864 
Q 2031 959 2203 959 
Q 2481 959 2607 771 
Q 2734 584 2778 281 
Q 3188 525 3500 978 
Q 3813 1431 3977 1973 
Q 4141 2516 4141 3003 
Q 4141 3356 4023 3656 
Q 3906 3956 3664 4140 
Q 3422 4325 3066 4325 
Q 2722 4325 2403 4156 
Q 2084 3988 1813 3706 
Q 1550 3434 1342 3032 
Q 1134 2631 1021 2193 
Q 909 1756 909 1356 
Q 909 947 1068 612 
Q 1228 278 1569 128 
Q 1544 194 1544 288 
z
" transform="scale(0.015625)"/>
      </defs>
      <use xlink:href="#Cmmi10-51" transform="translate(0 0.484375)"/>
     </g>
    </g>
   </g>
   <g id="text_2">
    <g clip-path="url(#p662623a560)">
     <!-- $R$ -->
     <g transform="translate(105.913721 117.409014) scale(0.25 -0.25)">
      <defs>
       <path id="Cmmi10-52" d="M 313 0 
Q 250 0 250 84 
Q 253 100 262 139 
Q 272 178 289 201 
Q 306 225 331 225 
Q 722 225 878 269 
Q 959 297 997 441 
L 1875 3956 
Q 1888 4019 1888 4044 
Q 1888 4113 1813 4122 
Q 1691 4147 1350 4147 
Q 1288 4147 1288 4231 
Q 1291 4247 1300 4286 
Q 1309 4325 1326 4348 
Q 1344 4372 1369 4372 
L 3309 4372 
Q 3541 4372 3791 4319 
Q 4041 4266 4250 4152 
Q 4459 4038 4593 3848 
Q 4728 3659 4728 3406 
Q 4728 3084 4515 2831 
Q 4303 2578 3978 2408 
Q 3653 2238 3347 2169 
Q 3597 2078 3756 1879 
Q 3916 1681 3916 1422 
Q 3916 1388 3914 1370 
Q 3913 1353 3909 1331 
L 3859 763 
Q 3853 638 3847 550 
Q 3841 463 3841 409 
Q 3841 234 3892 129 
Q 3944 25 4097 25 
Q 4297 25 4448 211 
Q 4600 397 4647 616 
Q 4675 672 4709 672 
L 4769 672 
Q 4831 672 4831 588 
Q 4784 403 4682 237 
Q 4581 72 4426 -34 
Q 4272 -141 4091 -141 
Q 3716 -141 3452 26 
Q 3188 194 3188 550 
Q 3188 684 3213 788 
L 3353 1356 
Q 3378 1434 3378 1538 
Q 3378 1803 3198 1954 
Q 3019 2106 2747 2106 
L 1959 2106 
L 1538 416 
Q 1522 363 1522 325 
Q 1522 259 1600 250 
Q 1722 225 2059 225 
Q 2125 225 2125 141 
Q 2103 50 2090 25 
Q 2078 0 2016 0 
L 313 0 
z
M 1997 2272 
L 2706 2272 
Q 3403 2272 3756 2625 
Q 3919 2788 4014 3039 
Q 4109 3291 4109 3541 
Q 4109 3778 3970 3912 
Q 3831 4047 3626 4097 
Q 3422 4147 3175 4147 
L 2747 4147 
Q 2572 4147 2515 4117 
Q 2459 4088 2413 3928 
L 1997 2272 
z
" transform="scale(0.015625)"/>
      </defs>
      <use xlink:href="#Cmmi10-52" transform="translate(0 0.6875)"/>
     </g>
    </g>
   </g>
   <g id="PathCollection_2">
    <path d="M 72.641386 323.816519 
C 73.57902 323.816519 74.478378 323.443993 75.141386 322.780985 
C 75.804394 322.117977 76.17692 321.218619 76.17692 320.280985 
C 76.17692 319.34335 75.804394 318.443993 75.141386 317.780985 
C 74.478378 317.117977 73.57902 316.745451 72.641386 316.745451 
C 71.703751 316.745451 70.804394 317.117977 70.141386 317.780985 
C 69.478378 318.443993 69.105852 319.34335 69.105852 320.280985 
C 69.105852 321.218619 69.478378 322.117977 70.141386 322.780985 
C 70.804394 323.443993 71.703751 323.816519 72.641386 323.816519 
z
" clip-path="url(#p662623a560)"/>
   </g>
  </g>
 </g>
 <defs>
  <clipPath id="p662623a560">
   <rect x="7.2" y="7.2" width="378.279391" height="324"/>
  </clipPath>
 </defs>
</svg>
