<?xml version="1.0" encoding="utf-8" standalone="no"?>
<!DOCTYPE svg PUBLIC "-//W3C//DTD SVG 1.1//EN"
  "http://www.w3.org/Graphics/SVG/1.1/DTD/svg11.dtd">
<svg xmlns:xlink="http://www.w3.org/1999/xlink" width="392.656109pt" height="338.4pt" viewBox="0 0 392.656109 338.4" xmlns="http://www.w3.org/2000/svg" version="1.1">
 <metadata>
  <rdf:RDF xmlns:dc="http://purl.org/dc/elements/1.1/" xmlns:cc="http://creativecommons.org/ns#" xmlns:rdf="http://www.w3.org/1999/02/22-rdf-syntax-ns#">
   <cc:Work>
    <dc:type rdf:resource="http://purl.org/dc/dcmitype/StillImage"/>
    <dc:date>2025-06-11T11:20:17.553140</dc:date>
    <dc:format>image/svg+xml</dc:format>
    <dc:creator>
     <cc:Agent>
      <dc:title>Matplotlib v3.8.0, https://matplotlib.org/</dc:title>
     </cc:Agent>
    </dc:creator>
   </cc:Work>
  </rdf:RDF>
 </metadata>
 <defs>
  <style type="text/css">*{stroke-linejoin: round; stroke-linecap: butt}</style>
 </defs>
 <g id="figure_1">
  <g id="patch_1">
   <path d="M 0 338.4 
L 392.656109 338.4 
L 392.656109 0 
L 0 0 
z
" style="fill: #ffffff"/>
  </g>
  <g id="axes_1">
   <g id="patch_2">
    <path d="M 7.2 331.2 
L 385.456109 331.2 
L 385.456109 7.2 
L 7.2 7.2 
z
" style="fill: #ffffff"/>
   </g>
   <g id="PathCollection_1">
    <path d="M 378.181953 246.771447 
C 379.119587 246.771447 380.018945 246.398921 380.681953 245.735913 
C 381.344961 245.072905 381.717487 244.173547 381.717487 243.235913 
C 381.717487 242.298278 381.344961 241.398921 380.681953 240.735913 
C 380.018945 240.072905 379.119587 239.700379 378.181953 239.700379 
C 377.244318 239.700379 376.344961 240.072905 375.681953 240.735913 
C 375.018945 241.398921 374.646419 242.298278 374.646419 243.235913 
C 374.646419 244.173547 375.018945 245.072905 375.681953 245.735913 
C 376.344961 246.398921 377.244318 246.771447 378.181953 246.771447 
z
" clip-path="url(#pa7b835a3f1)"/>
   </g>
   <g id="PathCollection_2">
    <path d="M 137.719531 100.666733 
C 138.657166 100.666733 139.556523 100.294207 140.219531 99.631199 
C 140.882539 98.968191 141.255065 98.068833 141.255065 97.131199 
C 141.255065 96.193564 140.882539 95.294207 140.219531 94.631199 
C 139.556523 93.968191 138.657166 93.595665 137.719531 93.595665 
C 136.781896 93.595665 135.882539 93.968191 135.219531 94.631199 
C 134.556523 95.294207 134.183997 96.193564 134.183997 97.131199 
C 134.183997 98.068833 134.556523 98.968191 135.219531 99.631199 
C 135.882539 100.294207 136.781896 100.666733 137.719531 100.666733 
z
" clip-path="url(#pa7b835a3f1)"/>
   </g>
   <g id="matplotlib.axis_1"/>
   <g id="matplotlib.axis_2"/>
   <g id="line2d_1">
    <path d="M 378.181953 243.235913 
L 348.211098 206.196836 
L 326.935507 180.001342 
L 309.587473 158.979076 
L 295.366316 142.11802 
L 283.379989 128.253483 
L 270.852404 114.179598 
L 258.485022 100.780384 
L 249.158679 91.04979 
L 239.583208 81.435356 
L 233.051116 75.115847 
L 224.812999 67.446114 
L 218.327497 61.660653 
L 212.133005 56.356817 
L 207.715636 52.71433 
L 201.293129 47.637124 
L 193.895881 42.128757 
L 187.26425 37.518962 
L 179.184594 32.350893 
L 176.40604 30.693474 
L 169.313193 26.756003 
L 167.566858 25.853538 
L 160.362817 22.424322 
L 153.776578 19.722948 
L 149.890905 18.334385 
L 146.251302 17.17806 
L 142.926097 16.247904 
L 138.615228 15.228149 
L 134.493457 14.45734 
L 129.715207 13.824859 
L 127.047226 13.598559 
L 122.40116 13.430769 
L 119.025004 13.496199 
L 113.580755 13.950672 
L 108.916984 14.700512 
L 105.098031 15.576128 
L 100.710061 16.88868 
L 97.891811 17.912769 
L 94.669 19.265577 
L 90.963416 21.071561 
L 87.085562 23.263596 
L 85.258482 24.40855 
L 80.47975 27.761858 
L 76.800541 30.717656 
L 73.652825 33.522543 
L 70.554314 36.547759 
L 68.849614 38.329746 
L 63.846537 44.075263 
L 61.688158 46.807252 
L 58.817319 50.696715 
L 55.544287 55.512884 
L 51.192975 62.608905 
L 47.96747 68.438179 
L 45.541964 73.17803 
L 42.530969 79.535534 
L 40.280746 84.666943 
L 36.558391 93.974989 
L 33.308206 103.085861 
L 30.729121 111.108427 
L 27.930391 120.795379 
L 25.536892 130.100786 
L 23.649509 138.295167 
L 21.912862 146.707817 
L 20.328439 155.359467 
L 18.580024 166.471106 
L 17.397394 175.429409 
L 16.348282 185.052221 
L 15.343219 197.29624 
L 14.753319 208.454529 
L 14.582644 213.850144 
L 14.47491 224.640312 
L 14.681577 234.995037 
L 14.922349 240.461664 
L 15.547779 249.617511 
L 16.461109 258.605399 
L 17.207801 264.264679 
L 18.439255 271.8091 
L 19.551225 277.40078 
L 20.952681 283.349228 
L 22.646151 289.375501 
L 24.771601 295.646232 
L 26.701881 300.409238 
L 28.972441 305.135761 
L 31.866598 310.076045 
L 33.493748 312.414015 
L 35.706995 315.163941 
L 38.158039 317.70364 
L 40.38577 319.608356 
L 41.322832 320.305595 
L 43.980088 321.977953 
L 46.466535 323.169746 
L 48.345314 323.853294 
L 50.884044 324.505325 
L 53.622219 324.887096 
L 55.348125 324.969231 
L 57.755299 324.893362 
L 60.334377 324.581739 
L 62.330672 324.18737 
L 64.515529 323.611595 
L 67.964719 322.415267 
L 69.839019 321.626424 
L 72.634617 320.279475 
L 72.634617 320.279475 
" clip-path="url(#pa7b835a3f1)" style="fill: none; stroke: #000000; stroke-linecap: square"/>
   </g>
   <g id="line2d_2">
    <path d="M 72.634617 320.279475 
L 77.105313 316.181367 
L 82.122261 311.250868 
L 86.61198 306.482176 
L 90.203652 302.374977 
L 93.900016 297.820073 
L 97.022125 293.660021 
L 100.178978 289.097096 
L 103.106497 284.469507 
L 105.948713 279.515422 
L 108.527773 274.512705 
L 110.669177 269.879301 
L 112.808215 264.671292 
L 114.503344 259.988922 
L 116.11372 254.909115 
L 117.52152 249.752625 
L 118.743743 244.47414 
L 119.877331 238.533106 
L 120.883796 231.803261 
L 121.606926 225.339706 
L 122.197335 217.758298 
L 122.55689 210.304575 
L 122.780419 200.797907 
L 122.842961 187.33907 
L 122.951884 169.05904 
L 123.209525 160.417112 
L 123.700424 151.911493 
L 124.387375 144.439836 
L 125.072474 138.978512 
L 125.994431 133.180953 
L 127.050221 127.80117 
L 128.384395 122.167149 
L 129.948279 116.618661 
L 131.375046 112.230316 
L 133.394314 106.78889 
L 135.131043 102.641324 
L 137.009233 98.575023 
L 137.719531 97.131199 
L 137.719531 97.131199 
" clip-path="url(#pa7b835a3f1)" style="fill: none; stroke: #000000; stroke-linecap: square"/>
   </g>
   <g id="patch_3">
    <path d="M 100.081857 17.104421 
Q 99.979467 17.140355 101.986984 16.435821 
" clip-path="url(#pa7b835a3f1)" style="fill: none; stroke: #000000; stroke-width: 2; stroke-linecap: round"/>
    <path d="M 113.078511 17.842243 
L 101.986984 16.435821 
L 109.767037 8.406452 
z
" clip-path="url(#pa7b835a3f1)" style="stroke: #000000; stroke-width: 2; stroke-linecap: round"/>
   </g>
   <g id="patch_4">
    <path d="M 122.842979 186.390509 
Q 122.842987 185.944213 122.842957 187.733984 
" clip-path="url(#pa7b835a3f1)" style="fill: none; stroke: #000000; stroke-width: 2; stroke-linecap: round"/>
    <path d="M 117.84279 197.733901 
L 122.842957 187.733984 
L 127.84279 197.734067 
z
" clip-path="url(#pa7b835a3f1)" style="stroke: #000000; stroke-width: 2; stroke-linecap: round"/>
   </g>
   <g id="text_1">
    <g clip-path="url(#pa7b835a3f1)">
     <!-- $P$ -->
     <g transform="translate(361.131022 272.449178) scale(0.25 -0.25)">
      <defs>
       <path id="Cmmi10-50" d="M 313 0 
Q 250 0 250 84 
Q 253 100 262 139 
Q 272 178 289 201 
Q 306 225 331 225 
Q 722 225 878 269 
Q 959 297 997 441 
L 1875 3956 
Q 1888 4019 1888 4044 
Q 1888 4113 1813 4122 
Q 1691 4147 1350 4147 
Q 1288 4147 1288 4231 
Q 1291 4247 1300 4286 
Q 1309 4325 1326 4348 
Q 1344 4372 1369 4372 
L 3578 4372 
Q 3881 4372 4165 4264 
Q 4450 4156 4631 3934 
Q 4813 3713 4813 3397 
Q 4813 2991 4527 2672 
Q 4241 2353 3814 2175 
Q 3388 1997 2988 1997 
L 1947 1997 
L 1556 416 
Q 1544 353 1544 325 
Q 1544 300 1551 283 
Q 1559 266 1573 261 
Q 1588 256 1619 250 
Q 1741 225 2081 225 
Q 2144 225 2144 141 
Q 2122 50 2109 25 
Q 2097 0 2034 0 
L 313 0 
z
M 1978 2188 
L 2875 2188 
Q 3497 2188 3822 2522 
Q 3988 2688 4092 3000 
Q 4197 3313 4197 3566 
Q 4197 3881 3956 4014 
Q 3716 4147 3359 4147 
L 2747 4147 
Q 2572 4147 2515 4117 
Q 2459 4088 2413 3928 
L 1978 2188 
z
" transform="scale(0.015625)"/>
      </defs>
      <use xlink:href="#Cmmi10-50" transform="translate(0 0.6875)"/>
     </g>
    </g>
   </g>
   <g id="text_2">
    <g clip-path="url(#pa7b835a3f1)">
     <!-- $R$ -->
     <g transform="translate(150.534359 81.714809) scale(0.25 -0.25)">
      <defs>
       <path id="Cmmi10-52" d="M 313 0 
Q 250 0 250 84 
Q 253 100 262 139 
Q 272 178 289 201 
Q 306 225 331 225 
Q 722 225 878 269 
Q 959 297 997 441 
L 1875 3956 
Q 1888 4019 1888 4044 
Q 1888 4113 1813 4122 
Q 1691 4147 1350 4147 
Q 1288 4147 1288 4231 
Q 1291 4247 1300 4286 
Q 1309 4325 1326 4348 
Q 1344 4372 1369 4372 
L 3309 4372 
Q 3541 4372 3791 4319 
Q 4041 4266 4250 4152 
Q 4459 4038 4593 3848 
Q 4728 3659 4728 3406 
Q 4728 3084 4515 2831 
Q 4303 2578 3978 2408 
Q 3653 2238 3347 2169 
Q 3597 2078 3756 1879 
Q 3916 1681 3916 1422 
Q 3916 1388 3914 1370 
Q 3913 1353 3909 1331 
L 3859 763 
Q 3853 638 3847 550 
Q 3841 463 3841 409 
Q 3841 234 3892 129 
Q 3944 25 4097 25 
Q 4297 25 4448 211 
Q 4600 397 4647 616 
Q 4675 672 4709 672 
L 4769 672 
Q 4831 672 4831 588 
Q 4784 403 4682 237 
Q 4581 72 4426 -34 
Q 4272 -141 4091 -141 
Q 3716 -141 3452 26 
Q 3188 194 3188 550 
Q 3188 684 3213 788 
L 3353 1356 
Q 3378 1434 3378 1538 
Q 3378 1803 3198 1954 
Q 3019 2106 2747 2106 
L 1959 2106 
L 1538 416 
Q 1522 363 1522 325 
Q 1522 259 1600 250 
Q 1722 225 2059 225 
Q 2125 225 2125 141 
Q 2103 50 2090 25 
Q 2078 0 2016 0 
L 313 0 
z
M 1997 2272 
L 2706 2272 
Q 3403 2272 3756 2625 
Q 3919 2788 4014 3039 
Q 4109 3291 4109 3541 
Q 4109 3778 3970 3912 
Q 3831 4047 3626 4097 
Q 3422 4147 3175 4147 
L 2747 4147 
Q 2572 4147 2515 4117 
Q 2459 4088 2413 3928 
L 1997 2272 
z
" transform="scale(0.015625)"/>
      </defs>
      <use xlink:href="#Cmmi10-52" transform="translate(0 0.6875)"/>
     </g>
    </g>
   </g>
  </g>
 </g>
 <defs>
  <clipPath id="pa7b835a3f1">
   <rect x="7.2" y="7.2" width="378.256109" height="324"/>
  </clipPath>
 </defs>
</svg>
