<?xml version="1.0" encoding="utf-8" standalone="no"?>
<!DOCTYPE svg PUBLIC "-//W3C//DTD SVG 1.1//EN"
  "http://www.w3.org/Graphics/SVG/1.1/DTD/svg11.dtd">
<svg xmlns:xlink="http://www.w3.org/1999/xlink" width="392.666476pt" height="338.4pt" viewBox="0 0 392.666476 338.4" xmlns="http://www.w3.org/2000/svg" version="1.1">
 <metadata>
  <rdf:RDF xmlns:dc="http://purl.org/dc/elements/1.1/" xmlns:cc="http://creativecommons.org/ns#" xmlns:rdf="http://www.w3.org/1999/02/22-rdf-syntax-ns#">
   <cc:Work>
    <dc:type rdf:resource="http://purl.org/dc/dcmitype/StillImage"/>
    <dc:date>2025-06-11T11:27:44.301749</dc:date>
    <dc:format>image/svg+xml</dc:format>
    <dc:creator>
     <cc:Agent>
      <dc:title>Matplotlib v3.8.0, https://matplotlib.org/</dc:title>
     </cc:Agent>
    </dc:creator>
   </cc:Work>
  </rdf:RDF>
 </metadata>
 <defs>
  <style type="text/css">*{stroke-linejoin: round; stroke-linecap: butt}</style>
 </defs>
 <g id="figure_1">
  <g id="patch_1">
   <path d="M 0 338.4 
L 392.666476 338.4 
L 392.666476 0 
L 0 0 
z
" style="fill: #ffffff"/>
  </g>
  <g id="axes_1">
   <g id="patch_2">
    <path d="M 7.2 331.2 
L 385.466476 331.2 
L 385.466476 7.2 
L 7.2 7.2 
z
" style="fill: #ffffff"/>
   </g>
   <g id="PathCollection_1">
    <path d="M 378.19212 246.769322 
C 379.129755 246.769322 380.029113 246.396796 380.69212 245.733788 
C 381.355128 245.07078 381.727654 244.171423 381.727654 243.233788 
C 381.727654 242.296153 381.355128 241.396796 380.69212 240.733788 
C 380.029113 240.07078 379.129755 239.698254 378.19212 239.698254 
C 377.254486 239.698254 376.355128 240.07078 375.69212 240.733788 
C 375.029113 241.396796 374.656587 242.296153 374.656587 243.233788 
C 374.656587 244.171423 375.029113 245.07078 375.69212 245.733788 
C 376.355128 246.396796 377.254486 246.769322 378.19212 246.769322 
z
" clip-path="url(#pb3a8bf5337)"/>
   </g>
   <g id="PathCollection_2">
    <path d="M 72.637223 323.81479 
C 73.574858 323.81479 74.474215 323.442264 75.137223 322.779256 
C 75.800231 322.116249 76.172757 321.216891 76.172757 320.279256 
C 76.172757 319.341622 75.800231 318.442264 75.137223 317.779256 
C 74.474215 317.116249 73.574858 316.743722 72.637223 316.743722 
C 71.699589 316.743722 70.800231 317.116249 70.137223 317.779256 
C 69.474215 318.442264 69.101689 319.341622 69.101689 320.279256 
C 69.101689 321.216891 69.474215 322.116249 70.137223 322.779256 
C 70.800231 323.442264 71.699589 323.81479 72.637223 323.81479 
z
" clip-path="url(#pb3a8bf5337)"/>
   </g>
   <g id="matplotlib.axis_1"/>
   <g id="matplotlib.axis_2"/>
   <g id="line2d_1">
    <path d="M 378.19212 243.233788 
L 343.449343 200.295807 
L 324.696294 177.251439 
L 306.722442 155.536808 
L 293.661676 140.111021 
L 280.55185 125.022497 
L 274.45729 118.167597 
L 261.031636 103.482022 
L 250.462355 92.376022 
L 242.539793 84.348101 
L 232.316769 74.405719 
L 224.22644 66.901204 
L 217.291736 60.746344 
L 212.115478 56.330305 
L 202.140329 48.280117 
L 196.960106 44.353758 
L 190.639273 39.813964 
L 186.70509 37.134259 
L 179.500042 32.532483 
L 172.719567 28.583087 
L 167.795385 25.960055 
L 163.855562 24.017037 
L 159.850295 22.189212 
L 156.252681 20.678714 
L 151.650693 18.934579 
L 145.926345 17.072753 
L 141.22003 15.809995 
L 138.322065 15.15798 
L 132.796913 14.191672 
L 128.194618 13.676364 
L 124.647889 13.467419 
L 120.989455 13.430769 
L 118.43969 13.516473 
L 112.723211 14.055677 
L 108.058614 14.869305 
L 103.774911 15.929862 
L 99.758783 17.211595 
L 96.616721 18.418028 
L 92.505659 20.280425 
L 89.198606 22.023913 
L 85.020535 24.557474 
L 80.315885 27.881064 
L 77.827457 29.85337 
L 75.458431 31.87653 
L 70.849546 36.243125 
L 67.593411 39.694128 
L 64.727362 43.001389 
L 61.643149 46.861999 
L 57.75567 52.209181 
L 55.611983 55.405505 
L 52.320057 60.686966 
L 49.740938 65.16648 
L 46.343881 71.572603 
L 42.848145 78.837294 
L 40.462502 84.237656 
L 37.461694 91.612753 
L 34.800648 98.775035 
L 32.154519 106.578335 
L 29.959552 113.660738 
L 27.902168 120.899467 
L 25.874008 128.724082 
L 23.381005 139.536961 
L 21.851226 147.027439 
L 20.614706 153.715805 
L 19.019957 163.482463 
L 17.919464 171.292214 
L 16.506698 183.462877 
L 15.614906 193.515944 
L 14.895707 205.158642 
L 14.552062 215.246061 
L 14.474355 224.242361 
L 14.635299 233.566071 
L 15.009248 242.008309 
L 15.499315 249.019627 
L 16.036078 254.790394 
L 16.983387 262.662604 
L 18.457195 271.898781 
L 20.194728 280.254234 
L 21.890855 286.814433 
L 23.591696 292.312861 
L 25.330479 297.101421 
L 26.811355 300.653202 
L 28.473686 304.164854 
L 30.02397 307.054235 
L 32.722888 311.339396 
L 33.810977 312.834695 
L 36.223747 315.738972 
L 38.252622 317.790048 
L 40.728587 319.868678 
L 42.57204 321.144676 
L 44.559958 322.285505 
L 46.302433 323.100476 
L 48.928296 324.029097 
L 51.798125 324.667975 
L 53.672706 324.890912 
L 55.357812 324.969231 
L 58.152757 324.860547 
L 59.83882 324.659557 
L 62.732705 324.092944 
L 64.844169 323.513056 
L 68.72758 322.106469 
L 72.637223 320.279256 
L 72.637223 320.279256 
" clip-path="url(#pb3a8bf5337)" style="fill: none; stroke: #000000; stroke-linecap: square"/>
   </g>
   <g id="patch_3">
    <path d="M 100.085142 17.0967 
Q 99.982749 17.132635 101.990264 16.428101 
" clip-path="url(#pb3a8bf5337)" style="fill: none; stroke: #000000; stroke-width: 2; stroke-linecap: round"/>
    <path d="M 113.081791 17.834523 
L 101.990264 16.428101 
L 109.770317 8.398733 
z
" clip-path="url(#pb3a8bf5337)" style="stroke: #000000; stroke-width: 2; stroke-linecap: round"/>
   </g>
   <g id="text_1">
    <g clip-path="url(#pb3a8bf5337)">
     <!-- $P$ -->
     <g transform="translate(361.140969 272.447605) scale(0.25 -0.25)">
      <defs>
       <path id="Cmmi10-50" d="M 313 0 
Q 250 0 250 84 
Q 253 100 262 139 
Q 272 178 289 201 
Q 306 225 331 225 
Q 722 225 878 269 
Q 959 297 997 441 
L 1875 3956 
Q 1888 4019 1888 4044 
Q 1888 4113 1813 4122 
Q 1691 4147 1350 4147 
Q 1288 4147 1288 4231 
Q 1291 4247 1300 4286 
Q 1309 4325 1326 4348 
Q 1344 4372 1369 4372 
L 3578 4372 
Q 3881 4372 4165 4264 
Q 4450 4156 4631 3934 
Q 4813 3713 4813 3397 
Q 4813 2991 4527 2672 
Q 4241 2353 3814 2175 
Q 3388 1997 2988 1997 
L 1947 1997 
L 1556 416 
Q 1544 353 1544 325 
Q 1544 300 1551 283 
Q 1559 266 1573 261 
Q 1588 256 1619 250 
Q 1741 225 2081 225 
Q 2144 225 2144 141 
Q 2122 50 2109 25 
Q 2097 0 2034 0 
L 313 0 
z
M 1978 2188 
L 2875 2188 
Q 3497 2188 3822 2522 
Q 3988 2688 4092 3000 
Q 4197 3313 4197 3566 
Q 4197 3881 3956 4014 
Q 3716 4147 3359 4147 
L 2747 4147 
Q 2572 4147 2515 4117 
Q 2459 4088 2413 3928 
L 1978 2188 
z
" transform="scale(0.015625)"/>
      </defs>
      <use xlink:href="#Cmmi10-50" transform="translate(0 0.6875)"/>
     </g>
    </g>
   </g>
   <g id="text_2">
    <g clip-path="url(#pb3a8bf5337)">
     <!-- $Q$ -->
     <g transform="translate(84.952603 322.714618) scale(0.25 -0.25)">
      <defs>
       <path id="Cmmi10-51" d="M 1947 -141 
Q 1466 -141 1094 79 
Q 722 300 520 692 
Q 319 1084 319 1563 
Q 319 2259 714 2950 
Q 1109 3641 1756 4077 
Q 2403 4513 3109 4513 
Q 3475 4513 3778 4381 
Q 4081 4250 4290 4017 
Q 4500 3784 4614 3471 
Q 4728 3159 4728 2791 
Q 4728 2366 4581 1936 
Q 4434 1506 4171 1136 
Q 3909 766 3559 484 
Q 3209 203 2809 38 
Q 2850 -256 2934 -425 
Q 3019 -594 3256 -594 
Q 3506 -594 3726 -412 
Q 3947 -231 4006 13 
Q 4019 72 4078 72 
Q 4147 72 4147 -13 
Q 4100 -219 4008 -430 
Q 3916 -641 3786 -823 
Q 3656 -1006 3478 -1123 
Q 3300 -1241 3084 -1241 
Q 2547 -1241 2547 -550 
Q 2547 -509 2562 -332 
Q 2578 -156 2578 -44 
Q 2269 -141 1947 -141 
z
M 1709 300 
Q 1709 44 1991 44 
Q 2275 44 2591 184 
L 2591 244 
Q 2591 503 2509 648 
Q 2428 794 2194 794 
Q 2078 794 1964 723 
Q 1850 653 1779 539 
Q 1709 425 1709 300 
z
M 1544 288 
Q 1544 456 1637 612 
Q 1731 769 1881 864 
Q 2031 959 2203 959 
Q 2481 959 2607 771 
Q 2734 584 2778 281 
Q 3188 525 3500 978 
Q 3813 1431 3977 1973 
Q 4141 2516 4141 3003 
Q 4141 3356 4023 3656 
Q 3906 3956 3664 4140 
Q 3422 4325 3066 4325 
Q 2722 4325 2403 4156 
Q 2084 3988 1813 3706 
Q 1550 3434 1342 3032 
Q 1134 2631 1021 2193 
Q 909 1756 909 1356 
Q 909 947 1068 612 
Q 1228 278 1569 128 
Q 1544 194 1544 288 
z
" transform="scale(0.015625)"/>
      </defs>
      <use xlink:href="#Cmmi10-51" transform="translate(0 0.484375)"/>
     </g>
    </g>
   </g>
  </g>
 </g>
 <defs>
  <clipPath id="pb3a8bf5337">
   <rect x="7.2" y="7.2" width="378.266476" height="324"/>
  </clipPath>
 </defs>
</svg>
