<?xml version="1.0" encoding="utf-8" standalone="no"?>
<!DOCTYPE svg PUBLIC "-//W3C//DTD SVG 1.1//EN"
  "http://www.w3.org/Graphics/SVG/1.1/DTD/svg11.dtd">
<svg xmlns:xlink="http://www.w3.org/1999/xlink" width="392.656825pt" height="338.4pt" viewBox="0 0 392.656825 338.4" xmlns="http://www.w3.org/2000/svg" version="1.1">
 <metadata>
  <rdf:RDF xmlns:dc="http://purl.org/dc/elements/1.1/" xmlns:cc="http://creativecommons.org/ns#" xmlns:rdf="http://www.w3.org/1999/02/22-rdf-syntax-ns#">
   <cc:Work>
    <dc:type rdf:resource="http://purl.org/dc/dcmitype/StillImage"/>
    <dc:date>2025-06-11T11:23:03.738005</dc:date>
    <dc:format>image/svg+xml</dc:format>
    <dc:creator>
     <cc:Agent>
      <dc:title>Matplotlib v3.8.0, https://matplotlib.org/</dc:title>
     </cc:Agent>
    </dc:creator>
   </cc:Work>
  </rdf:RDF>
 </metadata>
 <defs>
  <style type="text/css">*{stroke-linejoin: round; stroke-linecap: butt}</style>
 </defs>
 <g id="figure_1">
  <g id="patch_1">
   <path d="M 0 338.4 
L 392.656825 338.4 
L 392.656825 0 
L 0 0 
z
" style="fill: #ffffff"/>
  </g>
  <g id="axes_1">
   <g id="patch_2">
    <path d="M 7.2 331.2 
L 385.456825 331.2 
L 385.456825 7.2 
L 7.2 7.2 
z
" style="fill: #ffffff"/>
   </g>
   <g id="PathCollection_1">
    <path d="M 378.182655 246.771175 
C 379.12029 246.771175 380.019647 246.398648 380.682655 245.735641 
C 381.345663 245.072633 381.718189 244.173275 381.718189 243.235641 
C 381.718189 242.298006 381.345663 241.398648 380.682655 240.735641 
C 380.019647 240.072633 379.12029 239.700107 378.182655 239.700107 
C 377.245021 239.700107 376.345663 240.072633 375.682655 240.735641 
C 375.019647 241.398648 374.647121 242.298006 374.647121 243.235641 
C 374.647121 244.173275 375.019647 245.072633 375.682655 245.735641 
C 376.345663 246.398648 377.245021 246.771175 378.182655 246.771175 
z
" clip-path="url(#p25a5d41bd6)"/>
   </g>
   <g id="PathCollection_2">
    <path d="M 72.636083 323.814544 
C 73.573717 323.814544 74.473075 323.442018 75.136083 322.77901 
C 75.79909 322.116002 76.171616 321.216644 76.171616 320.27901 
C 76.171616 319.341375 75.79909 318.442018 75.136083 317.77901 
C 74.473075 317.116002 73.573717 316.743476 72.636083 316.743476 
C 71.698448 316.743476 70.79909 317.116002 70.136083 317.77901 
C 69.473075 318.442018 69.100549 319.341375 69.100549 320.27901 
C 69.100549 321.216644 69.473075 322.116002 70.136083 322.77901 
C 70.79909 323.442018 71.698448 323.814544 72.636083 323.814544 
z
" clip-path="url(#p25a5d41bd6)"/>
   </g>
   <g id="matplotlib.axis_1"/>
   <g id="matplotlib.axis_2"/>
   <g id="line2d_1">
    <path d="M 378.182655 243.235641 
L 342.221557 198.793114 
L 322.778637 174.926824 
L 306.775757 155.613684 
L 292.386468 138.63756 
L 279.58184 123.936998 
L 270.161047 113.415833 
L 261.452161 103.945011 
L 251.069864 93.014642 
L 239.954593 81.799768 
L 232.46958 74.562324 
L 223.206177 65.990526 
L 217.674161 61.090015 
L 210.085086 54.652575 
L 202.7194 48.740933 
L 200.489074 47.01974 
L 193.548901 41.879083 
L 186.006824 36.681009 
L 179.784973 32.716781 
L 174.117081 29.37559 
L 167.370901 25.753617 
L 160.257088 22.377341 
L 153.659056 19.678483 
L 148.175309 17.771514 
L 142.394412 16.110594 
L 138.806721 15.268897 
L 133.475481 14.298788 
L 127.809447 13.653919 
L 122.323463 13.430769 
L 118.923751 13.501031 
L 116.390988 13.66149 
L 112.39663 14.109231 
L 107.899379 14.910877 
L 102.908991 16.189636 
L 98.067869 17.845349 
L 95.070506 19.087108 
L 91.117048 20.992213 
L 87.467476 23.034638 
L 84.417118 24.962004 
L 82.07635 26.583519 
L 78.799076 29.071643 
L 76.232638 31.205923 
L 72.279426 34.831856 
L 68.263713 38.964037 
L 66.969266 40.398525 
L 62.416513 45.869541 
L 58.742652 50.804261 
L 55.721639 55.243437 
L 51.617427 61.882164 
L 47.536332 69.260456 
L 44.800716 74.695757 
L 40.829133 83.388035 
L 37.183657 92.337614 
L 34.353735 100.04764 
L 31.969058 107.159358 
L 29.073465 116.706212 
L 26.427074 126.519576 
L 24.464851 134.65561 
L 22.670984 142.924413 
L 20.965147 151.759096 
L 19.898128 157.925265 
L 18.117736 169.807799 
L 17.237151 176.786996 
L 16.25236 186.068722 
L 15.486949 195.250166 
L 14.819198 206.874749 
L 14.494172 218.91191 
L 14.495744 226.975157 
L 14.733615 236.33833 
L 15.29626 246.397104 
L 15.813477 252.555713 
L 16.652087 260.145942 
L 17.825607 268.259023 
L 19.126033 275.362002 
L 20.158784 280.100209 
L 21.659019 285.988944 
L 23.343754 291.566543 
L 25.620808 297.832712 
L 27.131699 301.366541 
L 28.22703 303.672474 
L 29.944007 306.913521 
L 31.3328 309.241465 
L 32.785975 311.429566 
L 35.254704 314.63703 
L 36.662708 316.211355 
L 39.281075 318.707055 
L 40.073523 319.361091 
L 42.478353 321.084984 
L 45.374536 322.687043 
L 47.87074 323.696386 
L 48.987031 324.045773 
L 51.744358 324.659112 
L 55.386161 324.969231 
L 56.941657 324.942592 
L 60.364837 324.576475 
L 63.575604 323.877166 
L 67.337597 322.657972 
L 67.809379 322.476484 
L 70.61396 321.273288 
L 72.636083 320.27901 
L 72.636083 320.27901 
" clip-path="url(#p25a5d41bd6)" style="fill: none; stroke: #000000; stroke-linecap: square"/>
   </g>
   <g id="patch_3">
    <path d="M 99.878474 17.176581 
Q 99.980864 17.140647 97.973346 17.845182 
" clip-path="url(#p25a5d41bd6)" style="fill: none; stroke: #000000; stroke-width: 2; stroke-linecap: round"/>
    <path d="M 86.881819 16.43876 
L 97.973346 17.845182 
L 90.193293 25.874551 
z
" clip-path="url(#p25a5d41bd6)" style="stroke: #000000; stroke-width: 2; stroke-linecap: round"/>
   </g>
   <g id="text_1">
    <g clip-path="url(#p25a5d41bd6)">
     <!-- $P$ -->
     <g transform="translate(361.131746 272.44885) scale(0.25 -0.25)">
      <defs>
       <path id="Cmmi10-50" d="M 313 0 
Q 250 0 250 84 
Q 253 100 262 139 
Q 272 178 289 201 
Q 306 225 331 225 
Q 722 225 878 269 
Q 959 297 997 441 
L 1875 3956 
Q 1888 4019 1888 4044 
Q 1888 4113 1813 4122 
Q 1691 4147 1350 4147 
Q 1288 4147 1288 4231 
Q 1291 4247 1300 4286 
Q 1309 4325 1326 4348 
Q 1344 4372 1369 4372 
L 3578 4372 
Q 3881 4372 4165 4264 
Q 4450 4156 4631 3934 
Q 4813 3713 4813 3397 
Q 4813 2991 4527 2672 
Q 4241 2353 3814 2175 
Q 3388 1997 2988 1997 
L 1947 1997 
L 1556 416 
Q 1544 353 1544 325 
Q 1544 300 1551 283 
Q 1559 266 1573 261 
Q 1588 256 1619 250 
Q 1741 225 2081 225 
Q 2144 225 2144 141 
Q 2122 50 2109 25 
Q 2097 0 2034 0 
L 313 0 
z
M 1978 2188 
L 2875 2188 
Q 3497 2188 3822 2522 
Q 3988 2688 4092 3000 
Q 4197 3313 4197 3566 
Q 4197 3881 3956 4014 
Q 3716 4147 3359 4147 
L 2747 4147 
Q 2572 4147 2515 4117 
Q 2459 4088 2413 3928 
L 1978 2188 
z
" transform="scale(0.015625)"/>
      </defs>
      <use xlink:href="#Cmmi10-50" transform="translate(0 0.6875)"/>
     </g>
    </g>
   </g>
   <g id="text_2">
    <g clip-path="url(#p25a5d41bd6)">
     <!-- $Q$ -->
     <g transform="translate(84.950854 322.714493) scale(0.25 -0.25)">
      <defs>
       <path id="Cmmi10-51" d="M 1947 -141 
Q 1466 -141 1094 79 
Q 722 300 520 692 
Q 319 1084 319 1563 
Q 319 2259 714 2950 
Q 1109 3641 1756 4077 
Q 2403 4513 3109 4513 
Q 3475 4513 3778 4381 
Q 4081 4250 4290 4017 
Q 4500 3784 4614 3471 
Q 4728 3159 4728 2791 
Q 4728 2366 4581 1936 
Q 4434 1506 4171 1136 
Q 3909 766 3559 484 
Q 3209 203 2809 38 
Q 2850 -256 2934 -425 
Q 3019 -594 3256 -594 
Q 3506 -594 3726 -412 
Q 3947 -231 4006 13 
Q 4019 72 4078 72 
Q 4147 72 4147 -13 
Q 4100 -219 4008 -430 
Q 3916 -641 3786 -823 
Q 3656 -1006 3478 -1123 
Q 3300 -1241 3084 -1241 
Q 2547 -1241 2547 -550 
Q 2547 -509 2562 -332 
Q 2578 -156 2578 -44 
Q 2269 -141 1947 -141 
z
M 1709 300 
Q 1709 44 1991 44 
Q 2275 44 2591 184 
L 2591 244 
Q 2591 503 2509 648 
Q 2428 794 2194 794 
Q 2078 794 1964 723 
Q 1850 653 1779 539 
Q 1709 425 1709 300 
z
M 1544 288 
Q 1544 456 1637 612 
Q 1731 769 1881 864 
Q 2031 959 2203 959 
Q 2481 959 2607 771 
Q 2734 584 2778 281 
Q 3188 525 3500 978 
Q 3813 1431 3977 1973 
Q 4141 2516 4141 3003 
Q 4141 3356 4023 3656 
Q 3906 3956 3664 4140 
Q 3422 4325 3066 4325 
Q 2722 4325 2403 4156 
Q 2084 3988 1813 3706 
Q 1550 3434 1342 3032 
Q 1134 2631 1021 2193 
Q 909 1756 909 1356 
Q 909 947 1068 612 
Q 1228 278 1569 128 
Q 1544 194 1544 288 
z
" transform="scale(0.015625)"/>
      </defs>
      <use xlink:href="#Cmmi10-51" transform="translate(0 0.484375)"/>
     </g>
    </g>
   </g>
  </g>
 </g>
 <defs>
  <clipPath id="p25a5d41bd6">
   <rect x="7.2" y="7.2" width="378.256825" height="324"/>
  </clipPath>
 </defs>
</svg>
