<?xml version="1.0" encoding="utf-8" standalone="no"?>
<!DOCTYPE svg PUBLIC "-//W3C//DTD SVG 1.1//EN"
  "http://www.w3.org/Graphics/SVG/1.1/DTD/svg11.dtd">
<svg xmlns:xlink="http://www.w3.org/1999/xlink" width="392.666406pt" height="338.4pt" viewBox="0 0 392.666406 338.4" xmlns="http://www.w3.org/2000/svg" version="1.1">
 <metadata>
  <rdf:RDF xmlns:dc="http://purl.org/dc/elements/1.1/" xmlns:cc="http://creativecommons.org/ns#" xmlns:rdf="http://www.w3.org/1999/02/22-rdf-syntax-ns#">
   <cc:Work>
    <dc:type rdf:resource="http://purl.org/dc/dcmitype/StillImage"/>
    <dc:date>2025-08-22T20:32:58.553091</dc:date>
    <dc:format>image/svg+xml</dc:format>
    <dc:creator>
     <cc:Agent>
      <dc:title>Matplotlib v3.10.3, https://matplotlib.org/</dc:title>
     </cc:Agent>
    </dc:creator>
   </cc:Work>
  </rdf:RDF>
 </metadata>
 <defs>
  <style type="text/css">*{stroke-linejoin: round; stroke-linecap: butt}</style>
 </defs>
 <g id="figure_1">
  <g id="patch_1">
   <path d="M 0 338.4 
L 392.666406 338.4 
L 392.666406 0 
L 0 0 
z
" style="fill: #ffffff"/>
  </g>
  <g id="axes_1">
   <g id="patch_2">
    <path d="M 7.2 331.2 
L 385.466406 331.2 
L 385.466406 7.2 
L 7.2 7.2 
z
" style="fill: #ffffff"/>
   </g>
   <g id="PathCollection_1">
    <path d="M 378.192052 246.773409 
C 379.129686 246.773409 380.029044 246.400883 380.692052 245.737875 
C 381.355059 245.074867 381.727585 244.175509 381.727585 243.237875 
C 381.727585 242.30024 381.355059 241.400883 380.692052 240.737875 
C 380.029044 240.074867 379.129686 239.702341 378.192052 239.702341 
C 377.254417 239.702341 376.355059 240.074867 375.692052 240.737875 
C 375.029044 241.400883 374.656518 242.30024 374.656518 243.237875 
C 374.656518 244.175509 375.029044 245.074867 375.692052 245.737875 
C 376.355059 246.400883 377.254417 246.773409 378.192052 246.773409 
z
" clip-path="url(#p0facfde00e)"/>
   </g>
   <g id="PathCollection_2">
    <path d="M 72.639301 323.818336 
C 73.576935 323.818336 74.476293 323.44581 75.139301 322.782802 
C 75.802308 322.119794 76.174835 321.220437 76.174835 320.282802 
C 76.174835 319.345167 75.802308 318.44581 75.139301 317.782802 
C 74.476293 317.119794 73.576935 316.747268 72.639301 316.747268 
C 71.701666 316.747268 70.802308 317.119794 70.139301 317.782802 
C 69.476293 318.44581 69.103767 319.345167 69.103767 320.282802 
C 69.103767 321.220437 69.476293 322.119794 70.139301 322.782802 
C 70.802308 323.44581 71.701666 323.818336 72.639301 323.818336 
z
" clip-path="url(#p0facfde00e)"/>
   </g>
   <g id="matplotlib.axis_1"/>
   <g id="matplotlib.axis_2"/>
   <g id="line2d_1">
    <path d="M 378.192052 243.237875 
L 351.090653 209.749287 
L 327.226902 180.347298 
L 310.482041 160.042104 
L 297.237446 144.303061 
L 286.464109 131.776703 
L 274.868928 118.631335 
L 263.644674 106.29648 
L 253.087805 95.098442 
L 244.698909 86.513494 
L 232.804115 74.872736 
L 224.010171 66.709688 
L 216.789726 60.31569 
L 209.412162 54.091887 
L 202.004849 48.179701 
L 196.202335 43.799285 
L 189.454533 38.999608 
L 187.633151 37.760693 
L 181.93943 34.049767 
L 176.194458 30.564252 
L 169.288699 26.73793 
L 164.296029 24.232155 
L 157.764774 21.303191 
L 151.347354 18.832354 
L 148.422796 17.846907 
L 143.919394 16.50921 
L 140.696447 15.690299 
L 135.79742 14.675972 
L 132.09403 14.101059 
L 126.40534 13.555623 
L 121.460456 13.430769 
L 118.619007 13.513179 
L 114.775311 13.811473 
L 110.745503 14.364404 
L 105.719283 15.416376 
L 101.925639 16.490871 
L 97.919753 17.901862 
L 95.436073 18.925792 
L 92.281332 20.398251 
L 87.867798 22.796685 
L 83.645392 25.482832 
L 79.790956 28.291579 
L 77.867039 29.828054 
L 73.662986 33.515693 
L 69.727353 37.404665 
L 66.369589 41.082413 
L 64.931196 42.765517 
L 60.340092 48.600788 
L 56.836111 53.566462 
L 52.49075 60.410503 
L 48.954528 66.605812 
L 46.468689 71.336106 
L 42.637836 79.308445 
L 39.977185 85.39512 
L 37.506254 91.509194 
L 35.352274 97.249143 
L 32.237377 106.334806 
L 29.47287 115.32977 
L 26.971625 124.409985 
L 24.569327 134.210327 
L 22.733568 142.630977 
L 20.797302 152.704506 
L 19.012754 163.551209 
L 17.902523 171.444974 
L 16.76698 180.991469 
L 15.778475 191.476921 
L 15.125293 200.843821 
L 14.728523 209.211104 
L 14.484117 220.232366 
L 14.518379 228.475958 
L 14.777045 237.344835 
L 15.322696 246.731238 
L 15.959988 254.028542 
L 16.765788 261.019881 
L 17.771636 267.918189 
L 18.913675 274.292299 
L 20.176971 280.171792 
L 21.376269 284.949248 
L 23.107904 290.836618 
L 24.316671 294.396679 
L 26.041372 298.858782 
L 28.636984 304.484716 
L 30.501265 307.876666 
L 32.251524 310.652591 
L 33.757895 312.765058 
L 36.285493 315.807441 
L 37.155447 316.723546 
L 39.870182 319.199203 
L 42.537205 321.124653 
L 43.986597 321.982591 
L 46.168104 323.046053 
L 48.894246 324.022101 
L 50.621738 324.4542 
L 54.029889 324.920305 
L 57.764995 324.896372 
L 61.052882 324.458979 
L 63.512899 323.898604 
L 65.587686 323.28127 
L 69.301529 321.867607 
L 72.639301 320.282802 
L 72.639301 320.282802 
" clip-path="url(#p0facfde00e)" style="fill: none; stroke: #000000; stroke-linecap: square"/>
   </g>
   <g id="patch_3">
    <path d="M 100.087026 17.102376 
Q 99.984635 17.13831 101.99215 16.433776 
" clip-path="url(#p0facfde00e)" style="fill: none; stroke: #000000; stroke-width: 2; stroke-linecap: round"/>
    <path d="M 113.083677 17.840198 
L 101.99215 16.433776 
L 109.772204 8.404408 
z
" clip-path="url(#p0facfde00e)" style="stroke: #000000; stroke-width: 2; stroke-linecap: round"/>
   </g>
   <g id="text_1">
    <g clip-path="url(#p0facfde00e)">
     <!-- $P$ -->
     <g transform="translate(361.140962 272.451535) scale(0.25 -0.25)">
      <defs>
       <path id="Cmmi10-50" d="M 313 0 
Q 250 0 250 84 
Q 253 100 262 139 
Q 272 178 289 201 
Q 306 225 331 225 
Q 722 225 878 269 
Q 959 297 997 441 
L 1875 3956 
Q 1888 4019 1888 4044 
Q 1888 4113 1813 4122 
Q 1691 4147 1350 4147 
Q 1288 4147 1288 4231 
Q 1291 4247 1300 4286 
Q 1309 4325 1326 4348 
Q 1344 4372 1369 4372 
L 3578 4372 
Q 3881 4372 4165 4264 
Q 4450 4156 4631 3934 
Q 4813 3713 4813 3397 
Q 4813 2991 4527 2672 
Q 4241 2353 3814 2175 
Q 3388 1997 2988 1997 
L 1947 1997 
L 1556 416 
Q 1544 353 1544 325 
Q 1544 300 1551 283 
Q 1559 266 1573 261 
Q 1588 256 1619 250 
Q 1741 225 2081 225 
Q 2144 225 2144 141 
Q 2122 50 2109 25 
Q 2097 0 2034 0 
L 313 0 
z
M 1978 2188 
L 2875 2188 
Q 3497 2188 3822 2522 
Q 3988 2688 4092 3000 
Q 4197 3313 4197 3566 
Q 4197 3881 3956 4014 
Q 3716 4147 3359 4147 
L 2747 4147 
Q 2572 4147 2515 4117 
Q 2459 4088 2413 3928 
L 1978 2188 
z
" transform="scale(0.015625)"/>
      </defs>
      <use xlink:href="#Cmmi10-50" transform="translate(0 0.6875)"/>
     </g>
    </g>
   </g>
   <g id="text_2">
    <g clip-path="url(#p0facfde00e)">
     <!-- $Q$ -->
     <g transform="translate(84.954524 322.718195) scale(0.25 -0.25)">
      <defs>
       <path id="Cmmi10-51" d="M 1947 -141 
Q 1466 -141 1094 79 
Q 722 300 520 692 
Q 319 1084 319 1563 
Q 319 2259 714 2950 
Q 1109 3641 1756 4077 
Q 2403 4513 3109 4513 
Q 3475 4513 3778 4381 
Q 4081 4250 4290 4017 
Q 4500 3784 4614 3471 
Q 4728 3159 4728 2791 
Q 4728 2366 4581 1936 
Q 4434 1506 4171 1136 
Q 3909 766 3559 484 
Q 3209 203 2809 38 
Q 2850 -256 2934 -425 
Q 3019 -594 3256 -594 
Q 3506 -594 3726 -412 
Q 3947 -231 4006 13 
Q 4019 72 4078 72 
Q 4147 72 4147 -13 
Q 4100 -219 4008 -430 
Q 3916 -641 3786 -823 
Q 3656 -1006 3478 -1123 
Q 3300 -1241 3084 -1241 
Q 2547 -1241 2547 -550 
Q 2547 -509 2562 -332 
Q 2578 -156 2578 -44 
Q 2269 -141 1947 -141 
z
M 1709 300 
Q 1709 44 1991 44 
Q 2275 44 2591 184 
L 2591 244 
Q 2591 503 2509 648 
Q 2428 794 2194 794 
Q 2078 794 1964 723 
Q 1850 653 1779 539 
Q 1709 425 1709 300 
z
M 1544 288 
Q 1544 456 1637 612 
Q 1731 769 1881 864 
Q 2031 959 2203 959 
Q 2481 959 2607 771 
Q 2734 584 2778 281 
Q 3188 525 3500 978 
Q 3813 1431 3977 1973 
Q 4141 2516 4141 3003 
Q 4141 3356 4023 3656 
Q 3906 3956 3664 4140 
Q 3422 4325 3066 4325 
Q 2722 4325 2403 4156 
Q 2084 3988 1813 3706 
Q 1550 3434 1342 3032 
Q 1134 2631 1021 2193 
Q 909 1756 909 1356 
Q 909 947 1068 612 
Q 1228 278 1569 128 
Q 1544 194 1544 288 
z
" transform="scale(0.015625)"/>
      </defs>
      <use xlink:href="#Cmmi10-51" transform="translate(0 0.484375)"/>
     </g>
    </g>
   </g>
  </g>
 </g>
 <defs>
  <clipPath id="p0facfde00e">
   <rect x="7.2" y="7.2" width="378.266406" height="324"/>
  </clipPath>
 </defs>
</svg>
