<?xml version="1.0" encoding="utf-8" standalone="no"?>
<!DOCTYPE svg PUBLIC "-//W3C//DTD SVG 1.1//EN"
  "http://www.w3.org/Graphics/SVG/1.1/DTD/svg11.dtd">
<svg xmlns:xlink="http://www.w3.org/1999/xlink" width="392.698369pt" height="338.4pt" viewBox="0 0 392.698369 338.4" xmlns="http://www.w3.org/2000/svg" version="1.1">
 <metadata>
  <rdf:RDF xmlns:dc="http://purl.org/dc/elements/1.1/" xmlns:cc="http://creativecommons.org/ns#" xmlns:rdf="http://www.w3.org/1999/02/22-rdf-syntax-ns#">
   <cc:Work>
    <dc:type rdf:resource="http://purl.org/dc/dcmitype/StillImage"/>
    <dc:date>2025-04-09T13:38:10.352970</dc:date>
    <dc:format>image/svg+xml</dc:format>
    <dc:creator>
     <cc:Agent>
      <dc:title>Matplotlib v3.8.0, https://matplotlib.org/</dc:title>
     </cc:Agent>
    </dc:creator>
   </cc:Work>
  </rdf:RDF>
 </metadata>
 <defs>
  <style type="text/css">*{stroke-linejoin: round; stroke-linecap: butt}</style>
 </defs>
 <g id="figure_1">
  <g id="patch_1">
   <path d="M 0 338.4 
L 392.698369 338.4 
L 392.698369 0 
L 0 0 
z
" style="fill: #ffffff"/>
  </g>
  <g id="axes_1">
   <g id="patch_2">
    <path d="M 7.2 331.2 
L 385.498369 331.2 
L 385.498369 7.2 
L 7.2 7.2 
z
" style="fill: #ffffff"/>
   </g>
   <g id="PathCollection_1">
    <path d="M 137.734265 100.655526 
C 138.6719 100.655526 139.571258 100.282999 140.234265 99.619992 
C 140.897273 98.956984 141.269799 98.057626 141.269799 97.119992 
C 141.269799 96.182357 140.897273 95.282999 140.234265 94.619992 
C 139.571258 93.956984 138.6719 93.584458 137.734265 93.584458 
C 136.796631 93.584458 135.897273 93.956984 135.234265 94.619992 
C 134.571258 95.282999 134.198732 96.182357 134.198732 97.119992 
C 134.198732 98.057626 134.571258 98.956984 135.234265 99.619992 
C 135.897273 100.282999 136.796631 100.655526 137.734265 100.655526 
z
" clip-path="url(#p3e93a8520a)"/>
   </g>
   <g id="matplotlib.axis_1"/>
   <g id="matplotlib.axis_2"/>
   <g id="line2d_1">
    <path d="M 378.2234 243.240936 
L 340.079822 196.105077 
L 320.514118 172.12729 
L 302.934005 150.996732 
L 292.732053 138.997328 
L 279.181209 123.442538 
L 273.458078 117.02586 
L 260.961966 103.379858 
L 253.747377 95.754348 
L 245.608593 87.399471 
L 235.769483 77.682997 
L 228.162002 70.48497 
L 218.811311 62.048293 
L 212.034283 56.239121 
L 205.044662 50.536661 
L 196.931296 44.310837 
L 189.612754 39.082937 
L 183.598454 35.080424 
L 177.5807 31.356555 
L 173.529483 29.015642 
L 165.059238 24.577647 
L 163.786017 23.966177 
L 155.588767 20.397032 
L 152.528838 19.234233 
L 147.842518 17.64107 
L 143.079289 16.263831 
L 137.863994 15.049224 
L 135.817318 14.659683 
L 131.945901 14.062178 
L 127.751621 13.627744 
L 124.844631 13.461554 
L 120.362385 13.430769 
L 117.876738 13.535865 
L 112.142573 14.126798 
L 106.277992 15.262107 
L 104.730852 15.655883 
L 99.822527 17.179198 
L 96.876766 18.30177 
L 91.300491 20.88114 
L 87.660888 22.904184 
L 83.99432 25.231049 
L 82.066445 26.57646 
L 78.352013 29.417865 
L 73.140028 33.993635 
L 68.926795 38.237034 
L 65.117938 42.530075 
L 60.384994 48.527288 
L 57.342836 52.806471 
L 53.71549 58.387308 
L 51.450301 62.15938 
L 47.898257 68.563651 
L 43.95193 76.462062 
L 41.397577 82.07331 
L 37.936539 90.397741 
L 35.179487 97.71526 
L 32.342009 106.000166 
L 29.135374 116.484864 
L 27.026595 124.18563 
L 24.603781 134.046476 
L 23.191708 140.424924 
L 20.973317 151.709856 
L 19.190123 162.366232 
L 18.075244 170.119642 
L 17.045996 178.437682 
L 16.077345 187.95857 
L 15.464753 195.553544 
L 14.91929 204.666602 
L 14.598885 213.252759 
L 14.47518 224.478027 
L 14.600503 232.387773 
L 14.995141 241.771344 
L 15.710174 251.459432 
L 16.428377 258.326524 
L 17.474238 266.05253 
L 18.730007 273.363415 
L 20.220703 280.373603 
L 21.79582 286.487649 
L 23.064156 290.713225 
L 25.126235 296.585733 
L 27.541554 302.262916 
L 29.272114 305.706264 
L 31.499888 309.516104 
L 32.098423 310.434912 
L 33.775711 312.799252 
L 36.429412 315.973834 
L 38.294225 317.840481 
L 40.15903 319.441109 
L 41.630618 320.532729 
L 44.709392 322.374687 
L 45.959819 322.966141 
L 48.687514 323.971426 
L 51.883031 324.694982 
L 54.642921 324.963764 
L 57.011553 324.954062 
L 58.917174 324.796246 
L 63.137299 324.007553 
L 65.965097 323.166593 
L 69.421415 321.827176 
L 72.642121 320.293057 
L 72.642121 320.293057 
" clip-path="url(#p3e93a8520a)" style="fill: none; stroke: #ffffff; stroke-linecap: square"/>
   </g>
   <g id="line2d_2">
    <path d="M 72.642121 320.293057 
L 76.948316 316.350379 
L 82.004676 311.392243 
L 86.405128 306.732305 
L 90.542581 301.994986 
L 94.380385 297.224053 
L 98.099802 292.171581 
L 101.361926 287.304806 
L 104.192689 282.664537 
L 107.107012 277.367216 
L 109.168087 273.211524 
L 111.625378 267.669835 
L 113.370261 263.221356 
L 114.944859 258.71044 
L 116.565962 253.388595 
L 117.921387 248.182002 
L 119.167232 242.470048 
L 120.259699 236.274605 
L 120.998586 231.005416 
L 121.69849 224.498802 
L 122.175267 218.318578 
L 122.573065 210.21855 
L 122.780319 201.745896 
L 122.855924 188.259993 
L 122.968093 168.892141 
L 123.22756 160.29742 
L 123.664412 152.578724 
L 124.259444 145.75328 
L 125.067772 139.100117 
L 126.082304 132.758048 
L 127.200306 127.166315 
L 128.406349 122.126844 
L 130.085 116.209796 
L 131.965277 110.587578 
L 133.502692 106.542759 
L 135.882333 100.989132 
L 137.734265 97.119992 
L 137.734265 97.119992 
" clip-path="url(#p3e93a8520a)" style="fill: none; stroke: #000000; stroke-linecap: square"/>
   </g>
   <g id="patch_3">
    <path d="M 122.856061 186.389218 
Q 122.856069 185.942872 122.856039 187.732593 
" clip-path="url(#p3e93a8520a)" style="fill: none; stroke: #000000; stroke-width: 2; stroke-linecap: round"/>
    <path d="M 117.855872 197.73251 
L 122.856039 187.732593 
L 127.855872 197.732677 
z
" clip-path="url(#p3e93a8520a)" style="stroke: #000000; stroke-width: 2; stroke-linecap: round"/>
   </g>
   <g id="text_1">
    <g clip-path="url(#p3e93a8520a)">
     <!-- $Q$ -->
     <g transform="translate(89.422889 318.264572) scale(0.25 -0.25)">
      <defs>
       <path id="Cmmi10-51" d="M 1947 -141 
Q 1466 -141 1094 79 
Q 722 300 520 692 
Q 319 1084 319 1563 
Q 319 2259 714 2950 
Q 1109 3641 1756 4077 
Q 2403 4513 3109 4513 
Q 3475 4513 3778 4381 
Q 4081 4250 4290 4017 
Q 4500 3784 4614 3471 
Q 4728 3159 4728 2791 
Q 4728 2366 4581 1936 
Q 4434 1506 4171 1136 
Q 3909 766 3559 484 
Q 3209 203 2809 38 
Q 2850 -256 2934 -425 
Q 3019 -594 3256 -594 
Q 3506 -594 3726 -412 
Q 3947 -231 4006 13 
Q 4019 72 4078 72 
Q 4147 72 4147 -13 
Q 4100 -219 4008 -430 
Q 3916 -641 3786 -823 
Q 3656 -1006 3478 -1123 
Q 3300 -1241 3084 -1241 
Q 2547 -1241 2547 -550 
Q 2547 -509 2562 -332 
Q 2578 -156 2578 -44 
Q 2269 -141 1947 -141 
z
M 1709 300 
Q 1709 44 1991 44 
Q 2275 44 2591 184 
L 2591 244 
Q 2591 503 2509 648 
Q 2428 794 2194 794 
Q 2078 794 1964 723 
Q 1850 653 1779 539 
Q 1709 425 1709 300 
z
M 1544 288 
Q 1544 456 1637 612 
Q 1731 769 1881 864 
Q 2031 959 2203 959 
Q 2481 959 2607 771 
Q 2734 584 2778 281 
Q 3188 525 3500 978 
Q 3813 1431 3977 1973 
Q 4141 2516 4141 3003 
Q 4141 3356 4023 3656 
Q 3906 3956 3664 4140 
Q 3422 4325 3066 4325 
Q 2722 4325 2403 4156 
Q 2084 3988 1813 3706 
Q 1550 3434 1342 3032 
Q 1134 2631 1021 2193 
Q 909 1756 909 1356 
Q 909 947 1068 612 
Q 1228 278 1569 128 
Q 1544 194 1544 288 
z
" transform="scale(0.015625)"/>
      </defs>
      <use xlink:href="#Cmmi10-51" transform="translate(0 0.484375)"/>
     </g>
    </g>
   </g>
   <g id="text_2">
    <g clip-path="url(#p3e93a8520a)">
     <!-- $R$ -->
     <g transform="translate(105.916959 117.408813) scale(0.25 -0.25)">
      <defs>
       <path id="Cmmi10-52" d="M 313 0 
Q 250 0 250 84 
Q 253 100 262 139 
Q 272 178 289 201 
Q 306 225 331 225 
Q 722 225 878 269 
Q 959 297 997 441 
L 1875 3956 
Q 1888 4019 1888 4044 
Q 1888 4113 1813 4122 
Q 1691 4147 1350 4147 
Q 1288 4147 1288 4231 
Q 1291 4247 1300 4286 
Q 1309 4325 1326 4348 
Q 1344 4372 1369 4372 
L 3309 4372 
Q 3541 4372 3791 4319 
Q 4041 4266 4250 4152 
Q 4459 4038 4593 3848 
Q 4728 3659 4728 3406 
Q 4728 3084 4515 2831 
Q 4303 2578 3978 2408 
Q 3653 2238 3347 2169 
Q 3597 2078 3756 1879 
Q 3916 1681 3916 1422 
Q 3916 1388 3914 1370 
Q 3913 1353 3909 1331 
L 3859 763 
Q 3853 638 3847 550 
Q 3841 463 3841 409 
Q 3841 234 3892 129 
Q 3944 25 4097 25 
Q 4297 25 4448 211 
Q 4600 397 4647 616 
Q 4675 672 4709 672 
L 4769 672 
Q 4831 672 4831 588 
Q 4784 403 4682 237 
Q 4581 72 4426 -34 
Q 4272 -141 4091 -141 
Q 3716 -141 3452 26 
Q 3188 194 3188 550 
Q 3188 684 3213 788 
L 3353 1356 
Q 3378 1434 3378 1538 
Q 3378 1803 3198 1954 
Q 3019 2106 2747 2106 
L 1959 2106 
L 1538 416 
Q 1522 363 1522 325 
Q 1522 259 1600 250 
Q 1722 225 2059 225 
Q 2125 225 2125 141 
Q 2103 50 2090 25 
Q 2078 0 2016 0 
L 313 0 
z
M 1997 2272 
L 2706 2272 
Q 3403 2272 3756 2625 
Q 3919 2788 4014 3039 
Q 4109 3291 4109 3541 
Q 4109 3778 3970 3912 
Q 3831 4047 3626 4097 
Q 3422 4147 3175 4147 
L 2747 4147 
Q 2572 4147 2515 4117 
Q 2459 4088 2413 3928 
L 1997 2272 
z
" transform="scale(0.015625)"/>
      </defs>
      <use xlink:href="#Cmmi10-52" transform="translate(0 0.6875)"/>
     </g>
    </g>
   </g>
   <g id="PathCollection_2">
    <path d="M 72.642121 323.828591 
C 73.579756 323.828591 74.479114 323.456064 75.142121 322.793057 
C 75.805129 322.130049 76.177655 321.230691 76.177655 320.293057 
C 76.177655 319.355422 75.805129 318.456064 75.142121 317.793057 
C 74.479114 317.130049 73.579756 316.757523 72.642121 316.757523 
C 71.704487 316.757523 70.805129 317.130049 70.142121 317.793057 
C 69.479114 318.456064 69.106588 319.355422 69.106588 320.293057 
C 69.106588 321.230691 69.479114 322.130049 70.142121 322.793057 
C 70.805129 323.456064 71.704487 323.828591 72.642121 323.828591 
z
" clip-path="url(#p3e93a8520a)"/>
   </g>
  </g>
 </g>
 <defs>
  <clipPath id="p3e93a8520a">
   <rect x="7.2" y="7.2" width="378.298369" height="324"/>
  </clipPath>
 </defs>
</svg>
