<?xml version="1.0" encoding="utf-8" standalone="no"?>
<!DOCTYPE svg PUBLIC "-//W3C//DTD SVG 1.1//EN"
  "http://www.w3.org/Graphics/SVG/1.1/DTD/svg11.dtd">
<svg xmlns:xlink="http://www.w3.org/1999/xlink" width="453.6pt" height="267.380129pt" viewBox="0 0 453.6 267.380129" xmlns="http://www.w3.org/2000/svg" version="1.1">
 <metadata>
  <rdf:RDF xmlns:dc="http://purl.org/dc/elements/1.1/" xmlns:cc="http://creativecommons.org/ns#" xmlns:rdf="http://www.w3.org/1999/02/22-rdf-syntax-ns#">
   <cc:Work>
    <dc:type rdf:resource="http://purl.org/dc/dcmitype/StillImage"/>
    <dc:date>2025-04-09T13:41:36.324573</dc:date>
    <dc:format>image/svg+xml</dc:format>
    <dc:creator>
     <cc:Agent>
      <dc:title>Matplotlib v3.8.0, https://matplotlib.org/</dc:title>
     </cc:Agent>
    </dc:creator>
   </cc:Work>
  </rdf:RDF>
 </metadata>
 <defs>
  <style type="text/css">*{stroke-linejoin: round; stroke-linecap: butt}</style>
 </defs>
 <g id="figure_1">
  <g id="patch_1">
   <path d="M 0 267.380129 
L 453.6 267.380129 
L 453.6 0 
L 0 0 
z
" style="fill: #ffffff"/>
  </g>
  <g id="axes_1">
   <g id="patch_2">
    <path d="M 7.2 260.180129 
L 446.4 260.180129 
L 446.4 7.2 
L 7.2 7.2 
z
" style="fill: #ffffff"/>
   </g>
   <g id="PathCollection_1">
    <path d="M 149.979484 105.124796 
C 150.81813 105.124796 151.62254 104.791599 152.215552 104.198586 
C 152.808564 103.605574 153.141762 102.801164 153.141762 101.962518 
C 153.141762 101.123873 152.808564 100.319463 152.215552 99.72645 
C 151.62254 99.133438 150.81813 98.800241 149.979484 98.800241 
C 149.140838 98.800241 148.336428 99.133438 147.743416 99.72645 
C 147.150404 100.319463 146.817206 101.123873 146.817206 101.962518 
C 146.817206 102.801164 147.150404 103.605574 147.743416 104.198586 
C 148.336428 104.791599 149.140838 105.124796 149.979484 105.124796 
z
" clip-path="url(#p9547fe8db1)"/>
   </g>
   <g id="PathCollection_2">
    <path d="M 437.953846 258.477404 
C 438.792492 258.477404 439.596902 258.144207 440.189914 257.551194 
C 440.782926 256.958182 441.116124 256.153772 441.116124 255.315126 
C 441.116124 254.476481 440.782926 253.672071 440.189914 253.079059 
C 439.596902 252.486046 438.792492 252.152849 437.953846 252.152849 
C 437.1152 252.152849 436.31079 252.486046 435.717778 253.079059 
C 435.124766 253.672071 434.791568 254.476481 434.791568 255.315126 
C 434.791568 256.153772 435.124766 256.958182 435.717778 257.551194 
C 436.31079 258.144207 437.1152 258.477404 437.953846 258.477404 
z
" clip-path="url(#p9547fe8db1)"/>
   </g>
   <g id="PathCollection_3">
    <path d="M 285.922519 15.22728 
C 286.761164 15.22728 287.565574 14.894083 288.158587 14.30107 
C 288.751599 13.708058 289.084796 12.903648 289.084796 12.065002 
C 289.084796 11.226357 288.751599 10.421947 288.158587 9.828935 
C 287.565574 9.235922 286.761164 8.902725 285.922519 8.902725 
C 285.083873 8.902725 284.279463 9.235922 283.686451 9.828935 
C 283.093439 10.421947 282.760241 11.226357 282.760241 12.065002 
C 282.760241 12.903648 283.093439 13.708058 283.686451 14.30107 
C 284.279463 14.894083 285.083873 15.22728 285.922519 15.22728 
z
" clip-path="url(#p9547fe8db1)"/>
   </g>
   <g id="matplotlib.axis_1"/>
   <g id="matplotlib.axis_2"/>
   <g id="line2d_1">
    <path d="M 437.953846 255.315126 
L 424.944644 245.539695 
L 418.273883 240.614486 
L 398.590146 226.433453 
L 383.479699 215.9117 
L 371.806887 208.005849 
L 354.324526 196.536675 
L 340.241594 187.629991 
L 333.004977 183.171356 
L 318.162787 174.283622 
L 305.28421 166.858281 
L 294.730781 160.977483 
L 280.79108 153.499283 
L 271.157876 148.529205 
L 254.555396 140.35583 
L 242.062821 134.544617 
L 230.813669 129.570452 
L 217.227517 123.902277 
L 209.371104 120.800084 
L 199.103624 116.946945 
L 186.747192 112.62357 
L 175.377777 108.962207 
L 166.642068 106.364971 
L 157.837701 103.945921 
L 148.899458 101.703286 
L 140.837018 99.873453 
L 132.555934 98.194297 
L 127.981736 97.357728 
L 116.009061 95.492527 
L 107.802387 94.502868 
L 99.367908 93.751043 
L 95.293591 93.490662 
L 88.319743 93.211275 
L 79.740117 93.178617 
L 75.301454 93.308608 
L 67.886999 93.772967 
L 60.348609 94.599972 
L 53.597229 95.692674 
L 48.895733 96.682858 
L 43.801136 98.005957 
L 40.660698 98.972494 
L 35.91646 100.695421 
L 32.302203 102.267802 
L 28.688986 104.131466 
L 25.864873 105.85803 
L 23.546418 107.51958 
L 22.067981 108.736779 
L 19.838899 110.917099 
L 18.499724 112.544243 
L 17.803315 113.549966 
L 16.748593 115.460255 
L 16.167398 116.948869 
L 15.729138 118.891041 
L 15.647135 120.396414 
L 15.785543 121.801512 
L 16.030188 122.839278 
L 16.806721 124.706637 
L 17.44056 125.733819 
L 18.442228 126.984132 
L 19.93389 128.395675 
L 20.605939 128.92118 
L 22.415689 130.109606 
L 24.409338 131.144816 
L 26.228112 131.91035 
L 29.386846 132.943074 
L 31.483148 133.466927 
L 34.200362 133.993857 
L 38.820352 134.571876 
L 40.7468 134.714134 
L 46.728601 134.851854 
L 51.101023 134.704375 
L 58.344059 134.078673 
L 63.215897 133.426724 
L 70.529184 132.146231 
L 78.208895 130.456925 
L 85.853692 128.464548 
L 92.506196 126.502747 
L 99.026647 124.390537 
L 109.172742 120.760569 
L 117.914189 117.323683 
L 124.182585 114.694897 
L 132.668651 110.930181 
L 145.058131 105.033992 
L 156.420783 99.236194 
L 161.832768 96.350496 
L 172.996307 90.156711 
L 181.733093 85.091542 
L 196.198869 76.305257 
L 207.124406 69.353812 
L 221.639031 59.719314 
L 225.933546 56.784293 
L 240.347902 46.661201 
L 251.870742 38.276684 
L 267.640742 26.397568 
L 281.033882 15.955199 
L 285.922519 12.065002 
L 285.922519 12.065002 
" clip-path="url(#p9547fe8db1)" style="fill: none; stroke: #1e88e5; stroke-width: 2; stroke-linecap: square"/>
   </g>
   <g id="patch_3">
    <path d="M 222.576132 126.088498 
Q 221.985744 125.844627 223.462049 126.454442 
" clip-path="url(#p9547fe8db1)" style="fill: none; stroke: #1e88e5; stroke-width: 2; stroke-linecap: round"/>
    <path d="M 230.795684 134.893506 
L 223.462049 126.454442 
L 234.613481 125.650972 
z
" clip-path="url(#p9547fe8db1)" style="fill: #1e88e5; stroke: #1e88e5; stroke-width: 2; stroke-linecap: round"/>
   </g>
   <g id="patch_4">
    <path d="M 53.652435 95.682233 
Q 53.399894 95.730487 55.343686 95.359074 
" clip-path="url(#p9547fe8db1)" style="fill: none; stroke: #1e88e5; stroke-width: 2; stroke-linecap: round"/>
    <path d="M 66.104393 98.393409 
L 55.343686 95.359074 
L 64.227578 88.571109 
z
" clip-path="url(#p9547fe8db1)" style="fill: #1e88e5; stroke: #1e88e5; stroke-width: 2; stroke-linecap: round"/>
   </g>
   <g id="patch_5">
    <path d="M 210.920397 66.877364 
Q 211.495582 66.499064 210.202552 67.349491 
" clip-path="url(#p9547fe8db1)" style="fill: none; stroke: #1e88e5; stroke-width: 2; stroke-linecap: round"/>
    <path d="M 199.100121 68.667073 
L 210.202552 67.349491 
L 204.595159 77.021985 
z
" clip-path="url(#p9547fe8db1)" style="fill: #1e88e5; stroke: #1e88e5; stroke-width: 2; stroke-linecap: round"/>
   </g>
   <g id="text_1">
    <g clip-path="url(#p9547fe8db1)">
     <!-- $C_1$ -->
     <g style="fill: #1e88e5" transform="translate(220.566936 166.236606) scale(0.2 -0.2)">
      <defs>
       <path id="Cmmi10-43" d="M 934 1381 
Q 934 997 1082 705 
Q 1231 413 1514 248 
Q 1797 84 2181 84 
Q 2584 84 2957 290 
Q 3331 497 3595 842 
Q 3859 1188 3956 1575 
Q 3969 1613 4006 1613 
L 4084 1613 
Q 4109 1613 4125 1595 
Q 4141 1578 4141 1556 
Q 4141 1550 4134 1538 
Q 4025 1094 3711 705 
Q 3397 316 2959 87 
Q 2522 -141 2059 -141 
Q 1559 -141 1162 84 
Q 766 309 545 709 
Q 325 1109 325 1613 
Q 325 2150 565 2676 
Q 806 3203 1212 3614 
Q 1619 4025 2139 4269 
Q 2659 4513 3194 4513 
Q 3406 4513 3600 4448 
Q 3794 4384 3959 4253 
Q 4125 4122 4231 3950 
L 4738 4500 
Q 4738 4513 4769 4513 
L 4806 4513 
Q 4831 4513 4847 4491 
Q 4863 4469 4863 4447 
L 4428 2719 
Q 4428 2675 4378 2675 
L 4263 2675 
Q 4213 2675 4213 2747 
Q 4238 2888 4238 3084 
Q 4238 3397 4131 3673 
Q 4025 3950 3801 4119 
Q 3578 4288 3256 4288 
Q 2734 4288 2300 4025 
Q 1866 3763 1564 3336 
Q 1263 2909 1098 2389 
Q 934 1869 934 1381 
z
" transform="scale(0.015625)"/>
       <path id="Cmr10-31" d="M 594 0 
L 594 225 
Q 1394 225 1394 428 
L 1394 3788 
Q 1063 3628 556 3628 
L 556 3853 
Q 1341 3853 1741 4263 
L 1831 4263 
Q 1853 4263 1873 4245 
Q 1894 4228 1894 4206 
L 1894 428 
Q 1894 225 2694 225 
L 2694 0 
L 594 0 
z
" transform="scale(0.015625)"/>
      </defs>
      <use xlink:href="#Cmmi10-43" transform="translate(0 0.484375)"/>
      <use xlink:href="#Cmr10-31" transform="translate(71.386719 -16.521875) scale(0.7)"/>
     </g>
    </g>
   </g>
   <g id="text_2">
    <g clip-path="url(#p9547fe8db1)">
     <!-- $C_2$ -->
     <g style="fill: #1e88e5" transform="translate(71.914082 115.559497) scale(0.2 -0.2)">
      <defs>
       <path id="Cmr10-32" d="M 319 0 
L 319 172 
Q 319 188 331 206 
L 1325 1306 
Q 1550 1550 1690 1715 
Q 1831 1881 1968 2097 
Q 2106 2313 2186 2536 
Q 2266 2759 2266 3009 
Q 2266 3272 2169 3511 
Q 2072 3750 1880 3894 
Q 1688 4038 1416 4038 
Q 1138 4038 916 3870 
Q 694 3703 603 3438 
Q 628 3444 672 3444 
Q 816 3444 917 3347 
Q 1019 3250 1019 3097 
Q 1019 2950 917 2848 
Q 816 2747 672 2747 
Q 522 2747 420 2851 
Q 319 2956 319 3097 
Q 319 3338 409 3548 
Q 500 3759 670 3923 
Q 841 4088 1055 4175 
Q 1269 4263 1509 4263 
Q 1875 4263 2190 4108 
Q 2506 3953 2690 3670 
Q 2875 3388 2875 3009 
Q 2875 2731 2753 2481 
Q 2631 2231 2440 2026 
Q 2250 1822 1953 1562 
Q 1656 1303 1563 1216 
L 838 519 
L 1453 519 
Q 1906 519 2211 526 
Q 2516 534 2534 550 
Q 2609 631 2688 1141 
L 2875 1141 
L 2694 0 
L 319 0 
z
" transform="scale(0.015625)"/>
      </defs>
      <use xlink:href="#Cmmi10-43" transform="translate(0 0.484375)"/>
      <use xlink:href="#Cmr10-32" transform="translate(71.386719 -16.521875) scale(0.7)"/>
     </g>
    </g>
   </g>
   <g id="text_3">
    <g clip-path="url(#p9547fe8db1)">
     <!-- $C_3$ -->
     <g style="fill: #1e88e5" transform="translate(193.539144 47.990018) scale(0.2 -0.2)">
      <defs>
       <path id="Cmr10-33" d="M 609 494 
Q 759 275 1012 169 
Q 1266 63 1556 63 
Q 1928 63 2084 380 
Q 2241 697 2241 1100 
Q 2241 1281 2208 1462 
Q 2175 1644 2097 1800 
Q 2019 1956 1883 2050 
Q 1747 2144 1550 2144 
L 1125 2144 
Q 1069 2144 1069 2203 
L 1069 2259 
Q 1069 2309 1125 2309 
L 1478 2338 
Q 1703 2338 1851 2506 
Q 2000 2675 2069 2917 
Q 2138 3159 2138 3378 
Q 2138 3684 1994 3881 
Q 1850 4078 1556 4078 
Q 1313 4078 1091 3986 
Q 869 3894 738 3706 
Q 750 3709 759 3711 
Q 769 3713 781 3713 
Q 925 3713 1022 3613 
Q 1119 3513 1119 3372 
Q 1119 3234 1022 3134 
Q 925 3034 781 3034 
Q 641 3034 541 3134 
Q 441 3234 441 3372 
Q 441 3647 606 3850 
Q 772 4053 1033 4158 
Q 1294 4263 1556 4263 
Q 1750 4263 1965 4205 
Q 2181 4147 2356 4039 
Q 2531 3931 2642 3762 
Q 2753 3594 2753 3378 
Q 2753 3109 2633 2881 
Q 2513 2653 2303 2487 
Q 2094 2322 1844 2241 
Q 2122 2188 2372 2031 
Q 2622 1875 2773 1631 
Q 2925 1388 2925 1106 
Q 2925 753 2731 467 
Q 2538 181 2222 20 
Q 1906 -141 1556 -141 
Q 1256 -141 954 -26 
Q 653 88 461 316 
Q 269 544 269 863 
Q 269 1022 375 1128 
Q 481 1234 641 1234 
Q 744 1234 830 1186 
Q 916 1138 964 1050 
Q 1013 963 1013 863 
Q 1013 706 903 600 
Q 794 494 641 494 
L 609 494 
z
" transform="scale(0.015625)"/>
      </defs>
      <use xlink:href="#Cmmi10-43" transform="translate(0 0.484375)"/>
      <use xlink:href="#Cmr10-33" transform="translate(71.386719 -16.521875) scale(0.7)"/>
     </g>
    </g>
   </g>
  </g>
 </g>
 <defs>
  <clipPath id="p9547fe8db1">
   <rect x="7.2" y="7.2" width="439.2" height="252.980129"/>
  </clipPath>
 </defs>
</svg>
