<?xml version="1.0" encoding="utf-8" standalone="no"?>
<!DOCTYPE svg PUBLIC "-//W3C//DTD SVG 1.1//EN"
  "http://www.w3.org/Graphics/SVG/1.1/DTD/svg11.dtd">
<svg xmlns:xlink="http://www.w3.org/1999/xlink" width="453.6pt" height="267.389264pt" viewBox="0 0 453.6 267.389264" xmlns="http://www.w3.org/2000/svg" version="1.1">
 <metadata>
  <rdf:RDF xmlns:dc="http://purl.org/dc/elements/1.1/" xmlns:cc="http://creativecommons.org/ns#" xmlns:rdf="http://www.w3.org/1999/02/22-rdf-syntax-ns#">
   <cc:Work>
    <dc:type rdf:resource="http://purl.org/dc/dcmitype/StillImage"/>
    <dc:date>2025-08-22T20:32:29.696009</dc:date>
    <dc:format>image/svg+xml</dc:format>
    <dc:creator>
     <cc:Agent>
      <dc:title>Matplotlib v3.10.3, https://matplotlib.org/</dc:title>
     </cc:Agent>
    </dc:creator>
   </cc:Work>
  </rdf:RDF>
 </metadata>
 <defs>
  <style type="text/css">*{stroke-linejoin: round; stroke-linecap: butt}</style>
 </defs>
 <g id="figure_1">
  <g id="patch_1">
   <path d="M 0 267.389264 
L 453.6 267.389264 
L 453.6 0 
L 0 0 
z
" style="fill: #ffffff"/>
  </g>
  <g id="axes_1">
   <g id="patch_2">
    <path d="M 7.2 260.189264 
L 446.4 260.189264 
L 446.4 7.2 
L 7.2 7.2 
z
" style="fill: #ffffff"/>
   </g>
   <g id="PathCollection_1">
    <path d="M 149.969085 105.128218 
C 150.807731 105.128218 151.612141 104.795021 152.205153 104.202008 
C 152.798165 103.608996 153.131363 102.804586 153.131363 101.96594 
C 153.131363 101.127295 152.798165 100.322885 152.205153 99.729872 
C 151.612141 99.13686 150.807731 98.803663 149.969085 98.803663 
C 149.130439 98.803663 148.326029 99.13686 147.733017 99.729872 
C 147.140005 100.322885 146.806807 101.127295 146.806807 101.96594 
C 146.806807 102.804586 147.140005 103.608996 147.733017 104.202008 
C 148.326029 104.795021 149.130439 105.128218 149.969085 105.128218 
z
" clip-path="url(#pa2c7a96c5d)"/>
   </g>
   <g id="PathCollection_2">
    <path d="M 437.953846 258.486364 
C 438.792492 258.486364 439.596902 258.153166 440.189914 257.560154 
C 440.782926 256.967142 441.116124 256.162732 441.116124 255.324086 
C 441.116124 254.48544 440.782926 253.68103 440.189914 253.088018 
C 439.596902 252.495006 438.792492 252.161809 437.953846 252.161809 
C 437.1152 252.161809 436.31079 252.495006 435.717778 253.088018 
C 435.124766 253.68103 434.791568 254.48544 434.791568 255.324086 
C 434.791568 256.162732 435.124766 256.967142 435.717778 257.560154 
C 436.31079 258.153166 437.1152 258.486364 437.953846 258.486364 
z
" clip-path="url(#pa2c7a96c5d)"/>
   </g>
   <g id="PathCollection_3">
    <path d="M 285.917029 15.227456 
C 286.755674 15.227456 287.560084 14.894258 288.153097 14.301246 
C 288.746109 13.708234 289.079306 12.903824 289.079306 12.065178 
C 289.079306 11.226532 288.746109 10.422122 288.153097 9.82911 
C 287.560084 9.236098 286.755674 8.902901 285.917029 8.902901 
C 285.078383 8.902901 284.273973 9.236098 283.680961 9.82911 
C 283.087948 10.422122 282.754751 11.226532 282.754751 12.065178 
C 282.754751 12.903824 283.087948 13.708234 283.680961 14.301246 
C 284.273973 14.894258 285.078383 15.227456 285.917029 15.227456 
z
" clip-path="url(#pa2c7a96c5d)"/>
   </g>
   <g id="matplotlib.axis_1"/>
   <g id="matplotlib.axis_2"/>
   <g id="line2d_1">
    <path d="M 437.953846 255.324086 
L 422.974924 244.088143 
L 404.448117 230.607194 
L 389.418318 220.01746 
L 382.161645 215.018093 
L 362.506622 201.857166 
L 352.501008 195.375263 
L 339.345664 187.082302 
L 324.018178 177.75684 
L 310.660935 169.93395 
L 297.137824 162.310773 
L 282.812119 154.570997 
L 276.379701 151.211158 
L 265.238195 145.565318 
L 250.038473 138.228346 
L 236.23604 131.944693 
L 225.061665 127.132118 
L 211.996667 121.829541 
L 204.131543 118.812083 
L 189.311542 113.498798 
L 179.305232 110.198409 
L 165.650326 106.088723 
L 153.227136 102.767682 
L 147.793451 101.447096 
L 138.799496 99.446677 
L 128.454877 97.446415 
L 119.335736 95.967032 
L 112.661376 95.063894 
L 102.76348 94.024225 
L 95.755388 93.520497 
L 90.723331 93.286641 
L 82.115927 93.1544 
L 73.666574 93.386004 
L 65.343065 94.011295 
L 58.247886 94.902772 
L 54.946088 95.445735 
L 50.843801 96.247903 
L 44.779533 97.728936 
L 39.535592 99.348921 
L 35.157666 101.002214 
L 31.603966 102.599005 
L 29.004691 103.950027 
L 25.717524 105.949839 
L 23.452712 107.584514 
L 22.191016 108.620389 
L 19.862543 110.878177 
L 19.021573 111.85598 
L 17.388893 114.205934 
L 16.825137 115.269117 
L 16.051347 117.284907 
L 15.707662 118.943677 
L 15.655232 119.471663 
L 15.646154 120.7462 
L 15.845059 122.184402 
L 16.250249 123.53614 
L 17.136097 125.300829 
L 18.226617 126.76361 
L 19.153086 127.725525 
L 20.710178 129.013375 
L 21.579583 129.610241 
L 24.097296 131.009465 
L 25.98652 131.827189 
L 29.57084 133.002233 
L 32.684717 133.726824 
L 35.581321 134.211676 
L 39.429946 134.628356 
L 44.251061 134.851309 
L 48.16061 134.828886 
L 53.745693 134.530899 
L 58.435959 134.070976 
L 65.803397 133.015317 
L 71.967112 131.857228 
L 76.895626 130.770379 
L 85.244854 128.634674 
L 92.420477 126.529743 
L 100.576015 123.862553 
L 108.481837 121.019993 
L 117.655866 117.428403 
L 124.102995 114.728115 
L 132.380039 111.060695 
L 142.071663 106.495423 
L 150.802424 102.146146 
L 160.572862 97.027112 
L 166.219577 93.952461 
L 176.229475 88.301554 
L 184.694842 83.329816 
L 200.336732 73.700655 
L 212.838687 65.610869 
L 227.075059 55.994308 
L 240.13044 46.813291 
L 253.321487 37.199291 
L 265.53511 28.006084 
L 278.826592 17.69388 
L 285.917029 12.065178 
L 285.917029 12.065178 
" clip-path="url(#pa2c7a96c5d)" style="fill: none; stroke: #1e88e5; stroke-width: 2; stroke-linecap: square"/>
   </g>
   <g id="patch_3">
    <path d="M 222.568355 126.092791 
Q 221.977945 125.848912 223.454229 126.458718 
" clip-path="url(#pa2c7a96c5d)" style="fill: none; stroke: #1e88e5; stroke-width: 2; stroke-linecap: round"/>
    <path d="M 230.787864 134.897781 
L 223.454229 126.458718 
L 234.605661 125.655248 
z
" clip-path="url(#pa2c7a96c5d)" style="fill: #1e88e5; stroke: #1e88e5; stroke-width: 2; stroke-linecap: round"/>
   </g>
   <g id="patch_4">
    <path d="M 53.638557 95.685428 
Q 53.386007 95.733684 55.32979 95.362272 
" clip-path="url(#pa2c7a96c5d)" style="fill: none; stroke: #1e88e5; stroke-width: 2; stroke-linecap: round"/>
    <path d="M 66.090497 98.396607 
L 55.32979 95.362272 
L 64.213682 88.574308 
z
" clip-path="url(#pa2c7a96c5d)" style="fill: #1e88e5; stroke: #1e88e5; stroke-width: 2; stroke-linecap: round"/>
   </g>
   <g id="patch_5">
    <path d="M 210.912199 66.879519 
Q 211.487405 66.501205 210.194395 67.351619 
" clip-path="url(#pa2c7a96c5d)" style="fill: none; stroke: #1e88e5; stroke-width: 2; stroke-linecap: round"/>
    <path d="M 199.091964 68.669201 
L 210.194395 67.351619 
L 204.587002 77.024113 
z
" clip-path="url(#pa2c7a96c5d)" style="fill: #1e88e5; stroke: #1e88e5; stroke-width: 2; stroke-linecap: round"/>
   </g>
   <g id="text_1">
    <g clip-path="url(#pa2c7a96c5d)">
     <!-- $C_1$ -->
     <g style="fill: #1e88e5" transform="translate(220.559493 166.24215) scale(0.2 -0.2)">
      <defs>
       <path id="Cmmi10-43" d="M 934 1381 
Q 934 997 1082 705 
Q 1231 413 1514 248 
Q 1797 84 2181 84 
Q 2584 84 2957 290 
Q 3331 497 3595 842 
Q 3859 1188 3956 1575 
Q 3969 1613 4006 1613 
L 4084 1613 
Q 4109 1613 4125 1595 
Q 4141 1578 4141 1556 
Q 4141 1550 4134 1538 
Q 4025 1094 3711 705 
Q 3397 316 2959 87 
Q 2522 -141 2059 -141 
Q 1559 -141 1162 84 
Q 766 309 545 709 
Q 325 1109 325 1613 
Q 325 2150 565 2676 
Q 806 3203 1212 3614 
Q 1619 4025 2139 4269 
Q 2659 4513 3194 4513 
Q 3406 4513 3600 4448 
Q 3794 4384 3959 4253 
Q 4125 4122 4231 3950 
L 4738 4500 
Q 4738 4513 4769 4513 
L 4806 4513 
Q 4831 4513 4847 4491 
Q 4863 4469 4863 4447 
L 4428 2719 
Q 4428 2675 4378 2675 
L 4263 2675 
Q 4213 2675 4213 2747 
Q 4238 2888 4238 3084 
Q 4238 3397 4131 3673 
Q 4025 3950 3801 4119 
Q 3578 4288 3256 4288 
Q 2734 4288 2300 4025 
Q 1866 3763 1564 3336 
Q 1263 2909 1098 2389 
Q 934 1869 934 1381 
z
" transform="scale(0.015625)"/>
       <path id="Cmr10-31" d="M 594 0 
L 594 225 
Q 1394 225 1394 428 
L 1394 3788 
Q 1063 3628 556 3628 
L 556 3853 
Q 1341 3853 1741 4263 
L 1831 4263 
Q 1853 4263 1873 4245 
Q 1894 4228 1894 4206 
L 1894 428 
Q 1894 225 2694 225 
L 2694 0 
L 594 0 
z
" transform="scale(0.015625)"/>
      </defs>
      <use xlink:href="#Cmmi10-43" transform="translate(0 0.484375)"/>
      <use xlink:href="#Cmr10-31" transform="translate(71.386719 -16.521875) scale(0.7)"/>
     </g>
    </g>
   </g>
   <g id="text_2">
    <g clip-path="url(#pa2c7a96c5d)">
     <!-- $C_2$ -->
     <g style="fill: #1e88e5" transform="translate(71.901272 115.563211) scale(0.2 -0.2)">
      <defs>
       <path id="Cmr10-32" d="M 319 0 
L 319 172 
Q 319 188 331 206 
L 1325 1306 
Q 1550 1550 1690 1715 
Q 1831 1881 1968 2097 
Q 2106 2313 2186 2536 
Q 2266 2759 2266 3009 
Q 2266 3272 2169 3511 
Q 2072 3750 1880 3894 
Q 1688 4038 1416 4038 
Q 1138 4038 916 3870 
Q 694 3703 603 3438 
Q 628 3444 672 3444 
Q 816 3444 917 3347 
Q 1019 3250 1019 3097 
Q 1019 2950 917 2848 
Q 816 2747 672 2747 
Q 522 2747 420 2851 
Q 319 2956 319 3097 
Q 319 3338 409 3548 
Q 500 3759 670 3923 
Q 841 4088 1055 4175 
Q 1269 4263 1509 4263 
Q 1875 4263 2190 4108 
Q 2506 3953 2690 3670 
Q 2875 3388 2875 3009 
Q 2875 2731 2753 2481 
Q 2631 2231 2440 2026 
Q 2250 1822 1953 1562 
Q 1656 1303 1563 1216 
L 838 519 
L 1453 519 
Q 1906 519 2211 526 
Q 2516 534 2534 550 
Q 2609 631 2688 1141 
L 2875 1141 
L 2694 0 
L 319 0 
z
" transform="scale(0.015625)"/>
      </defs>
      <use xlink:href="#Cmmi10-43" transform="translate(0 0.484375)"/>
      <use xlink:href="#Cmr10-32" transform="translate(71.386719 -16.521875) scale(0.7)"/>
     </g>
    </g>
   </g>
   <g id="text_3">
    <g clip-path="url(#pa2c7a96c5d)">
     <!-- $C_3$ -->
     <g style="fill: #1e88e5" transform="translate(193.530726 47.991292) scale(0.2 -0.2)">
      <defs>
       <path id="Cmr10-33" d="M 609 494 
Q 759 275 1012 169 
Q 1266 63 1556 63 
Q 1928 63 2084 380 
Q 2241 697 2241 1100 
Q 2241 1281 2208 1462 
Q 2175 1644 2097 1800 
Q 2019 1956 1883 2050 
Q 1747 2144 1550 2144 
L 1125 2144 
Q 1069 2144 1069 2203 
L 1069 2259 
Q 1069 2309 1125 2309 
L 1478 2338 
Q 1703 2338 1851 2506 
Q 2000 2675 2069 2917 
Q 2138 3159 2138 3378 
Q 2138 3684 1994 3881 
Q 1850 4078 1556 4078 
Q 1313 4078 1091 3986 
Q 869 3894 738 3706 
Q 750 3709 759 3711 
Q 769 3713 781 3713 
Q 925 3713 1022 3613 
Q 1119 3513 1119 3372 
Q 1119 3234 1022 3134 
Q 925 3034 781 3034 
Q 641 3034 541 3134 
Q 441 3234 441 3372 
Q 441 3647 606 3850 
Q 772 4053 1033 4158 
Q 1294 4263 1556 4263 
Q 1750 4263 1965 4205 
Q 2181 4147 2356 4039 
Q 2531 3931 2642 3762 
Q 2753 3594 2753 3378 
Q 2753 3109 2633 2881 
Q 2513 2653 2303 2487 
Q 2094 2322 1844 2241 
Q 2122 2188 2372 2031 
Q 2622 1875 2773 1631 
Q 2925 1388 2925 1106 
Q 2925 753 2731 467 
Q 2538 181 2222 20 
Q 1906 -141 1556 -141 
Q 1256 -141 954 -26 
Q 653 88 461 316 
Q 269 544 269 863 
Q 269 1022 375 1128 
Q 481 1234 641 1234 
Q 744 1234 830 1186 
Q 916 1138 964 1050 
Q 1013 963 1013 863 
Q 1013 706 903 600 
Q 794 494 641 494 
L 609 494 
z
" transform="scale(0.015625)"/>
      </defs>
      <use xlink:href="#Cmmi10-43" transform="translate(0 0.484375)"/>
      <use xlink:href="#Cmr10-33" transform="translate(71.386719 -16.521875) scale(0.7)"/>
     </g>
    </g>
   </g>
  </g>
 </g>
 <defs>
  <clipPath id="pa2c7a96c5d">
   <rect x="7.2" y="7.2" width="439.2" height="252.989264"/>
  </clipPath>
 </defs>
</svg>
