<?xml version="1.0" encoding="utf-8" standalone="no"?>
<!DOCTYPE svg PUBLIC "-//W3C//DTD SVG 1.1//EN"
  "http://www.w3.org/Graphics/SVG/1.1/DTD/svg11.dtd">
<svg xmlns:xlink="http://www.w3.org/1999/xlink" width="453.6pt" height="267.383566pt" viewBox="0 0 453.6 267.383566" xmlns="http://www.w3.org/2000/svg" version="1.1">
 <metadata>
  <rdf:RDF xmlns:dc="http://purl.org/dc/elements/1.1/" xmlns:cc="http://creativecommons.org/ns#" xmlns:rdf="http://www.w3.org/1999/02/22-rdf-syntax-ns#">
   <cc:Work>
    <dc:type rdf:resource="http://purl.org/dc/dcmitype/StillImage"/>
    <dc:date>2025-06-11T11:25:00.233464</dc:date>
    <dc:format>image/svg+xml</dc:format>
    <dc:creator>
     <cc:Agent>
      <dc:title>Matplotlib v3.8.0, https://matplotlib.org/</dc:title>
     </cc:Agent>
    </dc:creator>
   </cc:Work>
  </rdf:RDF>
 </metadata>
 <defs>
  <style type="text/css">*{stroke-linejoin: round; stroke-linecap: butt}</style>
 </defs>
 <g id="figure_1">
  <g id="patch_1">
   <path d="M 0 267.383566 
L 453.6 267.383566 
L 453.6 0 
L 0 0 
z
" style="fill: #ffffff"/>
  </g>
  <g id="axes_1">
   <g id="patch_2">
    <path d="M 7.2 260.183566 
L 446.4 260.183566 
L 446.4 7.2 
L 7.2 7.2 
z
" style="fill: #ffffff"/>
   </g>
   <g id="PathCollection_1">
    <path d="M 149.975571 105.126084 
C 150.814217 105.126084 151.618627 104.792886 152.211639 104.199874 
C 152.804651 103.606862 153.137849 102.802452 153.137849 101.963806 
C 153.137849 101.12516 152.804651 100.32075 152.211639 99.727738 
C 151.618627 99.134726 150.814217 98.801528 149.975571 98.801528 
C 149.136925 98.801528 148.332515 99.134726 147.739503 99.727738 
C 147.146491 100.32075 146.813294 101.12516 146.813294 101.963806 
C 146.813294 102.802452 147.146491 103.606862 147.739503 104.199874 
C 148.332515 104.792886 149.136925 105.126084 149.975571 105.126084 
z
" clip-path="url(#p8d3cca003a)"/>
   </g>
   <g id="PathCollection_2">
    <path d="M 437.953846 258.480775 
C 438.792492 258.480775 439.596902 258.147578 440.189914 257.554566 
C 440.782926 256.961554 441.116124 256.157144 441.116124 255.318498 
C 441.116124 254.479852 440.782926 253.675442 440.189914 253.08243 
C 439.596902 252.489418 438.792492 252.15622 437.953846 252.15622 
C 437.1152 252.15622 436.31079 252.489418 435.717778 253.08243 
C 435.124766 253.675442 434.791568 254.479852 434.791568 255.318498 
C 434.791568 256.157144 435.124766 256.961554 435.717778 257.554566 
C 436.31079 258.147578 437.1152 258.480775 437.953846 258.480775 
z
" clip-path="url(#p8d3cca003a)"/>
   </g>
   <g id="PathCollection_3">
    <path d="M 285.920453 15.227346 
C 286.759099 15.227346 287.563509 14.894149 288.156521 14.301137 
C 288.749533 13.708124 289.082731 12.903714 289.082731 12.065069 
C 289.082731 11.226423 288.749533 10.422013 288.156521 9.829001 
C 287.563509 9.235988 286.759099 8.902791 285.920453 8.902791 
C 285.081807 8.902791 284.277397 9.235988 283.684385 9.829001 
C 283.091373 10.422013 282.758175 11.226423 282.758175 12.065069 
C 282.758175 12.903714 283.091373 13.708124 283.684385 14.301137 
C 284.277397 14.894149 285.081807 15.227346 285.920453 15.227346 
z
" clip-path="url(#p8d3cca003a)"/>
   </g>
   <g id="matplotlib.axis_1"/>
   <g id="matplotlib.axis_2"/>
   <g id="line2d_1">
    <path d="M 437.953846 255.318498 
L 420.417492 242.194027 
L 402.896654 229.493969 
L 389.131824 219.81312 
L 370.847147 207.367908 
L 355.534553 197.319226 
L 346.50141 191.555094 
L 327.259732 179.692943 
L 320.704688 175.784155 
L 304.731987 166.549149 
L 290.057557 158.436432 
L 280.88593 153.55214 
L 267.659177 146.768091 
L 257.518119 141.78024 
L 243.959063 135.410435 
L 232.190327 130.168612 
L 223.14188 126.32604 
L 215.178926 123.083535 
L 203.550824 118.590144 
L 193.328815 114.885501 
L 180.373371 110.535132 
L 168.753388 106.977443 
L 160.586447 104.681571 
L 149.135208 101.761815 
L 139.187353 99.524545 
L 131.636889 98.022926 
L 121.840308 96.342656 
L 116.329748 95.537914 
L 104.87335 94.211874 
L 98.360726 93.681737 
L 88.435021 93.215403 
L 80.407189 93.169158 
L 74.94213 93.324757 
L 69.433245 93.649933 
L 65.005064 94.044767 
L 60.42362 94.590298 
L 53.050295 95.797731 
L 47.276796 97.073012 
L 41.606873 98.667505 
L 38.215359 99.816708 
L 33.580958 101.680828 
L 30.185158 103.317328 
L 27.553486 104.790534 
L 24.574297 106.747872 
L 23.324585 107.690163 
L 21.176766 109.545183 
L 19.438061 111.366164 
L 18.024935 113.207105 
L 17.035111 114.864724 
L 16.410107 116.246742 
L 15.94555 117.714464 
L 15.673757 119.354347 
L 15.646154 120.550999 
L 15.960194 122.614096 
L 16.327034 123.70427 
L 17.304456 125.543868 
L 18.336488 126.874868 
L 19.755941 128.253279 
L 21.388147 129.475885 
L 22.997986 130.441813 
L 25.524271 131.635334 
L 27.567489 132.392312 
L 30.598975 133.262718 
L 33.60963 133.895118 
L 37.17965 134.409675 
L 41.234321 134.743989 
L 45.409301 134.859288 
L 51.180012 134.701445 
L 55.934026 134.336457 
L 62.832159 133.485177 
L 70.602977 132.132315 
L 76.528887 130.854995 
L 84.792888 128.758647 
L 89.631549 127.375505 
L 95.916284 125.420707 
L 104.264433 122.566744 
L 112.382406 119.530414 
L 120.062013 116.437643 
L 129.639011 112.30022 
L 138.621138 108.154205 
L 149.683047 102.717023 
L 158.911466 97.917075 
L 170.915427 91.334401 
L 182.084986 84.882647 
L 189.582243 80.383456 
L 201.599038 72.901279 
L 213.278047 65.322467 
L 220.318351 60.613003 
L 233.437872 51.564336 
L 242.900842 44.824177 
L 258.592915 33.267737 
L 271.009485 23.799572 
L 285.920453 12.065069 
L 285.920453 12.065069 
" clip-path="url(#p8d3cca003a)" style="fill: none; stroke: #1e88e5; stroke-width: 2; stroke-linecap: square"/>
   </g>
   <g id="patch_3">
    <path d="M 222.573206 126.090113 
Q 221.982809 125.84624 223.459106 126.456051 
" clip-path="url(#p8d3cca003a)" style="fill: none; stroke: #1e88e5; stroke-width: 2; stroke-linecap: round"/>
    <path d="M 230.792742 134.895114 
L 223.459106 126.456051 
L 234.610538 125.652581 
z
" clip-path="url(#p8d3cca003a)" style="fill: #1e88e5; stroke: #1e88e5; stroke-width: 2; stroke-linecap: round"/>
   </g>
   <g id="patch_4">
    <path d="M 53.647213 95.683435 
Q 53.394669 95.73169 55.338458 95.360277 
" clip-path="url(#p8d3cca003a)" style="fill: none; stroke: #1e88e5; stroke-width: 2; stroke-linecap: round"/>
    <path d="M 66.099164 98.394612 
L 55.338458 95.360277 
L 64.22235 88.572313 
z
" clip-path="url(#p8d3cca003a)" style="fill: #1e88e5; stroke: #1e88e5; stroke-width: 2; stroke-linecap: round"/>
   </g>
   <g id="patch_5">
    <path d="M 210.917312 66.878175 
Q 211.492505 66.499869 210.199483 67.350292 
" clip-path="url(#p8d3cca003a)" style="fill: none; stroke: #1e88e5; stroke-width: 2; stroke-linecap: round"/>
    <path d="M 199.097052 68.667873 
L 210.199483 67.350292 
L 204.59209 77.022786 
z
" clip-path="url(#p8d3cca003a)" style="fill: #1e88e5; stroke: #1e88e5; stroke-width: 2; stroke-linecap: round"/>
   </g>
   <g id="text_1">
    <g clip-path="url(#p8d3cca003a)">
     <!-- $C_1$ -->
     <g style="fill: #1e88e5" transform="translate(220.564135 166.238692) scale(0.2 -0.2)">
      <defs>
       <path id="Cmmi10-43" d="M 934 1381 
Q 934 997 1082 705 
Q 1231 413 1514 248 
Q 1797 84 2181 84 
Q 2584 84 2957 290 
Q 3331 497 3595 842 
Q 3859 1188 3956 1575 
Q 3969 1613 4006 1613 
L 4084 1613 
Q 4109 1613 4125 1595 
Q 4141 1578 4141 1556 
Q 4141 1550 4134 1538 
Q 4025 1094 3711 705 
Q 3397 316 2959 87 
Q 2522 -141 2059 -141 
Q 1559 -141 1162 84 
Q 766 309 545 709 
Q 325 1109 325 1613 
Q 325 2150 565 2676 
Q 806 3203 1212 3614 
Q 1619 4025 2139 4269 
Q 2659 4513 3194 4513 
Q 3406 4513 3600 4448 
Q 3794 4384 3959 4253 
Q 4125 4122 4231 3950 
L 4738 4500 
Q 4738 4513 4769 4513 
L 4806 4513 
Q 4831 4513 4847 4491 
Q 4863 4469 4863 4447 
L 4428 2719 
Q 4428 2675 4378 2675 
L 4263 2675 
Q 4213 2675 4213 2747 
Q 4238 2888 4238 3084 
Q 4238 3397 4131 3673 
Q 4025 3950 3801 4119 
Q 3578 4288 3256 4288 
Q 2734 4288 2300 4025 
Q 1866 3763 1564 3336 
Q 1263 2909 1098 2389 
Q 934 1869 934 1381 
z
" transform="scale(0.015625)"/>
       <path id="Cmr10-31" d="M 594 0 
L 594 225 
Q 1394 225 1394 428 
L 1394 3788 
Q 1063 3628 556 3628 
L 556 3853 
Q 1341 3853 1741 4263 
L 1831 4263 
Q 1853 4263 1873 4245 
Q 1894 4228 1894 4206 
L 1894 428 
Q 1894 225 2694 225 
L 2694 0 
L 594 0 
z
" transform="scale(0.015625)"/>
      </defs>
      <use xlink:href="#Cmmi10-43" transform="translate(0 0.484375)"/>
      <use xlink:href="#Cmr10-31" transform="translate(71.386719 -16.521875) scale(0.7)"/>
     </g>
    </g>
   </g>
   <g id="text_2">
    <g clip-path="url(#p8d3cca003a)">
     <!-- $C_2$ -->
     <g style="fill: #1e88e5" transform="translate(71.909262 115.560894) scale(0.2 -0.2)">
      <defs>
       <path id="Cmr10-32" d="M 319 0 
L 319 172 
Q 319 188 331 206 
L 1325 1306 
Q 1550 1550 1690 1715 
Q 1831 1881 1968 2097 
Q 2106 2313 2186 2536 
Q 2266 2759 2266 3009 
Q 2266 3272 2169 3511 
Q 2072 3750 1880 3894 
Q 1688 4038 1416 4038 
Q 1138 4038 916 3870 
Q 694 3703 603 3438 
Q 628 3444 672 3444 
Q 816 3444 917 3347 
Q 1019 3250 1019 3097 
Q 1019 2950 917 2848 
Q 816 2747 672 2747 
Q 522 2747 420 2851 
Q 319 2956 319 3097 
Q 319 3338 409 3548 
Q 500 3759 670 3923 
Q 841 4088 1055 4175 
Q 1269 4263 1509 4263 
Q 1875 4263 2190 4108 
Q 2506 3953 2690 3670 
Q 2875 3388 2875 3009 
Q 2875 2731 2753 2481 
Q 2631 2231 2440 2026 
Q 2250 1822 1953 1562 
Q 1656 1303 1563 1216 
L 838 519 
L 1453 519 
Q 1906 519 2211 526 
Q 2516 534 2534 550 
Q 2609 631 2688 1141 
L 2875 1141 
L 2694 0 
L 319 0 
z
" transform="scale(0.015625)"/>
      </defs>
      <use xlink:href="#Cmmi10-43" transform="translate(0 0.484375)"/>
      <use xlink:href="#Cmr10-32" transform="translate(71.386719 -16.521875) scale(0.7)"/>
     </g>
    </g>
   </g>
   <g id="text_3">
    <g clip-path="url(#p8d3cca003a)">
     <!-- $C_3$ -->
     <g style="fill: #1e88e5" transform="translate(193.535977 47.990497) scale(0.2 -0.2)">
      <defs>
       <path id="Cmr10-33" d="M 609 494 
Q 759 275 1012 169 
Q 1266 63 1556 63 
Q 1928 63 2084 380 
Q 2241 697 2241 1100 
Q 2241 1281 2208 1462 
Q 2175 1644 2097 1800 
Q 2019 1956 1883 2050 
Q 1747 2144 1550 2144 
L 1125 2144 
Q 1069 2144 1069 2203 
L 1069 2259 
Q 1069 2309 1125 2309 
L 1478 2338 
Q 1703 2338 1851 2506 
Q 2000 2675 2069 2917 
Q 2138 3159 2138 3378 
Q 2138 3684 1994 3881 
Q 1850 4078 1556 4078 
Q 1313 4078 1091 3986 
Q 869 3894 738 3706 
Q 750 3709 759 3711 
Q 769 3713 781 3713 
Q 925 3713 1022 3613 
Q 1119 3513 1119 3372 
Q 1119 3234 1022 3134 
Q 925 3034 781 3034 
Q 641 3034 541 3134 
Q 441 3234 441 3372 
Q 441 3647 606 3850 
Q 772 4053 1033 4158 
Q 1294 4263 1556 4263 
Q 1750 4263 1965 4205 
Q 2181 4147 2356 4039 
Q 2531 3931 2642 3762 
Q 2753 3594 2753 3378 
Q 2753 3109 2633 2881 
Q 2513 2653 2303 2487 
Q 2094 2322 1844 2241 
Q 2122 2188 2372 2031 
Q 2622 1875 2773 1631 
Q 2925 1388 2925 1106 
Q 2925 753 2731 467 
Q 2538 181 2222 20 
Q 1906 -141 1556 -141 
Q 1256 -141 954 -26 
Q 653 88 461 316 
Q 269 544 269 863 
Q 269 1022 375 1128 
Q 481 1234 641 1234 
Q 744 1234 830 1186 
Q 916 1138 964 1050 
Q 1013 963 1013 863 
Q 1013 706 903 600 
Q 794 494 641 494 
L 609 494 
z
" transform="scale(0.015625)"/>
      </defs>
      <use xlink:href="#Cmmi10-43" transform="translate(0 0.484375)"/>
      <use xlink:href="#Cmr10-33" transform="translate(71.386719 -16.521875) scale(0.7)"/>
     </g>
    </g>
   </g>
  </g>
 </g>
 <defs>
  <clipPath id="p8d3cca003a">
   <rect x="7.2" y="7.2" width="439.2" height="252.983566"/>
  </clipPath>
 </defs>
</svg>
