<?xml version="1.0" encoding="utf-8" standalone="no"?>
<!DOCTYPE svg PUBLIC "-//W3C//DTD SVG 1.1//EN"
  "http://www.w3.org/Graphics/SVG/1.1/DTD/svg11.dtd">
<svg xmlns:xlink="http://www.w3.org/1999/xlink" width="453.6pt" height="267.383859pt" viewBox="0 0 453.6 267.383859" xmlns="http://www.w3.org/2000/svg" version="1.1">
 <metadata>
  <rdf:RDF xmlns:dc="http://purl.org/dc/elements/1.1/" xmlns:cc="http://creativecommons.org/ns#" xmlns:rdf="http://www.w3.org/1999/02/22-rdf-syntax-ns#">
   <cc:Work>
    <dc:type rdf:resource="http://purl.org/dc/dcmitype/StillImage"/>
    <dc:date>2025-06-04T11:08:11.870439</dc:date>
    <dc:format>image/svg+xml</dc:format>
    <dc:creator>
     <cc:Agent>
      <dc:title>Matplotlib v3.8.0, https://matplotlib.org/</dc:title>
     </cc:Agent>
    </dc:creator>
   </cc:Work>
  </rdf:RDF>
 </metadata>
 <defs>
  <style type="text/css">*{stroke-linejoin: round; stroke-linecap: butt}</style>
 </defs>
 <g id="figure_1">
  <g id="patch_1">
   <path d="M 0 267.383859 
L 453.6 267.383859 
L 453.6 0 
L 0 0 
z
" style="fill: #ffffff"/>
  </g>
  <g id="axes_1">
   <g id="patch_2">
    <path d="M 7.2 260.183859 
L 446.4 260.183859 
L 446.4 7.2 
L 7.2 7.2 
z
" style="fill: #ffffff"/>
   </g>
   <g id="PathCollection_1">
    <path d="M 149.975238 105.126193 
C 150.813884 105.126193 151.618294 104.792996 152.211306 104.199984 
C 152.804318 103.606971 153.137516 102.802561 153.137516 101.963916 
C 153.137516 101.12527 152.804318 100.32086 152.211306 99.727848 
C 151.618294 99.134835 150.813884 98.801638 149.975238 98.801638 
C 149.136592 98.801638 148.332182 99.134835 147.73917 99.727848 
C 147.146158 100.32086 146.81296 101.12527 146.81296 101.963916 
C 146.81296 102.802561 147.146158 103.606971 147.73917 104.199984 
C 148.332182 104.792996 149.136592 105.126193 149.975238 105.126193 
z
" clip-path="url(#p60a2699c61)"/>
   </g>
   <g id="PathCollection_2">
    <path d="M 437.953846 258.481063 
C 438.792492 258.481063 439.596902 258.147865 440.189914 257.554853 
C 440.782926 256.961841 441.116124 256.157431 441.116124 255.318785 
C 441.116124 254.480139 440.782926 253.675729 440.189914 253.082717 
C 439.596902 252.489705 438.792492 252.156507 437.953846 252.156507 
C 437.1152 252.156507 436.31079 252.489705 435.717778 253.082717 
C 435.124766 253.675729 434.791568 254.480139 434.791568 255.318785 
C 434.791568 256.157431 435.124766 256.961841 435.717778 257.554853 
C 436.31079 258.147865 437.1152 258.481063 437.953846 258.481063 
z
" clip-path="url(#p60a2699c61)"/>
   </g>
   <g id="PathCollection_3">
    <path d="M 285.920277 15.227352 
C 286.758923 15.227352 287.563333 14.894154 288.156345 14.301142 
C 288.749357 13.70813 289.082555 12.90372 289.082555 12.065074 
C 289.082555 11.226428 288.749357 10.422018 288.156345 9.829006 
C 287.563333 9.235994 286.758923 8.902797 285.920277 8.902797 
C 285.081631 8.902797 284.277221 9.235994 283.684209 9.829006 
C 283.091197 10.422018 282.757999 11.226428 282.757999 12.065074 
C 282.757999 12.90372 283.091197 13.70813 283.684209 14.301142 
C 284.277221 14.894154 285.081631 15.227352 285.920277 15.227352 
z
" clip-path="url(#p60a2699c61)"/>
   </g>
   <g id="matplotlib.axis_1"/>
   <g id="matplotlib.axis_2"/>
   <g id="line2d_1">
    <path d="M 437.953846 255.318785 
L 418.022664 240.433827 
L 403.835554 230.164178 
L 385.729352 217.46141 
L 372.792843 208.669643 
L 354.642191 196.744622 
L 336.497395 185.316531 
L 323.680916 177.550704 
L 306.408658 167.499256 
L 289.301964 158.028834 
L 275.902867 150.960133 
L 263.768435 144.832462 
L 253.298265 139.760909 
L 246.269363 136.47135 
L 234.879615 131.342645 
L 222.139658 125.910935 
L 213.689896 122.49219 
L 199.609376 117.134196 
L 188.64402 113.267196 
L 185.134313 112.088118 
L 170.495417 107.489559 
L 159.36744 104.354066 
L 152.440215 102.567787 
L 144.060238 100.584788 
L 133.674991 98.411181 
L 125.149757 96.875477 
L 116.02244 95.496283 
L 105.901117 94.31096 
L 98.432374 93.686764 
L 89.987445 93.259744 
L 84.632855 93.154615 
L 79.365466 93.186721 
L 70.796938 93.552944 
L 62.714086 94.299397 
L 56.154769 95.236327 
L 52.096091 95.986962 
L 46.379039 97.301113 
L 41.225502 98.788749 
L 38.130504 99.847543 
L 33.97683 101.50625 
L 30.850047 102.975477 
L 27.786627 104.651292 
L 24.711629 106.649064 
L 22.234978 108.587945 
L 20.086285 110.643069 
L 19.087081 111.784258 
L 17.736762 113.645985 
L 16.650218 115.665992 
L 16.073132 117.238487 
L 15.753988 118.673039 
L 15.655622 120.751195 
L 15.808277 121.959979 
L 16.339974 123.737382 
L 16.528251 124.167582 
L 17.582267 125.943146 
L 18.459024 127.011015 
L 20.486609 128.83824 
L 21.911846 129.812356 
L 24.526263 131.203226 
L 26.970889 132.18767 
L 30.307738 133.190496 
L 33.007755 133.784843 
L 35.443917 134.188323 
L 39.601629 134.638266 
L 43.786436 134.839661 
L 47.067276 134.849155 
L 52.571862 134.615132 
L 56.072124 134.3231 
L 62.098752 133.592328 
L 67.438798 132.729781 
L 73.988825 131.426945 
L 80.356753 129.927467 
L 86.558347 128.266761 
L 95.541041 125.542249 
L 106.632181 121.70684 
L 114.407842 118.734916 
L 120.387235 116.302117 
L 130.721045 111.814017 
L 138.460609 108.23042 
L 144.990414 105.066761 
L 153.415942 100.80351 
L 166.969294 93.539374 
L 179.538142 86.380515 
L 189.56504 80.393841 
L 202.548017 72.296475 
L 210.07608 67.429557 
L 221.572627 59.763009 
L 232.619655 52.138715 
L 246.064057 42.532143 
L 258.788194 33.120886 
L 271.212587 23.642247 
L 285.920277 12.065074 
L 285.920277 12.065074 
" clip-path="url(#p60a2699c61)" style="fill: none; stroke: #1e88e5; stroke-width: 2; stroke-linecap: square"/>
   </g>
   <g id="patch_3">
    <path d="M 222.572957 126.090251 
Q 221.98256 125.846377 223.458856 126.456188 
" clip-path="url(#p60a2699c61)" style="fill: none; stroke: #1e88e5; stroke-width: 2; stroke-linecap: round"/>
    <path d="M 230.792491 134.895251 
L 223.458856 126.456188 
L 234.610288 125.652718 
z
" clip-path="url(#p60a2699c61)" style="fill: #1e88e5; stroke: #1e88e5; stroke-width: 2; stroke-linecap: round"/>
   </g>
   <g id="patch_4">
    <path d="M 53.646769 95.683537 
Q 53.394224 95.731793 55.338012 95.36038 
" clip-path="url(#p60a2699c61)" style="fill: none; stroke: #1e88e5; stroke-width: 2; stroke-linecap: round"/>
    <path d="M 66.098719 98.394715 
L 55.338012 95.36038 
L 64.221904 88.572415 
z
" clip-path="url(#p60a2699c61)" style="fill: #1e88e5; stroke: #1e88e5; stroke-width: 2; stroke-linecap: round"/>
   </g>
   <g id="patch_5">
    <path d="M 210.91705 66.878244 
Q 211.492243 66.499938 210.199222 67.35036 
" clip-path="url(#p60a2699c61)" style="fill: none; stroke: #1e88e5; stroke-width: 2; stroke-linecap: round"/>
    <path d="M 199.09679 68.667942 
L 210.199222 67.35036 
L 204.591828 77.022854 
z
" clip-path="url(#p60a2699c61)" style="fill: #1e88e5; stroke: #1e88e5; stroke-width: 2; stroke-linecap: round"/>
   </g>
   <g id="text_1">
    <g clip-path="url(#p60a2699c61)">
     <!-- $C_1$ -->
     <g style="fill: #1e88e5" transform="translate(220.563897 166.23887) scale(0.2 -0.2)">
      <defs>
       <path id="Cmmi10-43" d="M 934 1381 
Q 934 997 1082 705 
Q 1231 413 1514 248 
Q 1797 84 2181 84 
Q 2584 84 2957 290 
Q 3331 497 3595 842 
Q 3859 1188 3956 1575 
Q 3969 1613 4006 1613 
L 4084 1613 
Q 4109 1613 4125 1595 
Q 4141 1578 4141 1556 
Q 4141 1550 4134 1538 
Q 4025 1094 3711 705 
Q 3397 316 2959 87 
Q 2522 -141 2059 -141 
Q 1559 -141 1162 84 
Q 766 309 545 709 
Q 325 1109 325 1613 
Q 325 2150 565 2676 
Q 806 3203 1212 3614 
Q 1619 4025 2139 4269 
Q 2659 4513 3194 4513 
Q 3406 4513 3600 4448 
Q 3794 4384 3959 4253 
Q 4125 4122 4231 3950 
L 4738 4500 
Q 4738 4513 4769 4513 
L 4806 4513 
Q 4831 4513 4847 4491 
Q 4863 4469 4863 4447 
L 4428 2719 
Q 4428 2675 4378 2675 
L 4263 2675 
Q 4213 2675 4213 2747 
Q 4238 2888 4238 3084 
Q 4238 3397 4131 3673 
Q 4025 3950 3801 4119 
Q 3578 4288 3256 4288 
Q 2734 4288 2300 4025 
Q 1866 3763 1564 3336 
Q 1263 2909 1098 2389 
Q 934 1869 934 1381 
z
" transform="scale(0.015625)"/>
       <path id="Cmr10-31" d="M 594 0 
L 594 225 
Q 1394 225 1394 428 
L 1394 3788 
Q 1063 3628 556 3628 
L 556 3853 
Q 1341 3853 1741 4263 
L 1831 4263 
Q 1853 4263 1873 4245 
Q 1894 4228 1894 4206 
L 1894 428 
Q 1894 225 2694 225 
L 2694 0 
L 594 0 
z
" transform="scale(0.015625)"/>
      </defs>
      <use xlink:href="#Cmmi10-43" transform="translate(0 0.484375)"/>
      <use xlink:href="#Cmr10-31" transform="translate(71.386719 -16.521875) scale(0.7)"/>
     </g>
    </g>
   </g>
   <g id="text_2">
    <g clip-path="url(#p60a2699c61)">
     <!-- $C_2$ -->
     <g style="fill: #1e88e5" transform="translate(71.908851 115.561013) scale(0.2 -0.2)">
      <defs>
       <path id="Cmr10-32" d="M 319 0 
L 319 172 
Q 319 188 331 206 
L 1325 1306 
Q 1550 1550 1690 1715 
Q 1831 1881 1968 2097 
Q 2106 2313 2186 2536 
Q 2266 2759 2266 3009 
Q 2266 3272 2169 3511 
Q 2072 3750 1880 3894 
Q 1688 4038 1416 4038 
Q 1138 4038 916 3870 
Q 694 3703 603 3438 
Q 628 3444 672 3444 
Q 816 3444 917 3347 
Q 1019 3250 1019 3097 
Q 1019 2950 917 2848 
Q 816 2747 672 2747 
Q 522 2747 420 2851 
Q 319 2956 319 3097 
Q 319 3338 409 3548 
Q 500 3759 670 3923 
Q 841 4088 1055 4175 
Q 1269 4263 1509 4263 
Q 1875 4263 2190 4108 
Q 2506 3953 2690 3670 
Q 2875 3388 2875 3009 
Q 2875 2731 2753 2481 
Q 2631 2231 2440 2026 
Q 2250 1822 1953 1562 
Q 1656 1303 1563 1216 
L 838 519 
L 1453 519 
Q 1906 519 2211 526 
Q 2516 534 2534 550 
Q 2609 631 2688 1141 
L 2875 1141 
L 2694 0 
L 319 0 
z
" transform="scale(0.015625)"/>
      </defs>
      <use xlink:href="#Cmmi10-43" transform="translate(0 0.484375)"/>
      <use xlink:href="#Cmr10-32" transform="translate(71.386719 -16.521875) scale(0.7)"/>
     </g>
    </g>
   </g>
   <g id="text_3">
    <g clip-path="url(#p60a2699c61)">
     <!-- $C_3$ -->
     <g style="fill: #1e88e5" transform="translate(193.535707 47.990538) scale(0.2 -0.2)">
      <defs>
       <path id="Cmr10-33" d="M 609 494 
Q 759 275 1012 169 
Q 1266 63 1556 63 
Q 1928 63 2084 380 
Q 2241 697 2241 1100 
Q 2241 1281 2208 1462 
Q 2175 1644 2097 1800 
Q 2019 1956 1883 2050 
Q 1747 2144 1550 2144 
L 1125 2144 
Q 1069 2144 1069 2203 
L 1069 2259 
Q 1069 2309 1125 2309 
L 1478 2338 
Q 1703 2338 1851 2506 
Q 2000 2675 2069 2917 
Q 2138 3159 2138 3378 
Q 2138 3684 1994 3881 
Q 1850 4078 1556 4078 
Q 1313 4078 1091 3986 
Q 869 3894 738 3706 
Q 750 3709 759 3711 
Q 769 3713 781 3713 
Q 925 3713 1022 3613 
Q 1119 3513 1119 3372 
Q 1119 3234 1022 3134 
Q 925 3034 781 3034 
Q 641 3034 541 3134 
Q 441 3234 441 3372 
Q 441 3647 606 3850 
Q 772 4053 1033 4158 
Q 1294 4263 1556 4263 
Q 1750 4263 1965 4205 
Q 2181 4147 2356 4039 
Q 2531 3931 2642 3762 
Q 2753 3594 2753 3378 
Q 2753 3109 2633 2881 
Q 2513 2653 2303 2487 
Q 2094 2322 1844 2241 
Q 2122 2188 2372 2031 
Q 2622 1875 2773 1631 
Q 2925 1388 2925 1106 
Q 2925 753 2731 467 
Q 2538 181 2222 20 
Q 1906 -141 1556 -141 
Q 1256 -141 954 -26 
Q 653 88 461 316 
Q 269 544 269 863 
Q 269 1022 375 1128 
Q 481 1234 641 1234 
Q 744 1234 830 1186 
Q 916 1138 964 1050 
Q 1013 963 1013 863 
Q 1013 706 903 600 
Q 794 494 641 494 
L 609 494 
z
" transform="scale(0.015625)"/>
      </defs>
      <use xlink:href="#Cmmi10-43" transform="translate(0 0.484375)"/>
      <use xlink:href="#Cmr10-33" transform="translate(71.386719 -16.521875) scale(0.7)"/>
     </g>
    </g>
   </g>
  </g>
 </g>
 <defs>
  <clipPath id="p60a2699c61">
   <rect x="7.2" y="7.2" width="439.2" height="252.983859"/>
  </clipPath>
 </defs>
</svg>
