<svg xmlns="http://www.w3.org/2000/svg" xmlns:xlink="http://www.w3.org/1999/xlink" xmlns:inkscape="http://www.inkscape.org/namespaces/inkscape" version="1.1" width="236" height="45" viewBox="0 0 236 45">
<defs>
<path id="font_1_2" d="M.20098877 .4016571H.29299928C.31199647 .4016571 .32199098 .4016571 .32199098 .41966249 .32199098 .43066407 .31599427 .43066407 .29599 .43066407H.20799256L.24499512 .57650759C.24899292 .5904999 .24899292 .5924988 .24899292 .5994873 .24899292 .6154785 .23599243 .6244812 .22299195 .6244812 .21499634 .6244812 .19198609 .6214905 .18399048 .5894928L.14498902 .43066407H.050994874C.0309906 .43066407 .021987915 .43066407 .021987915 .4116516 .021987915 .4016571 .0289917 .4016571 .04798889 .4016571H.13699341L.070999149 .13804627C.06298828 .10308838 .05999756 .09310913 .05999756 .0801239 .05999756 .033187868 .09298706-.009765625 .14898682-.009765625 .25-.009765625 .3039856 .13604737 .3039856 .14303589 .3039856 .14901734 .2999878 .15202332 .2939911 .15202332 .2919922 .15202332 .28799439 .15202332 .28599549 .14802552 .2849884 .14703369 .28399659 .14602661 .2769928 .13005066 .2559967 .0801239 .20999146 .010223389 .1519928 .010223389 .12199402 .010223389 .11999512 .035186769 .11999512 .057159425 .11999512 .058151246 .11999512 .07713318 .12298584 .08911133L.20098877 .4016571Z"/>
<path id="font_1_3" d="M.47399903 .40820313C.44198609 .40219117 .42999269 .3781891 .42999269 .3591919 .42999269 .33518983 .44898988 .3271942 .46299745 .3271942 .49299623 .3271942 .5139923 .3531952 .5139923 .380188 .5139923 .4223938 .46598817 .44140626 .42399598 .44140626 .36299134 .44140626 .32899476 .38119508 .31999208 .36219789 .29699708 .4373932 .23498535 .44140626 .21699524 .44140626 .114990238 .44140626 .06098938 .31021119 .06098938 .28822328 .06098938 .28422547 .06498718 .27923585 .07199097 .27923585 .07998657 .27923585 .08198547 .28523255 .083999637 .2892151 .117996219 .40019227 .18499756 .42140199 .21398926 .42140199 .25898744 .42140199 .2679901 .37919618 .2679901 .3551941 .2679901 .33319093 .2619934 .31021119 .25 .26223756L.21598816 .12535095C.20098877 .06535339 .17199707 .010223389 .11898804 .010223389 .11399841 .010223389 .08898926 .010223389 .067993167 .023330689 .10398865 .03036499 .11199951 .06036377 .11199951 .07235718 .11199951 .09236145 .09700012 .10435486 .07798767 .10435486 .053985597 .10435486 .027999878 .083358768 .027999878 .051361085 .027999878 .009231567 .07499695-.009765625 .117996219-.009765625 .1659851-.009765625 .19999695 .028366089 .22099304 .069366458 .23699951 .010223389 .2869873-.009765625 .32398988-.009765625 .42599488-.009765625 .47999574 .12135315 .47999574 .1433258 .47999574 .14833069 .47599793 .15232849 .46998597 .15232849 .46099855 .15232849 .45999146 .14732361 .45700074 .139328 .42999269 .051361085 .37199403 .010223389 .32699586 .010223389 .2919922 .010223389 .272995 .036361696 .272995 .07736206 .272995 .099365238 .2769928 .115356449 .29299928 .18130493L.32798768 .3171997C.34298707 .37719728 .3769989 .42140199 .4229889 .42140199 .4249878 .42140199 .45298768 .42140199 .47399903 .40820313Z"/>
<path id="font_1_1" d="M.29599 .3177948H.46398927C.60198977 .3177948 .73999026 .41973878 .73999026 .53367617 .73999026 .6116333 .673996 .6826172 .5479889 .6826172H.23899842C.21998596 .6826172 .21099854 .6826172 .21099854 .66360476 .21099854 .6536102 .21998596 .6536102 .23498535 .6536102 .29599 .6536102 .29599 .6456146 .29599 .63461306 .29599 .63261416 .29599 .62661746 .2919922 .6116333L.15699768 .07395935C.147995 .038986207 .1459961 .0289917 .07598877 .0289917 .056991579 .0289917 .04699707 .0289917 .04699707 .010986328 .04699707 0 .055999757 0 .06199646 0 .08099365 0 .100997928 .0019989014 .11999512 .0019989014H.23699951C.2559967 .0019989014 .2769928 0 .29599 0 .3039856 0 .31498719 0 .31498719 .018997193 .31498719 .0289917 .30599977 .0289917 .29100038 .0289917 .23098755 .0289917 .22999573 .035980226 .22999573 .04597473 .22999573 .050979616 .23098755 .05796814 .23199463 .06297302L.29599 .3177948M.36799623 .614624C.3769989 .6516113 .3809967 .6536102 .41999818 .6536102H.5189972C.59399417 .6536102 .6559906 .6296234 .6559906 .55467227 .6559906 .5286865 .6429901 .4437256 .5970001 .39775086 .5799866 .37976075 .5319977 .34179688 .44099427 .34179688H.2999878L.36799623 .614624Z"/>
<path id="font_2_3" d="M.33399964 .30233766C.33999635 .32835389 .36299134 .42037965 .43299867 .42037965 .43798829 .42037965 .46199037 .42037965 .48298646 .40734864 .45498658 .402359 .43499757 .37734986 .43499757 .35334779 .43499757 .33735658 .44599916 .31835938 .47299195 .31835938 .49499513 .31835938 .5269928 .3363495 .5269928 .37635804 .5269928 .42837525 .46798707 .4423828 .43399049 .4423828 .37599183 .4423828 .34098817 .38935853 .32899476 .36634828 .3039856 .43237306 .25 .4423828 .22099304 .4423828 .116989139 .4423828 .05999756 .3133545 .05999756 .28834535 .05999756 .27833558 .069992069 .27833558 .07199097 .27833558 .07998657 .27833558 .08299255 .28033448 .084991458 .28933717 .11898804 .39535523 .18499756 .42037965 .21899414 .42037965 .23799134 .42037965 .272995 .4113617 .272995 .35334779 .272995 .32235719 .2559967 .25532533 .21899414 .11528015 .20298767 .053268434 .16799927 .011245728 .12399292 .011245728 .117996219 .011245728 .09498596 .011245728 .07398987 .024276734 .09899902 .029266358 .12098694 .05027771 .12098694 .07827759 .12098694 .105270389 .09899902 .11328125 .083999637 .11328125 .053985597 .11328125 .0289917 .08728027 .0289917 .055267335 .0289917 .009246826 .07899475-.0107421879 .12298584-.0107421879 .18899536-.0107421879 .22499085 .059280397 .22799683 .0652771 .23999024 .028274537 .27598573-.0107421879 .33599855-.0107421879 .43899537-.0107421879 .49598695 .118270877 .49598695 .14328003 .49598695 .1532898 .4869995 .1532898 .48399354 .1532898 .47499085 .1532898 .47299195 .14929199 .47099305 .14228821 .43798829 .03527832 .36999513 .011245728 .33799745 .011245728 .29899598 .011245728 .2829895 .043273927 .2829895 .07727051 .2829895 .09927368 .2889862 .121276859 .2999878 .16529846L.33399964 .30233766Z"/>
<path id="font_3_1" d="M.33099366-.2400055C.33099366-.23701477 .33099366-.23500061 .31399537-.21800232 .18899536-.0920105 .15699768 .09700012 .15699768 .25 .15699768 .42399598 .19499207 .59799197 .31799317 .72299197 .33099366 .73498538 .33099366 .7369995 .33099366 .73999026 .33099366 .746994 .32699586 .75 .32099916 .75 .31098939 .75 .22099304 .6819916 .1619873 .5549927 .11099243 .44499208 .09899902 .33399964 .09899902 .25 .09899902 .17199707 .10998535 .050994874 .16499329-.06201172 .22499085-.18501282 .31098939-.25 .32099916-.25 .32699586-.25 .33099366-.24700928 .33099366-.2400055Z"/>
<path id="font_2_2" d="M.20599365 .3996582H.2999878C.31999208 .3996582 .32998658 .3996582 .32998658 .41966249 .32998658 .43066407 .31999208 .43066407 .3019867 .43066407H.21398926C.25 .5724945 .25498963 .59246829 .25498963 .59846499 .25498963 .61546328 .24299622 .62545779 .22599793 .62545779 .22299195 .62545779 .19499207 .62446597 .18598938 .58947756L.14698792 .43066407H.052993776C.032989503 .43066407 .022994996 .43066407 .022994996 .4116516 .022994996 .3996582 .0309906 .3996582 .050994874 .3996582H.13899231C.066986087 .11608887 .06298828 .099121097 .06298828 .08114624 .06298828 .02722168 .100997928-.0107421879 .15499878-.0107421879 .25698854-.0107421879 .31399537 .13505554 .31399537 .14305115 .31399537 .1530304 .30599977 .1530304 .3019867 .1530304 .29299928 .1530304 .2919922 .15003968 .2869873 .13905335 .24398804 .035217287 .19099427 .011245728 .15699768 .011245728 .13598633 .011245728 .12599182 .024230957 .12599182 .057174684 .12599182 .08114624 .12799073 .088134769 .13198853 .10510254L.20599365 .3996582Z"/>
<path id="font_3_2" d="M.2889862 .25C.2889862 .32798768 .27799989 .44898988 .22299195 .56199648 .16299439 .68499758 .07699585 .75 .066986087 .75 .06098938 .75 .056991579 .74598696 .056991579 .73999026 .056991579 .7369995 .056991579 .73498538 .07598877 .71699526 .17399597 .6179962 .23098755 .45899964 .23098755 .25 .23098755 .07899475 .19400025-.09700012 .069992069-.2230072 .056991579-.23500061 .056991579-.23701477 .056991579-.2400055 .056991579-.2460022 .06098938-.25 .066986087-.25 .07699585-.25 .16699219-.18200684 .22599793-.055007936 .2769928 .054992677 .2889862 .16600037 .2889862 .25Z"/>
<path id="font_2_1" d="M.30299378 .3157959H.47299195C.61499026 .3157959 .7539978 .41973878 .7539978 .53167727 .7539978 .6086273 .6879883 .6826172 .5569916 .6826172H.23298645C.21398926 .6826172 .20298767 .6826172 .20298767 .66360476 .20298767 .6516113 .21199036 .6516113 .23199463 .6516113 .24499512 .6516113 .2630005 .65060427 .2749939 .6496124 .29100038 .6476135 .29699708 .64460757 .29699708 .6336212 .29699708 .6296234 .29599 .62661746 .29299928 .614624L.15899658 .07795715C.14898682 .038986207 .14698792 .0309906 .067993167 .0309906 .050994874 .0309906 .039993287 .0309906 .039993287 .011993408 .039993287 0 .051986696 0 .054992677 0 .08299255 0 .1539917 .0029907227 .18199158 .0029907227 .20298767 .0029907227 .22499085 .0019989014 .24598694 .0019989014 .2679901 .0019989014 .2899933 0 .31098939 0 .31799317 0 .33099366 0 .33099366 .019989014 .33099366 .0309906 .32199098 .0309906 .30299378 .0309906 .2659912 .0309906 .23799134 .0309906 .23799134 .048980714 .23799134 .054977418 .23999024 .05996704 .24099732 .065963748L.30299378 .3157959M.375 .6136322C.38398744 .64860537 .38598634 .6516113 .42900086 .6516113H.5249939C.60798647 .6516113 .6609955 .62461856 .6609955 .55566409 .6609955 .5166931 .6409912 .43074037 .60198977 .39476014 .5519867 .34977723 .49198915 .34179688 .44799806 .34179688H.30699159L.375 .6136322Z"/>
<path id="font_3_3" d="M.68699648 .32714845C.70199587 .32714845 .72099307 .32714845 .72099307 .34713746 .72099307 .36714173 .70199587 .36714173 .6879883 .36714173H.08898926C.07499695 .36714173 .055999757 .36714173 .055999757 .34713746 .055999757 .32714845 .07499695 .32714845 .08999634 .32714845H.68699648M.6879883 .13284302C.70199587 .13284302 .72099307 .13284302 .72099307 .15284729 .72099307 .17285156 .70199587 .17285156 .68699648 .17285156H.08999634C.07499695 .17285156 .055999757 .17285156 .055999757 .15284729 .055999757 .13284302 .07499695 .13284302 .08898926 .13284302H.6879883Z"/>
<path id="font_4_1" d="M.44400025 .24998474C.44400025 .357193 .35499574 .44429017 .25 .44429017 .14199829 .44429017 .054992677 .3551941 .054992677 .24998474 .054992677 .14378357 .14199829 .05569458 .25 .05569458 .35499574 .05569458 .44400025 .14279175 .44400025 .24998474M.25 .095703128C.16299439 .095703128 .09498596 .16583252 .09498596 .24998474 .09498596 .33415223 .1639862 .40429688 .25 .40429688 .33299256 .40429688 .4039917 .33615113 .4039917 .24998474 .4039917 .16383362 .33299256 .095703128 .25 .095703128Z"/>
</defs>
<use data-text="t" xlink:href="#font_1_2" transform="matrix(11.955797,0,0,-11.95556,1.217308,42.542886)"/>
<use data-text="x" xlink:href="#font_1_3" transform="matrix(11.955797,0,0,-11.95556,113.39791,41.43885)"/>
<use data-text="P" xlink:href="#font_1_1" transform="matrix(11.955797,0,0,-11.95556,225.5315,42.950899)"/>
<path transform="matrix(1.00005,0,0,-1.00003,3.3314133,152.25618)" stroke-width=".3985" stroke-linecap="butt" stroke-miterlimit="10" stroke-linejoin="miter" fill="none" stroke="#000000" d="M5.63342 113.38724H106.14287"/>
<path transform="matrix(1.00005,0,0,-1.00003,109.67884,38.86554)" stroke-width=".3985" stroke-linecap="round" stroke-linejoin="round" fill="none" stroke="#000000" d="M-2.07224 2.39104C-1.69365 .95639-.84999 .27895 0 0-.84999-.27895-1.69365-.95639-2.07224-2.39104"/>
<use data-text="x" xlink:href="#font_2_3" transform="matrix(9.963098,0,0,-9.962899,50.90079,32.85459)"/>
<use data-text="(" xlink:href="#font_3_1" transform="matrix(9.963098,0,0,-9.962899,56.59508,32.85459)"/>
<use data-text="t" xlink:href="#font_2_2" transform="matrix(9.963098,0,0,-9.962899,60.469274,32.85459)"/>
<use data-text=")" xlink:href="#font_3_2" transform="matrix(9.963098,0,0,-9.962899,64.067447,32.85459)"/>
<path transform="matrix(1.00005,0,0,-1.00003,3.3314133,152.25618)" stroke-width=".3985" stroke-linecap="butt" stroke-miterlimit="10" stroke-linejoin="miter" fill="none" stroke="#000000" d="M120.23318 113.38724H218.27063"/>
<path transform="matrix(1.00005,0,0,-1.00003,221.81223,38.86554)" stroke-width=".3985" stroke-linecap="round" stroke-linejoin="round" fill="none" stroke="#000000" d="M-2.07224 2.39104C-1.69365 .95639-.84999 .27895 0 0-.84999-.27895-1.69365-.95639-2.07224-2.39104"/>
<use data-text="P" xlink:href="#font_2_1" transform="matrix(9.963098,0,0,-9.962899,162.17935,32.85459)"/>
<use data-text="(" xlink:href="#font_3_1" transform="matrix(9.963098,0,0,-9.962899,169.95973,32.85459)"/>
<use data-text="x" xlink:href="#font_2_3" transform="matrix(9.963098,0,0,-9.962899,173.83393,32.85459)"/>
<use data-text=")" xlink:href="#font_3_2" transform="matrix(9.963098,0,0,-9.962899,179.52822,32.85459)"/>
<path transform="matrix(1.00005,0,0,-1.00003,3.3314133,152.25618)" stroke-width="1.49442" stroke-linecap="butt" stroke-miterlimit="10" stroke-linejoin="miter" fill="none" stroke="#cc0000" d="M5.63342 119.01979C28.3468 141.73404 198.42775 141.73404 218.11449 122.04843"/>
<path transform="matrix(.7071353,.7071012,.70711538,-.7071212,221.98517,30.732422)" stroke-width="1.49442" stroke-linecap="round" stroke-linejoin="round" fill="none" stroke="#cc0000" d="M-3.38733 4.37073C-2.76846 1.74825-1.38942 .50992 0 0-1.38942-.50992-2.76846-1.74825-3.38733-4.37073"/>
<use data-text="P" xlink:href="#font_2_1" transform="matrix(9.963098,0,0,-9.962899,72.55987,9.3918919)" fill="#cc0000"/>
<use data-text="(" xlink:href="#font_3_1" transform="matrix(9.963098,0,0,-9.962899,80.340259,9.3918919)" fill="#cc0000"/>
<use data-text="x" xlink:href="#font_2_3" transform="matrix(9.963098,0,0,-9.962899,84.214458,9.3918919)" fill="#cc0000"/>
<use data-text="(" xlink:href="#font_3_1" transform="matrix(9.963098,0,0,-9.962899,89.90874,9.3918919)" fill="#cc0000"/>
<use data-text="t" xlink:href="#font_2_2" transform="matrix(9.963098,0,0,-9.962899,93.78293,9.3918919)" fill="#cc0000"/>
<use data-text=")" xlink:href="#font_3_2" transform="matrix(9.963098,0,0,-9.962899,97.38111,9.3918919)" fill="#cc0000"/>
<use data-text=")" xlink:href="#font_3_2" transform="matrix(9.963098,0,0,-9.962899,101.24679,9.3918919)" fill="#cc0000"/>
<use data-text="=" xlink:href="#font_3_3" transform="matrix(9.963098,0,0,-9.962899,107.872249,9.3918919)" fill="#cc0000"/>
<use data-text="(" xlink:href="#font_3_1" transform="matrix(9.963098,0,0,-9.962899,118.383319,9.3918919)" fill="#cc0000"/>
<use data-text="P" xlink:href="#font_2_1" transform="matrix(9.963098,0,0,-9.962899,122.28836,9.3918919)" fill="#cc0000"/>
<use data-text="&#x25e6;" xlink:href="#font_4_1" transform="matrix(9.963098,0,0,-9.962899,132.28287,9.3918919)" fill="#cc0000"/>
<use data-text="x" xlink:href="#font_2_3" transform="matrix(9.963098,0,0,-9.962899,139.47823,9.3918919)" fill="#cc0000"/>
<use data-text=")" xlink:href="#font_3_2" transform="matrix(9.963098,0,0,-9.962899,145.17252,9.3918919)" fill="#cc0000"/>
<use data-text="(" xlink:href="#font_3_1" transform="matrix(9.963098,0,0,-9.962899,149.0382,9.3918919)" fill="#cc0000"/>
<use data-text="t" xlink:href="#font_2_2" transform="matrix(9.963098,0,0,-9.962899,152.92189,9.3918919)" fill="#cc0000"/>
<use data-text=")" xlink:href="#font_3_2" transform="matrix(9.963098,0,0,-9.962899,156.52008,9.3918919)" fill="#cc0000"/>
</svg>
