<?xml version="1.0" encoding="utf-8" standalone="no"?>
<!DOCTYPE svg PUBLIC "-//W3C//DTD SVG 1.1//EN"
  "http://www.w3.org/Graphics/SVG/1.1/DTD/svg11.dtd">
<svg xmlns:xlink="http://www.w3.org/1999/xlink" width="344.287454pt" height="344.242538pt" viewBox="0 0 344.287454 344.242538" xmlns="http://www.w3.org/2000/svg" version="1.1">
 <metadata>
  <rdf:RDF xmlns:dc="http://purl.org/dc/elements/1.1/" xmlns:cc="http://creativecommons.org/ns#" xmlns:rdf="http://www.w3.org/1999/02/22-rdf-syntax-ns#">
   <cc:Work>
    <dc:type rdf:resource="http://purl.org/dc/dcmitype/StillImage"/>
    <dc:date>2025-03-06T19:36:16.557736</dc:date>
    <dc:format>image/svg+xml</dc:format>
    <dc:creator>
     <cc:Agent>
      <dc:title>Matplotlib v3.5.1, https://matplotlib.org/</dc:title>
     </cc:Agent>
    </dc:creator>
   </cc:Work>
  </rdf:RDF>
 </metadata>
 <defs>
  <style type="text/css">*{stroke-linejoin: round; stroke-linecap: butt}</style>
 </defs>
 <g id="figure_1">
  <g id="patch_1">
   <path d="M -0 344.242538 
L 344.287454 344.242538 
L 344.287454 0 
L -0 0 
z
" style="fill: #ffffff"/>
  </g>
  <g id="axes_1">
   <g id="patch_2">
    <path d="M 13.449915 337.042538 
L 319.807454 337.042538 
L 319.807454 30.685 
L 13.449915 30.685 
z
" style="fill: #ffffff"/>
   </g>
   <g id="Quiver_1">
    <path d="M 19.774661 331.584302 
L 9.808054 341.55091 
L 11.541074 342.41742 
L 5.475504 345.01695 
L 8.075034 338.95138 
L 8.941544 340.6844 
L 18.908151 330.717792 
L 19.774661 331.584302 
" clip-path="url(#p8c9079422f)" style="fill: #0000ff"/>
    <path d="M 19.806614 310.508757 
L 11.510302 320.187788 
L 13.304676 320.918829 
L 7.456347 323.97591 
L 9.583012 317.728831 
L 10.579886 319.390288 
L 18.876198 309.711258 
L 19.806614 310.508757 
" clip-path="url(#p8c9079422f)" style="fill: #0000ff"/>
    <path d="M 19.839993 289.425101 
L 13.140978 298.803723 
L 14.992871 299.373536 
L 9.43719 302.93487 
L 11.004177 296.524469 
L 12.143804 298.091456 
L 18.842819 288.712834 
L 19.839993 289.425101 
" clip-path="url(#p8c9079422f)" style="fill: #0000ff"/>
    <path d="M 19.873392 268.33192 
L 14.685945 277.409951 
L 16.585894 277.789941 
L 11.418034 281.89383 
L 12.330009 275.358007 
L 13.621974 276.801968 
L 18.809421 267.723936 
L 19.873392 268.33192 
" clip-path="url(#p8c9079422f)" style="fill: #0000ff"/>
    <path d="M 19.90458 247.228249 
L 16.134293 256.025585 
L 18.065176 256.186492 
L 13.398877 260.852791 
L 13.559784 254.255609 
L 15.007945 255.542864 
L 18.778232 246.745528 
L 19.90458 247.228249 
" clip-path="url(#p8c9079422f)" style="fill: #0000ff"/>
    <path d="M 19.930546 226.114174 
L 17.483792 234.677815 
L 19.419539 234.593652 
L 15.37972 239.811751 
L 14.706417 233.247046 
L 16.305512 234.341163 
L 18.752266 225.777523 
L 19.930546 226.114174 
" clip-path="url(#p8c9079422f)" style="fill: #0000ff"/>
    <path d="M 19.947963 204.99146 
L 18.746979 213.398349 
L 20.653301 213.051745 
L 17.360563 218.770711 
L 15.800845 212.358537 
L 17.533865 213.225047 
L 18.734849 204.818158 
L 19.947963 204.99146 
" clip-path="url(#p8c9079422f)" style="fill: #0000ff"/>
    <path d="M 19.954121 183.863769 
L 19.954121 192.215236 
L 21.792267 191.602521 
L 19.341406 197.729672 
L 16.890546 191.602521 
L 18.728691 192.215236 
L 18.728691 183.863769 
L 19.954121 183.863769 
" clip-path="url(#p8c9079422f)" style="fill: #0000ff"/>
    <path d="M 19.947963 162.736079 
L 21.148947 171.142968 
L 22.881967 170.276458 
L 21.322249 176.688632 
L 18.029512 170.969666 
L 19.935833 171.31627 
L 18.734849 162.90938 
L 19.947963 162.736079 
" clip-path="url(#p8c9079422f)" style="fill: #0000ff"/>
    <path d="M 19.930546 141.613364 
L 22.377301 150.177004 
L 23.976396 149.082887 
L 23.303093 155.647592 
L 19.263274 150.429493 
L 21.19902 150.513656 
L 18.752266 141.950016 
L 19.930546 141.613364 
" clip-path="url(#p8c9079422f)" style="fill: #0000ff"/>
    <path d="M 19.90458 120.49929 
L 23.674867 129.296626 
L 25.123029 128.009371 
L 25.283936 134.606552 
L 20.617637 129.940253 
L 22.548519 129.779346 
L 18.778232 120.98201 
L 19.90458 120.49929 
" clip-path="url(#p8c9079422f)" style="fill: #0000ff"/>
    <path d="M 19.873392 99.395619 
L 25.060838 108.47365 
L 26.352804 107.029689 
L 27.264779 113.565513 
L 22.096918 109.461623 
L 23.996867 109.081633 
L 18.809421 100.003602 
L 19.873392 99.395619 
" clip-path="url(#p8c9079422f)" style="fill: #0000ff"/>
    <path d="M 19.839993 78.302437 
L 26.539008 87.681059 
L 27.678635 86.114072 
L 29.245622 92.524473 
L 23.689941 88.963139 
L 25.541835 88.393325 
L 18.842819 79.014704 
L 19.839993 78.302437 
" clip-path="url(#p8c9079422f)" style="fill: #0000ff"/>
    <path d="M 19.806614 57.218781 
L 28.102926 66.897812 
L 29.0998 65.236355 
L 31.226465 71.483433 
L 25.378137 68.426352 
L 27.17251 67.695311 
L 18.876198 58.016281 
L 19.806614 57.218781 
" clip-path="url(#p8c9079422f)" style="fill: #0000ff"/>
    <path d="M 19.774661 36.143236 
L 29.741269 46.109844 
L 30.607779 44.376824 
L 33.207309 50.442393 
L 27.141739 47.842863 
L 28.874759 46.976354 
L 18.908151 37.009746 
L 19.774661 36.143236 
" clip-path="url(#p8c9079422f)" style="fill: #0000ff"/>
    <path d="M 40.781196 331.616255 
L 31.102165 339.912567 
L 32.763622 340.909441 
L 26.516544 343.036106 
L 29.573625 337.187778 
L 30.304666 338.982151 
L 39.983696 330.685839 
L 40.781196 331.616255 
" clip-path="url(#p8c9079422f)" style="fill: #0000ff"/>
    <path d="M 40.815701 310.543263 
L 32.829937 318.529027 
L 34.562957 319.395537 
L 28.497387 321.995067 
L 31.096917 315.929497 
L 31.963427 317.662517 
L 39.949191 309.676753 
L 40.815701 310.543263 
" clip-path="url(#p8c9079422f)" style="fill: #0000ff"/>
    <path d="M 40.853147 289.461219 
L 34.479187 297.109971 
L 36.283539 297.816022 
L 30.47823 300.954027 
L 32.517933 294.678017 
L 33.537785 296.32547 
L 39.911745 288.676717 
L 40.853147 289.461219 
" clip-path="url(#p8c9079422f)" style="fill: #0000ff"/>
    <path d="M 40.892256 268.367801 
L 36.027742 275.664573 
L 37.897044 276.174382 
L 32.459073 279.912987 
L 33.818566 273.455397 
L 35.008122 274.984826 
L 39.872636 267.688055 
L 40.892256 268.367801 
" clip-path="url(#p8c9079422f)" style="fill: #0000ff"/>
    <path d="M 40.930475 247.260903 
L 37.454076 254.213701 
L 39.372178 254.487715 
L 34.439916 258.871948 
L 34.987945 252.295599 
L 36.358018 253.665672 
L 39.834417 246.712874 
L 40.930475 247.260903 
" clip-path="url(#p8c9079422f)" style="fill: #0000ff"/>
    <path d="M 40.963719 226.139606 
L 38.74585 232.793212 
L 40.683425 232.793212 
L 36.42076 237.830908 
L 36.033245 231.243152 
L 37.583305 232.405697 
L 39.801173 225.752091 
L 40.963719 226.139606 
" clip-path="url(#p8c9079422f)" style="fill: #0000ff"/>
    <path d="M 40.986824 205.005539 
L 39.912549 211.451192 
L 41.826414 211.149003 
L 38.401603 216.789868 
L 36.991386 210.343165 
L 38.703792 211.249732 
L 39.778068 204.804079 
L 40.986824 205.005539 
" clip-path="url(#p8c9079422f)" style="fill: #0000ff"/>
    <path d="M 40.995161 183.863769 
L 40.995161 190.234393 
L 42.833306 189.621678 
L 40.382446 195.748828 
L 37.931586 189.621678 
L 39.769731 190.234393 
L 39.769731 183.863769 
L 40.995161 183.863769 
" clip-path="url(#p8c9079422f)" style="fill: #0000ff"/>
    <path d="M 40.986824 162.722 
L 42.0611 169.167653 
L 43.773505 168.261085 
L 42.363289 174.707789 
L 38.938478 169.066923 
L 40.852343 169.369112 
L 39.778068 162.923459 
L 40.986824 162.722 
" clip-path="url(#p8c9079422f)" style="fill: #0000ff"/>
    <path d="M 40.963719 141.587932 
L 43.181587 148.241538 
L 44.731647 147.078993 
L 44.344132 153.666749 
L 40.081467 148.629053 
L 42.019042 148.629053 
L 39.801173 141.975447 
L 40.963719 141.587932 
" clip-path="url(#p8c9079422f)" style="fill: #0000ff"/>
    <path d="M 40.930475 120.466636 
L 44.406874 127.419433 
L 45.776947 126.049361 
L 46.324976 132.625709 
L 41.392714 128.241477 
L 43.310816 127.967462 
L 39.834417 121.014665 
L 40.930475 120.466636 
" clip-path="url(#p8c9079422f)" style="fill: #0000ff"/>
    <path d="M 40.892256 99.359737 
L 45.75677 106.656508 
L 46.946326 105.127079 
L 48.305819 111.584669 
L 42.867848 107.846065 
L 44.73715 107.336255 
L 39.872636 100.039483 
L 40.892256 99.359737 
" clip-path="url(#p8c9079422f)" style="fill: #0000ff"/>
    <path d="M 40.853147 78.26632 
L 47.227107 85.915072 
L 48.246959 84.26762 
L 50.286662 90.54363 
L 44.481353 87.405625 
L 46.285705 86.699573 
L 39.911745 79.050821 
L 40.853147 78.26632 
" clip-path="url(#p8c9079422f)" style="fill: #0000ff"/>
    <path d="M 40.815701 57.184276 
L 48.801465 65.17004 
L 49.667975 63.43702 
L 52.267505 69.50259 
L 46.201935 66.90306 
L 47.934955 66.03655 
L 39.949191 58.050786 
L 40.815701 57.184276 
" clip-path="url(#p8c9079422f)" style="fill: #0000ff"/>
    <path d="M 40.781196 36.111283 
L 50.460226 44.407595 
L 51.191267 42.613221 
L 54.248348 48.46155 
L 48.00127 46.334885 
L 49.662727 45.338011 
L 39.983696 37.041699 
L 40.781196 36.111283 
" clip-path="url(#p8c9079422f)" style="fill: #0000ff"/>
    <path d="M 61.779619 331.649634 
L 52.400998 338.348649 
L 53.967985 339.488276 
L 47.557583 341.055263 
L 51.118917 335.499582 
L 51.688731 337.351476 
L 61.067352 330.652461 
L 61.779619 331.649634 
" clip-path="url(#p8c9079422f)" style="fill: #0000ff"/>
    <path d="M 61.815736 310.580708 
L 54.166984 316.954669 
L 55.814437 317.97452 
L 49.538427 320.014224 
L 52.676432 314.208914 
L 53.382483 316.013267 
L 61.031235 309.639307 
L 61.815736 310.580708 
" clip-path="url(#p8c9079422f)" style="fill: #0000ff"/>
    <path d="M 61.856741 289.502223 
L 55.85182 295.507144 
L 57.58484 296.373654 
L 51.51927 298.973184 
L 54.1188 292.907614 
L 54.98531 294.640634 
L 60.990231 288.635713 
L 61.856741 289.502223 
" clip-path="url(#p8c9079422f)" style="fill: #0000ff"/>
    <path d="M 61.901936 268.410688 
L 57.423404 274.008853 
L 59.241514 274.678683 
L 53.500113 277.932144 
L 55.413913 271.616603 
L 56.466504 273.243333 
L 60.945036 267.645168 
L 61.901936 268.410688 
" clip-path="url(#p8c9079422f)" style="fill: #0000ff"/>
    <path d="M 61.948885 247.302128 
L 58.843509 252.477754 
L 60.734945 252.898073 
L 55.480956 256.891104 
L 56.531754 250.376159 
L 57.792711 251.847275 
L 60.898087 246.671649 
L 61.948885 247.302128 
" clip-path="url(#p8c9079422f)" style="fill: #0000ff"/>
    <path d="M 61.992377 226.173405 
L 60.078701 230.957596 
L 62.012933 231.071375 
L 57.461799 235.850065 
L 57.461799 229.250921 
L 58.940918 230.502483 
L 60.854594 225.718292 
L 61.992377 226.173405 
" clip-path="url(#p8c9079422f)" style="fill: #0000ff"/>
    <path d="M 62.024302 205.024972 
L 61.124929 209.521839 
L 63.047542 209.281512 
L 59.442643 214.809025 
L 58.241009 208.320206 
L 59.923296 209.281512 
L 60.822669 204.784646 
L 62.024302 205.024972 
" clip-path="url(#p8c9079422f)" style="fill: #0000ff"/>
    <path d="M 62.036201 183.863769 
L 62.036201 188.253549 
L 63.874346 187.640834 
L 61.423486 193.767985 
L 58.972625 187.640834 
L 60.810771 188.253549 
L 60.810771 183.863769 
L 62.036201 183.863769 
" clip-path="url(#p8c9079422f)" style="fill: #0000ff"/>
    <path d="M 62.024302 162.702566 
L 62.923676 167.199433 
L 64.605962 166.238127 
L 63.404329 172.726945 
L 59.79943 167.199433 
L 61.722043 167.43976 
L 60.822669 162.942893 
L 62.024302 162.702566 
" clip-path="url(#p8c9079422f)" style="fill: #0000ff"/>
    <path d="M 61.992377 141.554133 
L 63.906054 146.338324 
L 65.385172 145.086762 
L 65.385172 151.685906 
L 60.834039 146.907216 
L 62.76827 146.793437 
L 60.854594 142.009246 
L 61.992377 141.554133 
" clip-path="url(#p8c9079422f)" style="fill: #0000ff"/>
    <path d="M 61.948885 120.425411 
L 65.05426 125.601037 
L 66.315218 124.12992 
L 67.366015 130.644866 
L 62.112027 126.651835 
L 64.003463 126.231516 
L 60.898087 121.055889 
L 61.948885 120.425411 
" clip-path="url(#p8c9079422f)" style="fill: #0000ff"/>
    <path d="M 61.901936 99.31685 
L 66.380468 104.915015 
L 67.433058 103.288285 
L 69.346858 109.603826 
L 63.605457 106.350366 
L 65.423568 105.680535 
L 60.945036 100.08237 
L 61.901936 99.31685 
" clip-path="url(#p8c9079422f)" style="fill: #0000ff"/>
    <path d="M 61.856741 78.225316 
L 67.861662 84.230237 
L 68.728172 82.497217 
L 71.327702 88.562787 
L 65.262132 85.963257 
L 66.995152 85.096747 
L 60.990231 79.091826 
L 61.856741 78.225316 
" clip-path="url(#p8c9079422f)" style="fill: #0000ff"/>
    <path d="M 61.815736 57.14683 
L 69.464489 63.52079 
L 70.17054 61.716437 
L 73.308545 67.521747 
L 67.032535 65.482043 
L 68.679987 64.462192 
L 61.031235 58.088232 
L 61.815736 57.14683 
" clip-path="url(#p8c9079422f)" style="fill: #0000ff"/>
    <path d="M 61.779619 36.077904 
L 71.15824 42.77692 
L 71.728054 40.925026 
L 75.289388 46.480707 
L 68.878987 44.91372 
L 70.445974 43.774093 
L 61.067352 37.075078 
L 61.779619 36.077904 
" clip-path="url(#p8c9079422f)" style="fill: #0000ff"/>
    <path d="M 82.768517 331.683033 
L 73.690486 336.870479 
L 75.134447 338.162445 
L 68.598623 339.07442 
L 72.702513 333.906559 
L 73.082502 335.806508 
L 82.160534 330.619062 
L 82.768517 331.683033 
" clip-path="url(#p8c9079422f)" style="fill: #0000ff"/>
    <path d="M 82.804399 310.619817 
L 75.507627 315.484332 
L 77.037057 316.673888 
L 70.579466 318.03338 
L 74.318071 312.59541 
L 74.827881 314.464712 
L 82.124652 309.600198 
L 82.804399 310.619817 
" clip-path="url(#p8c9079422f)" style="fill: #0000ff"/>
    <path d="M 82.847286 289.547418 
L 77.24912 294.02595 
L 78.875851 295.07854 
L 72.56031 296.992341 
L 75.81377 291.250939 
L 76.4836 293.06905 
L 82.081765 288.590518 
L 82.847286 289.547418 
" clip-path="url(#p8c9079422f)" style="fill: #0000ff"/>
    <path d="M 82.89778 268.461183 
L 78.873703 272.485261 
L 80.606723 273.351771 
L 74.541153 275.951301 
L 77.140683 269.885731 
L 78.007193 271.618751 
L 82.03127 267.594673 
L 82.89778 268.461183 
" clip-path="url(#p8c9079422f)" style="fill: #0000ff"/>
    <path d="M 82.954698 247.354517 
L 80.320829 250.866342 
L 82.158975 251.479057 
L 76.521996 254.910261 
L 78.237598 248.538024 
L 79.340485 250.131084 
L 81.974353 246.619259 
L 82.954698 247.354517 
" clip-path="url(#p8c9079422f)" style="fill: #0000ff"/>
    <path d="M 83.012554 226.219863 
L 81.516999 229.210975 
L 83.4351 229.484989 
L 78.502839 233.869221 
L 79.050868 227.292873 
L 80.420941 228.662946 
L 81.916496 225.671834 
L 83.012554 226.219863 
" clip-path="url(#p8c9079422f)" style="fill: #0000ff"/>
    <path d="M 83.058946 205.053414 
L 82.41555 207.626998 
L 84.347418 207.478393 
L 80.483682 212.828182 
L 79.592051 206.289551 
L 81.226708 207.329788 
L 81.870105 204.756204 
L 83.058946 205.053414 
" clip-path="url(#p8c9079422f)" style="fill: #0000ff"/>
    <path d="M 83.077241 183.863769 
L 83.077241 186.272706 
L 84.915386 185.659991 
L 82.464525 191.787142 
L 80.013665 185.659991 
L 81.85181 186.272706 
L 81.85181 183.863769 
L 83.077241 183.863769 
" clip-path="url(#p8c9079422f)" style="fill: #0000ff"/>
    <path d="M 83.058946 162.674124 
L 83.702342 165.247709 
L 85.337 164.207472 
L 84.445369 170.746102 
L 80.581633 165.396314 
L 82.513501 165.544919 
L 81.870105 162.971335 
L 83.058946 162.674124 
" clip-path="url(#p8c9079422f)" style="fill: #0000ff"/>
    <path d="M 83.012554 141.507675 
L 84.50811 144.498787 
L 85.878183 143.128714 
L 86.426212 149.705063 
L 81.493951 145.32083 
L 83.412052 145.046816 
L 81.916496 142.055704 
L 83.012554 141.507675 
" clip-path="url(#p8c9079422f)" style="fill: #0000ff"/>
    <path d="M 82.954698 120.373021 
L 85.588566 123.884845 
L 86.691453 122.291786 
L 88.407055 128.664023 
L 82.770076 125.232818 
L 84.608222 124.620103 
L 81.974353 121.108279 
L 82.954698 120.373021 
" clip-path="url(#p8c9079422f)" style="fill: #0000ff"/>
    <path d="M 82.89778 99.266355 
L 86.921858 103.290433 
L 87.788368 101.557413 
L 90.387898 107.622983 
L 84.322328 105.023453 
L 86.055348 104.156943 
L 82.03127 100.132865 
L 82.89778 99.266355 
" clip-path="url(#p8c9079422f)" style="fill: #0000ff"/>
    <path d="M 82.847286 78.18012 
L 88.445451 82.658653 
L 89.115281 80.840542 
L 92.368741 86.581943 
L 86.0532 84.668143 
L 87.67993 83.615553 
L 82.081765 79.137021 
L 82.847286 78.18012 
" clip-path="url(#p8c9079422f)" style="fill: #0000ff"/>
    <path d="M 82.804399 57.107721 
L 90.10117 61.972235 
L 90.61098 60.102933 
L 94.349585 65.540904 
L 87.891994 64.181411 
L 89.421424 62.991855 
L 82.124652 58.127341 
L 82.804399 57.107721 
" clip-path="url(#p8c9079422f)" style="fill: #0000ff"/>
    <path d="M 82.768517 36.044505 
L 91.846549 41.231952 
L 92.226538 39.332003 
L 96.330428 44.499864 
L 89.794604 43.587888 
L 91.238565 42.295923 
L 82.160534 37.108477 
L 82.768517 36.044505 
" clip-path="url(#p8c9079422f)" style="fill: #0000ff"/>
    <path d="M 103.746925 331.714221 
L 94.949589 335.484508 
L 96.236844 336.93267 
L 89.639663 337.093577 
L 94.305962 332.427278 
L 94.466869 334.35816 
L 103.264205 330.587873 
L 103.746925 331.714221 
" clip-path="url(#p8c9079422f)" style="fill: #0000ff"/>
    <path d="M 103.77958 310.658037 
L 96.826782 314.134436 
L 98.196854 315.504508 
L 91.620506 316.052537 
L 96.004738 311.120276 
L 96.278753 313.038378 
L 103.231551 309.561979 
L 103.77958 310.658037 
" clip-path="url(#p8c9079422f)" style="fill: #0000ff"/>
    <path d="M 103.820804 289.594367 
L 98.645178 292.699743 
L 100.116295 293.9607 
L 93.601349 295.011497 
L 97.59438 289.757509 
L 98.0147 291.648945 
L 103.190326 288.543569 
L 103.820804 289.594367 
" clip-path="url(#p8c9079422f)" style="fill: #0000ff"/>
    <path d="M 103.873194 268.5181 
L 100.36137 271.151968 
L 101.954429 272.254855 
L 95.582192 273.970458 
L 99.013397 268.333479 
L 99.626112 270.171624 
L 103.137936 267.537756 
L 103.873194 268.5181 
" clip-path="url(#p8c9079422f)" style="fill: #0000ff"/>
    <path d="M 103.93882 247.420143 
L 101.895585 249.463378 
L 103.628605 250.329888 
L 97.563036 252.929418 
L 100.162566 246.863848 
L 101.029076 248.596868 
L 103.07231 246.553633 
L 103.93882 247.420143 
" clip-path="url(#p8c9079422f)" style="fill: #0000ff"/>
    <path d="M 104.015375 226.285722 
L 103.112547 227.639964 
L 104.98185 228.149773 
L 99.543879 231.888378 
L 100.903371 225.430788 
L 102.092928 226.960217 
L 102.995755 225.605976 
L 104.015375 226.285722 
" clip-path="url(#p8c9079422f)" style="fill: #0000ff"/>
    <path d="M 104.086838 205.098566 
L 103.849812 205.809643 
L 105.787387 205.809643 
L 101.524722 210.847339 
L 101.137207 204.259583 
L 102.687267 205.422128 
L 102.924293 204.711051 
L 104.086838 205.098566 
" clip-path="url(#p8c9079422f)" style="fill: #0000ff"/>
    <path d="M 104.099818 183.863769 
L 104.099818 184.458022 
L 105.882577 183.863769 
L 103.505565 189.806299 
L 101.128553 183.863769 
L 102.911312 184.458022 
L 102.911312 183.863769 
L 104.099818 183.863769 
" clip-path="url(#p8c9079422f)" style="fill: #0000ff"/>
    <path d="M 104.086838 162.628972 
L 104.323863 163.340048 
L 105.873923 162.177503 
L 105.486408 168.765259 
L 101.223743 163.727564 
L 103.161318 163.727564 
L 102.924293 163.016487 
L 104.086838 162.628972 
" clip-path="url(#p8c9079422f)" style="fill: #0000ff"/>
    <path d="M 104.015375 141.441817 
L 104.918203 142.796058 
L 106.107759 141.266629 
L 107.467252 147.724219 
L 102.029281 143.985614 
L 103.898583 143.475805 
L 102.995755 142.121563 
L 104.015375 141.441817 
" clip-path="url(#p8c9079422f)" style="fill: #0000ff"/>
    <path d="M 103.93882 120.307395 
L 105.982055 122.35063 
L 106.848565 120.61761 
L 109.448095 126.68318 
L 103.382525 124.08365 
L 105.115545 123.21714 
L 103.07231 121.173905 
L 103.93882 120.307395 
" clip-path="url(#p8c9079422f)" style="fill: #0000ff"/>
    <path d="M 103.873194 99.209438 
L 107.385018 101.843306 
L 107.997733 100.005161 
L 111.428938 105.64214 
L 105.056701 103.926538 
L 106.64976 102.823651 
L 103.137936 100.189782 
L 103.873194 99.209438 
" clip-path="url(#p8c9079422f)" style="fill: #0000ff"/>
    <path d="M 103.820804 78.133172 
L 108.996431 81.238548 
L 109.41675 79.347112 
L 113.409781 84.6011 
L 106.894835 83.550302 
L 108.365952 82.289345 
L 103.190326 79.183969 
L 103.820804 78.133172 
" clip-path="url(#p8c9079422f)" style="fill: #0000ff"/>
    <path d="M 103.77958 57.069502 
L 110.732378 60.545901 
L 111.006392 58.627799 
L 115.390624 63.56006 
L 108.814276 63.012031 
L 110.184349 61.641959 
L 103.231551 58.16556 
L 103.77958 57.069502 
" clip-path="url(#p8c9079422f)" style="fill: #0000ff"/>
    <path d="M 103.746925 36.013317 
L 112.544262 39.783604 
L 112.705168 37.852722 
L 117.371467 42.519021 
L 110.774286 42.358114 
L 112.061541 40.909952 
L 103.264205 37.139665 
L 103.746925 36.013317 
" clip-path="url(#p8c9079422f)" style="fill: #0000ff"/>
    <path d="M 124.714931 331.740188 
L 116.15129 334.186942 
L 117.245408 335.786037 
L 110.680703 335.112734 
L 115.898802 331.072915 
L 115.814639 333.008661 
L 124.378279 330.561907 
L 124.714931 331.740188 
" clip-path="url(#p8c9079422f)" style="fill: #0000ff"/>
    <path d="M 124.740362 310.69128 
L 118.086756 312.909149 
L 119.249301 314.459209 
L 112.661546 314.071694 
L 117.699241 309.809029 
L 117.699241 311.746604 
L 124.352847 309.528735 
L 124.740362 310.69128 
" clip-path="url(#p8c9079422f)" style="fill: #0000ff"/>
    <path d="M 124.774162 289.63786 
L 119.989971 291.551536 
L 121.241532 293.030654 
L 114.642389 293.030654 
L 119.421079 288.479521 
L 119.534857 290.413753 
L 124.319048 288.500076 
L 124.774162 289.63786 
" clip-path="url(#p8c9079422f)" style="fill: #0000ff"/>
    <path d="M 124.820619 268.575957 
L 121.829508 270.071513 
L 123.19958 271.441585 
L 116.623232 271.989615 
L 121.007464 267.057353 
L 121.281479 268.975455 
L 124.27259 267.479899 
L 124.820619 268.575957 
" clip-path="url(#p8c9079422f)" style="fill: #0000ff"/>
    <path d="M 124.886478 247.496698 
L 123.532236 248.399526 
L 125.061666 249.589082 
L 118.604075 250.948575 
L 122.34268 245.510604 
L 122.85249 247.379906 
L 124.206732 246.477079 
L 124.886478 247.496698 
" clip-path="url(#p8c9079422f)" style="fill: #0000ff"/>
    <path d="M 124.942774 226.342017 
L 124.546605 226.738186 
L 126.131279 227.530523 
L 120.584919 229.907535 
L 122.96193 224.361174 
L 123.754268 225.945849 
L 124.150436 225.54968 
L 124.942774 226.342017 
" clip-path="url(#p8c9079422f)" style="fill: #0000ff"/>
    <path d="M 124.942774 205.102893 
L 124.744689 205.499062 
L 126.131279 205.697146 
L 122.565762 208.866495 
L 122.96193 204.112472 
L 123.952352 205.102893 
L 124.150436 204.706725 
L 124.942774 205.102893 
" clip-path="url(#p8c9079422f)" style="fill: #0000ff"/>
    <path d="M 124.942774 183.863769 
L 124.942774 184.259938 
L 126.131279 183.863769 
L 124.546605 187.825456 
L 122.96193 183.863769 
L 124.150436 184.259938 
L 124.150436 183.863769 
L 124.942774 183.863769 
" clip-path="url(#p8c9079422f)" style="fill: #0000ff"/>
    <path d="M 124.942774 162.624645 
L 125.140858 163.020814 
L 126.131279 162.030392 
L 126.527448 166.784416 
L 122.96193 163.615067 
L 124.348521 163.416982 
L 124.150436 163.020814 
L 124.942774 162.624645 
" clip-path="url(#p8c9079422f)" style="fill: #0000ff"/>
    <path d="M 124.942774 141.385521 
L 125.338942 141.78169 
L 126.131279 140.197015 
L 128.508291 145.743376 
L 122.96193 143.366364 
L 124.546605 142.574027 
L 124.150436 142.177858 
L 124.942774 141.385521 
" clip-path="url(#p8c9079422f)" style="fill: #0000ff"/>
    <path d="M 124.886478 120.23084 
L 126.24072 121.133668 
L 126.75053 119.264366 
L 130.489134 124.702336 
L 124.031544 123.342844 
L 125.560973 122.153288 
L 124.206732 121.25046 
L 124.886478 120.23084 
" clip-path="url(#p8c9079422f)" style="fill: #0000ff"/>
    <path d="M 124.820619 99.151581 
L 127.811731 100.647137 
L 128.085745 98.729035 
L 132.469978 103.661297 
L 125.893629 103.113268 
L 127.263702 101.743195 
L 124.27259 100.247639 
L 124.820619 99.151581 
" clip-path="url(#p8c9079422f)" style="fill: #0000ff"/>
    <path d="M 124.774162 78.089679 
L 129.558352 80.003355 
L 129.672131 78.069124 
L 134.450821 82.620257 
L 127.851677 82.620257 
L 129.103239 81.141139 
L 124.319048 79.227462 
L 124.774162 78.089679 
" clip-path="url(#p8c9079422f)" style="fill: #0000ff"/>
    <path d="M 124.740362 57.036258 
L 131.393968 59.254127 
L 131.393968 57.316552 
L 136.431664 61.579217 
L 129.843908 61.966732 
L 131.006453 60.416672 
L 124.352847 58.198803 
L 124.740362 57.036258 
" clip-path="url(#p8c9079422f)" style="fill: #0000ff"/>
    <path d="M 124.714931 35.987351 
L 133.278571 38.434105 
L 133.194408 36.498359 
L 138.412507 40.538177 
L 131.847802 41.211481 
L 132.941919 39.612386 
L 124.378279 37.165631 
L 124.714931 35.987351 
" clip-path="url(#p8c9079422f)" style="fill: #0000ff"/>
    <path d="M 145.674296 331.757604 
L 137.267406 332.958589 
L 138.133916 334.691608 
L 131.721742 333.131891 
L 137.440708 329.839153 
L 137.094104 331.745475 
L 145.500994 330.54449 
L 145.674296 331.757604 
" clip-path="url(#p8c9079422f)" style="fill: #0000ff"/>
    <path d="M 145.688374 310.714386 
L 139.242721 311.788662 
L 140.149289 313.501067 
L 133.702586 312.090851 
L 139.343451 308.66604 
L 139.041262 310.579905 
L 145.486915 309.505629 
L 145.688374 310.714386 
" clip-path="url(#p8c9079422f)" style="fill: #0000ff"/>
    <path d="M 145.707808 289.669784 
L 141.210941 290.569158 
L 142.172248 292.251444 
L 135.683429 291.049811 
L 141.210941 287.444912 
L 140.970614 289.367525 
L 145.467481 288.468151 
L 145.707808 289.669784 
" clip-path="url(#p8c9079422f)" style="fill: #0000ff"/>
    <path d="M 145.73625 268.622349 
L 143.162666 269.265745 
L 144.202902 270.900403 
L 137.664272 270.008771 
L 143.01406 266.145035 
L 142.865455 268.076903 
L 145.439039 267.433507 
L 145.73625 268.622349 
" clip-path="url(#p8c9079422f)" style="fill: #0000ff"/>
    <path d="M 145.781402 247.568161 
L 145.070326 247.805186 
L 146.232871 249.355247 
L 139.645115 248.967732 
L 144.682811 244.705066 
L 144.682811 246.642641 
L 145.393887 246.405616 
L 145.781402 247.568161 
" clip-path="url(#p8c9079422f)" style="fill: #0000ff"/>
    <path d="M 145.785729 226.342017 
L 145.38956 226.540102 
L 146.379982 227.530523 
L 141.625958 227.926692 
L 144.795307 224.361174 
L 144.993392 225.747764 
L 145.38956 225.54968 
L 145.785729 226.342017 
" clip-path="url(#p8c9079422f)" style="fill: #0000ff"/>
    <path d="M 145.785729 205.102893 
L 145.587645 205.300978 
L 146.379982 205.697146 
L 143.606801 206.885652 
L 144.795307 204.112472 
L 145.191476 204.904809 
L 145.38956 204.706725 
L 145.785729 205.102893 
" clip-path="url(#p8c9079422f)" style="fill: #0000ff"/>
    <path d="M 145.785729 183.863769 
L 145.785729 184.061854 
L 146.379982 183.863769 
L 145.587645 185.844612 
L 144.795307 183.863769 
L 145.38956 184.061854 
L 145.38956 183.863769 
L 145.785729 183.863769 
" clip-path="url(#p8c9079422f)" style="fill: #0000ff"/>
    <path d="M 145.785729 162.624645 
L 145.983813 162.82273 
L 146.379982 162.030392 
L 147.568488 164.803573 
L 144.795307 163.615067 
L 145.587645 163.218898 
L 145.38956 163.020814 
L 145.785729 162.624645 
" clip-path="url(#p8c9079422f)" style="fill: #0000ff"/>
    <path d="M 145.785729 141.385521 
L 146.181898 141.583605 
L 146.379982 140.197015 
L 149.549331 143.762533 
L 144.795307 143.366364 
L 145.785729 142.375943 
L 145.38956 142.177858 
L 145.785729 141.385521 
" clip-path="url(#p8c9079422f)" style="fill: #0000ff"/>
    <path d="M 145.781402 120.159377 
L 146.492479 120.396403 
L 146.492479 118.458828 
L 151.530174 122.721493 
L 144.942418 123.109008 
L 146.104964 121.558948 
L 145.393887 121.321923 
L 145.781402 120.159377 
" clip-path="url(#p8c9079422f)" style="fill: #0000ff"/>
    <path d="M 145.73625 99.105189 
L 148.309834 99.748585 
L 148.161229 97.816717 
L 153.511017 101.680453 
L 146.972387 102.572085 
L 148.012624 100.937427 
L 145.439039 100.294031 
L 145.73625 99.105189 
" clip-path="url(#p8c9079422f)" style="fill: #0000ff"/>
    <path d="M 145.707808 78.057754 
L 150.204675 78.957127 
L 149.964348 77.034514 
L 155.491861 80.639414 
L 149.003042 81.841047 
L 149.964348 80.158761 
L 145.467481 79.259387 
L 145.707808 78.057754 
" clip-path="url(#p8c9079422f)" style="fill: #0000ff"/>
    <path d="M 145.688374 57.013152 
L 152.134028 58.087428 
L 151.831838 56.173563 
L 157.472704 59.598374 
L 151.026 61.00859 
L 151.932568 59.296185 
L 145.486915 58.221909 
L 145.688374 57.013152 
" clip-path="url(#p8c9079422f)" style="fill: #0000ff"/>
    <path d="M 145.674296 35.969934 
L 154.081185 37.170918 
L 153.734581 35.264596 
L 159.453547 38.557334 
L 153.041373 40.117052 
L 153.907883 38.384032 
L 145.500994 37.183048 
L 145.674296 35.969934 
" clip-path="url(#p8c9079422f)" style="fill: #0000ff"/>
    <path d="M 166.628684 331.763762 
L 158.277218 331.763762 
L 158.889933 333.601908 
L 152.762782 331.151047 
L 158.889933 328.700187 
L 158.277218 330.538332 
L 166.628684 330.538332 
L 166.628684 331.763762 
" clip-path="url(#p8c9079422f)" style="fill: #0000ff"/>
    <path d="M 166.628684 310.722723 
L 160.258061 310.722723 
L 160.870776 312.560868 
L 154.743625 310.110008 
L 160.870776 307.659147 
L 160.258061 309.497293 
L 166.628684 309.497293 
L 166.628684 310.722723 
" clip-path="url(#p8c9079422f)" style="fill: #0000ff"/>
    <path d="M 166.628684 289.681683 
L 162.238904 289.681683 
L 162.851619 291.519828 
L 156.724468 289.068968 
L 162.851619 286.618108 
L 162.238904 288.456253 
L 166.628684 288.456253 
L 166.628684 289.681683 
" clip-path="url(#p8c9079422f)" style="fill: #0000ff"/>
    <path d="M 166.628684 268.640643 
L 164.219747 268.640643 
L 164.832462 270.478788 
L 158.705312 268.027928 
L 164.832462 265.577068 
L 164.219747 267.415213 
L 166.628684 267.415213 
L 166.628684 268.640643 
" clip-path="url(#p8c9079422f)" style="fill: #0000ff"/>
    <path d="M 166.628684 247.581141 
L 166.034431 247.581141 
L 166.628684 249.3639 
L 160.686155 246.986888 
L 166.628684 244.609877 
L 166.034431 246.392635 
L 166.628684 246.392635 
L 166.628684 247.581141 
" clip-path="url(#p8c9079422f)" style="fill: #0000ff"/>
    <path d="M 166.628684 226.342017 
L 166.232516 226.342017 
L 166.628684 227.530523 
L 162.666998 225.945849 
L 166.628684 224.361174 
L 166.232516 225.54968 
L 166.628684 225.54968 
L 166.628684 226.342017 
" clip-path="url(#p8c9079422f)" style="fill: #0000ff"/>
    <path d="M 166.628684 205.102893 
L 166.4306 205.102893 
L 166.628684 205.697146 
L 164.647841 204.904809 
L 166.628684 204.112472 
L 166.4306 204.706725 
L 166.628684 204.706725 
L 166.628684 205.102893 
" clip-path="url(#p8c9079422f)" style="fill: #0000ff"/>
    <path d="M 167.241399 183.863769 
L 166.935042 183.333142 
L 166.322327 183.333142 
L 166.015969 183.863769 
L 166.322327 184.394396 
L 166.935042 184.394396 
L 167.241399 183.863769 
L 166.935042 183.333142 
" clip-path="url(#p8c9079422f)" style="fill: #0000ff"/>
    <path d="M 166.628684 162.624645 
L 166.826769 162.624645 
L 166.628684 162.030392 
L 168.609528 162.82273 
L 166.628684 163.615067 
L 166.826769 163.020814 
L 166.628684 163.020814 
L 166.628684 162.624645 
" clip-path="url(#p8c9079422f)" style="fill: #0000ff"/>
    <path d="M 166.628684 141.385521 
L 167.024853 141.385521 
L 166.628684 140.197015 
L 170.590371 141.78169 
L 166.628684 143.366364 
L 167.024853 142.177858 
L 166.628684 142.177858 
L 166.628684 141.385521 
" clip-path="url(#p8c9079422f)" style="fill: #0000ff"/>
    <path d="M 166.628684 120.146397 
L 167.222937 120.146397 
L 166.628684 118.363638 
L 172.571214 120.74065 
L 166.628684 123.117662 
L 167.222937 121.334903 
L 166.628684 121.334903 
L 166.628684 120.146397 
" clip-path="url(#p8c9079422f)" style="fill: #0000ff"/>
    <path d="M 166.628684 99.086895 
L 169.037621 99.086895 
L 168.424906 97.24875 
L 174.552057 99.69961 
L 168.424906 102.150471 
L 169.037621 100.312325 
L 166.628684 100.312325 
L 166.628684 99.086895 
" clip-path="url(#p8c9079422f)" style="fill: #0000ff"/>
    <path d="M 166.628684 78.045856 
L 171.018465 78.045856 
L 170.40575 76.20771 
L 176.5329 78.658571 
L 170.40575 81.109431 
L 171.018465 79.271286 
L 166.628684 79.271286 
L 166.628684 78.045856 
" clip-path="url(#p8c9079422f)" style="fill: #0000ff"/>
    <path d="M 166.628684 57.004816 
L 172.999308 57.004816 
L 172.386593 55.166671 
L 178.513743 57.617531 
L 172.386593 60.068391 
L 172.999308 58.230246 
L 166.628684 58.230246 
L 166.628684 57.004816 
" clip-path="url(#p8c9079422f)" style="fill: #0000ff"/>
    <path d="M 166.628684 35.963776 
L 174.980151 35.963776 
L 174.367436 34.125631 
L 180.494587 36.576491 
L 174.367436 39.027351 
L 174.980151 37.189206 
L 166.628684 37.189206 
L 166.628684 35.963776 
" clip-path="url(#p8c9079422f)" style="fill: #0000ff"/>
    <path d="M 187.583073 331.757604 
L 179.176184 330.55662 
L 179.522788 332.462942 
L 173.803822 329.170204 
L 180.215996 327.610486 
L 179.349486 329.343506 
L 187.756375 330.54449 
L 187.583073 331.757604 
" clip-path="url(#p8c9079422f)" style="fill: #0000ff"/>
    <path d="M 187.568994 310.714386 
L 181.123341 309.64011 
L 181.42553 311.553976 
L 175.784665 308.129164 
L 182.231368 306.718948 
L 181.324801 308.431354 
L 187.770454 309.505629 
L 187.568994 310.714386 
" clip-path="url(#p8c9079422f)" style="fill: #0000ff"/>
    <path d="M 187.549561 289.669784 
L 183.052694 288.770411 
L 183.293021 290.693024 
L 177.765508 287.088125 
L 184.254327 285.886492 
L 183.293021 287.568778 
L 187.789887 288.468151 
L 187.549561 289.669784 
" clip-path="url(#p8c9079422f)" style="fill: #0000ff"/>
    <path d="M 187.521119 268.622349 
L 184.947535 267.978953 
L 185.09614 269.910821 
L 179.746351 266.047085 
L 186.284982 265.155454 
L 185.244745 266.790111 
L 187.818329 267.433507 
L 187.521119 268.622349 
" clip-path="url(#p8c9079422f)" style="fill: #0000ff"/>
    <path d="M 187.475967 247.568161 
L 186.76489 247.331135 
L 186.76489 249.268711 
L 181.727195 245.006045 
L 188.31495 244.61853 
L 187.152405 246.16859 
L 187.863482 246.405616 
L 187.475967 247.568161 
" clip-path="url(#p8c9079422f)" style="fill: #0000ff"/>
    <path d="M 187.47164 226.342017 
L 187.075471 226.143933 
L 186.877387 227.530523 
L 183.708038 223.965006 
L 188.462061 224.361174 
L 187.47164 225.351596 
L 187.867808 225.54968 
L 187.47164 226.342017 
" clip-path="url(#p8c9079422f)" style="fill: #0000ff"/>
    <path d="M 187.47164 205.102893 
L 187.273555 204.904809 
L 186.877387 205.697146 
L 185.688881 202.923966 
L 188.462061 204.112472 
L 187.669724 204.50864 
L 187.867808 204.706725 
L 187.47164 205.102893 
" clip-path="url(#p8c9079422f)" style="fill: #0000ff"/>
    <path d="M 187.47164 183.863769 
L 187.47164 183.665685 
L 186.877387 183.863769 
L 187.669724 181.882926 
L 188.462061 183.863769 
L 187.867808 183.665685 
L 187.867808 183.863769 
L 187.47164 183.863769 
" clip-path="url(#p8c9079422f)" style="fill: #0000ff"/>
    <path d="M 187.47164 162.624645 
L 187.669724 162.426561 
L 186.877387 162.030392 
L 189.650567 160.841886 
L 188.462061 163.615067 
L 188.065893 162.82273 
L 187.867808 163.020814 
L 187.47164 162.624645 
" clip-path="url(#p8c9079422f)" style="fill: #0000ff"/>
    <path d="M 187.47164 141.385521 
L 187.867808 141.187437 
L 186.877387 140.197015 
L 191.63141 139.800847 
L 188.462061 143.366364 
L 188.263977 141.979774 
L 187.867808 142.177858 
L 187.47164 141.385521 
" clip-path="url(#p8c9079422f)" style="fill: #0000ff"/>
    <path d="M 187.475967 120.159377 
L 188.187043 119.922352 
L 187.024498 118.372292 
L 193.612254 118.759807 
L 188.574558 123.022472 
L 188.574558 121.084897 
L 187.863482 121.321923 
L 187.475967 120.159377 
" clip-path="url(#p8c9079422f)" style="fill: #0000ff"/>
    <path d="M 187.521119 99.105189 
L 190.094703 98.461793 
L 189.054467 96.827136 
L 195.593097 97.718767 
L 190.243308 101.582503 
L 190.391914 99.650635 
L 187.818329 100.294031 
L 187.521119 99.105189 
" clip-path="url(#p8c9079422f)" style="fill: #0000ff"/>
    <path d="M 187.549561 78.057754 
L 192.046428 77.158381 
L 191.085121 75.476094 
L 197.57394 76.677727 
L 192.046428 80.282627 
L 192.286754 78.360014 
L 187.789887 79.259387 
L 187.549561 78.057754 
" clip-path="url(#p8c9079422f)" style="fill: #0000ff"/>
    <path d="M 187.568994 57.013152 
L 194.014648 55.938877 
L 193.10808 54.226471 
L 199.554783 55.636688 
L 193.913918 59.061499 
L 194.216107 57.147634 
L 187.770454 58.221909 
L 187.568994 57.013152 
" clip-path="url(#p8c9079422f)" style="fill: #0000ff"/>
    <path d="M 187.583073 35.969934 
L 195.989963 34.76895 
L 195.123453 33.03593 
L 201.535626 34.595648 
L 195.816661 37.888386 
L 196.163265 35.982064 
L 187.756375 37.183048 
L 187.583073 35.969934 
" clip-path="url(#p8c9079422f)" style="fill: #0000ff"/>
    <path d="M 208.542438 331.740188 
L 199.978798 329.293433 
L 200.062961 331.22918 
L 194.844862 327.189361 
L 201.409567 326.516058 
L 200.315449 328.115153 
L 208.87909 330.561907 
L 208.542438 331.740188 
" clip-path="url(#p8c9079422f)" style="fill: #0000ff"/>
    <path d="M 208.517006 310.69128 
L 201.8634 308.473411 
L 201.8634 310.410987 
L 196.825705 306.148321 
L 203.41346 305.760806 
L 202.250915 307.310866 
L 208.904521 309.528735 
L 208.517006 310.69128 
" clip-path="url(#p8c9079422f)" style="fill: #0000ff"/>
    <path d="M 208.483207 289.63786 
L 203.699016 287.724183 
L 203.585238 289.658415 
L 198.806548 285.107282 
L 205.405691 285.107282 
L 204.15413 286.5864 
L 208.93832 288.500076 
L 208.483207 289.63786 
" clip-path="url(#p8c9079422f)" style="fill: #0000ff"/>
    <path d="M 208.436749 268.575957 
L 205.445638 267.080401 
L 205.171623 268.998503 
L 200.787391 264.066242 
L 207.363739 264.614271 
L 205.993667 265.984343 
L 208.984778 267.479899 
L 208.436749 268.575957 
" clip-path="url(#p8c9079422f)" style="fill: #0000ff"/>
    <path d="M 208.370891 247.496698 
L 207.016649 246.59387 
L 206.506839 248.463173 
L 202.768234 243.025202 
L 209.225825 244.384695 
L 207.696395 245.574251 
L 209.050637 246.477079 
L 208.370891 247.496698 
" clip-path="url(#p8c9079422f)" style="fill: #0000ff"/>
    <path d="M 208.314595 226.342017 
L 207.918427 225.945849 
L 207.126089 227.530523 
L 204.749077 221.984162 
L 210.295438 224.361174 
L 208.710764 225.153511 
L 209.106932 225.54968 
L 208.314595 226.342017 
" clip-path="url(#p8c9079422f)" style="fill: #0000ff"/>
    <path d="M 208.314595 205.102893 
L 208.116511 204.706725 
L 207.126089 205.697146 
L 206.729921 200.943123 
L 210.295438 204.112472 
L 208.908848 204.310556 
L 209.106932 204.706725 
L 208.314595 205.102893 
" clip-path="url(#p8c9079422f)" style="fill: #0000ff"/>
    <path d="M 208.314595 183.863769 
L 208.314595 183.467601 
L 207.126089 183.863769 
L 208.710764 179.902083 
L 210.295438 183.863769 
L 209.106932 183.467601 
L 209.106932 183.863769 
L 208.314595 183.863769 
" clip-path="url(#p8c9079422f)" style="fill: #0000ff"/>
    <path d="M 208.314595 162.624645 
L 208.512679 162.228477 
L 207.126089 162.030392 
L 210.691607 158.861043 
L 210.295438 163.615067 
L 209.305017 162.624645 
L 209.106932 163.020814 
L 208.314595 162.624645 
" clip-path="url(#p8c9079422f)" style="fill: #0000ff"/>
    <path d="M 208.314595 141.385521 
L 208.710764 140.989352 
L 207.126089 140.197015 
L 212.67245 137.820003 
L 210.295438 143.366364 
L 209.503101 141.78169 
L 209.106932 142.177858 
L 208.314595 141.385521 
" clip-path="url(#p8c9079422f)" style="fill: #0000ff"/>
    <path d="M 208.370891 120.23084 
L 209.725132 119.328012 
L 208.195703 118.138456 
L 214.653293 116.778964 
L 210.914688 122.216934 
L 210.404879 120.347632 
L 209.050637 121.25046 
L 208.370891 120.23084 
" clip-path="url(#p8c9079422f)" style="fill: #0000ff"/>
    <path d="M 208.436749 99.151581 
L 211.427861 97.656026 
L 210.057788 96.285953 
L 216.634137 95.737924 
L 212.249904 100.670185 
L 211.97589 98.752084 
L 208.984778 100.247639 
L 208.436749 99.151581 
" clip-path="url(#p8c9079422f)" style="fill: #0000ff"/>
    <path d="M 208.483207 78.089679 
L 213.267398 76.176003 
L 212.015836 74.696884 
L 218.61498 74.696884 
L 213.83629 79.248018 
L 213.722511 77.313786 
L 208.93832 79.227462 
L 208.483207 78.089679 
" clip-path="url(#p8c9079422f)" style="fill: #0000ff"/>
    <path d="M 208.517006 57.036258 
L 215.170612 54.81839 
L 214.008067 53.268329 
L 220.595823 53.655844 
L 215.558127 57.91851 
L 215.558127 55.980935 
L 208.904521 58.198803 
L 208.517006 57.036258 
" clip-path="url(#p8c9079422f)" style="fill: #0000ff"/>
    <path d="M 208.542438 35.987351 
L 217.106078 33.540597 
L 216.011961 31.941502 
L 222.576666 32.614805 
L 217.358567 36.654623 
L 217.44273 34.718877 
L 208.87909 37.165631 
L 208.542438 35.987351 
" clip-path="url(#p8c9079422f)" style="fill: #0000ff"/>
    <path d="M 229.510443 331.714221 
L 220.713107 327.943934 
L 220.5522 329.874817 
L 215.885901 325.208518 
L 222.483083 325.369425 
L 221.195828 326.817586 
L 229.993164 330.587873 
L 229.510443 331.714221 
" clip-path="url(#p8c9079422f)" style="fill: #0000ff"/>
    <path d="M 229.477789 310.658037 
L 222.524991 307.181638 
L 222.250977 309.099739 
L 217.866744 304.167478 
L 224.443093 304.715507 
L 223.07302 306.08558 
L 230.025818 309.561979 
L 229.477789 310.658037 
" clip-path="url(#p8c9079422f)" style="fill: #0000ff"/>
    <path d="M 229.436564 289.594367 
L 224.260938 286.488991 
L 223.840619 288.380427 
L 219.847588 283.126438 
L 226.362533 284.177236 
L 224.891417 285.438193 
L 230.067043 288.543569 
L 229.436564 289.594367 
" clip-path="url(#p8c9079422f)" style="fill: #0000ff"/>
    <path d="M 229.384174 268.5181 
L 225.87235 265.884232 
L 225.259635 267.722377 
L 221.828431 262.085399 
L 228.200668 263.801001 
L 226.607608 264.903888 
L 230.119433 267.537756 
L 229.384174 268.5181 
" clip-path="url(#p8c9079422f)" style="fill: #0000ff"/>
    <path d="M 229.318549 247.420143 
L 227.275314 245.376909 
L 226.408804 247.109929 
L 223.809274 241.044359 
L 229.874844 243.643889 
L 228.141824 244.510399 
L 230.185059 246.553633 
L 229.318549 247.420143 
" clip-path="url(#p8c9079422f)" style="fill: #0000ff"/>
    <path d="M 229.241994 226.285722 
L 228.339166 224.93148 
L 227.14961 226.460909 
L 225.790117 220.003319 
L 231.228088 223.741924 
L 229.358785 224.251734 
L 230.261613 225.605976 
L 229.241994 226.285722 
" clip-path="url(#p8c9079422f)" style="fill: #0000ff"/>
    <path d="M 229.170531 205.098566 
L 228.933505 204.38749 
L 227.383445 205.550035 
L 227.77096 198.962279 
L 232.033626 203.999975 
L 230.096051 203.999975 
L 230.333076 204.711051 
L 229.170531 205.098566 
" clip-path="url(#p8c9079422f)" style="fill: #0000ff"/>
    <path d="M 229.157551 183.863769 
L 229.157551 183.269516 
L 227.374792 183.863769 
L 229.751804 177.92124 
L 232.128815 183.863769 
L 230.346057 183.269516 
L 230.346057 183.863769 
L 229.157551 183.863769 
" clip-path="url(#p8c9079422f)" style="fill: #0000ff"/>
    <path d="M 229.170531 162.628972 
L 229.407556 161.917895 
L 227.469981 161.917895 
L 231.732647 156.8802 
L 232.120162 163.467956 
L 230.570102 162.305411 
L 230.333076 163.016487 
L 229.170531 162.628972 
" clip-path="url(#p8c9079422f)" style="fill: #0000ff"/>
    <path d="M 229.241994 141.441817 
L 230.144822 140.087575 
L 228.275519 139.577765 
L 233.71349 135.83916 
L 232.353997 142.296751 
L 231.164441 140.767321 
L 230.261613 142.121563 
L 229.241994 141.441817 
" clip-path="url(#p8c9079422f)" style="fill: #0000ff"/>
    <path d="M 229.318549 120.307395 
L 231.361783 118.26416 
L 229.628763 117.39765 
L 235.694333 114.79812 
L 233.094803 120.86369 
L 232.228293 119.13067 
L 230.185059 121.173905 
L 229.318549 120.307395 
" clip-path="url(#p8c9079422f)" style="fill: #0000ff"/>
    <path d="M 229.384174 99.209438 
L 232.895999 96.57557 
L 231.302939 95.472683 
L 237.675176 93.757081 
L 234.243972 99.394059 
L 233.631257 97.555914 
L 230.119433 100.189782 
L 229.384174 99.209438 
" clip-path="url(#p8c9079422f)" style="fill: #0000ff"/>
    <path d="M 229.436564 78.133172 
L 234.612191 75.027796 
L 233.141074 73.766839 
L 239.656019 72.716041 
L 235.662988 77.970029 
L 235.242669 76.078594 
L 230.067043 79.183969 
L 229.436564 78.133172 
" clip-path="url(#p8c9079422f)" style="fill: #0000ff"/>
    <path d="M 229.477789 57.069502 
L 236.430587 53.593103 
L 235.060514 52.22303 
L 241.636863 51.675001 
L 237.25263 56.607263 
L 236.978616 54.689161 
L 230.025818 58.16556 
L 229.477789 57.069502 
" clip-path="url(#p8c9079422f)" style="fill: #0000ff"/>
    <path d="M 229.510443 36.013317 
L 238.307779 32.24303 
L 237.020524 30.794868 
L 243.617706 30.633962 
L 238.951407 35.300261 
L 238.7905 33.369378 
L 229.993164 37.139665 
L 229.510443 36.013317 
" clip-path="url(#p8c9079422f)" style="fill: #0000ff"/>
    <path d="M 250.488851 331.683033 
L 241.41082 326.495587 
L 241.03083 328.395535 
L 236.926941 323.227675 
L 243.462765 324.13965 
L 242.018804 325.431615 
L 251.096835 330.619062 
L 250.488851 331.683033 
" clip-path="url(#p8c9079422f)" style="fill: #0000ff"/>
    <path d="M 250.45297 310.619817 
L 243.156199 305.755303 
L 242.646389 307.624606 
L 238.907784 302.186635 
L 245.365374 303.546128 
L 243.835945 304.735684 
L 251.132716 309.600198 
L 250.45297 310.619817 
" clip-path="url(#p8c9079422f)" style="fill: #0000ff"/>
    <path d="M 250.410083 289.547418 
L 244.811918 285.068886 
L 244.142088 286.886996 
L 240.888627 281.145595 
L 247.204169 283.059396 
L 245.577438 284.111986 
L 251.175603 288.590518 
L 250.410083 289.547418 
" clip-path="url(#p8c9079422f)" style="fill: #0000ff"/>
    <path d="M 250.359588 268.461183 
L 246.33551 264.437105 
L 245.469 266.170125 
L 242.869471 260.104555 
L 248.93504 262.704085 
L 247.20202 263.570595 
L 251.226098 267.594673 
L 250.359588 268.461183 
" clip-path="url(#p8c9079422f)" style="fill: #0000ff"/>
    <path d="M 250.302671 247.354517 
L 247.668803 243.842693 
L 246.565916 245.435752 
L 244.850314 239.063516 
L 250.487292 242.49472 
L 248.649147 243.107435 
L 251.283015 246.619259 
L 250.302671 247.354517 
" clip-path="url(#p8c9079422f)" style="fill: #0000ff"/>
    <path d="M 250.244814 226.219863 
L 248.749258 223.228752 
L 247.379186 224.598824 
L 246.831157 218.022476 
L 251.763418 222.406708 
L 249.845317 222.680723 
L 251.340872 225.671834 
L 250.244814 226.219863 
" clip-path="url(#p8c9079422f)" style="fill: #0000ff"/>
    <path d="M 250.198422 205.053414 
L 249.555026 202.47983 
L 247.920369 203.520067 
L 248.812 196.981436 
L 252.675736 202.331225 
L 250.743868 202.182619 
L 251.387264 204.756204 
L 250.198422 205.053414 
" clip-path="url(#p8c9079422f)" style="fill: #0000ff"/>
    <path d="M 250.180128 183.863769 
L 250.180128 181.454832 
L 248.341983 182.067547 
L 250.792843 175.940396 
L 253.243704 182.067547 
L 251.405558 181.454832 
L 251.405558 183.863769 
L 250.180128 183.863769 
" clip-path="url(#p8c9079422f)" style="fill: #0000ff"/>
    <path d="M 250.198422 162.674124 
L 250.841818 160.10054 
L 248.90995 160.249145 
L 252.773686 154.899357 
L 253.665318 161.437987 
L 252.03066 160.39775 
L 251.387264 162.971335 
L 250.198422 162.674124 
" clip-path="url(#p8c9079422f)" style="fill: #0000ff"/>
    <path d="M 250.244814 141.507675 
L 251.74037 138.516564 
L 249.822268 138.242549 
L 254.75453 133.858317 
L 254.206501 140.434665 
L 252.836428 139.064593 
L 251.340872 142.055704 
L 250.244814 141.507675 
" clip-path="url(#p8c9079422f)" style="fill: #0000ff"/>
    <path d="M 250.302671 120.373021 
L 252.936539 116.861197 
L 251.098394 116.248482 
L 256.735373 112.817277 
L 255.019771 119.189514 
L 253.916883 117.596455 
L 251.283015 121.108279 
L 250.302671 120.373021 
" clip-path="url(#p8c9079422f)" style="fill: #0000ff"/>
    <path d="M 250.359588 99.266355 
L 254.383666 95.242277 
L 252.650646 94.375767 
L 258.716216 91.776238 
L 256.116686 97.841807 
L 255.250176 96.108787 
L 251.226098 100.132865 
L 250.359588 99.266355 
" clip-path="url(#p8c9079422f)" style="fill: #0000ff"/>
    <path d="M 250.410083 78.18012 
L 256.008248 73.701588 
L 254.381518 72.648998 
L 260.697059 70.735198 
L 257.443599 76.476599 
L 256.773768 74.658489 
L 251.175603 79.137021 
L 250.410083 78.18012 
" clip-path="url(#p8c9079422f)" style="fill: #0000ff"/>
    <path d="M 250.45297 57.107721 
L 257.749741 52.243207 
L 256.220312 51.053651 
L 262.677902 49.694158 
L 258.939297 55.132129 
L 258.429488 53.262826 
L 251.132716 58.127341 
L 250.45297 57.107721 
" clip-path="url(#p8c9079422f)" style="fill: #0000ff"/>
    <path d="M 250.488851 36.044505 
L 259.566883 30.857059 
L 258.122922 29.565094 
L 264.658746 28.653118 
L 260.554856 33.820979 
L 260.174866 31.92103 
L 251.096835 37.108477 
L 250.488851 36.044505 
" clip-path="url(#p8c9079422f)" style="fill: #0000ff"/>
    <path d="M 271.47775 331.649634 
L 262.099128 324.950619 
L 261.529315 326.802513 
L 257.967981 321.246831 
L 264.378382 322.813818 
L 262.811395 323.953445 
L 272.190016 330.652461 
L 271.47775 331.649634 
" clip-path="url(#p8c9079422f)" style="fill: #0000ff"/>
    <path d="M 271.441632 310.580708 
L 263.79288 304.206748 
L 263.086829 306.011101 
L 259.948824 300.205792 
L 266.224834 302.245495 
L 264.577381 303.265347 
L 272.226134 309.639307 
L 271.441632 310.580708 
" clip-path="url(#p8c9079422f)" style="fill: #0000ff"/>
    <path d="M 271.400628 289.502223 
L 265.395707 283.497302 
L 264.529197 285.230322 
L 261.929667 279.164752 
L 267.995237 281.764282 
L 266.262217 282.630792 
L 272.267138 288.635713 
L 271.400628 289.502223 
" clip-path="url(#p8c9079422f)" style="fill: #0000ff"/>
    <path d="M 271.355433 268.410688 
L 266.876901 262.812523 
L 265.824311 264.439253 
L 263.91051 258.123712 
L 269.651911 261.377173 
L 267.833801 262.047003 
L 272.312333 267.645168 
L 271.355433 268.410688 
" clip-path="url(#p8c9079422f)" style="fill: #0000ff"/>
    <path d="M 271.308484 247.302128 
L 268.203108 242.126501 
L 266.942151 243.597618 
L 265.891353 237.082673 
L 271.145342 241.075704 
L 269.253906 241.496023 
L 272.359282 246.671649 
L 271.308484 247.302128 
" clip-path="url(#p8c9079422f)" style="fill: #0000ff"/>
    <path d="M 271.264991 226.173405 
L 269.351315 221.389214 
L 267.872197 222.640776 
L 267.872197 216.041633 
L 272.42333 220.820323 
L 270.489098 220.934101 
L 272.402775 225.718292 
L 271.264991 226.173405 
" clip-path="url(#p8c9079422f)" style="fill: #0000ff"/>
    <path d="M 271.233066 205.024972 
L 270.333693 200.528105 
L 268.651407 201.489412 
L 269.85304 195.000593 
L 273.457939 200.528105 
L 271.535326 200.287779 
L 272.4347 204.784646 
L 271.233066 205.024972 
" clip-path="url(#p8c9079422f)" style="fill: #0000ff"/>
    <path d="M 271.221168 183.863769 
L 271.221168 179.473989 
L 269.383023 180.086704 
L 271.833883 173.959553 
L 274.284743 180.086704 
L 272.446598 179.473989 
L 272.446598 183.863769 
L 271.221168 183.863769 
" clip-path="url(#p8c9079422f)" style="fill: #0000ff"/>
    <path d="M 271.233066 162.702566 
L 272.13244 158.205699 
L 270.209827 158.446026 
L 273.814726 152.918514 
L 275.016359 159.407332 
L 273.334073 158.446026 
L 272.4347 162.942893 
L 271.233066 162.702566 
" clip-path="url(#p8c9079422f)" style="fill: #0000ff"/>
    <path d="M 271.264991 141.554133 
L 273.178668 136.769942 
L 271.244436 136.656164 
L 275.795569 131.877474 
L 275.795569 138.476617 
L 274.316451 137.225056 
L 272.402775 142.009246 
L 271.264991 141.554133 
" clip-path="url(#p8c9079422f)" style="fill: #0000ff"/>
    <path d="M 271.308484 120.425411 
L 274.41386 115.249784 
L 272.522424 114.829465 
L 277.776413 110.836434 
L 276.725615 117.35138 
L 275.464658 115.880263 
L 272.359282 121.055889 
L 271.308484 120.425411 
" clip-path="url(#p8c9079422f)" style="fill: #0000ff"/>
    <path d="M 271.355433 99.31685 
L 275.833965 93.718685 
L 274.015855 93.048855 
L 279.757256 89.795394 
L 277.843455 96.110936 
L 276.790865 94.484205 
L 272.312333 100.08237 
L 271.355433 99.31685 
" clip-path="url(#p8c9079422f)" style="fill: #0000ff"/>
    <path d="M 271.400628 78.225316 
L 277.405549 72.220395 
L 275.672529 71.353885 
L 281.738099 68.754355 
L 279.138569 74.819924 
L 278.272059 73.086905 
L 272.267138 79.091826 
L 271.400628 78.225316 
" clip-path="url(#p8c9079422f)" style="fill: #0000ff"/>
    <path d="M 271.441632 57.14683 
L 279.090385 50.77287 
L 277.442932 49.753018 
L 283.718942 47.713315 
L 280.580937 53.518624 
L 279.874886 51.714271 
L 272.226134 58.088232 
L 271.441632 57.14683 
" clip-path="url(#p8c9079422f)" style="fill: #0000ff"/>
    <path d="M 271.47775 36.077904 
L 280.856371 29.378889 
L 279.289384 28.239262 
L 285.699785 26.672275 
L 282.138451 32.227956 
L 281.568638 30.376063 
L 272.190016 37.075078 
L 271.47775 36.077904 
" clip-path="url(#p8c9079422f)" style="fill: #0000ff"/>
    <path d="M 292.476173 331.616255 
L 282.797142 323.319943 
L 282.066101 325.114317 
L 279.00902 319.265988 
L 285.256099 321.392653 
L 283.594642 322.389527 
L 293.273672 330.685839 
L 292.476173 331.616255 
" clip-path="url(#p8c9079422f)" style="fill: #0000ff"/>
    <path d="M 292.441668 310.543263 
L 284.455904 302.557498 
L 283.589394 304.290518 
L 280.989864 298.224949 
L 287.055433 300.824478 
L 285.322413 301.690988 
L 293.308178 309.676753 
L 292.441668 310.543263 
" clip-path="url(#p8c9079422f)" style="fill: #0000ff"/>
    <path d="M 292.404222 289.461219 
L 286.030262 281.812466 
L 285.01041 283.459919 
L 282.970707 277.183909 
L 288.776016 280.321914 
L 286.971663 281.027965 
L 293.345623 288.676717 
L 292.404222 289.461219 
" clip-path="url(#p8c9079422f)" style="fill: #0000ff"/>
    <path d="M 292.365113 268.367801 
L 287.500599 261.07103 
L 286.311043 262.600459 
L 284.95155 256.142869 
L 290.389521 259.881474 
L 288.520218 260.391284 
L 293.384732 267.688055 
L 292.365113 268.367801 
" clip-path="url(#p8c9079422f)" style="fill: #0000ff"/>
    <path d="M 292.326894 247.260903 
L 288.850495 240.308105 
L 287.480422 241.678178 
L 286.932393 235.101829 
L 291.864654 239.486062 
L 289.946553 239.760076 
L 293.422952 246.712874 
L 292.326894 247.260903 
" clip-path="url(#p8c9079422f)" style="fill: #0000ff"/>
    <path d="M 292.29365 226.139606 
L 290.075781 219.486 
L 288.525721 220.648545 
L 288.913236 214.06079 
L 293.175902 219.098485 
L 291.238327 219.098485 
L 293.456195 225.752091 
L 292.29365 226.139606 
" clip-path="url(#p8c9079422f)" style="fill: #0000ff"/>
    <path d="M 292.270544 205.005539 
L 291.196269 198.559885 
L 289.483863 199.466453 
L 290.89408 193.01975 
L 294.318891 198.660615 
L 292.405026 198.358426 
L 293.479301 204.804079 
L 292.270544 205.005539 
" clip-path="url(#p8c9079422f)" style="fill: #0000ff"/>
    <path d="M 292.262208 183.863769 
L 292.262208 177.493146 
L 290.424062 178.105861 
L 292.874923 171.97871 
L 295.325783 178.105861 
L 293.487638 177.493146 
L 293.487638 183.863769 
L 292.262208 183.863769 
" clip-path="url(#p8c9079422f)" style="fill: #0000ff"/>
    <path d="M 292.270544 162.722 
L 293.34482 156.276347 
L 291.430955 156.578536 
L 294.855766 150.93767 
L 296.265982 157.384374 
L 294.553577 156.477806 
L 293.479301 162.923459 
L 292.270544 162.722 
" clip-path="url(#p8c9079422f)" style="fill: #0000ff"/>
    <path d="M 292.29365 141.587932 
L 294.511519 134.934326 
L 292.573944 134.934326 
L 296.836609 129.896631 
L 297.224124 136.484386 
L 295.674064 135.321841 
L 293.456195 141.975447 
L 292.29365 141.587932 
" clip-path="url(#p8c9079422f)" style="fill: #0000ff"/>
    <path d="M 292.326894 120.466636 
L 295.803293 113.513838 
L 293.885191 113.239823 
L 298.817452 108.855591 
L 298.269423 115.431939 
L 296.899351 114.061867 
L 293.422952 121.014665 
L 292.326894 120.466636 
" clip-path="url(#p8c9079422f)" style="fill: #0000ff"/>
    <path d="M 292.365113 99.359737 
L 297.229627 92.062966 
L 295.360325 91.553156 
L 300.798295 87.814551 
L 299.438803 94.272142 
L 298.249247 92.742712 
L 293.384732 100.039483 
L 292.365113 99.359737 
" clip-path="url(#p8c9079422f)" style="fill: #0000ff"/>
    <path d="M 292.404222 78.26632 
L 298.778182 70.617568 
L 296.973829 69.911517 
L 302.779139 66.773511 
L 300.739435 73.049522 
L 299.719584 71.402069 
L 293.345623 79.050821 
L 292.404222 78.26632 
" clip-path="url(#p8c9079422f)" style="fill: #0000ff"/>
    <path d="M 292.441668 57.184276 
L 300.427432 49.198512 
L 298.694412 48.332002 
L 304.759982 45.732472 
L 302.160452 51.798042 
L 301.293942 50.065022 
L 293.308178 58.050786 
L 292.441668 57.184276 
" clip-path="url(#p8c9079422f)" style="fill: #0000ff"/>
    <path d="M 292.476173 36.111283 
L 302.155204 27.814971 
L 300.493747 26.818097 
L 306.740825 24.691432 
L 303.683744 30.539761 
L 302.952703 28.745387 
L 293.273672 37.041699 
L 292.476173 36.111283 
" clip-path="url(#p8c9079422f)" style="fill: #0000ff"/>
    <path d="M 313.482707 331.584302 
L 303.5161 321.617695 
L 302.64959 323.350715 
L 300.05006 317.285145 
L 306.11563 319.884675 
L 304.38261 320.751185 
L 314.349217 330.717792 
L 313.482707 331.584302 
" clip-path="url(#p8c9079422f)" style="fill: #0000ff"/>
    <path d="M 313.450754 310.508757 
L 305.154443 300.829727 
L 304.157568 302.491184 
L 302.030903 296.244105 
L 307.879232 299.301186 
L 306.084859 300.032227 
L 314.38117 309.711258 
L 313.450754 310.508757 
" clip-path="url(#p8c9079422f)" style="fill: #0000ff"/>
    <path d="M 313.417376 289.425101 
L 306.71836 280.04648 
L 305.578734 281.613467 
L 304.011747 275.203066 
L 309.567428 278.7644 
L 307.715534 279.334213 
L 314.414549 288.712834 
L 313.417376 289.425101 
" clip-path="url(#p8c9079422f)" style="fill: #0000ff"/>
    <path d="M 313.383977 268.33192 
L 308.19653 259.253889 
L 306.904565 260.69785 
L 305.99259 254.162026 
L 311.16045 258.265915 
L 309.260502 258.645905 
L 314.447948 267.723936 
L 313.383977 268.33192 
" clip-path="url(#p8c9079422f)" style="fill: #0000ff"/>
    <path d="M 313.352788 247.228249 
L 309.582502 238.430913 
L 308.13434 239.718167 
L 307.973433 233.120986 
L 312.639732 237.787285 
L 310.70885 237.948192 
L 314.479136 246.745528 
L 313.352788 247.228249 
" clip-path="url(#p8c9079422f)" style="fill: #0000ff"/>
    <path d="M 313.326822 226.114174 
L 310.880068 217.550534 
L 309.280973 218.644652 
L 309.954276 212.079946 
L 313.994095 217.298045 
L 312.058348 217.213883 
L 314.505103 225.777523 
L 313.326822 226.114174 
" clip-path="url(#p8c9079422f)" style="fill: #0000ff"/>
    <path d="M 313.309405 204.99146 
L 312.108421 196.58457 
L 310.375401 197.45108 
L 311.935119 191.038907 
L 315.227857 196.757872 
L 313.321535 196.411269 
L 314.522519 204.818158 
L 313.309405 204.99146 
" clip-path="url(#p8c9079422f)" style="fill: #0000ff"/>
    <path d="M 313.303247 183.863769 
L 313.303247 175.512303 
L 311.465102 176.125018 
L 313.915962 169.997867 
L 316.366823 176.125018 
L 314.528678 175.512303 
L 314.528678 183.863769 
L 313.303247 183.863769 
" clip-path="url(#p8c9079422f)" style="fill: #0000ff"/>
    <path d="M 313.309405 162.736079 
L 314.51039 154.329189 
L 312.604068 154.675793 
L 315.896806 148.956827 
L 317.456524 155.369001 
L 315.723504 154.502491 
L 314.522519 162.90938 
L 313.309405 162.736079 
" clip-path="url(#p8c9079422f)" style="fill: #0000ff"/>
    <path d="M 313.326822 141.613364 
L 315.773577 133.049724 
L 313.83783 133.133887 
L 317.877649 127.915787 
L 318.550952 134.480493 
L 316.951857 133.386375 
L 314.505103 141.950016 
L 313.326822 141.613364 
" clip-path="url(#p8c9079422f)" style="fill: #0000ff"/>
    <path d="M 313.352788 120.49929 
L 317.123075 111.701954 
L 315.192193 111.541047 
L 319.858492 106.874748 
L 319.697585 113.471929 
L 318.249423 112.184674 
L 314.479136 120.98201 
L 313.352788 120.49929 
" clip-path="url(#p8c9079422f)" style="fill: #0000ff"/>
    <path d="M 313.383977 99.395619 
L 318.571423 90.317587 
L 316.671474 89.937597 
L 321.839335 85.833708 
L 320.92736 92.369532 
L 319.635395 90.925571 
L 314.447948 100.003602 
L 313.383977 99.395619 
" clip-path="url(#p8c9079422f)" style="fill: #0000ff"/>
    <path d="M 313.417376 78.302437 
L 320.116391 68.923816 
L 318.264497 68.354002 
L 323.820178 64.792668 
L 322.253191 71.20307 
L 321.113565 69.636083 
L 314.414549 79.014704 
L 313.417376 78.302437 
" clip-path="url(#p8c9079422f)" style="fill: #0000ff"/>
    <path d="M 313.450754 57.218781 
L 321.747066 47.539751 
L 319.952693 46.808709 
L 325.801022 43.751629 
L 323.674357 49.998707 
L 322.677482 48.33725 
L 314.38117 58.016281 
L 313.450754 57.218781 
" clip-path="url(#p8c9079422f)" style="fill: #0000ff"/>
    <path d="M 313.482707 36.143236 
L 323.449315 26.176629 
L 321.716295 25.310119 
L 327.781865 22.710589 
L 325.182335 28.776159 
L 324.315825 27.043139 
L 314.349217 37.009746 
L 313.482707 36.143236 
" clip-path="url(#p8c9079422f)" style="fill: #0000ff"/>
   </g>
   <g id="matplotlib.axis_1">
    <g id="xtick_1">
     <g id="line2d_1">
      <defs>
       <path id="mff033550b0" d="M 0 0 
L 0 3.5 
" style="stroke: #000000; stroke-width: 0.8"/>
      </defs>
      <g>
       <use xlink:href="#mff033550b0" x="19.341406" y="183.863769" style="stroke: #000000; stroke-width: 0.8"/>
      </g>
     </g>
     <g id="text_1">
      <!-- 2.0 -->
      <g transform="translate(7.2 198.462207)scale(0.1 -0.1)">
       <defs>
        <path id="DejaVuSans-2212" d="M 678 2272 
L 4684 2272 
L 4684 1741 
L 678 1741 
L 678 2272 
z
" transform="scale(0.015625)"/>
        <path id="DejaVuSans-32" d="M 1228 531 
L 3431 531 
L 3431 0 
L 469 0 
L 469 531 
Q 828 903 1448 1529 
Q 2069 2156 2228 2338 
Q 2531 2678 2651 2914 
Q 2772 3150 2772 3378 
Q 2772 3750 2511 3984 
Q 2250 4219 1831 4219 
Q 1534 4219 1204 4116 
Q 875 4013 500 3803 
L 500 4441 
Q 881 4594 1212 4672 
Q 1544 4750 1819 4750 
Q 2544 4750 2975 4387 
Q 3406 4025 3406 3419 
Q 3406 3131 3298 2873 
Q 3191 2616 2906 2266 
Q 2828 2175 2409 1742 
Q 1991 1309 1228 531 
z
" transform="scale(0.015625)"/>
        <path id="DejaVuSans-2e" d="M 684 794 
L 1344 794 
L 1344 0 
L 684 0 
L 684 794 
z
" transform="scale(0.015625)"/>
        <path id="DejaVuSans-30" d="M 2034 4250 
Q 1547 4250 1301 3770 
Q 1056 3291 1056 2328 
Q 1056 1369 1301 889 
Q 1547 409 2034 409 
Q 2525 409 2770 889 
Q 3016 1369 3016 2328 
Q 3016 3291 2770 3770 
Q 2525 4250 2034 4250 
z
M 2034 4750 
Q 2819 4750 3233 4129 
Q 3647 3509 3647 2328 
Q 3647 1150 3233 529 
Q 2819 -91 2034 -91 
Q 1250 -91 836 529 
Q 422 1150 422 2328 
Q 422 3509 836 4129 
Q 1250 4750 2034 4750 
z
" transform="scale(0.015625)"/>
       </defs>
       <use xlink:href="#DejaVuSans-2212"/>
       <use xlink:href="#DejaVuSans-32" x="83.789062"/>
       <use xlink:href="#DejaVuSans-2e" x="147.412109"/>
       <use xlink:href="#DejaVuSans-30" x="179.199219"/>
      </g>
     </g>
    </g>
    <g id="xtick_2">
     <g id="line2d_2">
      <g>
       <use xlink:href="#mff033550b0" x="56.163226" y="183.863769" style="stroke: #000000; stroke-width: 0.8"/>
      </g>
     </g>
     <g id="text_2">
      <!-- 1.5 -->
      <g transform="translate(44.02182 198.462207)scale(0.1 -0.1)">
       <defs>
        <path id="DejaVuSans-31" d="M 794 531 
L 1825 531 
L 1825 4091 
L 703 3866 
L 703 4441 
L 1819 4666 
L 2450 4666 
L 2450 531 
L 3481 531 
L 3481 0 
L 794 0 
L 794 531 
z
" transform="scale(0.015625)"/>
        <path id="DejaVuSans-35" d="M 691 4666 
L 3169 4666 
L 3169 4134 
L 1269 4134 
L 1269 2991 
Q 1406 3038 1543 3061 
Q 1681 3084 1819 3084 
Q 2600 3084 3056 2656 
Q 3513 2228 3513 1497 
Q 3513 744 3044 326 
Q 2575 -91 1722 -91 
Q 1428 -91 1123 -41 
Q 819 9 494 109 
L 494 744 
Q 775 591 1075 516 
Q 1375 441 1709 441 
Q 2250 441 2565 725 
Q 2881 1009 2881 1497 
Q 2881 1984 2565 2268 
Q 2250 2553 1709 2553 
Q 1456 2553 1204 2497 
Q 953 2441 691 2322 
L 691 4666 
z
" transform="scale(0.015625)"/>
       </defs>
       <use xlink:href="#DejaVuSans-2212"/>
       <use xlink:href="#DejaVuSans-31" x="83.789062"/>
       <use xlink:href="#DejaVuSans-2e" x="147.412109"/>
       <use xlink:href="#DejaVuSans-35" x="179.199219"/>
      </g>
     </g>
    </g>
    <g id="xtick_3">
     <g id="line2d_3">
      <g>
       <use xlink:href="#mff033550b0" x="92.985045" y="183.863769" style="stroke: #000000; stroke-width: 0.8"/>
      </g>
     </g>
     <g id="text_3">
      <!-- 1.0 -->
      <g transform="translate(80.843639 198.462207)scale(0.1 -0.1)">
       <use xlink:href="#DejaVuSans-2212"/>
       <use xlink:href="#DejaVuSans-31" x="83.789062"/>
       <use xlink:href="#DejaVuSans-2e" x="147.412109"/>
       <use xlink:href="#DejaVuSans-30" x="179.199219"/>
      </g>
     </g>
    </g>
    <g id="xtick_4">
     <g id="line2d_4">
      <g>
       <use xlink:href="#mff033550b0" x="129.806865" y="183.863769" style="stroke: #000000; stroke-width: 0.8"/>
      </g>
     </g>
     <g id="text_4">
      <!-- 0.5 -->
      <g transform="translate(117.665459 198.462207)scale(0.1 -0.1)">
       <use xlink:href="#DejaVuSans-2212"/>
       <use xlink:href="#DejaVuSans-30" x="83.789062"/>
       <use xlink:href="#DejaVuSans-2e" x="147.412109"/>
       <use xlink:href="#DejaVuSans-35" x="179.199219"/>
      </g>
     </g>
    </g>
    <g id="xtick_5">
     <g id="line2d_5">
      <g>
       <use xlink:href="#mff033550b0" x="166.628684" y="183.863769" style="stroke: #000000; stroke-width: 0.8"/>
      </g>
     </g>
    </g>
    <g id="xtick_6">
     <g id="line2d_6">
      <g>
       <use xlink:href="#mff033550b0" x="203.450504" y="183.863769" style="stroke: #000000; stroke-width: 0.8"/>
      </g>
     </g>
     <g id="text_5">
      <!-- 0.5 -->
      <g transform="translate(195.498941 198.462207)scale(0.1 -0.1)">
       <use xlink:href="#DejaVuSans-30"/>
       <use xlink:href="#DejaVuSans-2e" x="63.623047"/>
       <use xlink:href="#DejaVuSans-35" x="95.410156"/>
      </g>
     </g>
    </g>
    <g id="xtick_7">
     <g id="line2d_7">
      <g>
       <use xlink:href="#mff033550b0" x="240.272323" y="183.863769" style="stroke: #000000; stroke-width: 0.8"/>
      </g>
     </g>
     <g id="text_6">
      <!-- 1.0 -->
      <g transform="translate(232.320761 198.462207)scale(0.1 -0.1)">
       <use xlink:href="#DejaVuSans-31"/>
       <use xlink:href="#DejaVuSans-2e" x="63.623047"/>
       <use xlink:href="#DejaVuSans-30" x="95.410156"/>
      </g>
     </g>
    </g>
    <g id="xtick_8">
     <g id="line2d_8">
      <g>
       <use xlink:href="#mff033550b0" x="277.094143" y="183.863769" style="stroke: #000000; stroke-width: 0.8"/>
      </g>
     </g>
     <g id="text_7">
      <!-- 1.5 -->
      <g transform="translate(269.14258 198.462207)scale(0.1 -0.1)">
       <use xlink:href="#DejaVuSans-31"/>
       <use xlink:href="#DejaVuSans-2e" x="63.623047"/>
       <use xlink:href="#DejaVuSans-35" x="95.410156"/>
      </g>
     </g>
    </g>
    <g id="xtick_9">
     <g id="line2d_9">
      <g>
       <use xlink:href="#mff033550b0" x="313.915962" y="183.863769" style="stroke: #000000; stroke-width: 0.8"/>
      </g>
     </g>
     <g id="text_8">
      <!-- 2.0 -->
      <g transform="translate(305.9644 198.462207)scale(0.1 -0.1)">
       <use xlink:href="#DejaVuSans-32"/>
       <use xlink:href="#DejaVuSans-2e" x="63.623047"/>
       <use xlink:href="#DejaVuSans-30" x="95.410156"/>
      </g>
     </g>
    </g>
    <g id="xtick_10">
     <g id="line2d_10">
      <defs>
       <path id="mafca6e88e5" d="M 0 0 
L 0 2 
" style="stroke: #000000; stroke-width: 0.6"/>
      </defs>
      <g>
       <use xlink:href="#mafca6e88e5" x="26.70577" y="183.863769" style="stroke: #000000; stroke-width: 0.6"/>
      </g>
     </g>
    </g>
    <g id="xtick_11">
     <g id="line2d_11">
      <g>
       <use xlink:href="#mafca6e88e5" x="34.070134" y="183.863769" style="stroke: #000000; stroke-width: 0.6"/>
      </g>
     </g>
    </g>
    <g id="xtick_12">
     <g id="line2d_12">
      <g>
       <use xlink:href="#mafca6e88e5" x="41.434498" y="183.863769" style="stroke: #000000; stroke-width: 0.6"/>
      </g>
     </g>
    </g>
    <g id="xtick_13">
     <g id="line2d_13">
      <g>
       <use xlink:href="#mafca6e88e5" x="48.798862" y="183.863769" style="stroke: #000000; stroke-width: 0.6"/>
      </g>
     </g>
    </g>
    <g id="xtick_14">
     <g id="line2d_14">
      <g>
       <use xlink:href="#mafca6e88e5" x="63.52759" y="183.863769" style="stroke: #000000; stroke-width: 0.6"/>
      </g>
     </g>
    </g>
    <g id="xtick_15">
     <g id="line2d_15">
      <g>
       <use xlink:href="#mafca6e88e5" x="70.891954" y="183.863769" style="stroke: #000000; stroke-width: 0.6"/>
      </g>
     </g>
    </g>
    <g id="xtick_16">
     <g id="line2d_16">
      <g>
       <use xlink:href="#mafca6e88e5" x="78.256317" y="183.863769" style="stroke: #000000; stroke-width: 0.6"/>
      </g>
     </g>
    </g>
    <g id="xtick_17">
     <g id="line2d_17">
      <g>
       <use xlink:href="#mafca6e88e5" x="85.620681" y="183.863769" style="stroke: #000000; stroke-width: 0.6"/>
      </g>
     </g>
    </g>
    <g id="xtick_18">
     <g id="line2d_18">
      <g>
       <use xlink:href="#mafca6e88e5" x="100.349409" y="183.863769" style="stroke: #000000; stroke-width: 0.6"/>
      </g>
     </g>
    </g>
    <g id="xtick_19">
     <g id="line2d_19">
      <g>
       <use xlink:href="#mafca6e88e5" x="107.713773" y="183.863769" style="stroke: #000000; stroke-width: 0.6"/>
      </g>
     </g>
    </g>
    <g id="xtick_20">
     <g id="line2d_20">
      <g>
       <use xlink:href="#mafca6e88e5" x="115.078137" y="183.863769" style="stroke: #000000; stroke-width: 0.6"/>
      </g>
     </g>
    </g>
    <g id="xtick_21">
     <g id="line2d_21">
      <g>
       <use xlink:href="#mafca6e88e5" x="122.442501" y="183.863769" style="stroke: #000000; stroke-width: 0.6"/>
      </g>
     </g>
    </g>
    <g id="xtick_22">
     <g id="line2d_22">
      <g>
       <use xlink:href="#mafca6e88e5" x="137.171229" y="183.863769" style="stroke: #000000; stroke-width: 0.6"/>
      </g>
     </g>
    </g>
    <g id="xtick_23">
     <g id="line2d_23">
      <g>
       <use xlink:href="#mafca6e88e5" x="144.535593" y="183.863769" style="stroke: #000000; stroke-width: 0.6"/>
      </g>
     </g>
    </g>
    <g id="xtick_24">
     <g id="line2d_24">
      <g>
       <use xlink:href="#mafca6e88e5" x="151.899957" y="183.863769" style="stroke: #000000; stroke-width: 0.6"/>
      </g>
     </g>
    </g>
    <g id="xtick_25">
     <g id="line2d_25">
      <g>
       <use xlink:href="#mafca6e88e5" x="159.26432" y="183.863769" style="stroke: #000000; stroke-width: 0.6"/>
      </g>
     </g>
    </g>
    <g id="xtick_26">
     <g id="line2d_26">
      <g>
       <use xlink:href="#mafca6e88e5" x="173.993048" y="183.863769" style="stroke: #000000; stroke-width: 0.6"/>
      </g>
     </g>
    </g>
    <g id="xtick_27">
     <g id="line2d_27">
      <g>
       <use xlink:href="#mafca6e88e5" x="181.357412" y="183.863769" style="stroke: #000000; stroke-width: 0.6"/>
      </g>
     </g>
    </g>
    <g id="xtick_28">
     <g id="line2d_28">
      <g>
       <use xlink:href="#mafca6e88e5" x="188.721776" y="183.863769" style="stroke: #000000; stroke-width: 0.6"/>
      </g>
     </g>
    </g>
    <g id="xtick_29">
     <g id="line2d_29">
      <g>
       <use xlink:href="#mafca6e88e5" x="196.08614" y="183.863769" style="stroke: #000000; stroke-width: 0.6"/>
      </g>
     </g>
    </g>
    <g id="xtick_30">
     <g id="line2d_30">
      <g>
       <use xlink:href="#mafca6e88e5" x="210.814868" y="183.863769" style="stroke: #000000; stroke-width: 0.6"/>
      </g>
     </g>
    </g>
    <g id="xtick_31">
     <g id="line2d_31">
      <g>
       <use xlink:href="#mafca6e88e5" x="218.179232" y="183.863769" style="stroke: #000000; stroke-width: 0.6"/>
      </g>
     </g>
    </g>
    <g id="xtick_32">
     <g id="line2d_32">
      <g>
       <use xlink:href="#mafca6e88e5" x="225.543596" y="183.863769" style="stroke: #000000; stroke-width: 0.6"/>
      </g>
     </g>
    </g>
    <g id="xtick_33">
     <g id="line2d_33">
      <g>
       <use xlink:href="#mafca6e88e5" x="232.90796" y="183.863769" style="stroke: #000000; stroke-width: 0.6"/>
      </g>
     </g>
    </g>
    <g id="xtick_34">
     <g id="line2d_34">
      <g>
       <use xlink:href="#mafca6e88e5" x="247.636687" y="183.863769" style="stroke: #000000; stroke-width: 0.6"/>
      </g>
     </g>
    </g>
    <g id="xtick_35">
     <g id="line2d_35">
      <g>
       <use xlink:href="#mafca6e88e5" x="255.001051" y="183.863769" style="stroke: #000000; stroke-width: 0.6"/>
      </g>
     </g>
    </g>
    <g id="xtick_36">
     <g id="line2d_36">
      <g>
       <use xlink:href="#mafca6e88e5" x="262.365415" y="183.863769" style="stroke: #000000; stroke-width: 0.6"/>
      </g>
     </g>
    </g>
    <g id="xtick_37">
     <g id="line2d_37">
      <g>
       <use xlink:href="#mafca6e88e5" x="269.729779" y="183.863769" style="stroke: #000000; stroke-width: 0.6"/>
      </g>
     </g>
    </g>
    <g id="xtick_38">
     <g id="line2d_38">
      <g>
       <use xlink:href="#mafca6e88e5" x="284.458507" y="183.863769" style="stroke: #000000; stroke-width: 0.6"/>
      </g>
     </g>
    </g>
    <g id="xtick_39">
     <g id="line2d_39">
      <g>
       <use xlink:href="#mafca6e88e5" x="291.822871" y="183.863769" style="stroke: #000000; stroke-width: 0.6"/>
      </g>
     </g>
    </g>
    <g id="xtick_40">
     <g id="line2d_40">
      <g>
       <use xlink:href="#mafca6e88e5" x="299.187235" y="183.863769" style="stroke: #000000; stroke-width: 0.6"/>
      </g>
     </g>
    </g>
    <g id="xtick_41">
     <g id="line2d_41">
      <g>
       <use xlink:href="#mafca6e88e5" x="306.551599" y="183.863769" style="stroke: #000000; stroke-width: 0.6"/>
      </g>
     </g>
    </g>
    <g id="text_9">
     <!-- $x$ -->
     <g transform="translate(327.807454 183.863769)scale(0.16 -0.16)">
      <defs>
       <path id="Cmmi10-78" d="M 500 184 
Q 613 97 819 97 
Q 1019 97 1172 289 
Q 1325 481 1381 709 
L 1672 1844 
Q 1741 2153 1741 2266 
Q 1741 2425 1652 2544 
Q 1563 2663 1403 2663 
Q 1200 2663 1022 2536 
Q 844 2409 722 2214 
Q 600 2019 550 1819 
Q 538 1778 500 1778 
L 422 1778 
Q 372 1778 372 1838 
L 372 1856 
Q 434 2094 584 2320 
Q 734 2547 951 2687 
Q 1169 2828 1416 2828 
Q 1650 2828 1839 2703 
Q 2028 2578 2106 2363 
Q 2216 2559 2386 2693 
Q 2556 2828 2759 2828 
Q 2897 2828 3040 2779 
Q 3184 2731 3275 2631 
Q 3366 2531 3366 2381 
Q 3366 2219 3261 2101 
Q 3156 1984 2994 1984 
Q 2891 1984 2822 2050 
Q 2753 2116 2753 2216 
Q 2753 2350 2845 2451 
Q 2938 2553 3066 2572 
Q 2950 2663 2747 2663 
Q 2541 2663 2389 2472 
Q 2238 2281 2175 2047 
L 1894 916 
Q 1825 659 1825 494 
Q 1825 331 1917 214 
Q 2009 97 2163 97 
Q 2463 97 2698 361 
Q 2934 625 3009 941 
Q 3022 978 3059 978 
L 3138 978 
Q 3163 978 3178 961 
Q 3194 944 3194 922 
Q 3194 916 3188 903 
Q 3097 522 2806 225 
Q 2516 -72 2150 -72 
Q 1916 -72 1727 54 
Q 1538 181 1459 397 
Q 1359 209 1182 68 
Q 1006 -72 806 -72 
Q 669 -72 523 -23 
Q 378 25 287 125 
Q 197 225 197 378 
Q 197 528 301 651 
Q 406 775 563 775 
Q 669 775 741 711 
Q 813 647 813 544 
Q 813 409 723 309 
Q 634 209 500 184 
z
" transform="scale(0.015625)"/>
      </defs>
      <use xlink:href="#Cmmi10-78" transform="translate(0 0.8125)"/>
     </g>
    </g>
   </g>
   <g id="matplotlib.axis_2">
    <g id="ytick_1">
     <g id="line2d_42">
      <defs>
       <path id="m0dc683ea44" d="M 0 0 
L -3.5 0 
" style="stroke: #000000; stroke-width: 0.8"/>
      </defs>
      <g>
       <use xlink:href="#m0dc683ea44" x="166.628684" y="331.151047" style="stroke: #000000; stroke-width: 0.8"/>
      </g>
     </g>
     <g id="text_10">
      <!-- 2.0 -->
      <g transform="translate(135.345872 334.950266)scale(0.1 -0.1)">
       <use xlink:href="#DejaVuSans-2212"/>
       <use xlink:href="#DejaVuSans-32" x="83.789062"/>
       <use xlink:href="#DejaVuSans-2e" x="147.412109"/>
       <use xlink:href="#DejaVuSans-30" x="179.199219"/>
      </g>
     </g>
    </g>
    <g id="ytick_2">
     <g id="line2d_43">
      <g>
       <use xlink:href="#m0dc683ea44" x="166.628684" y="294.329228" style="stroke: #000000; stroke-width: 0.8"/>
      </g>
     </g>
     <g id="text_11">
      <!-- 1.5 -->
      <g transform="translate(135.345872 298.128447)scale(0.1 -0.1)">
       <use xlink:href="#DejaVuSans-2212"/>
       <use xlink:href="#DejaVuSans-31" x="83.789062"/>
       <use xlink:href="#DejaVuSans-2e" x="147.412109"/>
       <use xlink:href="#DejaVuSans-35" x="179.199219"/>
      </g>
     </g>
    </g>
    <g id="ytick_3">
     <g id="line2d_44">
      <g>
       <use xlink:href="#m0dc683ea44" x="166.628684" y="257.507408" style="stroke: #000000; stroke-width: 0.8"/>
      </g>
     </g>
     <g id="text_12">
      <!-- 1.0 -->
      <g transform="translate(135.345872 261.306627)scale(0.1 -0.1)">
       <use xlink:href="#DejaVuSans-2212"/>
       <use xlink:href="#DejaVuSans-31" x="83.789062"/>
       <use xlink:href="#DejaVuSans-2e" x="147.412109"/>
       <use xlink:href="#DejaVuSans-30" x="179.199219"/>
      </g>
     </g>
    </g>
    <g id="ytick_4">
     <g id="line2d_45">
      <g>
       <use xlink:href="#m0dc683ea44" x="166.628684" y="220.685589" style="stroke: #000000; stroke-width: 0.8"/>
      </g>
     </g>
     <g id="text_13">
      <!-- 0.5 -->
      <g transform="translate(135.345872 224.484808)scale(0.1 -0.1)">
       <use xlink:href="#DejaVuSans-2212"/>
       <use xlink:href="#DejaVuSans-30" x="83.789062"/>
       <use xlink:href="#DejaVuSans-2e" x="147.412109"/>
       <use xlink:href="#DejaVuSans-35" x="179.199219"/>
      </g>
     </g>
    </g>
    <g id="ytick_5">
     <g id="line2d_46">
      <g>
       <use xlink:href="#m0dc683ea44" x="166.628684" y="183.863769" style="stroke: #000000; stroke-width: 0.8"/>
      </g>
     </g>
    </g>
    <g id="ytick_6">
     <g id="line2d_47">
      <g>
       <use xlink:href="#m0dc683ea44" x="166.628684" y="147.04195" style="stroke: #000000; stroke-width: 0.8"/>
      </g>
     </g>
     <g id="text_14">
      <!-- 0.5 -->
      <g transform="translate(143.725559 150.841168)scale(0.1 -0.1)">
       <use xlink:href="#DejaVuSans-30"/>
       <use xlink:href="#DejaVuSans-2e" x="63.623047"/>
       <use xlink:href="#DejaVuSans-35" x="95.410156"/>
      </g>
     </g>
    </g>
    <g id="ytick_7">
     <g id="line2d_48">
      <g>
       <use xlink:href="#m0dc683ea44" x="166.628684" y="110.22013" style="stroke: #000000; stroke-width: 0.8"/>
      </g>
     </g>
     <g id="text_15">
      <!-- 1.0 -->
      <g transform="translate(143.725559 114.019349)scale(0.1 -0.1)">
       <use xlink:href="#DejaVuSans-31"/>
       <use xlink:href="#DejaVuSans-2e" x="63.623047"/>
       <use xlink:href="#DejaVuSans-30" x="95.410156"/>
      </g>
     </g>
    </g>
    <g id="ytick_8">
     <g id="line2d_49">
      <g>
       <use xlink:href="#m0dc683ea44" x="166.628684" y="73.398311" style="stroke: #000000; stroke-width: 0.8"/>
      </g>
     </g>
     <g id="text_16">
      <!-- 1.5 -->
      <g transform="translate(143.725559 77.197529)scale(0.1 -0.1)">
       <use xlink:href="#DejaVuSans-31"/>
       <use xlink:href="#DejaVuSans-2e" x="63.623047"/>
       <use xlink:href="#DejaVuSans-35" x="95.410156"/>
      </g>
     </g>
    </g>
    <g id="ytick_9">
     <g id="line2d_50">
      <g>
       <use xlink:href="#m0dc683ea44" x="166.628684" y="36.576491" style="stroke: #000000; stroke-width: 0.8"/>
      </g>
     </g>
     <g id="text_17">
      <!-- 2.0 -->
      <g transform="translate(143.725559 40.37571)scale(0.1 -0.1)">
       <use xlink:href="#DejaVuSans-32"/>
       <use xlink:href="#DejaVuSans-2e" x="63.623047"/>
       <use xlink:href="#DejaVuSans-30" x="95.410156"/>
      </g>
     </g>
    </g>
    <g id="ytick_10">
     <g id="line2d_51">
      <defs>
       <path id="m7873a51d8b" d="M 0 0 
L -2 0 
" style="stroke: #000000; stroke-width: 0.6"/>
      </defs>
      <g>
       <use xlink:href="#m7873a51d8b" x="166.628684" y="323.786683" style="stroke: #000000; stroke-width: 0.6"/>
      </g>
     </g>
    </g>
    <g id="ytick_11">
     <g id="line2d_52">
      <g>
       <use xlink:href="#m7873a51d8b" x="166.628684" y="316.42232" style="stroke: #000000; stroke-width: 0.6"/>
      </g>
     </g>
    </g>
    <g id="ytick_12">
     <g id="line2d_53">
      <g>
       <use xlink:href="#m7873a51d8b" x="166.628684" y="309.057956" style="stroke: #000000; stroke-width: 0.6"/>
      </g>
     </g>
    </g>
    <g id="ytick_13">
     <g id="line2d_54">
      <g>
       <use xlink:href="#m7873a51d8b" x="166.628684" y="301.693592" style="stroke: #000000; stroke-width: 0.6"/>
      </g>
     </g>
    </g>
    <g id="ytick_14">
     <g id="line2d_55">
      <g>
       <use xlink:href="#m7873a51d8b" x="166.628684" y="286.964864" style="stroke: #000000; stroke-width: 0.6"/>
      </g>
     </g>
    </g>
    <g id="ytick_15">
     <g id="line2d_56">
      <g>
       <use xlink:href="#m7873a51d8b" x="166.628684" y="279.6005" style="stroke: #000000; stroke-width: 0.6"/>
      </g>
     </g>
    </g>
    <g id="ytick_16">
     <g id="line2d_57">
      <g>
       <use xlink:href="#m7873a51d8b" x="166.628684" y="272.236136" style="stroke: #000000; stroke-width: 0.6"/>
      </g>
     </g>
    </g>
    <g id="ytick_17">
     <g id="line2d_58">
      <g>
       <use xlink:href="#m7873a51d8b" x="166.628684" y="264.871772" style="stroke: #000000; stroke-width: 0.6"/>
      </g>
     </g>
    </g>
    <g id="ytick_18">
     <g id="line2d_59">
      <g>
       <use xlink:href="#m7873a51d8b" x="166.628684" y="250.143044" style="stroke: #000000; stroke-width: 0.6"/>
      </g>
     </g>
    </g>
    <g id="ytick_19">
     <g id="line2d_60">
      <g>
       <use xlink:href="#m7873a51d8b" x="166.628684" y="242.77868" style="stroke: #000000; stroke-width: 0.6"/>
      </g>
     </g>
    </g>
    <g id="ytick_20">
     <g id="line2d_61">
      <g>
       <use xlink:href="#m7873a51d8b" x="166.628684" y="235.414317" style="stroke: #000000; stroke-width: 0.6"/>
      </g>
     </g>
    </g>
    <g id="ytick_21">
     <g id="line2d_62">
      <g>
       <use xlink:href="#m7873a51d8b" x="166.628684" y="228.049953" style="stroke: #000000; stroke-width: 0.6"/>
      </g>
     </g>
    </g>
    <g id="ytick_22">
     <g id="line2d_63">
      <g>
       <use xlink:href="#m7873a51d8b" x="166.628684" y="213.321225" style="stroke: #000000; stroke-width: 0.6"/>
      </g>
     </g>
    </g>
    <g id="ytick_23">
     <g id="line2d_64">
      <g>
       <use xlink:href="#m7873a51d8b" x="166.628684" y="205.956861" style="stroke: #000000; stroke-width: 0.6"/>
      </g>
     </g>
    </g>
    <g id="ytick_24">
     <g id="line2d_65">
      <g>
       <use xlink:href="#m7873a51d8b" x="166.628684" y="198.592497" style="stroke: #000000; stroke-width: 0.6"/>
      </g>
     </g>
    </g>
    <g id="ytick_25">
     <g id="line2d_66">
      <g>
       <use xlink:href="#m7873a51d8b" x="166.628684" y="191.228133" style="stroke: #000000; stroke-width: 0.6"/>
      </g>
     </g>
    </g>
    <g id="ytick_26">
     <g id="line2d_67">
      <g>
       <use xlink:href="#m7873a51d8b" x="166.628684" y="176.499405" style="stroke: #000000; stroke-width: 0.6"/>
      </g>
     </g>
    </g>
    <g id="ytick_27">
     <g id="line2d_68">
      <g>
       <use xlink:href="#m7873a51d8b" x="166.628684" y="169.135041" style="stroke: #000000; stroke-width: 0.6"/>
      </g>
     </g>
    </g>
    <g id="ytick_28">
     <g id="line2d_69">
      <g>
       <use xlink:href="#m7873a51d8b" x="166.628684" y="161.770678" style="stroke: #000000; stroke-width: 0.6"/>
      </g>
     </g>
    </g>
    <g id="ytick_29">
     <g id="line2d_70">
      <g>
       <use xlink:href="#m7873a51d8b" x="166.628684" y="154.406314" style="stroke: #000000; stroke-width: 0.6"/>
      </g>
     </g>
    </g>
    <g id="ytick_30">
     <g id="line2d_71">
      <g>
       <use xlink:href="#m7873a51d8b" x="166.628684" y="139.677586" style="stroke: #000000; stroke-width: 0.6"/>
      </g>
     </g>
    </g>
    <g id="ytick_31">
     <g id="line2d_72">
      <g>
       <use xlink:href="#m7873a51d8b" x="166.628684" y="132.313222" style="stroke: #000000; stroke-width: 0.6"/>
      </g>
     </g>
    </g>
    <g id="ytick_32">
     <g id="line2d_73">
      <g>
       <use xlink:href="#m7873a51d8b" x="166.628684" y="124.948858" style="stroke: #000000; stroke-width: 0.6"/>
      </g>
     </g>
    </g>
    <g id="ytick_33">
     <g id="line2d_74">
      <g>
       <use xlink:href="#m7873a51d8b" x="166.628684" y="117.584494" style="stroke: #000000; stroke-width: 0.6"/>
      </g>
     </g>
    </g>
    <g id="ytick_34">
     <g id="line2d_75">
      <g>
       <use xlink:href="#m7873a51d8b" x="166.628684" y="102.855766" style="stroke: #000000; stroke-width: 0.6"/>
      </g>
     </g>
    </g>
    <g id="ytick_35">
     <g id="line2d_76">
      <g>
       <use xlink:href="#m7873a51d8b" x="166.628684" y="95.491402" style="stroke: #000000; stroke-width: 0.6"/>
      </g>
     </g>
    </g>
    <g id="ytick_36">
     <g id="line2d_77">
      <g>
       <use xlink:href="#m7873a51d8b" x="166.628684" y="88.127038" style="stroke: #000000; stroke-width: 0.6"/>
      </g>
     </g>
    </g>
    <g id="ytick_37">
     <g id="line2d_78">
      <g>
       <use xlink:href="#m7873a51d8b" x="166.628684" y="80.762675" style="stroke: #000000; stroke-width: 0.6"/>
      </g>
     </g>
    </g>
    <g id="ytick_38">
     <g id="line2d_79">
      <g>
       <use xlink:href="#m7873a51d8b" x="166.628684" y="66.033947" style="stroke: #000000; stroke-width: 0.6"/>
      </g>
     </g>
    </g>
    <g id="ytick_39">
     <g id="line2d_80">
      <g>
       <use xlink:href="#m7873a51d8b" x="166.628684" y="58.669583" style="stroke: #000000; stroke-width: 0.6"/>
      </g>
     </g>
    </g>
    <g id="ytick_40">
     <g id="line2d_81">
      <g>
       <use xlink:href="#m7873a51d8b" x="166.628684" y="51.305219" style="stroke: #000000; stroke-width: 0.6"/>
      </g>
     </g>
    </g>
    <g id="ytick_41">
     <g id="line2d_82">
      <g>
       <use xlink:href="#m7873a51d8b" x="166.628684" y="43.940855" style="stroke: #000000; stroke-width: 0.6"/>
      </g>
     </g>
    </g>
    <g id="text_18">
     <!-- $y$ -->
     <g transform="translate(162.628684 19.325)scale(0.16 -0.16)">
      <defs>
       <path id="Cmmi10-79" d="M 538 -916 
Q 672 -1147 1006 -1147 
Q 1309 -1147 1531 -934 
Q 1753 -722 1889 -420 
Q 2025 -119 2100 197 
Q 1816 -72 1484 -72 
Q 1231 -72 1053 15 
Q 875 103 776 276 
Q 678 450 678 697 
Q 678 906 734 1126 
Q 791 1347 892 1617 
Q 994 1888 1069 2088 
Q 1153 2322 1153 2472 
Q 1153 2663 1013 2663 
Q 759 2663 595 2402 
Q 431 2141 353 1819 
Q 341 1778 300 1778 
L 225 1778 
Q 172 1778 172 1838 
L 172 1856 
Q 275 2238 487 2533 
Q 700 2828 1025 2828 
Q 1253 2828 1411 2678 
Q 1569 2528 1569 2297 
Q 1569 2178 1516 2047 
Q 1488 1969 1388 1706 
Q 1288 1444 1234 1272 
Q 1181 1100 1147 934 
Q 1113 769 1113 603 
Q 1113 391 1203 244 
Q 1294 97 1491 97 
Q 1888 97 2203 581 
L 2688 2553 
Q 2709 2638 2787 2698 
Q 2866 2759 2956 2759 
Q 3034 2759 3092 2709 
Q 3150 2659 3150 2578 
Q 3150 2541 3144 2528 
L 2509 -19 
Q 2425 -347 2200 -647 
Q 1975 -947 1658 -1130 
Q 1341 -1313 997 -1313 
Q 831 -1313 668 -1248 
Q 506 -1184 406 -1056 
Q 306 -928 306 -756 
Q 306 -581 409 -453 
Q 513 -325 684 -325 
Q 788 -325 858 -389 
Q 928 -453 928 -556 
Q 928 -703 818 -812 
Q 709 -922 563 -922 
Q 556 -919 550 -917 
Q 544 -916 538 -916 
z
" transform="scale(0.015625)"/>
      </defs>
      <use xlink:href="#Cmmi10-79" transform="translate(0 0.8125)"/>
     </g>
    </g>
   </g>
   <g id="patch_3">
    <path d="M 166.628684 337.042538 
L 166.628684 30.685 
" style="fill: none; stroke: #000000; stroke-width: 0.8; stroke-linejoin: miter; stroke-linecap: square"/>
   </g>
   <g id="patch_4">
    <path d="M 13.449915 183.863769 
L 319.807454 183.863769 
" style="fill: none; stroke: #000000; stroke-width: 0.8; stroke-linejoin: miter; stroke-linecap: square"/>
   </g>
  </g>
 </g>
 <defs>
  <clipPath id="p8c9079422f">
   <rect x="13.449915" y="30.685" width="306.357538" height="306.357538"/>
  </clipPath>
 </defs>
</svg>
