<?xml version="1.0" encoding="utf-8" standalone="no"?>
<!DOCTYPE svg PUBLIC "-//W3C//DTD SVG 1.1//EN"
  "http://www.w3.org/Graphics/SVG/1.1/DTD/svg11.dtd">
<svg xmlns:xlink="http://www.w3.org/1999/xlink" width="339.04pt" height="345.245pt" viewBox="0 0 339.04 345.245" xmlns="http://www.w3.org/2000/svg" version="1.1">
 <metadata>
  <rdf:RDF xmlns:dc="http://purl.org/dc/elements/1.1/" xmlns:cc="http://creativecommons.org/ns#" xmlns:rdf="http://www.w3.org/1999/02/22-rdf-syntax-ns#">
   <cc:Work>
    <dc:type rdf:resource="http://purl.org/dc/dcmitype/StillImage"/>
    <dc:date>2025-03-06T19:35:47.905522</dc:date>
    <dc:format>image/svg+xml</dc:format>
    <dc:creator>
     <cc:Agent>
      <dc:title>Matplotlib v3.5.1, https://matplotlib.org/</dc:title>
     </cc:Agent>
    </dc:creator>
   </cc:Work>
  </rdf:RDF>
 </metadata>
 <defs>
  <style type="text/css">*{stroke-linejoin: round; stroke-linecap: butt}</style>
 </defs>
 <g id="figure_1">
  <g id="patch_1">
   <path d="M -0 345.245 
L 339.04 345.245 
L 339.04 0 
L -0 0 
z
" style="fill: #ffffff"/>
  </g>
  <g id="axes_1">
   <g id="patch_2">
    <path d="M 7.2 338.045 
L 314.56 338.045 
L 314.56 30.685 
L 7.2 30.685 
z
" style="fill: #ffffff"/>
   </g>
   <g id="Quiver_1">
    <path d="M 24.04296 321.20204 
L 14.04374 311.202819 
L 13.609068 312.506837 
L 10.566359 306.856093 
L 16.217104 309.898801 
L 14.913086 310.333474 
L 24.912306 320.332694 
L 24.04296 321.20204 
" clip-path="url(#pcb56806dd5)" style="fill: #0000ff"/>
    <path d="M 24.010903 301.681369 
L 15.687444 291.970667 
L 15.154038 293.237506 
L 12.553684 287.37004 
L 17.954419 290.837179 
L 16.620904 291.170558 
L 24.944363 300.88126 
L 24.010903 301.681369 
" clip-path="url(#pcb56806dd5)" style="fill: #0000ff"/>
    <path d="M 23.977415 282.152561 
L 17.256479 272.743251 
L 16.613341 273.958066 
L 14.541009 267.883988 
L 19.614651 271.814274 
L 18.256916 272.028653 
L 24.977851 281.437963 
L 23.977415 282.152561 
" clip-path="url(#pcb56806dd5)" style="fill: #0000ff"/>
    <path d="M 23.943907 262.614196 
L 18.739486 253.50646 
L 17.97702 254.650159 
L 16.528334 248.397935 
L 21.179378 252.82024 
L 19.806939 252.896487 
L 25.01136 262.004223 
L 23.943907 262.614196 
" clip-path="url(#pcb56806dd5)" style="fill: #0000ff"/>
    <path d="M 23.912616 243.065307 
L 20.129992 234.239185 
L 19.242109 235.288502 
L 18.515658 228.911883 
L 22.63221 233.835601 
L 21.260026 233.754884 
L 25.04265 242.581007 
L 23.912616 243.065307 
" clip-path="url(#pcb56806dd5)" style="fill: #0000ff"/>
    <path d="M 23.886565 223.505981 
L 21.431805 214.914319 
L 20.418545 215.84314 
L 20.502983 209.425831 
L 23.964953 214.829881 
L 22.613941 214.576566 
L 25.068701 223.168228 
L 23.886565 223.505981 
" clip-path="url(#pcb56806dd5)" style="fill: #0000ff"/>
    <path d="M 23.869091 203.937987 
L 22.664177 195.503589 
L 21.534028 196.285999 
L 22.490308 189.939778 
L 25.185279 195.764392 
L 23.881261 195.329719 
L 25.086175 203.764118 
L 23.869091 203.937987 
" clip-path="url(#pcb56806dd5)" style="fill: #0000ff"/>
    <path d="M 23.862913 184.365 
L 23.862913 175.986206 
L 22.633473 176.600926 
L 24.477633 170.453726 
L 26.321793 176.600926 
L 25.092353 175.986206 
L 25.092353 184.365 
L 23.862913 184.365 
" clip-path="url(#pcb56806dd5)" style="fill: #0000ff"/>
    <path d="M 23.869091 164.792013 
L 25.074005 156.357615 
L 23.769987 156.792287 
L 26.464958 150.967673 
L 27.421238 157.313895 
L 26.291089 156.531484 
L 25.086175 164.965882 
L 23.869091 164.792013 
" clip-path="url(#pcb56806dd5)" style="fill: #0000ff"/>
    <path d="M 23.886565 145.224019 
L 26.341326 136.632356 
L 24.990313 136.885671 
L 28.452283 131.481621 
L 28.536721 137.898931 
L 27.523462 136.97011 
L 25.068701 145.561772 
L 23.886565 145.224019 
" clip-path="url(#pcb56806dd5)" style="fill: #0000ff"/>
    <path d="M 23.912616 125.664693 
L 27.69524 116.83857 
L 26.323057 116.919287 
L 30.439608 111.995569 
L 29.713158 118.372187 
L 28.825274 117.32287 
L 25.04265 126.148993 
L 23.912616 125.664693 
" clip-path="url(#pcb56806dd5)" style="fill: #0000ff"/>
    <path d="M 23.943907 106.115804 
L 29.148328 97.008067 
L 27.775888 96.931821 
L 32.426933 92.509516 
L 30.978247 98.76174 
L 30.21578 97.61804 
L 25.01136 106.725777 
L 23.943907 106.115804 
" clip-path="url(#pcb56806dd5)" style="fill: #0000ff"/>
    <path d="M 23.977415 86.577439 
L 30.698351 77.168129 
L 29.340615 76.95375 
L 34.414258 73.023464 
L 32.341925 79.097542 
L 31.698787 77.882727 
L 24.977851 87.292037 
L 23.977415 86.577439 
" clip-path="url(#pcb56806dd5)" style="fill: #0000ff"/>
    <path d="M 24.010903 67.048631 
L 32.334362 57.337929 
L 31.000847 57.00455 
L 36.401582 53.537411 
L 33.801228 59.404877 
L 33.267822 58.138038 
L 24.944363 67.84874 
L 24.010903 67.048631 
" clip-path="url(#pcb56806dd5)" style="fill: #0000ff"/>
    <path d="M 24.04296 47.52796 
L 34.042181 37.52874 
L 32.738163 37.094068 
L 38.388907 34.051359 
L 35.346199 39.702104 
L 34.911526 38.398086 
L 24.912306 48.397306 
L 24.04296 47.52796 
" clip-path="url(#pcb56806dd5)" style="fill: #0000ff"/>
    <path d="M 43.563631 321.234097 
L 33.852929 312.910638 
L 33.51955 314.244153 
L 30.052411 308.843418 
L 35.919877 311.443772 
L 34.653038 311.977178 
L 44.36374 320.300637 
L 43.563631 321.234097 
" clip-path="url(#pcb56806dd5)" style="fill: #0000ff"/>
    <path d="M 43.529013 301.715987 
L 35.517118 293.704092 
L 35.082445 295.00811 
L 32.039736 289.357365 
L 37.690481 292.400074 
L 36.386463 292.834747 
L 44.398358 300.846642 
L 43.529013 301.715987 
" clip-path="url(#pcb56806dd5)" style="fill: #0000ff"/>
    <path d="M 43.491445 282.188796 
L 37.096628 274.515016 
L 36.54568 275.774325 
L 34.027061 269.871313 
L 39.379126 273.41312 
L 38.041109 273.727947 
L 44.435927 281.401728 
L 43.491445 282.188796 
" clip-path="url(#pcb56806dd5)" style="fill: #0000ff"/>
    <path d="M 43.452208 262.650195 
L 38.571776 255.329547 
L 37.889805 256.522996 
L 36.014386 250.38526 
L 40.958673 254.477084 
L 39.594732 254.647577 
L 44.475164 261.968224 
L 43.452208 262.650195 
" clip-path="url(#pcb56806dd5)" style="fill: #0000ff"/>
    <path d="M 43.413863 243.098068 
L 39.926089 236.12252 
L 39.101355 237.222164 
L 38.001711 230.899208 
L 42.400289 235.572697 
L 41.025733 235.572697 
L 44.513508 242.548246 
L 43.413863 243.098068 
" clip-path="url(#pcb56806dd5)" style="fill: #0000ff"/>
    <path d="M 43.380511 223.531496 
L 41.155385 216.856118 
L 40.183427 217.828076 
L 39.989036 211.413155 
L 43.682475 216.661727 
L 42.321734 216.467335 
L 44.54686 223.142713 
L 43.380511 223.531496 
" clip-path="url(#pcb56806dd5)" style="fill: #0000ff"/>
    <path d="M 43.357329 203.952112 
L 42.279539 197.485367 
L 41.167886 198.293842 
L 41.976361 191.927103 
L 44.806022 197.687486 
L 43.492251 197.283248 
L 44.570042 203.749993 
L 43.357329 203.952112 
" clip-path="url(#pcb56806dd5)" style="fill: #0000ff"/>
    <path d="M 43.348966 184.365 
L 43.348966 177.973531 
L 42.119526 178.588251 
L 43.963686 172.441051 
L 45.807846 178.588251 
L 44.578406 177.973531 
L 44.578406 184.365 
L 43.348966 184.365 
" clip-path="url(#pcb56806dd5)" style="fill: #0000ff"/>
    <path d="M 43.357329 164.777888 
L 44.43512 158.311144 
L 43.121349 158.715381 
L 45.95101 152.954998 
L 46.759485 159.321737 
L 45.647832 158.513262 
L 44.570042 164.980007 
L 43.357329 164.777888 
" clip-path="url(#pcb56806dd5)" style="fill: #0000ff"/>
    <path d="M 43.380511 145.198504 
L 45.605637 138.523126 
L 44.244896 138.717517 
L 47.938335 133.468946 
L 47.743944 139.883866 
L 46.771986 138.911909 
L 44.54686 145.587287 
L 43.380511 145.198504 
" clip-path="url(#pcb56806dd5)" style="fill: #0000ff"/>
    <path d="M 43.413863 125.631932 
L 46.901638 118.656383 
L 45.527082 118.656383 
L 49.92566 113.982893 
L 48.826016 120.30585 
L 48.001282 119.206205 
L 44.513508 126.181754 
L 43.413863 125.631932 
" clip-path="url(#pcb56806dd5)" style="fill: #0000ff"/>
    <path d="M 43.452208 106.079805 
L 48.332639 98.759157 
L 46.968698 98.588665 
L 51.912985 94.496841 
L 50.037566 100.634577 
L 49.355595 99.441128 
L 44.475164 106.761776 
L 43.452208 106.079805 
" clip-path="url(#pcb56806dd5)" style="fill: #0000ff"/>
    <path d="M 43.491445 86.541204 
L 49.886262 78.867423 
L 48.548245 78.552596 
L 53.90031 75.010789 
L 51.381691 80.913801 
L 50.830744 79.654492 
L 44.435927 87.328272 
L 43.491445 86.541204 
" clip-path="url(#pcb56806dd5)" style="fill: #0000ff"/>
    <path d="M 43.529013 67.014013 
L 51.540908 59.002118 
L 50.23689 58.567445 
L 55.887635 55.524736 
L 52.844926 61.175481 
L 52.410253 59.871463 
L 44.398358 67.883358 
L 43.529013 67.014013 
" clip-path="url(#pcb56806dd5)" style="fill: #0000ff"/>
    <path d="M 43.563631 47.495903 
L 53.274333 39.172444 
L 52.007494 38.639038 
L 57.87496 36.038684 
L 54.407821 41.439419 
L 54.074442 40.105904 
L 44.36374 48.429363 
L 43.563631 47.495903 
" clip-path="url(#pcb56806dd5)" style="fill: #0000ff"/>
    <path d="M 63.092439 321.267585 
L 53.683129 314.546649 
L 53.46875 315.904385 
L 49.538464 310.830742 
L 55.612542 312.903075 
L 54.397727 313.546213 
L 63.807037 320.267149 
L 63.092439 321.267585 
" clip-path="url(#pcb56806dd5)" style="fill: #0000ff"/>
    <path d="M 63.056204 301.753555 
L 55.382423 295.358738 
L 55.067596 296.696755 
L 51.525789 291.34469 
L 57.428801 293.863309 
L 56.169492 294.414256 
L 63.843272 300.809073 
L 63.056204 301.753555 
" clip-path="url(#pcb56806dd5)" style="fill: #0000ff"/>
    <path d="M 63.015065 282.229935 
L 56.990495 276.205364 
L 56.555822 277.509382 
L 53.513114 271.858638 
L 59.163858 274.901346 
L 57.85984 275.336019 
L 63.884411 281.360589 
L 63.015065 282.229935 
" clip-path="url(#pcb56806dd5)" style="fill: #0000ff"/>
    <path d="M 62.969722 262.693222 
L 58.476536 257.076739 
L 57.900517 258.32478 
L 55.500438 252.372585 
L 60.780611 256.020704 
L 59.436567 256.308714 
L 63.929754 261.925197 
L 62.969722 262.693222 
" clip-path="url(#pcb56806dd5)" style="fill: #0000ff"/>
    <path d="M 62.92262 243.139428 
L 59.807083 237.946866 
L 59.069117 239.106526 
L 57.487763 232.886533 
L 62.231826 237.208901 
L 60.861319 237.314324 
L 63.976856 242.506886 
L 62.92262 243.139428 
" clip-path="url(#pcb56806dd5)" style="fill: #0000ff"/>
    <path d="M 62.878985 223.565406 
L 60.959046 218.76556 
L 60.045841 219.792916 
L 59.475088 213.40048 
L 63.470361 218.423108 
L 62.100553 218.308958 
L 64.020491 223.108804 
L 62.878985 223.565406 
" clip-path="url(#pcb56806dd5)" style="fill: #0000ff"/>
    <path d="M 62.846955 203.971609 
L 61.944639 199.460027 
L 60.859631 200.303923 
L 61.462413 193.914428 
L 64.476326 199.580584 
L 63.150204 199.218914 
L 64.052521 203.730496 
L 62.846955 203.971609 
" clip-path="url(#pcb56806dd5)" style="fill: #0000ff"/>
    <path d="M 62.835018 184.365 
L 62.835018 179.960856 
L 61.605578 180.575576 
L 63.449738 174.428376 
L 65.293898 180.575576 
L 64.064458 179.960856 
L 64.064458 184.365 
L 62.835018 184.365 
" clip-path="url(#pcb56806dd5)" style="fill: #0000ff"/>
    <path d="M 62.846955 164.758391 
L 63.749272 160.24681 
L 62.42315 160.608479 
L 65.437063 154.942323 
L 66.039845 161.331818 
L 64.954837 160.487923 
L 64.052521 164.999504 
L 62.846955 164.758391 
" clip-path="url(#pcb56806dd5)" style="fill: #0000ff"/>
    <path d="M 62.878985 145.164594 
L 64.798923 140.364748 
L 63.429115 140.478899 
L 67.424388 135.456271 
L 66.853635 141.848706 
L 65.940429 140.821351 
L 64.020491 145.621196 
L 62.878985 145.164594 
" clip-path="url(#pcb56806dd5)" style="fill: #0000ff"/>
    <path d="M 62.92262 125.590572 
L 66.038157 120.39801 
L 64.66765 120.292586 
L 69.411713 115.970218 
L 67.830358 122.190211 
L 67.092393 121.030552 
L 63.976856 126.223114 
L 62.92262 125.590572 
" clip-path="url(#pcb56806dd5)" style="fill: #0000ff"/>
    <path d="M 62.969722 106.036778 
L 67.462909 100.420294 
L 66.118865 100.132285 
L 71.399038 96.484166 
L 68.998959 102.43636 
L 68.42294 101.18832 
L 63.929754 106.804803 
L 62.969722 106.036778 
" clip-path="url(#pcb56806dd5)" style="fill: #0000ff"/>
    <path d="M 63.015065 86.500065 
L 69.039636 80.475495 
L 67.735618 80.040822 
L 73.386362 76.998114 
L 70.343654 82.648858 
L 69.908981 81.34484 
L 63.884411 87.369411 
L 63.015065 86.500065 
" clip-path="url(#pcb56806dd5)" style="fill: #0000ff"/>
    <path d="M 63.056204 66.976445 
L 70.729984 60.581628 
L 69.470675 60.03068 
L 75.373687 57.512061 
L 71.83188 62.864126 
L 71.517053 61.526109 
L 63.843272 67.920927 
L 63.056204 66.976445 
" clip-path="url(#pcb56806dd5)" style="fill: #0000ff"/>
    <path d="M 63.092439 47.462415 
L 72.501749 40.741479 
L 71.286934 40.098341 
L 77.361012 38.026009 
L 73.430726 43.099651 
L 73.216347 41.741916 
L 63.807037 48.462851 
L 63.092439 47.462415 
" clip-path="url(#pcb56806dd5)" style="fill: #0000ff"/>
    <path d="M 82.630804 321.301093 
L 73.523067 316.096672 
L 73.446821 317.469112 
L 69.024516 312.818067 
L 75.27674 314.266753 
L 74.13304 315.02922 
L 83.240777 320.23364 
L 82.630804 321.301093 
" clip-path="url(#pcb56806dd5)" style="fill: #0000ff"/>
    <path d="M 82.594805 301.792792 
L 75.274157 296.912361 
L 75.103665 298.276302 
L 71.011841 293.332015 
L 77.149577 295.207434 
L 75.956128 295.889405 
L 83.276776 300.769836 
L 82.594805 301.792792 
" clip-path="url(#pcb56806dd5)" style="fill: #0000ff"/>
    <path d="M 82.551778 282.275278 
L 76.935294 277.782091 
L 76.647285 279.126135 
L 72.999166 273.845962 
L 78.95136 276.246041 
L 77.70332 276.82206 
L 83.319803 281.315246 
L 82.551778 282.275278 
" clip-path="url(#pcb56806dd5)" style="fill: #0000ff"/>
    <path d="M 82.501118 262.743882 
L 78.463872 258.706637 
L 78.0292 260.010655 
L 74.986491 254.35991 
L 80.637236 257.402619 
L 79.333218 257.837292 
L 83.370463 261.874537 
L 82.501118 262.743882 
" clip-path="url(#pcb56806dd5)" style="fill: #0000ff"/>
    <path d="M 82.444014 243.191989 
L 79.801528 239.668674 
L 79.186808 240.898114 
L 76.973816 234.873858 
L 82.137464 238.685122 
L 80.78508 238.93101 
L 83.427566 242.454325 
L 82.444014 243.191989 
" clip-path="url(#pcb56806dd5)" style="fill: #0000ff"/>
    <path d="M 82.385968 223.612016 
L 80.885519 220.611117 
L 80.060785 221.710762 
L 78.961141 215.387805 
L 83.359719 220.061295 
L 81.985163 220.061295 
L 83.485613 223.062194 
L 82.385968 223.612016 
" clip-path="url(#pcb56806dd5)" style="fill: #0000ff"/>
    <path d="M 82.339424 204.000144 
L 81.693923 201.418138 
L 80.650282 202.312687 
L 80.948465 195.901753 
L 84.228478 201.418138 
L 82.886655 201.119955 
L 83.532156 203.701961 
L 82.339424 204.000144 
" clip-path="url(#pcb56806dd5)" style="fill: #0000ff"/>
    <path d="M 82.32107 184.365 
L 82.32107 181.94818 
L 81.09163 182.5629 
L 82.93579 176.4157 
L 84.77995 182.5629 
L 83.55051 181.94818 
L 83.55051 184.365 
L 82.32107 184.365 
" clip-path="url(#pcb56806dd5)" style="fill: #0000ff"/>
    <path d="M 82.339424 164.729856 
L 82.984926 162.147851 
L 81.643102 162.446034 
L 84.923115 156.929648 
L 85.221298 163.340583 
L 84.177658 162.446034 
L 83.532156 165.028039 
L 82.339424 164.729856 
" clip-path="url(#pcb56806dd5)" style="fill: #0000ff"/>
    <path d="M 82.385968 145.117984 
L 83.886418 142.117085 
L 82.511862 142.117085 
L 86.91044 137.443596 
L 85.810796 143.766552 
L 84.986062 142.666907 
L 83.485613 145.667806 
L 82.385968 145.117984 
" clip-path="url(#pcb56806dd5)" style="fill: #0000ff"/>
    <path d="M 82.444014 125.538011 
L 85.086501 122.014695 
L 83.734117 121.768807 
L 88.897765 117.957543 
L 86.684773 123.981799 
L 86.070053 122.752359 
L 83.427566 126.275675 
L 82.444014 125.538011 
" clip-path="url(#pcb56806dd5)" style="fill: #0000ff"/>
    <path d="M 82.501118 105.986118 
L 86.538363 101.948872 
L 85.234345 101.5142 
L 90.88509 98.471491 
L 87.842381 104.122236 
L 87.407708 102.818218 
L 83.370463 106.855463 
L 82.501118 105.986118 
" clip-path="url(#pcb56806dd5)" style="fill: #0000ff"/>
    <path d="M 82.551778 86.454722 
L 88.168261 81.961536 
L 86.92022 81.385517 
L 92.872415 78.985438 
L 89.224296 84.265611 
L 88.936286 82.921567 
L 83.319803 87.414754 
L 82.551778 86.454722 
" clip-path="url(#pcb56806dd5)" style="fill: #0000ff"/>
    <path d="M 82.594805 66.937208 
L 89.915453 62.056776 
L 88.722004 61.374805 
L 94.85974 59.499386 
L 90.767916 64.443673 
L 90.597423 63.079732 
L 83.276776 67.960164 
L 82.594805 66.937208 
" clip-path="url(#pcb56806dd5)" style="fill: #0000ff"/>
    <path d="M 82.630804 47.428907 
L 91.73854 42.224486 
L 90.594841 41.46202 
L 96.847065 40.013334 
L 92.42476 44.664378 
L 92.348513 43.291939 
L 83.240777 48.49636 
L 82.630804 47.428907 
" clip-path="url(#pcb56806dd5)" style="fill: #0000ff"/>
    <path d="M 102.179693 321.332384 
L 93.35357 317.54976 
L 93.434287 318.921943 
L 88.510569 314.805392 
L 94.887187 315.531842 
L 93.83787 316.419726 
L 102.663993 320.20235 
L 102.179693 321.332384 
" clip-path="url(#pcb56806dd5)" style="fill: #0000ff"/>
    <path d="M 102.146932 301.831137 
L 95.171383 298.343362 
L 95.171383 299.717918 
L 90.497893 295.31934 
L 96.82085 296.418984 
L 95.721205 297.243718 
L 102.696754 300.731492 
L 102.146932 301.831137 
" clip-path="url(#pcb56806dd5)" style="fill: #0000ff"/>
    <path d="M 102.105572 282.32238 
L 96.91301 279.206843 
L 96.807586 280.57735 
L 92.485218 275.833287 
L 98.705211 277.414642 
L 97.545552 278.152607 
L 102.738114 281.268144 
L 102.105572 282.32238 
" clip-path="url(#pcb56806dd5)" style="fill: #0000ff"/>
    <path d="M 102.053011 262.800986 
L 98.529695 260.158499 
L 98.283807 261.510883 
L 94.472543 256.347235 
L 100.496799 258.560227 
L 99.267359 259.174947 
L 102.790675 261.817434 
L 102.053011 262.800986 
" clip-path="url(#pcb56806dd5)" style="fill: #0000ff"/>
    <path d="M 101.98717 243.25783 
L 99.93725 241.207909 
L 99.502577 242.511927 
L 96.459868 236.861183 
L 102.110613 239.903891 
L 100.806595 240.338564 
L 102.856515 242.388485 
L 101.98717 243.25783 
" clip-path="url(#pcb56806dd5)" style="fill: #0000ff"/>
    <path d="M 101.910365 223.67809 
L 101.004583 222.319417 
L 100.322612 223.512866 
L 98.447193 217.37513 
L 103.39148 221.466954 
L 102.027539 221.637446 
L 102.933321 222.99612 
L 101.910365 223.67809 
" clip-path="url(#pcb56806dd5)" style="fill: #0000ff"/>
    <path d="M 101.838668 204.045444 
L 101.600867 203.332041 
L 100.628909 204.303998 
L 100.434518 197.889078 
L 104.127957 203.137649 
L 102.767216 202.943258 
L 103.005017 203.656661 
L 101.838668 204.045444 
" clip-path="url(#pcb56806dd5)" style="fill: #0000ff"/>
    <path d="M 101.825645 184.365 
L 101.825645 183.768803 
L 100.63325 184.365 
L 102.421843 178.403025 
L 104.210435 184.365 
L 103.01804 183.768803 
L 103.01804 184.365 
L 101.825645 184.365 
" clip-path="url(#pcb56806dd5)" style="fill: #0000ff"/>
    <path d="M 101.838668 164.684556 
L 102.076469 163.971153 
L 100.715729 164.165544 
L 104.409168 158.916973 
L 104.214776 165.331893 
L 103.242818 164.359936 
L 103.005017 165.073339 
L 101.838668 164.684556 
" clip-path="url(#pcb56806dd5)" style="fill: #0000ff"/>
    <path d="M 101.910365 145.05191 
L 102.816147 143.693237 
L 101.452206 143.522744 
L 106.396493 139.430921 
L 104.521073 145.568656 
L 103.839103 144.375207 
L 102.933321 145.73388 
L 101.910365 145.05191 
" clip-path="url(#pcb56806dd5)" style="fill: #0000ff"/>
    <path d="M 101.98717 125.47217 
L 104.037091 123.42225 
L 102.733073 122.987577 
L 108.383817 119.944868 
L 105.341109 125.595613 
L 104.906436 124.291595 
L 102.856515 126.341515 
L 101.98717 125.47217 
" clip-path="url(#pcb56806dd5)" style="fill: #0000ff"/>
    <path d="M 102.053011 105.929014 
L 105.576326 103.286528 
L 104.346886 102.671808 
L 110.371142 100.458816 
L 106.559878 105.622464 
L 106.31399 104.27008 
L 102.790675 106.912566 
L 102.053011 105.929014 
" clip-path="url(#pcb56806dd5)" style="fill: #0000ff"/>
    <path d="M 102.105572 86.40762 
L 107.298134 83.292083 
L 106.138474 82.554117 
L 112.358467 80.972763 
L 108.036099 85.716826 
L 107.930676 84.346319 
L 102.738114 87.461856 
L 102.105572 86.40762 
" clip-path="url(#pcb56806dd5)" style="fill: #0000ff"/>
    <path d="M 102.146932 66.898863 
L 109.12248 63.411089 
L 108.022836 62.586355 
L 114.345792 61.486711 
L 109.672303 65.885289 
L 109.672303 64.510733 
L 102.696754 67.998508 
L 102.146932 66.898863 
" clip-path="url(#pcb56806dd5)" style="fill: #0000ff"/>
    <path d="M 102.179693 47.397616 
L 111.005815 43.614992 
L 109.956498 42.727109 
L 116.333117 42.000658 
L 111.409399 46.11721 
L 111.490116 44.745026 
L 102.663993 48.52765 
L 102.179693 47.397616 
" clip-path="url(#pcb56806dd5)" style="fill: #0000ff"/>
    <path d="M 121.739019 321.358435 
L 113.147356 318.903674 
L 113.400671 320.254687 
L 107.996621 316.792717 
L 114.413931 316.708279 
L 113.48511 317.721538 
L 122.076772 320.176299 
L 121.739019 321.358435 
" clip-path="url(#pcb56806dd5)" style="fill: #0000ff"/>
    <path d="M 121.713504 301.864489 
L 115.038126 299.639363 
L 115.232517 301.000104 
L 109.983946 297.306665 
L 116.398866 297.501056 
L 115.426909 298.473014 
L 122.102287 300.69814 
L 121.713504 301.864489 
" clip-path="url(#pcb56806dd5)" style="fill: #0000ff"/>
    <path d="M 121.679594 282.366015 
L 116.879748 280.446077 
L 116.993899 281.815885 
L 111.971271 277.820612 
L 118.363706 278.391365 
L 117.336351 279.304571 
L 122.136196 281.224509 
L 121.679594 282.366015 
" clip-path="url(#pcb56806dd5)" style="fill: #0000ff"/>
    <path d="M 121.632984 262.859032 
L 118.632085 261.358582 
L 118.632085 262.733138 
L 113.958596 258.33456 
L 120.281552 259.434204 
L 119.181907 260.258938 
L 122.182806 261.759387 
L 121.632984 262.859032 
" clip-path="url(#pcb56806dd5)" style="fill: #0000ff"/>
    <path d="M 121.56691 243.334635 
L 120.208237 242.428853 
L 120.037744 243.792794 
L 115.945921 238.848507 
L 122.083656 240.723927 
L 120.890207 241.405897 
L 122.24888 242.311679 
L 121.56691 243.334635 
" clip-path="url(#pcb56806dd5)" style="fill: #0000ff"/>
    <path d="M 121.51043 223.73457 
L 121.112965 223.337105 
L 120.7155 224.5295 
L 117.933245 219.362455 
L 123.10029 222.14471 
L 121.907895 222.542175 
L 122.30536 222.93964 
L 121.51043 223.73457 
" clip-path="url(#pcb56806dd5)" style="fill: #0000ff"/>
    <path d="M 121.51043 204.049785 
L 121.311698 203.65232 
L 120.7155 204.44725 
L 119.92057 199.876403 
L 123.10029 203.254855 
L 122.106628 203.254855 
L 122.30536 203.65232 
L 121.51043 204.049785 
" clip-path="url(#pcb56806dd5)" style="fill: #0000ff"/>
    <path d="M 121.51043 184.365 
L 121.51043 183.967535 
L 120.7155 184.365 
L 121.907895 180.39035 
L 123.10029 184.365 
L 122.30536 183.967535 
L 122.30536 184.365 
L 121.51043 184.365 
" clip-path="url(#pcb56806dd5)" style="fill: #0000ff"/>
    <path d="M 121.51043 164.680215 
L 121.709163 164.28275 
L 120.7155 164.28275 
L 123.89522 160.904298 
L 123.10029 165.475145 
L 122.504093 164.680215 
L 122.30536 165.07768 
L 121.51043 164.680215 
" clip-path="url(#pcb56806dd5)" style="fill: #0000ff"/>
    <path d="M 121.51043 144.99543 
L 121.907895 144.597965 
L 120.7155 144.2005 
L 125.882545 141.418245 
L 123.10029 146.58529 
L 122.702825 145.392895 
L 122.30536 145.79036 
L 121.51043 144.99543 
" clip-path="url(#pcb56806dd5)" style="fill: #0000ff"/>
    <path d="M 121.56691 125.395365 
L 122.925583 124.489583 
L 121.732134 123.807612 
L 127.86987 121.932193 
L 123.778046 126.87648 
L 123.607554 125.512539 
L 122.24888 126.418321 
L 121.56691 125.395365 
" clip-path="url(#pcb56806dd5)" style="fill: #0000ff"/>
    <path d="M 121.632984 105.870968 
L 124.633883 104.370519 
L 123.534238 103.545785 
L 129.857195 102.446141 
L 125.183705 106.844719 
L 125.183705 105.470163 
L 122.182806 106.970613 
L 121.632984 105.870968 
" clip-path="url(#pcb56806dd5)" style="fill: #0000ff"/>
    <path d="M 121.679594 86.363985 
L 126.47944 84.444046 
L 125.452084 83.530841 
L 131.84452 82.960088 
L 126.821892 86.955361 
L 126.936042 85.585553 
L 122.136196 87.505491 
L 121.679594 86.363985 
" clip-path="url(#pcb56806dd5)" style="fill: #0000ff"/>
    <path d="M 121.713504 66.865511 
L 128.388882 64.640385 
L 127.416924 63.668427 
L 133.831845 63.474036 
L 128.583273 67.167475 
L 128.777665 65.806734 
L 122.102287 68.03186 
L 121.713504 66.865511 
" clip-path="url(#pcb56806dd5)" style="fill: #0000ff"/>
    <path d="M 121.739019 47.371565 
L 130.330681 44.916805 
L 129.40186 43.903545 
L 135.819169 43.987983 
L 130.415119 47.449953 
L 130.668434 46.098941 
L 122.076772 48.553701 
L 121.739019 47.371565 
" clip-path="url(#pcb56806dd5)" style="fill: #0000ff"/>
    <path d="M 141.307013 321.375909 
L 132.872615 320.170995 
L 133.307287 321.475013 
L 127.482673 318.780042 
L 133.828895 317.823762 
L 133.046484 318.953911 
L 141.480882 320.158825 
L 141.307013 321.375909 
" clip-path="url(#pcb56806dd5)" style="fill: #0000ff"/>
    <path d="M 141.292888 301.887671 
L 134.826144 300.80988 
L 135.230381 302.123651 
L 129.469998 299.29399 
L 135.836737 298.485515 
L 135.028262 299.597168 
L 141.495007 300.674958 
L 141.292888 301.887671 
" clip-path="url(#pcb56806dd5)" style="fill: #0000ff"/>
    <path d="M 141.273391 282.398045 
L 136.76181 281.495728 
L 137.123479 282.82185 
L 131.457323 279.807937 
L 137.846818 279.205155 
L 137.002923 280.290163 
L 141.514504 281.192479 
L 141.273391 282.398045 
" clip-path="url(#pcb56806dd5)" style="fill: #0000ff"/>
    <path d="M 141.244856 262.905576 
L 138.662851 262.260074 
L 138.961034 263.601898 
L 133.444648 260.321885 
L 139.855583 260.023702 
L 138.961034 261.067342 
L 141.543039 261.712844 
L 141.244856 262.905576 
" clip-path="url(#pcb56806dd5)" style="fill: #0000ff"/>
    <path d="M 141.199556 243.406332 
L 140.486153 243.168531 
L 140.680544 244.529271 
L 135.431973 240.835832 
L 141.846893 241.030224 
L 140.874936 242.002182 
L 141.588339 242.239983 
L 141.199556 243.406332 
" clip-path="url(#pcb56806dd5)" style="fill: #0000ff"/>
    <path d="M 141.195215 223.73457 
L 140.79775 223.535837 
L 140.79775 224.5295 
L 137.419298 221.34978 
L 141.990145 222.14471 
L 141.195215 222.740907 
L 141.59268 222.93964 
L 141.195215 223.73457 
" clip-path="url(#pcb56806dd5)" style="fill: #0000ff"/>
    <path d="M 141.195215 204.049785 
L 140.996483 203.851052 
L 140.79775 204.44725 
L 139.406623 201.863728 
L 141.990145 203.254855 
L 141.393948 203.453587 
L 141.59268 203.65232 
L 141.195215 204.049785 
" clip-path="url(#pcb56806dd5)" style="fill: #0000ff"/>
    <path d="M 141.195215 184.365 
L 141.195215 184.166268 
L 140.79775 184.365 
L 141.393948 182.377675 
L 141.990145 184.365 
L 141.59268 184.166268 
L 141.59268 184.365 
L 141.195215 184.365 
" clip-path="url(#pcb56806dd5)" style="fill: #0000ff"/>
    <path d="M 141.195215 164.680215 
L 141.393948 164.481483 
L 140.79775 164.28275 
L 143.381272 162.891623 
L 141.990145 165.475145 
L 141.791413 164.878948 
L 141.59268 165.07768 
L 141.195215 164.680215 
" clip-path="url(#pcb56806dd5)" style="fill: #0000ff"/>
    <path d="M 141.195215 144.99543 
L 141.59268 144.796698 
L 140.79775 144.2005 
L 145.368597 143.40557 
L 141.990145 146.58529 
L 141.990145 145.591628 
L 141.59268 145.79036 
L 141.195215 144.99543 
" clip-path="url(#pcb56806dd5)" style="fill: #0000ff"/>
    <path d="M 141.199556 125.323668 
L 141.912959 125.085867 
L 140.941002 124.113909 
L 147.355922 123.919518 
L 142.107351 127.612957 
L 142.301742 126.252216 
L 141.588339 126.490017 
L 141.199556 125.323668 
" clip-path="url(#pcb56806dd5)" style="fill: #0000ff"/>
    <path d="M 141.244856 105.824424 
L 143.826862 105.178923 
L 142.932313 104.135282 
L 149.343247 104.433465 
L 143.826862 107.713478 
L 144.125045 106.371655 
L 141.543039 107.017156 
L 141.244856 105.824424 
" clip-path="url(#pcb56806dd5)" style="fill: #0000ff"/>
    <path d="M 141.273391 86.331955 
L 145.784973 85.429639 
L 144.941077 84.344631 
L 151.330572 84.947413 
L 145.664416 87.961326 
L 146.026086 86.635204 
L 141.514504 87.537521 
L 141.273391 86.331955 
" clip-path="url(#pcb56806dd5)" style="fill: #0000ff"/>
    <path d="M 141.292888 66.842329 
L 147.759633 65.764539 
L 146.951158 64.652886 
L 153.317897 65.461361 
L 147.557514 68.291022 
L 147.961752 66.977251 
L 141.495007 68.055042 
L 141.292888 66.842329 
" clip-path="url(#pcb56806dd5)" style="fill: #0000ff"/>
    <path d="M 141.307013 47.354091 
L 149.741411 46.149177 
L 148.959001 45.019028 
L 155.305222 45.975308 
L 149.480608 48.670279 
L 149.915281 47.366261 
L 141.480882 48.571175 
L 141.307013 47.354091 
" clip-path="url(#pcb56806dd5)" style="fill: #0000ff"/>
    <path d="M 160.88 321.382087 
L 152.501206 321.382087 
L 153.115926 322.611527 
L 146.968726 320.767367 
L 153.115926 318.923207 
L 152.501206 320.152647 
L 160.88 320.152647 
L 160.88 321.382087 
" clip-path="url(#pcb56806dd5)" style="fill: #0000ff"/>
    <path d="M 160.88 301.896034 
L 154.488531 301.896034 
L 155.103251 303.125474 
L 148.956051 301.281314 
L 155.103251 299.437154 
L 154.488531 300.666594 
L 160.88 300.666594 
L 160.88 301.896034 
" clip-path="url(#pcb56806dd5)" style="fill: #0000ff"/>
    <path d="M 160.88 282.409982 
L 156.475856 282.409982 
L 157.090576 283.639422 
L 150.943376 281.795262 
L 157.090576 279.951102 
L 156.475856 281.180542 
L 160.88 281.180542 
L 160.88 282.409982 
" clip-path="url(#pcb56806dd5)" style="fill: #0000ff"/>
    <path d="M 160.88 262.92393 
L 158.46318 262.92393 
L 159.0779 264.15337 
L 152.9307 262.30921 
L 159.0779 260.46505 
L 158.46318 261.69449 
L 160.88 261.69449 
L 160.88 262.92393 
" clip-path="url(#pcb56806dd5)" style="fill: #0000ff"/>
    <path d="M 160.88 243.419355 
L 160.283803 243.419355 
L 160.88 244.61175 
L 154.918025 242.823157 
L 160.88 241.034565 
L 160.283803 242.22696 
L 160.88 242.22696 
L 160.88 243.419355 
" clip-path="url(#pcb56806dd5)" style="fill: #0000ff"/>
    <path d="M 160.88 223.73457 
L 160.482535 223.73457 
L 160.88 224.5295 
L 156.90535 223.337105 
L 160.88 222.14471 
L 160.482535 222.93964 
L 160.88 222.93964 
L 160.88 223.73457 
" clip-path="url(#pcb56806dd5)" style="fill: #0000ff"/>
    <path d="M 160.88 204.049785 
L 160.681268 204.049785 
L 160.88 204.44725 
L 158.892675 203.851052 
L 160.88 203.254855 
L 160.681268 203.65232 
L 160.88 203.65232 
L 160.88 204.049785 
" clip-path="url(#pcb56806dd5)" style="fill: #0000ff"/>
    <path d="M 161.49472 184.365 
L 161.18736 183.832637 
L 160.57264 183.832637 
L 160.26528 184.365 
L 160.57264 184.897363 
L 161.18736 184.897363 
L 161.49472 184.365 
L 161.18736 183.832637 
" clip-path="url(#pcb56806dd5)" style="fill: #0000ff"/>
    <path d="M 160.88 164.680215 
L 161.078732 164.680215 
L 160.88 164.28275 
L 162.867325 164.878948 
L 160.88 165.475145 
L 161.078732 165.07768 
L 160.88 165.07768 
L 160.88 164.680215 
" clip-path="url(#pcb56806dd5)" style="fill: #0000ff"/>
    <path d="M 160.88 144.99543 
L 161.277465 144.99543 
L 160.88 144.2005 
L 164.85465 145.392895 
L 160.88 146.58529 
L 161.277465 145.79036 
L 160.88 145.79036 
L 160.88 144.99543 
" clip-path="url(#pcb56806dd5)" style="fill: #0000ff"/>
    <path d="M 160.88 125.310645 
L 161.476197 125.310645 
L 160.88 124.11825 
L 166.841975 125.906843 
L 160.88 127.695435 
L 161.476197 126.50304 
L 160.88 126.50304 
L 160.88 125.310645 
" clip-path="url(#pcb56806dd5)" style="fill: #0000ff"/>
    <path d="M 160.88 105.80607 
L 163.29682 105.80607 
L 162.6821 104.57663 
L 168.8293 106.42079 
L 162.6821 108.26495 
L 163.29682 107.03551 
L 160.88 107.03551 
L 160.88 105.80607 
" clip-path="url(#pcb56806dd5)" style="fill: #0000ff"/>
    <path d="M 160.88 86.320018 
L 165.284144 86.320018 
L 164.669424 85.090578 
L 170.816624 86.934738 
L 164.669424 88.778898 
L 165.284144 87.549458 
L 160.88 87.549458 
L 160.88 86.320018 
" clip-path="url(#pcb56806dd5)" style="fill: #0000ff"/>
    <path d="M 160.88 66.833966 
L 167.271469 66.833966 
L 166.656749 65.604526 
L 172.803949 67.448686 
L 166.656749 69.292846 
L 167.271469 68.063406 
L 160.88 68.063406 
L 160.88 66.833966 
" clip-path="url(#pcb56806dd5)" style="fill: #0000ff"/>
    <path d="M 160.88 47.347913 
L 169.258794 47.347913 
L 168.644074 46.118473 
L 174.791274 47.962633 
L 168.644074 49.806793 
L 169.258794 48.577353 
L 160.88 48.577353 
L 160.88 47.347913 
" clip-path="url(#pcb56806dd5)" style="fill: #0000ff"/>
    <path d="M 180.452987 321.375909 
L 172.018589 322.580823 
L 172.800999 323.710972 
L 166.454778 322.754692 
L 172.279392 320.059721 
L 171.844719 321.363739 
L 180.279118 320.158825 
L 180.452987 321.375909 
" clip-path="url(#pcb56806dd5)" style="fill: #0000ff"/>
    <path d="M 180.467112 301.887671 
L 174.000367 302.965461 
L 174.808842 304.077114 
L 168.442103 303.268639 
L 174.202486 300.438978 
L 173.798248 301.752749 
L 180.264993 300.674958 
L 180.467112 301.887671 
" clip-path="url(#pcb56806dd5)" style="fill: #0000ff"/>
    <path d="M 180.486609 282.398045 
L 175.975027 283.300361 
L 176.818923 284.385369 
L 170.429428 283.782587 
L 176.095584 280.768674 
L 175.733914 282.094796 
L 180.245496 281.192479 
L 180.486609 282.398045 
" clip-path="url(#pcb56806dd5)" style="fill: #0000ff"/>
    <path d="M 180.515144 262.905576 
L 177.933138 263.551077 
L 178.827687 264.594718 
L 172.416753 264.296535 
L 177.933138 261.016522 
L 177.634955 262.358345 
L 180.216961 261.712844 
L 180.515144 262.905576 
" clip-path="url(#pcb56806dd5)" style="fill: #0000ff"/>
    <path d="M 180.560444 243.406332 
L 179.847041 243.644133 
L 180.818998 244.616091 
L 174.404078 244.810482 
L 179.652649 241.117043 
L 179.458258 242.477784 
L 180.171661 242.239983 
L 180.560444 243.406332 
" clip-path="url(#pcb56806dd5)" style="fill: #0000ff"/>
    <path d="M 180.564785 223.73457 
L 180.16732 223.933302 
L 180.96225 224.5295 
L 176.391403 225.32443 
L 179.769855 222.14471 
L 179.769855 223.138372 
L 180.16732 222.93964 
L 180.564785 223.73457 
" clip-path="url(#pcb56806dd5)" style="fill: #0000ff"/>
    <path d="M 180.564785 204.049785 
L 180.366052 204.248517 
L 180.96225 204.44725 
L 178.378728 205.838377 
L 179.769855 203.254855 
L 179.968587 203.851052 
L 180.16732 203.65232 
L 180.564785 204.049785 
" clip-path="url(#pcb56806dd5)" style="fill: #0000ff"/>
    <path d="M 180.564785 184.365 
L 180.564785 184.563732 
L 180.96225 184.365 
L 180.366052 186.352325 
L 179.769855 184.365 
L 180.16732 184.563732 
L 180.16732 184.365 
L 180.564785 184.365 
" clip-path="url(#pcb56806dd5)" style="fill: #0000ff"/>
    <path d="M 180.564785 164.680215 
L 180.763517 164.878948 
L 180.96225 164.28275 
L 182.353377 166.866272 
L 179.769855 165.475145 
L 180.366052 165.276413 
L 180.16732 165.07768 
L 180.564785 164.680215 
" clip-path="url(#pcb56806dd5)" style="fill: #0000ff"/>
    <path d="M 180.564785 144.99543 
L 180.96225 145.194163 
L 180.96225 144.2005 
L 184.340702 147.38022 
L 179.769855 146.58529 
L 180.564785 145.989093 
L 180.16732 145.79036 
L 180.564785 144.99543 
" clip-path="url(#pcb56806dd5)" style="fill: #0000ff"/>
    <path d="M 180.560444 125.323668 
L 181.273847 125.561469 
L 181.079456 124.200729 
L 186.328027 127.894168 
L 179.913107 127.699776 
L 180.885064 126.727818 
L 180.171661 126.490017 
L 180.560444 125.323668 
" clip-path="url(#pcb56806dd5)" style="fill: #0000ff"/>
    <path d="M 180.515144 105.824424 
L 183.097149 106.469926 
L 182.798966 105.128102 
L 188.315352 108.408115 
L 181.904417 108.706298 
L 182.798966 107.662658 
L 180.216961 107.017156 
L 180.515144 105.824424 
" clip-path="url(#pcb56806dd5)" style="fill: #0000ff"/>
    <path d="M 180.486609 86.331955 
L 184.99819 87.234272 
L 184.636521 85.90815 
L 190.302677 88.922063 
L 183.913182 89.524845 
L 184.757077 88.439837 
L 180.245496 87.537521 
L 180.486609 86.331955 
" clip-path="url(#pcb56806dd5)" style="fill: #0000ff"/>
    <path d="M 180.467112 66.842329 
L 186.933856 67.92012 
L 186.529619 66.606349 
L 192.290002 69.43601 
L 185.923263 70.244485 
L 186.731738 69.132832 
L 180.264993 68.055042 
L 180.467112 66.842329 
" clip-path="url(#pcb56806dd5)" style="fill: #0000ff"/>
    <path d="M 180.452987 47.354091 
L 188.887385 48.559005 
L 188.452713 47.254987 
L 194.277327 49.949958 
L 187.931105 50.906238 
L 188.713516 49.776089 
L 180.279118 48.571175 
L 180.452987 47.354091 
" clip-path="url(#pcb56806dd5)" style="fill: #0000ff"/>
    <path d="M 200.020981 321.358435 
L 191.429319 323.813195 
L 192.35814 324.826455 
L 185.940831 324.742017 
L 191.344881 321.280047 
L 191.091566 322.631059 
L 199.683228 320.176299 
L 200.020981 321.358435 
" clip-path="url(#pcb56806dd5)" style="fill: #0000ff"/>
    <path d="M 200.046496 301.864489 
L 193.371118 304.089615 
L 194.343076 305.061573 
L 187.928155 305.255964 
L 193.176727 301.562525 
L 192.982335 302.923266 
L 199.657713 300.69814 
L 200.046496 301.864489 
" clip-path="url(#pcb56806dd5)" style="fill: #0000ff"/>
    <path d="M 200.080406 282.366015 
L 195.28056 284.285954 
L 196.307916 285.199159 
L 189.91548 285.769912 
L 194.938108 281.774639 
L 194.823958 283.144447 
L 199.623804 281.224509 
L 200.080406 282.366015 
" clip-path="url(#pcb56806dd5)" style="fill: #0000ff"/>
    <path d="M 200.127016 262.859032 
L 197.126117 264.359481 
L 198.225762 265.184215 
L 191.902805 266.283859 
L 196.576295 261.885281 
L 196.576295 263.259837 
L 199.577194 261.759387 
L 200.127016 262.859032 
" clip-path="url(#pcb56806dd5)" style="fill: #0000ff"/>
    <path d="M 200.19309 243.334635 
L 198.834417 244.240417 
L 200.027866 244.922388 
L 193.89013 246.797807 
L 197.981954 241.85352 
L 198.152446 243.217461 
L 199.51112 242.311679 
L 200.19309 243.334635 
" clip-path="url(#pcb56806dd5)" style="fill: #0000ff"/>
    <path d="M 200.24957 223.73457 
L 199.852105 224.132035 
L 201.0445 224.5295 
L 195.877455 227.311755 
L 198.65971 222.14471 
L 199.057175 223.337105 
L 199.45464 222.93964 
L 200.24957 223.73457 
" clip-path="url(#pcb56806dd5)" style="fill: #0000ff"/>
    <path d="M 200.24957 204.049785 
L 200.050837 204.44725 
L 201.0445 204.44725 
L 197.86478 207.825702 
L 198.65971 203.254855 
L 199.255907 204.049785 
L 199.45464 203.65232 
L 200.24957 204.049785 
" clip-path="url(#pcb56806dd5)" style="fill: #0000ff"/>
    <path d="M 200.24957 184.365 
L 200.24957 184.762465 
L 201.0445 184.365 
L 199.852105 188.33965 
L 198.65971 184.365 
L 199.45464 184.762465 
L 199.45464 184.365 
L 200.24957 184.365 
" clip-path="url(#pcb56806dd5)" style="fill: #0000ff"/>
    <path d="M 200.24957 164.680215 
L 200.448302 165.07768 
L 201.0445 164.28275 
L 201.83943 168.853597 
L 198.65971 165.475145 
L 199.653372 165.475145 
L 199.45464 165.07768 
L 200.24957 164.680215 
" clip-path="url(#pcb56806dd5)" style="fill: #0000ff"/>
    <path d="M 200.24957 144.99543 
L 200.647035 145.392895 
L 201.0445 144.2005 
L 203.826755 149.367545 
L 198.65971 146.58529 
L 199.852105 146.187825 
L 199.45464 145.79036 
L 200.24957 144.99543 
" clip-path="url(#pcb56806dd5)" style="fill: #0000ff"/>
    <path d="M 200.19309 125.395365 
L 201.551763 126.301147 
L 201.722256 124.937206 
L 205.814079 129.881493 
L 199.676344 128.006073 
L 200.869793 127.324103 
L 199.51112 126.418321 
L 200.19309 125.395365 
" clip-path="url(#pcb56806dd5)" style="fill: #0000ff"/>
    <path d="M 200.127016 105.870968 
L 203.127915 107.371418 
L 203.127915 105.996862 
L 207.801404 110.39544 
L 201.478448 109.295796 
L 202.578093 108.471062 
L 199.577194 106.970613 
L 200.127016 105.870968 
" clip-path="url(#pcb56806dd5)" style="fill: #0000ff"/>
    <path d="M 200.080406 86.363985 
L 204.880252 88.283923 
L 204.766101 86.914115 
L 209.788729 90.909388 
L 203.396294 90.338635 
L 204.423649 89.425429 
L 199.623804 87.505491 
L 200.080406 86.363985 
" clip-path="url(#pcb56806dd5)" style="fill: #0000ff"/>
    <path d="M 200.046496 66.865511 
L 206.721874 69.090637 
L 206.527483 67.729896 
L 211.776054 71.423335 
L 205.361134 71.228944 
L 206.333091 70.256986 
L 199.657713 68.03186 
L 200.046496 66.865511 
" clip-path="url(#pcb56806dd5)" style="fill: #0000ff"/>
    <path d="M 200.020981 47.371565 
L 208.612644 49.826326 
L 208.359329 48.475313 
L 213.763379 51.937283 
L 207.346069 52.021721 
L 208.27489 51.008462 
L 199.683228 48.553701 
L 200.020981 47.371565 
" clip-path="url(#pcb56806dd5)" style="fill: #0000ff"/>
    <path d="M 219.580307 321.332384 
L 210.754185 325.115008 
L 211.803502 326.002891 
L 205.426883 326.729342 
L 210.350601 322.61279 
L 210.269884 323.984974 
L 219.096007 320.20235 
L 219.580307 321.332384 
" clip-path="url(#pcb56806dd5)" style="fill: #0000ff"/>
    <path d="M 219.613068 301.831137 
L 212.63752 305.318911 
L 213.737164 306.143645 
L 207.414208 307.243289 
L 212.087697 302.844711 
L 212.087697 304.219267 
L 219.063246 300.731492 
L 219.613068 301.831137 
" clip-path="url(#pcb56806dd5)" style="fill: #0000ff"/>
    <path d="M 219.654428 282.32238 
L 214.461866 285.437917 
L 215.621526 286.175883 
L 209.401533 287.757237 
L 213.723901 283.013174 
L 213.829324 284.383681 
L 219.021886 281.268144 
L 219.654428 282.32238 
" clip-path="url(#pcb56806dd5)" style="fill: #0000ff"/>
    <path d="M 219.706989 262.800986 
L 216.183674 265.443472 
L 217.413114 266.058192 
L 211.388858 268.271184 
L 215.200122 263.107536 
L 215.44601 264.45992 
L 218.969325 261.817434 
L 219.706989 262.800986 
" clip-path="url(#pcb56806dd5)" style="fill: #0000ff"/>
    <path d="M 219.77283 243.25783 
L 217.722909 245.30775 
L 219.026927 245.742423 
L 213.376183 248.785132 
L 216.418891 243.134387 
L 216.853564 244.438405 
L 218.903485 242.388485 
L 219.77283 243.25783 
" clip-path="url(#pcb56806dd5)" style="fill: #0000ff"/>
    <path d="M 219.849635 223.67809 
L 218.943853 225.036763 
L 220.307794 225.207256 
L 215.363507 229.299079 
L 217.238927 223.161344 
L 217.920897 224.354793 
L 218.826679 222.99612 
L 219.849635 223.67809 
" clip-path="url(#pcb56806dd5)" style="fill: #0000ff"/>
    <path d="M 219.921332 204.045444 
L 219.683531 204.758847 
L 221.044271 204.564456 
L 217.350832 209.813027 
L 217.545224 203.398107 
L 218.517182 204.370064 
L 218.754983 203.656661 
L 219.921332 204.045444 
" clip-path="url(#pcb56806dd5)" style="fill: #0000ff"/>
    <path d="M 219.934355 184.365 
L 219.934355 184.961197 
L 221.12675 184.365 
L 219.338157 190.326975 
L 217.549565 184.365 
L 218.74196 184.961197 
L 218.74196 184.365 
L 219.934355 184.365 
" clip-path="url(#pcb56806dd5)" style="fill: #0000ff"/>
    <path d="M 219.921332 164.684556 
L 220.159133 165.397959 
L 221.131091 164.426002 
L 221.325482 170.840922 
L 217.632043 165.592351 
L 218.992784 165.786742 
L 218.754983 165.073339 
L 219.921332 164.684556 
" clip-path="url(#pcb56806dd5)" style="fill: #0000ff"/>
    <path d="M 219.849635 145.05191 
L 220.755417 146.410583 
L 221.437388 145.217134 
L 223.312807 151.35487 
L 218.36852 147.263046 
L 219.732461 147.092554 
L 218.826679 145.73388 
L 219.849635 145.05191 
" clip-path="url(#pcb56806dd5)" style="fill: #0000ff"/>
    <path d="M 219.77283 125.47217 
L 221.82275 127.522091 
L 222.257423 126.218073 
L 225.300132 131.868817 
L 219.649387 128.826109 
L 220.953405 128.391436 
L 218.903485 126.341515 
L 219.77283 125.47217 
" clip-path="url(#pcb56806dd5)" style="fill: #0000ff"/>
    <path d="M 219.706989 105.929014 
L 223.230305 108.571501 
L 223.476193 107.219117 
L 227.287457 112.382765 
L 221.263201 110.169773 
L 222.492641 109.555053 
L 218.969325 106.912566 
L 219.706989 105.929014 
" clip-path="url(#pcb56806dd5)" style="fill: #0000ff"/>
    <path d="M 219.654428 86.40762 
L 224.84699 89.523157 
L 224.952414 88.15265 
L 229.274782 92.896713 
L 223.054789 91.315358 
L 224.214448 90.577393 
L 219.021886 87.461856 
L 219.654428 86.40762 
" clip-path="url(#pcb56806dd5)" style="fill: #0000ff"/>
    <path d="M 219.613068 66.898863 
L 226.588617 70.386638 
L 226.588617 69.012082 
L 231.262107 73.41066 
L 224.93915 72.311016 
L 226.038795 71.486282 
L 219.063246 67.998508 
L 219.613068 66.898863 
" clip-path="url(#pcb56806dd5)" style="fill: #0000ff"/>
    <path d="M 219.580307 47.397616 
L 228.40643 51.18024 
L 228.325713 49.808057 
L 233.249431 53.924608 
L 226.872813 53.198158 
L 227.92213 52.310274 
L 219.096007 48.52765 
L 219.580307 47.397616 
" clip-path="url(#pcb56806dd5)" style="fill: #0000ff"/>
    <path d="M 239.129196 321.301093 
L 230.02146 326.505514 
L 231.165159 327.26798 
L 224.912935 328.716666 
L 229.33524 324.065622 
L 229.411487 325.438061 
L 238.519223 320.23364 
L 239.129196 321.301093 
" clip-path="url(#pcb56806dd5)" style="fill: #0000ff"/>
    <path d="M 239.165195 301.792792 
L 231.844547 306.673224 
L 233.037996 307.355195 
L 226.90026 309.230614 
L 230.992084 304.286327 
L 231.162577 305.650268 
L 238.483224 300.769836 
L 239.165195 301.792792 
" clip-path="url(#pcb56806dd5)" style="fill: #0000ff"/>
    <path d="M 239.208222 282.275278 
L 233.591739 286.768464 
L 234.83978 287.344483 
L 228.887585 289.744562 
L 232.535704 284.464389 
L 232.823714 285.808433 
L 238.440197 281.315246 
L 239.208222 282.275278 
" clip-path="url(#pcb56806dd5)" style="fill: #0000ff"/>
    <path d="M 239.258882 262.743882 
L 235.221637 266.781128 
L 236.525655 267.2158 
L 230.87491 270.258509 
L 233.917619 264.607764 
L 234.352292 265.911782 
L 238.389537 261.874537 
L 239.258882 262.743882 
" clip-path="url(#pcb56806dd5)" style="fill: #0000ff"/>
    <path d="M 239.315986 243.191989 
L 236.673499 246.715305 
L 238.025883 246.961193 
L 232.862235 250.772457 
L 235.075227 244.748201 
L 235.689947 245.977641 
L 238.332434 242.454325 
L 239.315986 243.191989 
" clip-path="url(#pcb56806dd5)" style="fill: #0000ff"/>
    <path d="M 239.374032 223.612016 
L 237.873582 226.612915 
L 239.248138 226.612915 
L 234.84956 231.286404 
L 235.949204 224.963448 
L 236.773938 226.063093 
L 238.274387 223.062194 
L 239.374032 223.612016 
" clip-path="url(#pcb56806dd5)" style="fill: #0000ff"/>
    <path d="M 239.420576 204.000144 
L 238.775074 206.582149 
L 240.116898 206.283966 
L 236.836885 211.800352 
L 236.538702 205.389417 
L 237.582342 206.283966 
L 238.227844 203.701961 
L 239.420576 204.000144 
" clip-path="url(#pcb56806dd5)" style="fill: #0000ff"/>
    <path d="M 239.43893 184.365 
L 239.43893 186.78182 
L 240.66837 186.1671 
L 238.82421 192.3143 
L 236.98005 186.1671 
L 238.20949 186.78182 
L 238.20949 184.365 
L 239.43893 184.365 
" clip-path="url(#pcb56806dd5)" style="fill: #0000ff"/>
    <path d="M 239.420576 164.729856 
L 240.066077 167.311862 
L 241.109718 166.417313 
L 240.811535 172.828247 
L 237.531522 167.311862 
L 238.873345 167.610045 
L 238.227844 165.028039 
L 239.420576 164.729856 
" clip-path="url(#pcb56806dd5)" style="fill: #0000ff"/>
    <path d="M 239.374032 145.117984 
L 240.874481 148.118883 
L 241.699215 147.019238 
L 242.798859 153.342195 
L 238.400281 148.668705 
L 239.774837 148.668705 
L 238.274387 145.667806 
L 239.374032 145.117984 
" clip-path="url(#pcb56806dd5)" style="fill: #0000ff"/>
    <path d="M 239.315986 125.538011 
L 241.958472 129.061326 
L 242.573192 127.831886 
L 244.786184 133.856142 
L 239.622536 130.044878 
L 240.97492 129.79899 
L 238.332434 126.275675 
L 239.315986 125.538011 
" clip-path="url(#pcb56806dd5)" style="fill: #0000ff"/>
    <path d="M 239.258882 105.986118 
L 243.296128 110.023363 
L 243.7308 108.719345 
L 246.773509 114.37009 
L 241.122764 111.327381 
L 242.426782 110.892708 
L 238.389537 106.855463 
L 239.258882 105.986118 
" clip-path="url(#pcb56806dd5)" style="fill: #0000ff"/>
    <path d="M 239.208222 86.454722 
L 244.824706 90.947909 
L 245.112715 89.603865 
L 248.760834 94.884038 
L 242.80864 92.483959 
L 244.05668 91.90794 
L 238.440197 87.414754 
L 239.208222 86.454722 
" clip-path="url(#pcb56806dd5)" style="fill: #0000ff"/>
    <path d="M 239.165195 66.937208 
L 246.485843 71.817639 
L 246.656335 70.453698 
L 250.748159 75.397985 
L 244.610423 73.522566 
L 245.803872 72.840595 
L 238.483224 67.960164 
L 239.165195 66.937208 
" clip-path="url(#pcb56806dd5)" style="fill: #0000ff"/>
    <path d="M 239.129196 47.428907 
L 248.236933 52.633328 
L 248.313179 51.260888 
L 252.735484 55.911933 
L 246.48326 54.463247 
L 247.62696 53.70078 
L 238.519223 48.49636 
L 239.129196 47.428907 
" clip-path="url(#pcb56806dd5)" style="fill: #0000ff"/>
    <path d="M 258.667561 321.267585 
L 249.258251 327.988521 
L 250.473066 328.631659 
L 244.398988 330.703991 
L 248.329274 325.630349 
L 248.543653 326.988084 
L 257.952963 320.267149 
L 258.667561 321.267585 
" clip-path="url(#pcb56806dd5)" style="fill: #0000ff"/>
    <path d="M 258.703796 301.753555 
L 251.030016 308.148372 
L 252.289325 308.69932 
L 246.386313 311.217939 
L 249.92812 305.865874 
L 250.242947 307.203891 
L 257.916728 300.809073 
L 258.703796 301.753555 
" clip-path="url(#pcb56806dd5)" style="fill: #0000ff"/>
    <path d="M 258.744935 282.229935 
L 252.720364 288.254505 
L 254.024382 288.689178 
L 248.373638 291.731886 
L 251.416346 286.081142 
L 251.851019 287.38516 
L 257.875589 281.360589 
L 258.744935 282.229935 
" clip-path="url(#pcb56806dd5)" style="fill: #0000ff"/>
    <path d="M 258.790278 262.693222 
L 254.297091 268.309706 
L 255.641135 268.597715 
L 250.360962 272.245834 
L 252.761041 266.29364 
L 253.33706 267.54168 
L 257.830246 261.925197 
L 258.790278 262.693222 
" clip-path="url(#pcb56806dd5)" style="fill: #0000ff"/>
    <path d="M 258.83738 243.139428 
L 255.721843 248.33199 
L 257.09235 248.437414 
L 252.348287 252.759782 
L 253.929642 246.539789 
L 254.667607 247.699448 
L 257.783144 242.506886 
L 258.83738 243.139428 
" clip-path="url(#pcb56806dd5)" style="fill: #0000ff"/>
    <path d="M 258.881015 223.565406 
L 256.961077 228.365252 
L 258.330885 228.251101 
L 254.335612 233.273729 
L 254.906365 226.881294 
L 255.819571 227.908649 
L 257.739509 223.108804 
L 258.881015 223.565406 
" clip-path="url(#pcb56806dd5)" style="fill: #0000ff"/>
    <path d="M 258.913045 203.971609 
L 258.010728 208.48319 
L 259.33685 208.121521 
L 256.322937 213.787677 
L 255.720155 207.398182 
L 256.805163 208.242077 
L 257.707479 203.730496 
L 258.913045 203.971609 
" clip-path="url(#pcb56806dd5)" style="fill: #0000ff"/>
    <path d="M 258.924982 184.365 
L 258.924982 188.769144 
L 260.154422 188.154424 
L 258.310262 194.301624 
L 256.466102 188.154424 
L 257.695542 188.769144 
L 257.695542 184.365 
L 258.924982 184.365 
" clip-path="url(#pcb56806dd5)" style="fill: #0000ff"/>
    <path d="M 258.913045 164.758391 
L 259.815361 169.269973 
L 260.900369 168.426077 
L 260.297587 174.815572 
L 257.283674 169.149416 
L 258.609796 169.511086 
L 257.707479 164.999504 
L 258.913045 164.758391 
" clip-path="url(#pcb56806dd5)" style="fill: #0000ff"/>
    <path d="M 258.881015 145.164594 
L 260.800954 149.96444 
L 261.714159 148.937084 
L 262.284912 155.32952 
L 258.289639 150.306892 
L 259.659447 150.421042 
L 257.739509 145.621196 
L 258.881015 145.164594 
" clip-path="url(#pcb56806dd5)" style="fill: #0000ff"/>
    <path d="M 258.83738 125.590572 
L 261.952917 130.783134 
L 262.690883 129.623474 
L 264.272237 135.843467 
L 259.528174 131.521099 
L 260.898681 131.415676 
L 257.783144 126.223114 
L 258.83738 125.590572 
" clip-path="url(#pcb56806dd5)" style="fill: #0000ff"/>
    <path d="M 258.790278 106.036778 
L 263.283464 111.653261 
L 263.859483 110.40522 
L 266.259562 116.357415 
L 260.979389 112.709296 
L 262.323433 112.421286 
L 257.830246 106.804803 
L 258.790278 106.036778 
" clip-path="url(#pcb56806dd5)" style="fill: #0000ff"/>
    <path d="M 258.744935 86.500065 
L 264.769505 92.524636 
L 265.204178 91.220618 
L 268.246886 96.871362 
L 262.596142 93.828654 
L 263.90016 93.393981 
L 257.875589 87.369411 
L 258.744935 86.500065 
" clip-path="url(#pcb56806dd5)" style="fill: #0000ff"/>
    <path d="M 258.703796 66.976445 
L 266.377577 73.371262 
L 266.692404 72.033245 
L 270.234211 77.38531 
L 264.331199 74.866691 
L 265.590508 74.315744 
L 257.916728 67.920927 
L 258.703796 66.976445 
" clip-path="url(#pcb56806dd5)" style="fill: #0000ff"/>
    <path d="M 258.667561 47.462415 
L 268.076871 54.183351 
L 268.29125 52.825615 
L 272.221536 57.899258 
L 266.147458 55.826925 
L 267.362273 55.183787 
L 257.952963 48.462851 
L 258.667561 47.462415 
" clip-path="url(#pcb56806dd5)" style="fill: #0000ff"/>
    <path d="M 278.196369 321.234097 
L 268.485667 329.557556 
L 269.752506 330.090962 
L 263.88504 332.691316 
L 267.352179 327.290581 
L 267.685558 328.624096 
L 277.39626 320.300637 
L 278.196369 321.234097 
" clip-path="url(#pcb56806dd5)" style="fill: #0000ff"/>
    <path d="M 278.230987 301.715987 
L 270.219092 309.727882 
L 271.52311 310.162555 
L 265.872365 313.205264 
L 268.915074 307.554519 
L 269.349747 308.858537 
L 277.361642 300.846642 
L 278.230987 301.715987 
" clip-path="url(#pcb56806dd5)" style="fill: #0000ff"/>
    <path d="M 278.268555 282.188796 
L 271.873738 289.862577 
L 273.211755 290.177404 
L 267.85969 293.719211 
L 270.378309 287.816199 
L 270.929256 289.075508 
L 277.324073 281.401728 
L 278.268555 282.188796 
" clip-path="url(#pcb56806dd5)" style="fill: #0000ff"/>
    <path d="M 278.307792 262.650195 
L 273.427361 269.970843 
L 274.791302 270.141335 
L 269.847015 274.233159 
L 271.722434 268.095423 
L 272.404405 269.288872 
L 277.284836 261.968224 
L 278.307792 262.650195 
" clip-path="url(#pcb56806dd5)" style="fill: #0000ff"/>
    <path d="M 278.346137 243.098068 
L 274.858362 250.073617 
L 276.232918 250.073617 
L 271.83434 254.747107 
L 272.933984 248.42415 
L 273.758718 249.523795 
L 277.246492 242.548246 
L 278.346137 243.098068 
" clip-path="url(#pcb56806dd5)" style="fill: #0000ff"/>
    <path d="M 278.379489 223.531496 
L 276.154363 230.206874 
L 277.515104 230.012483 
L 273.821665 235.261054 
L 274.016056 228.846134 
L 274.988014 229.818091 
L 277.21314 223.142713 
L 278.379489 223.531496 
" clip-path="url(#pcb56806dd5)" style="fill: #0000ff"/>
    <path d="M 278.402671 203.952112 
L 277.32488 210.418856 
L 278.638651 210.014619 
L 275.80899 215.775002 
L 275.000515 209.408263 
L 276.112168 210.216738 
L 277.189958 203.749993 
L 278.402671 203.952112 
" clip-path="url(#pcb56806dd5)" style="fill: #0000ff"/>
    <path d="M 278.411034 184.365 
L 278.411034 190.756469 
L 279.640474 190.141749 
L 277.796314 196.288949 
L 275.952154 190.141749 
L 277.181594 190.756469 
L 277.181594 184.365 
L 278.411034 184.365 
" clip-path="url(#pcb56806dd5)" style="fill: #0000ff"/>
    <path d="M 278.402671 164.777888 
L 279.480461 171.244633 
L 280.592114 170.436158 
L 279.783639 176.802897 
L 276.953978 171.042514 
L 278.267749 171.446752 
L 277.189958 164.980007 
L 278.402671 164.777888 
" clip-path="url(#pcb56806dd5)" style="fill: #0000ff"/>
    <path d="M 278.379489 145.198504 
L 280.604615 151.873882 
L 281.576573 150.901924 
L 281.770964 157.316845 
L 278.077525 152.068273 
L 279.438266 152.262665 
L 277.21314 145.587287 
L 278.379489 145.198504 
" clip-path="url(#pcb56806dd5)" style="fill: #0000ff"/>
    <path d="M 278.346137 125.631932 
L 281.833911 132.60748 
L 282.658645 131.507836 
L 283.758289 137.830792 
L 279.359711 133.157303 
L 280.734267 133.157303 
L 277.246492 126.181754 
L 278.346137 125.631932 
" clip-path="url(#pcb56806dd5)" style="fill: #0000ff"/>
    <path d="M 278.307792 106.079805 
L 283.188224 113.400453 
L 283.870195 112.207004 
L 285.745614 118.34474 
L 280.801327 114.252916 
L 282.165268 114.082423 
L 277.284836 106.761776 
L 278.307792 106.079805 
" clip-path="url(#pcb56806dd5)" style="fill: #0000ff"/>
    <path d="M 278.268555 86.541204 
L 284.663372 94.214984 
L 285.21432 92.955675 
L 287.732939 98.858687 
L 282.380874 95.31688 
L 283.718891 95.002053 
L 277.324073 87.328272 
L 278.268555 86.541204 
" clip-path="url(#pcb56806dd5)" style="fill: #0000ff"/>
    <path d="M 278.230987 67.014013 
L 286.242882 75.025908 
L 286.677555 73.72189 
L 289.720264 79.372635 
L 284.069519 76.329926 
L 285.373537 75.895253 
L 277.361642 67.883358 
L 278.230987 67.014013 
" clip-path="url(#pcb56806dd5)" style="fill: #0000ff"/>
    <path d="M 278.196369 47.495903 
L 287.907071 55.819362 
L 288.24045 54.485847 
L 291.707589 59.886582 
L 285.840123 57.286228 
L 287.106962 56.752822 
L 277.39626 48.429363 
L 278.196369 47.495903 
" clip-path="url(#pcb56806dd5)" style="fill: #0000ff"/>
    <path d="M 297.71704 321.20204 
L 287.717819 331.20126 
L 289.021837 331.635932 
L 283.371093 334.678641 
L 286.413801 329.027896 
L 286.848474 330.331914 
L 296.847694 320.332694 
L 297.71704 321.20204 
" clip-path="url(#pcb56806dd5)" style="fill: #0000ff"/>
    <path d="M 297.749097 301.681369 
L 289.425638 311.392071 
L 290.759153 311.72545 
L 285.358418 315.192589 
L 287.958772 309.325123 
L 288.492178 310.591962 
L 296.815637 300.88126 
L 297.749097 301.681369 
" clip-path="url(#pcb56806dd5)" style="fill: #0000ff"/>
    <path d="M 297.782585 282.152561 
L 291.061649 291.561871 
L 292.419385 291.77625 
L 287.345742 295.706536 
L 289.418075 289.632458 
L 290.061213 290.847273 
L 296.782149 281.437963 
L 297.782585 282.152561 
" clip-path="url(#pcb56806dd5)" style="fill: #0000ff"/>
    <path d="M 297.816093 262.614196 
L 292.611672 271.721933 
L 293.984112 271.798179 
L 289.333067 276.220484 
L 290.781753 269.96826 
L 291.54422 271.11196 
L 296.74864 262.004223 
L 297.816093 262.614196 
" clip-path="url(#pcb56806dd5)" style="fill: #0000ff"/>
    <path d="M 297.847384 243.065307 
L 294.06476 251.89143 
L 295.436943 251.810713 
L 291.320392 256.734431 
L 292.046842 250.357813 
L 292.934726 251.40713 
L 296.71735 242.581007 
L 297.847384 243.065307 
" clip-path="url(#pcb56806dd5)" style="fill: #0000ff"/>
    <path d="M 297.873435 223.505981 
L 295.418674 232.097644 
L 296.769687 231.844329 
L 293.307717 237.248379 
L 293.223279 230.831069 
L 294.236538 231.75989 
L 296.691299 223.168228 
L 297.873435 223.505981 
" clip-path="url(#pcb56806dd5)" style="fill: #0000ff"/>
    <path d="M 297.890909 203.937987 
L 296.685995 212.372385 
L 297.990013 211.937713 
L 295.295042 217.762327 
L 294.338762 211.416105 
L 295.468911 212.198516 
L 296.673825 203.764118 
L 297.890909 203.937987 
" clip-path="url(#pcb56806dd5)" style="fill: #0000ff"/>
    <path d="M 297.897087 184.365 
L 297.897087 192.743794 
L 299.126527 192.129074 
L 297.282367 198.276274 
L 295.438207 192.129074 
L 296.667647 192.743794 
L 296.667647 184.365 
L 297.897087 184.365 
" clip-path="url(#pcb56806dd5)" style="fill: #0000ff"/>
    <path d="M 297.890909 164.792013 
L 299.095823 173.226411 
L 300.225972 172.444001 
L 299.269692 178.790222 
L 296.574721 172.965608 
L 297.878739 173.400281 
L 296.673825 164.965882 
L 297.890909 164.792013 
" clip-path="url(#pcb56806dd5)" style="fill: #0000ff"/>
    <path d="M 297.873435 145.224019 
L 300.328195 153.815681 
L 301.341455 152.88686 
L 301.257017 159.304169 
L 297.795047 153.900119 
L 299.146059 154.153434 
L 296.691299 145.561772 
L 297.873435 145.224019 
" clip-path="url(#pcb56806dd5)" style="fill: #0000ff"/>
    <path d="M 297.847384 125.664693 
L 301.630008 134.490815 
L 302.517891 133.441498 
L 303.244342 139.818117 
L 299.12779 134.894399 
L 300.499974 134.975116 
L 296.71735 126.148993 
L 297.847384 125.664693 
" clip-path="url(#pcb56806dd5)" style="fill: #0000ff"/>
    <path d="M 297.816093 106.115804 
L 303.020514 115.22354 
L 303.78298 114.079841 
L 305.231666 120.332065 
L 300.580622 115.90976 
L 301.953061 115.833513 
L 296.74864 106.725777 
L 297.816093 106.115804 
" clip-path="url(#pcb56806dd5)" style="fill: #0000ff"/>
    <path d="M 297.782585 86.577439 
L 304.503521 95.986749 
L 305.146659 94.771934 
L 307.218991 100.846012 
L 302.145349 96.915726 
L 303.503084 96.701347 
L 296.782149 87.292037 
L 297.782585 86.577439 
" clip-path="url(#pcb56806dd5)" style="fill: #0000ff"/>
    <path d="M 297.749097 67.048631 
L 306.072556 76.759333 
L 306.605962 75.492494 
L 309.206316 81.35996 
L 303.805581 77.892821 
L 305.139096 77.559442 
L 296.815637 67.84874 
L 297.749097 67.048631 
" clip-path="url(#pcb56806dd5)" style="fill: #0000ff"/>
    <path d="M 297.71704 47.52796 
L 307.71626 57.527181 
L 308.150932 56.223163 
L 311.193641 61.873907 
L 305.542896 58.831199 
L 306.846914 58.396526 
L 296.847694 48.397306 
L 297.71704 47.52796 
" clip-path="url(#pcb56806dd5)" style="fill: #0000ff"/>
   </g>
   <g id="matplotlib.axis_1">
    <g id="xtick_1">
     <g id="line2d_1">
      <defs>
       <path id="m57b7cf649c" d="M 0 0 
L 0 3.5 
" style="stroke: #000000; stroke-width: 0.8"/>
      </defs>
      <g>
       <use xlink:href="#m57b7cf649c" x="24.477633" y="184.365" style="stroke: #000000; stroke-width: 0.8"/>
      </g>
     </g>
     <g id="text_1">
      <!-- 3 -->
      <g transform="translate(17.106539 198.963437)scale(0.1 -0.1)">
       <defs>
        <path id="DejaVuSans-2212" d="M 678 2272 
L 4684 2272 
L 4684 1741 
L 678 1741 
L 678 2272 
z
" transform="scale(0.015625)"/>
        <path id="DejaVuSans-33" d="M 2597 2516 
Q 3050 2419 3304 2112 
Q 3559 1806 3559 1356 
Q 3559 666 3084 287 
Q 2609 -91 1734 -91 
Q 1441 -91 1130 -33 
Q 819 25 488 141 
L 488 750 
Q 750 597 1062 519 
Q 1375 441 1716 441 
Q 2309 441 2620 675 
Q 2931 909 2931 1356 
Q 2931 1769 2642 2001 
Q 2353 2234 1838 2234 
L 1294 2234 
L 1294 2753 
L 1863 2753 
Q 2328 2753 2575 2939 
Q 2822 3125 2822 3475 
Q 2822 3834 2567 4026 
Q 2313 4219 1838 4219 
Q 1578 4219 1281 4162 
Q 984 4106 628 3988 
L 628 4550 
Q 988 4650 1302 4700 
Q 1616 4750 1894 4750 
Q 2613 4750 3031 4423 
Q 3450 4097 3450 3541 
Q 3450 3153 3228 2886 
Q 3006 2619 2597 2516 
z
" transform="scale(0.015625)"/>
       </defs>
       <use xlink:href="#DejaVuSans-2212"/>
       <use xlink:href="#DejaVuSans-33" x="83.789062"/>
      </g>
     </g>
    </g>
    <g id="xtick_2">
     <g id="line2d_2">
      <g>
       <use xlink:href="#m57b7cf649c" x="69.945089" y="184.365" style="stroke: #000000; stroke-width: 0.8"/>
      </g>
     </g>
     <g id="text_2">
      <!-- 2 -->
      <g transform="translate(62.573995 198.963437)scale(0.1 -0.1)">
       <defs>
        <path id="DejaVuSans-32" d="M 1228 531 
L 3431 531 
L 3431 0 
L 469 0 
L 469 531 
Q 828 903 1448 1529 
Q 2069 2156 2228 2338 
Q 2531 2678 2651 2914 
Q 2772 3150 2772 3378 
Q 2772 3750 2511 3984 
Q 2250 4219 1831 4219 
Q 1534 4219 1204 4116 
Q 875 4013 500 3803 
L 500 4441 
Q 881 4594 1212 4672 
Q 1544 4750 1819 4750 
Q 2544 4750 2975 4387 
Q 3406 4025 3406 3419 
Q 3406 3131 3298 2873 
Q 3191 2616 2906 2266 
Q 2828 2175 2409 1742 
Q 1991 1309 1228 531 
z
" transform="scale(0.015625)"/>
       </defs>
       <use xlink:href="#DejaVuSans-2212"/>
       <use xlink:href="#DejaVuSans-32" x="83.789062"/>
      </g>
     </g>
    </g>
    <g id="xtick_3">
     <g id="line2d_3">
      <g>
       <use xlink:href="#m57b7cf649c" x="115.412544" y="184.365" style="stroke: #000000; stroke-width: 0.8"/>
      </g>
     </g>
     <g id="text_3">
      <!-- 1 -->
      <g transform="translate(108.041451 198.963437)scale(0.1 -0.1)">
       <defs>
        <path id="DejaVuSans-31" d="M 794 531 
L 1825 531 
L 1825 4091 
L 703 3866 
L 703 4441 
L 1819 4666 
L 2450 4666 
L 2450 531 
L 3481 531 
L 3481 0 
L 794 0 
L 794 531 
z
" transform="scale(0.015625)"/>
       </defs>
       <use xlink:href="#DejaVuSans-2212"/>
       <use xlink:href="#DejaVuSans-31" x="83.789062"/>
      </g>
     </g>
    </g>
    <g id="xtick_4">
     <g id="line2d_4">
      <g>
       <use xlink:href="#m57b7cf649c" x="160.88" y="184.365" style="stroke: #000000; stroke-width: 0.8"/>
      </g>
     </g>
    </g>
    <g id="xtick_5">
     <g id="line2d_5">
      <g>
       <use xlink:href="#m57b7cf649c" x="206.347456" y="184.365" style="stroke: #000000; stroke-width: 0.8"/>
      </g>
     </g>
     <g id="text_4">
      <!-- 1 -->
      <g transform="translate(203.166206 198.963437)scale(0.1 -0.1)">
       <use xlink:href="#DejaVuSans-31"/>
      </g>
     </g>
    </g>
    <g id="xtick_6">
     <g id="line2d_6">
      <g>
       <use xlink:href="#m57b7cf649c" x="251.814911" y="184.365" style="stroke: #000000; stroke-width: 0.8"/>
      </g>
     </g>
     <g id="text_5">
      <!-- 2 -->
      <g transform="translate(248.633661 198.963437)scale(0.1 -0.1)">
       <use xlink:href="#DejaVuSans-32"/>
      </g>
     </g>
    </g>
    <g id="xtick_7">
     <g id="line2d_7">
      <g>
       <use xlink:href="#m57b7cf649c" x="297.282367" y="184.365" style="stroke: #000000; stroke-width: 0.8"/>
      </g>
     </g>
     <g id="text_6">
      <!-- 3 -->
      <g transform="translate(294.101117 198.963437)scale(0.1 -0.1)">
       <use xlink:href="#DejaVuSans-33"/>
      </g>
     </g>
    </g>
    <g id="xtick_8">
     <g id="line2d_8">
      <defs>
       <path id="m1281d1250b" d="M 0 0 
L 0 2 
" style="stroke: #000000; stroke-width: 0.6"/>
      </defs>
      <g>
       <use xlink:href="#m1281d1250b" x="15.384142" y="184.365" style="stroke: #000000; stroke-width: 0.6"/>
      </g>
     </g>
    </g>
    <g id="xtick_9">
     <g id="line2d_9">
      <g>
       <use xlink:href="#m1281d1250b" x="33.571124" y="184.365" style="stroke: #000000; stroke-width: 0.6"/>
      </g>
     </g>
    </g>
    <g id="xtick_10">
     <g id="line2d_10">
      <g>
       <use xlink:href="#m1281d1250b" x="42.664615" y="184.365" style="stroke: #000000; stroke-width: 0.6"/>
      </g>
     </g>
    </g>
    <g id="xtick_11">
     <g id="line2d_11">
      <g>
       <use xlink:href="#m1281d1250b" x="51.758107" y="184.365" style="stroke: #000000; stroke-width: 0.6"/>
      </g>
     </g>
    </g>
    <g id="xtick_12">
     <g id="line2d_12">
      <g>
       <use xlink:href="#m1281d1250b" x="60.851598" y="184.365" style="stroke: #000000; stroke-width: 0.6"/>
      </g>
     </g>
    </g>
    <g id="xtick_13">
     <g id="line2d_13">
      <g>
       <use xlink:href="#m1281d1250b" x="79.03858" y="184.365" style="stroke: #000000; stroke-width: 0.6"/>
      </g>
     </g>
    </g>
    <g id="xtick_14">
     <g id="line2d_14">
      <g>
       <use xlink:href="#m1281d1250b" x="88.132071" y="184.365" style="stroke: #000000; stroke-width: 0.6"/>
      </g>
     </g>
    </g>
    <g id="xtick_15">
     <g id="line2d_15">
      <g>
       <use xlink:href="#m1281d1250b" x="97.225562" y="184.365" style="stroke: #000000; stroke-width: 0.6"/>
      </g>
     </g>
    </g>
    <g id="xtick_16">
     <g id="line2d_16">
      <g>
       <use xlink:href="#m1281d1250b" x="106.319053" y="184.365" style="stroke: #000000; stroke-width: 0.6"/>
      </g>
     </g>
    </g>
    <g id="xtick_17">
     <g id="line2d_17">
      <g>
       <use xlink:href="#m1281d1250b" x="124.506036" y="184.365" style="stroke: #000000; stroke-width: 0.6"/>
      </g>
     </g>
    </g>
    <g id="xtick_18">
     <g id="line2d_18">
      <g>
       <use xlink:href="#m1281d1250b" x="133.599527" y="184.365" style="stroke: #000000; stroke-width: 0.6"/>
      </g>
     </g>
    </g>
    <g id="xtick_19">
     <g id="line2d_19">
      <g>
       <use xlink:href="#m1281d1250b" x="142.693018" y="184.365" style="stroke: #000000; stroke-width: 0.6"/>
      </g>
     </g>
    </g>
    <g id="xtick_20">
     <g id="line2d_20">
      <g>
       <use xlink:href="#m1281d1250b" x="151.786509" y="184.365" style="stroke: #000000; stroke-width: 0.6"/>
      </g>
     </g>
    </g>
    <g id="xtick_21">
     <g id="line2d_21">
      <g>
       <use xlink:href="#m1281d1250b" x="169.973491" y="184.365" style="stroke: #000000; stroke-width: 0.6"/>
      </g>
     </g>
    </g>
    <g id="xtick_22">
     <g id="line2d_22">
      <g>
       <use xlink:href="#m1281d1250b" x="179.066982" y="184.365" style="stroke: #000000; stroke-width: 0.6"/>
      </g>
     </g>
    </g>
    <g id="xtick_23">
     <g id="line2d_23">
      <g>
       <use xlink:href="#m1281d1250b" x="188.160473" y="184.365" style="stroke: #000000; stroke-width: 0.6"/>
      </g>
     </g>
    </g>
    <g id="xtick_24">
     <g id="line2d_24">
      <g>
       <use xlink:href="#m1281d1250b" x="197.253964" y="184.365" style="stroke: #000000; stroke-width: 0.6"/>
      </g>
     </g>
    </g>
    <g id="xtick_25">
     <g id="line2d_25">
      <g>
       <use xlink:href="#m1281d1250b" x="215.440947" y="184.365" style="stroke: #000000; stroke-width: 0.6"/>
      </g>
     </g>
    </g>
    <g id="xtick_26">
     <g id="line2d_26">
      <g>
       <use xlink:href="#m1281d1250b" x="224.534438" y="184.365" style="stroke: #000000; stroke-width: 0.6"/>
      </g>
     </g>
    </g>
    <g id="xtick_27">
     <g id="line2d_27">
      <g>
       <use xlink:href="#m1281d1250b" x="233.627929" y="184.365" style="stroke: #000000; stroke-width: 0.6"/>
      </g>
     </g>
    </g>
    <g id="xtick_28">
     <g id="line2d_28">
      <g>
       <use xlink:href="#m1281d1250b" x="242.72142" y="184.365" style="stroke: #000000; stroke-width: 0.6"/>
      </g>
     </g>
    </g>
    <g id="xtick_29">
     <g id="line2d_29">
      <g>
       <use xlink:href="#m1281d1250b" x="260.908402" y="184.365" style="stroke: #000000; stroke-width: 0.6"/>
      </g>
     </g>
    </g>
    <g id="xtick_30">
     <g id="line2d_30">
      <g>
       <use xlink:href="#m1281d1250b" x="270.001893" y="184.365" style="stroke: #000000; stroke-width: 0.6"/>
      </g>
     </g>
    </g>
    <g id="xtick_31">
     <g id="line2d_31">
      <g>
       <use xlink:href="#m1281d1250b" x="279.095385" y="184.365" style="stroke: #000000; stroke-width: 0.6"/>
      </g>
     </g>
    </g>
    <g id="xtick_32">
     <g id="line2d_32">
      <g>
       <use xlink:href="#m1281d1250b" x="288.188876" y="184.365" style="stroke: #000000; stroke-width: 0.6"/>
      </g>
     </g>
    </g>
    <g id="xtick_33">
     <g id="line2d_33">
      <g>
       <use xlink:href="#m1281d1250b" x="306.375858" y="184.365" style="stroke: #000000; stroke-width: 0.6"/>
      </g>
     </g>
    </g>
    <g id="text_7">
     <!-- $x$ -->
     <g transform="translate(322.56 184.365)scale(0.16 -0.16)">
      <defs>
       <path id="Cmmi10-78" d="M 500 184 
Q 613 97 819 97 
Q 1019 97 1172 289 
Q 1325 481 1381 709 
L 1672 1844 
Q 1741 2153 1741 2266 
Q 1741 2425 1652 2544 
Q 1563 2663 1403 2663 
Q 1200 2663 1022 2536 
Q 844 2409 722 2214 
Q 600 2019 550 1819 
Q 538 1778 500 1778 
L 422 1778 
Q 372 1778 372 1838 
L 372 1856 
Q 434 2094 584 2320 
Q 734 2547 951 2687 
Q 1169 2828 1416 2828 
Q 1650 2828 1839 2703 
Q 2028 2578 2106 2363 
Q 2216 2559 2386 2693 
Q 2556 2828 2759 2828 
Q 2897 2828 3040 2779 
Q 3184 2731 3275 2631 
Q 3366 2531 3366 2381 
Q 3366 2219 3261 2101 
Q 3156 1984 2994 1984 
Q 2891 1984 2822 2050 
Q 2753 2116 2753 2216 
Q 2753 2350 2845 2451 
Q 2938 2553 3066 2572 
Q 2950 2663 2747 2663 
Q 2541 2663 2389 2472 
Q 2238 2281 2175 2047 
L 1894 916 
Q 1825 659 1825 494 
Q 1825 331 1917 214 
Q 2009 97 2163 97 
Q 2463 97 2698 361 
Q 2934 625 3009 941 
Q 3022 978 3059 978 
L 3138 978 
Q 3163 978 3178 961 
Q 3194 944 3194 922 
Q 3194 916 3188 903 
Q 3097 522 2806 225 
Q 2516 -72 2150 -72 
Q 1916 -72 1727 54 
Q 1538 181 1459 397 
Q 1359 209 1182 68 
Q 1006 -72 806 -72 
Q 669 -72 523 -23 
Q 378 25 287 125 
Q 197 225 197 378 
Q 197 528 301 651 
Q 406 775 563 775 
Q 669 775 741 711 
Q 813 647 813 544 
Q 813 409 723 309 
Q 634 209 500 184 
z
" transform="scale(0.015625)"/>
      </defs>
      <use xlink:href="#Cmmi10-78" transform="translate(0 0.8125)"/>
     </g>
    </g>
   </g>
   <g id="matplotlib.axis_2">
    <g id="ytick_1">
     <g id="line2d_34">
      <defs>
       <path id="mce6df0d691" d="M 0 0 
L -3.5 0 
" style="stroke: #000000; stroke-width: 0.8"/>
      </defs>
      <g>
       <use xlink:href="#mce6df0d691" x="160.88" y="320.767367" style="stroke: #000000; stroke-width: 0.8"/>
      </g>
     </g>
     <g id="text_8">
      <!-- 3 -->
      <g transform="translate(139.137812 324.566586)scale(0.1 -0.1)">
       <use xlink:href="#DejaVuSans-2212"/>
       <use xlink:href="#DejaVuSans-33" x="83.789062"/>
      </g>
     </g>
    </g>
    <g id="ytick_2">
     <g id="line2d_35">
      <g>
       <use xlink:href="#mce6df0d691" x="160.88" y="275.299911" style="stroke: #000000; stroke-width: 0.8"/>
      </g>
     </g>
     <g id="text_9">
      <!-- 2 -->
      <g transform="translate(139.137812 279.09913)scale(0.1 -0.1)">
       <use xlink:href="#DejaVuSans-2212"/>
       <use xlink:href="#DejaVuSans-32" x="83.789062"/>
      </g>
     </g>
    </g>
    <g id="ytick_3">
     <g id="line2d_36">
      <g>
       <use xlink:href="#mce6df0d691" x="160.88" y="229.832456" style="stroke: #000000; stroke-width: 0.8"/>
      </g>
     </g>
     <g id="text_10">
      <!-- 1 -->
      <g transform="translate(139.137812 233.631674)scale(0.1 -0.1)">
       <use xlink:href="#DejaVuSans-2212"/>
       <use xlink:href="#DejaVuSans-31" x="83.789062"/>
      </g>
     </g>
    </g>
    <g id="ytick_4">
     <g id="line2d_37">
      <g>
       <use xlink:href="#mce6df0d691" x="160.88" y="184.365" style="stroke: #000000; stroke-width: 0.8"/>
      </g>
     </g>
    </g>
    <g id="ytick_5">
     <g id="line2d_38">
      <g>
       <use xlink:href="#mce6df0d691" x="160.88" y="138.897544" style="stroke: #000000; stroke-width: 0.8"/>
      </g>
     </g>
     <g id="text_11">
      <!-- 1 -->
      <g transform="translate(147.5175 142.696763)scale(0.1 -0.1)">
       <use xlink:href="#DejaVuSans-31"/>
      </g>
     </g>
    </g>
    <g id="ytick_6">
     <g id="line2d_39">
      <g>
       <use xlink:href="#mce6df0d691" x="160.88" y="93.430089" style="stroke: #000000; stroke-width: 0.8"/>
      </g>
     </g>
     <g id="text_12">
      <!-- 2 -->
      <g transform="translate(147.5175 97.229308)scale(0.1 -0.1)">
       <use xlink:href="#DejaVuSans-32"/>
      </g>
     </g>
    </g>
    <g id="ytick_7">
     <g id="line2d_40">
      <g>
       <use xlink:href="#mce6df0d691" x="160.88" y="47.962633" style="stroke: #000000; stroke-width: 0.8"/>
      </g>
     </g>
     <g id="text_13">
      <!-- 3 -->
      <g transform="translate(147.5175 51.761852)scale(0.1 -0.1)">
       <use xlink:href="#DejaVuSans-33"/>
      </g>
     </g>
    </g>
    <g id="ytick_8">
     <g id="line2d_41">
      <defs>
       <path id="m13abbe72f4" d="M 0 0 
L -2 0 
" style="stroke: #000000; stroke-width: 0.6"/>
      </defs>
      <g>
       <use xlink:href="#m13abbe72f4" x="160.88" y="329.860858" style="stroke: #000000; stroke-width: 0.6"/>
      </g>
     </g>
    </g>
    <g id="ytick_9">
     <g id="line2d_42">
      <g>
       <use xlink:href="#m13abbe72f4" x="160.88" y="311.673876" style="stroke: #000000; stroke-width: 0.6"/>
      </g>
     </g>
    </g>
    <g id="ytick_10">
     <g id="line2d_43">
      <g>
       <use xlink:href="#m13abbe72f4" x="160.88" y="302.580385" style="stroke: #000000; stroke-width: 0.6"/>
      </g>
     </g>
    </g>
    <g id="ytick_11">
     <g id="line2d_44">
      <g>
       <use xlink:href="#m13abbe72f4" x="160.88" y="293.486893" style="stroke: #000000; stroke-width: 0.6"/>
      </g>
     </g>
    </g>
    <g id="ytick_12">
     <g id="line2d_45">
      <g>
       <use xlink:href="#m13abbe72f4" x="160.88" y="284.393402" style="stroke: #000000; stroke-width: 0.6"/>
      </g>
     </g>
    </g>
    <g id="ytick_13">
     <g id="line2d_46">
      <g>
       <use xlink:href="#m13abbe72f4" x="160.88" y="266.20642" style="stroke: #000000; stroke-width: 0.6"/>
      </g>
     </g>
    </g>
    <g id="ytick_14">
     <g id="line2d_47">
      <g>
       <use xlink:href="#m13abbe72f4" x="160.88" y="257.112929" style="stroke: #000000; stroke-width: 0.6"/>
      </g>
     </g>
    </g>
    <g id="ytick_15">
     <g id="line2d_48">
      <g>
       <use xlink:href="#m13abbe72f4" x="160.88" y="248.019438" style="stroke: #000000; stroke-width: 0.6"/>
      </g>
     </g>
    </g>
    <g id="ytick_16">
     <g id="line2d_49">
      <g>
       <use xlink:href="#m13abbe72f4" x="160.88" y="238.925947" style="stroke: #000000; stroke-width: 0.6"/>
      </g>
     </g>
    </g>
    <g id="ytick_17">
     <g id="line2d_50">
      <g>
       <use xlink:href="#m13abbe72f4" x="160.88" y="220.738964" style="stroke: #000000; stroke-width: 0.6"/>
      </g>
     </g>
    </g>
    <g id="ytick_18">
     <g id="line2d_51">
      <g>
       <use xlink:href="#m13abbe72f4" x="160.88" y="211.645473" style="stroke: #000000; stroke-width: 0.6"/>
      </g>
     </g>
    </g>
    <g id="ytick_19">
     <g id="line2d_52">
      <g>
       <use xlink:href="#m13abbe72f4" x="160.88" y="202.551982" style="stroke: #000000; stroke-width: 0.6"/>
      </g>
     </g>
    </g>
    <g id="ytick_20">
     <g id="line2d_53">
      <g>
       <use xlink:href="#m13abbe72f4" x="160.88" y="193.458491" style="stroke: #000000; stroke-width: 0.6"/>
      </g>
     </g>
    </g>
    <g id="ytick_21">
     <g id="line2d_54">
      <g>
       <use xlink:href="#m13abbe72f4" x="160.88" y="175.271509" style="stroke: #000000; stroke-width: 0.6"/>
      </g>
     </g>
    </g>
    <g id="ytick_22">
     <g id="line2d_55">
      <g>
       <use xlink:href="#m13abbe72f4" x="160.88" y="166.178018" style="stroke: #000000; stroke-width: 0.6"/>
      </g>
     </g>
    </g>
    <g id="ytick_23">
     <g id="line2d_56">
      <g>
       <use xlink:href="#m13abbe72f4" x="160.88" y="157.084527" style="stroke: #000000; stroke-width: 0.6"/>
      </g>
     </g>
    </g>
    <g id="ytick_24">
     <g id="line2d_57">
      <g>
       <use xlink:href="#m13abbe72f4" x="160.88" y="147.991036" style="stroke: #000000; stroke-width: 0.6"/>
      </g>
     </g>
    </g>
    <g id="ytick_25">
     <g id="line2d_58">
      <g>
       <use xlink:href="#m13abbe72f4" x="160.88" y="129.804053" style="stroke: #000000; stroke-width: 0.6"/>
      </g>
     </g>
    </g>
    <g id="ytick_26">
     <g id="line2d_59">
      <g>
       <use xlink:href="#m13abbe72f4" x="160.88" y="120.710562" style="stroke: #000000; stroke-width: 0.6"/>
      </g>
     </g>
    </g>
    <g id="ytick_27">
     <g id="line2d_60">
      <g>
       <use xlink:href="#m13abbe72f4" x="160.88" y="111.617071" style="stroke: #000000; stroke-width: 0.6"/>
      </g>
     </g>
    </g>
    <g id="ytick_28">
     <g id="line2d_61">
      <g>
       <use xlink:href="#m13abbe72f4" x="160.88" y="102.52358" style="stroke: #000000; stroke-width: 0.6"/>
      </g>
     </g>
    </g>
    <g id="ytick_29">
     <g id="line2d_62">
      <g>
       <use xlink:href="#m13abbe72f4" x="160.88" y="84.336598" style="stroke: #000000; stroke-width: 0.6"/>
      </g>
     </g>
    </g>
    <g id="ytick_30">
     <g id="line2d_63">
      <g>
       <use xlink:href="#m13abbe72f4" x="160.88" y="75.243107" style="stroke: #000000; stroke-width: 0.6"/>
      </g>
     </g>
    </g>
    <g id="ytick_31">
     <g id="line2d_64">
      <g>
       <use xlink:href="#m13abbe72f4" x="160.88" y="66.149615" style="stroke: #000000; stroke-width: 0.6"/>
      </g>
     </g>
    </g>
    <g id="ytick_32">
     <g id="line2d_65">
      <g>
       <use xlink:href="#m13abbe72f4" x="160.88" y="57.056124" style="stroke: #000000; stroke-width: 0.6"/>
      </g>
     </g>
    </g>
    <g id="ytick_33">
     <g id="line2d_66">
      <g>
       <use xlink:href="#m13abbe72f4" x="160.88" y="38.869142" style="stroke: #000000; stroke-width: 0.6"/>
      </g>
     </g>
    </g>
    <g id="text_14">
     <!-- $y$ -->
     <g transform="translate(156.88 19.325)scale(0.16 -0.16)">
      <defs>
       <path id="Cmmi10-79" d="M 538 -916 
Q 672 -1147 1006 -1147 
Q 1309 -1147 1531 -934 
Q 1753 -722 1889 -420 
Q 2025 -119 2100 197 
Q 1816 -72 1484 -72 
Q 1231 -72 1053 15 
Q 875 103 776 276 
Q 678 450 678 697 
Q 678 906 734 1126 
Q 791 1347 892 1617 
Q 994 1888 1069 2088 
Q 1153 2322 1153 2472 
Q 1153 2663 1013 2663 
Q 759 2663 595 2402 
Q 431 2141 353 1819 
Q 341 1778 300 1778 
L 225 1778 
Q 172 1778 172 1838 
L 172 1856 
Q 275 2238 487 2533 
Q 700 2828 1025 2828 
Q 1253 2828 1411 2678 
Q 1569 2528 1569 2297 
Q 1569 2178 1516 2047 
Q 1488 1969 1388 1706 
Q 1288 1444 1234 1272 
Q 1181 1100 1147 934 
Q 1113 769 1113 603 
Q 1113 391 1203 244 
Q 1294 97 1491 97 
Q 1888 97 2203 581 
L 2688 2553 
Q 2709 2638 2787 2698 
Q 2866 2759 2956 2759 
Q 3034 2759 3092 2709 
Q 3150 2659 3150 2578 
Q 3150 2541 3144 2528 
L 2509 -19 
Q 2425 -347 2200 -647 
Q 1975 -947 1658 -1130 
Q 1341 -1313 997 -1313 
Q 831 -1313 668 -1248 
Q 506 -1184 406 -1056 
Q 306 -928 306 -756 
Q 306 -581 409 -453 
Q 513 -325 684 -325 
Q 788 -325 858 -389 
Q 928 -453 928 -556 
Q 928 -703 818 -812 
Q 709 -922 563 -922 
Q 556 -919 550 -917 
Q 544 -916 538 -916 
z
" transform="scale(0.015625)"/>
      </defs>
      <use xlink:href="#Cmmi10-79" transform="translate(0 0.8125)"/>
     </g>
    </g>
   </g>
   <g id="line2d_67">
    <path d="M 229.081183 184.365 
L 228.96192 180.333425 
L 228.651248 176.719131 
L 228.003816 172.290449 
L 226.98158 167.572663 
L 225.762451 163.349079 
L 224.625451 160.117962 
L 222.9558 156.116168 
L 221.193605 152.526809 
L 219.095824 148.835868 
L 217.123255 145.78913 
L 215.234649 143.170661 
L 211.690796 138.871435 
L 209.539978 136.577889 
L 206.507394 133.674346 
L 203.131563 130.828033 
L 199.793185 128.354595 
L 197.39972 126.765421 
L 193.418675 124.426397 
L 190.342289 122.855855 
L 186.224675 121.04795 
L 181.631792 119.397588 
L 177.826865 118.302869 
L 173.569174 117.354655 
L 168.053542 116.54213 
L 164.572727 116.263861 
L 159.806711 116.172262 
L 155.186216 116.401905 
L 150.807423 116.911723 
L 147.593593 117.47051 
L 143.691117 118.365426 
L 139.117009 119.729301 
L 135.646728 121.003471 
L 132.11209 122.528047 
L 126.559986 125.428271 
L 123.187003 127.526286 
L 119.566924 130.100544 
L 117.365776 131.849157 
L 115.163213 133.754953 
L 112.1589 136.640207 
L 108.432605 140.7683 
L 105.710919 144.267943 
L 103.273568 147.856091 
L 100.865411 151.96669 
L 99.144886 155.37919 
L 97.32964 159.611148 
L 96.001899 163.335652 
L 94.850216 167.292534 
L 93.987465 171.068752 
L 93.447392 174.154963 
L 92.895825 178.928693 
L 92.729822 181.727843 
L 92.699257 186.034637 
L 92.882419 189.630972 
L 93.319919 193.694357 
L 93.82527 196.817496 
L 94.932154 201.751287 
L 96.209043 206.022995 
L 97.330931 209.122165 
L 99.208364 213.485623 
L 101.336722 217.621571 
L 102.803448 220.121336 
L 105.907807 224.731563 
L 107.271478 226.525738 
L 109.17083 228.834801 
L 112.033437 231.961372 
L 114.75263 234.601115 
L 118.412218 237.730616 
L 122.789269 240.937941 
L 126.558733 243.300999 
L 130.243624 245.297864 
L 132.764237 246.501183 
L 136.980634 248.241613 
L 140.817139 249.548457 
L 145.188805 250.736589 
L 150.220542 251.728027 
L 153.445623 252.159775 
L 156.534152 252.427582 
L 160.470231 252.564952 
L 163.916598 252.498549 
L 168.06017 252.187169 
L 172.725545 251.529607 
L 177.944211 250.396918 
L 181.88294 249.251654 
L 185.413728 248.000663 
L 188.773693 246.60119 
L 192.754425 244.659464 
L 196.688945 242.409129 
L 200.457065 239.908293 
L 203.557002 237.563449 
L 206.64859 234.928204 
L 210.049553 231.627633 
L 213.332671 227.955351 
L 215.795441 224.808735 
L 218.16184 221.381108 
L 220.401678 217.660213 
L 222.268226 214.078417 
L 223.896343 210.448366 
L 225.72693 205.490272 
L 226.798089 201.863771 
L 227.700564 198.018339 
L 228.485805 193.357027 
L 228.931753 188.877243 
L 229.081183 184.365 
L 229.081183 184.365 
" clip-path="url(#pcb56806dd5)" style="fill: none; stroke: #ff0000; stroke-width: 2; stroke-linecap: square"/>
   </g>
   <g id="patch_3">
    <path d="M 228.171834 177.544882 
Q 228.626509 180.954941 228.785656 182.148547 
" clip-path="url(#pcb56806dd5)" style="fill: none; stroke: #ff0000; stroke-width: 2; stroke-linecap: round"/>
    <path d="M 232.420159 171.575449 
L 228.785656 182.148547 
L 222.50788 172.897087 
L 232.420159 171.575449 
z
" clip-path="url(#pcb56806dd5)" style="fill: #ff0000; stroke: #ff0000; stroke-width: 2; stroke-linecap: round"/>
   </g>
   <g id="patch_4">
    <path d="M 160.88 338.045 
L 160.88 30.685 
" style="fill: none; stroke: #000000; stroke-width: 0.8; stroke-linejoin: miter; stroke-linecap: square"/>
   </g>
   <g id="patch_5">
    <path d="M 7.2 184.365 
L 314.56 184.365 
" style="fill: none; stroke: #000000; stroke-width: 0.8; stroke-linejoin: miter; stroke-linecap: square"/>
   </g>
  </g>
 </g>
 <defs>
  <clipPath id="pcb56806dd5">
   <rect x="7.2" y="30.685" width="307.36" height="307.36"/>
  </clipPath>
 </defs>
</svg>
