<?xml version="1.0" encoding="utf-8" standalone="no"?>
<!DOCTYPE svg PUBLIC "-//W3C//DTD SVG 1.1//EN"
  "http://www.w3.org/Graphics/SVG/1.1/DTD/svg11.dtd">
<svg xmlns:xlink="http://www.w3.org/1999/xlink" width="344.287454pt" height="344.242538pt" viewBox="0 0 344.287454 344.242538" xmlns="http://www.w3.org/2000/svg" version="1.1">
 <metadata>
  <rdf:RDF xmlns:dc="http://purl.org/dc/elements/1.1/" xmlns:cc="http://creativecommons.org/ns#" xmlns:rdf="http://www.w3.org/1999/02/22-rdf-syntax-ns#">
   <cc:Work>
    <dc:type rdf:resource="http://purl.org/dc/dcmitype/StillImage"/>
    <dc:date>2025-03-06T19:36:10.614969</dc:date>
    <dc:format>image/svg+xml</dc:format>
    <dc:creator>
     <cc:Agent>
      <dc:title>Matplotlib v3.5.1, https://matplotlib.org/</dc:title>
     </cc:Agent>
    </dc:creator>
   </cc:Work>
  </rdf:RDF>
 </metadata>
 <defs>
  <style type="text/css">*{stroke-linejoin: round; stroke-linecap: butt}</style>
 </defs>
 <g id="figure_1">
  <g id="patch_1">
   <path d="M -0 344.242538 
L 344.287454 344.242538 
L 344.287454 0 
L -0 0 
z
" style="fill: #ffffff"/>
  </g>
  <g id="axes_1">
   <g id="patch_2">
    <path d="M 13.449915 337.042538 
L 319.807454 337.042538 
L 319.807454 30.685 
L 13.449915 30.685 
z
" style="fill: #ffffff"/>
   </g>
   <g id="Quiver_1">
    <path d="M 19.774661 330.717792 
L 29.741269 340.6844 
L 30.607779 338.95138 
L 33.207309 345.01695 
L 27.141739 342.41742 
L 28.874759 341.55091 
L 18.908151 331.584302 
L 19.774661 330.717792 
" clip-path="url(#p3920f8906e)" style="fill: #0000ff"/>
    <path d="M 19.806614 309.711258 
L 28.102926 319.390288 
L 29.0998 317.728831 
L 31.226465 323.97591 
L 25.378137 320.918829 
L 27.17251 320.187788 
L 18.876198 310.508757 
L 19.806614 309.711258 
" clip-path="url(#p3920f8906e)" style="fill: #0000ff"/>
    <path d="M 19.839993 288.712834 
L 26.539008 298.091456 
L 27.678635 296.524469 
L 29.245622 302.93487 
L 23.689941 299.373536 
L 25.541835 298.803723 
L 18.842819 289.425101 
L 19.839993 288.712834 
" clip-path="url(#p3920f8906e)" style="fill: #0000ff"/>
    <path d="M 19.873392 267.723936 
L 25.060838 276.801968 
L 26.352804 275.358007 
L 27.264779 281.89383 
L 22.096918 277.789941 
L 23.996867 277.409951 
L 18.809421 268.33192 
L 19.873392 267.723936 
" clip-path="url(#p3920f8906e)" style="fill: #0000ff"/>
    <path d="M 19.90458 246.745528 
L 23.674867 255.542864 
L 25.123029 254.255609 
L 25.283936 260.852791 
L 20.617637 256.186492 
L 22.548519 256.025585 
L 18.778232 247.228249 
L 19.90458 246.745528 
" clip-path="url(#p3920f8906e)" style="fill: #0000ff"/>
    <path d="M 19.930546 225.777523 
L 22.377301 234.341163 
L 23.976396 233.247046 
L 23.303093 239.811751 
L 19.263274 234.593652 
L 21.19902 234.677815 
L 18.752266 226.114174 
L 19.930546 225.777523 
" clip-path="url(#p3920f8906e)" style="fill: #0000ff"/>
    <path d="M 19.947963 204.818158 
L 21.148947 213.225047 
L 22.881967 212.358537 
L 21.322249 218.770711 
L 18.029512 213.051745 
L 19.935833 213.398349 
L 18.734849 204.99146 
L 19.947963 204.818158 
" clip-path="url(#p3920f8906e)" style="fill: #0000ff"/>
    <path d="M 19.954121 183.863769 
L 19.954121 192.215236 
L 21.792267 191.602521 
L 19.341406 197.729672 
L 16.890546 191.602521 
L 18.728691 192.215236 
L 18.728691 183.863769 
L 19.954121 183.863769 
" clip-path="url(#p3920f8906e)" style="fill: #0000ff"/>
    <path d="M 19.947963 162.90938 
L 18.746979 171.31627 
L 20.653301 170.969666 
L 17.360563 176.688632 
L 15.800845 170.276458 
L 17.533865 171.142968 
L 18.734849 162.736079 
L 19.947963 162.90938 
" clip-path="url(#p3920f8906e)" style="fill: #0000ff"/>
    <path d="M 19.930546 141.950016 
L 17.483792 150.513656 
L 19.419539 150.429493 
L 15.37972 155.647592 
L 14.706417 149.082887 
L 16.305512 150.177004 
L 18.752266 141.613364 
L 19.930546 141.950016 
" clip-path="url(#p3920f8906e)" style="fill: #0000ff"/>
    <path d="M 19.90458 120.98201 
L 16.134293 129.779346 
L 18.065176 129.940253 
L 13.398877 134.606552 
L 13.559784 128.009371 
L 15.007945 129.296626 
L 18.778232 120.49929 
L 19.90458 120.98201 
" clip-path="url(#p3920f8906e)" style="fill: #0000ff"/>
    <path d="M 19.873392 100.003602 
L 14.685945 109.081633 
L 16.585894 109.461623 
L 11.418034 113.565513 
L 12.330009 107.029689 
L 13.621974 108.47365 
L 18.809421 99.395619 
L 19.873392 100.003602 
" clip-path="url(#p3920f8906e)" style="fill: #0000ff"/>
    <path d="M 19.839993 79.014704 
L 13.140978 88.393325 
L 14.992871 88.963139 
L 9.43719 92.524473 
L 11.004177 86.114072 
L 12.143804 87.681059 
L 18.842819 78.302437 
L 19.839993 79.014704 
" clip-path="url(#p3920f8906e)" style="fill: #0000ff"/>
    <path d="M 19.806614 58.016281 
L 11.510302 67.695311 
L 13.304676 68.426352 
L 7.456347 71.483433 
L 9.583012 65.236355 
L 10.579886 66.897812 
L 18.876198 57.218781 
L 19.806614 58.016281 
" clip-path="url(#p3920f8906e)" style="fill: #0000ff"/>
    <path d="M 19.774661 37.009746 
L 9.808054 46.976354 
L 11.541074 47.842863 
L 5.475504 50.442393 
L 8.075034 44.376824 
L 8.941544 46.109844 
L 18.908151 36.143236 
L 19.774661 37.009746 
" clip-path="url(#p3920f8906e)" style="fill: #0000ff"/>
    <path d="M 40.781196 330.685839 
L 50.460226 338.982151 
L 51.191267 337.187778 
L 54.248348 343.036106 
L 48.00127 340.909441 
L 49.662727 339.912567 
L 39.983696 331.616255 
L 40.781196 330.685839 
" clip-path="url(#p3920f8906e)" style="fill: #0000ff"/>
    <path d="M 40.815701 309.676753 
L 48.801465 317.662517 
L 49.667975 315.929497 
L 52.267505 321.995067 
L 46.201935 319.395537 
L 47.934955 318.529027 
L 39.949191 310.543263 
L 40.815701 309.676753 
" clip-path="url(#p3920f8906e)" style="fill: #0000ff"/>
    <path d="M 40.853147 288.676717 
L 47.227107 296.32547 
L 48.246959 294.678017 
L 50.286662 300.954027 
L 44.481353 297.816022 
L 46.285705 297.109971 
L 39.911745 289.461219 
L 40.853147 288.676717 
" clip-path="url(#p3920f8906e)" style="fill: #0000ff"/>
    <path d="M 40.892256 267.688055 
L 45.75677 274.984826 
L 46.946326 273.455397 
L 48.305819 279.912987 
L 42.867848 276.174382 
L 44.73715 275.664573 
L 39.872636 268.367801 
L 40.892256 267.688055 
" clip-path="url(#p3920f8906e)" style="fill: #0000ff"/>
    <path d="M 40.930475 246.712874 
L 44.406874 253.665672 
L 45.776947 252.295599 
L 46.324976 258.871948 
L 41.392714 254.487715 
L 43.310816 254.213701 
L 39.834417 247.260903 
L 40.930475 246.712874 
" clip-path="url(#p3920f8906e)" style="fill: #0000ff"/>
    <path d="M 40.963719 225.752091 
L 43.181587 232.405697 
L 44.731647 231.243152 
L 44.344132 237.830908 
L 40.081467 232.793212 
L 42.019042 232.793212 
L 39.801173 226.139606 
L 40.963719 225.752091 
" clip-path="url(#p3920f8906e)" style="fill: #0000ff"/>
    <path d="M 40.986824 204.804079 
L 42.0611 211.249732 
L 43.773505 210.343165 
L 42.363289 216.789868 
L 38.938478 211.149003 
L 40.852343 211.451192 
L 39.778068 205.005539 
L 40.986824 204.804079 
" clip-path="url(#p3920f8906e)" style="fill: #0000ff"/>
    <path d="M 40.995161 183.863769 
L 40.995161 190.234393 
L 42.833306 189.621678 
L 40.382446 195.748828 
L 37.931586 189.621678 
L 39.769731 190.234393 
L 39.769731 183.863769 
L 40.995161 183.863769 
" clip-path="url(#p3920f8906e)" style="fill: #0000ff"/>
    <path d="M 40.986824 162.923459 
L 39.912549 169.369112 
L 41.826414 169.066923 
L 38.401603 174.707789 
L 36.991386 168.261085 
L 38.703792 169.167653 
L 39.778068 162.722 
L 40.986824 162.923459 
" clip-path="url(#p3920f8906e)" style="fill: #0000ff"/>
    <path d="M 40.963719 141.975447 
L 38.74585 148.629053 
L 40.683425 148.629053 
L 36.42076 153.666749 
L 36.033245 147.078993 
L 37.583305 148.241538 
L 39.801173 141.587932 
L 40.963719 141.975447 
" clip-path="url(#p3920f8906e)" style="fill: #0000ff"/>
    <path d="M 40.930475 121.014665 
L 37.454076 127.967462 
L 39.372178 128.241477 
L 34.439916 132.625709 
L 34.987945 126.049361 
L 36.358018 127.419433 
L 39.834417 120.466636 
L 40.930475 121.014665 
" clip-path="url(#p3920f8906e)" style="fill: #0000ff"/>
    <path d="M 40.892256 100.039483 
L 36.027742 107.336255 
L 37.897044 107.846065 
L 32.459073 111.584669 
L 33.818566 105.127079 
L 35.008122 106.656508 
L 39.872636 99.359737 
L 40.892256 100.039483 
" clip-path="url(#p3920f8906e)" style="fill: #0000ff"/>
    <path d="M 40.853147 79.050821 
L 34.479187 86.699573 
L 36.283539 87.405625 
L 30.47823 90.54363 
L 32.517933 84.26762 
L 33.537785 85.915072 
L 39.911745 78.26632 
L 40.853147 79.050821 
" clip-path="url(#p3920f8906e)" style="fill: #0000ff"/>
    <path d="M 40.815701 58.050786 
L 32.829937 66.03655 
L 34.562957 66.90306 
L 28.497387 69.50259 
L 31.096917 63.43702 
L 31.963427 65.17004 
L 39.949191 57.184276 
L 40.815701 58.050786 
" clip-path="url(#p3920f8906e)" style="fill: #0000ff"/>
    <path d="M 40.781196 37.041699 
L 31.102165 45.338011 
L 32.763622 46.334885 
L 26.516544 48.46155 
L 29.573625 42.613221 
L 30.304666 44.407595 
L 39.983696 36.111283 
L 40.781196 37.041699 
" clip-path="url(#p3920f8906e)" style="fill: #0000ff"/>
    <path d="M 61.779619 330.652461 
L 71.15824 337.351476 
L 71.728054 335.499582 
L 75.289388 341.055263 
L 68.878987 339.488276 
L 70.445974 338.348649 
L 61.067352 331.649634 
L 61.779619 330.652461 
" clip-path="url(#p3920f8906e)" style="fill: #0000ff"/>
    <path d="M 61.815736 309.639307 
L 69.464489 316.013267 
L 70.17054 314.208914 
L 73.308545 320.014224 
L 67.032535 317.97452 
L 68.679987 316.954669 
L 61.031235 310.580708 
L 61.815736 309.639307 
" clip-path="url(#p3920f8906e)" style="fill: #0000ff"/>
    <path d="M 61.856741 288.635713 
L 67.861662 294.640634 
L 68.728172 292.907614 
L 71.327702 298.973184 
L 65.262132 296.373654 
L 66.995152 295.507144 
L 60.990231 289.502223 
L 61.856741 288.635713 
" clip-path="url(#p3920f8906e)" style="fill: #0000ff"/>
    <path d="M 61.901936 267.645168 
L 66.380468 273.243333 
L 67.433058 271.616603 
L 69.346858 277.932144 
L 63.605457 274.678683 
L 65.423568 274.008853 
L 60.945036 268.410688 
L 61.901936 267.645168 
" clip-path="url(#p3920f8906e)" style="fill: #0000ff"/>
    <path d="M 61.948885 246.671649 
L 65.05426 251.847275 
L 66.315218 250.376159 
L 67.366015 256.891104 
L 62.112027 252.898073 
L 64.003463 252.477754 
L 60.898087 247.302128 
L 61.948885 246.671649 
" clip-path="url(#p3920f8906e)" style="fill: #0000ff"/>
    <path d="M 61.992377 225.718292 
L 63.906054 230.502483 
L 65.385172 229.250921 
L 65.385172 235.850065 
L 60.834039 231.071375 
L 62.76827 230.957596 
L 60.854594 226.173405 
L 61.992377 225.718292 
" clip-path="url(#p3920f8906e)" style="fill: #0000ff"/>
    <path d="M 62.024302 204.784646 
L 62.923676 209.281512 
L 64.605962 208.320206 
L 63.404329 214.809025 
L 59.79943 209.281512 
L 61.722043 209.521839 
L 60.822669 205.024972 
L 62.024302 204.784646 
" clip-path="url(#p3920f8906e)" style="fill: #0000ff"/>
    <path d="M 62.036201 183.863769 
L 62.036201 188.253549 
L 63.874346 187.640834 
L 61.423486 193.767985 
L 58.972625 187.640834 
L 60.810771 188.253549 
L 60.810771 183.863769 
L 62.036201 183.863769 
" clip-path="url(#p3920f8906e)" style="fill: #0000ff"/>
    <path d="M 62.024302 162.942893 
L 61.124929 167.43976 
L 63.047542 167.199433 
L 59.442643 172.726945 
L 58.241009 166.238127 
L 59.923296 167.199433 
L 60.822669 162.702566 
L 62.024302 162.942893 
" clip-path="url(#p3920f8906e)" style="fill: #0000ff"/>
    <path d="M 61.992377 142.009246 
L 60.078701 146.793437 
L 62.012933 146.907216 
L 57.461799 151.685906 
L 57.461799 145.086762 
L 58.940918 146.338324 
L 60.854594 141.554133 
L 61.992377 142.009246 
" clip-path="url(#p3920f8906e)" style="fill: #0000ff"/>
    <path d="M 61.948885 121.055889 
L 58.843509 126.231516 
L 60.734945 126.651835 
L 55.480956 130.644866 
L 56.531754 124.12992 
L 57.792711 125.601037 
L 60.898087 120.425411 
L 61.948885 121.055889 
" clip-path="url(#p3920f8906e)" style="fill: #0000ff"/>
    <path d="M 61.901936 100.08237 
L 57.423404 105.680535 
L 59.241514 106.350366 
L 53.500113 109.603826 
L 55.413913 103.288285 
L 56.466504 104.915015 
L 60.945036 99.31685 
L 61.901936 100.08237 
" clip-path="url(#p3920f8906e)" style="fill: #0000ff"/>
    <path d="M 61.856741 79.091826 
L 55.85182 85.096747 
L 57.58484 85.963257 
L 51.51927 88.562787 
L 54.1188 82.497217 
L 54.98531 84.230237 
L 60.990231 78.225316 
L 61.856741 79.091826 
" clip-path="url(#p3920f8906e)" style="fill: #0000ff"/>
    <path d="M 61.815736 58.088232 
L 54.166984 64.462192 
L 55.814437 65.482043 
L 49.538427 67.521747 
L 52.676432 61.716437 
L 53.382483 63.52079 
L 61.031235 57.14683 
L 61.815736 58.088232 
" clip-path="url(#p3920f8906e)" style="fill: #0000ff"/>
    <path d="M 61.779619 37.075078 
L 52.400998 43.774093 
L 53.967985 44.91372 
L 47.557583 46.480707 
L 51.118917 40.925026 
L 51.688731 42.77692 
L 61.067352 36.077904 
L 61.779619 37.075078 
" clip-path="url(#p3920f8906e)" style="fill: #0000ff"/>
    <path d="M 82.768517 330.619062 
L 91.846549 335.806508 
L 92.226538 333.906559 
L 96.330428 339.07442 
L 89.794604 338.162445 
L 91.238565 336.870479 
L 82.160534 331.683033 
L 82.768517 330.619062 
" clip-path="url(#p3920f8906e)" style="fill: #0000ff"/>
    <path d="M 82.804399 309.600198 
L 90.10117 314.464712 
L 90.61098 312.59541 
L 94.349585 318.03338 
L 87.891994 316.673888 
L 89.421424 315.484332 
L 82.124652 310.619817 
L 82.804399 309.600198 
" clip-path="url(#p3920f8906e)" style="fill: #0000ff"/>
    <path d="M 82.847286 288.590518 
L 88.445451 293.06905 
L 89.115281 291.250939 
L 92.368741 296.992341 
L 86.0532 295.07854 
L 87.67993 294.02595 
L 82.081765 289.547418 
L 82.847286 288.590518 
" clip-path="url(#p3920f8906e)" style="fill: #0000ff"/>
    <path d="M 82.89778 267.594673 
L 86.921858 271.618751 
L 87.788368 269.885731 
L 90.387898 275.951301 
L 84.322328 273.351771 
L 86.055348 272.485261 
L 82.03127 268.461183 
L 82.89778 267.594673 
" clip-path="url(#p3920f8906e)" style="fill: #0000ff"/>
    <path d="M 82.954698 246.619259 
L 85.588566 250.131084 
L 86.691453 248.538024 
L 88.407055 254.910261 
L 82.770076 251.479057 
L 84.608222 250.866342 
L 81.974353 247.354517 
L 82.954698 246.619259 
" clip-path="url(#p3920f8906e)" style="fill: #0000ff"/>
    <path d="M 83.012554 225.671834 
L 84.50811 228.662946 
L 85.878183 227.292873 
L 86.426212 233.869221 
L 81.493951 229.484989 
L 83.412052 229.210975 
L 81.916496 226.219863 
L 83.012554 225.671834 
" clip-path="url(#p3920f8906e)" style="fill: #0000ff"/>
    <path d="M 83.058946 204.756204 
L 83.702342 207.329788 
L 85.337 206.289551 
L 84.445369 212.828182 
L 80.581633 207.478393 
L 82.513501 207.626998 
L 81.870105 205.053414 
L 83.058946 204.756204 
" clip-path="url(#p3920f8906e)" style="fill: #0000ff"/>
    <path d="M 83.077241 183.863769 
L 83.077241 186.272706 
L 84.915386 185.659991 
L 82.464525 191.787142 
L 80.013665 185.659991 
L 81.85181 186.272706 
L 81.85181 183.863769 
L 83.077241 183.863769 
" clip-path="url(#p3920f8906e)" style="fill: #0000ff"/>
    <path d="M 83.058946 162.971335 
L 82.41555 165.544919 
L 84.347418 165.396314 
L 80.483682 170.746102 
L 79.592051 164.207472 
L 81.226708 165.247709 
L 81.870105 162.674124 
L 83.058946 162.971335 
" clip-path="url(#p3920f8906e)" style="fill: #0000ff"/>
    <path d="M 83.012554 142.055704 
L 81.516999 145.046816 
L 83.4351 145.32083 
L 78.502839 149.705063 
L 79.050868 143.128714 
L 80.420941 144.498787 
L 81.916496 141.507675 
L 83.012554 142.055704 
" clip-path="url(#p3920f8906e)" style="fill: #0000ff"/>
    <path d="M 82.954698 121.108279 
L 80.320829 124.620103 
L 82.158975 125.232818 
L 76.521996 128.664023 
L 78.237598 122.291786 
L 79.340485 123.884845 
L 81.974353 120.373021 
L 82.954698 121.108279 
" clip-path="url(#p3920f8906e)" style="fill: #0000ff"/>
    <path d="M 82.89778 100.132865 
L 78.873703 104.156943 
L 80.606723 105.023453 
L 74.541153 107.622983 
L 77.140683 101.557413 
L 78.007193 103.290433 
L 82.03127 99.266355 
L 82.89778 100.132865 
" clip-path="url(#p3920f8906e)" style="fill: #0000ff"/>
    <path d="M 82.847286 79.137021 
L 77.24912 83.615553 
L 78.875851 84.668143 
L 72.56031 86.581943 
L 75.81377 80.840542 
L 76.4836 82.658653 
L 82.081765 78.18012 
L 82.847286 79.137021 
" clip-path="url(#p3920f8906e)" style="fill: #0000ff"/>
    <path d="M 82.804399 58.127341 
L 75.507627 62.991855 
L 77.037057 64.181411 
L 70.579466 65.540904 
L 74.318071 60.102933 
L 74.827881 61.972235 
L 82.124652 57.107721 
L 82.804399 58.127341 
" clip-path="url(#p3920f8906e)" style="fill: #0000ff"/>
    <path d="M 82.768517 37.108477 
L 73.690486 42.295923 
L 75.134447 43.587888 
L 68.598623 44.499864 
L 72.702513 39.332003 
L 73.082502 41.231952 
L 82.160534 36.044505 
L 82.768517 37.108477 
" clip-path="url(#p3920f8906e)" style="fill: #0000ff"/>
    <path d="M 103.746925 330.587873 
L 112.544262 334.35816 
L 112.705168 332.427278 
L 117.371467 337.093577 
L 110.774286 336.93267 
L 112.061541 335.484508 
L 103.264205 331.714221 
L 103.746925 330.587873 
" clip-path="url(#p3920f8906e)" style="fill: #0000ff"/>
    <path d="M 103.77958 309.561979 
L 110.732378 313.038378 
L 111.006392 311.120276 
L 115.390624 316.052537 
L 108.814276 315.504508 
L 110.184349 314.134436 
L 103.231551 310.658037 
L 103.77958 309.561979 
" clip-path="url(#p3920f8906e)" style="fill: #0000ff"/>
    <path d="M 103.820804 288.543569 
L 108.996431 291.648945 
L 109.41675 289.757509 
L 113.409781 295.011497 
L 106.894835 293.9607 
L 108.365952 292.699743 
L 103.190326 289.594367 
L 103.820804 288.543569 
" clip-path="url(#p3920f8906e)" style="fill: #0000ff"/>
    <path d="M 103.873194 267.537756 
L 107.385018 270.171624 
L 107.997733 268.333479 
L 111.428938 273.970458 
L 105.056701 272.254855 
L 106.64976 271.151968 
L 103.137936 268.5181 
L 103.873194 267.537756 
" clip-path="url(#p3920f8906e)" style="fill: #0000ff"/>
    <path d="M 103.93882 246.553633 
L 105.982055 248.596868 
L 106.848565 246.863848 
L 109.448095 252.929418 
L 103.382525 250.329888 
L 105.115545 249.463378 
L 103.07231 247.420143 
L 103.93882 246.553633 
" clip-path="url(#p3920f8906e)" style="fill: #0000ff"/>
    <path d="M 104.015375 225.605976 
L 104.918203 226.960217 
L 106.107759 225.430788 
L 107.467252 231.888378 
L 102.029281 228.149773 
L 103.898583 227.639964 
L 102.995755 226.285722 
L 104.015375 225.605976 
" clip-path="url(#p3920f8906e)" style="fill: #0000ff"/>
    <path d="M 104.086838 204.711051 
L 104.323863 205.422128 
L 105.873923 204.259583 
L 105.486408 210.847339 
L 101.223743 205.809643 
L 103.161318 205.809643 
L 102.924293 205.098566 
L 104.086838 204.711051 
" clip-path="url(#p3920f8906e)" style="fill: #0000ff"/>
    <path d="M 104.099818 183.863769 
L 104.099818 184.458022 
L 105.882577 183.863769 
L 103.505565 189.806299 
L 101.128553 183.863769 
L 102.911312 184.458022 
L 102.911312 183.863769 
L 104.099818 183.863769 
" clip-path="url(#p3920f8906e)" style="fill: #0000ff"/>
    <path d="M 104.086838 163.016487 
L 103.849812 163.727564 
L 105.787387 163.727564 
L 101.524722 168.765259 
L 101.137207 162.177503 
L 102.687267 163.340048 
L 102.924293 162.628972 
L 104.086838 163.016487 
" clip-path="url(#p3920f8906e)" style="fill: #0000ff"/>
    <path d="M 104.015375 142.121563 
L 103.112547 143.475805 
L 104.98185 143.985614 
L 99.543879 147.724219 
L 100.903371 141.266629 
L 102.092928 142.796058 
L 102.995755 141.441817 
L 104.015375 142.121563 
" clip-path="url(#p3920f8906e)" style="fill: #0000ff"/>
    <path d="M 103.93882 121.173905 
L 101.895585 123.21714 
L 103.628605 124.08365 
L 97.563036 126.68318 
L 100.162566 120.61761 
L 101.029076 122.35063 
L 103.07231 120.307395 
L 103.93882 121.173905 
" clip-path="url(#p3920f8906e)" style="fill: #0000ff"/>
    <path d="M 103.873194 100.189782 
L 100.36137 102.823651 
L 101.954429 103.926538 
L 95.582192 105.64214 
L 99.013397 100.005161 
L 99.626112 101.843306 
L 103.137936 99.209438 
L 103.873194 100.189782 
" clip-path="url(#p3920f8906e)" style="fill: #0000ff"/>
    <path d="M 103.820804 79.183969 
L 98.645178 82.289345 
L 100.116295 83.550302 
L 93.601349 84.6011 
L 97.59438 79.347112 
L 98.0147 81.238548 
L 103.190326 78.133172 
L 103.820804 79.183969 
" clip-path="url(#p3920f8906e)" style="fill: #0000ff"/>
    <path d="M 103.77958 58.16556 
L 96.826782 61.641959 
L 98.196854 63.012031 
L 91.620506 63.56006 
L 96.004738 58.627799 
L 96.278753 60.545901 
L 103.231551 57.069502 
L 103.77958 58.16556 
" clip-path="url(#p3920f8906e)" style="fill: #0000ff"/>
    <path d="M 103.746925 37.139665 
L 94.949589 40.909952 
L 96.236844 42.358114 
L 89.639663 42.519021 
L 94.305962 37.852722 
L 94.466869 39.783604 
L 103.264205 36.013317 
L 103.746925 37.139665 
" clip-path="url(#p3920f8906e)" style="fill: #0000ff"/>
    <path d="M 124.714931 330.561907 
L 133.278571 333.008661 
L 133.194408 331.072915 
L 138.412507 335.112734 
L 131.847802 335.786037 
L 132.941919 334.186942 
L 124.378279 331.740188 
L 124.714931 330.561907 
" clip-path="url(#p3920f8906e)" style="fill: #0000ff"/>
    <path d="M 124.740362 309.528735 
L 131.393968 311.746604 
L 131.393968 309.809029 
L 136.431664 314.071694 
L 129.843908 314.459209 
L 131.006453 312.909149 
L 124.352847 310.69128 
L 124.740362 309.528735 
" clip-path="url(#p3920f8906e)" style="fill: #0000ff"/>
    <path d="M 124.774162 288.500076 
L 129.558352 290.413753 
L 129.672131 288.479521 
L 134.450821 293.030654 
L 127.851677 293.030654 
L 129.103239 291.551536 
L 124.319048 289.63786 
L 124.774162 288.500076 
" clip-path="url(#p3920f8906e)" style="fill: #0000ff"/>
    <path d="M 124.820619 267.479899 
L 127.811731 268.975455 
L 128.085745 267.057353 
L 132.469978 271.989615 
L 125.893629 271.441585 
L 127.263702 270.071513 
L 124.27259 268.575957 
L 124.820619 267.479899 
" clip-path="url(#p3920f8906e)" style="fill: #0000ff"/>
    <path d="M 124.886478 246.477079 
L 126.24072 247.379906 
L 126.75053 245.510604 
L 130.489134 250.948575 
L 124.031544 249.589082 
L 125.560973 248.399526 
L 124.206732 247.496698 
L 124.886478 246.477079 
" clip-path="url(#p3920f8906e)" style="fill: #0000ff"/>
    <path d="M 124.942774 225.54968 
L 125.338942 225.945849 
L 126.131279 224.361174 
L 128.508291 229.907535 
L 122.96193 227.530523 
L 124.546605 226.738186 
L 124.150436 226.342017 
L 124.942774 225.54968 
" clip-path="url(#p3920f8906e)" style="fill: #0000ff"/>
    <path d="M 124.942774 204.706725 
L 125.140858 205.102893 
L 126.131279 204.112472 
L 126.527448 208.866495 
L 122.96193 205.697146 
L 124.348521 205.499062 
L 124.150436 205.102893 
L 124.942774 204.706725 
" clip-path="url(#p3920f8906e)" style="fill: #0000ff"/>
    <path d="M 124.942774 183.863769 
L 124.942774 184.259938 
L 126.131279 183.863769 
L 124.546605 187.825456 
L 122.96193 183.863769 
L 124.150436 184.259938 
L 124.150436 183.863769 
L 124.942774 183.863769 
" clip-path="url(#p3920f8906e)" style="fill: #0000ff"/>
    <path d="M 124.942774 163.020814 
L 124.744689 163.416982 
L 126.131279 163.615067 
L 122.565762 166.784416 
L 122.96193 162.030392 
L 123.952352 163.020814 
L 124.150436 162.624645 
L 124.942774 163.020814 
" clip-path="url(#p3920f8906e)" style="fill: #0000ff"/>
    <path d="M 124.942774 142.177858 
L 124.546605 142.574027 
L 126.131279 143.366364 
L 120.584919 145.743376 
L 122.96193 140.197015 
L 123.754268 141.78169 
L 124.150436 141.385521 
L 124.942774 142.177858 
" clip-path="url(#p3920f8906e)" style="fill: #0000ff"/>
    <path d="M 124.886478 121.25046 
L 123.532236 122.153288 
L 125.061666 123.342844 
L 118.604075 124.702336 
L 122.34268 119.264366 
L 122.85249 121.133668 
L 124.206732 120.23084 
L 124.886478 121.25046 
" clip-path="url(#p3920f8906e)" style="fill: #0000ff"/>
    <path d="M 124.820619 100.247639 
L 121.829508 101.743195 
L 123.19958 103.113268 
L 116.623232 103.661297 
L 121.007464 98.729035 
L 121.281479 100.647137 
L 124.27259 99.151581 
L 124.820619 100.247639 
" clip-path="url(#p3920f8906e)" style="fill: #0000ff"/>
    <path d="M 124.774162 79.227462 
L 119.989971 81.141139 
L 121.241532 82.620257 
L 114.642389 82.620257 
L 119.421079 78.069124 
L 119.534857 80.003355 
L 124.319048 78.089679 
L 124.774162 79.227462 
" clip-path="url(#p3920f8906e)" style="fill: #0000ff"/>
    <path d="M 124.740362 58.198803 
L 118.086756 60.416672 
L 119.249301 61.966732 
L 112.661546 61.579217 
L 117.699241 57.316552 
L 117.699241 59.254127 
L 124.352847 57.036258 
L 124.740362 58.198803 
" clip-path="url(#p3920f8906e)" style="fill: #0000ff"/>
    <path d="M 124.714931 37.165631 
L 116.15129 39.612386 
L 117.245408 41.211481 
L 110.680703 40.538177 
L 115.898802 36.498359 
L 115.814639 38.434105 
L 124.378279 35.987351 
L 124.714931 37.165631 
" clip-path="url(#p3920f8906e)" style="fill: #0000ff"/>
    <path d="M 145.674296 330.54449 
L 154.081185 331.745475 
L 153.734581 329.839153 
L 159.453547 333.131891 
L 153.041373 334.691608 
L 153.907883 332.958589 
L 145.500994 331.757604 
L 145.674296 330.54449 
" clip-path="url(#p3920f8906e)" style="fill: #0000ff"/>
    <path d="M 145.688374 309.505629 
L 152.134028 310.579905 
L 151.831838 308.66604 
L 157.472704 312.090851 
L 151.026 313.501067 
L 151.932568 311.788662 
L 145.486915 310.714386 
L 145.688374 309.505629 
" clip-path="url(#p3920f8906e)" style="fill: #0000ff"/>
    <path d="M 145.707808 288.468151 
L 150.204675 289.367525 
L 149.964348 287.444912 
L 155.491861 291.049811 
L 149.003042 292.251444 
L 149.964348 290.569158 
L 145.467481 289.669784 
L 145.707808 288.468151 
" clip-path="url(#p3920f8906e)" style="fill: #0000ff"/>
    <path d="M 145.73625 267.433507 
L 148.309834 268.076903 
L 148.161229 266.145035 
L 153.511017 270.008771 
L 146.972387 270.900403 
L 148.012624 269.265745 
L 145.439039 268.622349 
L 145.73625 267.433507 
" clip-path="url(#p3920f8906e)" style="fill: #0000ff"/>
    <path d="M 145.781402 246.405616 
L 146.492479 246.642641 
L 146.492479 244.705066 
L 151.530174 248.967732 
L 144.942418 249.355247 
L 146.104964 247.805186 
L 145.393887 247.568161 
L 145.781402 246.405616 
" clip-path="url(#p3920f8906e)" style="fill: #0000ff"/>
    <path d="M 145.785729 225.54968 
L 146.181898 225.747764 
L 146.379982 224.361174 
L 149.549331 227.926692 
L 144.795307 227.530523 
L 145.785729 226.540102 
L 145.38956 226.342017 
L 145.785729 225.54968 
" clip-path="url(#p3920f8906e)" style="fill: #0000ff"/>
    <path d="M 145.785729 204.706725 
L 145.983813 204.904809 
L 146.379982 204.112472 
L 147.568488 206.885652 
L 144.795307 205.697146 
L 145.587645 205.300978 
L 145.38956 205.102893 
L 145.785729 204.706725 
" clip-path="url(#p3920f8906e)" style="fill: #0000ff"/>
    <path d="M 145.785729 183.863769 
L 145.785729 184.061854 
L 146.379982 183.863769 
L 145.587645 185.844612 
L 144.795307 183.863769 
L 145.38956 184.061854 
L 145.38956 183.863769 
L 145.785729 183.863769 
" clip-path="url(#p3920f8906e)" style="fill: #0000ff"/>
    <path d="M 145.785729 163.020814 
L 145.587645 163.218898 
L 146.379982 163.615067 
L 143.606801 164.803573 
L 144.795307 162.030392 
L 145.191476 162.82273 
L 145.38956 162.624645 
L 145.785729 163.020814 
" clip-path="url(#p3920f8906e)" style="fill: #0000ff"/>
    <path d="M 145.785729 142.177858 
L 145.38956 142.375943 
L 146.379982 143.366364 
L 141.625958 143.762533 
L 144.795307 140.197015 
L 144.993392 141.583605 
L 145.38956 141.385521 
L 145.785729 142.177858 
" clip-path="url(#p3920f8906e)" style="fill: #0000ff"/>
    <path d="M 145.781402 121.321923 
L 145.070326 121.558948 
L 146.232871 123.109008 
L 139.645115 122.721493 
L 144.682811 118.458828 
L 144.682811 120.396403 
L 145.393887 120.159377 
L 145.781402 121.321923 
" clip-path="url(#p3920f8906e)" style="fill: #0000ff"/>
    <path d="M 145.73625 100.294031 
L 143.162666 100.937427 
L 144.202902 102.572085 
L 137.664272 101.680453 
L 143.01406 97.816717 
L 142.865455 99.748585 
L 145.439039 99.105189 
L 145.73625 100.294031 
" clip-path="url(#p3920f8906e)" style="fill: #0000ff"/>
    <path d="M 145.707808 79.259387 
L 141.210941 80.158761 
L 142.172248 81.841047 
L 135.683429 80.639414 
L 141.210941 77.034514 
L 140.970614 78.957127 
L 145.467481 78.057754 
L 145.707808 79.259387 
" clip-path="url(#p3920f8906e)" style="fill: #0000ff"/>
    <path d="M 145.688374 58.221909 
L 139.242721 59.296185 
L 140.149289 61.00859 
L 133.702586 59.598374 
L 139.343451 56.173563 
L 139.041262 58.087428 
L 145.486915 57.013152 
L 145.688374 58.221909 
" clip-path="url(#p3920f8906e)" style="fill: #0000ff"/>
    <path d="M 145.674296 37.183048 
L 137.267406 38.384032 
L 138.133916 40.117052 
L 131.721742 38.557334 
L 137.440708 35.264596 
L 137.094104 37.170918 
L 145.500994 35.969934 
L 145.674296 37.183048 
" clip-path="url(#p3920f8906e)" style="fill: #0000ff"/>
    <path d="M 166.628684 330.538332 
L 174.980151 330.538332 
L 174.367436 328.700187 
L 180.494587 331.151047 
L 174.367436 333.601908 
L 174.980151 331.763762 
L 166.628684 331.763762 
L 166.628684 330.538332 
" clip-path="url(#p3920f8906e)" style="fill: #0000ff"/>
    <path d="M 166.628684 309.497293 
L 172.999308 309.497293 
L 172.386593 307.659147 
L 178.513743 310.110008 
L 172.386593 312.560868 
L 172.999308 310.722723 
L 166.628684 310.722723 
L 166.628684 309.497293 
" clip-path="url(#p3920f8906e)" style="fill: #0000ff"/>
    <path d="M 166.628684 288.456253 
L 171.018465 288.456253 
L 170.40575 286.618108 
L 176.5329 289.068968 
L 170.40575 291.519828 
L 171.018465 289.681683 
L 166.628684 289.681683 
L 166.628684 288.456253 
" clip-path="url(#p3920f8906e)" style="fill: #0000ff"/>
    <path d="M 166.628684 267.415213 
L 169.037621 267.415213 
L 168.424906 265.577068 
L 174.552057 268.027928 
L 168.424906 270.478788 
L 169.037621 268.640643 
L 166.628684 268.640643 
L 166.628684 267.415213 
" clip-path="url(#p3920f8906e)" style="fill: #0000ff"/>
    <path d="M 166.628684 246.392635 
L 167.222937 246.392635 
L 166.628684 244.609877 
L 172.571214 246.986888 
L 166.628684 249.3639 
L 167.222937 247.581141 
L 166.628684 247.581141 
L 166.628684 246.392635 
" clip-path="url(#p3920f8906e)" style="fill: #0000ff"/>
    <path d="M 166.628684 225.54968 
L 167.024853 225.54968 
L 166.628684 224.361174 
L 170.590371 225.945849 
L 166.628684 227.530523 
L 167.024853 226.342017 
L 166.628684 226.342017 
L 166.628684 225.54968 
" clip-path="url(#p3920f8906e)" style="fill: #0000ff"/>
    <path d="M 166.628684 204.706725 
L 166.826769 204.706725 
L 166.628684 204.112472 
L 168.609528 204.904809 
L 166.628684 205.697146 
L 166.826769 205.102893 
L 166.628684 205.102893 
L 166.628684 204.706725 
" clip-path="url(#p3920f8906e)" style="fill: #0000ff"/>
    <path d="M 167.241399 183.863769 
L 166.935042 183.333142 
L 166.322327 183.333142 
L 166.015969 183.863769 
L 166.322327 184.394396 
L 166.935042 184.394396 
L 167.241399 183.863769 
L 166.935042 183.333142 
" clip-path="url(#p3920f8906e)" style="fill: #0000ff"/>
    <path d="M 166.628684 163.020814 
L 166.4306 163.020814 
L 166.628684 163.615067 
L 164.647841 162.82273 
L 166.628684 162.030392 
L 166.4306 162.624645 
L 166.628684 162.624645 
L 166.628684 163.020814 
" clip-path="url(#p3920f8906e)" style="fill: #0000ff"/>
    <path d="M 166.628684 142.177858 
L 166.232516 142.177858 
L 166.628684 143.366364 
L 162.666998 141.78169 
L 166.628684 140.197015 
L 166.232516 141.385521 
L 166.628684 141.385521 
L 166.628684 142.177858 
" clip-path="url(#p3920f8906e)" style="fill: #0000ff"/>
    <path d="M 166.628684 121.334903 
L 166.034431 121.334903 
L 166.628684 123.117662 
L 160.686155 120.74065 
L 166.628684 118.363638 
L 166.034431 120.146397 
L 166.628684 120.146397 
L 166.628684 121.334903 
" clip-path="url(#p3920f8906e)" style="fill: #0000ff"/>
    <path d="M 166.628684 100.312325 
L 164.219747 100.312325 
L 164.832462 102.150471 
L 158.705312 99.69961 
L 164.832462 97.24875 
L 164.219747 99.086895 
L 166.628684 99.086895 
L 166.628684 100.312325 
" clip-path="url(#p3920f8906e)" style="fill: #0000ff"/>
    <path d="M 166.628684 79.271286 
L 162.238904 79.271286 
L 162.851619 81.109431 
L 156.724468 78.658571 
L 162.851619 76.20771 
L 162.238904 78.045856 
L 166.628684 78.045856 
L 166.628684 79.271286 
" clip-path="url(#p3920f8906e)" style="fill: #0000ff"/>
    <path d="M 166.628684 58.230246 
L 160.258061 58.230246 
L 160.870776 60.068391 
L 154.743625 57.617531 
L 160.870776 55.166671 
L 160.258061 57.004816 
L 166.628684 57.004816 
L 166.628684 58.230246 
" clip-path="url(#p3920f8906e)" style="fill: #0000ff"/>
    <path d="M 166.628684 37.189206 
L 158.277218 37.189206 
L 158.889933 39.027351 
L 152.762782 36.576491 
L 158.889933 34.125631 
L 158.277218 35.963776 
L 166.628684 35.963776 
L 166.628684 37.189206 
" clip-path="url(#p3920f8906e)" style="fill: #0000ff"/>
    <path d="M 187.583073 330.54449 
L 195.989963 329.343506 
L 195.123453 327.610486 
L 201.535626 329.170204 
L 195.816661 332.462942 
L 196.163265 330.55662 
L 187.756375 331.757604 
L 187.583073 330.54449 
" clip-path="url(#p3920f8906e)" style="fill: #0000ff"/>
    <path d="M 187.568994 309.505629 
L 194.014648 308.431354 
L 193.10808 306.718948 
L 199.554783 308.129164 
L 193.913918 311.553976 
L 194.216107 309.64011 
L 187.770454 310.714386 
L 187.568994 309.505629 
" clip-path="url(#p3920f8906e)" style="fill: #0000ff"/>
    <path d="M 187.549561 288.468151 
L 192.046428 287.568778 
L 191.085121 285.886492 
L 197.57394 287.088125 
L 192.046428 290.693024 
L 192.286754 288.770411 
L 187.789887 289.669784 
L 187.549561 288.468151 
" clip-path="url(#p3920f8906e)" style="fill: #0000ff"/>
    <path d="M 187.521119 267.433507 
L 190.094703 266.790111 
L 189.054467 265.155454 
L 195.593097 266.047085 
L 190.243308 269.910821 
L 190.391914 267.978953 
L 187.818329 268.622349 
L 187.521119 267.433507 
" clip-path="url(#p3920f8906e)" style="fill: #0000ff"/>
    <path d="M 187.475967 246.405616 
L 188.187043 246.16859 
L 187.024498 244.61853 
L 193.612254 245.006045 
L 188.574558 249.268711 
L 188.574558 247.331135 
L 187.863482 247.568161 
L 187.475967 246.405616 
" clip-path="url(#p3920f8906e)" style="fill: #0000ff"/>
    <path d="M 187.47164 225.54968 
L 187.867808 225.351596 
L 186.877387 224.361174 
L 191.63141 223.965006 
L 188.462061 227.530523 
L 188.263977 226.143933 
L 187.867808 226.342017 
L 187.47164 225.54968 
" clip-path="url(#p3920f8906e)" style="fill: #0000ff"/>
    <path d="M 187.47164 204.706725 
L 187.669724 204.50864 
L 186.877387 204.112472 
L 189.650567 202.923966 
L 188.462061 205.697146 
L 188.065893 204.904809 
L 187.867808 205.102893 
L 187.47164 204.706725 
" clip-path="url(#p3920f8906e)" style="fill: #0000ff"/>
    <path d="M 187.47164 183.863769 
L 187.47164 183.665685 
L 186.877387 183.863769 
L 187.669724 181.882926 
L 188.462061 183.863769 
L 187.867808 183.665685 
L 187.867808 183.863769 
L 187.47164 183.863769 
" clip-path="url(#p3920f8906e)" style="fill: #0000ff"/>
    <path d="M 187.47164 163.020814 
L 187.273555 162.82273 
L 186.877387 163.615067 
L 185.688881 160.841886 
L 188.462061 162.030392 
L 187.669724 162.426561 
L 187.867808 162.624645 
L 187.47164 163.020814 
" clip-path="url(#p3920f8906e)" style="fill: #0000ff"/>
    <path d="M 187.47164 142.177858 
L 187.075471 141.979774 
L 186.877387 143.366364 
L 183.708038 139.800847 
L 188.462061 140.197015 
L 187.47164 141.187437 
L 187.867808 141.385521 
L 187.47164 142.177858 
" clip-path="url(#p3920f8906e)" style="fill: #0000ff"/>
    <path d="M 187.475967 121.321923 
L 186.76489 121.084897 
L 186.76489 123.022472 
L 181.727195 118.759807 
L 188.31495 118.372292 
L 187.152405 119.922352 
L 187.863482 120.159377 
L 187.475967 121.321923 
" clip-path="url(#p3920f8906e)" style="fill: #0000ff"/>
    <path d="M 187.521119 100.294031 
L 184.947535 99.650635 
L 185.09614 101.582503 
L 179.746351 97.718767 
L 186.284982 96.827136 
L 185.244745 98.461793 
L 187.818329 99.105189 
L 187.521119 100.294031 
" clip-path="url(#p3920f8906e)" style="fill: #0000ff"/>
    <path d="M 187.549561 79.259387 
L 183.052694 78.360014 
L 183.293021 80.282627 
L 177.765508 76.677727 
L 184.254327 75.476094 
L 183.293021 77.158381 
L 187.789887 78.057754 
L 187.549561 79.259387 
" clip-path="url(#p3920f8906e)" style="fill: #0000ff"/>
    <path d="M 187.568994 58.221909 
L 181.123341 57.147634 
L 181.42553 59.061499 
L 175.784665 55.636688 
L 182.231368 54.226471 
L 181.324801 55.938877 
L 187.770454 57.013152 
L 187.568994 58.221909 
" clip-path="url(#p3920f8906e)" style="fill: #0000ff"/>
    <path d="M 187.583073 37.183048 
L 179.176184 35.982064 
L 179.522788 37.888386 
L 173.803822 34.595648 
L 180.215996 33.03593 
L 179.349486 34.76895 
L 187.756375 35.969934 
L 187.583073 37.183048 
" clip-path="url(#p3920f8906e)" style="fill: #0000ff"/>
    <path d="M 208.542438 330.561907 
L 217.106078 328.115153 
L 216.011961 326.516058 
L 222.576666 327.189361 
L 217.358567 331.22918 
L 217.44273 329.293433 
L 208.87909 331.740188 
L 208.542438 330.561907 
" clip-path="url(#p3920f8906e)" style="fill: #0000ff"/>
    <path d="M 208.517006 309.528735 
L 215.170612 307.310866 
L 214.008067 305.760806 
L 220.595823 306.148321 
L 215.558127 310.410987 
L 215.558127 308.473411 
L 208.904521 310.69128 
L 208.517006 309.528735 
" clip-path="url(#p3920f8906e)" style="fill: #0000ff"/>
    <path d="M 208.483207 288.500076 
L 213.267398 286.5864 
L 212.015836 285.107282 
L 218.61498 285.107282 
L 213.83629 289.658415 
L 213.722511 287.724183 
L 208.93832 289.63786 
L 208.483207 288.500076 
" clip-path="url(#p3920f8906e)" style="fill: #0000ff"/>
    <path d="M 208.436749 267.479899 
L 211.427861 265.984343 
L 210.057788 264.614271 
L 216.634137 264.066242 
L 212.249904 268.998503 
L 211.97589 267.080401 
L 208.984778 268.575957 
L 208.436749 267.479899 
" clip-path="url(#p3920f8906e)" style="fill: #0000ff"/>
    <path d="M 208.370891 246.477079 
L 209.725132 245.574251 
L 208.195703 244.384695 
L 214.653293 243.025202 
L 210.914688 248.463173 
L 210.404879 246.59387 
L 209.050637 247.496698 
L 208.370891 246.477079 
" clip-path="url(#p3920f8906e)" style="fill: #0000ff"/>
    <path d="M 208.314595 225.54968 
L 208.710764 225.153511 
L 207.126089 224.361174 
L 212.67245 221.984162 
L 210.295438 227.530523 
L 209.503101 225.945849 
L 209.106932 226.342017 
L 208.314595 225.54968 
" clip-path="url(#p3920f8906e)" style="fill: #0000ff"/>
    <path d="M 208.314595 204.706725 
L 208.512679 204.310556 
L 207.126089 204.112472 
L 210.691607 200.943123 
L 210.295438 205.697146 
L 209.305017 204.706725 
L 209.106932 205.102893 
L 208.314595 204.706725 
" clip-path="url(#p3920f8906e)" style="fill: #0000ff"/>
    <path d="M 208.314595 183.863769 
L 208.314595 183.467601 
L 207.126089 183.863769 
L 208.710764 179.902083 
L 210.295438 183.863769 
L 209.106932 183.467601 
L 209.106932 183.863769 
L 208.314595 183.863769 
" clip-path="url(#p3920f8906e)" style="fill: #0000ff"/>
    <path d="M 208.314595 163.020814 
L 208.116511 162.624645 
L 207.126089 163.615067 
L 206.729921 158.861043 
L 210.295438 162.030392 
L 208.908848 162.228477 
L 209.106932 162.624645 
L 208.314595 163.020814 
" clip-path="url(#p3920f8906e)" style="fill: #0000ff"/>
    <path d="M 208.314595 142.177858 
L 207.918427 141.78169 
L 207.126089 143.366364 
L 204.749077 137.820003 
L 210.295438 140.197015 
L 208.710764 140.989352 
L 209.106932 141.385521 
L 208.314595 142.177858 
" clip-path="url(#p3920f8906e)" style="fill: #0000ff"/>
    <path d="M 208.370891 121.25046 
L 207.016649 120.347632 
L 206.506839 122.216934 
L 202.768234 116.778964 
L 209.225825 118.138456 
L 207.696395 119.328012 
L 209.050637 120.23084 
L 208.370891 121.25046 
" clip-path="url(#p3920f8906e)" style="fill: #0000ff"/>
    <path d="M 208.436749 100.247639 
L 205.445638 98.752084 
L 205.171623 100.670185 
L 200.787391 95.737924 
L 207.363739 96.285953 
L 205.993667 97.656026 
L 208.984778 99.151581 
L 208.436749 100.247639 
" clip-path="url(#p3920f8906e)" style="fill: #0000ff"/>
    <path d="M 208.483207 79.227462 
L 203.699016 77.313786 
L 203.585238 79.248018 
L 198.806548 74.696884 
L 205.405691 74.696884 
L 204.15413 76.176003 
L 208.93832 78.089679 
L 208.483207 79.227462 
" clip-path="url(#p3920f8906e)" style="fill: #0000ff"/>
    <path d="M 208.517006 58.198803 
L 201.8634 55.980935 
L 201.8634 57.91851 
L 196.825705 53.655844 
L 203.41346 53.268329 
L 202.250915 54.81839 
L 208.904521 57.036258 
L 208.517006 58.198803 
" clip-path="url(#p3920f8906e)" style="fill: #0000ff"/>
    <path d="M 208.542438 37.165631 
L 199.978798 34.718877 
L 200.062961 36.654623 
L 194.844862 32.614805 
L 201.409567 31.941502 
L 200.315449 33.540597 
L 208.87909 35.987351 
L 208.542438 37.165631 
" clip-path="url(#p3920f8906e)" style="fill: #0000ff"/>
    <path d="M 229.510443 330.587873 
L 238.307779 326.817586 
L 237.020524 325.369425 
L 243.617706 325.208518 
L 238.951407 329.874817 
L 238.7905 327.943934 
L 229.993164 331.714221 
L 229.510443 330.587873 
" clip-path="url(#p3920f8906e)" style="fill: #0000ff"/>
    <path d="M 229.477789 309.561979 
L 236.430587 306.08558 
L 235.060514 304.715507 
L 241.636863 304.167478 
L 237.25263 309.099739 
L 236.978616 307.181638 
L 230.025818 310.658037 
L 229.477789 309.561979 
" clip-path="url(#p3920f8906e)" style="fill: #0000ff"/>
    <path d="M 229.436564 288.543569 
L 234.612191 285.438193 
L 233.141074 284.177236 
L 239.656019 283.126438 
L 235.662988 288.380427 
L 235.242669 286.488991 
L 230.067043 289.594367 
L 229.436564 288.543569 
" clip-path="url(#p3920f8906e)" style="fill: #0000ff"/>
    <path d="M 229.384174 267.537756 
L 232.895999 264.903888 
L 231.302939 263.801001 
L 237.675176 262.085399 
L 234.243972 267.722377 
L 233.631257 265.884232 
L 230.119433 268.5181 
L 229.384174 267.537756 
" clip-path="url(#p3920f8906e)" style="fill: #0000ff"/>
    <path d="M 229.318549 246.553633 
L 231.361783 244.510399 
L 229.628763 243.643889 
L 235.694333 241.044359 
L 233.094803 247.109929 
L 232.228293 245.376909 
L 230.185059 247.420143 
L 229.318549 246.553633 
" clip-path="url(#p3920f8906e)" style="fill: #0000ff"/>
    <path d="M 229.241994 225.605976 
L 230.144822 224.251734 
L 228.275519 223.741924 
L 233.71349 220.003319 
L 232.353997 226.460909 
L 231.164441 224.93148 
L 230.261613 226.285722 
L 229.241994 225.605976 
" clip-path="url(#p3920f8906e)" style="fill: #0000ff"/>
    <path d="M 229.170531 204.711051 
L 229.407556 203.999975 
L 227.469981 203.999975 
L 231.732647 198.962279 
L 232.120162 205.550035 
L 230.570102 204.38749 
L 230.333076 205.098566 
L 229.170531 204.711051 
" clip-path="url(#p3920f8906e)" style="fill: #0000ff"/>
    <path d="M 229.157551 183.863769 
L 229.157551 183.269516 
L 227.374792 183.863769 
L 229.751804 177.92124 
L 232.128815 183.863769 
L 230.346057 183.269516 
L 230.346057 183.863769 
L 229.157551 183.863769 
" clip-path="url(#p3920f8906e)" style="fill: #0000ff"/>
    <path d="M 229.170531 163.016487 
L 228.933505 162.305411 
L 227.383445 163.467956 
L 227.77096 156.8802 
L 232.033626 161.917895 
L 230.096051 161.917895 
L 230.333076 162.628972 
L 229.170531 163.016487 
" clip-path="url(#p3920f8906e)" style="fill: #0000ff"/>
    <path d="M 229.241994 142.121563 
L 228.339166 140.767321 
L 227.14961 142.296751 
L 225.790117 135.83916 
L 231.228088 139.577765 
L 229.358785 140.087575 
L 230.261613 141.441817 
L 229.241994 142.121563 
" clip-path="url(#p3920f8906e)" style="fill: #0000ff"/>
    <path d="M 229.318549 121.173905 
L 227.275314 119.13067 
L 226.408804 120.86369 
L 223.809274 114.79812 
L 229.874844 117.39765 
L 228.141824 118.26416 
L 230.185059 120.307395 
L 229.318549 121.173905 
" clip-path="url(#p3920f8906e)" style="fill: #0000ff"/>
    <path d="M 229.384174 100.189782 
L 225.87235 97.555914 
L 225.259635 99.394059 
L 221.828431 93.757081 
L 228.200668 95.472683 
L 226.607608 96.57557 
L 230.119433 99.209438 
L 229.384174 100.189782 
" clip-path="url(#p3920f8906e)" style="fill: #0000ff"/>
    <path d="M 229.436564 79.183969 
L 224.260938 76.078594 
L 223.840619 77.970029 
L 219.847588 72.716041 
L 226.362533 73.766839 
L 224.891417 75.027796 
L 230.067043 78.133172 
L 229.436564 79.183969 
" clip-path="url(#p3920f8906e)" style="fill: #0000ff"/>
    <path d="M 229.477789 58.16556 
L 222.524991 54.689161 
L 222.250977 56.607263 
L 217.866744 51.675001 
L 224.443093 52.22303 
L 223.07302 53.593103 
L 230.025818 57.069502 
L 229.477789 58.16556 
" clip-path="url(#p3920f8906e)" style="fill: #0000ff"/>
    <path d="M 229.510443 37.139665 
L 220.713107 33.369378 
L 220.5522 35.300261 
L 215.885901 30.633962 
L 222.483083 30.794868 
L 221.195828 32.24303 
L 229.993164 36.013317 
L 229.510443 37.139665 
" clip-path="url(#p3920f8906e)" style="fill: #0000ff"/>
    <path d="M 250.488851 330.619062 
L 259.566883 325.431615 
L 258.122922 324.13965 
L 264.658746 323.227675 
L 260.554856 328.395535 
L 260.174866 326.495587 
L 251.096835 331.683033 
L 250.488851 330.619062 
" clip-path="url(#p3920f8906e)" style="fill: #0000ff"/>
    <path d="M 250.45297 309.600198 
L 257.749741 304.735684 
L 256.220312 303.546128 
L 262.677902 302.186635 
L 258.939297 307.624606 
L 258.429488 305.755303 
L 251.132716 310.619817 
L 250.45297 309.600198 
" clip-path="url(#p3920f8906e)" style="fill: #0000ff"/>
    <path d="M 250.410083 288.590518 
L 256.008248 284.111986 
L 254.381518 283.059396 
L 260.697059 281.145595 
L 257.443599 286.886996 
L 256.773768 285.068886 
L 251.175603 289.547418 
L 250.410083 288.590518 
" clip-path="url(#p3920f8906e)" style="fill: #0000ff"/>
    <path d="M 250.359588 267.594673 
L 254.383666 263.570595 
L 252.650646 262.704085 
L 258.716216 260.104555 
L 256.116686 266.170125 
L 255.250176 264.437105 
L 251.226098 268.461183 
L 250.359588 267.594673 
" clip-path="url(#p3920f8906e)" style="fill: #0000ff"/>
    <path d="M 250.302671 246.619259 
L 252.936539 243.107435 
L 251.098394 242.49472 
L 256.735373 239.063516 
L 255.019771 245.435752 
L 253.916883 243.842693 
L 251.283015 247.354517 
L 250.302671 246.619259 
" clip-path="url(#p3920f8906e)" style="fill: #0000ff"/>
    <path d="M 250.244814 225.671834 
L 251.74037 222.680723 
L 249.822268 222.406708 
L 254.75453 218.022476 
L 254.206501 224.598824 
L 252.836428 223.228752 
L 251.340872 226.219863 
L 250.244814 225.671834 
" clip-path="url(#p3920f8906e)" style="fill: #0000ff"/>
    <path d="M 250.198422 204.756204 
L 250.841818 202.182619 
L 248.90995 202.331225 
L 252.773686 196.981436 
L 253.665318 203.520067 
L 252.03066 202.47983 
L 251.387264 205.053414 
L 250.198422 204.756204 
" clip-path="url(#p3920f8906e)" style="fill: #0000ff"/>
    <path d="M 250.180128 183.863769 
L 250.180128 181.454832 
L 248.341983 182.067547 
L 250.792843 175.940396 
L 253.243704 182.067547 
L 251.405558 181.454832 
L 251.405558 183.863769 
L 250.180128 183.863769 
" clip-path="url(#p3920f8906e)" style="fill: #0000ff"/>
    <path d="M 250.198422 162.971335 
L 249.555026 160.39775 
L 247.920369 161.437987 
L 248.812 154.899357 
L 252.675736 160.249145 
L 250.743868 160.10054 
L 251.387264 162.674124 
L 250.198422 162.971335 
" clip-path="url(#p3920f8906e)" style="fill: #0000ff"/>
    <path d="M 250.244814 142.055704 
L 248.749258 139.064593 
L 247.379186 140.434665 
L 246.831157 133.858317 
L 251.763418 138.242549 
L 249.845317 138.516564 
L 251.340872 141.507675 
L 250.244814 142.055704 
" clip-path="url(#p3920f8906e)" style="fill: #0000ff"/>
    <path d="M 250.302671 121.108279 
L 247.668803 117.596455 
L 246.565916 119.189514 
L 244.850314 112.817277 
L 250.487292 116.248482 
L 248.649147 116.861197 
L 251.283015 120.373021 
L 250.302671 121.108279 
" clip-path="url(#p3920f8906e)" style="fill: #0000ff"/>
    <path d="M 250.359588 100.132865 
L 246.33551 96.108787 
L 245.469 97.841807 
L 242.869471 91.776238 
L 248.93504 94.375767 
L 247.20202 95.242277 
L 251.226098 99.266355 
L 250.359588 100.132865 
" clip-path="url(#p3920f8906e)" style="fill: #0000ff"/>
    <path d="M 250.410083 79.137021 
L 244.811918 74.658489 
L 244.142088 76.476599 
L 240.888627 70.735198 
L 247.204169 72.648998 
L 245.577438 73.701588 
L 251.175603 78.18012 
L 250.410083 79.137021 
" clip-path="url(#p3920f8906e)" style="fill: #0000ff"/>
    <path d="M 250.45297 58.127341 
L 243.156199 53.262826 
L 242.646389 55.132129 
L 238.907784 49.694158 
L 245.365374 51.053651 
L 243.835945 52.243207 
L 251.132716 57.107721 
L 250.45297 58.127341 
" clip-path="url(#p3920f8906e)" style="fill: #0000ff"/>
    <path d="M 250.488851 37.108477 
L 241.41082 31.92103 
L 241.03083 33.820979 
L 236.926941 28.653118 
L 243.462765 29.565094 
L 242.018804 30.857059 
L 251.096835 36.044505 
L 250.488851 37.108477 
" clip-path="url(#p3920f8906e)" style="fill: #0000ff"/>
    <path d="M 271.47775 330.652461 
L 280.856371 323.953445 
L 279.289384 322.813818 
L 285.699785 321.246831 
L 282.138451 326.802513 
L 281.568638 324.950619 
L 272.190016 331.649634 
L 271.47775 330.652461 
" clip-path="url(#p3920f8906e)" style="fill: #0000ff"/>
    <path d="M 271.441632 309.639307 
L 279.090385 303.265347 
L 277.442932 302.245495 
L 283.718942 300.205792 
L 280.580937 306.011101 
L 279.874886 304.206748 
L 272.226134 310.580708 
L 271.441632 309.639307 
" clip-path="url(#p3920f8906e)" style="fill: #0000ff"/>
    <path d="M 271.400628 288.635713 
L 277.405549 282.630792 
L 275.672529 281.764282 
L 281.738099 279.164752 
L 279.138569 285.230322 
L 278.272059 283.497302 
L 272.267138 289.502223 
L 271.400628 288.635713 
" clip-path="url(#p3920f8906e)" style="fill: #0000ff"/>
    <path d="M 271.355433 267.645168 
L 275.833965 262.047003 
L 274.015855 261.377173 
L 279.757256 258.123712 
L 277.843455 264.439253 
L 276.790865 262.812523 
L 272.312333 268.410688 
L 271.355433 267.645168 
" clip-path="url(#p3920f8906e)" style="fill: #0000ff"/>
    <path d="M 271.308484 246.671649 
L 274.41386 241.496023 
L 272.522424 241.075704 
L 277.776413 237.082673 
L 276.725615 243.597618 
L 275.464658 242.126501 
L 272.359282 247.302128 
L 271.308484 246.671649 
" clip-path="url(#p3920f8906e)" style="fill: #0000ff"/>
    <path d="M 271.264991 225.718292 
L 273.178668 220.934101 
L 271.244436 220.820323 
L 275.795569 216.041633 
L 275.795569 222.640776 
L 274.316451 221.389214 
L 272.402775 226.173405 
L 271.264991 225.718292 
" clip-path="url(#p3920f8906e)" style="fill: #0000ff"/>
    <path d="M 271.233066 204.784646 
L 272.13244 200.287779 
L 270.209827 200.528105 
L 273.814726 195.000593 
L 275.016359 201.489412 
L 273.334073 200.528105 
L 272.4347 205.024972 
L 271.233066 204.784646 
" clip-path="url(#p3920f8906e)" style="fill: #0000ff"/>
    <path d="M 271.221168 183.863769 
L 271.221168 179.473989 
L 269.383023 180.086704 
L 271.833883 173.959553 
L 274.284743 180.086704 
L 272.446598 179.473989 
L 272.446598 183.863769 
L 271.221168 183.863769 
" clip-path="url(#p3920f8906e)" style="fill: #0000ff"/>
    <path d="M 271.233066 162.942893 
L 270.333693 158.446026 
L 268.651407 159.407332 
L 269.85304 152.918514 
L 273.457939 158.446026 
L 271.535326 158.205699 
L 272.4347 162.702566 
L 271.233066 162.942893 
" clip-path="url(#p3920f8906e)" style="fill: #0000ff"/>
    <path d="M 271.264991 142.009246 
L 269.351315 137.225056 
L 267.872197 138.476617 
L 267.872197 131.877474 
L 272.42333 136.656164 
L 270.489098 136.769942 
L 272.402775 141.554133 
L 271.264991 142.009246 
" clip-path="url(#p3920f8906e)" style="fill: #0000ff"/>
    <path d="M 271.308484 121.055889 
L 268.203108 115.880263 
L 266.942151 117.35138 
L 265.891353 110.836434 
L 271.145342 114.829465 
L 269.253906 115.249784 
L 272.359282 120.425411 
L 271.308484 121.055889 
" clip-path="url(#p3920f8906e)" style="fill: #0000ff"/>
    <path d="M 271.355433 100.08237 
L 266.876901 94.484205 
L 265.824311 96.110936 
L 263.91051 89.795394 
L 269.651911 93.048855 
L 267.833801 93.718685 
L 272.312333 99.31685 
L 271.355433 100.08237 
" clip-path="url(#p3920f8906e)" style="fill: #0000ff"/>
    <path d="M 271.400628 79.091826 
L 265.395707 73.086905 
L 264.529197 74.819924 
L 261.929667 68.754355 
L 267.995237 71.353885 
L 266.262217 72.220395 
L 272.267138 78.225316 
L 271.400628 79.091826 
" clip-path="url(#p3920f8906e)" style="fill: #0000ff"/>
    <path d="M 271.441632 58.088232 
L 263.79288 51.714271 
L 263.086829 53.518624 
L 259.948824 47.713315 
L 266.224834 49.753018 
L 264.577381 50.77287 
L 272.226134 57.14683 
L 271.441632 58.088232 
" clip-path="url(#p3920f8906e)" style="fill: #0000ff"/>
    <path d="M 271.47775 37.075078 
L 262.099128 30.376063 
L 261.529315 32.227956 
L 257.967981 26.672275 
L 264.378382 28.239262 
L 262.811395 29.378889 
L 272.190016 36.077904 
L 271.47775 37.075078 
" clip-path="url(#p3920f8906e)" style="fill: #0000ff"/>
    <path d="M 292.476173 330.685839 
L 302.155204 322.389527 
L 300.493747 321.392653 
L 306.740825 319.265988 
L 303.683744 325.114317 
L 302.952703 323.319943 
L 293.273672 331.616255 
L 292.476173 330.685839 
" clip-path="url(#p3920f8906e)" style="fill: #0000ff"/>
    <path d="M 292.441668 309.676753 
L 300.427432 301.690988 
L 298.694412 300.824478 
L 304.759982 298.224949 
L 302.160452 304.290518 
L 301.293942 302.557498 
L 293.308178 310.543263 
L 292.441668 309.676753 
" clip-path="url(#p3920f8906e)" style="fill: #0000ff"/>
    <path d="M 292.404222 288.676717 
L 298.778182 281.027965 
L 296.973829 280.321914 
L 302.779139 277.183909 
L 300.739435 283.459919 
L 299.719584 281.812466 
L 293.345623 289.461219 
L 292.404222 288.676717 
" clip-path="url(#p3920f8906e)" style="fill: #0000ff"/>
    <path d="M 292.365113 267.688055 
L 297.229627 260.391284 
L 295.360325 259.881474 
L 300.798295 256.142869 
L 299.438803 262.600459 
L 298.249247 261.07103 
L 293.384732 268.367801 
L 292.365113 267.688055 
" clip-path="url(#p3920f8906e)" style="fill: #0000ff"/>
    <path d="M 292.326894 246.712874 
L 295.803293 239.760076 
L 293.885191 239.486062 
L 298.817452 235.101829 
L 298.269423 241.678178 
L 296.899351 240.308105 
L 293.422952 247.260903 
L 292.326894 246.712874 
" clip-path="url(#p3920f8906e)" style="fill: #0000ff"/>
    <path d="M 292.29365 225.752091 
L 294.511519 219.098485 
L 292.573944 219.098485 
L 296.836609 214.06079 
L 297.224124 220.648545 
L 295.674064 219.486 
L 293.456195 226.139606 
L 292.29365 225.752091 
" clip-path="url(#p3920f8906e)" style="fill: #0000ff"/>
    <path d="M 292.270544 204.804079 
L 293.34482 198.358426 
L 291.430955 198.660615 
L 294.855766 193.01975 
L 296.265982 199.466453 
L 294.553577 198.559885 
L 293.479301 205.005539 
L 292.270544 204.804079 
" clip-path="url(#p3920f8906e)" style="fill: #0000ff"/>
    <path d="M 292.262208 183.863769 
L 292.262208 177.493146 
L 290.424062 178.105861 
L 292.874923 171.97871 
L 295.325783 178.105861 
L 293.487638 177.493146 
L 293.487638 183.863769 
L 292.262208 183.863769 
" clip-path="url(#p3920f8906e)" style="fill: #0000ff"/>
    <path d="M 292.270544 162.923459 
L 291.196269 156.477806 
L 289.483863 157.384374 
L 290.89408 150.93767 
L 294.318891 156.578536 
L 292.405026 156.276347 
L 293.479301 162.722 
L 292.270544 162.923459 
" clip-path="url(#p3920f8906e)" style="fill: #0000ff"/>
    <path d="M 292.29365 141.975447 
L 290.075781 135.321841 
L 288.525721 136.484386 
L 288.913236 129.896631 
L 293.175902 134.934326 
L 291.238327 134.934326 
L 293.456195 141.587932 
L 292.29365 141.975447 
" clip-path="url(#p3920f8906e)" style="fill: #0000ff"/>
    <path d="M 292.326894 121.014665 
L 288.850495 114.061867 
L 287.480422 115.431939 
L 286.932393 108.855591 
L 291.864654 113.239823 
L 289.946553 113.513838 
L 293.422952 120.466636 
L 292.326894 121.014665 
" clip-path="url(#p3920f8906e)" style="fill: #0000ff"/>
    <path d="M 292.365113 100.039483 
L 287.500599 92.742712 
L 286.311043 94.272142 
L 284.95155 87.814551 
L 290.389521 91.553156 
L 288.520218 92.062966 
L 293.384732 99.359737 
L 292.365113 100.039483 
" clip-path="url(#p3920f8906e)" style="fill: #0000ff"/>
    <path d="M 292.404222 79.050821 
L 286.030262 71.402069 
L 285.01041 73.049522 
L 282.970707 66.773511 
L 288.776016 69.911517 
L 286.971663 70.617568 
L 293.345623 78.26632 
L 292.404222 79.050821 
" clip-path="url(#p3920f8906e)" style="fill: #0000ff"/>
    <path d="M 292.441668 58.050786 
L 284.455904 50.065022 
L 283.589394 51.798042 
L 280.989864 45.732472 
L 287.055433 48.332002 
L 285.322413 49.198512 
L 293.308178 57.184276 
L 292.441668 58.050786 
" clip-path="url(#p3920f8906e)" style="fill: #0000ff"/>
    <path d="M 292.476173 37.041699 
L 282.797142 28.745387 
L 282.066101 30.539761 
L 279.00902 24.691432 
L 285.256099 26.818097 
L 283.594642 27.814971 
L 293.273672 36.111283 
L 292.476173 37.041699 
" clip-path="url(#p3920f8906e)" style="fill: #0000ff"/>
    <path d="M 313.482707 330.717792 
L 323.449315 320.751185 
L 321.716295 319.884675 
L 327.781865 317.285145 
L 325.182335 323.350715 
L 324.315825 321.617695 
L 314.349217 331.584302 
L 313.482707 330.717792 
" clip-path="url(#p3920f8906e)" style="fill: #0000ff"/>
    <path d="M 313.450754 309.711258 
L 321.747066 300.032227 
L 319.952693 299.301186 
L 325.801022 296.244105 
L 323.674357 302.491184 
L 322.677482 300.829727 
L 314.38117 310.508757 
L 313.450754 309.711258 
" clip-path="url(#p3920f8906e)" style="fill: #0000ff"/>
    <path d="M 313.417376 288.712834 
L 320.116391 279.334213 
L 318.264497 278.7644 
L 323.820178 275.203066 
L 322.253191 281.613467 
L 321.113565 280.04648 
L 314.414549 289.425101 
L 313.417376 288.712834 
" clip-path="url(#p3920f8906e)" style="fill: #0000ff"/>
    <path d="M 313.383977 267.723936 
L 318.571423 258.645905 
L 316.671474 258.265915 
L 321.839335 254.162026 
L 320.92736 260.69785 
L 319.635395 259.253889 
L 314.447948 268.33192 
L 313.383977 267.723936 
" clip-path="url(#p3920f8906e)" style="fill: #0000ff"/>
    <path d="M 313.352788 246.745528 
L 317.123075 237.948192 
L 315.192193 237.787285 
L 319.858492 233.120986 
L 319.697585 239.718167 
L 318.249423 238.430913 
L 314.479136 247.228249 
L 313.352788 246.745528 
" clip-path="url(#p3920f8906e)" style="fill: #0000ff"/>
    <path d="M 313.326822 225.777523 
L 315.773577 217.213883 
L 313.83783 217.298045 
L 317.877649 212.079946 
L 318.550952 218.644652 
L 316.951857 217.550534 
L 314.505103 226.114174 
L 313.326822 225.777523 
" clip-path="url(#p3920f8906e)" style="fill: #0000ff"/>
    <path d="M 313.309405 204.818158 
L 314.51039 196.411269 
L 312.604068 196.757872 
L 315.896806 191.038907 
L 317.456524 197.45108 
L 315.723504 196.58457 
L 314.522519 204.99146 
L 313.309405 204.818158 
" clip-path="url(#p3920f8906e)" style="fill: #0000ff"/>
    <path d="M 313.303247 183.863769 
L 313.303247 175.512303 
L 311.465102 176.125018 
L 313.915962 169.997867 
L 316.366823 176.125018 
L 314.528678 175.512303 
L 314.528678 183.863769 
L 313.303247 183.863769 
" clip-path="url(#p3920f8906e)" style="fill: #0000ff"/>
    <path d="M 313.309405 162.90938 
L 312.108421 154.502491 
L 310.375401 155.369001 
L 311.935119 148.956827 
L 315.227857 154.675793 
L 313.321535 154.329189 
L 314.522519 162.736079 
L 313.309405 162.90938 
" clip-path="url(#p3920f8906e)" style="fill: #0000ff"/>
    <path d="M 313.326822 141.950016 
L 310.880068 133.386375 
L 309.280973 134.480493 
L 309.954276 127.915787 
L 313.994095 133.133887 
L 312.058348 133.049724 
L 314.505103 141.613364 
L 313.326822 141.950016 
" clip-path="url(#p3920f8906e)" style="fill: #0000ff"/>
    <path d="M 313.352788 120.98201 
L 309.582502 112.184674 
L 308.13434 113.471929 
L 307.973433 106.874748 
L 312.639732 111.541047 
L 310.70885 111.701954 
L 314.479136 120.49929 
L 313.352788 120.98201 
" clip-path="url(#p3920f8906e)" style="fill: #0000ff"/>
    <path d="M 313.383977 100.003602 
L 308.19653 90.925571 
L 306.904565 92.369532 
L 305.99259 85.833708 
L 311.16045 89.937597 
L 309.260502 90.317587 
L 314.447948 99.395619 
L 313.383977 100.003602 
" clip-path="url(#p3920f8906e)" style="fill: #0000ff"/>
    <path d="M 313.417376 79.014704 
L 306.71836 69.636083 
L 305.578734 71.20307 
L 304.011747 64.792668 
L 309.567428 68.354002 
L 307.715534 68.923816 
L 314.414549 78.302437 
L 313.417376 79.014704 
" clip-path="url(#p3920f8906e)" style="fill: #0000ff"/>
    <path d="M 313.450754 58.016281 
L 305.154443 48.33725 
L 304.157568 49.998707 
L 302.030903 43.751629 
L 307.879232 46.808709 
L 306.084859 47.539751 
L 314.38117 57.218781 
L 313.450754 58.016281 
" clip-path="url(#p3920f8906e)" style="fill: #0000ff"/>
    <path d="M 313.482707 37.009746 
L 303.5161 27.043139 
L 302.64959 28.776159 
L 300.05006 22.710589 
L 306.11563 25.310119 
L 304.38261 26.176629 
L 314.349217 36.143236 
L 313.482707 37.009746 
" clip-path="url(#p3920f8906e)" style="fill: #0000ff"/>
   </g>
   <g id="matplotlib.axis_1">
    <g id="xtick_1">
     <g id="line2d_1">
      <defs>
       <path id="md783f08469" d="M 0 0 
L 0 3.5 
" style="stroke: #000000; stroke-width: 0.8"/>
      </defs>
      <g>
       <use xlink:href="#md783f08469" x="19.341406" y="183.863769" style="stroke: #000000; stroke-width: 0.8"/>
      </g>
     </g>
     <g id="text_1">
      <!-- 2.0 -->
      <g transform="translate(7.2 198.462207)scale(0.1 -0.1)">
       <defs>
        <path id="DejaVuSans-2212" d="M 678 2272 
L 4684 2272 
L 4684 1741 
L 678 1741 
L 678 2272 
z
" transform="scale(0.015625)"/>
        <path id="DejaVuSans-32" d="M 1228 531 
L 3431 531 
L 3431 0 
L 469 0 
L 469 531 
Q 828 903 1448 1529 
Q 2069 2156 2228 2338 
Q 2531 2678 2651 2914 
Q 2772 3150 2772 3378 
Q 2772 3750 2511 3984 
Q 2250 4219 1831 4219 
Q 1534 4219 1204 4116 
Q 875 4013 500 3803 
L 500 4441 
Q 881 4594 1212 4672 
Q 1544 4750 1819 4750 
Q 2544 4750 2975 4387 
Q 3406 4025 3406 3419 
Q 3406 3131 3298 2873 
Q 3191 2616 2906 2266 
Q 2828 2175 2409 1742 
Q 1991 1309 1228 531 
z
" transform="scale(0.015625)"/>
        <path id="DejaVuSans-2e" d="M 684 794 
L 1344 794 
L 1344 0 
L 684 0 
L 684 794 
z
" transform="scale(0.015625)"/>
        <path id="DejaVuSans-30" d="M 2034 4250 
Q 1547 4250 1301 3770 
Q 1056 3291 1056 2328 
Q 1056 1369 1301 889 
Q 1547 409 2034 409 
Q 2525 409 2770 889 
Q 3016 1369 3016 2328 
Q 3016 3291 2770 3770 
Q 2525 4250 2034 4250 
z
M 2034 4750 
Q 2819 4750 3233 4129 
Q 3647 3509 3647 2328 
Q 3647 1150 3233 529 
Q 2819 -91 2034 -91 
Q 1250 -91 836 529 
Q 422 1150 422 2328 
Q 422 3509 836 4129 
Q 1250 4750 2034 4750 
z
" transform="scale(0.015625)"/>
       </defs>
       <use xlink:href="#DejaVuSans-2212"/>
       <use xlink:href="#DejaVuSans-32" x="83.789062"/>
       <use xlink:href="#DejaVuSans-2e" x="147.412109"/>
       <use xlink:href="#DejaVuSans-30" x="179.199219"/>
      </g>
     </g>
    </g>
    <g id="xtick_2">
     <g id="line2d_2">
      <g>
       <use xlink:href="#md783f08469" x="56.163226" y="183.863769" style="stroke: #000000; stroke-width: 0.8"/>
      </g>
     </g>
     <g id="text_2">
      <!-- 1.5 -->
      <g transform="translate(44.02182 198.462207)scale(0.1 -0.1)">
       <defs>
        <path id="DejaVuSans-31" d="M 794 531 
L 1825 531 
L 1825 4091 
L 703 3866 
L 703 4441 
L 1819 4666 
L 2450 4666 
L 2450 531 
L 3481 531 
L 3481 0 
L 794 0 
L 794 531 
z
" transform="scale(0.015625)"/>
        <path id="DejaVuSans-35" d="M 691 4666 
L 3169 4666 
L 3169 4134 
L 1269 4134 
L 1269 2991 
Q 1406 3038 1543 3061 
Q 1681 3084 1819 3084 
Q 2600 3084 3056 2656 
Q 3513 2228 3513 1497 
Q 3513 744 3044 326 
Q 2575 -91 1722 -91 
Q 1428 -91 1123 -41 
Q 819 9 494 109 
L 494 744 
Q 775 591 1075 516 
Q 1375 441 1709 441 
Q 2250 441 2565 725 
Q 2881 1009 2881 1497 
Q 2881 1984 2565 2268 
Q 2250 2553 1709 2553 
Q 1456 2553 1204 2497 
Q 953 2441 691 2322 
L 691 4666 
z
" transform="scale(0.015625)"/>
       </defs>
       <use xlink:href="#DejaVuSans-2212"/>
       <use xlink:href="#DejaVuSans-31" x="83.789062"/>
       <use xlink:href="#DejaVuSans-2e" x="147.412109"/>
       <use xlink:href="#DejaVuSans-35" x="179.199219"/>
      </g>
     </g>
    </g>
    <g id="xtick_3">
     <g id="line2d_3">
      <g>
       <use xlink:href="#md783f08469" x="92.985045" y="183.863769" style="stroke: #000000; stroke-width: 0.8"/>
      </g>
     </g>
     <g id="text_3">
      <!-- 1.0 -->
      <g transform="translate(80.843639 198.462207)scale(0.1 -0.1)">
       <use xlink:href="#DejaVuSans-2212"/>
       <use xlink:href="#DejaVuSans-31" x="83.789062"/>
       <use xlink:href="#DejaVuSans-2e" x="147.412109"/>
       <use xlink:href="#DejaVuSans-30" x="179.199219"/>
      </g>
     </g>
    </g>
    <g id="xtick_4">
     <g id="line2d_4">
      <g>
       <use xlink:href="#md783f08469" x="129.806865" y="183.863769" style="stroke: #000000; stroke-width: 0.8"/>
      </g>
     </g>
     <g id="text_4">
      <!-- 0.5 -->
      <g transform="translate(117.665459 198.462207)scale(0.1 -0.1)">
       <use xlink:href="#DejaVuSans-2212"/>
       <use xlink:href="#DejaVuSans-30" x="83.789062"/>
       <use xlink:href="#DejaVuSans-2e" x="147.412109"/>
       <use xlink:href="#DejaVuSans-35" x="179.199219"/>
      </g>
     </g>
    </g>
    <g id="xtick_5">
     <g id="line2d_5">
      <g>
       <use xlink:href="#md783f08469" x="166.628684" y="183.863769" style="stroke: #000000; stroke-width: 0.8"/>
      </g>
     </g>
    </g>
    <g id="xtick_6">
     <g id="line2d_6">
      <g>
       <use xlink:href="#md783f08469" x="203.450504" y="183.863769" style="stroke: #000000; stroke-width: 0.8"/>
      </g>
     </g>
     <g id="text_5">
      <!-- 0.5 -->
      <g transform="translate(195.498941 198.462207)scale(0.1 -0.1)">
       <use xlink:href="#DejaVuSans-30"/>
       <use xlink:href="#DejaVuSans-2e" x="63.623047"/>
       <use xlink:href="#DejaVuSans-35" x="95.410156"/>
      </g>
     </g>
    </g>
    <g id="xtick_7">
     <g id="line2d_7">
      <g>
       <use xlink:href="#md783f08469" x="240.272323" y="183.863769" style="stroke: #000000; stroke-width: 0.8"/>
      </g>
     </g>
     <g id="text_6">
      <!-- 1.0 -->
      <g transform="translate(232.320761 198.462207)scale(0.1 -0.1)">
       <use xlink:href="#DejaVuSans-31"/>
       <use xlink:href="#DejaVuSans-2e" x="63.623047"/>
       <use xlink:href="#DejaVuSans-30" x="95.410156"/>
      </g>
     </g>
    </g>
    <g id="xtick_8">
     <g id="line2d_8">
      <g>
       <use xlink:href="#md783f08469" x="277.094143" y="183.863769" style="stroke: #000000; stroke-width: 0.8"/>
      </g>
     </g>
     <g id="text_7">
      <!-- 1.5 -->
      <g transform="translate(269.14258 198.462207)scale(0.1 -0.1)">
       <use xlink:href="#DejaVuSans-31"/>
       <use xlink:href="#DejaVuSans-2e" x="63.623047"/>
       <use xlink:href="#DejaVuSans-35" x="95.410156"/>
      </g>
     </g>
    </g>
    <g id="xtick_9">
     <g id="line2d_9">
      <g>
       <use xlink:href="#md783f08469" x="313.915962" y="183.863769" style="stroke: #000000; stroke-width: 0.8"/>
      </g>
     </g>
     <g id="text_8">
      <!-- 2.0 -->
      <g transform="translate(305.9644 198.462207)scale(0.1 -0.1)">
       <use xlink:href="#DejaVuSans-32"/>
       <use xlink:href="#DejaVuSans-2e" x="63.623047"/>
       <use xlink:href="#DejaVuSans-30" x="95.410156"/>
      </g>
     </g>
    </g>
    <g id="xtick_10">
     <g id="line2d_10">
      <defs>
       <path id="m7ee58dff0f" d="M 0 0 
L 0 2 
" style="stroke: #000000; stroke-width: 0.6"/>
      </defs>
      <g>
       <use xlink:href="#m7ee58dff0f" x="26.70577" y="183.863769" style="stroke: #000000; stroke-width: 0.6"/>
      </g>
     </g>
    </g>
    <g id="xtick_11">
     <g id="line2d_11">
      <g>
       <use xlink:href="#m7ee58dff0f" x="34.070134" y="183.863769" style="stroke: #000000; stroke-width: 0.6"/>
      </g>
     </g>
    </g>
    <g id="xtick_12">
     <g id="line2d_12">
      <g>
       <use xlink:href="#m7ee58dff0f" x="41.434498" y="183.863769" style="stroke: #000000; stroke-width: 0.6"/>
      </g>
     </g>
    </g>
    <g id="xtick_13">
     <g id="line2d_13">
      <g>
       <use xlink:href="#m7ee58dff0f" x="48.798862" y="183.863769" style="stroke: #000000; stroke-width: 0.6"/>
      </g>
     </g>
    </g>
    <g id="xtick_14">
     <g id="line2d_14">
      <g>
       <use xlink:href="#m7ee58dff0f" x="63.52759" y="183.863769" style="stroke: #000000; stroke-width: 0.6"/>
      </g>
     </g>
    </g>
    <g id="xtick_15">
     <g id="line2d_15">
      <g>
       <use xlink:href="#m7ee58dff0f" x="70.891954" y="183.863769" style="stroke: #000000; stroke-width: 0.6"/>
      </g>
     </g>
    </g>
    <g id="xtick_16">
     <g id="line2d_16">
      <g>
       <use xlink:href="#m7ee58dff0f" x="78.256317" y="183.863769" style="stroke: #000000; stroke-width: 0.6"/>
      </g>
     </g>
    </g>
    <g id="xtick_17">
     <g id="line2d_17">
      <g>
       <use xlink:href="#m7ee58dff0f" x="85.620681" y="183.863769" style="stroke: #000000; stroke-width: 0.6"/>
      </g>
     </g>
    </g>
    <g id="xtick_18">
     <g id="line2d_18">
      <g>
       <use xlink:href="#m7ee58dff0f" x="100.349409" y="183.863769" style="stroke: #000000; stroke-width: 0.6"/>
      </g>
     </g>
    </g>
    <g id="xtick_19">
     <g id="line2d_19">
      <g>
       <use xlink:href="#m7ee58dff0f" x="107.713773" y="183.863769" style="stroke: #000000; stroke-width: 0.6"/>
      </g>
     </g>
    </g>
    <g id="xtick_20">
     <g id="line2d_20">
      <g>
       <use xlink:href="#m7ee58dff0f" x="115.078137" y="183.863769" style="stroke: #000000; stroke-width: 0.6"/>
      </g>
     </g>
    </g>
    <g id="xtick_21">
     <g id="line2d_21">
      <g>
       <use xlink:href="#m7ee58dff0f" x="122.442501" y="183.863769" style="stroke: #000000; stroke-width: 0.6"/>
      </g>
     </g>
    </g>
    <g id="xtick_22">
     <g id="line2d_22">
      <g>
       <use xlink:href="#m7ee58dff0f" x="137.171229" y="183.863769" style="stroke: #000000; stroke-width: 0.6"/>
      </g>
     </g>
    </g>
    <g id="xtick_23">
     <g id="line2d_23">
      <g>
       <use xlink:href="#m7ee58dff0f" x="144.535593" y="183.863769" style="stroke: #000000; stroke-width: 0.6"/>
      </g>
     </g>
    </g>
    <g id="xtick_24">
     <g id="line2d_24">
      <g>
       <use xlink:href="#m7ee58dff0f" x="151.899957" y="183.863769" style="stroke: #000000; stroke-width: 0.6"/>
      </g>
     </g>
    </g>
    <g id="xtick_25">
     <g id="line2d_25">
      <g>
       <use xlink:href="#m7ee58dff0f" x="159.26432" y="183.863769" style="stroke: #000000; stroke-width: 0.6"/>
      </g>
     </g>
    </g>
    <g id="xtick_26">
     <g id="line2d_26">
      <g>
       <use xlink:href="#m7ee58dff0f" x="173.993048" y="183.863769" style="stroke: #000000; stroke-width: 0.6"/>
      </g>
     </g>
    </g>
    <g id="xtick_27">
     <g id="line2d_27">
      <g>
       <use xlink:href="#m7ee58dff0f" x="181.357412" y="183.863769" style="stroke: #000000; stroke-width: 0.6"/>
      </g>
     </g>
    </g>
    <g id="xtick_28">
     <g id="line2d_28">
      <g>
       <use xlink:href="#m7ee58dff0f" x="188.721776" y="183.863769" style="stroke: #000000; stroke-width: 0.6"/>
      </g>
     </g>
    </g>
    <g id="xtick_29">
     <g id="line2d_29">
      <g>
       <use xlink:href="#m7ee58dff0f" x="196.08614" y="183.863769" style="stroke: #000000; stroke-width: 0.6"/>
      </g>
     </g>
    </g>
    <g id="xtick_30">
     <g id="line2d_30">
      <g>
       <use xlink:href="#m7ee58dff0f" x="210.814868" y="183.863769" style="stroke: #000000; stroke-width: 0.6"/>
      </g>
     </g>
    </g>
    <g id="xtick_31">
     <g id="line2d_31">
      <g>
       <use xlink:href="#m7ee58dff0f" x="218.179232" y="183.863769" style="stroke: #000000; stroke-width: 0.6"/>
      </g>
     </g>
    </g>
    <g id="xtick_32">
     <g id="line2d_32">
      <g>
       <use xlink:href="#m7ee58dff0f" x="225.543596" y="183.863769" style="stroke: #000000; stroke-width: 0.6"/>
      </g>
     </g>
    </g>
    <g id="xtick_33">
     <g id="line2d_33">
      <g>
       <use xlink:href="#m7ee58dff0f" x="232.90796" y="183.863769" style="stroke: #000000; stroke-width: 0.6"/>
      </g>
     </g>
    </g>
    <g id="xtick_34">
     <g id="line2d_34">
      <g>
       <use xlink:href="#m7ee58dff0f" x="247.636687" y="183.863769" style="stroke: #000000; stroke-width: 0.6"/>
      </g>
     </g>
    </g>
    <g id="xtick_35">
     <g id="line2d_35">
      <g>
       <use xlink:href="#m7ee58dff0f" x="255.001051" y="183.863769" style="stroke: #000000; stroke-width: 0.6"/>
      </g>
     </g>
    </g>
    <g id="xtick_36">
     <g id="line2d_36">
      <g>
       <use xlink:href="#m7ee58dff0f" x="262.365415" y="183.863769" style="stroke: #000000; stroke-width: 0.6"/>
      </g>
     </g>
    </g>
    <g id="xtick_37">
     <g id="line2d_37">
      <g>
       <use xlink:href="#m7ee58dff0f" x="269.729779" y="183.863769" style="stroke: #000000; stroke-width: 0.6"/>
      </g>
     </g>
    </g>
    <g id="xtick_38">
     <g id="line2d_38">
      <g>
       <use xlink:href="#m7ee58dff0f" x="284.458507" y="183.863769" style="stroke: #000000; stroke-width: 0.6"/>
      </g>
     </g>
    </g>
    <g id="xtick_39">
     <g id="line2d_39">
      <g>
       <use xlink:href="#m7ee58dff0f" x="291.822871" y="183.863769" style="stroke: #000000; stroke-width: 0.6"/>
      </g>
     </g>
    </g>
    <g id="xtick_40">
     <g id="line2d_40">
      <g>
       <use xlink:href="#m7ee58dff0f" x="299.187235" y="183.863769" style="stroke: #000000; stroke-width: 0.6"/>
      </g>
     </g>
    </g>
    <g id="xtick_41">
     <g id="line2d_41">
      <g>
       <use xlink:href="#m7ee58dff0f" x="306.551599" y="183.863769" style="stroke: #000000; stroke-width: 0.6"/>
      </g>
     </g>
    </g>
    <g id="text_9">
     <!-- $x$ -->
     <g transform="translate(327.807454 183.863769)scale(0.16 -0.16)">
      <defs>
       <path id="Cmmi10-78" d="M 500 184 
Q 613 97 819 97 
Q 1019 97 1172 289 
Q 1325 481 1381 709 
L 1672 1844 
Q 1741 2153 1741 2266 
Q 1741 2425 1652 2544 
Q 1563 2663 1403 2663 
Q 1200 2663 1022 2536 
Q 844 2409 722 2214 
Q 600 2019 550 1819 
Q 538 1778 500 1778 
L 422 1778 
Q 372 1778 372 1838 
L 372 1856 
Q 434 2094 584 2320 
Q 734 2547 951 2687 
Q 1169 2828 1416 2828 
Q 1650 2828 1839 2703 
Q 2028 2578 2106 2363 
Q 2216 2559 2386 2693 
Q 2556 2828 2759 2828 
Q 2897 2828 3040 2779 
Q 3184 2731 3275 2631 
Q 3366 2531 3366 2381 
Q 3366 2219 3261 2101 
Q 3156 1984 2994 1984 
Q 2891 1984 2822 2050 
Q 2753 2116 2753 2216 
Q 2753 2350 2845 2451 
Q 2938 2553 3066 2572 
Q 2950 2663 2747 2663 
Q 2541 2663 2389 2472 
Q 2238 2281 2175 2047 
L 1894 916 
Q 1825 659 1825 494 
Q 1825 331 1917 214 
Q 2009 97 2163 97 
Q 2463 97 2698 361 
Q 2934 625 3009 941 
Q 3022 978 3059 978 
L 3138 978 
Q 3163 978 3178 961 
Q 3194 944 3194 922 
Q 3194 916 3188 903 
Q 3097 522 2806 225 
Q 2516 -72 2150 -72 
Q 1916 -72 1727 54 
Q 1538 181 1459 397 
Q 1359 209 1182 68 
Q 1006 -72 806 -72 
Q 669 -72 523 -23 
Q 378 25 287 125 
Q 197 225 197 378 
Q 197 528 301 651 
Q 406 775 563 775 
Q 669 775 741 711 
Q 813 647 813 544 
Q 813 409 723 309 
Q 634 209 500 184 
z
" transform="scale(0.015625)"/>
      </defs>
      <use xlink:href="#Cmmi10-78" transform="translate(0 0.8125)"/>
     </g>
    </g>
   </g>
   <g id="matplotlib.axis_2">
    <g id="ytick_1">
     <g id="line2d_42">
      <defs>
       <path id="m0d5901ae13" d="M 0 0 
L -3.5 0 
" style="stroke: #000000; stroke-width: 0.8"/>
      </defs>
      <g>
       <use xlink:href="#m0d5901ae13" x="166.628684" y="331.151047" style="stroke: #000000; stroke-width: 0.8"/>
      </g>
     </g>
     <g id="text_10">
      <!-- 2.0 -->
      <g transform="translate(135.345872 334.950266)scale(0.1 -0.1)">
       <use xlink:href="#DejaVuSans-2212"/>
       <use xlink:href="#DejaVuSans-32" x="83.789062"/>
       <use xlink:href="#DejaVuSans-2e" x="147.412109"/>
       <use xlink:href="#DejaVuSans-30" x="179.199219"/>
      </g>
     </g>
    </g>
    <g id="ytick_2">
     <g id="line2d_43">
      <g>
       <use xlink:href="#m0d5901ae13" x="166.628684" y="294.329228" style="stroke: #000000; stroke-width: 0.8"/>
      </g>
     </g>
     <g id="text_11">
      <!-- 1.5 -->
      <g transform="translate(135.345872 298.128447)scale(0.1 -0.1)">
       <use xlink:href="#DejaVuSans-2212"/>
       <use xlink:href="#DejaVuSans-31" x="83.789062"/>
       <use xlink:href="#DejaVuSans-2e" x="147.412109"/>
       <use xlink:href="#DejaVuSans-35" x="179.199219"/>
      </g>
     </g>
    </g>
    <g id="ytick_3">
     <g id="line2d_44">
      <g>
       <use xlink:href="#m0d5901ae13" x="166.628684" y="257.507408" style="stroke: #000000; stroke-width: 0.8"/>
      </g>
     </g>
     <g id="text_12">
      <!-- 1.0 -->
      <g transform="translate(135.345872 261.306627)scale(0.1 -0.1)">
       <use xlink:href="#DejaVuSans-2212"/>
       <use xlink:href="#DejaVuSans-31" x="83.789062"/>
       <use xlink:href="#DejaVuSans-2e" x="147.412109"/>
       <use xlink:href="#DejaVuSans-30" x="179.199219"/>
      </g>
     </g>
    </g>
    <g id="ytick_4">
     <g id="line2d_45">
      <g>
       <use xlink:href="#m0d5901ae13" x="166.628684" y="220.685589" style="stroke: #000000; stroke-width: 0.8"/>
      </g>
     </g>
     <g id="text_13">
      <!-- 0.5 -->
      <g transform="translate(135.345872 224.484808)scale(0.1 -0.1)">
       <use xlink:href="#DejaVuSans-2212"/>
       <use xlink:href="#DejaVuSans-30" x="83.789062"/>
       <use xlink:href="#DejaVuSans-2e" x="147.412109"/>
       <use xlink:href="#DejaVuSans-35" x="179.199219"/>
      </g>
     </g>
    </g>
    <g id="ytick_5">
     <g id="line2d_46">
      <g>
       <use xlink:href="#m0d5901ae13" x="166.628684" y="183.863769" style="stroke: #000000; stroke-width: 0.8"/>
      </g>
     </g>
    </g>
    <g id="ytick_6">
     <g id="line2d_47">
      <g>
       <use xlink:href="#m0d5901ae13" x="166.628684" y="147.04195" style="stroke: #000000; stroke-width: 0.8"/>
      </g>
     </g>
     <g id="text_14">
      <!-- 0.5 -->
      <g transform="translate(143.725559 150.841168)scale(0.1 -0.1)">
       <use xlink:href="#DejaVuSans-30"/>
       <use xlink:href="#DejaVuSans-2e" x="63.623047"/>
       <use xlink:href="#DejaVuSans-35" x="95.410156"/>
      </g>
     </g>
    </g>
    <g id="ytick_7">
     <g id="line2d_48">
      <g>
       <use xlink:href="#m0d5901ae13" x="166.628684" y="110.22013" style="stroke: #000000; stroke-width: 0.8"/>
      </g>
     </g>
     <g id="text_15">
      <!-- 1.0 -->
      <g transform="translate(143.725559 114.019349)scale(0.1 -0.1)">
       <use xlink:href="#DejaVuSans-31"/>
       <use xlink:href="#DejaVuSans-2e" x="63.623047"/>
       <use xlink:href="#DejaVuSans-30" x="95.410156"/>
      </g>
     </g>
    </g>
    <g id="ytick_8">
     <g id="line2d_49">
      <g>
       <use xlink:href="#m0d5901ae13" x="166.628684" y="73.398311" style="stroke: #000000; stroke-width: 0.8"/>
      </g>
     </g>
     <g id="text_16">
      <!-- 1.5 -->
      <g transform="translate(143.725559 77.197529)scale(0.1 -0.1)">
       <use xlink:href="#DejaVuSans-31"/>
       <use xlink:href="#DejaVuSans-2e" x="63.623047"/>
       <use xlink:href="#DejaVuSans-35" x="95.410156"/>
      </g>
     </g>
    </g>
    <g id="ytick_9">
     <g id="line2d_50">
      <g>
       <use xlink:href="#m0d5901ae13" x="166.628684" y="36.576491" style="stroke: #000000; stroke-width: 0.8"/>
      </g>
     </g>
     <g id="text_17">
      <!-- 2.0 -->
      <g transform="translate(143.725559 40.37571)scale(0.1 -0.1)">
       <use xlink:href="#DejaVuSans-32"/>
       <use xlink:href="#DejaVuSans-2e" x="63.623047"/>
       <use xlink:href="#DejaVuSans-30" x="95.410156"/>
      </g>
     </g>
    </g>
    <g id="ytick_10">
     <g id="line2d_51">
      <defs>
       <path id="mfb302b82a0" d="M 0 0 
L -2 0 
" style="stroke: #000000; stroke-width: 0.6"/>
      </defs>
      <g>
       <use xlink:href="#mfb302b82a0" x="166.628684" y="323.786683" style="stroke: #000000; stroke-width: 0.6"/>
      </g>
     </g>
    </g>
    <g id="ytick_11">
     <g id="line2d_52">
      <g>
       <use xlink:href="#mfb302b82a0" x="166.628684" y="316.42232" style="stroke: #000000; stroke-width: 0.6"/>
      </g>
     </g>
    </g>
    <g id="ytick_12">
     <g id="line2d_53">
      <g>
       <use xlink:href="#mfb302b82a0" x="166.628684" y="309.057956" style="stroke: #000000; stroke-width: 0.6"/>
      </g>
     </g>
    </g>
    <g id="ytick_13">
     <g id="line2d_54">
      <g>
       <use xlink:href="#mfb302b82a0" x="166.628684" y="301.693592" style="stroke: #000000; stroke-width: 0.6"/>
      </g>
     </g>
    </g>
    <g id="ytick_14">
     <g id="line2d_55">
      <g>
       <use xlink:href="#mfb302b82a0" x="166.628684" y="286.964864" style="stroke: #000000; stroke-width: 0.6"/>
      </g>
     </g>
    </g>
    <g id="ytick_15">
     <g id="line2d_56">
      <g>
       <use xlink:href="#mfb302b82a0" x="166.628684" y="279.6005" style="stroke: #000000; stroke-width: 0.6"/>
      </g>
     </g>
    </g>
    <g id="ytick_16">
     <g id="line2d_57">
      <g>
       <use xlink:href="#mfb302b82a0" x="166.628684" y="272.236136" style="stroke: #000000; stroke-width: 0.6"/>
      </g>
     </g>
    </g>
    <g id="ytick_17">
     <g id="line2d_58">
      <g>
       <use xlink:href="#mfb302b82a0" x="166.628684" y="264.871772" style="stroke: #000000; stroke-width: 0.6"/>
      </g>
     </g>
    </g>
    <g id="ytick_18">
     <g id="line2d_59">
      <g>
       <use xlink:href="#mfb302b82a0" x="166.628684" y="250.143044" style="stroke: #000000; stroke-width: 0.6"/>
      </g>
     </g>
    </g>
    <g id="ytick_19">
     <g id="line2d_60">
      <g>
       <use xlink:href="#mfb302b82a0" x="166.628684" y="242.77868" style="stroke: #000000; stroke-width: 0.6"/>
      </g>
     </g>
    </g>
    <g id="ytick_20">
     <g id="line2d_61">
      <g>
       <use xlink:href="#mfb302b82a0" x="166.628684" y="235.414317" style="stroke: #000000; stroke-width: 0.6"/>
      </g>
     </g>
    </g>
    <g id="ytick_21">
     <g id="line2d_62">
      <g>
       <use xlink:href="#mfb302b82a0" x="166.628684" y="228.049953" style="stroke: #000000; stroke-width: 0.6"/>
      </g>
     </g>
    </g>
    <g id="ytick_22">
     <g id="line2d_63">
      <g>
       <use xlink:href="#mfb302b82a0" x="166.628684" y="213.321225" style="stroke: #000000; stroke-width: 0.6"/>
      </g>
     </g>
    </g>
    <g id="ytick_23">
     <g id="line2d_64">
      <g>
       <use xlink:href="#mfb302b82a0" x="166.628684" y="205.956861" style="stroke: #000000; stroke-width: 0.6"/>
      </g>
     </g>
    </g>
    <g id="ytick_24">
     <g id="line2d_65">
      <g>
       <use xlink:href="#mfb302b82a0" x="166.628684" y="198.592497" style="stroke: #000000; stroke-width: 0.6"/>
      </g>
     </g>
    </g>
    <g id="ytick_25">
     <g id="line2d_66">
      <g>
       <use xlink:href="#mfb302b82a0" x="166.628684" y="191.228133" style="stroke: #000000; stroke-width: 0.6"/>
      </g>
     </g>
    </g>
    <g id="ytick_26">
     <g id="line2d_67">
      <g>
       <use xlink:href="#mfb302b82a0" x="166.628684" y="176.499405" style="stroke: #000000; stroke-width: 0.6"/>
      </g>
     </g>
    </g>
    <g id="ytick_27">
     <g id="line2d_68">
      <g>
       <use xlink:href="#mfb302b82a0" x="166.628684" y="169.135041" style="stroke: #000000; stroke-width: 0.6"/>
      </g>
     </g>
    </g>
    <g id="ytick_28">
     <g id="line2d_69">
      <g>
       <use xlink:href="#mfb302b82a0" x="166.628684" y="161.770678" style="stroke: #000000; stroke-width: 0.6"/>
      </g>
     </g>
    </g>
    <g id="ytick_29">
     <g id="line2d_70">
      <g>
       <use xlink:href="#mfb302b82a0" x="166.628684" y="154.406314" style="stroke: #000000; stroke-width: 0.6"/>
      </g>
     </g>
    </g>
    <g id="ytick_30">
     <g id="line2d_71">
      <g>
       <use xlink:href="#mfb302b82a0" x="166.628684" y="139.677586" style="stroke: #000000; stroke-width: 0.6"/>
      </g>
     </g>
    </g>
    <g id="ytick_31">
     <g id="line2d_72">
      <g>
       <use xlink:href="#mfb302b82a0" x="166.628684" y="132.313222" style="stroke: #000000; stroke-width: 0.6"/>
      </g>
     </g>
    </g>
    <g id="ytick_32">
     <g id="line2d_73">
      <g>
       <use xlink:href="#mfb302b82a0" x="166.628684" y="124.948858" style="stroke: #000000; stroke-width: 0.6"/>
      </g>
     </g>
    </g>
    <g id="ytick_33">
     <g id="line2d_74">
      <g>
       <use xlink:href="#mfb302b82a0" x="166.628684" y="117.584494" style="stroke: #000000; stroke-width: 0.6"/>
      </g>
     </g>
    </g>
    <g id="ytick_34">
     <g id="line2d_75">
      <g>
       <use xlink:href="#mfb302b82a0" x="166.628684" y="102.855766" style="stroke: #000000; stroke-width: 0.6"/>
      </g>
     </g>
    </g>
    <g id="ytick_35">
     <g id="line2d_76">
      <g>
       <use xlink:href="#mfb302b82a0" x="166.628684" y="95.491402" style="stroke: #000000; stroke-width: 0.6"/>
      </g>
     </g>
    </g>
    <g id="ytick_36">
     <g id="line2d_77">
      <g>
       <use xlink:href="#mfb302b82a0" x="166.628684" y="88.127038" style="stroke: #000000; stroke-width: 0.6"/>
      </g>
     </g>
    </g>
    <g id="ytick_37">
     <g id="line2d_78">
      <g>
       <use xlink:href="#mfb302b82a0" x="166.628684" y="80.762675" style="stroke: #000000; stroke-width: 0.6"/>
      </g>
     </g>
    </g>
    <g id="ytick_38">
     <g id="line2d_79">
      <g>
       <use xlink:href="#mfb302b82a0" x="166.628684" y="66.033947" style="stroke: #000000; stroke-width: 0.6"/>
      </g>
     </g>
    </g>
    <g id="ytick_39">
     <g id="line2d_80">
      <g>
       <use xlink:href="#mfb302b82a0" x="166.628684" y="58.669583" style="stroke: #000000; stroke-width: 0.6"/>
      </g>
     </g>
    </g>
    <g id="ytick_40">
     <g id="line2d_81">
      <g>
       <use xlink:href="#mfb302b82a0" x="166.628684" y="51.305219" style="stroke: #000000; stroke-width: 0.6"/>
      </g>
     </g>
    </g>
    <g id="ytick_41">
     <g id="line2d_82">
      <g>
       <use xlink:href="#mfb302b82a0" x="166.628684" y="43.940855" style="stroke: #000000; stroke-width: 0.6"/>
      </g>
     </g>
    </g>
    <g id="text_18">
     <!-- $y$ -->
     <g transform="translate(162.628684 19.325)scale(0.16 -0.16)">
      <defs>
       <path id="Cmmi10-79" d="M 538 -916 
Q 672 -1147 1006 -1147 
Q 1309 -1147 1531 -934 
Q 1753 -722 1889 -420 
Q 2025 -119 2100 197 
Q 1816 -72 1484 -72 
Q 1231 -72 1053 15 
Q 875 103 776 276 
Q 678 450 678 697 
Q 678 906 734 1126 
Q 791 1347 892 1617 
Q 994 1888 1069 2088 
Q 1153 2322 1153 2472 
Q 1153 2663 1013 2663 
Q 759 2663 595 2402 
Q 431 2141 353 1819 
Q 341 1778 300 1778 
L 225 1778 
Q 172 1778 172 1838 
L 172 1856 
Q 275 2238 487 2533 
Q 700 2828 1025 2828 
Q 1253 2828 1411 2678 
Q 1569 2528 1569 2297 
Q 1569 2178 1516 2047 
Q 1488 1969 1388 1706 
Q 1288 1444 1234 1272 
Q 1181 1100 1147 934 
Q 1113 769 1113 603 
Q 1113 391 1203 244 
Q 1294 97 1491 97 
Q 1888 97 2203 581 
L 2688 2553 
Q 2709 2638 2787 2698 
Q 2866 2759 2956 2759 
Q 3034 2759 3092 2709 
Q 3150 2659 3150 2578 
Q 3150 2541 3144 2528 
L 2509 -19 
Q 2425 -347 2200 -647 
Q 1975 -947 1658 -1130 
Q 1341 -1313 997 -1313 
Q 831 -1313 668 -1248 
Q 506 -1184 406 -1056 
Q 306 -928 306 -756 
Q 306 -581 409 -453 
Q 513 -325 684 -325 
Q 788 -325 858 -389 
Q 928 -453 928 -556 
Q 928 -703 818 -812 
Q 709 -922 563 -922 
Q 556 -919 550 -917 
Q 544 -916 538 -916 
z
" transform="scale(0.015625)"/>
      </defs>
      <use xlink:href="#Cmmi10-79" transform="translate(0 0.8125)"/>
     </g>
    </g>
   </g>
   <g id="patch_3">
    <path d="M 166.628684 337.042538 
L 166.628684 30.685 
" style="fill: none; stroke: #000000; stroke-width: 0.8; stroke-linejoin: miter; stroke-linecap: square"/>
   </g>
   <g id="patch_4">
    <path d="M 13.449915 183.863769 
L 319.807454 183.863769 
" style="fill: none; stroke: #000000; stroke-width: 0.8; stroke-linejoin: miter; stroke-linecap: square"/>
   </g>
  </g>
 </g>
 <defs>
  <clipPath id="p3920f8906e">
   <rect x="13.449915" y="30.685" width="306.357538" height="306.357538"/>
  </clipPath>
 </defs>
</svg>
