<?xml version="1.0" encoding="utf-8" standalone="no"?>
<!DOCTYPE svg PUBLIC "-//W3C//DTD SVG 1.1//EN"
  "http://www.w3.org/Graphics/SVG/1.1/DTD/svg11.dtd">
<svg xmlns:xlink="http://www.w3.org/1999/xlink" width="338.708308pt" height="344.913308pt" viewBox="0 0 338.708308 344.913308" xmlns="http://www.w3.org/2000/svg" version="1.1">
 <metadata>
  <rdf:RDF xmlns:dc="http://purl.org/dc/elements/1.1/" xmlns:cc="http://creativecommons.org/ns#" xmlns:rdf="http://www.w3.org/1999/02/22-rdf-syntax-ns#">
   <cc:Work>
    <dc:type rdf:resource="http://purl.org/dc/dcmitype/StillImage"/>
    <dc:date>2025-03-06T19:35:53.444902</dc:date>
    <dc:format>image/svg+xml</dc:format>
    <dc:creator>
     <cc:Agent>
      <dc:title>Matplotlib v3.5.1, https://matplotlib.org/</dc:title>
     </cc:Agent>
    </dc:creator>
   </cc:Work>
  </rdf:RDF>
 </metadata>
 <defs>
  <style type="text/css">*{stroke-linejoin: round; stroke-linecap: butt}</style>
 </defs>
 <g id="figure_1">
  <g id="patch_1">
   <path d="M 0 344.913308 
L 338.708308 344.913308 
L 338.708308 0 
L 0 0 
z
" style="fill: #ffffff"/>
  </g>
  <g id="axes_1">
   <g id="patch_2">
    <path d="M 7.2 337.713308 
L 314.228308 337.713308 
L 314.228308 30.685 
L 7.2 30.685 
z
" style="fill: #ffffff"/>
   </g>
   <g id="Quiver_1">
    <path d="M 27.444545 318.389848 
L 26.984002 317.592165 
L 26.062917 317.592165 
L 25.602375 318.389848 
L 26.062917 319.187531 
L 26.984002 319.187531 
L 27.444545 318.389848 
L 26.984002 317.592165 
" clip-path="url(#pcc38ac7ba4)" style="fill: #0000ff"/>
    <path d="M 27.444545 288.569694 
L 26.984002 287.772011 
L 26.062917 287.772011 
L 25.602375 288.569694 
L 26.062917 289.367377 
L 26.984002 289.367377 
L 27.444545 288.569694 
L 26.984002 287.772011 
" clip-path="url(#pcc38ac7ba4)" style="fill: #0000ff"/>
    <path d="M 27.444545 258.749539 
L 26.984002 257.951856 
L 26.062917 257.951856 
L 25.602375 258.749539 
L 26.062917 259.547222 
L 26.984002 259.547222 
L 27.444545 258.749539 
L 26.984002 257.951856 
" clip-path="url(#pcc38ac7ba4)" style="fill: #0000ff"/>
    <path d="M 27.444545 228.929385 
L 26.984002 228.131702 
L 26.062917 228.131702 
L 25.602375 228.929385 
L 26.062917 229.727068 
L 26.984002 229.727068 
L 27.444545 228.929385 
L 26.984002 228.131702 
" clip-path="url(#pcc38ac7ba4)" style="fill: #0000ff"/>
    <path d="M 27.444545 199.109231 
L 26.984002 198.311548 
L 26.062917 198.311548 
L 25.602375 199.109231 
L 26.062917 199.906914 
L 26.984002 199.906914 
L 27.444545 199.109231 
L 26.984002 198.311548 
" clip-path="url(#pcc38ac7ba4)" style="fill: #0000ff"/>
    <path d="M 27.444545 169.289077 
L 26.984002 168.491394 
L 26.062917 168.491394 
L 25.602375 169.289077 
L 26.062917 170.08676 
L 26.984002 170.08676 
L 27.444545 169.289077 
L 26.984002 168.491394 
" clip-path="url(#pcc38ac7ba4)" style="fill: #0000ff"/>
    <path d="M 27.444545 139.468923 
L 26.984002 138.67124 
L 26.062917 138.67124 
L 25.602375 139.468923 
L 26.062917 140.266605 
L 26.984002 140.266605 
L 27.444545 139.468923 
L 26.984002 138.67124 
" clip-path="url(#pcc38ac7ba4)" style="fill: #0000ff"/>
    <path d="M 27.444545 109.648768 
L 26.984002 108.851085 
L 26.062917 108.851085 
L 25.602375 109.648768 
L 26.062917 110.446451 
L 26.984002 110.446451 
L 27.444545 109.648768 
L 26.984002 108.851085 
" clip-path="url(#pcc38ac7ba4)" style="fill: #0000ff"/>
    <path d="M 27.444545 79.828614 
L 26.984002 79.030931 
L 26.062917 79.030931 
L 25.602375 79.828614 
L 26.062917 80.626297 
L 26.984002 80.626297 
L 27.444545 79.828614 
L 26.984002 79.030931 
" clip-path="url(#pcc38ac7ba4)" style="fill: #0000ff"/>
    <path d="M 27.444545 50.00846 
L 26.984002 49.210777 
L 26.062917 49.210777 
L 25.602375 50.00846 
L 26.062917 50.806143 
L 26.984002 50.806143 
L 27.444545 50.00846 
L 26.984002 49.210777 
" clip-path="url(#pcc38ac7ba4)" style="fill: #0000ff"/>
    <path d="M 56.722661 318.389848 
L 56.722661 318.768895 
L 57.480756 318.389848 
L 56.343614 322.180321 
L 55.206472 318.389848 
L 55.964567 318.768895 
L 55.964567 318.389848 
L 56.722661 318.389848 
" clip-path="url(#pcc38ac7ba4)" style="fill: #0000ff"/>
    <path d="M 56.722661 288.569694 
L 56.722661 288.948741 
L 57.480756 288.569694 
L 56.343614 292.360166 
L 55.206472 288.569694 
L 55.964567 288.948741 
L 55.964567 288.569694 
L 56.722661 288.569694 
" clip-path="url(#pcc38ac7ba4)" style="fill: #0000ff"/>
    <path d="M 56.722661 258.749539 
L 56.722661 259.128587 
L 57.480756 258.749539 
L 56.343614 262.540012 
L 55.206472 258.749539 
L 55.964567 259.128587 
L 55.964567 258.749539 
L 56.722661 258.749539 
" clip-path="url(#pcc38ac7ba4)" style="fill: #0000ff"/>
    <path d="M 56.722661 228.929385 
L 56.722661 229.308432 
L 57.480756 228.929385 
L 56.343614 232.719858 
L 55.206472 228.929385 
L 55.964567 229.308432 
L 55.964567 228.929385 
L 56.722661 228.929385 
" clip-path="url(#pcc38ac7ba4)" style="fill: #0000ff"/>
    <path d="M 56.722661 199.109231 
L 56.722661 199.488278 
L 57.480756 199.109231 
L 56.343614 202.899704 
L 55.206472 199.109231 
L 55.964567 199.488278 
L 55.964567 199.109231 
L 56.722661 199.109231 
" clip-path="url(#pcc38ac7ba4)" style="fill: #0000ff"/>
    <path d="M 56.722661 169.289077 
L 56.722661 169.668124 
L 57.480756 169.289077 
L 56.343614 173.07955 
L 55.206472 169.289077 
L 55.964567 169.668124 
L 55.964567 169.289077 
L 56.722661 169.289077 
" clip-path="url(#pcc38ac7ba4)" style="fill: #0000ff"/>
    <path d="M 56.722661 139.468923 
L 56.722661 139.84797 
L 57.480756 139.468923 
L 56.343614 143.259395 
L 55.206472 139.468923 
L 55.964567 139.84797 
L 55.964567 139.468923 
L 56.722661 139.468923 
" clip-path="url(#pcc38ac7ba4)" style="fill: #0000ff"/>
    <path d="M 56.722661 109.648768 
L 56.722661 110.027816 
L 57.480756 109.648768 
L 56.343614 113.439241 
L 55.206472 109.648768 
L 55.964567 110.027816 
L 55.964567 109.648768 
L 56.722661 109.648768 
" clip-path="url(#pcc38ac7ba4)" style="fill: #0000ff"/>
    <path d="M 56.722661 79.828614 
L 56.722661 80.207661 
L 57.480756 79.828614 
L 56.343614 83.619087 
L 55.206472 79.828614 
L 55.964567 80.207661 
L 55.964567 79.828614 
L 56.722661 79.828614 
" clip-path="url(#pcc38ac7ba4)" style="fill: #0000ff"/>
    <path d="M 56.722661 50.00846 
L 56.722661 50.387507 
L 57.480756 50.00846 
L 56.343614 53.798933 
L 55.206472 50.00846 
L 55.964567 50.387507 
L 55.964567 50.00846 
L 56.722661 50.00846 
" clip-path="url(#pcc38ac7ba4)" style="fill: #0000ff"/>
    <path d="M 86.921863 318.389848 
L 86.921863 319.147942 
L 88.438052 318.389848 
L 86.163768 325.970794 
L 83.889485 318.389848 
L 85.405674 319.147942 
L 85.405674 318.389848 
L 86.921863 318.389848 
" clip-path="url(#pcc38ac7ba4)" style="fill: #0000ff"/>
    <path d="M 86.921863 288.569694 
L 86.921863 289.327788 
L 88.438052 288.569694 
L 86.163768 296.150639 
L 83.889485 288.569694 
L 85.405674 289.327788 
L 85.405674 288.569694 
L 86.921863 288.569694 
" clip-path="url(#pcc38ac7ba4)" style="fill: #0000ff"/>
    <path d="M 86.921863 258.749539 
L 86.921863 259.507634 
L 88.438052 258.749539 
L 86.163768 266.330485 
L 83.889485 258.749539 
L 85.405674 259.507634 
L 85.405674 258.749539 
L 86.921863 258.749539 
" clip-path="url(#pcc38ac7ba4)" style="fill: #0000ff"/>
    <path d="M 86.921863 228.929385 
L 86.921863 229.68748 
L 88.438052 228.929385 
L 86.163768 236.510331 
L 83.889485 228.929385 
L 85.405674 229.68748 
L 85.405674 228.929385 
L 86.921863 228.929385 
" clip-path="url(#pcc38ac7ba4)" style="fill: #0000ff"/>
    <path d="M 86.921863 199.109231 
L 86.921863 199.867326 
L 88.438052 199.109231 
L 86.163768 206.690177 
L 83.889485 199.109231 
L 85.405674 199.867326 
L 85.405674 199.109231 
L 86.921863 199.109231 
" clip-path="url(#pcc38ac7ba4)" style="fill: #0000ff"/>
    <path d="M 86.921863 169.289077 
L 86.921863 170.047171 
L 88.438052 169.289077 
L 86.163768 176.870023 
L 83.889485 169.289077 
L 85.405674 170.047171 
L 85.405674 169.289077 
L 86.921863 169.289077 
" clip-path="url(#pcc38ac7ba4)" style="fill: #0000ff"/>
    <path d="M 86.921863 139.468923 
L 86.921863 140.227017 
L 88.438052 139.468923 
L 86.163768 147.049868 
L 83.889485 139.468923 
L 85.405674 140.227017 
L 85.405674 139.468923 
L 86.921863 139.468923 
" clip-path="url(#pcc38ac7ba4)" style="fill: #0000ff"/>
    <path d="M 86.921863 109.648768 
L 86.921863 110.406863 
L 88.438052 109.648768 
L 86.163768 117.229714 
L 83.889485 109.648768 
L 85.405674 110.406863 
L 85.405674 109.648768 
L 86.921863 109.648768 
" clip-path="url(#pcc38ac7ba4)" style="fill: #0000ff"/>
    <path d="M 86.921863 79.828614 
L 86.921863 80.586709 
L 88.438052 79.828614 
L 86.163768 87.40956 
L 83.889485 79.828614 
L 85.405674 80.586709 
L 85.405674 79.828614 
L 86.921863 79.828614 
" clip-path="url(#pcc38ac7ba4)" style="fill: #0000ff"/>
    <path d="M 86.921863 50.00846 
L 86.921863 50.766555 
L 88.438052 50.00846 
L 86.163768 57.589406 
L 83.889485 50.00846 
L 85.405674 50.766555 
L 85.405674 50.00846 
L 86.921863 50.00846 
" clip-path="url(#pcc38ac7ba4)" style="fill: #0000ff"/>
    <path d="M 116.905007 318.389848 
L 116.905007 321.471502 
L 118.747177 320.550417 
L 115.983923 329.761267 
L 113.220668 320.550417 
L 115.062838 321.471502 
L 115.062838 318.389848 
L 116.905007 318.389848 
" clip-path="url(#pcc38ac7ba4)" style="fill: #0000ff"/>
    <path d="M 116.905007 288.569694 
L 116.905007 291.651348 
L 118.747177 290.730263 
L 115.983923 299.941112 
L 113.220668 290.730263 
L 115.062838 291.651348 
L 115.062838 288.569694 
L 116.905007 288.569694 
" clip-path="url(#pcc38ac7ba4)" style="fill: #0000ff"/>
    <path d="M 116.905007 258.749539 
L 116.905007 261.831194 
L 118.747177 260.910109 
L 115.983923 270.120958 
L 113.220668 260.910109 
L 115.062838 261.831194 
L 115.062838 258.749539 
L 116.905007 258.749539 
" clip-path="url(#pcc38ac7ba4)" style="fill: #0000ff"/>
    <path d="M 116.905007 228.929385 
L 116.905007 232.01104 
L 118.747177 231.089955 
L 115.983923 240.300804 
L 113.220668 231.089955 
L 115.062838 232.01104 
L 115.062838 228.929385 
L 116.905007 228.929385 
" clip-path="url(#pcc38ac7ba4)" style="fill: #0000ff"/>
    <path d="M 116.905007 199.109231 
L 116.905007 202.190885 
L 118.747177 201.269801 
L 115.983923 210.48065 
L 113.220668 201.269801 
L 115.062838 202.190885 
L 115.062838 199.109231 
L 116.905007 199.109231 
" clip-path="url(#pcc38ac7ba4)" style="fill: #0000ff"/>
    <path d="M 116.905007 169.289077 
L 116.905007 172.370731 
L 118.747177 171.449646 
L 115.983923 180.660496 
L 113.220668 171.449646 
L 115.062838 172.370731 
L 115.062838 169.289077 
L 116.905007 169.289077 
" clip-path="url(#pcc38ac7ba4)" style="fill: #0000ff"/>
    <path d="M 116.905007 139.468923 
L 116.905007 142.550577 
L 118.747177 141.629492 
L 115.983923 150.840341 
L 113.220668 141.629492 
L 115.062838 142.550577 
L 115.062838 139.468923 
L 116.905007 139.468923 
" clip-path="url(#pcc38ac7ba4)" style="fill: #0000ff"/>
    <path d="M 116.905007 109.648768 
L 116.905007 112.730423 
L 118.747177 111.809338 
L 115.983923 121.020187 
L 113.220668 111.809338 
L 115.062838 112.730423 
L 115.062838 109.648768 
L 116.905007 109.648768 
" clip-path="url(#pcc38ac7ba4)" style="fill: #0000ff"/>
    <path d="M 116.905007 79.828614 
L 116.905007 82.910269 
L 118.747177 81.989184 
L 115.983923 91.200033 
L 113.220668 81.989184 
L 115.062838 82.910269 
L 115.062838 79.828614 
L 116.905007 79.828614 
" clip-path="url(#pcc38ac7ba4)" style="fill: #0000ff"/>
    <path d="M 116.905007 50.00846 
L 116.905007 53.090114 
L 118.747177 52.169029 
L 115.983923 61.379879 
L 113.220668 52.169029 
L 115.062838 53.090114 
L 115.062838 50.00846 
L 116.905007 50.00846 
" clip-path="url(#pcc38ac7ba4)" style="fill: #0000ff"/>
    <path d="M 146.725162 318.389848 
L 146.725162 325.261975 
L 148.567332 324.34089 
L 145.804077 333.55174 
L 143.040822 324.34089 
L 144.882992 325.261975 
L 144.882992 318.389848 
L 146.725162 318.389848 
" clip-path="url(#pcc38ac7ba4)" style="fill: #0000ff"/>
    <path d="M 146.725162 288.569694 
L 146.725162 295.441821 
L 148.567332 294.520736 
L 145.804077 303.731585 
L 143.040822 294.520736 
L 144.882992 295.441821 
L 144.882992 288.569694 
L 146.725162 288.569694 
" clip-path="url(#pcc38ac7ba4)" style="fill: #0000ff"/>
    <path d="M 146.725162 258.749539 
L 146.725162 265.621667 
L 148.567332 264.700582 
L 145.804077 273.911431 
L 143.040822 264.700582 
L 144.882992 265.621667 
L 144.882992 258.749539 
L 146.725162 258.749539 
" clip-path="url(#pcc38ac7ba4)" style="fill: #0000ff"/>
    <path d="M 146.725162 228.929385 
L 146.725162 235.801513 
L 148.567332 234.880428 
L 145.804077 244.091277 
L 143.040822 234.880428 
L 144.882992 235.801513 
L 144.882992 228.929385 
L 146.725162 228.929385 
" clip-path="url(#pcc38ac7ba4)" style="fill: #0000ff"/>
    <path d="M 146.725162 199.109231 
L 146.725162 205.981358 
L 148.567332 205.060273 
L 145.804077 214.271123 
L 143.040822 205.060273 
L 144.882992 205.981358 
L 144.882992 199.109231 
L 146.725162 199.109231 
" clip-path="url(#pcc38ac7ba4)" style="fill: #0000ff"/>
    <path d="M 146.725162 169.289077 
L 146.725162 176.161204 
L 148.567332 175.240119 
L 145.804077 184.450968 
L 143.040822 175.240119 
L 144.882992 176.161204 
L 144.882992 169.289077 
L 146.725162 169.289077 
" clip-path="url(#pcc38ac7ba4)" style="fill: #0000ff"/>
    <path d="M 146.725162 139.468923 
L 146.725162 146.34105 
L 148.567332 145.419965 
L 145.804077 154.630814 
L 143.040822 145.419965 
L 144.882992 146.34105 
L 144.882992 139.468923 
L 146.725162 139.468923 
" clip-path="url(#pcc38ac7ba4)" style="fill: #0000ff"/>
    <path d="M 146.725162 109.648768 
L 146.725162 116.520896 
L 148.567332 115.599811 
L 145.804077 124.81066 
L 143.040822 115.599811 
L 144.882992 116.520896 
L 144.882992 109.648768 
L 146.725162 109.648768 
" clip-path="url(#pcc38ac7ba4)" style="fill: #0000ff"/>
    <path d="M 146.725162 79.828614 
L 146.725162 86.700742 
L 148.567332 85.779657 
L 145.804077 94.990506 
L 143.040822 85.779657 
L 144.882992 86.700742 
L 144.882992 79.828614 
L 146.725162 79.828614 
" clip-path="url(#pcc38ac7ba4)" style="fill: #0000ff"/>
    <path d="M 146.725162 50.00846 
L 146.725162 56.880587 
L 148.567332 55.959502 
L 145.804077 65.170352 
L 143.040822 55.959502 
L 144.882992 56.880587 
L 144.882992 50.00846 
L 146.725162 50.00846 
" clip-path="url(#pcc38ac7ba4)" style="fill: #0000ff"/>
    <path d="M 176.545316 318.389848 
L 176.545316 329.052448 
L 178.387486 328.131363 
L 175.624231 337.342212 
L 172.860976 328.131363 
L 174.703146 329.052448 
L 174.703146 318.389848 
L 176.545316 318.389848 
" clip-path="url(#pcc38ac7ba4)" style="fill: #0000ff"/>
    <path d="M 176.545316 288.569694 
L 176.545316 299.232294 
L 178.387486 298.311209 
L 175.624231 307.522058 
L 172.860976 298.311209 
L 174.703146 299.232294 
L 174.703146 288.569694 
L 176.545316 288.569694 
" clip-path="url(#pcc38ac7ba4)" style="fill: #0000ff"/>
    <path d="M 176.545316 258.749539 
L 176.545316 269.41214 
L 178.387486 268.491055 
L 175.624231 277.701904 
L 172.860976 268.491055 
L 174.703146 269.41214 
L 174.703146 258.749539 
L 176.545316 258.749539 
" clip-path="url(#pcc38ac7ba4)" style="fill: #0000ff"/>
    <path d="M 176.545316 228.929385 
L 176.545316 239.591986 
L 178.387486 238.670901 
L 175.624231 247.88175 
L 172.860976 238.670901 
L 174.703146 239.591986 
L 174.703146 228.929385 
L 176.545316 228.929385 
" clip-path="url(#pcc38ac7ba4)" style="fill: #0000ff"/>
    <path d="M 176.545316 199.109231 
L 176.545316 209.771831 
L 178.387486 208.850746 
L 175.624231 218.061596 
L 172.860976 208.850746 
L 174.703146 209.771831 
L 174.703146 199.109231 
L 176.545316 199.109231 
" clip-path="url(#pcc38ac7ba4)" style="fill: #0000ff"/>
    <path d="M 176.545316 169.289077 
L 176.545316 179.951677 
L 178.387486 179.030592 
L 175.624231 188.241441 
L 172.860976 179.030592 
L 174.703146 179.951677 
L 174.703146 169.289077 
L 176.545316 169.289077 
" clip-path="url(#pcc38ac7ba4)" style="fill: #0000ff"/>
    <path d="M 176.545316 139.468923 
L 176.545316 150.131523 
L 178.387486 149.210438 
L 175.624231 158.421287 
L 172.860976 149.210438 
L 174.703146 150.131523 
L 174.703146 139.468923 
L 176.545316 139.468923 
" clip-path="url(#pcc38ac7ba4)" style="fill: #0000ff"/>
    <path d="M 176.545316 109.648768 
L 176.545316 120.311369 
L 178.387486 119.390284 
L 175.624231 128.601133 
L 172.860976 119.390284 
L 174.703146 120.311369 
L 174.703146 109.648768 
L 176.545316 109.648768 
" clip-path="url(#pcc38ac7ba4)" style="fill: #0000ff"/>
    <path d="M 176.545316 79.828614 
L 176.545316 90.491214 
L 178.387486 89.57013 
L 175.624231 98.780979 
L 172.860976 89.57013 
L 174.703146 90.491214 
L 174.703146 79.828614 
L 176.545316 79.828614 
" clip-path="url(#pcc38ac7ba4)" style="fill: #0000ff"/>
    <path d="M 176.545316 50.00846 
L 176.545316 60.67106 
L 178.387486 59.749975 
L 175.624231 68.960825 
L 172.860976 59.749975 
L 174.703146 60.67106 
L 174.703146 50.00846 
L 176.545316 50.00846 
" clip-path="url(#pcc38ac7ba4)" style="fill: #0000ff"/>
    <path d="M 206.36547 318.389848 
L 206.36547 332.842921 
L 208.20764 331.921836 
L 205.444385 341.132685 
L 202.68113 331.921836 
L 204.5233 332.842921 
L 204.5233 318.389848 
L 206.36547 318.389848 
" clip-path="url(#pcc38ac7ba4)" style="fill: #0000ff"/>
    <path d="M 206.36547 288.569694 
L 206.36547 303.022767 
L 208.20764 302.101682 
L 205.444385 311.312531 
L 202.68113 302.101682 
L 204.5233 303.022767 
L 204.5233 288.569694 
L 206.36547 288.569694 
" clip-path="url(#pcc38ac7ba4)" style="fill: #0000ff"/>
    <path d="M 206.36547 258.749539 
L 206.36547 273.202613 
L 208.20764 272.281528 
L 205.444385 281.492377 
L 202.68113 272.281528 
L 204.5233 273.202613 
L 204.5233 258.749539 
L 206.36547 258.749539 
" clip-path="url(#pcc38ac7ba4)" style="fill: #0000ff"/>
    <path d="M 206.36547 228.929385 
L 206.36547 243.382458 
L 208.20764 242.461374 
L 205.444385 251.672223 
L 202.68113 242.461374 
L 204.5233 243.382458 
L 204.5233 228.929385 
L 206.36547 228.929385 
" clip-path="url(#pcc38ac7ba4)" style="fill: #0000ff"/>
    <path d="M 206.36547 199.109231 
L 206.36547 213.562304 
L 208.20764 212.641219 
L 205.444385 221.852069 
L 202.68113 212.641219 
L 204.5233 213.562304 
L 204.5233 199.109231 
L 206.36547 199.109231 
" clip-path="url(#pcc38ac7ba4)" style="fill: #0000ff"/>
    <path d="M 206.36547 169.289077 
L 206.36547 183.74215 
L 208.20764 182.821065 
L 205.444385 192.031914 
L 202.68113 182.821065 
L 204.5233 183.74215 
L 204.5233 169.289077 
L 206.36547 169.289077 
" clip-path="url(#pcc38ac7ba4)" style="fill: #0000ff"/>
    <path d="M 206.36547 139.468923 
L 206.36547 153.921996 
L 208.20764 153.000911 
L 205.444385 162.21176 
L 202.68113 153.000911 
L 204.5233 153.921996 
L 204.5233 139.468923 
L 206.36547 139.468923 
" clip-path="url(#pcc38ac7ba4)" style="fill: #0000ff"/>
    <path d="M 206.36547 109.648768 
L 206.36547 124.101842 
L 208.20764 123.180757 
L 205.444385 132.391606 
L 202.68113 123.180757 
L 204.5233 124.101842 
L 204.5233 109.648768 
L 206.36547 109.648768 
" clip-path="url(#pcc38ac7ba4)" style="fill: #0000ff"/>
    <path d="M 206.36547 79.828614 
L 206.36547 94.281687 
L 208.20764 93.360603 
L 205.444385 102.571452 
L 202.68113 93.360603 
L 204.5233 94.281687 
L 204.5233 79.828614 
L 206.36547 79.828614 
" clip-path="url(#pcc38ac7ba4)" style="fill: #0000ff"/>
    <path d="M 206.36547 50.00846 
L 206.36547 64.461533 
L 208.20764 63.540448 
L 205.444385 72.751298 
L 202.68113 63.540448 
L 204.5233 64.461533 
L 204.5233 50.00846 
L 206.36547 50.00846 
" clip-path="url(#pcc38ac7ba4)" style="fill: #0000ff"/>
    <path d="M 236.185624 318.389848 
L 236.185624 336.633394 
L 238.027794 335.712309 
L 235.264539 344.923158 
L 232.501285 335.712309 
L 234.343454 336.633394 
L 234.343454 318.389848 
L 236.185624 318.389848 
" clip-path="url(#pcc38ac7ba4)" style="fill: #0000ff"/>
    <path d="M 236.185624 288.569694 
L 236.185624 306.81324 
L 238.027794 305.892155 
L 235.264539 315.103004 
L 232.501285 305.892155 
L 234.343454 306.81324 
L 234.343454 288.569694 
L 236.185624 288.569694 
" clip-path="url(#pcc38ac7ba4)" style="fill: #0000ff"/>
    <path d="M 236.185624 258.749539 
L 236.185624 276.993086 
L 238.027794 276.072001 
L 235.264539 285.28285 
L 232.501285 276.072001 
L 234.343454 276.993086 
L 234.343454 258.749539 
L 236.185624 258.749539 
" clip-path="url(#pcc38ac7ba4)" style="fill: #0000ff"/>
    <path d="M 236.185624 228.929385 
L 236.185624 247.172931 
L 238.027794 246.251846 
L 235.264539 255.462696 
L 232.501285 246.251846 
L 234.343454 247.172931 
L 234.343454 228.929385 
L 236.185624 228.929385 
" clip-path="url(#pcc38ac7ba4)" style="fill: #0000ff"/>
    <path d="M 236.185624 199.109231 
L 236.185624 217.352777 
L 238.027794 216.431692 
L 235.264539 225.642541 
L 232.501285 216.431692 
L 234.343454 217.352777 
L 234.343454 199.109231 
L 236.185624 199.109231 
" clip-path="url(#pcc38ac7ba4)" style="fill: #0000ff"/>
    <path d="M 236.185624 169.289077 
L 236.185624 187.532623 
L 238.027794 186.611538 
L 235.264539 195.822387 
L 232.501285 186.611538 
L 234.343454 187.532623 
L 234.343454 169.289077 
L 236.185624 169.289077 
" clip-path="url(#pcc38ac7ba4)" style="fill: #0000ff"/>
    <path d="M 236.185624 139.468923 
L 236.185624 157.712469 
L 238.027794 156.791384 
L 235.264539 166.002233 
L 232.501285 156.791384 
L 234.343454 157.712469 
L 234.343454 139.468923 
L 236.185624 139.468923 
" clip-path="url(#pcc38ac7ba4)" style="fill: #0000ff"/>
    <path d="M 236.185624 109.648768 
L 236.185624 127.892315 
L 238.027794 126.97123 
L 235.264539 136.182079 
L 232.501285 126.97123 
L 234.343454 127.892315 
L 234.343454 109.648768 
L 236.185624 109.648768 
" clip-path="url(#pcc38ac7ba4)" style="fill: #0000ff"/>
    <path d="M 236.185624 79.828614 
L 236.185624 98.07216 
L 238.027794 97.151075 
L 235.264539 106.361925 
L 232.501285 97.151075 
L 234.343454 98.07216 
L 234.343454 79.828614 
L 236.185624 79.828614 
" clip-path="url(#pcc38ac7ba4)" style="fill: #0000ff"/>
    <path d="M 236.185624 50.00846 
L 236.185624 68.252006 
L 238.027794 67.330921 
L 235.264539 76.54177 
L 232.501285 67.330921 
L 234.343454 68.252006 
L 234.343454 50.00846 
L 236.185624 50.00846 
" clip-path="url(#pcc38ac7ba4)" style="fill: #0000ff"/>
    <path d="M 266.005778 318.389848 
L 266.005778 340.423867 
L 267.847948 339.502782 
L 265.084694 348.713631 
L 262.321439 339.502782 
L 264.163609 340.423867 
L 264.163609 318.389848 
L 266.005778 318.389848 
" clip-path="url(#pcc38ac7ba4)" style="fill: #0000ff"/>
    <path d="M 266.005778 288.569694 
L 266.005778 310.603713 
L 267.847948 309.682628 
L 265.084694 318.893477 
L 262.321439 309.682628 
L 264.163609 310.603713 
L 264.163609 288.569694 
L 266.005778 288.569694 
" clip-path="url(#pcc38ac7ba4)" style="fill: #0000ff"/>
    <path d="M 266.005778 258.749539 
L 266.005778 280.783559 
L 267.847948 279.862474 
L 265.084694 289.073323 
L 262.321439 279.862474 
L 264.163609 280.783559 
L 264.163609 258.749539 
L 266.005778 258.749539 
" clip-path="url(#pcc38ac7ba4)" style="fill: #0000ff"/>
    <path d="M 266.005778 228.929385 
L 266.005778 250.963404 
L 267.847948 250.042319 
L 265.084694 259.253169 
L 262.321439 250.042319 
L 264.163609 250.963404 
L 264.163609 228.929385 
L 266.005778 228.929385 
" clip-path="url(#pcc38ac7ba4)" style="fill: #0000ff"/>
    <path d="M 266.005778 199.109231 
L 266.005778 221.14325 
L 267.847948 220.222165 
L 265.084694 229.433014 
L 262.321439 220.222165 
L 264.163609 221.14325 
L 264.163609 199.109231 
L 266.005778 199.109231 
" clip-path="url(#pcc38ac7ba4)" style="fill: #0000ff"/>
    <path d="M 266.005778 169.289077 
L 266.005778 191.323096 
L 267.847948 190.402011 
L 265.084694 199.61286 
L 262.321439 190.402011 
L 264.163609 191.323096 
L 264.163609 169.289077 
L 266.005778 169.289077 
" clip-path="url(#pcc38ac7ba4)" style="fill: #0000ff"/>
    <path d="M 266.005778 139.468923 
L 266.005778 161.502942 
L 267.847948 160.581857 
L 265.084694 169.792706 
L 262.321439 160.581857 
L 264.163609 161.502942 
L 264.163609 139.468923 
L 266.005778 139.468923 
" clip-path="url(#pcc38ac7ba4)" style="fill: #0000ff"/>
    <path d="M 266.005778 109.648768 
L 266.005778 131.682788 
L 267.847948 130.761703 
L 265.084694 139.972552 
L 262.321439 130.761703 
L 264.163609 131.682788 
L 264.163609 109.648768 
L 266.005778 109.648768 
" clip-path="url(#pcc38ac7ba4)" style="fill: #0000ff"/>
    <path d="M 266.005778 79.828614 
L 266.005778 101.862633 
L 267.847948 100.941548 
L 265.084694 110.152398 
L 262.321439 100.941548 
L 264.163609 101.862633 
L 264.163609 79.828614 
L 266.005778 79.828614 
" clip-path="url(#pcc38ac7ba4)" style="fill: #0000ff"/>
    <path d="M 266.005778 50.00846 
L 266.005778 72.042479 
L 267.847948 71.121394 
L 265.084694 80.332243 
L 262.321439 71.121394 
L 264.163609 72.042479 
L 264.163609 50.00846 
L 266.005778 50.00846 
" clip-path="url(#pcc38ac7ba4)" style="fill: #0000ff"/>
    <path d="M 295.825933 318.389848 
L 295.825933 344.21434 
L 297.668103 343.293255 
L 294.904848 352.504104 
L 292.141593 343.293255 
L 293.983763 344.21434 
L 293.983763 318.389848 
L 295.825933 318.389848 
" clip-path="url(#pcc38ac7ba4)" style="fill: #0000ff"/>
    <path d="M 295.825933 288.569694 
L 295.825933 314.394186 
L 297.668103 313.473101 
L 294.904848 322.68395 
L 292.141593 313.473101 
L 293.983763 314.394186 
L 293.983763 288.569694 
L 295.825933 288.569694 
" clip-path="url(#pcc38ac7ba4)" style="fill: #0000ff"/>
    <path d="M 295.825933 258.749539 
L 295.825933 284.574031 
L 297.668103 283.652947 
L 294.904848 292.863796 
L 292.141593 283.652947 
L 293.983763 284.574031 
L 293.983763 258.749539 
L 295.825933 258.749539 
" clip-path="url(#pcc38ac7ba4)" style="fill: #0000ff"/>
    <path d="M 295.825933 228.929385 
L 295.825933 254.753877 
L 297.668103 253.832792 
L 294.904848 263.043642 
L 292.141593 253.832792 
L 293.983763 254.753877 
L 293.983763 228.929385 
L 295.825933 228.929385 
" clip-path="url(#pcc38ac7ba4)" style="fill: #0000ff"/>
    <path d="M 295.825933 199.109231 
L 295.825933 224.933723 
L 297.668103 224.012638 
L 294.904848 233.223487 
L 292.141593 224.012638 
L 293.983763 224.933723 
L 293.983763 199.109231 
L 295.825933 199.109231 
" clip-path="url(#pcc38ac7ba4)" style="fill: #0000ff"/>
    <path d="M 295.825933 169.289077 
L 295.825933 195.113569 
L 297.668103 194.192484 
L 294.904848 203.403333 
L 292.141593 194.192484 
L 293.983763 195.113569 
L 293.983763 169.289077 
L 295.825933 169.289077 
" clip-path="url(#pcc38ac7ba4)" style="fill: #0000ff"/>
    <path d="M 295.825933 139.468923 
L 295.825933 165.293415 
L 297.668103 164.37233 
L 294.904848 173.583179 
L 292.141593 164.37233 
L 293.983763 165.293415 
L 293.983763 139.468923 
L 295.825933 139.468923 
" clip-path="url(#pcc38ac7ba4)" style="fill: #0000ff"/>
    <path d="M 295.825933 109.648768 
L 295.825933 135.47326 
L 297.668103 134.552176 
L 294.904848 143.763025 
L 292.141593 134.552176 
L 293.983763 135.47326 
L 293.983763 109.648768 
L 295.825933 109.648768 
" clip-path="url(#pcc38ac7ba4)" style="fill: #0000ff"/>
    <path d="M 295.825933 79.828614 
L 295.825933 105.653106 
L 297.668103 104.732021 
L 294.904848 113.942871 
L 292.141593 104.732021 
L 293.983763 105.653106 
L 293.983763 79.828614 
L 295.825933 79.828614 
" clip-path="url(#pcc38ac7ba4)" style="fill: #0000ff"/>
    <path d="M 295.825933 50.00846 
L 295.825933 75.832952 
L 297.668103 74.911867 
L 294.904848 84.122716 
L 292.141593 74.911867 
L 293.983763 75.832952 
L 293.983763 50.00846 
L 295.825933 50.00846 
" clip-path="url(#pcc38ac7ba4)" style="fill: #0000ff"/>
   </g>
   <g id="matplotlib.axis_1">
    <g id="xtick_1">
     <g id="line2d_1">
      <defs>
       <path id="md6ebbd29ae" d="M 0 0 
L 0 3.5 
" style="stroke: #000000; stroke-width: 0.8"/>
      </defs>
      <g>
       <use xlink:href="#md6ebbd29ae" x="26.52346" y="318.389848" style="stroke: #000000; stroke-width: 0.8"/>
      </g>
     </g>
    </g>
    <g id="xtick_2">
     <g id="line2d_2">
      <g>
       <use xlink:href="#md6ebbd29ae" x="80.199737" y="318.389848" style="stroke: #000000; stroke-width: 0.8"/>
      </g>
     </g>
     <g id="text_1">
      <!-- 1 -->
      <g transform="translate(77.018487 332.988285)scale(0.1 -0.1)">
       <defs>
        <path id="DejaVuSans-31" d="M 794 531 
L 1825 531 
L 1825 4091 
L 703 3866 
L 703 4441 
L 1819 4666 
L 2450 4666 
L 2450 531 
L 3481 531 
L 3481 0 
L 794 0 
L 794 531 
z
" transform="scale(0.015625)"/>
       </defs>
       <use xlink:href="#DejaVuSans-31"/>
      </g>
     </g>
    </g>
    <g id="xtick_3">
     <g id="line2d_3">
      <g>
       <use xlink:href="#md6ebbd29ae" x="133.876015" y="318.389848" style="stroke: #000000; stroke-width: 0.8"/>
      </g>
     </g>
     <g id="text_2">
      <!-- 2 -->
      <g transform="translate(130.694765 332.988285)scale(0.1 -0.1)">
       <defs>
        <path id="DejaVuSans-32" d="M 1228 531 
L 3431 531 
L 3431 0 
L 469 0 
L 469 531 
Q 828 903 1448 1529 
Q 2069 2156 2228 2338 
Q 2531 2678 2651 2914 
Q 2772 3150 2772 3378 
Q 2772 3750 2511 3984 
Q 2250 4219 1831 4219 
Q 1534 4219 1204 4116 
Q 875 4013 500 3803 
L 500 4441 
Q 881 4594 1212 4672 
Q 1544 4750 1819 4750 
Q 2544 4750 2975 4387 
Q 3406 4025 3406 3419 
Q 3406 3131 3298 2873 
Q 3191 2616 2906 2266 
Q 2828 2175 2409 1742 
Q 1991 1309 1228 531 
z
" transform="scale(0.015625)"/>
       </defs>
       <use xlink:href="#DejaVuSans-32"/>
      </g>
     </g>
    </g>
    <g id="xtick_4">
     <g id="line2d_4">
      <g>
       <use xlink:href="#md6ebbd29ae" x="187.552293" y="318.389848" style="stroke: #000000; stroke-width: 0.8"/>
      </g>
     </g>
     <g id="text_3">
      <!-- 3 -->
      <g transform="translate(184.371043 332.988285)scale(0.1 -0.1)">
       <defs>
        <path id="DejaVuSans-33" d="M 2597 2516 
Q 3050 2419 3304 2112 
Q 3559 1806 3559 1356 
Q 3559 666 3084 287 
Q 2609 -91 1734 -91 
Q 1441 -91 1130 -33 
Q 819 25 488 141 
L 488 750 
Q 750 597 1062 519 
Q 1375 441 1716 441 
Q 2309 441 2620 675 
Q 2931 909 2931 1356 
Q 2931 1769 2642 2001 
Q 2353 2234 1838 2234 
L 1294 2234 
L 1294 2753 
L 1863 2753 
Q 2328 2753 2575 2939 
Q 2822 3125 2822 3475 
Q 2822 3834 2567 4026 
Q 2313 4219 1838 4219 
Q 1578 4219 1281 4162 
Q 984 4106 628 3988 
L 628 4550 
Q 988 4650 1302 4700 
Q 1616 4750 1894 4750 
Q 2613 4750 3031 4423 
Q 3450 4097 3450 3541 
Q 3450 3153 3228 2886 
Q 3006 2619 2597 2516 
z
" transform="scale(0.015625)"/>
       </defs>
       <use xlink:href="#DejaVuSans-33"/>
      </g>
     </g>
    </g>
    <g id="xtick_5">
     <g id="line2d_5">
      <g>
       <use xlink:href="#md6ebbd29ae" x="241.22857" y="318.389848" style="stroke: #000000; stroke-width: 0.8"/>
      </g>
     </g>
     <g id="text_4">
      <!-- 4 -->
      <g transform="translate(238.04732 332.988285)scale(0.1 -0.1)">
       <defs>
        <path id="DejaVuSans-34" d="M 2419 4116 
L 825 1625 
L 2419 1625 
L 2419 4116 
z
M 2253 4666 
L 3047 4666 
L 3047 1625 
L 3713 1625 
L 3713 1100 
L 3047 1100 
L 3047 0 
L 2419 0 
L 2419 1100 
L 313 1100 
L 313 1709 
L 2253 4666 
z
" transform="scale(0.015625)"/>
       </defs>
       <use xlink:href="#DejaVuSans-34"/>
      </g>
     </g>
    </g>
    <g id="xtick_6">
     <g id="line2d_6">
      <g>
       <use xlink:href="#md6ebbd29ae" x="294.904848" y="318.389848" style="stroke: #000000; stroke-width: 0.8"/>
      </g>
     </g>
     <g id="text_5">
      <!-- 5 -->
      <g transform="translate(291.723598 332.988285)scale(0.1 -0.1)">
       <defs>
        <path id="DejaVuSans-35" d="M 691 4666 
L 3169 4666 
L 3169 4134 
L 1269 4134 
L 1269 2991 
Q 1406 3038 1543 3061 
Q 1681 3084 1819 3084 
Q 2600 3084 3056 2656 
Q 3513 2228 3513 1497 
Q 3513 744 3044 326 
Q 2575 -91 1722 -91 
Q 1428 -91 1123 -41 
Q 819 9 494 109 
L 494 744 
Q 775 591 1075 516 
Q 1375 441 1709 441 
Q 2250 441 2565 725 
Q 2881 1009 2881 1497 
Q 2881 1984 2565 2268 
Q 2250 2553 1709 2553 
Q 1456 2553 1204 2497 
Q 953 2441 691 2322 
L 691 4666 
z
" transform="scale(0.015625)"/>
       </defs>
       <use xlink:href="#DejaVuSans-35"/>
      </g>
     </g>
    </g>
    <g id="xtick_7">
     <g id="line2d_7">
      <defs>
       <path id="m44e2c52d6a" d="M 0 0 
L 0 2 
" style="stroke: #000000; stroke-width: 0.6"/>
      </defs>
      <g>
       <use xlink:href="#m44e2c52d6a" x="15.788204" y="318.389848" style="stroke: #000000; stroke-width: 0.6"/>
      </g>
     </g>
    </g>
    <g id="xtick_8">
     <g id="line2d_8">
      <g>
       <use xlink:href="#m44e2c52d6a" x="37.258715" y="318.389848" style="stroke: #000000; stroke-width: 0.6"/>
      </g>
     </g>
    </g>
    <g id="xtick_9">
     <g id="line2d_9">
      <g>
       <use xlink:href="#m44e2c52d6a" x="47.993971" y="318.389848" style="stroke: #000000; stroke-width: 0.6"/>
      </g>
     </g>
    </g>
    <g id="xtick_10">
     <g id="line2d_10">
      <g>
       <use xlink:href="#m44e2c52d6a" x="58.729226" y="318.389848" style="stroke: #000000; stroke-width: 0.6"/>
      </g>
     </g>
    </g>
    <g id="xtick_11">
     <g id="line2d_11">
      <g>
       <use xlink:href="#m44e2c52d6a" x="69.464482" y="318.389848" style="stroke: #000000; stroke-width: 0.6"/>
      </g>
     </g>
    </g>
    <g id="xtick_12">
     <g id="line2d_12">
      <g>
       <use xlink:href="#m44e2c52d6a" x="90.934993" y="318.389848" style="stroke: #000000; stroke-width: 0.6"/>
      </g>
     </g>
    </g>
    <g id="xtick_13">
     <g id="line2d_13">
      <g>
       <use xlink:href="#m44e2c52d6a" x="101.670249" y="318.389848" style="stroke: #000000; stroke-width: 0.6"/>
      </g>
     </g>
    </g>
    <g id="xtick_14">
     <g id="line2d_14">
      <g>
       <use xlink:href="#m44e2c52d6a" x="112.405504" y="318.389848" style="stroke: #000000; stroke-width: 0.6"/>
      </g>
     </g>
    </g>
    <g id="xtick_15">
     <g id="line2d_15">
      <g>
       <use xlink:href="#m44e2c52d6a" x="123.14076" y="318.389848" style="stroke: #000000; stroke-width: 0.6"/>
      </g>
     </g>
    </g>
    <g id="xtick_16">
     <g id="line2d_16">
      <g>
       <use xlink:href="#m44e2c52d6a" x="144.611271" y="318.389848" style="stroke: #000000; stroke-width: 0.6"/>
      </g>
     </g>
    </g>
    <g id="xtick_17">
     <g id="line2d_17">
      <g>
       <use xlink:href="#m44e2c52d6a" x="155.346526" y="318.389848" style="stroke: #000000; stroke-width: 0.6"/>
      </g>
     </g>
    </g>
    <g id="xtick_18">
     <g id="line2d_18">
      <g>
       <use xlink:href="#m44e2c52d6a" x="166.081782" y="318.389848" style="stroke: #000000; stroke-width: 0.6"/>
      </g>
     </g>
    </g>
    <g id="xtick_19">
     <g id="line2d_19">
      <g>
       <use xlink:href="#m44e2c52d6a" x="176.817037" y="318.389848" style="stroke: #000000; stroke-width: 0.6"/>
      </g>
     </g>
    </g>
    <g id="xtick_20">
     <g id="line2d_20">
      <g>
       <use xlink:href="#m44e2c52d6a" x="198.287548" y="318.389848" style="stroke: #000000; stroke-width: 0.6"/>
      </g>
     </g>
    </g>
    <g id="xtick_21">
     <g id="line2d_21">
      <g>
       <use xlink:href="#m44e2c52d6a" x="209.022804" y="318.389848" style="stroke: #000000; stroke-width: 0.6"/>
      </g>
     </g>
    </g>
    <g id="xtick_22">
     <g id="line2d_22">
      <g>
       <use xlink:href="#m44e2c52d6a" x="219.758059" y="318.389848" style="stroke: #000000; stroke-width: 0.6"/>
      </g>
     </g>
    </g>
    <g id="xtick_23">
     <g id="line2d_23">
      <g>
       <use xlink:href="#m44e2c52d6a" x="230.493315" y="318.389848" style="stroke: #000000; stroke-width: 0.6"/>
      </g>
     </g>
    </g>
    <g id="xtick_24">
     <g id="line2d_24">
      <g>
       <use xlink:href="#m44e2c52d6a" x="251.963826" y="318.389848" style="stroke: #000000; stroke-width: 0.6"/>
      </g>
     </g>
    </g>
    <g id="xtick_25">
     <g id="line2d_25">
      <g>
       <use xlink:href="#m44e2c52d6a" x="262.699081" y="318.389848" style="stroke: #000000; stroke-width: 0.6"/>
      </g>
     </g>
    </g>
    <g id="xtick_26">
     <g id="line2d_26">
      <g>
       <use xlink:href="#m44e2c52d6a" x="273.434337" y="318.389848" style="stroke: #000000; stroke-width: 0.6"/>
      </g>
     </g>
    </g>
    <g id="xtick_27">
     <g id="line2d_27">
      <g>
       <use xlink:href="#m44e2c52d6a" x="284.169592" y="318.389848" style="stroke: #000000; stroke-width: 0.6"/>
      </g>
     </g>
    </g>
    <g id="xtick_28">
     <g id="line2d_28">
      <g>
       <use xlink:href="#m44e2c52d6a" x="305.640103" y="318.389848" style="stroke: #000000; stroke-width: 0.6"/>
      </g>
     </g>
    </g>
    <g id="text_6">
     <!-- $x$ -->
     <g transform="translate(322.228308 318.389848)scale(0.16 -0.16)">
      <defs>
       <path id="Cmmi10-78" d="M 500 184 
Q 613 97 819 97 
Q 1019 97 1172 289 
Q 1325 481 1381 709 
L 1672 1844 
Q 1741 2153 1741 2266 
Q 1741 2425 1652 2544 
Q 1563 2663 1403 2663 
Q 1200 2663 1022 2536 
Q 844 2409 722 2214 
Q 600 2019 550 1819 
Q 538 1778 500 1778 
L 422 1778 
Q 372 1778 372 1838 
L 372 1856 
Q 434 2094 584 2320 
Q 734 2547 951 2687 
Q 1169 2828 1416 2828 
Q 1650 2828 1839 2703 
Q 2028 2578 2106 2363 
Q 2216 2559 2386 2693 
Q 2556 2828 2759 2828 
Q 2897 2828 3040 2779 
Q 3184 2731 3275 2631 
Q 3366 2531 3366 2381 
Q 3366 2219 3261 2101 
Q 3156 1984 2994 1984 
Q 2891 1984 2822 2050 
Q 2753 2116 2753 2216 
Q 2753 2350 2845 2451 
Q 2938 2553 3066 2572 
Q 2950 2663 2747 2663 
Q 2541 2663 2389 2472 
Q 2238 2281 2175 2047 
L 1894 916 
Q 1825 659 1825 494 
Q 1825 331 1917 214 
Q 2009 97 2163 97 
Q 2463 97 2698 361 
Q 2934 625 3009 941 
Q 3022 978 3059 978 
L 3138 978 
Q 3163 978 3178 961 
Q 3194 944 3194 922 
Q 3194 916 3188 903 
Q 3097 522 2806 225 
Q 2516 -72 2150 -72 
Q 1916 -72 1727 54 
Q 1538 181 1459 397 
Q 1359 209 1182 68 
Q 1006 -72 806 -72 
Q 669 -72 523 -23 
Q 378 25 287 125 
Q 197 225 197 378 
Q 197 528 301 651 
Q 406 775 563 775 
Q 669 775 741 711 
Q 813 647 813 544 
Q 813 409 723 309 
Q 634 209 500 184 
z
" transform="scale(0.015625)"/>
      </defs>
      <use xlink:href="#Cmmi10-78" transform="translate(0 0.8125)"/>
     </g>
    </g>
   </g>
   <g id="matplotlib.axis_2">
    <g id="ytick_1">
     <g id="line2d_29">
      <defs>
       <path id="m49b4a34488" d="M 0 0 
L -3.5 0 
" style="stroke: #000000; stroke-width: 0.8"/>
      </defs>
      <g>
       <use xlink:href="#m49b4a34488" x="26.52346" y="318.389848" style="stroke: #000000; stroke-width: 0.8"/>
      </g>
     </g>
    </g>
    <g id="ytick_2">
     <g id="line2d_30">
      <g>
       <use xlink:href="#m49b4a34488" x="26.52346" y="264.71357" style="stroke: #000000; stroke-width: 0.8"/>
      </g>
     </g>
     <g id="text_7">
      <!-- 1 -->
      <g transform="translate(13.16096 268.512789)scale(0.1 -0.1)">
       <use xlink:href="#DejaVuSans-31"/>
      </g>
     </g>
    </g>
    <g id="ytick_3">
     <g id="line2d_31">
      <g>
       <use xlink:href="#m49b4a34488" x="26.52346" y="211.037293" style="stroke: #000000; stroke-width: 0.8"/>
      </g>
     </g>
     <g id="text_8">
      <!-- 2 -->
      <g transform="translate(13.16096 214.836511)scale(0.1 -0.1)">
       <use xlink:href="#DejaVuSans-32"/>
      </g>
     </g>
    </g>
    <g id="ytick_4">
     <g id="line2d_32">
      <g>
       <use xlink:href="#m49b4a34488" x="26.52346" y="157.361015" style="stroke: #000000; stroke-width: 0.8"/>
      </g>
     </g>
     <g id="text_9">
      <!-- 3 -->
      <g transform="translate(13.16096 161.160234)scale(0.1 -0.1)">
       <use xlink:href="#DejaVuSans-33"/>
      </g>
     </g>
    </g>
    <g id="ytick_5">
     <g id="line2d_33">
      <g>
       <use xlink:href="#m49b4a34488" x="26.52346" y="103.684737" style="stroke: #000000; stroke-width: 0.8"/>
      </g>
     </g>
     <g id="text_10">
      <!-- 4 -->
      <g transform="translate(13.16096 107.483956)scale(0.1 -0.1)">
       <use xlink:href="#DejaVuSans-34"/>
      </g>
     </g>
    </g>
    <g id="ytick_6">
     <g id="line2d_34">
      <g>
       <use xlink:href="#m49b4a34488" x="26.52346" y="50.00846" style="stroke: #000000; stroke-width: 0.8"/>
      </g>
     </g>
     <g id="text_11">
      <!-- 5 -->
      <g transform="translate(13.16096 53.807679)scale(0.1 -0.1)">
       <use xlink:href="#DejaVuSans-35"/>
      </g>
     </g>
    </g>
    <g id="ytick_7">
     <g id="line2d_35">
      <defs>
       <path id="m8f6a873518" d="M 0 0 
L -2 0 
" style="stroke: #000000; stroke-width: 0.6"/>
      </defs>
      <g>
       <use xlink:href="#m8f6a873518" x="26.52346" y="329.125103" style="stroke: #000000; stroke-width: 0.6"/>
      </g>
     </g>
    </g>
    <g id="ytick_8">
     <g id="line2d_36">
      <g>
       <use xlink:href="#m8f6a873518" x="26.52346" y="307.654592" style="stroke: #000000; stroke-width: 0.6"/>
      </g>
     </g>
    </g>
    <g id="ytick_9">
     <g id="line2d_37">
      <g>
       <use xlink:href="#m8f6a873518" x="26.52346" y="296.919337" style="stroke: #000000; stroke-width: 0.6"/>
      </g>
     </g>
    </g>
    <g id="ytick_10">
     <g id="line2d_38">
      <g>
       <use xlink:href="#m8f6a873518" x="26.52346" y="286.184081" style="stroke: #000000; stroke-width: 0.6"/>
      </g>
     </g>
    </g>
    <g id="ytick_11">
     <g id="line2d_39">
      <g>
       <use xlink:href="#m8f6a873518" x="26.52346" y="275.448826" style="stroke: #000000; stroke-width: 0.6"/>
      </g>
     </g>
    </g>
    <g id="ytick_12">
     <g id="line2d_40">
      <g>
       <use xlink:href="#m8f6a873518" x="26.52346" y="253.978315" style="stroke: #000000; stroke-width: 0.6"/>
      </g>
     </g>
    </g>
    <g id="ytick_13">
     <g id="line2d_41">
      <g>
       <use xlink:href="#m8f6a873518" x="26.52346" y="243.243059" style="stroke: #000000; stroke-width: 0.6"/>
      </g>
     </g>
    </g>
    <g id="ytick_14">
     <g id="line2d_42">
      <g>
       <use xlink:href="#m8f6a873518" x="26.52346" y="232.507804" style="stroke: #000000; stroke-width: 0.6"/>
      </g>
     </g>
    </g>
    <g id="ytick_15">
     <g id="line2d_43">
      <g>
       <use xlink:href="#m8f6a873518" x="26.52346" y="221.772548" style="stroke: #000000; stroke-width: 0.6"/>
      </g>
     </g>
    </g>
    <g id="ytick_16">
     <g id="line2d_44">
      <g>
       <use xlink:href="#m8f6a873518" x="26.52346" y="200.302037" style="stroke: #000000; stroke-width: 0.6"/>
      </g>
     </g>
    </g>
    <g id="ytick_17">
     <g id="line2d_45">
      <g>
       <use xlink:href="#m8f6a873518" x="26.52346" y="189.566782" style="stroke: #000000; stroke-width: 0.6"/>
      </g>
     </g>
    </g>
    <g id="ytick_18">
     <g id="line2d_46">
      <g>
       <use xlink:href="#m8f6a873518" x="26.52346" y="178.831526" style="stroke: #000000; stroke-width: 0.6"/>
      </g>
     </g>
    </g>
    <g id="ytick_19">
     <g id="line2d_47">
      <g>
       <use xlink:href="#m8f6a873518" x="26.52346" y="168.096271" style="stroke: #000000; stroke-width: 0.6"/>
      </g>
     </g>
    </g>
    <g id="ytick_20">
     <g id="line2d_48">
      <g>
       <use xlink:href="#m8f6a873518" x="26.52346" y="146.62576" style="stroke: #000000; stroke-width: 0.6"/>
      </g>
     </g>
    </g>
    <g id="ytick_21">
     <g id="line2d_49">
      <g>
       <use xlink:href="#m8f6a873518" x="26.52346" y="135.890504" style="stroke: #000000; stroke-width: 0.6"/>
      </g>
     </g>
    </g>
    <g id="ytick_22">
     <g id="line2d_50">
      <g>
       <use xlink:href="#m8f6a873518" x="26.52346" y="125.155249" style="stroke: #000000; stroke-width: 0.6"/>
      </g>
     </g>
    </g>
    <g id="ytick_23">
     <g id="line2d_51">
      <g>
       <use xlink:href="#m8f6a873518" x="26.52346" y="114.419993" style="stroke: #000000; stroke-width: 0.6"/>
      </g>
     </g>
    </g>
    <g id="ytick_24">
     <g id="line2d_52">
      <g>
       <use xlink:href="#m8f6a873518" x="26.52346" y="92.949482" style="stroke: #000000; stroke-width: 0.6"/>
      </g>
     </g>
    </g>
    <g id="ytick_25">
     <g id="line2d_53">
      <g>
       <use xlink:href="#m8f6a873518" x="26.52346" y="82.214226" style="stroke: #000000; stroke-width: 0.6"/>
      </g>
     </g>
    </g>
    <g id="ytick_26">
     <g id="line2d_54">
      <g>
       <use xlink:href="#m8f6a873518" x="26.52346" y="71.478971" style="stroke: #000000; stroke-width: 0.6"/>
      </g>
     </g>
    </g>
    <g id="ytick_27">
     <g id="line2d_55">
      <g>
       <use xlink:href="#m8f6a873518" x="26.52346" y="60.743715" style="stroke: #000000; stroke-width: 0.6"/>
      </g>
     </g>
    </g>
    <g id="ytick_28">
     <g id="line2d_56">
      <g>
       <use xlink:href="#m8f6a873518" x="26.52346" y="39.273204" style="stroke: #000000; stroke-width: 0.6"/>
      </g>
     </g>
    </g>
    <g id="text_12">
     <!-- $y$ -->
     <g transform="translate(22.52346 19.325)scale(0.16 -0.16)">
      <defs>
       <path id="Cmmi10-79" d="M 538 -916 
Q 672 -1147 1006 -1147 
Q 1309 -1147 1531 -934 
Q 1753 -722 1889 -420 
Q 2025 -119 2100 197 
Q 1816 -72 1484 -72 
Q 1231 -72 1053 15 
Q 875 103 776 276 
Q 678 450 678 697 
Q 678 906 734 1126 
Q 791 1347 892 1617 
Q 994 1888 1069 2088 
Q 1153 2322 1153 2472 
Q 1153 2663 1013 2663 
Q 759 2663 595 2402 
Q 431 2141 353 1819 
Q 341 1778 300 1778 
L 225 1778 
Q 172 1778 172 1838 
L 172 1856 
Q 275 2238 487 2533 
Q 700 2828 1025 2828 
Q 1253 2828 1411 2678 
Q 1569 2528 1569 2297 
Q 1569 2178 1516 2047 
Q 1488 1969 1388 1706 
Q 1288 1444 1234 1272 
Q 1181 1100 1147 934 
Q 1113 769 1113 603 
Q 1113 391 1203 244 
Q 1294 97 1491 97 
Q 1888 97 2203 581 
L 2688 2553 
Q 2709 2638 2787 2698 
Q 2866 2759 2956 2759 
Q 3034 2759 3092 2709 
Q 3150 2659 3150 2578 
Q 3150 2541 3144 2528 
L 2509 -19 
Q 2425 -347 2200 -647 
Q 1975 -947 1658 -1130 
Q 1341 -1313 997 -1313 
Q 831 -1313 668 -1248 
Q 506 -1184 406 -1056 
Q 306 -928 306 -756 
Q 306 -581 409 -453 
Q 513 -325 684 -325 
Q 788 -325 858 -389 
Q 928 -453 928 -556 
Q 928 -703 818 -812 
Q 709 -922 563 -922 
Q 556 -919 550 -917 
Q 544 -916 538 -916 
z
" transform="scale(0.015625)"/>
      </defs>
      <use xlink:href="#Cmmi10-79" transform="translate(0 0.8125)"/>
     </g>
    </g>
   </g>
   <g id="line2d_57">
    <path d="M 133.876015 211.037293 
L 133.972846 214.259971 
L 134.327697 217.986051 
L 134.805283 220.981926 
L 135.659801 224.759978 
L 136.67691 228.149808 
L 137.894728 231.415443 
L 139.242694 234.432281 
L 140.950578 237.672287 
L 142.592971 240.359676 
L 143.996753 242.406987 
L 146.085507 245.120257 
L 148.662889 248.034009 
L 151.519359 250.821341 
L 153.886189 252.843228 
L 156.695744 254.95786 
L 159.417572 256.74922 
L 162.845577 258.689375 
L 166.166179 260.269162 
L 170.046235 261.778604 
L 173.375511 262.80757 
L 177.119999 263.690023 
L 180.525462 264.251637 
L 183.656687 264.57202 
L 186.940822 264.710087 
L 190.631842 264.625156 
L 193.491383 264.383989 
L 196.981079 263.87895 
L 200.625573 263.097182 
L 204.134519 262.087979 
L 207.445714 260.891024 
L 210.270464 259.668841 
L 213.824565 257.844455 
L 216.016385 256.544855 
L 219.06946 254.486239 
L 222.029899 252.176537 
L 224.853897 249.634353 
L 227.298951 247.111465 
L 229.623389 244.371443 
L 231.663015 241.621389 
L 233.046171 239.52325 
L 234.98132 236.169546 
L 236.56701 232.916512 
L 237.84462 229.79428 
L 238.916621 226.62089 
L 239.892346 222.93946 
L 240.610335 219.160527 
L 241.014757 215.823492 
L 241.20546 212.612233 
L 241.22857 211.037293 
L 241.22857 211.037293 
" clip-path="url(#pcc38ac7ba4)" style="fill: none; stroke: #008000; stroke-width: 2; stroke-linecap: square"/>
   </g>
   <g id="patch_3">
    <path d="M 239.618282 219.088734 
Q 240.423426 215.063013 240.790041 213.229938 
" clip-path="url(#pcc38ac7ba4)" style="fill: none; stroke: #008000; stroke-width: 2; stroke-linecap: round"/>
    <path d="M 233.925976 222.055164 
L 240.790041 213.229938 
L 243.731783 224.016325 
L 233.925976 222.055164 
z
" clip-path="url(#pcc38ac7ba4)" style="fill: #008000; stroke: #008000; stroke-width: 2; stroke-linecap: round"/>
   </g>
   <g id="line2d_58">
    <path d="M 80.199737 264.71357 
L 80.199737 50.00846 
L 80.199737 50.00846 
" clip-path="url(#pcc38ac7ba4)" style="fill: none; stroke: #ff0000; stroke-width: 2; stroke-linecap: square"/>
   </g>
   <g id="patch_4">
    <path d="M 80.199737 58.059902 
Q 80.199737 54.034181 80.199737 52.244528 
" clip-path="url(#pcc38ac7ba4)" style="fill: none; stroke: #ff0000; stroke-width: 2; stroke-linecap: round"/>
    <path d="M 75.199737 62.244528 
L 80.199737 52.244528 
L 85.199737 62.244528 
L 75.199737 62.244528 
z
" clip-path="url(#pcc38ac7ba4)" style="fill: #ff0000; stroke: #ff0000; stroke-width: 2; stroke-linecap: round"/>
   </g>
   <g id="line2d_59">
    <path d="M 187.552293 157.361015 
L 246.596198 157.361015 
L 246.596198 157.361015 
" clip-path="url(#pcc38ac7ba4)" style="fill: none; stroke: #800080; stroke-width: 2; stroke-linecap: square"/>
   </g>
   <g id="patch_5">
    <path d="M 228.883026 157.361015 
Q 232.908747 157.361015 234.6984 157.361015 
" clip-path="url(#pcc38ac7ba4)" style="fill: none; stroke: #800080; stroke-width: 2; stroke-linecap: round"/>
    <path d="M 224.6984 152.361015 
L 234.6984 157.361015 
L 224.6984 162.361015 
L 224.6984 152.361015 
z
" clip-path="url(#pcc38ac7ba4)" style="fill: #800080; stroke: #800080; stroke-width: 2; stroke-linecap: round"/>
   </g>
   <g id="line2d_60">
    <path d="M 187.552293 50.00846 
L 246.596198 50.00846 
L 246.596198 50.00846 
" clip-path="url(#pcc38ac7ba4)" style="fill: none; stroke: #800080; stroke-width: 2; stroke-linecap: square"/>
   </g>
   <g id="patch_6">
    <path d="M 226.199212 50.00846 
Q 222.173492 50.00846 220.383839 50.00846 
" clip-path="url(#pcc38ac7ba4)" style="fill: none; stroke: #800080; stroke-width: 2; stroke-linecap: round"/>
    <path d="M 230.383839 55.00846 
L 220.383839 50.00846 
L 230.383839 45.00846 
L 230.383839 55.00846 
z
" clip-path="url(#pcc38ac7ba4)" style="fill: #800080; stroke: #800080; stroke-width: 2; stroke-linecap: round"/>
   </g>
   <g id="line2d_61">
    <path d="M 187.552293 157.361015 
L 187.552293 50.00846 
L 187.552293 50.00846 
" clip-path="url(#pcc38ac7ba4)" style="fill: none; stroke: #800080; stroke-width: 2; stroke-linecap: square"/>
   </g>
   <g id="patch_7">
    <path d="M 187.552293 95.633296 
Q 187.552293 99.659017 187.552293 101.44867 
" clip-path="url(#pcc38ac7ba4)" style="fill: none; stroke: #800080; stroke-width: 2; stroke-linecap: round"/>
    <path d="M 192.552293 91.44867 
L 187.552293 101.44867 
L 182.552293 91.44867 
L 192.552293 91.44867 
z
" clip-path="url(#pcc38ac7ba4)" style="fill: #800080; stroke: #800080; stroke-width: 2; stroke-linecap: round"/>
   </g>
   <g id="line2d_62">
    <path d="M 246.596198 157.361015 
L 246.596198 50.00846 
L 246.596198 50.00846 
" clip-path="url(#pcc38ac7ba4)" style="fill: none; stroke: #800080; stroke-width: 2; stroke-linecap: square"/>
   </g>
   <g id="patch_8">
    <path d="M 246.596198 103.684737 
Q 246.596198 99.659017 246.596198 97.869364 
" clip-path="url(#pcc38ac7ba4)" style="fill: none; stroke: #800080; stroke-width: 2; stroke-linecap: round"/>
    <path d="M 241.596198 107.869364 
L 246.596198 97.869364 
L 251.596198 107.869364 
L 241.596198 107.869364 
z
" clip-path="url(#pcc38ac7ba4)" style="fill: #800080; stroke: #800080; stroke-width: 2; stroke-linecap: round"/>
   </g>
   <g id="patch_9">
    <path d="M 26.52346 337.713308 
L 26.52346 30.685 
" style="fill: none; stroke: #000000; stroke-width: 0.8; stroke-linejoin: miter; stroke-linecap: square"/>
   </g>
   <g id="patch_10">
    <path d="M 7.2 318.389848 
L 314.228308 318.389848 
" style="fill: none; stroke: #000000; stroke-width: 0.8; stroke-linejoin: miter; stroke-linecap: square"/>
   </g>
   <g id="text_13">
    <g clip-path="url(#pcc38ac7ba4)">
     <!-- $C_1$ -->
     <g style="fill: #800080" transform="translate(211.622059 177.437398)scale(0.144 -0.144)">
      <defs>
       <path id="Cmmi10-43" d="M 934 1381 
Q 934 997 1082 705 
Q 1231 413 1514 248 
Q 1797 84 2181 84 
Q 2584 84 2957 290 
Q 3331 497 3595 842 
Q 3859 1188 3956 1575 
Q 3969 1613 4006 1613 
L 4084 1613 
Q 4109 1613 4125 1595 
Q 4141 1578 4141 1556 
Q 4141 1550 4134 1538 
Q 4025 1094 3711 705 
Q 3397 316 2959 87 
Q 2522 -141 2059 -141 
Q 1559 -141 1162 84 
Q 766 309 545 709 
Q 325 1109 325 1613 
Q 325 2150 565 2676 
Q 806 3203 1212 3614 
Q 1619 4025 2139 4269 
Q 2659 4513 3194 4513 
Q 3406 4513 3600 4448 
Q 3794 4384 3959 4253 
Q 4125 4122 4231 3950 
L 4738 4500 
Q 4738 4513 4769 4513 
L 4806 4513 
Q 4831 4513 4847 4491 
Q 4863 4469 4863 4447 
L 4428 2719 
Q 4428 2675 4378 2675 
L 4263 2675 
Q 4213 2675 4213 2747 
Q 4238 2888 4238 3084 
Q 4238 3397 4131 3673 
Q 4025 3950 3801 4119 
Q 3578 4288 3256 4288 
Q 2734 4288 2300 4025 
Q 1866 3763 1564 3336 
Q 1263 2909 1098 2389 
Q 934 1869 934 1381 
z
" transform="scale(0.015625)"/>
       <path id="Cmr10-31" d="M 594 0 
L 594 225 
Q 1394 225 1394 428 
L 1394 3788 
Q 1063 3628 556 3628 
L 556 3853 
Q 1341 3853 1741 4263 
L 1831 4263 
Q 1853 4263 1873 4245 
Q 1894 4228 1894 4206 
L 1894 428 
Q 1894 225 2694 225 
L 2694 0 
L 594 0 
z
" transform="scale(0.015625)"/>
      </defs>
      <use xlink:href="#Cmmi10-43" transform="translate(0 0.484375)"/>
      <use xlink:href="#Cmr10-31" transform="translate(71.386719 -16.521875)scale(0.7)"/>
     </g>
    </g>
   </g>
   <g id="text_14">
    <g clip-path="url(#pcc38ac7ba4)">
     <!-- $C_2$ -->
     <g style="fill: #800080" transform="translate(273.349778 131.812562)scale(0.144 -0.144)">
      <defs>
       <path id="Cmr10-32" d="M 319 0 
L 319 172 
Q 319 188 331 206 
L 1325 1306 
Q 1550 1550 1690 1715 
Q 1831 1881 1968 2097 
Q 2106 2313 2186 2536 
Q 2266 2759 2266 3009 
Q 2266 3272 2169 3511 
Q 2072 3750 1880 3894 
Q 1688 4038 1416 4038 
Q 1138 4038 916 3870 
Q 694 3703 603 3438 
Q 628 3444 672 3444 
Q 816 3444 917 3347 
Q 1019 3250 1019 3097 
Q 1019 2950 917 2848 
Q 816 2747 672 2747 
Q 522 2747 420 2851 
Q 319 2956 319 3097 
Q 319 3338 409 3548 
Q 500 3759 670 3923 
Q 841 4088 1055 4175 
Q 1269 4263 1509 4263 
Q 1875 4263 2190 4108 
Q 2506 3953 2690 3670 
Q 2875 3388 2875 3009 
Q 2875 2731 2753 2481 
Q 2631 2231 2440 2026 
Q 2250 1822 1953 1562 
Q 1656 1303 1563 1216 
L 838 519 
L 1453 519 
Q 1906 519 2211 526 
Q 2516 534 2534 550 
Q 2609 631 2688 1141 
L 2875 1141 
L 2694 0 
L 319 0 
z
" transform="scale(0.015625)"/>
      </defs>
      <use xlink:href="#Cmmi10-43" transform="translate(0 0.484375)"/>
      <use xlink:href="#Cmr10-32" transform="translate(71.386719 -16.521875)scale(0.7)"/>
     </g>
    </g>
   </g>
   <g id="text_15">
    <g clip-path="url(#pcc38ac7ba4)">
     <!-- $C_3$ -->
     <g style="fill: #800080" transform="translate(200.886804 43.783467)scale(0.144 -0.144)">
      <defs>
       <path id="Cmr10-33" d="M 609 494 
Q 759 275 1012 169 
Q 1266 63 1556 63 
Q 1928 63 2084 380 
Q 2241 697 2241 1100 
Q 2241 1281 2208 1462 
Q 2175 1644 2097 1800 
Q 2019 1956 1883 2050 
Q 1747 2144 1550 2144 
L 1125 2144 
Q 1069 2144 1069 2203 
L 1069 2259 
Q 1069 2309 1125 2309 
L 1478 2338 
Q 1703 2338 1851 2506 
Q 2000 2675 2069 2917 
Q 2138 3159 2138 3378 
Q 2138 3684 1994 3881 
Q 1850 4078 1556 4078 
Q 1313 4078 1091 3986 
Q 869 3894 738 3706 
Q 750 3709 759 3711 
Q 769 3713 781 3713 
Q 925 3713 1022 3613 
Q 1119 3513 1119 3372 
Q 1119 3234 1022 3134 
Q 925 3034 781 3034 
Q 641 3034 541 3134 
Q 441 3234 441 3372 
Q 441 3647 606 3850 
Q 772 4053 1033 4158 
Q 1294 4263 1556 4263 
Q 1750 4263 1965 4205 
Q 2181 4147 2356 4039 
Q 2531 3931 2642 3762 
Q 2753 3594 2753 3378 
Q 2753 3109 2633 2881 
Q 2513 2653 2303 2487 
Q 2094 2322 1844 2241 
Q 2122 2188 2372 2031 
Q 2622 1875 2773 1631 
Q 2925 1388 2925 1106 
Q 2925 753 2731 467 
Q 2538 181 2222 20 
Q 1906 -141 1556 -141 
Q 1256 -141 954 -26 
Q 653 88 461 316 
Q 269 544 269 863 
Q 269 1022 375 1128 
Q 481 1234 641 1234 
Q 744 1234 830 1186 
Q 916 1138 964 1050 
Q 1013 963 1013 863 
Q 1013 706 903 600 
Q 794 494 641 494 
L 609 494 
z
" transform="scale(0.015625)"/>
      </defs>
      <use xlink:href="#Cmmi10-43" transform="translate(0 0.484375)"/>
      <use xlink:href="#Cmr10-33" transform="translate(71.386719 -16.521875)scale(0.7)"/>
     </g>
    </g>
   </g>
   <g id="text_16">
    <g clip-path="url(#pcc38ac7ba4)">
     <!-- $C_4$ -->
     <g style="fill: #800080" transform="translate(157.945782 131.812562)scale(0.144 -0.144)">
      <defs>
       <path id="Cmr10-34" d="M 178 1056 
L 178 1281 
L 2156 4231 
Q 2178 4263 2222 4263 
L 2316 4263 
Q 2388 4263 2388 4191 
L 2388 1281 
L 3016 1281 
L 3016 1056 
L 2388 1056 
L 2388 428 
Q 2388 297 2575 261 
Q 2763 225 3009 225 
L 3009 0 
L 1247 0 
L 1247 225 
Q 1494 225 1681 261 
Q 1869 297 1869 428 
L 1869 1056 
L 178 1056 
z
M 391 1281 
L 1906 1281 
L 1906 3547 
L 391 1281 
z
" transform="scale(0.015625)"/>
      </defs>
      <use xlink:href="#Cmmi10-43" transform="translate(0 0.484375)"/>
      <use xlink:href="#Cmr10-34" transform="translate(71.386719 -16.521875)scale(0.7)"/>
     </g>
    </g>
   </g>
   <g id="text_17">
    <g clip-path="url(#pcc38ac7ba4)">
     <!-- $C_6$ -->
     <g style="fill: #008000" transform="translate(182.100107 282.10614)scale(0.144 -0.144)">
      <defs>
       <path id="Cmr10-36" d="M 1600 -141 
Q 1203 -141 937 70 
Q 672 281 526 617 
Q 381 953 325 1322 
Q 269 1691 269 2069 
Q 269 2575 466 3084 
Q 663 3594 1045 3928 
Q 1428 4263 1953 4263 
Q 2172 4263 2361 4180 
Q 2550 4097 2658 3936 
Q 2766 3775 2766 3547 
Q 2766 3416 2677 3327 
Q 2588 3238 2456 3238 
Q 2331 3238 2240 3328 
Q 2150 3419 2150 3547 
Q 2150 3672 2240 3762 
Q 2331 3853 2456 3853 
L 2491 3853 
Q 2409 3969 2261 4023 
Q 2113 4078 1953 4078 
Q 1759 4078 1595 3993 
Q 1431 3909 1300 3765 
Q 1169 3622 1081 3448 
Q 994 3275 945 3053 
Q 897 2831 884 2637 
Q 872 2444 872 2150 
Q 984 2413 1190 2580 
Q 1397 2747 1656 2747 
Q 1941 2747 2175 2631 
Q 2409 2516 2578 2311 
Q 2747 2106 2836 1843 
Q 2925 1581 2925 1313 
Q 2925 938 2758 598 
Q 2591 259 2287 59 
Q 1984 -141 1600 -141 
z
M 1600 63 
Q 1847 63 1997 175 
Q 2147 288 2217 473 
Q 2288 659 2305 848 
Q 2322 1038 2322 1313 
Q 2322 1675 2287 1931 
Q 2253 2188 2100 2383 
Q 1947 2578 1631 2578 
Q 1372 2578 1205 2403 
Q 1038 2228 961 1961 
Q 884 1694 884 1447 
Q 884 1363 891 1319 
Q 891 1309 889 1303 
Q 888 1297 884 1288 
Q 884 1013 940 731 
Q 997 450 1156 256 
Q 1316 63 1600 63 
z
" transform="scale(0.015625)"/>
      </defs>
      <use xlink:href="#Cmmi10-43" transform="translate(0 0.484375)"/>
      <use xlink:href="#Cmr10-36" transform="translate(71.386719 -16.521875)scale(0.7)"/>
     </g>
    </g>
   </g>
   <g id="text_18">
    <g clip-path="url(#pcc38ac7ba4)">
     <!-- $C_5$ -->
     <g style="fill: #ff0000" transform="translate(58.644668 161.334515)scale(0.144 -0.144)">
      <defs>
       <path id="Cmr10-35" d="M 556 728 
Q 622 541 758 387 
Q 894 234 1080 148 
Q 1266 63 1466 63 
Q 1928 63 2103 422 
Q 2278 781 2278 1294 
Q 2278 1516 2270 1667 
Q 2263 1819 2228 1959 
Q 2169 2184 2020 2353 
Q 1872 2522 1656 2522 
Q 1441 2522 1286 2456 
Q 1131 2391 1034 2303 
Q 938 2216 863 2119 
Q 788 2022 769 2016 
L 697 2016 
Q 681 2016 657 2036 
Q 634 2056 634 2075 
L 634 4213 
Q 634 4228 654 4245 
Q 675 4263 697 4263 
L 716 4263 
Q 1147 4056 1631 4056 
Q 2106 4056 2547 4263 
L 2566 4263 
Q 2588 4263 2606 4247 
Q 2625 4231 2625 4213 
L 2625 4153 
Q 2625 4122 2613 4122 
Q 2394 3831 2064 3668 
Q 1734 3506 1381 3506 
Q 1125 3506 856 3578 
L 856 2369 
Q 1069 2541 1236 2614 
Q 1403 2688 1663 2688 
Q 2016 2688 2295 2484 
Q 2575 2281 2725 1954 
Q 2875 1628 2875 1288 
Q 2875 903 2686 575 
Q 2497 247 2172 53 
Q 1847 -141 1466 -141 
Q 1150 -141 886 21 
Q 622 184 470 459 
Q 319 734 319 1044 
Q 319 1188 412 1278 
Q 506 1369 647 1369 
Q 788 1369 883 1276 
Q 978 1184 978 1044 
Q 978 906 883 811 
Q 788 716 647 716 
Q 625 716 597 720 
Q 569 725 556 728 
z
" transform="scale(0.015625)"/>
      </defs>
      <use xlink:href="#Cmmi10-43" transform="translate(0 0.484375)"/>
      <use xlink:href="#Cmr10-35" transform="translate(71.386719 -16.521875)scale(0.7)"/>
     </g>
    </g>
   </g>
  </g>
 </g>
 <defs>
  <clipPath id="pcc38ac7ba4">
   <rect x="7.2" y="30.685" width="307.028308" height="307.028308"/>
  </clipPath>
 </defs>
</svg>
