<?xml version="1.0" encoding="utf-8" standalone="no"?>
<!DOCTYPE svg PUBLIC "-//W3C//DTD SVG 1.1//EN"
  "http://www.w3.org/Graphics/SVG/1.1/DTD/svg11.dtd">
<svg xmlns:xlink="http://www.w3.org/1999/xlink" width="341.437852pt" height="345.245pt" viewBox="0 0 341.437852 345.245" xmlns="http://www.w3.org/2000/svg" version="1.1">
 <metadata>
  <rdf:RDF xmlns:dc="http://purl.org/dc/elements/1.1/" xmlns:cc="http://creativecommons.org/ns#" xmlns:rdf="http://www.w3.org/1999/02/22-rdf-syntax-ns#">
   <cc:Work>
    <dc:type rdf:resource="http://purl.org/dc/dcmitype/StillImage"/>
    <dc:date>2025-03-06T19:35:50.663055</dc:date>
    <dc:format>image/svg+xml</dc:format>
    <dc:creator>
     <cc:Agent>
      <dc:title>Matplotlib v3.5.1, https://matplotlib.org/</dc:title>
     </cc:Agent>
    </dc:creator>
   </cc:Work>
  </rdf:RDF>
 </metadata>
 <defs>
  <style type="text/css">*{stroke-linejoin: round; stroke-linecap: butt}</style>
 </defs>
 <g id="figure_1">
  <g id="patch_1">
   <path d="M 0 345.245 
L 341.437852 345.245 
L 341.437852 0 
L 0 0 
z
" style="fill: #ffffff"/>
  </g>
  <g id="axes_1">
   <g id="patch_2">
    <path d="M 9.597852 338.045 
L 316.957852 338.045 
L 316.957852 30.685 
L 9.597852 30.685 
z
" style="fill: #ffffff"/>
   </g>
   <g id="Quiver_1">
    <path d="M 28.667276 318.150842 
L 33.90077 315.534095 
L 32.801125 314.709362 
L 39.124082 313.609717 
L 34.450592 318.008296 
L 34.450592 316.63374 
L 29.217099 319.250487 
L 28.667276 318.150842 
" clip-path="url(#p2c35c469f7)" style="fill: #0000ff"/>
    <path d="M 28.667276 298.960033 
L 33.90077 296.343286 
L 32.801125 295.518553 
L 39.124082 294.418908 
L 34.450592 298.817486 
L 34.450592 297.442931 
L 29.217099 300.059677 
L 28.667276 298.960033 
" clip-path="url(#p2c35c469f7)" style="fill: #0000ff"/>
    <path d="M 28.667276 279.769224 
L 33.90077 277.152477 
L 32.801125 276.327743 
L 39.124082 275.228099 
L 34.450592 279.626677 
L 34.450592 278.252121 
L 29.217099 280.868868 
L 28.667276 279.769224 
" clip-path="url(#p2c35c469f7)" style="fill: #0000ff"/>
    <path d="M 28.667276 260.578414 
L 33.90077 257.961668 
L 32.801125 257.136934 
L 39.124082 256.03729 
L 34.450592 260.435868 
L 34.450592 259.061312 
L 29.217099 261.678059 
L 28.667276 260.578414 
" clip-path="url(#p2c35c469f7)" style="fill: #0000ff"/>
    <path d="M 28.667276 241.387605 
L 33.90077 238.770858 
L 32.801125 237.946125 
L 39.124082 236.846481 
L 34.450592 241.245059 
L 34.450592 239.870503 
L 29.217099 242.48725 
L 28.667276 241.387605 
" clip-path="url(#p2c35c469f7)" style="fill: #0000ff"/>
    <path d="M 28.667276 222.196796 
L 33.90077 219.580049 
L 32.801125 218.755316 
L 39.124082 217.655671 
L 34.450592 222.05425 
L 34.450592 220.679694 
L 29.217099 223.296441 
L 28.667276 222.196796 
" clip-path="url(#p2c35c469f7)" style="fill: #0000ff"/>
    <path d="M 28.667276 203.005987 
L 33.90077 200.38924 
L 32.801125 199.564507 
L 39.124082 198.464862 
L 34.450592 202.86344 
L 34.450592 201.488885 
L 29.217099 204.105631 
L 28.667276 203.005987 
" clip-path="url(#p2c35c469f7)" style="fill: #0000ff"/>
    <path d="M 28.667276 183.815178 
L 33.90077 181.198431 
L 32.801125 180.373698 
L 39.124082 179.274053 
L 34.450592 183.672631 
L 34.450592 182.298075 
L 29.217099 184.914822 
L 28.667276 183.815178 
" clip-path="url(#p2c35c469f7)" style="fill: #0000ff"/>
    <path d="M 28.667276 164.624369 
L 33.90077 162.007622 
L 32.801125 161.182888 
L 39.124082 160.083244 
L 34.450592 164.481822 
L 34.450592 163.107266 
L 29.217099 165.724013 
L 28.667276 164.624369 
" clip-path="url(#p2c35c469f7)" style="fill: #0000ff"/>
    <path d="M 28.667276 145.433559 
L 33.90077 142.816813 
L 32.801125 141.992079 
L 39.124082 140.892435 
L 34.450592 145.291013 
L 34.450592 143.916457 
L 29.217099 146.533204 
L 28.667276 145.433559 
" clip-path="url(#p2c35c469f7)" style="fill: #0000ff"/>
    <path d="M 28.667276 126.24275 
L 33.90077 123.626003 
L 32.801125 122.80127 
L 39.124082 121.701625 
L 34.450592 126.100204 
L 34.450592 124.725648 
L 29.217099 127.342395 
L 28.667276 126.24275 
" clip-path="url(#p2c35c469f7)" style="fill: #0000ff"/>
    <path d="M 28.667276 107.051941 
L 33.90077 104.435194 
L 32.801125 103.610461 
L 39.124082 102.510816 
L 34.450592 106.909394 
L 34.450592 105.534839 
L 29.217099 108.151586 
L 28.667276 107.051941 
" clip-path="url(#p2c35c469f7)" style="fill: #0000ff"/>
    <path d="M 28.667276 87.861132 
L 33.90077 85.244385 
L 32.801125 84.419652 
L 39.124082 83.320007 
L 34.450592 87.718585 
L 34.450592 86.34403 
L 29.217099 88.960776 
L 28.667276 87.861132 
" clip-path="url(#p2c35c469f7)" style="fill: #0000ff"/>
    <path d="M 28.667276 68.670323 
L 33.90077 66.053576 
L 32.801125 65.228842 
L 39.124082 64.129198 
L 34.450592 68.527776 
L 34.450592 67.15322 
L 29.217099 69.769967 
L 28.667276 68.670323 
" clip-path="url(#p2c35c469f7)" style="fill: #0000ff"/>
    <path d="M 28.667276 49.479513 
L 33.90077 46.862767 
L 32.801125 46.038033 
L 39.124082 44.938389 
L 34.450592 49.336967 
L 34.450592 47.962411 
L 29.217099 50.579158 
L 28.667276 49.479513 
" clip-path="url(#p2c35c469f7)" style="fill: #0000ff"/>
    <path d="M 47.858086 318.150842 
L 53.091579 315.534095 
L 51.991935 314.709362 
L 58.314891 313.609717 
L 53.641401 318.008296 
L 53.641401 316.63374 
L 48.407908 319.250487 
L 47.858086 318.150842 
" clip-path="url(#p2c35c469f7)" style="fill: #0000ff"/>
    <path d="M 47.858086 298.960033 
L 53.091579 296.343286 
L 51.991935 295.518553 
L 58.314891 294.418908 
L 53.641401 298.817486 
L 53.641401 297.442931 
L 48.407908 300.059677 
L 47.858086 298.960033 
" clip-path="url(#p2c35c469f7)" style="fill: #0000ff"/>
    <path d="M 47.858086 279.769224 
L 53.091579 277.152477 
L 51.991935 276.327743 
L 58.314891 275.228099 
L 53.641401 279.626677 
L 53.641401 278.252121 
L 48.407908 280.868868 
L 47.858086 279.769224 
" clip-path="url(#p2c35c469f7)" style="fill: #0000ff"/>
    <path d="M 47.858086 260.578414 
L 53.091579 257.961668 
L 51.991935 257.136934 
L 58.314891 256.03729 
L 53.641401 260.435868 
L 53.641401 259.061312 
L 48.407908 261.678059 
L 47.858086 260.578414 
" clip-path="url(#p2c35c469f7)" style="fill: #0000ff"/>
    <path d="M 47.858086 241.387605 
L 53.091579 238.770858 
L 51.991935 237.946125 
L 58.314891 236.846481 
L 53.641401 241.245059 
L 53.641401 239.870503 
L 48.407908 242.48725 
L 47.858086 241.387605 
" clip-path="url(#p2c35c469f7)" style="fill: #0000ff"/>
    <path d="M 47.858086 222.196796 
L 53.091579 219.580049 
L 51.991935 218.755316 
L 58.314891 217.655671 
L 53.641401 222.05425 
L 53.641401 220.679694 
L 48.407908 223.296441 
L 47.858086 222.196796 
" clip-path="url(#p2c35c469f7)" style="fill: #0000ff"/>
    <path d="M 47.858086 203.005987 
L 53.091579 200.38924 
L 51.991935 199.564507 
L 58.314891 198.464862 
L 53.641401 202.86344 
L 53.641401 201.488885 
L 48.407908 204.105631 
L 47.858086 203.005987 
" clip-path="url(#p2c35c469f7)" style="fill: #0000ff"/>
    <path d="M 47.858086 183.815178 
L 53.091579 181.198431 
L 51.991935 180.373698 
L 58.314891 179.274053 
L 53.641401 183.672631 
L 53.641401 182.298075 
L 48.407908 184.914822 
L 47.858086 183.815178 
" clip-path="url(#p2c35c469f7)" style="fill: #0000ff"/>
    <path d="M 47.858086 164.624369 
L 53.091579 162.007622 
L 51.991935 161.182888 
L 58.314891 160.083244 
L 53.641401 164.481822 
L 53.641401 163.107266 
L 48.407908 165.724013 
L 47.858086 164.624369 
" clip-path="url(#p2c35c469f7)" style="fill: #0000ff"/>
    <path d="M 47.858086 145.433559 
L 53.091579 142.816813 
L 51.991935 141.992079 
L 58.314891 140.892435 
L 53.641401 145.291013 
L 53.641401 143.916457 
L 48.407908 146.533204 
L 47.858086 145.433559 
" clip-path="url(#p2c35c469f7)" style="fill: #0000ff"/>
    <path d="M 47.858086 126.24275 
L 53.091579 123.626003 
L 51.991935 122.80127 
L 58.314891 121.701625 
L 53.641401 126.100204 
L 53.641401 124.725648 
L 48.407908 127.342395 
L 47.858086 126.24275 
" clip-path="url(#p2c35c469f7)" style="fill: #0000ff"/>
    <path d="M 47.858086 107.051941 
L 53.091579 104.435194 
L 51.991935 103.610461 
L 58.314891 102.510816 
L 53.641401 106.909394 
L 53.641401 105.534839 
L 48.407908 108.151586 
L 47.858086 107.051941 
" clip-path="url(#p2c35c469f7)" style="fill: #0000ff"/>
    <path d="M 47.858086 87.861132 
L 53.091579 85.244385 
L 51.991935 84.419652 
L 58.314891 83.320007 
L 53.641401 87.718585 
L 53.641401 86.34403 
L 48.407908 88.960776 
L 47.858086 87.861132 
" clip-path="url(#p2c35c469f7)" style="fill: #0000ff"/>
    <path d="M 47.858086 68.670323 
L 53.091579 66.053576 
L 51.991935 65.228842 
L 58.314891 64.129198 
L 53.641401 68.527776 
L 53.641401 67.15322 
L 48.407908 69.769967 
L 47.858086 68.670323 
" clip-path="url(#p2c35c469f7)" style="fill: #0000ff"/>
    <path d="M 47.858086 49.479513 
L 53.091579 46.862767 
L 51.991935 46.038033 
L 58.314891 44.938389 
L 53.641401 49.336967 
L 53.641401 47.962411 
L 48.407908 50.579158 
L 47.858086 49.479513 
" clip-path="url(#p2c35c469f7)" style="fill: #0000ff"/>
    <path d="M 67.048895 318.150842 
L 72.282388 315.534095 
L 71.182744 314.709362 
L 77.5057 313.609717 
L 72.832211 318.008296 
L 72.832211 316.63374 
L 67.598717 319.250487 
L 67.048895 318.150842 
" clip-path="url(#p2c35c469f7)" style="fill: #0000ff"/>
    <path d="M 67.048895 298.960033 
L 72.282388 296.343286 
L 71.182744 295.518553 
L 77.5057 294.418908 
L 72.832211 298.817486 
L 72.832211 297.442931 
L 67.598717 300.059677 
L 67.048895 298.960033 
" clip-path="url(#p2c35c469f7)" style="fill: #0000ff"/>
    <path d="M 67.048895 279.769224 
L 72.282388 277.152477 
L 71.182744 276.327743 
L 77.5057 275.228099 
L 72.832211 279.626677 
L 72.832211 278.252121 
L 67.598717 280.868868 
L 67.048895 279.769224 
" clip-path="url(#p2c35c469f7)" style="fill: #0000ff"/>
    <path d="M 67.048895 260.578414 
L 72.282388 257.961668 
L 71.182744 257.136934 
L 77.5057 256.03729 
L 72.832211 260.435868 
L 72.832211 259.061312 
L 67.598717 261.678059 
L 67.048895 260.578414 
" clip-path="url(#p2c35c469f7)" style="fill: #0000ff"/>
    <path d="M 67.048895 241.387605 
L 72.282388 238.770858 
L 71.182744 237.946125 
L 77.5057 236.846481 
L 72.832211 241.245059 
L 72.832211 239.870503 
L 67.598717 242.48725 
L 67.048895 241.387605 
" clip-path="url(#p2c35c469f7)" style="fill: #0000ff"/>
    <path d="M 67.048895 222.196796 
L 72.282388 219.580049 
L 71.182744 218.755316 
L 77.5057 217.655671 
L 72.832211 222.05425 
L 72.832211 220.679694 
L 67.598717 223.296441 
L 67.048895 222.196796 
" clip-path="url(#p2c35c469f7)" style="fill: #0000ff"/>
    <path d="M 67.048895 203.005987 
L 72.282388 200.38924 
L 71.182744 199.564507 
L 77.5057 198.464862 
L 72.832211 202.86344 
L 72.832211 201.488885 
L 67.598717 204.105631 
L 67.048895 203.005987 
" clip-path="url(#p2c35c469f7)" style="fill: #0000ff"/>
    <path d="M 67.048895 183.815178 
L 72.282388 181.198431 
L 71.182744 180.373698 
L 77.5057 179.274053 
L 72.832211 183.672631 
L 72.832211 182.298075 
L 67.598717 184.914822 
L 67.048895 183.815178 
" clip-path="url(#p2c35c469f7)" style="fill: #0000ff"/>
    <path d="M 67.048895 164.624369 
L 72.282388 162.007622 
L 71.182744 161.182888 
L 77.5057 160.083244 
L 72.832211 164.481822 
L 72.832211 163.107266 
L 67.598717 165.724013 
L 67.048895 164.624369 
" clip-path="url(#p2c35c469f7)" style="fill: #0000ff"/>
    <path d="M 67.048895 145.433559 
L 72.282388 142.816813 
L 71.182744 141.992079 
L 77.5057 140.892435 
L 72.832211 145.291013 
L 72.832211 143.916457 
L 67.598717 146.533204 
L 67.048895 145.433559 
" clip-path="url(#p2c35c469f7)" style="fill: #0000ff"/>
    <path d="M 67.048895 126.24275 
L 72.282388 123.626003 
L 71.182744 122.80127 
L 77.5057 121.701625 
L 72.832211 126.100204 
L 72.832211 124.725648 
L 67.598717 127.342395 
L 67.048895 126.24275 
" clip-path="url(#p2c35c469f7)" style="fill: #0000ff"/>
    <path d="M 67.048895 107.051941 
L 72.282388 104.435194 
L 71.182744 103.610461 
L 77.5057 102.510816 
L 72.832211 106.909394 
L 72.832211 105.534839 
L 67.598717 108.151586 
L 67.048895 107.051941 
" clip-path="url(#p2c35c469f7)" style="fill: #0000ff"/>
    <path d="M 67.048895 87.861132 
L 72.282388 85.244385 
L 71.182744 84.419652 
L 77.5057 83.320007 
L 72.832211 87.718585 
L 72.832211 86.34403 
L 67.598717 88.960776 
L 67.048895 87.861132 
" clip-path="url(#p2c35c469f7)" style="fill: #0000ff"/>
    <path d="M 67.048895 68.670323 
L 72.282388 66.053576 
L 71.182744 65.228842 
L 77.5057 64.129198 
L 72.832211 68.527776 
L 72.832211 67.15322 
L 67.598717 69.769967 
L 67.048895 68.670323 
" clip-path="url(#p2c35c469f7)" style="fill: #0000ff"/>
    <path d="M 67.048895 49.479513 
L 72.282388 46.862767 
L 71.182744 46.038033 
L 77.5057 44.938389 
L 72.832211 49.336967 
L 72.832211 47.962411 
L 67.598717 50.579158 
L 67.048895 49.479513 
" clip-path="url(#p2c35c469f7)" style="fill: #0000ff"/>
    <path d="M 86.239704 318.150842 
L 91.473198 315.534095 
L 90.373553 314.709362 
L 96.696509 313.609717 
L 92.02302 318.008296 
L 92.02302 316.63374 
L 86.789526 319.250487 
L 86.239704 318.150842 
" clip-path="url(#p2c35c469f7)" style="fill: #0000ff"/>
    <path d="M 86.239704 298.960033 
L 91.473198 296.343286 
L 90.373553 295.518553 
L 96.696509 294.418908 
L 92.02302 298.817486 
L 92.02302 297.442931 
L 86.789526 300.059677 
L 86.239704 298.960033 
" clip-path="url(#p2c35c469f7)" style="fill: #0000ff"/>
    <path d="M 86.239704 279.769224 
L 91.473198 277.152477 
L 90.373553 276.327743 
L 96.696509 275.228099 
L 92.02302 279.626677 
L 92.02302 278.252121 
L 86.789526 280.868868 
L 86.239704 279.769224 
" clip-path="url(#p2c35c469f7)" style="fill: #0000ff"/>
    <path d="M 86.239704 260.578414 
L 91.473198 257.961668 
L 90.373553 257.136934 
L 96.696509 256.03729 
L 92.02302 260.435868 
L 92.02302 259.061312 
L 86.789526 261.678059 
L 86.239704 260.578414 
" clip-path="url(#p2c35c469f7)" style="fill: #0000ff"/>
    <path d="M 86.239704 241.387605 
L 91.473198 238.770858 
L 90.373553 237.946125 
L 96.696509 236.846481 
L 92.02302 241.245059 
L 92.02302 239.870503 
L 86.789526 242.48725 
L 86.239704 241.387605 
" clip-path="url(#p2c35c469f7)" style="fill: #0000ff"/>
    <path d="M 86.239704 222.196796 
L 91.473198 219.580049 
L 90.373553 218.755316 
L 96.696509 217.655671 
L 92.02302 222.05425 
L 92.02302 220.679694 
L 86.789526 223.296441 
L 86.239704 222.196796 
" clip-path="url(#p2c35c469f7)" style="fill: #0000ff"/>
    <path d="M 86.239704 203.005987 
L 91.473198 200.38924 
L 90.373553 199.564507 
L 96.696509 198.464862 
L 92.02302 202.86344 
L 92.02302 201.488885 
L 86.789526 204.105631 
L 86.239704 203.005987 
" clip-path="url(#p2c35c469f7)" style="fill: #0000ff"/>
    <path d="M 86.239704 183.815178 
L 91.473198 181.198431 
L 90.373553 180.373698 
L 96.696509 179.274053 
L 92.02302 183.672631 
L 92.02302 182.298075 
L 86.789526 184.914822 
L 86.239704 183.815178 
" clip-path="url(#p2c35c469f7)" style="fill: #0000ff"/>
    <path d="M 86.239704 164.624369 
L 91.473198 162.007622 
L 90.373553 161.182888 
L 96.696509 160.083244 
L 92.02302 164.481822 
L 92.02302 163.107266 
L 86.789526 165.724013 
L 86.239704 164.624369 
" clip-path="url(#p2c35c469f7)" style="fill: #0000ff"/>
    <path d="M 86.239704 145.433559 
L 91.473198 142.816813 
L 90.373553 141.992079 
L 96.696509 140.892435 
L 92.02302 145.291013 
L 92.02302 143.916457 
L 86.789526 146.533204 
L 86.239704 145.433559 
" clip-path="url(#p2c35c469f7)" style="fill: #0000ff"/>
    <path d="M 86.239704 126.24275 
L 91.473198 123.626003 
L 90.373553 122.80127 
L 96.696509 121.701625 
L 92.02302 126.100204 
L 92.02302 124.725648 
L 86.789526 127.342395 
L 86.239704 126.24275 
" clip-path="url(#p2c35c469f7)" style="fill: #0000ff"/>
    <path d="M 86.239704 107.051941 
L 91.473198 104.435194 
L 90.373553 103.610461 
L 96.696509 102.510816 
L 92.02302 106.909394 
L 92.02302 105.534839 
L 86.789526 108.151586 
L 86.239704 107.051941 
" clip-path="url(#p2c35c469f7)" style="fill: #0000ff"/>
    <path d="M 86.239704 87.861132 
L 91.473198 85.244385 
L 90.373553 84.419652 
L 96.696509 83.320007 
L 92.02302 87.718585 
L 92.02302 86.34403 
L 86.789526 88.960776 
L 86.239704 87.861132 
" clip-path="url(#p2c35c469f7)" style="fill: #0000ff"/>
    <path d="M 86.239704 68.670323 
L 91.473198 66.053576 
L 90.373553 65.228842 
L 96.696509 64.129198 
L 92.02302 68.527776 
L 92.02302 67.15322 
L 86.789526 69.769967 
L 86.239704 68.670323 
" clip-path="url(#p2c35c469f7)" style="fill: #0000ff"/>
    <path d="M 86.239704 49.479513 
L 91.473198 46.862767 
L 90.373553 46.038033 
L 96.696509 44.938389 
L 92.02302 49.336967 
L 92.02302 47.962411 
L 86.789526 50.579158 
L 86.239704 49.479513 
" clip-path="url(#p2c35c469f7)" style="fill: #0000ff"/>
    <path d="M 105.430513 318.150842 
L 110.664007 315.534095 
L 109.564362 314.709362 
L 115.887318 313.609717 
L 111.213829 318.008296 
L 111.213829 316.63374 
L 105.980335 319.250487 
L 105.430513 318.150842 
" clip-path="url(#p2c35c469f7)" style="fill: #0000ff"/>
    <path d="M 105.430513 298.960033 
L 110.664007 296.343286 
L 109.564362 295.518553 
L 115.887318 294.418908 
L 111.213829 298.817486 
L 111.213829 297.442931 
L 105.980335 300.059677 
L 105.430513 298.960033 
" clip-path="url(#p2c35c469f7)" style="fill: #0000ff"/>
    <path d="M 105.430513 279.769224 
L 110.664007 277.152477 
L 109.564362 276.327743 
L 115.887318 275.228099 
L 111.213829 279.626677 
L 111.213829 278.252121 
L 105.980335 280.868868 
L 105.430513 279.769224 
" clip-path="url(#p2c35c469f7)" style="fill: #0000ff"/>
    <path d="M 105.430513 260.578414 
L 110.664007 257.961668 
L 109.564362 257.136934 
L 115.887318 256.03729 
L 111.213829 260.435868 
L 111.213829 259.061312 
L 105.980335 261.678059 
L 105.430513 260.578414 
" clip-path="url(#p2c35c469f7)" style="fill: #0000ff"/>
    <path d="M 105.430513 241.387605 
L 110.664007 238.770858 
L 109.564362 237.946125 
L 115.887318 236.846481 
L 111.213829 241.245059 
L 111.213829 239.870503 
L 105.980335 242.48725 
L 105.430513 241.387605 
" clip-path="url(#p2c35c469f7)" style="fill: #0000ff"/>
    <path d="M 105.430513 222.196796 
L 110.664007 219.580049 
L 109.564362 218.755316 
L 115.887318 217.655671 
L 111.213829 222.05425 
L 111.213829 220.679694 
L 105.980335 223.296441 
L 105.430513 222.196796 
" clip-path="url(#p2c35c469f7)" style="fill: #0000ff"/>
    <path d="M 105.430513 203.005987 
L 110.664007 200.38924 
L 109.564362 199.564507 
L 115.887318 198.464862 
L 111.213829 202.86344 
L 111.213829 201.488885 
L 105.980335 204.105631 
L 105.430513 203.005987 
" clip-path="url(#p2c35c469f7)" style="fill: #0000ff"/>
    <path d="M 105.430513 183.815178 
L 110.664007 181.198431 
L 109.564362 180.373698 
L 115.887318 179.274053 
L 111.213829 183.672631 
L 111.213829 182.298075 
L 105.980335 184.914822 
L 105.430513 183.815178 
" clip-path="url(#p2c35c469f7)" style="fill: #0000ff"/>
    <path d="M 105.430513 164.624369 
L 110.664007 162.007622 
L 109.564362 161.182888 
L 115.887318 160.083244 
L 111.213829 164.481822 
L 111.213829 163.107266 
L 105.980335 165.724013 
L 105.430513 164.624369 
" clip-path="url(#p2c35c469f7)" style="fill: #0000ff"/>
    <path d="M 105.430513 145.433559 
L 110.664007 142.816813 
L 109.564362 141.992079 
L 115.887318 140.892435 
L 111.213829 145.291013 
L 111.213829 143.916457 
L 105.980335 146.533204 
L 105.430513 145.433559 
" clip-path="url(#p2c35c469f7)" style="fill: #0000ff"/>
    <path d="M 105.430513 126.24275 
L 110.664007 123.626003 
L 109.564362 122.80127 
L 115.887318 121.701625 
L 111.213829 126.100204 
L 111.213829 124.725648 
L 105.980335 127.342395 
L 105.430513 126.24275 
" clip-path="url(#p2c35c469f7)" style="fill: #0000ff"/>
    <path d="M 105.430513 107.051941 
L 110.664007 104.435194 
L 109.564362 103.610461 
L 115.887318 102.510816 
L 111.213829 106.909394 
L 111.213829 105.534839 
L 105.980335 108.151586 
L 105.430513 107.051941 
" clip-path="url(#p2c35c469f7)" style="fill: #0000ff"/>
    <path d="M 105.430513 87.861132 
L 110.664007 85.244385 
L 109.564362 84.419652 
L 115.887318 83.320007 
L 111.213829 87.718585 
L 111.213829 86.34403 
L 105.980335 88.960776 
L 105.430513 87.861132 
" clip-path="url(#p2c35c469f7)" style="fill: #0000ff"/>
    <path d="M 105.430513 68.670323 
L 110.664007 66.053576 
L 109.564362 65.228842 
L 115.887318 64.129198 
L 111.213829 68.527776 
L 111.213829 67.15322 
L 105.980335 69.769967 
L 105.430513 68.670323 
" clip-path="url(#p2c35c469f7)" style="fill: #0000ff"/>
    <path d="M 105.430513 49.479513 
L 110.664007 46.862767 
L 109.564362 46.038033 
L 115.887318 44.938389 
L 111.213829 49.336967 
L 111.213829 47.962411 
L 105.980335 50.579158 
L 105.430513 49.479513 
" clip-path="url(#p2c35c469f7)" style="fill: #0000ff"/>
    <path d="M 124.621322 318.150842 
L 129.854816 315.534095 
L 128.755171 314.709362 
L 135.078128 313.609717 
L 130.404638 318.008296 
L 130.404638 316.63374 
L 125.171145 319.250487 
L 124.621322 318.150842 
" clip-path="url(#p2c35c469f7)" style="fill: #0000ff"/>
    <path d="M 124.621322 298.960033 
L 129.854816 296.343286 
L 128.755171 295.518553 
L 135.078128 294.418908 
L 130.404638 298.817486 
L 130.404638 297.442931 
L 125.171145 300.059677 
L 124.621322 298.960033 
" clip-path="url(#p2c35c469f7)" style="fill: #0000ff"/>
    <path d="M 124.621322 279.769224 
L 129.854816 277.152477 
L 128.755171 276.327743 
L 135.078128 275.228099 
L 130.404638 279.626677 
L 130.404638 278.252121 
L 125.171145 280.868868 
L 124.621322 279.769224 
" clip-path="url(#p2c35c469f7)" style="fill: #0000ff"/>
    <path d="M 124.621322 260.578414 
L 129.854816 257.961668 
L 128.755171 257.136934 
L 135.078128 256.03729 
L 130.404638 260.435868 
L 130.404638 259.061312 
L 125.171145 261.678059 
L 124.621322 260.578414 
" clip-path="url(#p2c35c469f7)" style="fill: #0000ff"/>
    <path d="M 124.621322 241.387605 
L 129.854816 238.770858 
L 128.755171 237.946125 
L 135.078128 236.846481 
L 130.404638 241.245059 
L 130.404638 239.870503 
L 125.171145 242.48725 
L 124.621322 241.387605 
" clip-path="url(#p2c35c469f7)" style="fill: #0000ff"/>
    <path d="M 124.621322 222.196796 
L 129.854816 219.580049 
L 128.755171 218.755316 
L 135.078128 217.655671 
L 130.404638 222.05425 
L 130.404638 220.679694 
L 125.171145 223.296441 
L 124.621322 222.196796 
" clip-path="url(#p2c35c469f7)" style="fill: #0000ff"/>
    <path d="M 124.621322 203.005987 
L 129.854816 200.38924 
L 128.755171 199.564507 
L 135.078128 198.464862 
L 130.404638 202.86344 
L 130.404638 201.488885 
L 125.171145 204.105631 
L 124.621322 203.005987 
" clip-path="url(#p2c35c469f7)" style="fill: #0000ff"/>
    <path d="M 124.621322 183.815178 
L 129.854816 181.198431 
L 128.755171 180.373698 
L 135.078128 179.274053 
L 130.404638 183.672631 
L 130.404638 182.298075 
L 125.171145 184.914822 
L 124.621322 183.815178 
" clip-path="url(#p2c35c469f7)" style="fill: #0000ff"/>
    <path d="M 124.621322 164.624369 
L 129.854816 162.007622 
L 128.755171 161.182888 
L 135.078128 160.083244 
L 130.404638 164.481822 
L 130.404638 163.107266 
L 125.171145 165.724013 
L 124.621322 164.624369 
" clip-path="url(#p2c35c469f7)" style="fill: #0000ff"/>
    <path d="M 124.621322 145.433559 
L 129.854816 142.816813 
L 128.755171 141.992079 
L 135.078128 140.892435 
L 130.404638 145.291013 
L 130.404638 143.916457 
L 125.171145 146.533204 
L 124.621322 145.433559 
" clip-path="url(#p2c35c469f7)" style="fill: #0000ff"/>
    <path d="M 124.621322 126.24275 
L 129.854816 123.626003 
L 128.755171 122.80127 
L 135.078128 121.701625 
L 130.404638 126.100204 
L 130.404638 124.725648 
L 125.171145 127.342395 
L 124.621322 126.24275 
" clip-path="url(#p2c35c469f7)" style="fill: #0000ff"/>
    <path d="M 124.621322 107.051941 
L 129.854816 104.435194 
L 128.755171 103.610461 
L 135.078128 102.510816 
L 130.404638 106.909394 
L 130.404638 105.534839 
L 125.171145 108.151586 
L 124.621322 107.051941 
" clip-path="url(#p2c35c469f7)" style="fill: #0000ff"/>
    <path d="M 124.621322 87.861132 
L 129.854816 85.244385 
L 128.755171 84.419652 
L 135.078128 83.320007 
L 130.404638 87.718585 
L 130.404638 86.34403 
L 125.171145 88.960776 
L 124.621322 87.861132 
" clip-path="url(#p2c35c469f7)" style="fill: #0000ff"/>
    <path d="M 124.621322 68.670323 
L 129.854816 66.053576 
L 128.755171 65.228842 
L 135.078128 64.129198 
L 130.404638 68.527776 
L 130.404638 67.15322 
L 125.171145 69.769967 
L 124.621322 68.670323 
" clip-path="url(#p2c35c469f7)" style="fill: #0000ff"/>
    <path d="M 124.621322 49.479513 
L 129.854816 46.862767 
L 128.755171 46.038033 
L 135.078128 44.938389 
L 130.404638 49.336967 
L 130.404638 47.962411 
L 125.171145 50.579158 
L 124.621322 49.479513 
" clip-path="url(#p2c35c469f7)" style="fill: #0000ff"/>
    <path d="M 143.812132 318.150842 
L 149.045625 315.534095 
L 147.945981 314.709362 
L 154.268937 313.609717 
L 149.595447 318.008296 
L 149.595447 316.63374 
L 144.361954 319.250487 
L 143.812132 318.150842 
" clip-path="url(#p2c35c469f7)" style="fill: #0000ff"/>
    <path d="M 143.812132 298.960033 
L 149.045625 296.343286 
L 147.945981 295.518553 
L 154.268937 294.418908 
L 149.595447 298.817486 
L 149.595447 297.442931 
L 144.361954 300.059677 
L 143.812132 298.960033 
" clip-path="url(#p2c35c469f7)" style="fill: #0000ff"/>
    <path d="M 143.812132 279.769224 
L 149.045625 277.152477 
L 147.945981 276.327743 
L 154.268937 275.228099 
L 149.595447 279.626677 
L 149.595447 278.252121 
L 144.361954 280.868868 
L 143.812132 279.769224 
" clip-path="url(#p2c35c469f7)" style="fill: #0000ff"/>
    <path d="M 143.812132 260.578414 
L 149.045625 257.961668 
L 147.945981 257.136934 
L 154.268937 256.03729 
L 149.595447 260.435868 
L 149.595447 259.061312 
L 144.361954 261.678059 
L 143.812132 260.578414 
" clip-path="url(#p2c35c469f7)" style="fill: #0000ff"/>
    <path d="M 143.812132 241.387605 
L 149.045625 238.770858 
L 147.945981 237.946125 
L 154.268937 236.846481 
L 149.595447 241.245059 
L 149.595447 239.870503 
L 144.361954 242.48725 
L 143.812132 241.387605 
" clip-path="url(#p2c35c469f7)" style="fill: #0000ff"/>
    <path d="M 143.812132 222.196796 
L 149.045625 219.580049 
L 147.945981 218.755316 
L 154.268937 217.655671 
L 149.595447 222.05425 
L 149.595447 220.679694 
L 144.361954 223.296441 
L 143.812132 222.196796 
" clip-path="url(#p2c35c469f7)" style="fill: #0000ff"/>
    <path d="M 143.812132 203.005987 
L 149.045625 200.38924 
L 147.945981 199.564507 
L 154.268937 198.464862 
L 149.595447 202.86344 
L 149.595447 201.488885 
L 144.361954 204.105631 
L 143.812132 203.005987 
" clip-path="url(#p2c35c469f7)" style="fill: #0000ff"/>
    <path d="M 143.812132 183.815178 
L 149.045625 181.198431 
L 147.945981 180.373698 
L 154.268937 179.274053 
L 149.595447 183.672631 
L 149.595447 182.298075 
L 144.361954 184.914822 
L 143.812132 183.815178 
" clip-path="url(#p2c35c469f7)" style="fill: #0000ff"/>
    <path d="M 143.812132 164.624369 
L 149.045625 162.007622 
L 147.945981 161.182888 
L 154.268937 160.083244 
L 149.595447 164.481822 
L 149.595447 163.107266 
L 144.361954 165.724013 
L 143.812132 164.624369 
" clip-path="url(#p2c35c469f7)" style="fill: #0000ff"/>
    <path d="M 143.812132 145.433559 
L 149.045625 142.816813 
L 147.945981 141.992079 
L 154.268937 140.892435 
L 149.595447 145.291013 
L 149.595447 143.916457 
L 144.361954 146.533204 
L 143.812132 145.433559 
" clip-path="url(#p2c35c469f7)" style="fill: #0000ff"/>
    <path d="M 143.812132 126.24275 
L 149.045625 123.626003 
L 147.945981 122.80127 
L 154.268937 121.701625 
L 149.595447 126.100204 
L 149.595447 124.725648 
L 144.361954 127.342395 
L 143.812132 126.24275 
" clip-path="url(#p2c35c469f7)" style="fill: #0000ff"/>
    <path d="M 143.812132 107.051941 
L 149.045625 104.435194 
L 147.945981 103.610461 
L 154.268937 102.510816 
L 149.595447 106.909394 
L 149.595447 105.534839 
L 144.361954 108.151586 
L 143.812132 107.051941 
" clip-path="url(#p2c35c469f7)" style="fill: #0000ff"/>
    <path d="M 143.812132 87.861132 
L 149.045625 85.244385 
L 147.945981 84.419652 
L 154.268937 83.320007 
L 149.595447 87.718585 
L 149.595447 86.34403 
L 144.361954 88.960776 
L 143.812132 87.861132 
" clip-path="url(#p2c35c469f7)" style="fill: #0000ff"/>
    <path d="M 143.812132 68.670323 
L 149.045625 66.053576 
L 147.945981 65.228842 
L 154.268937 64.129198 
L 149.595447 68.527776 
L 149.595447 67.15322 
L 144.361954 69.769967 
L 143.812132 68.670323 
" clip-path="url(#p2c35c469f7)" style="fill: #0000ff"/>
    <path d="M 143.812132 49.479513 
L 149.045625 46.862767 
L 147.945981 46.038033 
L 154.268937 44.938389 
L 149.595447 49.336967 
L 149.595447 47.962411 
L 144.361954 50.579158 
L 143.812132 49.479513 
" clip-path="url(#p2c35c469f7)" style="fill: #0000ff"/>
    <path d="M 163.002941 318.150842 
L 168.236434 315.534095 
L 167.13679 314.709362 
L 173.459746 313.609717 
L 168.786257 318.008296 
L 168.786257 316.63374 
L 163.552763 319.250487 
L 163.002941 318.150842 
" clip-path="url(#p2c35c469f7)" style="fill: #0000ff"/>
    <path d="M 163.002941 298.960033 
L 168.236434 296.343286 
L 167.13679 295.518553 
L 173.459746 294.418908 
L 168.786257 298.817486 
L 168.786257 297.442931 
L 163.552763 300.059677 
L 163.002941 298.960033 
" clip-path="url(#p2c35c469f7)" style="fill: #0000ff"/>
    <path d="M 163.002941 279.769224 
L 168.236434 277.152477 
L 167.13679 276.327743 
L 173.459746 275.228099 
L 168.786257 279.626677 
L 168.786257 278.252121 
L 163.552763 280.868868 
L 163.002941 279.769224 
" clip-path="url(#p2c35c469f7)" style="fill: #0000ff"/>
    <path d="M 163.002941 260.578414 
L 168.236434 257.961668 
L 167.13679 257.136934 
L 173.459746 256.03729 
L 168.786257 260.435868 
L 168.786257 259.061312 
L 163.552763 261.678059 
L 163.002941 260.578414 
" clip-path="url(#p2c35c469f7)" style="fill: #0000ff"/>
    <path d="M 163.002941 241.387605 
L 168.236434 238.770858 
L 167.13679 237.946125 
L 173.459746 236.846481 
L 168.786257 241.245059 
L 168.786257 239.870503 
L 163.552763 242.48725 
L 163.002941 241.387605 
" clip-path="url(#p2c35c469f7)" style="fill: #0000ff"/>
    <path d="M 163.002941 222.196796 
L 168.236434 219.580049 
L 167.13679 218.755316 
L 173.459746 217.655671 
L 168.786257 222.05425 
L 168.786257 220.679694 
L 163.552763 223.296441 
L 163.002941 222.196796 
" clip-path="url(#p2c35c469f7)" style="fill: #0000ff"/>
    <path d="M 163.002941 203.005987 
L 168.236434 200.38924 
L 167.13679 199.564507 
L 173.459746 198.464862 
L 168.786257 202.86344 
L 168.786257 201.488885 
L 163.552763 204.105631 
L 163.002941 203.005987 
" clip-path="url(#p2c35c469f7)" style="fill: #0000ff"/>
    <path d="M 163.002941 183.815178 
L 168.236434 181.198431 
L 167.13679 180.373698 
L 173.459746 179.274053 
L 168.786257 183.672631 
L 168.786257 182.298075 
L 163.552763 184.914822 
L 163.002941 183.815178 
" clip-path="url(#p2c35c469f7)" style="fill: #0000ff"/>
    <path d="M 163.002941 164.624369 
L 168.236434 162.007622 
L 167.13679 161.182888 
L 173.459746 160.083244 
L 168.786257 164.481822 
L 168.786257 163.107266 
L 163.552763 165.724013 
L 163.002941 164.624369 
" clip-path="url(#p2c35c469f7)" style="fill: #0000ff"/>
    <path d="M 163.002941 145.433559 
L 168.236434 142.816813 
L 167.13679 141.992079 
L 173.459746 140.892435 
L 168.786257 145.291013 
L 168.786257 143.916457 
L 163.552763 146.533204 
L 163.002941 145.433559 
" clip-path="url(#p2c35c469f7)" style="fill: #0000ff"/>
    <path d="M 163.002941 126.24275 
L 168.236434 123.626003 
L 167.13679 122.80127 
L 173.459746 121.701625 
L 168.786257 126.100204 
L 168.786257 124.725648 
L 163.552763 127.342395 
L 163.002941 126.24275 
" clip-path="url(#p2c35c469f7)" style="fill: #0000ff"/>
    <path d="M 163.002941 107.051941 
L 168.236434 104.435194 
L 167.13679 103.610461 
L 173.459746 102.510816 
L 168.786257 106.909394 
L 168.786257 105.534839 
L 163.552763 108.151586 
L 163.002941 107.051941 
" clip-path="url(#p2c35c469f7)" style="fill: #0000ff"/>
    <path d="M 163.002941 87.861132 
L 168.236434 85.244385 
L 167.13679 84.419652 
L 173.459746 83.320007 
L 168.786257 87.718585 
L 168.786257 86.34403 
L 163.552763 88.960776 
L 163.002941 87.861132 
" clip-path="url(#p2c35c469f7)" style="fill: #0000ff"/>
    <path d="M 163.002941 68.670323 
L 168.236434 66.053576 
L 167.13679 65.228842 
L 173.459746 64.129198 
L 168.786257 68.527776 
L 168.786257 67.15322 
L 163.552763 69.769967 
L 163.002941 68.670323 
" clip-path="url(#p2c35c469f7)" style="fill: #0000ff"/>
    <path d="M 163.002941 49.479513 
L 168.236434 46.862767 
L 167.13679 46.038033 
L 173.459746 44.938389 
L 168.786257 49.336967 
L 168.786257 47.962411 
L 163.552763 50.579158 
L 163.002941 49.479513 
" clip-path="url(#p2c35c469f7)" style="fill: #0000ff"/>
    <path d="M 182.19375 318.150842 
L 187.427243 315.534095 
L 186.327599 314.709362 
L 192.650555 313.609717 
L 187.977066 318.008296 
L 187.977066 316.63374 
L 182.743572 319.250487 
L 182.19375 318.150842 
" clip-path="url(#p2c35c469f7)" style="fill: #0000ff"/>
    <path d="M 182.19375 298.960033 
L 187.427243 296.343286 
L 186.327599 295.518553 
L 192.650555 294.418908 
L 187.977066 298.817486 
L 187.977066 297.442931 
L 182.743572 300.059677 
L 182.19375 298.960033 
" clip-path="url(#p2c35c469f7)" style="fill: #0000ff"/>
    <path d="M 182.19375 279.769224 
L 187.427243 277.152477 
L 186.327599 276.327743 
L 192.650555 275.228099 
L 187.977066 279.626677 
L 187.977066 278.252121 
L 182.743572 280.868868 
L 182.19375 279.769224 
" clip-path="url(#p2c35c469f7)" style="fill: #0000ff"/>
    <path d="M 182.19375 260.578414 
L 187.427243 257.961668 
L 186.327599 257.136934 
L 192.650555 256.03729 
L 187.977066 260.435868 
L 187.977066 259.061312 
L 182.743572 261.678059 
L 182.19375 260.578414 
" clip-path="url(#p2c35c469f7)" style="fill: #0000ff"/>
    <path d="M 182.19375 241.387605 
L 187.427243 238.770858 
L 186.327599 237.946125 
L 192.650555 236.846481 
L 187.977066 241.245059 
L 187.977066 239.870503 
L 182.743572 242.48725 
L 182.19375 241.387605 
" clip-path="url(#p2c35c469f7)" style="fill: #0000ff"/>
    <path d="M 182.19375 222.196796 
L 187.427243 219.580049 
L 186.327599 218.755316 
L 192.650555 217.655671 
L 187.977066 222.05425 
L 187.977066 220.679694 
L 182.743572 223.296441 
L 182.19375 222.196796 
" clip-path="url(#p2c35c469f7)" style="fill: #0000ff"/>
    <path d="M 182.19375 203.005987 
L 187.427243 200.38924 
L 186.327599 199.564507 
L 192.650555 198.464862 
L 187.977066 202.86344 
L 187.977066 201.488885 
L 182.743572 204.105631 
L 182.19375 203.005987 
" clip-path="url(#p2c35c469f7)" style="fill: #0000ff"/>
    <path d="M 182.19375 183.815178 
L 187.427243 181.198431 
L 186.327599 180.373698 
L 192.650555 179.274053 
L 187.977066 183.672631 
L 187.977066 182.298075 
L 182.743572 184.914822 
L 182.19375 183.815178 
" clip-path="url(#p2c35c469f7)" style="fill: #0000ff"/>
    <path d="M 182.19375 164.624369 
L 187.427243 162.007622 
L 186.327599 161.182888 
L 192.650555 160.083244 
L 187.977066 164.481822 
L 187.977066 163.107266 
L 182.743572 165.724013 
L 182.19375 164.624369 
" clip-path="url(#p2c35c469f7)" style="fill: #0000ff"/>
    <path d="M 182.19375 145.433559 
L 187.427243 142.816813 
L 186.327599 141.992079 
L 192.650555 140.892435 
L 187.977066 145.291013 
L 187.977066 143.916457 
L 182.743572 146.533204 
L 182.19375 145.433559 
" clip-path="url(#p2c35c469f7)" style="fill: #0000ff"/>
    <path d="M 182.19375 126.24275 
L 187.427243 123.626003 
L 186.327599 122.80127 
L 192.650555 121.701625 
L 187.977066 126.100204 
L 187.977066 124.725648 
L 182.743572 127.342395 
L 182.19375 126.24275 
" clip-path="url(#p2c35c469f7)" style="fill: #0000ff"/>
    <path d="M 182.19375 107.051941 
L 187.427243 104.435194 
L 186.327599 103.610461 
L 192.650555 102.510816 
L 187.977066 106.909394 
L 187.977066 105.534839 
L 182.743572 108.151586 
L 182.19375 107.051941 
" clip-path="url(#p2c35c469f7)" style="fill: #0000ff"/>
    <path d="M 182.19375 87.861132 
L 187.427243 85.244385 
L 186.327599 84.419652 
L 192.650555 83.320007 
L 187.977066 87.718585 
L 187.977066 86.34403 
L 182.743572 88.960776 
L 182.19375 87.861132 
" clip-path="url(#p2c35c469f7)" style="fill: #0000ff"/>
    <path d="M 182.19375 68.670323 
L 187.427243 66.053576 
L 186.327599 65.228842 
L 192.650555 64.129198 
L 187.977066 68.527776 
L 187.977066 67.15322 
L 182.743572 69.769967 
L 182.19375 68.670323 
" clip-path="url(#p2c35c469f7)" style="fill: #0000ff"/>
    <path d="M 182.19375 49.479513 
L 187.427243 46.862767 
L 186.327599 46.038033 
L 192.650555 44.938389 
L 187.977066 49.336967 
L 187.977066 47.962411 
L 182.743572 50.579158 
L 182.19375 49.479513 
" clip-path="url(#p2c35c469f7)" style="fill: #0000ff"/>
    <path d="M 201.384559 318.150842 
L 206.618053 315.534095 
L 205.518408 314.709362 
L 211.841364 313.609717 
L 207.167875 318.008296 
L 207.167875 316.63374 
L 201.934381 319.250487 
L 201.384559 318.150842 
" clip-path="url(#p2c35c469f7)" style="fill: #0000ff"/>
    <path d="M 201.384559 298.960033 
L 206.618053 296.343286 
L 205.518408 295.518553 
L 211.841364 294.418908 
L 207.167875 298.817486 
L 207.167875 297.442931 
L 201.934381 300.059677 
L 201.384559 298.960033 
" clip-path="url(#p2c35c469f7)" style="fill: #0000ff"/>
    <path d="M 201.384559 279.769224 
L 206.618053 277.152477 
L 205.518408 276.327743 
L 211.841364 275.228099 
L 207.167875 279.626677 
L 207.167875 278.252121 
L 201.934381 280.868868 
L 201.384559 279.769224 
" clip-path="url(#p2c35c469f7)" style="fill: #0000ff"/>
    <path d="M 201.384559 260.578414 
L 206.618053 257.961668 
L 205.518408 257.136934 
L 211.841364 256.03729 
L 207.167875 260.435868 
L 207.167875 259.061312 
L 201.934381 261.678059 
L 201.384559 260.578414 
" clip-path="url(#p2c35c469f7)" style="fill: #0000ff"/>
    <path d="M 201.384559 241.387605 
L 206.618053 238.770858 
L 205.518408 237.946125 
L 211.841364 236.846481 
L 207.167875 241.245059 
L 207.167875 239.870503 
L 201.934381 242.48725 
L 201.384559 241.387605 
" clip-path="url(#p2c35c469f7)" style="fill: #0000ff"/>
    <path d="M 201.384559 222.196796 
L 206.618053 219.580049 
L 205.518408 218.755316 
L 211.841364 217.655671 
L 207.167875 222.05425 
L 207.167875 220.679694 
L 201.934381 223.296441 
L 201.384559 222.196796 
" clip-path="url(#p2c35c469f7)" style="fill: #0000ff"/>
    <path d="M 201.384559 203.005987 
L 206.618053 200.38924 
L 205.518408 199.564507 
L 211.841364 198.464862 
L 207.167875 202.86344 
L 207.167875 201.488885 
L 201.934381 204.105631 
L 201.384559 203.005987 
" clip-path="url(#p2c35c469f7)" style="fill: #0000ff"/>
    <path d="M 201.384559 183.815178 
L 206.618053 181.198431 
L 205.518408 180.373698 
L 211.841364 179.274053 
L 207.167875 183.672631 
L 207.167875 182.298075 
L 201.934381 184.914822 
L 201.384559 183.815178 
" clip-path="url(#p2c35c469f7)" style="fill: #0000ff"/>
    <path d="M 201.384559 164.624369 
L 206.618053 162.007622 
L 205.518408 161.182888 
L 211.841364 160.083244 
L 207.167875 164.481822 
L 207.167875 163.107266 
L 201.934381 165.724013 
L 201.384559 164.624369 
" clip-path="url(#p2c35c469f7)" style="fill: #0000ff"/>
    <path d="M 201.384559 145.433559 
L 206.618053 142.816813 
L 205.518408 141.992079 
L 211.841364 140.892435 
L 207.167875 145.291013 
L 207.167875 143.916457 
L 201.934381 146.533204 
L 201.384559 145.433559 
" clip-path="url(#p2c35c469f7)" style="fill: #0000ff"/>
    <path d="M 201.384559 126.24275 
L 206.618053 123.626003 
L 205.518408 122.80127 
L 211.841364 121.701625 
L 207.167875 126.100204 
L 207.167875 124.725648 
L 201.934381 127.342395 
L 201.384559 126.24275 
" clip-path="url(#p2c35c469f7)" style="fill: #0000ff"/>
    <path d="M 201.384559 107.051941 
L 206.618053 104.435194 
L 205.518408 103.610461 
L 211.841364 102.510816 
L 207.167875 106.909394 
L 207.167875 105.534839 
L 201.934381 108.151586 
L 201.384559 107.051941 
" clip-path="url(#p2c35c469f7)" style="fill: #0000ff"/>
    <path d="M 201.384559 87.861132 
L 206.618053 85.244385 
L 205.518408 84.419652 
L 211.841364 83.320007 
L 207.167875 87.718585 
L 207.167875 86.34403 
L 201.934381 88.960776 
L 201.384559 87.861132 
" clip-path="url(#p2c35c469f7)" style="fill: #0000ff"/>
    <path d="M 201.384559 68.670323 
L 206.618053 66.053576 
L 205.518408 65.228842 
L 211.841364 64.129198 
L 207.167875 68.527776 
L 207.167875 67.15322 
L 201.934381 69.769967 
L 201.384559 68.670323 
" clip-path="url(#p2c35c469f7)" style="fill: #0000ff"/>
    <path d="M 201.384559 49.479513 
L 206.618053 46.862767 
L 205.518408 46.038033 
L 211.841364 44.938389 
L 207.167875 49.336967 
L 207.167875 47.962411 
L 201.934381 50.579158 
L 201.384559 49.479513 
" clip-path="url(#p2c35c469f7)" style="fill: #0000ff"/>
    <path d="M 220.575368 318.150842 
L 225.808862 315.534095 
L 224.709217 314.709362 
L 231.032174 313.609717 
L 226.358684 318.008296 
L 226.358684 316.63374 
L 221.125191 319.250487 
L 220.575368 318.150842 
" clip-path="url(#p2c35c469f7)" style="fill: #0000ff"/>
    <path d="M 220.575368 298.960033 
L 225.808862 296.343286 
L 224.709217 295.518553 
L 231.032174 294.418908 
L 226.358684 298.817486 
L 226.358684 297.442931 
L 221.125191 300.059677 
L 220.575368 298.960033 
" clip-path="url(#p2c35c469f7)" style="fill: #0000ff"/>
    <path d="M 220.575368 279.769224 
L 225.808862 277.152477 
L 224.709217 276.327743 
L 231.032174 275.228099 
L 226.358684 279.626677 
L 226.358684 278.252121 
L 221.125191 280.868868 
L 220.575368 279.769224 
" clip-path="url(#p2c35c469f7)" style="fill: #0000ff"/>
    <path d="M 220.575368 260.578414 
L 225.808862 257.961668 
L 224.709217 257.136934 
L 231.032174 256.03729 
L 226.358684 260.435868 
L 226.358684 259.061312 
L 221.125191 261.678059 
L 220.575368 260.578414 
" clip-path="url(#p2c35c469f7)" style="fill: #0000ff"/>
    <path d="M 220.575368 241.387605 
L 225.808862 238.770858 
L 224.709217 237.946125 
L 231.032174 236.846481 
L 226.358684 241.245059 
L 226.358684 239.870503 
L 221.125191 242.48725 
L 220.575368 241.387605 
" clip-path="url(#p2c35c469f7)" style="fill: #0000ff"/>
    <path d="M 220.575368 222.196796 
L 225.808862 219.580049 
L 224.709217 218.755316 
L 231.032174 217.655671 
L 226.358684 222.05425 
L 226.358684 220.679694 
L 221.125191 223.296441 
L 220.575368 222.196796 
" clip-path="url(#p2c35c469f7)" style="fill: #0000ff"/>
    <path d="M 220.575368 203.005987 
L 225.808862 200.38924 
L 224.709217 199.564507 
L 231.032174 198.464862 
L 226.358684 202.86344 
L 226.358684 201.488885 
L 221.125191 204.105631 
L 220.575368 203.005987 
" clip-path="url(#p2c35c469f7)" style="fill: #0000ff"/>
    <path d="M 220.575368 183.815178 
L 225.808862 181.198431 
L 224.709217 180.373698 
L 231.032174 179.274053 
L 226.358684 183.672631 
L 226.358684 182.298075 
L 221.125191 184.914822 
L 220.575368 183.815178 
" clip-path="url(#p2c35c469f7)" style="fill: #0000ff"/>
    <path d="M 220.575368 164.624369 
L 225.808862 162.007622 
L 224.709217 161.182888 
L 231.032174 160.083244 
L 226.358684 164.481822 
L 226.358684 163.107266 
L 221.125191 165.724013 
L 220.575368 164.624369 
" clip-path="url(#p2c35c469f7)" style="fill: #0000ff"/>
    <path d="M 220.575368 145.433559 
L 225.808862 142.816813 
L 224.709217 141.992079 
L 231.032174 140.892435 
L 226.358684 145.291013 
L 226.358684 143.916457 
L 221.125191 146.533204 
L 220.575368 145.433559 
" clip-path="url(#p2c35c469f7)" style="fill: #0000ff"/>
    <path d="M 220.575368 126.24275 
L 225.808862 123.626003 
L 224.709217 122.80127 
L 231.032174 121.701625 
L 226.358684 126.100204 
L 226.358684 124.725648 
L 221.125191 127.342395 
L 220.575368 126.24275 
" clip-path="url(#p2c35c469f7)" style="fill: #0000ff"/>
    <path d="M 220.575368 107.051941 
L 225.808862 104.435194 
L 224.709217 103.610461 
L 231.032174 102.510816 
L 226.358684 106.909394 
L 226.358684 105.534839 
L 221.125191 108.151586 
L 220.575368 107.051941 
" clip-path="url(#p2c35c469f7)" style="fill: #0000ff"/>
    <path d="M 220.575368 87.861132 
L 225.808862 85.244385 
L 224.709217 84.419652 
L 231.032174 83.320007 
L 226.358684 87.718585 
L 226.358684 86.34403 
L 221.125191 88.960776 
L 220.575368 87.861132 
" clip-path="url(#p2c35c469f7)" style="fill: #0000ff"/>
    <path d="M 220.575368 68.670323 
L 225.808862 66.053576 
L 224.709217 65.228842 
L 231.032174 64.129198 
L 226.358684 68.527776 
L 226.358684 67.15322 
L 221.125191 69.769967 
L 220.575368 68.670323 
" clip-path="url(#p2c35c469f7)" style="fill: #0000ff"/>
    <path d="M 220.575368 49.479513 
L 225.808862 46.862767 
L 224.709217 46.038033 
L 231.032174 44.938389 
L 226.358684 49.336967 
L 226.358684 47.962411 
L 221.125191 50.579158 
L 220.575368 49.479513 
" clip-path="url(#p2c35c469f7)" style="fill: #0000ff"/>
    <path d="M 239.766177 318.150842 
L 244.999671 315.534095 
L 243.900026 314.709362 
L 250.222983 313.609717 
L 245.549493 318.008296 
L 245.549493 316.63374 
L 240.316 319.250487 
L 239.766177 318.150842 
" clip-path="url(#p2c35c469f7)" style="fill: #0000ff"/>
    <path d="M 239.766177 298.960033 
L 244.999671 296.343286 
L 243.900026 295.518553 
L 250.222983 294.418908 
L 245.549493 298.817486 
L 245.549493 297.442931 
L 240.316 300.059677 
L 239.766177 298.960033 
" clip-path="url(#p2c35c469f7)" style="fill: #0000ff"/>
    <path d="M 239.766177 279.769224 
L 244.999671 277.152477 
L 243.900026 276.327743 
L 250.222983 275.228099 
L 245.549493 279.626677 
L 245.549493 278.252121 
L 240.316 280.868868 
L 239.766177 279.769224 
" clip-path="url(#p2c35c469f7)" style="fill: #0000ff"/>
    <path d="M 239.766177 260.578414 
L 244.999671 257.961668 
L 243.900026 257.136934 
L 250.222983 256.03729 
L 245.549493 260.435868 
L 245.549493 259.061312 
L 240.316 261.678059 
L 239.766177 260.578414 
" clip-path="url(#p2c35c469f7)" style="fill: #0000ff"/>
    <path d="M 239.766177 241.387605 
L 244.999671 238.770858 
L 243.900026 237.946125 
L 250.222983 236.846481 
L 245.549493 241.245059 
L 245.549493 239.870503 
L 240.316 242.48725 
L 239.766177 241.387605 
" clip-path="url(#p2c35c469f7)" style="fill: #0000ff"/>
    <path d="M 239.766177 222.196796 
L 244.999671 219.580049 
L 243.900026 218.755316 
L 250.222983 217.655671 
L 245.549493 222.05425 
L 245.549493 220.679694 
L 240.316 223.296441 
L 239.766177 222.196796 
" clip-path="url(#p2c35c469f7)" style="fill: #0000ff"/>
    <path d="M 239.766177 203.005987 
L 244.999671 200.38924 
L 243.900026 199.564507 
L 250.222983 198.464862 
L 245.549493 202.86344 
L 245.549493 201.488885 
L 240.316 204.105631 
L 239.766177 203.005987 
" clip-path="url(#p2c35c469f7)" style="fill: #0000ff"/>
    <path d="M 239.766177 183.815178 
L 244.999671 181.198431 
L 243.900026 180.373698 
L 250.222983 179.274053 
L 245.549493 183.672631 
L 245.549493 182.298075 
L 240.316 184.914822 
L 239.766177 183.815178 
" clip-path="url(#p2c35c469f7)" style="fill: #0000ff"/>
    <path d="M 239.766177 164.624369 
L 244.999671 162.007622 
L 243.900026 161.182888 
L 250.222983 160.083244 
L 245.549493 164.481822 
L 245.549493 163.107266 
L 240.316 165.724013 
L 239.766177 164.624369 
" clip-path="url(#p2c35c469f7)" style="fill: #0000ff"/>
    <path d="M 239.766177 145.433559 
L 244.999671 142.816813 
L 243.900026 141.992079 
L 250.222983 140.892435 
L 245.549493 145.291013 
L 245.549493 143.916457 
L 240.316 146.533204 
L 239.766177 145.433559 
" clip-path="url(#p2c35c469f7)" style="fill: #0000ff"/>
    <path d="M 239.766177 126.24275 
L 244.999671 123.626003 
L 243.900026 122.80127 
L 250.222983 121.701625 
L 245.549493 126.100204 
L 245.549493 124.725648 
L 240.316 127.342395 
L 239.766177 126.24275 
" clip-path="url(#p2c35c469f7)" style="fill: #0000ff"/>
    <path d="M 239.766177 107.051941 
L 244.999671 104.435194 
L 243.900026 103.610461 
L 250.222983 102.510816 
L 245.549493 106.909394 
L 245.549493 105.534839 
L 240.316 108.151586 
L 239.766177 107.051941 
" clip-path="url(#p2c35c469f7)" style="fill: #0000ff"/>
    <path d="M 239.766177 87.861132 
L 244.999671 85.244385 
L 243.900026 84.419652 
L 250.222983 83.320007 
L 245.549493 87.718585 
L 245.549493 86.34403 
L 240.316 88.960776 
L 239.766177 87.861132 
" clip-path="url(#p2c35c469f7)" style="fill: #0000ff"/>
    <path d="M 239.766177 68.670323 
L 244.999671 66.053576 
L 243.900026 65.228842 
L 250.222983 64.129198 
L 245.549493 68.527776 
L 245.549493 67.15322 
L 240.316 69.769967 
L 239.766177 68.670323 
" clip-path="url(#p2c35c469f7)" style="fill: #0000ff"/>
    <path d="M 239.766177 49.479513 
L 244.999671 46.862767 
L 243.900026 46.038033 
L 250.222983 44.938389 
L 245.549493 49.336967 
L 245.549493 47.962411 
L 240.316 50.579158 
L 239.766177 49.479513 
" clip-path="url(#p2c35c469f7)" style="fill: #0000ff"/>
    <path d="M 258.956987 318.150842 
L 264.19048 315.534095 
L 263.090836 314.709362 
L 269.413792 313.609717 
L 264.740303 318.008296 
L 264.740303 316.63374 
L 259.506809 319.250487 
L 258.956987 318.150842 
" clip-path="url(#p2c35c469f7)" style="fill: #0000ff"/>
    <path d="M 258.956987 298.960033 
L 264.19048 296.343286 
L 263.090836 295.518553 
L 269.413792 294.418908 
L 264.740303 298.817486 
L 264.740303 297.442931 
L 259.506809 300.059677 
L 258.956987 298.960033 
" clip-path="url(#p2c35c469f7)" style="fill: #0000ff"/>
    <path d="M 258.956987 279.769224 
L 264.19048 277.152477 
L 263.090836 276.327743 
L 269.413792 275.228099 
L 264.740303 279.626677 
L 264.740303 278.252121 
L 259.506809 280.868868 
L 258.956987 279.769224 
" clip-path="url(#p2c35c469f7)" style="fill: #0000ff"/>
    <path d="M 258.956987 260.578414 
L 264.19048 257.961668 
L 263.090836 257.136934 
L 269.413792 256.03729 
L 264.740303 260.435868 
L 264.740303 259.061312 
L 259.506809 261.678059 
L 258.956987 260.578414 
" clip-path="url(#p2c35c469f7)" style="fill: #0000ff"/>
    <path d="M 258.956987 241.387605 
L 264.19048 238.770858 
L 263.090836 237.946125 
L 269.413792 236.846481 
L 264.740303 241.245059 
L 264.740303 239.870503 
L 259.506809 242.48725 
L 258.956987 241.387605 
" clip-path="url(#p2c35c469f7)" style="fill: #0000ff"/>
    <path d="M 258.956987 222.196796 
L 264.19048 219.580049 
L 263.090836 218.755316 
L 269.413792 217.655671 
L 264.740303 222.05425 
L 264.740303 220.679694 
L 259.506809 223.296441 
L 258.956987 222.196796 
" clip-path="url(#p2c35c469f7)" style="fill: #0000ff"/>
    <path d="M 258.956987 203.005987 
L 264.19048 200.38924 
L 263.090836 199.564507 
L 269.413792 198.464862 
L 264.740303 202.86344 
L 264.740303 201.488885 
L 259.506809 204.105631 
L 258.956987 203.005987 
" clip-path="url(#p2c35c469f7)" style="fill: #0000ff"/>
    <path d="M 258.956987 183.815178 
L 264.19048 181.198431 
L 263.090836 180.373698 
L 269.413792 179.274053 
L 264.740303 183.672631 
L 264.740303 182.298075 
L 259.506809 184.914822 
L 258.956987 183.815178 
" clip-path="url(#p2c35c469f7)" style="fill: #0000ff"/>
    <path d="M 258.956987 164.624369 
L 264.19048 162.007622 
L 263.090836 161.182888 
L 269.413792 160.083244 
L 264.740303 164.481822 
L 264.740303 163.107266 
L 259.506809 165.724013 
L 258.956987 164.624369 
" clip-path="url(#p2c35c469f7)" style="fill: #0000ff"/>
    <path d="M 258.956987 145.433559 
L 264.19048 142.816813 
L 263.090836 141.992079 
L 269.413792 140.892435 
L 264.740303 145.291013 
L 264.740303 143.916457 
L 259.506809 146.533204 
L 258.956987 145.433559 
" clip-path="url(#p2c35c469f7)" style="fill: #0000ff"/>
    <path d="M 258.956987 126.24275 
L 264.19048 123.626003 
L 263.090836 122.80127 
L 269.413792 121.701625 
L 264.740303 126.100204 
L 264.740303 124.725648 
L 259.506809 127.342395 
L 258.956987 126.24275 
" clip-path="url(#p2c35c469f7)" style="fill: #0000ff"/>
    <path d="M 258.956987 107.051941 
L 264.19048 104.435194 
L 263.090836 103.610461 
L 269.413792 102.510816 
L 264.740303 106.909394 
L 264.740303 105.534839 
L 259.506809 108.151586 
L 258.956987 107.051941 
" clip-path="url(#p2c35c469f7)" style="fill: #0000ff"/>
    <path d="M 258.956987 87.861132 
L 264.19048 85.244385 
L 263.090836 84.419652 
L 269.413792 83.320007 
L 264.740303 87.718585 
L 264.740303 86.34403 
L 259.506809 88.960776 
L 258.956987 87.861132 
" clip-path="url(#p2c35c469f7)" style="fill: #0000ff"/>
    <path d="M 258.956987 68.670323 
L 264.19048 66.053576 
L 263.090836 65.228842 
L 269.413792 64.129198 
L 264.740303 68.527776 
L 264.740303 67.15322 
L 259.506809 69.769967 
L 258.956987 68.670323 
" clip-path="url(#p2c35c469f7)" style="fill: #0000ff"/>
    <path d="M 258.956987 49.479513 
L 264.19048 46.862767 
L 263.090836 46.038033 
L 269.413792 44.938389 
L 264.740303 49.336967 
L 264.740303 47.962411 
L 259.506809 50.579158 
L 258.956987 49.479513 
" clip-path="url(#p2c35c469f7)" style="fill: #0000ff"/>
    <path d="M 278.147796 318.150842 
L 283.381289 315.534095 
L 282.281645 314.709362 
L 288.604601 313.609717 
L 283.931112 318.008296 
L 283.931112 316.63374 
L 278.697618 319.250487 
L 278.147796 318.150842 
" clip-path="url(#p2c35c469f7)" style="fill: #0000ff"/>
    <path d="M 278.147796 298.960033 
L 283.381289 296.343286 
L 282.281645 295.518553 
L 288.604601 294.418908 
L 283.931112 298.817486 
L 283.931112 297.442931 
L 278.697618 300.059677 
L 278.147796 298.960033 
" clip-path="url(#p2c35c469f7)" style="fill: #0000ff"/>
    <path d="M 278.147796 279.769224 
L 283.381289 277.152477 
L 282.281645 276.327743 
L 288.604601 275.228099 
L 283.931112 279.626677 
L 283.931112 278.252121 
L 278.697618 280.868868 
L 278.147796 279.769224 
" clip-path="url(#p2c35c469f7)" style="fill: #0000ff"/>
    <path d="M 278.147796 260.578414 
L 283.381289 257.961668 
L 282.281645 257.136934 
L 288.604601 256.03729 
L 283.931112 260.435868 
L 283.931112 259.061312 
L 278.697618 261.678059 
L 278.147796 260.578414 
" clip-path="url(#p2c35c469f7)" style="fill: #0000ff"/>
    <path d="M 278.147796 241.387605 
L 283.381289 238.770858 
L 282.281645 237.946125 
L 288.604601 236.846481 
L 283.931112 241.245059 
L 283.931112 239.870503 
L 278.697618 242.48725 
L 278.147796 241.387605 
" clip-path="url(#p2c35c469f7)" style="fill: #0000ff"/>
    <path d="M 278.147796 222.196796 
L 283.381289 219.580049 
L 282.281645 218.755316 
L 288.604601 217.655671 
L 283.931112 222.05425 
L 283.931112 220.679694 
L 278.697618 223.296441 
L 278.147796 222.196796 
" clip-path="url(#p2c35c469f7)" style="fill: #0000ff"/>
    <path d="M 278.147796 203.005987 
L 283.381289 200.38924 
L 282.281645 199.564507 
L 288.604601 198.464862 
L 283.931112 202.86344 
L 283.931112 201.488885 
L 278.697618 204.105631 
L 278.147796 203.005987 
" clip-path="url(#p2c35c469f7)" style="fill: #0000ff"/>
    <path d="M 278.147796 183.815178 
L 283.381289 181.198431 
L 282.281645 180.373698 
L 288.604601 179.274053 
L 283.931112 183.672631 
L 283.931112 182.298075 
L 278.697618 184.914822 
L 278.147796 183.815178 
" clip-path="url(#p2c35c469f7)" style="fill: #0000ff"/>
    <path d="M 278.147796 164.624369 
L 283.381289 162.007622 
L 282.281645 161.182888 
L 288.604601 160.083244 
L 283.931112 164.481822 
L 283.931112 163.107266 
L 278.697618 165.724013 
L 278.147796 164.624369 
" clip-path="url(#p2c35c469f7)" style="fill: #0000ff"/>
    <path d="M 278.147796 145.433559 
L 283.381289 142.816813 
L 282.281645 141.992079 
L 288.604601 140.892435 
L 283.931112 145.291013 
L 283.931112 143.916457 
L 278.697618 146.533204 
L 278.147796 145.433559 
" clip-path="url(#p2c35c469f7)" style="fill: #0000ff"/>
    <path d="M 278.147796 126.24275 
L 283.381289 123.626003 
L 282.281645 122.80127 
L 288.604601 121.701625 
L 283.931112 126.100204 
L 283.931112 124.725648 
L 278.697618 127.342395 
L 278.147796 126.24275 
" clip-path="url(#p2c35c469f7)" style="fill: #0000ff"/>
    <path d="M 278.147796 107.051941 
L 283.381289 104.435194 
L 282.281645 103.610461 
L 288.604601 102.510816 
L 283.931112 106.909394 
L 283.931112 105.534839 
L 278.697618 108.151586 
L 278.147796 107.051941 
" clip-path="url(#p2c35c469f7)" style="fill: #0000ff"/>
    <path d="M 278.147796 87.861132 
L 283.381289 85.244385 
L 282.281645 84.419652 
L 288.604601 83.320007 
L 283.931112 87.718585 
L 283.931112 86.34403 
L 278.697618 88.960776 
L 278.147796 87.861132 
" clip-path="url(#p2c35c469f7)" style="fill: #0000ff"/>
    <path d="M 278.147796 68.670323 
L 283.381289 66.053576 
L 282.281645 65.228842 
L 288.604601 64.129198 
L 283.931112 68.527776 
L 283.931112 67.15322 
L 278.697618 69.769967 
L 278.147796 68.670323 
" clip-path="url(#p2c35c469f7)" style="fill: #0000ff"/>
    <path d="M 278.147796 49.479513 
L 283.381289 46.862767 
L 282.281645 46.038033 
L 288.604601 44.938389 
L 283.931112 49.336967 
L 283.931112 47.962411 
L 278.697618 50.579158 
L 278.147796 49.479513 
" clip-path="url(#p2c35c469f7)" style="fill: #0000ff"/>
    <path d="M 297.338605 318.150842 
L 302.572099 315.534095 
L 301.472454 314.709362 
L 307.79541 313.609717 
L 303.121921 318.008296 
L 303.121921 316.63374 
L 297.888427 319.250487 
L 297.338605 318.150842 
" clip-path="url(#p2c35c469f7)" style="fill: #0000ff"/>
    <path d="M 297.338605 298.960033 
L 302.572099 296.343286 
L 301.472454 295.518553 
L 307.79541 294.418908 
L 303.121921 298.817486 
L 303.121921 297.442931 
L 297.888427 300.059677 
L 297.338605 298.960033 
" clip-path="url(#p2c35c469f7)" style="fill: #0000ff"/>
    <path d="M 297.338605 279.769224 
L 302.572099 277.152477 
L 301.472454 276.327743 
L 307.79541 275.228099 
L 303.121921 279.626677 
L 303.121921 278.252121 
L 297.888427 280.868868 
L 297.338605 279.769224 
" clip-path="url(#p2c35c469f7)" style="fill: #0000ff"/>
    <path d="M 297.338605 260.578414 
L 302.572099 257.961668 
L 301.472454 257.136934 
L 307.79541 256.03729 
L 303.121921 260.435868 
L 303.121921 259.061312 
L 297.888427 261.678059 
L 297.338605 260.578414 
" clip-path="url(#p2c35c469f7)" style="fill: #0000ff"/>
    <path d="M 297.338605 241.387605 
L 302.572099 238.770858 
L 301.472454 237.946125 
L 307.79541 236.846481 
L 303.121921 241.245059 
L 303.121921 239.870503 
L 297.888427 242.48725 
L 297.338605 241.387605 
" clip-path="url(#p2c35c469f7)" style="fill: #0000ff"/>
    <path d="M 297.338605 222.196796 
L 302.572099 219.580049 
L 301.472454 218.755316 
L 307.79541 217.655671 
L 303.121921 222.05425 
L 303.121921 220.679694 
L 297.888427 223.296441 
L 297.338605 222.196796 
" clip-path="url(#p2c35c469f7)" style="fill: #0000ff"/>
    <path d="M 297.338605 203.005987 
L 302.572099 200.38924 
L 301.472454 199.564507 
L 307.79541 198.464862 
L 303.121921 202.86344 
L 303.121921 201.488885 
L 297.888427 204.105631 
L 297.338605 203.005987 
" clip-path="url(#p2c35c469f7)" style="fill: #0000ff"/>
    <path d="M 297.338605 183.815178 
L 302.572099 181.198431 
L 301.472454 180.373698 
L 307.79541 179.274053 
L 303.121921 183.672631 
L 303.121921 182.298075 
L 297.888427 184.914822 
L 297.338605 183.815178 
" clip-path="url(#p2c35c469f7)" style="fill: #0000ff"/>
    <path d="M 297.338605 164.624369 
L 302.572099 162.007622 
L 301.472454 161.182888 
L 307.79541 160.083244 
L 303.121921 164.481822 
L 303.121921 163.107266 
L 297.888427 165.724013 
L 297.338605 164.624369 
" clip-path="url(#p2c35c469f7)" style="fill: #0000ff"/>
    <path d="M 297.338605 145.433559 
L 302.572099 142.816813 
L 301.472454 141.992079 
L 307.79541 140.892435 
L 303.121921 145.291013 
L 303.121921 143.916457 
L 297.888427 146.533204 
L 297.338605 145.433559 
" clip-path="url(#p2c35c469f7)" style="fill: #0000ff"/>
    <path d="M 297.338605 126.24275 
L 302.572099 123.626003 
L 301.472454 122.80127 
L 307.79541 121.701625 
L 303.121921 126.100204 
L 303.121921 124.725648 
L 297.888427 127.342395 
L 297.338605 126.24275 
" clip-path="url(#p2c35c469f7)" style="fill: #0000ff"/>
    <path d="M 297.338605 107.051941 
L 302.572099 104.435194 
L 301.472454 103.610461 
L 307.79541 102.510816 
L 303.121921 106.909394 
L 303.121921 105.534839 
L 297.888427 108.151586 
L 297.338605 107.051941 
" clip-path="url(#p2c35c469f7)" style="fill: #0000ff"/>
    <path d="M 297.338605 87.861132 
L 302.572099 85.244385 
L 301.472454 84.419652 
L 307.79541 83.320007 
L 303.121921 87.718585 
L 303.121921 86.34403 
L 297.888427 88.960776 
L 297.338605 87.861132 
" clip-path="url(#p2c35c469f7)" style="fill: #0000ff"/>
    <path d="M 297.338605 68.670323 
L 302.572099 66.053576 
L 301.472454 65.228842 
L 307.79541 64.129198 
L 303.121921 68.527776 
L 303.121921 67.15322 
L 297.888427 69.769967 
L 297.338605 68.670323 
" clip-path="url(#p2c35c469f7)" style="fill: #0000ff"/>
    <path d="M 297.338605 49.479513 
L 302.572099 46.862767 
L 301.472454 46.038033 
L 307.79541 44.938389 
L 303.121921 49.336967 
L 303.121921 47.962411 
L 297.888427 50.579158 
L 297.338605 49.479513 
" clip-path="url(#p2c35c469f7)" style="fill: #0000ff"/>
   </g>
   <g id="matplotlib.axis_1">
    <g id="xtick_1">
     <g id="line2d_1">
      <defs>
       <path id="m1415f66805" d="M 0 0 
L 0 3.5 
" style="stroke: #000000; stroke-width: 0.8"/>
      </defs>
      <g>
       <use xlink:href="#m1415f66805" x="28.942188" y="157.497867" style="stroke: #000000; stroke-width: 0.8"/>
      </g>
     </g>
    </g>
    <g id="xtick_2">
     <g id="line2d_2">
      <g>
       <use xlink:href="#m1415f66805" x="82.676453" y="157.497867" style="stroke: #000000; stroke-width: 0.8"/>
      </g>
     </g>
     <g id="text_1">
      <!-- 1 -->
      <g transform="translate(79.495203 172.096305)scale(0.1 -0.1)">
       <defs>
        <path id="DejaVuSans-31" d="M 794 531 
L 1825 531 
L 1825 4091 
L 703 3866 
L 703 4441 
L 1819 4666 
L 2450 4666 
L 2450 531 
L 3481 531 
L 3481 0 
L 794 0 
L 794 531 
z
" transform="scale(0.015625)"/>
       </defs>
       <use xlink:href="#DejaVuSans-31"/>
      </g>
     </g>
    </g>
    <g id="xtick_3">
     <g id="line2d_3">
      <g>
       <use xlink:href="#m1415f66805" x="136.410719" y="157.497867" style="stroke: #000000; stroke-width: 0.8"/>
      </g>
     </g>
     <g id="text_2">
      <!-- 2 -->
      <g transform="translate(133.229469 172.096305)scale(0.1 -0.1)">
       <defs>
        <path id="DejaVuSans-32" d="M 1228 531 
L 3431 531 
L 3431 0 
L 469 0 
L 469 531 
Q 828 903 1448 1529 
Q 2069 2156 2228 2338 
Q 2531 2678 2651 2914 
Q 2772 3150 2772 3378 
Q 2772 3750 2511 3984 
Q 2250 4219 1831 4219 
Q 1534 4219 1204 4116 
Q 875 4013 500 3803 
L 500 4441 
Q 881 4594 1212 4672 
Q 1544 4750 1819 4750 
Q 2544 4750 2975 4387 
Q 3406 4025 3406 3419 
Q 3406 3131 3298 2873 
Q 3191 2616 2906 2266 
Q 2828 2175 2409 1742 
Q 1991 1309 1228 531 
z
" transform="scale(0.015625)"/>
       </defs>
       <use xlink:href="#DejaVuSans-32"/>
      </g>
     </g>
    </g>
    <g id="xtick_4">
     <g id="line2d_4">
      <g>
       <use xlink:href="#m1415f66805" x="190.144985" y="157.497867" style="stroke: #000000; stroke-width: 0.8"/>
      </g>
     </g>
     <g id="text_3">
      <!-- 3 -->
      <g transform="translate(186.963735 172.096305)scale(0.1 -0.1)">
       <defs>
        <path id="DejaVuSans-33" d="M 2597 2516 
Q 3050 2419 3304 2112 
Q 3559 1806 3559 1356 
Q 3559 666 3084 287 
Q 2609 -91 1734 -91 
Q 1441 -91 1130 -33 
Q 819 25 488 141 
L 488 750 
Q 750 597 1062 519 
Q 1375 441 1716 441 
Q 2309 441 2620 675 
Q 2931 909 2931 1356 
Q 2931 1769 2642 2001 
Q 2353 2234 1838 2234 
L 1294 2234 
L 1294 2753 
L 1863 2753 
Q 2328 2753 2575 2939 
Q 2822 3125 2822 3475 
Q 2822 3834 2567 4026 
Q 2313 4219 1838 4219 
Q 1578 4219 1281 4162 
Q 984 4106 628 3988 
L 628 4550 
Q 988 4650 1302 4700 
Q 1616 4750 1894 4750 
Q 2613 4750 3031 4423 
Q 3450 4097 3450 3541 
Q 3450 3153 3228 2886 
Q 3006 2619 2597 2516 
z
" transform="scale(0.015625)"/>
       </defs>
       <use xlink:href="#DejaVuSans-33"/>
      </g>
     </g>
    </g>
    <g id="xtick_5">
     <g id="line2d_5">
      <g>
       <use xlink:href="#m1415f66805" x="243.87925" y="157.497867" style="stroke: #000000; stroke-width: 0.8"/>
      </g>
     </g>
     <g id="text_4">
      <!-- 4 -->
      <g transform="translate(240.698 172.096305)scale(0.1 -0.1)">
       <defs>
        <path id="DejaVuSans-34" d="M 2419 4116 
L 825 1625 
L 2419 1625 
L 2419 4116 
z
M 2253 4666 
L 3047 4666 
L 3047 1625 
L 3713 1625 
L 3713 1100 
L 3047 1100 
L 3047 0 
L 2419 0 
L 2419 1100 
L 313 1100 
L 313 1709 
L 2253 4666 
z
" transform="scale(0.015625)"/>
       </defs>
       <use xlink:href="#DejaVuSans-34"/>
      </g>
     </g>
    </g>
    <g id="xtick_6">
     <g id="line2d_6">
      <g>
       <use xlink:href="#m1415f66805" x="297.613516" y="157.497867" style="stroke: #000000; stroke-width: 0.8"/>
      </g>
     </g>
     <g id="text_5">
      <!-- 5 -->
      <g transform="translate(294.432266 172.096305)scale(0.1 -0.1)">
       <defs>
        <path id="DejaVuSans-35" d="M 691 4666 
L 3169 4666 
L 3169 4134 
L 1269 4134 
L 1269 2991 
Q 1406 3038 1543 3061 
Q 1681 3084 1819 3084 
Q 2600 3084 3056 2656 
Q 3513 2228 3513 1497 
Q 3513 744 3044 326 
Q 2575 -91 1722 -91 
Q 1428 -91 1123 -41 
Q 819 9 494 109 
L 494 744 
Q 775 591 1075 516 
Q 1375 441 1709 441 
Q 2250 441 2565 725 
Q 2881 1009 2881 1497 
Q 2881 1984 2565 2268 
Q 2250 2553 1709 2553 
Q 1456 2553 1204 2497 
Q 953 2441 691 2322 
L 691 4666 
z
" transform="scale(0.015625)"/>
       </defs>
       <use xlink:href="#DejaVuSans-35"/>
      </g>
     </g>
    </g>
    <g id="xtick_7">
     <g id="line2d_7">
      <defs>
       <path id="mb0026ca0e6" d="M 0 0 
L 0 2 
" style="stroke: #000000; stroke-width: 0.6"/>
      </defs>
      <g>
       <use xlink:href="#mb0026ca0e6" x="18.195334" y="157.497867" style="stroke: #000000; stroke-width: 0.6"/>
      </g>
     </g>
    </g>
    <g id="xtick_8">
     <g id="line2d_8">
      <g>
       <use xlink:href="#mb0026ca0e6" x="39.689041" y="157.497867" style="stroke: #000000; stroke-width: 0.6"/>
      </g>
     </g>
    </g>
    <g id="xtick_9">
     <g id="line2d_9">
      <g>
       <use xlink:href="#mb0026ca0e6" x="50.435894" y="157.497867" style="stroke: #000000; stroke-width: 0.6"/>
      </g>
     </g>
    </g>
    <g id="xtick_10">
     <g id="line2d_10">
      <g>
       <use xlink:href="#mb0026ca0e6" x="61.182747" y="157.497867" style="stroke: #000000; stroke-width: 0.6"/>
      </g>
     </g>
    </g>
    <g id="xtick_11">
     <g id="line2d_11">
      <g>
       <use xlink:href="#mb0026ca0e6" x="71.9296" y="157.497867" style="stroke: #000000; stroke-width: 0.6"/>
      </g>
     </g>
    </g>
    <g id="xtick_12">
     <g id="line2d_12">
      <g>
       <use xlink:href="#mb0026ca0e6" x="93.423306" y="157.497867" style="stroke: #000000; stroke-width: 0.6"/>
      </g>
     </g>
    </g>
    <g id="xtick_13">
     <g id="line2d_13">
      <g>
       <use xlink:href="#mb0026ca0e6" x="104.17016" y="157.497867" style="stroke: #000000; stroke-width: 0.6"/>
      </g>
     </g>
    </g>
    <g id="xtick_14">
     <g id="line2d_14">
      <g>
       <use xlink:href="#mb0026ca0e6" x="114.917013" y="157.497867" style="stroke: #000000; stroke-width: 0.6"/>
      </g>
     </g>
    </g>
    <g id="xtick_15">
     <g id="line2d_15">
      <g>
       <use xlink:href="#mb0026ca0e6" x="125.663866" y="157.497867" style="stroke: #000000; stroke-width: 0.6"/>
      </g>
     </g>
    </g>
    <g id="xtick_16">
     <g id="line2d_16">
      <g>
       <use xlink:href="#mb0026ca0e6" x="147.157572" y="157.497867" style="stroke: #000000; stroke-width: 0.6"/>
      </g>
     </g>
    </g>
    <g id="xtick_17">
     <g id="line2d_17">
      <g>
       <use xlink:href="#mb0026ca0e6" x="157.904425" y="157.497867" style="stroke: #000000; stroke-width: 0.6"/>
      </g>
     </g>
    </g>
    <g id="xtick_18">
     <g id="line2d_18">
      <g>
       <use xlink:href="#mb0026ca0e6" x="168.651278" y="157.497867" style="stroke: #000000; stroke-width: 0.6"/>
      </g>
     </g>
    </g>
    <g id="xtick_19">
     <g id="line2d_19">
      <g>
       <use xlink:href="#mb0026ca0e6" x="179.398132" y="157.497867" style="stroke: #000000; stroke-width: 0.6"/>
      </g>
     </g>
    </g>
    <g id="xtick_20">
     <g id="line2d_20">
      <g>
       <use xlink:href="#mb0026ca0e6" x="200.891838" y="157.497867" style="stroke: #000000; stroke-width: 0.6"/>
      </g>
     </g>
    </g>
    <g id="xtick_21">
     <g id="line2d_21">
      <g>
       <use xlink:href="#mb0026ca0e6" x="211.638691" y="157.497867" style="stroke: #000000; stroke-width: 0.6"/>
      </g>
     </g>
    </g>
    <g id="xtick_22">
     <g id="line2d_22">
      <g>
       <use xlink:href="#mb0026ca0e6" x="222.385544" y="157.497867" style="stroke: #000000; stroke-width: 0.6"/>
      </g>
     </g>
    </g>
    <g id="xtick_23">
     <g id="line2d_23">
      <g>
       <use xlink:href="#mb0026ca0e6" x="233.132397" y="157.497867" style="stroke: #000000; stroke-width: 0.6"/>
      </g>
     </g>
    </g>
    <g id="xtick_24">
     <g id="line2d_24">
      <g>
       <use xlink:href="#mb0026ca0e6" x="254.626104" y="157.497867" style="stroke: #000000; stroke-width: 0.6"/>
      </g>
     </g>
    </g>
    <g id="xtick_25">
     <g id="line2d_25">
      <g>
       <use xlink:href="#mb0026ca0e6" x="265.372957" y="157.497867" style="stroke: #000000; stroke-width: 0.6"/>
      </g>
     </g>
    </g>
    <g id="xtick_26">
     <g id="line2d_26">
      <g>
       <use xlink:href="#mb0026ca0e6" x="276.11981" y="157.497867" style="stroke: #000000; stroke-width: 0.6"/>
      </g>
     </g>
    </g>
    <g id="xtick_27">
     <g id="line2d_27">
      <g>
       <use xlink:href="#mb0026ca0e6" x="286.866663" y="157.497867" style="stroke: #000000; stroke-width: 0.6"/>
      </g>
     </g>
    </g>
    <g id="xtick_28">
     <g id="line2d_28">
      <g>
       <use xlink:href="#mb0026ca0e6" x="308.360369" y="157.497867" style="stroke: #000000; stroke-width: 0.6"/>
      </g>
     </g>
    </g>
    <g id="text_6">
     <!-- $x$ -->
     <g transform="translate(324.957852 157.497867)scale(0.16 -0.16)">
      <defs>
       <path id="Cmmi10-78" d="M 500 184 
Q 613 97 819 97 
Q 1019 97 1172 289 
Q 1325 481 1381 709 
L 1672 1844 
Q 1741 2153 1741 2266 
Q 1741 2425 1652 2544 
Q 1563 2663 1403 2663 
Q 1200 2663 1022 2536 
Q 844 2409 722 2214 
Q 600 2019 550 1819 
Q 538 1778 500 1778 
L 422 1778 
Q 372 1778 372 1838 
L 372 1856 
Q 434 2094 584 2320 
Q 734 2547 951 2687 
Q 1169 2828 1416 2828 
Q 1650 2828 1839 2703 
Q 2028 2578 2106 2363 
Q 2216 2559 2386 2693 
Q 2556 2828 2759 2828 
Q 2897 2828 3040 2779 
Q 3184 2731 3275 2631 
Q 3366 2531 3366 2381 
Q 3366 2219 3261 2101 
Q 3156 1984 2994 1984 
Q 2891 1984 2822 2050 
Q 2753 2116 2753 2216 
Q 2753 2350 2845 2451 
Q 2938 2553 3066 2572 
Q 2950 2663 2747 2663 
Q 2541 2663 2389 2472 
Q 2238 2281 2175 2047 
L 1894 916 
Q 1825 659 1825 494 
Q 1825 331 1917 214 
Q 2009 97 2163 97 
Q 2463 97 2698 361 
Q 2934 625 3009 941 
Q 3022 978 3059 978 
L 3138 978 
Q 3163 978 3178 961 
Q 3194 944 3194 922 
Q 3194 916 3188 903 
Q 3097 522 2806 225 
Q 2516 -72 2150 -72 
Q 1916 -72 1727 54 
Q 1538 181 1459 397 
Q 1359 209 1182 68 
Q 1006 -72 806 -72 
Q 669 -72 523 -23 
Q 378 25 287 125 
Q 197 225 197 378 
Q 197 528 301 651 
Q 406 775 563 775 
Q 669 775 741 711 
Q 813 647 813 544 
Q 813 409 723 309 
Q 634 209 500 184 
z
" transform="scale(0.015625)"/>
      </defs>
      <use xlink:href="#Cmmi10-78" transform="translate(0 0.8125)"/>
     </g>
    </g>
   </g>
   <g id="matplotlib.axis_2">
    <g id="ytick_1">
     <g id="line2d_29">
      <defs>
       <path id="m6a4d926cb5" d="M 0 0 
L -3.5 0 
" style="stroke: #000000; stroke-width: 0.8"/>
      </defs>
      <g>
       <use xlink:href="#m6a4d926cb5" x="28.942188" y="318.700664" style="stroke: #000000; stroke-width: 0.8"/>
      </g>
     </g>
     <g id="text_7">
      <!-- 3 -->
      <g transform="translate(7.2 322.499883)scale(0.1 -0.1)">
       <defs>
        <path id="DejaVuSans-2212" d="M 678 2272 
L 4684 2272 
L 4684 1741 
L 678 1741 
L 678 2272 
z
" transform="scale(0.015625)"/>
       </defs>
       <use xlink:href="#DejaVuSans-2212"/>
       <use xlink:href="#DejaVuSans-33" x="83.789062"/>
      </g>
     </g>
    </g>
    <g id="ytick_2">
     <g id="line2d_30">
      <g>
       <use xlink:href="#m6a4d926cb5" x="28.942188" y="264.966399" style="stroke: #000000; stroke-width: 0.8"/>
      </g>
     </g>
     <g id="text_8">
      <!-- 2 -->
      <g transform="translate(7.2 268.765617)scale(0.1 -0.1)">
       <use xlink:href="#DejaVuSans-2212"/>
       <use xlink:href="#DejaVuSans-32" x="83.789062"/>
      </g>
     </g>
    </g>
    <g id="ytick_3">
     <g id="line2d_31">
      <g>
       <use xlink:href="#m6a4d926cb5" x="28.942188" y="211.232133" style="stroke: #000000; stroke-width: 0.8"/>
      </g>
     </g>
     <g id="text_9">
      <!-- 1 -->
      <g transform="translate(7.2 215.031352)scale(0.1 -0.1)">
       <use xlink:href="#DejaVuSans-2212"/>
       <use xlink:href="#DejaVuSans-31" x="83.789062"/>
      </g>
     </g>
    </g>
    <g id="ytick_4">
     <g id="line2d_32">
      <g>
       <use xlink:href="#m6a4d926cb5" x="28.942188" y="157.497867" style="stroke: #000000; stroke-width: 0.8"/>
      </g>
     </g>
    </g>
    <g id="ytick_5">
     <g id="line2d_33">
      <g>
       <use xlink:href="#m6a4d926cb5" x="28.942188" y="103.763601" style="stroke: #000000; stroke-width: 0.8"/>
      </g>
     </g>
     <g id="text_10">
      <!-- 1 -->
      <g transform="translate(15.579688 107.56282)scale(0.1 -0.1)">
       <use xlink:href="#DejaVuSans-31"/>
      </g>
     </g>
    </g>
    <g id="ytick_6">
     <g id="line2d_34">
      <g>
       <use xlink:href="#m6a4d926cb5" x="28.942188" y="50.029336" style="stroke: #000000; stroke-width: 0.8"/>
      </g>
     </g>
     <g id="text_11">
      <!-- 2 -->
      <g transform="translate(15.579688 53.828554)scale(0.1 -0.1)">
       <use xlink:href="#DejaVuSans-32"/>
      </g>
     </g>
    </g>
    <g id="ytick_7">
     <g id="line2d_35">
      <defs>
       <path id="macb48c8557" d="M 0 0 
L -2 0 
" style="stroke: #000000; stroke-width: 0.6"/>
      </defs>
      <g>
       <use xlink:href="#macb48c8557" x="28.942188" y="329.447517" style="stroke: #000000; stroke-width: 0.6"/>
      </g>
     </g>
    </g>
    <g id="ytick_8">
     <g id="line2d_36">
      <g>
       <use xlink:href="#macb48c8557" x="28.942188" y="307.953811" style="stroke: #000000; stroke-width: 0.6"/>
      </g>
     </g>
    </g>
    <g id="ytick_9">
     <g id="line2d_37">
      <g>
       <use xlink:href="#macb48c8557" x="28.942188" y="297.206958" style="stroke: #000000; stroke-width: 0.6"/>
      </g>
     </g>
    </g>
    <g id="ytick_10">
     <g id="line2d_38">
      <g>
       <use xlink:href="#macb48c8557" x="28.942188" y="286.460105" style="stroke: #000000; stroke-width: 0.6"/>
      </g>
     </g>
    </g>
    <g id="ytick_11">
     <g id="line2d_39">
      <g>
       <use xlink:href="#macb48c8557" x="28.942188" y="275.713252" style="stroke: #000000; stroke-width: 0.6"/>
      </g>
     </g>
    </g>
    <g id="ytick_12">
     <g id="line2d_40">
      <g>
       <use xlink:href="#macb48c8557" x="28.942188" y="254.219545" style="stroke: #000000; stroke-width: 0.6"/>
      </g>
     </g>
    </g>
    <g id="ytick_13">
     <g id="line2d_41">
      <g>
       <use xlink:href="#macb48c8557" x="28.942188" y="243.472692" style="stroke: #000000; stroke-width: 0.6"/>
      </g>
     </g>
    </g>
    <g id="ytick_14">
     <g id="line2d_42">
      <g>
       <use xlink:href="#macb48c8557" x="28.942188" y="232.725839" style="stroke: #000000; stroke-width: 0.6"/>
      </g>
     </g>
    </g>
    <g id="ytick_15">
     <g id="line2d_43">
      <g>
       <use xlink:href="#macb48c8557" x="28.942188" y="221.978986" style="stroke: #000000; stroke-width: 0.6"/>
      </g>
     </g>
    </g>
    <g id="ytick_16">
     <g id="line2d_44">
      <g>
       <use xlink:href="#macb48c8557" x="28.942188" y="200.48528" style="stroke: #000000; stroke-width: 0.6"/>
      </g>
     </g>
    </g>
    <g id="ytick_17">
     <g id="line2d_45">
      <g>
       <use xlink:href="#macb48c8557" x="28.942188" y="189.738427" style="stroke: #000000; stroke-width: 0.6"/>
      </g>
     </g>
    </g>
    <g id="ytick_18">
     <g id="line2d_46">
      <g>
       <use xlink:href="#macb48c8557" x="28.942188" y="178.991573" style="stroke: #000000; stroke-width: 0.6"/>
      </g>
     </g>
    </g>
    <g id="ytick_19">
     <g id="line2d_47">
      <g>
       <use xlink:href="#macb48c8557" x="28.942188" y="168.24472" style="stroke: #000000; stroke-width: 0.6"/>
      </g>
     </g>
    </g>
    <g id="ytick_20">
     <g id="line2d_48">
      <g>
       <use xlink:href="#macb48c8557" x="28.942188" y="146.751014" style="stroke: #000000; stroke-width: 0.6"/>
      </g>
     </g>
    </g>
    <g id="ytick_21">
     <g id="line2d_49">
      <g>
       <use xlink:href="#macb48c8557" x="28.942188" y="136.004161" style="stroke: #000000; stroke-width: 0.6"/>
      </g>
     </g>
    </g>
    <g id="ytick_22">
     <g id="line2d_50">
      <g>
       <use xlink:href="#macb48c8557" x="28.942188" y="125.257308" style="stroke: #000000; stroke-width: 0.6"/>
      </g>
     </g>
    </g>
    <g id="ytick_23">
     <g id="line2d_51">
      <g>
       <use xlink:href="#macb48c8557" x="28.942188" y="114.510455" style="stroke: #000000; stroke-width: 0.6"/>
      </g>
     </g>
    </g>
    <g id="ytick_24">
     <g id="line2d_52">
      <g>
       <use xlink:href="#macb48c8557" x="28.942188" y="93.016748" style="stroke: #000000; stroke-width: 0.6"/>
      </g>
     </g>
    </g>
    <g id="ytick_25">
     <g id="line2d_53">
      <g>
       <use xlink:href="#macb48c8557" x="28.942188" y="82.269895" style="stroke: #000000; stroke-width: 0.6"/>
      </g>
     </g>
    </g>
    <g id="ytick_26">
     <g id="line2d_54">
      <g>
       <use xlink:href="#macb48c8557" x="28.942188" y="71.523042" style="stroke: #000000; stroke-width: 0.6"/>
      </g>
     </g>
    </g>
    <g id="ytick_27">
     <g id="line2d_55">
      <g>
       <use xlink:href="#macb48c8557" x="28.942188" y="60.776189" style="stroke: #000000; stroke-width: 0.6"/>
      </g>
     </g>
    </g>
    <g id="ytick_28">
     <g id="line2d_56">
      <g>
       <use xlink:href="#macb48c8557" x="28.942188" y="39.282483" style="stroke: #000000; stroke-width: 0.6"/>
      </g>
     </g>
    </g>
    <g id="text_12">
     <!-- $y$ -->
     <g transform="translate(24.942188 19.325)scale(0.16 -0.16)">
      <defs>
       <path id="Cmmi10-79" d="M 538 -916 
Q 672 -1147 1006 -1147 
Q 1309 -1147 1531 -934 
Q 1753 -722 1889 -420 
Q 2025 -119 2100 197 
Q 1816 -72 1484 -72 
Q 1231 -72 1053 15 
Q 875 103 776 276 
Q 678 450 678 697 
Q 678 906 734 1126 
Q 791 1347 892 1617 
Q 994 1888 1069 2088 
Q 1153 2322 1153 2472 
Q 1153 2663 1013 2663 
Q 759 2663 595 2402 
Q 431 2141 353 1819 
Q 341 1778 300 1778 
L 225 1778 
Q 172 1778 172 1838 
L 172 1856 
Q 275 2238 487 2533 
Q 700 2828 1025 2828 
Q 1253 2828 1411 2678 
Q 1569 2528 1569 2297 
Q 1569 2178 1516 2047 
Q 1488 1969 1388 1706 
Q 1288 1444 1234 1272 
Q 1181 1100 1147 934 
Q 1113 769 1113 603 
Q 1113 391 1203 244 
Q 1294 97 1491 97 
Q 1888 97 2203 581 
L 2688 2553 
Q 2709 2638 2787 2698 
Q 2866 2759 2956 2759 
Q 3034 2759 3092 2709 
Q 3150 2659 3150 2578 
Q 3150 2541 3144 2528 
L 2509 -19 
Q 2425 -347 2200 -647 
Q 1975 -947 1658 -1130 
Q 1341 -1313 997 -1313 
Q 831 -1313 668 -1248 
Q 506 -1184 406 -1056 
Q 306 -928 306 -756 
Q 306 -581 409 -453 
Q 513 -325 684 -325 
Q 788 -325 858 -389 
Q 928 -453 928 -556 
Q 928 -703 818 -812 
Q 709 -922 563 -922 
Q 556 -919 550 -917 
Q 544 -916 538 -916 
z
" transform="scale(0.015625)"/>
      </defs>
      <use xlink:href="#Cmmi10-79" transform="translate(0 0.8125)"/>
     </g>
    </g>
   </g>
   <g id="line2d_57">
    <path d="M 82.676453 103.763601 
L 243.87925 103.763601 
L 243.87925 103.763601 
" clip-path="url(#p2c35c469f7)" style="fill: none; stroke: #ff0000; stroke-width: 2; stroke-linecap: square"/>
   </g>
   <g id="patch_3">
    <path d="M 235.819111 103.763601 
Q 239.849181 103.763601 241.643182 103.763601 
" clip-path="url(#p2c35c469f7)" style="fill: none; stroke: #ff0000; stroke-width: 2; stroke-linecap: round"/>
    <path d="M 231.643182 98.763601 
L 241.643182 103.763601 
L 231.643182 108.763601 
L 231.643182 98.763601 
z
" clip-path="url(#p2c35c469f7)" style="fill: #ff0000; stroke: #ff0000; stroke-width: 2; stroke-linecap: round"/>
   </g>
   <g id="line2d_58">
    <path d="M 243.87925 103.763601 
L 243.87925 264.966399 
L 243.87925 264.966399 
" clip-path="url(#p2c35c469f7)" style="fill: none; stroke: #ff0000; stroke-width: 2; stroke-linecap: square"/>
   </g>
   <g id="patch_4">
    <path d="M 243.87925 256.906259 
Q 243.87925 260.936329 243.87925 262.730331 
" clip-path="url(#p2c35c469f7)" style="fill: none; stroke: #ff0000; stroke-width: 2; stroke-linecap: round"/>
    <path d="M 248.87925 252.730331 
L 243.87925 262.730331 
L 238.87925 252.730331 
L 248.87925 252.730331 
z
" clip-path="url(#p2c35c469f7)" style="fill: #ff0000; stroke: #ff0000; stroke-width: 2; stroke-linecap: round"/>
   </g>
   <g id="patch_5">
    <path d="M 28.942188 338.045 
L 28.942188 30.685 
" style="fill: none; stroke: #000000; stroke-width: 0.8; stroke-linejoin: miter; stroke-linecap: square"/>
   </g>
   <g id="patch_6">
    <path d="M 9.597852 157.497867 
L 316.957852 157.497867 
" style="fill: none; stroke: #000000; stroke-width: 0.8; stroke-linejoin: miter; stroke-linecap: square"/>
   </g>
  </g>
 </g>
 <defs>
  <clipPath id="p2c35c469f7">
   <rect x="9.597852" y="30.685" width="307.36" height="307.36"/>
  </clipPath>
 </defs>
</svg>
