<?xml version="1.0" encoding="utf-8" standalone="no"?>
<!DOCTYPE svg PUBLIC "-//W3C//DTD SVG 1.1//EN"
  "http://www.w3.org/Graphics/SVG/1.1/DTD/svg11.dtd">
<svg xmlns:xlink="http://www.w3.org/1999/xlink" width="339.04pt" height="345.245pt" viewBox="0 0 339.04 345.245" xmlns="http://www.w3.org/2000/svg" version="1.1">
 <metadata>
  <rdf:RDF xmlns:dc="http://purl.org/dc/elements/1.1/" xmlns:cc="http://creativecommons.org/ns#" xmlns:rdf="http://www.w3.org/1999/02/22-rdf-syntax-ns#">
   <cc:Work>
    <dc:type rdf:resource="http://purl.org/dc/dcmitype/StillImage"/>
    <dc:date>2025-03-06T19:35:58.729322</dc:date>
    <dc:format>image/svg+xml</dc:format>
    <dc:creator>
     <cc:Agent>
      <dc:title>Matplotlib v3.5.1, https://matplotlib.org/</dc:title>
     </cc:Agent>
    </dc:creator>
   </cc:Work>
  </rdf:RDF>
 </metadata>
 <defs>
  <style type="text/css">*{stroke-linejoin: round; stroke-linecap: butt}</style>
 </defs>
 <g id="figure_1">
  <g id="patch_1">
   <path d="M -0 345.245 
L 339.04 345.245 
L 339.04 0 
L -0 0 
z
" style="fill: #ffffff"/>
  </g>
  <g id="axes_1">
   <g id="patch_2">
    <path d="M 7.2 338.045 
L 314.56 338.045 
L 314.56 30.685 
L 7.2 30.685 
z
" style="fill: #ffffff"/>
   </g>
   <g id="Quiver_1">
    <path d="M 25.092353 320.767367 
L 25.092353 336.579331 
L 26.321793 335.964611 
L 24.477633 342.111811 
L 22.633473 335.964611 
L 23.862913 336.579331 
L 23.862913 320.767367 
L 25.092353 320.767367 
" clip-path="url(#p2074436604)" style="fill: #0000ff"/>
    <path d="M 25.092353 301.281314 
L 25.092353 317.093279 
L 26.321793 316.478559 
L 24.477633 322.625759 
L 22.633473 316.478559 
L 23.862913 317.093279 
L 23.862913 301.281314 
L 25.092353 301.281314 
" clip-path="url(#p2074436604)" style="fill: #0000ff"/>
    <path d="M 25.092353 281.795262 
L 25.092353 297.607226 
L 26.321793 296.992506 
L 24.477633 303.139706 
L 22.633473 296.992506 
L 23.862913 297.607226 
L 23.862913 281.795262 
L 25.092353 281.795262 
" clip-path="url(#p2074436604)" style="fill: #0000ff"/>
    <path d="M 25.092353 262.30921 
L 25.092353 278.121174 
L 26.321793 277.506454 
L 24.477633 283.653654 
L 22.633473 277.506454 
L 23.862913 278.121174 
L 23.862913 262.30921 
L 25.092353 262.30921 
" clip-path="url(#p2074436604)" style="fill: #0000ff"/>
    <path d="M 25.092353 242.823157 
L 25.092353 258.635122 
L 26.321793 258.020402 
L 24.477633 264.167602 
L 22.633473 258.020402 
L 23.862913 258.635122 
L 23.862913 242.823157 
L 25.092353 242.823157 
" clip-path="url(#p2074436604)" style="fill: #0000ff"/>
    <path d="M 25.092353 223.337105 
L 25.092353 239.149069 
L 26.321793 238.534349 
L 24.477633 244.681549 
L 22.633473 238.534349 
L 23.862913 239.149069 
L 23.862913 223.337105 
L 25.092353 223.337105 
" clip-path="url(#p2074436604)" style="fill: #0000ff"/>
    <path d="M 25.092353 203.851052 
L 25.092353 219.663017 
L 26.321793 219.048297 
L 24.477633 225.195497 
L 22.633473 219.048297 
L 23.862913 219.663017 
L 23.862913 203.851052 
L 25.092353 203.851052 
" clip-path="url(#p2074436604)" style="fill: #0000ff"/>
    <path d="M 25.092353 184.365 
L 25.092353 200.176964 
L 26.321793 199.562244 
L 24.477633 205.709444 
L 22.633473 199.562244 
L 23.862913 200.176964 
L 23.862913 184.365 
L 25.092353 184.365 
" clip-path="url(#p2074436604)" style="fill: #0000ff"/>
    <path d="M 25.092353 164.878948 
L 25.092353 180.690912 
L 26.321793 180.076192 
L 24.477633 186.223392 
L 22.633473 180.076192 
L 23.862913 180.690912 
L 23.862913 164.878948 
L 25.092353 164.878948 
" clip-path="url(#p2074436604)" style="fill: #0000ff"/>
    <path d="M 25.092353 145.392895 
L 25.092353 161.20486 
L 26.321793 160.59014 
L 24.477633 166.73734 
L 22.633473 160.59014 
L 23.862913 161.20486 
L 23.862913 145.392895 
L 25.092353 145.392895 
" clip-path="url(#p2074436604)" style="fill: #0000ff"/>
    <path d="M 25.092353 125.906843 
L 25.092353 141.718807 
L 26.321793 141.104087 
L 24.477633 147.251287 
L 22.633473 141.104087 
L 23.862913 141.718807 
L 23.862913 125.906843 
L 25.092353 125.906843 
" clip-path="url(#p2074436604)" style="fill: #0000ff"/>
    <path d="M 25.092353 106.42079 
L 25.092353 122.232755 
L 26.321793 121.618035 
L 24.477633 127.765235 
L 22.633473 121.618035 
L 23.862913 122.232755 
L 23.862913 106.42079 
L 25.092353 106.42079 
" clip-path="url(#p2074436604)" style="fill: #0000ff"/>
    <path d="M 25.092353 86.934738 
L 25.092353 102.746702 
L 26.321793 102.131982 
L 24.477633 108.279182 
L 22.633473 102.131982 
L 23.862913 102.746702 
L 23.862913 86.934738 
L 25.092353 86.934738 
" clip-path="url(#p2074436604)" style="fill: #0000ff"/>
    <path d="M 25.092353 67.448686 
L 25.092353 83.26065 
L 26.321793 82.64593 
L 24.477633 88.79313 
L 22.633473 82.64593 
L 23.862913 83.26065 
L 23.862913 67.448686 
L 25.092353 67.448686 
" clip-path="url(#p2074436604)" style="fill: #0000ff"/>
    <path d="M 25.092353 47.962633 
L 25.092353 63.774598 
L 26.321793 63.159878 
L 24.477633 69.307078 
L 22.633473 63.159878 
L 23.862913 63.774598 
L 23.862913 47.962633 
L 25.092353 47.962633 
" clip-path="url(#p2074436604)" style="fill: #0000ff"/>
    <path d="M 44.578406 320.767367 
L 44.578406 333.530125 
L 45.807846 332.915405 
L 43.963686 339.062605 
L 42.119526 332.915405 
L 43.348966 333.530125 
L 43.348966 320.767367 
L 44.578406 320.767367 
" clip-path="url(#p2074436604)" style="fill: #0000ff"/>
    <path d="M 44.578406 301.281314 
L 44.578406 314.044073 
L 45.807846 313.429353 
L 43.963686 319.576553 
L 42.119526 313.429353 
L 43.348966 314.044073 
L 43.348966 301.281314 
L 44.578406 301.281314 
" clip-path="url(#p2074436604)" style="fill: #0000ff"/>
    <path d="M 44.578406 281.795262 
L 44.578406 294.55802 
L 45.807846 293.9433 
L 43.963686 300.0905 
L 42.119526 293.9433 
L 43.348966 294.55802 
L 43.348966 281.795262 
L 44.578406 281.795262 
" clip-path="url(#p2074436604)" style="fill: #0000ff"/>
    <path d="M 44.578406 262.30921 
L 44.578406 275.071968 
L 45.807846 274.457248 
L 43.963686 280.604448 
L 42.119526 274.457248 
L 43.348966 275.071968 
L 43.348966 262.30921 
L 44.578406 262.30921 
" clip-path="url(#p2074436604)" style="fill: #0000ff"/>
    <path d="M 44.578406 242.823157 
L 44.578406 255.585915 
L 45.807846 254.971195 
L 43.963686 261.118395 
L 42.119526 254.971195 
L 43.348966 255.585915 
L 43.348966 242.823157 
L 44.578406 242.823157 
" clip-path="url(#p2074436604)" style="fill: #0000ff"/>
    <path d="M 44.578406 223.337105 
L 44.578406 236.099863 
L 45.807846 235.485143 
L 43.963686 241.632343 
L 42.119526 235.485143 
L 43.348966 236.099863 
L 43.348966 223.337105 
L 44.578406 223.337105 
" clip-path="url(#p2074436604)" style="fill: #0000ff"/>
    <path d="M 44.578406 203.851052 
L 44.578406 216.613811 
L 45.807846 215.999091 
L 43.963686 222.146291 
L 42.119526 215.999091 
L 43.348966 216.613811 
L 43.348966 203.851052 
L 44.578406 203.851052 
" clip-path="url(#p2074436604)" style="fill: #0000ff"/>
    <path d="M 44.578406 184.365 
L 44.578406 197.127758 
L 45.807846 196.513038 
L 43.963686 202.660238 
L 42.119526 196.513038 
L 43.348966 197.127758 
L 43.348966 184.365 
L 44.578406 184.365 
" clip-path="url(#p2074436604)" style="fill: #0000ff"/>
    <path d="M 44.578406 164.878948 
L 44.578406 177.641706 
L 45.807846 177.026986 
L 43.963686 183.174186 
L 42.119526 177.026986 
L 43.348966 177.641706 
L 43.348966 164.878948 
L 44.578406 164.878948 
" clip-path="url(#p2074436604)" style="fill: #0000ff"/>
    <path d="M 44.578406 145.392895 
L 44.578406 158.155653 
L 45.807846 157.540933 
L 43.963686 163.688133 
L 42.119526 157.540933 
L 43.348966 158.155653 
L 43.348966 145.392895 
L 44.578406 145.392895 
" clip-path="url(#p2074436604)" style="fill: #0000ff"/>
    <path d="M 44.578406 125.906843 
L 44.578406 138.669601 
L 45.807846 138.054881 
L 43.963686 144.202081 
L 42.119526 138.054881 
L 43.348966 138.669601 
L 43.348966 125.906843 
L 44.578406 125.906843 
" clip-path="url(#p2074436604)" style="fill: #0000ff"/>
    <path d="M 44.578406 106.42079 
L 44.578406 119.183548 
L 45.807846 118.568828 
L 43.963686 124.716028 
L 42.119526 118.568828 
L 43.348966 119.183548 
L 43.348966 106.42079 
L 44.578406 106.42079 
" clip-path="url(#p2074436604)" style="fill: #0000ff"/>
    <path d="M 44.578406 86.934738 
L 44.578406 99.697496 
L 45.807846 99.082776 
L 43.963686 105.229976 
L 42.119526 99.082776 
L 43.348966 99.697496 
L 43.348966 86.934738 
L 44.578406 86.934738 
" clip-path="url(#p2074436604)" style="fill: #0000ff"/>
    <path d="M 44.578406 67.448686 
L 44.578406 80.211444 
L 45.807846 79.596724 
L 43.963686 85.743924 
L 42.119526 79.596724 
L 43.348966 80.211444 
L 43.348966 67.448686 
L 44.578406 67.448686 
" clip-path="url(#p2074436604)" style="fill: #0000ff"/>
    <path d="M 44.578406 47.962633 
L 44.578406 60.725391 
L 45.807846 60.110671 
L 43.963686 66.257871 
L 42.119526 60.110671 
L 43.348966 60.725391 
L 43.348966 47.962633 
L 44.578406 47.962633 
" clip-path="url(#p2074436604)" style="fill: #0000ff"/>
    <path d="M 64.064458 320.767367 
L 64.064458 330.480919 
L 65.293898 329.866199 
L 63.449738 336.013399 
L 61.605578 329.866199 
L 62.835018 330.480919 
L 62.835018 320.767367 
L 64.064458 320.767367 
" clip-path="url(#p2074436604)" style="fill: #0000ff"/>
    <path d="M 64.064458 301.281314 
L 64.064458 310.994866 
L 65.293898 310.380146 
L 63.449738 316.527346 
L 61.605578 310.380146 
L 62.835018 310.994866 
L 62.835018 301.281314 
L 64.064458 301.281314 
" clip-path="url(#p2074436604)" style="fill: #0000ff"/>
    <path d="M 64.064458 281.795262 
L 64.064458 291.508814 
L 65.293898 290.894094 
L 63.449738 297.041294 
L 61.605578 290.894094 
L 62.835018 291.508814 
L 62.835018 281.795262 
L 64.064458 281.795262 
" clip-path="url(#p2074436604)" style="fill: #0000ff"/>
    <path d="M 64.064458 262.30921 
L 64.064458 272.022761 
L 65.293898 271.408041 
L 63.449738 277.555241 
L 61.605578 271.408041 
L 62.835018 272.022761 
L 62.835018 262.30921 
L 64.064458 262.30921 
" clip-path="url(#p2074436604)" style="fill: #0000ff"/>
    <path d="M 64.064458 242.823157 
L 64.064458 252.536709 
L 65.293898 251.921989 
L 63.449738 258.069189 
L 61.605578 251.921989 
L 62.835018 252.536709 
L 62.835018 242.823157 
L 64.064458 242.823157 
" clip-path="url(#p2074436604)" style="fill: #0000ff"/>
    <path d="M 64.064458 223.337105 
L 64.064458 233.050657 
L 65.293898 232.435937 
L 63.449738 238.583137 
L 61.605578 232.435937 
L 62.835018 233.050657 
L 62.835018 223.337105 
L 64.064458 223.337105 
" clip-path="url(#p2074436604)" style="fill: #0000ff"/>
    <path d="M 64.064458 203.851052 
L 64.064458 213.564604 
L 65.293898 212.949884 
L 63.449738 219.097084 
L 61.605578 212.949884 
L 62.835018 213.564604 
L 62.835018 203.851052 
L 64.064458 203.851052 
" clip-path="url(#p2074436604)" style="fill: #0000ff"/>
    <path d="M 64.064458 184.365 
L 64.064458 194.078552 
L 65.293898 193.463832 
L 63.449738 199.611032 
L 61.605578 193.463832 
L 62.835018 194.078552 
L 62.835018 184.365 
L 64.064458 184.365 
" clip-path="url(#p2074436604)" style="fill: #0000ff"/>
    <path d="M 64.064458 164.878948 
L 64.064458 174.592499 
L 65.293898 173.977779 
L 63.449738 180.124979 
L 61.605578 173.977779 
L 62.835018 174.592499 
L 62.835018 164.878948 
L 64.064458 164.878948 
" clip-path="url(#p2074436604)" style="fill: #0000ff"/>
    <path d="M 64.064458 145.392895 
L 64.064458 155.106447 
L 65.293898 154.491727 
L 63.449738 160.638927 
L 61.605578 154.491727 
L 62.835018 155.106447 
L 62.835018 145.392895 
L 64.064458 145.392895 
" clip-path="url(#p2074436604)" style="fill: #0000ff"/>
    <path d="M 64.064458 125.906843 
L 64.064458 135.620395 
L 65.293898 135.005675 
L 63.449738 141.152875 
L 61.605578 135.005675 
L 62.835018 135.620395 
L 62.835018 125.906843 
L 64.064458 125.906843 
" clip-path="url(#p2074436604)" style="fill: #0000ff"/>
    <path d="M 64.064458 106.42079 
L 64.064458 116.134342 
L 65.293898 115.519622 
L 63.449738 121.666822 
L 61.605578 115.519622 
L 62.835018 116.134342 
L 62.835018 106.42079 
L 64.064458 106.42079 
" clip-path="url(#p2074436604)" style="fill: #0000ff"/>
    <path d="M 64.064458 86.934738 
L 64.064458 96.64829 
L 65.293898 96.03357 
L 63.449738 102.18077 
L 61.605578 96.03357 
L 62.835018 96.64829 
L 62.835018 86.934738 
L 64.064458 86.934738 
" clip-path="url(#p2074436604)" style="fill: #0000ff"/>
    <path d="M 64.064458 67.448686 
L 64.064458 77.162237 
L 65.293898 76.547517 
L 63.449738 82.694717 
L 61.605578 76.547517 
L 62.835018 77.162237 
L 62.835018 67.448686 
L 64.064458 67.448686 
" clip-path="url(#p2074436604)" style="fill: #0000ff"/>
    <path d="M 64.064458 47.962633 
L 64.064458 57.676185 
L 65.293898 57.061465 
L 63.449738 63.208665 
L 61.605578 57.061465 
L 62.835018 57.676185 
L 62.835018 47.962633 
L 64.064458 47.962633 
" clip-path="url(#p2074436604)" style="fill: #0000ff"/>
    <path d="M 83.55051 320.767367 
L 83.55051 327.431712 
L 84.77995 326.816992 
L 82.93579 332.964192 
L 81.09163 326.816992 
L 82.32107 327.431712 
L 82.32107 320.767367 
L 83.55051 320.767367 
" clip-path="url(#p2074436604)" style="fill: #0000ff"/>
    <path d="M 83.55051 301.281314 
L 83.55051 307.94566 
L 84.77995 307.33094 
L 82.93579 313.47814 
L 81.09163 307.33094 
L 82.32107 307.94566 
L 82.32107 301.281314 
L 83.55051 301.281314 
" clip-path="url(#p2074436604)" style="fill: #0000ff"/>
    <path d="M 83.55051 281.795262 
L 83.55051 288.459607 
L 84.77995 287.844887 
L 82.93579 293.992087 
L 81.09163 287.844887 
L 82.32107 288.459607 
L 82.32107 281.795262 
L 83.55051 281.795262 
" clip-path="url(#p2074436604)" style="fill: #0000ff"/>
    <path d="M 83.55051 262.30921 
L 83.55051 268.973555 
L 84.77995 268.358835 
L 82.93579 274.506035 
L 81.09163 268.358835 
L 82.32107 268.973555 
L 82.32107 262.30921 
L 83.55051 262.30921 
" clip-path="url(#p2074436604)" style="fill: #0000ff"/>
    <path d="M 83.55051 242.823157 
L 83.55051 249.487503 
L 84.77995 248.872783 
L 82.93579 255.019983 
L 81.09163 248.872783 
L 82.32107 249.487503 
L 82.32107 242.823157 
L 83.55051 242.823157 
" clip-path="url(#p2074436604)" style="fill: #0000ff"/>
    <path d="M 83.55051 223.337105 
L 83.55051 230.00145 
L 84.77995 229.38673 
L 82.93579 235.53393 
L 81.09163 229.38673 
L 82.32107 230.00145 
L 82.32107 223.337105 
L 83.55051 223.337105 
" clip-path="url(#p2074436604)" style="fill: #0000ff"/>
    <path d="M 83.55051 203.851052 
L 83.55051 210.515398 
L 84.77995 209.900678 
L 82.93579 216.047878 
L 81.09163 209.900678 
L 82.32107 210.515398 
L 82.32107 203.851052 
L 83.55051 203.851052 
" clip-path="url(#p2074436604)" style="fill: #0000ff"/>
    <path d="M 83.55051 184.365 
L 83.55051 191.029345 
L 84.77995 190.414625 
L 82.93579 196.561825 
L 81.09163 190.414625 
L 82.32107 191.029345 
L 82.32107 184.365 
L 83.55051 184.365 
" clip-path="url(#p2074436604)" style="fill: #0000ff"/>
    <path d="M 83.55051 164.878948 
L 83.55051 171.543293 
L 84.77995 170.928573 
L 82.93579 177.075773 
L 81.09163 170.928573 
L 82.32107 171.543293 
L 82.32107 164.878948 
L 83.55051 164.878948 
" clip-path="url(#p2074436604)" style="fill: #0000ff"/>
    <path d="M 83.55051 145.392895 
L 83.55051 152.057241 
L 84.77995 151.442521 
L 82.93579 157.589721 
L 81.09163 151.442521 
L 82.32107 152.057241 
L 82.32107 145.392895 
L 83.55051 145.392895 
" clip-path="url(#p2074436604)" style="fill: #0000ff"/>
    <path d="M 83.55051 125.906843 
L 83.55051 132.571188 
L 84.77995 131.956468 
L 82.93579 138.103668 
L 81.09163 131.956468 
L 82.32107 132.571188 
L 82.32107 125.906843 
L 83.55051 125.906843 
" clip-path="url(#p2074436604)" style="fill: #0000ff"/>
    <path d="M 83.55051 106.42079 
L 83.55051 113.085136 
L 84.77995 112.470416 
L 82.93579 118.617616 
L 81.09163 112.470416 
L 82.32107 113.085136 
L 82.32107 106.42079 
L 83.55051 106.42079 
" clip-path="url(#p2074436604)" style="fill: #0000ff"/>
    <path d="M 83.55051 86.934738 
L 83.55051 93.599083 
L 84.77995 92.984363 
L 82.93579 99.131563 
L 81.09163 92.984363 
L 82.32107 93.599083 
L 82.32107 86.934738 
L 83.55051 86.934738 
" clip-path="url(#p2074436604)" style="fill: #0000ff"/>
    <path d="M 83.55051 67.448686 
L 83.55051 74.113031 
L 84.77995 73.498311 
L 82.93579 79.645511 
L 81.09163 73.498311 
L 82.32107 74.113031 
L 82.32107 67.448686 
L 83.55051 67.448686 
" clip-path="url(#p2074436604)" style="fill: #0000ff"/>
    <path d="M 83.55051 47.962633 
L 83.55051 54.626979 
L 84.77995 54.012259 
L 82.93579 60.159459 
L 81.09163 54.012259 
L 82.32107 54.626979 
L 82.32107 47.962633 
L 83.55051 47.962633 
" clip-path="url(#p2074436604)" style="fill: #0000ff"/>
    <path d="M 103.036563 320.767367 
L 103.036563 324.382506 
L 104.266003 323.767786 
L 102.421843 329.914986 
L 100.577683 323.767786 
L 101.807123 324.382506 
L 101.807123 320.767367 
L 103.036563 320.767367 
" clip-path="url(#p2074436604)" style="fill: #0000ff"/>
    <path d="M 103.036563 301.281314 
L 103.036563 304.896454 
L 104.266003 304.281734 
L 102.421843 310.428934 
L 100.577683 304.281734 
L 101.807123 304.896454 
L 101.807123 301.281314 
L 103.036563 301.281314 
" clip-path="url(#p2074436604)" style="fill: #0000ff"/>
    <path d="M 103.036563 281.795262 
L 103.036563 285.410401 
L 104.266003 284.795681 
L 102.421843 290.942881 
L 100.577683 284.795681 
L 101.807123 285.410401 
L 101.807123 281.795262 
L 103.036563 281.795262 
" clip-path="url(#p2074436604)" style="fill: #0000ff"/>
    <path d="M 103.036563 262.30921 
L 103.036563 265.924349 
L 104.266003 265.309629 
L 102.421843 271.456829 
L 100.577683 265.309629 
L 101.807123 265.924349 
L 101.807123 262.30921 
L 103.036563 262.30921 
" clip-path="url(#p2074436604)" style="fill: #0000ff"/>
    <path d="M 103.036563 242.823157 
L 103.036563 246.438296 
L 104.266003 245.823576 
L 102.421843 251.970776 
L 100.577683 245.823576 
L 101.807123 246.438296 
L 101.807123 242.823157 
L 103.036563 242.823157 
" clip-path="url(#p2074436604)" style="fill: #0000ff"/>
    <path d="M 103.036563 223.337105 
L 103.036563 226.952244 
L 104.266003 226.337524 
L 102.421843 232.484724 
L 100.577683 226.337524 
L 101.807123 226.952244 
L 101.807123 223.337105 
L 103.036563 223.337105 
" clip-path="url(#p2074436604)" style="fill: #0000ff"/>
    <path d="M 103.036563 203.851052 
L 103.036563 207.466191 
L 104.266003 206.851471 
L 102.421843 212.998671 
L 100.577683 206.851471 
L 101.807123 207.466191 
L 101.807123 203.851052 
L 103.036563 203.851052 
" clip-path="url(#p2074436604)" style="fill: #0000ff"/>
    <path d="M 103.036563 184.365 
L 103.036563 187.980139 
L 104.266003 187.365419 
L 102.421843 193.512619 
L 100.577683 187.365419 
L 101.807123 187.980139 
L 101.807123 184.365 
L 103.036563 184.365 
" clip-path="url(#p2074436604)" style="fill: #0000ff"/>
    <path d="M 103.036563 164.878948 
L 103.036563 168.494087 
L 104.266003 167.879367 
L 102.421843 174.026567 
L 100.577683 167.879367 
L 101.807123 168.494087 
L 101.807123 164.878948 
L 103.036563 164.878948 
" clip-path="url(#p2074436604)" style="fill: #0000ff"/>
    <path d="M 103.036563 145.392895 
L 103.036563 149.008034 
L 104.266003 148.393314 
L 102.421843 154.540514 
L 100.577683 148.393314 
L 101.807123 149.008034 
L 101.807123 145.392895 
L 103.036563 145.392895 
" clip-path="url(#p2074436604)" style="fill: #0000ff"/>
    <path d="M 103.036563 125.906843 
L 103.036563 129.521982 
L 104.266003 128.907262 
L 102.421843 135.054462 
L 100.577683 128.907262 
L 101.807123 129.521982 
L 101.807123 125.906843 
L 103.036563 125.906843 
" clip-path="url(#p2074436604)" style="fill: #0000ff"/>
    <path d="M 103.036563 106.42079 
L 103.036563 110.035929 
L 104.266003 109.421209 
L 102.421843 115.568409 
L 100.577683 109.421209 
L 101.807123 110.035929 
L 101.807123 106.42079 
L 103.036563 106.42079 
" clip-path="url(#p2074436604)" style="fill: #0000ff"/>
    <path d="M 103.036563 86.934738 
L 103.036563 90.549877 
L 104.266003 89.935157 
L 102.421843 96.082357 
L 100.577683 89.935157 
L 101.807123 90.549877 
L 101.807123 86.934738 
L 103.036563 86.934738 
" clip-path="url(#p2074436604)" style="fill: #0000ff"/>
    <path d="M 103.036563 67.448686 
L 103.036563 71.063825 
L 104.266003 70.449105 
L 102.421843 76.596305 
L 100.577683 70.449105 
L 101.807123 71.063825 
L 101.807123 67.448686 
L 103.036563 67.448686 
" clip-path="url(#p2074436604)" style="fill: #0000ff"/>
    <path d="M 103.036563 47.962633 
L 103.036563 51.577772 
L 104.266003 50.963052 
L 102.421843 57.110252 
L 100.577683 50.963052 
L 101.807123 51.577772 
L 101.807123 47.962633 
L 103.036563 47.962633 
" clip-path="url(#p2074436604)" style="fill: #0000ff"/>
    <path d="M 122.517736 320.767367 
L 122.517736 321.377208 
L 123.737419 320.767367 
L 121.907895 326.86578 
L 120.078371 320.767367 
L 121.298054 321.377208 
L 121.298054 320.767367 
L 122.517736 320.767367 
" clip-path="url(#p2074436604)" style="fill: #0000ff"/>
    <path d="M 122.517736 301.281314 
L 122.517736 301.891156 
L 123.737419 301.281314 
L 121.907895 307.379727 
L 120.078371 301.281314 
L 121.298054 301.891156 
L 121.298054 301.281314 
L 122.517736 301.281314 
" clip-path="url(#p2074436604)" style="fill: #0000ff"/>
    <path d="M 122.517736 281.795262 
L 122.517736 282.405103 
L 123.737419 281.795262 
L 121.907895 287.893675 
L 120.078371 281.795262 
L 121.298054 282.405103 
L 121.298054 281.795262 
L 122.517736 281.795262 
" clip-path="url(#p2074436604)" style="fill: #0000ff"/>
    <path d="M 122.517736 262.30921 
L 122.517736 262.919051 
L 123.737419 262.30921 
L 121.907895 268.407622 
L 120.078371 262.30921 
L 121.298054 262.919051 
L 121.298054 262.30921 
L 122.517736 262.30921 
" clip-path="url(#p2074436604)" style="fill: #0000ff"/>
    <path d="M 122.517736 242.823157 
L 122.517736 243.432998 
L 123.737419 242.823157 
L 121.907895 248.92157 
L 120.078371 242.823157 
L 121.298054 243.432998 
L 121.298054 242.823157 
L 122.517736 242.823157 
" clip-path="url(#p2074436604)" style="fill: #0000ff"/>
    <path d="M 122.517736 223.337105 
L 122.517736 223.946946 
L 123.737419 223.337105 
L 121.907895 229.435518 
L 120.078371 223.337105 
L 121.298054 223.946946 
L 121.298054 223.337105 
L 122.517736 223.337105 
" clip-path="url(#p2074436604)" style="fill: #0000ff"/>
    <path d="M 122.517736 203.851052 
L 122.517736 204.460894 
L 123.737419 203.851052 
L 121.907895 209.949465 
L 120.078371 203.851052 
L 121.298054 204.460894 
L 121.298054 203.851052 
L 122.517736 203.851052 
" clip-path="url(#p2074436604)" style="fill: #0000ff"/>
    <path d="M 122.517736 184.365 
L 122.517736 184.974841 
L 123.737419 184.365 
L 121.907895 190.463413 
L 120.078371 184.365 
L 121.298054 184.974841 
L 121.298054 184.365 
L 122.517736 184.365 
" clip-path="url(#p2074436604)" style="fill: #0000ff"/>
    <path d="M 122.517736 164.878948 
L 122.517736 165.488789 
L 123.737419 164.878948 
L 121.907895 170.97736 
L 120.078371 164.878948 
L 121.298054 165.488789 
L 121.298054 164.878948 
L 122.517736 164.878948 
" clip-path="url(#p2074436604)" style="fill: #0000ff"/>
    <path d="M 122.517736 145.392895 
L 122.517736 146.002736 
L 123.737419 145.392895 
L 121.907895 151.491308 
L 120.078371 145.392895 
L 121.298054 146.002736 
L 121.298054 145.392895 
L 122.517736 145.392895 
" clip-path="url(#p2074436604)" style="fill: #0000ff"/>
    <path d="M 122.517736 125.906843 
L 122.517736 126.516684 
L 123.737419 125.906843 
L 121.907895 132.005255 
L 120.078371 125.906843 
L 121.298054 126.516684 
L 121.298054 125.906843 
L 122.517736 125.906843 
" clip-path="url(#p2074436604)" style="fill: #0000ff"/>
    <path d="M 122.517736 106.42079 
L 122.517736 107.030632 
L 123.737419 106.42079 
L 121.907895 112.519203 
L 120.078371 106.42079 
L 121.298054 107.030632 
L 121.298054 106.42079 
L 122.517736 106.42079 
" clip-path="url(#p2074436604)" style="fill: #0000ff"/>
    <path d="M 122.517736 86.934738 
L 122.517736 87.544579 
L 123.737419 86.934738 
L 121.907895 93.033151 
L 120.078371 86.934738 
L 121.298054 87.544579 
L 121.298054 86.934738 
L 122.517736 86.934738 
" clip-path="url(#p2074436604)" style="fill: #0000ff"/>
    <path d="M 122.517736 67.448686 
L 122.517736 68.058527 
L 123.737419 67.448686 
L 121.907895 73.547098 
L 120.078371 67.448686 
L 121.298054 68.058527 
L 121.298054 67.448686 
L 122.517736 67.448686 
" clip-path="url(#p2074436604)" style="fill: #0000ff"/>
    <path d="M 122.517736 47.962633 
L 122.517736 48.572474 
L 123.737419 47.962633 
L 121.907895 54.061046 
L 120.078371 47.962633 
L 121.298054 48.572474 
L 121.298054 47.962633 
L 122.517736 47.962633 
" clip-path="url(#p2074436604)" style="fill: #0000ff"/>
    <path d="M 141.698868 320.767367 
L 141.698868 321.072287 
L 142.308709 320.767367 
L 141.393948 323.816573 
L 140.479186 320.767367 
L 141.089027 321.072287 
L 141.089027 320.767367 
L 141.698868 320.767367 
" clip-path="url(#p2074436604)" style="fill: #0000ff"/>
    <path d="M 141.698868 301.281314 
L 141.698868 301.586235 
L 142.308709 301.281314 
L 141.393948 304.330521 
L 140.479186 301.281314 
L 141.089027 301.586235 
L 141.089027 301.281314 
L 141.698868 301.281314 
" clip-path="url(#p2074436604)" style="fill: #0000ff"/>
    <path d="M 141.698868 281.795262 
L 141.698868 282.100183 
L 142.308709 281.795262 
L 141.393948 284.844468 
L 140.479186 281.795262 
L 141.089027 282.100183 
L 141.089027 281.795262 
L 141.698868 281.795262 
" clip-path="url(#p2074436604)" style="fill: #0000ff"/>
    <path d="M 141.698868 262.30921 
L 141.698868 262.61413 
L 142.308709 262.30921 
L 141.393948 265.358416 
L 140.479186 262.30921 
L 141.089027 262.61413 
L 141.089027 262.30921 
L 141.698868 262.30921 
" clip-path="url(#p2074436604)" style="fill: #0000ff"/>
    <path d="M 141.698868 242.823157 
L 141.698868 243.128078 
L 142.308709 242.823157 
L 141.393948 245.872364 
L 140.479186 242.823157 
L 141.089027 243.128078 
L 141.089027 242.823157 
L 141.698868 242.823157 
" clip-path="url(#p2074436604)" style="fill: #0000ff"/>
    <path d="M 141.698868 223.337105 
L 141.698868 223.642025 
L 142.308709 223.337105 
L 141.393948 226.386311 
L 140.479186 223.337105 
L 141.089027 223.642025 
L 141.089027 223.337105 
L 141.698868 223.337105 
" clip-path="url(#p2074436604)" style="fill: #0000ff"/>
    <path d="M 141.698868 203.851052 
L 141.698868 204.155973 
L 142.308709 203.851052 
L 141.393948 206.900259 
L 140.479186 203.851052 
L 141.089027 204.155973 
L 141.089027 203.851052 
L 141.698868 203.851052 
" clip-path="url(#p2074436604)" style="fill: #0000ff"/>
    <path d="M 141.698868 184.365 
L 141.698868 184.669921 
L 142.308709 184.365 
L 141.393948 187.414206 
L 140.479186 184.365 
L 141.089027 184.669921 
L 141.089027 184.365 
L 141.698868 184.365 
" clip-path="url(#p2074436604)" style="fill: #0000ff"/>
    <path d="M 141.698868 164.878948 
L 141.698868 165.183868 
L 142.308709 164.878948 
L 141.393948 167.928154 
L 140.479186 164.878948 
L 141.089027 165.183868 
L 141.089027 164.878948 
L 141.698868 164.878948 
" clip-path="url(#p2074436604)" style="fill: #0000ff"/>
    <path d="M 141.698868 145.392895 
L 141.698868 145.697816 
L 142.308709 145.392895 
L 141.393948 148.442102 
L 140.479186 145.392895 
L 141.089027 145.697816 
L 141.089027 145.392895 
L 141.698868 145.392895 
" clip-path="url(#p2074436604)" style="fill: #0000ff"/>
    <path d="M 141.698868 125.906843 
L 141.698868 126.211763 
L 142.308709 125.906843 
L 141.393948 128.956049 
L 140.479186 125.906843 
L 141.089027 126.211763 
L 141.089027 125.906843 
L 141.698868 125.906843 
" clip-path="url(#p2074436604)" style="fill: #0000ff"/>
    <path d="M 141.698868 106.42079 
L 141.698868 106.725711 
L 142.308709 106.42079 
L 141.393948 109.469997 
L 140.479186 106.42079 
L 141.089027 106.725711 
L 141.089027 106.42079 
L 141.698868 106.42079 
" clip-path="url(#p2074436604)" style="fill: #0000ff"/>
    <path d="M 141.698868 86.934738 
L 141.698868 87.239659 
L 142.308709 86.934738 
L 141.393948 89.983944 
L 140.479186 86.934738 
L 141.089027 87.239659 
L 141.089027 86.934738 
L 141.698868 86.934738 
" clip-path="url(#p2074436604)" style="fill: #0000ff"/>
    <path d="M 141.698868 67.448686 
L 141.698868 67.753606 
L 142.308709 67.448686 
L 141.393948 70.497892 
L 140.479186 67.448686 
L 141.089027 67.753606 
L 141.089027 67.448686 
L 141.698868 67.448686 
" clip-path="url(#p2074436604)" style="fill: #0000ff"/>
    <path d="M 141.698868 47.962633 
L 141.698868 48.267554 
L 142.308709 47.962633 
L 141.393948 51.011839 
L 140.479186 47.962633 
L 141.089027 48.267554 
L 141.089027 47.962633 
L 141.698868 47.962633 
" clip-path="url(#p2074436604)" style="fill: #0000ff"/>
    <path d="M 161.49472 320.767367 
L 161.18736 320.235004 
L 160.57264 320.235004 
L 160.26528 320.767367 
L 160.57264 321.29973 
L 161.18736 321.29973 
L 161.49472 320.767367 
L 161.18736 320.235004 
" clip-path="url(#p2074436604)" style="fill: #0000ff"/>
    <path d="M 161.49472 301.281314 
L 161.18736 300.748951 
L 160.57264 300.748951 
L 160.26528 301.281314 
L 160.57264 301.813678 
L 161.18736 301.813678 
L 161.49472 301.281314 
L 161.18736 300.748951 
" clip-path="url(#p2074436604)" style="fill: #0000ff"/>
    <path d="M 161.49472 281.795262 
L 161.18736 281.262899 
L 160.57264 281.262899 
L 160.26528 281.795262 
L 160.57264 282.327625 
L 161.18736 282.327625 
L 161.49472 281.795262 
L 161.18736 281.262899 
" clip-path="url(#p2074436604)" style="fill: #0000ff"/>
    <path d="M 161.49472 262.30921 
L 161.18736 261.776847 
L 160.57264 261.776847 
L 160.26528 262.30921 
L 160.57264 262.841573 
L 161.18736 262.841573 
L 161.49472 262.30921 
L 161.18736 261.776847 
" clip-path="url(#p2074436604)" style="fill: #0000ff"/>
    <path d="M 161.49472 242.823157 
L 161.18736 242.290794 
L 160.57264 242.290794 
L 160.26528 242.823157 
L 160.57264 243.35552 
L 161.18736 243.35552 
L 161.49472 242.823157 
L 161.18736 242.290794 
" clip-path="url(#p2074436604)" style="fill: #0000ff"/>
    <path d="M 161.49472 223.337105 
L 161.18736 222.804742 
L 160.57264 222.804742 
L 160.26528 223.337105 
L 160.57264 223.869468 
L 161.18736 223.869468 
L 161.49472 223.337105 
L 161.18736 222.804742 
" clip-path="url(#p2074436604)" style="fill: #0000ff"/>
    <path d="M 161.49472 203.851052 
L 161.18736 203.318689 
L 160.57264 203.318689 
L 160.26528 203.851052 
L 160.57264 204.383416 
L 161.18736 204.383416 
L 161.49472 203.851052 
L 161.18736 203.318689 
" clip-path="url(#p2074436604)" style="fill: #0000ff"/>
    <path d="M 161.49472 184.365 
L 161.18736 183.832637 
L 160.57264 183.832637 
L 160.26528 184.365 
L 160.57264 184.897363 
L 161.18736 184.897363 
L 161.49472 184.365 
L 161.18736 183.832637 
" clip-path="url(#p2074436604)" style="fill: #0000ff"/>
    <path d="M 161.49472 164.878948 
L 161.18736 164.346584 
L 160.57264 164.346584 
L 160.26528 164.878948 
L 160.57264 165.411311 
L 161.18736 165.411311 
L 161.49472 164.878948 
L 161.18736 164.346584 
" clip-path="url(#p2074436604)" style="fill: #0000ff"/>
    <path d="M 161.49472 145.392895 
L 161.18736 144.860532 
L 160.57264 144.860532 
L 160.26528 145.392895 
L 160.57264 145.925258 
L 161.18736 145.925258 
L 161.49472 145.392895 
L 161.18736 144.860532 
" clip-path="url(#p2074436604)" style="fill: #0000ff"/>
    <path d="M 161.49472 125.906843 
L 161.18736 125.37448 
L 160.57264 125.37448 
L 160.26528 125.906843 
L 160.57264 126.439206 
L 161.18736 126.439206 
L 161.49472 125.906843 
L 161.18736 125.37448 
" clip-path="url(#p2074436604)" style="fill: #0000ff"/>
    <path d="M 161.49472 106.42079 
L 161.18736 105.888427 
L 160.57264 105.888427 
L 160.26528 106.42079 
L 160.57264 106.953153 
L 161.18736 106.953153 
L 161.49472 106.42079 
L 161.18736 105.888427 
" clip-path="url(#p2074436604)" style="fill: #0000ff"/>
    <path d="M 161.49472 86.934738 
L 161.18736 86.402375 
L 160.57264 86.402375 
L 160.26528 86.934738 
L 160.57264 87.467101 
L 161.18736 87.467101 
L 161.49472 86.934738 
L 161.18736 86.402375 
" clip-path="url(#p2074436604)" style="fill: #0000ff"/>
    <path d="M 161.49472 67.448686 
L 161.18736 66.916322 
L 160.57264 66.916322 
L 160.26528 67.448686 
L 160.57264 67.981049 
L 161.18736 67.981049 
L 161.49472 67.448686 
L 161.18736 66.916322 
" clip-path="url(#p2074436604)" style="fill: #0000ff"/>
    <path d="M 161.49472 47.962633 
L 161.18736 47.43027 
L 160.57264 47.43027 
L 160.26528 47.962633 
L 160.57264 48.494996 
L 161.18736 48.494996 
L 161.49472 47.962633 
L 161.18736 47.43027 
" clip-path="url(#p2074436604)" style="fill: #0000ff"/>
    <path d="M 180.061132 320.767367 
L 180.061132 320.462446 
L 179.451291 320.767367 
L 180.366052 317.718161 
L 181.280814 320.767367 
L 180.670973 320.462446 
L 180.670973 320.767367 
L 180.061132 320.767367 
" clip-path="url(#p2074436604)" style="fill: #0000ff"/>
    <path d="M 180.061132 301.281314 
L 180.061132 300.976394 
L 179.451291 301.281314 
L 180.366052 298.232108 
L 181.280814 301.281314 
L 180.670973 300.976394 
L 180.670973 301.281314 
L 180.061132 301.281314 
" clip-path="url(#p2074436604)" style="fill: #0000ff"/>
    <path d="M 180.061132 281.795262 
L 180.061132 281.490341 
L 179.451291 281.795262 
L 180.366052 278.746056 
L 181.280814 281.795262 
L 180.670973 281.490341 
L 180.670973 281.795262 
L 180.061132 281.795262 
" clip-path="url(#p2074436604)" style="fill: #0000ff"/>
    <path d="M 180.061132 262.30921 
L 180.061132 262.004289 
L 179.451291 262.30921 
L 180.366052 259.260003 
L 181.280814 262.30921 
L 180.670973 262.004289 
L 180.670973 262.30921 
L 180.061132 262.30921 
" clip-path="url(#p2074436604)" style="fill: #0000ff"/>
    <path d="M 180.061132 242.823157 
L 180.061132 242.518237 
L 179.451291 242.823157 
L 180.366052 239.773951 
L 181.280814 242.823157 
L 180.670973 242.518237 
L 180.670973 242.823157 
L 180.061132 242.823157 
" clip-path="url(#p2074436604)" style="fill: #0000ff"/>
    <path d="M 180.061132 223.337105 
L 180.061132 223.032184 
L 179.451291 223.337105 
L 180.366052 220.287898 
L 181.280814 223.337105 
L 180.670973 223.032184 
L 180.670973 223.337105 
L 180.061132 223.337105 
" clip-path="url(#p2074436604)" style="fill: #0000ff"/>
    <path d="M 180.061132 203.851052 
L 180.061132 203.546132 
L 179.451291 203.851052 
L 180.366052 200.801846 
L 181.280814 203.851052 
L 180.670973 203.546132 
L 180.670973 203.851052 
L 180.061132 203.851052 
" clip-path="url(#p2074436604)" style="fill: #0000ff"/>
    <path d="M 180.061132 184.365 
L 180.061132 184.060079 
L 179.451291 184.365 
L 180.366052 181.315794 
L 181.280814 184.365 
L 180.670973 184.060079 
L 180.670973 184.365 
L 180.061132 184.365 
" clip-path="url(#p2074436604)" style="fill: #0000ff"/>
    <path d="M 180.061132 164.878948 
L 180.061132 164.574027 
L 179.451291 164.878948 
L 180.366052 161.829741 
L 181.280814 164.878948 
L 180.670973 164.574027 
L 180.670973 164.878948 
L 180.061132 164.878948 
" clip-path="url(#p2074436604)" style="fill: #0000ff"/>
    <path d="M 180.061132 145.392895 
L 180.061132 145.087975 
L 179.451291 145.392895 
L 180.366052 142.343689 
L 181.280814 145.392895 
L 180.670973 145.087975 
L 180.670973 145.392895 
L 180.061132 145.392895 
" clip-path="url(#p2074436604)" style="fill: #0000ff"/>
    <path d="M 180.061132 125.906843 
L 180.061132 125.601922 
L 179.451291 125.906843 
L 180.366052 122.857636 
L 181.280814 125.906843 
L 180.670973 125.601922 
L 180.670973 125.906843 
L 180.061132 125.906843 
" clip-path="url(#p2074436604)" style="fill: #0000ff"/>
    <path d="M 180.061132 106.42079 
L 180.061132 106.11587 
L 179.451291 106.42079 
L 180.366052 103.371584 
L 181.280814 106.42079 
L 180.670973 106.11587 
L 180.670973 106.42079 
L 180.061132 106.42079 
" clip-path="url(#p2074436604)" style="fill: #0000ff"/>
    <path d="M 180.061132 86.934738 
L 180.061132 86.629817 
L 179.451291 86.934738 
L 180.366052 83.885532 
L 181.280814 86.934738 
L 180.670973 86.629817 
L 180.670973 86.934738 
L 180.061132 86.934738 
" clip-path="url(#p2074436604)" style="fill: #0000ff"/>
    <path d="M 180.061132 67.448686 
L 180.061132 67.143765 
L 179.451291 67.448686 
L 180.366052 64.399479 
L 181.280814 67.448686 
L 180.670973 67.143765 
L 180.670973 67.448686 
L 180.061132 67.448686 
" clip-path="url(#p2074436604)" style="fill: #0000ff"/>
    <path d="M 180.061132 47.962633 
L 180.061132 47.657713 
L 179.451291 47.962633 
L 180.366052 44.913427 
L 181.280814 47.962633 
L 180.670973 47.657713 
L 180.670973 47.962633 
L 180.061132 47.962633 
" clip-path="url(#p2074436604)" style="fill: #0000ff"/>
    <path d="M 199.242264 320.767367 
L 199.242264 320.157526 
L 198.022581 320.767367 
L 199.852105 314.668954 
L 201.681629 320.767367 
L 200.461946 320.157526 
L 200.461946 320.767367 
L 199.242264 320.767367 
" clip-path="url(#p2074436604)" style="fill: #0000ff"/>
    <path d="M 199.242264 301.281314 
L 199.242264 300.671473 
L 198.022581 301.281314 
L 199.852105 295.182902 
L 201.681629 301.281314 
L 200.461946 300.671473 
L 200.461946 301.281314 
L 199.242264 301.281314 
" clip-path="url(#p2074436604)" style="fill: #0000ff"/>
    <path d="M 199.242264 281.795262 
L 199.242264 281.185421 
L 198.022581 281.795262 
L 199.852105 275.696849 
L 201.681629 281.795262 
L 200.461946 281.185421 
L 200.461946 281.795262 
L 199.242264 281.795262 
" clip-path="url(#p2074436604)" style="fill: #0000ff"/>
    <path d="M 199.242264 262.30921 
L 199.242264 261.699368 
L 198.022581 262.30921 
L 199.852105 256.210797 
L 201.681629 262.30921 
L 200.461946 261.699368 
L 200.461946 262.30921 
L 199.242264 262.30921 
" clip-path="url(#p2074436604)" style="fill: #0000ff"/>
    <path d="M 199.242264 242.823157 
L 199.242264 242.213316 
L 198.022581 242.823157 
L 199.852105 236.724745 
L 201.681629 242.823157 
L 200.461946 242.213316 
L 200.461946 242.823157 
L 199.242264 242.823157 
" clip-path="url(#p2074436604)" style="fill: #0000ff"/>
    <path d="M 199.242264 223.337105 
L 199.242264 222.727264 
L 198.022581 223.337105 
L 199.852105 217.238692 
L 201.681629 223.337105 
L 200.461946 222.727264 
L 200.461946 223.337105 
L 199.242264 223.337105 
" clip-path="url(#p2074436604)" style="fill: #0000ff"/>
    <path d="M 199.242264 203.851052 
L 199.242264 203.241211 
L 198.022581 203.851052 
L 199.852105 197.75264 
L 201.681629 203.851052 
L 200.461946 203.241211 
L 200.461946 203.851052 
L 199.242264 203.851052 
" clip-path="url(#p2074436604)" style="fill: #0000ff"/>
    <path d="M 199.242264 184.365 
L 199.242264 183.755159 
L 198.022581 184.365 
L 199.852105 178.266587 
L 201.681629 184.365 
L 200.461946 183.755159 
L 200.461946 184.365 
L 199.242264 184.365 
" clip-path="url(#p2074436604)" style="fill: #0000ff"/>
    <path d="M 199.242264 164.878948 
L 199.242264 164.269106 
L 198.022581 164.878948 
L 199.852105 158.780535 
L 201.681629 164.878948 
L 200.461946 164.269106 
L 200.461946 164.878948 
L 199.242264 164.878948 
" clip-path="url(#p2074436604)" style="fill: #0000ff"/>
    <path d="M 199.242264 145.392895 
L 199.242264 144.783054 
L 198.022581 145.392895 
L 199.852105 139.294482 
L 201.681629 145.392895 
L 200.461946 144.783054 
L 200.461946 145.392895 
L 199.242264 145.392895 
" clip-path="url(#p2074436604)" style="fill: #0000ff"/>
    <path d="M 199.242264 125.906843 
L 199.242264 125.297002 
L 198.022581 125.906843 
L 199.852105 119.80843 
L 201.681629 125.906843 
L 200.461946 125.297002 
L 200.461946 125.906843 
L 199.242264 125.906843 
" clip-path="url(#p2074436604)" style="fill: #0000ff"/>
    <path d="M 199.242264 106.42079 
L 199.242264 105.810949 
L 198.022581 106.42079 
L 199.852105 100.322378 
L 201.681629 106.42079 
L 200.461946 105.810949 
L 200.461946 106.42079 
L 199.242264 106.42079 
" clip-path="url(#p2074436604)" style="fill: #0000ff"/>
    <path d="M 199.242264 86.934738 
L 199.242264 86.324897 
L 198.022581 86.934738 
L 199.852105 80.836325 
L 201.681629 86.934738 
L 200.461946 86.324897 
L 200.461946 86.934738 
L 199.242264 86.934738 
" clip-path="url(#p2074436604)" style="fill: #0000ff"/>
    <path d="M 199.242264 67.448686 
L 199.242264 66.838844 
L 198.022581 67.448686 
L 199.852105 61.350273 
L 201.681629 67.448686 
L 200.461946 66.838844 
L 200.461946 67.448686 
L 199.242264 67.448686 
" clip-path="url(#p2074436604)" style="fill: #0000ff"/>
    <path d="M 199.242264 47.962633 
L 199.242264 47.352792 
L 198.022581 47.962633 
L 199.852105 41.86422 
L 201.681629 47.962633 
L 200.461946 47.352792 
L 200.461946 47.962633 
L 199.242264 47.962633 
" clip-path="url(#p2074436604)" style="fill: #0000ff"/>
    <path d="M 218.723437 320.767367 
L 218.723437 317.152228 
L 217.493997 317.766948 
L 219.338157 311.619748 
L 221.182317 317.766948 
L 219.952877 317.152228 
L 219.952877 320.767367 
L 218.723437 320.767367 
" clip-path="url(#p2074436604)" style="fill: #0000ff"/>
    <path d="M 218.723437 301.281314 
L 218.723437 297.666175 
L 217.493997 298.280895 
L 219.338157 292.133695 
L 221.182317 298.280895 
L 219.952877 297.666175 
L 219.952877 301.281314 
L 218.723437 301.281314 
" clip-path="url(#p2074436604)" style="fill: #0000ff"/>
    <path d="M 218.723437 281.795262 
L 218.723437 278.180123 
L 217.493997 278.794843 
L 219.338157 272.647643 
L 221.182317 278.794843 
L 219.952877 278.180123 
L 219.952877 281.795262 
L 218.723437 281.795262 
" clip-path="url(#p2074436604)" style="fill: #0000ff"/>
    <path d="M 218.723437 262.30921 
L 218.723437 258.694071 
L 217.493997 259.308791 
L 219.338157 253.161591 
L 221.182317 259.308791 
L 219.952877 258.694071 
L 219.952877 262.30921 
L 218.723437 262.30921 
" clip-path="url(#p2074436604)" style="fill: #0000ff"/>
    <path d="M 218.723437 242.823157 
L 218.723437 239.208018 
L 217.493997 239.822738 
L 219.338157 233.675538 
L 221.182317 239.822738 
L 219.952877 239.208018 
L 219.952877 242.823157 
L 218.723437 242.823157 
" clip-path="url(#p2074436604)" style="fill: #0000ff"/>
    <path d="M 218.723437 223.337105 
L 218.723437 219.721966 
L 217.493997 220.336686 
L 219.338157 214.189486 
L 221.182317 220.336686 
L 219.952877 219.721966 
L 219.952877 223.337105 
L 218.723437 223.337105 
" clip-path="url(#p2074436604)" style="fill: #0000ff"/>
    <path d="M 218.723437 203.851052 
L 218.723437 200.235913 
L 217.493997 200.850633 
L 219.338157 194.703433 
L 221.182317 200.850633 
L 219.952877 200.235913 
L 219.952877 203.851052 
L 218.723437 203.851052 
" clip-path="url(#p2074436604)" style="fill: #0000ff"/>
    <path d="M 218.723437 184.365 
L 218.723437 180.749861 
L 217.493997 181.364581 
L 219.338157 175.217381 
L 221.182317 181.364581 
L 219.952877 180.749861 
L 219.952877 184.365 
L 218.723437 184.365 
" clip-path="url(#p2074436604)" style="fill: #0000ff"/>
    <path d="M 218.723437 164.878948 
L 218.723437 161.263809 
L 217.493997 161.878529 
L 219.338157 155.731329 
L 221.182317 161.878529 
L 219.952877 161.263809 
L 219.952877 164.878948 
L 218.723437 164.878948 
" clip-path="url(#p2074436604)" style="fill: #0000ff"/>
    <path d="M 218.723437 145.392895 
L 218.723437 141.777756 
L 217.493997 142.392476 
L 219.338157 136.245276 
L 221.182317 142.392476 
L 219.952877 141.777756 
L 219.952877 145.392895 
L 218.723437 145.392895 
" clip-path="url(#p2074436604)" style="fill: #0000ff"/>
    <path d="M 218.723437 125.906843 
L 218.723437 122.291704 
L 217.493997 122.906424 
L 219.338157 116.759224 
L 221.182317 122.906424 
L 219.952877 122.291704 
L 219.952877 125.906843 
L 218.723437 125.906843 
" clip-path="url(#p2074436604)" style="fill: #0000ff"/>
    <path d="M 218.723437 106.42079 
L 218.723437 102.805651 
L 217.493997 103.420371 
L 219.338157 97.273171 
L 221.182317 103.420371 
L 219.952877 102.805651 
L 219.952877 106.42079 
L 218.723437 106.42079 
" clip-path="url(#p2074436604)" style="fill: #0000ff"/>
    <path d="M 218.723437 86.934738 
L 218.723437 83.319599 
L 217.493997 83.934319 
L 219.338157 77.787119 
L 221.182317 83.934319 
L 219.952877 83.319599 
L 219.952877 86.934738 
L 218.723437 86.934738 
" clip-path="url(#p2074436604)" style="fill: #0000ff"/>
    <path d="M 218.723437 67.448686 
L 218.723437 63.833546 
L 217.493997 64.448266 
L 219.338157 58.301066 
L 221.182317 64.448266 
L 219.952877 63.833546 
L 219.952877 67.448686 
L 218.723437 67.448686 
" clip-path="url(#p2074436604)" style="fill: #0000ff"/>
    <path d="M 218.723437 47.962633 
L 218.723437 44.347494 
L 217.493997 44.962214 
L 219.338157 38.815014 
L 221.182317 44.962214 
L 219.952877 44.347494 
L 219.952877 47.962633 
L 218.723437 47.962633 
" clip-path="url(#p2074436604)" style="fill: #0000ff"/>
    <path d="M 238.20949 320.767367 
L 238.20949 314.103021 
L 236.98005 314.717741 
L 238.82421 308.570541 
L 240.66837 314.717741 
L 239.43893 314.103021 
L 239.43893 320.767367 
L 238.20949 320.767367 
" clip-path="url(#p2074436604)" style="fill: #0000ff"/>
    <path d="M 238.20949 301.281314 
L 238.20949 294.616969 
L 236.98005 295.231689 
L 238.82421 289.084489 
L 240.66837 295.231689 
L 239.43893 294.616969 
L 239.43893 301.281314 
L 238.20949 301.281314 
" clip-path="url(#p2074436604)" style="fill: #0000ff"/>
    <path d="M 238.20949 281.795262 
L 238.20949 275.130917 
L 236.98005 275.745637 
L 238.82421 269.598437 
L 240.66837 275.745637 
L 239.43893 275.130917 
L 239.43893 281.795262 
L 238.20949 281.795262 
" clip-path="url(#p2074436604)" style="fill: #0000ff"/>
    <path d="M 238.20949 262.30921 
L 238.20949 255.644864 
L 236.98005 256.259584 
L 238.82421 250.112384 
L 240.66837 256.259584 
L 239.43893 255.644864 
L 239.43893 262.30921 
L 238.20949 262.30921 
" clip-path="url(#p2074436604)" style="fill: #0000ff"/>
    <path d="M 238.20949 242.823157 
L 238.20949 236.158812 
L 236.98005 236.773532 
L 238.82421 230.626332 
L 240.66837 236.773532 
L 239.43893 236.158812 
L 239.43893 242.823157 
L 238.20949 242.823157 
" clip-path="url(#p2074436604)" style="fill: #0000ff"/>
    <path d="M 238.20949 223.337105 
L 238.20949 216.672759 
L 236.98005 217.287479 
L 238.82421 211.140279 
L 240.66837 217.287479 
L 239.43893 216.672759 
L 239.43893 223.337105 
L 238.20949 223.337105 
" clip-path="url(#p2074436604)" style="fill: #0000ff"/>
    <path d="M 238.20949 203.851052 
L 238.20949 197.186707 
L 236.98005 197.801427 
L 238.82421 191.654227 
L 240.66837 197.801427 
L 239.43893 197.186707 
L 239.43893 203.851052 
L 238.20949 203.851052 
" clip-path="url(#p2074436604)" style="fill: #0000ff"/>
    <path d="M 238.20949 184.365 
L 238.20949 177.700655 
L 236.98005 178.315375 
L 238.82421 172.168175 
L 240.66837 178.315375 
L 239.43893 177.700655 
L 239.43893 184.365 
L 238.20949 184.365 
" clip-path="url(#p2074436604)" style="fill: #0000ff"/>
    <path d="M 238.20949 164.878948 
L 238.20949 158.214602 
L 236.98005 158.829322 
L 238.82421 152.682122 
L 240.66837 158.829322 
L 239.43893 158.214602 
L 239.43893 164.878948 
L 238.20949 164.878948 
" clip-path="url(#p2074436604)" style="fill: #0000ff"/>
    <path d="M 238.20949 145.392895 
L 238.20949 138.72855 
L 236.98005 139.34327 
L 238.82421 133.19607 
L 240.66837 139.34327 
L 239.43893 138.72855 
L 239.43893 145.392895 
L 238.20949 145.392895 
" clip-path="url(#p2074436604)" style="fill: #0000ff"/>
    <path d="M 238.20949 125.906843 
L 238.20949 119.242497 
L 236.98005 119.857217 
L 238.82421 113.710017 
L 240.66837 119.857217 
L 239.43893 119.242497 
L 239.43893 125.906843 
L 238.20949 125.906843 
" clip-path="url(#p2074436604)" style="fill: #0000ff"/>
    <path d="M 238.20949 106.42079 
L 238.20949 99.756445 
L 236.98005 100.371165 
L 238.82421 94.223965 
L 240.66837 100.371165 
L 239.43893 99.756445 
L 239.43893 106.42079 
L 238.20949 106.42079 
" clip-path="url(#p2074436604)" style="fill: #0000ff"/>
    <path d="M 238.20949 86.934738 
L 238.20949 80.270393 
L 236.98005 80.885113 
L 238.82421 74.737913 
L 240.66837 80.885113 
L 239.43893 80.270393 
L 239.43893 86.934738 
L 238.20949 86.934738 
" clip-path="url(#p2074436604)" style="fill: #0000ff"/>
    <path d="M 238.20949 67.448686 
L 238.20949 60.78434 
L 236.98005 61.39906 
L 238.82421 55.25186 
L 240.66837 61.39906 
L 239.43893 60.78434 
L 239.43893 67.448686 
L 238.20949 67.448686 
" clip-path="url(#p2074436604)" style="fill: #0000ff"/>
    <path d="M 238.20949 47.962633 
L 238.20949 41.298288 
L 236.98005 41.913008 
L 238.82421 35.765808 
L 240.66837 41.913008 
L 239.43893 41.298288 
L 239.43893 47.962633 
L 238.20949 47.962633 
" clip-path="url(#p2074436604)" style="fill: #0000ff"/>
    <path d="M 257.695542 320.767367 
L 257.695542 311.053815 
L 256.466102 311.668535 
L 258.310262 305.521335 
L 260.154422 311.668535 
L 258.924982 311.053815 
L 258.924982 320.767367 
L 257.695542 320.767367 
" clip-path="url(#p2074436604)" style="fill: #0000ff"/>
    <path d="M 257.695542 301.281314 
L 257.695542 291.567763 
L 256.466102 292.182483 
L 258.310262 286.035283 
L 260.154422 292.182483 
L 258.924982 291.567763 
L 258.924982 301.281314 
L 257.695542 301.281314 
" clip-path="url(#p2074436604)" style="fill: #0000ff"/>
    <path d="M 257.695542 281.795262 
L 257.695542 272.08171 
L 256.466102 272.69643 
L 258.310262 266.54923 
L 260.154422 272.69643 
L 258.924982 272.08171 
L 258.924982 281.795262 
L 257.695542 281.795262 
" clip-path="url(#p2074436604)" style="fill: #0000ff"/>
    <path d="M 257.695542 262.30921 
L 257.695542 252.595658 
L 256.466102 253.210378 
L 258.310262 247.063178 
L 260.154422 253.210378 
L 258.924982 252.595658 
L 258.924982 262.30921 
L 257.695542 262.30921 
" clip-path="url(#p2074436604)" style="fill: #0000ff"/>
    <path d="M 257.695542 242.823157 
L 257.695542 233.109605 
L 256.466102 233.724325 
L 258.310262 227.577125 
L 260.154422 233.724325 
L 258.924982 233.109605 
L 258.924982 242.823157 
L 257.695542 242.823157 
" clip-path="url(#p2074436604)" style="fill: #0000ff"/>
    <path d="M 257.695542 223.337105 
L 257.695542 213.623553 
L 256.466102 214.238273 
L 258.310262 208.091073 
L 260.154422 214.238273 
L 258.924982 213.623553 
L 258.924982 223.337105 
L 257.695542 223.337105 
" clip-path="url(#p2074436604)" style="fill: #0000ff"/>
    <path d="M 257.695542 203.851052 
L 257.695542 194.137501 
L 256.466102 194.752221 
L 258.310262 188.605021 
L 260.154422 194.752221 
L 258.924982 194.137501 
L 258.924982 203.851052 
L 257.695542 203.851052 
" clip-path="url(#p2074436604)" style="fill: #0000ff"/>
    <path d="M 257.695542 184.365 
L 257.695542 174.651448 
L 256.466102 175.266168 
L 258.310262 169.118968 
L 260.154422 175.266168 
L 258.924982 174.651448 
L 258.924982 184.365 
L 257.695542 184.365 
" clip-path="url(#p2074436604)" style="fill: #0000ff"/>
    <path d="M 257.695542 164.878948 
L 257.695542 155.165396 
L 256.466102 155.780116 
L 258.310262 149.632916 
L 260.154422 155.780116 
L 258.924982 155.165396 
L 258.924982 164.878948 
L 257.695542 164.878948 
" clip-path="url(#p2074436604)" style="fill: #0000ff"/>
    <path d="M 257.695542 145.392895 
L 257.695542 135.679343 
L 256.466102 136.294063 
L 258.310262 130.146863 
L 260.154422 136.294063 
L 258.924982 135.679343 
L 258.924982 145.392895 
L 257.695542 145.392895 
" clip-path="url(#p2074436604)" style="fill: #0000ff"/>
    <path d="M 257.695542 125.906843 
L 257.695542 116.193291 
L 256.466102 116.808011 
L 258.310262 110.660811 
L 260.154422 116.808011 
L 258.924982 116.193291 
L 258.924982 125.906843 
L 257.695542 125.906843 
" clip-path="url(#p2074436604)" style="fill: #0000ff"/>
    <path d="M 257.695542 106.42079 
L 257.695542 96.707239 
L 256.466102 97.321959 
L 258.310262 91.174759 
L 260.154422 97.321959 
L 258.924982 96.707239 
L 258.924982 106.42079 
L 257.695542 106.42079 
" clip-path="url(#p2074436604)" style="fill: #0000ff"/>
    <path d="M 257.695542 86.934738 
L 257.695542 77.221186 
L 256.466102 77.835906 
L 258.310262 71.688706 
L 260.154422 77.835906 
L 258.924982 77.221186 
L 258.924982 86.934738 
L 257.695542 86.934738 
" clip-path="url(#p2074436604)" style="fill: #0000ff"/>
    <path d="M 257.695542 67.448686 
L 257.695542 57.735134 
L 256.466102 58.349854 
L 258.310262 52.202654 
L 260.154422 58.349854 
L 258.924982 57.735134 
L 258.924982 67.448686 
L 257.695542 67.448686 
" clip-path="url(#p2074436604)" style="fill: #0000ff"/>
    <path d="M 257.695542 47.962633 
L 257.695542 38.249081 
L 256.466102 38.863801 
L 258.310262 32.716601 
L 260.154422 38.863801 
L 258.924982 38.249081 
L 258.924982 47.962633 
L 257.695542 47.962633 
" clip-path="url(#p2074436604)" style="fill: #0000ff"/>
    <path d="M 277.181594 320.767367 
L 277.181594 308.004609 
L 275.952154 308.619329 
L 277.796314 302.472129 
L 279.640474 308.619329 
L 278.411034 308.004609 
L 278.411034 320.767367 
L 277.181594 320.767367 
" clip-path="url(#p2074436604)" style="fill: #0000ff"/>
    <path d="M 277.181594 301.281314 
L 277.181594 288.518556 
L 275.952154 289.133276 
L 277.796314 282.986076 
L 279.640474 289.133276 
L 278.411034 288.518556 
L 278.411034 301.281314 
L 277.181594 301.281314 
" clip-path="url(#p2074436604)" style="fill: #0000ff"/>
    <path d="M 277.181594 281.795262 
L 277.181594 269.032504 
L 275.952154 269.647224 
L 277.796314 263.500024 
L 279.640474 269.647224 
L 278.411034 269.032504 
L 278.411034 281.795262 
L 277.181594 281.795262 
" clip-path="url(#p2074436604)" style="fill: #0000ff"/>
    <path d="M 277.181594 262.30921 
L 277.181594 249.546452 
L 275.952154 250.161172 
L 277.796314 244.013972 
L 279.640474 250.161172 
L 278.411034 249.546452 
L 278.411034 262.30921 
L 277.181594 262.30921 
" clip-path="url(#p2074436604)" style="fill: #0000ff"/>
    <path d="M 277.181594 242.823157 
L 277.181594 230.060399 
L 275.952154 230.675119 
L 277.796314 224.527919 
L 279.640474 230.675119 
L 278.411034 230.060399 
L 278.411034 242.823157 
L 277.181594 242.823157 
" clip-path="url(#p2074436604)" style="fill: #0000ff"/>
    <path d="M 277.181594 223.337105 
L 277.181594 210.574347 
L 275.952154 211.189067 
L 277.796314 205.041867 
L 279.640474 211.189067 
L 278.411034 210.574347 
L 278.411034 223.337105 
L 277.181594 223.337105 
" clip-path="url(#p2074436604)" style="fill: #0000ff"/>
    <path d="M 277.181594 203.851052 
L 277.181594 191.088294 
L 275.952154 191.703014 
L 277.796314 185.555814 
L 279.640474 191.703014 
L 278.411034 191.088294 
L 278.411034 203.851052 
L 277.181594 203.851052 
" clip-path="url(#p2074436604)" style="fill: #0000ff"/>
    <path d="M 277.181594 184.365 
L 277.181594 171.602242 
L 275.952154 172.216962 
L 277.796314 166.069762 
L 279.640474 172.216962 
L 278.411034 171.602242 
L 278.411034 184.365 
L 277.181594 184.365 
" clip-path="url(#p2074436604)" style="fill: #0000ff"/>
    <path d="M 277.181594 164.878948 
L 277.181594 152.116189 
L 275.952154 152.730909 
L 277.796314 146.583709 
L 279.640474 152.730909 
L 278.411034 152.116189 
L 278.411034 164.878948 
L 277.181594 164.878948 
" clip-path="url(#p2074436604)" style="fill: #0000ff"/>
    <path d="M 277.181594 145.392895 
L 277.181594 132.630137 
L 275.952154 133.244857 
L 277.796314 127.097657 
L 279.640474 133.244857 
L 278.411034 132.630137 
L 278.411034 145.392895 
L 277.181594 145.392895 
" clip-path="url(#p2074436604)" style="fill: #0000ff"/>
    <path d="M 277.181594 125.906843 
L 277.181594 113.144085 
L 275.952154 113.758805 
L 277.796314 107.611605 
L 279.640474 113.758805 
L 278.411034 113.144085 
L 278.411034 125.906843 
L 277.181594 125.906843 
" clip-path="url(#p2074436604)" style="fill: #0000ff"/>
    <path d="M 277.181594 106.42079 
L 277.181594 93.658032 
L 275.952154 94.272752 
L 277.796314 88.125552 
L 279.640474 94.272752 
L 278.411034 93.658032 
L 278.411034 106.42079 
L 277.181594 106.42079 
" clip-path="url(#p2074436604)" style="fill: #0000ff"/>
    <path d="M 277.181594 86.934738 
L 277.181594 74.17198 
L 275.952154 74.7867 
L 277.796314 68.6395 
L 279.640474 74.7867 
L 278.411034 74.17198 
L 278.411034 86.934738 
L 277.181594 86.934738 
" clip-path="url(#p2074436604)" style="fill: #0000ff"/>
    <path d="M 277.181594 67.448686 
L 277.181594 54.685927 
L 275.952154 55.300647 
L 277.796314 49.153447 
L 279.640474 55.300647 
L 278.411034 54.685927 
L 278.411034 67.448686 
L 277.181594 67.448686 
" clip-path="url(#p2074436604)" style="fill: #0000ff"/>
    <path d="M 277.181594 47.962633 
L 277.181594 35.199875 
L 275.952154 35.814595 
L 277.796314 29.667395 
L 279.640474 35.814595 
L 278.411034 35.199875 
L 278.411034 47.962633 
L 277.181594 47.962633 
" clip-path="url(#p2074436604)" style="fill: #0000ff"/>
    <path d="M 296.667647 320.767367 
L 296.667647 304.955402 
L 295.438207 305.570122 
L 297.282367 299.422922 
L 299.126527 305.570122 
L 297.897087 304.955402 
L 297.897087 320.767367 
L 296.667647 320.767367 
" clip-path="url(#p2074436604)" style="fill: #0000ff"/>
    <path d="M 296.667647 301.281314 
L 296.667647 285.46935 
L 295.438207 286.08407 
L 297.282367 279.93687 
L 299.126527 286.08407 
L 297.897087 285.46935 
L 297.897087 301.281314 
L 296.667647 301.281314 
" clip-path="url(#p2074436604)" style="fill: #0000ff"/>
    <path d="M 296.667647 281.795262 
L 296.667647 265.983298 
L 295.438207 266.598018 
L 297.282367 260.450818 
L 299.126527 266.598018 
L 297.897087 265.983298 
L 297.897087 281.795262 
L 296.667647 281.795262 
" clip-path="url(#p2074436604)" style="fill: #0000ff"/>
    <path d="M 296.667647 262.30921 
L 296.667647 246.497245 
L 295.438207 247.111965 
L 297.282367 240.964765 
L 299.126527 247.111965 
L 297.897087 246.497245 
L 297.897087 262.30921 
L 296.667647 262.30921 
" clip-path="url(#p2074436604)" style="fill: #0000ff"/>
    <path d="M 296.667647 242.823157 
L 296.667647 227.011193 
L 295.438207 227.625913 
L 297.282367 221.478713 
L 299.126527 227.625913 
L 297.897087 227.011193 
L 297.897087 242.823157 
L 296.667647 242.823157 
" clip-path="url(#p2074436604)" style="fill: #0000ff"/>
    <path d="M 296.667647 223.337105 
L 296.667647 207.52514 
L 295.438207 208.13986 
L 297.282367 201.99266 
L 299.126527 208.13986 
L 297.897087 207.52514 
L 297.897087 223.337105 
L 296.667647 223.337105 
" clip-path="url(#p2074436604)" style="fill: #0000ff"/>
    <path d="M 296.667647 203.851052 
L 296.667647 188.039088 
L 295.438207 188.653808 
L 297.282367 182.506608 
L 299.126527 188.653808 
L 297.897087 188.039088 
L 297.897087 203.851052 
L 296.667647 203.851052 
" clip-path="url(#p2074436604)" style="fill: #0000ff"/>
    <path d="M 296.667647 184.365 
L 296.667647 168.553036 
L 295.438207 169.167756 
L 297.282367 163.020556 
L 299.126527 169.167756 
L 297.897087 168.553036 
L 297.897087 184.365 
L 296.667647 184.365 
" clip-path="url(#p2074436604)" style="fill: #0000ff"/>
    <path d="M 296.667647 164.878948 
L 296.667647 149.066983 
L 295.438207 149.681703 
L 297.282367 143.534503 
L 299.126527 149.681703 
L 297.897087 149.066983 
L 297.897087 164.878948 
L 296.667647 164.878948 
" clip-path="url(#p2074436604)" style="fill: #0000ff"/>
    <path d="M 296.667647 145.392895 
L 296.667647 129.580931 
L 295.438207 130.195651 
L 297.282367 124.048451 
L 299.126527 130.195651 
L 297.897087 129.580931 
L 297.897087 145.392895 
L 296.667647 145.392895 
" clip-path="url(#p2074436604)" style="fill: #0000ff"/>
    <path d="M 296.667647 125.906843 
L 296.667647 110.094878 
L 295.438207 110.709598 
L 297.282367 104.562398 
L 299.126527 110.709598 
L 297.897087 110.094878 
L 297.897087 125.906843 
L 296.667647 125.906843 
" clip-path="url(#p2074436604)" style="fill: #0000ff"/>
    <path d="M 296.667647 106.42079 
L 296.667647 90.608826 
L 295.438207 91.223546 
L 297.282367 85.076346 
L 299.126527 91.223546 
L 297.897087 90.608826 
L 297.897087 106.42079 
L 296.667647 106.42079 
" clip-path="url(#p2074436604)" style="fill: #0000ff"/>
    <path d="M 296.667647 86.934738 
L 296.667647 71.122774 
L 295.438207 71.737494 
L 297.282367 65.590294 
L 299.126527 71.737494 
L 297.897087 71.122774 
L 297.897087 86.934738 
L 296.667647 86.934738 
" clip-path="url(#p2074436604)" style="fill: #0000ff"/>
    <path d="M 296.667647 67.448686 
L 296.667647 51.636721 
L 295.438207 52.251441 
L 297.282367 46.104241 
L 299.126527 52.251441 
L 297.897087 51.636721 
L 297.897087 67.448686 
L 296.667647 67.448686 
" clip-path="url(#p2074436604)" style="fill: #0000ff"/>
    <path d="M 296.667647 47.962633 
L 296.667647 32.150669 
L 295.438207 32.765389 
L 297.282367 26.618189 
L 299.126527 32.765389 
L 297.897087 32.150669 
L 297.897087 47.962633 
L 296.667647 47.962633 
" clip-path="url(#p2074436604)" style="fill: #0000ff"/>
   </g>
   <g id="matplotlib.axis_1">
    <g id="xtick_1">
     <g id="line2d_1">
      <defs>
       <path id="m81e0dd7c93" d="M 0 0 
L 0 3.5 
" style="stroke: #000000; stroke-width: 0.8"/>
      </defs>
      <g>
       <use xlink:href="#m81e0dd7c93" x="24.477633" y="184.365" style="stroke: #000000; stroke-width: 0.8"/>
      </g>
     </g>
     <g id="text_1">
      <!-- 3 -->
      <g transform="translate(17.106539 198.963437)scale(0.1 -0.1)">
       <defs>
        <path id="DejaVuSans-2212" d="M 678 2272 
L 4684 2272 
L 4684 1741 
L 678 1741 
L 678 2272 
z
" transform="scale(0.015625)"/>
        <path id="DejaVuSans-33" d="M 2597 2516 
Q 3050 2419 3304 2112 
Q 3559 1806 3559 1356 
Q 3559 666 3084 287 
Q 2609 -91 1734 -91 
Q 1441 -91 1130 -33 
Q 819 25 488 141 
L 488 750 
Q 750 597 1062 519 
Q 1375 441 1716 441 
Q 2309 441 2620 675 
Q 2931 909 2931 1356 
Q 2931 1769 2642 2001 
Q 2353 2234 1838 2234 
L 1294 2234 
L 1294 2753 
L 1863 2753 
Q 2328 2753 2575 2939 
Q 2822 3125 2822 3475 
Q 2822 3834 2567 4026 
Q 2313 4219 1838 4219 
Q 1578 4219 1281 4162 
Q 984 4106 628 3988 
L 628 4550 
Q 988 4650 1302 4700 
Q 1616 4750 1894 4750 
Q 2613 4750 3031 4423 
Q 3450 4097 3450 3541 
Q 3450 3153 3228 2886 
Q 3006 2619 2597 2516 
z
" transform="scale(0.015625)"/>
       </defs>
       <use xlink:href="#DejaVuSans-2212"/>
       <use xlink:href="#DejaVuSans-33" x="83.789062"/>
      </g>
     </g>
    </g>
    <g id="xtick_2">
     <g id="line2d_2">
      <g>
       <use xlink:href="#m81e0dd7c93" x="69.945089" y="184.365" style="stroke: #000000; stroke-width: 0.8"/>
      </g>
     </g>
     <g id="text_2">
      <!-- 2 -->
      <g transform="translate(62.573995 198.963437)scale(0.1 -0.1)">
       <defs>
        <path id="DejaVuSans-32" d="M 1228 531 
L 3431 531 
L 3431 0 
L 469 0 
L 469 531 
Q 828 903 1448 1529 
Q 2069 2156 2228 2338 
Q 2531 2678 2651 2914 
Q 2772 3150 2772 3378 
Q 2772 3750 2511 3984 
Q 2250 4219 1831 4219 
Q 1534 4219 1204 4116 
Q 875 4013 500 3803 
L 500 4441 
Q 881 4594 1212 4672 
Q 1544 4750 1819 4750 
Q 2544 4750 2975 4387 
Q 3406 4025 3406 3419 
Q 3406 3131 3298 2873 
Q 3191 2616 2906 2266 
Q 2828 2175 2409 1742 
Q 1991 1309 1228 531 
z
" transform="scale(0.015625)"/>
       </defs>
       <use xlink:href="#DejaVuSans-2212"/>
       <use xlink:href="#DejaVuSans-32" x="83.789062"/>
      </g>
     </g>
    </g>
    <g id="xtick_3">
     <g id="line2d_3">
      <g>
       <use xlink:href="#m81e0dd7c93" x="115.412544" y="184.365" style="stroke: #000000; stroke-width: 0.8"/>
      </g>
     </g>
     <g id="text_3">
      <!-- 1 -->
      <g transform="translate(108.041451 198.963437)scale(0.1 -0.1)">
       <defs>
        <path id="DejaVuSans-31" d="M 794 531 
L 1825 531 
L 1825 4091 
L 703 3866 
L 703 4441 
L 1819 4666 
L 2450 4666 
L 2450 531 
L 3481 531 
L 3481 0 
L 794 0 
L 794 531 
z
" transform="scale(0.015625)"/>
       </defs>
       <use xlink:href="#DejaVuSans-2212"/>
       <use xlink:href="#DejaVuSans-31" x="83.789062"/>
      </g>
     </g>
    </g>
    <g id="xtick_4">
     <g id="line2d_4">
      <g>
       <use xlink:href="#m81e0dd7c93" x="160.88" y="184.365" style="stroke: #000000; stroke-width: 0.8"/>
      </g>
     </g>
    </g>
    <g id="xtick_5">
     <g id="line2d_5">
      <g>
       <use xlink:href="#m81e0dd7c93" x="206.347456" y="184.365" style="stroke: #000000; stroke-width: 0.8"/>
      </g>
     </g>
     <g id="text_4">
      <!-- 1 -->
      <g transform="translate(203.166206 198.963437)scale(0.1 -0.1)">
       <use xlink:href="#DejaVuSans-31"/>
      </g>
     </g>
    </g>
    <g id="xtick_6">
     <g id="line2d_6">
      <g>
       <use xlink:href="#m81e0dd7c93" x="251.814911" y="184.365" style="stroke: #000000; stroke-width: 0.8"/>
      </g>
     </g>
     <g id="text_5">
      <!-- 2 -->
      <g transform="translate(248.633661 198.963437)scale(0.1 -0.1)">
       <use xlink:href="#DejaVuSans-32"/>
      </g>
     </g>
    </g>
    <g id="xtick_7">
     <g id="line2d_7">
      <g>
       <use xlink:href="#m81e0dd7c93" x="297.282367" y="184.365" style="stroke: #000000; stroke-width: 0.8"/>
      </g>
     </g>
     <g id="text_6">
      <!-- 3 -->
      <g transform="translate(294.101117 198.963437)scale(0.1 -0.1)">
       <use xlink:href="#DejaVuSans-33"/>
      </g>
     </g>
    </g>
    <g id="xtick_8">
     <g id="line2d_8">
      <defs>
       <path id="m1a03f8ad3d" d="M 0 0 
L 0 2 
" style="stroke: #000000; stroke-width: 0.6"/>
      </defs>
      <g>
       <use xlink:href="#m1a03f8ad3d" x="15.384142" y="184.365" style="stroke: #000000; stroke-width: 0.6"/>
      </g>
     </g>
    </g>
    <g id="xtick_9">
     <g id="line2d_9">
      <g>
       <use xlink:href="#m1a03f8ad3d" x="33.571124" y="184.365" style="stroke: #000000; stroke-width: 0.6"/>
      </g>
     </g>
    </g>
    <g id="xtick_10">
     <g id="line2d_10">
      <g>
       <use xlink:href="#m1a03f8ad3d" x="42.664615" y="184.365" style="stroke: #000000; stroke-width: 0.6"/>
      </g>
     </g>
    </g>
    <g id="xtick_11">
     <g id="line2d_11">
      <g>
       <use xlink:href="#m1a03f8ad3d" x="51.758107" y="184.365" style="stroke: #000000; stroke-width: 0.6"/>
      </g>
     </g>
    </g>
    <g id="xtick_12">
     <g id="line2d_12">
      <g>
       <use xlink:href="#m1a03f8ad3d" x="60.851598" y="184.365" style="stroke: #000000; stroke-width: 0.6"/>
      </g>
     </g>
    </g>
    <g id="xtick_13">
     <g id="line2d_13">
      <g>
       <use xlink:href="#m1a03f8ad3d" x="79.03858" y="184.365" style="stroke: #000000; stroke-width: 0.6"/>
      </g>
     </g>
    </g>
    <g id="xtick_14">
     <g id="line2d_14">
      <g>
       <use xlink:href="#m1a03f8ad3d" x="88.132071" y="184.365" style="stroke: #000000; stroke-width: 0.6"/>
      </g>
     </g>
    </g>
    <g id="xtick_15">
     <g id="line2d_15">
      <g>
       <use xlink:href="#m1a03f8ad3d" x="97.225562" y="184.365" style="stroke: #000000; stroke-width: 0.6"/>
      </g>
     </g>
    </g>
    <g id="xtick_16">
     <g id="line2d_16">
      <g>
       <use xlink:href="#m1a03f8ad3d" x="106.319053" y="184.365" style="stroke: #000000; stroke-width: 0.6"/>
      </g>
     </g>
    </g>
    <g id="xtick_17">
     <g id="line2d_17">
      <g>
       <use xlink:href="#m1a03f8ad3d" x="124.506036" y="184.365" style="stroke: #000000; stroke-width: 0.6"/>
      </g>
     </g>
    </g>
    <g id="xtick_18">
     <g id="line2d_18">
      <g>
       <use xlink:href="#m1a03f8ad3d" x="133.599527" y="184.365" style="stroke: #000000; stroke-width: 0.6"/>
      </g>
     </g>
    </g>
    <g id="xtick_19">
     <g id="line2d_19">
      <g>
       <use xlink:href="#m1a03f8ad3d" x="142.693018" y="184.365" style="stroke: #000000; stroke-width: 0.6"/>
      </g>
     </g>
    </g>
    <g id="xtick_20">
     <g id="line2d_20">
      <g>
       <use xlink:href="#m1a03f8ad3d" x="151.786509" y="184.365" style="stroke: #000000; stroke-width: 0.6"/>
      </g>
     </g>
    </g>
    <g id="xtick_21">
     <g id="line2d_21">
      <g>
       <use xlink:href="#m1a03f8ad3d" x="169.973491" y="184.365" style="stroke: #000000; stroke-width: 0.6"/>
      </g>
     </g>
    </g>
    <g id="xtick_22">
     <g id="line2d_22">
      <g>
       <use xlink:href="#m1a03f8ad3d" x="179.066982" y="184.365" style="stroke: #000000; stroke-width: 0.6"/>
      </g>
     </g>
    </g>
    <g id="xtick_23">
     <g id="line2d_23">
      <g>
       <use xlink:href="#m1a03f8ad3d" x="188.160473" y="184.365" style="stroke: #000000; stroke-width: 0.6"/>
      </g>
     </g>
    </g>
    <g id="xtick_24">
     <g id="line2d_24">
      <g>
       <use xlink:href="#m1a03f8ad3d" x="197.253964" y="184.365" style="stroke: #000000; stroke-width: 0.6"/>
      </g>
     </g>
    </g>
    <g id="xtick_25">
     <g id="line2d_25">
      <g>
       <use xlink:href="#m1a03f8ad3d" x="215.440947" y="184.365" style="stroke: #000000; stroke-width: 0.6"/>
      </g>
     </g>
    </g>
    <g id="xtick_26">
     <g id="line2d_26">
      <g>
       <use xlink:href="#m1a03f8ad3d" x="224.534438" y="184.365" style="stroke: #000000; stroke-width: 0.6"/>
      </g>
     </g>
    </g>
    <g id="xtick_27">
     <g id="line2d_27">
      <g>
       <use xlink:href="#m1a03f8ad3d" x="233.627929" y="184.365" style="stroke: #000000; stroke-width: 0.6"/>
      </g>
     </g>
    </g>
    <g id="xtick_28">
     <g id="line2d_28">
      <g>
       <use xlink:href="#m1a03f8ad3d" x="242.72142" y="184.365" style="stroke: #000000; stroke-width: 0.6"/>
      </g>
     </g>
    </g>
    <g id="xtick_29">
     <g id="line2d_29">
      <g>
       <use xlink:href="#m1a03f8ad3d" x="260.908402" y="184.365" style="stroke: #000000; stroke-width: 0.6"/>
      </g>
     </g>
    </g>
    <g id="xtick_30">
     <g id="line2d_30">
      <g>
       <use xlink:href="#m1a03f8ad3d" x="270.001893" y="184.365" style="stroke: #000000; stroke-width: 0.6"/>
      </g>
     </g>
    </g>
    <g id="xtick_31">
     <g id="line2d_31">
      <g>
       <use xlink:href="#m1a03f8ad3d" x="279.095385" y="184.365" style="stroke: #000000; stroke-width: 0.6"/>
      </g>
     </g>
    </g>
    <g id="xtick_32">
     <g id="line2d_32">
      <g>
       <use xlink:href="#m1a03f8ad3d" x="288.188876" y="184.365" style="stroke: #000000; stroke-width: 0.6"/>
      </g>
     </g>
    </g>
    <g id="xtick_33">
     <g id="line2d_33">
      <g>
       <use xlink:href="#m1a03f8ad3d" x="306.375858" y="184.365" style="stroke: #000000; stroke-width: 0.6"/>
      </g>
     </g>
    </g>
    <g id="text_7">
     <!-- $x$ -->
     <g transform="translate(322.56 184.365)scale(0.16 -0.16)">
      <defs>
       <path id="Cmmi10-78" d="M 500 184 
Q 613 97 819 97 
Q 1019 97 1172 289 
Q 1325 481 1381 709 
L 1672 1844 
Q 1741 2153 1741 2266 
Q 1741 2425 1652 2544 
Q 1563 2663 1403 2663 
Q 1200 2663 1022 2536 
Q 844 2409 722 2214 
Q 600 2019 550 1819 
Q 538 1778 500 1778 
L 422 1778 
Q 372 1778 372 1838 
L 372 1856 
Q 434 2094 584 2320 
Q 734 2547 951 2687 
Q 1169 2828 1416 2828 
Q 1650 2828 1839 2703 
Q 2028 2578 2106 2363 
Q 2216 2559 2386 2693 
Q 2556 2828 2759 2828 
Q 2897 2828 3040 2779 
Q 3184 2731 3275 2631 
Q 3366 2531 3366 2381 
Q 3366 2219 3261 2101 
Q 3156 1984 2994 1984 
Q 2891 1984 2822 2050 
Q 2753 2116 2753 2216 
Q 2753 2350 2845 2451 
Q 2938 2553 3066 2572 
Q 2950 2663 2747 2663 
Q 2541 2663 2389 2472 
Q 2238 2281 2175 2047 
L 1894 916 
Q 1825 659 1825 494 
Q 1825 331 1917 214 
Q 2009 97 2163 97 
Q 2463 97 2698 361 
Q 2934 625 3009 941 
Q 3022 978 3059 978 
L 3138 978 
Q 3163 978 3178 961 
Q 3194 944 3194 922 
Q 3194 916 3188 903 
Q 3097 522 2806 225 
Q 2516 -72 2150 -72 
Q 1916 -72 1727 54 
Q 1538 181 1459 397 
Q 1359 209 1182 68 
Q 1006 -72 806 -72 
Q 669 -72 523 -23 
Q 378 25 287 125 
Q 197 225 197 378 
Q 197 528 301 651 
Q 406 775 563 775 
Q 669 775 741 711 
Q 813 647 813 544 
Q 813 409 723 309 
Q 634 209 500 184 
z
" transform="scale(0.015625)"/>
      </defs>
      <use xlink:href="#Cmmi10-78" transform="translate(0 0.8125)"/>
     </g>
    </g>
   </g>
   <g id="matplotlib.axis_2">
    <g id="ytick_1">
     <g id="line2d_34">
      <defs>
       <path id="m3f8a9dd0a9" d="M 0 0 
L -3.5 0 
" style="stroke: #000000; stroke-width: 0.8"/>
      </defs>
      <g>
       <use xlink:href="#m3f8a9dd0a9" x="160.88" y="320.767367" style="stroke: #000000; stroke-width: 0.8"/>
      </g>
     </g>
     <g id="text_8">
      <!-- 3 -->
      <g transform="translate(139.137812 324.566586)scale(0.1 -0.1)">
       <use xlink:href="#DejaVuSans-2212"/>
       <use xlink:href="#DejaVuSans-33" x="83.789062"/>
      </g>
     </g>
    </g>
    <g id="ytick_2">
     <g id="line2d_35">
      <g>
       <use xlink:href="#m3f8a9dd0a9" x="160.88" y="275.299911" style="stroke: #000000; stroke-width: 0.8"/>
      </g>
     </g>
     <g id="text_9">
      <!-- 2 -->
      <g transform="translate(139.137812 279.09913)scale(0.1 -0.1)">
       <use xlink:href="#DejaVuSans-2212"/>
       <use xlink:href="#DejaVuSans-32" x="83.789062"/>
      </g>
     </g>
    </g>
    <g id="ytick_3">
     <g id="line2d_36">
      <g>
       <use xlink:href="#m3f8a9dd0a9" x="160.88" y="229.832456" style="stroke: #000000; stroke-width: 0.8"/>
      </g>
     </g>
     <g id="text_10">
      <!-- 1 -->
      <g transform="translate(139.137812 233.631674)scale(0.1 -0.1)">
       <use xlink:href="#DejaVuSans-2212"/>
       <use xlink:href="#DejaVuSans-31" x="83.789062"/>
      </g>
     </g>
    </g>
    <g id="ytick_4">
     <g id="line2d_37">
      <g>
       <use xlink:href="#m3f8a9dd0a9" x="160.88" y="184.365" style="stroke: #000000; stroke-width: 0.8"/>
      </g>
     </g>
    </g>
    <g id="ytick_5">
     <g id="line2d_38">
      <g>
       <use xlink:href="#m3f8a9dd0a9" x="160.88" y="138.897544" style="stroke: #000000; stroke-width: 0.8"/>
      </g>
     </g>
     <g id="text_11">
      <!-- 1 -->
      <g transform="translate(147.5175 142.696763)scale(0.1 -0.1)">
       <use xlink:href="#DejaVuSans-31"/>
      </g>
     </g>
    </g>
    <g id="ytick_6">
     <g id="line2d_39">
      <g>
       <use xlink:href="#m3f8a9dd0a9" x="160.88" y="93.430089" style="stroke: #000000; stroke-width: 0.8"/>
      </g>
     </g>
     <g id="text_12">
      <!-- 2 -->
      <g transform="translate(147.5175 97.229308)scale(0.1 -0.1)">
       <use xlink:href="#DejaVuSans-32"/>
      </g>
     </g>
    </g>
    <g id="ytick_7">
     <g id="line2d_40">
      <g>
       <use xlink:href="#m3f8a9dd0a9" x="160.88" y="47.962633" style="stroke: #000000; stroke-width: 0.8"/>
      </g>
     </g>
     <g id="text_13">
      <!-- 3 -->
      <g transform="translate(147.5175 51.761852)scale(0.1 -0.1)">
       <use xlink:href="#DejaVuSans-33"/>
      </g>
     </g>
    </g>
    <g id="ytick_8">
     <g id="line2d_41">
      <defs>
       <path id="me00e3804bd" d="M 0 0 
L -2 0 
" style="stroke: #000000; stroke-width: 0.6"/>
      </defs>
      <g>
       <use xlink:href="#me00e3804bd" x="160.88" y="329.860858" style="stroke: #000000; stroke-width: 0.6"/>
      </g>
     </g>
    </g>
    <g id="ytick_9">
     <g id="line2d_42">
      <g>
       <use xlink:href="#me00e3804bd" x="160.88" y="311.673876" style="stroke: #000000; stroke-width: 0.6"/>
      </g>
     </g>
    </g>
    <g id="ytick_10">
     <g id="line2d_43">
      <g>
       <use xlink:href="#me00e3804bd" x="160.88" y="302.580385" style="stroke: #000000; stroke-width: 0.6"/>
      </g>
     </g>
    </g>
    <g id="ytick_11">
     <g id="line2d_44">
      <g>
       <use xlink:href="#me00e3804bd" x="160.88" y="293.486893" style="stroke: #000000; stroke-width: 0.6"/>
      </g>
     </g>
    </g>
    <g id="ytick_12">
     <g id="line2d_45">
      <g>
       <use xlink:href="#me00e3804bd" x="160.88" y="284.393402" style="stroke: #000000; stroke-width: 0.6"/>
      </g>
     </g>
    </g>
    <g id="ytick_13">
     <g id="line2d_46">
      <g>
       <use xlink:href="#me00e3804bd" x="160.88" y="266.20642" style="stroke: #000000; stroke-width: 0.6"/>
      </g>
     </g>
    </g>
    <g id="ytick_14">
     <g id="line2d_47">
      <g>
       <use xlink:href="#me00e3804bd" x="160.88" y="257.112929" style="stroke: #000000; stroke-width: 0.6"/>
      </g>
     </g>
    </g>
    <g id="ytick_15">
     <g id="line2d_48">
      <g>
       <use xlink:href="#me00e3804bd" x="160.88" y="248.019438" style="stroke: #000000; stroke-width: 0.6"/>
      </g>
     </g>
    </g>
    <g id="ytick_16">
     <g id="line2d_49">
      <g>
       <use xlink:href="#me00e3804bd" x="160.88" y="238.925947" style="stroke: #000000; stroke-width: 0.6"/>
      </g>
     </g>
    </g>
    <g id="ytick_17">
     <g id="line2d_50">
      <g>
       <use xlink:href="#me00e3804bd" x="160.88" y="220.738964" style="stroke: #000000; stroke-width: 0.6"/>
      </g>
     </g>
    </g>
    <g id="ytick_18">
     <g id="line2d_51">
      <g>
       <use xlink:href="#me00e3804bd" x="160.88" y="211.645473" style="stroke: #000000; stroke-width: 0.6"/>
      </g>
     </g>
    </g>
    <g id="ytick_19">
     <g id="line2d_52">
      <g>
       <use xlink:href="#me00e3804bd" x="160.88" y="202.551982" style="stroke: #000000; stroke-width: 0.6"/>
      </g>
     </g>
    </g>
    <g id="ytick_20">
     <g id="line2d_53">
      <g>
       <use xlink:href="#me00e3804bd" x="160.88" y="193.458491" style="stroke: #000000; stroke-width: 0.6"/>
      </g>
     </g>
    </g>
    <g id="ytick_21">
     <g id="line2d_54">
      <g>
       <use xlink:href="#me00e3804bd" x="160.88" y="175.271509" style="stroke: #000000; stroke-width: 0.6"/>
      </g>
     </g>
    </g>
    <g id="ytick_22">
     <g id="line2d_55">
      <g>
       <use xlink:href="#me00e3804bd" x="160.88" y="166.178018" style="stroke: #000000; stroke-width: 0.6"/>
      </g>
     </g>
    </g>
    <g id="ytick_23">
     <g id="line2d_56">
      <g>
       <use xlink:href="#me00e3804bd" x="160.88" y="157.084527" style="stroke: #000000; stroke-width: 0.6"/>
      </g>
     </g>
    </g>
    <g id="ytick_24">
     <g id="line2d_57">
      <g>
       <use xlink:href="#me00e3804bd" x="160.88" y="147.991036" style="stroke: #000000; stroke-width: 0.6"/>
      </g>
     </g>
    </g>
    <g id="ytick_25">
     <g id="line2d_58">
      <g>
       <use xlink:href="#me00e3804bd" x="160.88" y="129.804053" style="stroke: #000000; stroke-width: 0.6"/>
      </g>
     </g>
    </g>
    <g id="ytick_26">
     <g id="line2d_59">
      <g>
       <use xlink:href="#me00e3804bd" x="160.88" y="120.710562" style="stroke: #000000; stroke-width: 0.6"/>
      </g>
     </g>
    </g>
    <g id="ytick_27">
     <g id="line2d_60">
      <g>
       <use xlink:href="#me00e3804bd" x="160.88" y="111.617071" style="stroke: #000000; stroke-width: 0.6"/>
      </g>
     </g>
    </g>
    <g id="ytick_28">
     <g id="line2d_61">
      <g>
       <use xlink:href="#me00e3804bd" x="160.88" y="102.52358" style="stroke: #000000; stroke-width: 0.6"/>
      </g>
     </g>
    </g>
    <g id="ytick_29">
     <g id="line2d_62">
      <g>
       <use xlink:href="#me00e3804bd" x="160.88" y="84.336598" style="stroke: #000000; stroke-width: 0.6"/>
      </g>
     </g>
    </g>
    <g id="ytick_30">
     <g id="line2d_63">
      <g>
       <use xlink:href="#me00e3804bd" x="160.88" y="75.243107" style="stroke: #000000; stroke-width: 0.6"/>
      </g>
     </g>
    </g>
    <g id="ytick_31">
     <g id="line2d_64">
      <g>
       <use xlink:href="#me00e3804bd" x="160.88" y="66.149615" style="stroke: #000000; stroke-width: 0.6"/>
      </g>
     </g>
    </g>
    <g id="ytick_32">
     <g id="line2d_65">
      <g>
       <use xlink:href="#me00e3804bd" x="160.88" y="57.056124" style="stroke: #000000; stroke-width: 0.6"/>
      </g>
     </g>
    </g>
    <g id="ytick_33">
     <g id="line2d_66">
      <g>
       <use xlink:href="#me00e3804bd" x="160.88" y="38.869142" style="stroke: #000000; stroke-width: 0.6"/>
      </g>
     </g>
    </g>
    <g id="text_14">
     <!-- $y$ -->
     <g transform="translate(156.88 19.325)scale(0.16 -0.16)">
      <defs>
       <path id="Cmmi10-79" d="M 538 -916 
Q 672 -1147 1006 -1147 
Q 1309 -1147 1531 -934 
Q 1753 -722 1889 -420 
Q 2025 -119 2100 197 
Q 1816 -72 1484 -72 
Q 1231 -72 1053 15 
Q 875 103 776 276 
Q 678 450 678 697 
Q 678 906 734 1126 
Q 791 1347 892 1617 
Q 994 1888 1069 2088 
Q 1153 2322 1153 2472 
Q 1153 2663 1013 2663 
Q 759 2663 595 2402 
Q 431 2141 353 1819 
Q 341 1778 300 1778 
L 225 1778 
Q 172 1778 172 1838 
L 172 1856 
Q 275 2238 487 2533 
Q 700 2828 1025 2828 
Q 1253 2828 1411 2678 
Q 1569 2528 1569 2297 
Q 1569 2178 1516 2047 
Q 1488 1969 1388 1706 
Q 1288 1444 1234 1272 
Q 1181 1100 1147 934 
Q 1113 769 1113 603 
Q 1113 391 1203 244 
Q 1294 97 1491 97 
Q 1888 97 2203 581 
L 2688 2553 
Q 2709 2638 2787 2698 
Q 2866 2759 2956 2759 
Q 3034 2759 3092 2709 
Q 3150 2659 3150 2578 
Q 3150 2541 3144 2528 
L 2509 -19 
Q 2425 -347 2200 -647 
Q 1975 -947 1658 -1130 
Q 1341 -1313 997 -1313 
Q 831 -1313 668 -1248 
Q 506 -1184 406 -1056 
Q 306 -928 306 -756 
Q 306 -581 409 -453 
Q 513 -325 684 -325 
Q 788 -325 858 -389 
Q 928 -453 928 -556 
Q 928 -703 818 -812 
Q 709 -922 563 -922 
Q 556 -919 550 -917 
Q 544 -916 538 -916 
z
" transform="scale(0.015625)"/>
      </defs>
      <use xlink:href="#Cmmi10-79" transform="translate(0 0.8125)"/>
     </g>
    </g>
   </g>
   <g id="line2d_67">
    <path d="M 274.548639 184.365 
L 274.381751 178.207733 
L 274.058803 173.82374 
L 273.514209 169.064851 
L 272.796709 164.485115 
L 271.897905 159.960404 
L 270.775161 155.319982 
L 269.329607 150.317353 
L 268.030872 146.42755 
L 266.25008 141.73044 
L 264.142188 136.852054 
L 261.747236 131.959273 
L 259.698399 128.191309 
L 257.043299 123.758239 
L 254.72245 120.223328 
L 251.439491 115.666106 
L 247.568614 110.841917 
L 245.254268 108.197143 
L 241.328852 104.062187 
L 236.862244 99.823542 
L 233.562613 96.970508 
L 228.904866 93.298117 
L 225.325891 90.73121 
L 220.918495 87.84589 
L 215.848066 84.870924 
L 210.175224 81.941661 
L 206.601648 80.29728 
L 202.864479 78.734214 
L 197.407428 76.725293 
L 192.740214 75.252735 
L 188.131549 74.01142 
L 182.252677 72.723752 
L 177.93765 71.983524 
L 171.654144 71.20813 
L 167.146628 70.869234 
L 162.081499 70.702711 
L 157.662005 70.741921 
L 151.667994 71.070258 
L 146.125599 71.658003 
L 141.059516 72.437756 
L 136.33094 73.378951 
L 131.04452 74.681803 
L 126.47871 76.027053 
L 121.552518 77.716471 
L 116.845532 79.572228 
L 111.572935 81.94736 
L 107.075115 84.237113 
L 104.033625 85.932032 
L 98.8169 89.135114 
L 96.304907 90.820268 
L 91.886462 94.029784 
L 87.481909 97.570532 
L 83.463931 101.134527 
L 81.021775 103.474806 
L 77.078495 107.567426 
L 73.670627 111.460372 
L 70.647967 115.23657 
L 67.654551 119.329816 
L 64.670247 123.83201 
L 62.615812 127.227369 
L 60.256429 131.492924 
L 57.778869 136.503572 
L 55.921081 140.728033 
L 54.019775 145.616427 
L 52.395619 150.428315 
L 51.195177 154.535498 
L 49.79246 160.279363 
L 48.811547 165.359178 
L 48.069599 170.423234 
L 47.55401 175.545726 
L 47.284962 180.275162 
L 47.211361 184.365 
L 47.211361 184.365 
" clip-path="url(#p2074436604)" style="fill: none; stroke: #008000; stroke-width: 2; stroke-linecap: square"/>
   </g>
   <g id="patch_3">
    <path d="M 273.63929 177.544882 
Q 274.093964 180.954941 274.253112 182.148547 
" clip-path="url(#p2074436604)" style="fill: none; stroke: #008000; stroke-width: 2; stroke-linecap: round"/>
    <path d="M 277.887614 171.575449 
L 274.253112 182.148547 
L 267.975335 172.897087 
L 277.887614 171.575449 
z
" clip-path="url(#p2074436604)" style="fill: #008000; stroke: #008000; stroke-width: 2; stroke-linecap: round"/>
   </g>
   <g id="line2d_68">
    <path d="M 160.88 275.299911 
L 251.814911 275.299911 
L 251.814911 275.299911 
" clip-path="url(#p2074436604)" style="fill: none; stroke: #ff0000; stroke-width: 2; stroke-linecap: square"/>
   </g>
   <g id="patch_4">
    <path d="M 167.700118 275.299911 
Q 164.290059 275.299911 163.116068 275.299911 
" clip-path="url(#p2074436604)" style="fill: none; stroke: #ff0000; stroke-width: 2; stroke-linecap: round"/>
    <path d="M 173.116068 280.299911 
L 163.116068 275.299911 
L 173.116068 270.299911 
L 173.116068 280.299911 
z
" clip-path="url(#p2074436604)" style="fill: #ff0000; stroke: #ff0000; stroke-width: 2; stroke-linecap: round"/>
   </g>
   <g id="patch_5">
    <path d="M 160.88 338.045 
L 160.88 30.685 
" style="fill: none; stroke: #000000; stroke-width: 0.8; stroke-linejoin: miter; stroke-linecap: square"/>
   </g>
   <g id="patch_6">
    <path d="M 7.2 184.365 
L 314.56 184.365 
" style="fill: none; stroke: #000000; stroke-width: 0.8; stroke-linejoin: miter; stroke-linecap: square"/>
   </g>
   <g id="text_15">
    <g id="patch_7">
     <path d="M 159.766982 115.654959 
L 198.366982 115.654959 
L 198.366982 80.298709 
L 159.766982 80.298709 
z
" clip-path="url(#p2074436604)" style="fill: #ffffff; stroke: #ffffff; stroke-linejoin: miter"/>
    </g>
    <g clip-path="url(#p2074436604)">
     <!-- $C_3$ -->
     <g style="fill: #008000" transform="translate(167.766982 103.495584)scale(0.2 -0.2)">
      <defs>
       <path id="Cmmi10-43" d="M 934 1381 
Q 934 997 1082 705 
Q 1231 413 1514 248 
Q 1797 84 2181 84 
Q 2584 84 2957 290 
Q 3331 497 3595 842 
Q 3859 1188 3956 1575 
Q 3969 1613 4006 1613 
L 4084 1613 
Q 4109 1613 4125 1595 
Q 4141 1578 4141 1556 
Q 4141 1550 4134 1538 
Q 4025 1094 3711 705 
Q 3397 316 2959 87 
Q 2522 -141 2059 -141 
Q 1559 -141 1162 84 
Q 766 309 545 709 
Q 325 1109 325 1613 
Q 325 2150 565 2676 
Q 806 3203 1212 3614 
Q 1619 4025 2139 4269 
Q 2659 4513 3194 4513 
Q 3406 4513 3600 4448 
Q 3794 4384 3959 4253 
Q 4125 4122 4231 3950 
L 4738 4500 
Q 4738 4513 4769 4513 
L 4806 4513 
Q 4831 4513 4847 4491 
Q 4863 4469 4863 4447 
L 4428 2719 
Q 4428 2675 4378 2675 
L 4263 2675 
Q 4213 2675 4213 2747 
Q 4238 2888 4238 3084 
Q 4238 3397 4131 3673 
Q 4025 3950 3801 4119 
Q 3578 4288 3256 4288 
Q 2734 4288 2300 4025 
Q 1866 3763 1564 3336 
Q 1263 2909 1098 2389 
Q 934 1869 934 1381 
z
" transform="scale(0.015625)"/>
       <path id="Cmr10-33" d="M 609 494 
Q 759 275 1012 169 
Q 1266 63 1556 63 
Q 1928 63 2084 380 
Q 2241 697 2241 1100 
Q 2241 1281 2208 1462 
Q 2175 1644 2097 1800 
Q 2019 1956 1883 2050 
Q 1747 2144 1550 2144 
L 1125 2144 
Q 1069 2144 1069 2203 
L 1069 2259 
Q 1069 2309 1125 2309 
L 1478 2338 
Q 1703 2338 1851 2506 
Q 2000 2675 2069 2917 
Q 2138 3159 2138 3378 
Q 2138 3684 1994 3881 
Q 1850 4078 1556 4078 
Q 1313 4078 1091 3986 
Q 869 3894 738 3706 
Q 750 3709 759 3711 
Q 769 3713 781 3713 
Q 925 3713 1022 3613 
Q 1119 3513 1119 3372 
Q 1119 3234 1022 3134 
Q 925 3034 781 3034 
Q 641 3034 541 3134 
Q 441 3234 441 3372 
Q 441 3647 606 3850 
Q 772 4053 1033 4158 
Q 1294 4263 1556 4263 
Q 1750 4263 1965 4205 
Q 2181 4147 2356 4039 
Q 2531 3931 2642 3762 
Q 2753 3594 2753 3378 
Q 2753 3109 2633 2881 
Q 2513 2653 2303 2487 
Q 2094 2322 1844 2241 
Q 2122 2188 2372 2031 
Q 2622 1875 2773 1631 
Q 2925 1388 2925 1106 
Q 2925 753 2731 467 
Q 2538 181 2222 20 
Q 1906 -141 1556 -141 
Q 1256 -141 954 -26 
Q 653 88 461 316 
Q 269 544 269 863 
Q 269 1022 375 1128 
Q 481 1234 641 1234 
Q 744 1234 830 1186 
Q 916 1138 964 1050 
Q 1013 963 1013 863 
Q 1013 706 903 600 
Q 794 494 641 494 
L 609 494 
z
" transform="scale(0.015625)"/>
      </defs>
      <use xlink:href="#Cmmi10-43" transform="translate(0 0.484375)"/>
      <use xlink:href="#Cmr10-33" transform="translate(71.386719 -16.521875)scale(0.7)"/>
     </g>
    </g>
   </g>
   <g id="text_16">
    <g id="patch_8">
     <path d="M 191.594201 265.697563 
L 230.194201 265.697563 
L 230.194201 230.341313 
L 191.594201 230.341313 
z
" clip-path="url(#p2074436604)" style="fill: #ffffff; stroke: #ffffff; stroke-linejoin: miter"/>
    </g>
    <g clip-path="url(#p2074436604)">
     <!-- $C_4$ -->
     <g style="fill: #ff0000" transform="translate(199.594201 253.538188)scale(0.2 -0.2)">
      <defs>
       <path id="Cmr10-34" d="M 178 1056 
L 178 1281 
L 2156 4231 
Q 2178 4263 2222 4263 
L 2316 4263 
Q 2388 4263 2388 4191 
L 2388 1281 
L 3016 1281 
L 3016 1056 
L 2388 1056 
L 2388 428 
Q 2388 297 2575 261 
Q 2763 225 3009 225 
L 3009 0 
L 1247 0 
L 1247 225 
Q 1494 225 1681 261 
Q 1869 297 1869 428 
L 1869 1056 
L 178 1056 
z
M 391 1281 
L 1906 1281 
L 1906 3547 
L 391 1281 
z
" transform="scale(0.015625)"/>
      </defs>
      <use xlink:href="#Cmmi10-43" transform="translate(0 0.484375)"/>
      <use xlink:href="#Cmr10-34" transform="translate(71.386719 -16.521875)scale(0.7)"/>
     </g>
    </g>
   </g>
  </g>
 </g>
 <defs>
  <clipPath id="p2074436604">
   <rect x="7.2" y="30.685" width="307.36" height="307.36"/>
  </clipPath>
 </defs>
</svg>
