<?xml version="1.0" encoding="utf-8" standalone="no"?>
<!DOCTYPE svg PUBLIC "-//W3C//DTD SVG 1.1//EN"
  "http://www.w3.org/Graphics/SVG/1.1/DTD/svg11.dtd">
<svg xmlns:xlink="http://www.w3.org/1999/xlink" width="339.04pt" height="345.245pt" viewBox="0 0 339.04 345.245" xmlns="http://www.w3.org/2000/svg" version="1.1">
 <metadata>
  <rdf:RDF xmlns:dc="http://purl.org/dc/elements/1.1/" xmlns:cc="http://creativecommons.org/ns#" xmlns:rdf="http://www.w3.org/1999/02/22-rdf-syntax-ns#">
   <cc:Work>
    <dc:type rdf:resource="http://purl.org/dc/dcmitype/StillImage"/>
    <dc:date>2025-03-06T19:36:44.035142</dc:date>
    <dc:format>image/svg+xml</dc:format>
    <dc:creator>
     <cc:Agent>
      <dc:title>Matplotlib v3.5.1, https://matplotlib.org/</dc:title>
     </cc:Agent>
    </dc:creator>
   </cc:Work>
  </rdf:RDF>
 </metadata>
 <defs>
  <style type="text/css">*{stroke-linejoin: round; stroke-linecap: butt}</style>
 </defs>
 <g id="figure_1">
  <g id="patch_1">
   <path d="M 0 345.245 
L 339.04 345.245 
L 339.04 0 
L 0 0 
z
" style="fill: #ffffff"/>
  </g>
  <g id="axes_1">
   <g id="patch_2">
    <path d="M 7.2 338.045 
L 314.56 338.045 
L 314.56 30.685 
L 7.2 30.685 
z
" style="fill: #ffffff"/>
   </g>
   <g id="matplotlib.axis_1">
    <g id="xtick_1">
     <g id="line2d_1">
      <defs>
       <path id="m4db0c595a5" d="M 0 0 
L 0 3.5 
" style="stroke: #000000; stroke-width: 0.8"/>
      </defs>
      <g>
       <use xlink:href="#m4db0c595a5" x="29.529573" y="184.365" style="stroke: #000000; stroke-width: 0.8"/>
      </g>
     </g>
     <g id="text_1">
      <!-- −2 -->
      <g transform="translate(22.158479 198.963437)scale(0.1 -0.1)">
       <defs>
        <path id="DejaVuSans-2212" d="M 678 2272 
L 4684 2272 
L 4684 1741 
L 678 1741 
L 678 2272 
z
" transform="scale(0.015625)"/>
        <path id="DejaVuSans-32" d="M 1228 531 
L 3431 531 
L 3431 0 
L 469 0 
L 469 531 
Q 828 903 1448 1529 
Q 2069 2156 2228 2338 
Q 2531 2678 2651 2914 
Q 2772 3150 2772 3378 
Q 2772 3750 2511 3984 
Q 2250 4219 1831 4219 
Q 1534 4219 1204 4116 
Q 875 4013 500 3803 
L 500 4441 
Q 881 4594 1212 4672 
Q 1544 4750 1819 4750 
Q 2544 4750 2975 4387 
Q 3406 4025 3406 3419 
Q 3406 3131 3298 2873 
Q 3191 2616 2906 2266 
Q 2828 2175 2409 1742 
Q 1991 1309 1228 531 
z
" transform="scale(0.015625)"/>
       </defs>
       <use xlink:href="#DejaVuSans-2212"/>
       <use xlink:href="#DejaVuSans-32" x="83.789062"/>
      </g>
     </g>
    </g>
    <g id="xtick_2">
     <g id="line2d_2">
      <g>
       <use xlink:href="#m4db0c595a5" x="95.204786" y="184.365" style="stroke: #000000; stroke-width: 0.8"/>
      </g>
     </g>
     <g id="text_2">
      <!-- −1 -->
      <g transform="translate(87.833693 198.963437)scale(0.1 -0.1)">
       <defs>
        <path id="DejaVuSans-31" d="M 794 531 
L 1825 531 
L 1825 4091 
L 703 3866 
L 703 4441 
L 1819 4666 
L 2450 4666 
L 2450 531 
L 3481 531 
L 3481 0 
L 794 0 
L 794 531 
z
" transform="scale(0.015625)"/>
       </defs>
       <use xlink:href="#DejaVuSans-2212"/>
       <use xlink:href="#DejaVuSans-31" x="83.789062"/>
      </g>
     </g>
    </g>
    <g id="xtick_3">
     <g id="line2d_3">
      <g>
       <use xlink:href="#m4db0c595a5" x="160.88" y="184.365" style="stroke: #000000; stroke-width: 0.8"/>
      </g>
     </g>
    </g>
    <g id="xtick_4">
     <g id="line2d_4">
      <g>
       <use xlink:href="#m4db0c595a5" x="226.555214" y="184.365" style="stroke: #000000; stroke-width: 0.8"/>
      </g>
     </g>
     <g id="text_3">
      <!-- 1 -->
      <g transform="translate(223.373964 198.963437)scale(0.1 -0.1)">
       <use xlink:href="#DejaVuSans-31"/>
      </g>
     </g>
    </g>
    <g id="xtick_5">
     <g id="line2d_5">
      <g>
       <use xlink:href="#m4db0c595a5" x="292.230427" y="184.365" style="stroke: #000000; stroke-width: 0.8"/>
      </g>
     </g>
     <g id="text_4">
      <!-- 2 -->
      <g transform="translate(289.049177 198.963437)scale(0.1 -0.1)">
       <use xlink:href="#DejaVuSans-32"/>
      </g>
     </g>
    </g>
    <g id="xtick_6">
     <g id="line2d_6">
      <defs>
       <path id="m5c86e2a023" d="M 0 0 
L 0 2 
" style="stroke: #000000; stroke-width: 0.6"/>
      </defs>
      <g>
       <use xlink:href="#m5c86e2a023" x="16.39453" y="184.365" style="stroke: #000000; stroke-width: 0.6"/>
      </g>
     </g>
    </g>
    <g id="xtick_7">
     <g id="line2d_7">
      <g>
       <use xlink:href="#m5c86e2a023" x="42.664615" y="184.365" style="stroke: #000000; stroke-width: 0.6"/>
      </g>
     </g>
    </g>
    <g id="xtick_8">
     <g id="line2d_8">
      <g>
       <use xlink:href="#m5c86e2a023" x="55.799658" y="184.365" style="stroke: #000000; stroke-width: 0.6"/>
      </g>
     </g>
    </g>
    <g id="xtick_9">
     <g id="line2d_9">
      <g>
       <use xlink:href="#m5c86e2a023" x="68.934701" y="184.365" style="stroke: #000000; stroke-width: 0.6"/>
      </g>
     </g>
    </g>
    <g id="xtick_10">
     <g id="line2d_10">
      <g>
       <use xlink:href="#m5c86e2a023" x="82.069744" y="184.365" style="stroke: #000000; stroke-width: 0.6"/>
      </g>
     </g>
    </g>
    <g id="xtick_11">
     <g id="line2d_11">
      <g>
       <use xlink:href="#m5c86e2a023" x="108.339829" y="184.365" style="stroke: #000000; stroke-width: 0.6"/>
      </g>
     </g>
    </g>
    <g id="xtick_12">
     <g id="line2d_12">
      <g>
       <use xlink:href="#m5c86e2a023" x="121.474872" y="184.365" style="stroke: #000000; stroke-width: 0.6"/>
      </g>
     </g>
    </g>
    <g id="xtick_13">
     <g id="line2d_13">
      <g>
       <use xlink:href="#m5c86e2a023" x="134.609915" y="184.365" style="stroke: #000000; stroke-width: 0.6"/>
      </g>
     </g>
    </g>
    <g id="xtick_14">
     <g id="line2d_14">
      <g>
       <use xlink:href="#m5c86e2a023" x="147.744957" y="184.365" style="stroke: #000000; stroke-width: 0.6"/>
      </g>
     </g>
    </g>
    <g id="xtick_15">
     <g id="line2d_15">
      <g>
       <use xlink:href="#m5c86e2a023" x="174.015043" y="184.365" style="stroke: #000000; stroke-width: 0.6"/>
      </g>
     </g>
    </g>
    <g id="xtick_16">
     <g id="line2d_16">
      <g>
       <use xlink:href="#m5c86e2a023" x="187.150085" y="184.365" style="stroke: #000000; stroke-width: 0.6"/>
      </g>
     </g>
    </g>
    <g id="xtick_17">
     <g id="line2d_17">
      <g>
       <use xlink:href="#m5c86e2a023" x="200.285128" y="184.365" style="stroke: #000000; stroke-width: 0.6"/>
      </g>
     </g>
    </g>
    <g id="xtick_18">
     <g id="line2d_18">
      <g>
       <use xlink:href="#m5c86e2a023" x="213.420171" y="184.365" style="stroke: #000000; stroke-width: 0.6"/>
      </g>
     </g>
    </g>
    <g id="xtick_19">
     <g id="line2d_19">
      <g>
       <use xlink:href="#m5c86e2a023" x="239.690256" y="184.365" style="stroke: #000000; stroke-width: 0.6"/>
      </g>
     </g>
    </g>
    <g id="xtick_20">
     <g id="line2d_20">
      <g>
       <use xlink:href="#m5c86e2a023" x="252.825299" y="184.365" style="stroke: #000000; stroke-width: 0.6"/>
      </g>
     </g>
    </g>
    <g id="xtick_21">
     <g id="line2d_21">
      <g>
       <use xlink:href="#m5c86e2a023" x="265.960342" y="184.365" style="stroke: #000000; stroke-width: 0.6"/>
      </g>
     </g>
    </g>
    <g id="xtick_22">
     <g id="line2d_22">
      <g>
       <use xlink:href="#m5c86e2a023" x="279.095385" y="184.365" style="stroke: #000000; stroke-width: 0.6"/>
      </g>
     </g>
    </g>
    <g id="xtick_23">
     <g id="line2d_23">
      <g>
       <use xlink:href="#m5c86e2a023" x="305.36547" y="184.365" style="stroke: #000000; stroke-width: 0.6"/>
      </g>
     </g>
    </g>
    <g id="text_5">
     <!-- $x$ -->
     <g transform="translate(322.56 184.365)scale(0.16 -0.16)">
      <defs>
       <path id="Cmmi10-78" d="M 500 184 
Q 613 97 819 97 
Q 1019 97 1172 289 
Q 1325 481 1381 709 
L 1672 1844 
Q 1741 2153 1741 2266 
Q 1741 2425 1652 2544 
Q 1563 2663 1403 2663 
Q 1200 2663 1022 2536 
Q 844 2409 722 2214 
Q 600 2019 550 1819 
Q 538 1778 500 1778 
L 422 1778 
Q 372 1778 372 1838 
L 372 1856 
Q 434 2094 584 2320 
Q 734 2547 951 2687 
Q 1169 2828 1416 2828 
Q 1650 2828 1839 2703 
Q 2028 2578 2106 2363 
Q 2216 2559 2386 2693 
Q 2556 2828 2759 2828 
Q 2897 2828 3040 2779 
Q 3184 2731 3275 2631 
Q 3366 2531 3366 2381 
Q 3366 2219 3261 2101 
Q 3156 1984 2994 1984 
Q 2891 1984 2822 2050 
Q 2753 2116 2753 2216 
Q 2753 2350 2845 2451 
Q 2938 2553 3066 2572 
Q 2950 2663 2747 2663 
Q 2541 2663 2389 2472 
Q 2238 2281 2175 2047 
L 1894 916 
Q 1825 659 1825 494 
Q 1825 331 1917 214 
Q 2009 97 2163 97 
Q 2463 97 2698 361 
Q 2934 625 3009 941 
Q 3022 978 3059 978 
L 3138 978 
Q 3163 978 3178 961 
Q 3194 944 3194 922 
Q 3194 916 3188 903 
Q 3097 522 2806 225 
Q 2516 -72 2150 -72 
Q 1916 -72 1727 54 
Q 1538 181 1459 397 
Q 1359 209 1182 68 
Q 1006 -72 806 -72 
Q 669 -72 523 -23 
Q 378 25 287 125 
Q 197 225 197 378 
Q 197 528 301 651 
Q 406 775 563 775 
Q 669 775 741 711 
Q 813 647 813 544 
Q 813 409 723 309 
Q 634 209 500 184 
z
" transform="scale(0.015625)"/>
      </defs>
      <use xlink:href="#Cmmi10-78" transform="translate(0 0.8125)"/>
     </g>
    </g>
   </g>
   <g id="matplotlib.axis_2">
    <g id="ytick_1">
     <g id="line2d_24">
      <defs>
       <path id="ma0c323bfe8" d="M 0 0 
L -3.5 0 
" style="stroke: #000000; stroke-width: 0.8"/>
      </defs>
      <g>
       <use xlink:href="#ma0c323bfe8" x="160.88" y="315.715427" style="stroke: #000000; stroke-width: 0.8"/>
      </g>
     </g>
     <g id="text_6">
      <!-- −2 -->
      <g transform="translate(139.137812 319.514646)scale(0.1 -0.1)">
       <use xlink:href="#DejaVuSans-2212"/>
       <use xlink:href="#DejaVuSans-32" x="83.789062"/>
      </g>
     </g>
    </g>
    <g id="ytick_2">
     <g id="line2d_25">
      <g>
       <use xlink:href="#ma0c323bfe8" x="160.88" y="250.040214" style="stroke: #000000; stroke-width: 0.8"/>
      </g>
     </g>
     <g id="text_7">
      <!-- −1 -->
      <g transform="translate(139.137812 253.839432)scale(0.1 -0.1)">
       <use xlink:href="#DejaVuSans-2212"/>
       <use xlink:href="#DejaVuSans-31" x="83.789062"/>
      </g>
     </g>
    </g>
    <g id="ytick_3">
     <g id="line2d_26">
      <g>
       <use xlink:href="#ma0c323bfe8" x="160.88" y="184.365" style="stroke: #000000; stroke-width: 0.8"/>
      </g>
     </g>
    </g>
    <g id="ytick_4">
     <g id="line2d_27">
      <g>
       <use xlink:href="#ma0c323bfe8" x="160.88" y="118.689786" style="stroke: #000000; stroke-width: 0.8"/>
      </g>
     </g>
     <g id="text_8">
      <!-- 1 -->
      <g transform="translate(147.5175 122.489005)scale(0.1 -0.1)">
       <use xlink:href="#DejaVuSans-31"/>
      </g>
     </g>
    </g>
    <g id="ytick_5">
     <g id="line2d_28">
      <g>
       <use xlink:href="#ma0c323bfe8" x="160.88" y="53.014573" style="stroke: #000000; stroke-width: 0.8"/>
      </g>
     </g>
     <g id="text_9">
      <!-- 2 -->
      <g transform="translate(147.5175 56.813791)scale(0.1 -0.1)">
       <use xlink:href="#DejaVuSans-32"/>
      </g>
     </g>
    </g>
    <g id="ytick_6">
     <g id="line2d_29">
      <defs>
       <path id="mf6497ec692" d="M 0 0 
L -2 0 
" style="stroke: #000000; stroke-width: 0.6"/>
      </defs>
      <g>
       <use xlink:href="#mf6497ec692" x="160.88" y="328.85047" style="stroke: #000000; stroke-width: 0.6"/>
      </g>
     </g>
    </g>
    <g id="ytick_7">
     <g id="line2d_30">
      <g>
       <use xlink:href="#mf6497ec692" x="160.88" y="302.580385" style="stroke: #000000; stroke-width: 0.6"/>
      </g>
     </g>
    </g>
    <g id="ytick_8">
     <g id="line2d_31">
      <g>
       <use xlink:href="#mf6497ec692" x="160.88" y="289.445342" style="stroke: #000000; stroke-width: 0.6"/>
      </g>
     </g>
    </g>
    <g id="ytick_9">
     <g id="line2d_32">
      <g>
       <use xlink:href="#mf6497ec692" x="160.88" y="276.310299" style="stroke: #000000; stroke-width: 0.6"/>
      </g>
     </g>
    </g>
    <g id="ytick_10">
     <g id="line2d_33">
      <g>
       <use xlink:href="#mf6497ec692" x="160.88" y="263.175256" style="stroke: #000000; stroke-width: 0.6"/>
      </g>
     </g>
    </g>
    <g id="ytick_11">
     <g id="line2d_34">
      <g>
       <use xlink:href="#mf6497ec692" x="160.88" y="236.905171" style="stroke: #000000; stroke-width: 0.6"/>
      </g>
     </g>
    </g>
    <g id="ytick_12">
     <g id="line2d_35">
      <g>
       <use xlink:href="#mf6497ec692" x="160.88" y="223.770128" style="stroke: #000000; stroke-width: 0.6"/>
      </g>
     </g>
    </g>
    <g id="ytick_13">
     <g id="line2d_36">
      <g>
       <use xlink:href="#mf6497ec692" x="160.88" y="210.635085" style="stroke: #000000; stroke-width: 0.6"/>
      </g>
     </g>
    </g>
    <g id="ytick_14">
     <g id="line2d_37">
      <g>
       <use xlink:href="#mf6497ec692" x="160.88" y="197.500043" style="stroke: #000000; stroke-width: 0.6"/>
      </g>
     </g>
    </g>
    <g id="ytick_15">
     <g id="line2d_38">
      <g>
       <use xlink:href="#mf6497ec692" x="160.88" y="171.229957" style="stroke: #000000; stroke-width: 0.6"/>
      </g>
     </g>
    </g>
    <g id="ytick_16">
     <g id="line2d_39">
      <g>
       <use xlink:href="#mf6497ec692" x="160.88" y="158.094915" style="stroke: #000000; stroke-width: 0.6"/>
      </g>
     </g>
    </g>
    <g id="ytick_17">
     <g id="line2d_40">
      <g>
       <use xlink:href="#mf6497ec692" x="160.88" y="144.959872" style="stroke: #000000; stroke-width: 0.6"/>
      </g>
     </g>
    </g>
    <g id="ytick_18">
     <g id="line2d_41">
      <g>
       <use xlink:href="#mf6497ec692" x="160.88" y="131.824829" style="stroke: #000000; stroke-width: 0.6"/>
      </g>
     </g>
    </g>
    <g id="ytick_19">
     <g id="line2d_42">
      <g>
       <use xlink:href="#mf6497ec692" x="160.88" y="105.554744" style="stroke: #000000; stroke-width: 0.6"/>
      </g>
     </g>
    </g>
    <g id="ytick_20">
     <g id="line2d_43">
      <g>
       <use xlink:href="#mf6497ec692" x="160.88" y="92.419701" style="stroke: #000000; stroke-width: 0.6"/>
      </g>
     </g>
    </g>
    <g id="ytick_21">
     <g id="line2d_44">
      <g>
       <use xlink:href="#mf6497ec692" x="160.88" y="79.284658" style="stroke: #000000; stroke-width: 0.6"/>
      </g>
     </g>
    </g>
    <g id="ytick_22">
     <g id="line2d_45">
      <g>
       <use xlink:href="#mf6497ec692" x="160.88" y="66.149615" style="stroke: #000000; stroke-width: 0.6"/>
      </g>
     </g>
    </g>
    <g id="ytick_23">
     <g id="line2d_46">
      <g>
       <use xlink:href="#mf6497ec692" x="160.88" y="39.87953" style="stroke: #000000; stroke-width: 0.6"/>
      </g>
     </g>
    </g>
    <g id="text_10">
     <!-- $y$ -->
     <g transform="translate(156.88 19.325)scale(0.16 -0.16)">
      <defs>
       <path id="Cmmi10-79" d="M 538 -916 
Q 672 -1147 1006 -1147 
Q 1309 -1147 1531 -934 
Q 1753 -722 1889 -420 
Q 2025 -119 2100 197 
Q 1816 -72 1484 -72 
Q 1231 -72 1053 15 
Q 875 103 776 276 
Q 678 450 678 697 
Q 678 906 734 1126 
Q 791 1347 892 1617 
Q 994 1888 1069 2088 
Q 1153 2322 1153 2472 
Q 1153 2663 1013 2663 
Q 759 2663 595 2402 
Q 431 2141 353 1819 
Q 341 1778 300 1778 
L 225 1778 
Q 172 1778 172 1838 
L 172 1856 
Q 275 2238 487 2533 
Q 700 2828 1025 2828 
Q 1253 2828 1411 2678 
Q 1569 2528 1569 2297 
Q 1569 2178 1516 2047 
Q 1488 1969 1388 1706 
Q 1288 1444 1234 1272 
Q 1181 1100 1147 934 
Q 1113 769 1113 603 
Q 1113 391 1203 244 
Q 1294 97 1491 97 
Q 1888 97 2203 581 
L 2688 2553 
Q 2709 2638 2787 2698 
Q 2866 2759 2956 2759 
Q 3034 2759 3092 2709 
Q 3150 2659 3150 2578 
Q 3150 2541 3144 2528 
L 2509 -19 
Q 2425 -347 2200 -647 
Q 1975 -947 1658 -1130 
Q 1341 -1313 997 -1313 
Q 831 -1313 668 -1248 
Q 506 -1184 406 -1056 
Q 306 -928 306 -756 
Q 306 -581 409 -453 
Q 513 -325 684 -325 
Q 788 -325 858 -389 
Q 928 -453 928 -556 
Q 928 -703 818 -812 
Q 709 -922 563 -922 
Q 556 -919 550 -917 
Q 544 -916 538 -916 
z
" transform="scale(0.015625)"/>
      </defs>
      <use xlink:href="#Cmmi10-79" transform="translate(0 0.8125)"/>
     </g>
    </g>
   </g>
   <g id="patch_3">
    <path d="M 29.529573 315.715427 
Q -36.145641 381.390641 -101.030285 446.275285 
" clip-path="url(#p25c135fc7b)" style="fill: none; stroke: #0000ff; stroke-linecap: round"/>
    <path d="M -96.787645 444.861072 
L -101.030285 446.275285 
L -99.616072 442.032645 
L -96.787645 444.861072 
z
" clip-path="url(#p25c135fc7b)" style="fill: #0000ff; stroke: #0000ff; stroke-linecap: round"/>
   </g>
   <g id="patch_4">
    <path d="M 62.367179 282.877821 
Q 13.110769 332.134231 -35.355072 380.600072 
" clip-path="url(#p25c135fc7b)" style="fill: none; stroke: #0000ff; stroke-linecap: round"/>
    <path d="M -31.112431 379.185858 
L -35.355072 380.600072 
L -33.940858 376.357431 
L -31.112431 379.185858 
z
" clip-path="url(#p25c135fc7b)" style="fill: #0000ff; stroke: #0000ff; stroke-linecap: round"/>
   </g>
   <g id="patch_5">
    <path d="M 29.529573 250.040214 
Q -3.308034 315.715427 -35.645641 380.390641 
" clip-path="url(#p25c135fc7b)" style="fill: none; stroke: #0000ff; stroke-linecap: round"/>
    <path d="M -32.067932 377.707359 
L -35.645641 380.390641 
L -35.645641 375.918505 
L -32.067932 377.707359 
z
" clip-path="url(#p25c135fc7b)" style="fill: #0000ff; stroke: #0000ff; stroke-linecap: round"/>
   </g>
   <g id="patch_6">
    <path d="M 62.367179 217.202607 
Q 45.948376 266.459017 29.883126 314.654767 
" clip-path="url(#p25c135fc7b)" style="fill: none; stroke: #0000ff; stroke-linecap: round"/>
    <path d="M 33.045404 311.49249 
L 29.883126 314.654767 
L 29.250671 310.227578 
L 33.045404 311.49249 
z
" clip-path="url(#p25c135fc7b)" style="fill: #0000ff; stroke: #0000ff; stroke-linecap: round"/>
   </g>
   <g id="patch_7">
    <path d="M 29.529573 184.365 
Q 29.529573 250.040214 29.529573 314.597393 
" clip-path="url(#p25c135fc7b)" style="fill: none; stroke: #0000ff; stroke-linecap: round"/>
    <path d="M 31.529573 310.597393 
L 29.529573 314.597393 
L 27.529573 310.597393 
L 31.529573 310.597393 
z
" clip-path="url(#p25c135fc7b)" style="fill: #0000ff; stroke: #0000ff; stroke-linecap: round"/>
   </g>
   <g id="patch_8">
    <path d="M 62.367179 151.527393 
Q 78.785983 200.783803 94.851233 248.979554 
" clip-path="url(#p25c135fc7b)" style="fill: none; stroke: #0000ff; stroke-linecap: round"/>
    <path d="M 95.483688 244.552365 
L 94.851233 248.979554 
L 91.688955 245.817276 
L 95.483688 244.552365 
z
" clip-path="url(#p25c135fc7b)" style="fill: #0000ff; stroke: #0000ff; stroke-linecap: round"/>
   </g>
   <g id="patch_9">
    <path d="M 29.529573 118.689786 
Q 62.367179 184.365 94.704786 249.040214 
" clip-path="url(#p25c135fc7b)" style="fill: none; stroke: #0000ff; stroke-linecap: round"/>
    <path d="M 94.704786 244.568078 
L 94.704786 249.040214 
L 91.127078 246.356932 
L 94.704786 244.568078 
z
" clip-path="url(#p25c135fc7b)" style="fill: #0000ff; stroke: #0000ff; stroke-linecap: round"/>
   </g>
   <g id="patch_10">
    <path d="M 62.367179 85.852179 
Q 111.62359 135.10859 160.089431 183.574431 
" clip-path="url(#p25c135fc7b)" style="fill: none; stroke: #0000ff; stroke-linecap: round"/>
    <path d="M 158.675217 179.33179 
L 160.089431 183.574431 
L 155.84679 182.160217 
L 158.675217 179.33179 
z
" clip-path="url(#p25c135fc7b)" style="fill: #0000ff; stroke: #0000ff; stroke-linecap: round"/>
   </g>
   <g id="patch_11">
    <path d="M 29.529573 53.014573 
Q 95.204786 118.689786 160.089431 183.574431 
" clip-path="url(#p25c135fc7b)" style="fill: none; stroke: #0000ff; stroke-linecap: round"/>
    <path d="M 158.675217 179.33179 
L 160.089431 183.574431 
L 155.84679 182.160217 
L 158.675217 179.33179 
z
" clip-path="url(#p25c135fc7b)" style="fill: #0000ff; stroke: #0000ff; stroke-linecap: round"/>
   </g>
   <g id="patch_12">
    <path d="M 62.367179 20.176966 
Q 144.461197 69.433376 225.596507 118.114563 
" clip-path="url(#p25c135fc7b)" style="fill: none; stroke: #0000ff; stroke-linecap: round"/>
    <path d="M 223.195527 114.341594 
L 225.596507 118.114563 
L 221.137544 117.771565 
L 223.195527 114.341594 
z
" clip-path="url(#p25c135fc7b)" style="fill: #0000ff; stroke: #0000ff; stroke-linecap: round"/>
   </g>
   <g id="patch_13">
    <path d="M 95.204786 315.715427 
Q 29.529573 348.553034 -35.145641 380.890641 
" clip-path="url(#p25c135fc7b)" style="fill: none; stroke: #0000ff; stroke-linecap: round"/>
    <path d="M -30.673505 380.890641 
L -35.145641 380.890641 
L -32.462359 377.312932 
L -30.673505 380.890641 
z
" clip-path="url(#p25c135fc7b)" style="fill: #0000ff; stroke: #0000ff; stroke-linecap: round"/>
   </g>
   <g id="patch_14">
    <path d="M 128.042393 282.877821 
Q 78.785983 299.296624 30.590233 315.361874 
" clip-path="url(#p25c135fc7b)" style="fill: none; stroke: #0000ff; stroke-linecap: round"/>
    <path d="M 35.017422 315.994329 
L 30.590233 315.361874 
L 33.75251 312.199596 
L 35.017422 315.994329 
z
" clip-path="url(#p25c135fc7b)" style="fill: #0000ff; stroke: #0000ff; stroke-linecap: round"/>
   </g>
   <g id="patch_15">
    <path d="M 95.204786 250.040214 
Q 62.367179 282.877821 30.320142 314.924858 
" clip-path="url(#p25c135fc7b)" style="fill: none; stroke: #0000ff; stroke-linecap: round"/>
    <path d="M 34.562783 313.510644 
L 30.320142 314.924858 
L 31.734356 310.682217 
L 34.562783 313.510644 
z
" clip-path="url(#p25c135fc7b)" style="fill: #0000ff; stroke: #0000ff; stroke-linecap: round"/>
   </g>
   <g id="patch_16">
    <path d="M 128.042393 217.202607 
Q 111.62359 233.62141 95.995356 249.249644 
" clip-path="url(#p25c135fc7b)" style="fill: none; stroke: #0000ff; stroke-linecap: round"/>
    <path d="M 100.237996 247.835431 
L 95.995356 249.249644 
L 97.409569 245.007004 
L 100.237996 247.835431 
z
" clip-path="url(#p25c135fc7b)" style="fill: #0000ff; stroke: #0000ff; stroke-linecap: round"/>
   </g>
   <g id="patch_17">
    <path d="M 95.204786 184.365 
Q 95.204786 217.202607 95.204786 248.92218 
" clip-path="url(#p25c135fc7b)" style="fill: none; stroke: #0000ff; stroke-linecap: round"/>
    <path d="M 97.204786 244.92218 
L 95.204786 248.92218 
L 93.204786 244.92218 
L 97.204786 244.92218 
z
" clip-path="url(#p25c135fc7b)" style="fill: #0000ff; stroke: #0000ff; stroke-linecap: round"/>
   </g>
   <g id="patch_18">
    <path d="M 128.042393 151.527393 
Q 144.461197 167.946197 160.089431 183.574431 
" clip-path="url(#p25c135fc7b)" style="fill: none; stroke: #0000ff; stroke-linecap: round"/>
    <path d="M 158.675217 179.33179 
L 160.089431 183.574431 
L 155.84679 182.160217 
L 158.675217 179.33179 
z
" clip-path="url(#p25c135fc7b)" style="fill: #0000ff; stroke: #0000ff; stroke-linecap: round"/>
   </g>
   <g id="patch_19">
    <path d="M 95.204786 118.689786 
Q 128.042393 151.527393 160.089431 183.574431 
" clip-path="url(#p25c135fc7b)" style="fill: none; stroke: #0000ff; stroke-linecap: round"/>
    <path d="M 158.675217 179.33179 
L 160.089431 183.574431 
L 155.84679 182.160217 
L 158.675217 179.33179 
z
" clip-path="url(#p25c135fc7b)" style="fill: #0000ff; stroke: #0000ff; stroke-linecap: round"/>
   </g>
   <g id="patch_20">
    <path d="M 128.042393 85.852179 
Q 177.298803 102.270983 225.494554 118.336233 
" clip-path="url(#p25c135fc7b)" style="fill: none; stroke: #0000ff; stroke-linecap: round"/>
    <path d="M 222.332276 115.173955 
L 225.494554 118.336233 
L 221.067365 118.968688 
L 222.332276 115.173955 
z
" clip-path="url(#p25c135fc7b)" style="fill: #0000ff; stroke: #0000ff; stroke-linecap: round"/>
   </g>
   <g id="patch_21">
    <path d="M 95.204786 53.014573 
Q 160.88 85.852179 225.555214 118.189786 
" clip-path="url(#p25c135fc7b)" style="fill: none; stroke: #0000ff; stroke-linecap: round"/>
    <path d="M 222.871932 114.612078 
L 225.555214 118.189786 
L 221.083078 118.189786 
L 222.871932 114.612078 
z
" clip-path="url(#p25c135fc7b)" style="fill: #0000ff; stroke: #0000ff; stroke-linecap: round"/>
   </g>
   <g id="patch_22">
    <path d="M 128.042393 20.176966 
Q 210.13641 36.595769 291.134105 52.795308 
" clip-path="url(#p25c135fc7b)" style="fill: none; stroke: #0000ff; stroke-linecap: round"/>
    <path d="M 287.604014 50.049682 
L 291.134105 52.795308 
L 286.81955 53.972005 
L 287.604014 50.049682 
z
" clip-path="url(#p25c135fc7b)" style="fill: #0000ff; stroke: #0000ff; stroke-linecap: round"/>
   </g>
   <g id="patch_23">
    <path d="M 160.88 315.715427 
Q 95.204786 315.715427 30.647607 315.715427 
" clip-path="url(#p25c135fc7b)" style="fill: none; stroke: #0000ff; stroke-linecap: round"/>
    <path d="M 34.647607 317.715427 
L 30.647607 315.715427 
L 34.647607 313.715427 
L 34.647607 317.715427 
z
" clip-path="url(#p25c135fc7b)" style="fill: #0000ff; stroke: #0000ff; stroke-linecap: round"/>
   </g>
   <g id="patch_24">
    <path d="M 193.717607 282.877821 
Q 144.461197 266.459017 96.265446 250.393767 
" clip-path="url(#p25c135fc7b)" style="fill: none; stroke: #0000ff; stroke-linecap: round"/>
    <path d="M 99.427724 253.556045 
L 96.265446 250.393767 
L 100.692635 249.761312 
L 99.427724 253.556045 
z
" clip-path="url(#p25c135fc7b)" style="fill: #0000ff; stroke: #0000ff; stroke-linecap: round"/>
   </g>
   <g id="patch_25">
    <path d="M 160.88 250.040214 
Q 128.042393 250.040214 96.32282 250.040214 
" clip-path="url(#p25c135fc7b)" style="fill: none; stroke: #0000ff; stroke-linecap: round"/>
    <path d="M 100.32282 252.040214 
L 96.32282 250.040214 
L 100.32282 248.040214 
L 100.32282 252.040214 
z
" clip-path="url(#p25c135fc7b)" style="fill: #0000ff; stroke: #0000ff; stroke-linecap: round"/>
   </g>
   <g id="patch_26">
    <path d="M 193.717607 217.202607 
Q 177.298803 200.783803 161.670569 185.155569 
" clip-path="url(#p25c135fc7b)" style="fill: none; stroke: #0000ff; stroke-linecap: round"/>
    <path d="M 163.084783 189.39821 
L 161.670569 185.155569 
L 165.91321 186.569783 
L 163.084783 189.39821 
z
" clip-path="url(#p25c135fc7b)" style="fill: #0000ff; stroke: #0000ff; stroke-linecap: round"/>
   </g>
   <g id="patch_27">
    <path d="M 160.88 184.365 
Q 160.88 184.365 160.88 184.365 
" clip-path="url(#p25c135fc7b)" style="fill: none; stroke: #0000ff; stroke-linecap: round"/>
   </g>
   <g id="patch_28">
    <path d="M 193.717607 151.527393 
Q 210.13641 135.10859 225.764644 119.480356 
" clip-path="url(#p25c135fc7b)" style="fill: none; stroke: #0000ff; stroke-linecap: round"/>
    <path d="M 221.522004 120.894569 
L 225.764644 119.480356 
L 224.350431 123.722996 
L 221.522004 120.894569 
z
" clip-path="url(#p25c135fc7b)" style="fill: #0000ff; stroke: #0000ff; stroke-linecap: round"/>
   </g>
   <g id="patch_29">
    <path d="M 160.88 118.689786 
Q 193.717607 118.689786 225.43718 118.689786 
" clip-path="url(#p25c135fc7b)" style="fill: none; stroke: #0000ff; stroke-linecap: round"/>
    <path d="M 221.43718 116.689786 
L 225.43718 118.689786 
L 221.43718 120.689786 
L 221.43718 116.689786 
z
" clip-path="url(#p25c135fc7b)" style="fill: #0000ff; stroke: #0000ff; stroke-linecap: round"/>
   </g>
   <g id="patch_30">
    <path d="M 193.717607 85.852179 
Q 242.974017 69.433376 291.169767 53.368126 
" clip-path="url(#p25c135fc7b)" style="fill: none; stroke: #0000ff; stroke-linecap: round"/>
    <path d="M 286.742578 52.735671 
L 291.169767 53.368126 
L 288.00749 56.530404 
L 286.742578 52.735671 
z
" clip-path="url(#p25c135fc7b)" style="fill: #0000ff; stroke: #0000ff; stroke-linecap: round"/>
   </g>
   <g id="patch_31">
    <path d="M 160.88 53.014573 
Q 226.555214 53.014573 291.112393 53.014573 
" clip-path="url(#p25c135fc7b)" style="fill: none; stroke: #0000ff; stroke-linecap: round"/>
    <path d="M 287.112393 51.014573 
L 291.112393 53.014573 
L 287.112393 55.014573 
L 287.112393 51.014573 
z
" clip-path="url(#p25c135fc7b)" style="fill: #0000ff; stroke: #0000ff; stroke-linecap: round"/>
   </g>
   <g id="patch_32">
    <path d="M 193.717607 20.176966 
Q 275.811624 3.758162 356.809319 -12.441377 
" clip-path="url(#p25c135fc7b)" style="fill: none; stroke: #0000ff; stroke-linecap: round"/>
    <path d="M 352.494764 -13.618073 
L 356.809319 -12.441377 
L 353.279228 -9.695751 
L 352.494764 -13.618073 
z
" clip-path="url(#p25c135fc7b)" style="fill: #0000ff; stroke: #0000ff; stroke-linecap: round"/>
   </g>
   <g id="patch_33">
    <path d="M 226.555214 315.715427 
Q 160.88 282.877821 96.204786 250.540214 
" clip-path="url(#p25c135fc7b)" style="fill: none; stroke: #0000ff; stroke-linecap: round"/>
    <path d="M 98.888068 254.117922 
L 96.204786 250.540214 
L 100.676922 250.540214 
L 98.888068 254.117922 
z
" clip-path="url(#p25c135fc7b)" style="fill: #0000ff; stroke: #0000ff; stroke-linecap: round"/>
   </g>
   <g id="patch_34">
    <path d="M 259.392821 282.877821 
Q 210.13641 233.62141 161.670569 185.155569 
" clip-path="url(#p25c135fc7b)" style="fill: none; stroke: #0000ff; stroke-linecap: round"/>
    <path d="M 163.084783 189.39821 
L 161.670569 185.155569 
L 165.91321 186.569783 
L 163.084783 189.39821 
z
" clip-path="url(#p25c135fc7b)" style="fill: #0000ff; stroke: #0000ff; stroke-linecap: round"/>
   </g>
   <g id="patch_35">
    <path d="M 226.555214 250.040214 
Q 193.717607 217.202607 161.670569 185.155569 
" clip-path="url(#p25c135fc7b)" style="fill: none; stroke: #0000ff; stroke-linecap: round"/>
    <path d="M 163.084783 189.39821 
L 161.670569 185.155569 
L 165.91321 186.569783 
L 163.084783 189.39821 
z
" clip-path="url(#p25c135fc7b)" style="fill: #0000ff; stroke: #0000ff; stroke-linecap: round"/>
   </g>
   <g id="patch_36">
    <path d="M 259.392821 217.202607 
Q 242.974017 167.946197 226.908767 119.750446 
" clip-path="url(#p25c135fc7b)" style="fill: none; stroke: #0000ff; stroke-linecap: round"/>
    <path d="M 226.276312 124.177635 
L 226.908767 119.750446 
L 230.071045 122.912724 
L 226.276312 124.177635 
z
" clip-path="url(#p25c135fc7b)" style="fill: #0000ff; stroke: #0000ff; stroke-linecap: round"/>
   </g>
   <g id="patch_37">
    <path d="M 226.555214 184.365 
Q 226.555214 151.527393 226.555214 119.80782 
" clip-path="url(#p25c135fc7b)" style="fill: none; stroke: #0000ff; stroke-linecap: round"/>
    <path d="M 224.555214 123.80782 
L 226.555214 119.80782 
L 228.555214 123.80782 
L 224.555214 123.80782 
z
" clip-path="url(#p25c135fc7b)" style="fill: #0000ff; stroke: #0000ff; stroke-linecap: round"/>
   </g>
   <g id="patch_38">
    <path d="M 259.392821 151.527393 
Q 275.811624 102.270983 291.876874 54.075233 
" clip-path="url(#p25c135fc7b)" style="fill: none; stroke: #0000ff; stroke-linecap: round"/>
    <path d="M 288.714596 57.23751 
L 291.876874 54.075233 
L 292.509329 58.502422 
L 288.714596 57.23751 
z
" clip-path="url(#p25c135fc7b)" style="fill: #0000ff; stroke: #0000ff; stroke-linecap: round"/>
   </g>
   <g id="patch_39">
    <path d="M 226.555214 118.689786 
Q 259.392821 85.852179 291.439858 53.805142 
" clip-path="url(#p25c135fc7b)" style="fill: none; stroke: #0000ff; stroke-linecap: round"/>
    <path d="M 287.197217 55.219356 
L 291.439858 53.805142 
L 290.025644 58.047783 
L 287.197217 55.219356 
z
" clip-path="url(#p25c135fc7b)" style="fill: #0000ff; stroke: #0000ff; stroke-linecap: round"/>
   </g>
   <g id="patch_40">
    <path d="M 259.392821 85.852179 
Q 308.649231 36.595769 357.115072 -11.870072 
" clip-path="url(#p25c135fc7b)" style="fill: none; stroke: #0000ff; stroke-linecap: round"/>
    <path d="M 352.872431 -10.455858 
L 357.115072 -11.870072 
L 355.700858 -7.627431 
L 352.872431 -10.455858 
z
" clip-path="url(#p25c135fc7b)" style="fill: #0000ff; stroke: #0000ff; stroke-linecap: round"/>
   </g>
   <g id="patch_41">
    <path d="M 226.555214 53.014573 
Q 292.230427 20.176966 356.905641 -12.160641 
" clip-path="url(#p25c135fc7b)" style="fill: none; stroke: #0000ff; stroke-linecap: round"/>
    <path d="M 352.433505 -12.160641 
L 356.905641 -12.160641 
L 354.222359 -8.582932 
L 352.433505 -12.160641 
z
" clip-path="url(#p25c135fc7b)" style="fill: #0000ff; stroke: #0000ff; stroke-linecap: round"/>
   </g>
   <g id="patch_42">
    <path d="M 259.392821 20.176966 
Q 341.486838 -29.079444 422.622148 -77.760631 
" clip-path="url(#p25c135fc7b)" style="fill: none; stroke: #0000ff; stroke-linecap: round"/>
    <path d="M 418.163185 -77.417634 
L 422.622148 -77.760631 
L 420.221168 -73.987662 
L 418.163185 -77.417634 
z
" clip-path="url(#p25c135fc7b)" style="fill: #0000ff; stroke: #0000ff; stroke-linecap: round"/>
   </g>
   <g id="patch_43">
    <path d="M 292.230427 315.715427 
Q 226.555214 250.040214 161.670569 185.155569 
" clip-path="url(#p25c135fc7b)" style="fill: none; stroke: #0000ff; stroke-linecap: round"/>
    <path d="M 163.084783 189.39821 
L 161.670569 185.155569 
L 165.91321 186.569783 
L 163.084783 189.39821 
z
" clip-path="url(#p25c135fc7b)" style="fill: #0000ff; stroke: #0000ff; stroke-linecap: round"/>
   </g>
   <g id="patch_44">
    <path d="M 325.068034 282.877821 
Q 275.811624 200.783803 227.130437 119.648493 
" clip-path="url(#p25c135fc7b)" style="fill: none; stroke: #0000ff; stroke-linecap: round"/>
    <path d="M 227.473435 124.107456 
L 227.130437 119.648493 
L 230.903406 122.049473 
L 227.473435 124.107456 
z
" clip-path="url(#p25c135fc7b)" style="fill: #0000ff; stroke: #0000ff; stroke-linecap: round"/>
   </g>
   <g id="patch_45">
    <path d="M 292.230427 250.040214 
Q 259.392821 184.365 227.055214 119.689786 
" clip-path="url(#p25c135fc7b)" style="fill: none; stroke: #0000ff; stroke-linecap: round"/>
    <path d="M 227.055214 124.161922 
L 227.055214 119.689786 
L 230.632922 122.373068 
L 227.055214 124.161922 
z
" clip-path="url(#p25c135fc7b)" style="fill: #0000ff; stroke: #0000ff; stroke-linecap: round"/>
   </g>
   <g id="patch_46">
    <path d="M 325.068034 217.202607 
Q 308.649231 135.10859 292.449692 54.110895 
" clip-path="url(#p25c135fc7b)" style="fill: none; stroke: #0000ff; stroke-linecap: round"/>
    <path d="M 291.272995 58.42545 
L 292.449692 54.110895 
L 295.195318 57.640986 
L 291.272995 58.42545 
z
" clip-path="url(#p25c135fc7b)" style="fill: #0000ff; stroke: #0000ff; stroke-linecap: round"/>
   </g>
   <g id="patch_47">
    <path d="M 292.230427 184.365 
Q 292.230427 118.689786 292.230427 54.132607 
" clip-path="url(#p25c135fc7b)" style="fill: none; stroke: #0000ff; stroke-linecap: round"/>
    <path d="M 290.230427 58.132607 
L 292.230427 54.132607 
L 294.230427 58.132607 
L 290.230427 58.132607 
z
" clip-path="url(#p25c135fc7b)" style="fill: #0000ff; stroke: #0000ff; stroke-linecap: round"/>
   </g>
   <g id="patch_48">
    <path d="M 325.068034 151.527393 
Q 341.486838 69.433376 357.686377 -11.564319 
" clip-path="url(#p25c135fc7b)" style="fill: none; stroke: #0000ff; stroke-linecap: round"/>
    <path d="M 354.940751 -8.034228 
L 357.686377 -11.564319 
L 358.863073 -7.249764 
L 354.940751 -8.034228 
z
" clip-path="url(#p25c135fc7b)" style="fill: #0000ff; stroke: #0000ff; stroke-linecap: round"/>
   </g>
   <g id="patch_49">
    <path d="M 292.230427 118.689786 
Q 325.068034 53.014573 357.405641 -11.660641 
" clip-path="url(#p25c135fc7b)" style="fill: none; stroke: #0000ff; stroke-linecap: round"/>
    <path d="M 353.827932 -8.977359 
L 357.405641 -11.660641 
L 357.405641 -7.188505 
L 353.827932 -8.977359 
z
" clip-path="url(#p25c135fc7b)" style="fill: #0000ff; stroke: #0000ff; stroke-linecap: round"/>
   </g>
   <g id="patch_50">
    <path d="M 325.068034 85.852179 
Q 374.324444 3.758162 423.005631 -77.377148 
" clip-path="url(#p25c135fc7b)" style="fill: none; stroke: #0000ff; stroke-linecap: round"/>
    <path d="M 419.232662 -74.976168 
L 423.005631 -77.377148 
L 422.662634 -72.918185 
L 419.232662 -74.976168 
z
" clip-path="url(#p25c135fc7b)" style="fill: #0000ff; stroke: #0000ff; stroke-linecap: round"/>
   </g>
   <g id="patch_51">
    <path d="M 292.230427 53.014573 
Q 357.905641 -12.660641 422.790285 -77.545285 
" clip-path="url(#p25c135fc7b)" style="fill: none; stroke: #0000ff; stroke-linecap: round"/>
    <path d="M 418.547645 -76.131072 
L 422.790285 -77.545285 
L 421.376072 -73.302645 
L 418.547645 -76.131072 
z
" clip-path="url(#p25c135fc7b)" style="fill: #0000ff; stroke: #0000ff; stroke-linecap: round"/>
   </g>
   <g id="patch_52">
    <path d="M 325.068034 20.176966 
Q 407.162051 -61.917051 488.465499 -143.220499 
" clip-path="url(#p25c135fc7b)" style="fill: none; stroke: #0000ff; stroke-linecap: round"/>
    <path d="M 484.222858 -141.806285 
L 488.465499 -143.220499 
L 487.051285 -138.977858 
L 484.222858 -141.806285 
z
" clip-path="url(#p25c135fc7b)" style="fill: #0000ff; stroke: #0000ff; stroke-linecap: round"/>
   </g>
   <g id="patch_53">
    <path d="M 160.88 338.045 
L 160.88 30.685 
" style="fill: none; stroke: #000000; stroke-width: 0.8; stroke-linejoin: miter; stroke-linecap: square"/>
   </g>
   <g id="patch_54">
    <path d="M 7.2 184.365 
L 314.56 184.365 
" style="fill: none; stroke: #000000; stroke-width: 0.8; stroke-linejoin: miter; stroke-linecap: square"/>
   </g>
  </g>
 </g>
 <defs>
  <clipPath id="p25c135fc7b">
   <rect x="7.2" y="30.685" width="307.36" height="307.36"/>
  </clipPath>
 </defs>
</svg>
