<?xml version="1.0" encoding="utf-8" standalone="no"?>
<!DOCTYPE svg PUBLIC "-//W3C//DTD SVG 1.1//EN"
  "http://www.w3.org/Graphics/SVG/1.1/DTD/svg11.dtd">
<svg xmlns:xlink="http://www.w3.org/1999/xlink" width="383.5645pt" height="345.245pt" viewBox="0 0 383.5645 345.245" xmlns="http://www.w3.org/2000/svg" version="1.1">
 <metadata>
  <rdf:RDF xmlns:dc="http://purl.org/dc/elements/1.1/" xmlns:cc="http://creativecommons.org/ns#" xmlns:rdf="http://www.w3.org/1999/02/22-rdf-syntax-ns#">
   <cc:Work>
    <dc:type rdf:resource="http://purl.org/dc/dcmitype/StillImage"/>
    <dc:date>2025-03-06T19:35:36.651960</dc:date>
    <dc:format>image/svg+xml</dc:format>
    <dc:creator>
     <cc:Agent>
      <dc:title>Matplotlib v3.5.1, https://matplotlib.org/</dc:title>
     </cc:Agent>
    </dc:creator>
   </cc:Work>
  </rdf:RDF>
 </metadata>
 <defs>
  <style type="text/css">*{stroke-linejoin: round; stroke-linecap: butt}</style>
 </defs>
 <g id="figure_1">
  <g id="patch_1">
   <path d="M 0 345.245 
L 383.5645 345.245 
L 383.5645 0 
L 0 0 
z
" style="fill: #ffffff"/>
  </g>
  <g id="axes_1">
   <g id="patch_2">
    <path d="M 7.815929 338.045 
L 359.0845 338.045 
L 359.0845 30.685 
L 7.815929 30.685 
z
" style="fill: #ffffff"/>
   </g>
   <g id="matplotlib.axis_1">
    <g id="xtick_1">
     <g id="line2d_1">
      <defs>
       <path id="m9ad60ed16d" d="M 0 0 
L 0 3.5 
" style="stroke: #000000; stroke-width: 0.8"/>
      </defs>
      <g>
       <use xlink:href="#m9ad60ed16d" x="14.571094" y="184.365" style="stroke: #000000; stroke-width: 0.8"/>
      </g>
     </g>
     <g id="text_1">
      <!-- −8 -->
      <g transform="translate(7.2 198.963437)scale(0.1 -0.1)">
       <defs>
        <path id="DejaVuSans-2212" d="M 678 2272 
L 4684 2272 
L 4684 1741 
L 678 1741 
L 678 2272 
z
" transform="scale(0.015625)"/>
        <path id="DejaVuSans-38" d="M 2034 2216 
Q 1584 2216 1326 1975 
Q 1069 1734 1069 1313 
Q 1069 891 1326 650 
Q 1584 409 2034 409 
Q 2484 409 2743 651 
Q 3003 894 3003 1313 
Q 3003 1734 2745 1975 
Q 2488 2216 2034 2216 
z
M 1403 2484 
Q 997 2584 770 2862 
Q 544 3141 544 3541 
Q 544 4100 942 4425 
Q 1341 4750 2034 4750 
Q 2731 4750 3128 4425 
Q 3525 4100 3525 3541 
Q 3525 3141 3298 2862 
Q 3072 2584 2669 2484 
Q 3125 2378 3379 2068 
Q 3634 1759 3634 1313 
Q 3634 634 3220 271 
Q 2806 -91 2034 -91 
Q 1263 -91 848 271 
Q 434 634 434 1313 
Q 434 1759 690 2068 
Q 947 2378 1403 2484 
z
M 1172 3481 
Q 1172 3119 1398 2916 
Q 1625 2713 2034 2713 
Q 2441 2713 2670 2916 
Q 2900 3119 2900 3481 
Q 2900 3844 2670 4047 
Q 2441 4250 2034 4250 
Q 1625 4250 1398 4047 
Q 1172 3844 1172 3481 
z
" transform="scale(0.015625)"/>
       </defs>
       <use xlink:href="#DejaVuSans-2212"/>
       <use xlink:href="#DejaVuSans-38" x="83.789062"/>
      </g>
     </g>
    </g>
    <g id="xtick_2">
     <g id="line2d_2">
      <g>
       <use xlink:href="#m9ad60ed16d" x="56.790874" y="184.365" style="stroke: #000000; stroke-width: 0.8"/>
      </g>
     </g>
     <g id="text_2">
      <!-- −6 -->
      <g transform="translate(49.41978 198.963437)scale(0.1 -0.1)">
       <defs>
        <path id="DejaVuSans-36" d="M 2113 2584 
Q 1688 2584 1439 2293 
Q 1191 2003 1191 1497 
Q 1191 994 1439 701 
Q 1688 409 2113 409 
Q 2538 409 2786 701 
Q 3034 994 3034 1497 
Q 3034 2003 2786 2293 
Q 2538 2584 2113 2584 
z
M 3366 4563 
L 3366 3988 
Q 3128 4100 2886 4159 
Q 2644 4219 2406 4219 
Q 1781 4219 1451 3797 
Q 1122 3375 1075 2522 
Q 1259 2794 1537 2939 
Q 1816 3084 2150 3084 
Q 2853 3084 3261 2657 
Q 3669 2231 3669 1497 
Q 3669 778 3244 343 
Q 2819 -91 2113 -91 
Q 1303 -91 875 529 
Q 447 1150 447 2328 
Q 447 3434 972 4092 
Q 1497 4750 2381 4750 
Q 2619 4750 2861 4703 
Q 3103 4656 3366 4563 
z
" transform="scale(0.015625)"/>
       </defs>
       <use xlink:href="#DejaVuSans-2212"/>
       <use xlink:href="#DejaVuSans-36" x="83.789062"/>
      </g>
     </g>
    </g>
    <g id="xtick_3">
     <g id="line2d_3">
      <g>
       <use xlink:href="#m9ad60ed16d" x="99.010654" y="184.365" style="stroke: #000000; stroke-width: 0.8"/>
      </g>
     </g>
     <g id="text_3">
      <!-- −4 -->
      <g transform="translate(91.63956 198.963437)scale(0.1 -0.1)">
       <defs>
        <path id="DejaVuSans-34" d="M 2419 4116 
L 825 1625 
L 2419 1625 
L 2419 4116 
z
M 2253 4666 
L 3047 4666 
L 3047 1625 
L 3713 1625 
L 3713 1100 
L 3047 1100 
L 3047 0 
L 2419 0 
L 2419 1100 
L 313 1100 
L 313 1709 
L 2253 4666 
z
" transform="scale(0.015625)"/>
       </defs>
       <use xlink:href="#DejaVuSans-2212"/>
       <use xlink:href="#DejaVuSans-34" x="83.789062"/>
      </g>
     </g>
    </g>
    <g id="xtick_4">
     <g id="line2d_4">
      <g>
       <use xlink:href="#m9ad60ed16d" x="141.230434" y="184.365" style="stroke: #000000; stroke-width: 0.8"/>
      </g>
     </g>
     <g id="text_4">
      <!-- −2 -->
      <g transform="translate(133.859341 198.963437)scale(0.1 -0.1)">
       <defs>
        <path id="DejaVuSans-32" d="M 1228 531 
L 3431 531 
L 3431 0 
L 469 0 
L 469 531 
Q 828 903 1448 1529 
Q 2069 2156 2228 2338 
Q 2531 2678 2651 2914 
Q 2772 3150 2772 3378 
Q 2772 3750 2511 3984 
Q 2250 4219 1831 4219 
Q 1534 4219 1204 4116 
Q 875 4013 500 3803 
L 500 4441 
Q 881 4594 1212 4672 
Q 1544 4750 1819 4750 
Q 2544 4750 2975 4387 
Q 3406 4025 3406 3419 
Q 3406 3131 3298 2873 
Q 3191 2616 2906 2266 
Q 2828 2175 2409 1742 
Q 1991 1309 1228 531 
z
" transform="scale(0.015625)"/>
       </defs>
       <use xlink:href="#DejaVuSans-2212"/>
       <use xlink:href="#DejaVuSans-32" x="83.789062"/>
      </g>
     </g>
    </g>
    <g id="xtick_5">
     <g id="line2d_5">
      <g>
       <use xlink:href="#m9ad60ed16d" x="183.450215" y="184.365" style="stroke: #000000; stroke-width: 0.8"/>
      </g>
     </g>
    </g>
    <g id="xtick_6">
     <g id="line2d_6">
      <g>
       <use xlink:href="#m9ad60ed16d" x="225.669995" y="184.365" style="stroke: #000000; stroke-width: 0.8"/>
      </g>
     </g>
     <g id="text_5">
      <!-- 2 -->
      <g transform="translate(222.488745 198.963437)scale(0.1 -0.1)">
       <use xlink:href="#DejaVuSans-32"/>
      </g>
     </g>
    </g>
    <g id="xtick_7">
     <g id="line2d_7">
      <g>
       <use xlink:href="#m9ad60ed16d" x="267.889775" y="184.365" style="stroke: #000000; stroke-width: 0.8"/>
      </g>
     </g>
     <g id="text_6">
      <!-- 4 -->
      <g transform="translate(264.708525 198.963437)scale(0.1 -0.1)">
       <use xlink:href="#DejaVuSans-34"/>
      </g>
     </g>
    </g>
    <g id="xtick_8">
     <g id="line2d_8">
      <g>
       <use xlink:href="#m9ad60ed16d" x="310.109555" y="184.365" style="stroke: #000000; stroke-width: 0.8"/>
      </g>
     </g>
     <g id="text_7">
      <!-- 6 -->
      <g transform="translate(306.928305 198.963437)scale(0.1 -0.1)">
       <use xlink:href="#DejaVuSans-36"/>
      </g>
     </g>
    </g>
    <g id="xtick_9">
     <g id="line2d_9">
      <g>
       <use xlink:href="#m9ad60ed16d" x="352.329336" y="184.365" style="stroke: #000000; stroke-width: 0.8"/>
      </g>
     </g>
     <g id="text_8">
      <!-- 8 -->
      <g transform="translate(349.148086 198.963437)scale(0.1 -0.1)">
       <use xlink:href="#DejaVuSans-38"/>
      </g>
     </g>
    </g>
    <g id="xtick_10">
     <g id="line2d_10">
      <defs>
       <path id="m670127cb5e" d="M 0 0 
L 0 2 
" style="stroke: #000000; stroke-width: 0.6"/>
      </defs>
      <g>
       <use xlink:href="#m670127cb5e" x="25.126039" y="184.365" style="stroke: #000000; stroke-width: 0.6"/>
      </g>
     </g>
    </g>
    <g id="xtick_11">
     <g id="line2d_11">
      <g>
       <use xlink:href="#m670127cb5e" x="35.680984" y="184.365" style="stroke: #000000; stroke-width: 0.6"/>
      </g>
     </g>
    </g>
    <g id="xtick_12">
     <g id="line2d_12">
      <g>
       <use xlink:href="#m670127cb5e" x="46.235929" y="184.365" style="stroke: #000000; stroke-width: 0.6"/>
      </g>
     </g>
    </g>
    <g id="xtick_13">
     <g id="line2d_13">
      <g>
       <use xlink:href="#m670127cb5e" x="67.345819" y="184.365" style="stroke: #000000; stroke-width: 0.6"/>
      </g>
     </g>
    </g>
    <g id="xtick_14">
     <g id="line2d_14">
      <g>
       <use xlink:href="#m670127cb5e" x="77.900764" y="184.365" style="stroke: #000000; stroke-width: 0.6"/>
      </g>
     </g>
    </g>
    <g id="xtick_15">
     <g id="line2d_15">
      <g>
       <use xlink:href="#m670127cb5e" x="88.455709" y="184.365" style="stroke: #000000; stroke-width: 0.6"/>
      </g>
     </g>
    </g>
    <g id="xtick_16">
     <g id="line2d_16">
      <g>
       <use xlink:href="#m670127cb5e" x="109.565599" y="184.365" style="stroke: #000000; stroke-width: 0.6"/>
      </g>
     </g>
    </g>
    <g id="xtick_17">
     <g id="line2d_17">
      <g>
       <use xlink:href="#m670127cb5e" x="120.120544" y="184.365" style="stroke: #000000; stroke-width: 0.6"/>
      </g>
     </g>
    </g>
    <g id="xtick_18">
     <g id="line2d_18">
      <g>
       <use xlink:href="#m670127cb5e" x="130.675489" y="184.365" style="stroke: #000000; stroke-width: 0.6"/>
      </g>
     </g>
    </g>
    <g id="xtick_19">
     <g id="line2d_19">
      <g>
       <use xlink:href="#m670127cb5e" x="151.785379" y="184.365" style="stroke: #000000; stroke-width: 0.6"/>
      </g>
     </g>
    </g>
    <g id="xtick_20">
     <g id="line2d_20">
      <g>
       <use xlink:href="#m670127cb5e" x="162.340325" y="184.365" style="stroke: #000000; stroke-width: 0.6"/>
      </g>
     </g>
    </g>
    <g id="xtick_21">
     <g id="line2d_21">
      <g>
       <use xlink:href="#m670127cb5e" x="172.89527" y="184.365" style="stroke: #000000; stroke-width: 0.6"/>
      </g>
     </g>
    </g>
    <g id="xtick_22">
     <g id="line2d_22">
      <g>
       <use xlink:href="#m670127cb5e" x="194.00516" y="184.365" style="stroke: #000000; stroke-width: 0.6"/>
      </g>
     </g>
    </g>
    <g id="xtick_23">
     <g id="line2d_23">
      <g>
       <use xlink:href="#m670127cb5e" x="204.560105" y="184.365" style="stroke: #000000; stroke-width: 0.6"/>
      </g>
     </g>
    </g>
    <g id="xtick_24">
     <g id="line2d_24">
      <g>
       <use xlink:href="#m670127cb5e" x="215.11505" y="184.365" style="stroke: #000000; stroke-width: 0.6"/>
      </g>
     </g>
    </g>
    <g id="xtick_25">
     <g id="line2d_25">
      <g>
       <use xlink:href="#m670127cb5e" x="236.22494" y="184.365" style="stroke: #000000; stroke-width: 0.6"/>
      </g>
     </g>
    </g>
    <g id="xtick_26">
     <g id="line2d_26">
      <g>
       <use xlink:href="#m670127cb5e" x="246.779885" y="184.365" style="stroke: #000000; stroke-width: 0.6"/>
      </g>
     </g>
    </g>
    <g id="xtick_27">
     <g id="line2d_27">
      <g>
       <use xlink:href="#m670127cb5e" x="257.33483" y="184.365" style="stroke: #000000; stroke-width: 0.6"/>
      </g>
     </g>
    </g>
    <g id="xtick_28">
     <g id="line2d_28">
      <g>
       <use xlink:href="#m670127cb5e" x="278.44472" y="184.365" style="stroke: #000000; stroke-width: 0.6"/>
      </g>
     </g>
    </g>
    <g id="xtick_29">
     <g id="line2d_29">
      <g>
       <use xlink:href="#m670127cb5e" x="288.999665" y="184.365" style="stroke: #000000; stroke-width: 0.6"/>
      </g>
     </g>
    </g>
    <g id="xtick_30">
     <g id="line2d_30">
      <g>
       <use xlink:href="#m670127cb5e" x="299.55461" y="184.365" style="stroke: #000000; stroke-width: 0.6"/>
      </g>
     </g>
    </g>
    <g id="xtick_31">
     <g id="line2d_31">
      <g>
       <use xlink:href="#m670127cb5e" x="320.6645" y="184.365" style="stroke: #000000; stroke-width: 0.6"/>
      </g>
     </g>
    </g>
    <g id="xtick_32">
     <g id="line2d_32">
      <g>
       <use xlink:href="#m670127cb5e" x="331.219445" y="184.365" style="stroke: #000000; stroke-width: 0.6"/>
      </g>
     </g>
    </g>
    <g id="xtick_33">
     <g id="line2d_33">
      <g>
       <use xlink:href="#m670127cb5e" x="341.77439" y="184.365" style="stroke: #000000; stroke-width: 0.6"/>
      </g>
     </g>
    </g>
    <g id="text_9">
     <!-- $x$ -->
     <g transform="translate(367.0845 184.365)scale(0.16 -0.16)">
      <defs>
       <path id="Cmmi10-78" d="M 500 184 
Q 613 97 819 97 
Q 1019 97 1172 289 
Q 1325 481 1381 709 
L 1672 1844 
Q 1741 2153 1741 2266 
Q 1741 2425 1652 2544 
Q 1563 2663 1403 2663 
Q 1200 2663 1022 2536 
Q 844 2409 722 2214 
Q 600 2019 550 1819 
Q 538 1778 500 1778 
L 422 1778 
Q 372 1778 372 1838 
L 372 1856 
Q 434 2094 584 2320 
Q 734 2547 951 2687 
Q 1169 2828 1416 2828 
Q 1650 2828 1839 2703 
Q 2028 2578 2106 2363 
Q 2216 2559 2386 2693 
Q 2556 2828 2759 2828 
Q 2897 2828 3040 2779 
Q 3184 2731 3275 2631 
Q 3366 2531 3366 2381 
Q 3366 2219 3261 2101 
Q 3156 1984 2994 1984 
Q 2891 1984 2822 2050 
Q 2753 2116 2753 2216 
Q 2753 2350 2845 2451 
Q 2938 2553 3066 2572 
Q 2950 2663 2747 2663 
Q 2541 2663 2389 2472 
Q 2238 2281 2175 2047 
L 1894 916 
Q 1825 659 1825 494 
Q 1825 331 1917 214 
Q 2009 97 2163 97 
Q 2463 97 2698 361 
Q 2934 625 3009 941 
Q 3022 978 3059 978 
L 3138 978 
Q 3163 978 3178 961 
Q 3194 944 3194 922 
Q 3194 916 3188 903 
Q 3097 522 2806 225 
Q 2516 -72 2150 -72 
Q 1916 -72 1727 54 
Q 1538 181 1459 397 
Q 1359 209 1182 68 
Q 1006 -72 806 -72 
Q 669 -72 523 -23 
Q 378 25 287 125 
Q 197 225 197 378 
Q 197 528 301 651 
Q 406 775 563 775 
Q 669 775 741 711 
Q 813 647 813 544 
Q 813 409 723 309 
Q 634 209 500 184 
z
" transform="scale(0.015625)"/>
      </defs>
      <use xlink:href="#Cmmi10-78" transform="translate(0 0.8125)"/>
     </g>
    </g>
   </g>
   <g id="matplotlib.axis_2">
    <g id="ytick_1">
     <g id="line2d_34">
      <defs>
       <path id="m3eeb3eda50" d="M 0 0 
L -3.5 0 
" style="stroke: #000000; stroke-width: 0.8"/>
      </defs>
      <g>
       <use xlink:href="#m3eeb3eda50" x="183.450215" y="311.024341" style="stroke: #000000; stroke-width: 0.8"/>
      </g>
     </g>
     <g id="text_10">
      <!-- −6 -->
      <g transform="translate(161.708027 314.823559)scale(0.1 -0.1)">
       <use xlink:href="#DejaVuSans-2212"/>
       <use xlink:href="#DejaVuSans-36" x="83.789062"/>
      </g>
     </g>
    </g>
    <g id="ytick_2">
     <g id="line2d_35">
      <g>
       <use xlink:href="#m3eeb3eda50" x="183.450215" y="268.80456" style="stroke: #000000; stroke-width: 0.8"/>
      </g>
     </g>
     <g id="text_11">
      <!-- −4 -->
      <g transform="translate(161.708027 272.603779)scale(0.1 -0.1)">
       <use xlink:href="#DejaVuSans-2212"/>
       <use xlink:href="#DejaVuSans-34" x="83.789062"/>
      </g>
     </g>
    </g>
    <g id="ytick_3">
     <g id="line2d_36">
      <g>
       <use xlink:href="#m3eeb3eda50" x="183.450215" y="226.58478" style="stroke: #000000; stroke-width: 0.8"/>
      </g>
     </g>
     <g id="text_12">
      <!-- −2 -->
      <g transform="translate(161.708027 230.383999)scale(0.1 -0.1)">
       <use xlink:href="#DejaVuSans-2212"/>
       <use xlink:href="#DejaVuSans-32" x="83.789062"/>
      </g>
     </g>
    </g>
    <g id="ytick_4">
     <g id="line2d_37">
      <g>
       <use xlink:href="#m3eeb3eda50" x="183.450215" y="184.365" style="stroke: #000000; stroke-width: 0.8"/>
      </g>
     </g>
    </g>
    <g id="ytick_5">
     <g id="line2d_38">
      <g>
       <use xlink:href="#m3eeb3eda50" x="183.450215" y="142.14522" style="stroke: #000000; stroke-width: 0.8"/>
      </g>
     </g>
     <g id="text_13">
      <!-- 2 -->
      <g transform="translate(170.087715 145.944439)scale(0.1 -0.1)">
       <use xlink:href="#DejaVuSans-32"/>
      </g>
     </g>
    </g>
    <g id="ytick_6">
     <g id="line2d_39">
      <g>
       <use xlink:href="#m3eeb3eda50" x="183.450215" y="99.92544" style="stroke: #000000; stroke-width: 0.8"/>
      </g>
     </g>
     <g id="text_14">
      <!-- 4 -->
      <g transform="translate(170.087715 103.724658)scale(0.1 -0.1)">
       <use xlink:href="#DejaVuSans-34"/>
      </g>
     </g>
    </g>
    <g id="ytick_7">
     <g id="line2d_40">
      <g>
       <use xlink:href="#m3eeb3eda50" x="183.450215" y="57.705659" style="stroke: #000000; stroke-width: 0.8"/>
      </g>
     </g>
     <g id="text_15">
      <!-- 6 -->
      <g transform="translate(170.087715 61.504878)scale(0.1 -0.1)">
       <use xlink:href="#DejaVuSans-36"/>
      </g>
     </g>
    </g>
    <g id="ytick_8">
     <g id="line2d_41">
      <defs>
       <path id="mdd9ad01d3d" d="M 0 0 
L -2 0 
" style="stroke: #000000; stroke-width: 0.6"/>
      </defs>
      <g>
       <use xlink:href="#mdd9ad01d3d" x="183.450215" y="332.134231" style="stroke: #000000; stroke-width: 0.6"/>
      </g>
     </g>
    </g>
    <g id="ytick_9">
     <g id="line2d_42">
      <g>
       <use xlink:href="#mdd9ad01d3d" x="183.450215" y="321.579286" style="stroke: #000000; stroke-width: 0.6"/>
      </g>
     </g>
    </g>
    <g id="ytick_10">
     <g id="line2d_43">
      <g>
       <use xlink:href="#mdd9ad01d3d" x="183.450215" y="300.469396" style="stroke: #000000; stroke-width: 0.6"/>
      </g>
     </g>
    </g>
    <g id="ytick_11">
     <g id="line2d_44">
      <g>
       <use xlink:href="#mdd9ad01d3d" x="183.450215" y="289.914451" style="stroke: #000000; stroke-width: 0.6"/>
      </g>
     </g>
    </g>
    <g id="ytick_12">
     <g id="line2d_45">
      <g>
       <use xlink:href="#mdd9ad01d3d" x="183.450215" y="279.359505" style="stroke: #000000; stroke-width: 0.6"/>
      </g>
     </g>
    </g>
    <g id="ytick_13">
     <g id="line2d_46">
      <g>
       <use xlink:href="#mdd9ad01d3d" x="183.450215" y="258.249615" style="stroke: #000000; stroke-width: 0.6"/>
      </g>
     </g>
    </g>
    <g id="ytick_14">
     <g id="line2d_47">
      <g>
       <use xlink:href="#mdd9ad01d3d" x="183.450215" y="247.69467" style="stroke: #000000; stroke-width: 0.6"/>
      </g>
     </g>
    </g>
    <g id="ytick_15">
     <g id="line2d_48">
      <g>
       <use xlink:href="#mdd9ad01d3d" x="183.450215" y="237.139725" style="stroke: #000000; stroke-width: 0.6"/>
      </g>
     </g>
    </g>
    <g id="ytick_16">
     <g id="line2d_49">
      <g>
       <use xlink:href="#mdd9ad01d3d" x="183.450215" y="216.029835" style="stroke: #000000; stroke-width: 0.6"/>
      </g>
     </g>
    </g>
    <g id="ytick_17">
     <g id="line2d_50">
      <g>
       <use xlink:href="#mdd9ad01d3d" x="183.450215" y="205.47489" style="stroke: #000000; stroke-width: 0.6"/>
      </g>
     </g>
    </g>
    <g id="ytick_18">
     <g id="line2d_51">
      <g>
       <use xlink:href="#mdd9ad01d3d" x="183.450215" y="194.919945" style="stroke: #000000; stroke-width: 0.6"/>
      </g>
     </g>
    </g>
    <g id="ytick_19">
     <g id="line2d_52">
      <g>
       <use xlink:href="#mdd9ad01d3d" x="183.450215" y="173.810055" style="stroke: #000000; stroke-width: 0.6"/>
      </g>
     </g>
    </g>
    <g id="ytick_20">
     <g id="line2d_53">
      <g>
       <use xlink:href="#mdd9ad01d3d" x="183.450215" y="163.25511" style="stroke: #000000; stroke-width: 0.6"/>
      </g>
     </g>
    </g>
    <g id="ytick_21">
     <g id="line2d_54">
      <g>
       <use xlink:href="#mdd9ad01d3d" x="183.450215" y="152.700165" style="stroke: #000000; stroke-width: 0.6"/>
      </g>
     </g>
    </g>
    <g id="ytick_22">
     <g id="line2d_55">
      <g>
       <use xlink:href="#mdd9ad01d3d" x="183.450215" y="131.590275" style="stroke: #000000; stroke-width: 0.6"/>
      </g>
     </g>
    </g>
    <g id="ytick_23">
     <g id="line2d_56">
      <g>
       <use xlink:href="#mdd9ad01d3d" x="183.450215" y="121.03533" style="stroke: #000000; stroke-width: 0.6"/>
      </g>
     </g>
    </g>
    <g id="ytick_24">
     <g id="line2d_57">
      <g>
       <use xlink:href="#mdd9ad01d3d" x="183.450215" y="110.480385" style="stroke: #000000; stroke-width: 0.6"/>
      </g>
     </g>
    </g>
    <g id="ytick_25">
     <g id="line2d_58">
      <g>
       <use xlink:href="#mdd9ad01d3d" x="183.450215" y="89.370495" style="stroke: #000000; stroke-width: 0.6"/>
      </g>
     </g>
    </g>
    <g id="ytick_26">
     <g id="line2d_59">
      <g>
       <use xlink:href="#mdd9ad01d3d" x="183.450215" y="78.815549" style="stroke: #000000; stroke-width: 0.6"/>
      </g>
     </g>
    </g>
    <g id="ytick_27">
     <g id="line2d_60">
      <g>
       <use xlink:href="#mdd9ad01d3d" x="183.450215" y="68.260604" style="stroke: #000000; stroke-width: 0.6"/>
      </g>
     </g>
    </g>
    <g id="ytick_28">
     <g id="line2d_61">
      <g>
       <use xlink:href="#mdd9ad01d3d" x="183.450215" y="47.150714" style="stroke: #000000; stroke-width: 0.6"/>
      </g>
     </g>
    </g>
    <g id="ytick_29">
     <g id="line2d_62">
      <g>
       <use xlink:href="#mdd9ad01d3d" x="183.450215" y="36.595769" style="stroke: #000000; stroke-width: 0.6"/>
      </g>
     </g>
    </g>
    <g id="text_16">
     <!-- $y$ -->
     <g transform="translate(179.450215 19.325)scale(0.16 -0.16)">
      <defs>
       <path id="Cmmi10-79" d="M 538 -916 
Q 672 -1147 1006 -1147 
Q 1309 -1147 1531 -934 
Q 1753 -722 1889 -420 
Q 2025 -119 2100 197 
Q 1816 -72 1484 -72 
Q 1231 -72 1053 15 
Q 875 103 776 276 
Q 678 450 678 697 
Q 678 906 734 1126 
Q 791 1347 892 1617 
Q 994 1888 1069 2088 
Q 1153 2322 1153 2472 
Q 1153 2663 1013 2663 
Q 759 2663 595 2402 
Q 431 2141 353 1819 
Q 341 1778 300 1778 
L 225 1778 
Q 172 1778 172 1838 
L 172 1856 
Q 275 2238 487 2533 
Q 700 2828 1025 2828 
Q 1253 2828 1411 2678 
Q 1569 2528 1569 2297 
Q 1569 2178 1516 2047 
Q 1488 1969 1388 1706 
Q 1288 1444 1234 1272 
Q 1181 1100 1147 934 
Q 1113 769 1113 603 
Q 1113 391 1203 244 
Q 1294 97 1491 97 
Q 1888 97 2203 581 
L 2688 2553 
Q 2709 2638 2787 2698 
Q 2866 2759 2956 2759 
Q 3034 2759 3092 2709 
Q 3150 2659 3150 2578 
Q 3150 2541 3144 2528 
L 2509 -19 
Q 2425 -347 2200 -647 
Q 1975 -947 1658 -1130 
Q 1341 -1313 997 -1313 
Q 831 -1313 668 -1248 
Q 506 -1184 406 -1056 
Q 306 -928 306 -756 
Q 306 -581 409 -453 
Q 513 -325 684 -325 
Q 788 -325 858 -389 
Q 928 -453 928 -556 
Q 928 -703 818 -812 
Q 709 -922 563 -922 
Q 556 -919 550 -917 
Q 544 -916 538 -916 
z
" transform="scale(0.015625)"/>
      </defs>
      <use xlink:href="#Cmmi10-79" transform="translate(0 0.8125)"/>
     </g>
    </g>
   </g>
   <g id="PathCollection_1">
    <path d="M 185.156064 224.726241 
L 184.938884 224.665699 
L 181.744365 223.729631 
L 178.332666 222.611615 
L 175.757386 221.680462 
L 174.920966 221.362143 
L 171.509267 219.934383 
L 168.747959 218.695225 
L 168.097567 218.387593 
L 164.685868 216.648784 
L 162.949512 215.709988 
L 161.274168 214.753858 
L 157.898008 212.724751 
L 157.862469 212.702136 
L 154.45077 210.402675 
L 153.510614 209.739514 
L 151.03907 207.8904 
L 149.584833 206.754277 
L 147.627371 205.126251 
L 146.06183 203.76904 
L 144.215671 202.058061 
L 142.894424 200.783803 
L 140.803972 198.618189 
L 140.042527 197.798566 
L 137.477336 194.813329 
L 137.392273 194.704364 
L 135.230603 191.828092 
L 133.980573 189.998504 
L 133.219368 188.842855 
L 131.474997 185.857618 
L 130.568874 184.078256 
L 129.976682 182.872382 
L 128.749894 179.887145 
L 127.757753 176.901908 
L 127.157174 174.453394 
L 127.030313 173.916671 
L 126.604591 170.931434 
L 126.46657 167.946197 
L 126.642925 164.96096 
L 127.157174 162.012161 
L 127.164247 161.975723 
L 128.13679 158.990486 
L 129.567137 156.005249 
L 130.568874 154.436413 
L 131.598211 153.020012 
L 133.980573 150.435886 
L 134.409636 150.034775 
L 137.392273 147.733654 
L 138.448254 147.049538 
L 140.803972 145.750389 
L 144.215671 144.222224 
L 144.654561 144.064301 
L 147.627371 143.128841 
L 151.03907 142.319918 
L 154.45077 141.756557 
L 157.862469 141.417936 
L 161.274168 141.285517 
L 164.685868 141.34275 
L 168.097567 141.574809 
L 171.509267 141.968373 
L 174.920966 142.511443 
L 178.332666 143.193177 
L 181.744365 144.003759 
L 181.961545 144.064301 
L 185.156064 145.000369 
L 188.567764 146.118385 
L 191.143044 147.049538 
L 191.979463 147.367857 
L 195.391163 148.795617 
L 198.15247 150.034775 
L 198.802862 150.342407 
L 202.214561 152.081216 
L 203.950918 153.020012 
L 205.626261 153.976142 
L 209.002422 156.005249 
L 209.03796 156.027864 
L 212.44966 158.327325 
L 213.389815 158.990486 
L 215.861359 160.8396 
L 217.315596 161.975723 
L 219.273058 163.603749 
L 220.838599 164.96096 
L 222.684758 166.671939 
L 224.006005 167.946197 
L 226.096457 170.111811 
L 226.857902 170.931434 
L 229.423093 173.916671 
L 229.508157 174.025636 
L 231.669827 176.901908 
L 232.919856 178.731496 
L 233.681062 179.887145 
L 235.425432 182.872382 
L 236.331556 184.651744 
L 236.923747 185.857618 
L 238.150535 188.842855 
L 239.142676 191.828092 
L 239.743255 194.276606 
L 239.870117 194.813329 
L 240.295839 197.798566 
L 240.433859 200.783803 
L 240.257505 203.76904 
L 239.743255 206.717839 
L 239.736182 206.754277 
L 238.763639 209.739514 
L 237.333292 212.724751 
L 236.331556 214.293587 
L 235.302219 215.709988 
L 232.919856 218.294114 
L 232.490793 218.695225 
L 229.508157 220.996346 
L 228.452176 221.680462 
L 226.096457 222.979611 
L 222.684758 224.507776 
L 222.245868 224.665699 
L 219.273058 225.601159 
L 215.861359 226.410082 
L 212.44966 226.973443 
L 209.03796 227.312064 
L 205.626261 227.444483 
L 202.214561 227.38725 
L 198.802862 227.155191 
L 195.391163 226.761627 
L 191.979463 226.218557 
L 188.567764 225.536823 
L 185.156064 224.726241 
z
" clip-path="url(#p6725daf923)" style="fill: none; stroke: #0000ff; stroke-width: 1.5"/>
   </g>
   <g id="PathCollection_2">
    <path d="M 191.979463 242.896231 
L 190.544233 242.577121 
L 188.567764 242.121683 
L 185.156064 241.238766 
L 181.744365 240.269671 
L 179.557279 239.591884 
L 178.332666 239.198548 
L 174.920966 238.010169 
L 171.509267 236.745941 
L 171.158979 236.606647 
L 168.097567 235.344872 
L 164.685868 233.866534 
L 164.15216 233.62141 
L 161.274168 232.250475 
L 158.023601 230.636173 
L 157.862469 230.553063 
L 154.45077 228.701853 
L 152.586516 227.650936 
L 151.03907 226.744258 
L 147.627371 224.671879 
L 147.617616 224.665699 
L 144.215671 222.42398 
L 143.123672 221.680462 
L 140.803972 220.034888 
L 138.974415 218.695225 
L 137.392273 217.486091 
L 135.138562 215.709988 
L 133.980573 214.75569 
L 131.588505 212.724751 
L 130.568874 211.81759 
L 128.299786 209.739514 
L 127.157174 208.640447 
L 125.250661 206.754277 
L 123.745475 205.186275 
L 122.421731 203.76904 
L 120.333776 201.408589 
L 119.795639 200.783803 
L 117.377536 197.798566 
L 116.922076 197.196965 
L 115.164621 194.813329 
L 113.510377 192.413805 
L 113.116864 191.828092 
L 111.273834 188.842855 
L 110.098677 186.770633 
L 109.594015 185.857618 
L 108.110533 182.872382 
L 106.780403 179.887145 
L 106.686978 179.643597 
L 105.662267 176.901908 
L 104.715831 173.916671 
L 103.947369 170.931434 
L 103.368223 167.946197 
L 103.275278 167.199237 
L 103.004172 164.96096 
L 102.849861 161.975723 
L 102.91428 158.990486 
L 103.211897 156.005249 
L 103.275278 155.652201 
L 103.784735 153.020012 
L 104.643388 150.034775 
L 105.805641 147.049538 
L 106.686978 145.264592 
L 107.332572 144.064301 
L 109.293102 141.079064 
L 110.098677 140.046856 
L 111.776994 138.093827 
L 113.510377 136.364246 
L 114.910326 135.10859 
L 116.922076 133.529308 
L 118.939989 132.123353 
L 120.333776 131.259966 
L 123.745475 129.407046 
L 124.31353 129.138116 
L 127.157174 127.923065 
L 130.568874 126.687752 
L 132.333697 126.152879 
L 133.980573 125.697126 
L 137.392273 124.925194 
L 140.803972 124.3249 
L 144.215671 123.885891 
L 147.627371 123.598634 
L 151.03907 123.454332 
L 154.45077 123.444855 
L 157.862469 123.562677 
L 161.274168 123.800824 
L 164.685868 124.15282 
L 168.097567 124.612647 
L 171.509267 125.174704 
L 174.920966 125.833769 
L 176.356196 126.152879 
L 178.332666 126.608317 
L 181.744365 127.491234 
L 185.156064 128.460329 
L 187.34315 129.138116 
L 188.567764 129.531452 
L 191.979463 130.719831 
L 195.391163 131.984059 
L 195.741451 132.123353 
L 198.802862 133.385128 
L 202.214561 134.863466 
L 202.74827 135.10859 
L 205.626261 136.479525 
L 208.876828 138.093827 
L 209.03796 138.176937 
L 212.44966 140.028147 
L 214.313913 141.079064 
L 215.861359 141.985742 
L 219.273058 144.058121 
L 219.282813 144.064301 
L 222.684758 146.30602 
L 223.776757 147.049538 
L 226.096457 148.695112 
L 227.926014 150.034775 
L 229.508157 151.243909 
L 231.761867 153.020012 
L 232.919856 153.97431 
L 235.311924 156.005249 
L 236.331556 156.91241 
L 238.600643 158.990486 
L 239.743255 160.089553 
L 241.649769 161.975723 
L 243.154954 163.543725 
L 244.478698 164.96096 
L 246.566654 167.321411 
L 247.10479 167.946197 
L 249.522893 170.931434 
L 249.978353 171.533035 
L 251.735809 173.916671 
L 253.390053 176.316195 
L 253.783565 176.901908 
L 255.626596 179.887145 
L 256.801752 181.959367 
L 257.306414 182.872382 
L 258.789896 185.857618 
L 260.120026 188.842855 
L 260.213451 189.086403 
L 261.238163 191.828092 
L 262.184599 194.813329 
L 262.953061 197.798566 
L 263.532206 200.783803 
L 263.625151 201.530763 
L 263.896257 203.76904 
L 264.050568 206.754277 
L 263.986149 209.739514 
L 263.688533 212.724751 
L 263.625151 213.077799 
L 263.115695 215.709988 
L 262.257041 218.695225 
L 261.094788 221.680462 
L 260.213451 223.465408 
L 259.567858 224.665699 
L 257.607328 227.650936 
L 256.801752 228.683144 
L 255.123435 230.636173 
L 253.390053 232.365754 
L 251.990104 233.62141 
L 249.978353 235.200692 
L 247.96044 236.606647 
L 246.566654 237.470034 
L 243.154954 239.322954 
L 242.586899 239.591884 
L 239.743255 240.806935 
L 236.331556 242.042248 
L 234.566732 242.577121 
L 232.919856 243.032874 
L 229.508157 243.804806 
L 226.096457 244.4051 
L 222.684758 244.844109 
L 219.273058 245.131366 
L 215.861359 245.275668 
L 212.44966 245.285145 
L 209.03796 245.167323 
L 205.626261 244.929176 
L 202.214561 244.57718 
L 198.802862 244.117353 
L 195.391163 243.555296 
L 191.979463 242.896231 
z
" clip-path="url(#p6725daf923)" style="fill: none; stroke: #0000ff; stroke-width: 1.5"/>
   </g>
   <g id="PathCollection_3">
    <path d="M 202.214561 257.563881 
L 201.838202 257.503306 
L 198.802862 257.000165 
L 195.391163 256.352429 
L 191.979463 255.626834 
L 188.567764 254.826625 
L 187.370941 254.518069 
L 185.156064 253.930207 
L 181.744365 252.949552 
L 178.332666 251.901309 
L 177.213624 251.532832 
L 174.920966 250.755625 
L 171.509267 249.530076 
L 168.91222 248.547595 
L 168.097567 248.230169 
L 164.685868 246.826665 
L 161.737579 245.562358 
L 161.274168 245.357585 
L 157.862469 243.775674 
L 155.370203 242.577121 
L 154.45077 242.121282 
L 151.03907 240.360737 
L 149.600956 239.591884 
L 147.627371 238.503593 
L 144.291035 236.606647 
L 144.215671 236.562408 
L 140.803972 234.485688 
L 139.424066 233.62141 
L 137.392273 232.30684 
L 134.879992 230.636173 
L 133.980573 230.017648 
L 130.629752 227.650936 
L 130.568874 227.606418 
L 127.157174 225.039415 
L 126.672822 224.665699 
L 123.745475 222.325737 
L 122.95757 221.680462 
L 120.333776 219.451424 
L 119.464491 218.695225 
L 116.922076 216.397791 
L 116.178341 215.709988 
L 113.510377 213.143133 
L 113.085239 212.724751 
L 110.175505 209.739514 
L 110.098677 209.656945 
L 107.457931 206.754277 
L 106.686978 205.867078 
L 104.903519 203.76904 
L 103.275278 201.759257 
L 102.501842 200.783803 
L 100.257967 197.798566 
L 99.863579 197.241192 
L 98.182091 194.813329 
L 96.45188 192.166573 
L 96.235205 191.828092 
L 94.460805 188.842855 
L 93.04018 186.280925 
L 92.810302 185.857618 
L 91.329603 182.872382 
L 89.973243 179.887145 
L 89.628481 179.037337 
L 88.780261 176.901908 
L 87.733568 173.916671 
L 86.827293 170.931434 
L 86.216781 168.521213 
L 86.07421 167.946197 
L 85.494037 164.96096 
L 85.071862 161.975723 
L 84.815887 158.990486 
L 84.734892 156.005249 
L 84.838287 153.020012 
L 85.136169 150.034775 
L 85.639386 147.049538 
L 86.216781 144.647447 
L 86.366073 144.064301 
L 87.359861 141.079064 
L 88.610058 138.093827 
L 89.628481 136.083627 
L 90.158359 135.10859 
L 92.065655 132.123353 
L 93.04018 130.806254 
L 94.373527 129.138116 
L 96.45188 126.861067 
L 97.154693 126.152879 
L 99.863579 123.725017 
L 100.544944 123.167642 
L 103.275278 121.156476 
L 104.737505 120.182405 
L 106.686978 119.001318 
L 110.017003 117.197168 
L 110.098677 117.156591 
L 113.510377 115.633027 
L 116.922076 114.303241 
L 117.188806 114.211931 
L 120.333776 113.214833 
L 123.745475 112.292136 
L 127.157174 111.521523 
L 128.748207 111.226694 
L 130.568874 110.911758 
L 133.980573 110.446134 
L 137.392273 110.103479 
L 140.803972 109.878032 
L 144.215671 109.764391 
L 147.627371 109.757476 
L 151.03907 109.852515 
L 154.45077 110.045013 
L 157.862469 110.330737 
L 161.274168 110.705694 
L 164.685868 111.166119 
L 165.062227 111.226694 
L 168.097567 111.729835 
L 171.509267 112.377571 
L 174.920966 113.103166 
L 178.332666 113.903375 
L 179.529489 114.211931 
L 181.744365 114.799793 
L 185.156064 115.780448 
L 188.567764 116.828691 
L 189.686806 117.197168 
L 191.979463 117.974375 
L 195.391163 119.199924 
L 197.988209 120.182405 
L 198.802862 120.499831 
L 202.214561 121.903335 
L 205.16285 123.167642 
L 205.626261 123.372415 
L 209.03796 124.954326 
L 211.530226 126.152879 
L 212.44966 126.608718 
L 215.861359 128.369263 
L 217.299473 129.138116 
L 219.273058 130.226407 
L 222.609395 132.123353 
L 222.684758 132.167592 
L 226.096457 134.244312 
L 227.476363 135.10859 
L 229.508157 136.42316 
L 232.020437 138.093827 
L 232.919856 138.712352 
L 236.270677 141.079064 
L 236.331556 141.123582 
L 239.743255 143.690585 
L 240.227607 144.064301 
L 243.154954 146.404263 
L 243.942859 147.049538 
L 246.566654 149.278576 
L 247.435938 150.034775 
L 249.978353 152.332209 
L 250.722088 153.020012 
L 253.390053 155.586867 
L 253.815191 156.005249 
L 256.724924 158.990486 
L 256.801752 159.073055 
L 259.442498 161.975723 
L 260.213451 162.862922 
L 261.99691 164.96096 
L 263.625151 166.970743 
L 264.398587 167.946197 
L 266.642462 170.931434 
L 267.03685 171.488808 
L 268.718338 173.916671 
L 270.44855 176.563427 
L 270.665224 176.901908 
L 272.439624 179.887145 
L 273.860249 182.449075 
L 274.090127 182.872382 
L 275.570826 185.857618 
L 276.927187 188.842855 
L 277.271948 189.692663 
L 278.120168 191.828092 
L 279.166861 194.813329 
L 280.073136 197.798566 
L 280.683648 200.208787 
L 280.82622 200.783803 
L 281.406392 203.76904 
L 281.828567 206.754277 
L 282.084543 209.739514 
L 282.165538 212.724751 
L 282.062143 215.709988 
L 281.76426 218.695225 
L 281.261043 221.680462 
L 280.683648 224.082553 
L 280.534356 224.665699 
L 279.540569 227.650936 
L 278.290371 230.636173 
L 277.271948 232.646373 
L 276.742071 233.62141 
L 274.834774 236.606647 
L 273.860249 237.923746 
L 272.526903 239.591884 
L 270.44855 241.868933 
L 269.745736 242.577121 
L 267.03685 245.004983 
L 266.355486 245.562358 
L 263.625151 247.573524 
L 262.162924 248.547595 
L 260.213451 249.728682 
L 256.883427 251.532832 
L 256.801752 251.573409 
L 253.390053 253.096973 
L 249.978353 254.426759 
L 249.711623 254.518069 
L 246.566654 255.515167 
L 243.154954 256.437864 
L 239.743255 257.208477 
L 238.152222 257.503306 
L 236.331556 257.818242 
L 232.919856 258.283866 
L 229.508157 258.626521 
L 226.096457 258.851968 
L 222.684758 258.965609 
L 219.273058 258.972524 
L 215.861359 258.877485 
L 212.44966 258.684987 
L 209.03796 258.399263 
L 205.626261 258.024306 
L 202.214561 257.563881 
z
" clip-path="url(#p6725daf923)" style="fill: none; stroke: #0000ff; stroke-width: 1.5"/>
   </g>
   <g id="PathCollection_4">
    <path d="M 212.44966 269.807867 
L 209.182227 269.444254 
L 209.03796 269.427776 
L 205.626261 268.957127 
L 202.214561 268.41318 
L 198.802862 267.798642 
L 195.391163 267.116088 
L 192.399101 266.459017 
L 191.979463 266.364492 
L 188.567764 265.522581 
L 185.156064 264.618134 
L 181.744365 263.653409 
L 181.151101 263.47378 
L 178.332666 262.598719 
L 174.920966 261.47993 
L 172.045287 260.488543 
L 171.509267 260.29899 
L 168.097567 259.025558 
L 164.685868 257.700013 
L 164.203108 257.503306 
L 161.274168 256.279101 
L 157.862469 254.801596 
L 157.234348 254.518069 
L 154.45077 253.228763 
L 151.03907 251.599061 
L 150.905675 251.532832 
L 147.627371 249.862107 
L 145.119128 248.547595 
L 144.215671 248.061233 
L 140.803972 246.166007 
L 139.748659 245.562358 
L 137.392273 244.177291 
L 134.737899 242.577121 
L 133.980573 242.107618 
L 130.568874 239.935016 
L 130.044162 239.591884 
L 127.157174 237.649592 
L 125.642327 236.606647 
L 123.745475 235.261978 
L 121.482833 233.62141 
L 120.333776 232.762809 
L 117.549816 230.636173 
L 116.922076 230.141536 
L 113.828769 227.650936 
L 113.510377 227.386237 
L 110.306398 224.665699 
L 110.098677 224.483388 
L 106.970498 221.680462 
L 106.686978 221.417578 
L 103.809842 218.695225 
L 103.275278 218.171178 
L 100.814089 215.709988 
L 99.863579 214.723915 
L 97.973695 212.724751 
L 96.45188 211.052368 
L 95.279837 209.739514 
L 93.04018 207.129327 
L 92.724349 206.754277 
L 90.322152 203.76904 
L 89.628481 202.866512 
L 88.057352 200.783803 
L 86.216781 198.229059 
L 85.912265 197.798566 
L 83.915707 194.813329 
L 82.805082 193.060373 
L 82.038468 191.828092 
L 80.292986 188.842855 
L 79.393383 187.199446 
L 78.6721 185.857618 
L 77.182868 182.872382 
L 75.981683 180.272015 
L 75.807091 179.887145 
L 74.579133 176.901908 
L 73.465938 173.916671 
L 72.569984 171.220513 
L 72.475662 170.931434 
L 71.635763 167.946197 
L 70.923076 164.96096 
L 70.34322 161.975723 
L 69.902147 158.990486 
L 69.606174 156.005249 
L 69.462004 153.020012 
L 69.476761 150.034775 
L 69.658022 147.049538 
L 70.013853 144.064301 
L 70.552849 141.079064 
L 71.284179 138.093827 
L 72.217635 135.10859 
L 72.569984 134.179876 
L 73.396289 132.123353 
L 74.824033 129.138116 
L 75.981683 127.064105 
L 76.522843 126.152879 
L 78.549153 123.167642 
L 79.393383 122.067491 
L 80.940927 120.182405 
L 82.805082 118.155213 
L 83.752187 117.197168 
L 86.216781 114.945608 
L 87.085031 114.211931 
L 89.628481 112.252507 
L 91.077614 111.226694 
L 93.04018 109.950168 
L 95.921607 108.241457 
L 96.45188 107.950603 
L 99.863579 106.242293 
L 102.054301 105.25622 
L 103.275278 104.744364 
L 106.686978 103.459752 
L 110.098677 102.328647 
L 110.295377 102.270983 
L 113.510377 101.387166 
L 116.922076 100.579768 
L 120.333776 99.897844 
L 123.745475 99.335881 
L 124.123041 99.285746 
L 127.157174 98.905496 
L 130.568874 98.582019 
L 133.980573 98.359069 
L 137.392273 98.23264 
L 140.803972 98.198939 
L 144.215671 98.254367 
L 147.627371 98.39551 
L 151.03907 98.619125 
L 154.45077 98.922133 
L 157.718202 99.285746 
L 157.862469 99.302224 
L 161.274168 99.772873 
L 164.685868 100.31682 
L 168.097567 100.931358 
L 171.509267 101.613912 
L 174.501329 102.270983 
L 174.920966 102.365508 
L 178.332666 103.207419 
L 181.744365 104.111866 
L 185.156064 105.076591 
L 185.749329 105.25622 
L 188.567764 106.131281 
L 191.979463 107.25007 
L 194.855143 108.241457 
L 195.391163 108.43101 
L 198.802862 109.704442 
L 202.214561 111.029987 
L 202.697321 111.226694 
L 205.626261 112.450899 
L 209.03796 113.928404 
L 209.666081 114.211931 
L 212.44966 115.501237 
L 215.861359 117.130939 
L 215.994754 117.197168 
L 219.273058 118.867893 
L 221.781301 120.182405 
L 222.684758 120.668767 
L 226.096457 122.563993 
L 227.15177 123.167642 
L 229.508157 124.552709 
L 232.16253 126.152879 
L 232.919856 126.622382 
L 236.331556 128.794984 
L 236.856267 129.138116 
L 239.743255 131.080408 
L 241.258102 132.123353 
L 243.154954 133.468022 
L 245.417596 135.10859 
L 246.566654 135.967191 
L 249.350613 138.093827 
L 249.978353 138.588464 
L 253.07166 141.079064 
L 253.390053 141.343763 
L 256.594031 144.064301 
L 256.801752 144.246612 
L 259.929932 147.049538 
L 260.213451 147.312422 
L 263.090587 150.034775 
L 263.625151 150.558822 
L 266.08634 153.020012 
L 267.03685 154.006085 
L 268.926735 156.005249 
L 270.44855 157.677632 
L 271.620593 158.990486 
L 273.860249 161.600673 
L 274.17608 161.975723 
L 276.578277 164.96096 
L 277.271948 165.863488 
L 278.843077 167.946197 
L 280.683648 170.500941 
L 280.988164 170.931434 
L 282.984723 173.916671 
L 284.095347 175.669627 
L 284.861962 176.901908 
L 286.607444 179.887145 
L 287.507047 181.530554 
L 288.22833 182.872382 
L 289.717562 185.857618 
L 290.918746 188.457985 
L 291.093338 188.842855 
L 292.321297 191.828092 
L 293.434492 194.813329 
L 294.330446 197.509487 
L 294.424768 197.798566 
L 295.264666 200.783803 
L 295.977353 203.76904 
L 296.557209 206.754277 
L 296.998282 209.739514 
L 297.294255 212.724751 
L 297.438425 215.709988 
L 297.423668 218.695225 
L 297.242407 221.680462 
L 296.886576 224.665699 
L 296.34758 227.650936 
L 295.61625 230.636173 
L 294.682794 233.62141 
L 294.330446 234.550124 
L 293.50414 236.606647 
L 292.076396 239.591884 
L 290.918746 241.665895 
L 290.377587 242.577121 
L 288.351276 245.562358 
L 287.507047 246.662509 
L 285.959503 248.547595 
L 284.095347 250.574787 
L 283.148242 251.532832 
L 280.683648 253.784392 
L 279.815398 254.518069 
L 277.271948 256.477493 
L 275.822815 257.503306 
L 273.860249 258.779832 
L 270.978822 260.488543 
L 270.44855 260.779397 
L 267.03685 262.487707 
L 264.846128 263.47378 
L 263.625151 263.985636 
L 260.213451 265.270248 
L 256.801752 266.401353 
L 256.605052 266.459017 
L 253.390053 267.342834 
L 249.978353 268.150232 
L 246.566654 268.832156 
L 243.154954 269.394119 
L 242.777388 269.444254 
L 239.743255 269.824504 
L 236.331556 270.147981 
L 232.919856 270.370931 
L 229.508157 270.49736 
L 226.096457 270.531061 
L 222.684758 270.475633 
L 219.273058 270.33449 
L 215.861359 270.110875 
L 212.44966 269.807867 
z
" clip-path="url(#p6725daf923)" style="fill: none; stroke: #0000ff; stroke-width: 1.5"/>
   </g>
   <g id="PathCollection_5">
    <path d="M 205.626261 278.543794 
L 204.780615 278.399965 
L 202.214561 277.953461 
L 198.802862 277.295864 
L 195.391163 276.578026 
L 191.979463 275.801903 
L 190.401963 275.414728 
L 188.567764 274.954275 
L 185.156064 274.037549 
L 181.744365 273.066804 
L 179.627626 272.429491 
L 178.332666 272.030697 
L 174.920966 270.921183 
L 171.509267 269.761791 
L 170.61932 269.444254 
L 168.097567 268.523919 
L 164.685868 267.227745 
L 162.740734 266.459017 
L 161.274168 265.866019 
L 157.862469 264.432729 
L 155.655509 263.47378 
L 154.45077 262.938056 
L 151.03907 261.367412 
L 149.187864 260.488543 
L 147.627371 259.730141 
L 144.215671 258.022007 
L 143.210376 257.503306 
L 140.803972 256.2319 
L 137.638562 254.518069 
L 137.392273 254.381446 
L 133.980573 252.432436 
L 132.44276 251.532832 
L 130.568874 250.409348 
L 127.532362 248.547595 
L 127.157174 248.311689 
L 123.745475 246.112215 
L 122.911452 245.562358 
L 120.333776 243.818992 
L 118.535106 242.577121 
L 116.922076 241.433855 
L 114.375279 239.591884 
L 113.510377 238.949283 
L 110.419222 236.606647 
L 110.098677 236.356911 
L 106.686978 233.646344 
L 106.656217 233.62141 
L 103.275278 230.80299 
L 103.078824 230.636173 
L 99.863579 227.826043 
L 99.666824 227.650936 
L 96.45188 224.703414 
L 96.411468 224.665699 
L 93.313019 221.680462 
L 93.04018 221.408972 
L 90.360852 218.695225 
L 89.628481 217.928442 
L 87.546154 215.709988 
L 86.216781 214.244306 
L 84.861929 212.724751 
L 82.805082 210.334483 
L 82.301647 209.739514 
L 79.873203 206.754277 
L 79.393383 206.139345 
L 77.574617 203.76904 
L 75.981683 201.607202 
L 75.384888 200.783803 
L 73.320216 197.798566 
L 72.569984 196.659596 
L 71.37367 194.813329 
L 69.533247 191.828092 
L 69.158284 191.182849 
L 67.820542 188.842855 
L 66.208586 185.857618 
L 65.746585 184.941149 
L 64.720565 182.872382 
L 63.341186 179.887145 
L 62.334886 177.534115 
L 62.068871 176.901908 
L 60.926071 173.916671 
L 59.888209 170.931434 
L 58.959386 167.946197 
L 58.923186 167.812008 
L 58.166732 164.96096 
L 57.49015 161.975723 
L 56.933128 158.990486 
L 56.500445 156.005249 
L 56.197137 153.020012 
L 56.028515 150.034775 
L 56.000186 147.049538 
L 56.118071 144.064301 
L 56.38843 141.079064 
L 56.817886 138.093827 
L 57.413451 135.10859 
L 58.182554 132.123353 
L 58.923186 129.789616 
L 59.140596 129.138116 
L 60.322531 126.152879 
L 61.711831 123.167642 
L 62.334886 121.99857 
L 63.357172 120.182405 
L 65.266219 117.197168 
L 65.746585 116.524655 
L 67.498649 114.211931 
L 69.158284 112.243707 
L 70.071171 111.226694 
L 72.569984 108.699526 
L 73.05415 108.241457 
L 75.981683 105.705529 
L 76.538797 105.25622 
L 79.393383 103.133229 
L 80.645513 102.270983 
L 82.805082 100.891258 
L 85.536578 99.285746 
L 86.216781 98.912868 
L 89.628481 97.190494 
L 91.564346 96.300509 
L 93.04018 95.664179 
L 96.45188 94.327719 
L 99.334503 93.315272 
L 99.863579 93.140165 
L 103.275278 92.124778 
L 106.686978 91.231622 
L 110.098677 90.455705 
L 110.737909 90.330035 
L 113.510377 89.813551 
L 116.922076 89.279583 
L 120.333776 88.844876 
L 123.745475 88.505733 
L 127.157174 88.258634 
L 130.568874 88.100234 
L 133.980573 88.027345 
L 137.392273 88.036932 
L 140.803972 88.1261 
L 144.215671 88.29209 
L 147.627371 88.532267 
L 151.03907 88.844118 
L 154.45077 89.225238 
L 157.862469 89.673333 
L 161.274168 90.186206 
L 162.119814 90.330035 
L 164.685868 90.776539 
L 168.097567 91.434136 
L 171.509267 92.151974 
L 174.920966 92.928097 
L 176.498466 93.315272 
L 178.332666 93.775725 
L 181.744365 94.692451 
L 185.156064 95.663196 
L 187.272803 96.300509 
L 188.567764 96.699303 
L 191.979463 97.808817 
L 195.391163 98.968209 
L 196.28111 99.285746 
L 198.802862 100.206081 
L 202.214561 101.502255 
L 204.159696 102.270983 
L 205.626261 102.863981 
L 209.03796 104.297271 
L 211.24492 105.25622 
L 212.44966 105.791944 
L 215.861359 107.362588 
L 217.712565 108.241457 
L 219.273058 108.999859 
L 222.684758 110.707993 
L 223.690054 111.226694 
L 226.096457 112.4981 
L 229.261867 114.211931 
L 229.508157 114.348554 
L 232.919856 116.297564 
L 234.457669 117.197168 
L 236.331556 118.320652 
L 239.368068 120.182405 
L 239.743255 120.418311 
L 243.154954 122.617785 
L 243.988977 123.167642 
L 246.566654 124.911008 
L 248.365323 126.152879 
L 249.978353 127.296145 
L 252.52515 129.138116 
L 253.390053 129.780717 
L 256.481208 132.123353 
L 256.801752 132.373089 
L 260.213451 135.083656 
L 260.244212 135.10859 
L 263.625151 137.92701 
L 263.821605 138.093827 
L 267.03685 140.903957 
L 267.233605 141.079064 
L 270.44855 144.026586 
L 270.488961 144.064301 
L 273.58741 147.049538 
L 273.860249 147.321028 
L 276.539577 150.034775 
L 277.271948 150.801558 
L 279.354275 153.020012 
L 280.683648 154.485694 
L 282.0385 156.005249 
L 284.095347 158.395517 
L 284.598782 158.990486 
L 287.027226 161.975723 
L 287.507047 162.590655 
L 289.325812 164.96096 
L 290.918746 167.122798 
L 291.515542 167.946197 
L 293.580213 170.931434 
L 294.330446 172.070404 
L 295.526759 173.916671 
L 297.367182 176.901908 
L 297.742145 177.547151 
L 299.079887 179.887145 
L 300.691843 182.872382 
L 301.153844 183.788851 
L 302.179864 185.857618 
L 303.559244 188.842855 
L 304.565544 191.195885 
L 304.831558 191.828092 
L 305.974358 194.813329 
L 307.01222 197.798566 
L 307.941043 200.783803 
L 307.977243 200.917992 
L 308.733697 203.76904 
L 309.410279 206.754277 
L 309.967301 209.739514 
L 310.399984 212.724751 
L 310.703292 215.709988 
L 310.871914 218.695225 
L 310.900244 221.680462 
L 310.782359 224.665699 
L 310.511999 227.650936 
L 310.082543 230.636173 
L 309.486978 233.62141 
L 308.717875 236.606647 
L 307.977243 238.940384 
L 307.759833 239.591884 
L 306.577898 242.577121 
L 305.188598 245.562358 
L 304.565544 246.73143 
L 303.543258 248.547595 
L 301.634211 251.532832 
L 301.153844 252.205345 
L 299.40178 254.518069 
L 297.742145 256.486293 
L 296.829258 257.503306 
L 294.330446 260.030474 
L 293.84628 260.488543 
L 290.918746 263.024471 
L 290.361632 263.47378 
L 287.507047 265.596771 
L 286.254916 266.459017 
L 284.095347 267.838742 
L 281.363851 269.444254 
L 280.683648 269.817132 
L 277.271948 271.539506 
L 275.336083 272.429491 
L 273.860249 273.065821 
L 270.44855 274.402281 
L 267.565927 275.414728 
L 267.03685 275.589835 
L 263.625151 276.605222 
L 260.213451 277.498378 
L 256.801752 278.274295 
L 256.16252 278.399965 
L 253.390053 278.916449 
L 249.978353 279.450417 
L 246.566654 279.885124 
L 243.154954 280.224267 
L 239.743255 280.471366 
L 236.331556 280.629766 
L 232.919856 280.702655 
L 229.508157 280.693068 
L 226.096457 280.6039 
L 222.684758 280.43791 
L 219.273058 280.197733 
L 215.861359 279.885882 
L 212.44966 279.504762 
L 209.03796 279.056667 
L 205.626261 278.543794 
z
" clip-path="url(#p6725daf923)" style="fill: none; stroke: #0000ff; stroke-width: 1.5"/>
   </g>
   <g id="PathCollection_6">
    <path d="M 209.03796 287.735582 
L 206.698386 287.355676 
L 205.626261 287.177904 
L 202.214561 286.550552 
L 198.802862 285.867305 
L 195.391163 285.129827 
L 192.113376 284.370439 
L 191.979463 284.338765 
L 188.567764 283.471702 
L 185.156064 282.554031 
L 181.744365 281.587247 
L 181.070191 281.385202 
L 178.332666 280.547781 
L 174.920966 279.454949 
L 171.761908 278.399965 
L 171.509267 278.313826 
L 168.097567 277.094544 
L 164.685868 275.831604 
L 163.603608 275.414728 
L 161.274168 274.49864 
L 157.862469 273.110993 
L 156.242756 272.429491 
L 154.45077 271.659524 
L 151.03907 270.146948 
L 149.501744 269.444254 
L 147.627371 268.569141 
L 144.215671 266.93149 
L 143.259666 266.459017 
L 140.803972 265.219077 
L 137.426479 263.47378 
L 137.392273 263.455713 
L 133.980573 261.600538 
L 131.979779 260.488543 
L 130.568874 259.686827 
L 127.157174 257.704329 
L 126.819719 257.503306 
L 123.745475 255.630467 
L 121.955805 254.518069 
L 120.333776 253.48649 
L 117.321798 251.532832 
L 116.922076 251.267405 
L 113.510377 248.953091 
L 112.924429 248.547595 
L 110.098677 246.545078 
L 108.73715 245.562358 
L 106.686978 244.046149 
L 104.736039 242.577121 
L 103.275278 241.449418 
L 100.911308 239.591884 
L 99.863579 238.747286 
L 97.253843 236.606647 
L 96.45188 235.931343 
L 93.755147 233.62141 
L 93.04018 232.992263 
L 90.407288 230.636173 
L 89.628481 229.919671 
L 87.202854 227.650936 
L 86.216781 226.701992 
L 84.134914 224.665699 
L 82.805082 223.326275 
L 81.196971 221.680462 
L 79.393383 219.777978 
L 78.382938 218.695225 
L 75.981683 216.040722 
L 75.687102 215.709988 
L 73.118865 212.724751 
L 72.569984 212.063923 
L 70.668914 209.739514 
L 69.158284 207.82681 
L 68.323993 206.754277 
L 66.088451 203.76904 
L 65.746585 203.29261 
L 63.973444 200.783803 
L 62.334886 198.371314 
L 61.95164 197.798566 
L 60.048154 194.813329 
L 58.923186 192.965058 
L 58.24138 191.828092 
L 56.543889 188.842855 
L 55.511487 186.925992 
L 54.944541 185.857618 
L 53.456469 182.872382 
L 52.099787 179.979564 
L 52.05708 179.887145 
L 50.781771 176.901908 
L 49.598678 173.916671 
L 48.688088 171.412549 
L 48.515725 170.931434 
L 47.553381 167.946197 
L 46.691399 164.96096 
L 45.933367 161.975723 
L 45.283046 158.990486 
L 45.276388 158.953144 
L 44.758819 156.005249 
L 44.347734 153.020012 
L 44.053736 150.034775 
L 43.881149 147.049538 
L 43.834514 144.064301 
L 43.918602 141.079064 
L 44.138425 138.093827 
L 44.499258 135.10859 
L 45.006652 132.123353 
L 45.276388 130.8934 
L 45.678677 129.138116 
L 46.523219 126.152879 
L 47.538883 123.167642 
L 48.688088 120.293183 
L 48.734528 120.182405 
L 50.162251 117.197168 
L 51.792644 114.211931 
L 52.099787 113.707887 
L 53.691389 111.226694 
L 55.511487 108.684381 
L 55.846224 108.241457 
L 58.326834 105.25622 
L 58.923186 104.600152 
L 61.167326 102.270983 
L 62.334886 101.157155 
L 64.421727 99.285746 
L 65.746585 98.186526 
L 68.174657 96.300509 
L 69.158284 95.589643 
L 72.53549 93.315272 
L 72.569984 93.293554 
L 75.981683 91.287212 
L 77.744904 90.330035 
L 79.393383 89.489006 
L 82.805082 87.885707 
L 84.058435 87.344798 
L 86.216781 86.465472 
L 89.628481 85.199125 
L 92.130169 84.359561 
L 93.04018 84.070145 
L 96.45188 83.089369 
L 99.863579 82.218922 
L 103.275278 81.454699 
L 103.685095 81.374324 
L 106.686978 80.813825 
L 110.098677 80.270413 
L 113.510377 79.818251 
L 116.922076 79.454217 
L 120.333776 79.17533 
L 123.745475 78.978742 
L 127.157174 78.86173 
L 130.568874 78.821691 
L 133.980573 78.856132 
L 137.392273 78.96267 
L 140.803972 79.13902 
L 144.215671 79.382994 
L 147.627371 79.692492 
L 151.03907 80.065503 
L 154.45077 80.500096 
L 157.862469 80.994418 
L 160.202044 81.374324 
L 161.274168 81.552096 
L 164.685868 82.179448 
L 168.097567 82.862695 
L 171.509267 83.600173 
L 174.787053 84.359561 
L 174.920966 84.391235 
L 178.332666 85.258298 
L 181.744365 86.175969 
L 185.156064 87.142753 
L 185.830238 87.344798 
L 188.567764 88.182219 
L 191.979463 89.275051 
L 195.138521 90.330035 
L 195.391163 90.416174 
L 198.802862 91.635456 
L 202.214561 92.898396 
L 203.296822 93.315272 
L 205.626261 94.23136 
L 209.03796 95.619007 
L 210.657673 96.300509 
L 212.44966 97.070476 
L 215.861359 98.583052 
L 217.398685 99.285746 
L 219.273058 100.160859 
L 222.684758 101.79851 
L 223.640763 102.270983 
L 226.096457 103.510923 
L 229.47395 105.25622 
L 229.508157 105.274287 
L 232.919856 107.129462 
L 234.92065 108.241457 
L 236.331556 109.043173 
L 239.743255 111.025671 
L 240.080711 111.226694 
L 243.154954 113.099533 
L 244.944624 114.211931 
L 246.566654 115.24351 
L 249.578631 117.197168 
L 249.978353 117.462595 
L 253.390053 119.776909 
L 253.976 120.182405 
L 256.801752 122.184922 
L 258.16328 123.167642 
L 260.213451 124.683851 
L 262.16439 126.152879 
L 263.625151 127.280582 
L 265.989121 129.138116 
L 267.03685 129.982714 
L 269.646586 132.123353 
L 270.44855 132.798657 
L 273.145283 135.10859 
L 273.860249 135.737737 
L 276.493142 138.093827 
L 277.271948 138.810329 
L 279.697575 141.079064 
L 280.683648 142.028008 
L 282.765516 144.064301 
L 284.095347 145.403725 
L 285.703458 147.049538 
L 287.507047 148.952022 
L 288.517491 150.034775 
L 290.918746 152.689278 
L 291.213327 153.020012 
L 293.781564 156.005249 
L 294.330446 156.666077 
L 296.231515 158.990486 
L 297.742145 160.90319 
L 298.576437 161.975723 
L 300.811978 164.96096 
L 301.153844 165.43739 
L 302.926986 167.946197 
L 304.565544 170.358686 
L 304.94879 170.931434 
L 306.852275 173.916671 
L 307.977243 175.764942 
L 308.65905 176.901908 
L 310.356541 179.887145 
L 311.388943 181.804008 
L 311.955888 182.872382 
L 313.443961 185.857618 
L 314.800642 188.750436 
L 314.843349 188.842855 
L 316.118659 191.828092 
L 317.301752 194.813329 
L 318.212341 197.317451 
L 318.384705 197.798566 
L 319.347049 200.783803 
L 320.20903 203.76904 
L 320.967062 206.754277 
L 321.617383 209.739514 
L 321.624041 209.776856 
L 322.14161 212.724751 
L 322.552695 215.709988 
L 322.846693 218.695225 
L 323.01928 221.680462 
L 323.065915 224.665699 
L 322.981828 227.650936 
L 322.762004 230.636173 
L 322.401171 233.62141 
L 321.893777 236.606647 
L 321.624041 237.8366 
L 321.221752 239.591884 
L 320.37721 242.577121 
L 319.361546 245.562358 
L 318.212341 248.436817 
L 318.165901 248.547595 
L 316.738178 251.532832 
L 315.107785 254.518069 
L 314.800642 255.022113 
L 313.209041 257.503306 
L 311.388943 260.045619 
L 311.054206 260.488543 
L 308.573596 263.47378 
L 307.977243 264.129848 
L 305.733103 266.459017 
L 304.565544 267.572845 
L 302.478702 269.444254 
L 301.153844 270.543474 
L 298.725773 272.429491 
L 297.742145 273.140357 
L 294.364939 275.414728 
L 294.330446 275.436446 
L 290.918746 277.442788 
L 289.155525 278.399965 
L 287.507047 279.240994 
L 284.095347 280.844293 
L 282.841994 281.385202 
L 280.683648 282.264528 
L 277.271948 283.530875 
L 274.77026 284.370439 
L 273.860249 284.659855 
L 270.44855 285.640631 
L 267.03685 286.511078 
L 263.625151 287.275301 
L 263.215334 287.355676 
L 260.213451 287.916175 
L 256.801752 288.459587 
L 253.390053 288.911749 
L 249.978353 289.275783 
L 246.566654 289.55467 
L 243.154954 289.751258 
L 239.743255 289.86827 
L 236.331556 289.908309 
L 232.919856 289.873868 
L 229.508157 289.76733 
L 226.096457 289.59098 
L 222.684758 289.347006 
L 219.273058 289.037508 
L 215.861359 288.664497 
L 212.44966 288.229904 
L 209.03796 287.735582 
z
" clip-path="url(#p6725daf923)" style="fill: none; stroke: #0000ff; stroke-width: 1.5"/>
   </g>
   <g id="PathCollection_7">
    <path d="M 215.861359 296.703683 
L 213.030872 296.311387 
L 212.44966 296.229248 
L 209.03796 295.687941 
L 205.626261 295.092887 
L 202.214561 294.445583 
L 198.802862 293.747468 
L 196.887678 293.32615 
L 195.391163 292.990573 
L 191.979463 292.172426 
L 188.567764 291.306581 
L 185.156064 290.394342 
L 184.967288 290.340913 
L 181.744365 289.41126 
L 178.332666 288.381981 
L 175.069877 287.355676 
L 174.920966 287.30793 
L 171.509267 286.161234 
L 168.097567 284.972836 
L 166.433076 284.370439 
L 164.685868 283.725868 
L 161.274168 282.421498 
L 158.647562 281.385202 
L 157.862469 281.069397 
L 154.45077 279.648819 
L 151.531637 278.399965 
L 151.03907 278.185075 
L 147.627371 276.648107 
L 144.956369 275.414728 
L 144.215671 275.065875 
L 140.803972 273.412398 
L 138.823931 272.429491 
L 137.392273 271.704479 
L 133.980573 269.934441 
L 133.058754 269.444254 
L 130.568874 268.093263 
L 127.617392 266.459017 
L 127.157174 266.198894 
L 123.745475 264.224279 
L 122.475094 263.47378 
L 120.333776 262.182169 
L 117.578342 260.488543 
L 116.922076 260.076509 
L 113.510377 257.8905 
L 112.917951 257.503306 
L 110.098677 255.620699 
L 108.476221 254.518069 
L 106.686978 253.275105 
L 104.221936 251.532832 
L 103.275278 250.848556 
L 100.145627 248.547595 
L 99.863579 248.335414 
L 96.45188 245.723803 
L 96.244556 245.562358 
L 93.04018 243.008444 
L 92.507571 242.577121 
L 89.628481 240.189429 
L 88.919187 239.591884 
L 86.216781 237.25909 
L 85.472563 236.606647 
L 82.805082 234.208981 
L 82.161271 233.62141 
L 79.393383 231.029779 
L 78.979266 230.636173 
L 75.981683 227.711171 
L 75.920859 227.650936 
L 72.991524 224.665699 
L 72.569984 224.223756 
L 70.179577 221.680462 
L 69.158284 220.561947 
L 67.478384 218.695225 
L 65.746585 216.712625 
L 64.883226 215.709988 
L 62.391044 212.724751 
L 62.334886 212.655013 
L 60.020379 209.739514 
L 58.923186 208.31069 
L 57.744707 206.754277 
L 55.561324 203.76904 
L 55.511487 203.697963 
L 53.496592 200.783803 
L 52.099787 198.686163 
L 51.516858 197.798566 
L 49.641628 194.813329 
L 48.688088 193.225729 
L 47.860135 191.828092 
L 46.176188 188.842855 
L 45.276388 187.163316 
L 44.586418 185.857618 
L 43.096692 182.872382 
L 41.864689 180.258132 
L 41.692234 179.887145 
L 40.3996 176.901908 
L 39.191972 173.916671 
L 38.45299 171.939436 
L 38.081418 170.931434 
L 37.077739 167.946197 
L 36.166023 164.96096 
L 35.34931 161.975723 
L 35.04129 160.687918 
L 34.640965 158.990486 
L 34.039522 156.005249 
L 33.540724 153.020012 
L 33.14803 150.034775 
L 32.865052 147.049538 
L 32.695572 144.064301 
L 32.643545 141.079064 
L 32.713113 138.093827 
L 32.908616 135.10859 
L 33.2346 132.123353 
L 33.695837 129.138116 
L 34.297329 126.152879 
L 35.04129 123.179655 
L 35.044423 123.167642 
L 35.969193 120.182405 
L 37.056235 117.197168 
L 38.312057 114.211931 
L 38.45299 113.914439 
L 39.784779 111.226694 
L 41.452053 108.241457 
L 41.864689 107.573798 
L 43.367051 105.25622 
L 45.276388 102.594463 
L 45.520354 102.270983 
L 47.977479 99.285746 
L 48.688088 98.492277 
L 50.759112 96.300509 
L 52.099787 94.989661 
L 53.912117 93.315272 
L 55.511487 91.942146 
L 57.505471 90.330035 
L 58.923186 89.259545 
L 61.626358 87.344798 
L 62.334886 86.874022 
L 65.746585 84.750785 
L 66.419693 84.359561 
L 69.158284 82.859394 
L 72.086957 81.374324 
L 72.569984 81.142714 
L 75.981683 79.621637 
L 78.997074 78.389087 
L 79.393383 78.235347 
L 82.805082 77.014637 
L 86.216781 75.907258 
L 87.927062 75.40385 
L 89.628481 74.926759 
L 93.04018 74.065206 
L 96.45188 73.300981 
L 99.863579 72.630794 
L 101.104357 72.418613 
L 103.275278 72.06361 
L 106.686978 71.588119 
L 110.098677 71.19457 
L 113.510377 70.880401 
L 116.922076 70.643154 
L 120.333776 70.480469 
L 123.745475 70.390086 
L 127.157174 70.369832 
L 130.568874 70.417622 
L 133.980573 70.531451 
L 137.392273 70.709395 
L 140.803972 70.949601 
L 144.215671 71.250289 
L 147.627371 71.609744 
L 151.03907 72.026317 
L 153.869557 72.418613 
L 154.45077 72.500752 
L 157.862469 73.042059 
L 161.274168 73.637113 
L 164.685868 74.284417 
L 168.097567 74.982532 
L 170.012751 75.40385 
L 171.509267 75.739427 
L 174.920966 76.557574 
L 178.332666 77.423419 
L 181.744365 78.335658 
L 181.933141 78.389087 
L 185.156064 79.31874 
L 188.567764 80.348019 
L 191.830552 81.374324 
L 191.979463 81.42207 
L 195.391163 82.568766 
L 198.802862 83.757164 
L 200.467354 84.359561 
L 202.214561 85.004132 
L 205.626261 86.308502 
L 208.252867 87.344798 
L 209.03796 87.660603 
L 212.44966 89.081181 
L 215.368792 90.330035 
L 215.861359 90.544925 
L 219.273058 92.081893 
L 221.94406 93.315272 
L 222.684758 93.664125 
L 226.096457 95.317602 
L 228.076498 96.300509 
L 229.508157 97.025521 
L 232.919856 98.795559 
L 233.841675 99.285746 
L 236.331556 100.636737 
L 239.283037 102.270983 
L 239.743255 102.531106 
L 243.154954 104.505721 
L 244.425335 105.25622 
L 246.566654 106.547831 
L 249.322087 108.241457 
L 249.978353 108.653491 
L 253.390053 110.8395 
L 253.982478 111.226694 
L 256.801752 113.109301 
L 258.424208 114.211931 
L 260.213451 115.454895 
L 262.678493 117.197168 
L 263.625151 117.881444 
L 266.754803 120.182405 
L 267.03685 120.394586 
L 270.44855 123.006197 
L 270.655874 123.167642 
L 273.860249 125.721556 
L 274.392858 126.152879 
L 277.271948 128.540571 
L 277.981242 129.138116 
L 280.683648 131.47091 
L 281.427867 132.123353 
L 284.095347 134.521019 
L 284.739159 135.10859 
L 287.507047 137.700221 
L 287.921163 138.093827 
L 290.918746 141.018829 
L 290.97957 141.079064 
L 293.908905 144.064301 
L 294.330446 144.506244 
L 296.720852 147.049538 
L 297.742145 148.168053 
L 299.422045 150.034775 
L 301.153844 152.017375 
L 302.017204 153.020012 
L 304.509385 156.005249 
L 304.565544 156.074987 
L 306.88005 158.990486 
L 307.977243 160.41931 
L 309.155722 161.975723 
L 311.339105 164.96096 
L 311.388943 165.032037 
L 313.403837 167.946197 
L 314.800642 170.043837 
L 315.383572 170.931434 
L 317.258802 173.916671 
L 318.212341 175.504271 
L 319.040295 176.901908 
L 320.724241 179.887145 
L 321.624041 181.566684 
L 322.314011 182.872382 
L 323.803738 185.857618 
L 325.03574 188.471868 
L 325.208195 188.842855 
L 326.500829 191.828092 
L 327.708458 194.813329 
L 328.44744 196.790564 
L 328.819011 197.798566 
L 329.822691 200.783803 
L 330.734407 203.76904 
L 331.55112 206.754277 
L 331.859139 208.042082 
L 332.259465 209.739514 
L 332.860908 212.724751 
L 333.359705 215.709988 
L 333.7524 218.695225 
L 334.035377 221.680462 
L 334.204857 224.665699 
L 334.256884 227.650936 
L 334.187316 230.636173 
L 333.991814 233.62141 
L 333.665829 236.606647 
L 333.204593 239.591884 
L 332.6031 242.577121 
L 331.859139 245.550345 
L 331.856006 245.562358 
L 330.931236 248.547595 
L 329.844195 251.532832 
L 328.588372 254.518069 
L 328.44744 254.815561 
L 327.11565 257.503306 
L 325.448376 260.488543 
L 325.03574 261.156202 
L 323.533378 263.47378 
L 321.624041 266.135537 
L 321.380076 266.459017 
L 318.922951 269.444254 
L 318.212341 270.237723 
L 316.141317 272.429491 
L 314.800642 273.740339 
L 312.988312 275.414728 
L 311.388943 276.787854 
L 309.394958 278.399965 
L 307.977243 279.470455 
L 305.274071 281.385202 
L 304.565544 281.855978 
L 301.153844 283.979215 
L 300.480736 284.370439 
L 297.742145 285.870606 
L 294.813472 287.355676 
L 294.330446 287.587286 
L 290.918746 289.108363 
L 287.903355 290.340913 
L 287.507047 290.494653 
L 284.095347 291.715363 
L 280.683648 292.822742 
L 278.973367 293.32615 
L 277.271948 293.803241 
L 273.860249 294.664794 
L 270.44855 295.429019 
L 267.03685 296.099206 
L 265.796073 296.311387 
L 263.625151 296.66639 
L 260.213451 297.141881 
L 256.801752 297.53543 
L 253.390053 297.849599 
L 249.978353 298.086846 
L 246.566654 298.249531 
L 243.154954 298.339914 
L 239.743255 298.360168 
L 236.331556 298.312378 
L 232.919856 298.198549 
L 229.508157 298.020605 
L 226.096457 297.780399 
L 222.684758 297.479711 
L 219.273058 297.120256 
L 215.861359 296.703683 
z
" clip-path="url(#p6725daf923)" style="fill: none; stroke: #0000ff; stroke-width: 1.5"/>
   </g>
   <g id="PathCollection_8">
    <path d="M 226.096457 305.366612 
L 219.273058 304.609823 
L 212.44966 303.637498 
L 204.692857 302.281861 
L 198.802862 301.066275 
L 191.261996 299.296624 
L 185.156064 297.673381 
L 178.332666 295.676481 
L 171.063367 293.32615 
L 162.734833 290.340913 
L 155.140309 287.355676 
L 148.140247 284.370439 
L 141.628369 281.385202 
L 135.522302 278.399965 
L 129.757221 275.414728 
L 123.745475 272.117886 
L 116.922076 268.129444 
L 109.460323 263.47378 
L 103.275278 259.343974 
L 96.45188 254.508658 
L 88.656159 248.547595 
L 81.42431 242.577121 
L 74.719729 236.606647 
L 68.498779 230.636173 
L 62.334886 224.234326 
L 57.39993 218.695225 
L 52.461719 212.724751 
L 47.922572 206.754277 
L 43.760551 200.783803 
L 39.964092 194.813329 
L 36.530055 188.842855 
L 33.455336 182.872382 
L 30.736865 176.901908 
L 28.217891 170.483008 
L 26.392495 164.96096 
L 24.764893 158.990486 
L 23.538708 153.020012 
L 22.701115 147.049538 
L 22.277206 141.079064 
L 22.22882 138.093827 
L 22.294276 135.10859 
L 22.477373 132.123353 
L 22.78208 129.138116 
L 23.212544 126.152879 
L 23.773107 123.167642 
L 24.806192 118.965423 
L 25.316648 117.197168 
L 26.323202 114.211931 
L 28.217891 109.560208 
L 28.82308 108.241457 
L 30.355739 105.25622 
L 32.08143 102.270983 
L 35.04129 97.892758 
L 36.240024 96.300509 
L 38.70081 93.315272 
L 41.864689 89.944084 
L 45.276388 86.752361 
L 48.688088 83.926036 
L 52.138695 81.374324 
L 56.757896 78.389087 
L 62.097953 75.40385 
L 65.746585 73.63573 
L 69.158284 72.127511 
L 75.981683 69.546704 
L 79.393383 68.455442 
L 86.216781 66.577653 
L 89.628481 65.802238 
L 96.45188 64.518582 
L 103.275278 63.562484 
L 110.098677 62.930624 
L 116.922076 62.582805 
L 123.745475 62.500433 
L 130.568874 62.669037 
L 137.392273 63.075179 
L 144.215671 63.713083 
L 151.03907 64.580449 
L 157.862469 65.654983 
L 164.685868 66.938904 
L 171.509267 68.434896 
L 178.332666 70.129655 
L 186.473829 72.418613 
L 191.979463 74.132489 
L 198.802862 76.436064 
L 205.626261 78.942357 
L 212.44966 81.657104 
L 219.273058 84.586261 
L 226.096457 87.736013 
L 232.919856 91.112786 
L 239.743255 94.723256 
L 246.566654 98.574365 
L 253.390053 102.685273 
L 260.213451 107.080789 
L 267.03685 111.764634 
L 274.415527 117.197168 
L 281.929032 123.167642 
L 288.891473 129.138116 
L 295.349093 135.10859 
L 301.343101 141.079064 
L 306.884614 147.049538 
L 312.020071 153.020012 
L 316.751739 158.990486 
L 321.108654 164.96096 
L 325.092761 170.931434 
L 328.705289 176.901908 
L 331.961045 182.872382 
L 334.853639 188.842855 
L 337.3851 194.813329 
L 339.560875 200.783803 
L 341.367387 206.754277 
L 342.795715 212.724751 
L 343.830611 218.695225 
L 344.464631 224.665699 
L 344.67161 230.636173 
L 344.606153 233.62141 
L 344.423056 236.606647 
L 344.11835 239.591884 
L 343.687885 242.577121 
L 343.127322 245.562358 
L 342.094237 249.764577 
L 341.583782 251.532832 
L 340.577227 254.518069 
L 338.682538 259.169792 
L 338.077349 260.488543 
L 336.54469 263.47378 
L 334.818999 266.459017 
L 331.859139 270.837242 
L 330.660405 272.429491 
L 328.199619 275.414728 
L 325.03574 278.785916 
L 321.624041 281.977639 
L 318.212341 284.803964 
L 314.761734 287.355676 
L 310.142533 290.340913 
L 304.802477 293.32615 
L 301.153844 295.09427 
L 297.742145 296.602489 
L 290.918746 299.183296 
L 287.507047 300.274558 
L 280.683648 302.152347 
L 277.271948 302.927762 
L 270.44855 304.211418 
L 263.625151 305.167516 
L 256.801752 305.799376 
L 249.978353 306.147195 
L 243.154954 306.229567 
L 236.331556 306.060963 
L 229.508157 305.654821 
L 226.096457 305.366612 
L 226.096457 305.366612 
" clip-path="url(#p6725daf923)" style="fill: none; stroke: #0000ff; stroke-width: 1.5"/>
   </g>
   <g id="patch_3">
    <path d="M 183.450215 338.045 
L 183.450215 30.685 
" style="fill: none; stroke: #000000; stroke-width: 0.8; stroke-linejoin: miter; stroke-linecap: square"/>
   </g>
   <g id="patch_4">
    <path d="M 7.815929 184.365 
L 359.0845 184.365 
" style="fill: none; stroke: #000000; stroke-width: 0.8; stroke-linejoin: miter; stroke-linecap: square"/>
   </g>
   <g id="text_17">
    <g clip-path="url(#p6725daf923)">
     <!-- 25 -->
     <g transform="translate(161.857361 218.518827)rotate(-337.75871)scale(0.09 -0.09)">
      <defs>
       <path id="DejaVuSans-35" d="M 691 4666 
L 3169 4666 
L 3169 4134 
L 1269 4134 
L 1269 2991 
Q 1406 3038 1543 3061 
Q 1681 3084 1819 3084 
Q 2600 3084 3056 2656 
Q 3513 2228 3513 1497 
Q 3513 744 3044 326 
Q 2575 -91 1722 -91 
Q 1428 -91 1123 -41 
Q 819 9 494 109 
L 494 744 
Q 775 591 1075 516 
Q 1375 441 1709 441 
Q 2250 441 2565 725 
Q 2881 1009 2881 1497 
Q 2881 1984 2565 2268 
Q 2250 2553 1709 2553 
Q 1456 2553 1204 2497 
Q 953 2441 691 2322 
L 691 4666 
z
" transform="scale(0.015625)"/>
      </defs>
      <use xlink:href="#DejaVuSans-32"/>
      <use xlink:href="#DejaVuSans-35" x="63.623047"/>
     </g>
    </g>
   </g>
   <g id="text_18">
    <g clip-path="url(#p6725daf923)">
     <!-- 50 -->
     <g transform="translate(206.21149 139.821645)rotate(-334.657962)scale(0.09 -0.09)">
      <defs>
       <path id="DejaVuSans-30" d="M 2034 4250 
Q 1547 4250 1301 3770 
Q 1056 3291 1056 2328 
Q 1056 1369 1301 889 
Q 1547 409 2034 409 
Q 2525 409 2770 889 
Q 3016 1369 3016 2328 
Q 3016 3291 2770 3770 
Q 2525 4250 2034 4250 
z
M 2034 4750 
Q 2819 4750 3233 4129 
Q 3647 3509 3647 2328 
Q 3647 1150 3233 529 
Q 2819 -91 2034 -91 
Q 1250 -91 836 529 
Q 422 1150 422 2328 
Q 422 3509 836 4129 
Q 1250 4750 2034 4750 
z
" transform="scale(0.015625)"/>
      </defs>
      <use xlink:href="#DejaVuSans-35"/>
      <use xlink:href="#DejaVuSans-30" x="63.623047"/>
     </g>
    </g>
   </g>
   <g id="text_19">
    <g clip-path="url(#p6725daf923)">
     <!-- 75 -->
     <g transform="translate(138.058887 236.263512)rotate(-333.402471)scale(0.09 -0.09)">
      <defs>
       <path id="DejaVuSans-37" d="M 525 4666 
L 3525 4666 
L 3525 4397 
L 1831 0 
L 1172 0 
L 2766 4134 
L 525 4134 
L 525 4666 
z
" transform="scale(0.015625)"/>
      </defs>
      <use xlink:href="#DejaVuSans-37"/>
      <use xlink:href="#DejaVuSans-35" x="63.623047"/>
     </g>
    </g>
   </g>
   <g id="text_20">
    <g clip-path="url(#p6725daf923)">
     <!-- 100 -->
     <g transform="translate(223.403408 124.357717)rotate(-332.291637)scale(0.09 -0.09)">
      <defs>
       <path id="DejaVuSans-31" d="M 794 531 
L 1825 531 
L 1825 4091 
L 703 3866 
L 703 4441 
L 1819 4666 
L 2450 4666 
L 2450 531 
L 3481 531 
L 3481 0 
L 794 0 
L 794 531 
z
" transform="scale(0.015625)"/>
      </defs>
      <use xlink:href="#DejaVuSans-31"/>
      <use xlink:href="#DejaVuSans-30" x="63.623047"/>
      <use xlink:href="#DejaVuSans-30" x="127.246094"/>
     </g>
    </g>
   </g>
   <g id="text_21">
    <g clip-path="url(#p6725daf923)">
     <!-- 125 -->
     <g transform="translate(247.94478 129.463611)rotate(-326.568129)scale(0.09 -0.09)">
      <use xlink:href="#DejaVuSans-31"/>
      <use xlink:href="#DejaVuSans-32" x="63.623047"/>
      <use xlink:href="#DejaVuSans-35" x="127.246094"/>
     </g>
    </g>
   </g>
   <g id="text_22">
    <g clip-path="url(#p6725daf923)">
     <!-- 150 -->
     <g transform="translate(114.986512 253.834529)rotate(-332.286559)scale(0.09 -0.09)">
      <use xlink:href="#DejaVuSans-31"/>
      <use xlink:href="#DejaVuSans-35" x="63.623047"/>
      <use xlink:href="#DejaVuSans-30" x="127.246094"/>
     </g>
    </g>
   </g>
   <g id="text_23">
    <g clip-path="url(#p6725daf923)">
     <!-- 175 -->
     <g transform="translate(237.797797 104.80084)rotate(-332.606559)scale(0.09 -0.09)">
      <use xlink:href="#DejaVuSans-31"/>
      <use xlink:href="#DejaVuSans-37" x="63.623047"/>
      <use xlink:href="#DejaVuSans-35" x="127.246094"/>
     </g>
    </g>
   </g>
   <g id="text_24">
    <g clip-path="url(#p6725daf923)">
     <!-- 200 -->
     <g transform="translate(126.64953 277.296002)rotate(-336.781511)scale(0.09 -0.09)">
      <use xlink:href="#DejaVuSans-32"/>
      <use xlink:href="#DejaVuSans-30" x="63.623047"/>
      <use xlink:href="#DejaVuSans-30" x="127.246094"/>
     </g>
    </g>
   </g>
  </g>
 </g>
 <defs>
  <clipPath id="p6725daf923">
   <rect x="7.815929" y="30.685" width="351.268571" height="307.36"/>
  </clipPath>
 </defs>
</svg>
