<?xml version="1.0" encoding="utf-8" standalone="no"?>
<!DOCTYPE svg PUBLIC "-//W3C//DTD SVG 1.1//EN"
  "http://www.w3.org/Graphics/SVG/1.1/DTD/svg11.dtd">
<svg xmlns:xlink="http://www.w3.org/1999/xlink" width="340.15484pt" height="336.99405pt" viewBox="0 0 340.15484 336.99405" xmlns="http://www.w3.org/2000/svg" version="1.1">
 <metadata>
  <rdf:RDF xmlns:dc="http://purl.org/dc/elements/1.1/" xmlns:cc="http://creativecommons.org/ns#" xmlns:rdf="http://www.w3.org/1999/02/22-rdf-syntax-ns#">
   <cc:Work>
    <dc:type rdf:resource="http://purl.org/dc/dcmitype/StillImage"/>
    <dc:date>2025-04-09T11:36:28.119706</dc:date>
    <dc:format>image/svg+xml</dc:format>
    <dc:creator>
     <cc:Agent>
      <dc:title>Matplotlib v3.8.0, https://matplotlib.org/</dc:title>
     </cc:Agent>
    </dc:creator>
   </cc:Work>
  </rdf:RDF>
 </metadata>
 <defs>
  <style type="text/css">*{stroke-linejoin: round; stroke-linecap: butt}</style>
 </defs>
 <g id="figure_1">
  <g id="patch_1">
   <path d="M 0 336.99405 
L 340.15484 336.99405 
L 340.15484 0 
L 0 0 
z
" style="fill: #ffffff"/>
  </g>
  <g id="axes_1">
   <g id="patch_2">
    <path d="M 13.453678 329.761311 
L 319.81484 329.761311 
L 319.81484 23.4425 
L 13.453678 23.4425 
z
" style="fill: #ffffff"/>
   </g>
   <g id="matplotlib.axis_1">
    <g id="xtick_1">
     <g id="line2d_1">
      <defs>
       <path id="m6e3dc294e2" d="M 0 0 
L 0 3.5 
" style="stroke: #000000; stroke-width: 0.8"/>
      </defs>
      <g>
       <use xlink:href="#m6e3dc294e2" x="19.341406" y="176.624195" style="stroke: #000000; stroke-width: 0.8"/>
      </g>
     </g>
     <g id="text_1">
      <!-- −1.0 -->
      <g transform="translate(7.2 191.222632) scale(0.1 -0.1)">
       <defs>
        <path id="DejaVuSans-2212" d="M 678 2272 
L 4684 2272 
L 4684 1741 
L 678 1741 
L 678 2272 
z
" transform="scale(0.015625)"/>
        <path id="DejaVuSans-31" d="M 794 531 
L 1825 531 
L 1825 4091 
L 703 3866 
L 703 4441 
L 1819 4666 
L 2450 4666 
L 2450 531 
L 3481 531 
L 3481 0 
L 794 0 
L 794 531 
z
" transform="scale(0.015625)"/>
        <path id="DejaVuSans-2e" d="M 684 794 
L 1344 794 
L 1344 0 
L 684 0 
L 684 794 
z
" transform="scale(0.015625)"/>
        <path id="DejaVuSans-30" d="M 2034 4250 
Q 1547 4250 1301 3770 
Q 1056 3291 1056 2328 
Q 1056 1369 1301 889 
Q 1547 409 2034 409 
Q 2525 409 2770 889 
Q 3016 1369 3016 2328 
Q 3016 3291 2770 3770 
Q 2525 4250 2034 4250 
z
M 2034 4750 
Q 2819 4750 3233 4129 
Q 3647 3509 3647 2328 
Q 3647 1150 3233 529 
Q 2819 -91 2034 -91 
Q 1250 -91 836 529 
Q 422 1150 422 2328 
Q 422 3509 836 4129 
Q 1250 4750 2034 4750 
z
" transform="scale(0.015625)"/>
       </defs>
       <use xlink:href="#DejaVuSans-2212"/>
       <use xlink:href="#DejaVuSans-31" x="83.789062"/>
       <use xlink:href="#DejaVuSans-2e" x="147.412109"/>
       <use xlink:href="#DejaVuSans-30" x="179.199219"/>
      </g>
     </g>
    </g>
    <g id="xtick_2">
     <g id="line2d_2">
      <g>
       <use xlink:href="#m6e3dc294e2" x="92.986881" y="176.624195" style="stroke: #000000; stroke-width: 0.8"/>
      </g>
     </g>
     <g id="text_2">
      <!-- −0.5 -->
      <g transform="translate(80.845474 191.222632) scale(0.1 -0.1)">
       <defs>
        <path id="DejaVuSans-35" d="M 691 4666 
L 3169 4666 
L 3169 4134 
L 1269 4134 
L 1269 2991 
Q 1406 3038 1543 3061 
Q 1681 3084 1819 3084 
Q 2600 3084 3056 2656 
Q 3513 2228 3513 1497 
Q 3513 744 3044 326 
Q 2575 -91 1722 -91 
Q 1428 -91 1123 -41 
Q 819 9 494 109 
L 494 744 
Q 775 591 1075 516 
Q 1375 441 1709 441 
Q 2250 441 2565 725 
Q 2881 1009 2881 1497 
Q 2881 1984 2565 2268 
Q 2250 2553 1709 2553 
Q 1456 2553 1204 2497 
Q 953 2441 691 2322 
L 691 4666 
z
" transform="scale(0.015625)"/>
       </defs>
       <use xlink:href="#DejaVuSans-2212"/>
       <use xlink:href="#DejaVuSans-30" x="83.789062"/>
       <use xlink:href="#DejaVuSans-2e" x="147.412109"/>
       <use xlink:href="#DejaVuSans-35" x="179.199219"/>
      </g>
     </g>
    </g>
    <g id="xtick_3">
     <g id="line2d_3">
      <g>
       <use xlink:href="#m6e3dc294e2" x="166.632355" y="176.624195" style="stroke: #000000; stroke-width: 0.8"/>
      </g>
     </g>
    </g>
    <g id="xtick_4">
     <g id="line2d_4">
      <g>
       <use xlink:href="#m6e3dc294e2" x="240.277829" y="176.624195" style="stroke: #000000; stroke-width: 0.8"/>
      </g>
     </g>
     <g id="text_3">
      <!-- 0.5 -->
      <g transform="translate(232.326267 191.222632) scale(0.1 -0.1)">
       <use xlink:href="#DejaVuSans-30"/>
       <use xlink:href="#DejaVuSans-2e" x="63.623047"/>
       <use xlink:href="#DejaVuSans-35" x="95.410156"/>
      </g>
     </g>
    </g>
    <g id="xtick_5">
     <g id="line2d_5">
      <g>
       <use xlink:href="#m6e3dc294e2" x="313.923303" y="176.624195" style="stroke: #000000; stroke-width: 0.8"/>
      </g>
     </g>
     <g id="text_4">
      <!-- 1.0 -->
      <g transform="translate(305.971741 191.222632) scale(0.1 -0.1)">
       <use xlink:href="#DejaVuSans-31"/>
       <use xlink:href="#DejaVuSans-2e" x="63.623047"/>
       <use xlink:href="#DejaVuSans-30" x="95.410156"/>
      </g>
     </g>
    </g>
    <g id="xtick_6">
     <g id="line2d_6">
      <defs>
       <path id="m616fd4dadd" d="M 0 0 
L 0 2 
" style="stroke: #000000; stroke-width: 0.6"/>
      </defs>
      <g>
       <use xlink:href="#m616fd4dadd" x="34.070501" y="176.624195" style="stroke: #000000; stroke-width: 0.6"/>
      </g>
     </g>
    </g>
    <g id="xtick_7">
     <g id="line2d_7">
      <g>
       <use xlink:href="#m616fd4dadd" x="48.799596" y="176.624195" style="stroke: #000000; stroke-width: 0.6"/>
      </g>
     </g>
    </g>
    <g id="xtick_8">
     <g id="line2d_8">
      <g>
       <use xlink:href="#m616fd4dadd" x="63.528691" y="176.624195" style="stroke: #000000; stroke-width: 0.6"/>
      </g>
     </g>
    </g>
    <g id="xtick_9">
     <g id="line2d_9">
      <g>
       <use xlink:href="#m616fd4dadd" x="78.257786" y="176.624195" style="stroke: #000000; stroke-width: 0.6"/>
      </g>
     </g>
    </g>
    <g id="xtick_10">
     <g id="line2d_10">
      <g>
       <use xlink:href="#m616fd4dadd" x="107.715975" y="176.624195" style="stroke: #000000; stroke-width: 0.6"/>
      </g>
     </g>
    </g>
    <g id="xtick_11">
     <g id="line2d_11">
      <g>
       <use xlink:href="#m616fd4dadd" x="122.44507" y="176.624195" style="stroke: #000000; stroke-width: 0.6"/>
      </g>
     </g>
    </g>
    <g id="xtick_12">
     <g id="line2d_12">
      <g>
       <use xlink:href="#m616fd4dadd" x="137.174165" y="176.624195" style="stroke: #000000; stroke-width: 0.6"/>
      </g>
     </g>
    </g>
    <g id="xtick_13">
     <g id="line2d_13">
      <g>
       <use xlink:href="#m616fd4dadd" x="151.90326" y="176.624195" style="stroke: #000000; stroke-width: 0.6"/>
      </g>
     </g>
    </g>
    <g id="xtick_14">
     <g id="line2d_14">
      <g>
       <use xlink:href="#m616fd4dadd" x="181.36145" y="176.624195" style="stroke: #000000; stroke-width: 0.6"/>
      </g>
     </g>
    </g>
    <g id="xtick_15">
     <g id="line2d_15">
      <g>
       <use xlink:href="#m616fd4dadd" x="196.090545" y="176.624195" style="stroke: #000000; stroke-width: 0.6"/>
      </g>
     </g>
    </g>
    <g id="xtick_16">
     <g id="line2d_16">
      <g>
       <use xlink:href="#m616fd4dadd" x="210.819639" y="176.624195" style="stroke: #000000; stroke-width: 0.6"/>
      </g>
     </g>
    </g>
    <g id="xtick_17">
     <g id="line2d_17">
      <g>
       <use xlink:href="#m616fd4dadd" x="225.548734" y="176.624195" style="stroke: #000000; stroke-width: 0.6"/>
      </g>
     </g>
    </g>
    <g id="xtick_18">
     <g id="line2d_18">
      <g>
       <use xlink:href="#m616fd4dadd" x="255.006924" y="176.624195" style="stroke: #000000; stroke-width: 0.6"/>
      </g>
     </g>
    </g>
    <g id="xtick_19">
     <g id="line2d_19">
      <g>
       <use xlink:href="#m616fd4dadd" x="269.736019" y="176.624195" style="stroke: #000000; stroke-width: 0.6"/>
      </g>
     </g>
    </g>
    <g id="xtick_20">
     <g id="line2d_20">
      <g>
       <use xlink:href="#m616fd4dadd" x="284.465114" y="176.624195" style="stroke: #000000; stroke-width: 0.6"/>
      </g>
     </g>
    </g>
    <g id="xtick_21">
     <g id="line2d_21">
      <g>
       <use xlink:href="#m616fd4dadd" x="299.194209" y="176.624195" style="stroke: #000000; stroke-width: 0.6"/>
      </g>
     </g>
    </g>
    <g id="text_5">
     <!-- $x$ -->
     <g transform="translate(327.81484 176.624195) scale(0.16 -0.16)">
      <defs>
       <path id="Cmmi10-78" d="M 500 184 
Q 613 97 819 97 
Q 1019 97 1172 289 
Q 1325 481 1381 709 
L 1672 1844 
Q 1741 2153 1741 2266 
Q 1741 2425 1652 2544 
Q 1563 2663 1403 2663 
Q 1200 2663 1022 2536 
Q 844 2409 722 2214 
Q 600 2019 550 1819 
Q 538 1778 500 1778 
L 422 1778 
Q 372 1778 372 1838 
L 372 1856 
Q 434 2094 584 2320 
Q 734 2547 951 2687 
Q 1169 2828 1416 2828 
Q 1650 2828 1839 2703 
Q 2028 2578 2106 2363 
Q 2216 2559 2386 2693 
Q 2556 2828 2759 2828 
Q 2897 2828 3040 2779 
Q 3184 2731 3275 2631 
Q 3366 2531 3366 2381 
Q 3366 2219 3261 2101 
Q 3156 1984 2994 1984 
Q 2891 1984 2822 2050 
Q 2753 2116 2753 2216 
Q 2753 2350 2845 2451 
Q 2938 2553 3066 2572 
Q 2950 2663 2747 2663 
Q 2541 2663 2389 2472 
Q 2238 2281 2175 2047 
L 1894 916 
Q 1825 659 1825 494 
Q 1825 331 1917 214 
Q 2009 97 2163 97 
Q 2463 97 2698 361 
Q 2934 625 3009 941 
Q 3022 978 3059 978 
L 3138 978 
Q 3163 978 3178 961 
Q 3194 944 3194 922 
Q 3194 916 3188 903 
Q 3097 522 2806 225 
Q 2516 -72 2150 -72 
Q 1916 -72 1727 54 
Q 1538 181 1459 397 
Q 1359 209 1182 68 
Q 1006 -72 806 -72 
Q 669 -72 523 -23 
Q 378 25 287 125 
Q 197 225 197 378 
Q 197 528 301 651 
Q 406 775 563 775 
Q 669 775 741 711 
Q 813 647 813 544 
Q 813 409 723 309 
Q 634 209 500 184 
z
" transform="scale(0.015625)"/>
      </defs>
      <use xlink:href="#Cmmi10-78" transform="translate(0 0.8125)"/>
     </g>
    </g>
   </g>
   <g id="matplotlib.axis_2">
    <g id="ytick_1">
     <g id="line2d_22">
      <defs>
       <path id="mbe4e29335d" d="M 0 0 
L -3.5 0 
" style="stroke: #000000; stroke-width: 0.8"/>
      </defs>
      <g>
       <use xlink:href="#mbe4e29335d" x="166.632355" y="323.915143" style="stroke: #000000; stroke-width: 0.8"/>
      </g>
     </g>
     <g id="text_6">
      <!-- −1.0 -->
      <g transform="translate(135.349542 327.714362) scale(0.1 -0.1)">
       <use xlink:href="#DejaVuSans-2212"/>
       <use xlink:href="#DejaVuSans-31" x="83.789062"/>
       <use xlink:href="#DejaVuSans-2e" x="147.412109"/>
       <use xlink:href="#DejaVuSans-30" x="179.199219"/>
      </g>
     </g>
    </g>
    <g id="ytick_2">
     <g id="line2d_23">
      <g>
       <use xlink:href="#mbe4e29335d" x="166.632355" y="250.269669" style="stroke: #000000; stroke-width: 0.8"/>
      </g>
     </g>
     <g id="text_7">
      <!-- −0.5 -->
      <g transform="translate(135.349542 254.068888) scale(0.1 -0.1)">
       <use xlink:href="#DejaVuSans-2212"/>
       <use xlink:href="#DejaVuSans-30" x="83.789062"/>
       <use xlink:href="#DejaVuSans-2e" x="147.412109"/>
       <use xlink:href="#DejaVuSans-35" x="179.199219"/>
      </g>
     </g>
    </g>
    <g id="ytick_3">
     <g id="line2d_24">
      <g>
       <use xlink:href="#mbe4e29335d" x="166.632355" y="176.624195" style="stroke: #000000; stroke-width: 0.8"/>
      </g>
     </g>
    </g>
    <g id="ytick_4">
     <g id="line2d_25">
      <g>
       <use xlink:href="#mbe4e29335d" x="166.632355" y="102.978721" style="stroke: #000000; stroke-width: 0.8"/>
      </g>
     </g>
     <g id="text_8">
      <!-- 0.5 -->
      <g transform="translate(143.72923 106.777939) scale(0.1 -0.1)">
       <use xlink:href="#DejaVuSans-30"/>
       <use xlink:href="#DejaVuSans-2e" x="63.623047"/>
       <use xlink:href="#DejaVuSans-35" x="95.410156"/>
      </g>
     </g>
    </g>
    <g id="ytick_5">
     <g id="line2d_26">
      <g>
       <use xlink:href="#mbe4e29335d" x="166.632355" y="29.333246" style="stroke: #000000; stroke-width: 0.8"/>
      </g>
     </g>
     <g id="text_9">
      <!-- 1.0 -->
      <g transform="translate(143.72923 33.132465) scale(0.1 -0.1)">
       <use xlink:href="#DejaVuSans-31"/>
       <use xlink:href="#DejaVuSans-2e" x="63.623047"/>
       <use xlink:href="#DejaVuSans-30" x="95.410156"/>
      </g>
     </g>
    </g>
    <g id="ytick_6">
     <g id="line2d_27">
      <defs>
       <path id="m598f1d128d" d="M 0 0 
L -2 0 
" style="stroke: #000000; stroke-width: 0.6"/>
      </defs>
      <g>
       <use xlink:href="#m598f1d128d" x="166.632355" y="309.186049" style="stroke: #000000; stroke-width: 0.6"/>
      </g>
     </g>
    </g>
    <g id="ytick_7">
     <g id="line2d_28">
      <g>
       <use xlink:href="#m598f1d128d" x="166.632355" y="294.456954" style="stroke: #000000; stroke-width: 0.6"/>
      </g>
     </g>
    </g>
    <g id="ytick_8">
     <g id="line2d_29">
      <g>
       <use xlink:href="#m598f1d128d" x="166.632355" y="279.727859" style="stroke: #000000; stroke-width: 0.6"/>
      </g>
     </g>
    </g>
    <g id="ytick_9">
     <g id="line2d_30">
      <g>
       <use xlink:href="#m598f1d128d" x="166.632355" y="264.998764" style="stroke: #000000; stroke-width: 0.6"/>
      </g>
     </g>
    </g>
    <g id="ytick_10">
     <g id="line2d_31">
      <g>
       <use xlink:href="#m598f1d128d" x="166.632355" y="235.540574" style="stroke: #000000; stroke-width: 0.6"/>
      </g>
     </g>
    </g>
    <g id="ytick_11">
     <g id="line2d_32">
      <g>
       <use xlink:href="#m598f1d128d" x="166.632355" y="220.811479" style="stroke: #000000; stroke-width: 0.6"/>
      </g>
     </g>
    </g>
    <g id="ytick_12">
     <g id="line2d_33">
      <g>
       <use xlink:href="#m598f1d128d" x="166.632355" y="206.082385" style="stroke: #000000; stroke-width: 0.6"/>
      </g>
     </g>
    </g>
    <g id="ytick_13">
     <g id="line2d_34">
      <g>
       <use xlink:href="#m598f1d128d" x="166.632355" y="191.35329" style="stroke: #000000; stroke-width: 0.6"/>
      </g>
     </g>
    </g>
    <g id="ytick_14">
     <g id="line2d_35">
      <g>
       <use xlink:href="#m598f1d128d" x="166.632355" y="161.8951" style="stroke: #000000; stroke-width: 0.6"/>
      </g>
     </g>
    </g>
    <g id="ytick_15">
     <g id="line2d_36">
      <g>
       <use xlink:href="#m598f1d128d" x="166.632355" y="147.166005" style="stroke: #000000; stroke-width: 0.6"/>
      </g>
     </g>
    </g>
    <g id="ytick_16">
     <g id="line2d_37">
      <g>
       <use xlink:href="#m598f1d128d" x="166.632355" y="132.43691" style="stroke: #000000; stroke-width: 0.6"/>
      </g>
     </g>
    </g>
    <g id="ytick_17">
     <g id="line2d_38">
      <g>
       <use xlink:href="#m598f1d128d" x="166.632355" y="117.707815" style="stroke: #000000; stroke-width: 0.6"/>
      </g>
     </g>
    </g>
    <g id="ytick_18">
     <g id="line2d_39">
      <g>
       <use xlink:href="#m598f1d128d" x="166.632355" y="88.249626" style="stroke: #000000; stroke-width: 0.6"/>
      </g>
     </g>
    </g>
    <g id="ytick_19">
     <g id="line2d_40">
      <g>
       <use xlink:href="#m598f1d128d" x="166.632355" y="73.520531" style="stroke: #000000; stroke-width: 0.6"/>
      </g>
     </g>
    </g>
    <g id="ytick_20">
     <g id="line2d_41">
      <g>
       <use xlink:href="#m598f1d128d" x="166.632355" y="58.791436" style="stroke: #000000; stroke-width: 0.6"/>
      </g>
     </g>
    </g>
    <g id="ytick_21">
     <g id="line2d_42">
      <g>
       <use xlink:href="#m598f1d128d" x="166.632355" y="44.062341" style="stroke: #000000; stroke-width: 0.6"/>
      </g>
     </g>
    </g>
    <g id="text_10">
     <!-- $y$ -->
     <g transform="translate(162.632355 12.0825) scale(0.16 -0.16)">
      <defs>
       <path id="Cmmi10-79" d="M 538 -916 
Q 672 -1147 1006 -1147 
Q 1309 -1147 1531 -934 
Q 1753 -722 1889 -420 
Q 2025 -119 2100 197 
Q 1816 -72 1484 -72 
Q 1231 -72 1053 15 
Q 875 103 776 276 
Q 678 450 678 697 
Q 678 906 734 1126 
Q 791 1347 892 1617 
Q 994 1888 1069 2088 
Q 1153 2322 1153 2472 
Q 1153 2663 1013 2663 
Q 759 2663 595 2402 
Q 431 2141 353 1819 
Q 341 1778 300 1778 
L 225 1778 
Q 172 1778 172 1838 
L 172 1856 
Q 275 2238 487 2533 
Q 700 2828 1025 2828 
Q 1253 2828 1411 2678 
Q 1569 2528 1569 2297 
Q 1569 2178 1516 2047 
Q 1488 1969 1388 1706 
Q 1288 1444 1234 1272 
Q 1181 1100 1147 934 
Q 1113 769 1113 603 
Q 1113 391 1203 244 
Q 1294 97 1491 97 
Q 1888 97 2203 581 
L 2688 2553 
Q 2709 2638 2787 2698 
Q 2866 2759 2956 2759 
Q 3034 2759 3092 2709 
Q 3150 2659 3150 2578 
Q 3150 2541 3144 2528 
L 2509 -19 
Q 2425 -347 2200 -647 
Q 1975 -947 1658 -1130 
Q 1341 -1313 997 -1313 
Q 831 -1313 668 -1248 
Q 506 -1184 406 -1056 
Q 306 -928 306 -756 
Q 306 -581 409 -453 
Q 513 -325 684 -325 
Q 788 -325 858 -389 
Q 928 -453 928 -556 
Q 928 -703 818 -812 
Q 709 -922 563 -922 
Q 556 -919 550 -917 
Q 544 -916 538 -916 
z
" transform="scale(0.015625)"/>
      </defs>
      <use xlink:href="#Cmmi10-79" transform="translate(0 0.8125)"/>
     </g>
    </g>
   </g>
   <g id="line2d_43">
    <path d="M 166.632355 29.333246 
L 173.519344 29.373526 
L 190.136056 29.805848 
L 203.587908 30.515859 
L 216.872538 31.558354 
L 228.805158 32.815676 
L 238.318534 34.064725 
L 251.124996 36.152161 
L 259.393927 37.79633 
L 265.00327 39.071493 
L 270.594645 40.494294 
L 275.902232 42.01001 
L 283.71278 44.605539 
L 288.654648 46.537349 
L 293.193278 48.576654 
L 296.064912 50.036455 
L 298.783993 51.574522 
L 302.867179 54.269788 
L 304.904515 55.856956 
L 306.740417 57.488112 
L 308.620589 59.441857 
L 310.220385 61.453457 
L 311.73112 63.877463 
L 312.405083 65.265533 
L 312.935217 66.616666 
L 313.352225 67.989066 
L 313.655783 69.382466 
L 313.845658 70.796599 
L 313.923279 72.443929 
L 313.692102 75.432428 
L 313.145109 77.964485 
L 312.277239 80.550568 
L 310.826095 83.70204 
L 309.901756 85.356118 
L 308.497973 87.571492 
L 306.888898 89.819086 
L 304.509497 92.769747 
L 301.14612 96.448314 
L 297.296379 100.199371 
L 292.081182 104.769249 
L 285.814656 109.739266 
L 281.576114 112.870722 
L 277.078903 116.038051 
L 269.525425 121.075928 
L 260.05568 127.01376 
L 247.185609 134.600907 
L 232.05256 143.028507 
L 218.330599 150.353851 
L 201.099223 159.269881 
L 176.169005 171.853366 
L 131.676218 194.228455 
L 117.660624 201.465925 
L 102.964308 209.270193 
L 89.624743 216.63218 
L 79.701668 222.348582 
L 69.098976 228.767764 
L 61.299046 233.766287 
L 54.385059 238.461454 
L 46.804998 244.00024 
L 40.580437 248.984148 
L 35.808299 253.197504 
L 32.349523 256.563188 
L 28.991441 260.204035 
L 26.771468 262.91206 
L 24.83479 265.576384 
L 23.473058 267.707212 
L 22.302617 269.807611 
L 21.434516 271.62477 
L 20.715758 273.417499 
L 20.197153 275.009778 
L 19.729337 276.926515 
L 19.444077 278.812087 
L 19.35608 281.507088 
L 19.469919 282.927264 
L 19.69635 284.327107 
L 20.20383 286.257373 
L 20.932066 288.146316 
L 22.185138 290.503685 
L 23.325104 292.179593 
L 24.653724 293.817467 
L 26.254457 295.500159 
L 29.438458 298.256281 
L 30.914178 299.351516 
L 33.607781 301.141376 
L 37.933701 303.599604 
L 41.298842 305.252614 
L 47.816063 307.993846 
L 50.850501 309.10952 
L 55.332984 310.609733 
L 59.806969 311.958323 
L 64.448284 313.22452 
L 69.294023 314.42239 
L 79.577396 316.614214 
L 88.801321 318.245227 
L 98.175999 319.634212 
L 107.894553 320.828101 
L 117.567736 321.796843 
L 134.438142 323.022063 
L 139.846342 323.299833 
L 159.387415 323.870564 
L 175.204528 323.852716 
L 186.09282 323.591978 
L 203.490187 322.738905 
L 212.932429 322.036584 
L 229.812175 320.311414 
L 240.837942 318.812179 
L 249.889985 317.320324 
L 261.196833 315.057459 
L 266.408877 313.834416 
L 271.39961 312.535277 
L 280.265598 309.84898 
L 283.600668 308.683759 
L 287.556363 307.163633 
L 291.115044 305.641816 
L 294.435993 304.058394 
L 297.110016 302.640708 
L 299.597868 301.178067 
L 303.512437 298.497165 
L 304.260161 297.915443 
L 306.717951 295.78167 
L 308.823342 293.572948 
L 310.245773 291.759349 
L 311.438577 289.899723 
L 312.680653 287.319171 
L 312.986254 286.482914 
L 313.525067 284.53358 
L 313.836948 282.542566 
L 313.900572 279.855706 
L 313.594334 277.235998 
L 312.931288 274.555212 
L 311.879987 271.738655 
L 310.154214 268.325352 
L 308.836692 266.185646 
L 307.325991 264.015522 
L 305.731014 261.947772 
L 303.968949 259.854398 
L 301.352218 257.012968 
L 298.514233 254.193827 
L 294.244872 250.317165 
L 290.244576 246.972884 
L 285.909322 243.580938 
L 278.674171 238.317587 
L 272.12841 233.873655 
L 261.408359 227.061532 
L 250.16778 220.365206 
L 239.907498 214.539505 
L 224.924207 206.38389 
L 213.574927 200.407584 
L 194.039834 190.388163 
L 164.214119 175.415036 
L 136.508705 161.482143 
L 119.628221 152.808756 
L 106.596165 145.932381 
L 91.311348 137.565323 
L 78.268685 130.05317 
L 67.537851 123.501553 
L 59.206824 118.090995 
L 56.155515 116.017182 
L 50.905908 112.304088 
L 46.449806 108.975921 
L 42.300742 105.690968 
L 38.503315 102.481117 
L 33.306827 97.649473 
L 30.378752 94.603531 
L 27.894187 91.743294 
L 25.717805 88.930201 
L 24.158306 86.646878 
L 23.08288 84.874887 
L 21.883955 82.600133 
L 20.39581 78.891382 
L 19.642765 75.858246 
L 19.430483 74.300603 
L 19.345239 72.098763 
L 19.519701 69.943005 
L 19.915767 67.976486 
L 20.536476 66.05156 
L 21.218077 64.493158 
L 22.051651 62.964055 
L 23.236197 61.188887 
L 24.631578 59.456155 
L 25.886976 58.112365 
L 28.645628 55.622089 
L 31.866908 53.235925 
L 33.733672 52.028925 
L 36.263229 50.547261 
L 39.606163 48.803195 
L 43.226216 47.128852 
L 50.638658 44.213947 
L 55.396529 42.618524 
L 64.444212 40.024927 
L 73.183338 37.945157 
L 82.345311 36.11449 
L 92.346228 34.448385 
L 99.526548 33.434042 
L 106.914128 32.530284 
L 120.858902 31.167933 
L 126.791486 30.712362 
L 143.837688 29.77755 
L 153.215359 29.486417 
L 166.632355 29.333246 
L 166.632355 29.333246 
" clip-path="url(#p161eb4e734)" style="fill: none; stroke: #0000ff; stroke-width: 1.5; stroke-linecap: square"/>
   </g>
   <g id="patch_3">
    <path d="M 294.190058 49.066492 
Q 290.19529 47.305829 288.246668 46.446989 
" clip-path="url(#p161eb4e734)" style="fill: none; stroke: #0000ff; stroke-width: 2; stroke-linecap: round"/>
    <path d="M 295.380775 55.055387 
L 288.246668 46.446989 
L 299.413851 45.904742 
z
" clip-path="url(#p161eb4e734)" style="fill: #0000ff; stroke: #0000ff; stroke-width: 2; stroke-linecap: round"/>
   </g>
   <g id="patch_4">
    <path d="M 166.632355 329.761311 
L 166.632355 23.4425 
" style="fill: none; stroke: #000000; stroke-width: 0.8; stroke-linejoin: miter; stroke-linecap: square"/>
   </g>
   <g id="patch_5">
    <path d="M 13.453678 176.624195 
L 319.81484 176.624195 
" style="fill: none; stroke: #000000; stroke-width: 0.8; stroke-linejoin: miter; stroke-linecap: square"/>
   </g>
  </g>
 </g>
 <defs>
  <clipPath id="p161eb4e734">
   <rect x="13.453678" y="23.4425" width="306.361162" height="306.318811"/>
  </clipPath>
 </defs>
</svg>
