<?xml version="1.0" encoding="utf-8" standalone="no"?>
<!DOCTYPE svg PUBLIC "-//W3C//DTD SVG 1.1//EN"
  "http://www.w3.org/Graphics/SVG/1.1/DTD/svg11.dtd">
<svg xmlns:xlink="http://www.w3.org/1999/xlink" width="344.287454pt" height="344.242538pt" viewBox="0 0 344.287454 344.242538" xmlns="http://www.w3.org/2000/svg" version="1.1">
 <metadata>
  <rdf:RDF xmlns:dc="http://purl.org/dc/elements/1.1/" xmlns:cc="http://creativecommons.org/ns#" xmlns:rdf="http://www.w3.org/1999/02/22-rdf-syntax-ns#">
   <cc:Work>
    <dc:type rdf:resource="http://purl.org/dc/dcmitype/StillImage"/>
    <dc:date>2025-03-06T19:36:47.037270</dc:date>
    <dc:format>image/svg+xml</dc:format>
    <dc:creator>
     <cc:Agent>
      <dc:title>Matplotlib v3.5.1, https://matplotlib.org/</dc:title>
     </cc:Agent>
    </dc:creator>
   </cc:Work>
  </rdf:RDF>
 </metadata>
 <defs>
  <style type="text/css">*{stroke-linejoin: round; stroke-linecap: butt}</style>
 </defs>
 <g id="figure_1">
  <g id="patch_1">
   <path d="M -0 344.242538 
L 344.287454 344.242538 
L 344.287454 0 
L -0 0 
z
" style="fill: #ffffff"/>
  </g>
  <g id="axes_1">
   <g id="patch_2">
    <path d="M 13.449915 337.042538 
L 319.807454 337.042538 
L 319.807454 30.685 
L 13.449915 30.685 
z
" style="fill: #ffffff"/>
   </g>
   <g id="patch_3">
    <path d="M 313.915962 183.863769 
C 313.915962 164.522181 310.106091 145.368666 302.704386 127.499368 
C 295.302681 109.630071 284.453086 93.392504 270.776517 79.715936 
C 257.099949 66.039368 240.862383 55.189773 222.993085 47.788068 
C 205.123788 40.386362 185.970273 36.576491 166.628684 36.576491 
C 147.287096 36.576491 128.133581 40.386362 110.264283 47.788068 
C 92.394986 55.189773 76.157419 66.039368 62.480851 79.715936 
C 48.804283 93.392504 37.954688 109.630071 30.552983 127.499368 
C 23.151277 145.368666 19.341406 164.522181 19.341406 183.863769 
C 19.341406 203.205357 23.151277 222.358873 30.552983 240.22817 
C 37.954688 258.097468 48.804283 274.335034 62.480851 288.011602 
C 76.157419 301.68817 92.394986 312.537766 110.264283 319.939471 
C 128.133581 327.341176 147.287096 331.151047 166.628684 331.151047 
C 185.970273 331.151047 205.123788 327.341176 222.993085 319.939471 
C 240.862383 312.537766 257.099949 301.68817 270.776517 288.011602 
C 284.453086 274.335034 295.302681 258.097468 302.704386 240.22817 
C 310.106091 222.358873 313.915962 203.205357 313.915962 183.863769 
M 166.628684 183.863769 
M 313.915962 183.863769 
z
" clip-path="url(#p4d8e2c5646)" style="fill: #ffff00"/>
   </g>
   <g id="patch_4">
    <path d="M 104.031591 134.76801 
C 104.031591 133.317391 103.745851 131.880877 103.190723 130.54068 
C 102.635595 129.200482 101.821875 127.982665 100.796133 126.956922 
C 99.77039 125.93118 98.552573 125.11746 97.212375 124.562332 
C 95.872178 124.007204 94.435664 123.721464 92.985045 123.721464 
C 91.534426 123.721464 90.097913 124.007204 88.757715 124.562332 
C 87.417518 125.11746 86.1997 125.93118 85.173958 126.956922 
C 84.148215 127.982665 83.334496 129.200482 82.779368 130.54068 
C 82.22424 131.880877 81.938499 133.317391 81.938499 134.76801 
C 81.938499 136.218629 82.22424 137.655143 82.779368 138.99534 
C 83.334496 140.335537 84.148215 141.553355 85.173958 142.579097 
C 86.1997 143.60484 87.417518 144.41856 88.757715 144.973687 
C 90.097913 145.528815 91.534426 145.814556 92.985045 145.814556 
C 94.435664 145.814556 95.872178 145.528815 97.212375 144.973687 
C 98.552573 144.41856 99.77039 143.60484 100.796133 142.579097 
C 101.821875 141.553355 102.635595 140.335537 103.190723 138.99534 
C 103.745851 137.655143 104.031591 136.218629 104.031591 134.76801 
M 92.985045 134.76801 
M 104.031591 134.76801 
z
" clip-path="url(#p4d8e2c5646)" style="fill: #ffa500"/>
   </g>
   <g id="PathCollection_1">
    <path d="M 92.985045 137.004078 
C 93.578057 137.004078 94.146861 136.768472 94.566184 136.349149 
C 94.985507 135.929826 95.221113 135.361022 95.221113 134.76801 
C 95.221113 134.174998 94.985507 133.606194 94.566184 133.186871 
C 94.146861 132.767548 93.578057 132.531942 92.985045 132.531942 
C 92.392033 132.531942 91.823229 132.767548 91.403906 133.186871 
C 90.984584 133.606194 90.748977 134.174998 90.748977 134.76801 
C 90.748977 135.361022 90.984584 135.929826 91.403906 136.349149 
C 91.823229 136.768472 92.392033 137.004078 92.985045 137.004078 
z
" clip-path="url(#p4d8e2c5646)" style="fill: #0000ff"/>
   </g>
   <g id="patch_5">
    <path d="M 281.823063 79.715936 
C 281.823063 78.265317 281.537323 76.828803 280.982195 75.488606 
C 280.427067 74.148409 279.613348 72.930591 278.587605 71.904849 
C 277.561862 70.879106 276.344045 70.065386 275.003848 69.510258 
C 273.66365 68.955131 272.227137 68.66939 270.776517 68.66939 
C 269.325898 68.66939 267.889385 68.955131 266.549187 69.510258 
C 265.20899 70.065386 263.991173 70.879106 262.96543 71.904849 
C 261.939687 72.930591 261.125968 74.148409 260.57084 75.488606 
C 260.015712 76.828803 259.729972 78.265317 259.729972 79.715936 
C 259.729972 81.166555 260.015712 82.603069 260.57084 83.943266 
C 261.125968 85.283463 261.939687 86.501281 262.96543 87.527024 
C 263.991173 88.552766 265.20899 89.366486 266.549187 89.921614 
C 267.889385 90.476742 269.325898 90.762482 270.776517 90.762482 
C 272.227137 90.762482 273.66365 90.476742 275.003848 89.921614 
C 276.344045 89.366486 277.561862 88.552766 278.587605 87.527024 
C 279.613348 86.501281 280.427067 85.283463 280.982195 83.943266 
C 281.537323 82.603069 281.823063 81.166555 281.823063 79.715936 
M 270.776517 79.715936 
M 281.823063 79.715936 
z
" clip-path="url(#p4d8e2c5646)" style="fill: #ffa500"/>
   </g>
   <g id="PathCollection_2">
    <path d="M 270.776517 81.952004 
C 271.36953 81.952004 271.938333 81.716398 272.357656 81.297075 
C 272.776979 80.877752 273.012585 80.308948 273.012585 79.715936 
C 273.012585 79.122924 272.776979 78.55412 272.357656 78.134797 
C 271.938333 77.715474 271.36953 77.479868 270.776517 77.479868 
C 270.183505 77.479868 269.614702 77.715474 269.195379 78.134797 
C 268.776056 78.55412 268.54045 79.122924 268.54045 79.715936 
C 268.54045 80.308948 268.776056 80.877752 269.195379 81.297075 
C 269.614702 81.716398 270.183505 81.952004 270.776517 81.952004 
z
" clip-path="url(#p4d8e2c5646)" style="fill: #0000ff"/>
   </g>
   <g id="matplotlib.axis_1">
    <g id="xtick_1">
     <g id="line2d_1">
      <defs>
       <path id="mf95088c40b" d="M 0 0 
L 0 3.5 
" style="stroke: #000000; stroke-width: 0.8"/>
      </defs>
      <g>
       <use xlink:href="#mf95088c40b" x="19.341406" y="183.863769" style="stroke: #000000; stroke-width: 0.8"/>
      </g>
     </g>
     <g id="text_1">
      <!-- −1.0 -->
      <g transform="translate(7.2 198.462207)scale(0.1 -0.1)">
       <defs>
        <path id="DejaVuSans-2212" d="M 678 2272 
L 4684 2272 
L 4684 1741 
L 678 1741 
L 678 2272 
z
" transform="scale(0.015625)"/>
        <path id="DejaVuSans-31" d="M 794 531 
L 1825 531 
L 1825 4091 
L 703 3866 
L 703 4441 
L 1819 4666 
L 2450 4666 
L 2450 531 
L 3481 531 
L 3481 0 
L 794 0 
L 794 531 
z
" transform="scale(0.015625)"/>
        <path id="DejaVuSans-2e" d="M 684 794 
L 1344 794 
L 1344 0 
L 684 0 
L 684 794 
z
" transform="scale(0.015625)"/>
        <path id="DejaVuSans-30" d="M 2034 4250 
Q 1547 4250 1301 3770 
Q 1056 3291 1056 2328 
Q 1056 1369 1301 889 
Q 1547 409 2034 409 
Q 2525 409 2770 889 
Q 3016 1369 3016 2328 
Q 3016 3291 2770 3770 
Q 2525 4250 2034 4250 
z
M 2034 4750 
Q 2819 4750 3233 4129 
Q 3647 3509 3647 2328 
Q 3647 1150 3233 529 
Q 2819 -91 2034 -91 
Q 1250 -91 836 529 
Q 422 1150 422 2328 
Q 422 3509 836 4129 
Q 1250 4750 2034 4750 
z
" transform="scale(0.015625)"/>
       </defs>
       <use xlink:href="#DejaVuSans-2212"/>
       <use xlink:href="#DejaVuSans-31" x="83.789062"/>
       <use xlink:href="#DejaVuSans-2e" x="147.412109"/>
       <use xlink:href="#DejaVuSans-30" x="179.199219"/>
      </g>
     </g>
    </g>
    <g id="xtick_2">
     <g id="line2d_2">
      <g>
       <use xlink:href="#mf95088c40b" x="92.985045" y="183.863769" style="stroke: #000000; stroke-width: 0.8"/>
      </g>
     </g>
     <g id="text_2">
      <!-- −0.5 -->
      <g transform="translate(80.843639 198.462207)scale(0.1 -0.1)">
       <defs>
        <path id="DejaVuSans-35" d="M 691 4666 
L 3169 4666 
L 3169 4134 
L 1269 4134 
L 1269 2991 
Q 1406 3038 1543 3061 
Q 1681 3084 1819 3084 
Q 2600 3084 3056 2656 
Q 3513 2228 3513 1497 
Q 3513 744 3044 326 
Q 2575 -91 1722 -91 
Q 1428 -91 1123 -41 
Q 819 9 494 109 
L 494 744 
Q 775 591 1075 516 
Q 1375 441 1709 441 
Q 2250 441 2565 725 
Q 2881 1009 2881 1497 
Q 2881 1984 2565 2268 
Q 2250 2553 1709 2553 
Q 1456 2553 1204 2497 
Q 953 2441 691 2322 
L 691 4666 
z
" transform="scale(0.015625)"/>
       </defs>
       <use xlink:href="#DejaVuSans-2212"/>
       <use xlink:href="#DejaVuSans-30" x="83.789062"/>
       <use xlink:href="#DejaVuSans-2e" x="147.412109"/>
       <use xlink:href="#DejaVuSans-35" x="179.199219"/>
      </g>
     </g>
    </g>
    <g id="xtick_3">
     <g id="line2d_3">
      <g>
       <use xlink:href="#mf95088c40b" x="166.628684" y="183.863769" style="stroke: #000000; stroke-width: 0.8"/>
      </g>
     </g>
    </g>
    <g id="xtick_4">
     <g id="line2d_4">
      <g>
       <use xlink:href="#mf95088c40b" x="240.272323" y="183.863769" style="stroke: #000000; stroke-width: 0.8"/>
      </g>
     </g>
     <g id="text_3">
      <!-- 0.5 -->
      <g transform="translate(232.320761 198.462207)scale(0.1 -0.1)">
       <use xlink:href="#DejaVuSans-30"/>
       <use xlink:href="#DejaVuSans-2e" x="63.623047"/>
       <use xlink:href="#DejaVuSans-35" x="95.410156"/>
      </g>
     </g>
    </g>
    <g id="xtick_5">
     <g id="line2d_5">
      <g>
       <use xlink:href="#mf95088c40b" x="313.915962" y="183.863769" style="stroke: #000000; stroke-width: 0.8"/>
      </g>
     </g>
     <g id="text_4">
      <!-- 1.0 -->
      <g transform="translate(305.9644 198.462207)scale(0.1 -0.1)">
       <use xlink:href="#DejaVuSans-31"/>
       <use xlink:href="#DejaVuSans-2e" x="63.623047"/>
       <use xlink:href="#DejaVuSans-30" x="95.410156"/>
      </g>
     </g>
    </g>
    <g id="xtick_6">
     <g id="line2d_6">
      <defs>
       <path id="m74a66c095b" d="M 0 0 
L 0 2 
" style="stroke: #000000; stroke-width: 0.6"/>
      </defs>
      <g>
       <use xlink:href="#m74a66c095b" x="34.070134" y="183.863769" style="stroke: #000000; stroke-width: 0.6"/>
      </g>
     </g>
    </g>
    <g id="xtick_7">
     <g id="line2d_7">
      <g>
       <use xlink:href="#m74a66c095b" x="48.798862" y="183.863769" style="stroke: #000000; stroke-width: 0.6"/>
      </g>
     </g>
    </g>
    <g id="xtick_8">
     <g id="line2d_8">
      <g>
       <use xlink:href="#m74a66c095b" x="63.52759" y="183.863769" style="stroke: #000000; stroke-width: 0.6"/>
      </g>
     </g>
    </g>
    <g id="xtick_9">
     <g id="line2d_9">
      <g>
       <use xlink:href="#m74a66c095b" x="78.256317" y="183.863769" style="stroke: #000000; stroke-width: 0.6"/>
      </g>
     </g>
    </g>
    <g id="xtick_10">
     <g id="line2d_10">
      <g>
       <use xlink:href="#m74a66c095b" x="107.713773" y="183.863769" style="stroke: #000000; stroke-width: 0.6"/>
      </g>
     </g>
    </g>
    <g id="xtick_11">
     <g id="line2d_11">
      <g>
       <use xlink:href="#m74a66c095b" x="122.442501" y="183.863769" style="stroke: #000000; stroke-width: 0.6"/>
      </g>
     </g>
    </g>
    <g id="xtick_12">
     <g id="line2d_12">
      <g>
       <use xlink:href="#m74a66c095b" x="137.171229" y="183.863769" style="stroke: #000000; stroke-width: 0.6"/>
      </g>
     </g>
    </g>
    <g id="xtick_13">
     <g id="line2d_13">
      <g>
       <use xlink:href="#m74a66c095b" x="151.899957" y="183.863769" style="stroke: #000000; stroke-width: 0.6"/>
      </g>
     </g>
    </g>
    <g id="xtick_14">
     <g id="line2d_14">
      <g>
       <use xlink:href="#m74a66c095b" x="181.357412" y="183.863769" style="stroke: #000000; stroke-width: 0.6"/>
      </g>
     </g>
    </g>
    <g id="xtick_15">
     <g id="line2d_15">
      <g>
       <use xlink:href="#m74a66c095b" x="196.08614" y="183.863769" style="stroke: #000000; stroke-width: 0.6"/>
      </g>
     </g>
    </g>
    <g id="xtick_16">
     <g id="line2d_16">
      <g>
       <use xlink:href="#m74a66c095b" x="210.814868" y="183.863769" style="stroke: #000000; stroke-width: 0.6"/>
      </g>
     </g>
    </g>
    <g id="xtick_17">
     <g id="line2d_17">
      <g>
       <use xlink:href="#m74a66c095b" x="225.543596" y="183.863769" style="stroke: #000000; stroke-width: 0.6"/>
      </g>
     </g>
    </g>
    <g id="xtick_18">
     <g id="line2d_18">
      <g>
       <use xlink:href="#m74a66c095b" x="255.001051" y="183.863769" style="stroke: #000000; stroke-width: 0.6"/>
      </g>
     </g>
    </g>
    <g id="xtick_19">
     <g id="line2d_19">
      <g>
       <use xlink:href="#m74a66c095b" x="269.729779" y="183.863769" style="stroke: #000000; stroke-width: 0.6"/>
      </g>
     </g>
    </g>
    <g id="xtick_20">
     <g id="line2d_20">
      <g>
       <use xlink:href="#m74a66c095b" x="284.458507" y="183.863769" style="stroke: #000000; stroke-width: 0.6"/>
      </g>
     </g>
    </g>
    <g id="xtick_21">
     <g id="line2d_21">
      <g>
       <use xlink:href="#m74a66c095b" x="299.187235" y="183.863769" style="stroke: #000000; stroke-width: 0.6"/>
      </g>
     </g>
    </g>
    <g id="text_5">
     <!-- $x$ -->
     <g transform="translate(327.807454 183.863769)scale(0.16 -0.16)">
      <defs>
       <path id="Cmmi10-78" d="M 500 184 
Q 613 97 819 97 
Q 1019 97 1172 289 
Q 1325 481 1381 709 
L 1672 1844 
Q 1741 2153 1741 2266 
Q 1741 2425 1652 2544 
Q 1563 2663 1403 2663 
Q 1200 2663 1022 2536 
Q 844 2409 722 2214 
Q 600 2019 550 1819 
Q 538 1778 500 1778 
L 422 1778 
Q 372 1778 372 1838 
L 372 1856 
Q 434 2094 584 2320 
Q 734 2547 951 2687 
Q 1169 2828 1416 2828 
Q 1650 2828 1839 2703 
Q 2028 2578 2106 2363 
Q 2216 2559 2386 2693 
Q 2556 2828 2759 2828 
Q 2897 2828 3040 2779 
Q 3184 2731 3275 2631 
Q 3366 2531 3366 2381 
Q 3366 2219 3261 2101 
Q 3156 1984 2994 1984 
Q 2891 1984 2822 2050 
Q 2753 2116 2753 2216 
Q 2753 2350 2845 2451 
Q 2938 2553 3066 2572 
Q 2950 2663 2747 2663 
Q 2541 2663 2389 2472 
Q 2238 2281 2175 2047 
L 1894 916 
Q 1825 659 1825 494 
Q 1825 331 1917 214 
Q 2009 97 2163 97 
Q 2463 97 2698 361 
Q 2934 625 3009 941 
Q 3022 978 3059 978 
L 3138 978 
Q 3163 978 3178 961 
Q 3194 944 3194 922 
Q 3194 916 3188 903 
Q 3097 522 2806 225 
Q 2516 -72 2150 -72 
Q 1916 -72 1727 54 
Q 1538 181 1459 397 
Q 1359 209 1182 68 
Q 1006 -72 806 -72 
Q 669 -72 523 -23 
Q 378 25 287 125 
Q 197 225 197 378 
Q 197 528 301 651 
Q 406 775 563 775 
Q 669 775 741 711 
Q 813 647 813 544 
Q 813 409 723 309 
Q 634 209 500 184 
z
" transform="scale(0.015625)"/>
      </defs>
      <use xlink:href="#Cmmi10-78" transform="translate(0 0.8125)"/>
     </g>
    </g>
   </g>
   <g id="matplotlib.axis_2">
    <g id="ytick_1">
     <g id="line2d_22">
      <defs>
       <path id="m66af38c5e9" d="M 0 0 
L -3.5 0 
" style="stroke: #000000; stroke-width: 0.8"/>
      </defs>
      <g>
       <use xlink:href="#m66af38c5e9" x="166.628684" y="331.151047" style="stroke: #000000; stroke-width: 0.8"/>
      </g>
     </g>
     <g id="text_6">
      <!-- −1.0 -->
      <g transform="translate(135.345872 334.950266)scale(0.1 -0.1)">
       <use xlink:href="#DejaVuSans-2212"/>
       <use xlink:href="#DejaVuSans-31" x="83.789062"/>
       <use xlink:href="#DejaVuSans-2e" x="147.412109"/>
       <use xlink:href="#DejaVuSans-30" x="179.199219"/>
      </g>
     </g>
    </g>
    <g id="ytick_2">
     <g id="line2d_23">
      <g>
       <use xlink:href="#m66af38c5e9" x="166.628684" y="257.507408" style="stroke: #000000; stroke-width: 0.8"/>
      </g>
     </g>
     <g id="text_7">
      <!-- −0.5 -->
      <g transform="translate(135.345872 261.306627)scale(0.1 -0.1)">
       <use xlink:href="#DejaVuSans-2212"/>
       <use xlink:href="#DejaVuSans-30" x="83.789062"/>
       <use xlink:href="#DejaVuSans-2e" x="147.412109"/>
       <use xlink:href="#DejaVuSans-35" x="179.199219"/>
      </g>
     </g>
    </g>
    <g id="ytick_3">
     <g id="line2d_24">
      <g>
       <use xlink:href="#m66af38c5e9" x="166.628684" y="183.863769" style="stroke: #000000; stroke-width: 0.8"/>
      </g>
     </g>
    </g>
    <g id="ytick_4">
     <g id="line2d_25">
      <g>
       <use xlink:href="#m66af38c5e9" x="166.628684" y="110.22013" style="stroke: #000000; stroke-width: 0.8"/>
      </g>
     </g>
     <g id="text_8">
      <!-- 0.5 -->
      <g transform="translate(143.725559 114.019349)scale(0.1 -0.1)">
       <use xlink:href="#DejaVuSans-30"/>
       <use xlink:href="#DejaVuSans-2e" x="63.623047"/>
       <use xlink:href="#DejaVuSans-35" x="95.410156"/>
      </g>
     </g>
    </g>
    <g id="ytick_5">
     <g id="line2d_26">
      <g>
       <use xlink:href="#m66af38c5e9" x="166.628684" y="36.576491" style="stroke: #000000; stroke-width: 0.8"/>
      </g>
     </g>
     <g id="text_9">
      <!-- 1.0 -->
      <g transform="translate(143.725559 40.37571)scale(0.1 -0.1)">
       <use xlink:href="#DejaVuSans-31"/>
       <use xlink:href="#DejaVuSans-2e" x="63.623047"/>
       <use xlink:href="#DejaVuSans-30" x="95.410156"/>
      </g>
     </g>
    </g>
    <g id="ytick_6">
     <g id="line2d_27">
      <defs>
       <path id="mdf2554ac12" d="M 0 0 
L -2 0 
" style="stroke: #000000; stroke-width: 0.6"/>
      </defs>
      <g>
       <use xlink:href="#mdf2554ac12" x="166.628684" y="316.42232" style="stroke: #000000; stroke-width: 0.6"/>
      </g>
     </g>
    </g>
    <g id="ytick_7">
     <g id="line2d_28">
      <g>
       <use xlink:href="#mdf2554ac12" x="166.628684" y="301.693592" style="stroke: #000000; stroke-width: 0.6"/>
      </g>
     </g>
    </g>
    <g id="ytick_8">
     <g id="line2d_29">
      <g>
       <use xlink:href="#mdf2554ac12" x="166.628684" y="286.964864" style="stroke: #000000; stroke-width: 0.6"/>
      </g>
     </g>
    </g>
    <g id="ytick_9">
     <g id="line2d_30">
      <g>
       <use xlink:href="#mdf2554ac12" x="166.628684" y="272.236136" style="stroke: #000000; stroke-width: 0.6"/>
      </g>
     </g>
    </g>
    <g id="ytick_10">
     <g id="line2d_31">
      <g>
       <use xlink:href="#mdf2554ac12" x="166.628684" y="242.77868" style="stroke: #000000; stroke-width: 0.6"/>
      </g>
     </g>
    </g>
    <g id="ytick_11">
     <g id="line2d_32">
      <g>
       <use xlink:href="#mdf2554ac12" x="166.628684" y="228.049953" style="stroke: #000000; stroke-width: 0.6"/>
      </g>
     </g>
    </g>
    <g id="ytick_12">
     <g id="line2d_33">
      <g>
       <use xlink:href="#mdf2554ac12" x="166.628684" y="213.321225" style="stroke: #000000; stroke-width: 0.6"/>
      </g>
     </g>
    </g>
    <g id="ytick_13">
     <g id="line2d_34">
      <g>
       <use xlink:href="#mdf2554ac12" x="166.628684" y="198.592497" style="stroke: #000000; stroke-width: 0.6"/>
      </g>
     </g>
    </g>
    <g id="ytick_14">
     <g id="line2d_35">
      <g>
       <use xlink:href="#mdf2554ac12" x="166.628684" y="169.135041" style="stroke: #000000; stroke-width: 0.6"/>
      </g>
     </g>
    </g>
    <g id="ytick_15">
     <g id="line2d_36">
      <g>
       <use xlink:href="#mdf2554ac12" x="166.628684" y="154.406314" style="stroke: #000000; stroke-width: 0.6"/>
      </g>
     </g>
    </g>
    <g id="ytick_16">
     <g id="line2d_37">
      <g>
       <use xlink:href="#mdf2554ac12" x="166.628684" y="139.677586" style="stroke: #000000; stroke-width: 0.6"/>
      </g>
     </g>
    </g>
    <g id="ytick_17">
     <g id="line2d_38">
      <g>
       <use xlink:href="#mdf2554ac12" x="166.628684" y="124.948858" style="stroke: #000000; stroke-width: 0.6"/>
      </g>
     </g>
    </g>
    <g id="ytick_18">
     <g id="line2d_39">
      <g>
       <use xlink:href="#mdf2554ac12" x="166.628684" y="95.491402" style="stroke: #000000; stroke-width: 0.6"/>
      </g>
     </g>
    </g>
    <g id="ytick_19">
     <g id="line2d_40">
      <g>
       <use xlink:href="#mdf2554ac12" x="166.628684" y="80.762675" style="stroke: #000000; stroke-width: 0.6"/>
      </g>
     </g>
    </g>
    <g id="ytick_20">
     <g id="line2d_41">
      <g>
       <use xlink:href="#mdf2554ac12" x="166.628684" y="66.033947" style="stroke: #000000; stroke-width: 0.6"/>
      </g>
     </g>
    </g>
    <g id="ytick_21">
     <g id="line2d_42">
      <g>
       <use xlink:href="#mdf2554ac12" x="166.628684" y="51.305219" style="stroke: #000000; stroke-width: 0.6"/>
      </g>
     </g>
    </g>
    <g id="text_10">
     <!-- $y$ -->
     <g transform="translate(162.628684 19.325)scale(0.16 -0.16)">
      <defs>
       <path id="Cmmi10-79" d="M 538 -916 
Q 672 -1147 1006 -1147 
Q 1309 -1147 1531 -934 
Q 1753 -722 1889 -420 
Q 2025 -119 2100 197 
Q 1816 -72 1484 -72 
Q 1231 -72 1053 15 
Q 875 103 776 276 
Q 678 450 678 697 
Q 678 906 734 1126 
Q 791 1347 892 1617 
Q 994 1888 1069 2088 
Q 1153 2322 1153 2472 
Q 1153 2663 1013 2663 
Q 759 2663 595 2402 
Q 431 2141 353 1819 
Q 341 1778 300 1778 
L 225 1778 
Q 172 1778 172 1838 
L 172 1856 
Q 275 2238 487 2533 
Q 700 2828 1025 2828 
Q 1253 2828 1411 2678 
Q 1569 2528 1569 2297 
Q 1569 2178 1516 2047 
Q 1488 1969 1388 1706 
Q 1288 1444 1234 1272 
Q 1181 1100 1147 934 
Q 1113 769 1113 603 
Q 1113 391 1203 244 
Q 1294 97 1491 97 
Q 1888 97 2203 581 
L 2688 2553 
Q 2709 2638 2787 2698 
Q 2866 2759 2956 2759 
Q 3034 2759 3092 2709 
Q 3150 2659 3150 2578 
Q 3150 2541 3144 2528 
L 2509 -19 
Q 2425 -347 2200 -647 
Q 1975 -947 1658 -1130 
Q 1341 -1313 997 -1313 
Q 831 -1313 668 -1248 
Q 506 -1184 406 -1056 
Q 306 -928 306 -756 
Q 306 -581 409 -453 
Q 513 -325 684 -325 
Q 788 -325 858 -389 
Q 928 -453 928 -556 
Q 928 -703 818 -812 
Q 709 -922 563 -922 
Q 556 -919 550 -917 
Q 544 -916 538 -916 
z
" transform="scale(0.015625)"/>
      </defs>
      <use xlink:href="#Cmmi10-79" transform="translate(0 0.8125)"/>
     </g>
    </g>
   </g>
   <g id="line2d_43">
    <path d="M 313.915962 183.863769 
L 313.877497 180.497847 
L 313.422233 171.814029 
L 312.864006 166.291833 
L 311.727448 158.567699 
L 311.239814 155.914467 
L 309.602823 148.481034 
L 308.621206 144.727262 
L 306.58342 137.970258 
L 304.274493 131.450281 
L 302.740737 127.587207 
L 299.414232 120.133551 
L 296.884319 115.1105 
L 294.204496 110.257012 
L 289.331938 102.393199 
L 286.108583 97.7354 
L 281.537695 91.725495 
L 276.519423 85.79457 
L 273.347992 82.35253 
L 266.911929 75.989707 
L 264.337857 73.652791 
L 260.197202 70.116352 
L 253.924941 65.23449 
L 246.484528 60.103572 
L 241.710888 57.150688 
L 234.573736 53.184727 
L 228.26256 50.092294 
L 221.140491 47.035391 
L 216.894498 45.41923 
L 212.664403 43.955746 
L 207.53494 42.370941 
L 201.243262 40.701717 
L 195.178442 39.369985 
L 189.234652 38.321636 
L 180.178617 37.20109 
L 175.11941 36.821429 
L 166.820916 36.576617 
L 158.041165 36.82705 
L 153.813211 37.135088 
L 148.088911 37.747996 
L 139.634915 39.071232 
L 130.086179 41.181648 
L 121.733976 43.585448 
L 114.062213 46.276312 
L 109.627351 48.053643 
L 105.986744 49.639713 
L 99.099287 52.96945 
L 95.607543 54.830674 
L 91.035438 57.454895 
L 84.928521 61.313267 
L 81.248068 63.848384 
L 76.752182 67.177195 
L 72.593433 70.501898 
L 65.342742 76.930612 
L 60.60311 81.62816 
L 57.026217 85.472502 
L 52.608824 90.627436 
L 46.847079 98.155489 
L 44.91359 100.924164 
L 42.381598 104.767601 
L 38.445092 111.320616 
L 35.440987 116.906092 
L 33.204246 121.482189 
L 31.501786 125.26118 
L 29.575084 129.920717 
L 27.755866 134.793588 
L 26.159093 139.57115 
L 23.757128 148.069069 
L 22.679335 152.684814 
L 21.411106 159.258951 
L 20.245009 167.573836 
L 19.997625 169.975836 
L 19.537005 176.275602 
L 19.35028 182.247033 
L 19.451 189.544566 
L 20.009 197.871285 
L 20.458498 201.96954 
L 21.556804 209.313562 
L 22.65935 214.950309 
L 24.684467 223.175108 
L 25.301943 225.3402 
L 26.703837 229.848325 
L 28.608572 235.283521 
L 30.903051 241.065997 
L 34.001567 247.923039 
L 37.426706 254.577213 
L 39.148349 257.635758 
L 42.491301 263.131999 
L 45.104877 267.083398 
L 47.610243 270.628699 
L 50.219006 274.098624 
L 54.294823 279.124705 
L 58.244904 283.595903 
L 63.390773 288.913643 
L 70.591485 295.534708 
L 74.293229 298.614394 
L 78.821869 302.115642 
L 83.317758 305.325005 
L 86.33289 307.33898 
L 90.520159 309.963074 
L 97.471529 313.905417 
L 103.730555 317.045478 
L 110.780059 320.151969 
L 114.065588 321.452516 
L 118.168163 322.950505 
L 127.022618 325.726033 
L 135.511598 327.826505 
L 140.239614 328.767735 
L 147.040608 329.842705 
L 151.848508 330.407581 
L 159.95507 330.999778 
L 165.200002 331.144118 
L 170.057033 331.111142 
L 179.173831 330.61581 
L 186.714357 329.775071 
L 191.138149 329.097472 
L 200.890697 327.110608 
L 205.015896 326.06069 
L 209.17239 324.872902 
L 218.360626 321.767172 
L 223.830381 319.589626 
L 231.411455 316.138993 
L 236.862671 313.327005 
L 240.050373 311.54618 
L 248.074554 306.583419 
L 251.482789 304.251988 
L 260.00238 297.771167 
L 263.920145 294.443668 
L 268.953216 289.803528 
L 273.811629 284.885345 
L 279.644205 278.314997 
L 281.760814 275.723091 
L 285.733968 270.509449 
L 288.275395 266.90364 
L 290.816841 263.05243 
L 294.228121 257.429564 
L 296.498461 253.343143 
L 298.843869 248.768987 
L 303.095194 239.275267 
L 306.599297 229.708832 
L 307.376421 227.264423 
L 309.35143 220.247285 
L 310.104849 217.152394 
L 311.240577 211.809126 
L 312.000532 207.54009 
L 313.250415 197.849844 
L 313.579305 193.816529 
L 313.915962 183.863769 
L 313.915962 183.863769 
" clip-path="url(#p4d8e2c5646)" style="fill: none; stroke-dasharray: 3.7,1.6; stroke-dashoffset: 0; stroke: #0000ff"/>
   </g>
   <g id="patch_6">
    <path d="M 166.628684 337.042538 
L 166.628684 30.685 
" style="fill: none; stroke: #000000; stroke-width: 0.8; stroke-linejoin: miter; stroke-linecap: square"/>
   </g>
   <g id="patch_7">
    <path d="M 13.449915 183.863769 
L 319.807454 183.863769 
" style="fill: none; stroke: #000000; stroke-width: 0.8; stroke-linejoin: miter; stroke-linecap: square"/>
   </g>
   <g id="text_11">
    <!-- $P$ -->
    <g transform="translate(102.838773 138.907072)scale(0.15 -0.15)">
     <defs>
      <path id="Cmmi10-50" d="M 313 0 
Q 250 0 250 84 
Q 253 100 262 139 
Q 272 178 289 201 
Q 306 225 331 225 
Q 722 225 878 269 
Q 959 297 997 441 
L 1875 3956 
Q 1888 4019 1888 4044 
Q 1888 4113 1813 4122 
Q 1691 4147 1350 4147 
Q 1288 4147 1288 4231 
Q 1291 4247 1300 4286 
Q 1309 4325 1326 4348 
Q 1344 4372 1369 4372 
L 3578 4372 
Q 3881 4372 4165 4264 
Q 4450 4156 4631 3934 
Q 4813 3713 4813 3397 
Q 4813 2991 4527 2672 
Q 4241 2353 3814 2175 
Q 3388 1997 2988 1997 
L 1947 1997 
L 1556 416 
Q 1544 353 1544 325 
Q 1544 300 1551 283 
Q 1559 266 1573 261 
Q 1588 256 1619 250 
Q 1741 225 2081 225 
Q 2144 225 2144 141 
Q 2122 50 2109 25 
Q 2097 0 2034 0 
L 313 0 
z
M 1978 2188 
L 2875 2188 
Q 3497 2188 3822 2522 
Q 3988 2688 4092 3000 
Q 4197 3313 4197 3566 
Q 4197 3881 3956 4014 
Q 3716 4147 3359 4147 
L 2747 4147 
Q 2572 4147 2515 4117 
Q 2459 4088 2413 3928 
L 1978 2188 
z
" transform="scale(0.015625)"/>
     </defs>
     <use xlink:href="#Cmmi10-50" transform="translate(0 0.6875)"/>
    </g>
   </g>
   <g id="text_12">
    <!-- $Q$ -->
    <g transform="translate(278.458507 70.173009)scale(0.15 -0.15)">
     <defs>
      <path id="Cmmi10-51" d="M 1947 -141 
Q 1466 -141 1094 79 
Q 722 300 520 692 
Q 319 1084 319 1563 
Q 319 2259 714 2950 
Q 1109 3641 1756 4077 
Q 2403 4513 3109 4513 
Q 3475 4513 3778 4381 
Q 4081 4250 4290 4017 
Q 4500 3784 4614 3471 
Q 4728 3159 4728 2791 
Q 4728 2366 4581 1936 
Q 4434 1506 4171 1136 
Q 3909 766 3559 484 
Q 3209 203 2809 38 
Q 2850 -256 2934 -425 
Q 3019 -594 3256 -594 
Q 3506 -594 3726 -412 
Q 3947 -231 4006 13 
Q 4019 72 4078 72 
Q 4147 72 4147 -13 
Q 4100 -219 4008 -430 
Q 3916 -641 3786 -823 
Q 3656 -1006 3478 -1123 
Q 3300 -1241 3084 -1241 
Q 2547 -1241 2547 -550 
Q 2547 -509 2562 -332 
Q 2578 -156 2578 -44 
Q 2269 -141 1947 -141 
z
M 1709 300 
Q 1709 44 1991 44 
Q 2275 44 2591 184 
L 2591 244 
Q 2591 503 2509 648 
Q 2428 794 2194 794 
Q 2078 794 1964 723 
Q 1850 653 1779 539 
Q 1709 425 1709 300 
z
M 1544 288 
Q 1544 456 1637 612 
Q 1731 769 1881 864 
Q 2031 959 2203 959 
Q 2481 959 2607 771 
Q 2734 584 2778 281 
Q 3188 525 3500 978 
Q 3813 1431 3977 1973 
Q 4141 2516 4141 3003 
Q 4141 3356 4023 3656 
Q 3906 3956 3664 4140 
Q 3422 4325 3066 4325 
Q 2722 4325 2403 4156 
Q 2084 3988 1813 3706 
Q 1550 3434 1342 3032 
Q 1134 2631 1021 2193 
Q 909 1756 909 1356 
Q 909 947 1068 612 
Q 1228 278 1569 128 
Q 1544 194 1544 288 
z
" transform="scale(0.015625)"/>
     </defs>
     <use xlink:href="#Cmmi10-51" transform="translate(0 0.484375)"/>
    </g>
   </g>
  </g>
 </g>
 <defs>
  <clipPath id="p4d8e2c5646">
   <rect x="13.449915" y="30.685" width="306.357538" height="306.357538"/>
  </clipPath>
 </defs>
</svg>
