<?xml version="1.0" encoding="utf-8" standalone="no"?>
<!DOCTYPE svg PUBLIC "-//W3C//DTD SVG 1.1//EN"
  "http://www.w3.org/Graphics/SVG/1.1/DTD/svg11.dtd">
<svg xmlns:xlink="http://www.w3.org/1999/xlink" width="453.6pt" height="329.766071pt" viewBox="0 0 453.6 329.766071" xmlns="http://www.w3.org/2000/svg" version="1.1">
 <metadata>
  <rdf:RDF xmlns:dc="http://purl.org/dc/elements/1.1/" xmlns:cc="http://creativecommons.org/ns#" xmlns:rdf="http://www.w3.org/1999/02/22-rdf-syntax-ns#">
   <cc:Work>
    <dc:type rdf:resource="http://purl.org/dc/dcmitype/StillImage"/>
    <dc:date>2025-03-12T13:53:42.124638</dc:date>
    <dc:format>image/svg+xml</dc:format>
    <dc:creator>
     <cc:Agent>
      <dc:title>Matplotlib v3.10.1, https://matplotlib.org/</dc:title>
     </cc:Agent>
    </dc:creator>
   </cc:Work>
  </rdf:RDF>
 </metadata>
 <defs>
  <style type="text/css">*{stroke-linejoin: round; stroke-linecap: butt}</style>
 </defs>
 <g id="figure_1">
  <g id="patch_1">
   <path d="M 0 329.766071 
L 453.6 329.766071 
L 453.6 0 
L 0 0 
z
" style="fill: #ffffff"/>
  </g>
  <g id="axes_1">
   <g id="patch_2">
    <path d="M 7.2 322.566071 
L 446.4 322.566071 
L 446.4 7.2 
L 7.2 7.2 
z
" style="fill: #ffffff"/>
   </g>
   <g id="PathCollection_1">
    <path d="M 230.711488 134.535697 
C 231.437776 134.535697 232.134416 134.24714 232.647979 133.733576 
C 233.161543 133.220013 233.450101 132.523373 233.450101 131.797085 
C 233.450101 131.070796 233.161543 130.374157 232.647979 129.860593 
C 232.134416 129.347029 231.437776 129.058472 230.711488 129.058472 
C 229.985199 129.058472 229.28856 129.347029 228.774996 129.860593 
C 228.261433 130.374157 227.972875 131.070796 227.972875 131.797085 
C 227.972875 132.523373 228.261433 133.220013 228.774996 133.733576 
C 229.28856 134.24714 229.985199 134.535697 230.711488 134.535697 
z
" clip-path="url(#p106d408207)"/>
   </g>
   <g id="matplotlib.axis_1"/>
   <g id="matplotlib.axis_2"/>
   <g id="line2d_1">
    <path d="M 15.646154 316.501339 
L 15.740342 306.955193 
L 15.956859 300.692445 
L 16.35781 294.388459 
L 17.068573 287.480851 
L 18.045869 281.034206 
L 19.090854 275.845877 
L 20.252395 271.182241 
L 21.822619 265.979582 
L 23.340526 261.725901 
L 24.7743 258.190356 
L 26.656354 254.066556 
L 28.442707 250.56239 
L 30.532126 246.850376 
L 33.130321 242.684154 
L 36.189761 238.269369 
L 39.465698 233.995559 
L 42.973518 229.82477 
L 46.208516 226.27643 
L 50.287374 222.133208 
L 54.446647 218.220423 
L 60.150904 213.269152 
L 65.908019 208.666598 
L 70.653491 205.117819 
L 75.785761 201.490069 
L 81.864576 197.434924 
L 87.933593 193.610026 
L 95.459577 189.130832 
L 104.124995 184.279572 
L 110.633481 180.819731 
L 121.266152 175.455311 
L 130.23013 171.170551 
L 141.554574 166.01977 
L 155.15508 160.15936 
L 168.241085 154.800049 
L 178.331487 150.825515 
L 193.513895 145.063934 
L 207.372985 139.997859 
L 229.201284 132.317166 
L 250.951628 124.939407 
L 278.217333 115.94539 
L 343.668972 94.525652 
L 360.967814 88.611995 
L 374.894811 83.643857 
L 387.479652 78.90657 
L 396.601475 75.255099 
L 404.059016 72.074033 
L 411.550175 68.624582 
L 416.953048 65.909128 
L 422.20637 62.995264 
L 426.289757 60.44669 
L 429.038737 58.51389 
L 431.8704 56.228131 
L 433.810586 54.372637 
L 435.293561 52.664076 
L 436.38532 51.092678 
L 437.20016 49.525335 
L 437.732037 47.935938 
L 437.931211 46.693875 
L 437.940663 45.570347 
L 437.761104 44.354715 
L 437.431834 43.279582 
L 436.916451 42.167009 
L 435.949941 40.69385 
L 434.917991 39.498309 
L 433.797155 38.42685 
L 431.772647 36.832727 
L 429.449355 35.326013 
L 426.847693 33.890527 
L 422.8723 32.025181 
L 418.536971 30.289274 
L 412.839777 28.322112 
L 405.741406 26.210861 
L 398.260788 24.270107 
L 389.976657 22.366101 
L 381.695028 20.656663 
L 369.772586 18.453723 
L 356.239542 16.233469 
L 342.184983 14.167552 
L 335.576128 13.264732 
L 335.576128 13.264732 
" clip-path="url(#p106d408207)" style="fill: none; stroke: #000000; stroke-width: 2; stroke-linecap: square"/>
   </g>
   <g id="patch_3">
    <path d="M 230.711488 131.797085 
Q 307.327815 105.445031 381.829651 79.820252 
" clip-path="url(#p106d408207)" style="fill: none; stroke: #800080; stroke-width: 2; stroke-linecap: round"/>
    <path d="M 370.747125 78.344582 
L 381.829651 79.820252 
L 373.999599 87.800871 
z
" clip-path="url(#p106d408207)" style="fill: #800080; stroke: #800080; stroke-width: 2; stroke-linecap: round"/>
   </g>
   <g id="patch_4">
    <path d="M 230.711488 131.797085 
Q 257.063542 208.413412 282.68832 282.915248 
" clip-path="url(#p106d408207)" style="fill: none; stroke: #ff0000; stroke-width: 2; stroke-linecap: round"/>
    <path d="M 284.163991 271.832721 
L 282.68832 282.915248 
L 274.707701 275.085196 
z
" clip-path="url(#p106d408207)" style="fill: #ff0000; stroke: #ff0000; stroke-width: 2; stroke-linecap: round"/>
   </g>
   <g id="patch_5">
    <path d="M 230.711488 131.797085 
Q 276.338464 116.103764 319.85095 101.13772 
" clip-path="url(#p106d408207)" style="fill: none; stroke: #0000ff; stroke-width: 2; stroke-linecap: round"/>
    <path d="M 308.768424 99.662049 
L 319.85095 101.13772 
L 312.020898 109.118339 
z
" clip-path="url(#p106d408207)" style="fill: #0000ff; stroke: #0000ff; stroke-width: 2; stroke-linecap: round"/>
   </g>
   <g id="patch_6">
    <path d="M 230.711488 131.797085 
Q 244.370199 171.508612 257.301635 209.105649 
" clip-path="url(#p106d408207)" style="fill: none; stroke: #ffa500; stroke-width: 2; stroke-linecap: round"/>
    <path d="M 258.777306 198.023122 
L 257.301635 209.105649 
L 249.321016 201.275596 
z
" clip-path="url(#p106d408207)" style="fill: #ffa500; stroke: #ffa500; stroke-width: 2; stroke-linecap: round"/>
   </g>
   <g id="patch_7">
    <path d="M 230.711488 131.797085 
Q 289.997176 155.815292 347.210411 178.993893 
" clip-path="url(#p106d408207)" style="fill: none; stroke: #008000; stroke-width: 2; stroke-linecap: round"/>
    <path d="M 339.819534 170.604915 
L 347.210411 178.993893 
L 336.064703 179.873208 
z
" clip-path="url(#p106d408207)" style="fill: #008000; stroke: #008000; stroke-width: 2; stroke-linecap: round"/>
   </g>
  </g>
 </g>
 <defs>
  <clipPath id="p106d408207">
   <rect x="7.2" y="7.2" width="439.2" height="315.366071"/>
  </clipPath>
 </defs>
</svg>
