<?xml version="1.0" encoding="utf-8" standalone="no"?>
<!DOCTYPE svg PUBLIC "-//W3C//DTD SVG 1.1//EN"
  "http://www.w3.org/Graphics/SVG/1.1/DTD/svg11.dtd">
<svg xmlns:xlink="http://www.w3.org/1999/xlink" width="453.6pt" height="236.332883pt" viewBox="0 0 453.6 236.332883" xmlns="http://www.w3.org/2000/svg" version="1.1">
 <metadata>
  <rdf:RDF xmlns:dc="http://purl.org/dc/elements/1.1/" xmlns:cc="http://creativecommons.org/ns#" xmlns:rdf="http://www.w3.org/1999/02/22-rdf-syntax-ns#">
   <cc:Work>
    <dc:type rdf:resource="http://purl.org/dc/dcmitype/StillImage"/>
    <dc:date>2025-03-12T13:53:54.656031</dc:date>
    <dc:format>image/svg+xml</dc:format>
    <dc:creator>
     <cc:Agent>
      <dc:title>Matplotlib v3.10.1, https://matplotlib.org/</dc:title>
     </cc:Agent>
    </dc:creator>
   </cc:Work>
  </rdf:RDF>
 </metadata>
 <defs>
  <style type="text/css">*{stroke-linejoin: round; stroke-linecap: butt}</style>
 </defs>
 <g id="figure_1">
  <g id="patch_1">
   <path d="M 0 236.332883 
L 453.6 236.332883 
L 453.6 0 
L 0 0 
z
" style="fill: #ffffff"/>
  </g>
  <g id="axes_1">
   <g id="patch_2">
    <path d="M 7.2 229.132883 
L 446.4 229.132883 
L 446.4 7.2 
L 7.2 7.2 
z
" style="fill: #ffffff"/>
   </g>
   <g id="PathCollection_1">
    <path d="M 411.548101 52.082406 
C 412.485736 52.082406 413.385093 51.70988 414.048101 51.046872 
C 414.711109 50.383864 415.083635 49.484506 415.083635 48.546872 
C 415.083635 47.609237 414.711109 46.70988 414.048101 46.046872 
C 413.385093 45.383864 412.485736 45.011338 411.548101 45.011338 
C 410.610467 45.011338 409.711109 45.383864 409.048101 46.046872 
C 408.385093 46.70988 408.012567 47.609237 408.012567 48.546872 
C 408.012567 49.484506 408.385093 50.383864 409.048101 51.046872 
C 409.711109 51.70988 410.610467 52.082406 411.548101 52.082406 
z
" clip-path="url(#p588c9de9af)"/>
   </g>
   <g id="matplotlib.axis_1"/>
   <g id="matplotlib.axis_2"/>
   <g id="line2d_1">
    <path d="M 437.953846 75.115234 
L 435.39639 71.751028 
L 431.108549 66.609494 
L 427.317006 62.495918 
L 422.659471 57.901449 
L 419.002244 54.595894 
L 416.3505 52.345133 
L 410.411266 47.695937 
L 405.320159 44.090174 
L 401.240866 41.423268 
L 396.577149 38.592214 
L 388.700654 34.282162 
L 383.469055 31.712388 
L 376.439612 28.588427 
L 371.462144 26.585409 
L 363.565861 23.732248 
L 357.682646 21.845637 
L 350.676167 19.844793 
L 342.73687 17.878094 
L 335.596465 16.363419 
L 328.454167 15.073976 
L 320.591495 13.90051 
L 312.112421 12.90803 
L 306.249233 12.379448 
L 295.722097 11.738289 
L 288.772272 11.522789 
L 281.145516 11.46883 
L 274.112991 11.583085 
L 263.876885 12.021685 
L 252.261472 12.898008 
L 245.98318 13.53486 
L 234.488573 14.991073 
L 223.888459 16.6614 
L 214.655756 18.369175 
L 203.829831 20.669938 
L 192.72197 23.365628 
L 187.047734 24.874435 
L 175.134274 28.335992 
L 164.666608 31.712277 
L 158.452383 33.868706 
L 149.397584 37.219923 
L 139.530186 41.164797 
L 128.926113 45.763078 
L 123.309791 48.357654 
L 113.886231 52.975142 
L 104.077779 58.159721 
L 95.266054 63.180404 
L 87.165679 68.134072 
L 77.920548 74.238081 
L 71.470343 78.822884 
L 64.862229 83.843234 
L 60.011569 87.768348 
L 56.46565 90.784762 
L 50.031206 96.629058 
L 45.179061 101.414804 
L 41.149168 105.696428 
L 38.022927 109.252146 
L 34.058466 114.128131 
L 30.765324 118.577529 
L 27.798993 123.000653 
L 25.374894 127.012947 
L 23.713298 130.044216 
L 21.50788 134.570298 
L 19.668121 139.017086 
L 18.109903 143.631822 
L 17.012136 147.82826 
L 16.461702 150.582055 
L 15.950915 154.184654 
L 15.676972 157.995239 
L 15.668498 161.277881 
L 15.857312 164.337033 
L 16.361057 168.102996 
L 16.775866 170.19773 
L 17.789751 174.012611 
L 18.906108 177.204075 
L 20.116122 180.044515 
L 21.396513 182.616678 
L 23.316847 185.927287 
L 25.645797 189.351653 
L 27.860236 192.192176 
L 30.36107 195.045795 
L 32.801213 197.551973 
L 36.653506 201.080082 
L 40.547076 204.234062 
L 44.910585 207.388824 
L 49.043252 210.080729 
L 53.668541 212.814995 
L 59.337452 215.83538 
L 65.161634 218.624199 
L 70.57693 220.977199 
L 78.585618 224.100476 
L 80.706733 224.864943 
L 80.706733 224.864943 
" clip-path="url(#p588c9de9af)" style="fill: none; stroke: #000000; stroke-width: 2; stroke-linecap: square"/>
   </g>
   <g id="patch_3">
    <path d="M 181.15593 26.536279 
Q 180.12895 26.837435 181.247683 26.509373 
" clip-path="url(#p588c9de9af)" style="fill: none; stroke: #000000; stroke-width: 2; stroke-linecap: round"/>
    <path d="M 192.250578 28.493387 
L 181.247683 26.509373 
L 189.43663 18.897465 
z
" clip-path="url(#p588c9de9af)" style="stroke: #000000; stroke-width: 2; stroke-linecap: round"/>
   </g>
   <g id="text_1">
    <!-- $P$ -->
    <g transform="translate(414.513359 35.135105) scale(0.2 -0.2)">
     <defs>
      <path id="Cmmi10-50" d="M 313 0 
Q 250 0 250 84 
Q 253 100 262 139 
Q 272 178 289 201 
Q 306 225 331 225 
Q 722 225 878 269 
Q 959 297 997 441 
L 1875 3956 
Q 1888 4019 1888 4044 
Q 1888 4113 1813 4122 
Q 1691 4147 1350 4147 
Q 1288 4147 1288 4231 
Q 1291 4247 1300 4286 
Q 1309 4325 1326 4348 
Q 1344 4372 1369 4372 
L 3578 4372 
Q 3881 4372 4165 4264 
Q 4450 4156 4631 3934 
Q 4813 3713 4813 3397 
Q 4813 2991 4527 2672 
Q 4241 2353 3814 2175 
Q 3388 1997 2988 1997 
L 1947 1997 
L 1556 416 
Q 1544 353 1544 325 
Q 1544 300 1551 283 
Q 1559 266 1573 261 
Q 1588 256 1619 250 
Q 1741 225 2081 225 
Q 2144 225 2144 141 
Q 2122 50 2109 25 
Q 2097 0 2034 0 
L 313 0 
z
M 1978 2188 
L 2875 2188 
Q 3497 2188 3822 2522 
Q 3988 2688 4092 3000 
Q 4197 3313 4197 3566 
Q 4197 3881 3956 4014 
Q 3716 4147 3359 4147 
L 2747 4147 
Q 2572 4147 2515 4117 
Q 2459 4088 2413 3928 
L 1978 2188 
z
" transform="scale(0.015625)"/>
     </defs>
     <use xlink:href="#Cmmi10-50" transform="translate(0 0.6875)"/>
    </g>
   </g>
  </g>
 </g>
 <defs>
  <clipPath id="p588c9de9af">
   <rect x="7.2" y="7.2" width="439.2" height="221.932883"/>
  </clipPath>
 </defs>
</svg>
