<?xml version="1.0" encoding="utf-8" standalone="no"?>
<!DOCTYPE svg PUBLIC "-//W3C//DTD SVG 1.1//EN"
  "http://www.w3.org/Graphics/SVG/1.1/DTD/svg11.dtd">
<svg xmlns:xlink="http://www.w3.org/1999/xlink" width="453.6pt" height="236.339419pt" viewBox="0 0 453.6 236.339419" xmlns="http://www.w3.org/2000/svg" version="1.1">
 <metadata>
  <rdf:RDF xmlns:dc="http://purl.org/dc/elements/1.1/" xmlns:cc="http://creativecommons.org/ns#" xmlns:rdf="http://www.w3.org/1999/02/22-rdf-syntax-ns#">
   <cc:Work>
    <dc:type rdf:resource="http://purl.org/dc/dcmitype/StillImage"/>
    <dc:date>2025-03-12T13:51:33.770809</dc:date>
    <dc:format>image/svg+xml</dc:format>
    <dc:creator>
     <cc:Agent>
      <dc:title>Matplotlib v3.10.1, https://matplotlib.org/</dc:title>
     </cc:Agent>
    </dc:creator>
   </cc:Work>
  </rdf:RDF>
 </metadata>
 <defs>
  <style type="text/css">*{stroke-linejoin: round; stroke-linecap: butt}</style>
 </defs>
 <g id="figure_1">
  <g id="patch_1">
   <path d="M 0 236.339419 
L 453.6 236.339419 
L 453.6 0 
L 0 0 
z
" style="fill: #ffffff"/>
  </g>
  <g id="axes_1">
   <g id="patch_2">
    <path d="M 7.2 229.139419 
L 446.4 229.139419 
L 446.4 7.2 
L 7.2 7.2 
z
" style="fill: #ffffff"/>
   </g>
   <g id="PathCollection_1">
    <path d="M 20.702728 139.149644 
C 21.429017 139.149644 22.125656 138.861086 22.63922 138.347522 
C 23.152783 137.833959 23.441341 137.137319 23.441341 136.411031 
C 23.441341 135.684742 23.152783 134.988103 22.63922 134.474539 
C 22.125656 133.960975 21.429017 133.672418 20.702728 133.672418 
C 19.976439 133.672418 19.2798 133.960975 18.766236 134.474539 
C 18.252673 134.988103 17.964115 135.684742 17.964115 136.411031 
C 17.964115 137.137319 18.252673 137.833959 18.766236 138.347522 
C 19.2798 138.861086 19.976439 139.149644 20.702728 139.149644 
z
" clip-path="url(#p93899b4809)"/>
   </g>
   <g id="matplotlib.axis_1"/>
   <g id="matplotlib.axis_2"/>
   <g id="line2d_1">
    <path d="M 437.953846 75.119482 
L 434.886401 71.112884 
L 431.127134 66.634826 
L 428.357962 63.593416 
L 424.457597 59.624835 
L 420.514145 55.936975 
L 416.697933 52.637665 
L 410.259766 47.587999 
L 405.487496 44.207749 
L 399.463346 40.322061 
L 394.491337 37.399799 
L 389.237487 34.562541 
L 381.824911 30.953121 
L 378.595139 29.512304 
L 373.01287 27.1957 
L 365.035519 24.238465 
L 357.438891 21.775469 
L 351.195037 19.987989 
L 344.287323 18.241911 
L 338.290057 16.911282 
L 331.598058 15.618264 
L 322.329815 14.142073 
L 312.218063 12.922249 
L 305.989639 12.362428 
L 298.991363 11.899537 
L 291.591622 11.594171 
L 281.055108 11.472627 
L 271.342142 11.673569 
L 261.525574 12.170174 
L 252.717284 12.859294 
L 245.940744 13.5426 
L 234.539307 14.98679 
L 226.815972 16.171854 
L 215.638252 18.179096 
L 205.106853 20.384506 
L 197.45289 22.178542 
L 190.37351 23.981799 
L 182.494084 26.152764 
L 171.021453 29.627069 
L 161.83046 32.684459 
L 155.027988 35.10873 
L 144.560578 39.116699 
L 134.195206 43.432211 
L 125.814492 47.188252 
L 120.134382 49.877383 
L 111.383166 54.261615 
L 102.52274 59.021009 
L 93.204346 64.410043 
L 85.688414 69.076439 
L 79.948773 72.855014 
L 73.954345 77.023268 
L 67.610575 81.712596 
L 63.573014 84.865342 
L 57.435095 89.946559 
L 52.408007 94.409043 
L 49.439699 97.192616 
L 43.934054 102.703644 
L 38.42546 108.779336 
L 34.919459 113.02668 
L 31.448656 117.61563 
L 28.41788 122.034673 
L 25.796801 126.277998 
L 22.978684 131.471203 
L 21.08386 135.519656 
L 19.443389 139.610466 
L 18.328466 142.899535 
L 17.493267 145.823757 
L 16.657134 149.497392 
L 16.073875 153.100568 
L 15.720111 156.921152 
L 15.662892 161.299512 
L 15.885457 164.694751 
L 16.269977 167.606066 
L 17.076992 171.502536 
L 17.705808 173.765223 
L 18.544462 176.26815 
L 19.867704 179.518809 
L 21.016541 181.907609 
L 22.969838 185.383082 
L 25.390531 189.015052 
L 27.775421 192.102506 
L 29.865881 194.518433 
L 33.5881 198.323059 
L 37.422551 201.743329 
L 41.362751 204.861953 
L 45.123804 207.544238 
L 48.064201 209.475742 
L 52.880457 212.377082 
L 57.665478 214.987697 
L 63.727811 217.972955 
L 69.704679 220.620938 
L 76.88177 223.476638 
L 80.701575 224.871353 
L 80.701575 224.871353 
" clip-path="url(#p93899b4809)" style="fill: none; stroke: #000000; stroke-width: 2; stroke-linecap: square"/>
   </g>
   <g id="patch_3">
    <path d="M 181.152222 26.539826 
Q 180.125227 26.840986 181.243945 26.512928 
" clip-path="url(#p93899b4809)" style="fill: none; stroke: #000000; stroke-width: 2; stroke-linecap: round"/>
    <path d="M 192.24684 28.496941 
L 181.243945 26.512928 
L 189.432893 18.90102 
z
" clip-path="url(#p93899b4809)" style="stroke: #000000; stroke-width: 2; stroke-linecap: round"/>
   </g>
   <g id="text_1">
    <!-- $Q$ -->
    <g transform="translate(31.633518 151.395176) scale(0.2 -0.2)">
     <defs>
      <path id="Cmmi10-51" d="M 1947 -141 
Q 1466 -141 1094 79 
Q 722 300 520 692 
Q 319 1084 319 1563 
Q 319 2259 714 2950 
Q 1109 3641 1756 4077 
Q 2403 4513 3109 4513 
Q 3475 4513 3778 4381 
Q 4081 4250 4290 4017 
Q 4500 3784 4614 3471 
Q 4728 3159 4728 2791 
Q 4728 2366 4581 1936 
Q 4434 1506 4171 1136 
Q 3909 766 3559 484 
Q 3209 203 2809 38 
Q 2850 -256 2934 -425 
Q 3019 -594 3256 -594 
Q 3506 -594 3726 -412 
Q 3947 -231 4006 13 
Q 4019 72 4078 72 
Q 4147 72 4147 -13 
Q 4100 -219 4008 -430 
Q 3916 -641 3786 -823 
Q 3656 -1006 3478 -1123 
Q 3300 -1241 3084 -1241 
Q 2547 -1241 2547 -550 
Q 2547 -509 2562 -332 
Q 2578 -156 2578 -44 
Q 2269 -141 1947 -141 
z
M 1709 300 
Q 1709 44 1991 44 
Q 2275 44 2591 184 
L 2591 244 
Q 2591 503 2509 648 
Q 2428 794 2194 794 
Q 2078 794 1964 723 
Q 1850 653 1779 539 
Q 1709 425 1709 300 
z
M 1544 288 
Q 1544 456 1637 612 
Q 1731 769 1881 864 
Q 2031 959 2203 959 
Q 2481 959 2607 771 
Q 2734 584 2778 281 
Q 3188 525 3500 978 
Q 3813 1431 3977 1973 
Q 4141 2516 4141 3003 
Q 4141 3356 4023 3656 
Q 3906 3956 3664 4140 
Q 3422 4325 3066 4325 
Q 2722 4325 2403 4156 
Q 2084 3988 1813 3706 
Q 1550 3434 1342 3032 
Q 1134 2631 1021 2193 
Q 909 1756 909 1356 
Q 909 947 1068 612 
Q 1228 278 1569 128 
Q 1544 194 1544 288 
z
" transform="scale(0.015625)"/>
     </defs>
     <use xlink:href="#Cmmi10-51" transform="translate(0 0.484375)"/>
    </g>
   </g>
  </g>
 </g>
 <defs>
  <clipPath id="p93899b4809">
   <rect x="7.2" y="7.2" width="439.2" height="221.939419"/>
  </clipPath>
 </defs>
</svg>
