<?xml version="1.0" encoding="utf-8" standalone="no"?>
<!DOCTYPE svg PUBLIC "-//W3C//DTD SVG 1.1//EN"
  "http://www.w3.org/Graphics/SVG/1.1/DTD/svg11.dtd">
<svg xmlns:xlink="http://www.w3.org/1999/xlink" width="452.644161pt" height="225.137056pt" viewBox="0 0 452.644161 225.137056" xmlns="http://www.w3.org/2000/svg" version="1.1">
 <metadata>
  <rdf:RDF xmlns:dc="http://purl.org/dc/elements/1.1/" xmlns:cc="http://creativecommons.org/ns#" xmlns:rdf="http://www.w3.org/1999/02/22-rdf-syntax-ns#">
   <cc:Work>
    <dc:type rdf:resource="http://purl.org/dc/dcmitype/StillImage"/>
    <dc:date>2025-01-07T15:46:10.258417</dc:date>
    <dc:format>image/svg+xml</dc:format>
    <dc:creator>
     <cc:Agent>
      <dc:title>Matplotlib v3.8.0, https://matplotlib.org/</dc:title>
     </cc:Agent>
    </dc:creator>
   </cc:Work>
  </rdf:RDF>
 </metadata>
 <defs>
  <style type="text/css">*{stroke-linejoin: round; stroke-linecap: butt}</style>
 </defs>
 <g id="figure_1">
  <g id="patch_1">
   <path d="M 0 225.137056 
L 452.644161 225.137056 
L 452.644161 0 
L 0 0 
z
" style="fill: #ffffff"/>
  </g>
  <g id="axes_1">
   <g id="patch_2">
    <path d="M 10.944232 217.937056 
L 445.444161 217.937056 
L 445.444161 7.2 
L 10.944232 7.2 
z
" style="fill: #ffffff"/>
   </g>
   <g id="PathCollection_1">
    <path d="M 40.896684 133.424382 
C 41.834319 133.424382 42.733677 133.051856 43.396684 132.388849 
C 44.059692 131.725841 44.432218 130.826483 44.432218 129.888849 
C 44.432218 128.951214 44.059692 128.051856 43.396684 127.388849 
C 42.733677 126.725841 41.834319 126.353315 40.896684 126.353315 
C 39.95905 126.353315 39.059692 126.725841 38.396684 127.388849 
C 37.733677 128.051856 37.361151 128.951214 37.361151 129.888849 
C 37.361151 130.826483 37.733677 131.725841 38.396684 132.388849 
C 39.059692 133.051856 39.95905 133.424382 40.896684 133.424382 
z
" clip-path="url(#p0a9416f2e5)"/>
   </g>
   <g id="PathCollection_2">
    <path d="M 37.275319 166.008034 
C 38.212954 166.008034 39.112311 165.635507 39.775319 164.9725 
C 40.438327 164.309492 40.810853 163.410134 40.810853 162.4725 
C 40.810853 161.534865 40.438327 160.635507 39.775319 159.9725 
C 39.112311 159.309492 38.212954 158.936966 37.275319 158.936966 
C 36.337685 158.936966 35.438327 159.309492 34.775319 159.9725 
C 34.112311 160.635507 33.739785 161.534865 33.739785 162.4725 
C 33.739785 163.410134 34.112311 164.309492 34.775319 164.9725 
C 35.438327 165.635507 36.337685 166.008034 37.275319 166.008034 
z
" clip-path="url(#p0a9416f2e5)"/>
   </g>
   <g id="matplotlib.axis_1"/>
   <g id="matplotlib.axis_2"/>
   <g id="line2d_1">
    <path d="M 437.088394 71.690794 
L 434.879146 68.775222 
L 430.483462 63.495206 
L 427.529036 60.273106 
L 422.412586 55.202146 
L 418.316714 51.536054 
L 414.151909 48.112916 
L 410.693012 45.475747 
L 406.122367 42.245437 
L 400.847075 38.837913 
L 397.201705 36.663597 
L 392.976967 34.311334 
L 386.930047 31.230223 
L 382.787776 29.297425 
L 375.712468 26.299924 
L 371.403961 24.648121 
L 366.77479 23.009113 
L 360.174943 20.899743 
L 354.419392 19.264063 
L 348.304987 17.720706 
L 340.791973 16.08103 
L 334.421681 14.899116 
L 327.180864 13.774317 
L 319.74032 12.847916 
L 312.563388 12.163521 
L 305.730901 11.694177 
L 298.47865 11.382473 
L 290.407365 11.252636 
L 280.94893 11.380271 
L 271.990678 11.769477 
L 263.79593 12.346933 
L 254.086676 13.297651 
L 242.730821 14.767872 
L 231.306947 16.629265 
L 221.16453 18.599439 
L 212.522615 20.51287 
L 201.543835 23.256127 
L 193.706017 25.430371 
L 184.029671 28.366653 
L 172.959841 32.075606 
L 164.748208 35.076037 
L 154.57333 39.100989 
L 145.186882 43.131135 
L 136.079674 47.351286 
L 128.460331 51.133327 
L 119.946059 55.652959 
L 112.838647 59.684185 
L 105.994392 63.810829 
L 98.418686 68.69021 
L 92.927468 72.456558 
L 86.47571 77.162339 
L 81.39369 81.112283 
L 75.470842 86.031412 
L 72.566972 88.586017 
L 66.647029 94.140159 
L 61.998466 98.894031 
L 58.527706 102.725217 
L 54.862851 107.098854 
L 51.645151 111.292189 
L 49.712905 114.012117 
L 47.026504 118.119798 
L 45.379274 120.879303 
L 42.733076 125.853809 
L 41.102087 129.404898 
L 39.409187 133.737933 
L 38.07038 138.000483 
L 37.388128 140.728027 
L 36.773998 143.879091 
L 36.281601 147.759672 
L 36.115769 150.477468 
L 36.146938 154.410235 
L 36.47562 158.067582 
L 37.084076 161.615896 
L 37.973647 165.101038 
L 39.104902 168.421315 
L 40.521995 171.726712 
L 42.283442 175.095552 
L 43.774578 177.540653 
L 45.439043 179.963657 
L 48.143806 183.405902 
L 50.437574 185.971691 
L 53.764314 189.270802 
L 57.077536 192.177984 
L 60.306071 194.728853 
L 65.175928 198.163445 
L 68.894298 200.516371 
L 72.091322 202.384959 
L 76.717122 204.87338 
L 81.320476 207.133105 
L 85.08259 208.841235 
L 92.202111 211.781124 
L 97.867282 213.884421 
L 97.867282 213.884421 
" clip-path="url(#p0a9416f2e5)" style="fill: none; stroke: #000000; stroke-width: 2; stroke-linecap: square"/>
   </g>
   <g id="patch_3">
    <path d="M 193.248006 25.56304 
Q 192.272845 25.849 193.443398 25.505742 
" clip-path="url(#p0a9416f2e5)" style="fill: none; stroke: #000000; stroke-width: 2; stroke-linecap: round"/>
    <path d="M 204.446293 27.489755 
L 193.443398 25.505742 
L 201.632345 17.893834 
z
" clip-path="url(#p0a9416f2e5)" style="stroke: #000000; stroke-width: 2; stroke-linecap: round"/>
   </g>
   <g id="text_1">
    <!-- $Q_0$ -->
    <g transform="translate(19.809025 117.432279) scale(0.2 -0.2)">
     <defs>
      <path id="Cmmi10-51" d="M 1947 -141 
Q 1466 -141 1094 79 
Q 722 300 520 692 
Q 319 1084 319 1563 
Q 319 2259 714 2950 
Q 1109 3641 1756 4077 
Q 2403 4513 3109 4513 
Q 3475 4513 3778 4381 
Q 4081 4250 4290 4017 
Q 4500 3784 4614 3471 
Q 4728 3159 4728 2791 
Q 4728 2366 4581 1936 
Q 4434 1506 4171 1136 
Q 3909 766 3559 484 
Q 3209 203 2809 38 
Q 2850 -256 2934 -425 
Q 3019 -594 3256 -594 
Q 3506 -594 3726 -412 
Q 3947 -231 4006 13 
Q 4019 72 4078 72 
Q 4147 72 4147 -13 
Q 4100 -219 4008 -430 
Q 3916 -641 3786 -823 
Q 3656 -1006 3478 -1123 
Q 3300 -1241 3084 -1241 
Q 2547 -1241 2547 -550 
Q 2547 -509 2562 -332 
Q 2578 -156 2578 -44 
Q 2269 -141 1947 -141 
z
M 1709 300 
Q 1709 44 1991 44 
Q 2275 44 2591 184 
L 2591 244 
Q 2591 503 2509 648 
Q 2428 794 2194 794 
Q 2078 794 1964 723 
Q 1850 653 1779 539 
Q 1709 425 1709 300 
z
M 1544 288 
Q 1544 456 1637 612 
Q 1731 769 1881 864 
Q 2031 959 2203 959 
Q 2481 959 2607 771 
Q 2734 584 2778 281 
Q 3188 525 3500 978 
Q 3813 1431 3977 1973 
Q 4141 2516 4141 3003 
Q 4141 3356 4023 3656 
Q 3906 3956 3664 4140 
Q 3422 4325 3066 4325 
Q 2722 4325 2403 4156 
Q 2084 3988 1813 3706 
Q 1550 3434 1342 3032 
Q 1134 2631 1021 2193 
Q 909 1756 909 1356 
Q 909 947 1068 612 
Q 1228 278 1569 128 
Q 1544 194 1544 288 
z
" transform="scale(0.015625)"/>
      <path id="Cmr10-30" d="M 1600 -141 
Q 816 -141 533 504 
Q 250 1150 250 2041 
Q 250 2597 351 3087 
Q 453 3578 754 3920 
Q 1056 4263 1600 4263 
Q 2022 4263 2290 4056 
Q 2559 3850 2700 3523 
Q 2841 3197 2892 2823 
Q 2944 2450 2944 2041 
Q 2944 1491 2842 1011 
Q 2741 531 2444 195 
Q 2147 -141 1600 -141 
z
M 1600 25 
Q 1956 25 2131 390 
Q 2306 756 2347 1200 
Q 2388 1644 2388 2144 
Q 2388 2625 2347 3031 
Q 2306 3438 2132 3767 
Q 1959 4097 1600 4097 
Q 1238 4097 1063 3765 
Q 888 3434 847 3029 
Q 806 2625 806 2144 
Q 806 1788 823 1472 
Q 841 1156 916 820 
Q 991 484 1158 254 
Q 1325 25 1600 25 
z
" transform="scale(0.015625)"/>
     </defs>
     <use xlink:href="#Cmmi10-51" transform="translate(0 0.484375)"/>
     <use xlink:href="#Cmr10-30" transform="translate(79.003906 -16.521875) scale(0.7)"/>
    </g>
   </g>
   <g id="text_2">
    <!-- $Q_1$ -->
    <g transform="translate(7.2 159.00359) scale(0.2 -0.2)">
     <defs>
      <path id="Cmr10-31" d="M 594 0 
L 594 225 
Q 1394 225 1394 428 
L 1394 3788 
Q 1063 3628 556 3628 
L 556 3853 
Q 1341 3853 1741 4263 
L 1831 4263 
Q 1853 4263 1873 4245 
Q 1894 4228 1894 4206 
L 1894 428 
Q 1894 225 2694 225 
L 2694 0 
L 594 0 
z
" transform="scale(0.015625)"/>
     </defs>
     <use xlink:href="#Cmmi10-51" transform="translate(0 0.484375)"/>
     <use xlink:href="#Cmr10-31" transform="translate(79.003906 -16.521875) scale(0.7)"/>
    </g>
   </g>
  </g>
 </g>
 <defs>
  <clipPath id="p0a9416f2e5">
   <rect x="10.944232" y="7.2" width="434.499929" height="210.737056"/>
  </clipPath>
 </defs>
</svg>
