<?xml version="1.0" encoding="utf-8" standalone="no"?>
<!DOCTYPE svg PUBLIC "-//W3C//DTD SVG 1.1//EN"
  "http://www.w3.org/Graphics/SVG/1.1/DTD/svg11.dtd">
<svg xmlns:xlink="http://www.w3.org/1999/xlink" width="453.6pt" height="331.548705pt" viewBox="0 0 453.6 331.548705" xmlns="http://www.w3.org/2000/svg" version="1.1">
 <metadata>
  <rdf:RDF xmlns:dc="http://purl.org/dc/elements/1.1/" xmlns:cc="http://creativecommons.org/ns#" xmlns:rdf="http://www.w3.org/1999/02/22-rdf-syntax-ns#">
   <cc:Work>
    <dc:type rdf:resource="http://purl.org/dc/dcmitype/StillImage"/>
    <dc:date>2025-01-07T15:46:34.205510</dc:date>
    <dc:format>image/svg+xml</dc:format>
    <dc:creator>
     <cc:Agent>
      <dc:title>Matplotlib v3.8.0, https://matplotlib.org/</dc:title>
     </cc:Agent>
    </dc:creator>
   </cc:Work>
  </rdf:RDF>
 </metadata>
 <defs>
  <style type="text/css">*{stroke-linejoin: round; stroke-linecap: butt}</style>
 </defs>
 <g id="figure_1">
  <g id="patch_1">
   <path d="M 0 331.548705 
L 453.6 331.548705 
L 453.6 0 
L 0 0 
z
" style="fill: #ffffff"/>
  </g>
  <g id="axes_1">
   <g id="patch_2">
    <path d="M 7.2 324.348705 
L 446.4 324.348705 
L 446.4 7.2 
L 7.2 7.2 
z
" style="fill: #ffffff"/>
   </g>
   <g id="PathCollection_1">
    <path d="M 382.766836 159.451989 
C 383.493124 159.451989 384.189764 159.163432 384.703328 158.649868 
C 385.216891 158.136305 385.505449 157.439665 385.505449 156.713376 
C 385.505449 155.987088 385.216891 155.290448 384.703328 154.776885 
C 384.189764 154.263321 383.493124 153.974764 382.766836 153.974764 
C 382.040547 153.974764 381.343908 154.263321 380.830344 154.776885 
C 380.316781 155.290448 380.028223 155.987088 380.028223 156.713376 
C 380.028223 157.439665 380.316781 158.136305 380.830344 158.649868 
C 381.343908 159.163432 382.040547 159.451989 382.766836 159.451989 
z
" clip-path="url(#p8b792748cc)"/>
   </g>
   <g id="matplotlib.axis_1"/>
   <g id="matplotlib.axis_2"/>
   <g id="line2d_1">
    <path d="M 356.223914 202.577597 
L 357.039727 199.47323 
L 357.950126 196.77926 
L 359.086847 193.980163 
L 360.821687 190.369013 
L 362.687634 186.997518 
L 364.753943 183.63193 
L 367.631645 179.325627 
L 373.114385 171.655751 
L 377.966852 164.761799 
L 380.750958 160.38062 
L 382.697167 156.851843 
L 384.035108 153.948742 
L 384.937323 151.51013 
L 385.586567 149.15978 
L 385.966037 147.030735 
L 386.127489 144.893608 
L 386.045204 142.708066 
L 385.763687 140.850895 
L 385.235801 138.873463 
L 384.601241 137.214578 
L 383.670781 135.354247 
L 382.458363 133.436961 
L 381.17173 131.752569 
L 379.405649 129.79494 
L 377.676235 128.138633 
L 375.392738 126.218504 
L 372.58587 124.14843 
L 369.340985 122.035285 
L 365.538177 119.83148 
L 360.986249 117.47365 
L 355.548485 114.948779 
L 349.978076 112.606879 
L 342.8301 109.872771 
L 335.209926 107.212476 
L 325.829505 104.20972 
L 315.889162 101.277412 
L 304.303692 98.106419 
L 290.486105 94.58753 
L 274.474125 90.77617 
L 255.180921 86.456851 
L 236.287137 82.42685 
L 206.186016 76.243203 
L 152.00685 65.160525 
L 132.666609 60.963856 
L 117.411897 57.430156 
L 105.779007 54.5203 
L 96.625869 52.02973 
L 88.620816 49.632232 
L 82.544073 47.606038 
L 82.544073 47.606038 
" clip-path="url(#p8b792748cc)" style="fill: none; stroke: #000000; stroke-width: 2; stroke-linecap: square"/>
   </g>
   <g id="patch_3">
    <path d="M 382.766836 156.713376 
Q 410.360341 101.654018 436.951993 48.593732 
" clip-path="url(#p8b792748cc)" style="fill: none; stroke: #ff0000; stroke-width: 2; stroke-linecap: round"/>
    <path d="M 428.001506 55.293642 
L 436.951993 48.593732 
L 436.941629 59.774067 
z
" clip-path="url(#p8b792748cc)" style="fill: #ff0000; stroke: #ff0000; stroke-width: 2; stroke-linecap: round"/>
   </g>
   <g id="patch_4">
    <path d="M 382.766836 156.713376 
Q 327.707477 129.119871 274.647191 102.52822 
" clip-path="url(#p8b792748cc)" style="fill: none; stroke: #800080; stroke-width: 2; stroke-linecap: round"/>
    <path d="M 281.347101 111.478706 
L 274.647191 102.52822 
L 285.827526 102.538583 
z
" clip-path="url(#p8b792748cc)" style="fill: #800080; stroke: #800080; stroke-width: 2; stroke-linecap: round"/>
   </g>
   <g id="patch_5">
    <path d="M 382.766836 156.713376 
Q 342.289129 237.481534 302.813276 316.250619 
" clip-path="url(#p8b792748cc)" style="fill: none; stroke: #008000; stroke-width: 2; stroke-linecap: round"/>
    <path d="M 311.763762 309.550709 
L 302.813276 316.250619 
L 302.823639 305.070284 
z
" clip-path="url(#p8b792748cc)" style="fill: #008000; stroke: #008000; stroke-width: 2; stroke-linecap: round"/>
   </g>
   <g id="patch_6">
    <path d="M 382.766836 156.713376 
Q 239.684202 85.006195 98.60064 14.300867 
" clip-path="url(#p8b792748cc)" style="fill: none; stroke: #0000ff; stroke-width: 2; stroke-linecap: round"/>
    <path d="M 105.30055 23.251353 
L 98.60064 14.300867 
L 109.780975 14.311231 
z
" clip-path="url(#p8b792748cc)" style="fill: #0000ff; stroke: #0000ff; stroke-width: 2; stroke-linecap: round"/>
   </g>
   <g id="patch_7">
    <path d="M 382.766836 156.713376 
Q 199.206495 165.774352 17.879503 174.725085 
" clip-path="url(#p8b792748cc)" style="fill: none; stroke: #ffa500; stroke-width: 2; stroke-linecap: round"/>
    <path d="M 28.113853 179.225981 
L 17.879503 174.725085 
L 27.62083 169.238142 
z
" clip-path="url(#p8b792748cc)" style="fill: #ffa500; stroke: #ffa500; stroke-width: 2; stroke-linecap: round"/>
   </g>
  </g>
 </g>
 <defs>
  <clipPath id="p8b792748cc">
   <rect x="7.2" y="7.2" width="439.2" height="317.148705"/>
  </clipPath>
 </defs>
</svg>
