<?xml version="1.0" encoding="utf-8" standalone="no"?>
<!DOCTYPE svg PUBLIC "-//W3C//DTD SVG 1.1//EN"
  "http://www.w3.org/Graphics/SVG/1.1/DTD/svg11.dtd">
<svg xmlns:xlink="http://www.w3.org/1999/xlink" width="453.6pt" height="236.336137pt" viewBox="0 0 453.6 236.336137" xmlns="http://www.w3.org/2000/svg" version="1.1">
 <metadata>
  <rdf:RDF xmlns:dc="http://purl.org/dc/elements/1.1/" xmlns:cc="http://creativecommons.org/ns#" xmlns:rdf="http://www.w3.org/1999/02/22-rdf-syntax-ns#">
   <cc:Work>
    <dc:type rdf:resource="http://purl.org/dc/dcmitype/StillImage"/>
    <dc:date>2025-01-08T11:23:12.140552</dc:date>
    <dc:format>image/svg+xml</dc:format>
    <dc:creator>
     <cc:Agent>
      <dc:title>Matplotlib v3.8.0, https://matplotlib.org/</dc:title>
     </cc:Agent>
    </dc:creator>
   </cc:Work>
  </rdf:RDF>
 </metadata>
 <defs>
  <style type="text/css">*{stroke-linejoin: round; stroke-linecap: butt}</style>
 </defs>
 <g id="figure_1">
  <g id="patch_1">
   <path d="M 0 236.336137 
L 453.6 236.336137 
L 453.6 0 
L 0 0 
z
" style="fill: #ffffff"/>
  </g>
  <g id="axes_1">
   <g id="patch_2">
    <path d="M 7.2 229.136137 
L 446.4 229.136137 
L 446.4 7.2 
L 7.2 7.2 
z
" style="fill: #ffffff"/>
   </g>
   <g id="PathCollection_1">
    <path d="M 20.709065 139.147768 
C 21.435354 139.147768 22.131993 138.859211 22.645557 138.345647 
C 23.15912 137.832083 23.447678 137.135444 23.447678 136.409155 
C 23.447678 135.682867 23.15912 134.986227 22.645557 134.472664 
C 22.131993 133.9591 21.435354 133.670543 20.709065 133.670543 
C 19.982776 133.670543 19.286137 133.9591 18.772573 134.472664 
C 18.25901 134.986227 17.970452 135.682867 17.970452 136.409155 
C 17.970452 137.135444 18.25901 137.832083 18.772573 138.345647 
C 19.286137 138.859211 19.982776 139.147768 20.709065 139.147768 
z
" clip-path="url(#p5f6938083e)"/>
   </g>
   <g id="matplotlib.axis_1"/>
   <g id="matplotlib.axis_2"/>
   <g id="line2d_1">
    <path d="M 437.953846 75.118537 
L 435.502789 71.889489 
L 432.294309 67.978361 
L 428.821477 64.087794 
L 423.656921 58.85032 
L 420.692183 56.096199 
L 415.52193 51.668445 
L 411.028854 48.15934 
L 408.480493 46.293364 
L 402.769976 42.404463 
L 397.580583 39.186085 
L 394.326149 37.306056 
L 388.877844 34.376423 
L 386.305665 33.081739 
L 379.661985 29.979164 
L 375.012089 28.000275 
L 366.865357 24.881351 
L 361.218655 22.959379 
L 353.938518 20.747631 
L 349.310814 19.487799 
L 343.185835 17.984519 
L 334.071083 16.072867 
L 326.559295 14.771466 
L 319.355294 13.741879 
L 309.144198 12.628045 
L 302.572068 12.114693 
L 292.434753 11.619586 
L 282.384549 11.468211 
L 271.352647 11.673303 
L 263.098173 12.071347 
L 253.441371 12.794355 
L 241.404125 14.07366 
L 233.355869 15.158028 
L 222.892846 16.837642 
L 216.117654 18.086523 
L 206.247783 20.131542 
L 198.798632 21.852164 
L 190.23583 24.019074 
L 180.360766 26.771438 
L 169.947293 29.972718 
L 162.181761 32.564177 
L 151.139921 36.558867 
L 143.995526 39.344282 
L 132.666722 44.100559 
L 127.210133 46.547208 
L 118.070475 50.886239 
L 110.518363 54.713451 
L 105.028882 57.642487 
L 98.380341 61.367763 
L 92.244958 64.991423 
L 85.939309 68.918253 
L 77.85742 74.285066 
L 71.325184 78.932981 
L 64.52707 84.111034 
L 58.816424 88.773847 
L 53.755031 93.187883 
L 48.169969 98.42558 
L 44.19685 102.433915 
L 40.730556 106.16332 
L 36.245091 111.38608 
L 32.515831 116.164192 
L 29.490127 120.427033 
L 26.416906 125.23997 
L 24.950038 127.766892 
L 22.200831 133.076512 
L 20.646199 136.559202 
L 18.956849 140.996457 
L 17.773617 144.803476 
L 16.76524 148.985134 
L 16.169954 152.433382 
L 15.887663 154.808871 
L 15.704996 157.332257 
L 15.674727 161.464865 
L 15.991671 165.595532 
L 16.484067 168.779881 
L 17.401634 172.699346 
L 18.425768 175.919747 
L 19.77994 179.305395 
L 21.268338 182.377309 
L 22.945828 185.330864 
L 25.194577 188.730754 
L 26.905963 191.012358 
L 29.854473 194.496274 
L 32.567378 197.324906 
L 36.270889 200.752573 
L 40.714543 204.364942 
L 43.778068 206.606633 
L 48.532421 209.764681 
L 53.314512 212.617973 
L 57.156161 214.715192 
L 63.680696 217.945221 
L 66.783836 219.354697 
L 74.763818 222.662019 
L 80.707001 224.868134 
L 80.707001 224.868134 
" clip-path="url(#p5f6938083e)" style="fill: none; stroke: #000000; stroke-width: 2; stroke-linecap: square"/>
   </g>
   <g id="patch_3">
    <path d="M 181.156122 26.539619 
Q 180.129143 26.840775 181.247877 26.512712 
" clip-path="url(#p5f6938083e)" style="fill: none; stroke: #000000; stroke-width: 2; stroke-linecap: round"/>
    <path d="M 192.250772 28.496726 
L 181.247877 26.512712 
L 189.436824 18.900805 
z
" clip-path="url(#p5f6938083e)" style="stroke: #000000; stroke-width: 2; stroke-linecap: round"/>
   </g>
   <g id="text_1">
    <!-- $Q$ -->
    <g transform="translate(31.639568 151.393157) scale(0.2 -0.2)">
     <defs>
      <path id="Cmmi10-51" d="M 1947 -141 
Q 1466 -141 1094 79 
Q 722 300 520 692 
Q 319 1084 319 1563 
Q 319 2259 714 2950 
Q 1109 3641 1756 4077 
Q 2403 4513 3109 4513 
Q 3475 4513 3778 4381 
Q 4081 4250 4290 4017 
Q 4500 3784 4614 3471 
Q 4728 3159 4728 2791 
Q 4728 2366 4581 1936 
Q 4434 1506 4171 1136 
Q 3909 766 3559 484 
Q 3209 203 2809 38 
Q 2850 -256 2934 -425 
Q 3019 -594 3256 -594 
Q 3506 -594 3726 -412 
Q 3947 -231 4006 13 
Q 4019 72 4078 72 
Q 4147 72 4147 -13 
Q 4100 -219 4008 -430 
Q 3916 -641 3786 -823 
Q 3656 -1006 3478 -1123 
Q 3300 -1241 3084 -1241 
Q 2547 -1241 2547 -550 
Q 2547 -509 2562 -332 
Q 2578 -156 2578 -44 
Q 2269 -141 1947 -141 
z
M 1709 300 
Q 1709 44 1991 44 
Q 2275 44 2591 184 
L 2591 244 
Q 2591 503 2509 648 
Q 2428 794 2194 794 
Q 2078 794 1964 723 
Q 1850 653 1779 539 
Q 1709 425 1709 300 
z
M 1544 288 
Q 1544 456 1637 612 
Q 1731 769 1881 864 
Q 2031 959 2203 959 
Q 2481 959 2607 771 
Q 2734 584 2778 281 
Q 3188 525 3500 978 
Q 3813 1431 3977 1973 
Q 4141 2516 4141 3003 
Q 4141 3356 4023 3656 
Q 3906 3956 3664 4140 
Q 3422 4325 3066 4325 
Q 2722 4325 2403 4156 
Q 2084 3988 1813 3706 
Q 1550 3434 1342 3032 
Q 1134 2631 1021 2193 
Q 909 1756 909 1356 
Q 909 947 1068 612 
Q 1228 278 1569 128 
Q 1544 194 1544 288 
z
" transform="scale(0.015625)"/>
     </defs>
     <use xlink:href="#Cmmi10-51" transform="translate(0 0.484375)"/>
    </g>
   </g>
  </g>
 </g>
 <defs>
  <clipPath id="p5f6938083e">
   <rect x="7.2" y="7.2" width="439.2" height="221.936137"/>
  </clipPath>
 </defs>
</svg>
