<?xml version="1.0" encoding="utf-8" standalone="no"?>
<!DOCTYPE svg PUBLIC "-//W3C//DTD SVG 1.1//EN"
  "http://www.w3.org/Graphics/SVG/1.1/DTD/svg11.dtd">
<svg xmlns:xlink="http://www.w3.org/1999/xlink" width="453.6pt" height="236.33737pt" viewBox="0 0 453.6 236.33737" xmlns="http://www.w3.org/2000/svg" version="1.1">
 <metadata>
  <rdf:RDF xmlns:dc="http://purl.org/dc/elements/1.1/" xmlns:cc="http://creativecommons.org/ns#" xmlns:rdf="http://www.w3.org/1999/02/22-rdf-syntax-ns#">
   <cc:Work>
    <dc:type rdf:resource="http://purl.org/dc/dcmitype/StillImage"/>
    <dc:date>2025-03-12T13:53:17.771121</dc:date>
    <dc:format>image/svg+xml</dc:format>
    <dc:creator>
     <cc:Agent>
      <dc:title>Matplotlib v3.10.1, https://matplotlib.org/</dc:title>
     </cc:Agent>
    </dc:creator>
   </cc:Work>
  </rdf:RDF>
 </metadata>
 <defs>
  <style type="text/css">*{stroke-linejoin: round; stroke-linecap: butt}</style>
 </defs>
 <g id="figure_1">
  <g id="patch_1">
   <path d="M 0 236.33737 
L 453.6 236.33737 
L 453.6 0 
L 0 0 
z
" style="fill: #ffffff"/>
  </g>
  <g id="axes_1">
   <g id="patch_2">
    <path d="M 7.2 229.13737 
L 446.4 229.13737 
L 446.4 7.2 
L 7.2 7.2 
z
" style="fill: #ffffff"/>
   </g>
   <g id="PathCollection_1">
    <path d="M 376.129394 31.997167 
C 377.067029 31.997167 377.966386 31.624641 378.629394 30.961633 
C 379.292402 30.298626 379.664928 29.399268 379.664928 28.461633 
C 379.664928 27.523999 379.292402 26.624641 378.629394 25.961633 
C 377.966386 25.298626 377.067029 24.9261 376.129394 24.9261 
C 375.19176 24.9261 374.292402 25.298626 373.629394 25.961633 
C 372.966386 26.624641 372.59386 27.523999 372.59386 28.461633 
C 372.59386 29.399268 372.966386 30.298626 373.629394 30.961633 
C 374.292402 31.624641 375.19176 31.997167 376.129394 31.997167 
z
" clip-path="url(#pd3c3dcdcd2)"/>
   </g>
   <g id="PathCollection_2">
    <path d="M 342.326497 21.323025 
C 343.264131 21.323025 344.163489 20.950499 344.826497 20.287491 
C 345.489504 19.624484 345.86203 18.725126 345.86203 17.787491 
C 345.86203 16.849857 345.489504 15.950499 344.826497 15.287491 
C 344.163489 14.624484 343.264131 14.251958 342.326497 14.251958 
C 341.388862 14.251958 340.489504 14.624484 339.826497 15.287491 
C 339.163489 15.950499 338.790963 16.849857 338.790963 17.787491 
C 338.790963 18.725126 339.163489 19.624484 339.826497 20.287491 
C 340.489504 20.950499 341.388862 21.323025 342.326497 21.323025 
z
" clip-path="url(#pd3c3dcdcd2)"/>
   </g>
   <g id="matplotlib.axis_1"/>
   <g id="matplotlib.axis_2"/>
   <g id="line2d_1">
    <path d="M 437.953846 75.118343 
L 435.257994 71.578923 
L 431.627354 67.205113 
L 427.270587 62.450864 
L 422.995086 58.220483 
L 421.365919 56.707151 
L 416.164026 52.194225 
L 411.689299 48.656846 
L 407.606427 45.672379 
L 402.580228 42.281438 
L 396.632428 38.627494 
L 390.266883 35.098262 
L 385.888241 32.876371 
L 379.791202 30.035971 
L 375.842091 28.342083 
L 367.824541 25.226325 
L 363.06598 23.567155 
L 358.028511 21.954053 
L 351.381416 20.037445 
L 343.168121 17.979909 
L 334.658319 16.184235 
L 326.9559 14.833657 
L 316.161675 13.350341 
L 308.783811 12.59518 
L 301.279884 12.031143 
L 294.878863 11.706115 
L 285.527029 11.479415 
L 276.836209 11.523008 
L 269.935561 11.72612 
L 260.595382 12.231483 
L 250.496484 13.068017 
L 242.449374 13.945214 
L 233.395752 15.151172 
L 224.000519 16.644402 
L 214.495579 18.403109 
L 204.3476 20.554756 
L 195.703628 22.610735 
L 185.168804 25.395905 
L 177.859832 27.510664 
L 167.791613 30.672953 
L 157.753747 34.120256 
L 150.523313 36.791362 
L 140.975639 40.569023 
L 134.515139 43.293464 
L 127.360784 46.476454 
L 117.758655 51.03791 
L 108.237045 55.91314 
L 102.293583 59.148692 
L 92.784092 64.663219 
L 85.264928 69.348812 
L 80.369485 72.571538 
L 73.797171 77.136215 
L 67.521209 81.781359 
L 62.893889 85.410253 
L 56.402566 90.840028 
L 50.890925 95.817653 
L 46.667119 99.907714 
L 41.748835 105.038857 
L 37.793619 109.521528 
L 34.901604 113.050825 
L 31.670131 117.311117 
L 28.804817 121.446847 
L 25.954189 126.01217 
L 23.315881 130.808485 
L 21.430476 134.73828 
L 20.159832 137.742277 
L 18.833424 141.347928 
L 17.595284 145.444254 
L 16.758971 148.997018 
L 16.184354 152.30485 
L 15.728768 156.811002 
L 15.646154 160.413172 
L 15.751351 163.06429 
L 15.97778 165.512855 
L 16.461752 168.683156 
L 17.246852 172.147409 
L 18.352417 175.724853 
L 19.638181 178.992486 
L 20.877546 181.628257 
L 22.813083 185.119532 
L 25.095817 188.598261 
L 27.808 192.137322 
L 30.932817 195.663029 
L 33.051215 197.803204 
L 36.417747 200.884127 
L 41.049587 204.622903 
L 43.855085 206.664364 
L 48.284362 209.611793 
L 52.427453 212.113457 
L 57.921564 215.117573 
L 63.988863 218.091371 
L 70.707404 221.03701 
L 75.575763 222.977946 
L 80.703652 224.869344 
L 80.703652 224.869344 
" clip-path="url(#pd3c3dcdcd2)" style="fill: none; stroke: #000000; stroke-width: 2; stroke-linecap: square"/>
   </g>
   <g id="patch_3">
    <path d="M 181.153715 26.53897 
Q 180.126726 26.840128 181.245451 26.512069 
" clip-path="url(#pd3c3dcdcd2)" style="fill: none; stroke: #000000; stroke-width: 2; stroke-linecap: round"/>
    <path d="M 192.248345 28.496082 
L 181.245451 26.512069 
L 189.434398 18.900161 
z
" clip-path="url(#pd3c3dcdcd2)" style="stroke: #000000; stroke-width: 2; stroke-linecap: round"/>
   </g>
   <g id="text_1">
    <!-- $P_0$ -->
    <g transform="translate(374.994734 52.911063) scale(0.2 -0.2)">
     <defs>
      <path id="Cmmi10-50" d="M 313 0 
Q 250 0 250 84 
Q 253 100 262 139 
Q 272 178 289 201 
Q 306 225 331 225 
Q 722 225 878 269 
Q 959 297 997 441 
L 1875 3956 
Q 1888 4019 1888 4044 
Q 1888 4113 1813 4122 
Q 1691 4147 1350 4147 
Q 1288 4147 1288 4231 
Q 1291 4247 1300 4286 
Q 1309 4325 1326 4348 
Q 1344 4372 1369 4372 
L 3578 4372 
Q 3881 4372 4165 4264 
Q 4450 4156 4631 3934 
Q 4813 3713 4813 3397 
Q 4813 2991 4527 2672 
Q 4241 2353 3814 2175 
Q 3388 1997 2988 1997 
L 1947 1997 
L 1556 416 
Q 1544 353 1544 325 
Q 1544 300 1551 283 
Q 1559 266 1573 261 
Q 1588 256 1619 250 
Q 1741 225 2081 225 
Q 2144 225 2144 141 
Q 2122 50 2109 25 
Q 2097 0 2034 0 
L 313 0 
z
M 1978 2188 
L 2875 2188 
Q 3497 2188 3822 2522 
Q 3988 2688 4092 3000 
Q 4197 3313 4197 3566 
Q 4197 3881 3956 4014 
Q 3716 4147 3359 4147 
L 2747 4147 
Q 2572 4147 2515 4117 
Q 2459 4088 2413 3928 
L 1978 2188 
z
" transform="scale(0.015625)"/>
      <path id="Cmr10-30" d="M 1600 -141 
Q 816 -141 533 504 
Q 250 1150 250 2041 
Q 250 2597 351 3087 
Q 453 3578 754 3920 
Q 1056 4263 1600 4263 
Q 2022 4263 2290 4056 
Q 2559 3850 2700 3523 
Q 2841 3197 2892 2823 
Q 2944 2450 2944 2041 
Q 2944 1491 2842 1011 
Q 2741 531 2444 195 
Q 2147 -141 1600 -141 
z
M 1600 25 
Q 1956 25 2131 390 
Q 2306 756 2347 1200 
Q 2388 1644 2388 2144 
Q 2388 2625 2347 3031 
Q 2306 3438 2132 3767 
Q 1959 4097 1600 4097 
Q 1238 4097 1063 3765 
Q 888 3434 847 3029 
Q 806 2625 806 2144 
Q 806 1788 823 1472 
Q 841 1156 916 820 
Q 991 484 1158 254 
Q 1325 25 1600 25 
z
" transform="scale(0.015625)"/>
     </defs>
     <use xlink:href="#Cmmi10-50" transform="translate(0 0.6875)"/>
     <use xlink:href="#Cmr10-30" transform="translate(64.208984 -16.31875) scale(0.7)"/>
    </g>
   </g>
   <g id="text_2">
    <!-- $P_1$ -->
    <g transform="translate(322.261157 42.236921) scale(0.2 -0.2)">
     <defs>
      <path id="Cmr10-31" d="M 594 0 
L 594 225 
Q 1394 225 1394 428 
L 1394 3788 
Q 1063 3628 556 3628 
L 556 3853 
Q 1341 3853 1741 4263 
L 1831 4263 
Q 1853 4263 1873 4245 
Q 1894 4228 1894 4206 
L 1894 428 
Q 1894 225 2694 225 
L 2694 0 
L 594 0 
z
" transform="scale(0.015625)"/>
     </defs>
     <use xlink:href="#Cmmi10-50" transform="translate(0 0.6875)"/>
     <use xlink:href="#Cmr10-31" transform="translate(64.208984 -16.31875) scale(0.7)"/>
    </g>
   </g>
  </g>
 </g>
 <defs>
  <clipPath id="pd3c3dcdcd2">
   <rect x="7.2" y="7.2" width="439.2" height="221.93737"/>
  </clipPath>
 </defs>
</svg>
