<?xml version="1.0" encoding="utf-8" standalone="no"?>
<!DOCTYPE svg PUBLIC "-//W3C//DTD SVG 1.1//EN"
  "http://www.w3.org/Graphics/SVG/1.1/DTD/svg11.dtd">
<svg xmlns:xlink="http://www.w3.org/1999/xlink" width="453.6pt" height="329.763972pt" viewBox="0 0 453.6 329.763972" xmlns="http://www.w3.org/2000/svg" version="1.1">
 <metadata>
  <rdf:RDF xmlns:dc="http://purl.org/dc/elements/1.1/" xmlns:cc="http://creativecommons.org/ns#" xmlns:rdf="http://www.w3.org/1999/02/22-rdf-syntax-ns#">
   <cc:Work>
    <dc:type rdf:resource="http://purl.org/dc/dcmitype/StillImage"/>
    <dc:date>2025-01-07T15:45:33.089384</dc:date>
    <dc:format>image/svg+xml</dc:format>
    <dc:creator>
     <cc:Agent>
      <dc:title>Matplotlib v3.8.0, https://matplotlib.org/</dc:title>
     </cc:Agent>
    </dc:creator>
   </cc:Work>
  </rdf:RDF>
 </metadata>
 <defs>
  <style type="text/css">*{stroke-linejoin: round; stroke-linecap: butt}</style>
 </defs>
 <g id="figure_1">
  <g id="patch_1">
   <path d="M 0 329.763972 
L 453.6 329.763972 
L 453.6 0 
L 0 0 
z
" style="fill: #ffffff"/>
  </g>
  <g id="axes_1">
   <g id="patch_2">
    <path d="M 7.2 322.563972 
L 446.4 322.563972 
L 446.4 7.2 
L 7.2 7.2 
z
" style="fill: #ffffff"/>
   </g>
   <g id="PathCollection_1">
    <path d="M 230.710056 134.534868 
C 231.436345 134.534868 232.132984 134.24631 232.646548 133.732747 
C 233.160111 133.219183 233.448669 132.522544 233.448669 131.796255 
C 233.448669 131.069967 233.160111 130.373327 232.646548 129.859764 
C 232.132984 129.3462 231.436345 129.057642 230.710056 129.057642 
C 229.983768 129.057642 229.287128 129.3462 228.773564 129.859764 
C 228.260001 130.373327 227.971443 131.069967 227.971443 131.796255 
C 227.971443 132.522544 228.260001 133.219183 228.773564 133.732747 
C 229.287128 134.24631 229.983768 134.534868 230.710056 134.534868 
z
" clip-path="url(#p6a59ec2a4e)"/>
   </g>
   <g id="matplotlib.axis_1"/>
   <g id="matplotlib.axis_2"/>
   <g id="line2d_1">
    <path d="M 15.646154 316.49928 
L 15.763414 306.007101 
L 16.011347 299.605931 
L 16.507771 292.64499 
L 17.143627 286.895792 
L 18.224798 280.050962 
L 19.079175 275.895797 
L 20.333504 270.885168 
L 21.823495 265.975094 
L 23.155034 262.212359 
L 25.044111 257.564957 
L 26.755196 253.861477 
L 29.236095 249.107284 
L 31.174105 245.777425 
L 34.136339 241.178597 
L 37.175594 236.937457 
L 40.074106 233.243091 
L 43.140705 229.633218 
L 46.847877 225.602634 
L 51.470147 220.989483 
L 56.485521 216.398712 
L 60.605563 212.890758 
L 66.692211 208.064408 
L 72.76964 203.595791 
L 78.589744 199.587795 
L 84.996431 195.433823 
L 92.267124 190.99649 
L 99.273031 186.957249 
L 107.22394 182.612542 
L 115.071374 178.538688 
L 125.044037 173.623641 
L 136.328574 168.361753 
L 145.59259 164.244071 
L 156.741844 159.494532 
L 169.114786 154.449417 
L 184.892267 148.304475 
L 199.082467 143.006845 
L 219.153888 135.81105 
L 237.411259 129.50364 
L 261.266678 121.509766 
L 296.14846 110.110567 
L 338.599865 96.220223 
L 358.142137 89.592881 
L 373.687157 84.083054 
L 386.548735 79.266075 
L 395.936698 75.52763 
L 404.936695 71.683289 
L 412.498427 68.162501 
L 418.405442 65.133522 
L 423.427931 62.262645 
L 427.331272 59.737576 
L 430.317385 57.525731 
L 432.639348 55.527113 
L 434.646853 53.448591 
L 435.783186 52.001987 
L 436.645285 50.642069 
L 437.287625 49.308455 
L 437.696511 48.06849 
L 437.940602 46.520214 
L 437.919279 45.340624 
L 437.653921 43.951392 
L 437.044453 42.415212 
L 436.065249 40.849677 
L 434.900108 39.482371 
L 433.189486 37.913037 
L 430.72116 36.119446 
L 428.676622 34.878104 
L 425.330664 33.141059 
L 421.71614 31.537789 
L 417.457923 29.893864 
L 411.925679 28.032547 
L 405.349156 26.103294 
L 399.49686 24.575002 
L 390.581206 22.498298 
L 381.809586 20.679587 
L 371.443442 18.747226 
L 359.541789 16.752272 
L 346.936553 14.842619 
L 335.573998 13.264692 
L 335.573998 13.264692 
" clip-path="url(#p6a59ec2a4e)" style="fill: none; stroke: #000000; stroke-width: 2; stroke-linecap: square"/>
   </g>
   <g id="patch_3">
    <path d="M 230.710056 131.796255 
Q 307.325873 105.444377 381.827199 79.819773 
" clip-path="url(#p6a59ec2a4e)" style="fill: none; stroke: #800080; stroke-width: 2; stroke-linecap: round"/>
    <path d="M 370.744673 78.344103 
L 381.827199 79.819773 
L 373.997147 87.800393 
z
" clip-path="url(#p6a59ec2a4e)" style="fill: #800080; stroke: #800080; stroke-width: 2; stroke-linecap: round"/>
   </g>
   <g id="patch_4">
    <path d="M 230.710056 131.796255 
Q 257.061935 208.412072 282.686538 282.913399 
" clip-path="url(#p6a59ec2a4e)" style="fill: none; stroke: #ff0000; stroke-width: 2; stroke-linecap: round"/>
    <path d="M 284.162208 271.830872 
L 282.686538 282.913399 
L 274.705919 275.083346 
z
" clip-path="url(#p6a59ec2a4e)" style="fill: #ff0000; stroke: #ff0000; stroke-width: 2; stroke-linecap: round"/>
   </g>
   <g id="patch_5">
    <path d="M 230.710056 131.796255 
Q 276.336729 116.10304 319.848911 101.137099 
" clip-path="url(#p6a59ec2a4e)" style="fill: none; stroke: #0000ff; stroke-width: 2; stroke-linecap: round"/>
    <path d="M 308.766384 99.661429 
L 319.848911 101.137099 
L 312.018859 109.117718 
z
" clip-path="url(#p6a59ec2a4e)" style="fill: #0000ff; stroke: #0000ff; stroke-width: 2; stroke-linecap: round"/>
   </g>
   <g id="patch_6">
    <path d="M 230.710056 131.796255 
Q 244.368677 171.507518 257.300022 209.10429 
" clip-path="url(#p6a59ec2a4e)" style="fill: none; stroke: #ffa500; stroke-width: 2; stroke-linecap: round"/>
    <path d="M 258.775692 198.021764 
L 257.300022 209.10429 
L 249.319403 201.274238 
z
" clip-path="url(#p6a59ec2a4e)" style="fill: #ffa500; stroke: #ffa500; stroke-width: 2; stroke-linecap: round"/>
   </g>
   <g id="patch_7">
    <path d="M 230.710056 131.796255 
Q 289.99535 155.814302 347.20819 178.992744 
" clip-path="url(#p6a59ec2a4e)" style="fill: none; stroke: #008000; stroke-width: 2; stroke-linecap: round"/>
    <path d="M 339.817313 170.603766 
L 347.20819 178.992744 
L 336.062482 179.872058 
z
" clip-path="url(#p6a59ec2a4e)" style="fill: #008000; stroke: #008000; stroke-width: 2; stroke-linecap: round"/>
   </g>
  </g>
 </g>
 <defs>
  <clipPath id="p6a59ec2a4e">
   <rect x="7.2" y="7.2" width="439.2" height="315.363972"/>
  </clipPath>
 </defs>
</svg>
