<?xml version="1.0" encoding="utf-8" standalone="no"?>
<!DOCTYPE svg PUBLIC "-//W3C//DTD SVG 1.1//EN"
  "http://www.w3.org/Graphics/SVG/1.1/DTD/svg11.dtd">
<svg xmlns:xlink="http://www.w3.org/1999/xlink" width="453.6pt" height="236.338952pt" viewBox="0 0 453.6 236.338952" xmlns="http://www.w3.org/2000/svg" version="1.1">
 <metadata>
  <rdf:RDF xmlns:dc="http://purl.org/dc/elements/1.1/" xmlns:cc="http://creativecommons.org/ns#" xmlns:rdf="http://www.w3.org/1999/02/22-rdf-syntax-ns#">
   <cc:Work>
    <dc:type rdf:resource="http://purl.org/dc/dcmitype/StillImage"/>
    <dc:date>2025-01-07T15:46:18.205103</dc:date>
    <dc:format>image/svg+xml</dc:format>
    <dc:creator>
     <cc:Agent>
      <dc:title>Matplotlib v3.8.0, https://matplotlib.org/</dc:title>
     </cc:Agent>
    </dc:creator>
   </cc:Work>
  </rdf:RDF>
 </metadata>
 <defs>
  <style type="text/css">*{stroke-linejoin: round; stroke-linecap: butt}</style>
 </defs>
 <g id="figure_1">
  <g id="patch_1">
   <path d="M 0 236.338952 
L 453.6 236.338952 
L 453.6 0 
L 0 0 
z
" style="fill: #ffffff"/>
  </g>
  <g id="axes_1">
   <g id="patch_2">
    <path d="M 7.2 229.138952 
L 446.4 229.138952 
L 446.4 7.2 
L 7.2 7.2 
z
" style="fill: #ffffff"/>
   </g>
   <g id="PathCollection_1">
    <path d="M 411.547729 51.288951 
C 412.274017 51.288951 412.970657 51.000393 413.48422 50.48683 
C 413.997784 49.973266 414.286342 49.276627 414.286342 48.550338 
C 414.286342 47.824049 413.997784 47.12741 413.48422 46.613846 
C 412.970657 46.100283 412.274017 45.811725 411.547729 45.811725 
C 410.82144 45.811725 410.124801 46.100283 409.611237 46.613846 
C 409.097674 47.12741 408.809116 47.824049 408.809116 48.550338 
C 408.809116 49.276627 409.097674 49.973266 409.611237 50.48683 
C 410.124801 51.000393 410.82144 51.288951 411.547729 51.288951 
z
" clip-path="url(#pb8d0fa104b)"/>
   </g>
   <g id="matplotlib.axis_1"/>
   <g id="matplotlib.axis_2"/>
   <g id="line2d_1">
    <path d="M 437.953846 75.119075 
L 435.256593 71.577883 
L 433.732202 69.690847 
L 429.360721 64.671326 
L 425.300155 60.452999 
L 421.235054 56.588493 
L 417.4932 53.304607 
L 413.006815 49.66867 
L 408.560766 46.351277 
L 405.727248 44.370476 
L 399.259879 40.19724 
L 394.097846 37.178281 
L 387.816324 33.835804 
L 383.549829 31.754008 
L 378.332958 29.398261 
L 370.952458 26.393034 
L 363.150142 23.595921 
L 358.021228 21.952398 
L 350.625444 19.834629 
L 345.786885 18.60069 
L 338.435375 16.941172 
L 331.471973 15.595382 
L 322.122481 14.112668 
L 316.855484 13.432392 
L 308.080247 12.534146 
L 303.124305 12.151631 
L 295.673006 11.73923 
L 287.647913 11.505956 
L 282.213106 11.468057 
L 271.007588 11.685311 
L 263.836456 12.026853 
L 252.969034 12.836077 
L 245.425086 13.599601 
L 236.137172 14.761985 
L 230.264841 15.621802 
L 219.449444 17.455667 
L 210.926646 19.127761 
L 199.878157 21.592254 
L 190.86238 23.852442 
L 180.281129 26.793448 
L 171.331766 29.527778 
L 164.60489 31.735057 
L 157.496275 34.212591 
L 146.618232 38.301289 
L 135.804799 42.738294 
L 129.326328 45.583962 
L 120.784821 49.56302 
L 111.204106 54.354169 
L 100.890616 59.934969 
L 92.9595 64.557028 
L 86.603409 68.491559 
L 79.558397 73.118978 
L 72.890357 77.788494 
L 67.818667 81.553512 
L 61.229828 86.761328 
L 56.427307 90.817499 
L 51.783877 94.984242 
L 47.468338 99.110019 
L 41.933689 104.836313 
L 38.170465 109.076825 
L 35.258219 112.60061 
L 31.364003 117.733051 
L 28.127891 122.48223 
L 25.369918 127.016053 
L 22.740625 131.949986 
L 20.925867 135.885359 
L 19.438816 139.622898 
L 18.167327 143.42551 
L 17.13627 147.26673 
L 16.498351 150.346559 
L 16.019313 153.539384 
L 15.757243 156.32285 
L 15.646154 158.974748 
L 15.701803 162.258358 
L 15.980388 165.555476 
L 16.410682 168.420115 
L 17.062671 171.444406 
L 17.740708 173.878343 
L 18.68435 176.644836 
L 20.216131 180.277026 
L 21.666017 183.131866 
L 23.734268 186.596122 
L 26.055536 189.916901 
L 28.921779 193.455742 
L 31.051291 195.791221 
L 34.311622 199.002011 
L 37.655739 201.93749 
L 41.934466 205.286112 
L 45.379126 207.716791 
L 48.573392 209.796571 
L 53.490995 212.723688 
L 59.00531 215.675835 
L 63.103438 217.679828 
L 69.110204 220.368785 
L 76.021129 223.15048 
L 80.701697 224.870895 
L 80.701697 224.870895 
" clip-path="url(#pb8d0fa104b)" style="fill: none; stroke: #000000; stroke-width: 2; stroke-linecap: square"/>
   </g>
   <g id="patch_3">
    <path d="M 181.15231 26.539435 
Q 180.125315 26.840596 181.244034 26.512538 
" clip-path="url(#pb8d0fa104b)" style="fill: none; stroke: #000000; stroke-width: 2; stroke-linecap: round"/>
    <path d="M 192.246929 28.496551 
L 181.244034 26.512538 
L 189.432981 18.90063 
z
" clip-path="url(#pb8d0fa104b)" style="stroke: #000000; stroke-width: 2; stroke-linecap: round"/>
   </g>
   <g id="text_1">
    <!-- $P$ -->
    <g transform="translate(414.513121 35.138305) scale(0.2 -0.2)">
     <defs>
      <path id="Cmmi10-50" d="M 313 0 
Q 250 0 250 84 
Q 253 100 262 139 
Q 272 178 289 201 
Q 306 225 331 225 
Q 722 225 878 269 
Q 959 297 997 441 
L 1875 3956 
Q 1888 4019 1888 4044 
Q 1888 4113 1813 4122 
Q 1691 4147 1350 4147 
Q 1288 4147 1288 4231 
Q 1291 4247 1300 4286 
Q 1309 4325 1326 4348 
Q 1344 4372 1369 4372 
L 3578 4372 
Q 3881 4372 4165 4264 
Q 4450 4156 4631 3934 
Q 4813 3713 4813 3397 
Q 4813 2991 4527 2672 
Q 4241 2353 3814 2175 
Q 3388 1997 2988 1997 
L 1947 1997 
L 1556 416 
Q 1544 353 1544 325 
Q 1544 300 1551 283 
Q 1559 266 1573 261 
Q 1588 256 1619 250 
Q 1741 225 2081 225 
Q 2144 225 2144 141 
Q 2122 50 2109 25 
Q 2097 0 2034 0 
L 313 0 
z
M 1978 2188 
L 2875 2188 
Q 3497 2188 3822 2522 
Q 3988 2688 4092 3000 
Q 4197 3313 4197 3566 
Q 4197 3881 3956 4014 
Q 3716 4147 3359 4147 
L 2747 4147 
Q 2572 4147 2515 4117 
Q 2459 4088 2413 3928 
L 1978 2188 
z
" transform="scale(0.015625)"/>
     </defs>
     <use xlink:href="#Cmmi10-50" transform="translate(0 0.6875)"/>
    </g>
   </g>
  </g>
 </g>
 <defs>
  <clipPath id="pb8d0fa104b">
   <rect x="7.2" y="7.2" width="439.2" height="221.938952"/>
  </clipPath>
 </defs>
</svg>
