<?xml version="1.0" encoding="utf-8" standalone="no"?>
<!DOCTYPE svg PUBLIC "-//W3C//DTD SVG 1.1//EN"
  "http://www.w3.org/Graphics/SVG/1.1/DTD/svg11.dtd">
<svg xmlns:xlink="http://www.w3.org/1999/xlink" width="452.644161pt" height="225.137133pt" viewBox="0 0 452.644161 225.137133" xmlns="http://www.w3.org/2000/svg" version="1.1">
 <metadata>
  <rdf:RDF xmlns:dc="http://purl.org/dc/elements/1.1/" xmlns:cc="http://creativecommons.org/ns#" xmlns:rdf="http://www.w3.org/1999/02/22-rdf-syntax-ns#">
   <cc:Work>
    <dc:type rdf:resource="http://purl.org/dc/dcmitype/StillImage"/>
    <dc:date>2025-03-06T19:37:42.360381</dc:date>
    <dc:format>image/svg+xml</dc:format>
    <dc:creator>
     <cc:Agent>
      <dc:title>Matplotlib v3.5.1, https://matplotlib.org/</dc:title>
     </cc:Agent>
    </dc:creator>
   </cc:Work>
  </rdf:RDF>
 </metadata>
 <defs>
  <style type="text/css">*{stroke-linejoin: round; stroke-linecap: butt}</style>
 </defs>
 <g id="figure_1">
  <g id="patch_1">
   <path d="M 0 225.137133 
L 452.644161 225.137133 
L 452.644161 0 
L 0 0 
z
" style="fill: #ffffff"/>
  </g>
  <g id="axes_1">
   <g id="patch_2">
    <path d="M 10.944232 217.937133 
L 445.444161 217.937133 
L 445.444161 7.2 
L 10.944232 7.2 
z
" style="fill: #ffffff"/>
   </g>
   <g id="PathCollection_1">
    <path d="M 40.896684 133.424457 
C 41.834319 133.424457 42.733677 133.051931 43.396684 132.388923 
C 44.059692 131.725916 44.432218 130.826558 44.432218 129.888923 
C 44.432218 128.951289 44.059692 128.051931 43.396684 127.388923 
C 42.733677 126.725916 41.834319 126.353389 40.896684 126.353389 
C 39.95905 126.353389 39.059692 126.725916 38.396684 127.388923 
C 37.733677 128.051931 37.361151 128.951289 37.361151 129.888923 
C 37.361151 130.826558 37.733677 131.725916 38.396684 132.388923 
C 39.059692 133.051931 39.95905 133.424457 40.896684 133.424457 
z
" clip-path="url(#pae99c35478)"/>
   </g>
   <g id="PathCollection_2">
    <path d="M 37.275319 166.008108 
C 38.212954 166.008108 39.112311 165.635582 39.775319 164.972575 
C 40.438327 164.309567 40.810853 163.410209 40.810853 162.472575 
C 40.810853 161.53494 40.438327 160.635582 39.775319 159.972575 
C 39.112311 159.309567 38.212954 158.937041 37.275319 158.937041 
C 36.337685 158.937041 35.438327 159.309567 34.775319 159.972575 
C 34.112311 160.635582 33.739785 161.53494 33.739785 162.472575 
C 33.739785 163.410209 34.112311 164.309567 34.775319 164.972575 
C 35.438327 165.635582 36.337685 166.008108 37.275319 166.008108 
z
" clip-path="url(#pae99c35478)"/>
   </g>
   <g id="matplotlib.axis_1"/>
   <g id="matplotlib.axis_2"/>
   <g id="line2d_1">
    <path d="M 437.088394 71.690869 
L 434.868925 68.762251 
L 431.671442 64.86076 
L 428.342678 61.137126 
L 424.573505 57.271783 
L 419.529468 52.588746 
L 415.44462 49.145102 
L 410.301447 45.188137 
L 405.862843 42.070158 
L 402.256041 39.716714 
L 397.284121 36.711305 
L 390.398289 32.95809 
L 383.343893 29.549038 
L 377.793047 27.143529 
L 371.140594 24.551253 
L 366.445937 22.897888 
L 359.495356 20.697072 
L 353.62071 19.051436 
L 347.236562 17.47074 
L 339.626881 15.851017 
L 331.806118 14.466697 
L 322.750381 13.195551 
L 314.595653 12.337125 
L 306.201735 11.721047 
L 298.346208 11.378595 
L 288.952844 11.252971 
L 279.920795 11.411933 
L 271.1765 11.81756 
L 261.611072 12.535975 
L 251.458644 13.603913 
L 240.355775 15.123558 
L 231.177018 16.652695 
L 226.617818 17.503208 
L 214.574641 20.039039 
L 204.970426 22.362315 
L 195.394197 24.946818 
L 186.157875 27.696762 
L 178.570399 30.148489 
L 168.164221 33.801622 
L 157.772983 37.797762 
L 148.973866 41.467417 
L 139.748662 45.613112 
L 131.558445 49.566823 
L 127.186652 51.78921 
L 118.517006 56.443929 
L 111.210734 60.643136 
L 102.894575 65.765687 
L 96.560483 69.941912 
L 88.460056 75.680378 
L 81.81373 80.77697 
L 75.50965 85.998024 
L 70.624632 90.354017 
L 66.757276 94.032042 
L 62.365446 98.504167 
L 59.296188 101.853325 
L 55.461522 106.357969 
L 51.315612 111.744248 
L 49.004082 115.055566 
L 46.440638 119.077227 
L 43.718461 123.907787 
L 41.686935 128.076225 
L 39.863096 132.489382 
L 38.860131 135.362902 
L 37.679511 139.494804 
L 37.069913 142.239925 
L 36.414435 146.451744 
L 36.165285 149.368575 
L 36.090197 151.755389 
L 36.208813 155.428181 
L 36.643695 159.235465 
L 37.317976 162.653531 
L 38.321042 166.213504 
L 39.488439 169.387782 
L 41.011167 172.728037 
L 42.563557 175.578809 
L 44.05566 177.970048 
L 46.158096 180.931531 
L 48.982823 184.376844 
L 51.10353 186.668276 
L 54.133344 189.611479 
L 58.057289 192.97872 
L 61.755775 195.798628 
L 66.097186 198.766157 
L 71.878129 202.264455 
L 77.737547 205.391788 
L 82.597482 207.726112 
L 88.912317 210.467012 
L 93.804293 212.395719 
L 97.867282 213.884495 
L 97.867282 213.884495 
" clip-path="url(#pae99c35478)" style="fill: none; stroke: #000000; stroke-width: 2; stroke-linecap: square"/>
   </g>
   <g id="patch_3">
    <path d="M 193.248006 25.563114 
Q 192.272845 25.849074 193.443398 25.505817 
" clip-path="url(#pae99c35478)" style="fill: none; stroke: #000000; stroke-width: 2; stroke-linecap: round"/>
    <path d="M 204.446293 27.48983 
L 193.443398 25.505817 
L 201.632345 17.893909 
L 204.446293 27.48983 
z
" clip-path="url(#pae99c35478)" style="stroke: #000000; stroke-width: 2; stroke-linecap: round"/>
   </g>
   <g id="text_1">
    <!-- $Q_0$ -->
    <g transform="translate(19.809025 117.432354)scale(0.2 -0.2)">
     <defs>
      <path id="Cmmi10-51" d="M 1947 -141 
Q 1466 -141 1094 79 
Q 722 300 520 692 
Q 319 1084 319 1563 
Q 319 2259 714 2950 
Q 1109 3641 1756 4077 
Q 2403 4513 3109 4513 
Q 3475 4513 3778 4381 
Q 4081 4250 4290 4017 
Q 4500 3784 4614 3471 
Q 4728 3159 4728 2791 
Q 4728 2366 4581 1936 
Q 4434 1506 4171 1136 
Q 3909 766 3559 484 
Q 3209 203 2809 38 
Q 2850 -256 2934 -425 
Q 3019 -594 3256 -594 
Q 3506 -594 3726 -412 
Q 3947 -231 4006 13 
Q 4019 72 4078 72 
Q 4147 72 4147 -13 
Q 4100 -219 4008 -430 
Q 3916 -641 3786 -823 
Q 3656 -1006 3478 -1123 
Q 3300 -1241 3084 -1241 
Q 2547 -1241 2547 -550 
Q 2547 -509 2562 -332 
Q 2578 -156 2578 -44 
Q 2269 -141 1947 -141 
z
M 1709 300 
Q 1709 44 1991 44 
Q 2275 44 2591 184 
L 2591 244 
Q 2591 503 2509 648 
Q 2428 794 2194 794 
Q 2078 794 1964 723 
Q 1850 653 1779 539 
Q 1709 425 1709 300 
z
M 1544 288 
Q 1544 456 1637 612 
Q 1731 769 1881 864 
Q 2031 959 2203 959 
Q 2481 959 2607 771 
Q 2734 584 2778 281 
Q 3188 525 3500 978 
Q 3813 1431 3977 1973 
Q 4141 2516 4141 3003 
Q 4141 3356 4023 3656 
Q 3906 3956 3664 4140 
Q 3422 4325 3066 4325 
Q 2722 4325 2403 4156 
Q 2084 3988 1813 3706 
Q 1550 3434 1342 3032 
Q 1134 2631 1021 2193 
Q 909 1756 909 1356 
Q 909 947 1068 612 
Q 1228 278 1569 128 
Q 1544 194 1544 288 
z
" transform="scale(0.015625)"/>
      <path id="Cmr10-30" d="M 1600 -141 
Q 816 -141 533 504 
Q 250 1150 250 2041 
Q 250 2597 351 3087 
Q 453 3578 754 3920 
Q 1056 4263 1600 4263 
Q 2022 4263 2290 4056 
Q 2559 3850 2700 3523 
Q 2841 3197 2892 2823 
Q 2944 2450 2944 2041 
Q 2944 1491 2842 1011 
Q 2741 531 2444 195 
Q 2147 -141 1600 -141 
z
M 1600 25 
Q 1956 25 2131 390 
Q 2306 756 2347 1200 
Q 2388 1644 2388 2144 
Q 2388 2625 2347 3031 
Q 2306 3438 2132 3767 
Q 1959 4097 1600 4097 
Q 1238 4097 1063 3765 
Q 888 3434 847 3029 
Q 806 2625 806 2144 
Q 806 1788 823 1472 
Q 841 1156 916 820 
Q 991 484 1158 254 
Q 1325 25 1600 25 
z
" transform="scale(0.015625)"/>
     </defs>
     <use xlink:href="#Cmmi10-51" transform="translate(0 0.484375)"/>
     <use xlink:href="#Cmr10-30" transform="translate(79.003906 -16.521875)scale(0.7)"/>
    </g>
   </g>
   <g id="text_2">
    <!-- $Q_1$ -->
    <g transform="translate(7.2 159.003665)scale(0.2 -0.2)">
     <defs>
      <path id="Cmr10-31" d="M 594 0 
L 594 225 
Q 1394 225 1394 428 
L 1394 3788 
Q 1063 3628 556 3628 
L 556 3853 
Q 1341 3853 1741 4263 
L 1831 4263 
Q 1853 4263 1873 4245 
Q 1894 4228 1894 4206 
L 1894 428 
Q 1894 225 2694 225 
L 2694 0 
L 594 0 
z
" transform="scale(0.015625)"/>
     </defs>
     <use xlink:href="#Cmmi10-51" transform="translate(0 0.484375)"/>
     <use xlink:href="#Cmr10-31" transform="translate(79.003906 -16.521875)scale(0.7)"/>
    </g>
   </g>
  </g>
 </g>
 <defs>
  <clipPath id="pae99c35478">
   <rect x="10.944232" y="7.2" width="434.499929" height="210.737133"/>
  </clipPath>
 </defs>
</svg>
