<?xml version="1.0" encoding="utf-8" standalone="no"?>
<!DOCTYPE svg PUBLIC "-//W3C//DTD SVG 1.1//EN"
  "http://www.w3.org/Graphics/SVG/1.1/DTD/svg11.dtd">
<svg xmlns:xlink="http://www.w3.org/1999/xlink" width="453.6pt" height="236.323176pt" viewBox="0 0 453.6 236.323176" xmlns="http://www.w3.org/2000/svg" version="1.1">
 <metadata>
  <rdf:RDF xmlns:dc="http://purl.org/dc/elements/1.1/" xmlns:cc="http://creativecommons.org/ns#" xmlns:rdf="http://www.w3.org/1999/02/22-rdf-syntax-ns#">
   <cc:Work>
    <dc:type rdf:resource="http://purl.org/dc/dcmitype/StillImage"/>
    <dc:date>2025-04-09T11:38:54.452406</dc:date>
    <dc:format>image/svg+xml</dc:format>
    <dc:creator>
     <cc:Agent>
      <dc:title>Matplotlib v3.8.0, https://matplotlib.org/</dc:title>
     </cc:Agent>
    </dc:creator>
   </cc:Work>
  </rdf:RDF>
 </metadata>
 <defs>
  <style type="text/css">*{stroke-linejoin: round; stroke-linecap: butt}</style>
 </defs>
 <g id="figure_1">
  <g id="patch_1">
   <path d="M 0 236.323176 
L 453.6 236.323176 
L 453.6 0 
L 0 0 
z
" style="fill: #ffffff"/>
  </g>
  <g id="axes_1">
   <g id="patch_2">
    <path d="M 7.2 229.123176 
L 446.4 229.123176 
L 446.4 7.2 
L 7.2 7.2 
z
" style="fill: #ffffff"/>
   </g>
   <g id="PathCollection_1">
    <path d="M 411.547998 52.072197 
C 412.485633 52.072197 413.38499 51.699671 414.047998 51.036663 
C 414.711006 50.373655 415.083532 49.474298 415.083532 48.536663 
C 415.083532 47.599029 414.711006 46.699671 414.047998 46.036663 
C 413.38499 45.373655 412.485633 45.001129 411.547998 45.001129 
C 410.610364 45.001129 409.711006 45.373655 409.047998 46.036663 
C 408.38499 46.699671 408.012464 47.599029 408.012464 48.536663 
C 408.012464 49.474298 408.38499 50.373655 409.047998 51.036663 
C 409.711006 51.699671 410.610364 52.072197 411.547998 52.072197 
z
" clip-path="url(#p9f50b172ff)"/>
   </g>
   <g id="matplotlib.axis_1"/>
   <g id="matplotlib.axis_2"/>
   <g id="line2d_1">
    <path d="M 437.953846 75.105129 
L 434.318852 70.394009 
L 432.200834 67.855824 
L 428.395842 63.619356 
L 424.953679 60.096522 
L 420.311563 55.741169 
L 416.020521 52.062912 
L 412.706618 49.422242 
L 406.363771 44.793041 
L 401.875627 41.815969 
L 396.787461 38.70502 
L 392.053072 36.03831 
L 386.698845 33.262647 
L 379.143411 29.737397 
L 374.164043 27.641951 
L 367.348552 25.04112 
L 359.506488 22.399462 
L 355.534659 21.194417 
L 348.027816 19.144159 
L 339.029599 17.052436 
L 333.400927 15.933379 
L 325.00657 14.518262 
L 318.608009 13.633246 
L 311.613867 12.847864 
L 305.199813 12.287708 
L 299.993009 11.941486 
L 291.512198 11.578168 
L 285.665238 11.467753 
L 275.507542 11.537775 
L 267.641074 11.813084 
L 259.441256 12.299125 
L 247.84526 13.323763 
L 240.7296 14.143744 
L 231.049328 15.488363 
L 222.499272 16.892877 
L 215.204099 18.250703 
L 207.931085 19.749955 
L 197.881155 22.060722 
L 190.400981 23.961409 
L 182.179719 26.229925 
L 174.528806 28.512058 
L 164.314139 31.820888 
L 154.645888 35.236224 
L 147.446151 37.96473 
L 141.034354 40.532421 
L 129.854622 45.33423 
L 123.368958 48.318935 
L 113.3773 53.22352 
L 107.845862 56.1091 
L 102.113845 59.23672 
L 93.731994 64.081541 
L 88.215532 67.461398 
L 80.006373 72.80432 
L 75.058181 76.225855 
L 67.517226 81.772497 
L 60.7748 87.124705 
L 55.552108 91.572605 
L 51.80904 94.95044 
L 46.71354 99.849807 
L 41.349694 105.464139 
L 38.300002 108.915834 
L 34.393513 113.685667 
L 31.615214 117.376141 
L 28.771715 121.486499 
L 25.833977 126.20694 
L 22.904501 131.61347 
L 21.192963 135.265 
L 19.570657 139.263067 
L 18.342565 142.85337 
L 17.304969 146.569066 
L 16.392405 150.96702 
L 15.891161 154.739553 
L 15.655593 158.684496 
L 15.730124 162.682352 
L 15.963334 165.358522 
L 16.630235 169.515088 
L 17.543937 173.191849 
L 18.978803 177.384041 
L 20.452118 180.749175 
L 21.685758 183.145114 
L 23.616219 186.391493 
L 25.633226 189.32704 
L 28.844971 193.347354 
L 32.140114 196.888457 
L 35.655353 200.201189 
L 38.493534 202.60736 
L 42.142767 205.421025 
L 46.354422 208.350384 
L 50.880797 211.190616 
L 54.406371 213.21862 
L 59.330541 215.823082 
L 66.084307 219.031514 
L 70.475703 220.926183 
L 76.278096 223.231311 
L 80.70534 224.855422 
L 80.70534 224.855422 
" clip-path="url(#p9f50b172ff)" style="fill: none; stroke: #000000; stroke-width: 2; stroke-linecap: square"/>
   </g>
   <g id="patch_3">
    <path d="M 181.154928 26.525985 
Q 180.127944 26.827142 181.246673 26.499081 
" clip-path="url(#p9f50b172ff)" style="fill: none; stroke: #000000; stroke-width: 2; stroke-linecap: round"/>
    <path d="M 192.249568 28.483094 
L 181.246673 26.499081 
L 189.435621 18.887173 
z
" clip-path="url(#p9f50b172ff)" style="stroke: #000000; stroke-width: 2; stroke-linecap: round"/>
   </g>
   <g id="text_1">
    <!-- $P$ -->
    <g transform="translate(414.513293 35.124823) scale(0.2 -0.2)">
     <defs>
      <path id="Cmmi10-50" d="M 313 0 
Q 250 0 250 84 
Q 253 100 262 139 
Q 272 178 289 201 
Q 306 225 331 225 
Q 722 225 878 269 
Q 959 297 997 441 
L 1875 3956 
Q 1888 4019 1888 4044 
Q 1888 4113 1813 4122 
Q 1691 4147 1350 4147 
Q 1288 4147 1288 4231 
Q 1291 4247 1300 4286 
Q 1309 4325 1326 4348 
Q 1344 4372 1369 4372 
L 3578 4372 
Q 3881 4372 4165 4264 
Q 4450 4156 4631 3934 
Q 4813 3713 4813 3397 
Q 4813 2991 4527 2672 
Q 4241 2353 3814 2175 
Q 3388 1997 2988 1997 
L 1947 1997 
L 1556 416 
Q 1544 353 1544 325 
Q 1544 300 1551 283 
Q 1559 266 1573 261 
Q 1588 256 1619 250 
Q 1741 225 2081 225 
Q 2144 225 2144 141 
Q 2122 50 2109 25 
Q 2097 0 2034 0 
L 313 0 
z
M 1978 2188 
L 2875 2188 
Q 3497 2188 3822 2522 
Q 3988 2688 4092 3000 
Q 4197 3313 4197 3566 
Q 4197 3881 3956 4014 
Q 3716 4147 3359 4147 
L 2747 4147 
Q 2572 4147 2515 4117 
Q 2459 4088 2413 3928 
L 1978 2188 
z
" transform="scale(0.015625)"/>
     </defs>
     <use xlink:href="#Cmmi10-50" transform="translate(0 0.6875)"/>
    </g>
   </g>
  </g>
 </g>
 <defs>
  <clipPath id="p9f50b172ff">
   <rect x="7.2" y="7.2" width="439.2" height="221.923176"/>
  </clipPath>
 </defs>
</svg>
