<?xml version="1.0" encoding="utf-8" standalone="no"?>
<!DOCTYPE svg PUBLIC "-//W3C//DTD SVG 1.1//EN"
  "http://www.w3.org/Graphics/SVG/1.1/DTD/svg11.dtd">
<svg xmlns:xlink="http://www.w3.org/1999/xlink" width="453.6pt" height="236.335643pt" viewBox="0 0 453.6 236.335643" xmlns="http://www.w3.org/2000/svg" version="1.1">
 <metadata>
  <rdf:RDF xmlns:dc="http://purl.org/dc/elements/1.1/" xmlns:cc="http://creativecommons.org/ns#" xmlns:rdf="http://www.w3.org/1999/02/22-rdf-syntax-ns#">
   <cc:Work>
    <dc:type rdf:resource="http://purl.org/dc/dcmitype/StillImage"/>
    <dc:date>2025-01-07T15:45:45.174714</dc:date>
    <dc:format>image/svg+xml</dc:format>
    <dc:creator>
     <cc:Agent>
      <dc:title>Matplotlib v3.8.0, https://matplotlib.org/</dc:title>
     </cc:Agent>
    </dc:creator>
   </cc:Work>
  </rdf:RDF>
 </metadata>
 <defs>
  <style type="text/css">*{stroke-linejoin: round; stroke-linecap: butt}</style>
 </defs>
 <g id="figure_1">
  <g id="patch_1">
   <path d="M 0 236.335643 
L 453.6 236.335643 
L 453.6 0 
L 0 0 
z
" style="fill: #ffffff"/>
  </g>
  <g id="axes_1">
   <g id="patch_2">
    <path d="M 7.2 229.135643 
L 446.4 229.135643 
L 446.4 7.2 
L 7.2 7.2 
z
" style="fill: #ffffff"/>
   </g>
   <g id="PathCollection_1">
    <path d="M 411.547818 51.286299 
C 412.274106 51.286299 412.970746 50.997741 413.484309 50.484178 
C 413.997873 49.970614 414.28643 49.273975 414.28643 48.547686 
C 414.28643 47.821397 413.997873 47.124758 413.484309 46.611194 
C 412.970746 46.097631 412.274106 45.809073 411.547818 45.809073 
C 410.821529 45.809073 410.12489 46.097631 409.611326 46.611194 
C 409.097762 47.124758 408.809205 47.821397 408.809205 48.547686 
C 408.809205 49.273975 409.097762 49.970614 409.611326 50.484178 
C 410.12489 50.997741 410.821529 51.286299 411.547818 51.286299 
z
" clip-path="url(#p5b29ef721a)"/>
   </g>
   <g id="matplotlib.axis_1"/>
   <g id="matplotlib.axis_2"/>
   <g id="line2d_1">
    <path d="M 437.953846 75.116333 
L 435.183212 71.482514 
L 430.695264 66.143959 
L 428.206576 63.429653 
L 422.948719 58.174685 
L 417.967803 53.705072 
L 412.63165 49.375532 
L 407.759366 45.77827 
L 402.847751 42.452569 
L 397.673108 39.238698 
L 390.951526 35.458276 
L 385.811855 32.83696 
L 377.766329 29.151646 
L 371.241943 26.501425 
L 366.039478 24.585951 
L 358.898555 22.220421 
L 352.493212 20.339782 
L 344.040312 18.180762 
L 337.272007 16.698785 
L 329.254722 15.208336 
L 320.766226 13.924499 
L 313.091315 13.009215 
L 305.497682 12.321265 
L 299.327686 11.914916 
L 288.75547 11.52291 
L 280.412576 11.47388 
L 270.895525 11.686942 
L 262.433529 12.109244 
L 256.582506 12.526078 
L 245.862043 13.548467 
L 238.401996 14.453681 
L 230.201808 15.629119 
L 219.136753 17.511075 
L 210.308281 19.254446 
L 200.048982 21.549225 
L 189.632054 24.175987 
L 183.658006 25.818436 
L 171.319041 29.529527 
L 165.238859 31.519102 
L 158.613829 33.810811 
L 147.249507 38.051701 
L 139.90285 41.009493 
L 130.646294 44.990211 
L 123.393299 48.317456 
L 115.020345 52.400329 
L 108.659322 55.686643 
L 99.805659 60.547468 
L 94.448723 63.663676 
L 88.709603 67.16176 
L 80.551608 72.446523 
L 73.795226 77.135054 
L 67.498246 81.796325 
L 61.628599 86.433223 
L 57.048513 90.27746 
L 53.378655 93.521981 
L 47.997724 98.587773 
L 44.065364 102.564552 
L 40.851766 106.021886 
L 36.237873 111.387479 
L 32.272192 116.485142 
L 28.621634 121.721931 
L 26.114364 125.737534 
L 23.565732 130.320259 
L 21.7857 133.95231 
L 19.698745 138.925862 
L 18.182074 143.378419 
L 17.255335 146.771561 
L 16.429287 150.744721 
L 15.932587 154.31555 
L 15.682999 157.718024 
L 15.660633 161.165598 
L 15.943685 165.22298 
L 16.43091 168.520001 
L 16.961516 171.023103 
L 17.847556 174.213749 
L 18.831368 177.024853 
L 20.054908 179.923807 
L 21.782035 183.337081 
L 23.739386 186.598754 
L 25.641564 189.35424 
L 27.898508 192.246088 
L 30.081696 194.749812 
L 33.474102 198.209355 
L 36.849177 201.253665 
L 39.374435 203.327417 
L 43.774151 206.606366 
L 48.610895 209.816078 
L 54.166304 213.098735 
L 58.23624 215.278794 
L 63.983788 218.087673 
L 68.422365 220.07076 
L 73.684112 222.240131 
L 80.702899 224.86765 
L 80.702899 224.86765 
" clip-path="url(#p5b29ef721a)" style="fill: none; stroke: #000000; stroke-width: 2; stroke-linecap: square"/>
   </g>
   <g id="patch_3">
    <path d="M 181.153174 26.536857 
Q 180.126183 26.838016 181.244905 26.509958 
" clip-path="url(#p5b29ef721a)" style="fill: none; stroke: #000000; stroke-width: 2; stroke-linecap: round"/>
    <path d="M 192.2478 28.493971 
L 181.244905 26.509958 
L 189.433852 18.89805 
z
" clip-path="url(#p5b29ef721a)" style="stroke: #000000; stroke-width: 2; stroke-linecap: round"/>
   </g>
   <g id="patch_4">
    <path d="M 411.547818 48.547686 
Q 376.052718 39.082326 342.718185 30.193117 
" clip-path="url(#p5b29ef721a)" style="fill: none; stroke: #ff0000; stroke-width: 2; stroke-linecap: round"/>
    <path d="M 351.092222 37.600919 
L 342.718185 30.193117 
L 353.668848 27.938569 
z
" clip-path="url(#p5b29ef721a)" style="fill: #ff0000; stroke: #ff0000; stroke-width: 2; stroke-linecap: round"/>
   </g>
   <g id="text_1">
    <!-- $P$ -->
    <g transform="translate(414.513178 35.135716) scale(0.2 -0.2)">
     <defs>
      <path id="Cmmi10-50" d="M 313 0 
Q 250 0 250 84 
Q 253 100 262 139 
Q 272 178 289 201 
Q 306 225 331 225 
Q 722 225 878 269 
Q 959 297 997 441 
L 1875 3956 
Q 1888 4019 1888 4044 
Q 1888 4113 1813 4122 
Q 1691 4147 1350 4147 
Q 1288 4147 1288 4231 
Q 1291 4247 1300 4286 
Q 1309 4325 1326 4348 
Q 1344 4372 1369 4372 
L 3578 4372 
Q 3881 4372 4165 4264 
Q 4450 4156 4631 3934 
Q 4813 3713 4813 3397 
Q 4813 2991 4527 2672 
Q 4241 2353 3814 2175 
Q 3388 1997 2988 1997 
L 1947 1997 
L 1556 416 
Q 1544 353 1544 325 
Q 1544 300 1551 283 
Q 1559 266 1573 261 
Q 1588 256 1619 250 
Q 1741 225 2081 225 
Q 2144 225 2144 141 
Q 2122 50 2109 25 
Q 2097 0 2034 0 
L 313 0 
z
M 1978 2188 
L 2875 2188 
Q 3497 2188 3822 2522 
Q 3988 2688 4092 3000 
Q 4197 3313 4197 3566 
Q 4197 3881 3956 4014 
Q 3716 4147 3359 4147 
L 2747 4147 
Q 2572 4147 2515 4117 
Q 2459 4088 2413 3928 
L 1978 2188 
z
" transform="scale(0.015625)"/>
     </defs>
     <use xlink:href="#Cmmi10-50" transform="translate(0 0.6875)"/>
    </g>
   </g>
  </g>
 </g>
 <defs>
  <clipPath id="p5b29ef721a">
   <rect x="7.2" y="7.2" width="439.2" height="221.935643"/>
  </clipPath>
 </defs>
</svg>
