<?xml version="1.0" encoding="utf-8" standalone="no"?>
<!DOCTYPE svg PUBLIC "-//W3C//DTD SVG 1.1//EN"
  "http://www.w3.org/Graphics/SVG/1.1/DTD/svg11.dtd">
<svg xmlns:xlink="http://www.w3.org/1999/xlink" width="453.6pt" height="329.76654pt" viewBox="0 0 453.6 329.76654" xmlns="http://www.w3.org/2000/svg" version="1.1">
 <metadata>
  <rdf:RDF xmlns:dc="http://purl.org/dc/elements/1.1/" xmlns:cc="http://creativecommons.org/ns#" xmlns:rdf="http://www.w3.org/1999/02/22-rdf-syntax-ns#">
   <cc:Work>
    <dc:type rdf:resource="http://purl.org/dc/dcmitype/StillImage"/>
    <dc:date>2025-03-06T19:40:22.835955</dc:date>
    <dc:format>image/svg+xml</dc:format>
    <dc:creator>
     <cc:Agent>
      <dc:title>Matplotlib v3.5.1, https://matplotlib.org/</dc:title>
     </cc:Agent>
    </dc:creator>
   </cc:Work>
  </rdf:RDF>
 </metadata>
 <defs>
  <style type="text/css">*{stroke-linejoin: round; stroke-linecap: butt}</style>
 </defs>
 <g id="figure_1">
  <g id="patch_1">
   <path d="M 0 329.76654 
L 453.6 329.76654 
L 453.6 0 
L 0 0 
z
" style="fill: #ffffff"/>
  </g>
  <g id="axes_1">
   <g id="patch_2">
    <path d="M 7.2 322.56654 
L 446.4 322.56654 
L 446.4 7.2 
L 7.2 7.2 
z
" style="fill: #ffffff"/>
   </g>
   <g id="PathCollection_1">
    <path d="M 230.711808 134.535883 
C 231.438096 134.535883 232.134736 134.247325 232.648299 133.733762 
C 233.161863 133.220198 233.45042 132.523558 233.45042 131.79727 
C 233.45042 131.070981 233.161863 130.374342 232.648299 129.860778 
C 232.134736 129.347215 231.438096 129.058657 230.711808 129.058657 
C 229.985519 129.058657 229.288879 129.347215 228.775316 129.860778 
C 228.261752 130.374342 227.973195 131.070981 227.973195 131.79727 
C 227.973195 132.523558 228.261752 133.220198 228.775316 133.733762 
C 229.288879 134.247325 229.985519 134.535883 230.711808 134.535883 
z
" clip-path="url(#peeccac5f98)"/>
   </g>
   <g id="matplotlib.axis_1"/>
   <g id="matplotlib.axis_2"/>
   <g id="line2d_1">
    <path d="M 15.646154 316.501799 
L 15.763066 306.022965 
L 16.024293 299.365992 
L 16.497961 292.755038 
L 17.150864 286.842947 
L 18.090496 280.785508 
L 19.247352 275.162954 
L 20.627443 269.844954 
L 22.370936 264.371329 
L 23.502534 261.306142 
L 25.750362 255.988801 
L 27.975876 251.445785 
L 30.359621 247.143758 
L 32.404304 243.805379 
L 34.445253 240.729731 
L 38.020708 235.830539 
L 41.15143 231.945081 
L 44.73857 227.857353 
L 48.217338 224.194418 
L 50.92719 221.512715 
L 55.698641 217.0961 
L 61.204138 212.400372 
L 66.871575 207.929811 
L 71.771961 204.310069 
L 77.27397 200.474908 
L 83.666593 196.277807 
L 90.841683 191.847342 
L 99.26012 186.966348 
L 108.452045 181.963584 
L 116.785151 177.676156 
L 124.750231 173.766446 
L 135.819817 168.594631 
L 148.165407 163.130953 
L 158.000321 158.972874 
L 173.644608 152.656231 
L 187.839027 147.189626 
L 206.21658 140.414648 
L 226.258126 133.334844 
L 243.181223 127.549572 
L 271.366037 118.18696 
L 351.973467 91.714905 
L 367.037457 86.475424 
L 380.81829 81.450239 
L 391.368944 77.377012 
L 400.948009 73.427068 
L 408.806494 69.92432 
L 415.265443 66.783263 
L 419.825103 64.357522 
L 424.33133 61.70862 
L 427.471338 59.643081 
L 430.490278 57.390239 
L 432.224724 55.912285 
L 434.460967 53.665956 
L 435.855984 51.903698 
L 436.673206 50.598347 
L 437.331367 49.207524 
L 437.807883 47.588719 
L 437.953846 46.30302 
L 437.89467 45.092774 
L 437.59818 43.755056 
L 437.100858 42.521368 
L 436.343199 41.233835 
L 435.249223 39.853874 
L 434.035776 38.639998 
L 432.202031 37.143369 
L 429.724429 35.491069 
L 426.872677 33.903084 
L 423.136995 32.139747 
L 419.709772 30.734505 
L 415.025823 29.042337 
L 409.543902 27.302695 
L 403.033073 25.479398 
L 395.704024 23.658286 
L 387.404624 21.816678 
L 376.94659 19.746823 
L 366.273798 17.854303 
L 353.460478 15.807483 
L 338.036435 13.596142 
L 335.576604 13.264741 
L 335.576604 13.264741 
" clip-path="url(#peeccac5f98)" style="fill: none; stroke: #000000; stroke-width: 2; stroke-linecap: square"/>
   </g>
   <g id="patch_3">
    <path d="M 230.711808 131.79727 
Q 307.328248 105.445177 381.830199 79.820359 
" clip-path="url(#peeccac5f98)" style="fill: none; stroke: #800080; stroke-width: 2; stroke-linecap: round"/>
    <path d="M 370.747672 78.344689 
L 381.830199 79.820359 
L 374.000147 87.800978 
L 370.747672 78.344689 
z
" clip-path="url(#peeccac5f98)" style="fill: #800080; stroke: #800080; stroke-width: 2; stroke-linecap: round"/>
   </g>
   <g id="patch_4">
    <path d="M 230.711808 131.79727 
Q 257.063901 208.413711 282.688719 282.915661 
" clip-path="url(#peeccac5f98)" style="fill: none; stroke: #ff0000; stroke-width: 2; stroke-linecap: round"/>
    <path d="M 284.164389 271.833134 
L 282.688719 282.915661 
L 274.708099 275.085609 
L 284.164389 271.833134 
z
" clip-path="url(#peeccac5f98)" style="fill: #ff0000; stroke: #ff0000; stroke-width: 2; stroke-linecap: round"/>
   </g>
   <g id="patch_5">
    <path d="M 230.711808 131.79727 
Q 276.338852 116.103926 319.851406 101.137858 
" clip-path="url(#peeccac5f98)" style="fill: none; stroke: #0000ff; stroke-width: 2; stroke-linecap: round"/>
    <path d="M 308.768879 99.662188 
L 319.851406 101.137858 
L 312.021353 109.118477 
L 308.768879 99.662188 
z
" clip-path="url(#peeccac5f98)" style="fill: #0000ff; stroke: #0000ff; stroke-width: 2; stroke-linecap: round"/>
   </g>
   <g id="patch_6">
    <path d="M 230.711808 131.79727 
Q 244.370539 171.508856 257.301996 209.105952 
" clip-path="url(#peeccac5f98)" style="fill: none; stroke: #ffa500; stroke-width: 2; stroke-linecap: round"/>
    <path d="M 258.777666 198.023425 
L 257.301996 209.105952 
L 249.321377 201.2759 
L 258.777666 198.023425 
z
" clip-path="url(#peeccac5f98)" style="fill: #ffa500; stroke: #ffa500; stroke-width: 2; stroke-linecap: round"/>
   </g>
   <g id="patch_7">
    <path d="M 230.711808 131.79727 
Q 289.997584 155.815513 347.210907 178.99415 
" clip-path="url(#peeccac5f98)" style="fill: none; stroke: #008000; stroke-width: 2; stroke-linecap: round"/>
    <path d="M 339.82003 170.605172 
L 347.210907 178.99415 
L 336.065199 179.873464 
L 339.82003 170.605172 
z
" clip-path="url(#peeccac5f98)" style="fill: #008000; stroke: #008000; stroke-width: 2; stroke-linecap: round"/>
   </g>
  </g>
 </g>
 <defs>
  <clipPath id="peeccac5f98">
   <rect x="7.2" y="7.2" width="439.2" height="315.36654"/>
  </clipPath>
 </defs>
</svg>
