<?xml version="1.0" encoding="utf-8" standalone="no"?>
<!DOCTYPE svg PUBLIC "-//W3C//DTD SVG 1.1//EN"
  "http://www.w3.org/Graphics/SVG/1.1/DTD/svg11.dtd">
<svg xmlns:xlink="http://www.w3.org/1999/xlink" width="453.6pt" height="236.321742pt" viewBox="0 0 453.6 236.321742" xmlns="http://www.w3.org/2000/svg" version="1.1">
 <metadata>
  <rdf:RDF xmlns:dc="http://purl.org/dc/elements/1.1/" xmlns:cc="http://creativecommons.org/ns#" xmlns:rdf="http://www.w3.org/1999/02/22-rdf-syntax-ns#">
   <cc:Work>
    <dc:type rdf:resource="http://purl.org/dc/dcmitype/StillImage"/>
    <dc:date>2025-03-06T19:40:11.447715</dc:date>
    <dc:format>image/svg+xml</dc:format>
    <dc:creator>
     <cc:Agent>
      <dc:title>Matplotlib v3.5.1, https://matplotlib.org/</dc:title>
     </cc:Agent>
    </dc:creator>
   </cc:Work>
  </rdf:RDF>
 </metadata>
 <defs>
  <style type="text/css">*{stroke-linejoin: round; stroke-linecap: butt}</style>
 </defs>
 <g id="figure_1">
  <g id="patch_1">
   <path d="M 0 236.321742 
L 453.6 236.321742 
L 453.6 0 
L 0 0 
z
" style="fill: #ffffff"/>
  </g>
  <g id="axes_1">
   <g id="patch_2">
    <path d="M 7.2 229.121742 
L 446.4 229.121742 
L 446.4 7.2 
L 7.2 7.2 
z
" style="fill: #ffffff"/>
   </g>
   <g id="PathCollection_1">
    <path d="M 411.548089 52.0714 
C 412.485724 52.0714 413.385082 51.698874 414.048089 51.035866 
C 414.711097 50.372859 415.083623 49.473501 415.083623 48.535866 
C 415.083623 47.598232 414.711097 46.698874 414.048089 46.035866 
C 413.385082 45.372859 412.485724 45.000332 411.548089 45.000332 
C 410.610455 45.000332 409.711097 45.372859 409.048089 46.035866 
C 408.385082 46.698874 408.012555 47.598232 408.012555 48.535866 
C 408.012555 49.473501 408.385082 50.372859 409.048089 51.035866 
C 409.711097 51.698874 410.610455 52.0714 411.548089 52.0714 
z
" clip-path="url(#pa9d96fc44d)"/>
   </g>
   <g id="matplotlib.axis_1"/>
   <g id="matplotlib.axis_2"/>
   <g id="line2d_1">
    <path d="M 437.953846 75.10424 
L 434.052054 70.065613 
L 430.636576 66.065993 
L 428.459165 63.685883 
L 422.909573 58.12569 
L 418.675893 54.301563 
L 415.200208 51.392982 
L 409.456395 46.983581 
L 406.050171 44.576562 
L 400.074226 40.683092 
L 395.91753 38.19835 
L 389.763518 34.820675 
L 383.755178 31.836321 
L 377.428614 28.99545 
L 371.257893 26.495703 
L 366.386172 24.696573 
L 361.519484 23.042762 
L 355.066563 21.057231 
L 347.964862 19.127399 
L 340.496544 17.366734 
L 332.945601 15.848203 
L 324.586326 14.45437 
L 316.226744 13.3442 
L 308.12807 12.524135 
L 302.928618 12.124226 
L 293.962987 11.657428 
L 285.733699 11.467726 
L 278.295404 11.485418 
L 267.863144 11.802081 
L 257.708542 12.426725 
L 247.775067 13.330542 
L 240.810872 14.132976 
L 230.391638 15.588638 
L 218.393323 17.638545 
L 212.470853 18.796566 
L 202.352099 20.997915 
L 191.944188 23.556108 
L 182.557444 26.121081 
L 175.091157 28.3382 
L 163.649454 32.04634 
L 156.264857 34.644293 
L 147.975968 37.758057 
L 137.525188 41.993995 
L 131.355707 44.664404 
L 120.627823 49.626272 
L 111.728781 54.070097 
L 103.585787 58.419552 
L 95.508671 63.026137 
L 89.156023 66.873664 
L 83.191793 70.683969 
L 77.893543 74.245581 
L 72.522744 78.043634 
L 65.307767 83.482311 
L 59.231773 88.409324 
L 54.544046 92.465835 
L 49.600258 97.028594 
L 45.288541 101.291498 
L 40.272689 106.659606 
L 36.751734 110.755402 
L 33.709079 114.569863 
L 31.408748 117.663127 
L 27.974744 122.713946 
L 25.963823 125.987005 
L 23.706955 130.045006 
L 21.408504 134.780433 
L 20.223833 137.575963 
L 18.843167 141.314579 
L 17.649453 145.240576 
L 16.614581 149.732824 
L 16.090508 153.001341 
L 15.749893 156.506507 
L 15.649463 160.386889 
L 15.885101 164.615792 
L 16.280517 167.617826 
L 17.16148 171.794184 
L 18.14511 175.09888 
L 19.840706 179.428796 
L 21.51373 182.824736 
L 22.902671 185.24669 
L 24.686371 187.993671 
L 27.10015 191.244241 
L 29.963772 194.602857 
L 32.526292 197.270616 
L 35.563905 200.11745 
L 38.75826 202.818935 
L 42.409803 205.613817 
L 45.837986 208.004985 
L 50.934512 211.220491 
L 56.254219 214.223048 
L 61.736613 217.008616 
L 67.082772 219.472642 
L 72.475244 221.742765 
L 78.284017 223.978898 
L 80.706575 224.854016 
L 80.706575 224.854016 
" clip-path="url(#pa9d96fc44d)" style="fill: none; stroke: #000000; stroke-width: 2; stroke-linecap: square"/>
   </g>
   <g id="patch_3">
    <path d="M 181.155816 26.525264 
Q 180.128836 26.82642 181.247568 26.498358 
" clip-path="url(#pa9d96fc44d)" style="fill: none; stroke: #000000; stroke-width: 2; stroke-linecap: round"/>
    <path d="M 192.250463 28.482371 
L 181.247568 26.498358 
L 189.436516 18.88645 
L 192.250463 28.482371 
z
" clip-path="url(#pa9d96fc44d)" style="stroke: #000000; stroke-width: 2; stroke-linecap: round"/>
   </g>
   <g id="text_1">
    <!-- $P$ -->
    <g transform="translate(414.513352 35.124091)scale(0.2 -0.2)">
     <defs>
      <path id="Cmmi10-50" d="M 313 0 
Q 250 0 250 84 
Q 253 100 262 139 
Q 272 178 289 201 
Q 306 225 331 225 
Q 722 225 878 269 
Q 959 297 997 441 
L 1875 3956 
Q 1888 4019 1888 4044 
Q 1888 4113 1813 4122 
Q 1691 4147 1350 4147 
Q 1288 4147 1288 4231 
Q 1291 4247 1300 4286 
Q 1309 4325 1326 4348 
Q 1344 4372 1369 4372 
L 3578 4372 
Q 3881 4372 4165 4264 
Q 4450 4156 4631 3934 
Q 4813 3713 4813 3397 
Q 4813 2991 4527 2672 
Q 4241 2353 3814 2175 
Q 3388 1997 2988 1997 
L 1947 1997 
L 1556 416 
Q 1544 353 1544 325 
Q 1544 300 1551 283 
Q 1559 266 1573 261 
Q 1588 256 1619 250 
Q 1741 225 2081 225 
Q 2144 225 2144 141 
Q 2122 50 2109 25 
Q 2097 0 2034 0 
L 313 0 
z
M 1978 2188 
L 2875 2188 
Q 3497 2188 3822 2522 
Q 3988 2688 4092 3000 
Q 4197 3313 4197 3566 
Q 4197 3881 3956 4014 
Q 3716 4147 3359 4147 
L 2747 4147 
Q 2572 4147 2515 4117 
Q 2459 4088 2413 3928 
L 1978 2188 
z
" transform="scale(0.015625)"/>
     </defs>
     <use xlink:href="#Cmmi10-50" transform="translate(0 0.6875)"/>
    </g>
   </g>
  </g>
 </g>
 <defs>
  <clipPath id="pa9d96fc44d">
   <rect x="7.2" y="7.2" width="439.2" height="221.921742"/>
  </clipPath>
 </defs>
</svg>
