<?xml version="1.0" encoding="utf-8" standalone="no"?>
<!DOCTYPE svg PUBLIC "-//W3C//DTD SVG 1.1//EN"
  "http://www.w3.org/Graphics/SVG/1.1/DTD/svg11.dtd">
<svg xmlns:xlink="http://www.w3.org/1999/xlink" width="453.6pt" height="236.335915pt" viewBox="0 0 453.6 236.335915" xmlns="http://www.w3.org/2000/svg" version="1.1">
 <metadata>
  <rdf:RDF xmlns:dc="http://purl.org/dc/elements/1.1/" xmlns:cc="http://creativecommons.org/ns#" xmlns:rdf="http://www.w3.org/1999/02/22-rdf-syntax-ns#">
   <cc:Work>
    <dc:type rdf:resource="http://purl.org/dc/dcmitype/StillImage"/>
    <dc:date>2025-01-08T11:23:04.451326</dc:date>
    <dc:format>image/svg+xml</dc:format>
    <dc:creator>
     <cc:Agent>
      <dc:title>Matplotlib v3.8.0, https://matplotlib.org/</dc:title>
     </cc:Agent>
    </dc:creator>
   </cc:Work>
  </rdf:RDF>
 </metadata>
 <defs>
  <style type="text/css">*{stroke-linejoin: round; stroke-linecap: butt}</style>
 </defs>
 <g id="figure_1">
  <g id="patch_1">
   <path d="M 0 236.335915 
L 453.6 236.335915 
L 453.6 0 
L 0 0 
z
" style="fill: #ffffff"/>
  </g>
  <g id="axes_1">
   <g id="patch_2">
    <path d="M 7.2 229.135915 
L 446.4 229.135915 
L 446.4 7.2 
L 7.2 7.2 
z
" style="fill: #ffffff"/>
   </g>
   <g id="PathCollection_1">
    <path d="M 411.548083 51.288339 
C 412.274372 51.288339 412.971011 50.999782 413.484575 50.486218 
C 413.998139 49.972655 414.286696 49.276015 414.286696 48.549727 
C 414.286696 47.823438 413.998139 47.126799 413.484575 46.613235 
C 412.971011 46.099671 412.274372 45.811114 411.548083 45.811114 
C 410.821795 45.811114 410.125155 46.099671 409.611592 46.613235 
C 409.098028 47.126799 408.809471 47.823438 408.809471 48.549727 
C 408.809471 49.276015 409.098028 49.972655 409.611592 50.486218 
C 410.125155 50.999782 410.821795 51.288339 411.548083 51.288339 
z
" clip-path="url(#pd959b7acae)"/>
   </g>
   <g id="matplotlib.axis_1"/>
   <g id="matplotlib.axis_2"/>
   <g id="line2d_1">
    <path d="M 437.953846 75.118107 
L 434.946664 71.186955 
L 432.092211 67.742316 
L 428.793885 64.057728 
L 425.561843 60.712503 
L 421.882688 57.181459 
L 419.027037 54.620363 
L 412.998387 49.661238 
L 408.423063 46.251843 
L 403.895466 43.140302 
L 398.516715 39.745591 
L 392.023954 36.03557 
L 386.857243 33.354346 
L 380.039826 30.146253 
L 373.93493 27.562671 
L 366.983641 24.923175 
L 359.463037 22.398879 
L 352.242966 20.272797 
L 343.776108 18.121033 
L 337.21076 16.688486 
L 330.41239 15.408647 
L 321.420806 14.015383 
L 316.738499 13.418175 
L 309.144042 12.627528 
L 299.553433 11.929764 
L 293.140317 11.642202 
L 283.352057 11.467998 
L 278.684177 11.493994 
L 269.935383 11.726448 
L 259.220032 12.328226 
L 247.625068 13.360218 
L 236.718679 14.682294 
L 231.508706 15.431909 
L 223.986706 16.647298 
L 213.105555 18.681697 
L 205.752193 20.240697 
L 194.933724 22.804516 
L 190.521415 23.942933 
L 179.756235 26.948226 
L 172.381498 29.195953 
L 160.720483 33.071084 
L 151.51118 36.417864 
L 140.201525 40.889188 
L 134.370567 43.357095 
L 123.876021 48.093643 
L 115.206269 52.310368 
L 108.219891 55.923569 
L 98.51732 61.288227 
L 92.309052 64.951851 
L 84.631353 69.75954 
L 79.267355 73.318974 
L 71.307384 78.945256 
L 65.613525 83.257048 
L 59.386667 88.293101 
L 54.008941 92.958534 
L 48.080187 98.512422 
L 42.903552 103.796847 
L 38.491506 108.707039 
L 34.93534 113.011743 
L 31.859754 117.054233 
L 28.766975 121.50852 
L 26.78264 124.63447 
L 24.903254 127.84907 
L 22.50891 132.433248 
L 20.53753 136.818919 
L 19.27168 140.097475 
L 18.400351 142.685838 
L 17.229093 146.898399 
L 16.54576 150.114476 
L 16.142276 152.627592 
L 15.7408 156.664575 
L 15.646154 159.506041 
L 15.722647 162.541724 
L 16.030591 165.915081 
L 16.679727 169.75808 
L 17.740795 173.857965 
L 18.774577 176.866266 
L 20.579781 181.02188 
L 22.257056 184.171176 
L 23.68502 186.508898 
L 25.105604 188.606287 
L 27.682131 191.979088 
L 29.732579 194.361922 
L 32.293436 197.053208 
L 35.96543 200.486085 
L 39.957534 203.782227 
L 43.875229 206.675015 
L 47.710107 209.243411 
L 52.649931 212.238563 
L 56.894559 214.577385 
L 62.016189 217.157218 
L 69.514785 220.535302 
L 74.804748 222.677893 
L 80.706494 224.867916 
L 80.706494 224.867916 
" clip-path="url(#pd959b7acae)" style="fill: none; stroke: #000000; stroke-width: 2; stroke-linecap: square"/>
   </g>
   <g id="patch_3">
    <path d="M 181.155757 26.53912 
Q 180.128777 26.840276 181.247509 26.512214 
" clip-path="url(#pd959b7acae)" style="fill: none; stroke: #000000; stroke-width: 2; stroke-linecap: round"/>
    <path d="M 192.250404 28.496227 
L 181.247509 26.512214 
L 189.436457 18.900306 
z
" clip-path="url(#pd959b7acae)" style="stroke: #000000; stroke-width: 2; stroke-linecap: round"/>
   </g>
   <g id="text_1">
    <!-- $P$ -->
    <g transform="translate(414.513348 35.137947) scale(0.2 -0.2)">
     <defs>
      <path id="Cmmi10-50" d="M 313 0 
Q 250 0 250 84 
Q 253 100 262 139 
Q 272 178 289 201 
Q 306 225 331 225 
Q 722 225 878 269 
Q 959 297 997 441 
L 1875 3956 
Q 1888 4019 1888 4044 
Q 1888 4113 1813 4122 
Q 1691 4147 1350 4147 
Q 1288 4147 1288 4231 
Q 1291 4247 1300 4286 
Q 1309 4325 1326 4348 
Q 1344 4372 1369 4372 
L 3578 4372 
Q 3881 4372 4165 4264 
Q 4450 4156 4631 3934 
Q 4813 3713 4813 3397 
Q 4813 2991 4527 2672 
Q 4241 2353 3814 2175 
Q 3388 1997 2988 1997 
L 1947 1997 
L 1556 416 
Q 1544 353 1544 325 
Q 1544 300 1551 283 
Q 1559 266 1573 261 
Q 1588 256 1619 250 
Q 1741 225 2081 225 
Q 2144 225 2144 141 
Q 2122 50 2109 25 
Q 2097 0 2034 0 
L 313 0 
z
M 1978 2188 
L 2875 2188 
Q 3497 2188 3822 2522 
Q 3988 2688 4092 3000 
Q 4197 3313 4197 3566 
Q 4197 3881 3956 4014 
Q 3716 4147 3359 4147 
L 2747 4147 
Q 2572 4147 2515 4117 
Q 2459 4088 2413 3928 
L 1978 2188 
z
" transform="scale(0.015625)"/>
     </defs>
     <use xlink:href="#Cmmi10-50" transform="translate(0 0.6875)"/>
    </g>
   </g>
  </g>
 </g>
 <defs>
  <clipPath id="pd959b7acae">
   <rect x="7.2" y="7.2" width="439.2" height="221.935915"/>
  </clipPath>
 </defs>
</svg>
