<?xml version="1.0" encoding="utf-8" standalone="no"?>
<!DOCTYPE svg PUBLIC "-//W3C//DTD SVG 1.1//EN"
  "http://www.w3.org/Graphics/SVG/1.1/DTD/svg11.dtd">
<svg xmlns:xlink="http://www.w3.org/1999/xlink" width="452.644161pt" height="225.133202pt" viewBox="0 0 452.644161 225.133202" xmlns="http://www.w3.org/2000/svg" version="1.1">
 <metadata>
  <rdf:RDF xmlns:dc="http://purl.org/dc/elements/1.1/" xmlns:cc="http://creativecommons.org/ns#" xmlns:rdf="http://www.w3.org/1999/02/22-rdf-syntax-ns#">
   <cc:Work>
    <dc:type rdf:resource="http://purl.org/dc/dcmitype/StillImage"/>
    <dc:date>2025-04-09T11:38:29.768678</dc:date>
    <dc:format>image/svg+xml</dc:format>
    <dc:creator>
     <cc:Agent>
      <dc:title>Matplotlib v3.8.0, https://matplotlib.org/</dc:title>
     </cc:Agent>
    </dc:creator>
   </cc:Work>
  </rdf:RDF>
 </metadata>
 <defs>
  <style type="text/css">*{stroke-linejoin: round; stroke-linecap: butt}</style>
 </defs>
 <g id="figure_1">
  <g id="patch_1">
   <path d="M 0 225.133202 
L 452.644161 225.133202 
L 452.644161 -0 
L 0 -0 
z
" style="fill: #ffffff"/>
  </g>
  <g id="axes_1">
   <g id="patch_2">
    <path d="M 10.944232 217.933202 
L 445.444161 217.933202 
L 445.444161 7.2 
L 10.944232 7.2 
z
" style="fill: #ffffff"/>
   </g>
   <g id="PathCollection_1">
    <path d="M 40.896684 133.420603 
C 41.834319 133.420603 42.733677 133.048076 43.396684 132.385069 
C 44.059692 131.722061 44.432218 130.822703 44.432218 129.885069 
C 44.432218 128.947434 44.059692 128.048076 43.396684 127.385069 
C 42.733677 126.722061 41.834319 126.349535 40.896684 126.349535 
C 39.95905 126.349535 39.059692 126.722061 38.396684 127.385069 
C 37.733677 128.048076 37.361151 128.947434 37.361151 129.885069 
C 37.361151 130.822703 37.733677 131.722061 38.396684 132.385069 
C 39.059692 133.048076 39.95905 133.420603 40.896684 133.420603 
z
" clip-path="url(#pe53baa8aa5)"/>
   </g>
   <g id="PathCollection_2">
    <path d="M 37.275319 166.004254 
C 38.212954 166.004254 39.112311 165.631728 39.775319 164.96872 
C 40.438327 164.305712 40.810853 163.406354 40.810853 162.46872 
C 40.810853 161.531085 40.438327 160.631728 39.775319 159.96872 
C 39.112311 159.305712 38.212954 158.933186 37.275319 158.933186 
C 36.337685 158.933186 35.438327 159.305712 34.775319 159.96872 
C 34.112311 160.631728 33.739785 161.531085 33.739785 162.46872 
C 33.739785 163.406354 34.112311 164.305712 34.775319 164.96872 
C 35.438327 165.631728 36.337685 166.004254 37.275319 166.004254 
z
" clip-path="url(#pe53baa8aa5)"/>
   </g>
   <g id="matplotlib.axis_1"/>
   <g id="matplotlib.axis_2"/>
   <g id="line2d_1">
    <path d="M 437.088394 71.687014 
L 433.083118 66.536754 
L 429.265516 62.134284 
L 425.360121 58.046688 
L 422.148366 54.952043 
L 418.017165 51.276324 
L 414.891206 48.696167 
L 410.440792 45.286416 
L 406.613404 42.575727 
L 401.130611 39.009197 
L 396.507001 36.261023 
L 392.513639 34.059927 
L 386.456996 30.998678 
L 383.135445 29.450617 
L 380.257096 28.17901 
L 373.908009 25.589039 
L 368.517254 23.606293 
L 362.868027 21.725541 
L 357.783043 20.193927 
L 349.941534 18.111085 
L 343.677401 16.674642 
L 337.970709 15.530929 
L 329.124968 14.0504 
L 322.211051 13.126734 
L 311.422937 12.069254 
L 305.783412 11.693345 
L 297.219134 11.34359 
L 288.019454 11.253029 
L 278.534493 11.456083 
L 271.49084 11.794923 
L 262.1887 12.480742 
L 258.064407 12.869849 
L 251.203659 13.630864 
L 240.705727 15.066267 
L 229.278796 16.995634 
L 222.133871 18.394503 
L 211.986428 20.634931 
L 201.623987 23.231045 
L 191.829476 25.974112 
L 184.393506 28.247363 
L 173.973241 31.71644 
L 164.842821 35.036446 
L 155.157218 38.856757 
L 146.16759 42.691483 
L 140.978757 45.038113 
L 131.681467 49.501587 
L 122.175739 54.434182 
L 113.890214 59.068244 
L 109.071766 61.920345 
L 101.990173 66.342833 
L 96.164975 70.207416 
L 88.800244 75.425644 
L 81.326207 81.162542 
L 76.361752 85.263749 
L 72.438463 88.697686 
L 66.652695 94.130814 
L 63.770409 97.031772 
L 59.786545 101.300427 
L 56.764739 104.778405 
L 53.455086 108.883543 
L 50.84214 112.398036 
L 47.560211 117.26482 
L 44.829388 121.847539 
L 42.064929 127.248379 
L 40.214615 131.567002 
L 38.769417 135.641847 
L 37.716529 139.342363 
L 36.878174 143.264892 
L 36.366416 146.883513 
L 36.116028 150.46592 
L 36.146145 154.390443 
L 36.370171 157.190737 
L 36.781718 160.058846 
L 37.400092 162.988967 
L 38.169174 165.735642 
L 39.18405 168.622215 
L 40.655645 172.002353 
L 42.020723 174.627168 
L 43.794656 177.56784 
L 45.780503 180.424774 
L 48.015501 183.250048 
L 50.627187 186.168252 
L 53.783748 189.285073 
L 56.053375 191.31006 
L 59.910133 194.425236 
L 63.235794 196.844062 
L 65.963518 198.675706 
L 71.005076 201.760986 
L 75.194685 204.076484 
L 79.291703 206.157885 
L 85.101976 208.845961 
L 91.541486 211.519203 
L 97.867282 213.880641 
L 97.867282 213.880641 
" clip-path="url(#pe53baa8aa5)" style="fill: none; stroke: #000000; stroke-width: 2; stroke-linecap: square"/>
   </g>
   <g id="patch_3">
    <path d="M 193.248006 25.55926 
Q 192.272845 25.84522 193.443398 25.501962 
" clip-path="url(#pe53baa8aa5)" style="fill: none; stroke: #000000; stroke-width: 2; stroke-linecap: round"/>
    <path d="M 204.446293 27.485975 
L 193.443398 25.501962 
L 201.632345 17.890054 
z
" clip-path="url(#pe53baa8aa5)" style="stroke: #000000; stroke-width: 2; stroke-linecap: round"/>
   </g>
   <g id="text_1">
    <!-- $Q_0$ -->
    <g transform="translate(19.809025 117.428499) scale(0.2 -0.2)">
     <defs>
      <path id="Cmmi10-51" d="M 1947 -141 
Q 1466 -141 1094 79 
Q 722 300 520 692 
Q 319 1084 319 1563 
Q 319 2259 714 2950 
Q 1109 3641 1756 4077 
Q 2403 4513 3109 4513 
Q 3475 4513 3778 4381 
Q 4081 4250 4290 4017 
Q 4500 3784 4614 3471 
Q 4728 3159 4728 2791 
Q 4728 2366 4581 1936 
Q 4434 1506 4171 1136 
Q 3909 766 3559 484 
Q 3209 203 2809 38 
Q 2850 -256 2934 -425 
Q 3019 -594 3256 -594 
Q 3506 -594 3726 -412 
Q 3947 -231 4006 13 
Q 4019 72 4078 72 
Q 4147 72 4147 -13 
Q 4100 -219 4008 -430 
Q 3916 -641 3786 -823 
Q 3656 -1006 3478 -1123 
Q 3300 -1241 3084 -1241 
Q 2547 -1241 2547 -550 
Q 2547 -509 2562 -332 
Q 2578 -156 2578 -44 
Q 2269 -141 1947 -141 
z
M 1709 300 
Q 1709 44 1991 44 
Q 2275 44 2591 184 
L 2591 244 
Q 2591 503 2509 648 
Q 2428 794 2194 794 
Q 2078 794 1964 723 
Q 1850 653 1779 539 
Q 1709 425 1709 300 
z
M 1544 288 
Q 1544 456 1637 612 
Q 1731 769 1881 864 
Q 2031 959 2203 959 
Q 2481 959 2607 771 
Q 2734 584 2778 281 
Q 3188 525 3500 978 
Q 3813 1431 3977 1973 
Q 4141 2516 4141 3003 
Q 4141 3356 4023 3656 
Q 3906 3956 3664 4140 
Q 3422 4325 3066 4325 
Q 2722 4325 2403 4156 
Q 2084 3988 1813 3706 
Q 1550 3434 1342 3032 
Q 1134 2631 1021 2193 
Q 909 1756 909 1356 
Q 909 947 1068 612 
Q 1228 278 1569 128 
Q 1544 194 1544 288 
z
" transform="scale(0.015625)"/>
      <path id="Cmr10-30" d="M 1600 -141 
Q 816 -141 533 504 
Q 250 1150 250 2041 
Q 250 2597 351 3087 
Q 453 3578 754 3920 
Q 1056 4263 1600 4263 
Q 2022 4263 2290 4056 
Q 2559 3850 2700 3523 
Q 2841 3197 2892 2823 
Q 2944 2450 2944 2041 
Q 2944 1491 2842 1011 
Q 2741 531 2444 195 
Q 2147 -141 1600 -141 
z
M 1600 25 
Q 1956 25 2131 390 
Q 2306 756 2347 1200 
Q 2388 1644 2388 2144 
Q 2388 2625 2347 3031 
Q 2306 3438 2132 3767 
Q 1959 4097 1600 4097 
Q 1238 4097 1063 3765 
Q 888 3434 847 3029 
Q 806 2625 806 2144 
Q 806 1788 823 1472 
Q 841 1156 916 820 
Q 991 484 1158 254 
Q 1325 25 1600 25 
z
" transform="scale(0.015625)"/>
     </defs>
     <use xlink:href="#Cmmi10-51" transform="translate(0 0.484375)"/>
     <use xlink:href="#Cmr10-30" transform="translate(79.003906 -16.521875) scale(0.7)"/>
    </g>
   </g>
   <g id="text_2">
    <!-- $Q_1$ -->
    <g transform="translate(7.2 158.99981) scale(0.2 -0.2)">
     <defs>
      <path id="Cmr10-31" d="M 594 0 
L 594 225 
Q 1394 225 1394 428 
L 1394 3788 
Q 1063 3628 556 3628 
L 556 3853 
Q 1341 3853 1741 4263 
L 1831 4263 
Q 1853 4263 1873 4245 
Q 1894 4228 1894 4206 
L 1894 428 
Q 1894 225 2694 225 
L 2694 0 
L 594 0 
z
" transform="scale(0.015625)"/>
     </defs>
     <use xlink:href="#Cmmi10-51" transform="translate(0 0.484375)"/>
     <use xlink:href="#Cmr10-31" transform="translate(79.003906 -16.521875) scale(0.7)"/>
    </g>
   </g>
  </g>
 </g>
 <defs>
  <clipPath id="pe53baa8aa5">
   <rect x="10.944232" y="7.2" width="434.499929" height="210.733202"/>
  </clipPath>
 </defs>
</svg>
