<?xml version="1.0" encoding="utf-8" standalone="no"?>
<!DOCTYPE svg PUBLIC "-//W3C//DTD SVG 1.1//EN"
  "http://www.w3.org/Graphics/SVG/1.1/DTD/svg11.dtd">
<svg xmlns:xlink="http://www.w3.org/1999/xlink" width="453.6pt" height="220.528139pt" viewBox="0 0 453.6 220.528139" xmlns="http://www.w3.org/2000/svg" version="1.1">
 <metadata>
  <rdf:RDF xmlns:dc="http://purl.org/dc/elements/1.1/" xmlns:cc="http://creativecommons.org/ns#" xmlns:rdf="http://www.w3.org/1999/02/22-rdf-syntax-ns#">
   <cc:Work>
    <dc:type rdf:resource="http://purl.org/dc/dcmitype/StillImage"/>
    <dc:date>2025-03-06T19:40:28.412369</dc:date>
    <dc:format>image/svg+xml</dc:format>
    <dc:creator>
     <cc:Agent>
      <dc:title>Matplotlib v3.5.1, https://matplotlib.org/</dc:title>
     </cc:Agent>
    </dc:creator>
   </cc:Work>
  </rdf:RDF>
 </metadata>
 <defs>
  <style type="text/css">*{stroke-linejoin: round; stroke-linecap: butt}</style>
 </defs>
 <g id="figure_1">
  <g id="patch_1">
   <path d="M 0 220.528139 
L 453.6 220.528139 
L 453.6 0 
L 0 0 
z
" style="fill: #ffffff"/>
  </g>
  <g id="axes_1">
   <g id="patch_2">
    <path d="M 7.2 213.328139 
L 446.4 213.328139 
L 446.4 7.2 
L 7.2 7.2 
z
" style="fill: #ffffff"/>
   </g>
   <g id="PathCollection_1">
    <path d="M 206.319589 65.498819 
C 207.045877 65.498819 207.742517 65.210261 208.25608 64.696698 
C 208.769644 64.183134 209.058201 63.486495 209.058201 62.760206 
C 209.058201 62.033918 208.769644 61.337278 208.25608 60.823714 
C 207.742517 60.310151 207.045877 60.021593 206.319589 60.021593 
C 205.5933 60.021593 204.89666 60.310151 204.383097 60.823714 
C 203.869533 61.337278 203.580976 62.033918 203.580976 62.760206 
C 203.580976 63.486495 203.869533 64.183134 204.383097 64.696698 
C 204.89666 65.210261 205.5933 65.498819 206.319589 65.498819 
z
" clip-path="url(#p2466ce15aa)"/>
   </g>
   <g id="matplotlib.axis_1"/>
   <g id="matplotlib.axis_2"/>
   <g id="line2d_1">
    <path d="M 368.948161 209.364136 
L 383.672139 201.218601 
L 393.290303 195.644651 
L 401.003982 190.93063 
L 407.516534 186.700736 
L 413.026068 182.867582 
L 417.694958 179.361857 
L 421.291503 176.437208 
L 424.759747 173.357771 
L 427.502628 170.667988 
L 430.09353 167.823771 
L 432.322414 165.014306 
L 433.937979 162.638266 
L 435.257661 160.335339 
L 436.384321 157.887171 
L 437.183316 155.554144 
L 437.712195 153.176587 
L 437.916301 151.361681 
L 437.92411 149.133599 
L 437.700738 147.151278 
L 437.207905 145.002688 
L 436.501061 142.981315 
L 435.456742 140.778411 
L 434.314156 138.865976 
L 432.6803 136.611054 
L 430.731251 134.356103 
L 428.606999 132.235986 
L 425.71063 129.717086 
L 422.40054 127.195185 
L 418.803936 124.755768 
L 415.086148 122.4744 
L 410.488531 119.906066 
L 404.800124 117.020506 
L 398.400147 114.065366 
L 391.767078 111.251617 
L 383.509072 108.022114 
L 375.346298 105.064084 
L 365.946704 101.88575 
L 354.994685 98.427589 
L 343.535472 95.034651 
L 330.926819 91.514519 
L 316.937423 87.818793 
L 299.921904 83.559875 
L 279.577468 78.731557 
L 257.868615 73.817434 
L 232.84266 68.369778 
L 195.471597 60.49428 
L 130.272317 46.811202 
L 105.88297 41.439166 
L 87.773292 37.229277 
L 72.543623 33.454074 
L 60.896213 30.348129 
L 51.607127 27.671057 
L 42.889071 24.921041 
L 35.939703 22.482324 
L 30.22486 20.222345 
L 26.272539 18.449661 
L 22.78915 16.659351 
L 19.920181 14.916241 
L 18.02088 13.524193 
L 16.610615 12.257855 
L 15.646154 11.164003 
L 15.646154 11.164003 
" clip-path="url(#p2466ce15aa)" style="fill: none; stroke: #000000; stroke-width: 2; stroke-linecap: square"/>
   </g>
   <g id="patch_3">
    <path d="M 206.319589 62.760206 
Q 155.254745 52.066308 106.378494 41.83074 
" clip-path="url(#p2466ce15aa)" style="fill: none; stroke: #ff0000; stroke-width: 2; stroke-linecap: round"/>
    <path d="M 115.141315 48.774296 
L 106.378494 41.83074 
L 117.191031 38.986617 
L 115.141315 48.774296 
z
" clip-path="url(#p2466ce15aa)" style="fill: #ff0000; stroke: #ff0000; stroke-width: 2; stroke-linecap: round"/>
   </g>
   <g id="patch_4">
    <path d="M 206.319589 62.760206 
Q 195.62569 113.825049 185.390122 162.701301 
" clip-path="url(#p2466ce15aa)" style="fill: none; stroke: #800080; stroke-width: 2; stroke-linecap: round"/>
    <path d="M 192.333678 153.93848 
L 185.390122 162.701301 
L 182.545999 151.888764 
L 192.333678 153.93848 
z
" clip-path="url(#p2466ce15aa)" style="fill: #800080; stroke: #800080; stroke-width: 2; stroke-linecap: round"/>
   </g>
   <g id="patch_5">
    <path d="M 206.319589 62.760206 
Q 269.346871 75.959255 330.185562 88.699973 
" clip-path="url(#p2466ce15aa)" style="fill: none; stroke: #ffa500; stroke-width: 2; stroke-linecap: round"/>
    <path d="M 321.422741 81.756417 
L 330.185562 88.699973 
L 319.373025 91.544096 
L 321.422741 81.756417 
z
" clip-path="url(#p2466ce15aa)" style="fill: #ffa500; stroke: #ffa500; stroke-width: 2; stroke-linecap: round"/>
   </g>
   <g id="patch_6">
    <path d="M 206.319589 62.760206 
Q 202.518809 80.909452 199.176361 96.870106 
" clip-path="url(#p2466ce15aa)" style="fill: none; stroke: #0000ff; stroke-width: 2; stroke-linecap: round"/>
    <path d="M 206.119917 88.107285 
L 199.176361 96.870106 
L 196.332238 86.057569 
L 206.119917 88.107285 
z
" clip-path="url(#p2466ce15aa)" style="fill: #0000ff; stroke: #0000ff; stroke-width: 2; stroke-linecap: round"/>
   </g>
   <g id="patch_7">
    <path d="M 206.319589 62.760206 
Q 265.546092 94.108501 322.79629 124.410747 
" clip-path="url(#p2466ce15aa)" style="fill: none; stroke: #008000; stroke-width: 2; stroke-linecap: round"/>
    <path d="M 316.29702 115.313523 
L 322.79629 124.410747 
L 311.618949 124.151828 
L 316.29702 115.313523 
z
" clip-path="url(#p2466ce15aa)" style="fill: #008000; stroke: #008000; stroke-width: 2; stroke-linecap: round"/>
   </g>
  </g>
 </g>
 <defs>
  <clipPath id="p2466ce15aa">
   <rect x="7.2" y="7.2" width="439.2" height="206.128139"/>
  </clipPath>
 </defs>
</svg>
