<?xml version="1.0" encoding="utf-8" standalone="no"?>
<!DOCTYPE svg PUBLIC "-//W3C//DTD SVG 1.1//EN"
  "http://www.w3.org/Graphics/SVG/1.1/DTD/svg11.dtd">
<svg xmlns:xlink="http://www.w3.org/1999/xlink" width="453.6pt" height="236.337351pt" viewBox="0 0 453.6 236.337351" xmlns="http://www.w3.org/2000/svg" version="1.1">
 <metadata>
  <rdf:RDF xmlns:dc="http://purl.org/dc/elements/1.1/" xmlns:cc="http://creativecommons.org/ns#" xmlns:rdf="http://www.w3.org/1999/02/22-rdf-syntax-ns#">
   <cc:Work>
    <dc:type rdf:resource="http://purl.org/dc/dcmitype/StillImage"/>
    <dc:date>2025-01-07T15:46:01.549769</dc:date>
    <dc:format>image/svg+xml</dc:format>
    <dc:creator>
     <cc:Agent>
      <dc:title>Matplotlib v3.8.0, https://matplotlib.org/</dc:title>
     </cc:Agent>
    </dc:creator>
   </cc:Work>
  </rdf:RDF>
 </metadata>
 <defs>
  <style type="text/css">*{stroke-linejoin: round; stroke-linecap: butt}</style>
 </defs>
 <g id="figure_1">
  <g id="patch_1">
   <path d="M 0 236.337351 
L 453.6 236.337351 
L 453.6 0 
L 0 0 
z
" style="fill: #ffffff"/>
  </g>
  <g id="axes_1">
   <g id="patch_2">
    <path d="M 7.2 229.137351 
L 446.4 229.137351 
L 446.4 7.2 
L 7.2 7.2 
z
" style="fill: #ffffff"/>
   </g>
   <g id="PathCollection_1">
    <path d="M 376.129548 31.997638 
C 377.067183 31.997638 377.966541 31.625112 378.629548 30.962104 
C 379.292556 30.299097 379.665082 29.399739 379.665082 28.462104 
C 379.665082 27.52447 379.292556 26.625112 378.629548 25.962104 
C 377.966541 25.299097 377.067183 24.92657 376.129548 24.92657 
C 375.191914 24.92657 374.292556 25.299097 373.629548 25.962104 
C 372.966541 26.625112 372.594014 27.52447 372.594014 28.462104 
C 372.594014 29.399739 372.966541 30.299097 373.629548 30.962104 
C 374.292556 31.625112 375.191914 31.997638 376.129548 31.997638 
z
" clip-path="url(#p5a2f381738)"/>
   </g>
   <g id="PathCollection_2">
    <path d="M 342.326735 21.323523 
C 343.26437 21.323523 344.163727 20.950997 344.826735 20.287989 
C 345.489743 19.624981 345.862269 18.725624 345.862269 17.787989 
C 345.862269 16.850354 345.489743 15.950997 344.826735 15.287989 
C 344.163727 14.624981 343.26437 14.252455 342.326735 14.252455 
C 341.3891 14.252455 340.489743 14.624981 339.826735 15.287989 
C 339.163727 15.950997 338.791201 16.850354 338.791201 17.787989 
C 338.791201 18.725624 339.163727 19.624981 339.826735 20.287989 
C 340.489743 20.950997 341.3891 21.323523 342.326735 21.323523 
z
" clip-path="url(#p5a2f381738)"/>
   </g>
   <g id="matplotlib.axis_1"/>
   <g id="matplotlib.axis_2"/>
   <g id="line2d_1">
    <path d="M 437.953846 75.118698 
L 435.552505 71.952939 
L 431.033531 66.527902 
L 428.375961 63.611778 
L 424.790662 59.949803 
L 420.123312 55.586742 
L 415.190865 51.39985 
L 409.627453 47.122758 
L 406.401759 44.832791 
L 401.252274 41.433869 
L 396.708114 38.672121 
L 391.474841 35.740208 
L 384.631598 32.267945 
L 378.673392 29.545699 
L 372.209592 26.879042 
L 364.923617 24.199196 
L 359.911538 22.540739 
L 352.974647 20.476086 
L 344.885549 18.383406 
L 339.56689 17.180175 
L 330.946988 15.502418 
L 322.573098 14.175924 
L 315.614733 13.287805 
L 305.569636 12.329406 
L 299.454361 11.924538 
L 291.524694 11.591961 
L 283.221107 11.468026 
L 273.108711 11.615018 
L 263.120004 12.069679 
L 252.636714 12.866516 
L 240.58779 14.174922 
L 235.193074 14.894056 
L 226.925792 16.153836 
L 216.071275 18.09498 
L 204.628501 20.492015 
L 192.55495 23.41152 
L 187.332812 24.799228 
L 177.39554 27.650773 
L 167.625518 30.728265 
L 161.801204 32.694952 
L 150.320136 36.869471 
L 140.088002 40.935888 
L 130.741932 44.950719 
L 120.237409 49.828241 
L 113.126854 53.364611 
L 104.773711 57.78058 
L 99.268187 60.857255 
L 90.89957 65.810036 
L 84.31296 69.965319 
L 76.63206 75.132985 
L 68.870165 80.758364 
L 63.507521 84.919275 
L 57.098025 90.238541 
L 52.955279 93.910502 
L 47.343374 99.236078 
L 43.65244 103.00175 
L 39.103988 107.997581 
L 35.388023 112.441711 
L 32.00135 116.858252 
L 29.163973 120.908226 
L 26.917723 124.410904 
L 24.222455 129.085456 
L 22.277355 132.910383 
L 20.585597 136.698366 
L 19.488177 139.496826 
L 18.321852 142.930703 
L 17.313022 146.546404 
L 16.682523 149.384179 
L 15.993909 153.781828 
L 15.739275 156.652845 
L 15.646154 160.324759 
L 15.797666 163.682151 
L 16.220447 167.273008 
L 16.77548 170.211682 
L 17.67652 173.655583 
L 18.88938 177.171769 
L 20.509386 180.883271 
L 21.914612 183.573762 
L 23.527489 186.268152 
L 25.811318 189.583831 
L 27.5666 191.841674 
L 30.424447 195.120952 
L 32.823619 197.580548 
L 36.683229 201.111932 
L 41.343927 204.843529 
L 44.864769 207.363407 
L 50.033208 210.694634 
L 55.116861 213.624314 
L 60.487173 216.414759 
L 64.076614 218.131621 
L 69.504172 220.533052 
L 76.561956 223.352981 
L 80.704543 224.869325 
L 80.704543 224.869325 
" clip-path="url(#p5a2f381738)" style="fill: none; stroke: #000000; stroke-width: 2; stroke-linecap: square"/>
   </g>
   <g id="patch_3">
    <path d="M 181.154355 26.539446 
Q 180.127369 26.840603 181.246096 26.512543 
" clip-path="url(#p5a2f381738)" style="fill: none; stroke: #000000; stroke-width: 2; stroke-linecap: round"/>
    <path d="M 192.248991 28.496556 
L 181.246096 26.512543 
L 189.435043 18.900635 
z
" clip-path="url(#p5a2f381738)" style="stroke: #000000; stroke-width: 2; stroke-linecap: round"/>
   </g>
   <g id="text_1">
    <!-- $P_0$ -->
    <g transform="translate(374.994865 52.911487) scale(0.2 -0.2)">
     <defs>
      <path id="Cmmi10-50" d="M 313 0 
Q 250 0 250 84 
Q 253 100 262 139 
Q 272 178 289 201 
Q 306 225 331 225 
Q 722 225 878 269 
Q 959 297 997 441 
L 1875 3956 
Q 1888 4019 1888 4044 
Q 1888 4113 1813 4122 
Q 1691 4147 1350 4147 
Q 1288 4147 1288 4231 
Q 1291 4247 1300 4286 
Q 1309 4325 1326 4348 
Q 1344 4372 1369 4372 
L 3578 4372 
Q 3881 4372 4165 4264 
Q 4450 4156 4631 3934 
Q 4813 3713 4813 3397 
Q 4813 2991 4527 2672 
Q 4241 2353 3814 2175 
Q 3388 1997 2988 1997 
L 1947 1997 
L 1556 416 
Q 1544 353 1544 325 
Q 1544 300 1551 283 
Q 1559 266 1573 261 
Q 1588 256 1619 250 
Q 1741 225 2081 225 
Q 2144 225 2144 141 
Q 2122 50 2109 25 
Q 2097 0 2034 0 
L 313 0 
z
M 1978 2188 
L 2875 2188 
Q 3497 2188 3822 2522 
Q 3988 2688 4092 3000 
Q 4197 3313 4197 3566 
Q 4197 3881 3956 4014 
Q 3716 4147 3359 4147 
L 2747 4147 
Q 2572 4147 2515 4117 
Q 2459 4088 2413 3928 
L 1978 2188 
z
" transform="scale(0.015625)"/>
      <path id="Cmr10-30" d="M 1600 -141 
Q 816 -141 533 504 
Q 250 1150 250 2041 
Q 250 2597 351 3087 
Q 453 3578 754 3920 
Q 1056 4263 1600 4263 
Q 2022 4263 2290 4056 
Q 2559 3850 2700 3523 
Q 2841 3197 2892 2823 
Q 2944 2450 2944 2041 
Q 2944 1491 2842 1011 
Q 2741 531 2444 195 
Q 2147 -141 1600 -141 
z
M 1600 25 
Q 1956 25 2131 390 
Q 2306 756 2347 1200 
Q 2388 1644 2388 2144 
Q 2388 2625 2347 3031 
Q 2306 3438 2132 3767 
Q 1959 4097 1600 4097 
Q 1238 4097 1063 3765 
Q 888 3434 847 3029 
Q 806 2625 806 2144 
Q 806 1788 823 1472 
Q 841 1156 916 820 
Q 991 484 1158 254 
Q 1325 25 1600 25 
z
" transform="scale(0.015625)"/>
     </defs>
     <use xlink:href="#Cmmi10-50" transform="translate(0 0.6875)"/>
     <use xlink:href="#Cmr10-30" transform="translate(64.208984 -16.31875) scale(0.7)"/>
    </g>
   </g>
   <g id="text_2">
    <!-- $P_1$ -->
    <g transform="translate(322.261419 42.237372) scale(0.2 -0.2)">
     <defs>
      <path id="Cmr10-31" d="M 594 0 
L 594 225 
Q 1394 225 1394 428 
L 1394 3788 
Q 1063 3628 556 3628 
L 556 3853 
Q 1341 3853 1741 4263 
L 1831 4263 
Q 1853 4263 1873 4245 
Q 1894 4228 1894 4206 
L 1894 428 
Q 1894 225 2694 225 
L 2694 0 
L 594 0 
z
" transform="scale(0.015625)"/>
     </defs>
     <use xlink:href="#Cmmi10-50" transform="translate(0 0.6875)"/>
     <use xlink:href="#Cmr10-31" transform="translate(64.208984 -16.31875) scale(0.7)"/>
    </g>
   </g>
  </g>
 </g>
 <defs>
  <clipPath id="p5a2f381738">
   <rect x="7.2" y="7.2" width="439.2" height="221.937351"/>
  </clipPath>
 </defs>
</svg>
