<?xml version="1.0" encoding="utf-8" standalone="no"?>
<!DOCTYPE svg PUBLIC "-//W3C//DTD SVG 1.1//EN"
  "http://www.w3.org/Graphics/SVG/1.1/DTD/svg11.dtd">
<svg xmlns:xlink="http://www.w3.org/1999/xlink" width="352.212571pt" height="345.245pt" viewBox="0 0 352.212571 345.245" xmlns="http://www.w3.org/2000/svg" version="1.1">
 <metadata>
  <rdf:RDF xmlns:dc="http://purl.org/dc/elements/1.1/" xmlns:cc="http://creativecommons.org/ns#" xmlns:rdf="http://www.w3.org/1999/02/22-rdf-syntax-ns#">
   <cc:Work>
    <dc:type rdf:resource="http://purl.org/dc/dcmitype/StillImage"/>
    <dc:date>2025-03-06T19:42:06.432001</dc:date>
    <dc:format>image/svg+xml</dc:format>
    <dc:creator>
     <cc:Agent>
      <dc:title>Matplotlib v3.5.1, https://matplotlib.org/</dc:title>
     </cc:Agent>
    </dc:creator>
   </cc:Work>
  </rdf:RDF>
 </metadata>
 <defs>
  <style type="text/css">*{stroke-linejoin: round; stroke-linecap: butt}</style>
 </defs>
 <g id="figure_1">
  <g id="patch_1">
   <path d="M -0 345.245 
L 352.212571 345.245 
L 352.212571 0 
L -0 0 
z
" style="fill: #ffffff"/>
  </g>
  <g id="axes_1">
   <g id="patch_2">
    <path d="M 7.2 338.045 
L 327.732571 338.045 
L 327.732571 30.685 
L 7.2 30.685 
z
" style="fill: #ffffff"/>
   </g>
   <g id="Quiver_1">
    <path d="M 34.473978 315.887384 
L 20.236766 315.887384 
L 20.877831 317.810579 
L 14.46718 315.246319 
L 20.877831 312.682058 
L 20.236766 314.605254 
L 34.473978 314.605254 
L 34.473978 315.887384 
" clip-path="url(#pb5970cceec)" style="fill: #0000ff"/>
    <path d="M 34.473978 297.190053 
L 23.09488 297.190053 
L 23.735945 299.113248 
L 17.325294 296.548987 
L 23.735945 293.984727 
L 23.09488 295.907922 
L 34.473978 295.907922 
L 34.473978 297.190053 
" clip-path="url(#pb5970cceec)" style="fill: #0000ff"/>
    <path d="M 34.473978 278.492721 
L 25.952994 278.492721 
L 26.594059 280.415917 
L 20.183408 277.851656 
L 26.594059 275.287396 
L 25.952994 277.210591 
L 34.473978 277.210591 
L 34.473978 278.492721 
" clip-path="url(#pb5970cceec)" style="fill: #0000ff"/>
    <path d="M 34.473978 259.79539 
L 28.811108 259.79539 
L 29.452173 261.718586 
L 23.041522 259.154325 
L 29.452173 256.590064 
L 28.811108 258.51326 
L 34.473978 258.51326 
L 34.473978 259.79539 
" clip-path="url(#pb5970cceec)" style="fill: #0000ff"/>
    <path d="M 34.473978 241.098059 
L 31.669222 241.098059 
L 32.310287 243.021254 
L 25.899636 240.456994 
L 32.310287 237.892733 
L 31.669222 239.815929 
L 34.473978 239.815929 
L 34.473978 241.098059 
" clip-path="url(#pb5970cceec)" style="fill: #0000ff"/>
    <path d="M 34.473978 222.331285 
L 33.902355 222.331285 
L 34.473978 224.046154 
L 28.75775 221.759662 
L 34.473978 219.473171 
L 33.902355 221.18804 
L 34.473978 221.18804 
L 34.473978 222.331285 
" clip-path="url(#pb5970cceec)" style="fill: #0000ff"/>
    <path d="M 34.473978 203.348143 
L 34.188167 203.348143 
L 34.473978 204.205577 
L 31.615864 203.062331 
L 34.473978 201.919086 
L 34.188167 202.77652 
L 34.473978 202.77652 
L 34.473978 203.348143 
" clip-path="url(#pb5970cceec)" style="fill: #0000ff"/>
    <path d="M 35.115043 184.365 
L 34.794511 183.809821 
L 34.153445 183.809821 
L 33.832913 184.365 
L 34.153445 184.920179 
L 34.794511 184.920179 
L 35.115043 184.365 
L 34.794511 183.809821 
" clip-path="url(#pb5970cceec)" style="fill: #0000ff"/>
    <path d="M 34.473978 165.381857 
L 34.759789 165.381857 
L 34.473978 164.524423 
L 37.332092 165.667669 
L 34.473978 166.810914 
L 34.759789 165.95348 
L 34.473978 165.95348 
L 34.473978 165.381857 
" clip-path="url(#pb5970cceec)" style="fill: #0000ff"/>
    <path d="M 34.473978 146.398715 
L 35.045601 146.398715 
L 34.473978 144.683846 
L 40.190206 146.970338 
L 34.473978 149.256829 
L 35.045601 147.54196 
L 34.473978 147.54196 
L 34.473978 146.398715 
" clip-path="url(#pb5970cceec)" style="fill: #0000ff"/>
    <path d="M 34.473978 127.631941 
L 37.278734 127.631941 
L 36.637669 125.708746 
L 43.04832 128.273006 
L 36.637669 130.837267 
L 37.278734 128.914071 
L 34.473978 128.914071 
L 34.473978 127.631941 
" clip-path="url(#pb5970cceec)" style="fill: #0000ff"/>
    <path d="M 34.473978 108.93461 
L 40.136848 108.93461 
L 39.495783 107.011414 
L 45.906434 109.575675 
L 39.495783 112.139936 
L 40.136848 110.21674 
L 34.473978 110.21674 
L 34.473978 108.93461 
" clip-path="url(#pb5970cceec)" style="fill: #0000ff"/>
    <path d="M 34.473978 90.237279 
L 42.994962 90.237279 
L 42.353897 88.314083 
L 48.764548 90.878344 
L 42.353897 93.442604 
L 42.994962 91.519409 
L 34.473978 91.519409 
L 34.473978 90.237279 
" clip-path="url(#pb5970cceec)" style="fill: #0000ff"/>
    <path d="M 34.473978 71.539947 
L 45.853076 71.539947 
L 45.212011 69.616752 
L 51.622662 72.181013 
L 45.212011 74.745273 
L 45.853076 72.822078 
L 34.473978 72.822078 
L 34.473978 71.539947 
" clip-path="url(#pb5970cceec)" style="fill: #0000ff"/>
    <path d="M 34.473978 52.842616 
L 48.71119 52.842616 
L 48.070125 50.919421 
L 54.480776 53.483681 
L 48.070125 56.047942 
L 48.71119 54.124746 
L 34.473978 54.124746 
L 34.473978 52.842616 
" clip-path="url(#pb5970cceec)" style="fill: #0000ff"/>
    <path d="M 53.323747 315.881201 
L 39.030892 313.881683 
L 39.399322 315.875148 
L 33.405767 312.44744 
L 40.109864 310.796088 
L 39.208528 312.611918 
L 53.501383 314.611436 
L 53.323747 315.881201 
" clip-path="url(#pb5970cceec)" style="fill: #0000ff"/>
    <path d="M 53.309302 297.181681 
L 41.85486 295.312174 
L 42.177763 297.313518 
L 36.263881 293.750109 
L 43.003871 292.251969 
L 42.061387 294.046787 
L 53.515829 295.916294 
L 53.309302 297.181681 
" clip-path="url(#pb5970cceec)" style="fill: #0000ff"/>
    <path d="M 53.28935 278.480769 
L 44.660793 276.790823 
L 44.920261 278.801376 
L 39.121995 275.052778 
L 45.90598 273.768475 
L 44.907223 275.532598 
L 53.53578 277.222544 
L 53.28935 278.480769 
" clip-path="url(#pb5970cceec)" style="fill: #0000ff"/>
    <path d="M 53.260122 259.777001 
L 47.431753 258.350108 
L 47.597101 260.370579 
L 41.980109 256.355447 
L 48.816643 255.389169 
L 47.736638 257.104755 
L 53.565008 258.531649 
L 53.260122 259.777001 
" clip-path="url(#pb5970cceec)" style="fill: #0000ff"/>
    <path d="M 53.213636 241.066413 
L 50.124065 240.0579 
L 50.136695 242.085087 
L 44.838223 237.658115 
L 51.728131 237.209734 
L 50.521924 238.839062 
L 53.611495 239.847575 
L 53.213636 241.066413 
" clip-path="url(#pb5970cceec)" style="fill: #0000ff"/>
    <path d="M 53.132677 222.331285 
L 52.561054 222.051397 
L 52.293014 224.046154 
L 47.696337 218.960784 
L 54.532117 219.473171 
L 53.12083 220.908152 
L 53.692453 221.18804 
L 53.132677 222.331285 
" clip-path="url(#pb5970cceec)" style="fill: #0000ff"/>
    <path d="M 53.132677 203.348143 
L 52.846866 203.068255 
L 52.293014 204.205577 
L 50.554451 200.263453 
L 54.532117 201.919086 
L 53.406642 202.496632 
L 53.692453 202.77652 
L 53.132677 203.348143 
" clip-path="url(#pb5970cceec)" style="fill: #0000ff"/>
    <path d="M 53.132677 184.365 
L 53.132677 184.085112 
L 52.293014 184.365 
L 53.412565 181.566122 
L 54.532117 184.365 
L 53.692453 184.085112 
L 53.692453 184.365 
L 53.132677 184.365 
" clip-path="url(#pb5970cceec)" style="fill: #0000ff"/>
    <path d="M 53.132677 165.381857 
L 53.418489 165.10197 
L 52.293014 164.524423 
L 56.270679 162.86879 
L 54.532117 166.810914 
L 53.978264 165.673592 
L 53.692453 165.95348 
L 53.132677 165.381857 
" clip-path="url(#pb5970cceec)" style="fill: #0000ff"/>
    <path d="M 53.132677 146.398715 
L 53.7043 146.118827 
L 52.293014 144.683846 
L 59.128793 144.171459 
L 54.532117 149.256829 
L 54.264076 147.262072 
L 53.692453 147.54196 
L 53.132677 146.398715 
" clip-path="url(#pb5970cceec)" style="fill: #0000ff"/>
    <path d="M 53.213636 127.663587 
L 56.303206 126.655075 
L 55.096999 125.025747 
L 61.986907 125.474128 
L 56.688435 129.901099 
L 56.701065 127.873913 
L 53.611495 128.882425 
L 53.213636 127.663587 
" clip-path="url(#pb5970cceec)" style="fill: #0000ff"/>
    <path d="M 53.260122 108.952999 
L 59.088492 107.526105 
L 58.008488 105.810519 
L 64.845021 106.776797 
L 59.22803 110.791929 
L 59.393378 108.771458 
L 53.565008 110.198351 
L 53.260122 108.952999 
" clip-path="url(#pb5970cceec)" style="fill: #0000ff"/>
    <path d="M 53.28935 90.249231 
L 61.917907 88.559286 
L 60.91915 86.795163 
L 67.703135 88.079465 
L 61.904869 91.828064 
L 62.164337 89.817511 
L 53.53578 91.507456 
L 53.28935 90.249231 
" clip-path="url(#pb5970cceec)" style="fill: #0000ff"/>
    <path d="M 53.309302 71.548319 
L 64.763744 69.678812 
L 63.82126 67.883994 
L 70.561249 69.382134 
L 64.647367 72.945543 
L 64.970271 70.944199 
L 53.515829 72.813706 
L 53.309302 71.548319 
" clip-path="url(#pb5970cceec)" style="fill: #0000ff"/>
    <path d="M 53.323747 52.848799 
L 67.616602 50.84928 
L 66.715266 49.03345 
L 73.419364 50.684803 
L 67.425809 54.112511 
L 67.794238 52.119045 
L 53.501383 54.118564 
L 53.323747 52.848799 
" clip-path="url(#pb5970cceec)" style="fill: #0000ff"/>
    <path d="M 72.194436 315.867933 
L 57.782167 312.234425 
L 57.933632 314.255985 
L 52.344354 310.202362 
L 59.187364 309.283069 
L 58.0956 310.991196 
L 72.507869 314.624704 
L 72.194436 315.867933 
" clip-path="url(#pb5970cceec)" style="fill: #0000ff"/>
    <path d="M 72.170258 297.164001 
L 60.556696 293.748094 
L 60.629026 295.774029 
L 55.202468 291.50503 
L 62.076182 290.853921 
L 60.918485 292.518067 
L 72.532047 295.933974 
L 72.170258 297.164001 
" clip-path="url(#pb5970cceec)" style="fill: #0000ff"/>
    <path d="M 72.137784 278.456171 
L 63.287851 275.332525 
L 63.252263 277.359439 
L 58.060582 272.807699 
L 64.959206 272.523317 
L 63.714587 274.123495 
L 72.56452 277.247141 
L 72.137784 278.456171 
" clip-path="url(#pb5970cceec)" style="fill: #0000ff"/>
    <path d="M 72.092383 259.740843 
L 65.938585 257.02581 
L 65.748795 259.044132 
L 60.918696 254.110368 
L 67.81895 254.351991 
L 66.456124 255.852775 
L 72.609922 258.567807 
L 72.092383 259.740843 
" clip-path="url(#pb5970cceec)" style="fill: #0000ff"/>
    <path d="M 72.026109 241.009543 
L 68.424713 238.89098 
L 68.002131 240.873673 
L 63.77681 235.413037 
L 70.602481 236.453276 
L 69.0748 237.785881 
L 72.676196 239.904444 
L 72.026109 241.009543 
" clip-path="url(#pb5970cceec)" style="fill: #0000ff"/>
    <path d="M 71.926999 222.240348 
L 70.53694 221.01377 
L 69.745166 222.87998 
L 66.634924 216.715705 
L 73.138392 219.034496 
L 71.385247 220.052399 
L 72.775306 221.278977 
L 71.926999 222.240348 
" clip-path="url(#pb5970cceec)" style="fill: #0000ff"/>
    <path d="M 71.846757 203.348143 
L 71.560945 202.843747 
L 70.333569 204.205577 
L 69.493038 198.018374 
L 74.368735 201.919086 
L 72.569737 202.272124 
L 72.855548 202.77652 
L 71.846757 203.348143 
" clip-path="url(#pb5970cceec)" style="fill: #0000ff"/>
    <path d="M 71.846757 184.365 
L 71.846757 183.860604 
L 70.333569 184.365 
L 72.351152 179.321043 
L 74.368735 184.365 
L 72.855548 183.860604 
L 72.855548 184.365 
L 71.846757 184.365 
" clip-path="url(#pb5970cceec)" style="fill: #0000ff"/>
    <path d="M 71.846757 165.381857 
L 72.132568 164.877462 
L 70.333569 164.524423 
L 75.209266 160.623712 
L 74.368735 166.810914 
L 73.141359 165.449084 
L 72.855548 165.95348 
L 71.846757 165.381857 
" clip-path="url(#pb5970cceec)" style="fill: #0000ff"/>
    <path d="M 71.926999 146.489652 
L 73.317058 145.263074 
L 71.563913 144.245171 
L 78.06738 141.92638 
L 74.957139 148.090655 
L 74.165364 146.224445 
L 72.775306 147.451023 
L 71.926999 146.489652 
" clip-path="url(#pb5970cceec)" style="fill: #0000ff"/>
    <path d="M 72.026109 127.720457 
L 75.627504 125.601894 
L 74.099823 124.269288 
L 80.925494 123.229049 
L 76.700173 128.689685 
L 76.277592 126.706993 
L 72.676196 128.825556 
L 72.026109 127.720457 
" clip-path="url(#pb5970cceec)" style="fill: #0000ff"/>
    <path d="M 72.092383 108.989157 
L 78.246181 106.274125 
L 76.883355 104.773341 
L 83.783608 104.531718 
L 78.95351 109.465482 
L 78.763719 107.44716 
L 72.609922 110.162193 
L 72.092383 108.989157 
" clip-path="url(#pb5970cceec)" style="fill: #0000ff"/>
    <path d="M 72.137784 90.273829 
L 80.987718 87.150183 
L 79.743099 85.550005 
L 86.641723 85.834387 
L 81.450042 90.386127 
L 81.414453 88.359213 
L 72.56452 91.482859 
L 72.137784 90.273829 
" clip-path="url(#pb5970cceec)" style="fill: #0000ff"/>
    <path d="M 72.170258 71.565999 
L 83.78382 68.150092 
L 82.626123 66.485946 
L 89.499837 67.137055 
L 84.073279 71.406054 
L 84.145609 69.380119 
L 72.532047 72.796026 
L 72.170258 71.565999 
" clip-path="url(#pb5970cceec)" style="fill: #0000ff"/>
    <path d="M 72.194436 52.862067 
L 86.606705 49.228559 
L 85.514941 47.520432 
L 92.357951 48.439724 
L 86.768673 52.493347 
L 86.920138 50.471788 
L 72.507869 54.105296 
L 72.194436 52.862067 
" clip-path="url(#pb5970cceec)" style="fill: #0000ff"/>
    <path d="M 91.097443 315.857863 
L 76.594545 311.297517 
L 76.6292 313.324446 
L 71.282941 308.955305 
L 78.167571 308.432091 
L 76.979138 310.074428 
L 91.482036 314.634774 
L 91.097443 315.857863 
" clip-path="url(#pb5970cceec)" style="fill: #0000ff"/>
    <path d="M 91.068952 297.150832 
L 79.336873 292.846906 
L 79.276355 294.873229 
L 74.141055 290.257974 
L 81.042655 290.058469 
L 79.778448 291.643216 
L 91.510527 295.947142 
L 91.068952 297.150832 
" clip-path="url(#pb5970cceec)" style="fill: #0000ff"/>
    <path d="M 91.031449 278.438385 
L 82.021437 274.471985 
L 81.833294 276.490462 
L 76.999169 271.560642 
L 83.899618 271.796632 
L 82.538018 273.298528 
L 91.54803 277.264928 
L 91.031449 278.438385 
" clip-path="url(#pb5970cceec)" style="fill: #0000ff"/>
    <path d="M 90.980679 259.715971 
L 84.603035 256.206502 
L 84.237499 258.200501 
L 79.857283 252.863311 
L 86.709984 253.707334 
L 85.221156 255.083211 
L 91.5988 258.592679 
L 90.980679 259.715971 
" clip-path="url(#pb5970cceec)" style="fill: #0000ff"/>
    <path d="M 90.910513 240.973861 
L 86.987975 238.095887 
L 86.367163 240.025715 
L 82.715397 234.16598 
L 89.400976 235.890777 
L 87.746429 237.062152 
L 91.668966 239.940127 
L 90.910513 240.973861 
" clip-path="url(#pb5970cceec)" style="fill: #0000ff"/>
    <path d="M 90.815282 222.190771 
L 88.979029 220.169876 
L 87.986764 221.937659 
L 85.573511 215.468649 
L 91.782426 218.488792 
L 89.927944 219.30766 
L 91.764197 221.328554 
L 90.815282 222.190771 
" clip-path="url(#pb5970cceec)" style="fill: #0000ff"/>
    <path d="M 90.706085 203.327495 
L 90.234448 202.289372 
L 88.748648 203.668518 
L 88.431625 196.771317 
L 93.417884 201.547206 
L 91.401757 201.759043 
L 91.873394 202.797167 
L 90.706085 203.327495 
" clip-path="url(#pb5970cceec)" style="fill: #0000ff"/>
    <path d="M 90.660638 184.365 
L 90.660638 183.735899 
L 88.773334 184.365 
L 91.289739 178.073986 
L 93.806145 184.365 
L 91.918841 183.735899 
L 91.918841 184.365 
L 90.660638 184.365 
" clip-path="url(#pb5970cceec)" style="fill: #0000ff"/>
    <path d="M 90.706085 165.402505 
L 91.177722 164.364381 
L 89.161595 164.152543 
L 94.147853 159.376655 
L 93.83083 166.273856 
L 92.345031 164.894709 
L 91.873394 165.932833 
L 90.706085 165.402505 
" clip-path="url(#pb5970cceec)" style="fill: #0000ff"/>
    <path d="M 90.815282 146.539229 
L 92.651535 144.518335 
L 90.797053 143.699467 
L 97.005968 140.679324 
L 94.592715 147.148334 
L 93.60045 145.380551 
L 91.764197 147.401446 
L 90.815282 146.539229 
" clip-path="url(#pb5970cceec)" style="fill: #0000ff"/>
    <path d="M 90.910513 127.756139 
L 94.83305 124.878165 
L 93.178503 123.70679 
L 99.864082 121.981992 
L 96.212316 127.841727 
L 95.591503 125.911899 
L 91.668966 128.789873 
L 90.910513 127.756139 
" clip-path="url(#pb5970cceec)" style="fill: #0000ff"/>
    <path d="M 90.980679 109.014029 
L 97.358322 105.504561 
L 95.869495 104.128684 
L 102.722196 103.284661 
L 98.34198 108.621851 
L 97.976444 106.627852 
L 91.5988 110.137321 
L 90.980679 109.014029 
" clip-path="url(#pb5970cceec)" style="fill: #0000ff"/>
    <path d="M 91.031449 90.291615 
L 100.041461 86.325216 
L 98.679861 84.82332 
L 105.58031 84.58733 
L 100.746185 89.517149 
L 100.558042 87.498673 
L 91.54803 91.465072 
L 91.031449 90.291615 
" clip-path="url(#pb5970cceec)" style="fill: #0000ff"/>
    <path d="M 91.068952 71.579168 
L 102.801031 67.275241 
L 101.536824 65.690494 
L 108.438424 65.889999 
L 103.303124 70.505254 
L 103.242606 68.478931 
L 91.510527 72.782858 
L 91.068952 71.579168 
" clip-path="url(#pb5970cceec)" style="fill: #0000ff"/>
    <path d="M 91.097443 52.872137 
L 105.600341 48.31179 
L 104.411908 46.669453 
L 111.296538 47.192667 
L 105.950279 51.561809 
L 105.984934 49.534879 
L 91.482036 54.095226 
L 91.097443 52.872137 
" clip-path="url(#pb5970cceec)" style="fill: #0000ff"/>
    <path d="M 110.035967 315.857843 
L 95.532888 311.295783 
L 95.567333 313.322716 
L 90.221528 308.953019 
L 97.106213 308.43052 
L 95.917608 310.072734 
L 110.420686 314.634794 
L 110.035967 315.857843 
" clip-path="url(#pb5970cceec)" style="fill: #0000ff"/>
    <path d="M 110.007468 297.150806 
L 98.275155 292.84523 
L 98.2144 294.871546 
L 93.079642 290.255688 
L 99.981266 290.056993 
L 98.716872 291.641592 
L 110.449185 295.947168 
L 110.007468 297.150806 
" clip-path="url(#pb5970cceec)" style="fill: #0000ff"/>
    <path d="M 109.969957 278.43835 
L 100.959634 274.470372 
L 100.771221 276.488824 
L 95.937756 271.558356 
L 102.838173 271.795271 
L 101.476372 273.296984 
L 110.486696 277.264962 
L 109.969957 278.43835 
" clip-path="url(#pb5970cceec)" style="fill: #0000ff"/>
    <path d="M 109.91918 259.715923 
L 103.541109 256.204945 
L 103.175267 258.198887 
L 98.79587 252.861025 
L 105.648442 253.706099 
L 104.159403 255.081748 
L 110.537473 258.592727 
L 109.91918 259.715923 
" clip-path="url(#pb5970cceec)" style="fill: #0000ff"/>
    <path d="M 109.84901 240.973795 
L 105.925881 238.094341 
L 105.304734 240.024061 
L 101.653984 234.163694 
L 108.339264 235.88965 
L 106.684514 237.060738 
L 110.607643 239.940192 
L 109.84901 240.973795 
" clip-path="url(#pb5970cceec)" style="fill: #0000ff"/>
    <path d="M 109.753791 222.190685 
L 107.916766 220.168206 
L 106.924181 221.935809 
L 104.512098 215.466363 
L 110.720466 218.487629 
L 108.865837 219.306161 
L 110.702862 221.32864 
L 109.753791 222.190685 
" clip-path="url(#pb5970cceec)" style="fill: #0000ff"/>
    <path d="M 109.644636 203.327415 
L 109.17228 202.287332 
L 107.686292 203.666276 
L 107.370212 196.769031 
L 112.355818 201.545602 
L 110.339661 201.757164 
L 110.812017 202.797247 
L 109.644636 203.327415 
" clip-path="url(#pb5970cceec)" style="fill: #0000ff"/>
    <path d="M 109.598997 184.365 
L 109.598997 183.73567 
L 107.711007 184.365 
L 110.228327 178.0717 
L 112.745646 184.365 
L 110.857657 183.73567 
L 110.857657 184.365 
L 109.598997 184.365 
" clip-path="url(#pb5970cceec)" style="fill: #0000ff"/>
    <path d="M 109.644636 165.402585 
L 110.116992 164.362501 
L 108.100835 164.150939 
L 113.086441 159.374369 
L 112.770361 166.271613 
L 111.284373 164.89267 
L 110.812017 165.932753 
L 109.644636 165.402585 
" clip-path="url(#pb5970cceec)" style="fill: #0000ff"/>
    <path d="M 109.753791 146.539315 
L 111.590816 144.516836 
L 109.736187 143.698304 
L 115.944555 140.677038 
L 113.532472 147.146484 
L 112.539887 145.378881 
L 110.702862 147.40136 
L 109.753791 146.539315 
" clip-path="url(#pb5970cceec)" style="fill: #0000ff"/>
    <path d="M 109.84901 127.756205 
L 113.772139 124.87675 
L 112.117389 123.705662 
L 118.802669 121.979706 
L 115.151919 127.840074 
L 114.530772 125.910353 
L 110.607643 128.789808 
L 109.84901 127.756205 
" clip-path="url(#pb5970cceec)" style="fill: #0000ff"/>
    <path d="M 109.91918 109.014077 
L 116.29725 105.503098 
L 114.808211 104.127449 
L 121.660783 103.282375 
L 117.281386 108.620237 
L 116.915544 106.626295 
L 110.537473 110.137273 
L 109.91918 109.014077 
" clip-path="url(#pb5970cceec)" style="fill: #0000ff"/>
    <path d="M 109.969957 90.29165 
L 118.980281 86.323672 
L 117.61848 84.821959 
L 124.518897 84.585044 
L 119.685433 89.515511 
L 119.497019 87.49706 
L 110.486696 91.465038 
L 109.969957 90.29165 
" clip-path="url(#pb5970cceec)" style="fill: #0000ff"/>
    <path d="M 110.007468 71.579194 
L 121.739781 67.273618 
L 120.475388 65.689019 
L 127.377011 65.887713 
L 122.242253 70.503571 
L 122.181498 68.477256 
L 110.449185 72.782832 
L 110.007468 71.579194 
" clip-path="url(#pb5970cceec)" style="fill: #0000ff"/>
    <path d="M 110.035967 52.872157 
L 124.539045 48.310097 
L 123.35044 46.667883 
L 130.235125 47.190381 
L 124.88932 51.560079 
L 124.923765 49.533145 
L 110.420686 54.095206 
L 110.035967 52.872157 
" clip-path="url(#pb5970cceec)" style="fill: #0000ff"/>
    <path d="M 129.01001 315.867886 
L 114.597316 312.229656 
L 114.748172 314.251261 
L 109.160115 310.195956 
L 116.003402 309.278724 
L 114.911124 310.986521 
L 129.323817 314.624752 
L 129.01001 315.867886 
" clip-path="url(#pb5970cceec)" style="fill: #0000ff"/>
    <path d="M 128.985808 297.163939 
L 117.371686 293.743529 
L 117.443319 295.769489 
L 112.018229 291.498624 
L 118.892166 290.849878 
L 117.733897 292.513626 
L 129.34802 295.934036 
L 128.985808 297.163939 
" clip-path="url(#pb5970cceec)" style="fill: #0000ff"/>
    <path d="M 128.953305 278.456086 
L 120.102606 275.328203 
L 120.06621 277.355102 
L 114.876343 272.801293 
L 121.77508 272.519661 
L 120.529823 274.119342 
L 129.380522 277.247226 
L 128.953305 278.456086 
" clip-path="url(#pb5970cceec)" style="fill: #0000ff"/>
    <path d="M 128.907869 259.740721 
L 122.752979 257.021758 
L 122.562242 259.039991 
L 117.734457 254.103962 
L 124.634597 254.348821 
L 123.271068 255.848965 
L 129.425958 258.567929 
L 128.907869 259.740721 
" clip-path="url(#pb5970cceec)" style="fill: #0000ff"/>
    <path d="M 128.841563 241.009363 
L 125.238544 238.887153 
L 124.814862 240.86961 
L 120.592572 235.406631 
L 127.417664 236.450657 
L 125.889244 237.782414 
L 129.492264 239.904625 
L 128.841563 241.009363 
" clip-path="url(#pb5970cceec)" style="fill: #0000ff"/>
    <path d="M 128.742458 222.240081 
L 127.349994 221.009821 
L 126.557045 222.875531 
L 123.450686 216.709299 
L 129.952692 219.032185 
L 128.198906 220.048984 
L 129.59137 221.279244 
L 128.742458 222.240081 
" clip-path="url(#pb5970cceec)" style="fill: #0000ff"/>
    <path d="M 128.661877 203.348143 
L 128.376066 202.843106 
L 127.146768 204.205577 
L 126.3088 198.011968 
L 131.187059 201.919086 
L 129.386139 202.271484 
L 129.67195 202.77652 
L 128.661877 203.348143 
" clip-path="url(#pb5970cceec)" style="fill: #0000ff"/>
    <path d="M 128.661877 184.365 
L 128.661877 183.859964 
L 127.146768 184.365 
L 129.166914 179.314637 
L 131.187059 184.365 
L 129.67195 183.859964 
L 129.67195 184.365 
L 128.661877 184.365 
" clip-path="url(#pb5970cceec)" style="fill: #0000ff"/>
    <path d="M 128.661877 165.381857 
L 128.947689 164.876821 
L 127.146768 164.524423 
L 132.025028 160.617306 
L 131.187059 166.810914 
L 129.957761 165.448444 
L 129.67195 165.95348 
L 128.661877 165.381857 
" clip-path="url(#pb5970cceec)" style="fill: #0000ff"/>
    <path d="M 128.742458 146.489919 
L 130.134921 145.259659 
L 128.381135 144.24286 
L 134.883142 141.919975 
L 131.776783 148.086206 
L 130.983833 146.220496 
L 129.59137 147.450756 
L 128.742458 146.489919 
" clip-path="url(#pb5970cceec)" style="fill: #0000ff"/>
    <path d="M 128.841563 127.720637 
L 132.444583 125.598427 
L 130.916163 124.26667 
L 137.741256 123.222643 
L 133.518965 128.685623 
L 133.095284 126.703165 
L 129.492264 128.825375 
L 128.841563 127.720637 
" clip-path="url(#pb5970cceec)" style="fill: #0000ff"/>
    <path d="M 128.907869 108.989279 
L 135.06276 106.270315 
L 133.69923 104.770171 
L 140.59937 104.525312 
L 135.771585 109.461341 
L 135.580848 107.443108 
L 129.425958 110.162071 
L 128.907869 108.989279 
" clip-path="url(#pb5970cceec)" style="fill: #0000ff"/>
    <path d="M 128.953305 90.273914 
L 137.804004 87.14603 
L 136.558747 85.546348 
L 143.457484 85.827981 
L 138.267618 90.381789 
L 138.231221 88.35489 
L 129.380522 91.482774 
L 128.953305 90.273914 
" clip-path="url(#pb5970cceec)" style="fill: #0000ff"/>
    <path d="M 128.985808 71.566061 
L 140.59993 68.145651 
L 139.441661 66.481903 
L 146.315598 67.13065 
L 140.890508 71.401514 
L 140.962142 69.375554 
L 129.34802 72.795964 
L 128.985808 71.566061 
" clip-path="url(#pb5970cceec)" style="fill: #0000ff"/>
    <path d="M 129.01001 52.862114 
L 143.422704 49.223884 
L 142.330426 47.516086 
L 149.173712 48.433318 
L 143.585655 52.488624 
L 143.736511 50.467018 
L 129.323817 54.105248 
L 129.01001 52.862114 
" clip-path="url(#pb5970cceec)" style="fill: #0000ff"/>
    <path d="M 148.016395 315.881161 
L 133.723177 313.874977 
L 134.090701 315.86861 
L 128.098702 312.438182 
L 134.803548 310.789872 
L 133.901388 312.605293 
L 148.194607 314.611476 
L 148.016395 315.881161 
" clip-path="url(#pb5970cceec)" style="fill: #0000ff"/>
    <path d="M 148.001905 297.181627 
L 136.546973 295.305855 
L 136.868824 297.307369 
L 130.956816 293.740851 
L 137.697593 292.246255 
L 136.754165 294.040577 
L 148.209097 295.916348 
L 148.001905 297.181627 
" clip-path="url(#pb5970cceec)" style="fill: #0000ff"/>
    <path d="M 147.981894 278.480692 
L 139.352644 276.78502 
L 139.610857 278.795734 
L 133.814931 275.04352 
L 140.599715 273.76345 
L 139.599858 275.526949 
L 148.229108 277.222621 
L 147.981894 278.480692 
" clip-path="url(#pb5970cceec)" style="fill: #0000ff"/>
    <path d="M 147.952582 259.776885 
L 142.123163 258.345013 
L 142.286967 260.36561 
L 136.673045 256.346188 
L 143.510314 255.385133 
L 142.429 257.099894 
L 148.258419 258.531765 
L 147.952582 259.776885 
" clip-path="url(#pb5970cceec)" style="fill: #0000ff"/>
    <path d="M 147.905977 241.066218 
L 144.814657 240.053797 
L 144.82531 242.080995 
L 139.531159 237.648857 
L 146.421501 237.207197 
L 145.213705 238.835347 
L 148.305025 239.847769 
L 147.905977 241.066218 
" clip-path="url(#pb5970cceec)" style="fill: #0000ff"/>
    <path d="M 147.824687 222.331285 
L 147.253064 222.050472 
L 146.982246 224.046154 
L 142.389273 218.951526 
L 149.228755 219.473171 
L 147.814692 220.907226 
L 148.386314 221.18804 
L 147.824687 222.331285 
" clip-path="url(#pb5970cceec)" style="fill: #0000ff"/>
    <path d="M 147.824687 203.348143 
L 147.538876 203.067329 
L 146.982246 204.205577 
L 145.247387 200.254195 
L 149.228755 201.919086 
L 148.100503 202.495706 
L 148.386314 202.77652 
L 147.824687 203.348143 
" clip-path="url(#pb5970cceec)" style="fill: #0000ff"/>
    <path d="M 147.824687 184.365 
L 147.824687 184.084186 
L 146.982246 184.365 
L 148.105501 181.556863 
L 149.228755 184.365 
L 148.386314 184.084186 
L 148.386314 184.365 
L 147.824687 184.365 
" clip-path="url(#pb5970cceec)" style="fill: #0000ff"/>
    <path d="M 147.824687 165.381857 
L 148.110499 165.101044 
L 146.982246 164.524423 
L 150.963615 162.859532 
L 149.228755 166.810914 
L 148.672126 165.672667 
L 148.386314 165.95348 
L 147.824687 165.381857 
" clip-path="url(#pb5970cceec)" style="fill: #0000ff"/>
    <path d="M 147.824687 146.398715 
L 148.39631 146.117901 
L 146.982246 144.683846 
L 153.821729 144.162201 
L 149.228755 149.256829 
L 148.957937 147.261147 
L 148.386314 147.54196 
L 147.824687 146.398715 
" clip-path="url(#pb5970cceec)" style="fill: #0000ff"/>
    <path d="M 147.905977 127.663782 
L 150.997297 126.65136 
L 149.7895 125.02321 
L 156.679843 125.46487 
L 151.385692 129.897007 
L 151.396345 127.869809 
L 148.305025 128.882231 
L 147.905977 127.663782 
" clip-path="url(#pb5970cceec)" style="fill: #0000ff"/>
    <path d="M 147.952582 108.953115 
L 153.782002 107.521244 
L 152.700687 105.806484 
L 159.537957 106.767538 
L 153.924034 110.786961 
L 154.087839 108.766363 
L 148.258419 110.198235 
L 147.952582 108.953115 
" clip-path="url(#pb5970cceec)" style="fill: #0000ff"/>
    <path d="M 147.981894 90.249308 
L 156.611144 88.553637 
L 155.611286 86.790137 
L 162.396071 88.070207 
L 156.600144 91.822422 
L 156.858358 89.811708 
L 148.229108 91.507379 
L 147.981894 90.249308 
" clip-path="url(#pb5970cceec)" style="fill: #0000ff"/>
    <path d="M 148.001905 71.548373 
L 159.456836 69.672602 
L 158.513409 67.87828 
L 165.254185 69.372876 
L 159.342178 72.939394 
L 159.664028 70.93788 
L 148.209097 72.813652 
L 148.001905 71.548373 
" clip-path="url(#pb5970cceec)" style="fill: #0000ff"/>
    <path d="M 148.016395 52.848839 
L 162.309613 50.842656 
L 161.407453 49.027235 
L 168.112299 50.675545 
L 162.1203 54.105973 
L 162.487825 52.11234 
L 148.194607 54.118524 
L 148.016395 52.848839 
" clip-path="url(#pb5970cceec)" style="fill: #0000ff"/>
    <path d="M 167.043759 315.887384 
L 152.806546 315.880069 
L 153.446623 317.803594 
L 147.03729 315.23604 
L 153.449258 312.675073 
L 152.807204 314.597939 
L 167.044417 314.605254 
L 167.043759 315.887384 
" clip-path="url(#pb5970cceec)" style="fill: #0000ff"/>
    <path d="M 167.043704 297.190052 
L 155.664605 297.183232 
L 156.304517 299.106811 
L 149.895404 296.538709 
L 156.307591 293.978291 
L 155.665373 295.901102 
L 167.044472 295.907922 
L 167.043704 297.190052 
" clip-path="url(#pb5970cceec)" style="fill: #0000ff"/>
    <path d="M 167.043627 278.492721 
L 158.522641 278.486592 
L 159.162323 280.410248 
L 152.753518 277.841378 
L 159.166012 275.281729 
L 158.523564 277.204462 
L 167.044549 277.210591 
L 167.043627 278.492721 
" clip-path="url(#pb5970cceec)" style="fill: #0000ff"/>
    <path d="M 167.043512 259.79539 
L 161.380639 259.790298 
L 162.019975 261.714069 
L 155.611632 259.144046 
L 162.024586 256.58555 
L 161.381792 258.508169 
L 167.044664 258.51326 
L 167.043512 259.79539 
" clip-path="url(#pb5970cceec)" style="fill: #0000ff"/>
    <path d="M 167.043319 241.098058 
L 164.238559 241.094696 
L 164.877319 243.018659 
L 158.469746 240.446715 
L 164.883467 237.890141 
L 164.240096 239.812567 
L 167.044856 239.815929 
L 167.043319 241.098058 
" clip-path="url(#pb5970cceec)" style="fill: #0000ff"/>
    <path d="M 167.04306 222.331285 
L 166.471437 222.330257 
L 167.039976 224.046154 
L 161.32786 221.749384 
L 167.048199 219.473171 
L 166.473493 221.187012 
L 167.045116 221.18804 
L 167.04306 222.331285 
" clip-path="url(#pb5970cceec)" style="fill: #0000ff"/>
    <path d="M 167.04306 203.348143 
L 166.757249 203.347115 
L 167.039976 204.205577 
L 164.185974 203.052053 
L 167.048199 201.919086 
L 166.759304 202.775492 
L 167.045116 202.77652 
L 167.04306 203.348143 
" clip-path="url(#pb5970cceec)" style="fill: #0000ff"/>
    <path d="M 167.044088 183.723935 
L 166.488909 184.044467 
L 166.488909 184.685533 
L 167.044088 185.006065 
L 167.599267 184.685533 
L 167.599267 184.044467 
L 167.044088 183.723935 
L 166.488909 184.044467 
" clip-path="url(#pb5970cceec)" style="fill: #0000ff"/>
    <path d="M 167.04306 165.381857 
L 167.328871 165.380829 
L 167.039976 164.524423 
L 169.902202 165.65739 
L 167.048199 166.810914 
L 167.330927 165.952452 
L 167.045116 165.95348 
L 167.04306 165.381857 
" clip-path="url(#pb5970cceec)" style="fill: #0000ff"/>
    <path d="M 167.04306 146.398715 
L 167.614683 146.397687 
L 167.039976 144.683846 
L 172.760316 146.960059 
L 167.048199 149.256829 
L 167.616739 147.540932 
L 167.045116 147.54196 
L 167.04306 146.398715 
" clip-path="url(#pb5970cceec)" style="fill: #0000ff"/>
    <path d="M 167.043319 127.631942 
L 169.848079 127.628579 
L 169.204709 125.706154 
L 175.61843 128.262728 
L 169.210857 130.834671 
L 169.849616 128.910709 
L 167.044856 128.914071 
L 167.043319 127.631942 
" clip-path="url(#pb5970cceec)" style="fill: #0000ff"/>
    <path d="M 167.043512 108.93461 
L 172.706384 108.929519 
L 172.06359 107.006901 
L 178.476544 109.565396 
L 172.068201 112.13542 
L 172.707537 110.211649 
L 167.044664 110.21674 
L 167.043512 108.93461 
" clip-path="url(#pb5970cceec)" style="fill: #0000ff"/>
    <path d="M 167.043627 90.237279 
L 175.564612 90.23115 
L 174.922164 88.308416 
L 181.334658 90.868065 
L 174.925853 93.436936 
L 175.565534 91.51328 
L 167.044549 91.519409 
L 167.043627 90.237279 
" clip-path="url(#pb5970cceec)" style="fill: #0000ff"/>
    <path d="M 167.043704 71.539948 
L 178.422803 71.533127 
L 177.780585 69.610316 
L 184.192772 72.170734 
L 177.783659 74.738836 
L 178.423571 72.815257 
L 167.044472 72.822078 
L 167.043704 71.539948 
" clip-path="url(#pb5970cceec)" style="fill: #0000ff"/>
    <path d="M 167.043759 52.842616 
L 181.280971 52.835302 
L 180.638918 50.912436 
L 187.050886 53.473403 
L 180.641553 56.040956 
L 181.28163 54.117432 
L 167.044417 54.124746 
L 167.043759 52.842616 
" clip-path="url(#pb5970cceec)" style="fill: #0000ff"/>
    <path d="M 186.071204 315.881242 
L 171.778712 317.87409 
L 172.679223 319.69033 
L 165.975877 318.035932 
L 171.970988 314.610947 
L 171.601653 316.604245 
L 185.894146 314.611396 
L 186.071204 315.881242 
" clip-path="url(#pb5970cceec)" style="fill: #0000ff"/>
    <path d="M 186.085605 297.181735 
L 174.631652 299.044974 
L 175.573191 300.840287 
L 168.833991 299.338601 
L 174.749747 295.778305 
L 174.425791 297.779479 
L 185.879745 295.91624 
L 186.085605 297.181735 
" clip-path="url(#pb5970cceec)" style="fill: #0000ff"/>
    <path d="M 186.105497 278.480846 
L 177.477631 280.165062 
L 178.475286 281.929808 
L 171.692105 280.641269 
L 177.492711 276.896293 
L 177.231987 278.906683 
L 185.859853 277.222467 
L 186.105497 278.480846 
" clip-path="url(#pb5970cceec)" style="fill: #0000ff"/>
    <path d="M 186.134642 259.777118 
L 180.307319 261.199032 
L 181.386011 262.915444 
L 174.550219 261.943938 
L 180.170279 257.933102 
L 180.003386 259.953447 
L 185.830709 258.531532 
L 186.134642 259.777118 
" clip-path="url(#pb5970cceec)" style="fill: #0000ff"/>
    <path d="M 186.181009 241.066607 
L 183.093185 242.071213 
L 184.2978 243.701718 
L 177.408333 243.246607 
L 182.711127 238.824813 
L 182.696516 240.851987 
L 185.784341 239.847381 
L 186.181009 241.066607 
" clip-path="url(#pb5970cceec)" style="fill: #0000ff"/>
    <path d="M 186.261636 222.331285 
L 185.690014 222.610247 
L 187.09852 224.046154 
L 180.266447 224.549276 
L 184.86683 219.473171 
L 185.132091 221.467001 
L 185.703714 221.18804 
L 186.261636 222.331285 
" clip-path="url(#pb5970cceec)" style="fill: #0000ff"/>
    <path d="M 186.261636 203.348143 
L 185.975825 203.627104 
L 187.09852 204.205577 
L 183.124561 205.851944 
L 184.86683 201.919086 
L 185.417902 203.055481 
L 185.703714 202.77652 
L 186.261636 203.348143 
" clip-path="url(#pb5970cceec)" style="fill: #0000ff"/>
    <path d="M 186.261636 184.365 
L 186.261636 184.643961 
L 187.09852 184.365 
L 185.982675 187.154613 
L 184.86683 184.365 
L 185.703714 184.643961 
L 185.703714 184.365 
L 186.261636 184.365 
" clip-path="url(#pb5970cceec)" style="fill: #0000ff"/>
    <path d="M 186.261636 165.381857 
L 186.547448 165.660819 
L 187.09852 164.524423 
L 188.840789 168.457282 
L 184.86683 166.810914 
L 185.989525 166.232441 
L 185.703714 165.95348 
L 186.261636 165.381857 
" clip-path="url(#pb5970cceec)" style="fill: #0000ff"/>
    <path d="M 186.261636 146.398715 
L 186.833259 146.677676 
L 187.09852 144.683846 
L 191.698903 149.759951 
L 184.86683 149.256829 
L 186.275337 147.820922 
L 185.703714 147.54196 
L 186.261636 146.398715 
" clip-path="url(#pb5970cceec)" style="fill: #0000ff"/>
    <path d="M 186.181009 127.663393 
L 189.268834 128.667999 
L 189.254223 126.640826 
L 194.557017 131.062619 
L 187.66755 131.51773 
L 188.872165 129.887225 
L 185.784341 128.882619 
L 186.181009 127.663393 
" clip-path="url(#pb5970cceec)" style="fill: #0000ff"/>
    <path d="M 186.134642 108.952882 
L 191.961964 110.374797 
L 191.795071 108.354452 
L 197.415131 112.365288 
L 190.579339 113.336794 
L 191.658031 111.620382 
L 185.830709 110.198468 
L 186.134642 108.952882 
" clip-path="url(#pb5970cceec)" style="fill: #0000ff"/>
    <path d="M 186.105497 90.249154 
L 194.733363 91.93337 
L 194.472639 89.92298 
L 200.273245 93.667957 
L 193.490064 94.956495 
L 194.487719 93.191749 
L 185.859853 91.507533 
L 186.105497 90.249154 
" clip-path="url(#pb5970cceec)" style="fill: #0000ff"/>
    <path d="M 186.085605 71.548265 
L 197.539559 73.411504 
L 197.215603 71.41033 
L 203.131359 74.970626 
L 196.392159 76.472313 
L 197.333698 74.676999 
L 185.879745 72.81376 
L 186.085605 71.548265 
" clip-path="url(#pb5970cceec)" style="fill: #0000ff"/>
    <path d="M 186.071204 52.848758 
L 200.363697 54.841607 
L 199.994362 52.848309 
L 205.989473 56.273294 
L 199.286127 57.927692 
L 200.186638 56.111453 
L 185.894146 54.118604 
L 186.071204 52.848758 
" clip-path="url(#pb5970cceec)" style="fill: #0000ff"/>
    <path d="M 205.077791 315.86798 
L 190.665948 319.496758 
L 191.757196 321.205214 
L 184.914464 320.283857 
L 190.504964 316.23192 
L 190.352889 318.253434 
L 204.764733 314.624657 
L 205.077791 315.86798 
" clip-path="url(#pb5970cceec)" style="fill: #0000ff"/>
    <path d="M 205.101945 297.164063 
L 193.488943 300.575459 
L 194.646067 302.240004 
L 187.772578 301.586526 
L 193.200606 297.319397 
L 193.127578 299.345307 
L 204.74058 295.933912 
L 205.101945 297.164063 
" clip-path="url(#pb5970cceec)" style="fill: #0000ff"/>
    <path d="M 205.134389 278.456257 
L 196.285222 281.575657 
L 197.529202 283.176332 
L 190.630692 282.889195 
L 195.82419 278.339529 
L 195.858969 280.366457 
L 204.708136 277.247056 
L 205.134389 278.456257 
" clip-path="url(#pb5970cceec)" style="fill: #0000ff"/>
    <path d="M 205.179756 259.740964 
L 199.027052 262.45206 
L 200.389173 263.953484 
L 193.488806 264.191863 
L 198.321223 259.26037 
L 198.510065 261.278781 
L 204.662769 258.567686 
L 205.179756 259.740964 
" clip-path="url(#pb5970cceec)" style="fill: #0000ff"/>
    <path d="M 205.245998 241.009724 
L 201.646229 243.124636 
L 203.173169 244.45809 
L 196.34692 245.494532 
L 200.575278 240.036247 
L 200.996757 242.019175 
L 204.596526 239.904263 
L 205.245998 241.009724 
" clip-path="url(#pb5970cceec)" style="fill: #0000ff"/>
    <path d="M 205.345112 222.240616 
L 203.957463 223.463508 
L 205.709965 224.482519 
L 199.205034 226.797201 
L 202.319169 220.634892 
L 203.109764 222.501602 
L 204.497413 221.278709 
L 205.345112 222.240616 
" clip-path="url(#pb5970cceec)" style="fill: #0000ff"/>
    <path d="M 205.425016 203.348143 
L 205.139205 203.851896 
L 206.936278 204.205577 
L 202.063148 208.09987 
L 202.906247 201.919086 
L 204.131697 203.280274 
L 204.417508 202.77652 
L 205.425016 203.348143 
" clip-path="url(#pb5970cceec)" style="fill: #0000ff"/>
    <path d="M 205.425016 184.365 
L 205.425016 184.868754 
L 206.936278 184.365 
L 204.921262 189.402538 
L 202.906247 184.365 
L 204.417508 184.868754 
L 204.417508 184.365 
L 205.425016 184.365 
" clip-path="url(#pb5970cceec)" style="fill: #0000ff"/>
    <path d="M 205.425016 165.381857 
L 205.710827 165.885611 
L 206.936278 164.524423 
L 207.779376 170.705207 
L 202.906247 166.810914 
L 204.70332 166.457234 
L 204.417508 165.95348 
L 205.425016 165.381857 
" clip-path="url(#pb5970cceec)" style="fill: #0000ff"/>
    <path d="M 205.345112 146.489384 
L 206.73276 147.712277 
L 207.523355 145.845567 
L 210.63749 152.007876 
L 204.132559 149.693194 
L 205.885061 148.674183 
L 204.497413 147.451291 
L 205.345112 146.489384 
" clip-path="url(#pb5970cceec)" style="fill: #0000ff"/>
    <path d="M 205.245998 127.720276 
L 208.845768 129.835187 
L 209.267246 127.85226 
L 213.495604 133.310545 
L 206.669356 132.274103 
L 208.196295 130.940648 
L 204.596526 128.825737 
L 205.245998 127.720276 
" clip-path="url(#pb5970cceec)" style="fill: #0000ff"/>
    <path d="M 205.179756 108.989036 
L 211.332459 111.700131 
L 211.521301 109.68172 
L 216.353718 114.613213 
L 209.453352 114.374834 
L 210.815472 112.87341 
L 204.662769 110.162314 
L 205.179756 108.989036 
" clip-path="url(#pb5970cceec)" style="fill: #0000ff"/>
    <path d="M 205.134389 90.273743 
L 213.983555 93.393144 
L 214.018334 91.366217 
L 219.211832 95.915882 
L 212.313323 96.20302 
L 213.557302 94.602345 
L 204.708136 91.482944 
L 205.134389 90.273743 
" clip-path="url(#pb5970cceec)" style="fill: #0000ff"/>
    <path d="M 205.101945 71.565937 
L 216.714946 74.977332 
L 216.641918 72.951422 
L 222.069946 77.218551 
L 215.196458 77.872029 
L 216.353581 76.207484 
L 204.74058 72.796088 
L 205.101945 71.565937 
" clip-path="url(#pb5970cceec)" style="fill: #0000ff"/>
    <path d="M 205.077791 52.86202 
L 219.489635 56.490797 
L 219.33756 54.469283 
L 224.928061 58.52122 
L 218.085328 59.442576 
L 219.176577 57.73412 
L 204.764733 54.105343 
L 205.077791 52.86202 
" clip-path="url(#pb5970cceec)" style="fill: #0000ff"/>
    <path d="M 224.052082 315.857883 
L 209.549365 320.416504 
L 210.737626 322.058966 
L 203.853051 321.53503 
L 209.199768 317.166449 
L 209.1649 319.193375 
L 223.667617 314.634754 
L 224.052082 315.857883 
" clip-path="url(#pb5970cceec)" style="fill: #0000ff"/>
    <path d="M 224.080566 297.150859 
L 212.348721 301.453124 
L 213.612741 303.038021 
L 206.711165 302.837699 
L 211.847011 298.223052 
L 211.907289 300.249382 
L 223.639133 295.947116 
L 224.080566 297.150859 
" clip-path="url(#pb5970cceec)" style="fill: #0000ff"/>
    <path d="M 224.118061 278.43842 
L 215.108362 282.40323 
L 216.46976 283.905309 
L 209.569279 284.140368 
L 214.404069 279.211201 
L 214.59194 281.229703 
L 223.601638 277.264893 
L 224.118061 278.43842 
" clip-path="url(#pb5970cceec)" style="fill: #0000ff"/>
    <path d="M 224.168823 259.716019 
L 217.791609 263.223966 
L 219.280224 264.600073 
L 212.427393 265.443037 
L 216.808434 260.106524 
L 217.173662 262.100579 
L 223.550876 258.592631 
L 224.168823 259.716019 
" clip-path="url(#pb5970cceec)" style="fill: #0000ff"/>
    <path d="M 224.238986 240.973927 
L 220.317044 243.850411 
L 221.971386 245.022075 
L 215.285507 246.745706 
L 218.938295 240.886608 
L 219.558771 242.816545 
L 223.480713 239.94006 
L 224.238986 240.973927 
" clip-path="url(#pb5970cceec)" style="fill: #0000ff"/>
    <path d="M 224.334228 222.190857 
L 222.498753 224.210156 
L 224.353085 225.029362 
L 218.143621 228.048374 
L 220.558052 221.579804 
L 221.549995 223.347767 
L 223.38547 221.328468 
L 224.334228 222.190857 
" clip-path="url(#pb5970cceec)" style="fill: #0000ff"/>
    <path d="M 224.443467 203.327576 
L 223.972554 204.363727 
L 225.988652 204.575842 
L 221.001735 209.351043 
L 221.319709 202.453886 
L 222.805318 203.833237 
L 223.276231 202.797087 
L 224.443467 203.327576 
" clip-path="url(#pb5970cceec)" style="fill: #0000ff"/>
    <path d="M 224.48872 184.365 
L 224.48872 184.993871 
L 226.375334 184.365 
L 223.859849 190.653712 
L 221.344365 184.365 
L 223.230978 184.993871 
L 223.230978 184.365 
L 224.48872 184.365 
" clip-path="url(#pb5970cceec)" style="fill: #0000ff"/>
    <path d="M 224.443467 165.402424 
L 224.91438 166.438575 
L 226.399989 165.059223 
L 226.717963 171.956381 
L 221.731046 167.18118 
L 223.747145 166.969064 
L 223.276231 165.932913 
L 224.443467 165.402424 
" clip-path="url(#pb5970cceec)" style="fill: #0000ff"/>
    <path d="M 224.334228 146.539143 
L 226.169704 148.558442 
L 227.161647 146.790479 
L 229.576077 153.259049 
L 223.366613 150.240037 
L 225.220945 149.420832 
L 223.38547 147.401532 
L 224.334228 146.539143 
" clip-path="url(#pb5970cceec)" style="fill: #0000ff"/>
    <path d="M 224.238986 127.756073 
L 228.160927 130.632557 
L 228.781403 128.702621 
L 232.434191 134.561718 
L 225.748312 132.838088 
L 227.402655 131.666424 
L 223.480713 128.78994 
L 224.238986 127.756073 
" clip-path="url(#pb5970cceec)" style="fill: #0000ff"/>
    <path d="M 224.168823 109.013981 
L 230.546037 112.521929 
L 230.911264 110.527875 
L 235.292306 115.864387 
L 228.439474 115.021423 
L 229.928089 113.645316 
L 223.550876 110.137369 
L 224.168823 109.013981 
" clip-path="url(#pb5970cceec)" style="fill: #0000ff"/>
    <path d="M 224.118061 90.29158 
L 233.127759 94.25639 
L 233.315629 92.237888 
L 238.15042 97.167056 
L 231.249939 96.931997 
L 232.611336 95.429917 
L 223.601638 91.465107 
L 224.118061 90.29158 
" clip-path="url(#pb5970cceec)" style="fill: #0000ff"/>
    <path d="M 224.080566 71.579141 
L 235.81241 75.881407 
L 235.872688 73.855077 
L 241.008534 78.469724 
L 234.106957 78.670046 
L 235.370977 77.085149 
L 223.639133 72.782884 
L 224.080566 71.579141 
" clip-path="url(#pb5970cceec)" style="fill: #0000ff"/>
    <path d="M 224.052082 52.872117 
L 238.554799 57.430738 
L 238.519931 55.403811 
L 243.866648 59.772393 
L 236.982072 60.296328 
L 238.170334 58.653867 
L 223.667617 54.095246 
L 224.052082 52.872117 
" clip-path="url(#pb5970cceec)" style="fill: #0000ff"/>
    <path d="M 242.99086 315.857823 
L 228.487603 320.421585 
L 229.676376 322.063676 
L 222.791638 321.541889 
L 228.136992 317.171639 
L 228.102756 319.198576 
L 242.606013 314.634814 
L 242.99086 315.857823 
" clip-path="url(#pb5970cceec)" style="fill: #0000ff"/>
    <path d="M 243.019365 297.150781 
L 231.28682 301.457995 
L 232.551399 303.042446 
L 225.649752 302.844557 
L 230.783971 298.2281 
L 230.844963 300.254408 
L 242.577508 295.947194 
L 243.019365 297.150781 
" clip-path="url(#pb5970cceec)" style="fill: #0000ff"/>
    <path d="M 243.056884 278.438316 
L 234.04625 282.407862 
L 235.408252 283.909393 
L 228.507866 284.147226 
L 233.340674 279.216116 
L 233.529356 281.234542 
L 242.539989 277.264997 
L 243.056884 278.438316 
" clip-path="url(#pb5970cceec)" style="fill: #0000ff"/>
    <path d="M 243.107669 259.715876 
L 236.729174 263.228355 
L 238.218423 264.603776 
L 231.36598 265.449895 
L 235.744564 260.111366 
L 236.11071 262.105252 
L 242.489204 258.592774 
L 243.107669 259.715876 
" clip-path="url(#pb5970cceec)" style="fill: #0000ff"/>
    <path d="M 243.177841 240.97373 
L 239.254125 243.854654 
L 240.909077 245.025458 
L 234.224094 246.752564 
L 237.873836 240.891568 
L 238.495315 242.821182 
L 242.419031 239.940258 
L 243.177841 240.97373 
" clip-path="url(#pb5970cceec)" style="fill: #0000ff"/>
    <path d="M 243.273049 222.1906 
L 241.435257 224.214653 
L 243.290034 225.032852 
L 237.082208 228.055233 
L 239.49313 221.585353 
L 240.486031 223.352778 
L 242.323823 221.328725 
L 243.273049 222.1906 
" clip-path="url(#pb5970cceec)" style="fill: #0000ff"/>
    <path d="M 243.382163 203.327336 
L 242.909094 204.369366 
L 244.925279 204.580654 
L 239.940322 209.357901 
L 240.255465 202.460614 
L 241.741641 203.839356 
L 242.21471 202.797326 
L 243.382163 203.327336 
" clip-path="url(#pb5970cceec)" style="fill: #0000ff"/>
    <path d="M 243.427993 184.365 
L 243.427993 184.994557 
L 245.316664 184.365 
L 242.798436 190.66057 
L 240.280208 184.365 
L 242.168879 184.994557 
L 242.168879 184.365 
L 243.427993 184.365 
" clip-path="url(#pb5970cceec)" style="fill: #0000ff"/>
    <path d="M 243.382163 165.402664 
L 243.855232 166.444693 
L 245.341407 165.065952 
L 245.65655 171.963239 
L 240.671594 167.185992 
L 242.687779 166.974703 
L 242.21471 165.932674 
L 243.382163 165.402664 
" clip-path="url(#pb5970cceec)" style="fill: #0000ff"/>
    <path d="M 243.273049 146.5394 
L 245.110841 148.563453 
L 246.103743 146.796028 
L 248.514665 153.265908 
L 242.306839 150.243527 
L 244.161615 149.425328 
L 242.323823 147.401275 
L 243.273049 146.5394 
" clip-path="url(#pb5970cceec)" style="fill: #0000ff"/>
    <path d="M 243.177841 127.75627 
L 247.101558 130.637194 
L 247.723037 128.707581 
L 251.372779 134.568576 
L 244.687796 132.84147 
L 246.342748 131.670667 
L 242.419031 128.789742 
L 243.177841 127.75627 
" clip-path="url(#pb5970cceec)" style="fill: #0000ff"/>
    <path d="M 243.107669 109.014124 
L 249.486163 112.526602 
L 249.852309 110.532716 
L 254.230893 115.871245 
L 247.37845 115.025127 
L 248.867699 113.649705 
L 242.489204 110.137226 
L 243.107669 109.014124 
" clip-path="url(#pb5970cceec)" style="fill: #0000ff"/>
    <path d="M 243.056884 90.291684 
L 252.067517 94.26123 
L 252.256198 92.242804 
L 257.089007 97.173914 
L 250.188621 96.936081 
L 251.550622 95.434549 
L 242.539989 91.465003 
L 243.056884 90.291684 
" clip-path="url(#pb5970cceec)" style="fill: #0000ff"/>
    <path d="M 243.019365 71.579219 
L 254.75191 75.886434 
L 254.812902 73.860125 
L 259.947121 78.476583 
L 253.045474 78.674472 
L 254.310053 77.09002 
L 242.577508 72.782806 
L 243.019365 71.579219 
" clip-path="url(#pb5970cceec)" style="fill: #0000ff"/>
    <path d="M 242.99086 52.872177 
L 257.494117 57.435939 
L 257.459881 55.409002 
L 262.805235 59.779251 
L 255.920496 60.301039 
L 257.10927 58.658948 
L 242.606013 54.095186 
L 242.99086 52.872177 
" clip-path="url(#pb5970cceec)" style="fill: #0000ff"/>
    <path d="M 261.894114 315.867839 
L 247.480996 319.510782 
L 248.573787 321.218251 
L 241.730225 320.303075 
L 247.317064 316.246091 
L 247.166815 318.267742 
L 261.579933 314.624799 
L 261.894114 315.867839 
" clip-path="url(#pb5970cceec)" style="fill: #0000ff"/>
    <path d="M 261.91834 297.163877 
L 250.303659 300.588781 
L 251.462499 302.252132 
L 244.588339 301.605744 
L 250.011964 297.333019 
L 249.941025 299.359003 
L 261.555707 295.934098 
L 261.91834 297.163877 
" clip-path="url(#pb5970cceec)" style="fill: #0000ff"/>
    <path d="M 261.950873 278.456001 
L 253.099409 281.588115 
L 254.345301 283.187302 
L 247.446453 282.908412 
L 252.634508 278.35254 
L 252.671711 280.379425 
L 261.523174 277.247311 
L 261.950873 278.456001 
" clip-path="url(#pb5970cceec)" style="fill: #0000ff"/>
    <path d="M 261.996342 259.7406 
L 255.840361 262.463488 
L 257.204592 263.962994 
L 250.304567 264.211081 
L 255.130042 259.272794 
L 255.321723 261.290938 
L 261.477705 258.56805 
L 261.996342 259.7406 
" clip-path="url(#pb5970cceec)" style="fill: #0000ff"/>
    <path d="M 262.062679 241.009183 
L 258.458039 243.135036 
L 259.987195 244.465947 
L 253.162681 245.51375 
L 257.381948 240.048434 
L 257.806727 242.030657 
L 261.411368 239.904805 
L 262.062679 241.009183 
" clip-path="url(#pb5970cceec)" style="fill: #0000ff"/>
    <path d="M 262.161781 222.239814 
L 260.766918 223.473754 
L 262.521342 224.489452 
L 256.020795 226.816419 
L 259.123283 220.648238 
L 259.917404 222.51345 
L 261.312266 221.279511 
L 262.161781 222.239814 
" clip-path="url(#pb5970cceec)" style="fill: #0000ff"/>
    <path d="M 262.242699 203.348143 
L 261.956888 203.853818 
L 263.759726 204.205577 
L 258.878909 208.119087 
L 259.714321 201.919086 
L 260.945537 203.282195 
L 261.231348 202.77652 
L 262.242699 203.348143 
" clip-path="url(#pb5970cceec)" style="fill: #0000ff"/>
    <path d="M 262.242699 184.365 
L 262.242699 184.870676 
L 263.759726 184.365 
L 261.737024 189.421756 
L 259.714321 184.365 
L 261.231348 184.870676 
L 261.231348 184.365 
L 262.242699 184.365 
" clip-path="url(#pb5970cceec)" style="fill: #0000ff"/>
    <path d="M 262.242699 165.381857 
L 262.528511 165.887533 
L 263.759726 164.524423 
L 264.595138 170.724425 
L 259.714321 166.810914 
L 261.517159 166.459156 
L 261.231348 165.95348 
L 262.242699 165.381857 
" clip-path="url(#pb5970cceec)" style="fill: #0000ff"/>
    <path d="M 262.161781 146.490186 
L 263.556644 147.724125 
L 264.350764 145.858913 
L 267.453252 152.027094 
L 260.952705 149.700127 
L 262.707129 148.684429 
L 261.312266 147.450489 
L 262.161781 146.490186 
" clip-path="url(#pb5970cceec)" style="fill: #0000ff"/>
    <path d="M 262.062679 127.720817 
L 265.66732 129.84667 
L 266.092099 127.864447 
L 270.311366 133.329762 
L 263.486852 132.281959 
L 265.016008 130.951048 
L 261.411368 128.825195 
L 262.062679 127.720817 
" clip-path="url(#pb5970cceec)" style="fill: #0000ff"/>
    <path d="M 261.996342 108.9894 
L 268.152324 111.712288 
L 268.344005 109.694144 
L 273.16948 114.632431 
L 266.269455 114.384344 
L 267.633686 112.884838 
L 261.477705 110.16195 
L 261.996342 108.9894 
" clip-path="url(#pb5970cceec)" style="fill: #0000ff"/>
    <path d="M 261.950873 90.273999 
L 270.802337 93.406113 
L 270.839539 91.379228 
L 276.027594 95.9351 
L 269.128746 96.213989 
L 270.374638 94.614803 
L 261.523174 91.482689 
L 261.950873 90.273999 
" clip-path="url(#pb5970cceec)" style="fill: #0000ff"/>
    <path d="M 261.91834 71.566123 
L 273.533022 74.991028 
L 273.462083 72.965044 
L 278.885708 77.237769 
L 272.011549 77.884157 
L 273.170388 76.220807 
L 261.555707 72.795902 
L 261.91834 71.566123 
" clip-path="url(#pb5970cceec)" style="fill: #0000ff"/>
    <path d="M 261.894114 52.862161 
L 276.307232 56.505104 
L 276.156983 54.483454 
L 281.743822 58.540437 
L 274.90026 59.455614 
L 275.993051 57.748144 
L 261.579933 54.105201 
L 261.894114 52.862161 
" clip-path="url(#pb5970cceec)" style="fill: #0000ff"/>
    <path d="M 280.765004 315.88112 
L 266.471422 317.893964 
L 267.374405 319.708976 
L 260.668812 318.063706 
L 266.659255 314.630562 
L 266.292634 316.624361 
L 280.586217 314.611517 
L 280.765004 315.88112 
" clip-path="url(#pb5970cceec)" style="fill: #0000ff"/>
    <path d="M 280.779539 297.181572 
L 269.324117 299.063604 
L 270.268487 300.857429 
L 263.526926 299.366375 
L 269.437059 295.796752 
L 269.11626 297.798434 
L 280.571682 295.916403 
L 280.779539 297.181572 
" clip-path="url(#pb5970cceec)" style="fill: #0000ff"/>
    <path d="M 280.79961 278.480615 
L 272.169666 280.182009 
L 273.170622 281.944885 
L 266.38504 280.669044 
L 272.178628 276.913218 
L 271.921667 278.924092 
L 280.551611 277.222698 
L 280.79961 278.480615 
" clip-path="url(#pb5970cceec)" style="fill: #0000ff"/>
    <path d="M 280.829004 259.776768 
L 274.998533 261.213615 
L 276.081156 262.92755 
L 269.243154 261.971713 
L 274.854009 257.948008 
L 274.691746 259.96873 
L 280.522217 258.531882 
L 280.829004 259.776768 
" clip-path="url(#pb5970cceec)" style="fill: #0000ff"/>
    <path d="M 280.875728 241.066024 
L 277.782656 242.082356 
L 278.992038 243.709329 
L 272.101269 243.274381 
L 277.3911 238.837089 
L 277.382422 240.864296 
L 280.475493 239.847964 
L 280.875728 241.066024 
" clip-path="url(#pb5970cceec)" style="fill: #0000ff"/>
    <path d="M 280.957349 222.331285 
L 280.385727 222.613024 
L 281.802566 224.046154 
L 274.959383 224.57705 
L 279.548656 219.473171 
L 279.822249 221.469778 
L 280.393872 221.18804 
L 280.957349 222.331285 
" clip-path="url(#pb5970cceec)" style="fill: #0000ff"/>
    <path d="M 280.957349 203.348143 
L 280.671538 203.629881 
L 281.802566 204.205577 
L 277.817497 205.879719 
L 279.548656 201.919086 
L 280.10806 203.058259 
L 280.393872 202.77652 
L 280.957349 203.348143 
" clip-path="url(#pb5970cceec)" style="fill: #0000ff"/>
    <path d="M 280.957349 184.365 
L 280.957349 184.646739 
L 281.802566 184.365 
L 280.675611 187.182388 
L 279.548656 184.365 
L 280.393872 184.646739 
L 280.393872 184.365 
L 280.957349 184.365 
" clip-path="url(#pb5970cceec)" style="fill: #0000ff"/>
    <path d="M 280.957349 165.381857 
L 281.243161 165.663596 
L 281.802566 164.524423 
L 283.533725 168.485057 
L 279.548656 166.810914 
L 280.679683 166.235219 
L 280.393872 165.95348 
L 280.957349 165.381857 
" clip-path="url(#pb5970cceec)" style="fill: #0000ff"/>
    <path d="M 280.957349 146.398715 
L 281.528972 146.680453 
L 281.802566 144.683846 
L 286.391839 149.787725 
L 279.548656 149.256829 
L 280.965495 147.823699 
L 280.393872 147.54196 
L 280.957349 146.398715 
" clip-path="url(#pb5970cceec)" style="fill: #0000ff"/>
    <path d="M 280.875728 127.663976 
L 283.9688 128.680309 
L 283.960121 126.653101 
L 289.249953 131.090394 
L 282.359183 131.525342 
L 283.568565 129.898369 
L 280.475493 128.882036 
L 280.875728 127.663976 
" clip-path="url(#pb5970cceec)" style="fill: #0000ff"/>
    <path d="M 280.829004 108.953232 
L 286.659475 110.39008 
L 286.497213 108.369358 
L 292.108067 112.393063 
L 285.270066 113.3489 
L 286.352689 111.634966 
L 280.522217 110.198118 
L 280.829004 108.953232 
" clip-path="url(#pb5970cceec)" style="fill: #0000ff"/>
    <path d="M 280.79961 90.249385 
L 289.429554 91.95078 
L 289.172594 89.939905 
L 294.966181 93.695732 
L 288.1806 94.971573 
L 289.181556 93.208697 
L 280.551611 91.507302 
L 280.79961 90.249385 
" clip-path="url(#pb5970cceec)" style="fill: #0000ff"/>
    <path d="M 280.779539 71.548428 
L 292.234961 73.430459 
L 291.914162 71.428777 
L 297.824295 74.9984 
L 291.082734 76.489454 
L 292.027104 74.695629 
L 280.571682 72.813597 
L 280.779539 71.548428 
" clip-path="url(#pb5970cceec)" style="fill: #0000ff"/>
    <path d="M 280.765004 52.84888 
L 295.058587 54.861724 
L 294.691966 52.867925 
L 300.682409 56.301069 
L 293.976816 57.946339 
L 294.879799 56.131327 
L 280.586217 54.118483 
L 280.765004 52.84888 
" clip-path="url(#pb5970cceec)" style="fill: #0000ff"/>
    <path d="M 299.614857 315.887383 
L 285.377641 315.902012 
L 286.020682 317.824548 
L 279.607399 315.266876 
L 286.015413 312.69603 
L 285.376324 314.619883 
L 299.613539 314.605254 
L 299.614857 315.887383 
" clip-path="url(#pb5970cceec)" style="fill: #0000ff"/>
    <path d="M 299.614966 297.190052 
L 288.235864 297.203693 
L 288.879234 299.126119 
L 282.465513 296.569545 
L 288.873086 293.997601 
L 288.234327 295.921564 
L 299.613429 295.907923 
L 299.614966 297.190052 
" clip-path="url(#pb5970cceec)" style="fill: #0000ff"/>
    <path d="M 299.61512 278.492721 
L 291.09413 278.504978 
L 291.737961 280.42725 
L 285.323628 277.872214 
L 291.730584 275.298734 
L 291.092286 277.222849 
L 299.613276 277.210592 
L 299.61512 278.492721 
" clip-path="url(#pb5970cceec)" style="fill: #0000ff"/>
    <path d="M 299.615351 259.795389 
L 293.952471 259.805572 
L 294.596994 261.727611 
L 288.181742 259.174882 
L 294.587772 256.599099 
L 293.950166 258.523444 
L 299.613045 258.513261 
L 299.615351 259.795389 
" clip-path="url(#pb5970cceec)" style="fill: #0000ff"/>
    <path d="M 299.615735 241.098057 
L 296.810962 241.104782 
L 297.456637 243.026434 
L 291.039856 240.477551 
L 297.444341 237.897928 
L 296.807888 239.822655 
L 299.612661 239.81593 
L 299.615735 241.098057 
" clip-path="url(#pb5970cceec)" style="fill: #0000ff"/>
    <path d="M 299.616254 222.331285 
L 299.044631 222.333341 
L 299.622421 224.046154 
L 293.89797 221.78022 
L 299.605975 219.473171 
L 299.040519 221.190095 
L 299.612142 221.18804 
L 299.616254 222.331285 
" clip-path="url(#pb5970cceec)" style="fill: #0000ff"/>
    <path d="M 299.616254 203.348143 
L 299.330442 203.350198 
L 299.622421 204.205577 
L 296.756084 203.082889 
L 299.605975 201.919086 
L 299.326331 202.778576 
L 299.612142 202.77652 
L 299.616254 203.348143 
" clip-path="url(#pb5970cceec)" style="fill: #0000ff"/>
    <path d="M 299.614198 185.006065 
L 300.169377 184.685533 
L 300.169377 184.044467 
L 299.614198 183.723935 
L 299.059019 184.044467 
L 299.059019 184.685533 
L 299.614198 185.006065 
L 300.169377 184.685533 
" clip-path="url(#pb5970cceec)" style="fill: #0000ff"/>
    <path d="M 299.616254 165.381857 
L 299.902065 165.383913 
L 299.622421 164.524423 
L 302.472312 165.688226 
L 299.605975 166.810914 
L 299.897953 165.955536 
L 299.612142 165.95348 
L 299.616254 165.381857 
" clip-path="url(#pb5970cceec)" style="fill: #0000ff"/>
    <path d="M 299.616254 146.398715 
L 300.187876 146.40077 
L 299.622421 144.683846 
L 305.330426 146.990895 
L 299.605975 149.256829 
L 300.183765 147.544016 
L 299.612142 147.54196 
L 299.616254 146.398715 
" clip-path="url(#pb5970cceec)" style="fill: #0000ff"/>
    <path d="M 299.615735 127.631943 
L 302.420507 127.638668 
L 301.784055 125.713941 
L 308.18854 128.293564 
L 301.771759 130.842447 
L 302.417433 128.920794 
L 299.612661 128.91407 
L 299.615735 127.631943 
" clip-path="url(#pb5970cceec)" style="fill: #0000ff"/>
    <path d="M 299.615351 108.934611 
L 305.27823 108.944794 
L 304.640624 107.020449 
L 311.046654 109.596232 
L 304.631402 112.148961 
L 305.275924 110.226922 
L 299.613045 110.216739 
L 299.615351 108.934611 
" clip-path="url(#pb5970cceec)" style="fill: #0000ff"/>
    <path d="M 299.61512 90.237279 
L 308.13611 90.249537 
L 307.497812 88.325421 
L 313.904768 90.898901 
L 307.490435 93.453937 
L 308.134266 91.531666 
L 299.613276 91.519408 
L 299.61512 90.237279 
" clip-path="url(#pb5970cceec)" style="fill: #0000ff"/>
    <path d="M 299.614966 71.539948 
L 310.994068 71.553589 
L 310.355309 69.629626 
L 316.762882 72.20157 
L 310.349161 74.758144 
L 310.992531 72.835718 
L 299.613429 72.822077 
L 299.614966 71.539948 
" clip-path="url(#pb5970cceec)" style="fill: #0000ff"/>
    <path d="M 299.614857 52.842617 
L 313.852072 52.857245 
L 313.212983 50.933392 
L 319.620996 53.504239 
L 313.207713 56.061911 
L 313.850754 54.139375 
L 299.613539 54.124746 
L 299.614857 52.842617 
" clip-path="url(#pb5970cceec)" style="fill: #0000ff"/>
   </g>
   <g id="matplotlib.axis_1">
    <g id="xtick_1">
     <g id="line2d_1">
      <defs>
       <path id="m1b8551ed17" d="M 0 0 
L 0 3.5 
" style="stroke: #000000; stroke-width: 0.8"/>
      </defs>
      <g>
       <use xlink:href="#m1b8551ed17" x="34.473978" y="184.365" style="stroke: #000000; stroke-width: 0.8"/>
      </g>
     </g>
    </g>
    <g id="xtick_2">
     <g id="line2d_2">
      <g>
       <use xlink:href="#m1b8551ed17" x="76.693758" y="184.365" style="stroke: #000000; stroke-width: 0.8"/>
      </g>
     </g>
     <g id="text_1">
      <!-- 1 -->
      <g transform="translate(73.512508 198.963437)scale(0.1 -0.1)">
       <defs>
        <path id="DejaVuSans-31" d="M 794 531 
L 1825 531 
L 1825 4091 
L 703 3866 
L 703 4441 
L 1819 4666 
L 2450 4666 
L 2450 531 
L 3481 531 
L 3481 0 
L 794 0 
L 794 531 
z
" transform="scale(0.015625)"/>
       </defs>
       <use xlink:href="#DejaVuSans-31"/>
      </g>
     </g>
    </g>
    <g id="xtick_3">
     <g id="line2d_3">
      <g>
       <use xlink:href="#m1b8551ed17" x="118.913538" y="184.365" style="stroke: #000000; stroke-width: 0.8"/>
      </g>
     </g>
     <g id="text_2">
      <!-- 2 -->
      <g transform="translate(115.732288 198.963437)scale(0.1 -0.1)">
       <defs>
        <path id="DejaVuSans-32" d="M 1228 531 
L 3431 531 
L 3431 0 
L 469 0 
L 469 531 
Q 828 903 1448 1529 
Q 2069 2156 2228 2338 
Q 2531 2678 2651 2914 
Q 2772 3150 2772 3378 
Q 2772 3750 2511 3984 
Q 2250 4219 1831 4219 
Q 1534 4219 1204 4116 
Q 875 4013 500 3803 
L 500 4441 
Q 881 4594 1212 4672 
Q 1544 4750 1819 4750 
Q 2544 4750 2975 4387 
Q 3406 4025 3406 3419 
Q 3406 3131 3298 2873 
Q 3191 2616 2906 2266 
Q 2828 2175 2409 1742 
Q 1991 1309 1228 531 
z
" transform="scale(0.015625)"/>
       </defs>
       <use xlink:href="#DejaVuSans-32"/>
      </g>
     </g>
    </g>
    <g id="xtick_4">
     <g id="line2d_4">
      <g>
       <use xlink:href="#m1b8551ed17" x="161.133319" y="184.365" style="stroke: #000000; stroke-width: 0.8"/>
      </g>
     </g>
     <g id="text_3">
      <!-- 3 -->
      <g transform="translate(157.952069 198.963437)scale(0.1 -0.1)">
       <defs>
        <path id="DejaVuSans-33" d="M 2597 2516 
Q 3050 2419 3304 2112 
Q 3559 1806 3559 1356 
Q 3559 666 3084 287 
Q 2609 -91 1734 -91 
Q 1441 -91 1130 -33 
Q 819 25 488 141 
L 488 750 
Q 750 597 1062 519 
Q 1375 441 1716 441 
Q 2309 441 2620 675 
Q 2931 909 2931 1356 
Q 2931 1769 2642 2001 
Q 2353 2234 1838 2234 
L 1294 2234 
L 1294 2753 
L 1863 2753 
Q 2328 2753 2575 2939 
Q 2822 3125 2822 3475 
Q 2822 3834 2567 4026 
Q 2313 4219 1838 4219 
Q 1578 4219 1281 4162 
Q 984 4106 628 3988 
L 628 4550 
Q 988 4650 1302 4700 
Q 1616 4750 1894 4750 
Q 2613 4750 3031 4423 
Q 3450 4097 3450 3541 
Q 3450 3153 3228 2886 
Q 3006 2619 2597 2516 
z
" transform="scale(0.015625)"/>
       </defs>
       <use xlink:href="#DejaVuSans-33"/>
      </g>
     </g>
    </g>
    <g id="xtick_5">
     <g id="line2d_5">
      <g>
       <use xlink:href="#m1b8551ed17" x="203.353099" y="184.365" style="stroke: #000000; stroke-width: 0.8"/>
      </g>
     </g>
     <g id="text_4">
      <!-- 4 -->
      <g transform="translate(200.171849 198.963437)scale(0.1 -0.1)">
       <defs>
        <path id="DejaVuSans-34" d="M 2419 4116 
L 825 1625 
L 2419 1625 
L 2419 4116 
z
M 2253 4666 
L 3047 4666 
L 3047 1625 
L 3713 1625 
L 3713 1100 
L 3047 1100 
L 3047 0 
L 2419 0 
L 2419 1100 
L 313 1100 
L 313 1709 
L 2253 4666 
z
" transform="scale(0.015625)"/>
       </defs>
       <use xlink:href="#DejaVuSans-34"/>
      </g>
     </g>
    </g>
    <g id="xtick_6">
     <g id="line2d_6">
      <g>
       <use xlink:href="#m1b8551ed17" x="245.572879" y="184.365" style="stroke: #000000; stroke-width: 0.8"/>
      </g>
     </g>
     <g id="text_5">
      <!-- 5 -->
      <g transform="translate(242.391629 198.963437)scale(0.1 -0.1)">
       <defs>
        <path id="DejaVuSans-35" d="M 691 4666 
L 3169 4666 
L 3169 4134 
L 1269 4134 
L 1269 2991 
Q 1406 3038 1543 3061 
Q 1681 3084 1819 3084 
Q 2600 3084 3056 2656 
Q 3513 2228 3513 1497 
Q 3513 744 3044 326 
Q 2575 -91 1722 -91 
Q 1428 -91 1123 -41 
Q 819 9 494 109 
L 494 744 
Q 775 591 1075 516 
Q 1375 441 1709 441 
Q 2250 441 2565 725 
Q 2881 1009 2881 1497 
Q 2881 1984 2565 2268 
Q 2250 2553 1709 2553 
Q 1456 2553 1204 2497 
Q 953 2441 691 2322 
L 691 4666 
z
" transform="scale(0.015625)"/>
       </defs>
       <use xlink:href="#DejaVuSans-35"/>
      </g>
     </g>
    </g>
    <g id="xtick_7">
     <g id="line2d_7">
      <g>
       <use xlink:href="#m1b8551ed17" x="287.792659" y="184.365" style="stroke: #000000; stroke-width: 0.8"/>
      </g>
     </g>
     <g id="text_6">
      <!-- 6 -->
      <g transform="translate(284.611409 198.963437)scale(0.1 -0.1)">
       <defs>
        <path id="DejaVuSans-36" d="M 2113 2584 
Q 1688 2584 1439 2293 
Q 1191 2003 1191 1497 
Q 1191 994 1439 701 
Q 1688 409 2113 409 
Q 2538 409 2786 701 
Q 3034 994 3034 1497 
Q 3034 2003 2786 2293 
Q 2538 2584 2113 2584 
z
M 3366 4563 
L 3366 3988 
Q 3128 4100 2886 4159 
Q 2644 4219 2406 4219 
Q 1781 4219 1451 3797 
Q 1122 3375 1075 2522 
Q 1259 2794 1537 2939 
Q 1816 3084 2150 3084 
Q 2853 3084 3261 2657 
Q 3669 2231 3669 1497 
Q 3669 778 3244 343 
Q 2819 -91 2113 -91 
Q 1303 -91 875 529 
Q 447 1150 447 2328 
Q 447 3434 972 4092 
Q 1497 4750 2381 4750 
Q 2619 4750 2861 4703 
Q 3103 4656 3366 4563 
z
" transform="scale(0.015625)"/>
       </defs>
       <use xlink:href="#DejaVuSans-36"/>
      </g>
     </g>
    </g>
    <g id="xtick_8">
     <g id="line2d_8">
      <defs>
       <path id="mc3dca68afe" d="M 0 0 
L 0 2 
" style="stroke: #000000; stroke-width: 0.6"/>
      </defs>
      <g>
       <use xlink:href="#mc3dca68afe" x="9.14211" y="184.365" style="stroke: #000000; stroke-width: 0.6"/>
      </g>
     </g>
    </g>
    <g id="xtick_9">
     <g id="line2d_9">
      <g>
       <use xlink:href="#mc3dca68afe" x="17.586066" y="184.365" style="stroke: #000000; stroke-width: 0.6"/>
      </g>
     </g>
    </g>
    <g id="xtick_10">
     <g id="line2d_10">
      <g>
       <use xlink:href="#mc3dca68afe" x="26.030022" y="184.365" style="stroke: #000000; stroke-width: 0.6"/>
      </g>
     </g>
    </g>
    <g id="xtick_11">
     <g id="line2d_11">
      <g>
       <use xlink:href="#mc3dca68afe" x="42.917934" y="184.365" style="stroke: #000000; stroke-width: 0.6"/>
      </g>
     </g>
    </g>
    <g id="xtick_12">
     <g id="line2d_12">
      <g>
       <use xlink:href="#mc3dca68afe" x="51.36189" y="184.365" style="stroke: #000000; stroke-width: 0.6"/>
      </g>
     </g>
    </g>
    <g id="xtick_13">
     <g id="line2d_13">
      <g>
       <use xlink:href="#mc3dca68afe" x="59.805846" y="184.365" style="stroke: #000000; stroke-width: 0.6"/>
      </g>
     </g>
    </g>
    <g id="xtick_14">
     <g id="line2d_14">
      <g>
       <use xlink:href="#mc3dca68afe" x="68.249802" y="184.365" style="stroke: #000000; stroke-width: 0.6"/>
      </g>
     </g>
    </g>
    <g id="xtick_15">
     <g id="line2d_15">
      <g>
       <use xlink:href="#mc3dca68afe" x="85.137714" y="184.365" style="stroke: #000000; stroke-width: 0.6"/>
      </g>
     </g>
    </g>
    <g id="xtick_16">
     <g id="line2d_16">
      <g>
       <use xlink:href="#mc3dca68afe" x="93.58167" y="184.365" style="stroke: #000000; stroke-width: 0.6"/>
      </g>
     </g>
    </g>
    <g id="xtick_17">
     <g id="line2d_17">
      <g>
       <use xlink:href="#mc3dca68afe" x="102.025626" y="184.365" style="stroke: #000000; stroke-width: 0.6"/>
      </g>
     </g>
    </g>
    <g id="xtick_18">
     <g id="line2d_18">
      <g>
       <use xlink:href="#mc3dca68afe" x="110.469582" y="184.365" style="stroke: #000000; stroke-width: 0.6"/>
      </g>
     </g>
    </g>
    <g id="xtick_19">
     <g id="line2d_19">
      <g>
       <use xlink:href="#mc3dca68afe" x="127.357495" y="184.365" style="stroke: #000000; stroke-width: 0.6"/>
      </g>
     </g>
    </g>
    <g id="xtick_20">
     <g id="line2d_20">
      <g>
       <use xlink:href="#mc3dca68afe" x="135.801451" y="184.365" style="stroke: #000000; stroke-width: 0.6"/>
      </g>
     </g>
    </g>
    <g id="xtick_21">
     <g id="line2d_21">
      <g>
       <use xlink:href="#mc3dca68afe" x="144.245407" y="184.365" style="stroke: #000000; stroke-width: 0.6"/>
      </g>
     </g>
    </g>
    <g id="xtick_22">
     <g id="line2d_22">
      <g>
       <use xlink:href="#mc3dca68afe" x="152.689363" y="184.365" style="stroke: #000000; stroke-width: 0.6"/>
      </g>
     </g>
    </g>
    <g id="xtick_23">
     <g id="line2d_23">
      <g>
       <use xlink:href="#mc3dca68afe" x="169.577275" y="184.365" style="stroke: #000000; stroke-width: 0.6"/>
      </g>
     </g>
    </g>
    <g id="xtick_24">
     <g id="line2d_24">
      <g>
       <use xlink:href="#mc3dca68afe" x="178.021231" y="184.365" style="stroke: #000000; stroke-width: 0.6"/>
      </g>
     </g>
    </g>
    <g id="xtick_25">
     <g id="line2d_25">
      <g>
       <use xlink:href="#mc3dca68afe" x="186.465187" y="184.365" style="stroke: #000000; stroke-width: 0.6"/>
      </g>
     </g>
    </g>
    <g id="xtick_26">
     <g id="line2d_26">
      <g>
       <use xlink:href="#mc3dca68afe" x="194.909143" y="184.365" style="stroke: #000000; stroke-width: 0.6"/>
      </g>
     </g>
    </g>
    <g id="xtick_27">
     <g id="line2d_27">
      <g>
       <use xlink:href="#mc3dca68afe" x="211.797055" y="184.365" style="stroke: #000000; stroke-width: 0.6"/>
      </g>
     </g>
    </g>
    <g id="xtick_28">
     <g id="line2d_28">
      <g>
       <use xlink:href="#mc3dca68afe" x="220.241011" y="184.365" style="stroke: #000000; stroke-width: 0.6"/>
      </g>
     </g>
    </g>
    <g id="xtick_29">
     <g id="line2d_29">
      <g>
       <use xlink:href="#mc3dca68afe" x="228.684967" y="184.365" style="stroke: #000000; stroke-width: 0.6"/>
      </g>
     </g>
    </g>
    <g id="xtick_30">
     <g id="line2d_30">
      <g>
       <use xlink:href="#mc3dca68afe" x="237.128923" y="184.365" style="stroke: #000000; stroke-width: 0.6"/>
      </g>
     </g>
    </g>
    <g id="xtick_31">
     <g id="line2d_31">
      <g>
       <use xlink:href="#mc3dca68afe" x="254.016835" y="184.365" style="stroke: #000000; stroke-width: 0.6"/>
      </g>
     </g>
    </g>
    <g id="xtick_32">
     <g id="line2d_32">
      <g>
       <use xlink:href="#mc3dca68afe" x="262.460791" y="184.365" style="stroke: #000000; stroke-width: 0.6"/>
      </g>
     </g>
    </g>
    <g id="xtick_33">
     <g id="line2d_33">
      <g>
       <use xlink:href="#mc3dca68afe" x="270.904747" y="184.365" style="stroke: #000000; stroke-width: 0.6"/>
      </g>
     </g>
    </g>
    <g id="xtick_34">
     <g id="line2d_34">
      <g>
       <use xlink:href="#mc3dca68afe" x="279.348703" y="184.365" style="stroke: #000000; stroke-width: 0.6"/>
      </g>
     </g>
    </g>
    <g id="xtick_35">
     <g id="line2d_35">
      <g>
       <use xlink:href="#mc3dca68afe" x="296.236615" y="184.365" style="stroke: #000000; stroke-width: 0.6"/>
      </g>
     </g>
    </g>
    <g id="xtick_36">
     <g id="line2d_36">
      <g>
       <use xlink:href="#mc3dca68afe" x="304.680571" y="184.365" style="stroke: #000000; stroke-width: 0.6"/>
      </g>
     </g>
    </g>
    <g id="xtick_37">
     <g id="line2d_37">
      <g>
       <use xlink:href="#mc3dca68afe" x="313.124527" y="184.365" style="stroke: #000000; stroke-width: 0.6"/>
      </g>
     </g>
    </g>
    <g id="xtick_38">
     <g id="line2d_38">
      <g>
       <use xlink:href="#mc3dca68afe" x="321.568484" y="184.365" style="stroke: #000000; stroke-width: 0.6"/>
      </g>
     </g>
    </g>
    <g id="text_7">
     <!-- $x$ -->
     <g transform="translate(335.732571 184.365)scale(0.16 -0.16)">
      <defs>
       <path id="Cmmi10-78" d="M 500 184 
Q 613 97 819 97 
Q 1019 97 1172 289 
Q 1325 481 1381 709 
L 1672 1844 
Q 1741 2153 1741 2266 
Q 1741 2425 1652 2544 
Q 1563 2663 1403 2663 
Q 1200 2663 1022 2536 
Q 844 2409 722 2214 
Q 600 2019 550 1819 
Q 538 1778 500 1778 
L 422 1778 
Q 372 1778 372 1838 
L 372 1856 
Q 434 2094 584 2320 
Q 734 2547 951 2687 
Q 1169 2828 1416 2828 
Q 1650 2828 1839 2703 
Q 2028 2578 2106 2363 
Q 2216 2559 2386 2693 
Q 2556 2828 2759 2828 
Q 2897 2828 3040 2779 
Q 3184 2731 3275 2631 
Q 3366 2531 3366 2381 
Q 3366 2219 3261 2101 
Q 3156 1984 2994 1984 
Q 2891 1984 2822 2050 
Q 2753 2116 2753 2216 
Q 2753 2350 2845 2451 
Q 2938 2553 3066 2572 
Q 2950 2663 2747 2663 
Q 2541 2663 2389 2472 
Q 2238 2281 2175 2047 
L 1894 916 
Q 1825 659 1825 494 
Q 1825 331 1917 214 
Q 2009 97 2163 97 
Q 2463 97 2698 361 
Q 2934 625 3009 941 
Q 3022 978 3059 978 
L 3138 978 
Q 3163 978 3178 961 
Q 3194 944 3194 922 
Q 3194 916 3188 903 
Q 3097 522 2806 225 
Q 2516 -72 2150 -72 
Q 1916 -72 1727 54 
Q 1538 181 1459 397 
Q 1359 209 1182 68 
Q 1006 -72 806 -72 
Q 669 -72 523 -23 
Q 378 25 287 125 
Q 197 225 197 378 
Q 197 528 301 651 
Q 406 775 563 775 
Q 669 775 741 711 
Q 813 647 813 544 
Q 813 409 723 309 
Q 634 209 500 184 
z
" transform="scale(0.015625)"/>
      </defs>
      <use xlink:href="#Cmmi10-78" transform="translate(0 0.8125)"/>
     </g>
    </g>
   </g>
   <g id="matplotlib.axis_2">
    <g id="ytick_1">
     <g id="line2d_39">
      <defs>
       <path id="m8935c552d6" d="M 0 0 
L -3.5 0 
" style="stroke: #000000; stroke-width: 0.8"/>
      </defs>
      <g>
       <use xlink:href="#m8935c552d6" x="34.473978" y="311.024341" style="stroke: #000000; stroke-width: 0.8"/>
      </g>
     </g>
     <g id="text_8">
      <!-- 3 -->
      <g transform="translate(12.731791 314.823559)scale(0.1 -0.1)">
       <defs>
        <path id="DejaVuSans-2212" d="M 678 2272 
L 4684 2272 
L 4684 1741 
L 678 1741 
L 678 2272 
z
" transform="scale(0.015625)"/>
       </defs>
       <use xlink:href="#DejaVuSans-2212"/>
       <use xlink:href="#DejaVuSans-33" x="83.789062"/>
      </g>
     </g>
    </g>
    <g id="ytick_2">
     <g id="line2d_40">
      <g>
       <use xlink:href="#m8935c552d6" x="34.473978" y="268.80456" style="stroke: #000000; stroke-width: 0.8"/>
      </g>
     </g>
     <g id="text_9">
      <!-- 2 -->
      <g transform="translate(12.731791 272.603779)scale(0.1 -0.1)">
       <use xlink:href="#DejaVuSans-2212"/>
       <use xlink:href="#DejaVuSans-32" x="83.789062"/>
      </g>
     </g>
    </g>
    <g id="ytick_3">
     <g id="line2d_41">
      <g>
       <use xlink:href="#m8935c552d6" x="34.473978" y="226.58478" style="stroke: #000000; stroke-width: 0.8"/>
      </g>
     </g>
     <g id="text_10">
      <!-- 1 -->
      <g transform="translate(12.731791 230.383999)scale(0.1 -0.1)">
       <use xlink:href="#DejaVuSans-2212"/>
       <use xlink:href="#DejaVuSans-31" x="83.789062"/>
      </g>
     </g>
    </g>
    <g id="ytick_4">
     <g id="line2d_42">
      <g>
       <use xlink:href="#m8935c552d6" x="34.473978" y="184.365" style="stroke: #000000; stroke-width: 0.8"/>
      </g>
     </g>
    </g>
    <g id="ytick_5">
     <g id="line2d_43">
      <g>
       <use xlink:href="#m8935c552d6" x="34.473978" y="142.14522" style="stroke: #000000; stroke-width: 0.8"/>
      </g>
     </g>
     <g id="text_11">
      <!-- 1 -->
      <g transform="translate(21.111478 145.944439)scale(0.1 -0.1)">
       <use xlink:href="#DejaVuSans-31"/>
      </g>
     </g>
    </g>
    <g id="ytick_6">
     <g id="line2d_44">
      <g>
       <use xlink:href="#m8935c552d6" x="34.473978" y="99.92544" style="stroke: #000000; stroke-width: 0.8"/>
      </g>
     </g>
     <g id="text_12">
      <!-- 2 -->
      <g transform="translate(21.111478 103.724658)scale(0.1 -0.1)">
       <use xlink:href="#DejaVuSans-32"/>
      </g>
     </g>
    </g>
    <g id="ytick_7">
     <g id="line2d_45">
      <g>
       <use xlink:href="#m8935c552d6" x="34.473978" y="57.705659" style="stroke: #000000; stroke-width: 0.8"/>
      </g>
     </g>
     <g id="text_13">
      <!-- 3 -->
      <g transform="translate(21.111478 61.504878)scale(0.1 -0.1)">
       <use xlink:href="#DejaVuSans-33"/>
      </g>
     </g>
    </g>
    <g id="ytick_8">
     <g id="line2d_46">
      <defs>
       <path id="mb8faa0fba7" d="M 0 0 
L -2 0 
" style="stroke: #000000; stroke-width: 0.6"/>
      </defs>
      <g>
       <use xlink:href="#mb8faa0fba7" x="34.473978" y="336.356209" style="stroke: #000000; stroke-width: 0.6"/>
      </g>
     </g>
    </g>
    <g id="ytick_9">
     <g id="line2d_47">
      <g>
       <use xlink:href="#mb8faa0fba7" x="34.473978" y="327.912253" style="stroke: #000000; stroke-width: 0.6"/>
      </g>
     </g>
    </g>
    <g id="ytick_10">
     <g id="line2d_48">
      <g>
       <use xlink:href="#mb8faa0fba7" x="34.473978" y="319.468297" style="stroke: #000000; stroke-width: 0.6"/>
      </g>
     </g>
    </g>
    <g id="ytick_11">
     <g id="line2d_49">
      <g>
       <use xlink:href="#mb8faa0fba7" x="34.473978" y="302.580385" style="stroke: #000000; stroke-width: 0.6"/>
      </g>
     </g>
    </g>
    <g id="ytick_12">
     <g id="line2d_50">
      <g>
       <use xlink:href="#mb8faa0fba7" x="34.473978" y="294.136429" style="stroke: #000000; stroke-width: 0.6"/>
      </g>
     </g>
    </g>
    <g id="ytick_13">
     <g id="line2d_51">
      <g>
       <use xlink:href="#mb8faa0fba7" x="34.473978" y="285.692473" style="stroke: #000000; stroke-width: 0.6"/>
      </g>
     </g>
    </g>
    <g id="ytick_14">
     <g id="line2d_52">
      <g>
       <use xlink:href="#mb8faa0fba7" x="34.473978" y="277.248516" style="stroke: #000000; stroke-width: 0.6"/>
      </g>
     </g>
    </g>
    <g id="ytick_15">
     <g id="line2d_53">
      <g>
       <use xlink:href="#mb8faa0fba7" x="34.473978" y="260.360604" style="stroke: #000000; stroke-width: 0.6"/>
      </g>
     </g>
    </g>
    <g id="ytick_16">
     <g id="line2d_54">
      <g>
       <use xlink:href="#mb8faa0fba7" x="34.473978" y="251.916648" style="stroke: #000000; stroke-width: 0.6"/>
      </g>
     </g>
    </g>
    <g id="ytick_17">
     <g id="line2d_55">
      <g>
       <use xlink:href="#mb8faa0fba7" x="34.473978" y="243.472692" style="stroke: #000000; stroke-width: 0.6"/>
      </g>
     </g>
    </g>
    <g id="ytick_18">
     <g id="line2d_56">
      <g>
       <use xlink:href="#mb8faa0fba7" x="34.473978" y="235.028736" style="stroke: #000000; stroke-width: 0.6"/>
      </g>
     </g>
    </g>
    <g id="ytick_19">
     <g id="line2d_57">
      <g>
       <use xlink:href="#mb8faa0fba7" x="34.473978" y="218.140824" style="stroke: #000000; stroke-width: 0.6"/>
      </g>
     </g>
    </g>
    <g id="ytick_20">
     <g id="line2d_58">
      <g>
       <use xlink:href="#mb8faa0fba7" x="34.473978" y="209.696868" style="stroke: #000000; stroke-width: 0.6"/>
      </g>
     </g>
    </g>
    <g id="ytick_21">
     <g id="line2d_59">
      <g>
       <use xlink:href="#mb8faa0fba7" x="34.473978" y="201.252912" style="stroke: #000000; stroke-width: 0.6"/>
      </g>
     </g>
    </g>
    <g id="ytick_22">
     <g id="line2d_60">
      <g>
       <use xlink:href="#mb8faa0fba7" x="34.473978" y="192.808956" style="stroke: #000000; stroke-width: 0.6"/>
      </g>
     </g>
    </g>
    <g id="ytick_23">
     <g id="line2d_61">
      <g>
       <use xlink:href="#mb8faa0fba7" x="34.473978" y="175.921044" style="stroke: #000000; stroke-width: 0.6"/>
      </g>
     </g>
    </g>
    <g id="ytick_24">
     <g id="line2d_62">
      <g>
       <use xlink:href="#mb8faa0fba7" x="34.473978" y="167.477088" style="stroke: #000000; stroke-width: 0.6"/>
      </g>
     </g>
    </g>
    <g id="ytick_25">
     <g id="line2d_63">
      <g>
       <use xlink:href="#mb8faa0fba7" x="34.473978" y="159.033132" style="stroke: #000000; stroke-width: 0.6"/>
      </g>
     </g>
    </g>
    <g id="ytick_26">
     <g id="line2d_64">
      <g>
       <use xlink:href="#mb8faa0fba7" x="34.473978" y="150.589176" style="stroke: #000000; stroke-width: 0.6"/>
      </g>
     </g>
    </g>
    <g id="ytick_27">
     <g id="line2d_65">
      <g>
       <use xlink:href="#mb8faa0fba7" x="34.473978" y="133.701264" style="stroke: #000000; stroke-width: 0.6"/>
      </g>
     </g>
    </g>
    <g id="ytick_28">
     <g id="line2d_66">
      <g>
       <use xlink:href="#mb8faa0fba7" x="34.473978" y="125.257308" style="stroke: #000000; stroke-width: 0.6"/>
      </g>
     </g>
    </g>
    <g id="ytick_29">
     <g id="line2d_67">
      <g>
       <use xlink:href="#mb8faa0fba7" x="34.473978" y="116.813352" style="stroke: #000000; stroke-width: 0.6"/>
      </g>
     </g>
    </g>
    <g id="ytick_30">
     <g id="line2d_68">
      <g>
       <use xlink:href="#mb8faa0fba7" x="34.473978" y="108.369396" style="stroke: #000000; stroke-width: 0.6"/>
      </g>
     </g>
    </g>
    <g id="ytick_31">
     <g id="line2d_69">
      <g>
       <use xlink:href="#mb8faa0fba7" x="34.473978" y="91.481484" style="stroke: #000000; stroke-width: 0.6"/>
      </g>
     </g>
    </g>
    <g id="ytick_32">
     <g id="line2d_70">
      <g>
       <use xlink:href="#mb8faa0fba7" x="34.473978" y="83.037527" style="stroke: #000000; stroke-width: 0.6"/>
      </g>
     </g>
    </g>
    <g id="ytick_33">
     <g id="line2d_71">
      <g>
       <use xlink:href="#mb8faa0fba7" x="34.473978" y="74.593571" style="stroke: #000000; stroke-width: 0.6"/>
      </g>
     </g>
    </g>
    <g id="ytick_34">
     <g id="line2d_72">
      <g>
       <use xlink:href="#mb8faa0fba7" x="34.473978" y="66.149615" style="stroke: #000000; stroke-width: 0.6"/>
      </g>
     </g>
    </g>
    <g id="ytick_35">
     <g id="line2d_73">
      <g>
       <use xlink:href="#mb8faa0fba7" x="34.473978" y="49.261703" style="stroke: #000000; stroke-width: 0.6"/>
      </g>
     </g>
    </g>
    <g id="ytick_36">
     <g id="line2d_74">
      <g>
       <use xlink:href="#mb8faa0fba7" x="34.473978" y="40.817747" style="stroke: #000000; stroke-width: 0.6"/>
      </g>
     </g>
    </g>
    <g id="ytick_37">
     <g id="line2d_75">
      <g>
       <use xlink:href="#mb8faa0fba7" x="34.473978" y="32.373791" style="stroke: #000000; stroke-width: 0.6"/>
      </g>
     </g>
    </g>
    <g id="text_14">
     <!-- $y$ -->
     <g transform="translate(30.473978 19.325)scale(0.16 -0.16)">
      <defs>
       <path id="Cmmi10-79" d="M 538 -916 
Q 672 -1147 1006 -1147 
Q 1309 -1147 1531 -934 
Q 1753 -722 1889 -420 
Q 2025 -119 2100 197 
Q 1816 -72 1484 -72 
Q 1231 -72 1053 15 
Q 875 103 776 276 
Q 678 450 678 697 
Q 678 906 734 1126 
Q 791 1347 892 1617 
Q 994 1888 1069 2088 
Q 1153 2322 1153 2472 
Q 1153 2663 1013 2663 
Q 759 2663 595 2402 
Q 431 2141 353 1819 
Q 341 1778 300 1778 
L 225 1778 
Q 172 1778 172 1838 
L 172 1856 
Q 275 2238 487 2533 
Q 700 2828 1025 2828 
Q 1253 2828 1411 2678 
Q 1569 2528 1569 2297 
Q 1569 2178 1516 2047 
Q 1488 1969 1388 1706 
Q 1288 1444 1234 1272 
Q 1181 1100 1147 934 
Q 1113 769 1113 603 
Q 1113 391 1203 244 
Q 1294 97 1491 97 
Q 1888 97 2203 581 
L 2688 2553 
Q 2709 2638 2787 2698 
Q 2866 2759 2956 2759 
Q 3034 2759 3092 2709 
Q 3150 2659 3150 2578 
Q 3150 2541 3144 2528 
L 2509 -19 
Q 2425 -347 2200 -647 
Q 1975 -947 1658 -1130 
Q 1341 -1313 997 -1313 
Q 831 -1313 668 -1248 
Q 506 -1184 406 -1056 
Q 306 -928 306 -756 
Q 306 -581 409 -453 
Q 513 -325 684 -325 
Q 788 -325 858 -389 
Q 928 -453 928 -556 
Q 928 -703 818 -812 
Q 709 -922 563 -922 
Q 556 -919 550 -917 
Q 544 -916 538 -916 
z
" transform="scale(0.015625)"/>
      </defs>
      <use xlink:href="#Cmmi10-79" transform="translate(0 0.8125)"/>
     </g>
    </g>
   </g>
   <g id="patch_3">
    <path d="M 34.473978 338.045 
L 34.473978 30.685 
" style="fill: none; stroke: #000000; stroke-width: 0.8; stroke-linejoin: miter; stroke-linecap: square"/>
   </g>
   <g id="patch_4">
    <path d="M 7.2 184.365 
L 327.732571 184.365 
" style="fill: none; stroke: #000000; stroke-width: 0.8; stroke-linejoin: miter; stroke-linecap: square"/>
   </g>
  </g>
 </g>
 <defs>
  <clipPath id="pb5970cceec">
   <rect x="7.2" y="30.685" width="320.532571" height="307.36"/>
  </clipPath>
 </defs>
</svg>
