<?xml version="1.0" encoding="utf-8" standalone="no"?>
<!DOCTYPE svg PUBLIC "-//W3C//DTD SVG 1.1//EN"
  "http://www.w3.org/Graphics/SVG/1.1/DTD/svg11.dtd">
<svg xmlns:xlink="http://www.w3.org/1999/xlink" width="452.367692pt" height="250.24415pt" viewBox="0 0 452.367692 250.24415" xmlns="http://www.w3.org/2000/svg" version="1.1">
 <metadata>
  <rdf:RDF xmlns:dc="http://purl.org/dc/elements/1.1/" xmlns:cc="http://creativecommons.org/ns#" xmlns:rdf="http://www.w3.org/1999/02/22-rdf-syntax-ns#">
   <cc:Work>
    <dc:type rdf:resource="http://purl.org/dc/dcmitype/StillImage"/>
    <dc:date>2025-04-09T11:37:34.537315</dc:date>
    <dc:format>image/svg+xml</dc:format>
    <dc:creator>
     <cc:Agent>
      <dc:title>Matplotlib v3.8.0, https://matplotlib.org/</dc:title>
     </cc:Agent>
    </dc:creator>
   </cc:Work>
  </rdf:RDF>
 </metadata>
 <defs>
  <style type="text/css">*{stroke-linejoin: round; stroke-linecap: butt}</style>
 </defs>
 <g id="figure_1">
  <g id="patch_1">
   <path d="M 0 250.24415 
L 452.367692 250.24415 
L 452.367692 -0 
L 0 -0 
z
" style="fill: #ffffff"/>
  </g>
  <g id="axes_1">
   <g id="patch_2">
    <path d="M 7.2 237.800653 
L 445.167692 237.800653 
L 445.167692 7.2 
L 7.2 7.2 
z
" style="fill: #ffffff"/>
   </g>
   <g id="PathCollection_1">
    <path d="M 77.714258 218.833919 
C 78.651893 218.833919 79.55125 218.461393 80.214258 217.798385 
C 80.877266 217.135378 81.249792 216.23602 81.249792 215.298385 
C 81.249792 214.360751 80.877266 213.461393 80.214258 212.798385 
C 79.55125 212.135378 78.651893 211.762851 77.714258 211.762851 
C 76.776623 211.762851 75.877266 212.135378 75.214258 212.798385 
C 74.55125 213.461393 74.178724 214.360751 74.178724 215.298385 
C 74.178724 216.23602 74.55125 217.135378 75.214258 217.798385 
C 75.877266 218.461393 76.776623 218.833919 77.714258 218.833919 
z
" clip-path="url(#p3281bdf68d)"/>
   </g>
   <g id="PathCollection_2">
    <path d="M 418.677597 75.909991 
C 419.615231 75.909991 420.514589 75.537465 421.177597 74.874457 
C 421.840605 74.211449 422.213131 73.312092 422.213131 72.374457 
C 422.213131 71.436823 421.840605 70.537465 421.177597 69.874457 
C 420.514589 69.211449 419.615231 68.838923 418.677597 68.838923 
C 417.739962 68.838923 416.840605 69.211449 416.177597 69.874457 
C 415.514589 70.537465 415.142063 71.436823 415.142063 72.374457 
C 415.142063 73.312092 415.514589 74.211449 416.177597 74.874457 
C 416.840605 75.537465 417.739962 75.909991 418.677597 75.909991 
z
" clip-path="url(#p3281bdf68d)"/>
   </g>
   <g id="matplotlib.axis_1"/>
   <g id="matplotlib.axis_2"/>
   <g id="line2d_1">
    <path d="M 418.677597 72.374457 
L 415.003101 67.626023 
L 412.827055 65.038067 
L 409.118102 60.949634 
L 404.223979 56.080241 
L 398.965252 51.398807 
L 393.348371 46.921118 
L 389.627238 44.210039 
L 383.83122 40.340362 
L 378.97586 37.393259 
L 372.38885 33.773615 
L 367.124586 31.161699 
L 361.994062 28.833152 
L 355.790663 26.279348 
L 350.742465 24.396097 
L 345.786518 22.705343 
L 339.799734 20.858256 
L 332.745863 18.937821 
L 327.053336 17.576798 
L 317.999041 15.735641 
L 308.536558 14.207039 
L 299.452505 13.093123 
L 290.172088 12.290116 
L 280.281186 11.785723 
L 273.081183 11.635765 
L 265.260616 11.671945 
L 256.352586 11.95713 
L 247.554857 12.485747 
L 239.118395 13.216775 
L 228.767456 14.406226 
L 220.62112 15.564784 
L 213.724652 16.696716 
L 204.064908 18.513234 
L 193.586648 20.78731 
L 182.542548 23.526942 
L 172.265752 26.395358 
L 161.47319 29.745197 
L 155.537279 31.738381 
L 146.755282 34.889148 
L 140.444226 37.306573 
L 131.021277 41.164262 
L 123.04503 44.673235 
L 113.689442 49.092051 
L 105.251567 53.379025 
L 97.864282 57.387374 
L 90.129208 61.864081 
L 84.228882 65.490199 
L 76.569625 70.501823 
L 71.125736 74.298115 
L 64.458593 79.251148 
L 58.727837 83.816778 
L 54.476274 87.418378 
L 48.622828 92.731343 
L 43.368197 97.925869 
L 39.423661 102.155872 
L 35.558026 106.648834 
L 32.32587 110.740699 
L 28.316639 116.386697 
L 25.810507 120.358539 
L 23.584609 124.296112 
L 21.999242 127.429915 
L 19.878642 132.274287 
L 18.378478 136.452768 
L 17.147055 140.813486 
L 16.240421 145.348827 
L 15.858404 148.340246 
L 15.639154 151.772565 
L 15.709341 156.097845 
L 15.977165 158.959485 
L 16.327783 161.272498 
L 16.994125 164.37677 
L 18.067667 167.997228 
L 19.216064 171.007303 
L 20.622361 174.042017 
L 22.714296 177.772527 
L 24.697217 180.759201 
L 26.338704 182.951706 
L 29.489557 186.650174 
L 32.087725 189.323612 
L 35.534509 192.481928 
L 38.401701 194.844163 
L 41.462297 197.152162 
L 45.096183 199.65576 
L 48.981968 202.096516 
L 54.375652 205.151551 
L 60.401318 208.190365 
L 66.784948 211.058343 
L 71.115471 212.830139 
L 77.714258 215.298385 
L 77.714258 215.298385 
" clip-path="url(#p3281bdf68d)" style="fill: none; stroke: #000000; stroke-width: 2; stroke-linecap: square"/>
   </g>
   <g id="text_1">
    <!-- $P$ -->
    <g transform="translate(80.248078 238.884775) scale(0.2 -0.2)">
     <defs>
      <path id="Cmmi10-50" d="M 313 0 
Q 250 0 250 84 
Q 253 100 262 139 
Q 272 178 289 201 
Q 306 225 331 225 
Q 722 225 878 269 
Q 959 297 997 441 
L 1875 3956 
Q 1888 4019 1888 4044 
Q 1888 4113 1813 4122 
Q 1691 4147 1350 4147 
Q 1288 4147 1288 4231 
Q 1291 4247 1300 4286 
Q 1309 4325 1326 4348 
Q 1344 4372 1369 4372 
L 3578 4372 
Q 3881 4372 4165 4264 
Q 4450 4156 4631 3934 
Q 4813 3713 4813 3397 
Q 4813 2991 4527 2672 
Q 4241 2353 3814 2175 
Q 3388 1997 2988 1997 
L 1947 1997 
L 1556 416 
Q 1544 353 1544 325 
Q 1544 300 1551 283 
Q 1559 266 1573 261 
Q 1588 256 1619 250 
Q 1741 225 2081 225 
Q 2144 225 2144 141 
Q 2122 50 2109 25 
Q 2097 0 2034 0 
L 313 0 
z
M 1978 2188 
L 2875 2188 
Q 3497 2188 3822 2522 
Q 3988 2688 4092 3000 
Q 4197 3313 4197 3566 
Q 4197 3881 3956 4014 
Q 3716 4147 3359 4147 
L 2747 4147 
Q 2572 4147 2515 4117 
Q 2459 4088 2413 3928 
L 1978 2188 
z
" transform="scale(0.015625)"/>
     </defs>
     <use xlink:href="#Cmmi10-50" transform="translate(0 0.6875)"/>
    </g>
   </g>
   <g id="text_2">
    <!-- $Q$ -->
    <g transform="translate(428.745237 95.960847) scale(0.2 -0.2)">
     <defs>
      <path id="Cmmi10-51" d="M 1947 -141 
Q 1466 -141 1094 79 
Q 722 300 520 692 
Q 319 1084 319 1563 
Q 319 2259 714 2950 
Q 1109 3641 1756 4077 
Q 2403 4513 3109 4513 
Q 3475 4513 3778 4381 
Q 4081 4250 4290 4017 
Q 4500 3784 4614 3471 
Q 4728 3159 4728 2791 
Q 4728 2366 4581 1936 
Q 4434 1506 4171 1136 
Q 3909 766 3559 484 
Q 3209 203 2809 38 
Q 2850 -256 2934 -425 
Q 3019 -594 3256 -594 
Q 3506 -594 3726 -412 
Q 3947 -231 4006 13 
Q 4019 72 4078 72 
Q 4147 72 4147 -13 
Q 4100 -219 4008 -430 
Q 3916 -641 3786 -823 
Q 3656 -1006 3478 -1123 
Q 3300 -1241 3084 -1241 
Q 2547 -1241 2547 -550 
Q 2547 -509 2562 -332 
Q 2578 -156 2578 -44 
Q 2269 -141 1947 -141 
z
M 1709 300 
Q 1709 44 1991 44 
Q 2275 44 2591 184 
L 2591 244 
Q 2591 503 2509 648 
Q 2428 794 2194 794 
Q 2078 794 1964 723 
Q 1850 653 1779 539 
Q 1709 425 1709 300 
z
M 1544 288 
Q 1544 456 1637 612 
Q 1731 769 1881 864 
Q 2031 959 2203 959 
Q 2481 959 2607 771 
Q 2734 584 2778 281 
Q 3188 525 3500 978 
Q 3813 1431 3977 1973 
Q 4141 2516 4141 3003 
Q 4141 3356 4023 3656 
Q 3906 3956 3664 4140 
Q 3422 4325 3066 4325 
Q 2722 4325 2403 4156 
Q 2084 3988 1813 3706 
Q 1550 3434 1342 3032 
Q 1134 2631 1021 2193 
Q 909 1756 909 1356 
Q 909 947 1068 612 
Q 1228 278 1569 128 
Q 1544 194 1544 288 
z
" transform="scale(0.015625)"/>
     </defs>
     <use xlink:href="#Cmmi10-51" transform="translate(0 0.484375)"/>
    </g>
   </g>
  </g>
 </g>
 <defs>
  <clipPath id="p3281bdf68d">
   <rect x="7.2" y="7.2" width="437.967692" height="230.600653"/>
  </clipPath>
 </defs>
</svg>
