<?xml version="1.0" encoding="utf-8" standalone="no"?>
<!DOCTYPE svg PUBLIC "-//W3C//DTD SVG 1.1//EN"
  "http://www.w3.org/Graphics/SVG/1.1/DTD/svg11.dtd">
<svg xmlns:xlink="http://www.w3.org/1999/xlink" width="453.6pt" height="208.168611pt" viewBox="0 0 453.6 208.168611" xmlns="http://www.w3.org/2000/svg" version="1.1">
 <metadata>
  <rdf:RDF xmlns:dc="http://purl.org/dc/elements/1.1/" xmlns:cc="http://creativecommons.org/ns#" xmlns:rdf="http://www.w3.org/1999/02/22-rdf-syntax-ns#">
   <cc:Work>
    <dc:type rdf:resource="http://purl.org/dc/dcmitype/StillImage"/>
    <dc:date>2025-03-20T14:50:55.619849</dc:date>
    <dc:format>image/svg+xml</dc:format>
    <dc:creator>
     <cc:Agent>
      <dc:title>Matplotlib v3.10.1, https://matplotlib.org/</dc:title>
     </cc:Agent>
    </dc:creator>
   </cc:Work>
  </rdf:RDF>
 </metadata>
 <defs>
  <style type="text/css">*{stroke-linejoin: round; stroke-linecap: butt}</style>
 </defs>
 <g id="figure_1">
  <g id="patch_1">
   <path d="M 0 208.168611 
L 453.6 208.168611 
L 453.6 -0 
L 0 -0 
z
" style="fill: #ffffff"/>
  </g>
  <g id="axes_1">
   <g id="patch_2">
    <path d="M 7.2 196.242137 
L 446.4 196.242137 
L 446.4 7.2 
L 7.2 7.2 
z
" style="fill: #ffffff"/>
   </g>
   <g id="PathCollection_1">
    <path d="M 412.500414 64.169899 
C 413.438048 64.169899 414.337406 63.797373 415.000414 63.134365 
C 415.663422 62.471358 416.035948 61.572 416.035948 60.634365 
C 416.035948 59.696731 415.663422 58.797373 415.000414 58.134365 
C 414.337406 57.471358 413.438048 57.098831 412.500414 57.098831 
C 411.562779 57.098831 410.663422 57.471358 410.000414 58.134365 
C 409.337406 58.797373 408.96488 59.696731 408.96488 60.634365 
C 408.96488 61.572 409.337406 62.471358 410.000414 63.134365 
C 410.663422 63.797373 411.562779 64.169899 412.500414 64.169899 
z
" clip-path="url(#pe052a01f9a)"/>
   </g>
   <g id="PathCollection_2">
    <path d="M 132.996758 181.331353 
C 133.934393 181.331353 134.833751 180.958827 135.496758 180.295819 
C 136.159766 179.632811 136.532292 178.733453 136.532292 177.795819 
C 136.532292 176.858184 136.159766 175.958827 135.496758 175.295819 
C 134.833751 174.632811 133.934393 174.260285 132.996758 174.260285 
C 132.059124 174.260285 131.159766 174.632811 130.496758 175.295819 
C 129.833751 175.958827 129.461224 176.858184 129.461224 177.795819 
C 129.461224 178.733453 129.833751 179.632811 130.496758 180.295819 
C 131.159766 180.958827 132.059124 181.331353 132.996758 181.331353 
z
" clip-path="url(#pe052a01f9a)"/>
   </g>
   <g id="matplotlib.axis_1"/>
   <g id="matplotlib.axis_2"/>
   <g id="line2d_1">
    <path d="M 412.500414 60.634365 
L 410.445988 57.93445 
L 406.627195 53.397005 
L 403.952245 50.52735 
L 401.172213 47.770112 
L 397.74109 44.639741 
L 393.579356 41.18957 
L 389.60562 38.200104 
L 385.198507 35.185802 
L 381.615148 32.941254 
L 377.366529 30.494036 
L 371.489416 27.450511 
L 365.825062 24.850888 
L 358.393727 21.878559 
L 351.742952 19.594207 
L 344.972409 17.595882 
L 338.343193 15.930855 
L 330.261053 14.258276 
L 324.837222 13.340233 
L 317.914469 12.39134 
L 309.703777 11.57077 
L 302.006758 11.084281 
L 293.719335 10.849527 
L 288.002781 10.854622 
L 279.021314 11.126922 
L 269.580757 11.748751 
L 264.441051 12.227559 
L 256.913161 13.103244 
L 248.400469 14.338952 
L 241.821661 15.470018 
L 233.634012 17.090353 
L 223.690157 19.374734 
L 216.374943 21.277945 
L 207.678303 23.78939 
L 197.732073 27.000438 
L 190.741689 29.480272 
L 181.164576 33.18982 
L 173.146165 36.587741 
L 164.647489 40.500191 
L 156.718023 44.462766 
L 149.410799 48.406922 
L 142.209324 52.598809 
L 135.918989 56.53817 
L 129.547517 60.82925 
L 124.964406 64.129693 
L 119.672378 68.198188 
L 115.956686 71.244848 
L 110.643928 75.925346 
L 105.832582 80.566999 
L 102.145969 84.452282 
L 98.811032 88.28171 
L 96.585546 91.047112 
L 93.089487 95.84147 
L 90.701872 99.549065 
L 88.146418 104.11048 
L 86.613967 107.299484 
L 85.290092 110.50086 
L 84.330727 113.242443 
L 83.396329 116.535395 
L 82.64487 120.197702 
L 82.281134 123.00464 
L 82.094429 126.734653 
L 82.196992 129.687733 
L 82.603937 133.093517 
L 83.194402 135.94419 
L 84.149884 139.160916 
L 84.829205 140.970625 
L 86.029794 143.644092 
L 87.463261 146.29207 
L 89.332211 149.19358 
L 90.816618 151.196605 
L 93.421078 154.264052 
L 96.134187 157.022955 
L 98.841318 159.4523 
L 102.383064 162.263356 
L 106.075884 164.852595 
L 110.735601 167.735757 
L 115.211348 170.186329 
L 119.495932 172.29543 
L 123.994413 174.301768 
L 129.073114 176.349871 
L 132.996758 177.795819 
L 132.996758 177.795819 
" clip-path="url(#pe052a01f9a)" style="fill: none; stroke: #000000; stroke-width: 2; stroke-linecap: square"/>
   </g>
   <g id="patch_3">
    <path d="M 132.996758 177.795819 
Q 108.256309 166.898257 85.562207 156.902062 
" clip-path="url(#pe052a01f9a)" style="fill: none; stroke: #0000ff; stroke-width: 2; stroke-linecap: round"/>
    <path d="M 92.698237 165.508866 
L 85.562207 156.902062 
L 96.729268 156.357321 
z
" clip-path="url(#pe052a01f9a)" style="fill: #0000ff; stroke: #0000ff; stroke-width: 2; stroke-linecap: round"/>
   </g>
   <g id="patch_4">
    <path d="M 110.582315 167.646719 
Q 82.106125 158.440674 55.757579 149.922474 
" clip-path="url(#pe052a01f9a)" style="fill: none; stroke: #0000ff; stroke-width: 2; stroke-linecap: round"/>
    <path d="M 63.734627 157.756165 
L 55.757579 149.922474 
L 66.81076 148.24105 
z
" clip-path="url(#pe052a01f9a)" style="fill: #0000ff; stroke: #0000ff; stroke-width: 2; stroke-linecap: round"/>
   </g>
   <g id="patch_5">
    <path d="M 94.609381 155.518715 
Q 63.471035 148.334004 34.511511 141.652024 
" clip-path="url(#pe052a01f9a)" style="fill: none; stroke: #0000ff; stroke-width: 2; stroke-linecap: round"/>
    <path d="M 43.131355 148.772296 
L 34.511511 141.652024 
L 45.379635 139.028311 
z
" clip-path="url(#pe052a01f9a)" style="fill: #0000ff; stroke: #0000ff; stroke-width: 2; stroke-linecap: round"/>
   </g>
   <g id="patch_6">
    <path d="M 85.152498 141.74539 
Q 52.438005 136.856233 21.935019 132.297585 
" clip-path="url(#pe052a01f9a)" style="fill: none; stroke: #0000ff; stroke-width: 2; stroke-linecap: round"/>
    <path d="M 31.086142 138.720742 
L 21.935019 132.297585 
L 32.564219 128.830581 
z
" clip-path="url(#pe052a01f9a)" style="fill: #0000ff; stroke: #0000ff; stroke-width: 2; stroke-linecap: round"/>
   </g>
   <g id="patch_7">
    <path d="M 82.094479 126.720621 
Q 48.870316 124.335593 17.876483 122.11067 
" clip-path="url(#pe052a01f9a)" style="fill: none; stroke: #0000ff; stroke-width: 2; stroke-linecap: round"/>
    <path d="M 27.492807 127.813854 
L 17.876483 122.11067 
L 28.208824 117.839521 
z
" clip-path="url(#pe052a01f9a)" style="fill: #0000ff; stroke: #0000ff; stroke-width: 2; stroke-linecap: round"/>
   </g>
   <g id="patch_8">
    <path d="M 85.145013 110.887369 
Q 52.429273 111.141216 21.949533 111.377713 
" clip-path="url(#pe052a01f9a)" style="fill: none; stroke: #0000ff; stroke-width: 2; stroke-linecap: round"/>
    <path d="M 31.988027 116.299973 
L 21.949533 111.377713 
L 31.910438 106.300274 
z
" clip-path="url(#pe052a01f9a)" style="fill: #0000ff; stroke: #0000ff; stroke-width: 2; stroke-linecap: round"/>
   </g>
   <g id="patch_9">
    <path d="M 93.862811 94.724634 
Q 62.600037 97.67227 33.563458 100.410007 
" clip-path="url(#pe052a01f9a)" style="fill: none; stroke: #0000ff; stroke-width: 2; stroke-linecap: round"/>
    <path d="M 43.98865 104.449235 
L 33.563458 100.410007 
L 43.049955 94.49339 
z
" clip-path="url(#pe052a01f9a)" style="fill: #0000ff; stroke: #0000ff; stroke-width: 2; stroke-linecap: round"/>
   </g>
   <g id="patch_10">
    <path d="M 107.680175 78.732968 
Q 78.720295 84.345881 51.955632 89.533325 
" clip-path="url(#pe052a01f9a)" style="fill: none; stroke: #0000ff; stroke-width: 2; stroke-linecap: round"/>
    <path d="M 62.724318 92.539218 
L 51.955632 89.533325 
L 60.821558 82.721912 
z
" clip-path="url(#pe052a01f9a)" style="fill: #0000ff; stroke: #0000ff; stroke-width: 2; stroke-linecap: round"/>
   </g>
   <g id="patch_11">
    <path d="M 125.928882 63.418972 
Q 100.010453 71.584219 76.22476 79.077575 
" clip-path="url(#pe052a01f9a)" style="fill: none; stroke: #0000ff; stroke-width: 2; stroke-linecap: round"/>
    <path d="M 87.265038 80.841738 
L 76.22476 79.077575 
L 84.260257 71.303851 
z
" clip-path="url(#pe052a01f9a)" style="fill: #0000ff; stroke: #0000ff; stroke-width: 2; stroke-linecap: round"/>
   </g>
   <g id="patch_12">
    <path d="M 147.866346 49.279274 
Q 125.604162 59.801137 105.363617 69.367504 
" clip-path="url(#pe052a01f9a)" style="fill: none; stroke: #0000ff; stroke-width: 2; stroke-linecap: round"/>
    <path d="M 116.541219 69.614922 
L 105.363617 69.367504 
L 112.268113 60.573873 
z
" clip-path="url(#pe052a01f9a)" style="fill: #0000ff; stroke: #0000ff; stroke-width: 2; stroke-linecap: round"/>
   </g>
   <g id="patch_13">
    <path d="M 172.701152 36.784472 
Q 154.578101 49.388801 138.290794 60.716398 
" clip-path="url(#pe052a01f9a)" style="fill: none; stroke: #0000ff; stroke-width: 2; stroke-linecap: round"/>
    <path d="M 149.355348 59.111517 
L 138.290794 60.716398 
L 143.645622 50.901826 
z
" clip-path="url(#pe052a01f9a)" style="fill: #0000ff; stroke: #0000ff; stroke-width: 2; stroke-linecap: round"/>
   </g>
   <g id="patch_14">
    <path d="M 199.617158 26.363579 
Q 185.980109 40.704724 173.88392 53.425453 
" clip-path="url(#pe052a01f9a)" style="fill: none; stroke: #0000ff; stroke-width: 2; stroke-linecap: round"/>
    <path d="M 184.398218 49.624198 
L 173.88392 53.425453 
L 177.151495 42.733262 
z
" clip-path="url(#pe052a01f9a)" style="fill: #0000ff; stroke: #0000ff; stroke-width: 2; stroke-linecap: round"/>
   </g>
   <g id="patch_15">
    <path d="M 227.795575 18.389476 
Q 218.854929 34.059638 211.022399 47.787617 
" clip-path="url(#pe052a01f9a)" style="fill: none; stroke: #0000ff; stroke-width: 2; stroke-linecap: round"/>
    <path d="M 220.320904 41.579734 
L 211.022399 47.787617 
L 211.635196 36.624083 
z
" clip-path="url(#pe052a01f9a)" style="fill: #0000ff; stroke: #0000ff; stroke-width: 2; stroke-linecap: round"/>
   </g>
   <g id="patch_16">
    <path d="M 256.434551 13.165847 
Q 252.267066 29.706614 248.645892 44.079076 
" clip-path="url(#pe052a01f9a)" style="fill: none; stroke: #0000ff; stroke-width: 2; stroke-linecap: round"/>
    <path d="M 255.937539 35.603707 
L 248.645892 44.079076 
L 246.240584 33.160537 
z
" clip-path="url(#pe052a01f9a)" style="fill: #0000ff; stroke: #0000ff; stroke-width: 2; stroke-linecap: round"/>
   </g>
   <g id="patch_17">
    <path d="M 284.766003 10.916075 
Q 285.320428 27.831804 285.801603 42.512665 
" clip-path="url(#pe052a01f9a)" style="fill: none; stroke: #0000ff; stroke-width: 2; stroke-linecap: round"/>
    <path d="M 290.471339 32.354242 
L 285.801603 42.512665 
L 280.476706 32.681823 
z
" clip-path="url(#pe052a01f9a)" style="fill: #0000ff; stroke: #0000ff; stroke-width: 2; stroke-linecap: round"/>
   </g>
   <g id="patch_18">
    <path d="M 312.069605 11.774464 
Q 317.17463 28.547128 321.628563 43.180615 
" clip-path="url(#pe052a01f9a)" style="fill: none; stroke: #0000ff; stroke-width: 2; stroke-linecap: round"/>
    <path d="M 323.500135 32.158038 
L 321.628563 43.180615 
L 313.933444 35.069811 
z
" clip-path="url(#pe052a01f9a)" style="fill: #0000ff; stroke: #0000ff; stroke-width: 2; stroke-linecap: round"/>
   </g>
   <g id="patch_19">
    <path d="M 337.683957 15.780134 
Q 347.05804 31.885187 355.307273 46.0577 
" clip-path="url(#pe052a01f9a)" style="fill: none; stroke: #0000ff; stroke-width: 2; stroke-linecap: round"/>
    <path d="M 354.598075 34.899876 
L 355.307273 46.0577 
L 345.955495 39.930363 
z
" clip-path="url(#pe052a01f9a)" style="fill: #0000ff; stroke: #0000ff; stroke-width: 2; stroke-linecap: round"/>
   </g>
   <g id="patch_20">
    <path d="M 361.015146 22.873832 
Q 374.277762 37.796601 386.054944 51.047998 
" clip-path="url(#pe052a01f9a)" style="fill: none; stroke: #0000ff; stroke-width: 2; stroke-linecap: round"/>
    <path d="M 383.149188 40.25186 
L 386.054944 51.047998 
L 375.67458 46.89492 
z
" clip-path="url(#pe052a01f9a)" style="fill: #0000ff; stroke: #0000ff; stroke-width: 2; stroke-linecap: round"/>
   </g>
   <g id="patch_21">
    <path d="M 381.542981 32.897809 
Q 398.226902 46.149916 413.159893 58.011252 
" clip-path="url(#pe052a01f9a)" style="fill: none; stroke: #0000ff; stroke-width: 2; stroke-linecap: round"/>
    <path d="M 408.439354 47.876336 
L 413.159893 58.011252 
L 402.219637 55.706734 
z
" clip-path="url(#pe052a01f9a)" style="fill: #0000ff; stroke: #0000ff; stroke-width: 2; stroke-linecap: round"/>
   </g>
   <g id="patch_22">
    <path d="M 398.825248 45.598846 
Q 418.389547 56.734114 436.010501 66.763302 
" clip-path="url(#pe052a01f9a)" style="fill: none; stroke: #0000ff; stroke-width: 2; stroke-linecap: round"/>
    <path d="M 429.792868 57.471314 
L 436.010501 66.763302 
L 424.846331 66.162216 
z
" clip-path="url(#pe052a01f9a)" style="fill: #0000ff; stroke: #0000ff; stroke-width: 2; stroke-linecap: round"/>
   </g>
   <g id="text_1">
    <!-- $Q$ -->
    <g transform="translate(405.588414 80.213458) scale(0.1728 -0.1728)">
     <defs>
      <path id="Cmmi10-51" d="M 1947 -141 
Q 1466 -141 1094 79 
Q 722 300 520 692 
Q 319 1084 319 1563 
Q 319 2259 714 2950 
Q 1109 3641 1756 4077 
Q 2403 4513 3109 4513 
Q 3475 4513 3778 4381 
Q 4081 4250 4290 4017 
Q 4500 3784 4614 3471 
Q 4728 3159 4728 2791 
Q 4728 2366 4581 1936 
Q 4434 1506 4171 1136 
Q 3909 766 3559 484 
Q 3209 203 2809 38 
Q 2850 -256 2934 -425 
Q 3019 -594 3256 -594 
Q 3506 -594 3726 -412 
Q 3947 -231 4006 13 
Q 4019 72 4078 72 
Q 4147 72 4147 -13 
Q 4100 -219 4008 -430 
Q 3916 -641 3786 -823 
Q 3656 -1006 3478 -1123 
Q 3300 -1241 3084 -1241 
Q 2547 -1241 2547 -550 
Q 2547 -509 2562 -332 
Q 2578 -156 2578 -44 
Q 2269 -141 1947 -141 
z
M 1709 300 
Q 1709 44 1991 44 
Q 2275 44 2591 184 
L 2591 244 
Q 2591 503 2509 648 
Q 2428 794 2194 794 
Q 2078 794 1964 723 
Q 1850 653 1779 539 
Q 1709 425 1709 300 
z
M 1544 288 
Q 1544 456 1637 612 
Q 1731 769 1881 864 
Q 2031 959 2203 959 
Q 2481 959 2607 771 
Q 2734 584 2778 281 
Q 3188 525 3500 978 
Q 3813 1431 3977 1973 
Q 4141 2516 4141 3003 
Q 4141 3356 4023 3656 
Q 3906 3956 3664 4140 
Q 3422 4325 3066 4325 
Q 2722 4325 2403 4156 
Q 2084 3988 1813 3706 
Q 1550 3434 1342 3032 
Q 1134 2631 1021 2193 
Q 909 1756 909 1356 
Q 909 947 1068 612 
Q 1228 278 1569 128 
Q 1544 194 1544 288 
z
" transform="scale(0.015625)"/>
     </defs>
     <use xlink:href="#Cmmi10-51" transform="translate(0 0.484375)"/>
    </g>
   </g>
   <g id="text_2">
    <!-- $P$ -->
    <g transform="translate(127.380758 197.374911) scale(0.1728 -0.1728)">
     <defs>
      <path id="Cmmi10-50" d="M 313 0 
Q 250 0 250 84 
Q 253 100 262 139 
Q 272 178 289 201 
Q 306 225 331 225 
Q 722 225 878 269 
Q 959 297 997 441 
L 1875 3956 
Q 1888 4019 1888 4044 
Q 1888 4113 1813 4122 
Q 1691 4147 1350 4147 
Q 1288 4147 1288 4231 
Q 1291 4247 1300 4286 
Q 1309 4325 1326 4348 
Q 1344 4372 1369 4372 
L 3578 4372 
Q 3881 4372 4165 4264 
Q 4450 4156 4631 3934 
Q 4813 3713 4813 3397 
Q 4813 2991 4527 2672 
Q 4241 2353 3814 2175 
Q 3388 1997 2988 1997 
L 1947 1997 
L 1556 416 
Q 1544 353 1544 325 
Q 1544 300 1551 283 
Q 1559 266 1573 261 
Q 1588 256 1619 250 
Q 1741 225 2081 225 
Q 2144 225 2144 141 
Q 2122 50 2109 25 
Q 2097 0 2034 0 
L 313 0 
z
M 1978 2188 
L 2875 2188 
Q 3497 2188 3822 2522 
Q 3988 2688 4092 3000 
Q 4197 3313 4197 3566 
Q 4197 3881 3956 4014 
Q 3716 4147 3359 4147 
L 2747 4147 
Q 2572 4147 2515 4117 
Q 2459 4088 2413 3928 
L 1978 2188 
z
" transform="scale(0.015625)"/>
     </defs>
     <use xlink:href="#Cmmi10-50" transform="translate(0 0.6875)"/>
    </g>
   </g>
  </g>
 </g>
 <defs>
  <clipPath id="pe052a01f9a">
   <rect x="7.2" y="7.2" width="439.2" height="189.042137"/>
  </clipPath>
 </defs>
</svg>
