<?xml version="1.0" encoding="utf-8" standalone="no"?>
<!DOCTYPE svg PUBLIC "-//W3C//DTD SVG 1.1//EN"
  "http://www.w3.org/Graphics/SVG/1.1/DTD/svg11.dtd">
<svg xmlns:xlink="http://www.w3.org/1999/xlink" width="452.367692pt" height="250.251532pt" viewBox="0 0 452.367692 250.251532" xmlns="http://www.w3.org/2000/svg" version="1.1">
 <metadata>
  <rdf:RDF xmlns:dc="http://purl.org/dc/elements/1.1/" xmlns:cc="http://creativecommons.org/ns#" xmlns:rdf="http://www.w3.org/1999/02/22-rdf-syntax-ns#">
   <cc:Work>
    <dc:type rdf:resource="http://purl.org/dc/dcmitype/StillImage"/>
    <dc:date>2025-03-12T13:53:02.176935</dc:date>
    <dc:format>image/svg+xml</dc:format>
    <dc:creator>
     <cc:Agent>
      <dc:title>Matplotlib v3.10.1, https://matplotlib.org/</dc:title>
     </cc:Agent>
    </dc:creator>
   </cc:Work>
  </rdf:RDF>
 </metadata>
 <defs>
  <style type="text/css">*{stroke-linejoin: round; stroke-linecap: butt}</style>
 </defs>
 <g id="figure_1">
  <g id="patch_1">
   <path d="M 0 250.251532 
L 452.367692 250.251532 
L 452.367692 0 
L 0 0 
z
" style="fill: #ffffff"/>
  </g>
  <g id="axes_1">
   <g id="patch_2">
    <path d="M 7.2 237.808179 
L 445.167692 237.808179 
L 445.167692 7.2 
L 7.2 7.2 
z
" style="fill: #ffffff"/>
   </g>
   <g id="PathCollection_1">
    <path d="M 77.716885 218.841433 
C 78.65452 218.841433 79.553877 218.468907 80.216885 217.805899 
C 80.879893 217.142891 81.252419 216.243533 81.252419 215.305899 
C 81.252419 214.368264 80.879893 213.468907 80.216885 212.805899 
C 79.553877 212.142891 78.65452 211.770365 77.716885 211.770365 
C 76.779251 211.770365 75.879893 212.142891 75.216885 212.805899 
C 74.553877 213.468907 74.181351 214.368264 74.181351 215.305899 
C 74.181351 216.243533 74.553877 217.142891 75.216885 217.805899 
C 75.879893 218.468907 76.779251 218.841433 77.716885 218.841433 
z
" clip-path="url(#p786fbd3a51)"/>
   </g>
   <g id="PathCollection_2">
    <path d="M 418.677729 75.91855 
C 419.615364 75.91855 420.514721 75.546024 421.177729 74.883016 
C 421.840737 74.220009 422.213263 73.320651 422.213263 72.383016 
C 422.213263 71.445382 421.840737 70.546024 421.177729 69.883016 
C 420.514721 69.220009 419.615364 68.847483 418.677729 68.847483 
C 417.740095 68.847483 416.840737 69.220009 416.177729 69.883016 
C 415.514721 70.546024 415.142195 71.445382 415.142195 72.383016 
C 415.142195 73.320651 415.514721 74.220009 416.177729 74.883016 
C 416.840737 75.546024 417.740095 75.91855 418.677729 75.91855 
z
" clip-path="url(#p786fbd3a51)"/>
   </g>
   <g id="matplotlib.axis_1"/>
   <g id="matplotlib.axis_2"/>
   <g id="line2d_1">
    <path d="M 418.677729 72.383016 
L 415.752065 68.561504 
L 412.375088 64.527489 
L 409.666366 61.539006 
L 406.45962 58.245591 
L 404.360763 56.21761 
L 398.606375 51.106048 
L 394.968201 48.170852 
L 389.798113 44.33897 
L 386.211588 41.889181 
L 381.702835 39.02595 
L 376.205692 35.829227 
L 370.207919 32.671469 
L 366.021908 30.652429 
L 361.940224 28.818429 
L 354.688579 25.862462 
L 348.025972 23.459292 
L 339.453299 20.766357 
L 332.222839 18.814677 
L 324.70032 17.06984 
L 317.695277 15.68927 
L 308.137873 14.159917 
L 299.448725 13.101617 
L 290.021042 12.288663 
L 282.426611 11.874276 
L 276.189277 11.687561 
L 266.09944 11.667371 
L 256.510667 11.958915 
L 247.059536 12.531761 
L 238.502753 13.287707 
L 226.926821 14.660177 
L 217.583291 16.055624 
L 210.086233 17.358619 
L 199.485038 19.477659 
L 191.716278 21.235837 
L 183.549697 23.271859 
L 173.330437 26.093215 
L 166.488162 28.154597 
L 157.096163 31.213966 
L 148.700999 34.179556 
L 138.400286 38.127392 
L 130.553494 41.373502 
L 122.565955 44.901201 
L 115.975694 47.990655 
L 107.27498 52.333571 
L 98.150202 57.237595 
L 90.254164 61.79949 
L 83.123552 66.201623 
L 76.42663 70.60929 
L 69.976452 75.13738 
L 65.854967 78.194346 
L 58.732261 83.823886 
L 52.822804 88.885617 
L 47.306252 94.002452 
L 43.026607 98.291284 
L 38.681424 103.000988 
L 35.198558 107.0992 
L 32.023292 111.154707 
L 28.896994 115.534254 
L 25.928339 120.175276 
L 24.158141 123.250128 
L 22.068792 127.299642 
L 20.523494 130.714985 
L 18.998046 134.637835 
L 17.928543 137.928303 
L 16.971828 141.578902 
L 16.188721 145.714046 
L 15.824994 148.734415 
L 15.635851 152.021181 
L 15.645192 154.668325 
L 15.97375 158.915354 
L 16.375368 161.526346 
L 16.954304 164.212854 
L 18.060926 167.976405 
L 18.853859 170.123283 
L 20.453289 173.706375 
L 22.02537 176.625513 
L 24.213377 180.072082 
L 26.452862 183.10044 
L 28.796668 185.889366 
L 31.542845 188.791072 
L 35.100846 192.110379 
L 37.524616 194.149172 
L 41.180781 196.953588 
L 43.840829 198.822806 
L 48.68406 201.922982 
L 53.804729 204.850454 
L 58.873683 207.459278 
L 61.877151 208.889316 
L 67.368635 211.311225 
L 73.325994 213.692959 
L 77.716885 215.305899 
L 77.716885 215.305899 
" clip-path="url(#p786fbd3a51)" style="fill: none; stroke: #000000; stroke-width: 2; stroke-linecap: square"/>
   </g>
   <g id="text_1">
    <!-- $P$ -->
    <g transform="translate(80.250639 238.892157) scale(0.2 -0.2)">
     <defs>
      <path id="Cmmi10-50" d="M 313 0 
Q 250 0 250 84 
Q 253 100 262 139 
Q 272 178 289 201 
Q 306 225 331 225 
Q 722 225 878 269 
Q 959 297 997 441 
L 1875 3956 
Q 1888 4019 1888 4044 
Q 1888 4113 1813 4122 
Q 1691 4147 1350 4147 
Q 1288 4147 1288 4231 
Q 1291 4247 1300 4286 
Q 1309 4325 1326 4348 
Q 1344 4372 1369 4372 
L 3578 4372 
Q 3881 4372 4165 4264 
Q 4450 4156 4631 3934 
Q 4813 3713 4813 3397 
Q 4813 2991 4527 2672 
Q 4241 2353 3814 2175 
Q 3388 1997 2988 1997 
L 1947 1997 
L 1556 416 
Q 1544 353 1544 325 
Q 1544 300 1551 283 
Q 1559 266 1573 261 
Q 1588 256 1619 250 
Q 1741 225 2081 225 
Q 2144 225 2144 141 
Q 2122 50 2109 25 
Q 2097 0 2034 0 
L 313 0 
z
M 1978 2188 
L 2875 2188 
Q 3497 2188 3822 2522 
Q 3988 2688 4092 3000 
Q 4197 3313 4197 3566 
Q 4197 3881 3956 4014 
Q 3716 4147 3359 4147 
L 2747 4147 
Q 2572 4147 2515 4117 
Q 2459 4088 2413 3928 
L 1978 2188 
z
" transform="scale(0.015625)"/>
     </defs>
     <use xlink:href="#Cmmi10-50" transform="translate(0 0.6875)"/>
    </g>
   </g>
   <g id="text_2">
    <!-- $Q$ -->
    <g transform="translate(428.745237 95.969274) scale(0.2 -0.2)">
     <defs>
      <path id="Cmmi10-51" d="M 1947 -141 
Q 1466 -141 1094 79 
Q 722 300 520 692 
Q 319 1084 319 1563 
Q 319 2259 714 2950 
Q 1109 3641 1756 4077 
Q 2403 4513 3109 4513 
Q 3475 4513 3778 4381 
Q 4081 4250 4290 4017 
Q 4500 3784 4614 3471 
Q 4728 3159 4728 2791 
Q 4728 2366 4581 1936 
Q 4434 1506 4171 1136 
Q 3909 766 3559 484 
Q 3209 203 2809 38 
Q 2850 -256 2934 -425 
Q 3019 -594 3256 -594 
Q 3506 -594 3726 -412 
Q 3947 -231 4006 13 
Q 4019 72 4078 72 
Q 4147 72 4147 -13 
Q 4100 -219 4008 -430 
Q 3916 -641 3786 -823 
Q 3656 -1006 3478 -1123 
Q 3300 -1241 3084 -1241 
Q 2547 -1241 2547 -550 
Q 2547 -509 2562 -332 
Q 2578 -156 2578 -44 
Q 2269 -141 1947 -141 
z
M 1709 300 
Q 1709 44 1991 44 
Q 2275 44 2591 184 
L 2591 244 
Q 2591 503 2509 648 
Q 2428 794 2194 794 
Q 2078 794 1964 723 
Q 1850 653 1779 539 
Q 1709 425 1709 300 
z
M 1544 288 
Q 1544 456 1637 612 
Q 1731 769 1881 864 
Q 2031 959 2203 959 
Q 2481 959 2607 771 
Q 2734 584 2778 281 
Q 3188 525 3500 978 
Q 3813 1431 3977 1973 
Q 4141 2516 4141 3003 
Q 4141 3356 4023 3656 
Q 3906 3956 3664 4140 
Q 3422 4325 3066 4325 
Q 2722 4325 2403 4156 
Q 2084 3988 1813 3706 
Q 1550 3434 1342 3032 
Q 1134 2631 1021 2193 
Q 909 1756 909 1356 
Q 909 947 1068 612 
Q 1228 278 1569 128 
Q 1544 194 1544 288 
z
" transform="scale(0.015625)"/>
     </defs>
     <use xlink:href="#Cmmi10-51" transform="translate(0 0.484375)"/>
    </g>
   </g>
  </g>
 </g>
 <defs>
  <clipPath id="p786fbd3a51">
   <rect x="7.2" y="7.2" width="437.967692" height="230.608179"/>
  </clipPath>
 </defs>
</svg>
