<?xml version="1.0" encoding="utf-8" standalone="no"?>
<!DOCTYPE svg PUBLIC "-//W3C//DTD SVG 1.1//EN"
  "http://www.w3.org/Graphics/SVG/1.1/DTD/svg11.dtd">
<svg xmlns:xlink="http://www.w3.org/1999/xlink" width="452.367692pt" height="250.247433pt" viewBox="0 0 452.367692 250.247433" xmlns="http://www.w3.org/2000/svg" version="1.1">
 <metadata>
  <rdf:RDF xmlns:dc="http://purl.org/dc/elements/1.1/" xmlns:cc="http://creativecommons.org/ns#" xmlns:rdf="http://www.w3.org/1999/02/22-rdf-syntax-ns#">
   <cc:Work>
    <dc:type rdf:resource="http://purl.org/dc/dcmitype/StillImage"/>
    <dc:date>2025-03-06T19:42:16.481451</dc:date>
    <dc:format>image/svg+xml</dc:format>
    <dc:creator>
     <cc:Agent>
      <dc:title>Matplotlib v3.5.1, https://matplotlib.org/</dc:title>
     </cc:Agent>
    </dc:creator>
   </cc:Work>
  </rdf:RDF>
 </metadata>
 <defs>
  <style type="text/css">*{stroke-linejoin: round; stroke-linecap: butt}</style>
 </defs>
 <g id="figure_1">
  <g id="patch_1">
   <path d="M 0 250.247433 
L 452.367692 250.247433 
L 452.367692 0 
L 0 0 
z
" style="fill: #ffffff"/>
  </g>
  <g id="axes_1">
   <g id="patch_2">
    <path d="M 7.2 237.804001 
L 445.167692 237.804001 
L 445.167692 7.2 
L 7.2 7.2 
z
" style="fill: #ffffff"/>
   </g>
   <g id="PathCollection_1">
    <path d="M 77.717265 218.837354 
C 78.654899 218.837354 79.554257 218.464827 80.217265 217.80182 
C 80.880272 217.138812 81.252798 216.239454 81.252798 215.30182 
C 81.252798 214.364185 80.880272 213.464827 80.217265 212.80182 
C 79.554257 212.138812 78.654899 211.766286 77.717265 211.766286 
C 76.77963 211.766286 75.880272 212.138812 75.217265 212.80182 
C 74.554257 213.464827 74.181731 214.364185 74.181731 215.30182 
C 74.181731 216.239454 74.554257 217.138812 75.217265 217.80182 
C 75.880272 218.464827 76.77963 218.837354 77.717265 218.837354 
z
" clip-path="url(#p3358601b93)"/>
   </g>
   <g id="PathCollection_2">
    <path d="M 418.677748 75.914622 
C 419.615383 75.914622 420.51474 75.542096 421.177748 74.879088 
C 421.840756 74.21608 422.213282 73.316723 422.213282 72.379088 
C 422.213282 71.441454 421.840756 70.542096 421.177748 69.879088 
C 420.51474 69.21608 419.615383 68.843554 418.677748 68.843554 
C 417.740114 68.843554 416.840756 69.21608 416.177748 69.879088 
C 415.51474 70.542096 415.142214 71.441454 415.142214 72.379088 
C 415.142214 73.316723 415.51474 74.21608 416.177748 74.879088 
C 416.840756 75.542096 417.740114 75.914622 418.677748 75.914622 
z
" clip-path="url(#p3358601b93)"/>
   </g>
   <g id="matplotlib.axis_1"/>
   <g id="matplotlib.axis_2"/>
   <g id="line2d_1">
    <path d="M 418.677748 72.379088 
L 414.56212 67.093605 
L 411.133484 63.128482 
L 407.326403 59.107644 
L 404.509699 56.354475 
L 399.501249 51.857369 
L 396.557575 49.423278 
L 391.821574 45.790361 
L 388.570661 43.478471 
L 382.788097 39.690364 
L 377.179451 36.369497 
L 371.67885 33.412116 
L 365.910291 30.59663 
L 360.923563 28.377378 
L 356.064014 26.390928 
L 349.129349 23.833856 
L 345.614506 22.654152 
L 339.369581 20.738237 
L 333.399998 19.109638 
L 324.184623 16.956476 
L 318.492551 15.831112 
L 311.128352 14.592212 
L 301.643134 13.3363 
L 293.243021 12.52462 
L 285.565216 12.016339 
L 274.865187 11.661424 
L 268.824573 11.63534 
L 259.968489 11.815771 
L 252.766828 12.148601 
L 243.841147 12.786101 
L 236.109533 13.534901 
L 227.611762 14.564091 
L 216.494851 16.230876 
L 210.564168 17.266882 
L 199.624085 19.443954 
L 191.692018 21.237787 
L 181.935959 23.693269 
L 171.230213 26.707328 
L 163.740003 29.018232 
L 154.371889 32.148296 
L 145.8484 35.234386 
L 136.771691 38.780002 
L 129.289079 41.912861 
L 117.881298 47.076409 
L 110.370748 50.74887 
L 100.778078 55.782841 
L 92.106321 60.697466 
L 84.884 65.084514 
L 77.72877 69.726334 
L 70.333488 74.875188 
L 63.799829 79.767554 
L 57.742456 84.641328 
L 53.746502 88.064392 
L 49.180154 92.21319 
L 43.668096 97.624611 
L 39.844455 101.69704 
L 35.292597 106.980668 
L 31.349269 112.059341 
L 28.153017 116.643416 
L 25.185701 121.428947 
L 22.598929 126.216516 
L 20.735502 130.215925 
L 19.191867 134.095411 
L 17.840513 138.226562 
L 16.748194 142.599004 
L 16.064915 146.588841 
L 15.692221 150.576816 
L 15.629707 154.013916 
L 15.83306 157.626204 
L 16.210392 160.564689 
L 16.755471 163.369666 
L 17.259629 165.373542 
L 17.938666 167.608005 
L 19.565127 171.810238 
L 20.599797 173.994245 
L 22.586574 177.562464 
L 24.574216 180.584589 
L 26.283748 182.880997 
L 28.652224 185.722178 
L 31.619464 188.862856 
L 33.511677 190.676509 
L 37.270081 193.937984 
L 41.823756 197.413188 
L 46.145527 200.33861 
L 49.151363 202.19961 
L 53.725955 204.803499 
L 59.576642 207.796943 
L 65.313166 210.427802 
L 71.414247 212.949957 
L 77.717265 215.30182 
L 77.717265 215.30182 
" clip-path="url(#p3358601b93)" style="fill: none; stroke: #000000; stroke-width: 2; stroke-linecap: square"/>
   </g>
   <g id="text_1">
    <!-- $P$ -->
    <g transform="translate(80.251009 238.888058)scale(0.2 -0.2)">
     <defs>
      <path id="Cmmi10-50" d="M 313 0 
Q 250 0 250 84 
Q 253 100 262 139 
Q 272 178 289 201 
Q 306 225 331 225 
Q 722 225 878 269 
Q 959 297 997 441 
L 1875 3956 
Q 1888 4019 1888 4044 
Q 1888 4113 1813 4122 
Q 1691 4147 1350 4147 
Q 1288 4147 1288 4231 
Q 1291 4247 1300 4286 
Q 1309 4325 1326 4348 
Q 1344 4372 1369 4372 
L 3578 4372 
Q 3881 4372 4165 4264 
Q 4450 4156 4631 3934 
Q 4813 3713 4813 3397 
Q 4813 2991 4527 2672 
Q 4241 2353 3814 2175 
Q 3388 1997 2988 1997 
L 1947 1997 
L 1556 416 
Q 1544 353 1544 325 
Q 1544 300 1551 283 
Q 1559 266 1573 261 
Q 1588 256 1619 250 
Q 1741 225 2081 225 
Q 2144 225 2144 141 
Q 2122 50 2109 25 
Q 2097 0 2034 0 
L 313 0 
z
M 1978 2188 
L 2875 2188 
Q 3497 2188 3822 2522 
Q 3988 2688 4092 3000 
Q 4197 3313 4197 3566 
Q 4197 3881 3956 4014 
Q 3716 4147 3359 4147 
L 2747 4147 
Q 2572 4147 2515 4117 
Q 2459 4088 2413 3928 
L 1978 2188 
z
" transform="scale(0.015625)"/>
     </defs>
     <use xlink:href="#Cmmi10-50" transform="translate(0 0.6875)"/>
    </g>
   </g>
   <g id="text_2">
    <!-- $Q$ -->
    <g transform="translate(428.745237 95.965327)scale(0.2 -0.2)">
     <defs>
      <path id="Cmmi10-51" d="M 1947 -141 
Q 1466 -141 1094 79 
Q 722 300 520 692 
Q 319 1084 319 1563 
Q 319 2259 714 2950 
Q 1109 3641 1756 4077 
Q 2403 4513 3109 4513 
Q 3475 4513 3778 4381 
Q 4081 4250 4290 4017 
Q 4500 3784 4614 3471 
Q 4728 3159 4728 2791 
Q 4728 2366 4581 1936 
Q 4434 1506 4171 1136 
Q 3909 766 3559 484 
Q 3209 203 2809 38 
Q 2850 -256 2934 -425 
Q 3019 -594 3256 -594 
Q 3506 -594 3726 -412 
Q 3947 -231 4006 13 
Q 4019 72 4078 72 
Q 4147 72 4147 -13 
Q 4100 -219 4008 -430 
Q 3916 -641 3786 -823 
Q 3656 -1006 3478 -1123 
Q 3300 -1241 3084 -1241 
Q 2547 -1241 2547 -550 
Q 2547 -509 2562 -332 
Q 2578 -156 2578 -44 
Q 2269 -141 1947 -141 
z
M 1709 300 
Q 1709 44 1991 44 
Q 2275 44 2591 184 
L 2591 244 
Q 2591 503 2509 648 
Q 2428 794 2194 794 
Q 2078 794 1964 723 
Q 1850 653 1779 539 
Q 1709 425 1709 300 
z
M 1544 288 
Q 1544 456 1637 612 
Q 1731 769 1881 864 
Q 2031 959 2203 959 
Q 2481 959 2607 771 
Q 2734 584 2778 281 
Q 3188 525 3500 978 
Q 3813 1431 3977 1973 
Q 4141 2516 4141 3003 
Q 4141 3356 4023 3656 
Q 3906 3956 3664 4140 
Q 3422 4325 3066 4325 
Q 2722 4325 2403 4156 
Q 2084 3988 1813 3706 
Q 1550 3434 1342 3032 
Q 1134 2631 1021 2193 
Q 909 1756 909 1356 
Q 909 947 1068 612 
Q 1228 278 1569 128 
Q 1544 194 1544 288 
z
" transform="scale(0.015625)"/>
     </defs>
     <use xlink:href="#Cmmi10-51" transform="translate(0 0.484375)"/>
    </g>
   </g>
  </g>
 </g>
 <defs>
  <clipPath id="p3358601b93">
   <rect x="7.2" y="7.2" width="437.967692" height="230.604001"/>
  </clipPath>
 </defs>
</svg>
