<?xml version="1.0" encoding="utf-8" standalone="no"?>
<!DOCTYPE svg PUBLIC "-//W3C//DTD SVG 1.1//EN"
  "http://www.w3.org/Graphics/SVG/1.1/DTD/svg11.dtd">
<svg xmlns:xlink="http://www.w3.org/1999/xlink" width="392.672619pt" height="338.4pt" viewBox="0 0 392.672619 338.4" xmlns="http://www.w3.org/2000/svg" version="1.1">
 <metadata>
  <rdf:RDF xmlns:dc="http://purl.org/dc/elements/1.1/" xmlns:cc="http://creativecommons.org/ns#" xmlns:rdf="http://www.w3.org/1999/02/22-rdf-syntax-ns#">
   <cc:Work>
    <dc:type rdf:resource="http://purl.org/dc/dcmitype/StillImage"/>
    <dc:date>2025-04-09T11:35:13.551690</dc:date>
    <dc:format>image/svg+xml</dc:format>
    <dc:creator>
     <cc:Agent>
      <dc:title>Matplotlib v3.8.0, https://matplotlib.org/</dc:title>
     </cc:Agent>
    </dc:creator>
   </cc:Work>
  </rdf:RDF>
 </metadata>
 <defs>
  <style type="text/css">*{stroke-linejoin: round; stroke-linecap: butt}</style>
 </defs>
 <g id="figure_1">
  <g id="patch_1">
   <path d="M 0 338.4 
L 392.672619 338.4 
L 392.672619 0 
L 0 0 
z
" style="fill: #ffffff"/>
  </g>
  <g id="axes_1">
   <g id="patch_2">
    <path d="M 7.2 331.2 
L 385.472619 331.2 
L 385.472619 7.2 
L 7.2 7.2 
z
" style="fill: #ffffff"/>
   </g>
   <g id="PathCollection_1">
    <path d="M 137.726604 100.656141 
C 138.664239 100.656141 139.563597 100.283615 140.226604 99.620607 
C 140.889612 98.957599 141.262138 98.058242 141.262138 97.120607 
C 141.262138 96.182972 140.889612 95.283615 140.226604 94.620607 
C 139.563597 93.957599 138.664239 93.585073 137.726604 93.585073 
C 136.78897 93.585073 135.889612 93.957599 135.226604 94.620607 
C 134.563597 95.283615 134.19107 96.182972 134.19107 97.120607 
C 134.19107 98.058242 134.563597 98.957599 135.226604 99.620607 
C 135.889612 100.283615 136.78897 100.656141 137.726604 100.656141 
z
" clip-path="url(#p82b8a7c321)"/>
   </g>
   <g id="matplotlib.axis_1"/>
   <g id="matplotlib.axis_2"/>
   <g id="line2d_1">
    <path d="M 378.198146 243.230862 
L 348.073946 206.002105 
L 324.106233 176.521292 
L 308.266711 157.372521 
L 294.643168 141.247633 
L 283.899178 128.822655 
L 271.153807 114.48926 
L 259.193488 101.510439 
L 251.294861 93.225501 
L 244.852585 86.654492 
L 232.746605 74.804665 
L 224.307713 66.966022 
L 215.746796 59.403253 
L 207.033813 52.142717 
L 201.174566 47.526153 
L 194.391079 42.46637 
L 185.252743 36.166377 
L 180.889336 33.380297 
L 173.256811 28.874373 
L 166.238093 25.16777 
L 161.347426 22.847431 
L 157.717632 21.271359 
L 151.042515 18.713368 
L 144.887748 16.766097 
L 139.580739 15.422602 
L 132.926643 14.203739 
L 130.429373 13.886569 
L 124.400099 13.453085 
L 120.657882 13.430769 
L 117.360744 13.575218 
L 112.656573 14.059288 
L 108.954291 14.680604 
L 103.935785 15.879171 
L 99.267667 17.383097 
L 95.18142 19.026048 
L 90.944725 21.070679 
L 87.419795 23.051755 
L 82.211893 26.475143 
L 79.975336 28.137826 
L 76.909845 30.615851 
L 73.426654 33.725666 
L 69.523196 37.607238 
L 67.221032 40.105752 
L 63.248183 44.809417 
L 60.30309 48.639434 
L 57.525695 52.540531 
L 53.50325 58.732005 
L 50.112922 64.498549 
L 46.092421 72.069465 
L 42.255878 80.141013 
L 40.0347 85.24636 
L 37.152986 92.410926 
L 34.612788 99.30471 
L 31.088435 109.942736 
L 28.396075 119.103279 
L 26.803356 125.0454 
L 24.073887 136.378853 
L 22.107924 145.718085 
L 20.288352 155.60034 
L 19.059426 163.225785 
L 17.705802 172.953677 
L 16.35736 184.977026 
L 15.450089 195.771645 
L 14.910293 204.873963 
L 14.594131 213.481127 
L 14.474473 223.903733 
L 14.639855 233.669332 
L 14.907971 240.135262 
L 15.46619 248.594944 
L 16.104145 255.421843 
L 17.093954 263.445611 
L 18.014436 269.380655 
L 19.06843 275.06895 
L 20.366432 280.970886 
L 21.484989 285.348857 
L 23.13212 290.909252 
L 24.914004 296.014426 
L 26.648139 300.277267 
L 28.808327 304.8132 
L 30.729567 308.255744 
L 32.099212 310.421007 
L 34.482926 313.694438 
L 35.916954 315.395368 
L 38.718717 318.212079 
L 41.463369 320.400608 
L 43.499568 321.703263 
L 45.781611 322.871578 
L 47.698882 323.634891 
L 49.335957 324.140586 
L 52.113636 324.713761 
L 55.547398 324.969231 
L 57.834805 324.885593 
L 61.482793 324.36952 
L 63.898255 323.788258 
L 66.379829 323.006721 
L 68.11234 322.356302 
L 72.639222 320.277346 
L 72.639222 320.277346 
" clip-path="url(#p82b8a7c321)" style="fill: none; stroke: #ffffff; stroke-linecap: square"/>
   </g>
   <g id="line2d_2">
    <path d="M 72.639222 320.277346 
L 77.498922 315.810233 
L 82.310383 311.060912 
L 86.221771 306.914748 
L 89.071209 303.704438 
L 92.562291 299.514776 
L 96.091768 294.937541 
L 99.41676 290.240844 
L 102.396199 285.638091 
L 105.384018 280.548519 
L 107.680839 276.225297 
L 109.452514 272.581725 
L 111.694272 267.477495 
L 113.677998 262.353581 
L 115.622895 256.551709 
L 117.024781 251.684596 
L 118.345434 246.320758 
L 119.546726 240.432536 
L 120.517758 234.510423 
L 121.330364 228.104959 
L 121.979466 221.030956 
L 122.464294 212.790581 
L 122.741389 203.672357 
L 122.845028 192.357664 
L 122.984014 167.786757 
L 123.264226 159.317467 
L 123.712911 151.823483 
L 124.3933 144.436853 
L 125.324474 137.290108 
L 126.197907 132.08616 
L 127.325281 126.571477 
L 128.433835 121.992889 
L 129.992335 116.487003 
L 131.425838 112.093153 
L 133.119822 107.492702 
L 135.439582 101.951369 
L 137.726604 97.120607 
L 137.726604 97.120607 
" clip-path="url(#p82b8a7c321)" style="fill: none; stroke: #000000; stroke-linecap: square"/>
   </g>
   <g id="patch_3">
    <path d="M 122.849488 186.383302 
Q 122.849496 185.936989 122.849466 187.726743 
" clip-path="url(#p82b8a7c321)" style="fill: none; stroke: #000000; stroke-width: 2; stroke-linecap: round"/>
    <path d="M 117.849299 197.72666 
L 122.849466 187.726743 
L 127.849299 197.726827 
z
" clip-path="url(#p82b8a7c321)" style="stroke: #000000; stroke-width: 2; stroke-linecap: round"/>
   </g>
   <g id="text_1">
    <g clip-path="url(#p82b8a7c321)">
     <!-- $Q$ -->
     <g transform="translate(89.418031 318.249514) scale(0.25 -0.25)">
      <defs>
       <path id="Cmmi10-51" d="M 1947 -141 
Q 1466 -141 1094 79 
Q 722 300 520 692 
Q 319 1084 319 1563 
Q 319 2259 714 2950 
Q 1109 3641 1756 4077 
Q 2403 4513 3109 4513 
Q 3475 4513 3778 4381 
Q 4081 4250 4290 4017 
Q 4500 3784 4614 3471 
Q 4728 3159 4728 2791 
Q 4728 2366 4581 1936 
Q 4434 1506 4171 1136 
Q 3909 766 3559 484 
Q 3209 203 2809 38 
Q 2850 -256 2934 -425 
Q 3019 -594 3256 -594 
Q 3506 -594 3726 -412 
Q 3947 -231 4006 13 
Q 4019 72 4078 72 
Q 4147 72 4147 -13 
Q 4100 -219 4008 -430 
Q 3916 -641 3786 -823 
Q 3656 -1006 3478 -1123 
Q 3300 -1241 3084 -1241 
Q 2547 -1241 2547 -550 
Q 2547 -509 2562 -332 
Q 2578 -156 2578 -44 
Q 2269 -141 1947 -141 
z
M 1709 300 
Q 1709 44 1991 44 
Q 2275 44 2591 184 
L 2591 244 
Q 2591 503 2509 648 
Q 2428 794 2194 794 
Q 2078 794 1964 723 
Q 1850 653 1779 539 
Q 1709 425 1709 300 
z
M 1544 288 
Q 1544 456 1637 612 
Q 1731 769 1881 864 
Q 2031 959 2203 959 
Q 2481 959 2607 771 
Q 2734 584 2778 281 
Q 3188 525 3500 978 
Q 3813 1431 3977 1973 
Q 4141 2516 4141 3003 
Q 4141 3356 4023 3656 
Q 3906 3956 3664 4140 
Q 3422 4325 3066 4325 
Q 2722 4325 2403 4156 
Q 2084 3988 1813 3706 
Q 1550 3434 1342 3032 
Q 1134 2631 1021 2193 
Q 909 1756 909 1356 
Q 909 947 1068 612 
Q 1228 278 1569 128 
Q 1544 194 1544 288 
z
" transform="scale(0.015625)"/>
      </defs>
      <use xlink:href="#Cmmi10-51" transform="translate(0 0.484375)"/>
     </g>
    </g>
   </g>
   <g id="text_2">
    <g clip-path="url(#p82b8a7c321)">
     <!-- $R$ -->
     <g transform="translate(105.91093 117.408449) scale(0.25 -0.25)">
      <defs>
       <path id="Cmmi10-52" d="M 313 0 
Q 250 0 250 84 
Q 253 100 262 139 
Q 272 178 289 201 
Q 306 225 331 225 
Q 722 225 878 269 
Q 959 297 997 441 
L 1875 3956 
Q 1888 4019 1888 4044 
Q 1888 4113 1813 4122 
Q 1691 4147 1350 4147 
Q 1288 4147 1288 4231 
Q 1291 4247 1300 4286 
Q 1309 4325 1326 4348 
Q 1344 4372 1369 4372 
L 3309 4372 
Q 3541 4372 3791 4319 
Q 4041 4266 4250 4152 
Q 4459 4038 4593 3848 
Q 4728 3659 4728 3406 
Q 4728 3084 4515 2831 
Q 4303 2578 3978 2408 
Q 3653 2238 3347 2169 
Q 3597 2078 3756 1879 
Q 3916 1681 3916 1422 
Q 3916 1388 3914 1370 
Q 3913 1353 3909 1331 
L 3859 763 
Q 3853 638 3847 550 
Q 3841 463 3841 409 
Q 3841 234 3892 129 
Q 3944 25 4097 25 
Q 4297 25 4448 211 
Q 4600 397 4647 616 
Q 4675 672 4709 672 
L 4769 672 
Q 4831 672 4831 588 
Q 4784 403 4682 237 
Q 4581 72 4426 -34 
Q 4272 -141 4091 -141 
Q 3716 -141 3452 26 
Q 3188 194 3188 550 
Q 3188 684 3213 788 
L 3353 1356 
Q 3378 1434 3378 1538 
Q 3378 1803 3198 1954 
Q 3019 2106 2747 2106 
L 1959 2106 
L 1538 416 
Q 1522 363 1522 325 
Q 1522 259 1600 250 
Q 1722 225 2059 225 
Q 2125 225 2125 141 
Q 2103 50 2090 25 
Q 2078 0 2016 0 
L 313 0 
z
M 1997 2272 
L 2706 2272 
Q 3403 2272 3756 2625 
Q 3919 2788 4014 3039 
Q 4109 3291 4109 3541 
Q 4109 3778 3970 3912 
Q 3831 4047 3626 4097 
Q 3422 4147 3175 4147 
L 2747 4147 
Q 2572 4147 2515 4117 
Q 2459 4088 2413 3928 
L 1997 2272 
z
" transform="scale(0.015625)"/>
      </defs>
      <use xlink:href="#Cmmi10-52" transform="translate(0 0.6875)"/>
     </g>
    </g>
   </g>
   <g id="PathCollection_2">
    <path d="M 72.639222 323.81288 
C 73.576857 323.81288 74.476214 323.440353 75.139222 322.777346 
C 75.80223 322.114338 76.174756 321.21498 76.174756 320.277346 
C 76.174756 319.339711 75.80223 318.440353 75.139222 317.777346 
C 74.476214 317.114338 73.576857 316.741812 72.639222 316.741812 
C 71.701588 316.741812 70.80223 317.114338 70.139222 317.777346 
C 69.476214 318.440353 69.103688 319.339711 69.103688 320.277346 
C 69.103688 321.21498 69.476214 322.114338 70.139222 322.777346 
C 70.80223 323.440353 71.701588 323.81288 72.639222 323.81288 
z
" clip-path="url(#p82b8a7c321)"/>
   </g>
  </g>
 </g>
 <defs>
  <clipPath id="p82b8a7c321">
   <rect x="7.2" y="7.2" width="378.272619" height="324"/>
  </clipPath>
 </defs>
</svg>
