<?xml version="1.0" encoding="utf-8" standalone="no"?>
<!DOCTYPE svg PUBLIC "-//W3C//DTD SVG 1.1//EN"
  "http://www.w3.org/Graphics/SVG/1.1/DTD/svg11.dtd">
<svg xmlns:xlink="http://www.w3.org/1999/xlink" width="392.657738pt" height="338.4pt" viewBox="0 0 392.657738 338.4" xmlns="http://www.w3.org/2000/svg" version="1.1">
 <metadata>
  <rdf:RDF xmlns:dc="http://purl.org/dc/elements/1.1/" xmlns:cc="http://creativecommons.org/ns#" xmlns:rdf="http://www.w3.org/1999/02/22-rdf-syntax-ns#">
   <cc:Work>
    <dc:type rdf:resource="http://purl.org/dc/dcmitype/StillImage"/>
    <dc:date>2025-04-09T11:41:22.375862</dc:date>
    <dc:format>image/svg+xml</dc:format>
    <dc:creator>
     <cc:Agent>
      <dc:title>Matplotlib v3.8.0, https://matplotlib.org/</dc:title>
     </cc:Agent>
    </dc:creator>
   </cc:Work>
  </rdf:RDF>
 </metadata>
 <defs>
  <style type="text/css">*{stroke-linejoin: round; stroke-linecap: butt}</style>
 </defs>
 <g id="figure_1">
  <g id="patch_1">
   <path d="M 0 338.4 
L 392.657738 338.4 
L 392.657738 0 
L 0 0 
z
" style="fill: #ffffff"/>
  </g>
  <g id="axes_1">
   <g id="patch_2">
    <path d="M 7.2 331.2 
L 385.457738 331.2 
L 385.457738 7.2 
L 7.2 7.2 
z
" style="fill: #ffffff"/>
   </g>
   <g id="PathCollection_1">
    <path d="M 378.183551 246.770941 
C 379.121185 246.770941 380.020543 246.398415 380.683551 245.735408 
C 381.346558 245.0724 381.719085 244.173042 381.719085 243.235408 
C 381.719085 242.297773 381.346558 241.398415 380.683551 240.735408 
C 380.020543 240.0724 379.121185 239.699874 378.183551 239.699874 
C 377.245916 239.699874 376.346558 240.0724 375.683551 240.735408 
C 375.020543 241.398415 374.648017 242.297773 374.648017 243.235408 
C 374.648017 244.173042 375.020543 245.0724 375.683551 245.735408 
C 376.346558 246.398415 377.245916 246.770941 378.183551 246.770941 
z
" clip-path="url(#pb5779f9a98)"/>
   </g>
   <g id="PathCollection_2">
    <path d="M 72.63706 323.81429 
C 73.574695 323.81429 74.474052 323.441764 75.13706 322.778756 
C 75.800068 322.115748 76.172594 321.216391 76.172594 320.278756 
C 76.172594 319.341122 75.800068 318.441764 75.13706 317.778756 
C 74.474052 317.115748 73.574695 316.743222 72.63706 316.743222 
C 71.699426 316.743222 70.800068 317.115748 70.13706 317.778756 
C 69.474052 318.441764 69.101526 319.341122 69.101526 320.278756 
C 69.101526 321.216391 69.474052 322.115748 70.13706 322.778756 
C 70.800068 323.441764 71.699426 323.81429 72.63706 323.81429 
z
" clip-path="url(#pb5779f9a98)"/>
   </g>
   <g id="matplotlib.axis_1"/>
   <g id="matplotlib.axis_2"/>
   <g id="line2d_1">
    <path d="M 378.183551 243.235408 
L 345.976665 203.431177 
L 326.009283 178.866776 
L 308.422885 157.581532 
L 296.781358 143.77492 
L 282.337992 127.063288 
L 273.934972 117.596711 
L 266.793679 109.721971 
L 255.818978 97.961899 
L 246.054136 87.886923 
L 237.542933 79.437826 
L 232.32749 74.426469 
L 222.632717 65.473672 
L 217.978542 61.354201 
L 210.293353 54.823694 
L 204.572466 50.194807 
L 195.790832 43.502467 
L 191.15937 40.186345 
L 183.206045 34.858352 
L 174.915693 29.829541 
L 170.117488 27.179651 
L 163.142088 23.689305 
L 157.393505 21.152742 
L 151.519967 18.896817 
L 143.63721 16.436 
L 140.278907 15.595917 
L 135.438171 14.615669 
L 132.735316 14.191181 
L 125.838964 13.526897 
L 121.807824 13.430769 
L 116.799865 13.629111 
L 113.372845 13.977287 
L 108.813241 14.721721 
L 103.921543 15.896006 
L 102.207976 16.403589 
L 99.335061 17.371164 
L 95.041399 19.100266 
L 90.47105 21.333797 
L 86.633889 23.541393 
L 84.831031 24.688795 
L 80.313907 27.88983 
L 75.360679 31.970371 
L 71.21329 35.884157 
L 67.86155 39.405093 
L 63.783409 44.156001 
L 60.05636 48.984529 
L 56.819261 53.590058 
L 53.432918 58.856134 
L 50.259457 64.24777 
L 47.329005 69.659626 
L 44.402656 75.52424 
L 42.210777 80.250467 
L 38.919119 87.952371 
L 35.813038 95.983165 
L 33.067466 103.810183 
L 30.40693 112.175808 
L 27.89578 120.931883 
L 26.269241 127.147806 
L 23.812778 137.562423 
L 22.094106 145.79608 
L 20.235399 155.918628 
L 18.843261 164.679043 
L 17.360552 175.75643 
L 16.208058 186.549901 
L 15.33932 197.393176 
L 14.856828 206.037854 
L 14.509224 217.787034 
L 14.51769 228.49637 
L 14.643027 233.768541 
L 15.14875 244.24929 
L 15.970491 254.140177 
L 17.015321 262.885449 
L 17.830041 268.27975 
L 18.924148 274.348142 
L 20.298382 280.688674 
L 21.810274 286.525921 
L 23.55748 292.207631 
L 25.68735 297.995112 
L 27.210949 301.537779 
L 28.743882 304.69148 
L 29.771237 306.604357 
L 32.480311 310.987323 
L 33.82573 312.852646 
L 36.829363 316.385154 
L 38.665913 318.166904 
L 39.950917 319.261755 
L 42.714251 321.233211 
L 45.272286 322.637923 
L 45.550445 322.768255 
L 48.685227 323.956721 
L 52.07071 324.708918 
L 56.011044 324.969231 
L 57.303537 324.923306 
L 61.601515 324.346152 
L 64.113088 323.728576 
L 67.922321 322.432256 
L 72.63706 320.278756 
L 72.63706 320.278756 
" clip-path="url(#pb5779f9a98)" style="fill: none; stroke: #000000; stroke-linecap: square"/>
   </g>
   <g id="patch_3">
    <path d="M 100.084224 17.104542 
Q 99.981834 17.140475 101.989351 16.435941 
" clip-path="url(#pb5779f9a98)" style="fill: none; stroke: #000000; stroke-width: 2; stroke-linecap: round"/>
    <path d="M 113.080878 17.842363 
L 101.989351 16.435941 
L 109.769405 8.406572 
z
" clip-path="url(#pb5779f9a98)" style="stroke: #000000; stroke-width: 2; stroke-linecap: round"/>
   </g>
   <g id="text_1">
    <g clip-path="url(#pb5779f9a98)">
     <!-- $P$ -->
     <g transform="translate(361.132644 272.448611) scale(0.25 -0.25)">
      <defs>
       <path id="Cmmi10-50" d="M 313 0 
Q 250 0 250 84 
Q 253 100 262 139 
Q 272 178 289 201 
Q 306 225 331 225 
Q 722 225 878 269 
Q 959 297 997 441 
L 1875 3956 
Q 1888 4019 1888 4044 
Q 1888 4113 1813 4122 
Q 1691 4147 1350 4147 
Q 1288 4147 1288 4231 
Q 1291 4247 1300 4286 
Q 1309 4325 1326 4348 
Q 1344 4372 1369 4372 
L 3578 4372 
Q 3881 4372 4165 4264 
Q 4450 4156 4631 3934 
Q 4813 3713 4813 3397 
Q 4813 2991 4527 2672 
Q 4241 2353 3814 2175 
Q 3388 1997 2988 1997 
L 1947 1997 
L 1556 416 
Q 1544 353 1544 325 
Q 1544 300 1551 283 
Q 1559 266 1573 261 
Q 1588 256 1619 250 
Q 1741 225 2081 225 
Q 2144 225 2144 141 
Q 2122 50 2109 25 
Q 2097 0 2034 0 
L 313 0 
z
M 1978 2188 
L 2875 2188 
Q 3497 2188 3822 2522 
Q 3988 2688 4092 3000 
Q 4197 3313 4197 3566 
Q 4197 3881 3956 4014 
Q 3716 4147 3359 4147 
L 2747 4147 
Q 2572 4147 2515 4117 
Q 2459 4088 2413 3928 
L 1978 2188 
z
" transform="scale(0.015625)"/>
      </defs>
      <use xlink:href="#Cmmi10-50" transform="translate(0 0.6875)"/>
     </g>
    </g>
   </g>
   <g id="text_2">
    <g clip-path="url(#pb5779f9a98)">
     <!-- $Q$ -->
     <g transform="translate(84.951826 322.71424) scale(0.25 -0.25)">
      <defs>
       <path id="Cmmi10-51" d="M 1947 -141 
Q 1466 -141 1094 79 
Q 722 300 520 692 
Q 319 1084 319 1563 
Q 319 2259 714 2950 
Q 1109 3641 1756 4077 
Q 2403 4513 3109 4513 
Q 3475 4513 3778 4381 
Q 4081 4250 4290 4017 
Q 4500 3784 4614 3471 
Q 4728 3159 4728 2791 
Q 4728 2366 4581 1936 
Q 4434 1506 4171 1136 
Q 3909 766 3559 484 
Q 3209 203 2809 38 
Q 2850 -256 2934 -425 
Q 3019 -594 3256 -594 
Q 3506 -594 3726 -412 
Q 3947 -231 4006 13 
Q 4019 72 4078 72 
Q 4147 72 4147 -13 
Q 4100 -219 4008 -430 
Q 3916 -641 3786 -823 
Q 3656 -1006 3478 -1123 
Q 3300 -1241 3084 -1241 
Q 2547 -1241 2547 -550 
Q 2547 -509 2562 -332 
Q 2578 -156 2578 -44 
Q 2269 -141 1947 -141 
z
M 1709 300 
Q 1709 44 1991 44 
Q 2275 44 2591 184 
L 2591 244 
Q 2591 503 2509 648 
Q 2428 794 2194 794 
Q 2078 794 1964 723 
Q 1850 653 1779 539 
Q 1709 425 1709 300 
z
M 1544 288 
Q 1544 456 1637 612 
Q 1731 769 1881 864 
Q 2031 959 2203 959 
Q 2481 959 2607 771 
Q 2734 584 2778 281 
Q 3188 525 3500 978 
Q 3813 1431 3977 1973 
Q 4141 2516 4141 3003 
Q 4141 3356 4023 3656 
Q 3906 3956 3664 4140 
Q 3422 4325 3066 4325 
Q 2722 4325 2403 4156 
Q 2084 3988 1813 3706 
Q 1550 3434 1342 3032 
Q 1134 2631 1021 2193 
Q 909 1756 909 1356 
Q 909 947 1068 612 
Q 1228 278 1569 128 
Q 1544 194 1544 288 
z
" transform="scale(0.015625)"/>
      </defs>
      <use xlink:href="#Cmmi10-51" transform="translate(0 0.484375)"/>
     </g>
    </g>
   </g>
  </g>
 </g>
 <defs>
  <clipPath id="pb5779f9a98">
   <rect x="7.2" y="7.2" width="378.257738" height="324"/>
  </clipPath>
 </defs>
</svg>
