<?xml version="1.0" encoding="utf-8" standalone="no"?>
<!DOCTYPE svg PUBLIC "-//W3C//DTD SVG 1.1//EN"
  "http://www.w3.org/Graphics/SVG/1.1/DTD/svg11.dtd">
<svg xmlns:xlink="http://www.w3.org/1999/xlink" width="392.678753pt" height="338.4pt" viewBox="0 0 392.678753 338.4" xmlns="http://www.w3.org/2000/svg" version="1.1">
 <metadata>
  <rdf:RDF xmlns:dc="http://purl.org/dc/elements/1.1/" xmlns:cc="http://creativecommons.org/ns#" xmlns:rdf="http://www.w3.org/1999/02/22-rdf-syntax-ns#">
   <cc:Work>
    <dc:type rdf:resource="http://purl.org/dc/dcmitype/StillImage"/>
    <dc:date>2025-03-06T19:42:54.125078</dc:date>
    <dc:format>image/svg+xml</dc:format>
    <dc:creator>
     <cc:Agent>
      <dc:title>Matplotlib v3.5.1, https://matplotlib.org/</dc:title>
     </cc:Agent>
    </dc:creator>
   </cc:Work>
  </rdf:RDF>
 </metadata>
 <defs>
  <style type="text/css">*{stroke-linejoin: round; stroke-linecap: butt}</style>
 </defs>
 <g id="figure_1">
  <g id="patch_1">
   <path d="M 0 338.4 
L 392.678753 338.4 
L 392.678753 0 
L 0 0 
z
" style="fill: #ffffff"/>
  </g>
  <g id="axes_1">
   <g id="patch_2">
    <path d="M 7.2 331.2 
L 385.478753 331.2 
L 385.478753 7.2 
L 7.2 7.2 
z
" style="fill: #ffffff"/>
   </g>
   <g id="PathCollection_1">
    <path d="M 378.204162 246.765191 
C 379.141797 246.765191 380.041154 246.392665 380.704162 245.729657 
C 381.36717 245.06665 381.739696 244.167292 381.739696 243.229657 
C 381.739696 242.292023 381.36717 241.392665 380.704162 240.729657 
C 380.041154 240.06665 379.141797 239.694123 378.204162 239.694123 
C 377.266527 239.694123 376.36717 240.06665 375.704162 240.729657 
C 375.041154 241.392665 374.668628 242.292023 374.668628 243.229657 
C 374.668628 244.167292 375.041154 245.06665 375.704162 245.729657 
C 376.36717 246.392665 377.266527 246.765191 378.204162 246.765191 
z
" clip-path="url(#p30ba598643)"/>
   </g>
   <g id="PathCollection_2">
    <path d="M 72.639012 323.813245 
C 73.576647 323.813245 74.476005 323.440718 75.139012 322.777711 
C 75.80202 322.114703 76.174546 321.215345 76.174546 320.277711 
C 76.174546 319.340076 75.80202 318.440718 75.139012 317.777711 
C 74.476005 317.114703 73.576647 316.742177 72.639012 316.742177 
C 71.701378 316.742177 70.80202 317.114703 70.139012 317.777711 
C 69.476005 318.440718 69.103478 319.340076 69.103478 320.277711 
C 69.103478 321.215345 69.476005 322.114703 70.139012 322.777711 
C 70.80202 323.440718 71.701378 323.813245 72.639012 323.813245 
z
" clip-path="url(#p30ba598643)"/>
   </g>
   <g id="matplotlib.axis_1"/>
   <g id="matplotlib.axis_2"/>
   <g id="line2d_1">
    <path d="M 378.204162 243.229657 
L 350.829104 209.402384 
L 323.52747 175.807054 
L 306.564915 155.33017 
L 293.371798 139.754461 
L 281.008572 125.522483 
L 268.507846 111.567979 
L 258.020018 100.256528 
L 246.99154 88.809037 
L 237.973227 79.829593 
L 228.962929 71.237511 
L 220.771559 63.785454 
L 211.800096 56.050547 
L 204.859301 50.396499 
L 197.92039 45.052659 
L 190.438724 39.659655 
L 184.351745 35.572193 
L 176.221925 30.561145 
L 169.1513 26.647079 
L 163.814692 23.983837 
L 157.150353 21.030251 
L 150.726121 18.597173 
L 144.240124 16.57897 
L 139.805489 15.466859 
L 135.589501 14.621352 
L 132.682348 14.163241 
L 127.277907 13.59427 
L 123.808168 13.430769 
L 119.563369 13.455512 
L 114.07749 13.871952 
L 110.717098 14.351909 
L 107.411881 14.998649 
L 102.590738 16.267307 
L 100.264512 17.023593 
L 95.045562 19.080455 
L 90.883316 21.097325 
L 86.826797 23.405421 
L 85.268552 24.386342 
L 79.846254 28.231832 
L 77.087136 30.460436 
L 72.599937 34.506145 
L 69.16783 37.976803 
L 64.835671 42.86259 
L 60.55728 48.290945 
L 57.171118 53.053976 
L 53.66617 58.462068 
L 49.630017 65.358031 
L 45.802535 72.642678 
L 42.702019 79.149307 
L 39.337593 86.914269 
L 36.325568 94.586023 
L 33.998733 101.055342 
L 31.125709 109.815447 
L 28.580196 118.435683 
L 26.162352 127.557185 
L 24.025652 136.585899 
L 22.36565 144.415094 
L 20.381408 155.048065 
L 18.788004 165.034661 
L 17.189391 177.181318 
L 16.267077 185.898894 
L 15.336612 197.402044 
L 14.787235 207.618063 
L 14.503989 218.045951 
L 14.485508 226.025808 
L 14.610443 232.733313 
L 14.983779 241.561158 
L 15.521826 249.289299 
L 16.362012 257.749673 
L 17.384135 265.447439 
L 18.333453 271.213753 
L 19.690203 278.028908 
L 21.283923 284.606641 
L 22.9344 290.292704 
L 24.273739 294.276995 
L 26.195302 299.225486 
L 28.27961 303.775476 
L 29.909563 306.849907 
L 32.15944 310.512894 
L 34.309386 313.477076 
L 35.845934 315.316845 
L 38.129904 317.673081 
L 40.799742 319.919957 
L 43.052311 321.439886 
L 45.666396 322.820309 
L 47.824074 323.678871 
L 51.141164 324.55281 
L 53.963992 324.911053 
L 55.936175 324.969231 
L 58.213718 324.853735 
L 60.578732 324.539584 
L 63.455176 323.908806 
L 65.111319 323.429169 
L 68.616137 322.151886 
L 72.639012 320.277711 
L 72.639012 320.277711 
" clip-path="url(#p30ba598643)" style="fill: none; stroke: #000000; stroke-linecap: square"/>
   </g>
   <g id="patch_3">
    <path d="M 99.88306 17.156853 
Q 99.985456 17.120918 97.977945 17.82545 
" clip-path="url(#p30ba598643)" style="fill: none; stroke: #000000; stroke-width: 2; stroke-linecap: round"/>
    <path d="M 86.886418 16.419028 
L 97.977945 17.82545 
L 90.197891 25.854819 
L 86.886418 16.419028 
z
" clip-path="url(#p30ba598643)" style="stroke: #000000; stroke-width: 2; stroke-linecap: round"/>
   </g>
   <g id="text_1">
    <g clip-path="url(#p30ba598643)">
     <!-- $P$ -->
     <g transform="translate(361.152711 272.444223)scale(0.25 -0.25)">
      <defs>
       <path id="Cmmi10-50" d="M 313 0 
Q 250 0 250 84 
Q 253 100 262 139 
Q 272 178 289 201 
Q 306 225 331 225 
Q 722 225 878 269 
Q 959 297 997 441 
L 1875 3956 
Q 1888 4019 1888 4044 
Q 1888 4113 1813 4122 
Q 1691 4147 1350 4147 
Q 1288 4147 1288 4231 
Q 1291 4247 1300 4286 
Q 1309 4325 1326 4348 
Q 1344 4372 1369 4372 
L 3578 4372 
Q 3881 4372 4165 4264 
Q 4450 4156 4631 3934 
Q 4813 3713 4813 3397 
Q 4813 2991 4527 2672 
Q 4241 2353 3814 2175 
Q 3388 1997 2988 1997 
L 1947 1997 
L 1556 416 
Q 1544 353 1544 325 
Q 1544 300 1551 283 
Q 1559 266 1573 261 
Q 1588 256 1619 250 
Q 1741 225 2081 225 
Q 2144 225 2144 141 
Q 2122 50 2109 25 
Q 2097 0 2034 0 
L 313 0 
z
M 1978 2188 
L 2875 2188 
Q 3497 2188 3822 2522 
Q 3988 2688 4092 3000 
Q 4197 3313 4197 3566 
Q 4197 3881 3956 4014 
Q 3716 4147 3359 4147 
L 2747 4147 
Q 2572 4147 2515 4117 
Q 2459 4088 2413 3928 
L 1978 2188 
z
" transform="scale(0.015625)"/>
      </defs>
      <use xlink:href="#Cmmi10-50" transform="translate(0 0.6875)"/>
     </g>
    </g>
   </g>
   <g id="text_2">
    <g clip-path="url(#p30ba598643)">
     <!-- $Q$ -->
     <g transform="translate(84.955141 322.712923)scale(0.25 -0.25)">
      <defs>
       <path id="Cmmi10-51" d="M 1947 -141 
Q 1466 -141 1094 79 
Q 722 300 520 692 
Q 319 1084 319 1563 
Q 319 2259 714 2950 
Q 1109 3641 1756 4077 
Q 2403 4513 3109 4513 
Q 3475 4513 3778 4381 
Q 4081 4250 4290 4017 
Q 4500 3784 4614 3471 
Q 4728 3159 4728 2791 
Q 4728 2366 4581 1936 
Q 4434 1506 4171 1136 
Q 3909 766 3559 484 
Q 3209 203 2809 38 
Q 2850 -256 2934 -425 
Q 3019 -594 3256 -594 
Q 3506 -594 3726 -412 
Q 3947 -231 4006 13 
Q 4019 72 4078 72 
Q 4147 72 4147 -13 
Q 4100 -219 4008 -430 
Q 3916 -641 3786 -823 
Q 3656 -1006 3478 -1123 
Q 3300 -1241 3084 -1241 
Q 2547 -1241 2547 -550 
Q 2547 -509 2562 -332 
Q 2578 -156 2578 -44 
Q 2269 -141 1947 -141 
z
M 1709 300 
Q 1709 44 1991 44 
Q 2275 44 2591 184 
L 2591 244 
Q 2591 503 2509 648 
Q 2428 794 2194 794 
Q 2078 794 1964 723 
Q 1850 653 1779 539 
Q 1709 425 1709 300 
z
M 1544 288 
Q 1544 456 1637 612 
Q 1731 769 1881 864 
Q 2031 959 2203 959 
Q 2481 959 2607 771 
Q 2734 584 2778 281 
Q 3188 525 3500 978 
Q 3813 1431 3977 1973 
Q 4141 2516 4141 3003 
Q 4141 3356 4023 3656 
Q 3906 3956 3664 4140 
Q 3422 4325 3066 4325 
Q 2722 4325 2403 4156 
Q 2084 3988 1813 3706 
Q 1550 3434 1342 3032 
Q 1134 2631 1021 2193 
Q 909 1756 909 1356 
Q 909 947 1068 612 
Q 1228 278 1569 128 
Q 1544 194 1544 288 
z
" transform="scale(0.015625)"/>
      </defs>
      <use xlink:href="#Cmmi10-51" transform="translate(0 0.484375)"/>
     </g>
    </g>
   </g>
  </g>
 </g>
 <defs>
  <clipPath id="p30ba598643">
   <rect x="7.2" y="7.2" width="378.278753" height="324"/>
  </clipPath>
 </defs>
</svg>
