<?xml version="1.0" encoding="utf-8" standalone="no"?>
<!DOCTYPE svg PUBLIC "-//W3C//DTD SVG 1.1//EN"
  "http://www.w3.org/Graphics/SVG/1.1/DTD/svg11.dtd">
<svg xmlns:xlink="http://www.w3.org/1999/xlink" width="392.665581pt" height="338.4pt" viewBox="0 0 392.665581 338.4" xmlns="http://www.w3.org/2000/svg" version="1.1">
 <metadata>
  <rdf:RDF xmlns:dc="http://purl.org/dc/elements/1.1/" xmlns:cc="http://creativecommons.org/ns#" xmlns:rdf="http://www.w3.org/1999/02/22-rdf-syntax-ns#">
   <cc:Work>
    <dc:type rdf:resource="http://purl.org/dc/dcmitype/StillImage"/>
    <dc:date>2025-03-06T19:42:51.422560</dc:date>
    <dc:format>image/svg+xml</dc:format>
    <dc:creator>
     <cc:Agent>
      <dc:title>Matplotlib v3.5.1, https://matplotlib.org/</dc:title>
     </cc:Agent>
    </dc:creator>
   </cc:Work>
  </rdf:RDF>
 </metadata>
 <defs>
  <style type="text/css">*{stroke-linejoin: round; stroke-linecap: butt}</style>
 </defs>
 <g id="figure_1">
  <g id="patch_1">
   <path d="M 0 338.4 
L 392.665581 338.4 
L 392.665581 0 
L 0 0 
z
" style="fill: #ffffff"/>
  </g>
  <g id="axes_1">
   <g id="patch_2">
    <path d="M 7.2 331.2 
L 385.465581 331.2 
L 385.465581 7.2 
L 7.2 7.2 
z
" style="fill: #ffffff"/>
   </g>
   <g id="PathCollection_1">
    <path d="M 137.725053 100.668655 
C 138.662687 100.668655 139.562045 100.296129 140.225053 99.633122 
C 140.888061 98.970114 141.260587 98.070756 141.260587 97.133122 
C 141.260587 96.195487 140.888061 95.296129 140.225053 94.633122 
C 139.562045 93.970114 138.662687 93.597588 137.725053 93.597588 
C 136.787418 93.597588 135.888061 93.970114 135.225053 94.633122 
C 134.562045 95.296129 134.189519 96.195487 134.189519 97.133122 
C 134.189519 98.070756 134.562045 98.970114 135.225053 99.633122 
C 135.888061 100.296129 136.787418 100.668655 137.725053 100.668655 
z
" clip-path="url(#p0cfdd16be5)"/>
   </g>
   <g id="matplotlib.axis_1"/>
   <g id="matplotlib.axis_2"/>
   <g id="line2d_1">
    <path d="M 378.191243 243.240125 
L 351.652204 210.447566 
L 325.803435 178.610606 
L 310.845709 160.482002 
L 297.34506 144.432741 
L 286.000497 131.247222 
L 274.710964 118.458112 
L 263.186263 105.804872 
L 255.619348 97.748436 
L 248.290954 90.15666 
L 239.184406 81.038476 
L 230.546933 72.742928 
L 222.71968 65.548886 
L 214.061247 57.979372 
L 212.045799 56.279444 
L 204.475065 50.115396 
L 201.22441 47.580381 
L 192.176588 40.89954 
L 184.84737 35.916895 
L 179.693722 32.658522 
L 174.388686 29.527445 
L 165.620187 24.877629 
L 160.399875 22.43887 
L 157.23486 21.0864 
L 149.993625 18.367826 
L 145.424364 16.934351 
L 139.844686 15.496502 
L 136.443569 14.796222 
L 132.764765 14.195369 
L 128.430973 13.7045 
L 125.10702 13.493352 
L 120.805976 13.442292 
L 116.140356 13.683146 
L 111.355933 14.267079 
L 108.005371 14.889355 
L 102.789282 16.226979 
L 100.020934 17.128119 
L 96.851224 18.330688 
L 94.086851 19.534183 
L 90.827967 21.14608 
L 87.531116 22.999059 
L 84.752653 24.742514 
L 81.453174 27.039653 
L 77.045604 30.514918 
L 75.2312 32.088194 
L 71.937017 35.16973 
L 69.646454 37.491762 
L 66.755262 40.64481 
L 63.628498 44.350527 
L 59.412096 49.873181 
L 55.372676 55.785077 
L 52.224884 60.858238 
L 49.629785 65.378462 
L 46.828179 70.63395 
L 43.504795 77.428831 
L 41.038141 82.911977 
L 37.8215 90.704687 
L 35.294203 97.411913 
L 32.589634 105.257943 
L 30.11586 113.151033 
L 27.109644 123.88391 
L 25.699992 129.449129 
L 23.47163 139.134243 
L 21.531071 148.717965 
L 19.937268 157.703973 
L 18.107943 169.898811 
L 16.706861 181.557829 
L 15.954659 189.379823 
L 15.210317 199.423832 
L 14.743453 208.810608 
L 14.49911 218.654817 
L 14.511518 228.032818 
L 14.671078 234.594474 
L 15.060841 242.844046 
L 15.539323 249.478474 
L 16.210597 256.400822 
L 17.192051 264.134962 
L 18.407379 271.618837 
L 19.487064 277.089597 
L 21.289811 284.628825 
L 22.97799 290.431874 
L 24.900635 295.98462 
L 26.685804 300.369125 
L 28.960489 305.110927 
L 31.40446 309.357147 
L 33.414452 312.306631 
L 35.176558 314.547483 
L 37.077027 316.645749 
L 40.135159 319.414035 
L 43.015272 321.423768 
L 44.686313 322.354767 
L 47.270491 323.488077 
L 48.592554 323.934375 
L 51.847786 324.681068 
L 55.065429 324.96919 
L 57.670937 324.905423 
L 61.055622 324.460516 
L 64.660461 323.575059 
L 68.996143 322.00016 
L 70.035468 321.545781 
L 72.639119 320.284894 
L 72.639119 320.284894 
" clip-path="url(#p0cfdd16be5)" style="fill: none; stroke: #ffffff; stroke-linecap: square"/>
   </g>
   <g id="line2d_2">
    <path d="M 72.639119 320.284894 
L 77.372695 315.93765 
L 81.66445 311.727044 
L 86.366199 306.763516 
L 89.81037 302.849716 
L 92.97626 299.004302 
L 96.883499 293.863388 
L 99.567389 290.025007 
L 102.656719 285.221947 
L 105.494386 280.356682 
L 107.817971 275.960515 
L 110.391948 270.524411 
L 112.553935 265.344662 
L 114.46805 260.112204 
L 116.066437 255.091124 
L 117.418295 250.184407 
L 118.800645 244.233258 
L 119.823642 238.880359 
L 120.85189 232.09264 
L 121.686198 224.550295 
L 122.145769 218.65691 
L 122.574706 209.953851 
L 122.774137 201.639849 
L 122.84814 188.222541 
L 122.94832 169.545177 
L 123.17127 161.492312 
L 123.58965 153.546156 
L 124.172574 146.538464 
L 124.794114 141.083897 
L 125.712014 134.854894 
L 126.565575 130.17263 
L 127.886013 124.177743 
L 129.311321 118.790222 
L 130.748607 114.110325 
L 132.565777 108.946053 
L 134.567365 103.95686 
L 136.697894 99.236621 
L 137.725053 97.133122 
L 137.725053 97.133122 
" clip-path="url(#p0cfdd16be5)" style="fill: none; stroke: #000000; stroke-linecap: square"/>
   </g>
   <g id="patch_3">
    <path d="M 122.848268 186.393831 
Q 122.848275 185.947527 122.848246 187.737291 
" clip-path="url(#p0cfdd16be5)" style="fill: none; stroke: #000000; stroke-width: 2; stroke-linecap: round"/>
    <path d="M 117.848079 197.737208 
L 122.848246 187.737291 
L 127.848079 197.737375 
L 117.848079 197.737208 
z
" clip-path="url(#p0cfdd16be5)" style="stroke: #000000; stroke-width: 2; stroke-linecap: round"/>
   </g>
   <g id="text_1">
    <g clip-path="url(#p0cfdd16be5)">
     <!-- $Q$ -->
     <g transform="translate(89.417332 318.257261)scale(0.25 -0.25)">
      <defs>
       <path id="Cmmi10-51" d="M 1947 -141 
Q 1466 -141 1094 79 
Q 722 300 520 692 
Q 319 1084 319 1563 
Q 319 2259 714 2950 
Q 1109 3641 1756 4077 
Q 2403 4513 3109 4513 
Q 3475 4513 3778 4381 
Q 4081 4250 4290 4017 
Q 4500 3784 4614 3471 
Q 4728 3159 4728 2791 
Q 4728 2366 4581 1936 
Q 4434 1506 4171 1136 
Q 3909 766 3559 484 
Q 3209 203 2809 38 
Q 2850 -256 2934 -425 
Q 3019 -594 3256 -594 
Q 3506 -594 3726 -412 
Q 3947 -231 4006 13 
Q 4019 72 4078 72 
Q 4147 72 4147 -13 
Q 4100 -219 4008 -430 
Q 3916 -641 3786 -823 
Q 3656 -1006 3478 -1123 
Q 3300 -1241 3084 -1241 
Q 2547 -1241 2547 -550 
Q 2547 -509 2562 -332 
Q 2578 -156 2578 -44 
Q 2269 -141 1947 -141 
z
M 1709 300 
Q 1709 44 1991 44 
Q 2275 44 2591 184 
L 2591 244 
Q 2591 503 2509 648 
Q 2428 794 2194 794 
Q 2078 794 1964 723 
Q 1850 653 1779 539 
Q 1709 425 1709 300 
z
M 1544 288 
Q 1544 456 1637 612 
Q 1731 769 1881 864 
Q 2031 959 2203 959 
Q 2481 959 2607 771 
Q 2734 584 2778 281 
Q 3188 525 3500 978 
Q 3813 1431 3977 1973 
Q 4141 2516 4141 3003 
Q 4141 3356 4023 3656 
Q 3906 3956 3664 4140 
Q 3422 4325 3066 4325 
Q 2722 4325 2403 4156 
Q 2084 3988 1813 3706 
Q 1550 3434 1342 3032 
Q 1134 2631 1021 2193 
Q 909 1756 909 1356 
Q 909 947 1068 612 
Q 1228 278 1569 128 
Q 1544 194 1544 288 
z
" transform="scale(0.015625)"/>
      </defs>
      <use xlink:href="#Cmmi10-51" transform="translate(0 0.484375)"/>
     </g>
    </g>
   </g>
   <g id="text_2">
    <g clip-path="url(#p0cfdd16be5)">
     <!-- $R$ -->
     <g transform="translate(105.909876 117.420665)scale(0.25 -0.25)">
      <defs>
       <path id="Cmmi10-52" d="M 313 0 
Q 250 0 250 84 
Q 253 100 262 139 
Q 272 178 289 201 
Q 306 225 331 225 
Q 722 225 878 269 
Q 959 297 997 441 
L 1875 3956 
Q 1888 4019 1888 4044 
Q 1888 4113 1813 4122 
Q 1691 4147 1350 4147 
Q 1288 4147 1288 4231 
Q 1291 4247 1300 4286 
Q 1309 4325 1326 4348 
Q 1344 4372 1369 4372 
L 3309 4372 
Q 3541 4372 3791 4319 
Q 4041 4266 4250 4152 
Q 4459 4038 4593 3848 
Q 4728 3659 4728 3406 
Q 4728 3084 4515 2831 
Q 4303 2578 3978 2408 
Q 3653 2238 3347 2169 
Q 3597 2078 3756 1879 
Q 3916 1681 3916 1422 
Q 3916 1388 3914 1370 
Q 3913 1353 3909 1331 
L 3859 763 
Q 3853 638 3847 550 
Q 3841 463 3841 409 
Q 3841 234 3892 129 
Q 3944 25 4097 25 
Q 4297 25 4448 211 
Q 4600 397 4647 616 
Q 4675 672 4709 672 
L 4769 672 
Q 4831 672 4831 588 
Q 4784 403 4682 237 
Q 4581 72 4426 -34 
Q 4272 -141 4091 -141 
Q 3716 -141 3452 26 
Q 3188 194 3188 550 
Q 3188 684 3213 788 
L 3353 1356 
Q 3378 1434 3378 1538 
Q 3378 1803 3198 1954 
Q 3019 2106 2747 2106 
L 1959 2106 
L 1538 416 
Q 1522 363 1522 325 
Q 1522 259 1600 250 
Q 1722 225 2059 225 
Q 2125 225 2125 141 
Q 2103 50 2090 25 
Q 2078 0 2016 0 
L 313 0 
z
M 1997 2272 
L 2706 2272 
Q 3403 2272 3756 2625 
Q 3919 2788 4014 3039 
Q 4109 3291 4109 3541 
Q 4109 3778 3970 3912 
Q 3831 4047 3626 4097 
Q 3422 4147 3175 4147 
L 2747 4147 
Q 2572 4147 2515 4117 
Q 2459 4088 2413 3928 
L 1997 2272 
z
" transform="scale(0.015625)"/>
      </defs>
      <use xlink:href="#Cmmi10-52" transform="translate(0 0.6875)"/>
     </g>
    </g>
   </g>
   <g id="PathCollection_2">
    <path d="M 72.639119 323.820428 
C 73.576754 323.820428 74.476111 323.447902 75.139119 322.784894 
C 75.802127 322.121886 76.174653 321.222529 76.174653 320.284894 
C 76.174653 319.34726 75.802127 318.447902 75.139119 317.784894 
C 74.476111 317.121886 73.576754 316.74936 72.639119 316.74936 
C 71.701485 316.74936 70.802127 317.121886 70.139119 317.784894 
C 69.476111 318.447902 69.103585 319.34726 69.103585 320.284894 
C 69.103585 321.222529 69.476111 322.121886 70.139119 322.784894 
C 70.802127 323.447902 71.701485 323.820428 72.639119 323.820428 
z
" clip-path="url(#p0cfdd16be5)"/>
   </g>
  </g>
 </g>
 <defs>
  <clipPath id="p0cfdd16be5">
   <rect x="7.2" y="7.2" width="378.265581" height="324"/>
  </clipPath>
 </defs>
</svg>
