<?xml version="1.0" encoding="utf-8" standalone="no"?>
<!DOCTYPE svg PUBLIC "-//W3C//DTD SVG 1.1//EN"
  "http://www.w3.org/Graphics/SVG/1.1/DTD/svg11.dtd">
<svg xmlns:xlink="http://www.w3.org/1999/xlink" width="392.667369pt" height="338.4pt" viewBox="0 0 392.667369 338.4" xmlns="http://www.w3.org/2000/svg" version="1.1">
 <metadata>
  <rdf:RDF xmlns:dc="http://purl.org/dc/elements/1.1/" xmlns:cc="http://creativecommons.org/ns#" xmlns:rdf="http://www.w3.org/1999/02/22-rdf-syntax-ns#">
   <cc:Work>
    <dc:type rdf:resource="http://purl.org/dc/dcmitype/StillImage"/>
    <dc:date>2025-03-20T14:50:10.424476</dc:date>
    <dc:format>image/svg+xml</dc:format>
    <dc:creator>
     <cc:Agent>
      <dc:title>Matplotlib v3.10.1, https://matplotlib.org/</dc:title>
     </cc:Agent>
    </dc:creator>
   </cc:Work>
  </rdf:RDF>
 </metadata>
 <defs>
  <style type="text/css">*{stroke-linejoin: round; stroke-linecap: butt}</style>
 </defs>
 <g id="figure_1">
  <g id="patch_1">
   <path d="M 0 338.4 
L 392.667369 338.4 
L 392.667369 0 
L 0 0 
z
" style="fill: #ffffff"/>
  </g>
  <g id="axes_1">
   <g id="patch_2">
    <path d="M 7.2 331.2 
L 385.467369 331.2 
L 385.467369 7.2 
L 7.2 7.2 
z
" style="fill: #ffffff"/>
   </g>
   <g id="PathCollection_1">
    <path d="M 378.192997 246.776224 
C 379.130631 246.776224 380.029989 246.403698 380.692997 245.74069 
C 381.356004 245.077683 381.72853 244.178325 381.72853 243.24069 
C 381.72853 242.303056 381.356004 241.403698 380.692997 240.74069 
C 380.029989 240.077683 379.130631 239.705157 378.192997 239.705157 
C 377.255362 239.705157 376.356004 240.077683 375.692997 240.74069 
C 375.029989 241.403698 374.657463 242.303056 374.657463 243.24069 
C 374.657463 244.178325 375.029989 245.077683 375.692997 245.74069 
C 376.356004 246.403698 377.255362 246.776224 378.192997 246.776224 
z
" clip-path="url(#p9d5710470e)"/>
   </g>
   <g id="PathCollection_2">
    <path d="M 137.725356 100.668339 
C 138.66299 100.668339 139.562348 100.295813 140.225356 99.632805 
C 140.888364 98.969798 141.26089 98.07044 141.26089 97.132805 
C 141.26089 96.195171 140.888364 95.295813 140.225356 94.632805 
C 139.562348 93.969798 138.66299 93.597272 137.725356 93.597272 
C 136.787721 93.597272 135.888364 93.969798 135.225356 94.632805 
C 134.562348 95.295813 134.189822 96.195171 134.189822 97.132805 
C 134.189822 98.07044 134.562348 98.969798 135.225356 99.632805 
C 135.888364 100.295813 136.787721 100.668339 137.725356 100.668339 
z
" clip-path="url(#p9d5710470e)"/>
   </g>
   <g id="matplotlib.axis_1"/>
   <g id="matplotlib.axis_2"/>
   <g id="line2d_1">
    <path d="M 378.192997 243.24069 
L 348.059548 206.000493 
L 327.805811 181.057179 
L 310.527517 160.09837 
L 295.32187 142.057731 
L 281.40943 126.001607 
L 270.333169 113.598971 
L 263.448886 106.08682 
L 252.431053 94.417668 
L 243.363954 85.176684 
L 234.131958 76.140996 
L 227.542363 69.942406 
L 218.163155 61.511305 
L 210.98467 55.393013 
L 205.079868 50.593448 
L 200.797907 47.251782 
L 191.647787 40.525717 
L 186.63494 37.094083 
L 184.338574 35.584924 
L 176.129788 30.528434 
L 168.258186 26.204283 
L 163.189066 23.709274 
L 157.384205 21.147074 
L 150.592285 18.571219 
L 147.637676 17.599731 
L 142.393128 16.108637 
L 137.725895 15.043309 
L 135.041923 14.546931 
L 128.949557 13.749715 
L 123.748213 13.44886 
L 119.061424 13.494651 
L 115.596869 13.731159 
L 111.419882 14.25615 
L 108.845972 14.715456 
L 106.164503 15.308268 
L 101.254987 16.70879 
L 97.047463 18.250037 
L 92.444443 20.319117 
L 88.004876 22.717851 
L 84.841526 24.683329 
L 82.481252 26.296007 
L 78.423817 29.37568 
L 73.969145 33.233037 
L 69.928957 37.196359 
L 69.012558 38.160639 
L 65.46947 42.129536 
L 61.223175 47.423013 
L 58.017155 51.841876 
L 55.723767 55.244564 
L 52.293545 60.742027 
L 48.920418 66.66998 
L 46.668448 70.945149 
L 43.613305 77.195611 
L 41.191397 82.558445 
L 38.926291 87.93903 
L 36.238339 94.839587 
L 34.159584 100.611662 
L 32.483518 105.580259 
L 29.992443 113.563827 
L 27.568087 122.152066 
L 25.983002 128.298797 
L 23.636519 138.372549 
L 21.561366 148.556023 
L 19.838924 158.298264 
L 18.26018 168.776714 
L 17.230035 176.864702 
L 16.199288 186.654026 
L 15.457056 195.694231 
L 14.814524 207.025216 
L 14.498066 218.707268 
L 14.551543 230.291987 
L 14.871894 239.41704 
L 15.419569 248.010119 
L 16.040481 254.820539 
L 17.102619 263.511524 
L 18.323509 271.157159 
L 19.814161 278.589445 
L 21.362243 284.901826 
L 22.29247 288.197873 
L 24.122358 293.854954 
L 25.597011 297.775306 
L 27.263422 301.657003 
L 29.690288 306.464215 
L 30.958901 308.642055 
L 33.372737 312.251283 
L 35.475358 314.899706 
L 36.159741 315.673298 
L 38.776548 318.272018 
L 40.841519 319.958484 
L 43.612017 321.776222 
L 44.284728 322.147011 
L 47.444147 323.552809 
L 48.811546 324.001151 
L 51.759741 324.668211 
L 54.977839 324.967929 
L 57.079174 324.94306 
L 60.979645 324.475771 
L 64.460688 323.635597 
L 68.512844 322.20263 
L 72.63903 320.285924 
L 72.63903 320.285924 
" clip-path="url(#p9d5710470e)" style="fill: none; stroke: #000000; stroke-linecap: square"/>
   </g>
   <g id="line2d_2">
    <path d="M 72.63903 320.285924 
L 77.546943 315.772927 
L 81.595217 311.798178 
L 85.910977 307.263045 
L 89.845092 302.809845 
L 94.150943 297.50937 
L 97.54653 292.941665 
L 100.323922 288.891053 
L 103.512183 283.807034 
L 106.562869 278.388246 
L 109.015776 273.516104 
L 111.285366 268.463971 
L 113.446648 262.994252 
L 115.325857 257.507026 
L 116.646321 253.075762 
L 118.117754 247.319914 
L 119.258759 241.96477 
L 120.335867 235.734266 
L 121.141731 229.766681 
L 121.830843 222.899435 
L 122.291275 216.259178 
L 122.643884 207.779853 
L 122.819422 197.55209 
L 123.190554 161.011696 
L 123.587761 153.577328 
L 124.158551 146.681864 
L 125.005074 139.503888 
L 125.983752 133.274949 
L 127.263281 126.855804 
L 128.530914 121.629533 
L 130.149088 115.98767 
L 131.980044 110.534998 
L 133.673484 106.108933 
L 136.047181 100.623917 
L 137.725356 97.132805 
L 137.725356 97.132805 
" clip-path="url(#p9d5710470e)" style="fill: none; stroke: #000000; stroke-linecap: square"/>
   </g>
   <g id="patch_3">
    <path d="M 100.086865 17.104291 
Q 99.984472 17.140226 101.991987 16.435692 
" clip-path="url(#p9d5710470e)" style="fill: none; stroke: #000000; stroke-width: 2; stroke-linecap: round"/>
    <path d="M 113.083514 17.842114 
L 101.991987 16.435692 
L 109.772041 8.406323 
z
" clip-path="url(#p9d5710470e)" style="stroke: #000000; stroke-width: 2; stroke-linecap: round"/>
   </g>
   <g id="patch_4">
    <path d="M 122.848481 186.394053 
Q 122.848489 185.947747 122.848459 187.737508 
" clip-path="url(#p9d5710470e)" style="fill: none; stroke: #000000; stroke-width: 2; stroke-linecap: round"/>
    <path d="M 117.848292 197.737425 
L 122.848459 187.737508 
L 127.848292 197.737592 
z
" clip-path="url(#p9d5710470e)" style="stroke: #000000; stroke-width: 2; stroke-linecap: round"/>
   </g>
   <g id="text_1">
    <g clip-path="url(#p9d5710470e)">
     <!-- $P$ -->
     <g transform="translate(361.141872 272.45444) scale(0.25 -0.25)">
      <defs>
       <path id="Cmmi10-50" d="M 313 0 
Q 250 0 250 84 
Q 253 100 262 139 
Q 272 178 289 201 
Q 306 225 331 225 
Q 722 225 878 269 
Q 959 297 997 441 
L 1875 3956 
Q 1888 4019 1888 4044 
Q 1888 4113 1813 4122 
Q 1691 4147 1350 4147 
Q 1288 4147 1288 4231 
Q 1291 4247 1300 4286 
Q 1309 4325 1326 4348 
Q 1344 4372 1369 4372 
L 3578 4372 
Q 3881 4372 4165 4264 
Q 4450 4156 4631 3934 
Q 4813 3713 4813 3397 
Q 4813 2991 4527 2672 
Q 4241 2353 3814 2175 
Q 3388 1997 2988 1997 
L 1947 1997 
L 1556 416 
Q 1544 353 1544 325 
Q 1544 300 1551 283 
Q 1559 266 1573 261 
Q 1588 256 1619 250 
Q 1741 225 2081 225 
Q 2144 225 2144 141 
Q 2122 50 2109 25 
Q 2097 0 2034 0 
L 313 0 
z
M 1978 2188 
L 2875 2188 
Q 3497 2188 3822 2522 
Q 3988 2688 4092 3000 
Q 4197 3313 4197 3566 
Q 4197 3881 3956 4014 
Q 3716 4147 3359 4147 
L 2747 4147 
Q 2572 4147 2515 4117 
Q 2459 4088 2413 3928 
L 1978 2188 
z
" transform="scale(0.015625)"/>
      </defs>
      <use xlink:href="#Cmmi10-50" transform="translate(0 0.6875)"/>
     </g>
    </g>
   </g>
   <g id="text_2">
    <g clip-path="url(#p9d5710470e)">
     <!-- $R$ -->
     <g transform="translate(150.540668 81.715931) scale(0.25 -0.25)">
      <defs>
       <path id="Cmmi10-52" d="M 313 0 
Q 250 0 250 84 
Q 253 100 262 139 
Q 272 178 289 201 
Q 306 225 331 225 
Q 722 225 878 269 
Q 959 297 997 441 
L 1875 3956 
Q 1888 4019 1888 4044 
Q 1888 4113 1813 4122 
Q 1691 4147 1350 4147 
Q 1288 4147 1288 4231 
Q 1291 4247 1300 4286 
Q 1309 4325 1326 4348 
Q 1344 4372 1369 4372 
L 3309 4372 
Q 3541 4372 3791 4319 
Q 4041 4266 4250 4152 
Q 4459 4038 4593 3848 
Q 4728 3659 4728 3406 
Q 4728 3084 4515 2831 
Q 4303 2578 3978 2408 
Q 3653 2238 3347 2169 
Q 3597 2078 3756 1879 
Q 3916 1681 3916 1422 
Q 3916 1388 3914 1370 
Q 3913 1353 3909 1331 
L 3859 763 
Q 3853 638 3847 550 
Q 3841 463 3841 409 
Q 3841 234 3892 129 
Q 3944 25 4097 25 
Q 4297 25 4448 211 
Q 4600 397 4647 616 
Q 4675 672 4709 672 
L 4769 672 
Q 4831 672 4831 588 
Q 4784 403 4682 237 
Q 4581 72 4426 -34 
Q 4272 -141 4091 -141 
Q 3716 -141 3452 26 
Q 3188 194 3188 550 
Q 3188 684 3213 788 
L 3353 1356 
Q 3378 1434 3378 1538 
Q 3378 1803 3198 1954 
Q 3019 2106 2747 2106 
L 1959 2106 
L 1538 416 
Q 1522 363 1522 325 
Q 1522 259 1600 250 
Q 1722 225 2059 225 
Q 2125 225 2125 141 
Q 2103 50 2090 25 
Q 2078 0 2016 0 
L 313 0 
z
M 1997 2272 
L 2706 2272 
Q 3403 2272 3756 2625 
Q 3919 2788 4014 3039 
Q 4109 3291 4109 3541 
Q 4109 3778 3970 3912 
Q 3831 4047 3626 4097 
Q 3422 4147 3175 4147 
L 2747 4147 
Q 2572 4147 2515 4117 
Q 2459 4088 2413 3928 
L 1997 2272 
z
" transform="scale(0.015625)"/>
      </defs>
      <use xlink:href="#Cmmi10-52" transform="translate(0 0.6875)"/>
     </g>
    </g>
   </g>
  </g>
 </g>
 <defs>
  <clipPath id="p9d5710470e">
   <rect x="7.2" y="7.2" width="378.267369" height="324"/>
  </clipPath>
 </defs>
</svg>
