<?xml version="1.0" encoding="utf-8" standalone="no"?>
<!DOCTYPE svg PUBLIC "-//W3C//DTD SVG 1.1//EN"
  "http://www.w3.org/Graphics/SVG/1.1/DTD/svg11.dtd">
<svg xmlns:xlink="http://www.w3.org/1999/xlink" width="392.664987pt" height="338.4pt" viewBox="0 0 392.664987 338.4" xmlns="http://www.w3.org/2000/svg" version="1.1">
 <metadata>
  <rdf:RDF xmlns:dc="http://purl.org/dc/elements/1.1/" xmlns:cc="http://creativecommons.org/ns#" xmlns:rdf="http://www.w3.org/1999/02/22-rdf-syntax-ns#">
   <cc:Work>
    <dc:type rdf:resource="http://purl.org/dc/dcmitype/StillImage"/>
    <dc:date>2025-04-09T11:38:01.714643</dc:date>
    <dc:format>image/svg+xml</dc:format>
    <dc:creator>
     <cc:Agent>
      <dc:title>Matplotlib v3.8.0, https://matplotlib.org/</dc:title>
     </cc:Agent>
    </dc:creator>
   </cc:Work>
  </rdf:RDF>
 </metadata>
 <defs>
  <style type="text/css">*{stroke-linejoin: round; stroke-linecap: butt}</style>
 </defs>
 <g id="figure_1">
  <g id="patch_1">
   <path d="M 0 338.4 
L 392.664987 338.4 
L 392.664987 0 
L 0 0 
z
" style="fill: #ffffff"/>
  </g>
  <g id="axes_1">
   <g id="patch_2">
    <path d="M 7.2 331.2 
L 385.464987 331.2 
L 385.464987 7.2 
L 7.2 7.2 
z
" style="fill: #ffffff"/>
   </g>
   <g id="PathCollection_1">
    <path d="M 378.190661 246.772821 
C 379.128295 246.772821 380.027653 246.400295 380.690661 245.737287 
C 381.353668 245.074279 381.726194 244.174921 381.726194 243.237287 
C 381.726194 242.299652 381.353668 241.400295 380.690661 240.737287 
C 380.027653 240.074279 379.128295 239.701753 378.190661 239.701753 
C 377.253026 239.701753 376.353668 240.074279 375.690661 240.737287 
C 375.027653 241.400295 374.655127 242.299652 374.655127 243.237287 
C 374.655127 244.174921 375.027653 245.074279 375.690661 245.737287 
C 376.353668 246.400295 377.253026 246.772821 378.190661 246.772821 
z
" clip-path="url(#pb57e68c27c)"/>
   </g>
   <g id="PathCollection_2">
    <path d="M 72.639088 323.817451 
C 73.576722 323.817451 74.47608 323.444925 75.139088 322.781917 
C 75.802095 322.118909 76.174622 321.219551 76.174622 320.281917 
C 76.174622 319.344282 75.802095 318.444925 75.139088 317.781917 
C 74.47608 317.118909 73.576722 316.746383 72.639088 316.746383 
C 71.701453 316.746383 70.802095 317.118909 70.139088 317.781917 
C 69.47608 318.444925 69.103554 319.344282 69.103554 320.281917 
C 69.103554 321.219551 69.47608 322.118909 70.139088 322.781917 
C 70.802095 323.444925 71.701453 323.817451 72.639088 323.817451 
z
" clip-path="url(#pb57e68c27c)"/>
   </g>
   <g id="matplotlib.axis_1"/>
   <g id="matplotlib.axis_2"/>
   <g id="line2d_1">
    <path d="M 378.190661 243.237287 
L 350.57615 209.113672 
L 324.990369 177.615642 
L 309.429419 158.780505 
L 297.918091 145.104463 
L 283.279374 128.129995 
L 270.982875 114.315322 
L 258.101289 100.365289 
L 248.024478 89.882533 
L 236.689248 78.603166 
L 226.869193 69.32062 
L 222.727544 65.553705 
L 215.414429 59.131902 
L 206.130257 51.430155 
L 198.782314 45.71956 
L 192.186136 40.903989 
L 187.249208 37.503331 
L 179.893532 32.778617 
L 176.704766 30.863583 
L 168.479405 26.317107 
L 164.351785 24.259416 
L 156.289054 20.698885 
L 154.38012 19.94867 
L 149.237206 18.112695 
L 145.324714 16.903229 
L 139.625219 15.444818 
L 135.477334 14.620018 
L 130.387532 13.894038 
L 125.062463 13.489104 
L 120.908867 13.438082 
L 118.255801 13.532342 
L 114.946257 13.793788 
L 110.147513 14.468327 
L 106.584984 15.20578 
L 101.5407 16.614087 
L 99.42115 17.339021 
L 96.465452 18.48738 
L 90.83871 21.137941 
L 86.751858 23.468428 
L 83.717656 25.433573 
L 78.981172 28.927131 
L 75.129271 32.176649 
L 73.773423 33.412834 
L 68.862407 38.319313 
L 64.378842 43.429635 
L 61.987671 46.422765 
L 58.512738 51.132036 
L 54.421061 57.271141 
L 52.192461 60.910268 
L 48.3472 67.731404 
L 44.712479 74.882344 
L 41.984021 80.759516 
L 38.89077 88.025035 
L 36.669049 93.691829 
L 33.509524 102.502158 
L 30.887401 110.605234 
L 27.818097 121.222777 
L 25.91985 128.552898 
L 23.365752 139.623838 
L 21.537826 148.679943 
L 19.821292 158.405983 
L 18.289662 168.563302 
L 17.148973 177.561954 
L 16.285271 185.745201 
L 15.579571 194.019682 
L 14.854031 206.125452 
L 14.556822 215.141983 
L 14.474327 223.054406 
L 14.662203 234.326905 
L 15.016564 242.094935 
L 15.712296 251.450833 
L 16.387389 257.952397 
L 17.553647 266.546052 
L 18.810971 273.76574 
L 20.389908 281.069624 
L 21.483669 285.345397 
L 23.104987 290.826828 
L 24.788427 295.683143 
L 26.452653 299.829646 
L 28.107456 303.428308 
L 29.809997 306.674209 
L 32.382708 310.845493 
L 34.606114 313.851792 
L 35.94393 315.429439 
L 38.687277 318.187908 
L 40.145935 319.419582 
L 42.880154 321.338265 
L 44.644017 322.330202 
L 47.571577 323.594381 
L 50.297246 324.382647 
L 53.259654 324.856762 
L 56.223039 324.969231 
L 59.572501 324.700703 
L 62.674148 324.110167 
L 65.927738 323.167016 
L 70.501604 321.329783 
L 72.639088 320.281917 
L 72.639088 320.281917 
" clip-path="url(#pb57e68c27c)" style="fill: none; stroke: #000000; stroke-linecap: square"/>
   </g>
   <g id="patch_3">
    <path d="M 99.881925 17.174528 
Q 99.984316 17.138594 97.976801 17.843127 
" clip-path="url(#pb57e68c27c)" style="fill: none; stroke: #000000; stroke-width: 2; stroke-linecap: round"/>
    <path d="M 86.885273 16.436706 
L 97.976801 17.843127 
L 90.196747 25.872496 
z
" clip-path="url(#pb57e68c27c)" style="stroke: #000000; stroke-width: 2; stroke-linecap: round"/>
   </g>
   <g id="text_1">
    <g clip-path="url(#pb57e68c27c)">
     <!-- $P$ -->
     <g transform="translate(361.139606 272.450861) scale(0.25 -0.25)">
      <defs>
       <path id="Cmmi10-50" d="M 313 0 
Q 250 0 250 84 
Q 253 100 262 139 
Q 272 178 289 201 
Q 306 225 331 225 
Q 722 225 878 269 
Q 959 297 997 441 
L 1875 3956 
Q 1888 4019 1888 4044 
Q 1888 4113 1813 4122 
Q 1691 4147 1350 4147 
Q 1288 4147 1288 4231 
Q 1291 4247 1300 4286 
Q 1309 4325 1326 4348 
Q 1344 4372 1369 4372 
L 3578 4372 
Q 3881 4372 4165 4264 
Q 4450 4156 4631 3934 
Q 4813 3713 4813 3397 
Q 4813 2991 4527 2672 
Q 4241 2353 3814 2175 
Q 3388 1997 2988 1997 
L 1947 1997 
L 1556 416 
Q 1544 353 1544 325 
Q 1544 300 1551 283 
Q 1559 266 1573 261 
Q 1588 256 1619 250 
Q 1741 225 2081 225 
Q 2144 225 2144 141 
Q 2122 50 2109 25 
Q 2097 0 2034 0 
L 313 0 
z
M 1978 2188 
L 2875 2188 
Q 3497 2188 3822 2522 
Q 3988 2688 4092 3000 
Q 4197 3313 4197 3566 
Q 4197 3881 3956 4014 
Q 3716 4147 3359 4147 
L 2747 4147 
Q 2572 4147 2515 4117 
Q 2459 4088 2413 3928 
L 1978 2188 
z
" transform="scale(0.015625)"/>
      </defs>
      <use xlink:href="#Cmmi10-50" transform="translate(0 0.6875)"/>
     </g>
    </g>
   </g>
   <g id="text_2">
    <g clip-path="url(#pb57e68c27c)">
     <!-- $Q$ -->
     <g transform="translate(84.954225 322.717327) scale(0.25 -0.25)">
      <defs>
       <path id="Cmmi10-51" d="M 1947 -141 
Q 1466 -141 1094 79 
Q 722 300 520 692 
Q 319 1084 319 1563 
Q 319 2259 714 2950 
Q 1109 3641 1756 4077 
Q 2403 4513 3109 4513 
Q 3475 4513 3778 4381 
Q 4081 4250 4290 4017 
Q 4500 3784 4614 3471 
Q 4728 3159 4728 2791 
Q 4728 2366 4581 1936 
Q 4434 1506 4171 1136 
Q 3909 766 3559 484 
Q 3209 203 2809 38 
Q 2850 -256 2934 -425 
Q 3019 -594 3256 -594 
Q 3506 -594 3726 -412 
Q 3947 -231 4006 13 
Q 4019 72 4078 72 
Q 4147 72 4147 -13 
Q 4100 -219 4008 -430 
Q 3916 -641 3786 -823 
Q 3656 -1006 3478 -1123 
Q 3300 -1241 3084 -1241 
Q 2547 -1241 2547 -550 
Q 2547 -509 2562 -332 
Q 2578 -156 2578 -44 
Q 2269 -141 1947 -141 
z
M 1709 300 
Q 1709 44 1991 44 
Q 2275 44 2591 184 
L 2591 244 
Q 2591 503 2509 648 
Q 2428 794 2194 794 
Q 2078 794 1964 723 
Q 1850 653 1779 539 
Q 1709 425 1709 300 
z
M 1544 288 
Q 1544 456 1637 612 
Q 1731 769 1881 864 
Q 2031 959 2203 959 
Q 2481 959 2607 771 
Q 2734 584 2778 281 
Q 3188 525 3500 978 
Q 3813 1431 3977 1973 
Q 4141 2516 4141 3003 
Q 4141 3356 4023 3656 
Q 3906 3956 3664 4140 
Q 3422 4325 3066 4325 
Q 2722 4325 2403 4156 
Q 2084 3988 1813 3706 
Q 1550 3434 1342 3032 
Q 1134 2631 1021 2193 
Q 909 1756 909 1356 
Q 909 947 1068 612 
Q 1228 278 1569 128 
Q 1544 194 1544 288 
z
" transform="scale(0.015625)"/>
      </defs>
      <use xlink:href="#Cmmi10-51" transform="translate(0 0.484375)"/>
     </g>
    </g>
   </g>
  </g>
 </g>
 <defs>
  <clipPath id="pb57e68c27c">
   <rect x="7.2" y="7.2" width="378.264987" height="324"/>
  </clipPath>
 </defs>
</svg>
