<?xml version="1.0" encoding="utf-8" standalone="no"?>
<!DOCTYPE svg PUBLIC "-//W3C//DTD SVG 1.1//EN"
  "http://www.w3.org/Graphics/SVG/1.1/DTD/svg11.dtd">
<svg xmlns:xlink="http://www.w3.org/1999/xlink" width="392.678057pt" height="338.4pt" viewBox="0 0 392.678057 338.4" xmlns="http://www.w3.org/2000/svg" version="1.1">
 <metadata>
  <rdf:RDF xmlns:dc="http://purl.org/dc/elements/1.1/" xmlns:cc="http://creativecommons.org/ns#" xmlns:rdf="http://www.w3.org/1999/02/22-rdf-syntax-ns#">
   <cc:Work>
    <dc:type rdf:resource="http://purl.org/dc/dcmitype/StillImage"/>
    <dc:date>2025-03-06T19:42:48.756961</dc:date>
    <dc:format>image/svg+xml</dc:format>
    <dc:creator>
     <cc:Agent>
      <dc:title>Matplotlib v3.5.1, https://matplotlib.org/</dc:title>
     </cc:Agent>
    </dc:creator>
   </cc:Work>
  </rdf:RDF>
 </metadata>
 <defs>
  <style type="text/css">*{stroke-linejoin: round; stroke-linecap: butt}</style>
 </defs>
 <g id="figure_1">
  <g id="patch_1">
   <path d="M 0 338.4 
L 392.678057 338.4 
L 392.678057 0 
L 0 0 
z
" style="fill: #ffffff"/>
  </g>
  <g id="axes_1">
   <g id="patch_2">
    <path d="M 7.2 331.2 
L 385.478057 331.2 
L 385.478057 7.2 
L 7.2 7.2 
z
" style="fill: #ffffff"/>
   </g>
   <g id="PathCollection_1">
    <path d="M 378.203479 246.772606 
C 379.141113 246.772606 380.040471 246.40008 380.703479 245.737072 
C 381.366486 245.074065 381.739013 244.174707 381.739013 243.237072 
C 381.739013 242.299438 381.366486 241.40008 380.703479 240.737072 
C 380.040471 240.074065 379.141113 239.701538 378.203479 239.701538 
C 377.265844 239.701538 376.366486 240.074065 375.703479 240.737072 
C 375.040471 241.40008 374.667945 242.299438 374.667945 243.237072 
C 374.667945 244.174707 375.040471 245.074065 375.703479 245.737072 
C 376.366486 246.40008 377.265844 246.772606 378.203479 246.772606 
z
" clip-path="url(#pbb6a50fdb8)"/>
   </g>
   <g id="PathCollection_2">
    <path d="M 137.7285 100.660263 
C 138.666135 100.660263 139.565492 100.287737 140.2285 99.624729 
C 140.891508 98.961721 141.264034 98.062363 141.264034 97.124729 
C 141.264034 96.187094 140.891508 95.287737 140.2285 94.624729 
C 139.565492 93.961721 138.666135 93.589195 137.7285 93.589195 
C 136.790865 93.589195 135.891508 93.961721 135.2285 94.624729 
C 134.565492 95.287737 134.192966 96.187094 134.192966 97.124729 
C 134.192966 98.062363 134.565492 98.961721 135.2285 99.624729 
C 135.891508 100.287737 136.790865 100.660263 137.7285 100.660263 
z
" clip-path="url(#pbb6a50fdb8)"/>
   </g>
   <g id="matplotlib.axis_1"/>
   <g id="matplotlib.axis_2"/>
   <g id="line2d_1">
    <path d="M 378.203479 243.237072 
L 346.353034 203.873519 
L 325.117666 177.755148 
L 307.036563 155.901588 
L 295.64045 142.414848 
L 281.207007 125.755968 
L 270.194347 113.430427 
L 261.721615 104.212396 
L 254.760793 96.831468 
L 243.752003 85.550163 
L 236.203403 78.119133 
L 228.34654 70.672733 
L 218.999537 62.229458 
L 210.295 54.807515 
L 202.075436 48.222698 
L 195.065668 42.956722 
L 190.977101 40.042747 
L 183.058564 34.748426 
L 175.900215 30.38225 
L 169.839044 27.017274 
L 164.402124 24.272746 
L 160.209679 22.341855 
L 152.877445 19.373661 
L 147.321839 17.489828 
L 140.237341 15.573898 
L 135.672826 14.644671 
L 130.730525 13.923361 
L 127.624822 13.628196 
L 123.384493 13.430769 
L 120.438359 13.438504 
L 116.90139 13.610931 
L 112.958997 14.021188 
L 110.884087 14.332853 
L 106.524379 15.21174 
L 101.736484 16.542983 
L 97.048312 18.239981 
L 94.432574 19.365195 
L 90.127547 21.510451 
L 85.719863 24.106158 
L 82.704568 26.128713 
L 78.277834 29.484936 
L 74.223995 32.989324 
L 70.518507 36.580258 
L 66.97808 40.383196 
L 65.25972 42.368244 
L 60.580176 48.270469 
L 56.875857 53.500637 
L 53.863023 58.155244 
L 49.612917 65.399761 
L 47.054359 70.1852 
L 43.049645 78.401797 
L 40.335849 84.539113 
L 37.984313 90.282037 
L 35.145929 97.813975 
L 32.62858 105.130201 
L 31.053028 110.062361 
L 28.351824 119.268304 
L 26.04715 128.032525 
L 24.476521 134.606551 
L 22.320328 144.6563 
L 20.489208 154.442451 
L 19.393098 161.06751 
L 17.788047 172.316731 
L 16.91202 179.646173 
L 16.110375 187.608246 
L 15.304159 197.92461 
L 14.776007 207.941569 
L 14.509373 217.771825 
L 14.474578 223.899303 
L 14.595065 232.12921 
L 14.902766 240.037807 
L 15.501277 249.02997 
L 16.003161 254.462139 
L 17.103595 263.519235 
L 18.229409 270.627976 
L 19.49493 277.128653 
L 21.138755 284.058787 
L 22.511347 288.927407 
L 24.55177 295.047924 
L 26.125926 299.064062 
L 28.6891 304.588823 
L 30.600729 308.046825 
L 32.503629 311.025344 
L 35.234628 314.616215 
L 37.47164 317.043157 
L 39.783968 319.130971 
L 42.309116 320.97999 
L 43.707017 321.828811 
L 45.722423 322.852024 
L 48.939622 324.037202 
L 52.371821 324.757087 
L 54.366316 324.942166 
L 57.202422 324.935401 
L 59.579227 324.70276 
L 61.214443 324.430201 
L 64.558108 323.605822 
L 67.607946 322.561975 
L 70.018566 321.553646 
L 72.640188 320.284657 
L 72.640188 320.284657 
" clip-path="url(#pbb6a50fdb8)" style="fill: none; stroke: #000000; stroke-linecap: square"/>
   </g>
   <g id="line2d_2">
    <path d="M 72.640188 320.284657 
L 77.39433 315.917887 
L 80.854741 312.543955 
L 85.627963 307.57099 
L 89.057549 303.728715 
L 93.071763 298.885433 
L 96.404058 294.522296 
L 99.484613 290.149379 
L 102.461255 285.541817 
L 105.072308 281.114704 
L 107.96297 275.674413 
L 110.058949 271.270886 
L 112.499843 265.486897 
L 114.189545 260.92498 
L 116.022132 255.246704 
L 117.325222 250.554486 
L 118.521311 245.543845 
L 119.68926 239.658915 
L 120.569835 234.167037 
L 121.280409 228.578235 
L 121.912714 221.922315 
L 122.398562 214.254778 
L 122.692802 206.024932 
L 122.836539 195.26587 
L 123.064446 164.704278 
L 123.442019 155.933622 
L 123.93794 149.073974 
L 124.65594 142.200288 
L 125.641776 135.291083 
L 126.815414 128.94779 
L 127.849659 124.33313 
L 129.429661 118.383318 
L 130.756548 114.088073 
L 132.760395 108.433021 
L 134.940985 103.08945 
L 137.084248 98.432292 
L 137.7285 97.124729 
L 137.7285 97.124729 
" clip-path="url(#pbb6a50fdb8)" style="fill: none; stroke: #000000; stroke-linecap: square"/>
   </g>
   <g id="patch_3">
    <path d="M 100.08886 17.093772 
Q 99.986465 17.129708 101.993976 16.425175 
" clip-path="url(#pbb6a50fdb8)" style="fill: none; stroke: #000000; stroke-width: 2; stroke-linecap: round"/>
    <path d="M 113.085504 17.831597 
L 101.993976 16.425175 
L 109.77403 8.395807 
L 113.085504 17.831597 
z
" clip-path="url(#pbb6a50fdb8)" style="stroke: #000000; stroke-width: 2; stroke-linecap: round"/>
   </g>
   <g id="patch_4">
    <path d="M 122.851171 186.3887 
Q 122.851179 185.94238 122.851149 187.732128 
" clip-path="url(#pbb6a50fdb8)" style="fill: none; stroke: #000000; stroke-width: 2; stroke-linecap: round"/>
    <path d="M 117.850982 197.732045 
L 122.851149 187.732128 
L 127.850982 197.732212 
L 117.850982 197.732045 
z
" clip-path="url(#pbb6a50fdb8)" style="stroke: #000000; stroke-width: 2; stroke-linecap: round"/>
   </g>
   <g id="text_1">
    <g clip-path="url(#pbb6a50fdb8)">
     <!-- $P$ -->
     <g transform="translate(361.152082 272.451503)scale(0.25 -0.25)">
      <defs>
       <path id="Cmmi10-50" d="M 313 0 
Q 250 0 250 84 
Q 253 100 262 139 
Q 272 178 289 201 
Q 306 225 331 225 
Q 722 225 878 269 
Q 959 297 997 441 
L 1875 3956 
Q 1888 4019 1888 4044 
Q 1888 4113 1813 4122 
Q 1691 4147 1350 4147 
Q 1288 4147 1288 4231 
Q 1291 4247 1300 4286 
Q 1309 4325 1326 4348 
Q 1344 4372 1369 4372 
L 3578 4372 
Q 3881 4372 4165 4264 
Q 4450 4156 4631 3934 
Q 4813 3713 4813 3397 
Q 4813 2991 4527 2672 
Q 4241 2353 3814 2175 
Q 3388 1997 2988 1997 
L 1947 1997 
L 1556 416 
Q 1544 353 1544 325 
Q 1544 300 1551 283 
Q 1559 266 1573 261 
Q 1588 256 1619 250 
Q 1741 225 2081 225 
Q 2144 225 2144 141 
Q 2122 50 2109 25 
Q 2097 0 2034 0 
L 313 0 
z
M 1978 2188 
L 2875 2188 
Q 3497 2188 3822 2522 
Q 3988 2688 4092 3000 
Q 4197 3313 4197 3566 
Q 4197 3881 3956 4014 
Q 3716 4147 3359 4147 
L 2747 4147 
Q 2572 4147 2515 4117 
Q 2459 4088 2413 3928 
L 1978 2188 
z
" transform="scale(0.015625)"/>
      </defs>
      <use xlink:href="#Cmmi10-50" transform="translate(0 0.6875)"/>
     </g>
    </g>
   </g>
   <g id="text_2">
    <g clip-path="url(#pbb6a50fdb8)">
     <!-- $R$ -->
     <g transform="translate(150.544493 81.707173)scale(0.25 -0.25)">
      <defs>
       <path id="Cmmi10-52" d="M 313 0 
Q 250 0 250 84 
Q 253 100 262 139 
Q 272 178 289 201 
Q 306 225 331 225 
Q 722 225 878 269 
Q 959 297 997 441 
L 1875 3956 
Q 1888 4019 1888 4044 
Q 1888 4113 1813 4122 
Q 1691 4147 1350 4147 
Q 1288 4147 1288 4231 
Q 1291 4247 1300 4286 
Q 1309 4325 1326 4348 
Q 1344 4372 1369 4372 
L 3309 4372 
Q 3541 4372 3791 4319 
Q 4041 4266 4250 4152 
Q 4459 4038 4593 3848 
Q 4728 3659 4728 3406 
Q 4728 3084 4515 2831 
Q 4303 2578 3978 2408 
Q 3653 2238 3347 2169 
Q 3597 2078 3756 1879 
Q 3916 1681 3916 1422 
Q 3916 1388 3914 1370 
Q 3913 1353 3909 1331 
L 3859 763 
Q 3853 638 3847 550 
Q 3841 463 3841 409 
Q 3841 234 3892 129 
Q 3944 25 4097 25 
Q 4297 25 4448 211 
Q 4600 397 4647 616 
Q 4675 672 4709 672 
L 4769 672 
Q 4831 672 4831 588 
Q 4784 403 4682 237 
Q 4581 72 4426 -34 
Q 4272 -141 4091 -141 
Q 3716 -141 3452 26 
Q 3188 194 3188 550 
Q 3188 684 3213 788 
L 3353 1356 
Q 3378 1434 3378 1538 
Q 3378 1803 3198 1954 
Q 3019 2106 2747 2106 
L 1959 2106 
L 1538 416 
Q 1522 363 1522 325 
Q 1522 259 1600 250 
Q 1722 225 2059 225 
Q 2125 225 2125 141 
Q 2103 50 2090 25 
Q 2078 0 2016 0 
L 313 0 
z
M 1997 2272 
L 2706 2272 
Q 3403 2272 3756 2625 
Q 3919 2788 4014 3039 
Q 4109 3291 4109 3541 
Q 4109 3778 3970 3912 
Q 3831 4047 3626 4097 
Q 3422 4147 3175 4147 
L 2747 4147 
Q 2572 4147 2515 4117 
Q 2459 4088 2413 3928 
L 1997 2272 
z
" transform="scale(0.015625)"/>
      </defs>
      <use xlink:href="#Cmmi10-52" transform="translate(0 0.6875)"/>
     </g>
    </g>
   </g>
  </g>
 </g>
 <defs>
  <clipPath id="pbb6a50fdb8">
   <rect x="7.2" y="7.2" width="378.278057" height="324"/>
  </clipPath>
 </defs>
</svg>
