<?xml version="1.0" encoding="utf-8" standalone="no"?>
<!DOCTYPE svg PUBLIC "-//W3C//DTD SVG 1.1//EN"
  "http://www.w3.org/Graphics/SVG/1.1/DTD/svg11.dtd">
<svg xmlns:xlink="http://www.w3.org/1999/xlink" width="392.704121pt" height="338.4pt" viewBox="0 0 392.704121 338.4" xmlns="http://www.w3.org/2000/svg" version="1.1">
 <metadata>
  <rdf:RDF xmlns:dc="http://purl.org/dc/elements/1.1/" xmlns:cc="http://creativecommons.org/ns#" xmlns:rdf="http://www.w3.org/1999/02/22-rdf-syntax-ns#">
   <cc:Work>
    <dc:type rdf:resource="http://purl.org/dc/dcmitype/StillImage"/>
    <dc:date>2025-03-20T14:50:47.610305</dc:date>
    <dc:format>image/svg+xml</dc:format>
    <dc:creator>
     <cc:Agent>
      <dc:title>Matplotlib v3.10.1, https://matplotlib.org/</dc:title>
     </cc:Agent>
    </dc:creator>
   </cc:Work>
  </rdf:RDF>
 </metadata>
 <defs>
  <style type="text/css">*{stroke-linejoin: round; stroke-linecap: butt}</style>
 </defs>
 <g id="figure_1">
  <g id="patch_1">
   <path d="M 0 338.4 
L 392.704121 338.4 
L 392.704121 0 
L 0 0 
z
" style="fill: #ffffff"/>
  </g>
  <g id="axes_1">
   <g id="patch_2">
    <path d="M 7.2 331.2 
L 385.504121 331.2 
L 385.504121 7.2 
L 7.2 7.2 
z
" style="fill: #ffffff"/>
   </g>
   <g id="PathCollection_1">
    <path d="M 378.229042 246.774769 
C 379.166676 246.774769 380.066034 246.402243 380.729042 245.739235 
C 381.392049 245.076227 381.764575 244.17687 381.764575 243.239235 
C 381.764575 242.301601 381.392049 241.402243 380.729042 240.739235 
C 380.066034 240.076227 379.166676 239.703701 378.229042 239.703701 
C 377.291407 239.703701 376.392049 240.076227 375.729042 240.739235 
C 375.066034 241.402243 374.693508 242.301601 374.693508 243.239235 
C 374.693508 244.17687 375.066034 245.076227 375.729042 245.739235 
C 376.392049 246.402243 377.291407 246.774769 378.229042 246.774769 
z
" clip-path="url(#p8db4239a4c)"/>
   </g>
   <g id="PathCollection_2">
    <path d="M 72.645469 323.827468 
C 73.583104 323.827468 74.482461 323.454942 75.145469 322.791934 
C 75.808477 322.128926 76.181003 321.229568 76.181003 320.291934 
C 76.181003 319.354299 75.808477 318.454942 75.145469 317.791934 
C 74.482461 317.128926 73.583104 316.7564 72.645469 316.7564 
C 71.707834 316.7564 70.808477 317.128926 70.145469 317.791934 
C 69.482461 318.454942 69.109935 319.354299 69.109935 320.291934 
C 69.109935 321.229568 69.482461 322.128926 70.145469 322.791934 
C 70.808477 323.454942 71.707834 323.827468 72.645469 323.827468 
z
" clip-path="url(#p8db4239a4c)"/>
   </g>
   <g id="matplotlib.axis_1"/>
   <g id="matplotlib.axis_2"/>
   <g id="line2d_1">
    <path d="M 378.229042 243.239235 
L 343.941697 200.863859 
L 325.237097 177.871863 
L 306.746993 155.527263 
L 293.727962 140.150323 
L 282.571853 127.280791 
L 268.152831 111.160484 
L 258.477437 100.72385 
L 248.078126 89.897896 
L 241.17904 82.963335 
L 230.057444 72.244143 
L 218.790153 62.022787 
L 211.798226 56.034866 
L 203.896731 49.622921 
L 196.320996 43.854099 
L 190.827325 39.917799 
L 183.75095 35.17255 
L 180.697082 33.243139 
L 172.232635 28.289921 
L 165.399452 24.738239 
L 164.154241 24.136207 
L 156.922267 20.928218 
L 151.197082 18.753307 
L 143.868955 16.470352 
L 141.016338 15.74158 
L 136.52009 14.783655 
L 131.599443 14.013883 
L 126.231102 13.523127 
L 124.301877 13.439553 
L 120.231297 13.430769 
L 116.993826 13.591629 
L 111.680122 14.193491 
L 108.234192 14.818787 
L 102.719805 16.22654 
L 97.84279 17.91388 
L 97.186091 18.174335 
L 93.644602 19.720602 
L 88.508679 22.406646 
L 86.345299 23.703687 
L 82.11921 26.537616 
L 77.855987 29.822491 
L 76.07601 31.328099 
L 73.145359 33.988488 
L 70.189807 36.911357 
L 65.60256 41.959114 
L 61.614493 46.895842 
L 58.248083 51.497892 
L 55.723689 55.232356 
L 52.698098 60.055179 
L 49.750112 65.149683 
L 47.473635 69.375091 
L 44.626073 75.052931 
L 41.784579 81.199899 
L 37.972491 90.311557 
L 34.848366 98.645969 
L 32.714805 104.869519 
L 30.334751 112.413772 
L 27.546994 122.225436 
L 24.891975 132.81734 
L 22.908976 141.781088 
L 21.172745 150.632178 
L 19.85201 158.216913 
L 18.041336 170.392939 
L 16.820452 180.495355 
L 15.778778 191.474653 
L 15.0006 203.107313 
L 14.582238 214.02981 
L 14.475079 223.490764 
L 14.619986 232.970068 
L 14.990071 241.629214 
L 15.396044 247.696122 
L 16.236256 256.627631 
L 17.260966 264.606557 
L 18.617502 272.753411 
L 20.139795 280.013796 
L 21.256473 284.502859 
L 23.119426 290.874998 
L 24.918499 296.032602 
L 26.409484 299.733477 
L 28.343434 303.908958 
L 30.219412 307.398861 
L 32.200256 310.581422 
L 33.560798 312.507506 
L 35.883286 315.368061 
L 37.311651 316.887597 
L 40.244512 319.504955 
L 42.210305 320.920631 
L 43.975718 321.984118 
L 47.396168 323.540261 
L 50.531538 324.443735 
L 54.085225 324.933209 
L 56.62114 324.969231 
L 58.576025 324.833205 
L 62.307618 324.207782 
L 65.449922 323.337417 
L 69.450454 321.814879 
L 72.645469 320.291934 
L 72.645469 320.291934 
" clip-path="url(#p8db4239a4c)" style="fill: none; stroke: #000000; stroke-linecap: square"/>
   </g>
   <g id="patch_3">
    <path d="M 100.095964 17.080925 
Q 99.993561 17.116863 102.001066 16.412333 
" clip-path="url(#p8db4239a4c)" style="fill: none; stroke: #000000; stroke-width: 2; stroke-linecap: round"/>
    <path d="M 113.092593 17.818755 
L 102.001066 16.412333 
L 109.78112 8.382964 
z
" clip-path="url(#p8db4239a4c)" style="stroke: #000000; stroke-width: 2; stroke-linecap: round"/>
   </g>
   <g id="text_1">
    <g clip-path="url(#p8db4239a4c)">
     <!-- $P$ -->
     <g transform="translate(361.177052 272.455147) scale(0.25 -0.25)">
      <defs>
       <path id="Cmmi10-50" d="M 313 0 
Q 250 0 250 84 
Q 253 100 262 139 
Q 272 178 289 201 
Q 306 225 331 225 
Q 722 225 878 269 
Q 959 297 997 441 
L 1875 3956 
Q 1888 4019 1888 4044 
Q 1888 4113 1813 4122 
Q 1691 4147 1350 4147 
Q 1288 4147 1288 4231 
Q 1291 4247 1300 4286 
Q 1309 4325 1326 4348 
Q 1344 4372 1369 4372 
L 3578 4372 
Q 3881 4372 4165 4264 
Q 4450 4156 4631 3934 
Q 4813 3713 4813 3397 
Q 4813 2991 4527 2672 
Q 4241 2353 3814 2175 
Q 3388 1997 2988 1997 
L 1947 1997 
L 1556 416 
Q 1544 353 1544 325 
Q 1544 300 1551 283 
Q 1559 266 1573 261 
Q 1588 256 1619 250 
Q 1741 225 2081 225 
Q 2144 225 2144 141 
Q 2122 50 2109 25 
Q 2097 0 2034 0 
L 313 0 
z
M 1978 2188 
L 2875 2188 
Q 3497 2188 3822 2522 
Q 3988 2688 4092 3000 
Q 4197 3313 4197 3566 
Q 4197 3881 3956 4014 
Q 3716 4147 3359 4147 
L 2747 4147 
Q 2572 4147 2515 4117 
Q 2459 4088 2413 3928 
L 1978 2188 
z
" transform="scale(0.015625)"/>
      </defs>
      <use xlink:href="#Cmmi10-50" transform="translate(0 0.6875)"/>
     </g>
    </g>
   </g>
   <g id="text_2">
    <g clip-path="url(#p8db4239a4c)">
     <!-- $Q$ -->
     <g transform="translate(84.962943 322.726877) scale(0.25 -0.25)">
      <defs>
       <path id="Cmmi10-51" d="M 1947 -141 
Q 1466 -141 1094 79 
Q 722 300 520 692 
Q 319 1084 319 1563 
Q 319 2259 714 2950 
Q 1109 3641 1756 4077 
Q 2403 4513 3109 4513 
Q 3475 4513 3778 4381 
Q 4081 4250 4290 4017 
Q 4500 3784 4614 3471 
Q 4728 3159 4728 2791 
Q 4728 2366 4581 1936 
Q 4434 1506 4171 1136 
Q 3909 766 3559 484 
Q 3209 203 2809 38 
Q 2850 -256 2934 -425 
Q 3019 -594 3256 -594 
Q 3506 -594 3726 -412 
Q 3947 -231 4006 13 
Q 4019 72 4078 72 
Q 4147 72 4147 -13 
Q 4100 -219 4008 -430 
Q 3916 -641 3786 -823 
Q 3656 -1006 3478 -1123 
Q 3300 -1241 3084 -1241 
Q 2547 -1241 2547 -550 
Q 2547 -509 2562 -332 
Q 2578 -156 2578 -44 
Q 2269 -141 1947 -141 
z
M 1709 300 
Q 1709 44 1991 44 
Q 2275 44 2591 184 
L 2591 244 
Q 2591 503 2509 648 
Q 2428 794 2194 794 
Q 2078 794 1964 723 
Q 1850 653 1779 539 
Q 1709 425 1709 300 
z
M 1544 288 
Q 1544 456 1637 612 
Q 1731 769 1881 864 
Q 2031 959 2203 959 
Q 2481 959 2607 771 
Q 2734 584 2778 281 
Q 3188 525 3500 978 
Q 3813 1431 3977 1973 
Q 4141 2516 4141 3003 
Q 4141 3356 4023 3656 
Q 3906 3956 3664 4140 
Q 3422 4325 3066 4325 
Q 2722 4325 2403 4156 
Q 2084 3988 1813 3706 
Q 1550 3434 1342 3032 
Q 1134 2631 1021 2193 
Q 909 1756 909 1356 
Q 909 947 1068 612 
Q 1228 278 1569 128 
Q 1544 194 1544 288 
z
" transform="scale(0.015625)"/>
      </defs>
      <use xlink:href="#Cmmi10-51" transform="translate(0 0.484375)"/>
     </g>
    </g>
   </g>
  </g>
 </g>
 <defs>
  <clipPath id="p8db4239a4c">
   <rect x="7.2" y="7.2" width="378.304121" height="324"/>
  </clipPath>
 </defs>
</svg>
