<?xml version="1.0" encoding="utf-8" standalone="no"?>
<!DOCTYPE svg PUBLIC "-//W3C//DTD SVG 1.1//EN"
  "http://www.w3.org/Graphics/SVG/1.1/DTD/svg11.dtd">
<svg xmlns:xlink="http://www.w3.org/1999/xlink" width="392.659192pt" height="338.4pt" viewBox="0 0 392.659192 338.4" xmlns="http://www.w3.org/2000/svg" version="1.1">
 <metadata>
  <rdf:RDF xmlns:dc="http://purl.org/dc/elements/1.1/" xmlns:cc="http://creativecommons.org/ns#" xmlns:rdf="http://www.w3.org/1999/02/22-rdf-syntax-ns#">
   <cc:Work>
    <dc:type rdf:resource="http://purl.org/dc/dcmitype/StillImage"/>
    <dc:date>2025-04-09T11:36:05.432219</dc:date>
    <dc:format>image/svg+xml</dc:format>
    <dc:creator>
     <cc:Agent>
      <dc:title>Matplotlib v3.8.0, https://matplotlib.org/</dc:title>
     </cc:Agent>
    </dc:creator>
   </cc:Work>
  </rdf:RDF>
 </metadata>
 <defs>
  <style type="text/css">*{stroke-linejoin: round; stroke-linecap: butt}</style>
 </defs>
 <g id="figure_1">
  <g id="patch_1">
   <path d="M 0 338.4 
L 392.659192 338.4 
L 392.659192 0 
L 0 0 
z
" style="fill: #ffffff"/>
  </g>
  <g id="axes_1">
   <g id="patch_2">
    <path d="M 7.2 331.2 
L 385.459192 331.2 
L 385.459192 7.2 
L 7.2 7.2 
z
" style="fill: #ffffff"/>
   </g>
   <g id="PathCollection_1">
    <path d="M 378.184977 246.772082 
C 379.122612 246.772082 380.021969 246.399556 380.684977 245.736549 
C 381.347985 245.073541 381.720511 244.174183 381.720511 243.236549 
C 381.720511 242.298914 381.347985 241.399556 380.684977 240.736549 
C 380.021969 240.073541 379.122612 239.701015 378.184977 239.701015 
C 377.247343 239.701015 376.347985 240.073541 375.684977 240.736549 
C 375.021969 241.399556 374.649443 242.298914 374.649443 243.236549 
C 374.649443 244.174183 375.021969 245.073541 375.684977 245.736549 
C 376.347985 246.399556 377.247343 246.772082 378.184977 246.772082 
z
" clip-path="url(#p2b549fa3e0)"/>
   </g>
   <g id="PathCollection_2">
    <path d="M 137.722594 100.667392 
C 138.660228 100.667392 139.559586 100.294866 140.222594 99.631858 
C 140.885601 98.96885 141.258127 98.069492 141.258127 97.131858 
C 141.258127 96.194223 140.885601 95.294866 140.222594 94.631858 
C 139.559586 93.96885 138.660228 93.596324 137.722594 93.596324 
C 136.784959 93.596324 135.885601 93.96885 135.222594 94.631858 
C 134.559586 95.294866 134.18706 96.194223 134.18706 97.131858 
C 134.18706 98.069492 134.559586 98.96885 135.222594 99.631858 
C 135.885601 100.294866 136.784959 100.667392 137.722594 100.667392 
z
" clip-path="url(#p2b549fa3e0)"/>
   </g>
   <g id="matplotlib.axis_1"/>
   <g id="matplotlib.axis_2"/>
   <g id="line2d_1">
    <path d="M 378.184977 243.236549 
L 348.571346 206.639369 
L 323.338357 175.606873 
L 307.560944 156.549908 
L 297.112458 144.163254 
L 284.765848 129.835095 
L 273.880012 117.535014 
L 265.870095 108.715365 
L 254.389616 96.462798 
L 243.362394 85.179509 
L 235.98496 77.926838 
L 229.090168 71.382736 
L 222.872438 65.688842 
L 215.635129 59.326021 
L 206.718925 51.907339 
L 198.201918 45.288164 
L 190.896818 40.002913 
L 187.01601 37.351321 
L 178.273994 31.799612 
L 177.000554 31.041653 
L 171.832845 28.10438 
L 167.036793 25.584127 
L 163.609602 23.909526 
L 159.560251 22.071776 
L 154.796604 20.11261 
L 147.803891 17.65364 
L 142.425461 16.118447 
L 136.088555 14.731536 
L 133.044355 14.235581 
L 128.709657 13.729079 
L 124.488086 13.470484 
L 119.629711 13.473351 
L 115.021109 13.788346 
L 111.763639 14.203294 
L 106.009458 15.346522 
L 101.802281 16.532062 
L 99.35991 17.362962 
L 94.784422 19.215737 
L 91.360408 20.867123 
L 86.118545 23.863012 
L 83.180886 25.804137 
L 78.676459 29.171535 
L 76.326356 31.126822 
L 72.442165 34.676143 
L 69.014396 38.157678 
L 64.993291 42.691982 
L 61.464506 47.104272 
L 57.802384 52.150285 
L 54.60967 56.973144 
L 51.999053 61.236487 
L 48.065837 68.259103 
L 45.330673 73.613381 
L 43.662919 77.08766 
L 39.595725 86.307594 
L 37.396948 91.789696 
L 34.539378 99.523794 
L 31.361627 109.078358 
L 29.053438 116.782112 
L 26.965256 124.432193 
L 24.455278 134.704632 
L 22.398389 144.273107 
L 20.61473 153.730673 
L 19.379323 161.161004 
L 17.997083 170.721967 
L 16.860587 180.120827 
L 16.162778 187.043539 
L 15.190339 199.738845 
L 14.869112 205.777718 
L 14.538956 216.006983 
L 14.495156 226.79397 
L 14.674718 234.711767 
L 15.031657 242.3617 
L 15.624489 250.474365 
L 16.431951 258.335254 
L 17.583856 266.742578 
L 18.820958 273.819381 
L 20.397998 281.104797 
L 21.969215 287.084494 
L 23.640616 292.454607 
L 25.533795 297.612706 
L 26.896945 300.843311 
L 28.290403 303.797935 
L 30.499977 307.873455 
L 32.595459 311.155049 
L 35.301838 314.691857 
L 36.394431 315.924053 
L 39.095937 318.54752 
L 39.856062 319.185882 
L 41.699779 320.568205 
L 43.397702 321.647073 
L 46.416212 323.148299 
L 48.647693 323.946586 
L 51.643196 324.643458 
L 53.548628 324.881309 
L 57.265487 324.926924 
L 60.565238 324.543945 
L 63.622229 323.866148 
L 66.096624 323.1072 
L 68.125937 322.352997 
L 72.63769 320.280098 
L 72.63769 320.280098 
" clip-path="url(#p2b549fa3e0)" style="fill: none; stroke: #000000; stroke-linecap: square"/>
   </g>
   <g id="line2d_2">
    <path d="M 72.63769 320.280098 
L 76.952832 316.328963 
L 82.45452 310.914124 
L 86.127243 307.019365 
L 90.147819 302.445333 
L 93.807752 297.942911 
L 97.651479 292.786266 
L 101.167433 287.587121 
L 103.542478 283.747719 
L 106.414932 278.657157 
L 108.525308 274.524684 
L 110.536463 270.189185 
L 112.584872 265.256287 
L 114.488118 260.043328 
L 115.896299 255.650067 
L 117.570996 249.568521 
L 118.934406 243.574859 
L 119.818657 238.8931 
L 120.724896 233.022332 
L 121.481675 226.644008 
L 122.094844 219.382854 
L 122.516602 211.456806 
L 122.751951 202.898323 
L 122.844111 190.912532 
L 122.970229 168.284333 
L 123.302989 158.437373 
L 123.797414 150.696555 
L 124.454035 143.872395 
L 125.26921 137.644241 
L 126.184075 132.151591 
L 127.28726 126.73526 
L 128.692798 121.009236 
L 130.44726 115.032429 
L 132.037694 110.367182 
L 134.087339 105.090974 
L 135.988804 100.74361 
L 137.722594 97.131858 
L 137.722594 97.131858 
" clip-path="url(#p2b549fa3e0)" style="fill: none; stroke: #000000; stroke-linecap: square"/>
   </g>
   <g id="patch_3">
    <path d="M 100.084925 17.105093 
Q 99.982535 17.141027 101.990052 16.436492 
" clip-path="url(#p2b549fa3e0)" style="fill: none; stroke: #000000; stroke-width: 2; stroke-linecap: round"/>
    <path d="M 113.081579 17.842914 
L 101.990052 16.436492 
L 109.770106 8.407124 
z
" clip-path="url(#p2b549fa3e0)" style="stroke: #000000; stroke-width: 2; stroke-linecap: round"/>
   </g>
   <g id="patch_4">
    <path d="M 122.846044 186.391154 
Q 122.846052 185.944857 122.846022 187.734629 
" clip-path="url(#p2b549fa3e0)" style="fill: none; stroke: #000000; stroke-width: 2; stroke-linecap: round"/>
    <path d="M 117.845855 197.734546 
L 122.846022 187.734629 
L 127.845855 197.734712 
z
" clip-path="url(#p2b549fa3e0)" style="stroke: #000000; stroke-width: 2; stroke-linecap: round"/>
   </g>
   <g id="text_1">
    <g clip-path="url(#p2b549fa3e0)">
     <!-- $P$ -->
     <g transform="translate(361.134048 272.44981) scale(0.25 -0.25)">
      <defs>
       <path id="Cmmi10-50" d="M 313 0 
Q 250 0 250 84 
Q 253 100 262 139 
Q 272 178 289 201 
Q 306 225 331 225 
Q 722 225 878 269 
Q 959 297 997 441 
L 1875 3956 
Q 1888 4019 1888 4044 
Q 1888 4113 1813 4122 
Q 1691 4147 1350 4147 
Q 1288 4147 1288 4231 
Q 1291 4247 1300 4286 
Q 1309 4325 1326 4348 
Q 1344 4372 1369 4372 
L 3578 4372 
Q 3881 4372 4165 4264 
Q 4450 4156 4631 3934 
Q 4813 3713 4813 3397 
Q 4813 2991 4527 2672 
Q 4241 2353 3814 2175 
Q 3388 1997 2988 1997 
L 1947 1997 
L 1556 416 
Q 1544 353 1544 325 
Q 1544 300 1551 283 
Q 1559 266 1573 261 
Q 1588 256 1619 250 
Q 1741 225 2081 225 
Q 2144 225 2144 141 
Q 2122 50 2109 25 
Q 2097 0 2034 0 
L 313 0 
z
M 1978 2188 
L 2875 2188 
Q 3497 2188 3822 2522 
Q 3988 2688 4092 3000 
Q 4197 3313 4197 3566 
Q 4197 3881 3956 4014 
Q 3716 4147 3359 4147 
L 2747 4147 
Q 2572 4147 2515 4117 
Q 2459 4088 2413 3928 
L 1978 2188 
z
" transform="scale(0.015625)"/>
      </defs>
      <use xlink:href="#Cmmi10-50" transform="translate(0 0.6875)"/>
     </g>
    </g>
   </g>
   <g id="text_2">
    <g clip-path="url(#p2b549fa3e0)">
     <!-- $R$ -->
     <g transform="translate(150.537418 81.715471) scale(0.25 -0.25)">
      <defs>
       <path id="Cmmi10-52" d="M 313 0 
Q 250 0 250 84 
Q 253 100 262 139 
Q 272 178 289 201 
Q 306 225 331 225 
Q 722 225 878 269 
Q 959 297 997 441 
L 1875 3956 
Q 1888 4019 1888 4044 
Q 1888 4113 1813 4122 
Q 1691 4147 1350 4147 
Q 1288 4147 1288 4231 
Q 1291 4247 1300 4286 
Q 1309 4325 1326 4348 
Q 1344 4372 1369 4372 
L 3309 4372 
Q 3541 4372 3791 4319 
Q 4041 4266 4250 4152 
Q 4459 4038 4593 3848 
Q 4728 3659 4728 3406 
Q 4728 3084 4515 2831 
Q 4303 2578 3978 2408 
Q 3653 2238 3347 2169 
Q 3597 2078 3756 1879 
Q 3916 1681 3916 1422 
Q 3916 1388 3914 1370 
Q 3913 1353 3909 1331 
L 3859 763 
Q 3853 638 3847 550 
Q 3841 463 3841 409 
Q 3841 234 3892 129 
Q 3944 25 4097 25 
Q 4297 25 4448 211 
Q 4600 397 4647 616 
Q 4675 672 4709 672 
L 4769 672 
Q 4831 672 4831 588 
Q 4784 403 4682 237 
Q 4581 72 4426 -34 
Q 4272 -141 4091 -141 
Q 3716 -141 3452 26 
Q 3188 194 3188 550 
Q 3188 684 3213 788 
L 3353 1356 
Q 3378 1434 3378 1538 
Q 3378 1803 3198 1954 
Q 3019 2106 2747 2106 
L 1959 2106 
L 1538 416 
Q 1522 363 1522 325 
Q 1522 259 1600 250 
Q 1722 225 2059 225 
Q 2125 225 2125 141 
Q 2103 50 2090 25 
Q 2078 0 2016 0 
L 313 0 
z
M 1997 2272 
L 2706 2272 
Q 3403 2272 3756 2625 
Q 3919 2788 4014 3039 
Q 4109 3291 4109 3541 
Q 4109 3778 3970 3912 
Q 3831 4047 3626 4097 
Q 3422 4147 3175 4147 
L 2747 4147 
Q 2572 4147 2515 4117 
Q 2459 4088 2413 3928 
L 1997 2272 
z
" transform="scale(0.015625)"/>
      </defs>
      <use xlink:href="#Cmmi10-52" transform="translate(0 0.6875)"/>
     </g>
    </g>
   </g>
  </g>
 </g>
 <defs>
  <clipPath id="p2b549fa3e0">
   <rect x="7.2" y="7.2" width="378.259192" height="324"/>
  </clipPath>
 </defs>
</svg>
