<svg xmlns="http://www.w3.org/2000/svg" id="diagram" width="190" height="190">
  <defs>
    <clipPath id="clipPath-0">
      <rect x="5.0" y="5.0" width="180.0" height="180.0"/>
    </clipPath>
    <clipPath id="clipPath-1">
      <rect x="5.0" y="5.0" width="180.0" height="180.0"/>
    </clipPath>
  </defs>
  <path id="graph-0" stroke="blue" stroke-width="2" fill="none" d="M 5.0 291.9 L 6.8 288.3 L 8.6 284.7 L 10.4 281.1 L 12.2 277.5 L 14.0 273.9 L 15.8 270.3 L 17.6 266.7 L 19.4 263.1 L 21.2 259.5 L 23.0 255.9 L 24.8 252.3 L 26.6 248.7 L 28.4 245.1 L 30.2 241.5 L 32.0 237.9 L 33.8 234.3 L 35.6 230.7 L 37.4 227.1 L 39.2 223.5 L 41.0 219.9 L 42.8 216.3 L 44.6 212.7 L 46.4 209.1 L 48.2 205.5 L 50.0 201.9 L 51.8 198.3 L 53.6 194.7 L 55.4 191.1 L 57.2 187.5 L 59.0 183.9 L 60.8 180.3 L 62.6 176.7 L 64.4 173.1 L 66.2 169.5 L 68.0 165.9 L 69.8 162.3 L 71.6 158.7 L 73.4 155.1 L 75.2 151.5 L 77.0 147.9 L 78.8 144.3 L 80.6 140.7 L 82.4 137.1 L 84.2 133.5 L 86.0 129.9 L 87.8 126.3 L 89.6 122.7 L 91.4 119.1 L 93.2 115.5 L 95.0 111.9 L 96.8 108.3 L 98.6 104.7 L 100.4 101.1 L 102.2 97.5 L 104.0 93.9 L 105.8 90.3 L 107.6 86.7 L 109.4 83.1 L 111.2 79.5 L 113.0 75.9 L 114.8 72.3 L 116.6 68.7 L 118.4 65.1 L 120.2 61.5 L 122.0 57.9 L 123.8 54.3 L 125.6 50.7 L 127.4 47.1 L 129.2 43.5 L 131.0 39.9 L 132.8 36.3 L 134.6 32.7 L 136.4 29.1 L 138.2 25.5 L 140.0 21.9 L 141.8 18.3 L 143.6 14.7 L 145.4 11.1 L 147.2 7.5 L 149.0 3.9 L 150.8 0.3 L 152.6 -3.3 L 154.4 -6.9 L 156.2 -10.5 L 158.0 -14.1 L 159.8 -17.7 L 161.6 -21.3 L 163.4 -24.9 L 165.2 -28.5 L 167.0 -32.1 L 168.8 -35.7 L 170.6 -39.3 L 172.4 -42.9 L 174.2 -46.5 L 176.0 -50.1 L 177.8 -53.7 L 179.6 -57.3 L 181.4 -60.9 L 183.2 -64.5 L 185.0 -68.1" clip-path="url(#clipPath-1)"/>
  <circle id="circle-0" cx="119.8" cy="62.4" r="4" stroke="black" stroke-width="2" fill="red"/>
</svg>
